<?xml version="1.0" encoding="utf-8" standalone="no"?>
<!DOCTYPE svg PUBLIC "-//W3C//DTD SVG 1.1//EN"
  "http://www.w3.org/Graphics/SVG/1.1/DTD/svg11.dtd">
<svg xmlns:xlink="http://www.w3.org/1999/xlink" width="712.752451pt" height="290.88pt" viewBox="0 0 712.752451 290.88" xmlns="http://www.w3.org/2000/svg" version="1.1">
 <metadata>
  <rdf:RDF xmlns:dc="http://purl.org/dc/elements/1.1/" xmlns:cc="http://creativecommons.org/ns#" xmlns:rdf="http://www.w3.org/1999/02/22-rdf-syntax-ns#">
   <cc:Work>
    <dc:type rdf:resource="http://purl.org/dc/dcmitype/StillImage"/>
    <dc:date>2024-02-17T14:03:50.055893</dc:date>
    <dc:format>image/svg+xml</dc:format>
    <dc:creator>
     <cc:Agent>
      <dc:title>Matplotlib v3.8.2, https://matplotlib.org/</dc:title>
     </cc:Agent>
    </dc:creator>
   </cc:Work>
  </rdf:RDF>
 </metadata>
 <defs>
  <style type="text/css">*{stroke-linejoin: round; stroke-linecap: butt}</style>
 </defs>
 <g id="figure_1">
  <g id="patch_1">
   <path d="M 0 290.88 
L 712.752451 290.88 
L 712.752451 -0 
L 0 -0 
L 0 290.88 
z
" style="fill: none"/>
  </g>
  <g id="axes_1">
   <g id="patch_2">
    <path d="M 156.96 145.44 
L 151.2 149.184 
L 152.544 145.44288 
L 7.2 145.44288 
L 7.2 145.43712 
L 152.544 145.43712 
L 151.2 141.696 
z
" clip-path="url(#pdbfbca9332)" style="stroke: #000000; stroke-linejoin: miter"/>
   </g>
   <g id="patch_3">
    <path d="M 82.08 7.2 
L 85.824 12.96 
L 82.08288 11.616 
L 82.08288 283.68 
L 82.07712 283.68 
L 82.07712 11.616 
L 78.336 12.96 
z
" clip-path="url(#pdbfbca9332)" style="stroke: #000000; stroke-linejoin: miter"/>
   </g>
   <g id="patch_4">
    <path d="M 12.96 122.4 
L 16.704 128.16 
L 12.96288 126.816 
L 12.96288 145.44 
L 12.95712 145.44 
L 12.95712 126.816 
L 9.216 128.16 
z
" clip-path="url(#pdbfbca9332)" style="fill: #808080; stroke: #808080; stroke-linejoin: miter"/>
   </g>
   <g id="patch_5">
    <path d="M 12.96 128.16 
L 16.704 133.92 
L 12.96288 132.576 
L 12.96288 145.44 
L 12.95712 145.44 
L 12.95712 132.576 
L 9.216 133.92 
z
" clip-path="url(#pdbfbca9332)" style="fill: #808080; stroke: #808080; stroke-linejoin: miter"/>
   </g>
   <g id="line2d_1">
    <defs>
     <path id="md402f4cb66" d="M 0 0.5 
C 0.132602 0.5 0.25979 0.447317 0.353553 0.353553 
C 0.447317 0.25979 0.5 0.132602 0.5 0 
C 0.5 -0.132602 0.447317 -0.25979 0.353553 -0.353553 
C 0.25979 -0.447317 0.132602 -0.5 0 -0.5 
C -0.132602 -0.5 -0.25979 -0.447317 -0.353553 -0.353553 
C -0.447317 -0.25979 -0.5 -0.132602 -0.5 0 
C -0.5 0.132602 -0.447317 0.25979 -0.353553 0.353553 
C -0.25979 0.447317 -0.132602 0.5 0 0.5 
z
" style="stroke: #000000"/>
    </defs>
    <g clip-path="url(#pdbfbca9332)">
     <use xlink:href="#md402f4cb66" x="24.48" y="203.04" style="stroke: #000000"/>
     <use xlink:href="#md402f4cb66" x="24.48" y="191.52" style="stroke: #000000"/>
     <use xlink:href="#md402f4cb66" x="24.48" y="180" style="stroke: #000000"/>
     <use xlink:href="#md402f4cb66" x="24.48" y="168.48" style="stroke: #000000"/>
     <use xlink:href="#md402f4cb66" x="24.48" y="156.96" style="stroke: #000000"/>
     <use xlink:href="#md402f4cb66" x="24.48" y="145.44" style="stroke: #000000"/>
     <use xlink:href="#md402f4cb66" x="24.48" y="133.92" style="stroke: #000000"/>
     <use xlink:href="#md402f4cb66" x="24.48" y="122.4" style="stroke: #000000"/>
     <use xlink:href="#md402f4cb66" x="24.48" y="110.88" style="stroke: #000000"/>
     <use xlink:href="#md402f4cb66" x="24.48" y="99.36" style="stroke: #000000"/>
     <use xlink:href="#md402f4cb66" x="24.48" y="87.84" style="stroke: #000000"/>
    </g>
   </g>
   <g id="line2d_2">
    <g clip-path="url(#pdbfbca9332)">
     <use xlink:href="#md402f4cb66" x="36" y="203.04" style="stroke: #000000"/>
     <use xlink:href="#md402f4cb66" x="36" y="191.52" style="stroke: #000000"/>
     <use xlink:href="#md402f4cb66" x="36" y="180" style="stroke: #000000"/>
     <use xlink:href="#md402f4cb66" x="36" y="168.48" style="stroke: #000000"/>
     <use xlink:href="#md402f4cb66" x="36" y="156.96" style="stroke: #000000"/>
     <use xlink:href="#md402f4cb66" x="36" y="145.44" style="stroke: #000000"/>
     <use xlink:href="#md402f4cb66" x="36" y="133.92" style="stroke: #000000"/>
     <use xlink:href="#md402f4cb66" x="36" y="122.4" style="stroke: #000000"/>
     <use xlink:href="#md402f4cb66" x="36" y="110.88" style="stroke: #000000"/>
     <use xlink:href="#md402f4cb66" x="36" y="99.36" style="stroke: #000000"/>
     <use xlink:href="#md402f4cb66" x="36" y="87.84" style="stroke: #000000"/>
    </g>
   </g>
   <g id="line2d_3">
    <g clip-path="url(#pdbfbca9332)">
     <use xlink:href="#md402f4cb66" x="47.52" y="203.04" style="stroke: #000000"/>
     <use xlink:href="#md402f4cb66" x="47.52" y="191.52" style="stroke: #000000"/>
     <use xlink:href="#md402f4cb66" x="47.52" y="180" style="stroke: #000000"/>
     <use xlink:href="#md402f4cb66" x="47.52" y="168.48" style="stroke: #000000"/>
     <use xlink:href="#md402f4cb66" x="47.52" y="156.96" style="stroke: #000000"/>
     <use xlink:href="#md402f4cb66" x="47.52" y="145.44" style="stroke: #000000"/>
     <use xlink:href="#md402f4cb66" x="47.52" y="133.92" style="stroke: #000000"/>
     <use xlink:href="#md402f4cb66" x="47.52" y="122.4" style="stroke: #000000"/>
     <use xlink:href="#md402f4cb66" x="47.52" y="110.88" style="stroke: #000000"/>
     <use xlink:href="#md402f4cb66" x="47.52" y="99.36" style="stroke: #000000"/>
     <use xlink:href="#md402f4cb66" x="47.52" y="87.84" style="stroke: #000000"/>
    </g>
   </g>
   <g id="line2d_4">
    <g clip-path="url(#pdbfbca9332)">
     <use xlink:href="#md402f4cb66" x="59.04" y="203.04" style="stroke: #000000"/>
     <use xlink:href="#md402f4cb66" x="59.04" y="191.52" style="stroke: #000000"/>
     <use xlink:href="#md402f4cb66" x="59.04" y="180" style="stroke: #000000"/>
     <use xlink:href="#md402f4cb66" x="59.04" y="168.48" style="stroke: #000000"/>
     <use xlink:href="#md402f4cb66" x="59.04" y="156.96" style="stroke: #000000"/>
     <use xlink:href="#md402f4cb66" x="59.04" y="145.44" style="stroke: #000000"/>
     <use xlink:href="#md402f4cb66" x="59.04" y="133.92" style="stroke: #000000"/>
     <use xlink:href="#md402f4cb66" x="59.04" y="122.4" style="stroke: #000000"/>
     <use xlink:href="#md402f4cb66" x="59.04" y="110.88" style="stroke: #000000"/>
     <use xlink:href="#md402f4cb66" x="59.04" y="99.36" style="stroke: #000000"/>
     <use xlink:href="#md402f4cb66" x="59.04" y="87.84" style="stroke: #000000"/>
    </g>
   </g>
   <g id="line2d_5">
    <g clip-path="url(#pdbfbca9332)">
     <use xlink:href="#md402f4cb66" x="70.56" y="203.04" style="stroke: #000000"/>
     <use xlink:href="#md402f4cb66" x="70.56" y="191.52" style="stroke: #000000"/>
     <use xlink:href="#md402f4cb66" x="70.56" y="180" style="stroke: #000000"/>
     <use xlink:href="#md402f4cb66" x="70.56" y="168.48" style="stroke: #000000"/>
     <use xlink:href="#md402f4cb66" x="70.56" y="156.96" style="stroke: #000000"/>
     <use xlink:href="#md402f4cb66" x="70.56" y="145.44" style="stroke: #000000"/>
     <use xlink:href="#md402f4cb66" x="70.56" y="133.92" style="stroke: #000000"/>
     <use xlink:href="#md402f4cb66" x="70.56" y="122.4" style="stroke: #000000"/>
     <use xlink:href="#md402f4cb66" x="70.56" y="110.88" style="stroke: #000000"/>
     <use xlink:href="#md402f4cb66" x="70.56" y="99.36" style="stroke: #000000"/>
     <use xlink:href="#md402f4cb66" x="70.56" y="87.84" style="stroke: #000000"/>
    </g>
   </g>
   <g id="line2d_6">
    <g clip-path="url(#pdbfbca9332)">
     <use xlink:href="#md402f4cb66" x="82.08" y="203.04" style="stroke: #000000"/>
     <use xlink:href="#md402f4cb66" x="82.08" y="191.52" style="stroke: #000000"/>
     <use xlink:href="#md402f4cb66" x="82.08" y="180" style="stroke: #000000"/>
     <use xlink:href="#md402f4cb66" x="82.08" y="168.48" style="stroke: #000000"/>
     <use xlink:href="#md402f4cb66" x="82.08" y="156.96" style="stroke: #000000"/>
     <use xlink:href="#md402f4cb66" x="82.08" y="145.44" style="stroke: #000000"/>
     <use xlink:href="#md402f4cb66" x="82.08" y="133.92" style="stroke: #000000"/>
     <use xlink:href="#md402f4cb66" x="82.08" y="122.4" style="stroke: #000000"/>
     <use xlink:href="#md402f4cb66" x="82.08" y="110.88" style="stroke: #000000"/>
     <use xlink:href="#md402f4cb66" x="82.08" y="99.36" style="stroke: #000000"/>
     <use xlink:href="#md402f4cb66" x="82.08" y="87.84" style="stroke: #000000"/>
    </g>
   </g>
   <g id="line2d_7">
    <g clip-path="url(#pdbfbca9332)">
     <use xlink:href="#md402f4cb66" x="93.6" y="203.04" style="stroke: #000000"/>
     <use xlink:href="#md402f4cb66" x="93.6" y="191.52" style="stroke: #000000"/>
     <use xlink:href="#md402f4cb66" x="93.6" y="180" style="stroke: #000000"/>
     <use xlink:href="#md402f4cb66" x="93.6" y="168.48" style="stroke: #000000"/>
     <use xlink:href="#md402f4cb66" x="93.6" y="156.96" style="stroke: #000000"/>
     <use xlink:href="#md402f4cb66" x="93.6" y="145.44" style="stroke: #000000"/>
     <use xlink:href="#md402f4cb66" x="93.6" y="133.92" style="stroke: #000000"/>
     <use xlink:href="#md402f4cb66" x="93.6" y="122.4" style="stroke: #000000"/>
     <use xlink:href="#md402f4cb66" x="93.6" y="110.88" style="stroke: #000000"/>
     <use xlink:href="#md402f4cb66" x="93.6" y="99.36" style="stroke: #000000"/>
     <use xlink:href="#md402f4cb66" x="93.6" y="87.84" style="stroke: #000000"/>
    </g>
   </g>
   <g id="line2d_8">
    <g clip-path="url(#pdbfbca9332)">
     <use xlink:href="#md402f4cb66" x="105.12" y="203.04" style="stroke: #000000"/>
     <use xlink:href="#md402f4cb66" x="105.12" y="191.52" style="stroke: #000000"/>
     <use xlink:href="#md402f4cb66" x="105.12" y="180" style="stroke: #000000"/>
     <use xlink:href="#md402f4cb66" x="105.12" y="168.48" style="stroke: #000000"/>
     <use xlink:href="#md402f4cb66" x="105.12" y="156.96" style="stroke: #000000"/>
     <use xlink:href="#md402f4cb66" x="105.12" y="145.44" style="stroke: #000000"/>
     <use xlink:href="#md402f4cb66" x="105.12" y="133.92" style="stroke: #000000"/>
     <use xlink:href="#md402f4cb66" x="105.12" y="122.4" style="stroke: #000000"/>
     <use xlink:href="#md402f4cb66" x="105.12" y="110.88" style="stroke: #000000"/>
     <use xlink:href="#md402f4cb66" x="105.12" y="99.36" style="stroke: #000000"/>
     <use xlink:href="#md402f4cb66" x="105.12" y="87.84" style="stroke: #000000"/>
    </g>
   </g>
   <g id="line2d_9">
    <g clip-path="url(#pdbfbca9332)">
     <use xlink:href="#md402f4cb66" x="116.64" y="203.04" style="stroke: #000000"/>
     <use xlink:href="#md402f4cb66" x="116.64" y="191.52" style="stroke: #000000"/>
     <use xlink:href="#md402f4cb66" x="116.64" y="180" style="stroke: #000000"/>
     <use xlink:href="#md402f4cb66" x="116.64" y="168.48" style="stroke: #000000"/>
     <use xlink:href="#md402f4cb66" x="116.64" y="156.96" style="stroke: #000000"/>
     <use xlink:href="#md402f4cb66" x="116.64" y="145.44" style="stroke: #000000"/>
     <use xlink:href="#md402f4cb66" x="116.64" y="133.92" style="stroke: #000000"/>
     <use xlink:href="#md402f4cb66" x="116.64" y="122.4" style="stroke: #000000"/>
     <use xlink:href="#md402f4cb66" x="116.64" y="110.88" style="stroke: #000000"/>
     <use xlink:href="#md402f4cb66" x="116.64" y="99.36" style="stroke: #000000"/>
     <use xlink:href="#md402f4cb66" x="116.64" y="87.84" style="stroke: #000000"/>
    </g>
   </g>
   <g id="line2d_10">
    <g clip-path="url(#pdbfbca9332)">
     <use xlink:href="#md402f4cb66" x="128.16" y="203.04" style="stroke: #000000"/>
     <use xlink:href="#md402f4cb66" x="128.16" y="191.52" style="stroke: #000000"/>
     <use xlink:href="#md402f4cb66" x="128.16" y="180" style="stroke: #000000"/>
     <use xlink:href="#md402f4cb66" x="128.16" y="168.48" style="stroke: #000000"/>
     <use xlink:href="#md402f4cb66" x="128.16" y="156.96" style="stroke: #000000"/>
     <use xlink:href="#md402f4cb66" x="128.16" y="145.44" style="stroke: #000000"/>
     <use xlink:href="#md402f4cb66" x="128.16" y="133.92" style="stroke: #000000"/>
     <use xlink:href="#md402f4cb66" x="128.16" y="122.4" style="stroke: #000000"/>
     <use xlink:href="#md402f4cb66" x="128.16" y="110.88" style="stroke: #000000"/>
     <use xlink:href="#md402f4cb66" x="128.16" y="99.36" style="stroke: #000000"/>
     <use xlink:href="#md402f4cb66" x="128.16" y="87.84" style="stroke: #000000"/>
    </g>
   </g>
   <g id="line2d_11">
    <g clip-path="url(#pdbfbca9332)">
     <use xlink:href="#md402f4cb66" x="139.68" y="203.04" style="stroke: #000000"/>
     <use xlink:href="#md402f4cb66" x="139.68" y="191.52" style="stroke: #000000"/>
     <use xlink:href="#md402f4cb66" x="139.68" y="180" style="stroke: #000000"/>
     <use xlink:href="#md402f4cb66" x="139.68" y="168.48" style="stroke: #000000"/>
     <use xlink:href="#md402f4cb66" x="139.68" y="156.96" style="stroke: #000000"/>
     <use xlink:href="#md402f4cb66" x="139.68" y="145.44" style="stroke: #000000"/>
     <use xlink:href="#md402f4cb66" x="139.68" y="133.92" style="stroke: #000000"/>
     <use xlink:href="#md402f4cb66" x="139.68" y="122.4" style="stroke: #000000"/>
     <use xlink:href="#md402f4cb66" x="139.68" y="110.88" style="stroke: #000000"/>
     <use xlink:href="#md402f4cb66" x="139.68" y="99.36" style="stroke: #000000"/>
     <use xlink:href="#md402f4cb66" x="139.68" y="87.84" style="stroke: #000000"/>
    </g>
   </g>
   <g id="text_1">
    <!-- y -->
    <g transform="translate(151.2 139.68) scale(0.1 -0.1)">
     <defs>
      <path id="DejaVuSans-79" d="M 2059 -325 
Q 1816 -950 1584 -1140 
Q 1353 -1331 966 -1331 
L 506 -1331 
L 506 -850 
L 844 -850 
Q 1081 -850 1212 -737 
Q 1344 -625 1503 -206 
L 1606 56 
L 191 3500 
L 800 3500 
L 1894 763 
L 2988 3500 
L 3597 3500 
L 2059 -325 
z
" transform="scale(0.015625)"/>
     </defs>
     <use xlink:href="#DejaVuSans-79"/>
    </g>
   </g>
   <g id="text_2">
    <!-- z -->
    <g transform="translate(87.84 18.72) scale(0.1 -0.1)">
     <defs>
      <path id="DejaVuSans-7a" d="M 353 3500 
L 3084 3500 
L 3084 2975 
L 922 459 
L 3084 459 
L 3084 0 
L 275 0 
L 275 525 
L 2438 3041 
L 353 3041 
L 353 3500 
z
" transform="scale(0.015625)"/>
     </defs>
     <use xlink:href="#DejaVuSans-7a"/>
    </g>
   </g>
   <g id="text_3">
    <!-- v -->
    <g style="fill: #808080" transform="translate(7.2 116.64) scale(0.1 -0.1)">
     <defs>
      <path id="DejaVuSans-76" d="M 191 3500 
L 800 3500 
L 1894 563 
L 2988 3500 
L 3597 3500 
L 2284 0 
L 1503 0 
L 191 3500 
z
" transform="scale(0.015625)"/>
     </defs>
     <use xlink:href="#DejaVuSans-76"/>
    </g>
   </g>
   <g id="text_4">
    <!-- t = 0 -->
    <g transform="translate(168.48 205.344) scale(0.1 -0.1)">
     <defs>
      <path id="DejaVuSans-74" d="M 1172 4494 
L 1172 3500 
L 2356 3500 
L 2356 3053 
L 1172 3053 
L 1172 1153 
Q 1172 725 1289 603 
Q 1406 481 1766 481 
L 2356 481 
L 2356 0 
L 1766 0 
Q 1100 0 847 248 
Q 594 497 594 1153 
L 594 3053 
L 172 3053 
L 172 3500 
L 594 3500 
L 594 4494 
L 1172 4494 
z
" transform="scale(0.015625)"/>
      <path id="DejaVuSans-20" transform="scale(0.015625)"/>
      <path id="DejaVuSans-3d" d="M 678 2906 
L 4684 2906 
L 4684 2381 
L 678 2381 
L 678 2906 
z
M 678 1631 
L 4684 1631 
L 4684 1100 
L 678 1100 
L 678 1631 
z
" transform="scale(0.015625)"/>
      <path id="DejaVuSans-30" d="M 2034 4250 
Q 1547 4250 1301 3770 
Q 1056 3291 1056 2328 
Q 1056 1369 1301 889 
Q 1547 409 2034 409 
Q 2525 409 2770 889 
Q 3016 1369 3016 2328 
Q 3016 3291 2770 3770 
Q 2525 4250 2034 4250 
z
M 2034 4750 
Q 2819 4750 3233 4129 
Q 3647 3509 3647 2328 
Q 3647 1150 3233 529 
Q 2819 -91 2034 -91 
Q 1250 -91 836 529 
Q 422 1150 422 2328 
Q 422 3509 836 4129 
Q 1250 4750 2034 4750 
z
" transform="scale(0.015625)"/>
     </defs>
     <use xlink:href="#DejaVuSans-74"/>
     <use xlink:href="#DejaVuSans-20" x="39.208984"/>
     <use xlink:href="#DejaVuSans-3d" x="70.996094"/>
     <use xlink:href="#DejaVuSans-20" x="154.785156"/>
     <use xlink:href="#DejaVuSans-30" x="186.572266"/>
    </g>
   </g>
   <g id="text_5">
    <!-- t = 0 -->
    <g transform="translate(168.48 193.824) scale(0.1 -0.1)">
     <use xlink:href="#DejaVuSans-74"/>
     <use xlink:href="#DejaVuSans-20" x="39.208984"/>
     <use xlink:href="#DejaVuSans-3d" x="70.996094"/>
     <use xlink:href="#DejaVuSans-20" x="154.785156"/>
     <use xlink:href="#DejaVuSans-30" x="186.572266"/>
    </g>
   </g>
   <g id="text_6">
    <!-- t = 0 -->
    <g transform="translate(168.48 182.304) scale(0.1 -0.1)">
     <use xlink:href="#DejaVuSans-74"/>
     <use xlink:href="#DejaVuSans-20" x="39.208984"/>
     <use xlink:href="#DejaVuSans-3d" x="70.996094"/>
     <use xlink:href="#DejaVuSans-20" x="154.785156"/>
     <use xlink:href="#DejaVuSans-30" x="186.572266"/>
    </g>
   </g>
   <g id="text_7">
    <!-- t = 0 -->
    <g transform="translate(168.48 170.784) scale(0.1 -0.1)">
     <use xlink:href="#DejaVuSans-74"/>
     <use xlink:href="#DejaVuSans-20" x="39.208984"/>
     <use xlink:href="#DejaVuSans-3d" x="70.996094"/>
     <use xlink:href="#DejaVuSans-20" x="154.785156"/>
     <use xlink:href="#DejaVuSans-30" x="186.572266"/>
    </g>
   </g>
   <g id="text_8">
    <!-- t = 0 -->
    <g transform="translate(168.48 159.264) scale(0.1 -0.1)">
     <use xlink:href="#DejaVuSans-74"/>
     <use xlink:href="#DejaVuSans-20" x="39.208984"/>
     <use xlink:href="#DejaVuSans-3d" x="70.996094"/>
     <use xlink:href="#DejaVuSans-20" x="154.785156"/>
     <use xlink:href="#DejaVuSans-30" x="186.572266"/>
    </g>
   </g>
   <g id="text_9">
    <!-- t = 0 -->
    <g transform="translate(168.48 147.744) scale(0.1 -0.1)">
     <use xlink:href="#DejaVuSans-74"/>
     <use xlink:href="#DejaVuSans-20" x="39.208984"/>
     <use xlink:href="#DejaVuSans-3d" x="70.996094"/>
     <use xlink:href="#DejaVuSans-20" x="154.785156"/>
     <use xlink:href="#DejaVuSans-30" x="186.572266"/>
    </g>
   </g>
   <g id="text_10">
    <!-- t = 0 -->
    <g transform="translate(168.48 136.224) scale(0.1 -0.1)">
     <use xlink:href="#DejaVuSans-74"/>
     <use xlink:href="#DejaVuSans-20" x="39.208984"/>
     <use xlink:href="#DejaVuSans-3d" x="70.996094"/>
     <use xlink:href="#DejaVuSans-20" x="154.785156"/>
     <use xlink:href="#DejaVuSans-30" x="186.572266"/>
    </g>
   </g>
   <g id="text_11">
    <!-- t = 0 -->
    <g transform="translate(168.48 124.704) scale(0.1 -0.1)">
     <use xlink:href="#DejaVuSans-74"/>
     <use xlink:href="#DejaVuSans-20" x="39.208984"/>
     <use xlink:href="#DejaVuSans-3d" x="70.996094"/>
     <use xlink:href="#DejaVuSans-20" x="154.785156"/>
     <use xlink:href="#DejaVuSans-30" x="186.572266"/>
    </g>
   </g>
   <g id="text_12">
    <!-- t = 0 -->
    <g transform="translate(168.48 113.184) scale(0.1 -0.1)">
     <use xlink:href="#DejaVuSans-74"/>
     <use xlink:href="#DejaVuSans-20" x="39.208984"/>
     <use xlink:href="#DejaVuSans-3d" x="70.996094"/>
     <use xlink:href="#DejaVuSans-20" x="154.785156"/>
     <use xlink:href="#DejaVuSans-30" x="186.572266"/>
    </g>
   </g>
   <g id="text_13">
    <!-- t = 0 -->
    <g transform="translate(168.48 101.664) scale(0.1 -0.1)">
     <use xlink:href="#DejaVuSans-74"/>
     <use xlink:href="#DejaVuSans-20" x="39.208984"/>
     <use xlink:href="#DejaVuSans-3d" x="70.996094"/>
     <use xlink:href="#DejaVuSans-20" x="154.785156"/>
     <use xlink:href="#DejaVuSans-30" x="186.572266"/>
    </g>
   </g>
   <g id="text_14">
    <!-- t = 0 -->
    <g transform="translate(168.48 90.144) scale(0.1 -0.1)">
     <use xlink:href="#DejaVuSans-74"/>
     <use xlink:href="#DejaVuSans-20" x="39.208984"/>
     <use xlink:href="#DejaVuSans-3d" x="70.996094"/>
     <use xlink:href="#DejaVuSans-20" x="154.785156"/>
     <use xlink:href="#DejaVuSans-30" x="186.572266"/>
    </g>
   </g>
  </g>
  <g id="axes_2">
   <g id="patch_6">
    <path d="M 411.612632 145.44 
L 405.852632 149.184 
L 407.196632 145.44288 
L 261.852632 145.44288 
L 261.852632 145.43712 
L 407.196632 145.43712 
L 405.852632 141.696 
z
" clip-path="url(#p967e69648d)" style="fill: #808080; stroke: #808080; stroke-linejoin: miter"/>
   </g>
   <g id="patch_7">
    <path d="M 336.732632 7.2 
L 340.476632 12.96 
L 336.735512 11.616 
L 336.735512 283.68 
L 336.729752 283.68 
L 336.729752 11.616 
L 332.988632 12.96 
z
" clip-path="url(#p967e69648d)" style="fill: #808080; stroke: #808080; stroke-linejoin: miter"/>
   </g>
   <g id="Quiver_1">
    <path d="M 279.507032 272.543463 
L 279.507032 279.253863 
L 281.004632 278.879463 
L 279.132632 282.623463 
L 277.260632 278.879463 
L 278.758232 279.253863 
L 278.758232 272.543463 
L 279.507032 272.543463 
" clip-path="url(#p967e69648d)" style="fill: #000080"/>
    <path d="M 291.027032 272.543463 
L 291.027032 279.253863 
L 292.524632 278.879463 
L 290.652632 282.623463 
L 288.780632 278.879463 
L 290.278232 279.253863 
L 290.278232 272.543463 
L 291.027032 272.543463 
" clip-path="url(#p967e69648d)" style="fill: #000080"/>
    <path d="M 302.547032 272.543463 
L 302.547032 279.253863 
L 304.044632 278.879463 
L 302.172632 282.623463 
L 300.300632 278.879463 
L 301.798232 279.253863 
L 301.798232 272.543463 
L 302.547032 272.543463 
" clip-path="url(#p967e69648d)" style="fill: #000080"/>
    <path d="M 314.067032 272.543463 
L 314.067032 279.253863 
L 315.564632 278.879463 
L 313.692632 282.623463 
L 311.820632 278.879463 
L 313.318232 279.253863 
L 313.318232 272.543463 
L 314.067032 272.543463 
" clip-path="url(#p967e69648d)" style="fill: #000080"/>
    <path d="M 325.587032 272.543463 
L 325.587032 279.253863 
L 327.084632 278.879463 
L 325.212632 282.623463 
L 323.340632 278.879463 
L 324.838232 279.253863 
L 324.838232 272.543463 
L 325.587032 272.543463 
" clip-path="url(#p967e69648d)" style="fill: #000080"/>
    <path d="M 337.107032 272.543463 
L 337.107032 279.253863 
L 338.604632 278.879463 
L 336.732632 282.623463 
L 334.860632 278.879463 
L 336.358232 279.253863 
L 336.358232 272.543463 
L 337.107032 272.543463 
" clip-path="url(#p967e69648d)" style="fill: #000080"/>
    <path d="M 348.627032 272.543463 
L 348.627032 279.253863 
L 350.124632 278.879463 
L 348.252632 282.623463 
L 346.380632 278.879463 
L 347.878232 279.253863 
L 347.878232 272.543463 
L 348.627032 272.543463 
" clip-path="url(#p967e69648d)" style="fill: #000080"/>
    <path d="M 360.147032 272.543463 
L 360.147032 279.253863 
L 361.644632 278.879463 
L 359.772632 282.623463 
L 357.900632 278.879463 
L 359.398232 279.253863 
L 359.398232 272.543463 
L 360.147032 272.543463 
" clip-path="url(#p967e69648d)" style="fill: #000080"/>
    <path d="M 371.667032 272.543463 
L 371.667032 279.253863 
L 373.164632 278.879463 
L 371.292632 282.623463 
L 369.420632 278.879463 
L 370.918232 279.253863 
L 370.918232 272.543463 
L 371.667032 272.543463 
" clip-path="url(#p967e69648d)" style="fill: #000080"/>
    <path d="M 383.187032 272.543463 
L 383.187032 279.253863 
L 384.684632 278.879463 
L 382.812632 282.623463 
L 380.940632 278.879463 
L 382.438232 279.253863 
L 382.438232 272.543463 
L 383.187032 272.543463 
" clip-path="url(#p967e69648d)" style="fill: #000080"/>
    <path d="M 394.707032 272.543463 
L 394.707032 279.253863 
L 396.204632 278.879463 
L 394.332632 282.623463 
L 392.460632 278.879463 
L 393.958232 279.253863 
L 393.958232 272.543463 
L 394.707032 272.543463 
" clip-path="url(#p967e69648d)" style="fill: #000080"/>
    <path d="M 279.507032 246.11477 
L 279.507032 252.82517 
L 281.004632 252.45077 
L 279.132632 256.19477 
L 277.260632 252.45077 
L 278.758232 252.82517 
L 278.758232 246.11477 
L 279.507032 246.11477 
" clip-path="url(#p967e69648d)" style="fill: #0000f1"/>
    <path d="M 291.027032 246.11477 
L 291.027032 252.82517 
L 292.524632 252.45077 
L 290.652632 256.19477 
L 288.780632 252.45077 
L 290.278232 252.82517 
L 290.278232 246.11477 
L 291.027032 246.11477 
" clip-path="url(#p967e69648d)" style="fill: #0000f1"/>
    <path d="M 302.547032 246.11477 
L 302.547032 252.82517 
L 304.044632 252.45077 
L 302.172632 256.19477 
L 300.300632 252.45077 
L 301.798232 252.82517 
L 301.798232 246.11477 
L 302.547032 246.11477 
" clip-path="url(#p967e69648d)" style="fill: #0000f1"/>
    <path d="M 314.067032 246.11477 
L 314.067032 252.82517 
L 315.564632 252.45077 
L 313.692632 256.19477 
L 311.820632 252.45077 
L 313.318232 252.82517 
L 313.318232 246.11477 
L 314.067032 246.11477 
" clip-path="url(#p967e69648d)" style="fill: #0000f1"/>
    <path d="M 325.587032 246.11477 
L 325.587032 252.82517 
L 327.084632 252.45077 
L 325.212632 256.19477 
L 323.340632 252.45077 
L 324.838232 252.82517 
L 324.838232 246.11477 
L 325.587032 246.11477 
" clip-path="url(#p967e69648d)" style="fill: #0000f1"/>
    <path d="M 337.107032 246.11477 
L 337.107032 252.82517 
L 338.604632 252.45077 
L 336.732632 256.19477 
L 334.860632 252.45077 
L 336.358232 252.82517 
L 336.358232 246.11477 
L 337.107032 246.11477 
" clip-path="url(#p967e69648d)" style="fill: #0000f1"/>
    <path d="M 348.627032 246.11477 
L 348.627032 252.82517 
L 350.124632 252.45077 
L 348.252632 256.19477 
L 346.380632 252.45077 
L 347.878232 252.82517 
L 347.878232 246.11477 
L 348.627032 246.11477 
" clip-path="url(#p967e69648d)" style="fill: #0000f1"/>
    <path d="M 360.147032 246.11477 
L 360.147032 252.82517 
L 361.644632 252.45077 
L 359.772632 256.19477 
L 357.900632 252.45077 
L 359.398232 252.82517 
L 359.398232 246.11477 
L 360.147032 246.11477 
" clip-path="url(#p967e69648d)" style="fill: #0000f1"/>
    <path d="M 371.667032 246.11477 
L 371.667032 252.82517 
L 373.164632 252.45077 
L 371.292632 256.19477 
L 369.420632 252.45077 
L 370.918232 252.82517 
L 370.918232 246.11477 
L 371.667032 246.11477 
" clip-path="url(#p967e69648d)" style="fill: #0000f1"/>
    <path d="M 383.187032 246.11477 
L 383.187032 252.82517 
L 384.684632 252.45077 
L 382.812632 256.19477 
L 380.940632 252.45077 
L 382.438232 252.82517 
L 382.438232 246.11477 
L 383.187032 246.11477 
" clip-path="url(#p967e69648d)" style="fill: #0000f1"/>
    <path d="M 394.707032 246.11477 
L 394.707032 252.82517 
L 396.204632 252.45077 
L 394.332632 256.19477 
L 392.460632 252.45077 
L 393.958232 252.82517 
L 393.958232 246.11477 
L 394.707032 246.11477 
" clip-path="url(#p967e69648d)" style="fill: #0000f1"/>
    <path d="M 279.507032 219.686078 
L 279.507032 226.396478 
L 281.004632 226.022078 
L 279.132632 229.766078 
L 277.260632 226.022078 
L 278.758232 226.396478 
L 278.758232 219.686078 
L 279.507032 219.686078 
" clip-path="url(#p967e69648d)" style="fill: #004cff"/>
    <path d="M 291.027032 219.686078 
L 291.027032 226.396478 
L 292.524632 226.022078 
L 290.652632 229.766078 
L 288.780632 226.022078 
L 290.278232 226.396478 
L 290.278232 219.686078 
L 291.027032 219.686078 
" clip-path="url(#p967e69648d)" style="fill: #004cff"/>
    <path d="M 302.547032 219.686078 
L 302.547032 226.396478 
L 304.044632 226.022078 
L 302.172632 229.766078 
L 300.300632 226.022078 
L 301.798232 226.396478 
L 301.798232 219.686078 
L 302.547032 219.686078 
" clip-path="url(#p967e69648d)" style="fill: #004cff"/>
    <path d="M 314.067032 219.686078 
L 314.067032 226.396478 
L 315.564632 226.022078 
L 313.692632 229.766078 
L 311.820632 226.022078 
L 313.318232 226.396478 
L 313.318232 219.686078 
L 314.067032 219.686078 
" clip-path="url(#p967e69648d)" style="fill: #004cff"/>
    <path d="M 325.587032 219.686078 
L 325.587032 226.396478 
L 327.084632 226.022078 
L 325.212632 229.766078 
L 323.340632 226.022078 
L 324.838232 226.396478 
L 324.838232 219.686078 
L 325.587032 219.686078 
" clip-path="url(#p967e69648d)" style="fill: #004cff"/>
    <path d="M 337.107032 219.686078 
L 337.107032 226.396478 
L 338.604632 226.022078 
L 336.732632 229.766078 
L 334.860632 226.022078 
L 336.358232 226.396478 
L 336.358232 219.686078 
L 337.107032 219.686078 
" clip-path="url(#p967e69648d)" style="fill: #004cff"/>
    <path d="M 348.627032 219.686078 
L 348.627032 226.396478 
L 350.124632 226.022078 
L 348.252632 229.766078 
L 346.380632 226.022078 
L 347.878232 226.396478 
L 347.878232 219.686078 
L 348.627032 219.686078 
" clip-path="url(#p967e69648d)" style="fill: #004cff"/>
    <path d="M 360.147032 219.686078 
L 360.147032 226.396478 
L 361.644632 226.022078 
L 359.772632 229.766078 
L 357.900632 226.022078 
L 359.398232 226.396478 
L 359.398232 219.686078 
L 360.147032 219.686078 
" clip-path="url(#p967e69648d)" style="fill: #004cff"/>
    <path d="M 371.667032 219.686078 
L 371.667032 226.396478 
L 373.164632 226.022078 
L 371.292632 229.766078 
L 369.420632 226.022078 
L 370.918232 226.396478 
L 370.918232 219.686078 
L 371.667032 219.686078 
" clip-path="url(#p967e69648d)" style="fill: #004cff"/>
    <path d="M 383.187032 219.686078 
L 383.187032 226.396478 
L 384.684632 226.022078 
L 382.812632 229.766078 
L 380.940632 226.022078 
L 382.438232 226.396478 
L 382.438232 219.686078 
L 383.187032 219.686078 
" clip-path="url(#p967e69648d)" style="fill: #004cff"/>
    <path d="M 394.707032 219.686078 
L 394.707032 226.396478 
L 396.204632 226.022078 
L 394.332632 229.766078 
L 392.460632 226.022078 
L 393.958232 226.396478 
L 393.958232 219.686078 
L 394.707032 219.686078 
" clip-path="url(#p967e69648d)" style="fill: #004cff"/>
    <path d="M 279.507032 193.257385 
L 279.507032 199.967785 
L 281.004632 199.593385 
L 279.132632 203.337385 
L 277.260632 199.593385 
L 278.758232 199.967785 
L 278.758232 193.257385 
L 279.507032 193.257385 
" clip-path="url(#p967e69648d)" style="fill: #00b0ff"/>
    <path d="M 291.027032 193.257385 
L 291.027032 199.967785 
L 292.524632 199.593385 
L 290.652632 203.337385 
L 288.780632 199.593385 
L 290.278232 199.967785 
L 290.278232 193.257385 
L 291.027032 193.257385 
" clip-path="url(#p967e69648d)" style="fill: #00b0ff"/>
    <path d="M 302.547032 193.257385 
L 302.547032 199.967785 
L 304.044632 199.593385 
L 302.172632 203.337385 
L 300.300632 199.593385 
L 301.798232 199.967785 
L 301.798232 193.257385 
L 302.547032 193.257385 
" clip-path="url(#p967e69648d)" style="fill: #00b0ff"/>
    <path d="M 314.067032 193.257385 
L 314.067032 199.967785 
L 315.564632 199.593385 
L 313.692632 203.337385 
L 311.820632 199.593385 
L 313.318232 199.967785 
L 313.318232 193.257385 
L 314.067032 193.257385 
" clip-path="url(#p967e69648d)" style="fill: #00b0ff"/>
    <path d="M 325.587032 193.257385 
L 325.587032 199.967785 
L 327.084632 199.593385 
L 325.212632 203.337385 
L 323.340632 199.593385 
L 324.838232 199.967785 
L 324.838232 193.257385 
L 325.587032 193.257385 
" clip-path="url(#p967e69648d)" style="fill: #00b0ff"/>
    <path d="M 337.107032 193.257385 
L 337.107032 199.967785 
L 338.604632 199.593385 
L 336.732632 203.337385 
L 334.860632 199.593385 
L 336.358232 199.967785 
L 336.358232 193.257385 
L 337.107032 193.257385 
" clip-path="url(#p967e69648d)" style="fill: #00b0ff"/>
    <path d="M 348.627032 193.257385 
L 348.627032 199.967785 
L 350.124632 199.593385 
L 348.252632 203.337385 
L 346.380632 199.593385 
L 347.878232 199.967785 
L 347.878232 193.257385 
L 348.627032 193.257385 
" clip-path="url(#p967e69648d)" style="fill: #00b0ff"/>
    <path d="M 360.147032 193.257385 
L 360.147032 199.967785 
L 361.644632 199.593385 
L 359.772632 203.337385 
L 357.900632 199.593385 
L 359.398232 199.967785 
L 359.398232 193.257385 
L 360.147032 193.257385 
" clip-path="url(#p967e69648d)" style="fill: #00b0ff"/>
    <path d="M 371.667032 193.257385 
L 371.667032 199.967785 
L 373.164632 199.593385 
L 371.292632 203.337385 
L 369.420632 199.593385 
L 370.918232 199.967785 
L 370.918232 193.257385 
L 371.667032 193.257385 
" clip-path="url(#p967e69648d)" style="fill: #00b0ff"/>
    <path d="M 383.187032 193.257385 
L 383.187032 199.967785 
L 384.684632 199.593385 
L 382.812632 203.337385 
L 380.940632 199.593385 
L 382.438232 199.967785 
L 382.438232 193.257385 
L 383.187032 193.257385 
" clip-path="url(#p967e69648d)" style="fill: #00b0ff"/>
    <path d="M 394.707032 193.257385 
L 394.707032 199.967785 
L 396.204632 199.593385 
L 394.332632 203.337385 
L 392.460632 199.593385 
L 393.958232 199.967785 
L 393.958232 193.257385 
L 394.707032 193.257385 
" clip-path="url(#p967e69648d)" style="fill: #00b0ff"/>
    <path d="M 279.507032 166.828693 
L 279.507032 173.539093 
L 281.004632 173.164693 
L 279.132632 176.908693 
L 277.260632 173.164693 
L 278.758232 173.539093 
L 278.758232 166.828693 
L 279.507032 166.828693 
" clip-path="url(#p967e69648d)" style="fill: #29ffce"/>
    <path d="M 291.027032 166.828693 
L 291.027032 173.539093 
L 292.524632 173.164693 
L 290.652632 176.908693 
L 288.780632 173.164693 
L 290.278232 173.539093 
L 290.278232 166.828693 
L 291.027032 166.828693 
" clip-path="url(#p967e69648d)" style="fill: #29ffce"/>
    <path d="M 302.547032 166.828693 
L 302.547032 173.539093 
L 304.044632 173.164693 
L 302.172632 176.908693 
L 300.300632 173.164693 
L 301.798232 173.539093 
L 301.798232 166.828693 
L 302.547032 166.828693 
" clip-path="url(#p967e69648d)" style="fill: #29ffce"/>
    <path d="M 314.067032 166.828693 
L 314.067032 173.539093 
L 315.564632 173.164693 
L 313.692632 176.908693 
L 311.820632 173.164693 
L 313.318232 173.539093 
L 313.318232 166.828693 
L 314.067032 166.828693 
" clip-path="url(#p967e69648d)" style="fill: #29ffce"/>
    <path d="M 325.587032 166.828693 
L 325.587032 173.539093 
L 327.084632 173.164693 
L 325.212632 176.908693 
L 323.340632 173.164693 
L 324.838232 173.539093 
L 324.838232 166.828693 
L 325.587032 166.828693 
" clip-path="url(#p967e69648d)" style="fill: #29ffce"/>
    <path d="M 337.107032 166.828693 
L 337.107032 173.539093 
L 338.604632 173.164693 
L 336.732632 176.908693 
L 334.860632 173.164693 
L 336.358232 173.539093 
L 336.358232 166.828693 
L 337.107032 166.828693 
" clip-path="url(#p967e69648d)" style="fill: #29ffce"/>
    <path d="M 348.627032 166.828693 
L 348.627032 173.539093 
L 350.124632 173.164693 
L 348.252632 176.908693 
L 346.380632 173.164693 
L 347.878232 173.539093 
L 347.878232 166.828693 
L 348.627032 166.828693 
" clip-path="url(#p967e69648d)" style="fill: #29ffce"/>
    <path d="M 360.147032 166.828693 
L 360.147032 173.539093 
L 361.644632 173.164693 
L 359.772632 176.908693 
L 357.900632 173.164693 
L 359.398232 173.539093 
L 359.398232 166.828693 
L 360.147032 166.828693 
" clip-path="url(#p967e69648d)" style="fill: #29ffce"/>
    <path d="M 371.667032 166.828693 
L 371.667032 173.539093 
L 373.164632 173.164693 
L 371.292632 176.908693 
L 369.420632 173.164693 
L 370.918232 173.539093 
L 370.918232 166.828693 
L 371.667032 166.828693 
" clip-path="url(#p967e69648d)" style="fill: #29ffce"/>
    <path d="M 383.187032 166.828693 
L 383.187032 173.539093 
L 384.684632 173.164693 
L 382.812632 176.908693 
L 380.940632 173.164693 
L 382.438232 173.539093 
L 382.438232 166.828693 
L 383.187032 166.828693 
" clip-path="url(#p967e69648d)" style="fill: #29ffce"/>
    <path d="M 394.707032 166.828693 
L 394.707032 173.539093 
L 396.204632 173.164693 
L 394.332632 176.908693 
L 392.460632 173.164693 
L 393.958232 173.539093 
L 393.958232 166.828693 
L 394.707032 166.828693 
" clip-path="url(#p967e69648d)" style="fill: #29ffce"/>
    <path d="M 279.507032 140.4 
L 279.507032 147.1104 
L 281.004632 146.736 
L 279.132632 150.48 
L 277.260632 146.736 
L 278.758232 147.1104 
L 278.758232 140.4 
L 279.507032 140.4 
" clip-path="url(#p967e69648d)" style="fill: #7dff7a"/>
    <path d="M 291.027032 140.4 
L 291.027032 147.1104 
L 292.524632 146.736 
L 290.652632 150.48 
L 288.780632 146.736 
L 290.278232 147.1104 
L 290.278232 140.4 
L 291.027032 140.4 
" clip-path="url(#p967e69648d)" style="fill: #7dff7a"/>
    <path d="M 302.547032 140.4 
L 302.547032 147.1104 
L 304.044632 146.736 
L 302.172632 150.48 
L 300.300632 146.736 
L 301.798232 147.1104 
L 301.798232 140.4 
L 302.547032 140.4 
" clip-path="url(#p967e69648d)" style="fill: #7dff7a"/>
    <path d="M 314.067032 140.4 
L 314.067032 147.1104 
L 315.564632 146.736 
L 313.692632 150.48 
L 311.820632 146.736 
L 313.318232 147.1104 
L 313.318232 140.4 
L 314.067032 140.4 
" clip-path="url(#p967e69648d)" style="fill: #7dff7a"/>
    <path d="M 325.587032 140.4 
L 325.587032 147.1104 
L 327.084632 146.736 
L 325.212632 150.48 
L 323.340632 146.736 
L 324.838232 147.1104 
L 324.838232 140.4 
L 325.587032 140.4 
" clip-path="url(#p967e69648d)" style="fill: #7dff7a"/>
    <path d="M 337.107032 140.4 
L 337.107032 147.1104 
L 338.604632 146.736 
L 336.732632 150.48 
L 334.860632 146.736 
L 336.358232 147.1104 
L 336.358232 140.4 
L 337.107032 140.4 
" clip-path="url(#p967e69648d)" style="fill: #7dff7a"/>
    <path d="M 348.627032 140.4 
L 348.627032 147.1104 
L 350.124632 146.736 
L 348.252632 150.48 
L 346.380632 146.736 
L 347.878232 147.1104 
L 347.878232 140.4 
L 348.627032 140.4 
" clip-path="url(#p967e69648d)" style="fill: #7dff7a"/>
    <path d="M 360.147032 140.4 
L 360.147032 147.1104 
L 361.644632 146.736 
L 359.772632 150.48 
L 357.900632 146.736 
L 359.398232 147.1104 
L 359.398232 140.4 
L 360.147032 140.4 
" clip-path="url(#p967e69648d)" style="fill: #7dff7a"/>
    <path d="M 371.667032 140.4 
L 371.667032 147.1104 
L 373.164632 146.736 
L 371.292632 150.48 
L 369.420632 146.736 
L 370.918232 147.1104 
L 370.918232 140.4 
L 371.667032 140.4 
" clip-path="url(#p967e69648d)" style="fill: #7dff7a"/>
    <path d="M 383.187032 140.4 
L 383.187032 147.1104 
L 384.684632 146.736 
L 382.812632 150.48 
L 380.940632 146.736 
L 382.438232 147.1104 
L 382.438232 140.4 
L 383.187032 140.4 
" clip-path="url(#p967e69648d)" style="fill: #7dff7a"/>
    <path d="M 394.707032 140.4 
L 394.707032 147.1104 
L 396.204632 146.736 
L 394.332632 150.48 
L 392.460632 146.736 
L 393.958232 147.1104 
L 393.958232 140.4 
L 394.707032 140.4 
" clip-path="url(#p967e69648d)" style="fill: #7dff7a"/>
    <path d="M 279.507032 113.971307 
L 279.507032 120.681707 
L 281.004632 120.307307 
L 279.132632 124.051307 
L 277.260632 120.307307 
L 278.758232 120.681707 
L 278.758232 113.971307 
L 279.507032 113.971307 
" clip-path="url(#p967e69648d)" style="fill: #ceff29"/>
    <path d="M 291.027032 113.971307 
L 291.027032 120.681707 
L 292.524632 120.307307 
L 290.652632 124.051307 
L 288.780632 120.307307 
L 290.278232 120.681707 
L 290.278232 113.971307 
L 291.027032 113.971307 
" clip-path="url(#p967e69648d)" style="fill: #ceff29"/>
    <path d="M 302.547032 113.971307 
L 302.547032 120.681707 
L 304.044632 120.307307 
L 302.172632 124.051307 
L 300.300632 120.307307 
L 301.798232 120.681707 
L 301.798232 113.971307 
L 302.547032 113.971307 
" clip-path="url(#p967e69648d)" style="fill: #ceff29"/>
    <path d="M 314.067032 113.971307 
L 314.067032 120.681707 
L 315.564632 120.307307 
L 313.692632 124.051307 
L 311.820632 120.307307 
L 313.318232 120.681707 
L 313.318232 113.971307 
L 314.067032 113.971307 
" clip-path="url(#p967e69648d)" style="fill: #ceff29"/>
    <path d="M 325.587032 113.971307 
L 325.587032 120.681707 
L 327.084632 120.307307 
L 325.212632 124.051307 
L 323.340632 120.307307 
L 324.838232 120.681707 
L 324.838232 113.971307 
L 325.587032 113.971307 
" clip-path="url(#p967e69648d)" style="fill: #ceff29"/>
    <path d="M 337.107032 113.971307 
L 337.107032 120.681707 
L 338.604632 120.307307 
L 336.732632 124.051307 
L 334.860632 120.307307 
L 336.358232 120.681707 
L 336.358232 113.971307 
L 337.107032 113.971307 
" clip-path="url(#p967e69648d)" style="fill: #ceff29"/>
    <path d="M 348.627032 113.971307 
L 348.627032 120.681707 
L 350.124632 120.307307 
L 348.252632 124.051307 
L 346.380632 120.307307 
L 347.878232 120.681707 
L 347.878232 113.971307 
L 348.627032 113.971307 
" clip-path="url(#p967e69648d)" style="fill: #ceff29"/>
    <path d="M 360.147032 113.971307 
L 360.147032 120.681707 
L 361.644632 120.307307 
L 359.772632 124.051307 
L 357.900632 120.307307 
L 359.398232 120.681707 
L 359.398232 113.971307 
L 360.147032 113.971307 
" clip-path="url(#p967e69648d)" style="fill: #ceff29"/>
    <path d="M 371.667032 113.971307 
L 371.667032 120.681707 
L 373.164632 120.307307 
L 371.292632 124.051307 
L 369.420632 120.307307 
L 370.918232 120.681707 
L 370.918232 113.971307 
L 371.667032 113.971307 
" clip-path="url(#p967e69648d)" style="fill: #ceff29"/>
    <path d="M 383.187032 113.971307 
L 383.187032 120.681707 
L 384.684632 120.307307 
L 382.812632 124.051307 
L 380.940632 120.307307 
L 382.438232 120.681707 
L 382.438232 113.971307 
L 383.187032 113.971307 
" clip-path="url(#p967e69648d)" style="fill: #ceff29"/>
    <path d="M 394.707032 113.971307 
L 394.707032 120.681707 
L 396.204632 120.307307 
L 394.332632 124.051307 
L 392.460632 120.307307 
L 393.958232 120.681707 
L 393.958232 113.971307 
L 394.707032 113.971307 
" clip-path="url(#p967e69648d)" style="fill: #ceff29"/>
    <path d="M 279.507032 87.542615 
L 279.507032 94.253015 
L 281.004632 93.878615 
L 279.132632 97.622615 
L 277.260632 93.878615 
L 278.758232 94.253015 
L 278.758232 87.542615 
L 279.507032 87.542615 
" clip-path="url(#p967e69648d)" style="fill: #ffc400"/>
    <path d="M 291.027032 87.542615 
L 291.027032 94.253015 
L 292.524632 93.878615 
L 290.652632 97.622615 
L 288.780632 93.878615 
L 290.278232 94.253015 
L 290.278232 87.542615 
L 291.027032 87.542615 
" clip-path="url(#p967e69648d)" style="fill: #ffc400"/>
    <path d="M 302.547032 87.542615 
L 302.547032 94.253015 
L 304.044632 93.878615 
L 302.172632 97.622615 
L 300.300632 93.878615 
L 301.798232 94.253015 
L 301.798232 87.542615 
L 302.547032 87.542615 
" clip-path="url(#p967e69648d)" style="fill: #ffc400"/>
    <path d="M 314.067032 87.542615 
L 314.067032 94.253015 
L 315.564632 93.878615 
L 313.692632 97.622615 
L 311.820632 93.878615 
L 313.318232 94.253015 
L 313.318232 87.542615 
L 314.067032 87.542615 
" clip-path="url(#p967e69648d)" style="fill: #ffc400"/>
    <path d="M 325.587032 87.542615 
L 325.587032 94.253015 
L 327.084632 93.878615 
L 325.212632 97.622615 
L 323.340632 93.878615 
L 324.838232 94.253015 
L 324.838232 87.542615 
L 325.587032 87.542615 
" clip-path="url(#p967e69648d)" style="fill: #ffc400"/>
    <path d="M 337.107032 87.542615 
L 337.107032 94.253015 
L 338.604632 93.878615 
L 336.732632 97.622615 
L 334.860632 93.878615 
L 336.358232 94.253015 
L 336.358232 87.542615 
L 337.107032 87.542615 
" clip-path="url(#p967e69648d)" style="fill: #ffc400"/>
    <path d="M 348.627032 87.542615 
L 348.627032 94.253015 
L 350.124632 93.878615 
L 348.252632 97.622615 
L 346.380632 93.878615 
L 347.878232 94.253015 
L 347.878232 87.542615 
L 348.627032 87.542615 
" clip-path="url(#p967e69648d)" style="fill: #ffc400"/>
    <path d="M 360.147032 87.542615 
L 360.147032 94.253015 
L 361.644632 93.878615 
L 359.772632 97.622615 
L 357.900632 93.878615 
L 359.398232 94.253015 
L 359.398232 87.542615 
L 360.147032 87.542615 
" clip-path="url(#p967e69648d)" style="fill: #ffc400"/>
    <path d="M 371.667032 87.542615 
L 371.667032 94.253015 
L 373.164632 93.878615 
L 371.292632 97.622615 
L 369.420632 93.878615 
L 370.918232 94.253015 
L 370.918232 87.542615 
L 371.667032 87.542615 
" clip-path="url(#p967e69648d)" style="fill: #ffc400"/>
    <path d="M 383.187032 87.542615 
L 383.187032 94.253015 
L 384.684632 93.878615 
L 382.812632 97.622615 
L 380.940632 93.878615 
L 382.438232 94.253015 
L 382.438232 87.542615 
L 383.187032 87.542615 
" clip-path="url(#p967e69648d)" style="fill: #ffc400"/>
    <path d="M 394.707032 87.542615 
L 394.707032 94.253015 
L 396.204632 93.878615 
L 394.332632 97.622615 
L 392.460632 93.878615 
L 393.958232 94.253015 
L 393.958232 87.542615 
L 394.707032 87.542615 
" clip-path="url(#p967e69648d)" style="fill: #ffc400"/>
    <path d="M 279.507032 61.113922 
L 279.507032 67.824322 
L 281.004632 67.449922 
L 279.132632 71.193922 
L 277.260632 67.449922 
L 278.758232 67.824322 
L 278.758232 61.113922 
L 279.507032 61.113922 
" clip-path="url(#p967e69648d)" style="fill: #ff6800"/>
    <path d="M 291.027032 61.113922 
L 291.027032 67.824322 
L 292.524632 67.449922 
L 290.652632 71.193922 
L 288.780632 67.449922 
L 290.278232 67.824322 
L 290.278232 61.113922 
L 291.027032 61.113922 
" clip-path="url(#p967e69648d)" style="fill: #ff6800"/>
    <path d="M 302.547032 61.113922 
L 302.547032 67.824322 
L 304.044632 67.449922 
L 302.172632 71.193922 
L 300.300632 67.449922 
L 301.798232 67.824322 
L 301.798232 61.113922 
L 302.547032 61.113922 
" clip-path="url(#p967e69648d)" style="fill: #ff6800"/>
    <path d="M 314.067032 61.113922 
L 314.067032 67.824322 
L 315.564632 67.449922 
L 313.692632 71.193922 
L 311.820632 67.449922 
L 313.318232 67.824322 
L 313.318232 61.113922 
L 314.067032 61.113922 
" clip-path="url(#p967e69648d)" style="fill: #ff6800"/>
    <path d="M 325.587032 61.113922 
L 325.587032 67.824322 
L 327.084632 67.449922 
L 325.212632 71.193922 
L 323.340632 67.449922 
L 324.838232 67.824322 
L 324.838232 61.113922 
L 325.587032 61.113922 
" clip-path="url(#p967e69648d)" style="fill: #ff6800"/>
    <path d="M 337.107032 61.113922 
L 337.107032 67.824322 
L 338.604632 67.449922 
L 336.732632 71.193922 
L 334.860632 67.449922 
L 336.358232 67.824322 
L 336.358232 61.113922 
L 337.107032 61.113922 
" clip-path="url(#p967e69648d)" style="fill: #ff6800"/>
    <path d="M 348.627032 61.113922 
L 348.627032 67.824322 
L 350.124632 67.449922 
L 348.252632 71.193922 
L 346.380632 67.449922 
L 347.878232 67.824322 
L 347.878232 61.113922 
L 348.627032 61.113922 
" clip-path="url(#p967e69648d)" style="fill: #ff6800"/>
    <path d="M 360.147032 61.113922 
L 360.147032 67.824322 
L 361.644632 67.449922 
L 359.772632 71.193922 
L 357.900632 67.449922 
L 359.398232 67.824322 
L 359.398232 61.113922 
L 360.147032 61.113922 
" clip-path="url(#p967e69648d)" style="fill: #ff6800"/>
    <path d="M 371.667032 61.113922 
L 371.667032 67.824322 
L 373.164632 67.449922 
L 371.292632 71.193922 
L 369.420632 67.449922 
L 370.918232 67.824322 
L 370.918232 61.113922 
L 371.667032 61.113922 
" clip-path="url(#p967e69648d)" style="fill: #ff6800"/>
    <path d="M 383.187032 61.113922 
L 383.187032 67.824322 
L 384.684632 67.449922 
L 382.812632 71.193922 
L 380.940632 67.449922 
L 382.438232 67.824322 
L 382.438232 61.113922 
L 383.187032 61.113922 
" clip-path="url(#p967e69648d)" style="fill: #ff6800"/>
    <path d="M 394.707032 61.113922 
L 394.707032 67.824322 
L 396.204632 67.449922 
L 394.332632 71.193922 
L 392.460632 67.449922 
L 393.958232 67.824322 
L 393.958232 61.113922 
L 394.707032 61.113922 
" clip-path="url(#p967e69648d)" style="fill: #ff6800"/>
    <path d="M 279.507032 34.68523 
L 279.507032 41.39563 
L 281.004632 41.02123 
L 279.132632 44.76523 
L 277.260632 41.02123 
L 278.758232 41.39563 
L 278.758232 34.68523 
L 279.507032 34.68523 
" clip-path="url(#p967e69648d)" style="fill: #f10800"/>
    <path d="M 291.027032 34.68523 
L 291.027032 41.39563 
L 292.524632 41.02123 
L 290.652632 44.76523 
L 288.780632 41.02123 
L 290.278232 41.39563 
L 290.278232 34.68523 
L 291.027032 34.68523 
" clip-path="url(#p967e69648d)" style="fill: #f10800"/>
    <path d="M 302.547032 34.68523 
L 302.547032 41.39563 
L 304.044632 41.02123 
L 302.172632 44.76523 
L 300.300632 41.02123 
L 301.798232 41.39563 
L 301.798232 34.68523 
L 302.547032 34.68523 
" clip-path="url(#p967e69648d)" style="fill: #f10800"/>
    <path d="M 314.067032 34.68523 
L 314.067032 41.39563 
L 315.564632 41.02123 
L 313.692632 44.76523 
L 311.820632 41.02123 
L 313.318232 41.39563 
L 313.318232 34.68523 
L 314.067032 34.68523 
" clip-path="url(#p967e69648d)" style="fill: #f10800"/>
    <path d="M 325.587032 34.68523 
L 325.587032 41.39563 
L 327.084632 41.02123 
L 325.212632 44.76523 
L 323.340632 41.02123 
L 324.838232 41.39563 
L 324.838232 34.68523 
L 325.587032 34.68523 
" clip-path="url(#p967e69648d)" style="fill: #f10800"/>
    <path d="M 337.107032 34.68523 
L 337.107032 41.39563 
L 338.604632 41.02123 
L 336.732632 44.76523 
L 334.860632 41.02123 
L 336.358232 41.39563 
L 336.358232 34.68523 
L 337.107032 34.68523 
" clip-path="url(#p967e69648d)" style="fill: #f10800"/>
    <path d="M 348.627032 34.68523 
L 348.627032 41.39563 
L 350.124632 41.02123 
L 348.252632 44.76523 
L 346.380632 41.02123 
L 347.878232 41.39563 
L 347.878232 34.68523 
L 348.627032 34.68523 
" clip-path="url(#p967e69648d)" style="fill: #f10800"/>
    <path d="M 360.147032 34.68523 
L 360.147032 41.39563 
L 361.644632 41.02123 
L 359.772632 44.76523 
L 357.900632 41.02123 
L 359.398232 41.39563 
L 359.398232 34.68523 
L 360.147032 34.68523 
" clip-path="url(#p967e69648d)" style="fill: #f10800"/>
    <path d="M 371.667032 34.68523 
L 371.667032 41.39563 
L 373.164632 41.02123 
L 371.292632 44.76523 
L 369.420632 41.02123 
L 370.918232 41.39563 
L 370.918232 34.68523 
L 371.667032 34.68523 
" clip-path="url(#p967e69648d)" style="fill: #f10800"/>
    <path d="M 383.187032 34.68523 
L 383.187032 41.39563 
L 384.684632 41.02123 
L 382.812632 44.76523 
L 380.940632 41.02123 
L 382.438232 41.39563 
L 382.438232 34.68523 
L 383.187032 34.68523 
" clip-path="url(#p967e69648d)" style="fill: #f10800"/>
    <path d="M 394.707032 34.68523 
L 394.707032 41.39563 
L 396.204632 41.02123 
L 394.332632 44.76523 
L 392.460632 41.02123 
L 393.958232 41.39563 
L 393.958232 34.68523 
L 394.707032 34.68523 
" clip-path="url(#p967e69648d)" style="fill: #f10800"/>
    <path d="M 279.507032 8.256537 
L 279.507032 14.966937 
L 281.004632 14.592537 
L 279.132632 18.336537 
L 277.260632 14.592537 
L 278.758232 14.966937 
L 278.758232 8.256537 
L 279.507032 8.256537 
" clip-path="url(#p967e69648d)" style="fill: #800000"/>
    <path d="M 291.027032 8.256537 
L 291.027032 14.966937 
L 292.524632 14.592537 
L 290.652632 18.336537 
L 288.780632 14.592537 
L 290.278232 14.966937 
L 290.278232 8.256537 
L 291.027032 8.256537 
" clip-path="url(#p967e69648d)" style="fill: #800000"/>
    <path d="M 302.547032 8.256537 
L 302.547032 14.966937 
L 304.044632 14.592537 
L 302.172632 18.336537 
L 300.300632 14.592537 
L 301.798232 14.966937 
L 301.798232 8.256537 
L 302.547032 8.256537 
" clip-path="url(#p967e69648d)" style="fill: #800000"/>
    <path d="M 314.067032 8.256537 
L 314.067032 14.966937 
L 315.564632 14.592537 
L 313.692632 18.336537 
L 311.820632 14.592537 
L 313.318232 14.966937 
L 313.318232 8.256537 
L 314.067032 8.256537 
" clip-path="url(#p967e69648d)" style="fill: #800000"/>
    <path d="M 325.587032 8.256537 
L 325.587032 14.966937 
L 327.084632 14.592537 
L 325.212632 18.336537 
L 323.340632 14.592537 
L 324.838232 14.966937 
L 324.838232 8.256537 
L 325.587032 8.256537 
" clip-path="url(#p967e69648d)" style="fill: #800000"/>
    <path d="M 337.107032 8.256537 
L 337.107032 14.966937 
L 338.604632 14.592537 
L 336.732632 18.336537 
L 334.860632 14.592537 
L 336.358232 14.966937 
L 336.358232 8.256537 
L 337.107032 8.256537 
" clip-path="url(#p967e69648d)" style="fill: #800000"/>
    <path d="M 348.627032 8.256537 
L 348.627032 14.966937 
L 350.124632 14.592537 
L 348.252632 18.336537 
L 346.380632 14.592537 
L 347.878232 14.966937 
L 347.878232 8.256537 
L 348.627032 8.256537 
" clip-path="url(#p967e69648d)" style="fill: #800000"/>
    <path d="M 360.147032 8.256537 
L 360.147032 14.966937 
L 361.644632 14.592537 
L 359.772632 18.336537 
L 357.900632 14.592537 
L 359.398232 14.966937 
L 359.398232 8.256537 
L 360.147032 8.256537 
" clip-path="url(#p967e69648d)" style="fill: #800000"/>
    <path d="M 371.667032 8.256537 
L 371.667032 14.966937 
L 373.164632 14.592537 
L 371.292632 18.336537 
L 369.420632 14.592537 
L 370.918232 14.966937 
L 370.918232 8.256537 
L 371.667032 8.256537 
" clip-path="url(#p967e69648d)" style="fill: #800000"/>
    <path d="M 383.187032 8.256537 
L 383.187032 14.966937 
L 384.684632 14.592537 
L 382.812632 18.336537 
L 380.940632 14.592537 
L 382.438232 14.966937 
L 382.438232 8.256537 
L 383.187032 8.256537 
" clip-path="url(#p967e69648d)" style="fill: #800000"/>
    <path d="M 394.707032 8.256537 
L 394.707032 14.966937 
L 396.204632 14.592537 
L 394.332632 18.336537 
L 392.460632 14.592537 
L 393.958232 14.966937 
L 393.958232 8.256537 
L 394.707032 8.256537 
" clip-path="url(#p967e69648d)" style="fill: #800000"/>
   </g>
   <g id="text_15">
    <!-- y' -->
    <g style="fill: #808080" transform="translate(405.852632 139.68) scale(0.1 -0.1)">
     <defs>
      <path id="DejaVuSans-27" d="M 1147 4666 
L 1147 2931 
L 616 2931 
L 616 4666 
L 1147 4666 
z
" transform="scale(0.015625)"/>
     </defs>
     <use xlink:href="#DejaVuSans-79"/>
     <use xlink:href="#DejaVuSans-27" x="59.179688"/>
    </g>
   </g>
   <g id="text_16">
    <!-- z' -->
    <g style="fill: #808080" transform="translate(342.492632 18.72) scale(0.1 -0.1)">
     <use xlink:href="#DejaVuSans-7a"/>
     <use xlink:href="#DejaVuSans-27" x="52.490234"/>
    </g>
   </g>
   <g id="text_17">
    <!-- t' = 20.6 -->
    <g transform="translate(423.132632 279.887463) scale(0.1 -0.1)">
     <defs>
      <path id="DejaVuSans-32" d="M 1228 531 
L 3431 531 
L 3431 0 
L 469 0 
L 469 531 
Q 828 903 1448 1529 
Q 2069 2156 2228 2338 
Q 2531 2678 2651 2914 
Q 2772 3150 2772 3378 
Q 2772 3750 2511 3984 
Q 2250 4219 1831 4219 
Q 1534 4219 1204 4116 
Q 875 4013 500 3803 
L 500 4441 
Q 881 4594 1212 4672 
Q 1544 4750 1819 4750 
Q 2544 4750 2975 4387 
Q 3406 4025 3406 3419 
Q 3406 3131 3298 2873 
Q 3191 2616 2906 2266 
Q 2828 2175 2409 1742 
Q 1991 1309 1228 531 
z
" transform="scale(0.015625)"/>
      <path id="DejaVuSans-2e" d="M 684 794 
L 1344 794 
L 1344 0 
L 684 0 
L 684 794 
z
" transform="scale(0.015625)"/>
      <path id="DejaVuSans-36" d="M 2113 2584 
Q 1688 2584 1439 2293 
Q 1191 2003 1191 1497 
Q 1191 994 1439 701 
Q 1688 409 2113 409 
Q 2538 409 2786 701 
Q 3034 994 3034 1497 
Q 3034 2003 2786 2293 
Q 2538 2584 2113 2584 
z
M 3366 4563 
L 3366 3988 
Q 3128 4100 2886 4159 
Q 2644 4219 2406 4219 
Q 1781 4219 1451 3797 
Q 1122 3375 1075 2522 
Q 1259 2794 1537 2939 
Q 1816 3084 2150 3084 
Q 2853 3084 3261 2657 
Q 3669 2231 3669 1497 
Q 3669 778 3244 343 
Q 2819 -91 2113 -91 
Q 1303 -91 875 529 
Q 447 1150 447 2328 
Q 447 3434 972 4092 
Q 1497 4750 2381 4750 
Q 2619 4750 2861 4703 
Q 3103 4656 3366 4563 
z
" transform="scale(0.015625)"/>
     </defs>
     <use xlink:href="#DejaVuSans-74"/>
     <use xlink:href="#DejaVuSans-27" x="39.208984"/>
     <use xlink:href="#DejaVuSans-20" x="66.699219"/>
     <use xlink:href="#DejaVuSans-3d" x="98.486328"/>
     <use xlink:href="#DejaVuSans-20" x="182.275391"/>
     <use xlink:href="#DejaVuSans-32" x="214.0625"/>
     <use xlink:href="#DejaVuSans-30" x="277.685547"/>
     <use xlink:href="#DejaVuSans-2e" x="341.308594"/>
     <use xlink:href="#DejaVuSans-36" x="373.095703"/>
    </g>
   </g>
   <g id="text_18">
    <!-- t' = 16.5 -->
    <g transform="translate(423.132632 253.45877) scale(0.1 -0.1)">
     <defs>
      <path id="DejaVuSans-31" d="M 794 531 
L 1825 531 
L 1825 4091 
L 703 3866 
L 703 4441 
L 1819 4666 
L 2450 4666 
L 2450 531 
L 3481 531 
L 3481 0 
L 794 0 
L 794 531 
z
" transform="scale(0.015625)"/>
      <path id="DejaVuSans-35" d="M 691 4666 
L 3169 4666 
L 3169 4134 
L 1269 4134 
L 1269 2991 
Q 1406 3038 1543 3061 
Q 1681 3084 1819 3084 
Q 2600 3084 3056 2656 
Q 3513 2228 3513 1497 
Q 3513 744 3044 326 
Q 2575 -91 1722 -91 
Q 1428 -91 1123 -41 
Q 819 9 494 109 
L 494 744 
Q 775 591 1075 516 
Q 1375 441 1709 441 
Q 2250 441 2565 725 
Q 2881 1009 2881 1497 
Q 2881 1984 2565 2268 
Q 2250 2553 1709 2553 
Q 1456 2553 1204 2497 
Q 953 2441 691 2322 
L 691 4666 
z
" transform="scale(0.015625)"/>
     </defs>
     <use xlink:href="#DejaVuSans-74"/>
     <use xlink:href="#DejaVuSans-27" x="39.208984"/>
     <use xlink:href="#DejaVuSans-20" x="66.699219"/>
     <use xlink:href="#DejaVuSans-3d" x="98.486328"/>
     <use xlink:href="#DejaVuSans-20" x="182.275391"/>
     <use xlink:href="#DejaVuSans-31" x="214.0625"/>
     <use xlink:href="#DejaVuSans-36" x="277.685547"/>
     <use xlink:href="#DejaVuSans-2e" x="341.308594"/>
     <use xlink:href="#DejaVuSans-35" x="373.095703"/>
    </g>
   </g>
   <g id="text_19">
    <!-- t' = 12.4 -->
    <g transform="translate(423.132632 227.030078) scale(0.1 -0.1)">
     <defs>
      <path id="DejaVuSans-34" d="M 2419 4116 
L 825 1625 
L 2419 1625 
L 2419 4116 
z
M 2253 4666 
L 3047 4666 
L 3047 1625 
L 3713 1625 
L 3713 1100 
L 3047 1100 
L 3047 0 
L 2419 0 
L 2419 1100 
L 313 1100 
L 313 1709 
L 2253 4666 
z
" transform="scale(0.015625)"/>
     </defs>
     <use xlink:href="#DejaVuSans-74"/>
     <use xlink:href="#DejaVuSans-27" x="39.208984"/>
     <use xlink:href="#DejaVuSans-20" x="66.699219"/>
     <use xlink:href="#DejaVuSans-3d" x="98.486328"/>
     <use xlink:href="#DejaVuSans-20" x="182.275391"/>
     <use xlink:href="#DejaVuSans-31" x="214.0625"/>
     <use xlink:href="#DejaVuSans-32" x="277.685547"/>
     <use xlink:href="#DejaVuSans-2e" x="341.308594"/>
     <use xlink:href="#DejaVuSans-34" x="373.095703"/>
    </g>
   </g>
   <g id="text_20">
    <!-- t' = 8.3 -->
    <g transform="translate(423.132632 200.601385) scale(0.1 -0.1)">
     <defs>
      <path id="DejaVuSans-38" d="M 2034 2216 
Q 1584 2216 1326 1975 
Q 1069 1734 1069 1313 
Q 1069 891 1326 650 
Q 1584 409 2034 409 
Q 2484 409 2743 651 
Q 3003 894 3003 1313 
Q 3003 1734 2745 1975 
Q 2488 2216 2034 2216 
z
M 1403 2484 
Q 997 2584 770 2862 
Q 544 3141 544 3541 
Q 544 4100 942 4425 
Q 1341 4750 2034 4750 
Q 2731 4750 3128 4425 
Q 3525 4100 3525 3541 
Q 3525 3141 3298 2862 
Q 3072 2584 2669 2484 
Q 3125 2378 3379 2068 
Q 3634 1759 3634 1313 
Q 3634 634 3220 271 
Q 2806 -91 2034 -91 
Q 1263 -91 848 271 
Q 434 634 434 1313 
Q 434 1759 690 2068 
Q 947 2378 1403 2484 
z
M 1172 3481 
Q 1172 3119 1398 2916 
Q 1625 2713 2034 2713 
Q 2441 2713 2670 2916 
Q 2900 3119 2900 3481 
Q 2900 3844 2670 4047 
Q 2441 4250 2034 4250 
Q 1625 4250 1398 4047 
Q 1172 3844 1172 3481 
z
" transform="scale(0.015625)"/>
      <path id="DejaVuSans-33" d="M 2597 2516 
Q 3050 2419 3304 2112 
Q 3559 1806 3559 1356 
Q 3559 666 3084 287 
Q 2609 -91 1734 -91 
Q 1441 -91 1130 -33 
Q 819 25 488 141 
L 488 750 
Q 750 597 1062 519 
Q 1375 441 1716 441 
Q 2309 441 2620 675 
Q 2931 909 2931 1356 
Q 2931 1769 2642 2001 
Q 2353 2234 1838 2234 
L 1294 2234 
L 1294 2753 
L 1863 2753 
Q 2328 2753 2575 2939 
Q 2822 3125 2822 3475 
Q 2822 3834 2567 4026 
Q 2313 4219 1838 4219 
Q 1578 4219 1281 4162 
Q 984 4106 628 3988 
L 628 4550 
Q 988 4650 1302 4700 
Q 1616 4750 1894 4750 
Q 2613 4750 3031 4423 
Q 3450 4097 3450 3541 
Q 3450 3153 3228 2886 
Q 3006 2619 2597 2516 
z
" transform="scale(0.015625)"/>
     </defs>
     <use xlink:href="#DejaVuSans-74"/>
     <use xlink:href="#DejaVuSans-27" x="39.208984"/>
     <use xlink:href="#DejaVuSans-20" x="66.699219"/>
     <use xlink:href="#DejaVuSans-3d" x="98.486328"/>
     <use xlink:href="#DejaVuSans-20" x="182.275391"/>
     <use xlink:href="#DejaVuSans-38" x="214.0625"/>
     <use xlink:href="#DejaVuSans-2e" x="277.685547"/>
     <use xlink:href="#DejaVuSans-33" x="309.472656"/>
    </g>
   </g>
   <g id="text_21">
    <!-- t' = 4.1 -->
    <g transform="translate(423.132632 174.172693) scale(0.1 -0.1)">
     <use xlink:href="#DejaVuSans-74"/>
     <use xlink:href="#DejaVuSans-27" x="39.208984"/>
     <use xlink:href="#DejaVuSans-20" x="66.699219"/>
     <use xlink:href="#DejaVuSans-3d" x="98.486328"/>
     <use xlink:href="#DejaVuSans-20" x="182.275391"/>
     <use xlink:href="#DejaVuSans-34" x="214.0625"/>
     <use xlink:href="#DejaVuSans-2e" x="277.685547"/>
     <use xlink:href="#DejaVuSans-31" x="309.472656"/>
    </g>
   </g>
   <g id="text_22">
    <!-- t' = 0.0 -->
    <g transform="translate(423.132632 147.744) scale(0.1 -0.1)">
     <use xlink:href="#DejaVuSans-74"/>
     <use xlink:href="#DejaVuSans-27" x="39.208984"/>
     <use xlink:href="#DejaVuSans-20" x="66.699219"/>
     <use xlink:href="#DejaVuSans-3d" x="98.486328"/>
     <use xlink:href="#DejaVuSans-20" x="182.275391"/>
     <use xlink:href="#DejaVuSans-30" x="214.0625"/>
     <use xlink:href="#DejaVuSans-2e" x="277.685547"/>
     <use xlink:href="#DejaVuSans-30" x="309.472656"/>
    </g>
   </g>
   <g id="text_23">
    <!-- t' = -4.1 -->
    <g transform="translate(423.132632 121.315307) scale(0.1 -0.1)">
     <defs>
      <path id="DejaVuSans-2d" d="M 313 2009 
L 1997 2009 
L 1997 1497 
L 313 1497 
L 313 2009 
z
" transform="scale(0.015625)"/>
     </defs>
     <use xlink:href="#DejaVuSans-74"/>
     <use xlink:href="#DejaVuSans-27" x="39.208984"/>
     <use xlink:href="#DejaVuSans-20" x="66.699219"/>
     <use xlink:href="#DejaVuSans-3d" x="98.486328"/>
     <use xlink:href="#DejaVuSans-20" x="182.275391"/>
     <use xlink:href="#DejaVuSans-2d" x="214.0625"/>
     <use xlink:href="#DejaVuSans-34" x="250.146484"/>
     <use xlink:href="#DejaVuSans-2e" x="313.769531"/>
     <use xlink:href="#DejaVuSans-31" x="345.556641"/>
    </g>
   </g>
   <g id="text_24">
    <!-- t' = -8.3 -->
    <g transform="translate(423.132632 94.886615) scale(0.1 -0.1)">
     <use xlink:href="#DejaVuSans-74"/>
     <use xlink:href="#DejaVuSans-27" x="39.208984"/>
     <use xlink:href="#DejaVuSans-20" x="66.699219"/>
     <use xlink:href="#DejaVuSans-3d" x="98.486328"/>
     <use xlink:href="#DejaVuSans-20" x="182.275391"/>
     <use xlink:href="#DejaVuSans-2d" x="214.0625"/>
     <use xlink:href="#DejaVuSans-38" x="250.146484"/>
     <use xlink:href="#DejaVuSans-2e" x="313.769531"/>
     <use xlink:href="#DejaVuSans-33" x="345.556641"/>
    </g>
   </g>
   <g id="text_25">
    <!-- t' = -12.4 -->
    <g transform="translate(423.132632 68.457922) scale(0.1 -0.1)">
     <use xlink:href="#DejaVuSans-74"/>
     <use xlink:href="#DejaVuSans-27" x="39.208984"/>
     <use xlink:href="#DejaVuSans-20" x="66.699219"/>
     <use xlink:href="#DejaVuSans-3d" x="98.486328"/>
     <use xlink:href="#DejaVuSans-20" x="182.275391"/>
     <use xlink:href="#DejaVuSans-2d" x="214.0625"/>
     <use xlink:href="#DejaVuSans-31" x="250.146484"/>
     <use xlink:href="#DejaVuSans-32" x="313.769531"/>
     <use xlink:href="#DejaVuSans-2e" x="377.392578"/>
     <use xlink:href="#DejaVuSans-34" x="409.179688"/>
    </g>
   </g>
   <g id="text_26">
    <!-- t' = -16.5 -->
    <g transform="translate(423.132632 42.02923) scale(0.1 -0.1)">
     <use xlink:href="#DejaVuSans-74"/>
     <use xlink:href="#DejaVuSans-27" x="39.208984"/>
     <use xlink:href="#DejaVuSans-20" x="66.699219"/>
     <use xlink:href="#DejaVuSans-3d" x="98.486328"/>
     <use xlink:href="#DejaVuSans-20" x="182.275391"/>
     <use xlink:href="#DejaVuSans-2d" x="214.0625"/>
     <use xlink:href="#DejaVuSans-31" x="250.146484"/>
     <use xlink:href="#DejaVuSans-36" x="313.769531"/>
     <use xlink:href="#DejaVuSans-2e" x="377.392578"/>
     <use xlink:href="#DejaVuSans-35" x="409.179688"/>
    </g>
   </g>
   <g id="text_27">
    <!-- t' = -20.6 -->
    <g transform="translate(423.132632 15.600537) scale(0.1 -0.1)">
     <use xlink:href="#DejaVuSans-74"/>
     <use xlink:href="#DejaVuSans-27" x="39.208984"/>
     <use xlink:href="#DejaVuSans-20" x="66.699219"/>
     <use xlink:href="#DejaVuSans-3d" x="98.486328"/>
     <use xlink:href="#DejaVuSans-20" x="182.275391"/>
     <use xlink:href="#DejaVuSans-2d" x="214.0625"/>
     <use xlink:href="#DejaVuSans-32" x="250.146484"/>
     <use xlink:href="#DejaVuSans-30" x="313.769531"/>
     <use xlink:href="#DejaVuSans-2e" x="377.392578"/>
     <use xlink:href="#DejaVuSans-36" x="409.179688"/>
    </g>
   </g>
  </g>
  <g id="axes_3">
   <g id="patch_8">
    <path d="M 666.265263 145.44 
L 660.505263 149.184 
L 661.849263 145.44288 
L 516.505263 145.44288 
L 516.505263 145.43712 
L 661.849263 145.43712 
L 660.505263 141.696 
z
" clip-path="url(#p8f0f026850)" style="fill: #808080; stroke: #808080; stroke-linejoin: miter"/>
   </g>
   <g id="patch_9">
    <path d="M 591.385263 7.2 
L 595.129263 12.96 
L 591.388143 11.616 
L 591.388143 283.68 
L 591.382383 283.68 
L 591.382383 11.616 
L 587.641263 12.96 
z
" clip-path="url(#p8f0f026850)" style="fill: #808080; stroke: #808080; stroke-linejoin: miter"/>
   </g>
   <g id="Quiver_2">
    <path d="M 534.159663 165.507258 
L 534.159663 172.217658 
L 535.657263 171.843258 
L 533.785263 175.587258 
L 531.913263 171.843258 
L 533.410863 172.217658 
L 533.410863 165.507258 
L 534.159663 165.507258 
" clip-path="url(#p8f0f026850)" style="fill: #ff0000"/>
    <path d="M 545.679663 165.507258 
L 545.679663 172.217658 
L 547.177263 171.843258 
L 545.305263 175.587258 
L 543.433263 171.843258 
L 544.930863 172.217658 
L 544.930863 165.507258 
L 545.679663 165.507258 
" clip-path="url(#p8f0f026850)" style="fill: #ff0000"/>
    <path d="M 557.199663 165.507258 
L 557.199663 172.217658 
L 558.697263 171.843258 
L 556.825263 175.587258 
L 554.953263 171.843258 
L 556.450863 172.217658 
L 556.450863 165.507258 
L 557.199663 165.507258 
" clip-path="url(#p8f0f026850)" style="fill: #ff0000"/>
    <path d="M 568.719663 165.507258 
L 568.719663 172.217658 
L 570.217263 171.843258 
L 568.345263 175.587258 
L 566.473263 171.843258 
L 567.970863 172.217658 
L 567.970863 165.507258 
L 568.719663 165.507258 
" clip-path="url(#p8f0f026850)" style="fill: #ff0000"/>
    <path d="M 580.239663 165.507258 
L 580.239663 172.217658 
L 581.737263 171.843258 
L 579.865263 175.587258 
L 577.993263 171.843258 
L 579.490863 172.217658 
L 579.490863 165.507258 
L 580.239663 165.507258 
" clip-path="url(#p8f0f026850)" style="fill: #ff0000"/>
    <path d="M 591.759663 165.507258 
L 591.759663 172.217658 
L 593.257263 171.843258 
L 591.385263 175.587258 
L 589.513263 171.843258 
L 591.010863 172.217658 
L 591.010863 165.507258 
L 591.759663 165.507258 
" clip-path="url(#p8f0f026850)" style="fill: #ff0000"/>
    <path d="M 603.279663 165.507258 
L 603.279663 172.217658 
L 604.777263 171.843258 
L 602.905263 175.587258 
L 601.033263 171.843258 
L 602.530863 172.217658 
L 602.530863 165.507258 
L 603.279663 165.507258 
" clip-path="url(#p8f0f026850)" style="fill: #ff0000"/>
    <path d="M 614.799663 165.507258 
L 614.799663 172.217658 
L 616.297263 171.843258 
L 614.425263 175.587258 
L 612.553263 171.843258 
L 614.050863 172.217658 
L 614.050863 165.507258 
L 614.799663 165.507258 
" clip-path="url(#p8f0f026850)" style="fill: #ff0000"/>
    <path d="M 626.319663 165.507258 
L 626.319663 172.217658 
L 627.817263 171.843258 
L 625.945263 175.587258 
L 624.073263 171.843258 
L 625.570863 172.217658 
L 625.570863 165.507258 
L 626.319663 165.507258 
" clip-path="url(#p8f0f026850)" style="fill: #ff0000"/>
    <path d="M 637.839663 165.507258 
L 637.839663 172.217658 
L 639.337263 171.843258 
L 637.465263 175.587258 
L 635.593263 171.843258 
L 637.090863 172.217658 
L 637.090863 165.507258 
L 637.839663 165.507258 
" clip-path="url(#p8f0f026850)" style="fill: #ff0000"/>
    <path d="M 649.359663 165.507258 
L 649.359663 172.217658 
L 650.857263 171.843258 
L 648.985263 175.587258 
L 647.113263 171.843258 
L 648.610863 172.217658 
L 648.610863 165.507258 
L 649.359663 165.507258 
" clip-path="url(#p8f0f026850)" style="fill: #ff0000"/>
    <path d="M 534.159663 160.485806 
L 534.159663 167.196206 
L 535.657263 166.821806 
L 533.785263 170.565806 
L 531.913263 166.821806 
L 533.410863 167.196206 
L 533.410863 160.485806 
L 534.159663 160.485806 
" clip-path="url(#p8f0f026850)" style="fill: #ff0000"/>
    <path d="M 545.679663 160.485806 
L 545.679663 167.196206 
L 547.177263 166.821806 
L 545.305263 170.565806 
L 543.433263 166.821806 
L 544.930863 167.196206 
L 544.930863 160.485806 
L 545.679663 160.485806 
" clip-path="url(#p8f0f026850)" style="fill: #ff0000"/>
    <path d="M 557.199663 160.485806 
L 557.199663 167.196206 
L 558.697263 166.821806 
L 556.825263 170.565806 
L 554.953263 166.821806 
L 556.450863 167.196206 
L 556.450863 160.485806 
L 557.199663 160.485806 
" clip-path="url(#p8f0f026850)" style="fill: #ff0000"/>
    <path d="M 568.719663 160.485806 
L 568.719663 167.196206 
L 570.217263 166.821806 
L 568.345263 170.565806 
L 566.473263 166.821806 
L 567.970863 167.196206 
L 567.970863 160.485806 
L 568.719663 160.485806 
" clip-path="url(#p8f0f026850)" style="fill: #ff0000"/>
    <path d="M 580.239663 160.485806 
L 580.239663 167.196206 
L 581.737263 166.821806 
L 579.865263 170.565806 
L 577.993263 166.821806 
L 579.490863 167.196206 
L 579.490863 160.485806 
L 580.239663 160.485806 
" clip-path="url(#p8f0f026850)" style="fill: #ff0000"/>
    <path d="M 591.759663 160.485806 
L 591.759663 167.196206 
L 593.257263 166.821806 
L 591.385263 170.565806 
L 589.513263 166.821806 
L 591.010863 167.196206 
L 591.010863 160.485806 
L 591.759663 160.485806 
" clip-path="url(#p8f0f026850)" style="fill: #ff0000"/>
    <path d="M 603.279663 160.485806 
L 603.279663 167.196206 
L 604.777263 166.821806 
L 602.905263 170.565806 
L 601.033263 166.821806 
L 602.530863 167.196206 
L 602.530863 160.485806 
L 603.279663 160.485806 
" clip-path="url(#p8f0f026850)" style="fill: #ff0000"/>
    <path d="M 614.799663 160.485806 
L 614.799663 167.196206 
L 616.297263 166.821806 
L 614.425263 170.565806 
L 612.553263 166.821806 
L 614.050863 167.196206 
L 614.050863 160.485806 
L 614.799663 160.485806 
" clip-path="url(#p8f0f026850)" style="fill: #ff0000"/>
    <path d="M 626.319663 160.485806 
L 626.319663 167.196206 
L 627.817263 166.821806 
L 625.945263 170.565806 
L 624.073263 166.821806 
L 625.570863 167.196206 
L 625.570863 160.485806 
L 626.319663 160.485806 
" clip-path="url(#p8f0f026850)" style="fill: #ff0000"/>
    <path d="M 637.839663 160.485806 
L 637.839663 167.196206 
L 639.337263 166.821806 
L 637.465263 170.565806 
L 635.593263 166.821806 
L 637.090863 167.196206 
L 637.090863 160.485806 
L 637.839663 160.485806 
" clip-path="url(#p8f0f026850)" style="fill: #ff0000"/>
    <path d="M 649.359663 160.485806 
L 649.359663 167.196206 
L 650.857263 166.821806 
L 648.985263 170.565806 
L 647.113263 166.821806 
L 648.610863 167.196206 
L 648.610863 160.485806 
L 649.359663 160.485806 
" clip-path="url(#p8f0f026850)" style="fill: #ff0000"/>
    <path d="M 534.159663 155.464355 
L 534.159663 162.174755 
L 535.657263 161.800355 
L 533.785263 165.544355 
L 531.913263 161.800355 
L 533.410863 162.174755 
L 533.410863 155.464355 
L 534.159663 155.464355 
" clip-path="url(#p8f0f026850)" style="fill: #ff0000"/>
    <path d="M 545.679663 155.464355 
L 545.679663 162.174755 
L 547.177263 161.800355 
L 545.305263 165.544355 
L 543.433263 161.800355 
L 544.930863 162.174755 
L 544.930863 155.464355 
L 545.679663 155.464355 
" clip-path="url(#p8f0f026850)" style="fill: #ff0000"/>
    <path d="M 557.199663 155.464355 
L 557.199663 162.174755 
L 558.697263 161.800355 
L 556.825263 165.544355 
L 554.953263 161.800355 
L 556.450863 162.174755 
L 556.450863 155.464355 
L 557.199663 155.464355 
" clip-path="url(#p8f0f026850)" style="fill: #ff0000"/>
    <path d="M 568.719663 155.464355 
L 568.719663 162.174755 
L 570.217263 161.800355 
L 568.345263 165.544355 
L 566.473263 161.800355 
L 567.970863 162.174755 
L 567.970863 155.464355 
L 568.719663 155.464355 
" clip-path="url(#p8f0f026850)" style="fill: #ff0000"/>
    <path d="M 580.239663 155.464355 
L 580.239663 162.174755 
L 581.737263 161.800355 
L 579.865263 165.544355 
L 577.993263 161.800355 
L 579.490863 162.174755 
L 579.490863 155.464355 
L 580.239663 155.464355 
" clip-path="url(#p8f0f026850)" style="fill: #ff0000"/>
    <path d="M 591.759663 155.464355 
L 591.759663 162.174755 
L 593.257263 161.800355 
L 591.385263 165.544355 
L 589.513263 161.800355 
L 591.010863 162.174755 
L 591.010863 155.464355 
L 591.759663 155.464355 
" clip-path="url(#p8f0f026850)" style="fill: #ff0000"/>
    <path d="M 603.279663 155.464355 
L 603.279663 162.174755 
L 604.777263 161.800355 
L 602.905263 165.544355 
L 601.033263 161.800355 
L 602.530863 162.174755 
L 602.530863 155.464355 
L 603.279663 155.464355 
" clip-path="url(#p8f0f026850)" style="fill: #ff0000"/>
    <path d="M 614.799663 155.464355 
L 614.799663 162.174755 
L 616.297263 161.800355 
L 614.425263 165.544355 
L 612.553263 161.800355 
L 614.050863 162.174755 
L 614.050863 155.464355 
L 614.799663 155.464355 
" clip-path="url(#p8f0f026850)" style="fill: #ff0000"/>
    <path d="M 626.319663 155.464355 
L 626.319663 162.174755 
L 627.817263 161.800355 
L 625.945263 165.544355 
L 624.073263 161.800355 
L 625.570863 162.174755 
L 625.570863 155.464355 
L 626.319663 155.464355 
" clip-path="url(#p8f0f026850)" style="fill: #ff0000"/>
    <path d="M 637.839663 155.464355 
L 637.839663 162.174755 
L 639.337263 161.800355 
L 637.465263 165.544355 
L 635.593263 161.800355 
L 637.090863 162.174755 
L 637.090863 155.464355 
L 637.839663 155.464355 
" clip-path="url(#p8f0f026850)" style="fill: #ff0000"/>
    <path d="M 649.359663 155.464355 
L 649.359663 162.174755 
L 650.857263 161.800355 
L 648.985263 165.544355 
L 647.113263 161.800355 
L 648.610863 162.174755 
L 648.610863 155.464355 
L 649.359663 155.464355 
" clip-path="url(#p8f0f026850)" style="fill: #ff0000"/>
    <path d="M 534.159663 150.442903 
L 534.159663 157.153303 
L 535.657263 156.778903 
L 533.785263 160.522903 
L 531.913263 156.778903 
L 533.410863 157.153303 
L 533.410863 150.442903 
L 534.159663 150.442903 
" clip-path="url(#p8f0f026850)" style="fill: #ff0000"/>
    <path d="M 545.679663 150.442903 
L 545.679663 157.153303 
L 547.177263 156.778903 
L 545.305263 160.522903 
L 543.433263 156.778903 
L 544.930863 157.153303 
L 544.930863 150.442903 
L 545.679663 150.442903 
" clip-path="url(#p8f0f026850)" style="fill: #ff0000"/>
    <path d="M 557.199663 150.442903 
L 557.199663 157.153303 
L 558.697263 156.778903 
L 556.825263 160.522903 
L 554.953263 156.778903 
L 556.450863 157.153303 
L 556.450863 150.442903 
L 557.199663 150.442903 
" clip-path="url(#p8f0f026850)" style="fill: #ff0000"/>
    <path d="M 568.719663 150.442903 
L 568.719663 157.153303 
L 570.217263 156.778903 
L 568.345263 160.522903 
L 566.473263 156.778903 
L 567.970863 157.153303 
L 567.970863 150.442903 
L 568.719663 150.442903 
" clip-path="url(#p8f0f026850)" style="fill: #ff0000"/>
    <path d="M 580.239663 150.442903 
L 580.239663 157.153303 
L 581.737263 156.778903 
L 579.865263 160.522903 
L 577.993263 156.778903 
L 579.490863 157.153303 
L 579.490863 150.442903 
L 580.239663 150.442903 
" clip-path="url(#p8f0f026850)" style="fill: #ff0000"/>
    <path d="M 591.759663 150.442903 
L 591.759663 157.153303 
L 593.257263 156.778903 
L 591.385263 160.522903 
L 589.513263 156.778903 
L 591.010863 157.153303 
L 591.010863 150.442903 
L 591.759663 150.442903 
" clip-path="url(#p8f0f026850)" style="fill: #ff0000"/>
    <path d="M 603.279663 150.442903 
L 603.279663 157.153303 
L 604.777263 156.778903 
L 602.905263 160.522903 
L 601.033263 156.778903 
L 602.530863 157.153303 
L 602.530863 150.442903 
L 603.279663 150.442903 
" clip-path="url(#p8f0f026850)" style="fill: #ff0000"/>
    <path d="M 614.799663 150.442903 
L 614.799663 157.153303 
L 616.297263 156.778903 
L 614.425263 160.522903 
L 612.553263 156.778903 
L 614.050863 157.153303 
L 614.050863 150.442903 
L 614.799663 150.442903 
" clip-path="url(#p8f0f026850)" style="fill: #ff0000"/>
    <path d="M 626.319663 150.442903 
L 626.319663 157.153303 
L 627.817263 156.778903 
L 625.945263 160.522903 
L 624.073263 156.778903 
L 625.570863 157.153303 
L 625.570863 150.442903 
L 626.319663 150.442903 
" clip-path="url(#p8f0f026850)" style="fill: #ff0000"/>
    <path d="M 637.839663 150.442903 
L 637.839663 157.153303 
L 639.337263 156.778903 
L 637.465263 160.522903 
L 635.593263 156.778903 
L 637.090863 157.153303 
L 637.090863 150.442903 
L 637.839663 150.442903 
" clip-path="url(#p8f0f026850)" style="fill: #ff0000"/>
    <path d="M 649.359663 150.442903 
L 649.359663 157.153303 
L 650.857263 156.778903 
L 648.985263 160.522903 
L 647.113263 156.778903 
L 648.610863 157.153303 
L 648.610863 150.442903 
L 649.359663 150.442903 
" clip-path="url(#p8f0f026850)" style="fill: #ff0000"/>
    <path d="M 534.159663 145.421452 
L 534.159663 152.131852 
L 535.657263 151.757452 
L 533.785263 155.501452 
L 531.913263 151.757452 
L 533.410863 152.131852 
L 533.410863 145.421452 
L 534.159663 145.421452 
" clip-path="url(#p8f0f026850)" style="fill: #ff0000"/>
    <path d="M 545.679663 145.421452 
L 545.679663 152.131852 
L 547.177263 151.757452 
L 545.305263 155.501452 
L 543.433263 151.757452 
L 544.930863 152.131852 
L 544.930863 145.421452 
L 545.679663 145.421452 
" clip-path="url(#p8f0f026850)" style="fill: #ff0000"/>
    <path d="M 557.199663 145.421452 
L 557.199663 152.131852 
L 558.697263 151.757452 
L 556.825263 155.501452 
L 554.953263 151.757452 
L 556.450863 152.131852 
L 556.450863 145.421452 
L 557.199663 145.421452 
" clip-path="url(#p8f0f026850)" style="fill: #ff0000"/>
    <path d="M 568.719663 145.421452 
L 568.719663 152.131852 
L 570.217263 151.757452 
L 568.345263 155.501452 
L 566.473263 151.757452 
L 567.970863 152.131852 
L 567.970863 145.421452 
L 568.719663 145.421452 
" clip-path="url(#p8f0f026850)" style="fill: #ff0000"/>
    <path d="M 580.239663 145.421452 
L 580.239663 152.131852 
L 581.737263 151.757452 
L 579.865263 155.501452 
L 577.993263 151.757452 
L 579.490863 152.131852 
L 579.490863 145.421452 
L 580.239663 145.421452 
" clip-path="url(#p8f0f026850)" style="fill: #ff0000"/>
    <path d="M 591.759663 145.421452 
L 591.759663 152.131852 
L 593.257263 151.757452 
L 591.385263 155.501452 
L 589.513263 151.757452 
L 591.010863 152.131852 
L 591.010863 145.421452 
L 591.759663 145.421452 
" clip-path="url(#p8f0f026850)" style="fill: #ff0000"/>
    <path d="M 603.279663 145.421452 
L 603.279663 152.131852 
L 604.777263 151.757452 
L 602.905263 155.501452 
L 601.033263 151.757452 
L 602.530863 152.131852 
L 602.530863 145.421452 
L 603.279663 145.421452 
" clip-path="url(#p8f0f026850)" style="fill: #ff0000"/>
    <path d="M 614.799663 145.421452 
L 614.799663 152.131852 
L 616.297263 151.757452 
L 614.425263 155.501452 
L 612.553263 151.757452 
L 614.050863 152.131852 
L 614.050863 145.421452 
L 614.799663 145.421452 
" clip-path="url(#p8f0f026850)" style="fill: #ff0000"/>
    <path d="M 626.319663 145.421452 
L 626.319663 152.131852 
L 627.817263 151.757452 
L 625.945263 155.501452 
L 624.073263 151.757452 
L 625.570863 152.131852 
L 625.570863 145.421452 
L 626.319663 145.421452 
" clip-path="url(#p8f0f026850)" style="fill: #ff0000"/>
    <path d="M 637.839663 145.421452 
L 637.839663 152.131852 
L 639.337263 151.757452 
L 637.465263 155.501452 
L 635.593263 151.757452 
L 637.090863 152.131852 
L 637.090863 145.421452 
L 637.839663 145.421452 
" clip-path="url(#p8f0f026850)" style="fill: #ff0000"/>
    <path d="M 649.359663 145.421452 
L 649.359663 152.131852 
L 650.857263 151.757452 
L 648.985263 155.501452 
L 647.113263 151.757452 
L 648.610863 152.131852 
L 648.610863 145.421452 
L 649.359663 145.421452 
" clip-path="url(#p8f0f026850)" style="fill: #ff0000"/>
    <path d="M 534.159663 140.4 
L 534.159663 147.1104 
L 535.657263 146.736 
L 533.785263 150.48 
L 531.913263 146.736 
L 533.410863 147.1104 
L 533.410863 140.4 
L 534.159663 140.4 
" clip-path="url(#p8f0f026850)" style="fill: #ff0000"/>
    <path d="M 545.679663 140.4 
L 545.679663 147.1104 
L 547.177263 146.736 
L 545.305263 150.48 
L 543.433263 146.736 
L 544.930863 147.1104 
L 544.930863 140.4 
L 545.679663 140.4 
" clip-path="url(#p8f0f026850)" style="fill: #ff0000"/>
    <path d="M 557.199663 140.4 
L 557.199663 147.1104 
L 558.697263 146.736 
L 556.825263 150.48 
L 554.953263 146.736 
L 556.450863 147.1104 
L 556.450863 140.4 
L 557.199663 140.4 
" clip-path="url(#p8f0f026850)" style="fill: #ff0000"/>
    <path d="M 568.719663 140.4 
L 568.719663 147.1104 
L 570.217263 146.736 
L 568.345263 150.48 
L 566.473263 146.736 
L 567.970863 147.1104 
L 567.970863 140.4 
L 568.719663 140.4 
" clip-path="url(#p8f0f026850)" style="fill: #ff0000"/>
    <path d="M 580.239663 140.4 
L 580.239663 147.1104 
L 581.737263 146.736 
L 579.865263 150.48 
L 577.993263 146.736 
L 579.490863 147.1104 
L 579.490863 140.4 
L 580.239663 140.4 
" clip-path="url(#p8f0f026850)" style="fill: #ff0000"/>
    <path d="M 591.759663 140.4 
L 591.759663 147.1104 
L 593.257263 146.736 
L 591.385263 150.48 
L 589.513263 146.736 
L 591.010863 147.1104 
L 591.010863 140.4 
L 591.759663 140.4 
" clip-path="url(#p8f0f026850)" style="fill: #ff0000"/>
    <path d="M 603.279663 140.4 
L 603.279663 147.1104 
L 604.777263 146.736 
L 602.905263 150.48 
L 601.033263 146.736 
L 602.530863 147.1104 
L 602.530863 140.4 
L 603.279663 140.4 
" clip-path="url(#p8f0f026850)" style="fill: #ff0000"/>
    <path d="M 614.799663 140.4 
L 614.799663 147.1104 
L 616.297263 146.736 
L 614.425263 150.48 
L 612.553263 146.736 
L 614.050863 147.1104 
L 614.050863 140.4 
L 614.799663 140.4 
" clip-path="url(#p8f0f026850)" style="fill: #ff0000"/>
    <path d="M 626.319663 140.4 
L 626.319663 147.1104 
L 627.817263 146.736 
L 625.945263 150.48 
L 624.073263 146.736 
L 625.570863 147.1104 
L 625.570863 140.4 
L 626.319663 140.4 
" clip-path="url(#p8f0f026850)" style="fill: #ff0000"/>
    <path d="M 637.839663 140.4 
L 637.839663 147.1104 
L 639.337263 146.736 
L 637.465263 150.48 
L 635.593263 146.736 
L 637.090863 147.1104 
L 637.090863 140.4 
L 637.839663 140.4 
" clip-path="url(#p8f0f026850)" style="fill: #ff0000"/>
    <path d="M 649.359663 140.4 
L 649.359663 147.1104 
L 650.857263 146.736 
L 648.985263 150.48 
L 647.113263 146.736 
L 648.610863 147.1104 
L 648.610863 140.4 
L 649.359663 140.4 
" clip-path="url(#p8f0f026850)" style="fill: #ff0000"/>
    <path d="M 534.159663 135.378548 
L 534.159663 142.088948 
L 535.657263 141.714548 
L 533.785263 145.458548 
L 531.913263 141.714548 
L 533.410863 142.088948 
L 533.410863 135.378548 
L 534.159663 135.378548 
" clip-path="url(#p8f0f026850)" style="fill: #ff0000"/>
    <path d="M 545.679663 135.378548 
L 545.679663 142.088948 
L 547.177263 141.714548 
L 545.305263 145.458548 
L 543.433263 141.714548 
L 544.930863 142.088948 
L 544.930863 135.378548 
L 545.679663 135.378548 
" clip-path="url(#p8f0f026850)" style="fill: #ff0000"/>
    <path d="M 557.199663 135.378548 
L 557.199663 142.088948 
L 558.697263 141.714548 
L 556.825263 145.458548 
L 554.953263 141.714548 
L 556.450863 142.088948 
L 556.450863 135.378548 
L 557.199663 135.378548 
" clip-path="url(#p8f0f026850)" style="fill: #ff0000"/>
    <path d="M 568.719663 135.378548 
L 568.719663 142.088948 
L 570.217263 141.714548 
L 568.345263 145.458548 
L 566.473263 141.714548 
L 567.970863 142.088948 
L 567.970863 135.378548 
L 568.719663 135.378548 
" clip-path="url(#p8f0f026850)" style="fill: #ff0000"/>
    <path d="M 580.239663 135.378548 
L 580.239663 142.088948 
L 581.737263 141.714548 
L 579.865263 145.458548 
L 577.993263 141.714548 
L 579.490863 142.088948 
L 579.490863 135.378548 
L 580.239663 135.378548 
" clip-path="url(#p8f0f026850)" style="fill: #ff0000"/>
    <path d="M 591.759663 135.378548 
L 591.759663 142.088948 
L 593.257263 141.714548 
L 591.385263 145.458548 
L 589.513263 141.714548 
L 591.010863 142.088948 
L 591.010863 135.378548 
L 591.759663 135.378548 
" clip-path="url(#p8f0f026850)" style="fill: #ff0000"/>
    <path d="M 603.279663 135.378548 
L 603.279663 142.088948 
L 604.777263 141.714548 
L 602.905263 145.458548 
L 601.033263 141.714548 
L 602.530863 142.088948 
L 602.530863 135.378548 
L 603.279663 135.378548 
" clip-path="url(#p8f0f026850)" style="fill: #ff0000"/>
    <path d="M 614.799663 135.378548 
L 614.799663 142.088948 
L 616.297263 141.714548 
L 614.425263 145.458548 
L 612.553263 141.714548 
L 614.050863 142.088948 
L 614.050863 135.378548 
L 614.799663 135.378548 
" clip-path="url(#p8f0f026850)" style="fill: #ff0000"/>
    <path d="M 626.319663 135.378548 
L 626.319663 142.088948 
L 627.817263 141.714548 
L 625.945263 145.458548 
L 624.073263 141.714548 
L 625.570863 142.088948 
L 625.570863 135.378548 
L 626.319663 135.378548 
" clip-path="url(#p8f0f026850)" style="fill: #ff0000"/>
    <path d="M 637.839663 135.378548 
L 637.839663 142.088948 
L 639.337263 141.714548 
L 637.465263 145.458548 
L 635.593263 141.714548 
L 637.090863 142.088948 
L 637.090863 135.378548 
L 637.839663 135.378548 
" clip-path="url(#p8f0f026850)" style="fill: #ff0000"/>
    <path d="M 649.359663 135.378548 
L 649.359663 142.088948 
L 650.857263 141.714548 
L 648.985263 145.458548 
L 647.113263 141.714548 
L 648.610863 142.088948 
L 648.610863 135.378548 
L 649.359663 135.378548 
" clip-path="url(#p8f0f026850)" style="fill: #ff0000"/>
    <path d="M 534.159663 130.357097 
L 534.159663 137.067497 
L 535.657263 136.693097 
L 533.785263 140.437097 
L 531.913263 136.693097 
L 533.410863 137.067497 
L 533.410863 130.357097 
L 534.159663 130.357097 
" clip-path="url(#p8f0f026850)" style="fill: #ff0000"/>
    <path d="M 545.679663 130.357097 
L 545.679663 137.067497 
L 547.177263 136.693097 
L 545.305263 140.437097 
L 543.433263 136.693097 
L 544.930863 137.067497 
L 544.930863 130.357097 
L 545.679663 130.357097 
" clip-path="url(#p8f0f026850)" style="fill: #ff0000"/>
    <path d="M 557.199663 130.357097 
L 557.199663 137.067497 
L 558.697263 136.693097 
L 556.825263 140.437097 
L 554.953263 136.693097 
L 556.450863 137.067497 
L 556.450863 130.357097 
L 557.199663 130.357097 
" clip-path="url(#p8f0f026850)" style="fill: #ff0000"/>
    <path d="M 568.719663 130.357097 
L 568.719663 137.067497 
L 570.217263 136.693097 
L 568.345263 140.437097 
L 566.473263 136.693097 
L 567.970863 137.067497 
L 567.970863 130.357097 
L 568.719663 130.357097 
" clip-path="url(#p8f0f026850)" style="fill: #ff0000"/>
    <path d="M 580.239663 130.357097 
L 580.239663 137.067497 
L 581.737263 136.693097 
L 579.865263 140.437097 
L 577.993263 136.693097 
L 579.490863 137.067497 
L 579.490863 130.357097 
L 580.239663 130.357097 
" clip-path="url(#p8f0f026850)" style="fill: #ff0000"/>
    <path d="M 591.759663 130.357097 
L 591.759663 137.067497 
L 593.257263 136.693097 
L 591.385263 140.437097 
L 589.513263 136.693097 
L 591.010863 137.067497 
L 591.010863 130.357097 
L 591.759663 130.357097 
" clip-path="url(#p8f0f026850)" style="fill: #ff0000"/>
    <path d="M 603.279663 130.357097 
L 603.279663 137.067497 
L 604.777263 136.693097 
L 602.905263 140.437097 
L 601.033263 136.693097 
L 602.530863 137.067497 
L 602.530863 130.357097 
L 603.279663 130.357097 
" clip-path="url(#p8f0f026850)" style="fill: #ff0000"/>
    <path d="M 614.799663 130.357097 
L 614.799663 137.067497 
L 616.297263 136.693097 
L 614.425263 140.437097 
L 612.553263 136.693097 
L 614.050863 137.067497 
L 614.050863 130.357097 
L 614.799663 130.357097 
" clip-path="url(#p8f0f026850)" style="fill: #ff0000"/>
    <path d="M 626.319663 130.357097 
L 626.319663 137.067497 
L 627.817263 136.693097 
L 625.945263 140.437097 
L 624.073263 136.693097 
L 625.570863 137.067497 
L 625.570863 130.357097 
L 626.319663 130.357097 
" clip-path="url(#p8f0f026850)" style="fill: #ff0000"/>
    <path d="M 637.839663 130.357097 
L 637.839663 137.067497 
L 639.337263 136.693097 
L 637.465263 140.437097 
L 635.593263 136.693097 
L 637.090863 137.067497 
L 637.090863 130.357097 
L 637.839663 130.357097 
" clip-path="url(#p8f0f026850)" style="fill: #ff0000"/>
    <path d="M 649.359663 130.357097 
L 649.359663 137.067497 
L 650.857263 136.693097 
L 648.985263 140.437097 
L 647.113263 136.693097 
L 648.610863 137.067497 
L 648.610863 130.357097 
L 649.359663 130.357097 
" clip-path="url(#p8f0f026850)" style="fill: #ff0000"/>
    <path d="M 534.159663 125.335645 
L 534.159663 132.046045 
L 535.657263 131.671645 
L 533.785263 135.415645 
L 531.913263 131.671645 
L 533.410863 132.046045 
L 533.410863 125.335645 
L 534.159663 125.335645 
" clip-path="url(#p8f0f026850)" style="fill: #ff0000"/>
    <path d="M 545.679663 125.335645 
L 545.679663 132.046045 
L 547.177263 131.671645 
L 545.305263 135.415645 
L 543.433263 131.671645 
L 544.930863 132.046045 
L 544.930863 125.335645 
L 545.679663 125.335645 
" clip-path="url(#p8f0f026850)" style="fill: #ff0000"/>
    <path d="M 557.199663 125.335645 
L 557.199663 132.046045 
L 558.697263 131.671645 
L 556.825263 135.415645 
L 554.953263 131.671645 
L 556.450863 132.046045 
L 556.450863 125.335645 
L 557.199663 125.335645 
" clip-path="url(#p8f0f026850)" style="fill: #ff0000"/>
    <path d="M 568.719663 125.335645 
L 568.719663 132.046045 
L 570.217263 131.671645 
L 568.345263 135.415645 
L 566.473263 131.671645 
L 567.970863 132.046045 
L 567.970863 125.335645 
L 568.719663 125.335645 
" clip-path="url(#p8f0f026850)" style="fill: #ff0000"/>
    <path d="M 580.239663 125.335645 
L 580.239663 132.046045 
L 581.737263 131.671645 
L 579.865263 135.415645 
L 577.993263 131.671645 
L 579.490863 132.046045 
L 579.490863 125.335645 
L 580.239663 125.335645 
" clip-path="url(#p8f0f026850)" style="fill: #ff0000"/>
    <path d="M 591.759663 125.335645 
L 591.759663 132.046045 
L 593.257263 131.671645 
L 591.385263 135.415645 
L 589.513263 131.671645 
L 591.010863 132.046045 
L 591.010863 125.335645 
L 591.759663 125.335645 
" clip-path="url(#p8f0f026850)" style="fill: #ff0000"/>
    <path d="M 603.279663 125.335645 
L 603.279663 132.046045 
L 604.777263 131.671645 
L 602.905263 135.415645 
L 601.033263 131.671645 
L 602.530863 132.046045 
L 602.530863 125.335645 
L 603.279663 125.335645 
" clip-path="url(#p8f0f026850)" style="fill: #ff0000"/>
    <path d="M 614.799663 125.335645 
L 614.799663 132.046045 
L 616.297263 131.671645 
L 614.425263 135.415645 
L 612.553263 131.671645 
L 614.050863 132.046045 
L 614.050863 125.335645 
L 614.799663 125.335645 
" clip-path="url(#p8f0f026850)" style="fill: #ff0000"/>
    <path d="M 626.319663 125.335645 
L 626.319663 132.046045 
L 627.817263 131.671645 
L 625.945263 135.415645 
L 624.073263 131.671645 
L 625.570863 132.046045 
L 625.570863 125.335645 
L 626.319663 125.335645 
" clip-path="url(#p8f0f026850)" style="fill: #ff0000"/>
    <path d="M 637.839663 125.335645 
L 637.839663 132.046045 
L 639.337263 131.671645 
L 637.465263 135.415645 
L 635.593263 131.671645 
L 637.090863 132.046045 
L 637.090863 125.335645 
L 637.839663 125.335645 
" clip-path="url(#p8f0f026850)" style="fill: #ff0000"/>
    <path d="M 649.359663 125.335645 
L 649.359663 132.046045 
L 650.857263 131.671645 
L 648.985263 135.415645 
L 647.113263 131.671645 
L 648.610863 132.046045 
L 648.610863 125.335645 
L 649.359663 125.335645 
" clip-path="url(#p8f0f026850)" style="fill: #ff0000"/>
    <path d="M 534.159663 120.314194 
L 534.159663 127.024594 
L 535.657263 126.650194 
L 533.785263 130.394194 
L 531.913263 126.650194 
L 533.410863 127.024594 
L 533.410863 120.314194 
L 534.159663 120.314194 
" clip-path="url(#p8f0f026850)" style="fill: #ff0000"/>
    <path d="M 545.679663 120.314194 
L 545.679663 127.024594 
L 547.177263 126.650194 
L 545.305263 130.394194 
L 543.433263 126.650194 
L 544.930863 127.024594 
L 544.930863 120.314194 
L 545.679663 120.314194 
" clip-path="url(#p8f0f026850)" style="fill: #ff0000"/>
    <path d="M 557.199663 120.314194 
L 557.199663 127.024594 
L 558.697263 126.650194 
L 556.825263 130.394194 
L 554.953263 126.650194 
L 556.450863 127.024594 
L 556.450863 120.314194 
L 557.199663 120.314194 
" clip-path="url(#p8f0f026850)" style="fill: #ff0000"/>
    <path d="M 568.719663 120.314194 
L 568.719663 127.024594 
L 570.217263 126.650194 
L 568.345263 130.394194 
L 566.473263 126.650194 
L 567.970863 127.024594 
L 567.970863 120.314194 
L 568.719663 120.314194 
" clip-path="url(#p8f0f026850)" style="fill: #ff0000"/>
    <path d="M 580.239663 120.314194 
L 580.239663 127.024594 
L 581.737263 126.650194 
L 579.865263 130.394194 
L 577.993263 126.650194 
L 579.490863 127.024594 
L 579.490863 120.314194 
L 580.239663 120.314194 
" clip-path="url(#p8f0f026850)" style="fill: #ff0000"/>
    <path d="M 591.759663 120.314194 
L 591.759663 127.024594 
L 593.257263 126.650194 
L 591.385263 130.394194 
L 589.513263 126.650194 
L 591.010863 127.024594 
L 591.010863 120.314194 
L 591.759663 120.314194 
" clip-path="url(#p8f0f026850)" style="fill: #ff0000"/>
    <path d="M 603.279663 120.314194 
L 603.279663 127.024594 
L 604.777263 126.650194 
L 602.905263 130.394194 
L 601.033263 126.650194 
L 602.530863 127.024594 
L 602.530863 120.314194 
L 603.279663 120.314194 
" clip-path="url(#p8f0f026850)" style="fill: #ff0000"/>
    <path d="M 614.799663 120.314194 
L 614.799663 127.024594 
L 616.297263 126.650194 
L 614.425263 130.394194 
L 612.553263 126.650194 
L 614.050863 127.024594 
L 614.050863 120.314194 
L 614.799663 120.314194 
" clip-path="url(#p8f0f026850)" style="fill: #ff0000"/>
    <path d="M 626.319663 120.314194 
L 626.319663 127.024594 
L 627.817263 126.650194 
L 625.945263 130.394194 
L 624.073263 126.650194 
L 625.570863 127.024594 
L 625.570863 120.314194 
L 626.319663 120.314194 
" clip-path="url(#p8f0f026850)" style="fill: #ff0000"/>
    <path d="M 637.839663 120.314194 
L 637.839663 127.024594 
L 639.337263 126.650194 
L 637.465263 130.394194 
L 635.593263 126.650194 
L 637.090863 127.024594 
L 637.090863 120.314194 
L 637.839663 120.314194 
" clip-path="url(#p8f0f026850)" style="fill: #ff0000"/>
    <path d="M 649.359663 120.314194 
L 649.359663 127.024594 
L 650.857263 126.650194 
L 648.985263 130.394194 
L 647.113263 126.650194 
L 648.610863 127.024594 
L 648.610863 120.314194 
L 649.359663 120.314194 
" clip-path="url(#p8f0f026850)" style="fill: #ff0000"/>
    <path d="M 534.159663 115.292742 
L 534.159663 122.003142 
L 535.657263 121.628742 
L 533.785263 125.372742 
L 531.913263 121.628742 
L 533.410863 122.003142 
L 533.410863 115.292742 
L 534.159663 115.292742 
" clip-path="url(#p8f0f026850)" style="fill: #ff0000"/>
    <path d="M 545.679663 115.292742 
L 545.679663 122.003142 
L 547.177263 121.628742 
L 545.305263 125.372742 
L 543.433263 121.628742 
L 544.930863 122.003142 
L 544.930863 115.292742 
L 545.679663 115.292742 
" clip-path="url(#p8f0f026850)" style="fill: #ff0000"/>
    <path d="M 557.199663 115.292742 
L 557.199663 122.003142 
L 558.697263 121.628742 
L 556.825263 125.372742 
L 554.953263 121.628742 
L 556.450863 122.003142 
L 556.450863 115.292742 
L 557.199663 115.292742 
" clip-path="url(#p8f0f026850)" style="fill: #ff0000"/>
    <path d="M 568.719663 115.292742 
L 568.719663 122.003142 
L 570.217263 121.628742 
L 568.345263 125.372742 
L 566.473263 121.628742 
L 567.970863 122.003142 
L 567.970863 115.292742 
L 568.719663 115.292742 
" clip-path="url(#p8f0f026850)" style="fill: #ff0000"/>
    <path d="M 580.239663 115.292742 
L 580.239663 122.003142 
L 581.737263 121.628742 
L 579.865263 125.372742 
L 577.993263 121.628742 
L 579.490863 122.003142 
L 579.490863 115.292742 
L 580.239663 115.292742 
" clip-path="url(#p8f0f026850)" style="fill: #ff0000"/>
    <path d="M 591.759663 115.292742 
L 591.759663 122.003142 
L 593.257263 121.628742 
L 591.385263 125.372742 
L 589.513263 121.628742 
L 591.010863 122.003142 
L 591.010863 115.292742 
L 591.759663 115.292742 
" clip-path="url(#p8f0f026850)" style="fill: #ff0000"/>
    <path d="M 603.279663 115.292742 
L 603.279663 122.003142 
L 604.777263 121.628742 
L 602.905263 125.372742 
L 601.033263 121.628742 
L 602.530863 122.003142 
L 602.530863 115.292742 
L 603.279663 115.292742 
" clip-path="url(#p8f0f026850)" style="fill: #ff0000"/>
    <path d="M 614.799663 115.292742 
L 614.799663 122.003142 
L 616.297263 121.628742 
L 614.425263 125.372742 
L 612.553263 121.628742 
L 614.050863 122.003142 
L 614.050863 115.292742 
L 614.799663 115.292742 
" clip-path="url(#p8f0f026850)" style="fill: #ff0000"/>
    <path d="M 626.319663 115.292742 
L 626.319663 122.003142 
L 627.817263 121.628742 
L 625.945263 125.372742 
L 624.073263 121.628742 
L 625.570863 122.003142 
L 625.570863 115.292742 
L 626.319663 115.292742 
" clip-path="url(#p8f0f026850)" style="fill: #ff0000"/>
    <path d="M 637.839663 115.292742 
L 637.839663 122.003142 
L 639.337263 121.628742 
L 637.465263 125.372742 
L 635.593263 121.628742 
L 637.090863 122.003142 
L 637.090863 115.292742 
L 637.839663 115.292742 
" clip-path="url(#p8f0f026850)" style="fill: #ff0000"/>
    <path d="M 649.359663 115.292742 
L 649.359663 122.003142 
L 650.857263 121.628742 
L 648.985263 125.372742 
L 647.113263 121.628742 
L 648.610863 122.003142 
L 648.610863 115.292742 
L 649.359663 115.292742 
" clip-path="url(#p8f0f026850)" style="fill: #ff0000"/>
   </g>
   <g id="text_28">
    <!-- y' -->
    <g style="fill: #808080" transform="translate(660.505263 139.68) scale(0.1 -0.1)">
     <use xlink:href="#DejaVuSans-79"/>
     <use xlink:href="#DejaVuSans-27" x="59.179688"/>
    </g>
   </g>
   <g id="text_29">
    <!-- z' -->
    <g style="fill: #808080" transform="translate(597.145263 18.72) scale(0.1 -0.1)">
     <use xlink:href="#DejaVuSans-7a"/>
     <use xlink:href="#DejaVuSans-27" x="52.490234"/>
    </g>
   </g>
   <g id="text_30">
    <!-- t' = 0 -->
    <g transform="translate(677.785263 147.744) scale(0.1 -0.1)">
     <use xlink:href="#DejaVuSans-74"/>
     <use xlink:href="#DejaVuSans-27" x="39.208984"/>
     <use xlink:href="#DejaVuSans-20" x="66.699219"/>
     <use xlink:href="#DejaVuSans-3d" x="98.486328"/>
     <use xlink:href="#DejaVuSans-20" x="182.275391"/>
     <use xlink:href="#DejaVuSans-30" x="214.0625"/>
    </g>
   </g>
  </g>
 </g>
 <defs>
  <clipPath id="pdbfbca9332">
   <rect x="7.2" y="7.2" width="149.76" height="276.48"/>
  </clipPath>
  <clipPath id="p967e69648d">
   <rect x="261.852632" y="7.2" width="149.76" height="276.48"/>
  </clipPath>
  <clipPath id="p8f0f026850">
   <rect x="516.505263" y="7.2" width="149.76" height="276.48"/>
  </clipPath>
 </defs>
</svg>
