<svg width="4153" height="1878" xmlns="http://www.w3.org/2000/svg" xmlns:xlink="http://www.w3.org/1999/xlink" xml:space="preserve" overflow="hidden"><g transform="translate(-253 -300)"><path d="M1084.5 1238C1084.5 1228.89 1091.66 1221.5 1100.5 1221.5 1109.34 1221.5 1116.5 1228.89 1116.5 1238 1116.5 1247.11 1109.34 1254.5 1100.5 1254.5 1091.66 1254.5 1084.5 1247.11 1084.5 1238Z" stroke="#000000" stroke-width="4.58333" stroke-miterlimit="8" fill="#FF0000" fill-rule="evenodd"/><path d="M894 1237.5C894 1123.45 986.453 1031 1100.5 1031 1214.55 1031 1307 1123.45 1307 1237.5 1307 1351.55 1214.55 1444 1100.5 1444 986.453 1444 894 1351.55 894 1237.5Z" stroke="#FF0000" stroke-width="10.3125" stroke-miterlimit="8" fill="none" fill-rule="evenodd"/><path d="M688 1236C688 1006.8 874.026 821 1103.5 821 1332.97 821 1519 1006.8 1519 1236 1519 1465.2 1332.97 1651 1103.5 1651 874.026 1651 688 1465.2 688 1236Z" stroke="#FF0000" stroke-width="10.3125" stroke-miterlimit="8" fill="none" fill-rule="evenodd"/><path d="M478 1236C478 892.479 756.479 614 1100 614 1443.52 614 1722 892.479 1722 1236 1722 1579.52 1443.52 1858 1100 1858 756.479 1858 478 1579.52 478 1236Z" stroke="#FF0000" stroke-width="10.3125" stroke-miterlimit="8" fill="none" fill-rule="evenodd"/><path d="M258 1235.5C258 770.752 634.976 394 1100 394 1565.02 394 1942 770.752 1942 1235.5 1942 1700.25 1565.02 2077 1100 2077 634.976 2077 258 1700.25 258 1235.5Z" stroke="#FF0000" stroke-width="10.3125" stroke-miterlimit="8" fill="none" fill-rule="evenodd"/><path d="M1087.5 1238C1087.5 1230.54 1093.32 1224.5 1100.5 1224.5 1107.68 1224.5 1113.5 1230.54 1113.5 1238 1113.5 1245.46 1107.68 1251.5 1100.5 1251.5 1093.32 1251.5 1087.5 1245.46 1087.5 1238Z" stroke="#000000" stroke-width="4.58333" stroke-miterlimit="8" fill="#FF0000" fill-rule="evenodd"/><path d="M981 1237.5C981 1172.05 1034.05 1119 1099.5 1119 1164.95 1119 1218 1172.05 1218 1237.5 1218 1302.95 1164.95 1356 1099.5 1356 1034.05 1356 981 1302.95 981 1237.5Z" stroke="#FF0000" stroke-width="10.3125" stroke-miterlimit="8" fill="none" fill-rule="evenodd"/><path d="M787 1237.5C787 1065.46 926.239 926 1098 926 1269.76 926 1409 1065.46 1409 1237.5 1409 1409.54 1269.76 1549 1098 1549 926.239 1549 787 1409.54 787 1237.5Z" stroke="#FF0000" stroke-width="10.3125" stroke-miterlimit="8" fill="none" fill-rule="evenodd"/><path d="M570 1236C570 944.946 805.946 709 1097 709 1388.05 709 1624 944.946 1624 1236 1624 1527.05 1388.05 1763 1097 1763 805.946 1763 570 1527.05 570 1236Z" stroke="#FF0000" stroke-width="10.3125" stroke-miterlimit="8" fill="none" fill-rule="evenodd"/><path d="M360 1239C360 831.966 689.966 502 1097 502 1504.03 502 1834 831.966 1834 1239 1834 1646.03 1504.03 1976 1097 1976 689.966 1976 360 1646.03 360 1239Z" stroke="#FF0000" stroke-width="10.3125" stroke-miterlimit="8" fill="none" fill-rule="evenodd"/><path d="M3701.5 1238C3701.5 1228.89 3708.66 1221.5 3717.5 1221.5 3726.34 1221.5 3733.5 1228.89 3733.5 1238 3733.5 1247.11 3726.34 1254.5 3717.5 1254.5 3708.66 1254.5 3701.5 1247.11 3701.5 1238Z" stroke="#000000" stroke-width="4.58333" stroke-miterlimit="8" stroke-dasharray="4.58333 4.58333" stroke-opacity="0.878431" fill="#FF0000" fill-rule="evenodd" fill-opacity="0.419608"/><path d="M3498.5 1238C3498.5 1228.89 3505.66 1221.5 3514.5 1221.5 3523.34 1221.5 3530.5 1228.89 3530.5 1238 3530.5 1247.11 3523.34 1254.5 3514.5 1254.5 3505.66 1254.5 3498.5 1247.11 3498.5 1238Z" stroke="#000000" stroke-width="4.58333" stroke-miterlimit="8" stroke-dasharray="4.58333 4.58333" stroke-opacity="0.878431" fill="#FF0000" fill-rule="evenodd" fill-opacity="0.419608"/><path d="M3904.5 1238C3904.5 1228.89 3911.66 1221.5 3920.5 1221.5 3929.34 1221.5 3936.5 1228.89 3936.5 1238 3936.5 1247.11 3929.34 1254.5 3920.5 1254.5 3911.66 1254.5 3904.5 1247.11 3904.5 1238Z" stroke="#000000" stroke-width="4.58333" stroke-miterlimit="8" stroke-dasharray="4.58333 4.58333" stroke-opacity="0.878431" fill="#FF0000" fill-rule="evenodd" fill-opacity="0.419608"/><path d="M3687 1239C3687 1110.32 3791.32 1006 3920 1006 4048.68 1006 4153 1110.32 4153 1239 4153 1367.68 4048.68 1472 3920 1472 3791.32 1472 3687 1367.68 3687 1239Z" stroke="#FF0000" stroke-width="10.3125" stroke-miterlimit="8" fill="none" fill-rule="evenodd"/><path d="M3249 1235.5C3249 976.754 3458.53 767 3717 767 3975.47 767 4185 976.754 4185 1235.5 4185 1494.25 3975.47 1704 3717 1704 3458.53 1704 3249 1494.25 3249 1235.5Z" stroke="#FF0000" stroke-width="10.3125" stroke-miterlimit="8" fill="none" fill-rule="evenodd"/><path d="M2813 1239.5C2813 852.072 3126.85 538 3514 538 3901.15 538 4215 852.072 4215 1239.5 4215 1626.93 3901.15 1941 3514 1941 3126.85 1941 2813 1626.93 2813 1239.5Z" stroke="#FF0000" stroke-width="10.3125" stroke-miterlimit="8" fill="none" fill-rule="evenodd"/><path d="M2377 1239C2377 723.166 2795.17 305 3311 305 3826.83 305 4245 723.166 4245 1239 4245 1754.83 3826.83 2173 3311 2173 2795.17 2173 2377 1754.83 2377 1239Z" stroke="#FF0000" stroke-width="10.3125" stroke-miterlimit="8" fill="none" fill-rule="evenodd"/><path d="M3295.5 1238C3295.5 1228.89 3302.66 1221.5 3311.5 1221.5 3320.34 1221.5 3327.5 1228.89 3327.5 1238 3327.5 1247.11 3320.34 1254.5 3311.5 1254.5 3302.66 1254.5 3295.5 1247.11 3295.5 1238Z" stroke="#000000" stroke-width="4.58333" stroke-miterlimit="8" stroke-dasharray="4.58333 4.58333" stroke-opacity="0.878431" fill="#FF0000" fill-rule="evenodd" fill-opacity="0.419608"/><path d="M4156 1226.97 4273.39 1226.97 4273.39 1251.03 4156 1251.03ZM4261.36 1202.91 4333.55 1239 4261.36 1275.09Z"/><path d="M4107.5 1238C4107.5 1228.89 4114.66 1221.5 4123.5 1221.5 4132.34 1221.5 4139.5 1228.89 4139.5 1238 4139.5 1247.11 4132.34 1254.5 4123.5 1254.5 4114.66 1254.5 4107.5 1247.11 4107.5 1238Z" stroke="#000000" stroke-width="4.58333" stroke-miterlimit="8" stroke-opacity="0.878431" fill="#FF0000" fill-rule="evenodd"/></g></svg>