<?xml version="1.0" encoding="utf-8" standalone="no"?>
<!DOCTYPE svg PUBLIC "-//W3C//DTD SVG 1.1//EN"
  "http://www.w3.org/Graphics/SVG/1.1/DTD/svg11.dtd">
<svg xmlns:xlink="http://www.w3.org/1999/xlink" width="186.704104pt" height="280.512pt" viewBox="0 0 186.704104 280.512" xmlns="http://www.w3.org/2000/svg" version="1.1">
 <metadata>
  <rdf:RDF xmlns:dc="http://purl.org/dc/elements/1.1/" xmlns:cc="http://creativecommons.org/ns#" xmlns:rdf="http://www.w3.org/1999/02/22-rdf-syntax-ns#">
   <cc:Work>
    <dc:type rdf:resource="http://purl.org/dc/dcmitype/StillImage"/>
    <dc:date>2024-02-25T23:50:07.816381</dc:date>
    <dc:format>image/svg+xml</dc:format>
    <dc:creator>
     <cc:Agent>
      <dc:title>Matplotlib v3.8.2, https://matplotlib.org/</dc:title>
     </cc:Agent>
    </dc:creator>
   </cc:Work>
  </rdf:RDF>
 </metadata>
 <defs>
  <style type="text/css">*{stroke-linejoin: round; stroke-linecap: butt}</style>
 </defs>
 <g id="figure_1">
  <g id="axes_1">
   <g id="patch_1">
    <path d="M 172.513346 101.007896 
L 169.017968 103.279892 
L 171.464733 101.009644 
L 7.2 101.009644 
L 7.2 101.006149 
L 171.464733 101.006149 
L 169.017968 98.7359 
z
" clip-path="url(#p19b1d39cbe)" style="fill: #1f77b4; stroke: #000000; stroke-linejoin: miter"/>
   </g>
   <g id="patch_2">
    <path d="M 93.352052 14.190757 
L 95.624048 17.686136 
L 93.3538 15.239371 
L 93.3538 194.815793 
L 93.350304 194.815793 
L 93.350304 15.239371 
L 91.080056 17.686136 
z
" clip-path="url(#p19b1d39cbe)" style="fill: #1f77b4; stroke: #000000; stroke-linejoin: miter"/>
   </g>
   <g id="PathCollection_1">
    <defs>
     <path id="m56344b2d36" d="M 0 1.581139 
C 0.419323 1.581139 0.821528 1.41454 1.118034 1.118034 
C 1.41454 0.821528 1.581139 0.419323 1.581139 0 
C 1.581139 -0.419323 1.41454 -0.821528 1.118034 -1.118034 
C 0.821528 -1.41454 0.419323 -1.581139 0 -1.581139 
C -0.419323 -1.581139 -0.821528 -1.41454 -1.118034 -1.118034 
C -1.41454 -0.821528 -1.581139 -0.419323 -1.581139 0 
C -1.581139 0.419323 -1.41454 0.821528 -1.118034 1.118034 
C -0.821528 1.41454 -0.419323 1.581139 0 1.581139 
z
" style="stroke: #000000"/>
    </defs>
    <g clip-path="url(#p19b1d39cbe)">
     <use xlink:href="#m56344b2d36" x="93.352052" y="101.007896" style="stroke: #000000"/>
    </g>
   </g>
   <g id="Quiver_1">
    <path d="M 95.766728 71.188615 
L 96.356376 65.013546 
L 93.742571 65.196678 
L 97.153703 61.195205 
L 99.745908 65.769927 
L 97.213995 65.095439 
L 96.624348 71.270508 
L 95.766728 71.188615 
" clip-path="url(#p19b1d39cbe)" style="fill: #ff0000"/>
    <path d="M 101.366428 72.184469 
L 103.114059 66.232583 
L 100.512832 65.917739 
L 104.619604 62.634139 
L 106.299192 67.616768 
L 103.940682 66.475301 
L 102.193051 72.427187 
L 101.366428 72.184469 
" clip-path="url(#p19b1d39cbe)" style="fill: #ff0000"/>
    <path d="M 106.676467 74.222077 
L 109.518919 68.70849 
L 107.024283 67.907051 
L 111.678266 65.460001 
L 112.384533 70.670451 
L 110.284669 69.103262 
L 107.442217 74.616848 
L 106.676467 74.222077 
" clip-path="url(#p19b1d39cbe)" style="fill: #ff0000"/>
    <path d="M 111.504927 77.227793 
L 115.339465 72.351782 
L 113.041584 71.092713 
L 118.07457 69.570657 
L 117.78199 74.820609 
L 116.016666 72.884339 
L 112.182128 77.76035 
L 111.504927 77.227793 
" clip-path="url(#p19b1d39cbe)" style="fill: #ff0000"/>
    <path d="M 115.677295 81.092985 
L 120.365329 77.030781 
L 118.347254 75.359587 
L 123.577339 74.817536 
L 122.296486 79.917244 
L 120.929505 77.681875 
L 116.241471 81.744079 
L 115.677295 81.092985 
" clip-path="url(#p19b1d39cbe)" style="fill: #ff0000"/>
    <path d="M 119.042771 85.677954 
L 124.414863 82.576375 
L 122.749533 80.553459 
L 127.987687 81.011003 
L 125.764855 85.77615 
L 124.845623 83.322473 
L 119.473531 86.424052 
L 119.042771 85.677954 
" clip-path="url(#p19b1d39cbe)" style="fill: #ff0000"/>
    <path d="M 121.479717 90.816986 
L 127.341706 88.788132 
L 126.08931 86.486607 
L 131.146213 87.92721 
L 128.06174 92.18557 
L 127.623482 89.60227 
L 121.761493 91.631124 
L 121.479717 90.816986 
" clip-path="url(#p19b1d39cbe)" style="fill: #ff0000"/>
    <path d="M 122.900056 96.324345 
L 129.040074 95.441543 
L 128.245877 92.944593 
L 132.938759 95.316187 
L 129.104127 98.913853 
L 129.162681 96.294295 
L 123.022663 97.177096 
L 122.900056 96.324345 
" clip-path="url(#p19b1d39cbe)" style="fill: #ff0000"/>
    <path d="M 123.252453 102.000979 
L 129.448584 102.296137 
L 129.14129 99.694007 
L 133.300539 102.910877 
L 128.854341 105.71782 
L 129.407591 103.156682 
L 123.21146 102.861524 
L 123.252453 102.000979 
" clip-path="url(#p19b1d39cbe)" style="fill: #ff0000"/>
    <path d="M 122.524171 107.641721 
L 128.552472 109.104171 
L 128.743187 106.490908 
L 132.218476 110.436789 
L 127.321409 112.351558 
L 128.34936 109.941406 
L 122.32106 108.478957 
L 122.524171 107.641721 
" clip-path="url(#p19b1d39cbe)" style="fill: #ff0000"/>
    <path d="M 120.741533 113.042699 
L 126.384124 115.619584 
L 127.065957 113.08964 
L 129.73168 117.621916 
L 124.560737 118.575306 
L 126.026236 116.40325 
L 120.383645 113.826366 
L 120.741533 113.042699 
" clip-path="url(#p19b1d39cbe)" style="fill: #ff0000"/>
    <path d="M 117.968968 118.008708 
L 123.021912 121.606892 
L 124.170217 119.251705 
L 125.930029 124.206568 
L 120.672101 124.164122 
L 122.522181 122.308666 
L 117.469238 118.710482 
L 117.968968 118.008708 
" clip-path="url(#p19b1d39cbe)" style="fill: #ff0000"/>
    <path d="M 114.306684 122.360263 
L 118.587353 126.849699 
L 120.160629 124.754392 
L 120.950925 129.952761 
L 115.796047 128.916013 
L 117.963841 127.444217 
L 113.683172 122.95478 
L 114.306684 122.360263 
" clip-path="url(#p19b1d39cbe)" style="fill: #ff0000"/>
    <path d="M 109.887044 125.940088 
L 113.240725 131.158517 
L 115.18211 129.398819 
L 114.974325 134.65281 
L 110.108809 132.659231 
L 112.515968 131.62429 
L 109.162287 126.405861 
L 109.887044 125.940088 
" clip-path="url(#p19b1d39cbe)" style="fill: #ff0000"/>
    <path d="M 104.869787 128.618799 
L 107.175268 134.377612 
L 109.414595 133.017123 
L 108.216241 138.136845 
L 103.815939 135.258487 
L 106.37546 134.697806 
L 104.069979 128.938994 
L 104.869787 128.618799 
" clip-path="url(#p19b1d39cbe)" style="fill: #ff0000"/>
    <path d="M 99.436249 130.29958 
L 100.610204 136.390638 
L 103.066538 135.478531 
L 100.920926 140.278943 
L 97.144876 136.619838 
L 99.764253 136.553682 
L 98.590297 130.462624 
L 99.436249 130.29958 
" clip-path="url(#p19b1d39cbe)" style="fill: #ff0000"/>
    <path d="M 93.782812 130.921683 
L 93.782812 137.12484 
L 96.367374 136.69408 
L 93.352052 141.001683 
L 90.33673 136.69408 
L 92.921292 137.12484 
L 92.921292 130.921683 
L 93.782812 130.921683 
" clip-path="url(#p19b1d39cbe)" style="fill: #ff0000"/>
    <path d="M 88.113806 130.462624 
L 86.939851 136.553682 
L 89.559228 136.619838 
L 85.783178 140.278943 
L 83.637566 135.478531 
L 86.093899 136.390638 
L 87.267855 130.29958 
L 88.113806 130.462624 
" clip-path="url(#p19b1d39cbe)" style="fill: #ff0000"/>
    <path d="M 82.634125 128.938994 
L 80.328644 134.697806 
L 82.888165 135.258487 
L 78.487863 138.136845 
L 77.289509 133.017123 
L 79.528836 134.377612 
L 81.834317 128.618799 
L 82.634125 128.938994 
" clip-path="url(#p19b1d39cbe)" style="fill: #ff0000"/>
    <path d="M 77.541816 126.405861 
L 74.188136 131.62429 
L 76.595294 132.659231 
L 71.729778 134.65281 
L 71.521994 129.398819 
L 73.463379 131.158517 
L 76.817059 125.940088 
L 77.541816 126.405861 
" clip-path="url(#p19b1d39cbe)" style="fill: #ff0000"/>
    <path d="M 73.020932 122.95478 
L 68.740263 127.444217 
L 70.908056 128.916013 
L 65.753179 129.952761 
L 66.543474 124.754392 
L 68.116751 126.849699 
L 72.39742 122.360263 
L 73.020932 122.95478 
" clip-path="url(#p19b1d39cbe)" style="fill: #ff0000"/>
    <path d="M 69.234866 118.710482 
L 64.181923 122.308666 
L 66.032003 124.164122 
L 60.774075 124.206568 
L 62.533886 119.251705 
L 63.682192 121.606892 
L 68.735135 118.008708 
L 69.234866 118.710482 
" clip-path="url(#p19b1d39cbe)" style="fill: #ff0000"/>
    <path d="M 66.320459 113.826366 
L 60.677868 116.40325 
L 62.143367 118.575306 
L 56.972424 117.621916 
L 59.638147 113.08964 
L 60.31998 115.619584 
L 65.96257 113.042699 
L 66.320459 113.826366 
" clip-path="url(#p19b1d39cbe)" style="fill: #ff0000"/>
    <path d="M 64.383044 108.478957 
L 58.354743 109.941406 
L 59.382695 112.351558 
L 54.485627 110.436789 
L 57.960916 106.490908 
L 58.151632 109.104171 
L 64.179933 107.641721 
L 64.383044 108.478957 
" clip-path="url(#p19b1d39cbe)" style="fill: #ff0000"/>
    <path d="M 63.492644 102.861524 
L 57.296512 103.156682 
L 57.849763 105.71782 
L 53.403565 102.910877 
L 57.562814 99.694007 
L 57.25552 102.296137 
L 63.451651 102.000979 
L 63.492644 102.861524 
" clip-path="url(#p19b1d39cbe)" style="fill: #ff0000"/>
    <path d="M 63.681441 97.177096 
L 57.541423 96.294295 
L 57.599977 98.913853 
L 53.765344 95.316187 
L 58.458227 92.944593 
L 57.66403 95.441543 
L 63.804048 96.324345 
L 63.681441 97.177096 
" clip-path="url(#p19b1d39cbe)" style="fill: #ff0000"/>
    <path d="M 64.942611 91.631124 
L 59.080622 89.60227 
L 58.642364 92.18557 
L 55.557891 87.92721 
L 60.614794 86.486607 
L 59.362398 88.788132 
L 65.224387 90.816986 
L 64.942611 91.631124 
" clip-path="url(#p19b1d39cbe)" style="fill: #ff0000"/>
    <path d="M 67.230573 86.424052 
L 61.858481 83.322473 
L 60.939249 85.77615 
L 58.716417 81.011003 
L 63.954571 80.553459 
L 62.289241 82.576375 
L 67.661333 85.677954 
L 67.230573 86.424052 
" clip-path="url(#p19b1d39cbe)" style="fill: #ff0000"/>
    <path d="M 70.462632 81.744079 
L 65.774599 77.681875 
L 64.407618 79.917244 
L 63.126765 74.817536 
L 68.356849 75.359587 
L 66.338775 77.030781 
L 71.026808 81.092985 
L 70.462632 81.744079 
" clip-path="url(#p19b1d39cbe)" style="fill: #ff0000"/>
    <path d="M 74.521975 77.76035 
L 70.687438 72.884339 
L 68.922114 74.820609 
L 68.629533 69.570657 
L 73.66252 71.092713 
L 71.364639 72.351782 
L 75.199176 77.227793 
L 74.521975 77.76035 
" clip-path="url(#p19b1d39cbe)" style="fill: #ff0000"/>
    <path d="M 79.261887 74.616848 
L 76.419435 69.103262 
L 74.319571 70.670451 
L 75.025838 65.460001 
L 79.679821 67.907051 
L 77.185185 68.70849 
L 80.027637 74.222077 
L 79.261887 74.616848 
" clip-path="url(#p19b1d39cbe)" style="fill: #ff0000"/>
    <path d="M 84.511053 72.427187 
L 82.763421 66.475301 
L 80.404912 67.616768 
L 82.0845 62.634139 
L 86.191272 65.917739 
L 83.590044 66.232583 
L 85.337676 72.184469 
L 84.511053 72.427187 
" clip-path="url(#p19b1d39cbe)" style="fill: #ff0000"/>
    <path d="M 90.079756 71.270508 
L 89.490108 65.095439 
L 86.958196 65.769927 
L 89.550401 61.195205 
L 92.961533 65.196678 
L 90.347728 65.013546 
L 90.937375 71.188615 
L 90.079756 71.270508 
" clip-path="url(#p19b1d39cbe)" style="fill: #ff0000"/>
   </g>
   <g id="PathCollection_2">
    <g clip-path="url(#p19b1d39cbe)">
     <use xlink:href="#m56344b2d36" x="93.352052" y="101.007896" style="stroke: #000000"/>
    </g>
   </g>
   <g id="Quiver_2">
    <path d="M 95.766728 71.188615 
L 96.356376 65.013546 
L 93.742571 65.196678 
L 97.153703 61.195205 
L 99.745908 65.769927 
L 97.213995 65.095439 
L 96.624348 71.270508 
L 95.766728 71.188615 
" clip-path="url(#p19b1d39cbe)" style="fill: #ff0000"/>
    <path d="M 101.366428 72.184469 
L 103.114059 66.232583 
L 100.512832 65.917739 
L 104.619604 62.634139 
L 106.299192 67.616768 
L 103.940682 66.475301 
L 102.193051 72.427187 
L 101.366428 72.184469 
" clip-path="url(#p19b1d39cbe)" style="fill: #ff0000"/>
    <path d="M 106.676467 74.222077 
L 109.518919 68.70849 
L 107.024283 67.907051 
L 111.678266 65.460001 
L 112.384533 70.670451 
L 110.284669 69.103262 
L 107.442217 74.616848 
L 106.676467 74.222077 
" clip-path="url(#p19b1d39cbe)" style="fill: #ff0000"/>
    <path d="M 111.504927 77.227793 
L 115.339465 72.351782 
L 113.041584 71.092713 
L 118.07457 69.570657 
L 117.78199 74.820609 
L 116.016666 72.884339 
L 112.182128 77.76035 
L 111.504927 77.227793 
" clip-path="url(#p19b1d39cbe)" style="fill: #ff0000"/>
    <path d="M 115.677295 81.092985 
L 120.365329 77.030781 
L 118.347254 75.359587 
L 123.577339 74.817536 
L 122.296486 79.917244 
L 120.929505 77.681875 
L 116.241471 81.744079 
L 115.677295 81.092985 
" clip-path="url(#p19b1d39cbe)" style="fill: #ff0000"/>
    <path d="M 119.042771 85.677954 
L 124.414863 82.576375 
L 122.749533 80.553459 
L 127.987687 81.011003 
L 125.764855 85.77615 
L 124.845623 83.322473 
L 119.473531 86.424052 
L 119.042771 85.677954 
" clip-path="url(#p19b1d39cbe)" style="fill: #ff0000"/>
    <path d="M 121.479717 90.816986 
L 127.341706 88.788132 
L 126.08931 86.486607 
L 131.146213 87.92721 
L 128.06174 92.18557 
L 127.623482 89.60227 
L 121.761493 91.631124 
L 121.479717 90.816986 
" clip-path="url(#p19b1d39cbe)" style="fill: #ff0000"/>
    <path d="M 122.900056 96.324345 
L 129.040074 95.441543 
L 128.245877 92.944593 
L 132.938759 95.316187 
L 129.104127 98.913853 
L 129.162681 96.294295 
L 123.022663 97.177096 
L 122.900056 96.324345 
" clip-path="url(#p19b1d39cbe)" style="fill: #ff0000"/>
    <path d="M 123.252453 102.000979 
L 129.448584 102.296137 
L 129.14129 99.694007 
L 133.300539 102.910877 
L 128.854341 105.71782 
L 129.407591 103.156682 
L 123.21146 102.861524 
L 123.252453 102.000979 
" clip-path="url(#p19b1d39cbe)" style="fill: #ff0000"/>
    <path d="M 122.524171 107.641721 
L 128.552472 109.104171 
L 128.743187 106.490908 
L 132.218476 110.436789 
L 127.321409 112.351558 
L 128.34936 109.941406 
L 122.32106 108.478957 
L 122.524171 107.641721 
" clip-path="url(#p19b1d39cbe)" style="fill: #ff0000"/>
    <path d="M 120.741533 113.042699 
L 126.384124 115.619584 
L 127.065957 113.08964 
L 129.73168 117.621916 
L 124.560737 118.575306 
L 126.026236 116.40325 
L 120.383645 113.826366 
L 120.741533 113.042699 
" clip-path="url(#p19b1d39cbe)" style="fill: #ff0000"/>
    <path d="M 117.968968 118.008708 
L 123.021912 121.606892 
L 124.170217 119.251705 
L 125.930029 124.206568 
L 120.672101 124.164122 
L 122.522181 122.308666 
L 117.469238 118.710482 
L 117.968968 118.008708 
" clip-path="url(#p19b1d39cbe)" style="fill: #ff0000"/>
    <path d="M 114.306684 122.360263 
L 118.587353 126.849699 
L 120.160629 124.754392 
L 120.950925 129.952761 
L 115.796047 128.916013 
L 117.963841 127.444217 
L 113.683172 122.95478 
L 114.306684 122.360263 
" clip-path="url(#p19b1d39cbe)" style="fill: #ff0000"/>
    <path d="M 109.887044 125.940088 
L 113.240725 131.158517 
L 115.18211 129.398819 
L 114.974325 134.65281 
L 110.108809 132.659231 
L 112.515968 131.62429 
L 109.162287 126.405861 
L 109.887044 125.940088 
" clip-path="url(#p19b1d39cbe)" style="fill: #ff0000"/>
    <path d="M 104.869787 128.618799 
L 107.175268 134.377612 
L 109.414595 133.017123 
L 108.216241 138.136845 
L 103.815939 135.258487 
L 106.37546 134.697806 
L 104.069979 128.938994 
L 104.869787 128.618799 
" clip-path="url(#p19b1d39cbe)" style="fill: #ff0000"/>
    <path d="M 99.436249 130.29958 
L 100.610204 136.390638 
L 103.066538 135.478531 
L 100.920926 140.278943 
L 97.144876 136.619838 
L 99.764253 136.553682 
L 98.590297 130.462624 
L 99.436249 130.29958 
" clip-path="url(#p19b1d39cbe)" style="fill: #ff0000"/>
    <path d="M 93.782812 130.921683 
L 93.782812 137.12484 
L 96.367374 136.69408 
L 93.352052 141.001683 
L 90.33673 136.69408 
L 92.921292 137.12484 
L 92.921292 130.921683 
L 93.782812 130.921683 
" clip-path="url(#p19b1d39cbe)" style="fill: #ff0000"/>
    <path d="M 88.113806 130.462624 
L 86.939851 136.553682 
L 89.559228 136.619838 
L 85.783178 140.278943 
L 83.637566 135.478531 
L 86.093899 136.390638 
L 87.267855 130.29958 
L 88.113806 130.462624 
" clip-path="url(#p19b1d39cbe)" style="fill: #ff0000"/>
    <path d="M 82.634125 128.938994 
L 80.328644 134.697806 
L 82.888165 135.258487 
L 78.487863 138.136845 
L 77.289509 133.017123 
L 79.528836 134.377612 
L 81.834317 128.618799 
L 82.634125 128.938994 
" clip-path="url(#p19b1d39cbe)" style="fill: #ff0000"/>
    <path d="M 77.541816 126.405861 
L 74.188136 131.62429 
L 76.595294 132.659231 
L 71.729778 134.65281 
L 71.521994 129.398819 
L 73.463379 131.158517 
L 76.817059 125.940088 
L 77.541816 126.405861 
" clip-path="url(#p19b1d39cbe)" style="fill: #ff0000"/>
    <path d="M 73.020932 122.95478 
L 68.740263 127.444217 
L 70.908056 128.916013 
L 65.753179 129.952761 
L 66.543474 124.754392 
L 68.116751 126.849699 
L 72.39742 122.360263 
L 73.020932 122.95478 
" clip-path="url(#p19b1d39cbe)" style="fill: #ff0000"/>
    <path d="M 69.234866 118.710482 
L 64.181923 122.308666 
L 66.032003 124.164122 
L 60.774075 124.206568 
L 62.533886 119.251705 
L 63.682192 121.606892 
L 68.735135 118.008708 
L 69.234866 118.710482 
" clip-path="url(#p19b1d39cbe)" style="fill: #ff0000"/>
    <path d="M 66.320459 113.826366 
L 60.677868 116.40325 
L 62.143367 118.575306 
L 56.972424 117.621916 
L 59.638147 113.08964 
L 60.31998 115.619584 
L 65.96257 113.042699 
L 66.320459 113.826366 
" clip-path="url(#p19b1d39cbe)" style="fill: #ff0000"/>
    <path d="M 64.383044 108.478957 
L 58.354743 109.941406 
L 59.382695 112.351558 
L 54.485627 110.436789 
L 57.960916 106.490908 
L 58.151632 109.104171 
L 64.179933 107.641721 
L 64.383044 108.478957 
" clip-path="url(#p19b1d39cbe)" style="fill: #ff0000"/>
    <path d="M 63.492644 102.861524 
L 57.296512 103.156682 
L 57.849763 105.71782 
L 53.403565 102.910877 
L 57.562814 99.694007 
L 57.25552 102.296137 
L 63.451651 102.000979 
L 63.492644 102.861524 
" clip-path="url(#p19b1d39cbe)" style="fill: #ff0000"/>
    <path d="M 63.681441 97.177096 
L 57.541423 96.294295 
L 57.599977 98.913853 
L 53.765344 95.316187 
L 58.458227 92.944593 
L 57.66403 95.441543 
L 63.804048 96.324345 
L 63.681441 97.177096 
" clip-path="url(#p19b1d39cbe)" style="fill: #ff0000"/>
    <path d="M 64.942611 91.631124 
L 59.080622 89.60227 
L 58.642364 92.18557 
L 55.557891 87.92721 
L 60.614794 86.486607 
L 59.362398 88.788132 
L 65.224387 90.816986 
L 64.942611 91.631124 
" clip-path="url(#p19b1d39cbe)" style="fill: #ff0000"/>
    <path d="M 67.230573 86.424052 
L 61.858481 83.322473 
L 60.939249 85.77615 
L 58.716417 81.011003 
L 63.954571 80.553459 
L 62.289241 82.576375 
L 67.661333 85.677954 
L 67.230573 86.424052 
" clip-path="url(#p19b1d39cbe)" style="fill: #ff0000"/>
    <path d="M 70.462632 81.744079 
L 65.774599 77.681875 
L 64.407618 79.917244 
L 63.126765 74.817536 
L 68.356849 75.359587 
L 66.338775 77.030781 
L 71.026808 81.092985 
L 70.462632 81.744079 
" clip-path="url(#p19b1d39cbe)" style="fill: #ff0000"/>
    <path d="M 74.521975 77.76035 
L 70.687438 72.884339 
L 68.922114 74.820609 
L 68.629533 69.570657 
L 73.66252 71.092713 
L 71.364639 72.351782 
L 75.199176 77.227793 
L 74.521975 77.76035 
" clip-path="url(#p19b1d39cbe)" style="fill: #ff0000"/>
    <path d="M 79.261887 74.616848 
L 76.419435 69.103262 
L 74.319571 70.670451 
L 75.025838 65.460001 
L 79.679821 67.907051 
L 77.185185 68.70849 
L 80.027637 74.222077 
L 79.261887 74.616848 
" clip-path="url(#p19b1d39cbe)" style="fill: #ff0000"/>
    <path d="M 84.511053 72.427187 
L 82.763421 66.475301 
L 80.404912 67.616768 
L 82.0845 62.634139 
L 86.191272 65.917739 
L 83.590044 66.232583 
L 85.337676 72.184469 
L 84.511053 72.427187 
" clip-path="url(#p19b1d39cbe)" style="fill: #ff0000"/>
    <path d="M 90.079756 71.270508 
L 89.490108 65.095439 
L 86.958196 65.769927 
L 89.550401 61.195205 
L 92.961533 65.196678 
L 90.347728 65.013546 
L 90.937375 71.188615 
L 90.079756 71.270508 
" clip-path="url(#p19b1d39cbe)" style="fill: #ff0000"/>
   </g>
   <g id="text_1">
    <!-- y -->
    <g transform="translate(158.531832 94.017139) scale(0.1 -0.1)">
     <defs>
      <path id="DejaVuSans-79" d="M 2059 -325 
Q 1816 -950 1584 -1140 
Q 1353 -1331 966 -1331 
L 506 -1331 
L 506 -850 
L 844 -850 
Q 1081 -850 1212 -737 
Q 1344 -625 1503 -206 
L 1606 56 
L 191 3500 
L 800 3500 
L 1894 763 
L 2988 3500 
L 3597 3500 
L 2059 -325 
z
" transform="scale(0.015625)"/>
     </defs>
     <use xlink:href="#DejaVuSans-79"/>
    </g>
   </g>
   <g id="text_2">
    <!-- z -->
    <g transform="translate(82.865916 28.172272) scale(0.1 -0.1)">
     <defs>
      <path id="DejaVuSans-7a" d="M 353 3500 
L 3084 3500 
L 3084 2975 
L 922 459 
L 3084 459 
L 3084 0 
L 275 0 
L 275 525 
L 2438 3041 
L 353 3041 
L 353 3500 
z
" transform="scale(0.015625)"/>
     </defs>
     <use xlink:href="#DejaVuSans-7a"/>
    </g>
   </g>
   <g id="text_3">
    <!-- t = 0 -->
    <g transform="translate(122.069402 29.21452) scale(0.1 -0.1)">
     <defs>
      <path id="DejaVuSans-74" d="M 1172 4494 
L 1172 3500 
L 2356 3500 
L 2356 3053 
L 1172 3053 
L 1172 1153 
Q 1172 725 1289 603 
Q 1406 481 1766 481 
L 2356 481 
L 2356 0 
L 1766 0 
Q 1100 0 847 248 
Q 594 497 594 1153 
L 594 3053 
L 172 3053 
L 172 3500 
L 594 3500 
L 594 4494 
L 1172 4494 
z
" transform="scale(0.015625)"/>
      <path id="DejaVuSans-20" transform="scale(0.015625)"/>
      <path id="DejaVuSans-3d" d="M 678 2906 
L 4684 2906 
L 4684 2381 
L 678 2381 
L 678 2906 
z
M 678 1631 
L 4684 1631 
L 4684 1100 
L 678 1100 
L 678 1631 
z
" transform="scale(0.015625)"/>
      <path id="DejaVuSans-30" d="M 2034 4250 
Q 1547 4250 1301 3770 
Q 1056 3291 1056 2328 
Q 1056 1369 1301 889 
Q 1547 409 2034 409 
Q 2525 409 2770 889 
Q 3016 1369 3016 2328 
Q 3016 3291 2770 3770 
Q 2525 4250 2034 4250 
z
M 2034 4750 
Q 2819 4750 3233 4129 
Q 3647 3509 3647 2328 
Q 3647 1150 3233 529 
Q 2819 -91 2034 -91 
Q 1250 -91 836 529 
Q 422 1150 422 2328 
Q 422 3509 836 4129 
Q 1250 4750 2034 4750 
z
" transform="scale(0.015625)"/>
     </defs>
     <use xlink:href="#DejaVuSans-74"/>
     <use xlink:href="#DejaVuSans-20" x="39.208984"/>
     <use xlink:href="#DejaVuSans-3d" x="70.996094"/>
     <use xlink:href="#DejaVuSans-20" x="154.785156"/>
     <use xlink:href="#DejaVuSans-30" x="186.572266"/>
    </g>
   </g>
  </g>
 </g>
 <defs>
  <clipPath id="p19b1d39cbe">
   <rect x="7.2" y="7.2" width="172.304104" height="266.112"/>
  </clipPath>
 </defs>
</svg>
