<?xml version="1.0" encoding="utf-8" standalone="no"?>
<!DOCTYPE svg PUBLIC "-//W3C//DTD SVG 1.1//EN"
  "http://www.w3.org/Graphics/SVG/1.1/DTD/svg11.dtd">
<svg xmlns:xlink="http://www.w3.org/1999/xlink" width="349.2pt" height="231.84pt" viewBox="0 0 349.2 231.84" xmlns="http://www.w3.org/2000/svg" version="1.1">
 <metadata>
  <rdf:RDF xmlns:dc="http://purl.org/dc/elements/1.1/" xmlns:cc="http://creativecommons.org/ns#" xmlns:rdf="http://www.w3.org/1999/02/22-rdf-syntax-ns#">
   <cc:Work>
    <dc:type rdf:resource="http://purl.org/dc/dcmitype/StillImage"/>
    <dc:date>2023-11-13T14:45:22.532246</dc:date>
    <dc:format>image/svg+xml</dc:format>
    <dc:creator>
     <cc:Agent>
      <dc:title>Matplotlib v3.7.2, https://matplotlib.org/</dc:title>
     </cc:Agent>
    </dc:creator>
   </cc:Work>
  </rdf:RDF>
 </metadata>
 <defs>
  <style type="text/css">*{stroke-linejoin: round; stroke-linecap: butt}</style>
 </defs>
 <g id="figure_1">
  <g id="axes_1">
   <g id="patch_1">
    <path d="M 174.6 21.037091 
L 176.576727 26.967273 
L 174.604942 26.967273 
L 174.604942 115.92 
L 174.595058 115.92 
L 174.595058 26.967273 
L 172.623273 26.967273 
z
" clip-path="url(#pee22df1595)" style="stroke: #000000; stroke-width: 1.5; stroke-linejoin: miter"/>
   </g>
   <g id="patch_2">
    <path d="M 182.985678 21.408377 
L 184.430565 27.490055 
L 182.466496 27.31579 
L 174.604922 115.920437 
L 174.595078 115.919563 
L 182.456651 27.314917 
L 180.492581 27.140652 
z
" clip-path="url(#pee22df1595)" style="stroke: #000000; stroke-width: 1.5; stroke-linejoin: miter"/>
   </g>
   <g id="patch_3">
    <path d="M 191.305728 22.51933 
L 192.207468 28.704908 
L 190.266485 28.357742 
L 174.604865 115.92087 
L 174.595135 115.91913 
L 190.256756 28.356002 
L 188.315773 28.008836 
z
" clip-path="url(#pee22df1595)" style="stroke: #000000; stroke-width: 1.5; stroke-linejoin: miter"/>
   </g>
   <g id="patch_4">
    <path d="M 199.495038 24.361256 
L 199.846572 30.602325 
L 197.943867 30.084975 
L 174.604769 115.921297 
L 174.595231 115.918703 
L 197.934329 30.082381 
L 196.031624 29.565031 
z
" clip-path="url(#pee22df1595)" style="stroke: #000000; stroke-width: 1.5; stroke-linejoin: miter"/>
   </g>
   <g id="patch_5">
    <path d="M 207.489516 26.91974 
L 207.288093 33.167455 
L 205.438556 32.48397 
L 174.604635 115.921713 
L 174.595365 115.918287 
L 205.429285 32.480544 
L 203.579749 31.797058 
z
" clip-path="url(#pee22df1595)" style="stroke: #000000; stroke-width: 1.5; stroke-linejoin: miter"/>
   </g>
   <g id="patch_6">
    <path d="M 215.226595 30.17476 
L 214.473792 36.380225 
L 212.691899 35.535953 
L 174.604466 115.922116 
L 174.595534 115.917884 
L 212.682967 35.531721 
L 210.901074 34.68745 
z
" clip-path="url(#pee22df1595)" style="stroke: #000000; stroke-width: 1.5; stroke-linejoin: miter"/>
   </g>
   <g id="patch_7">
    <path d="M 222.645726 34.100842 
L 221.347433 40.215492 
L 219.647129 39.217041 
L 174.604261 115.922502 
L 174.595739 115.917498 
L 219.638606 39.212037 
L 217.938302 38.213586 
z
" clip-path="url(#pee22df1595)" style="stroke: #000000; stroke-width: 1.5; stroke-linejoin: miter"/>
   </g>
   <g id="patch_8">
    <path d="M 229.688843 38.66726 
L 227.855222 44.64324 
L 226.249813 43.498425 
L 174.604024 115.922869 
L 174.595976 115.917131 
L 226.241766 43.492687 
L 224.636358 42.347872 
z
" clip-path="url(#pee22df1595)" style="stroke: #000000; stroke-width: 1.5; stroke-linejoin: miter"/>
   </g>
   <g id="patch_9">
    <path d="M 236.300825 43.838278 
L 233.946226 49.62882 
L 232.448278 48.346599 
L 174.603754 115.923214 
L 174.596246 115.916786 
L 232.440769 48.340172 
L 230.942821 47.057952 
z
" clip-path="url(#pee22df1595)" style="stroke: #000000; stroke-width: 1.5; stroke-linejoin: miter"/>
   </g>
   <g id="patch_10">
    <path d="M 242.429926 49.573428 
L 239.572776 55.133213 
L 238.194011 53.723622 
L 174.603456 115.923533 
L 174.596544 115.916467 
L 238.1871 53.716556 
L 236.808335 52.306966 
z
" clip-path="url(#pee22df1595)" style="stroke: #000000; stroke-width: 1.5; stroke-linejoin: miter"/>
   </g>
   <g id="patch_11">
    <path d="M 248.028177 55.827827 
L 244.690836 61.113341 
L 243.442046 59.587412 
L 174.60313 115.923824 
L 174.59687 115.916176 
L 243.435786 59.579763 
L 242.186996 58.053834 
z
" clip-path="url(#pee22df1595)" style="stroke: #000000; stroke-width: 1.5; stroke-linejoin: miter"/>
   </g>
   <g id="patch_12">
    <path d="M 253.051764 62.552527 
L 249.260351 67.522406 
L 248.151308 65.89208 
L 174.60278 115.924086 
L 174.59722 115.915914 
L 248.145749 65.883908 
L 247.036706 64.253582 
z
" clip-path="url(#pee22df1595)" style="stroke: #000000; stroke-width: 1.5; stroke-linejoin: miter"/>
   </g>
   <g id="patch_13">
    <path d="M 257.461369 69.6949 
L 253.245557 74.310247 
L 252.284941 72.588284 
L 174.602408 115.924316 
L 174.597592 115.915684 
L 252.280126 72.579653 
L 251.319511 70.85769 
z
" clip-path="url(#pee22df1595)" style="stroke: #000000; stroke-width: 1.5; stroke-linejoin: miter"/>
   </g>
   <g id="patch_14">
    <path d="M 261.222482 77.199049 
L 256.615263 81.423743 
L 255.810594 79.62362 
L 174.602017 115.924512 
L 174.597983 115.915488 
L 255.80656 79.614597 
L 255.00189 77.814473 
z
" clip-path="url(#pee22df1595)" style="stroke: #000000; stroke-width: 1.5; stroke-linejoin: miter"/>
   </g>
   <g id="patch_15">
    <path d="M 264.305664 85.006246 
L 259.343097 88.807223 
L 258.700671 86.943028 
L 174.60161 115.924672 
L 174.59839 115.915328 
L 258.69745 86.933683 
L 258.055024 85.069487 
z
" clip-path="url(#pee22df1595)" style="stroke: #000000; stroke-width: 1.5; stroke-linejoin: miter"/>
   </g>
   <g id="patch_16">
    <path d="M 266.686785 93.05539 
L 261.407707 96.402903 
L 260.932552 94.489224 
L 174.601191 115.924796 
L 174.598809 115.915204 
L 260.93017 94.479632 
L 260.455015 92.565953 
z
" clip-path="url(#pee22df1595)" style="stroke: #000000; stroke-width: 1.5; stroke-linejoin: miter"/>
   </g>
   <g id="patch_17">
    <path d="M 268.347207 101.283486 
L 262.792934 104.151335 
L 262.488769 102.203151 
L 174.600762 115.924883 
L 174.599238 115.915117 
L 262.487245 102.193386 
L 262.18308 100.245202 
z
" clip-path="url(#pee22df1595)" style="stroke: #000000; stroke-width: 1.5; stroke-linejoin: miter"/>
   </g>
   <g id="patch_18">
    <path d="M 269.273934 109.62614 
L 263.487935 111.99188 
L 263.357141 110.024437 
L 174.600328 115.924931 
L 174.599672 115.915069 
L 263.356485 110.014576 
L 263.225691 108.047133 
z
" clip-path="url(#pee22df1595)" style="stroke: #000000; stroke-width: 1.5; stroke-linejoin: miter"/>
   </g>
   <g id="patch_19">
    <path d="M 269.45971 118.01806 
L 263.487269 119.863175 
L 263.530869 117.891872 
L 174.599891 115.924941 
L 174.600109 115.915059 
L 263.531087 117.88199 
L 263.574688 115.910687 
z
" clip-path="url(#pee22df1595)" style="stroke: #000000; stroke-width: 1.5; stroke-linejoin: miter"/>
   </g>
   <g id="patch_20">
    <path d="M 268.90308 126.393566 
L 262.790938 127.703616 
L 263.008592 125.74388 
L 174.599455 115.924912 
L 174.600545 115.915088 
L 263.009683 125.734057 
L 263.227337 123.774321 
z
" clip-path="url(#pee22df1595)" style="stroke: #000000; stroke-width: 1.5; stroke-linejoin: miter"/>
   </g>
   <g id="patch_21">
    <path d="M 267.608398 134.68711 
L 261.404391 135.451841 
L 261.794395 133.51901 
L 174.599023 115.924844 
L 174.600977 115.915156 
L 261.79635 133.509321 
L 262.186354 131.576491 
z
" clip-path="url(#pee22df1595)" style="stroke: #000000; stroke-width: 1.5; stroke-linejoin: miter"/>
   </g>
   <g id="patch_22">
    <path d="M 265.585794 142.833782 
L 259.338478 143.047208 
L 259.89778 141.15641 
L 174.598598 115.924739 
L 174.601402 115.915261 
L 259.900584 141.146932 
L 260.459886 139.256133 
z
" clip-path="url(#pee22df1595)" style="stroke: #000000; stroke-width: 1.5; stroke-linejoin: miter"/>
   </g>
   <g id="patch_23">
    <path d="M 262.851098 150.769823 
L 256.609366 150.430274 
L 257.333589 148.596306 
L 174.598185 115.924596 
L 174.601815 115.915404 
L 257.337219 148.587113 
L 258.061442 146.753145 
z
" clip-path="url(#pee22df1595)" style="stroke: #000000; stroke-width: 1.5; stroke-linejoin: miter"/>
   </g>
   <g id="patch_24">
    <path d="M 259.425709 158.433122 
L 253.238412 157.543254 
L 254.121888 155.780469 
L 174.597786 115.924418 
L 174.602214 115.915582 
L 254.126317 155.771633 
L 255.009792 154.008849 
z
" clip-path="url(#pee22df1595)" style="stroke: #000000; stroke-width: 1.5; stroke-linejoin: miter"/>
   </g>
   <g id="patch_25">
    <path d="M 255.336435 165.7637 
L 249.251998 164.330478 
L 250.287812 162.652674 
L 174.597404 115.924205 
L 174.602596 115.915795 
L 250.293004 162.644264 
L 251.328819 160.96646 
z
" clip-path="url(#pee22df1595)" style="stroke: #000000; stroke-width: 1.5; stroke-linejoin: miter"/>
   </g>
   <g id="patch_26">
    <path d="M 250.61528 172.704185 
L 244.681321 170.738825 
L 245.861367 169.159133 
L 174.597042 115.923959 
L 174.602958 115.916041 
L 245.867282 169.151214 
L 247.047329 167.571522 
z
" clip-path="url(#pee22df1595)" style="stroke: #000000; stroke-width: 1.5; stroke-linejoin: miter"/>
   </g>
   <g id="patch_27">
    <path d="M 245.299191 179.200257 
L 239.562153 176.71814 
L 240.877195 175.248923 
L 174.596704 115.923682 
L 174.603296 115.916318 
L 240.883787 175.241558 
L 242.19883 173.772341 
z
" clip-path="url(#pee22df1595)" style="stroke: #000000; stroke-width: 1.5; stroke-linejoin: miter"/>
   </g>
   <g id="patch_28">
    <path d="M 239.429774 185.201072 
L 233.934557 182.221625 
L 235.374304 180.874381 
L 174.596392 115.923377 
L 174.603608 115.916623 
L 235.381521 180.867628 
L 236.821268 179.520384 
z
" clip-path="url(#pee22df1595)" style="stroke: #000000; stroke-width: 1.5; stroke-linejoin: miter"/>
   </g>
   <g id="patch_29">
    <path d="M 233.052965 190.659664 
L 227.842578 187.206205 
L 229.395762 185.991479 
L 174.596107 115.923044 
L 174.603893 115.916956 
L 229.403547 185.985391 
L 230.956731 184.770665 
z
" clip-path="url(#pee22df1595)" style="stroke: #000000; stroke-width: 1.5; stroke-linejoin: miter"/>
   </g>
   <g id="patch_30">
    <path d="M 226.218671 195.533311 
L 221.333894 191.632868 
L 222.988358 190.560167 
L 174.595853 115.922688 
L 174.604147 115.917312 
L 222.996651 190.55479 
L 224.651115 189.48209 
z
" clip-path="url(#pee22df1595)" style="stroke: #000000; stroke-width: 1.5; stroke-linejoin: miter"/>
   </g>
   <g id="patch_31">
    <path d="M 218.980381 199.783867 
L 214.459444 195.466967 
L 216.20224 194.544687 
L 174.595632 115.922311 
L 174.604368 115.917689 
L 216.210975 194.540064 
L 217.953771 193.617784 
z
" clip-path="url(#pee22df1595)" style="stroke: #000000; stroke-width: 1.5; stroke-linejoin: miter"/>
   </g>
   <g id="patch_32">
    <path d="M 211.394746 203.378065 
L 207.273031 198.678493 
L 209.090519 197.913852 
L 174.595445 115.921916 
L 174.604555 115.918084 
L 209.099629 197.910019 
L 210.917117 197.145379 
z
" clip-path="url(#pee22df1595)" style="stroke: #000000; stroke-width: 1.5; stroke-linejoin: miter"/>
   </g>
   <g id="patch_33">
    <path d="M 203.521133 206.287773 
L 199.830901 201.242311 
L 201.708856 200.641294 
L 174.595293 115.921506 
L 174.604707 115.918494 
L 201.718269 200.638281 
L 203.596225 200.037264 
z
" clip-path="url(#pee22df1595)" style="stroke: #000000; stroke-width: 1.5; stroke-linejoin: miter"/>
   </g>
   <g id="patch_34">
    <path d="M 195.421168 208.490219 
L 192.191298 203.138354 
L 194.115023 202.705665 
L 174.595179 115.921084 
L 174.604821 115.918916 
L 194.124666 202.703496 
L 196.048391 202.270806 
z
" clip-path="url(#pee22df1595)" style="stroke: #000000; stroke-width: 1.5; stroke-linejoin: miter"/>
   </g>
   <g id="patch_35">
    <path d="M 187.158243 209.968163 
L 184.414016 204.351783 
L 186.368455 204.090807 
L 174.595102 115.920654 
L 174.604898 115.919346 
L 186.378251 204.089499 
L 188.33269 203.828523 
z
" clip-path="url(#pee22df1595)" style="stroke: #000000; stroke-width: 1.5; stroke-linejoin: miter"/>
   </g>
   <g id="patch_36">
    <path d="M 178.797031 210.710038 
L 176.559924 204.873099 
L 178.529779 204.78588 
L 174.595063 115.920219 
L 174.604937 115.919781 
L 178.539653 204.785442 
L 180.509509 204.698223 
z
" clip-path="url(#pee22df1595)" style="stroke: #000000; stroke-width: 1.5; stroke-linejoin: miter"/>
   </g>
   <g id="patch_37">
    <path d="M 170.402969 210.710038 
L 168.690491 204.698223 
L 170.660347 204.785442 
L 174.595063 115.919781 
L 174.604937 115.920219 
L 170.670221 204.78588 
L 172.640076 204.873099 
z
" clip-path="url(#pee22df1595)" style="stroke: #000000; stroke-width: 1.5; stroke-linejoin: miter"/>
   </g>
   <g id="patch_38">
    <path d="M 162.041757 209.968163 
L 160.86731 203.828523 
L 162.821749 204.089499 
L 174.595102 115.919346 
L 174.604898 115.920654 
L 162.831545 204.090807 
L 164.785984 204.351783 
z
" clip-path="url(#pee22df1595)" style="stroke: #000000; stroke-width: 1.5; stroke-linejoin: miter"/>
   </g>
   <g id="patch_39">
    <path d="M 153.778832 208.490219 
L 153.151609 202.270806 
L 155.075334 202.703496 
L 174.595179 115.918916 
L 174.604821 115.921084 
L 155.084977 202.705665 
L 157.008702 203.138354 
z
" clip-path="url(#pee22df1595)" style="stroke: #000000; stroke-width: 1.5; stroke-linejoin: miter"/>
   </g>
   <g id="patch_40">
    <path d="M 145.678867 206.287773 
L 145.603775 200.037264 
L 147.481731 200.638281 
L 174.595293 115.918494 
L 174.604707 115.921506 
L 147.491144 200.641294 
L 149.369099 201.242311 
z
" clip-path="url(#pee22df1595)" style="stroke: #000000; stroke-width: 1.5; stroke-linejoin: miter"/>
   </g>
   <g id="patch_41">
    <path d="M 137.805254 203.378065 
L 138.282883 197.145379 
L 140.100371 197.910019 
L 174.595445 115.918084 
L 174.604555 115.921916 
L 140.109481 197.913852 
L 141.926969 198.678493 
z
" clip-path="url(#pee22df1595)" style="stroke: #000000; stroke-width: 1.5; stroke-linejoin: miter"/>
   </g>
   <g id="patch_42">
    <path d="M 130.219619 199.783867 
L 131.246229 193.617784 
L 132.989025 194.540064 
L 174.595632 115.917689 
L 174.604368 115.922311 
L 132.99776 194.544687 
L 134.740556 195.466967 
z
" clip-path="url(#pee22df1595)" style="stroke: #000000; stroke-width: 1.5; stroke-linejoin: miter"/>
   </g>
   <g id="patch_43">
    <path d="M 122.981329 195.533311 
L 124.548885 189.48209 
L 126.203349 190.55479 
L 174.595853 115.917312 
L 174.604147 115.922688 
L 126.211642 190.560167 
L 127.866106 191.632868 
z
" clip-path="url(#pee22df1595)" style="stroke: #000000; stroke-width: 1.5; stroke-linejoin: miter"/>
   </g>
   <g id="patch_44">
    <path d="M 116.147035 190.659664 
L 118.243269 184.770665 
L 119.796453 185.985391 
L 174.596107 115.916956 
L 174.603893 115.923044 
L 119.804238 185.991479 
L 121.357422 187.206205 
z
" clip-path="url(#pee22df1595)" style="stroke: #000000; stroke-width: 1.5; stroke-linejoin: miter"/>
   </g>
   <g id="patch_45">
    <path d="M 109.770226 185.201072 
L 112.378732 179.520384 
L 113.818479 180.867628 
L 174.596392 115.916623 
L 174.603608 115.923377 
L 113.825696 180.874381 
L 115.265443 182.221625 
z
" clip-path="url(#pee22df1595)" style="stroke: #000000; stroke-width: 1.5; stroke-linejoin: miter"/>
   </g>
   <g id="patch_46">
    <path d="M 103.900809 179.200257 
L 107.00117 173.772341 
L 108.316213 175.241558 
L 174.596704 115.916318 
L 174.603296 115.923682 
L 108.322805 175.248923 
L 109.637847 176.71814 
z
" clip-path="url(#pee22df1595)" style="stroke: #000000; stroke-width: 1.5; stroke-linejoin: miter"/>
   </g>
   <g id="patch_47">
    <path d="M 98.58472 172.704185 
L 102.152671 167.571522 
L 103.332718 169.151214 
L 174.597042 115.916041 
L 174.602958 115.923959 
L 103.338633 169.159133 
L 104.518679 170.738825 
z
" clip-path="url(#pee22df1595)" style="stroke: #000000; stroke-width: 1.5; stroke-linejoin: miter"/>
   </g>
   <g id="patch_48">
    <path d="M 93.863565 165.7637 
L 97.871181 160.96646 
L 98.906996 162.644264 
L 174.597404 115.915795 
L 174.602596 115.924205 
L 98.912188 162.652674 
L 99.948002 164.330478 
z
" clip-path="url(#pee22df1595)" style="stroke: #000000; stroke-width: 1.5; stroke-linejoin: miter"/>
   </g>
   <g id="patch_49">
    <path d="M 89.774291 158.433122 
L 94.190208 154.008849 
L 95.073683 155.771633 
L 174.597786 115.915582 
L 174.602214 115.924418 
L 95.078112 155.780469 
L 95.961588 157.543254 
z
" clip-path="url(#pee22df1595)" style="stroke: #000000; stroke-width: 1.5; stroke-linejoin: miter"/>
   </g>
   <g id="patch_50">
    <path d="M 86.348902 150.769823 
L 91.138558 146.753145 
L 91.862781 148.587113 
L 174.598185 115.915404 
L 174.601815 115.924596 
L 91.866411 148.596306 
L 92.590634 150.430274 
z
" clip-path="url(#pee22df1595)" style="stroke: #000000; stroke-width: 1.5; stroke-linejoin: miter"/>
   </g>
   <g id="patch_51">
    <path d="M 83.614206 142.833782 
L 88.740114 139.256133 
L 89.299416 141.146932 
L 174.598598 115.915261 
L 174.601402 115.924739 
L 89.30222 141.15641 
L 89.861522 143.047208 
z
" clip-path="url(#pee22df1595)" style="stroke: #000000; stroke-width: 1.5; stroke-linejoin: miter"/>
   </g>
   <g id="patch_52">
    <path d="M 81.591602 134.68711 
L 87.013646 131.576491 
L 87.40365 133.509321 
L 174.599023 115.915156 
L 174.600977 115.924844 
L 87.405605 133.51901 
L 87.795609 135.451841 
z
" clip-path="url(#pee22df1595)" style="stroke: #000000; stroke-width: 1.5; stroke-linejoin: miter"/>
   </g>
   <g id="patch_53">
    <path d="M 80.29692 126.393566 
L 85.972663 123.774321 
L 86.190317 125.734057 
L 174.599455 115.915088 
L 174.600545 115.924912 
L 86.191408 125.74388 
L 86.409062 127.703616 
z
" clip-path="url(#pee22df1595)" style="stroke: #000000; stroke-width: 1.5; stroke-linejoin: miter"/>
   </g>
   <g id="patch_54">
    <path d="M 79.74029 118.01806 
L 85.625312 115.910687 
L 85.668913 117.88199 
L 174.599891 115.915059 
L 174.600109 115.924941 
L 85.669131 117.891872 
L 85.712731 119.863175 
z
" clip-path="url(#pee22df1595)" style="stroke: #000000; stroke-width: 1.5; stroke-linejoin: miter"/>
   </g>
   <g id="patch_55">
    <path d="M 79.926066 109.62614 
L 85.974309 108.047133 
L 85.843515 110.014576 
L 174.600328 115.915069 
L 174.599672 115.924931 
L 85.842859 110.024437 
L 85.712065 111.99188 
z
" clip-path="url(#pee22df1595)" style="stroke: #000000; stroke-width: 1.5; stroke-linejoin: miter"/>
   </g>
   <g id="patch_56">
    <path d="M 80.852793 101.283486 
L 87.01692 100.245202 
L 86.712755 102.193386 
L 174.600762 115.915117 
L 174.599238 115.924883 
L 86.711231 102.203151 
L 86.407066 104.151335 
z
" clip-path="url(#pee22df1595)" style="stroke: #000000; stroke-width: 1.5; stroke-linejoin: miter"/>
   </g>
   <g id="patch_57">
    <path d="M 82.513215 93.05539 
L 88.744985 92.565953 
L 88.26983 94.479632 
L 174.601191 115.915204 
L 174.598809 115.924796 
L 88.267448 94.489224 
L 87.792293 96.402903 
z
" clip-path="url(#pee22df1595)" style="stroke: #000000; stroke-width: 1.5; stroke-linejoin: miter"/>
   </g>
   <g id="patch_58">
    <path d="M 84.894336 85.006246 
L 91.144976 85.069487 
L 90.50255 86.933683 
L 174.60161 115.915328 
L 174.59839 115.924672 
L 90.499329 86.943028 
L 89.856903 88.807223 
z
" clip-path="url(#pee22df1595)" style="stroke: #000000; stroke-width: 1.5; stroke-linejoin: miter"/>
   </g>
   <g id="patch_59">
    <path d="M 87.977518 77.199049 
L 94.19811 77.814473 
L 93.39344 79.614597 
L 174.602017 115.915488 
L 174.597983 115.924512 
L 93.389406 79.62362 
L 92.584737 81.423743 
z
" clip-path="url(#pee22df1595)" style="stroke: #000000; stroke-width: 1.5; stroke-linejoin: miter"/>
   </g>
   <g id="patch_60">
    <path d="M 91.738631 69.6949 
L 97.880489 70.85769 
L 96.919874 72.579653 
L 174.602408 115.915684 
L 174.597592 115.924316 
L 96.915059 72.588284 
L 95.954443 74.310247 
z
" clip-path="url(#pee22df1595)" style="stroke: #000000; stroke-width: 1.5; stroke-linejoin: miter"/>
   </g>
   <g id="patch_61">
    <path d="M 96.148236 62.552527 
L 102.163294 64.253582 
L 101.054251 65.883908 
L 174.60278 115.915914 
L 174.59722 115.924086 
L 101.048692 65.89208 
L 99.939649 67.522406 
z
" clip-path="url(#pee22df1595)" style="stroke: #000000; stroke-width: 1.5; stroke-linejoin: miter"/>
   </g>
   <g id="patch_62">
    <path d="M 101.171823 55.827827 
L 107.013004 58.053834 
L 105.764214 59.579763 
L 174.60313 115.916176 
L 174.59687 115.923824 
L 105.757954 59.587412 
L 104.509164 61.113341 
z
" clip-path="url(#pee22df1595)" style="stroke: #000000; stroke-width: 1.5; stroke-linejoin: miter"/>
   </g>
   <g id="patch_63">
    <path d="M 106.770074 49.573428 
L 112.391665 52.306966 
L 111.0129 53.716556 
L 174.603456 115.916467 
L 174.596544 115.923533 
L 111.005989 53.723622 
L 109.627224 55.133213 
z
" clip-path="url(#pee22df1595)" style="stroke: #000000; stroke-width: 1.5; stroke-linejoin: miter"/>
   </g>
   <g id="patch_64">
    <path d="M 112.899175 43.838278 
L 118.257179 47.057952 
L 116.759231 48.340172 
L 174.603754 115.916786 
L 174.596246 115.923214 
L 116.751722 48.346599 
L 115.253774 49.62882 
z
" clip-path="url(#pee22df1595)" style="stroke: #000000; stroke-width: 1.5; stroke-linejoin: miter"/>
   </g>
   <g id="patch_65">
    <path d="M 119.511157 38.66726 
L 124.563642 42.347872 
L 122.958234 43.492687 
L 174.604024 115.917131 
L 174.595976 115.922869 
L 122.950187 43.498425 
L 121.344778 44.64324 
z
" clip-path="url(#pee22df1595)" style="stroke: #000000; stroke-width: 1.5; stroke-linejoin: miter"/>
   </g>
   <g id="patch_66">
    <path d="M 126.554274 34.100842 
L 131.261698 38.213586 
L 129.561394 39.212037 
L 174.604261 115.917498 
L 174.595739 115.922502 
L 129.552871 39.217041 
L 127.852567 40.215492 
z
" clip-path="url(#pee22df1595)" style="stroke: #000000; stroke-width: 1.5; stroke-linejoin: miter"/>
   </g>
   <g id="patch_67">
    <path d="M 133.973405 30.17476 
L 138.298926 34.68745 
L 136.517033 35.531721 
L 174.604466 115.917884 
L 174.595534 115.922116 
L 136.508101 35.535953 
L 134.726208 36.380225 
z
" clip-path="url(#pee22df1595)" style="stroke: #000000; stroke-width: 1.5; stroke-linejoin: miter"/>
   </g>
   <g id="patch_68">
    <path d="M 141.710484 26.91974 
L 145.620251 31.797058 
L 143.770715 32.480544 
L 174.604635 115.918287 
L 174.595365 115.921713 
L 143.761444 32.48397 
L 141.911907 33.167455 
z
" clip-path="url(#pee22df1595)" style="stroke: #000000; stroke-width: 1.5; stroke-linejoin: miter"/>
   </g>
   <g id="patch_69">
    <path d="M 149.704962 24.361256 
L 153.168376 29.565031 
L 151.265671 30.082381 
L 174.604769 115.918703 
L 174.595231 115.921297 
L 151.256133 30.084975 
L 149.353428 30.602325 
z
" clip-path="url(#pee22df1595)" style="stroke: #000000; stroke-width: 1.5; stroke-linejoin: miter"/>
   </g>
   <g id="patch_70">
    <path d="M 157.894272 22.51933 
L 160.884227 28.008836 
L 158.943244 28.356002 
L 174.604865 115.91913 
L 174.595135 115.92087 
L 158.933515 28.357742 
L 156.992532 28.704908 
z
" clip-path="url(#pee22df1595)" style="stroke: #000000; stroke-width: 1.5; stroke-linejoin: miter"/>
   </g>
   <g id="patch_71">
    <path d="M 166.214322 21.408377 
L 168.707419 27.140652 
L 166.743349 27.314917 
L 174.604922 115.919563 
L 174.595078 115.920437 
L 166.733504 27.31579 
L 164.769435 27.490055 
z
" clip-path="url(#pee22df1595)" style="stroke: #000000; stroke-width: 1.5; stroke-linejoin: miter"/>
   </g>
   <g id="PathCollection_1">
    <defs>
     <path id="mf7bd539ccf" d="M 0 2.738613 
C 0.726289 2.738613 1.422928 2.450055 1.936492 1.936492 
C 2.450055 1.422928 2.738613 0.726289 2.738613 0 
C 2.738613 -0.726289 2.450055 -1.422928 1.936492 -1.936492 
C 1.422928 -2.450055 0.726289 -2.738613 0 -2.738613 
C -0.726289 -2.738613 -1.422928 -2.450055 -1.936492 -1.936492 
C -2.450055 -1.422928 -2.738613 -0.726289 -2.738613 0 
C -2.738613 0.726289 -2.450055 1.422928 -1.936492 1.936492 
C -1.422928 2.450055 -0.726289 2.738613 0 2.738613 
z
" style="stroke: #000000"/>
    </defs>
    <g clip-path="url(#pee22df1595)">
     <use xlink:href="#mf7bd539ccf" x="174.6" y="115.92" style="stroke: #000000"/>
    </g>
   </g>
  </g>
 </g>
 <defs>
  <clipPath id="pee22df1595">
   <rect x="7.2" y="7.2" width="334.8" height="217.44"/>
  </clipPath>
 </defs>
</svg>
