<?xml version="1.0" encoding="utf-8" standalone="no"?>
<!DOCTYPE svg PUBLIC "-//W3C//DTD SVG 1.1//EN"
  "http://www.w3.org/Graphics/SVG/1.1/DTD/svg11.dtd">
<svg xmlns:xlink="http://www.w3.org/1999/xlink" width="460.8pt" height="345.6pt" viewBox="0 0 460.8 345.6" xmlns="http://www.w3.org/2000/svg" version="1.1">
 <metadata>
  <rdf:RDF xmlns:dc="http://purl.org/dc/elements/1.1/" xmlns:cc="http://creativecommons.org/ns#" xmlns:rdf="http://www.w3.org/1999/02/22-rdf-syntax-ns#">
   <cc:Work>
    <dc:type rdf:resource="http://purl.org/dc/dcmitype/StillImage"/>
    <dc:date>2025-12-26T22:47:08.170261</dc:date>
    <dc:format>image/svg+xml</dc:format>
    <dc:creator>
     <cc:Agent>
      <dc:title>Matplotlib v3.10.8, https://matplotlib.org/</dc:title>
     </cc:Agent>
    </dc:creator>
   </cc:Work>
  </rdf:RDF>
 </metadata>
 <defs>
  <style type="text/css">*{stroke-linejoin: round; stroke-linecap: butt}</style>
 </defs>
 <g id="figure_1">
  <g id="patch_1">
   <path d="M 0 345.6 
L 460.8 345.6 
L 460.8 0 
L 0 0 
z
" style="fill: #ffffff"/>
  </g>
  <g id="axes_1">
   <g id="patch_2">
    <path d="M 369.216 174.528 
C 369.216 157.055246 365.774248 139.752393 359.087715 123.609673 
C 352.401182 107.466954 342.599903 92.798303 330.2448 80.4432 
C 317.889697 68.088097 303.221046 58.286818 287.078327 51.600285 
C 270.935607 44.913752 253.632754 41.472 236.16 41.472 
C 218.687246 41.472 201.384393 44.913752 185.241673 51.600285 
C 169.098954 58.286818 154.430303 68.088097 142.0752 80.4432 
C 129.720097 92.798303 119.918818 107.466954 113.232285 123.609673 
C 106.545752 139.752393 103.104 157.055246 103.104 174.528 
C 103.104 192.000754 106.545752 209.303607 113.232285 225.446327 
C 119.918818 241.589046 129.720097 256.257697 142.0752 268.6128 
C 154.430303 280.967903 169.098954 290.769182 185.241673 297.455715 
C 201.384393 304.142248 218.687246 307.584 236.16 307.584 
C 253.632754 307.584 270.935607 304.142248 287.078327 297.455715 
C 303.221046 290.769182 317.889697 280.967903 330.2448 268.6128 
C 342.599903 256.257697 352.401182 241.589046 359.087715 225.446327 
C 365.774248 209.303607 369.216 192.000754 369.216 174.528 
M 236.16 174.528 
C 236.16 174.528 236.16 174.528 236.16 174.528 
C 236.16 174.528 236.16 174.528 236.16 174.528 
C 236.16 174.528 236.16 174.528 236.16 174.528 
C 236.16 174.528 236.16 174.528 236.16 174.528 
C 236.16 174.528 236.16 174.528 236.16 174.528 
C 236.16 174.528 236.16 174.528 236.16 174.528 
C 236.16 174.528 236.16 174.528 236.16 174.528 
C 236.16 174.528 236.16 174.528 236.16 174.528 
C 236.16 174.528 236.16 174.528 236.16 174.528 
C 236.16 174.528 236.16 174.528 236.16 174.528 
C 236.16 174.528 236.16 174.528 236.16 174.528 
C 236.16 174.528 236.16 174.528 236.16 174.528 
C 236.16 174.528 236.16 174.528 236.16 174.528 
C 236.16 174.528 236.16 174.528 236.16 174.528 
C 236.16 174.528 236.16 174.528 236.16 174.528 
C 236.16 174.528 236.16 174.528 236.16 174.528 
z
" style="fill: #ffffff"/>
   </g>
   <g id="PathCollection_1">
    <defs>
     <path id="C0_0_289feed442" d="M 0 1.581139 
C 0.419323 1.581139 0.821528 1.41454 1.118034 1.118034 
C 1.41454 0.821528 1.581139 0.419323 1.581139 -0 
C 1.581139 -0.419323 1.41454 -0.821528 1.118034 -1.118034 
C 0.821528 -1.41454 0.419323 -1.581139 0 -1.581139 
C -0.419323 -1.581139 -0.821528 -1.41454 -1.118034 -1.118034 
C -1.41454 -0.821528 -1.581139 -0.419323 -1.581139 0 
C -1.581139 0.419323 -1.41454 0.821528 -1.118034 1.118034 
C -0.821528 1.41454 -0.419323 1.581139 0 1.581139 
z
"/>
    </defs>
    <g clip-path="url(#p039fa4aec3)">
     <use xlink:href="#C0_0_289feed442" x="236.16" y="47.808" style="fill: #7a0403; stroke: #7a0403"/>
    </g>
    <g clip-path="url(#p039fa4aec3)">
     <use xlink:href="#C0_0_289feed442" x="238.480237" y="60.329778" style="fill: #c32503; stroke: #c32503"/>
    </g>
    <g clip-path="url(#p039fa4aec3)">
     <use xlink:href="#C0_0_289feed442" x="239.635178" y="89.200982" style="fill: #fbb637; stroke: #fbb637"/>
    </g>
    <g clip-path="url(#p039fa4aec3)">
     <use xlink:href="#C0_0_289feed442" x="239.568593" y="118.945256" style="fill: #6dfe62; stroke: #6dfe62"/>
    </g>
    <g clip-path="url(#p039fa4aec3)">
     <use xlink:href="#C0_0_289feed442" x="238.905259" y="141.13323" style="fill: #23c3e4; stroke: #23c3e4"/>
    </g>
    <g clip-path="url(#p039fa4aec3)">
     <use xlink:href="#C0_0_289feed442" x="238.164972" y="155.151831" style="fill: #467df4; stroke: #467df4"/>
    </g>
    <g clip-path="url(#p039fa4aec3)">
     <use xlink:href="#C0_0_289feed442" x="237.562712" y="163.328341" style="fill: #4451bf; stroke: #4451bf"/>
    </g>
    <g clip-path="url(#p039fa4aec3)">
     <use xlink:href="#C0_0_289feed442" x="237.129831" y="167.959012" style="fill: #3e3891; stroke: #3e3891"/>
    </g>
    <g clip-path="url(#p039fa4aec3)">
     <use xlink:href="#C0_0_289feed442" x="236.834275" y="170.579974" style="fill: #392a73; stroke: #392a73"/>
    </g>
    <g clip-path="url(#p039fa4aec3)">
     <use xlink:href="#C0_0_289feed442" x="236.635824" y="172.08599" style="fill: #351e58; stroke: #351e58"/>
    </g>
    <g clip-path="url(#p039fa4aec3)">
     <use xlink:href="#C0_0_289feed442" x="236.502429" y="172.971495" style="fill: #341b51; stroke: #341b51"/>
    </g>
    <g clip-path="url(#p039fa4aec3)">
     <use xlink:href="#C0_0_289feed442" x="236.411833" y="173.506119" style="fill: #33184a; stroke: #33184a"/>
    </g>
    <g clip-path="url(#p039fa4aec3)">
     <use xlink:href="#C0_0_289feed442" x="236.349382" y="173.837876" style="fill: #321543; stroke: #321543"/>
    </g>
    <g clip-path="url(#p039fa4aec3)">
     <use xlink:href="#C0_0_289feed442" x="236.305602" y="174.049392" style="fill: #30123b; stroke: #30123b"/>
    </g>
    <g clip-path="url(#p039fa4aec3)">
     <use xlink:href="#C0_0_289feed442" x="236.274375" y="174.187795" style="fill: #30123b; stroke: #30123b"/>
    </g>
    <g clip-path="url(#p039fa4aec3)">
     <use xlink:href="#C0_0_289feed442" x="236.251725" y="174.280615" style="fill: #30123b; stroke: #30123b"/>
    </g>
    <g clip-path="url(#p039fa4aec3)">
     <use xlink:href="#C0_0_289feed442" x="236.235034" y="174.344322" style="fill: #30123b; stroke: #30123b"/>
    </g>
    <g clip-path="url(#p039fa4aec3)">
     <use xlink:href="#C0_0_289feed442" x="236.222557" y="174.389012" style="fill: #30123b; stroke: #30123b"/>
    </g>
    <g clip-path="url(#p039fa4aec3)">
     <use xlink:href="#C0_0_289feed442" x="236.213109" y="174.421014" style="fill: #30123b; stroke: #30123b"/>
    </g>
    <g clip-path="url(#p039fa4aec3)">
     <use xlink:href="#C0_0_289feed442" x="236.205877" y="174.444384" style="fill: #30123b; stroke: #30123b"/>
    </g>
    <g clip-path="url(#p039fa4aec3)">
     <use xlink:href="#C0_0_289feed442" x="236.200294" y="174.461781" style="fill: #30123b; stroke: #30123b"/>
    </g>
    <g clip-path="url(#p039fa4aec3)">
     <use xlink:href="#C0_0_289feed442" x="236.195957" y="174.47498" style="fill: #30123b; stroke: #30123b"/>
    </g>
    <g clip-path="url(#p039fa4aec3)">
     <use xlink:href="#C0_0_289feed442" x="236.192579" y="174.485194" style="fill: #30123b; stroke: #30123b"/>
    </g>
    <g clip-path="url(#p039fa4aec3)">
     <use xlink:href="#C0_0_289feed442" x="236.189947" y="174.493269" style="fill: #30123b; stroke: #30123b"/>
    </g>
    <g clip-path="url(#p039fa4aec3)">
     <use xlink:href="#C0_0_289feed442" x="236.187906" y="174.49981" style="fill: #30123b; stroke: #30123b"/>
    </g>
    <g clip-path="url(#p039fa4aec3)">
     <use xlink:href="#C0_0_289feed442" x="236.186332" y="174.505264" style="fill: #30123b; stroke: #30123b"/>
    </g>
    <g clip-path="url(#p039fa4aec3)">
     <use xlink:href="#C0_0_289feed442" x="236.185124" y="174.509971" style="fill: #30123b; stroke: #30123b"/>
    </g>
    <g clip-path="url(#p039fa4aec3)">
     <use xlink:href="#C0_0_289feed442" x="236.184189" y="174.514207" style="fill: #30123b; stroke: #30123b"/>
    </g>
    <g clip-path="url(#p039fa4aec3)">
     <use xlink:href="#C0_0_289feed442" x="236.183425" y="174.518204" style="fill: #30123b; stroke: #30123b"/>
    </g>
    <g clip-path="url(#p039fa4aec3)">
     <use xlink:href="#C0_0_289feed442" x="236.182699" y="174.522168" style="fill: #30123b; stroke: #30123b"/>
    </g>
    <g clip-path="url(#p039fa4aec3)">
     <use xlink:href="#C0_0_289feed442" x="236.181825" y="174.526273" style="fill: #30123b; stroke: #30123b"/>
    </g>
    <g clip-path="url(#p039fa4aec3)">
     <use xlink:href="#C0_0_289feed442" x="236.180522" y="174.530641" style="fill: #30123b; stroke: #30123b"/>
    </g>
    <g clip-path="url(#p039fa4aec3)">
     <use xlink:href="#C0_0_289feed442" x="236.178403" y="174.53526" style="fill: #30123b; stroke: #30123b"/>
    </g>
    <g clip-path="url(#p039fa4aec3)">
     <use xlink:href="#C0_0_289feed442" x="236.175006" y="174.539865" style="fill: #30123b; stroke: #30123b"/>
    </g>
    <g clip-path="url(#p039fa4aec3)">
     <use xlink:href="#C0_0_289feed442" x="236.170001" y="174.54381" style="fill: #30123b; stroke: #30123b"/>
    </g>
    <g clip-path="url(#p039fa4aec3)">
     <use xlink:href="#C0_0_289feed442" x="236.156464" y="174.54616" style="fill: #30123b; stroke: #30123b"/>
    </g>
    <g clip-path="url(#p039fa4aec3)">
     <use xlink:href="#C0_0_289feed442" x="236.156464" y="174.54616" style="fill: #30123b; stroke: #30123b"/>
    </g>
    <g clip-path="url(#p039fa4aec3)">
     <use xlink:href="#C0_0_289feed442" x="236.149999" y="174.54381" style="fill: #30123b; stroke: #30123b"/>
    </g>
    <g clip-path="url(#p039fa4aec3)">
     <use xlink:href="#C0_0_289feed442" x="236.144994" y="174.539865" style="fill: #30123b; stroke: #30123b"/>
    </g>
    <g clip-path="url(#p039fa4aec3)">
     <use xlink:href="#C0_0_289feed442" x="236.141597" y="174.53526" style="fill: #30123b; stroke: #30123b"/>
    </g>
    <g clip-path="url(#p039fa4aec3)">
     <use xlink:href="#C0_0_289feed442" x="236.139478" y="174.530641" style="fill: #30123b; stroke: #30123b"/>
    </g>
    <g clip-path="url(#p039fa4aec3)">
     <use xlink:href="#C0_0_289feed442" x="236.138175" y="174.526273" style="fill: #30123b; stroke: #30123b"/>
    </g>
    <g clip-path="url(#p039fa4aec3)">
     <use xlink:href="#C0_0_289feed442" x="236.137301" y="174.522168" style="fill: #30123b; stroke: #30123b"/>
    </g>
    <g clip-path="url(#p039fa4aec3)">
     <use xlink:href="#C0_0_289feed442" x="236.136575" y="174.518204" style="fill: #30123b; stroke: #30123b"/>
    </g>
    <g clip-path="url(#p039fa4aec3)">
     <use xlink:href="#C0_0_289feed442" x="236.135811" y="174.514207" style="fill: #30123b; stroke: #30123b"/>
    </g>
    <g clip-path="url(#p039fa4aec3)">
     <use xlink:href="#C0_0_289feed442" x="236.134876" y="174.509971" style="fill: #30123b; stroke: #30123b"/>
    </g>
    <g clip-path="url(#p039fa4aec3)">
     <use xlink:href="#C0_0_289feed442" x="236.133668" y="174.505264" style="fill: #30123b; stroke: #30123b"/>
    </g>
    <g clip-path="url(#p039fa4aec3)">
     <use xlink:href="#C0_0_289feed442" x="236.132094" y="174.49981" style="fill: #30123b; stroke: #30123b"/>
    </g>
    <g clip-path="url(#p039fa4aec3)">
     <use xlink:href="#C0_0_289feed442" x="236.130053" y="174.493269" style="fill: #30123b; stroke: #30123b"/>
    </g>
    <g clip-path="url(#p039fa4aec3)">
     <use xlink:href="#C0_0_289feed442" x="236.127421" y="174.485194" style="fill: #30123b; stroke: #30123b"/>
    </g>
    <g clip-path="url(#p039fa4aec3)">
     <use xlink:href="#C0_0_289feed442" x="236.124043" y="174.47498" style="fill: #30123b; stroke: #30123b"/>
    </g>
    <g clip-path="url(#p039fa4aec3)">
     <use xlink:href="#C0_0_289feed442" x="236.119706" y="174.461781" style="fill: #30123b; stroke: #30123b"/>
    </g>
    <g clip-path="url(#p039fa4aec3)">
     <use xlink:href="#C0_0_289feed442" x="236.114123" y="174.444384" style="fill: #30123b; stroke: #30123b"/>
    </g>
    <g clip-path="url(#p039fa4aec3)">
     <use xlink:href="#C0_0_289feed442" x="236.106891" y="174.421014" style="fill: #30123b; stroke: #30123b"/>
    </g>
    <g clip-path="url(#p039fa4aec3)">
     <use xlink:href="#C0_0_289feed442" x="236.097443" y="174.389012" style="fill: #30123b; stroke: #30123b"/>
    </g>
    <g clip-path="url(#p039fa4aec3)">
     <use xlink:href="#C0_0_289feed442" x="236.084966" y="174.344322" style="fill: #30123b; stroke: #30123b"/>
    </g>
    <g clip-path="url(#p039fa4aec3)">
     <use xlink:href="#C0_0_289feed442" x="236.068275" y="174.280615" style="fill: #30123b; stroke: #30123b"/>
    </g>
    <g clip-path="url(#p039fa4aec3)">
     <use xlink:href="#C0_0_289feed442" x="236.045625" y="174.187795" style="fill: #30123b; stroke: #30123b"/>
    </g>
    <g clip-path="url(#p039fa4aec3)">
     <use xlink:href="#C0_0_289feed442" x="236.014398" y="174.049392" style="fill: #30123b; stroke: #30123b"/>
    </g>
    <g clip-path="url(#p039fa4aec3)">
     <use xlink:href="#C0_0_289feed442" x="235.970618" y="173.837876" style="fill: #321543; stroke: #321543"/>
    </g>
    <g clip-path="url(#p039fa4aec3)">
     <use xlink:href="#C0_0_289feed442" x="235.908167" y="173.506119" style="fill: #33184a; stroke: #33184a"/>
    </g>
    <g clip-path="url(#p039fa4aec3)">
     <use xlink:href="#C0_0_289feed442" x="235.817571" y="172.971495" style="fill: #341b51; stroke: #341b51"/>
    </g>
    <g clip-path="url(#p039fa4aec3)">
     <use xlink:href="#C0_0_289feed442" x="235.684176" y="172.08599" style="fill: #351e58; stroke: #351e58"/>
    </g>
    <g clip-path="url(#p039fa4aec3)">
     <use xlink:href="#C0_0_289feed442" x="235.485725" y="170.579974" style="fill: #392a73; stroke: #392a73"/>
    </g>
    <g clip-path="url(#p039fa4aec3)">
     <use xlink:href="#C0_0_289feed442" x="235.190169" y="167.959012" style="fill: #3e3891; stroke: #3e3891"/>
    </g>
    <g clip-path="url(#p039fa4aec3)">
     <use xlink:href="#C0_0_289feed442" x="234.757288" y="163.328341" style="fill: #4451bf; stroke: #4451bf"/>
    </g>
    <g clip-path="url(#p039fa4aec3)">
     <use xlink:href="#C0_0_289feed442" x="234.155028" y="155.151831" style="fill: #467df4; stroke: #467df4"/>
    </g>
    <g clip-path="url(#p039fa4aec3)">
     <use xlink:href="#C0_0_289feed442" x="233.414741" y="141.13323" style="fill: #23c3e4; stroke: #23c3e4"/>
    </g>
    <g clip-path="url(#p039fa4aec3)">
     <use xlink:href="#C0_0_289feed442" x="232.751407" y="118.945256" style="fill: #6dfe62; stroke: #6dfe62"/>
    </g>
    <g clip-path="url(#p039fa4aec3)">
     <use xlink:href="#C0_0_289feed442" x="232.684822" y="89.200982" style="fill: #fbb637; stroke: #fbb637"/>
    </g>
    <g clip-path="url(#p039fa4aec3)">
     <use xlink:href="#C0_0_289feed442" x="233.839763" y="60.329778" style="fill: #c32503; stroke: #c32503"/>
    </g>
   </g>
   <g id="Quiver_1">
    <path d="M 234.82944 174.528 
L 234.82944 119.975503 
L 229.5072 118.644943 
L 236.16 108.000463 
L 242.8128 118.644943 
L 237.49056 119.975503 
L 237.49056 174.528 
L 234.82944 174.528 
" clip-path="url(#p039fa4aec3)" style="fill: #ff0000"/>
   </g>
   <g id="matplotlib.axis_1">
    <g id="xtick_1">
     <g id="line2d_1">
      <path d="M 236.16 174.528 
L 236.16 41.472 
" clip-path="url(#p039fa4aec3)" style="fill: none; stroke: #b0b0b0; stroke-width: 0.8; stroke-linecap: square"/>
     </g>
     <g id="text_1">
      <!-- 0° -->
      <g transform="translate(230.47875 30.231375) scale(0.1 -0.1)">
       <defs>
        <path id="DejaVuSans-30" d="M 2034 4250 
Q 1547 4250 1301 3770 
Q 1056 3291 1056 2328 
Q 1056 1369 1301 889 
Q 1547 409 2034 409 
Q 2525 409 2770 889 
Q 3016 1369 3016 2328 
Q 3016 3291 2770 3770 
Q 2525 4250 2034 4250 
z
M 2034 4750 
Q 2819 4750 3233 4129 
Q 3647 3509 3647 2328 
Q 3647 1150 3233 529 
Q 2819 -91 2034 -91 
Q 1250 -91 836 529 
Q 422 1150 422 2328 
Q 422 3509 836 4129 
Q 1250 4750 2034 4750 
z
" transform="scale(0.015625)"/>
        <path id="DejaVuSans-b0" d="M 1600 4347 
Q 1350 4347 1178 4173 
Q 1006 4000 1006 3750 
Q 1006 3503 1178 3333 
Q 1350 3163 1600 3163 
Q 1850 3163 2022 3333 
Q 2194 3503 2194 3750 
Q 2194 3997 2020 4172 
Q 1847 4347 1600 4347 
z
M 1600 4750 
Q 1800 4750 1984 4673 
Q 2169 4597 2303 4453 
Q 2447 4313 2519 4134 
Q 2591 3956 2591 3750 
Q 2591 3338 2302 3052 
Q 2013 2766 1594 2766 
Q 1172 2766 890 3047 
Q 609 3328 609 3750 
Q 609 4169 896 4459 
Q 1184 4750 1600 4750 
z
" transform="scale(0.015625)"/>
       </defs>
       <use xlink:href="#DejaVuSans-30"/>
       <use xlink:href="#DejaVuSans-b0" transform="translate(63.623047 0)"/>
      </g>
     </g>
    </g>
    <g id="xtick_2">
     <g id="line2d_2">
      <path d="M 236.16 174.528 
L 330.2448 80.4432 
" clip-path="url(#p039fa4aec3)" style="fill: none; stroke: #b0b0b0; stroke-width: 0.8; stroke-linecap: square"/>
     </g>
     <g id="text_2">
      <!-- 45° -->
      <g transform="translate(331.281795 73.30308) scale(0.1 -0.1)">
       <defs>
        <path id="DejaVuSans-34" d="M 2419 4116 
L 825 1625 
L 2419 1625 
L 2419 4116 
z
M 2253 4666 
L 3047 4666 
L 3047 1625 
L 3713 1625 
L 3713 1100 
L 3047 1100 
L 3047 0 
L 2419 0 
L 2419 1100 
L 313 1100 
L 313 1709 
L 2253 4666 
z
" transform="scale(0.015625)"/>
        <path id="DejaVuSans-35" d="M 691 4666 
L 3169 4666 
L 3169 4134 
L 1269 4134 
L 1269 2991 
Q 1406 3038 1543 3061 
Q 1681 3084 1819 3084 
Q 2600 3084 3056 2656 
Q 3513 2228 3513 1497 
Q 3513 744 3044 326 
Q 2575 -91 1722 -91 
Q 1428 -91 1123 -41 
Q 819 9 494 109 
L 494 744 
Q 775 591 1075 516 
Q 1375 441 1709 441 
Q 2250 441 2565 725 
Q 2881 1009 2881 1497 
Q 2881 1984 2565 2268 
Q 2250 2553 1709 2553 
Q 1456 2553 1204 2497 
Q 953 2441 691 2322 
L 691 4666 
z
" transform="scale(0.015625)"/>
       </defs>
       <use xlink:href="#DejaVuSans-34"/>
       <use xlink:href="#DejaVuSans-35" transform="translate(63.623047 0)"/>
       <use xlink:href="#DejaVuSans-b0" transform="translate(127.246094 0)"/>
      </g>
     </g>
    </g>
    <g id="xtick_3">
     <g id="line2d_3">
      <path d="M 236.16 174.528 
L 369.216 174.528 
" clip-path="url(#p039fa4aec3)" style="fill: none; stroke: #b0b0b0; stroke-width: 0.8; stroke-linecap: square"/>
     </g>
     <g id="text_3">
      <!-- 90° -->
      <g transform="translate(374.3535 177.287375) scale(0.1 -0.1)">
       <defs>
        <path id="DejaVuSans-39" d="M 703 97 
L 703 672 
Q 941 559 1184 500 
Q 1428 441 1663 441 
Q 2288 441 2617 861 
Q 2947 1281 2994 2138 
Q 2813 1869 2534 1725 
Q 2256 1581 1919 1581 
Q 1219 1581 811 2004 
Q 403 2428 403 3163 
Q 403 3881 828 4315 
Q 1253 4750 1959 4750 
Q 2769 4750 3195 4129 
Q 3622 3509 3622 2328 
Q 3622 1225 3098 567 
Q 2575 -91 1691 -91 
Q 1453 -91 1209 -44 
Q 966 3 703 97 
z
M 1959 2075 
Q 2384 2075 2632 2365 
Q 2881 2656 2881 3163 
Q 2881 3666 2632 3958 
Q 2384 4250 1959 4250 
Q 1534 4250 1286 3958 
Q 1038 3666 1038 3163 
Q 1038 2656 1286 2365 
Q 1534 2075 1959 2075 
z
" transform="scale(0.015625)"/>
       </defs>
       <use xlink:href="#DejaVuSans-39"/>
       <use xlink:href="#DejaVuSans-30" transform="translate(63.623047 0)"/>
       <use xlink:href="#DejaVuSans-b0" transform="translate(127.246094 0)"/>
      </g>
     </g>
    </g>
    <g id="xtick_4">
     <g id="line2d_4">
      <path d="M 236.16 174.528 
L 330.2448 268.6128 
" clip-path="url(#p039fa4aec3)" style="fill: none; stroke: #b0b0b0; stroke-width: 0.8; stroke-linecap: square"/>
     </g>
     <g id="text_4">
      <!-- 135° -->
      <g transform="translate(328.100545 281.27167) scale(0.1 -0.1)">
       <defs>
        <path id="DejaVuSans-31" d="M 794 531 
L 1825 531 
L 1825 4091 
L 703 3866 
L 703 4441 
L 1819 4666 
L 2450 4666 
L 2450 531 
L 3481 531 
L 3481 0 
L 794 0 
L 794 531 
z
" transform="scale(0.015625)"/>
        <path id="DejaVuSans-33" d="M 2597 2516 
Q 3050 2419 3304 2112 
Q 3559 1806 3559 1356 
Q 3559 666 3084 287 
Q 2609 -91 1734 -91 
Q 1441 -91 1130 -33 
Q 819 25 488 141 
L 488 750 
Q 750 597 1062 519 
Q 1375 441 1716 441 
Q 2309 441 2620 675 
Q 2931 909 2931 1356 
Q 2931 1769 2642 2001 
Q 2353 2234 1838 2234 
L 1294 2234 
L 1294 2753 
L 1863 2753 
Q 2328 2753 2575 2939 
Q 2822 3125 2822 3475 
Q 2822 3834 2567 4026 
Q 2313 4219 1838 4219 
Q 1578 4219 1281 4162 
Q 984 4106 628 3988 
L 628 4550 
Q 988 4650 1302 4700 
Q 1616 4750 1894 4750 
Q 2613 4750 3031 4423 
Q 3450 4097 3450 3541 
Q 3450 3153 3228 2886 
Q 3006 2619 2597 2516 
z
" transform="scale(0.015625)"/>
       </defs>
       <use xlink:href="#DejaVuSans-31"/>
       <use xlink:href="#DejaVuSans-33" transform="translate(63.623047 0)"/>
       <use xlink:href="#DejaVuSans-35" transform="translate(127.246094 0)"/>
       <use xlink:href="#DejaVuSans-b0" transform="translate(190.869141 0)"/>
      </g>
     </g>
    </g>
    <g id="xtick_5">
     <g id="line2d_5">
      <path d="M 236.16 174.528 
L 236.16 307.584 
" clip-path="url(#p039fa4aec3)" style="fill: none; stroke: #b0b0b0; stroke-width: 0.8; stroke-linecap: square"/>
     </g>
     <g id="text_5">
      <!-- 180° -->
      <g transform="translate(224.11625 324.343375) scale(0.1 -0.1)">
       <defs>
        <path id="DejaVuSans-38" d="M 2034 2216 
Q 1584 2216 1326 1975 
Q 1069 1734 1069 1313 
Q 1069 891 1326 650 
Q 1584 409 2034 409 
Q 2484 409 2743 651 
Q 3003 894 3003 1313 
Q 3003 1734 2745 1975 
Q 2488 2216 2034 2216 
z
M 1403 2484 
Q 997 2584 770 2862 
Q 544 3141 544 3541 
Q 544 4100 942 4425 
Q 1341 4750 2034 4750 
Q 2731 4750 3128 4425 
Q 3525 4100 3525 3541 
Q 3525 3141 3298 2862 
Q 3072 2584 2669 2484 
Q 3125 2378 3379 2068 
Q 3634 1759 3634 1313 
Q 3634 634 3220 271 
Q 2806 -91 2034 -91 
Q 1263 -91 848 271 
Q 434 634 434 1313 
Q 434 1759 690 2068 
Q 947 2378 1403 2484 
z
M 1172 3481 
Q 1172 3119 1398 2916 
Q 1625 2713 2034 2713 
Q 2441 2713 2670 2916 
Q 2900 3119 2900 3481 
Q 2900 3844 2670 4047 
Q 2441 4250 2034 4250 
Q 1625 4250 1398 4047 
Q 1172 3844 1172 3481 
z
" transform="scale(0.015625)"/>
       </defs>
       <use xlink:href="#DejaVuSans-31"/>
       <use xlink:href="#DejaVuSans-38" transform="translate(63.623047 0)"/>
       <use xlink:href="#DejaVuSans-30" transform="translate(127.246094 0)"/>
       <use xlink:href="#DejaVuSans-b0" transform="translate(190.869141 0)"/>
      </g>
     </g>
    </g>
    <g id="xtick_6">
     <g id="line2d_6">
      <path d="M 236.16 174.528 
L 142.0752 268.6128 
" clip-path="url(#p039fa4aec3)" style="fill: none; stroke: #b0b0b0; stroke-width: 0.8; stroke-linecap: square"/>
     </g>
     <g id="text_6">
      <!-- 225° -->
      <g transform="translate(120.131955 281.27167) scale(0.1 -0.1)">
       <defs>
        <path id="DejaVuSans-32" d="M 1228 531 
L 3431 531 
L 3431 0 
L 469 0 
L 469 531 
Q 828 903 1448 1529 
Q 2069 2156 2228 2338 
Q 2531 2678 2651 2914 
Q 2772 3150 2772 3378 
Q 2772 3750 2511 3984 
Q 2250 4219 1831 4219 
Q 1534 4219 1204 4116 
Q 875 4013 500 3803 
L 500 4441 
Q 881 4594 1212 4672 
Q 1544 4750 1819 4750 
Q 2544 4750 2975 4387 
Q 3406 4025 3406 3419 
Q 3406 3131 3298 2873 
Q 3191 2616 2906 2266 
Q 2828 2175 2409 1742 
Q 1991 1309 1228 531 
z
" transform="scale(0.015625)"/>
       </defs>
       <use xlink:href="#DejaVuSans-32"/>
       <use xlink:href="#DejaVuSans-32" transform="translate(63.623047 0)"/>
       <use xlink:href="#DejaVuSans-35" transform="translate(127.246094 0)"/>
       <use xlink:href="#DejaVuSans-b0" transform="translate(190.869141 0)"/>
      </g>
     </g>
    </g>
    <g id="xtick_7">
     <g id="line2d_7">
      <path d="M 236.16 174.528 
L 103.104 174.528 
" clip-path="url(#p039fa4aec3)" style="fill: none; stroke: #b0b0b0; stroke-width: 0.8; stroke-linecap: square"/>
     </g>
     <g id="text_7">
      <!-- 270° -->
      <g transform="translate(77.06025 177.287375) scale(0.1 -0.1)">
       <defs>
        <path id="DejaVuSans-37" d="M 525 4666 
L 3525 4666 
L 3525 4397 
L 1831 0 
L 1172 0 
L 2766 4134 
L 525 4134 
L 525 4666 
z
" transform="scale(0.015625)"/>
       </defs>
       <use xlink:href="#DejaVuSans-32"/>
       <use xlink:href="#DejaVuSans-37" transform="translate(63.623047 0)"/>
       <use xlink:href="#DejaVuSans-30" transform="translate(127.246094 0)"/>
       <use xlink:href="#DejaVuSans-b0" transform="translate(190.869141 0)"/>
      </g>
     </g>
    </g>
    <g id="xtick_8">
     <g id="line2d_8">
      <path d="M 236.16 174.528 
L 142.0752 80.4432 
" clip-path="url(#p039fa4aec3)" style="fill: none; stroke: #b0b0b0; stroke-width: 0.8; stroke-linecap: square"/>
     </g>
     <g id="text_8">
      <!-- 315° -->
      <g transform="translate(120.131955 73.30308) scale(0.1 -0.1)">
       <use xlink:href="#DejaVuSans-33"/>
       <use xlink:href="#DejaVuSans-31" transform="translate(63.623047 0)"/>
       <use xlink:href="#DejaVuSans-35" transform="translate(127.246094 0)"/>
       <use xlink:href="#DejaVuSans-b0" transform="translate(190.869141 0)"/>
      </g>
     </g>
    </g>
   </g>
   <g id="matplotlib.axis_2">
    <g id="ytick_1">
     <g id="line2d_9">
      <path d="M 236.16 156.976753 
C 238.464809 156.976753 240.747206 157.43075 242.876571 158.312763 
C 245.005937 159.194775 246.94086 160.487649 248.570605 162.117395 
C 250.200351 163.74714 251.493225 165.682063 252.375237 167.811429 
C 253.25725 169.940794 253.711247 172.223191 253.711247 174.528 
C 253.711247 176.832809 253.25725 179.115206 252.375237 181.244571 
C 251.493225 183.373937 250.200351 185.30886 248.570605 186.938605 
C 246.94086 188.568351 245.005937 189.861225 242.876571 190.743237 
C 240.747206 191.62525 238.464809 192.079247 236.16 192.079247 
C 233.855191 192.079247 231.572794 191.62525 229.443429 190.743237 
C 227.314063 189.861225 225.37914 188.568351 223.749395 186.938605 
C 222.119649 185.30886 220.826775 183.373937 219.944763 181.244571 
C 219.06275 179.115206 218.608753 176.832809 218.608753 174.528 
C 218.608753 172.223191 219.06275 169.940794 219.944763 167.811429 
C 220.826775 165.682063 222.119649 163.74714 223.749395 162.117395 
C 225.37914 160.487649 227.314063 159.194775 229.443429 158.312763 
C 231.572794 157.43075 233.855191 156.976753 236.16 156.976753 
" clip-path="url(#p039fa4aec3)" style="fill: none; stroke: #b0b0b0; stroke-width: 0.8; stroke-linecap: square"/>
     </g>
     <g id="text_9">
      <!-- 5 -->
      <g transform="translate(248.570605 184.858918) scale(0.1 -0.1)">
       <use xlink:href="#DejaVuSans-35"/>
      </g>
     </g>
    </g>
    <g id="ytick_2">
     <g id="line2d_10">
      <path d="M 236.16 139.425507 
C 240.769617 139.425507 245.334412 140.333501 249.593143 142.097525 
C 253.851873 143.861549 257.721719 146.447298 260.981211 149.706789 
C 264.240702 152.966281 266.826451 156.836127 268.590475 161.094857 
C 270.354499 165.353588 271.262493 169.918383 271.262493 174.528 
C 271.262493 179.137617 270.354499 183.702412 268.590475 187.961143 
C 266.826451 192.219873 264.240702 196.089719 260.981211 199.349211 
C 257.721719 202.608702 253.851873 205.194451 249.593143 206.958475 
C 245.334412 208.722499 240.769617 209.630493 236.16 209.630493 
C 231.550383 209.630493 226.985588 208.722499 222.726857 206.958475 
C 218.468127 205.194451 214.598281 202.608702 211.338789 199.349211 
C 208.079298 196.089719 205.493549 192.219873 203.729525 187.961143 
C 201.965501 183.702412 201.057507 179.137617 201.057507 174.528 
C 201.057507 169.918383 201.965501 165.353588 203.729525 161.094857 
C 205.493549 156.836127 208.079298 152.966281 211.338789 149.706789 
C 214.598281 146.447298 218.468127 143.861549 222.726857 142.097525 
C 226.985588 140.333501 231.550383 139.425507 236.16 139.425507 
" clip-path="url(#p039fa4aec3)" style="fill: none; stroke: #b0b0b0; stroke-width: 0.8; stroke-linecap: square"/>
     </g>
     <g id="text_10">
      <!-- 10 -->
      <g transform="translate(260.981211 197.269523) scale(0.1 -0.1)">
       <use xlink:href="#DejaVuSans-31"/>
       <use xlink:href="#DejaVuSans-30" transform="translate(63.623047 0)"/>
      </g>
     </g>
    </g>
    <g id="ytick_3">
     <g id="line2d_11">
      <path d="M 236.16 121.87426 
C 243.074426 121.87426 249.921617 123.236251 256.309714 125.882288 
C 262.69781 128.528324 268.502579 132.406946 273.391816 137.296184 
C 278.281054 142.185421 282.159676 147.99019 284.805712 154.378286 
C 287.451749 160.766383 288.81374 167.613574 288.81374 174.528 
C 288.81374 181.442426 287.451749 188.289617 284.805712 194.677714 
C 282.159676 201.06581 278.281054 206.870579 273.391816 211.759816 
C 268.502579 216.649054 262.69781 220.527676 256.309714 223.173712 
C 249.921617 225.819749 243.074426 227.18174 236.16 227.18174 
C 229.245574 227.18174 222.398383 225.819749 216.010286 223.173712 
C 209.62219 220.527676 203.817421 216.649054 198.928184 211.759816 
C 194.038946 206.870579 190.160324 201.06581 187.514288 194.677714 
C 184.868251 188.289617 183.50626 181.442426 183.50626 174.528 
C 183.50626 167.613574 184.868251 160.766383 187.514288 154.378286 
C 190.160324 147.99019 194.038946 142.185421 198.928184 137.296184 
C 203.817421 132.406946 209.62219 128.528324 216.010286 125.882288 
C 222.398383 123.236251 229.245574 121.87426 236.16 121.87426 
" clip-path="url(#p039fa4aec3)" style="fill: none; stroke: #b0b0b0; stroke-width: 0.8; stroke-linecap: square"/>
     </g>
     <g id="text_11">
      <!-- 15 -->
      <g transform="translate(273.391816 209.680129) scale(0.1 -0.1)">
       <use xlink:href="#DejaVuSans-31"/>
       <use xlink:href="#DejaVuSans-35" transform="translate(63.623047 0)"/>
      </g>
     </g>
    </g>
    <g id="ytick_4">
     <g id="line2d_12">
      <path d="M 236.16 104.323014 
C 245.379234 104.323014 254.508823 106.139002 263.026285 109.66705 
C 271.543747 113.195098 279.283439 118.366595 285.802422 124.885578 
C 292.321405 131.404561 297.492902 139.144253 301.02095 147.661715 
C 304.548998 156.179177 306.364986 165.308766 306.364986 174.528 
C 306.364986 183.747234 304.548998 192.876823 301.02095 201.394285 
C 297.492902 209.911747 292.321405 217.651439 285.802422 224.170422 
C 279.283439 230.689405 271.543747 235.860902 263.026285 239.38895 
C 254.508823 242.916998 245.379234 244.732986 236.16 244.732986 
C 226.940766 244.732986 217.811177 242.916998 209.293715 239.38895 
C 200.776253 235.860902 193.036561 230.689405 186.517578 224.170422 
C 179.998595 217.651439 174.827098 209.911747 171.29905 201.394285 
C 167.771002 192.876823 165.955014 183.747234 165.955014 174.528 
C 165.955014 165.308766 167.771002 156.179177 171.29905 147.661715 
C 174.827098 139.144253 179.998595 131.404561 186.517578 124.885578 
C 193.036561 118.366595 200.776253 113.195098 209.293715 109.66705 
C 217.811177 106.139002 226.940766 104.323014 236.16 104.323014 
" clip-path="url(#p039fa4aec3)" style="fill: none; stroke: #b0b0b0; stroke-width: 0.8; stroke-linecap: square"/>
     </g>
     <g id="text_12">
      <!-- 20 -->
      <g transform="translate(285.802422 222.090734) scale(0.1 -0.1)">
       <use xlink:href="#DejaVuSans-32"/>
       <use xlink:href="#DejaVuSans-30" transform="translate(63.623047 0)"/>
      </g>
     </g>
    </g>
    <g id="ytick_5">
     <g id="line2d_13">
      <path d="M 236.16 86.771767 
C 247.684043 86.771767 259.096029 89.041752 269.742856 93.451813 
C 280.389684 97.861873 290.064298 104.326244 298.213027 112.474973 
C 306.361756 120.623702 312.826127 130.298316 317.236187 140.945144 
C 321.646248 151.591971 323.916233 163.003957 323.916233 174.528 
C 323.916233 186.052043 321.646248 197.464029 317.236187 208.110856 
C 312.826127 218.757684 306.361756 228.432298 298.213027 236.581027 
C 290.064298 244.729756 280.389684 251.194127 269.742856 255.604187 
C 259.096029 260.014248 247.684043 262.284233 236.16 262.284233 
C 224.635957 262.284233 213.223971 260.014248 202.577144 255.604187 
C 191.930316 251.194127 182.255702 244.729756 174.106973 236.581027 
C 165.958244 228.432298 159.493873 218.757684 155.083813 208.110856 
C 150.673752 197.464029 148.403767 186.052043 148.403767 174.528 
C 148.403767 163.003957 150.673752 151.591971 155.083813 140.945144 
C 159.493873 130.298316 165.958244 120.623702 174.106973 112.474973 
C 182.255702 104.326244 191.930316 97.861873 202.577144 93.451813 
C 213.223971 89.041752 224.635957 86.771767 236.16 86.771767 
" clip-path="url(#p039fa4aec3)" style="fill: none; stroke: #b0b0b0; stroke-width: 0.8; stroke-linecap: square"/>
     </g>
     <g id="text_13">
      <!-- 25 -->
      <g transform="translate(298.213027 234.50134) scale(0.1 -0.1)">
       <use xlink:href="#DejaVuSans-32"/>
       <use xlink:href="#DejaVuSans-35" transform="translate(63.623047 0)"/>
      </g>
     </g>
    </g>
    <g id="ytick_6">
     <g id="line2d_14">
      <path d="M 236.16 69.220521 
C 249.988851 69.220521 263.683235 71.944503 276.459428 77.236575 
C 289.23562 82.528648 300.845158 90.285893 310.623633 100.064367 
C 320.402107 109.842842 328.159352 121.45238 333.451425 134.228572 
C 338.743497 147.004765 341.467479 160.699149 341.467479 174.528 
C 341.467479 188.356851 338.743497 202.051235 333.451425 214.827428 
C 328.159352 227.60362 320.402107 239.213158 310.623633 248.991633 
C 300.845158 258.770107 289.23562 266.527352 276.459428 271.819425 
C 263.683235 277.111497 249.988851 279.835479 236.16 279.835479 
C 222.331149 279.835479 208.636765 277.111497 195.860572 271.819425 
C 183.08438 266.527352 171.474842 258.770107 161.696367 248.991633 
C 151.917893 239.213158 144.160648 227.60362 138.868575 214.827428 
C 133.576503 202.051235 130.852521 188.356851 130.852521 174.528 
C 130.852521 160.699149 133.576503 147.004765 138.868575 134.228572 
C 144.160648 121.45238 151.917893 109.842842 161.696367 100.064367 
C 171.474842 90.285893 183.08438 82.528648 195.860572 77.236575 
C 208.636765 71.944503 222.331149 69.220521 236.16 69.220521 
" clip-path="url(#p039fa4aec3)" style="fill: none; stroke: #b0b0b0; stroke-width: 0.8; stroke-linecap: square"/>
     </g>
     <g id="text_14">
      <!-- 30 -->
      <g transform="translate(310.623633 246.911945) scale(0.1 -0.1)">
       <use xlink:href="#DejaVuSans-33"/>
       <use xlink:href="#DejaVuSans-30" transform="translate(63.623047 0)"/>
      </g>
     </g>
    </g>
    <g id="ytick_7">
     <g id="line2d_15">
      <path d="M 236.16 51.669274 
C 252.29366 51.669274 268.270441 54.847253 283.175999 61.021338 
C 298.081557 67.195422 311.626018 76.245541 323.034238 87.653762 
C 334.442459 99.061982 343.492578 112.606443 349.666662 127.512001 
C 355.840747 142.417559 359.018726 158.39434 359.018726 174.528 
C 359.018726 190.66166 355.840747 206.638441 349.666662 221.543999 
C 343.492578 236.449557 334.442459 249.994018 323.034238 261.402238 
C 311.626018 272.810459 298.081557 281.860578 283.175999 288.034662 
C 268.270441 294.208747 252.29366 297.386726 236.16 297.386726 
C 220.02634 297.386726 204.049559 294.208747 189.144001 288.034662 
C 174.238443 281.860578 160.693982 272.810459 149.285762 261.402238 
C 137.877541 249.994018 128.827422 236.449557 122.653338 221.543999 
C 116.479253 206.638441 113.301274 190.66166 113.301274 174.528 
C 113.301274 158.39434 116.479253 142.417559 122.653338 127.512001 
C 128.827422 112.606443 137.877541 99.061982 149.285762 87.653762 
C 160.693982 76.245541 174.238443 67.195422 189.144001 61.021338 
C 204.049559 54.847253 220.02634 51.669274 236.16 51.669274 
" clip-path="url(#p039fa4aec3)" style="fill: none; stroke: #b0b0b0; stroke-width: 0.8; stroke-linecap: square"/>
     </g>
     <g id="text_15">
      <!-- 35 -->
      <g transform="translate(323.034238 259.322551) scale(0.1 -0.1)">
       <use xlink:href="#DejaVuSans-33"/>
       <use xlink:href="#DejaVuSans-35" transform="translate(63.623047 0)"/>
      </g>
     </g>
    </g>
   </g>
   <g id="patch_3">
    <path d="M 236.16 41.472 
C 218.687246 41.472 201.384393 44.913752 185.241673 51.600285 
C 169.098954 58.286818 154.430303 68.088097 142.0752 80.4432 
C 129.720097 92.798303 119.918818 107.466954 113.232285 123.609673 
C 106.545752 139.752393 103.104 157.055246 103.104 174.528 
C 103.104 192.000754 106.545752 209.303607 113.232285 225.446327 
C 119.918818 241.589046 129.720097 256.257697 142.0752 268.6128 
C 154.430303 280.967903 169.098954 290.769182 185.241673 297.455715 
C 201.384393 304.142248 218.687246 307.584 236.16 307.584 
C 253.632754 307.584 270.935607 304.142248 287.078327 297.455715 
C 303.221046 290.769182 317.889697 280.967903 330.2448 268.6128 
C 342.599903 256.257697 352.401182 241.589046 359.087715 225.446327 
C 365.774248 209.303607 369.216 192.000754 369.216 174.528 
C 369.216 157.055246 365.774248 139.752393 359.087715 123.609673 
C 352.401182 107.466954 342.599903 92.798303 330.2448 80.4432 
C 317.889697 68.088097 303.221046 58.286818 287.078327 51.600285 
C 270.935607 44.913752 253.632754 41.472 236.16 41.472 
" style="fill: none; stroke: #000000; stroke-width: 0.8; stroke-linejoin: miter; stroke-linecap: square"/>
   </g>
   <g id="text_16">
    <!--  $v_q$ = 0.9 -->
    <g style="fill: #ff0000" transform="translate(319.749413 323.787637) scale(0.1 -0.1)">
     <defs>
      <path id="DejaVuSans-20" transform="scale(0.015625)"/>
      <path id="DejaVuSans-Oblique-76" d="M 459 3500 
L 1069 3500 
L 1581 525 
L 3256 3500 
L 3866 3500 
L 1875 0 
L 1100 0 
L 459 3500 
z
" transform="scale(0.015625)"/>
      <path id="DejaVuSans-Oblique-71" d="M 2669 525 
Q 2438 222 2123 65 
Q 1809 -91 1428 -91 
Q 897 -91 595 267 
Q 294 625 294 1253 
Q 294 1759 480 2231 
Q 666 2703 1013 3078 
Q 1238 3322 1530 3453 
Q 1822 3584 2144 3584 
Q 2531 3584 2781 3431 
Q 3031 3278 3144 2969 
L 3244 3494 
L 3822 3494 
L 2888 -1319 
L 2309 -1319 
L 2669 525 
z
M 891 1338 
Q 891 875 1084 633 
Q 1278 391 1644 391 
Q 2188 391 2572 911 
Q 2956 1431 2956 2175 
Q 2956 2625 2757 2864 
Q 2559 3103 2188 3103 
Q 1916 3103 1684 2976 
Q 1453 2850 1281 2606 
Q 1100 2350 995 2006 
Q 891 1663 891 1338 
z
" transform="scale(0.015625)"/>
      <path id="DejaVuSans-3d" d="M 678 2906 
L 4684 2906 
L 4684 2381 
L 678 2381 
L 678 2906 
z
M 678 1631 
L 4684 1631 
L 4684 1100 
L 678 1100 
L 678 1631 
z
" transform="scale(0.015625)"/>
      <path id="DejaVuSans-2e" d="M 684 794 
L 1344 794 
L 1344 0 
L 684 0 
L 684 794 
z
" transform="scale(0.015625)"/>
     </defs>
     <use xlink:href="#DejaVuSans-20" transform="translate(0 0.78125)"/>
     <use xlink:href="#DejaVuSans-Oblique-76" transform="translate(31.787109 0.78125)"/>
     <use xlink:href="#DejaVuSans-Oblique-71" transform="translate(90.966797 -15.625) scale(0.7)"/>
     <use xlink:href="#DejaVuSans-20" transform="translate(138.134766 0.78125)"/>
     <use xlink:href="#DejaVuSans-3d" transform="translate(169.921875 0.78125)"/>
     <use xlink:href="#DejaVuSans-20" transform="translate(253.710938 0.78125)"/>
     <use xlink:href="#DejaVuSans-30" transform="translate(285.498047 0.78125)"/>
     <use xlink:href="#DejaVuSans-2e" transform="translate(349.121094 0.78125)"/>
     <use xlink:href="#DejaVuSans-39" transform="translate(380.908203 0.78125)"/>
    </g>
   </g>
   <g id="text_17">
    <!-- Strength Ratio -->
    <g transform="translate(246.876808 205.484694) rotate(-315) scale(0.1 -0.1)">
     <defs>
      <path id="DejaVuSans-53" d="M 3425 4513 
L 3425 3897 
Q 3066 4069 2747 4153 
Q 2428 4238 2131 4238 
Q 1616 4238 1336 4038 
Q 1056 3838 1056 3469 
Q 1056 3159 1242 3001 
Q 1428 2844 1947 2747 
L 2328 2669 
Q 3034 2534 3370 2195 
Q 3706 1856 3706 1288 
Q 3706 609 3251 259 
Q 2797 -91 1919 -91 
Q 1588 -91 1214 -16 
Q 841 59 441 206 
L 441 856 
Q 825 641 1194 531 
Q 1563 422 1919 422 
Q 2459 422 2753 634 
Q 3047 847 3047 1241 
Q 3047 1584 2836 1778 
Q 2625 1972 2144 2069 
L 1759 2144 
Q 1053 2284 737 2584 
Q 422 2884 422 3419 
Q 422 4038 858 4394 
Q 1294 4750 2059 4750 
Q 2388 4750 2728 4690 
Q 3069 4631 3425 4513 
z
" transform="scale(0.015625)"/>
      <path id="DejaVuSans-74" d="M 1172 4494 
L 1172 3500 
L 2356 3500 
L 2356 3053 
L 1172 3053 
L 1172 1153 
Q 1172 725 1289 603 
Q 1406 481 1766 481 
L 2356 481 
L 2356 0 
L 1766 0 
Q 1100 0 847 248 
Q 594 497 594 1153 
L 594 3053 
L 172 3053 
L 172 3500 
L 594 3500 
L 594 4494 
L 1172 4494 
z
" transform="scale(0.015625)"/>
      <path id="DejaVuSans-72" d="M 2631 2963 
Q 2534 3019 2420 3045 
Q 2306 3072 2169 3072 
Q 1681 3072 1420 2755 
Q 1159 2438 1159 1844 
L 1159 0 
L 581 0 
L 581 3500 
L 1159 3500 
L 1159 2956 
Q 1341 3275 1631 3429 
Q 1922 3584 2338 3584 
Q 2397 3584 2469 3576 
Q 2541 3569 2628 3553 
L 2631 2963 
z
" transform="scale(0.015625)"/>
      <path id="DejaVuSans-65" d="M 3597 1894 
L 3597 1613 
L 953 1613 
Q 991 1019 1311 708 
Q 1631 397 2203 397 
Q 2534 397 2845 478 
Q 3156 559 3463 722 
L 3463 178 
Q 3153 47 2828 -22 
Q 2503 -91 2169 -91 
Q 1331 -91 842 396 
Q 353 884 353 1716 
Q 353 2575 817 3079 
Q 1281 3584 2069 3584 
Q 2775 3584 3186 3129 
Q 3597 2675 3597 1894 
z
M 3022 2063 
Q 3016 2534 2758 2815 
Q 2500 3097 2075 3097 
Q 1594 3097 1305 2825 
Q 1016 2553 972 2059 
L 3022 2063 
z
" transform="scale(0.015625)"/>
      <path id="DejaVuSans-6e" d="M 3513 2113 
L 3513 0 
L 2938 0 
L 2938 2094 
Q 2938 2591 2744 2837 
Q 2550 3084 2163 3084 
Q 1697 3084 1428 2787 
Q 1159 2491 1159 1978 
L 1159 0 
L 581 0 
L 581 3500 
L 1159 3500 
L 1159 2956 
Q 1366 3272 1645 3428 
Q 1925 3584 2291 3584 
Q 2894 3584 3203 3211 
Q 3513 2838 3513 2113 
z
" transform="scale(0.015625)"/>
      <path id="DejaVuSans-67" d="M 2906 1791 
Q 2906 2416 2648 2759 
Q 2391 3103 1925 3103 
Q 1463 3103 1205 2759 
Q 947 2416 947 1791 
Q 947 1169 1205 825 
Q 1463 481 1925 481 
Q 2391 481 2648 825 
Q 2906 1169 2906 1791 
z
M 3481 434 
Q 3481 -459 3084 -895 
Q 2688 -1331 1869 -1331 
Q 1566 -1331 1297 -1286 
Q 1028 -1241 775 -1147 
L 775 -588 
Q 1028 -725 1275 -790 
Q 1522 -856 1778 -856 
Q 2344 -856 2625 -561 
Q 2906 -266 2906 331 
L 2906 616 
Q 2728 306 2450 153 
Q 2172 0 1784 0 
Q 1141 0 747 490 
Q 353 981 353 1791 
Q 353 2603 747 3093 
Q 1141 3584 1784 3584 
Q 2172 3584 2450 3431 
Q 2728 3278 2906 2969 
L 2906 3500 
L 3481 3500 
L 3481 434 
z
" transform="scale(0.015625)"/>
      <path id="DejaVuSans-68" d="M 3513 2113 
L 3513 0 
L 2938 0 
L 2938 2094 
Q 2938 2591 2744 2837 
Q 2550 3084 2163 3084 
Q 1697 3084 1428 2787 
Q 1159 2491 1159 1978 
L 1159 0 
L 581 0 
L 581 4863 
L 1159 4863 
L 1159 2956 
Q 1366 3272 1645 3428 
Q 1925 3584 2291 3584 
Q 2894 3584 3203 3211 
Q 3513 2838 3513 2113 
z
" transform="scale(0.015625)"/>
      <path id="DejaVuSans-52" d="M 2841 2188 
Q 3044 2119 3236 1894 
Q 3428 1669 3622 1275 
L 4263 0 
L 3584 0 
L 2988 1197 
Q 2756 1666 2539 1819 
Q 2322 1972 1947 1972 
L 1259 1972 
L 1259 0 
L 628 0 
L 628 4666 
L 2053 4666 
Q 2853 4666 3247 4331 
Q 3641 3997 3641 3322 
Q 3641 2881 3436 2590 
Q 3231 2300 2841 2188 
z
M 1259 4147 
L 1259 2491 
L 2053 2491 
Q 2509 2491 2742 2702 
Q 2975 2913 2975 3322 
Q 2975 3731 2742 3939 
Q 2509 4147 2053 4147 
L 1259 4147 
z
" transform="scale(0.015625)"/>
      <path id="DejaVuSans-61" d="M 2194 1759 
Q 1497 1759 1228 1600 
Q 959 1441 959 1056 
Q 959 750 1161 570 
Q 1363 391 1709 391 
Q 2188 391 2477 730 
Q 2766 1069 2766 1631 
L 2766 1759 
L 2194 1759 
z
M 3341 1997 
L 3341 0 
L 2766 0 
L 2766 531 
Q 2569 213 2275 61 
Q 1981 -91 1556 -91 
Q 1019 -91 701 211 
Q 384 513 384 1019 
Q 384 1609 779 1909 
Q 1175 2209 1959 2209 
L 2766 2209 
L 2766 2266 
Q 2766 2663 2505 2880 
Q 2244 3097 1772 3097 
Q 1472 3097 1187 3025 
Q 903 2953 641 2809 
L 641 3341 
Q 956 3463 1253 3523 
Q 1550 3584 1831 3584 
Q 2591 3584 2966 3190 
Q 3341 2797 3341 1997 
z
" transform="scale(0.015625)"/>
      <path id="DejaVuSans-69" d="M 603 3500 
L 1178 3500 
L 1178 0 
L 603 0 
L 603 3500 
z
M 603 4863 
L 1178 4863 
L 1178 4134 
L 603 4134 
L 603 4863 
z
" transform="scale(0.015625)"/>
      <path id="DejaVuSans-6f" d="M 1959 3097 
Q 1497 3097 1228 2736 
Q 959 2375 959 1747 
Q 959 1119 1226 758 
Q 1494 397 1959 397 
Q 2419 397 2687 759 
Q 2956 1122 2956 1747 
Q 2956 2369 2687 2733 
Q 2419 3097 1959 3097 
z
M 1959 3584 
Q 2709 3584 3137 3096 
Q 3566 2609 3566 1747 
Q 3566 888 3137 398 
Q 2709 -91 1959 -91 
Q 1206 -91 779 398 
Q 353 888 353 1747 
Q 353 2609 779 3096 
Q 1206 3584 1959 3584 
z
" transform="scale(0.015625)"/>
     </defs>
     <use xlink:href="#DejaVuSans-53"/>
     <use xlink:href="#DejaVuSans-74" transform="translate(63.476562 0)"/>
     <use xlink:href="#DejaVuSans-72" transform="translate(102.685547 0)"/>
     <use xlink:href="#DejaVuSans-65" transform="translate(141.548828 0)"/>
     <use xlink:href="#DejaVuSans-6e" transform="translate(203.072266 0)"/>
     <use xlink:href="#DejaVuSans-67" transform="translate(266.451172 0)"/>
     <use xlink:href="#DejaVuSans-74" transform="translate(329.927734 0)"/>
     <use xlink:href="#DejaVuSans-68" transform="translate(369.136719 0)"/>
     <use xlink:href="#DejaVuSans-20" transform="translate(432.515625 0)"/>
     <use xlink:href="#DejaVuSans-52" transform="translate(464.302734 0)"/>
     <use xlink:href="#DejaVuSans-61" transform="translate(531.535156 0)"/>
     <use xlink:href="#DejaVuSans-74" transform="translate(592.814453 0)"/>
     <use xlink:href="#DejaVuSans-69" transform="translate(632.023438 0)"/>
     <use xlink:href="#DejaVuSans-6f" transform="translate(659.806641 0)"/>
    </g>
   </g>
   <g id="text_18">
    <!-- Relative Field Strength in Primed Frame -->
    <g transform="translate(117.470625 16.632938) scale(0.12 -0.12)">
     <defs>
      <path id="DejaVuSans-6c" d="M 603 4863 
L 1178 4863 
L 1178 0 
L 603 0 
L 603 4863 
z
" transform="scale(0.015625)"/>
      <path id="DejaVuSans-76" d="M 191 3500 
L 800 3500 
L 1894 563 
L 2988 3500 
L 3597 3500 
L 2284 0 
L 1503 0 
L 191 3500 
z
" transform="scale(0.015625)"/>
      <path id="DejaVuSans-46" d="M 628 4666 
L 3309 4666 
L 3309 4134 
L 1259 4134 
L 1259 2759 
L 3109 2759 
L 3109 2228 
L 1259 2228 
L 1259 0 
L 628 0 
L 628 4666 
z
" transform="scale(0.015625)"/>
      <path id="DejaVuSans-64" d="M 2906 2969 
L 2906 4863 
L 3481 4863 
L 3481 0 
L 2906 0 
L 2906 525 
Q 2725 213 2448 61 
Q 2172 -91 1784 -91 
Q 1150 -91 751 415 
Q 353 922 353 1747 
Q 353 2572 751 3078 
Q 1150 3584 1784 3584 
Q 2172 3584 2448 3432 
Q 2725 3281 2906 2969 
z
M 947 1747 
Q 947 1113 1208 752 
Q 1469 391 1925 391 
Q 2381 391 2643 752 
Q 2906 1113 2906 1747 
Q 2906 2381 2643 2742 
Q 2381 3103 1925 3103 
Q 1469 3103 1208 2742 
Q 947 2381 947 1747 
z
" transform="scale(0.015625)"/>
      <path id="DejaVuSans-50" d="M 1259 4147 
L 1259 2394 
L 2053 2394 
Q 2494 2394 2734 2622 
Q 2975 2850 2975 3272 
Q 2975 3691 2734 3919 
Q 2494 4147 2053 4147 
L 1259 4147 
z
M 628 4666 
L 2053 4666 
Q 2838 4666 3239 4311 
Q 3641 3956 3641 3272 
Q 3641 2581 3239 2228 
Q 2838 1875 2053 1875 
L 1259 1875 
L 1259 0 
L 628 0 
L 628 4666 
z
" transform="scale(0.015625)"/>
      <path id="DejaVuSans-6d" d="M 3328 2828 
Q 3544 3216 3844 3400 
Q 4144 3584 4550 3584 
Q 5097 3584 5394 3201 
Q 5691 2819 5691 2113 
L 5691 0 
L 5113 0 
L 5113 2094 
Q 5113 2597 4934 2840 
Q 4756 3084 4391 3084 
Q 3944 3084 3684 2787 
Q 3425 2491 3425 1978 
L 3425 0 
L 2847 0 
L 2847 2094 
Q 2847 2600 2669 2842 
Q 2491 3084 2119 3084 
Q 1678 3084 1418 2786 
Q 1159 2488 1159 1978 
L 1159 0 
L 581 0 
L 581 3500 
L 1159 3500 
L 1159 2956 
Q 1356 3278 1631 3431 
Q 1906 3584 2284 3584 
Q 2666 3584 2933 3390 
Q 3200 3197 3328 2828 
z
" transform="scale(0.015625)"/>
     </defs>
     <use xlink:href="#DejaVuSans-52"/>
     <use xlink:href="#DejaVuSans-65" transform="translate(64.982422 0)"/>
     <use xlink:href="#DejaVuSans-6c" transform="translate(126.505859 0)"/>
     <use xlink:href="#DejaVuSans-61" transform="translate(154.289062 0)"/>
     <use xlink:href="#DejaVuSans-74" transform="translate(215.568359 0)"/>
     <use xlink:href="#DejaVuSans-69" transform="translate(254.777344 0)"/>
     <use xlink:href="#DejaVuSans-76" transform="translate(282.560547 0)"/>
     <use xlink:href="#DejaVuSans-65" transform="translate(341.740234 0)"/>
     <use xlink:href="#DejaVuSans-20" transform="translate(403.263672 0)"/>
     <use xlink:href="#DejaVuSans-46" transform="translate(435.050781 0)"/>
     <use xlink:href="#DejaVuSans-69" transform="translate(485.320312 0)"/>
     <use xlink:href="#DejaVuSans-65" transform="translate(513.103516 0)"/>
     <use xlink:href="#DejaVuSans-6c" transform="translate(574.626953 0)"/>
     <use xlink:href="#DejaVuSans-64" transform="translate(602.410156 0)"/>
     <use xlink:href="#DejaVuSans-20" transform="translate(665.886719 0)"/>
     <use xlink:href="#DejaVuSans-53" transform="translate(697.673828 0)"/>
     <use xlink:href="#DejaVuSans-74" transform="translate(761.150391 0)"/>
     <use xlink:href="#DejaVuSans-72" transform="translate(800.359375 0)"/>
     <use xlink:href="#DejaVuSans-65" transform="translate(839.222656 0)"/>
     <use xlink:href="#DejaVuSans-6e" transform="translate(900.746094 0)"/>
     <use xlink:href="#DejaVuSans-67" transform="translate(964.125 0)"/>
     <use xlink:href="#DejaVuSans-74" transform="translate(1027.601562 0)"/>
     <use xlink:href="#DejaVuSans-68" transform="translate(1066.810547 0)"/>
     <use xlink:href="#DejaVuSans-20" transform="translate(1130.189453 0)"/>
     <use xlink:href="#DejaVuSans-69" transform="translate(1161.976562 0)"/>
     <use xlink:href="#DejaVuSans-6e" transform="translate(1189.759766 0)"/>
     <use xlink:href="#DejaVuSans-20" transform="translate(1253.138672 0)"/>
     <use xlink:href="#DejaVuSans-50" transform="translate(1284.925781 0)"/>
     <use xlink:href="#DejaVuSans-72" transform="translate(1343.478516 0)"/>
     <use xlink:href="#DejaVuSans-69" transform="translate(1384.591797 0)"/>
     <use xlink:href="#DejaVuSans-6d" transform="translate(1412.375 0)"/>
     <use xlink:href="#DejaVuSans-65" transform="translate(1509.787109 0)"/>
     <use xlink:href="#DejaVuSans-64" transform="translate(1571.310547 0)"/>
     <use xlink:href="#DejaVuSans-20" transform="translate(1634.787109 0)"/>
     <use xlink:href="#DejaVuSans-46" transform="translate(1666.574219 0)"/>
     <use xlink:href="#DejaVuSans-72" transform="translate(1716.84375 0)"/>
     <use xlink:href="#DejaVuSans-61" transform="translate(1757.957031 0)"/>
     <use xlink:href="#DejaVuSans-6d" transform="translate(1819.236328 0)"/>
     <use xlink:href="#DejaVuSans-65" transform="translate(1916.648438 0)"/>
    </g>
   </g>
  </g>
 </g>
 <defs>
  <clipPath id="p039fa4aec3">
   <path d="M 369.216 174.528 
C 369.216 157.055246 365.774248 139.752393 359.087715 123.609673 
C 352.401182 107.466954 342.599903 92.798303 330.2448 80.4432 
C 317.889697 68.088097 303.221046 58.286818 287.078327 51.600285 
C 270.935607 44.913752 253.632754 41.472 236.16 41.472 
C 218.687246 41.472 201.384393 44.913752 185.241673 51.600285 
C 169.098954 58.286818 154.430303 68.088097 142.0752 80.4432 
C 129.720097 92.798303 119.918818 107.466954 113.232285 123.609673 
C 106.545752 139.752393 103.104 157.055246 103.104 174.528 
C 103.104 192.000754 106.545752 209.303607 113.232285 225.446327 
C 119.918818 241.589046 129.720097 256.257697 142.0752 268.6128 
C 154.430303 280.967903 169.098954 290.769182 185.241673 297.455715 
C 201.384393 304.142248 218.687246 307.584 236.16 307.584 
C 253.632754 307.584 270.935607 304.142248 287.078327 297.455715 
C 303.221046 290.769182 317.889697 280.967903 330.2448 268.6128 
C 342.599903 256.257697 352.401182 241.589046 359.087715 225.446327 
C 365.774248 209.303607 369.216 192.000754 369.216 174.528 
M 236.16 174.528 
C 236.16 174.528 236.16 174.528 236.16 174.528 
C 236.16 174.528 236.16 174.528 236.16 174.528 
C 236.16 174.528 236.16 174.528 236.16 174.528 
C 236.16 174.528 236.16 174.528 236.16 174.528 
C 236.16 174.528 236.16 174.528 236.16 174.528 
C 236.16 174.528 236.16 174.528 236.16 174.528 
C 236.16 174.528 236.16 174.528 236.16 174.528 
C 236.16 174.528 236.16 174.528 236.16 174.528 
C 236.16 174.528 236.16 174.528 236.16 174.528 
C 236.16 174.528 236.16 174.528 236.16 174.528 
C 236.16 174.528 236.16 174.528 236.16 174.528 
C 236.16 174.528 236.16 174.528 236.16 174.528 
C 236.16 174.528 236.16 174.528 236.16 174.528 
C 236.16 174.528 236.16 174.528 236.16 174.528 
C 236.16 174.528 236.16 174.528 236.16 174.528 
C 236.16 174.528 236.16 174.528 236.16 174.528 
z
"/>
  </clipPath>
 </defs>
</svg>
