<?xml version="1.0" encoding="utf-8" standalone="no"?>
<!DOCTYPE svg PUBLIC "-//W3C//DTD SVG 1.1//EN"
  "http://www.w3.org/Graphics/SVG/1.1/DTD/svg11.dtd">
<svg xmlns:xlink="http://www.w3.org/1999/xlink" width="371.52pt" height="280.512pt" viewBox="0 0 371.52 280.512" xmlns="http://www.w3.org/2000/svg" version="1.1">
 <metadata>
  <rdf:RDF xmlns:dc="http://purl.org/dc/elements/1.1/" xmlns:cc="http://creativecommons.org/ns#" xmlns:rdf="http://www.w3.org/1999/02/22-rdf-syntax-ns#">
   <cc:Work>
    <dc:type rdf:resource="http://purl.org/dc/dcmitype/StillImage"/>
    <dc:date>2025-12-26T22:47:07.868307</dc:date>
    <dc:format>image/svg+xml</dc:format>
    <dc:creator>
     <cc:Agent>
      <dc:title>Matplotlib v3.10.8, https://matplotlib.org/</dc:title>
     </cc:Agent>
    </dc:creator>
   </cc:Work>
  </rdf:RDF>
 </metadata>
 <defs>
  <style type="text/css">*{stroke-linejoin: round; stroke-linecap: butt}</style>
 </defs>
 <g id="figure_1">
  <g id="axes_1">
   <g id="Quiver_1">
    <path d="M 186.370426 19.296 
L 186.370426 87.05333 
L 190.643411 85.222051 
L 185.76 92.547167 
L 180.876589 85.222051 
L 185.149574 87.05333 
L 185.149574 19.296 
L 186.370426 19.296 
" clip-path="url(#p0d3edf7849)"/>
    <path d="M 188.850272 19.333591 
L 187.473888 87.07694 
L 191.783191 85.332837 
L 186.751989 92.557244 
L 182.018384 85.13444 
L 186.253287 87.05214 
L 187.629672 19.308791 
L 188.850272 19.333591 
" clip-path="url(#p0d3edf7849)"/>
    <path d="M 191.338062 19.421969 
L 188.580743 87.123173 
L 192.924711 85.467295 
L 187.747256 92.587619 
L 183.165979 85.069844 
L 187.360902 87.073491 
L 190.11822 19.372288 
L 191.338062 19.421969 
" clip-path="url(#p0d3edf7849)"/>
    <path d="M 193.842081 19.562282 
L 189.694678 87.192562 
L 194.071742 85.626265 
L 188.74912 92.638735 
L 184.323233 85.028441 
L 188.476114 87.117834 
L 192.623518 19.487554 
L 193.842081 19.562282 
" clip-path="url(#p0d3edf7849)"/>
    <path d="M 196.370808 19.756451 
L 190.819457 87.285987 
L 195.228113 85.81095 
L 189.760974 92.711343 
L 185.494126 85.010755 
L 189.602709 87.185963 
L 195.15406 19.656427 
L 196.370808 19.756451 
" clip-path="url(#p0d3edf7849)"/>
    <path d="M 198.93301 20.00723 
L 191.958977 87.404697 
L 196.397755 86.022948 
L 190.78633 92.806528 
L 186.682805 85.017682 
L 190.744608 87.279039 
L 197.718641 19.881572 
L 198.93301 20.00723 
" clip-path="url(#p0d3edf7849)"/>
    <path d="M 201.537851 20.31829 
L 193.117304 87.550351 
L 197.584746 86.264294 
L 191.828863 92.925739 
L 187.893638 85.050522 
L 191.905916 87.39863 
L 200.326463 20.166568 
L 201.537851 20.31829 
" clip-path="url(#p0d3edf7849)"/>
    <path d="M 204.195009 20.694335 
L 194.298733 87.72507 
L 198.793363 86.537518 
L 192.892451 93.070839 
L 189.131275 85.111028 
L 193.090972 87.546759 
L 202.987248 20.516024 
L 204.195009 20.694335 
" clip-path="url(#p0d3edf7849)"/>
    <path d="M 206.914795 21.141258 
L 195.507835 87.931504 
L 200.028129 86.84572 
L 193.981232 93.244164 
L 190.400706 85.201474 
L 194.304407 87.725974 
L 205.711367 20.935727 
L 206.914795 21.141258 
" clip-path="url(#p0d3edf7849)"/>
    <path d="M 209.708291 21.666337 
L 196.749523 88.172924 
L 201.293869 87.192668 
L 195.099653 93.448604 
L 191.707334 85.324737 
L 195.551206 87.939432 
L 208.509975 21.432846 
L 209.708291 21.666337 
" clip-path="url(#p0d3edf7849)"/>
    <path d="M 212.587501 22.278495 
L 198.029112 88.453332 
L 202.59577 87.582919 
L 196.252532 93.687703 
L 193.057055 85.484413 
L 196.836773 88.191019 
L 211.395161 22.016182 
L 212.587501 22.278495 
" clip-path="url(#p0d3edf7849)"/>
    <path d="M 215.565506 22.988628 
L 199.352395 88.777615 
L 203.939442 88.021982 
L 197.445125 93.965793 
L 194.456345 85.684958 
L 198.167008 88.485487 
L 214.380118 22.6965 
L 215.565506 22.988628 
" clip-path="url(#p0d3edf7849)"/>
    <path d="M 218.65665 23.810031 
L 200.725718 89.151728 
L 205.330985 88.516516 
L 198.683194 94.288164 
L 195.912362 85.931877 
L 199.54839 88.828648 
L 217.479322 23.486951 
L 218.65665 23.810031 
" clip-path="url(#p0d3edf7849)"/>
    <path d="M 221.876728 24.75894 
L 202.156064 89.582941 
L 206.777055 89.074587 
L 199.973091 94.661278 
L 197.433055 86.231969 
L 200.988064 89.227614 
L 220.708728 24.403613 
L 221.876728 24.75894 
" clip-path="url(#p0d3edf7849)"/>
    <path d="M 225.243189 25.85524 
L 203.651144 90.080152 
L 208.284932 89.706004 
L 201.321835 95.093054 
L 199.027287 86.593637 
L 202.493938 89.691106 
L 224.085984 25.466194 
L 225.243189 25.85524 
" clip-path="url(#p0d3edf7849)"/>
    <path d="M 228.775339 27.123375 
L 205.21948 90.654291 
L 209.862579 90.422744 
L 202.737195 95.593231 
L 200.70497 87.027305 
L 204.074779 90.229861 
L 227.630637 26.698945 
L 228.775339 27.123375 
" clip-path="url(#p0d3edf7849)"/>
    <path d="M 232.494521 28.593547 
L 206.870488 91.318858 
L 211.51868 91.23951 
L 204.227771 96.173847 
L 202.477194 87.545955 
L 205.740302 90.857164 
L 231.364335 28.131852 
L 232.494521 28.593547 
" clip-path="url(#p0d3edf7849)"/>
    <path d="M 236.424256 30.303283 
L 208.61453 92.090619 
L 213.262643 92.174458 
L 205.803045 96.849865 
L 204.356361 88.165849 
L 207.501245 91.589543 
L 235.31097 29.802207 
L 236.424256 30.303283 
" clip-path="url(#p0d3edf7849)"/>
    <path d="M 240.59026 32.299518 
L 210.462921 92.990532 
L 215.104534 93.250157 
L 207.473398 97.640008 
L 206.35628 88.907477 
L 209.369389 92.447697 
L 239.496728 31.756683 
L 240.59026 32.299518 
" clip-path="url(#p0d3edf7849)"/>
    <path d="M 245.020255 34.641361 
L 212.427831 94.044977 
L 217.054882 94.494852 
L 209.250035 98.567861 
L 208.492198 89.796845 
L 211.357496 93.457726 
L 243.949919 34.05411 
L 245.020255 34.641361 
" clip-path="url(#p0d3edf7849)"/>
    <path d="M 249.743375 37.403802 
L 214.52202 95.287408 
L 219.124266 95.944153 
L 211.14476 99.663364 
L 210.780683 90.867201 
L 213.479072 94.652789 
L 248.700427 36.769183 
L 249.743375 37.403802 
" clip-path="url(#p0d3edf7849)"/>
    <path d="M 254.788865 40.682701 
L 216.758234 96.760565 
L 221.322531 97.643275 
L 213.169464 100.9648 
L 213.239235 92.161382 
L 215.747822 96.075328 
L 253.778453 39.997464 
L 254.788865 40.682701 
" clip-path="url(#p0d3edf7849)"/>
    <path d="M 260.183525 44.601493 
L 219.148058 98.519452 
L 223.657357 99.650032 
L 215.335111 102.521489 
L 215.885399 93.73501 
L 218.176564 97.780074 
L 259.21203 43.862116 
L 260.183525 44.601493 
" clip-path="url(#p0d3edf7849)"/>
    <path d="M 265.946942 49.3202 
L 221.699765 100.635335 
L 226.131724 102.038802 
L 217.649858 104.397398 
L 218.734948 95.66083 
L 220.775168 99.838088 
L 265.022345 48.522954 
L 265.946942 49.3202 
" clip-path="url(#p0d3edf7849)"/>
    <path d="M 272.082906 55.04737 
L 224.414461 103.201032 
L 228.739515 104.905699 
L 220.115636 106.675937 
L 221.798447 98.034572 
L 223.546828 102.342141 
L 271.215272 54.188479 
L 272.082906 55.04737 
" clip-path="url(#p0d3edf7849)"/>
    <path d="M 278.564142 62.055501 
L 227.279255 106.337732 
L 231.457906 108.375097 
L 222.722081 109.466157 
L 225.074881 100.982681 
L 226.481376 105.41368 
L 277.766264 61.131449 
L 278.564142 62.055501 
" clip-path="url(#p0d3edf7849)"/>
    <path d="M 285.305562 70.699817 
L 230.255292 110.20328 
L 234.234347 112.607257 
L 225.43587 112.910315 
L 228.540154 104.672083 
L 229.543518 109.211383 
L 284.593788 69.70792 
L 285.305562 70.699817 
" clip-path="url(#p0d3edf7849)"/>
    <path d="M 292.117925 81.438141 
L 233.25709 115.000887 
L 236.964493 117.80573 
L 228.182223 117.191913 
L 232.12662 109.321285 
L 232.652356 113.940331 
L 291.513191 80.377586 
L 292.117925 81.438141 
" clip-path="url(#p0d3edf7849)"/>
    <path d="M 298.629239 94.843952 
L 236.117515 120.984727 
L 239.455539 124.2204 
L 230.813495 122.54108 
L 235.687499 115.209701 
L 235.64651 119.858389 
L 298.158234 93.717614 
L 298.629239 94.843952 
" clip-path="url(#p0d3edf7849)"/>
    <path d="M 304.156533 111.591198 
L 238.530765 128.452822 
L 241.36778 132.135664 
L 233.057851 129.228757 
L 238.937276 122.676094 
L 238.226952 127.270375 
L 303.85272 110.408751 
L 304.156533 111.591198 
" clip-path="url(#p0d3edf7849)"/>
    <path d="M 307.513092 132.360609 
L 239.966847 137.704812 
L 242.129443 141.820047 
L 234.441978 137.529601 
L 241.359107 132.083652 
L 239.870555 136.487763 
L 307.4168 131.14356 
L 307.513092 132.360609 
" clip-path="url(#p0d3edf7849)"/>
    <path d="M 306.769195 157.566538 
L 239.565858 148.919736 
L 240.83687 153.391482 
L 234.194838 147.613208 
L 242.083256 143.704514 
L 239.721656 147.708865 
L 306.924993 156.355667 
L 306.769195 157.566538 
" clip-path="url(#p0d3edf7849)"/>
    <path d="M 299.103263 186.751894 
L 236.073424 161.886352 
L 236.208836 166.533248 
L 231.186911 159.30239 
L 239.793058 157.447866 
L 236.521452 160.750679 
L 299.551291 185.616221 
L 299.103263 186.751894 
" clip-path="url(#p0d3edf7849)"/>
    <path d="M 281.1493 217.578847 
L 227.998119 175.554953 
L 226.784482 180.04261 
L 224.067157 171.66877 
L 232.84198 172.381178 
L 228.755306 174.597274 
L 281.906487 216.621168 
L 281.1493 217.578847 
" clip-path="url(#p0d3edf7849)"/>
    <path d="M 250.50966 244.883306 
L 214.287286 187.620793 
L 211.65512 191.452722 
L 211.866215 182.651558 
L 219.909175 186.231479 
L 215.319043 186.968137 
L 251.541417 244.23065 
L 250.50966 244.883306 
" clip-path="url(#p0d3edf7849)"/>
    <path d="M 208.494384 261.332668 
L 195.54426 194.824398 
L 191.700048 197.438593 
L 195.093423 189.315167 
L 201.286826 195.571908 
L 196.742607 194.591062 
L 209.692732 261.099332 
L 208.494384 261.332668 
" clip-path="url(#p0d3edf7849)"/>
    <path d="M 161.827268 261.099332 
L 174.777393 194.591062 
L 170.233174 195.571908 
L 176.426577 189.315167 
L 179.819952 197.438593 
L 175.97574 194.824398 
L 163.025616 261.332668 
L 161.827268 261.099332 
" clip-path="url(#p0d3edf7849)"/>
    <path d="M 119.978583 244.23065 
L 156.200957 186.968137 
L 151.610825 186.231479 
L 159.653785 182.651558 
L 159.86488 191.452722 
L 157.232714 187.620793 
L 121.01034 244.883306 
L 119.978583 244.23065 
" clip-path="url(#p0d3edf7849)"/>
    <path d="M 89.613513 216.621168 
L 142.764694 174.597274 
L 138.67802 172.381178 
L 147.452843 171.66877 
L 144.735518 180.04261 
L 143.521881 175.554953 
L 90.3707 217.578847 
L 89.613513 216.621168 
" clip-path="url(#p0d3edf7849)"/>
    <path d="M 71.968709 185.616221 
L 134.998548 160.750679 
L 131.726942 157.447866 
L 140.333089 159.30239 
L 135.311164 166.533248 
L 135.446576 161.886352 
L 72.416737 186.751894 
L 71.968709 185.616221 
" clip-path="url(#p0d3edf7849)"/>
    <path d="M 64.595007 156.355667 
L 131.798344 147.708865 
L 129.436744 143.704514 
L 137.325162 147.613208 
L 130.68313 153.391482 
L 131.954142 148.919736 
L 64.750805 157.566538 
L 64.595007 156.355667 
" clip-path="url(#p0d3edf7849)"/>
    <path d="M 64.1032 131.14356 
L 131.649445 136.487763 
L 130.160893 132.083652 
L 137.078022 137.529601 
L 129.390557 141.820047 
L 131.553153 137.704812 
L 64.006908 132.360609 
L 64.1032 131.14356 
" clip-path="url(#p0d3edf7849)"/>
    <path d="M 67.66728 110.408751 
L 133.293048 127.270375 
L 132.582724 122.676094 
L 138.462149 129.228757 
L 130.15222 132.135664 
L 132.989235 128.452822 
L 67.363467 111.591198 
L 67.66728 110.408751 
" clip-path="url(#p0d3edf7849)"/>
    <path d="M 73.361766 93.717614 
L 135.87349 119.858389 
L 135.832501 115.209701 
L 140.706505 122.54108 
L 132.064461 124.2204 
L 135.402485 120.984727 
L 72.890761 94.843952 
L 73.361766 93.717614 
" clip-path="url(#p0d3edf7849)"/>
    <path d="M 80.006809 80.377586 
L 138.867644 113.940331 
L 139.39338 109.321285 
L 143.337777 117.191913 
L 134.555507 117.80573 
L 138.26291 115.000887 
L 79.402075 81.438141 
L 80.006809 80.377586 
" clip-path="url(#p0d3edf7849)"/>
    <path d="M 86.926212 69.70792 
L 141.976482 109.211383 
L 142.979846 104.672083 
L 146.08413 112.910315 
L 137.285653 112.607257 
L 141.264708 110.20328 
L 86.214438 70.699817 
L 86.926212 69.70792 
" clip-path="url(#p0d3edf7849)"/>
    <path d="M 93.753736 61.131449 
L 145.038624 105.41368 
L 146.445119 100.982681 
L 148.797919 109.466157 
L 140.062094 108.375097 
L 144.240745 106.337732 
L 92.955858 62.055501 
L 93.753736 61.131449 
" clip-path="url(#p0d3edf7849)"/>
    <path d="M 100.304728 54.188479 
L 147.973172 102.342141 
L 149.721553 98.034572 
L 151.404364 106.675937 
L 142.780485 104.905699 
L 147.105539 103.201032 
L 99.437094 55.04737 
L 100.304728 54.188479 
" clip-path="url(#p0d3edf7849)"/>
    <path d="M 106.497655 48.522954 
L 150.744832 99.838088 
L 152.785052 95.66083 
L 153.870142 104.397398 
L 145.388276 102.038802 
L 149.820235 100.635335 
L 105.573058 49.3202 
L 106.497655 48.522954 
" clip-path="url(#p0d3edf7849)"/>
    <path d="M 112.30797 43.862116 
L 153.343436 97.780074 
L 155.634601 93.73501 
L 156.184889 102.521489 
L 147.862643 99.650032 
L 152.371942 98.519452 
L 111.336475 44.601493 
L 112.30797 43.862116 
" clip-path="url(#p0d3edf7849)"/>
    <path d="M 117.741547 39.997464 
L 155.772178 96.075328 
L 158.280765 92.161382 
L 158.350536 100.9648 
L 150.197469 97.643275 
L 154.761766 96.760565 
L 116.731135 40.682701 
L 117.741547 39.997464 
" clip-path="url(#p0d3edf7849)"/>
    <path d="M 122.819573 36.769183 
L 158.040928 94.652789 
L 160.739317 90.867201 
L 160.37524 99.663364 
L 152.395734 95.944153 
L 156.99798 95.287408 
L 121.776625 37.403802 
L 122.819573 36.769183 
" clip-path="url(#p0d3edf7849)"/>
    <path d="M 127.570081 34.05411 
L 160.162504 93.457726 
L 163.027802 89.796845 
L 162.269965 98.567861 
L 154.465118 94.494852 
L 159.092169 94.044977 
L 126.499745 34.641361 
L 127.570081 34.05411 
" clip-path="url(#p0d3edf7849)"/>
    <path d="M 132.023272 31.756683 
L 162.150611 92.447697 
L 165.16372 88.907477 
L 164.046602 97.640008 
L 156.415466 93.250157 
L 161.057079 92.990532 
L 130.92974 32.299518 
L 132.023272 31.756683 
" clip-path="url(#p0d3edf7849)"/>
    <path d="M 136.20903 29.802207 
L 164.018755 91.589543 
L 167.163639 88.165849 
L 165.716955 96.849865 
L 158.257357 92.174458 
L 162.90547 92.090619 
L 135.095744 30.303283 
L 136.20903 29.802207 
" clip-path="url(#p0d3edf7849)"/>
    <path d="M 140.155665 28.131852 
L 165.779698 90.857164 
L 169.042806 87.545955 
L 167.292229 96.173847 
L 160.00132 91.23951 
L 164.649512 91.318858 
L 139.025479 28.593547 
L 140.155665 28.131852 
" clip-path="url(#p0d3edf7849)"/>
    <path d="M 143.889363 26.698945 
L 167.445221 90.229861 
L 170.81503 87.027305 
L 168.782805 95.593231 
L 161.657421 90.422744 
L 166.30052 90.654291 
L 142.744661 27.123375 
L 143.889363 26.698945 
" clip-path="url(#p0d3edf7849)"/>
    <path d="M 147.434016 25.466194 
L 169.026062 89.691106 
L 172.492713 86.593637 
L 170.198165 95.093054 
L 163.235068 89.706004 
L 167.868856 90.080152 
L 146.276811 25.85524 
L 147.434016 25.466194 
" clip-path="url(#p0d3edf7849)"/>
    <path d="M 150.811272 24.403613 
L 170.531936 89.227614 
L 174.086945 86.231969 
L 171.546909 94.661278 
L 164.742945 89.074587 
L 169.363936 89.582941 
L 149.643272 24.75894 
L 150.811272 24.403613 
" clip-path="url(#p0d3edf7849)"/>
    <path d="M 154.040678 23.486951 
L 171.97161 88.828648 
L 175.607638 85.931877 
L 172.836806 94.288164 
L 166.189015 88.516516 
L 170.794282 89.151728 
L 152.86335 23.810031 
L 154.040678 23.486951 
" clip-path="url(#p0d3edf7849)"/>
    <path d="M 157.139882 22.6965 
L 173.352992 88.485487 
L 177.063655 85.684958 
L 174.074875 93.965793 
L 167.580558 88.021982 
L 172.167605 88.777615 
L 155.954494 22.988628 
L 157.139882 22.6965 
" clip-path="url(#p0d3edf7849)"/>
    <path d="M 160.124839 22.016182 
L 174.683227 88.191019 
L 178.462945 85.484413 
L 175.267468 93.687703 
L 168.92423 87.582919 
L 173.490888 88.453332 
L 158.932499 22.278495 
L 160.124839 22.016182 
" clip-path="url(#p0d3edf7849)"/>
    <path d="M 163.010025 21.432846 
L 175.968794 87.939432 
L 179.812666 85.324737 
L 176.420347 93.448604 
L 170.226131 87.192668 
L 174.770477 88.172924 
L 161.811709 21.666337 
L 163.010025 21.432846 
" clip-path="url(#p0d3edf7849)"/>
    <path d="M 165.808633 20.935727 
L 177.215593 87.725974 
L 181.119294 85.201474 
L 177.538768 93.244164 
L 171.491871 86.84572 
L 176.012165 87.931504 
L 164.605205 21.141258 
L 165.808633 20.935727 
" clip-path="url(#p0d3edf7849)"/>
    <path d="M 168.532752 20.516024 
L 178.429028 87.546759 
L 182.388725 85.111028 
L 178.627549 93.070839 
L 172.726637 86.537518 
L 177.221267 87.72507 
L 167.324991 20.694335 
L 168.532752 20.516024 
" clip-path="url(#p0d3edf7849)"/>
    <path d="M 171.193537 20.166568 
L 179.614084 87.39863 
L 183.626362 85.050522 
L 179.691137 92.925739 
L 173.935254 86.264294 
L 178.402696 87.550351 
L 169.982149 20.31829 
L 171.193537 20.166568 
" clip-path="url(#p0d3edf7849)"/>
    <path d="M 173.801359 19.881572 
L 180.775392 87.279039 
L 184.837195 85.017682 
L 180.73367 92.806528 
L 175.122245 86.022948 
L 179.561023 87.404697 
L 172.58699 20.00723 
L 173.801359 19.881572 
" clip-path="url(#p0d3edf7849)"/>
    <path d="M 176.36594 19.656427 
L 181.917291 87.185963 
L 186.025874 85.010755 
L 181.759026 92.711343 
L 176.291887 85.81095 
L 180.700543 87.285987 
L 175.149192 19.756451 
L 176.36594 19.656427 
" clip-path="url(#p0d3edf7849)"/>
    <path d="M 178.896482 19.487554 
L 183.043886 87.117834 
L 187.196767 85.028441 
L 182.77088 92.638735 
L 177.448258 85.626265 
L 181.825322 87.192562 
L 177.677919 19.562282 
L 178.896482 19.487554 
" clip-path="url(#p0d3edf7849)"/>
    <path d="M 181.40178 19.372288 
L 184.159098 87.073491 
L 188.354021 85.069844 
L 183.772744 92.587619 
L 178.595289 85.467295 
L 182.939257 87.123173 
L 180.181938 19.421969 
L 181.40178 19.372288 
" clip-path="url(#p0d3edf7849)"/>
    <path d="M 183.890328 19.308791 
L 185.266713 87.05214 
L 189.501616 85.13444 
L 184.768011 92.557244 
L 179.736809 85.332837 
L 184.046112 87.07694 
L 182.669728 19.333591 
L 183.890328 19.308791 
" clip-path="url(#p0d3edf7849)"/>
   </g>
   <g id="Quiver_2">
    <path d="M 187.5456 141.381279 
L 187.5456 235.18763 
L 194.688 236.97323 
L 185.76 251.25803 
L 176.832 236.97323 
L 183.9744 235.18763 
L 183.9744 141.381279 
L 187.5456 141.381279 
" clip-path="url(#p0d3edf7849)" style="fill: #ff0000"/>
   </g>
   <g id="line2d_1">
    <defs>
     <path id="m92cac7c96b" d="M 0 1.5 
C 0.397805 1.5 0.77937 1.341951 1.06066 1.06066 
C 1.341951 0.77937 1.5 0.397805 1.5 0 
C 1.5 -0.397805 1.341951 -0.77937 1.06066 -1.06066 
C 0.77937 -1.341951 0.397805 -1.5 0 -1.5 
C -0.397805 -1.5 -0.77937 -1.341951 -1.06066 -1.06066 
C -1.341951 -0.77937 -1.5 -0.397805 -1.5 0 
C -1.5 0.397805 -1.341951 0.77937 -1.06066 1.06066 
C -0.77937 1.341951 -0.397805 1.5 0 1.5 
z
" style="stroke: #1f77b4; stroke-opacity: 0"/>
    </defs>
    <g clip-path="url(#p0d3edf7849)">
     <use xlink:href="#m92cac7c96b" x="185.76" y="19.296" style="fill: #1f77b4; fill-opacity: 0; stroke: #1f77b4; stroke-opacity: 0"/>
     <use xlink:href="#m92cac7c96b" x="188.239972" y="19.321191" style="fill: #1f77b4; fill-opacity: 0; stroke: #1f77b4; stroke-opacity: 0"/>
     <use xlink:href="#m92cac7c96b" x="190.728141" y="19.397129" style="fill: #1f77b4; fill-opacity: 0; stroke: #1f77b4; stroke-opacity: 0"/>
     <use xlink:href="#m92cac7c96b" x="193.232799" y="19.524918" style="fill: #1f77b4; fill-opacity: 0; stroke: #1f77b4; stroke-opacity: 0"/>
     <use xlink:href="#m92cac7c96b" x="195.762434" y="19.706439" style="fill: #1f77b4; fill-opacity: 0; stroke: #1f77b4; stroke-opacity: 0"/>
     <use xlink:href="#m92cac7c96b" x="198.325825" y="19.944401" style="fill: #1f77b4; fill-opacity: 0; stroke: #1f77b4; stroke-opacity: 0"/>
     <use xlink:href="#m92cac7c96b" x="200.932157" y="20.242429" style="fill: #1f77b4; fill-opacity: 0; stroke: #1f77b4; stroke-opacity: 0"/>
     <use xlink:href="#m92cac7c96b" x="203.591128" y="20.605179" style="fill: #1f77b4; fill-opacity: 0; stroke: #1f77b4; stroke-opacity: 0"/>
     <use xlink:href="#m92cac7c96b" x="206.313081" y="21.038493" style="fill: #1f77b4; fill-opacity: 0; stroke: #1f77b4; stroke-opacity: 0"/>
     <use xlink:href="#m92cac7c96b" x="209.109133" y="21.549591" style="fill: #1f77b4; fill-opacity: 0; stroke: #1f77b4; stroke-opacity: 0"/>
     <use xlink:href="#m92cac7c96b" x="211.991331" y="22.147338" style="fill: #1f77b4; fill-opacity: 0; stroke: #1f77b4; stroke-opacity: 0"/>
     <use xlink:href="#m92cac7c96b" x="214.972812" y="22.842564" style="fill: #1f77b4; fill-opacity: 0; stroke: #1f77b4; stroke-opacity: 0"/>
     <use xlink:href="#m92cac7c96b" x="218.067986" y="23.648491" style="fill: #1f77b4; fill-opacity: 0; stroke: #1f77b4; stroke-opacity: 0"/>
     <use xlink:href="#m92cac7c96b" x="221.292728" y="24.581276" style="fill: #1f77b4; fill-opacity: 0; stroke: #1f77b4; stroke-opacity: 0"/>
     <use xlink:href="#m92cac7c96b" x="224.664587" y="25.660717" style="fill: #1f77b4; fill-opacity: 0; stroke: #1f77b4; stroke-opacity: 0"/>
     <use xlink:href="#m92cac7c96b" x="228.202988" y="26.91116" style="fill: #1f77b4; fill-opacity: 0; stroke: #1f77b4; stroke-opacity: 0"/>
     <use xlink:href="#m92cac7c96b" x="231.929428" y="28.3627" style="fill: #1f77b4; fill-opacity: 0; stroke: #1f77b4; stroke-opacity: 0"/>
     <use xlink:href="#m92cac7c96b" x="235.867613" y="30.052745" style="fill: #1f77b4; fill-opacity: 0; stroke: #1f77b4; stroke-opacity: 0"/>
     <use xlink:href="#m92cac7c96b" x="240.043494" y="32.028101" style="fill: #1f77b4; fill-opacity: 0; stroke: #1f77b4; stroke-opacity: 0"/>
     <use xlink:href="#m92cac7c96b" x="244.485087" y="34.347735" style="fill: #1f77b4; fill-opacity: 0; stroke: #1f77b4; stroke-opacity: 0"/>
     <use xlink:href="#m92cac7c96b" x="249.221901" y="37.086492" style="fill: #1f77b4; fill-opacity: 0; stroke: #1f77b4; stroke-opacity: 0"/>
     <use xlink:href="#m92cac7c96b" x="254.283659" y="40.340082" style="fill: #1f77b4; fill-opacity: 0; stroke: #1f77b4; stroke-opacity: 0"/>
     <use xlink:href="#m92cac7c96b" x="259.697777" y="44.231804" style="fill: #1f77b4; fill-opacity: 0; stroke: #1f77b4; stroke-opacity: 0"/>
     <use xlink:href="#m92cac7c96b" x="265.484644" y="48.921577" style="fill: #1f77b4; fill-opacity: 0; stroke: #1f77b4; stroke-opacity: 0"/>
     <use xlink:href="#m92cac7c96b" x="271.649089" y="54.617924" style="fill: #1f77b4; fill-opacity: 0; stroke: #1f77b4; stroke-opacity: 0"/>
     <use xlink:href="#m92cac7c96b" x="278.165203" y="61.593475" style="fill: #1f77b4; fill-opacity: 0; stroke: #1f77b4; stroke-opacity: 0"/>
     <use xlink:href="#m92cac7c96b" x="284.949675" y="70.203869" style="fill: #1f77b4; fill-opacity: 0; stroke: #1f77b4; stroke-opacity: 0"/>
     <use xlink:href="#m92cac7c96b" x="291.815558" y="80.907863" style="fill: #1f77b4; fill-opacity: 0; stroke: #1f77b4; stroke-opacity: 0"/>
     <use xlink:href="#m92cac7c96b" x="298.393736" y="94.280783" style="fill: #1f77b4; fill-opacity: 0; stroke: #1f77b4; stroke-opacity: 0"/>
     <use xlink:href="#m92cac7c96b" x="304.004626" y="110.999975" style="fill: #1f77b4; fill-opacity: 0; stroke: #1f77b4; stroke-opacity: 0"/>
     <use xlink:href="#m92cac7c96b" x="307.464946" y="131.752085" style="fill: #1f77b4; fill-opacity: 0; stroke: #1f77b4; stroke-opacity: 0"/>
     <use xlink:href="#m92cac7c96b" x="306.847094" y="156.961103" style="fill: #1f77b4; fill-opacity: 0; stroke: #1f77b4; stroke-opacity: 0"/>
     <use xlink:href="#m92cac7c96b" x="299.327277" y="186.184058" style="fill: #1f77b4; fill-opacity: 0; stroke: #1f77b4; stroke-opacity: 0"/>
     <use xlink:href="#m92cac7c96b" x="281.527893" y="217.100008" style="fill: #1f77b4; fill-opacity: 0; stroke: #1f77b4; stroke-opacity: 0"/>
     <use xlink:href="#m92cac7c96b" x="251.025538" y="244.556978" style="fill: #1f77b4; fill-opacity: 0; stroke: #1f77b4; stroke-opacity: 0"/>
     <use xlink:href="#m92cac7c96b" x="209.093558" y="261.216" style="fill: #1f77b4; fill-opacity: 0; stroke: #1f77b4; stroke-opacity: 0"/>
     <use xlink:href="#m92cac7c96b" x="162.426442" y="261.216" style="fill: #1f77b4; fill-opacity: 0; stroke: #1f77b4; stroke-opacity: 0"/>
     <use xlink:href="#m92cac7c96b" x="120.494462" y="244.556978" style="fill: #1f77b4; fill-opacity: 0; stroke: #1f77b4; stroke-opacity: 0"/>
     <use xlink:href="#m92cac7c96b" x="89.992107" y="217.100008" style="fill: #1f77b4; fill-opacity: 0; stroke: #1f77b4; stroke-opacity: 0"/>
     <use xlink:href="#m92cac7c96b" x="72.192723" y="186.184058" style="fill: #1f77b4; fill-opacity: 0; stroke: #1f77b4; stroke-opacity: 0"/>
     <use xlink:href="#m92cac7c96b" x="64.672906" y="156.961103" style="fill: #1f77b4; fill-opacity: 0; stroke: #1f77b4; stroke-opacity: 0"/>
     <use xlink:href="#m92cac7c96b" x="64.055054" y="131.752085" style="fill: #1f77b4; fill-opacity: 0; stroke: #1f77b4; stroke-opacity: 0"/>
     <use xlink:href="#m92cac7c96b" x="67.515374" y="110.999975" style="fill: #1f77b4; fill-opacity: 0; stroke: #1f77b4; stroke-opacity: 0"/>
     <use xlink:href="#m92cac7c96b" x="73.126264" y="94.280783" style="fill: #1f77b4; fill-opacity: 0; stroke: #1f77b4; stroke-opacity: 0"/>
     <use xlink:href="#m92cac7c96b" x="79.704442" y="80.907863" style="fill: #1f77b4; fill-opacity: 0; stroke: #1f77b4; stroke-opacity: 0"/>
     <use xlink:href="#m92cac7c96b" x="86.570325" y="70.203869" style="fill: #1f77b4; fill-opacity: 0; stroke: #1f77b4; stroke-opacity: 0"/>
     <use xlink:href="#m92cac7c96b" x="93.354797" y="61.593475" style="fill: #1f77b4; fill-opacity: 0; stroke: #1f77b4; stroke-opacity: 0"/>
     <use xlink:href="#m92cac7c96b" x="99.870911" y="54.617924" style="fill: #1f77b4; fill-opacity: 0; stroke: #1f77b4; stroke-opacity: 0"/>
     <use xlink:href="#m92cac7c96b" x="106.035356" y="48.921577" style="fill: #1f77b4; fill-opacity: 0; stroke: #1f77b4; stroke-opacity: 0"/>
     <use xlink:href="#m92cac7c96b" x="111.822223" y="44.231804" style="fill: #1f77b4; fill-opacity: 0; stroke: #1f77b4; stroke-opacity: 0"/>
     <use xlink:href="#m92cac7c96b" x="117.236341" y="40.340082" style="fill: #1f77b4; fill-opacity: 0; stroke: #1f77b4; stroke-opacity: 0"/>
     <use xlink:href="#m92cac7c96b" x="122.298099" y="37.086492" style="fill: #1f77b4; fill-opacity: 0; stroke: #1f77b4; stroke-opacity: 0"/>
     <use xlink:href="#m92cac7c96b" x="127.034913" y="34.347735" style="fill: #1f77b4; fill-opacity: 0; stroke: #1f77b4; stroke-opacity: 0"/>
     <use xlink:href="#m92cac7c96b" x="131.476506" y="32.028101" style="fill: #1f77b4; fill-opacity: 0; stroke: #1f77b4; stroke-opacity: 0"/>
     <use xlink:href="#m92cac7c96b" x="135.652387" y="30.052745" style="fill: #1f77b4; fill-opacity: 0; stroke: #1f77b4; stroke-opacity: 0"/>
     <use xlink:href="#m92cac7c96b" x="139.590572" y="28.3627" style="fill: #1f77b4; fill-opacity: 0; stroke: #1f77b4; stroke-opacity: 0"/>
     <use xlink:href="#m92cac7c96b" x="143.317012" y="26.91116" style="fill: #1f77b4; fill-opacity: 0; stroke: #1f77b4; stroke-opacity: 0"/>
     <use xlink:href="#m92cac7c96b" x="146.855413" y="25.660717" style="fill: #1f77b4; fill-opacity: 0; stroke: #1f77b4; stroke-opacity: 0"/>
     <use xlink:href="#m92cac7c96b" x="150.227272" y="24.581276" style="fill: #1f77b4; fill-opacity: 0; stroke: #1f77b4; stroke-opacity: 0"/>
     <use xlink:href="#m92cac7c96b" x="153.452014" y="23.648491" style="fill: #1f77b4; fill-opacity: 0; stroke: #1f77b4; stroke-opacity: 0"/>
     <use xlink:href="#m92cac7c96b" x="156.547188" y="22.842564" style="fill: #1f77b4; fill-opacity: 0; stroke: #1f77b4; stroke-opacity: 0"/>
     <use xlink:href="#m92cac7c96b" x="159.528669" y="22.147338" style="fill: #1f77b4; fill-opacity: 0; stroke: #1f77b4; stroke-opacity: 0"/>
     <use xlink:href="#m92cac7c96b" x="162.410867" y="21.549591" style="fill: #1f77b4; fill-opacity: 0; stroke: #1f77b4; stroke-opacity: 0"/>
     <use xlink:href="#m92cac7c96b" x="165.206919" y="21.038493" style="fill: #1f77b4; fill-opacity: 0; stroke: #1f77b4; stroke-opacity: 0"/>
     <use xlink:href="#m92cac7c96b" x="167.928872" y="20.605179" style="fill: #1f77b4; fill-opacity: 0; stroke: #1f77b4; stroke-opacity: 0"/>
     <use xlink:href="#m92cac7c96b" x="170.587843" y="20.242429" style="fill: #1f77b4; fill-opacity: 0; stroke: #1f77b4; stroke-opacity: 0"/>
     <use xlink:href="#m92cac7c96b" x="173.194175" y="19.944401" style="fill: #1f77b4; fill-opacity: 0; stroke: #1f77b4; stroke-opacity: 0"/>
     <use xlink:href="#m92cac7c96b" x="175.757566" y="19.706439" style="fill: #1f77b4; fill-opacity: 0; stroke: #1f77b4; stroke-opacity: 0"/>
     <use xlink:href="#m92cac7c96b" x="178.287201" y="19.524918" style="fill: #1f77b4; fill-opacity: 0; stroke: #1f77b4; stroke-opacity: 0"/>
     <use xlink:href="#m92cac7c96b" x="180.791859" y="19.397129" style="fill: #1f77b4; fill-opacity: 0; stroke: #1f77b4; stroke-opacity: 0"/>
     <use xlink:href="#m92cac7c96b" x="183.280028" y="19.321191" style="fill: #1f77b4; fill-opacity: 0; stroke: #1f77b4; stroke-opacity: 0"/>
    </g>
   </g>
  </g>
 </g>
 <defs>
  <clipPath id="p0d3edf7849">
   <rect x="7.2" y="7.2" width="357.12" height="266.112"/>
  </clipPath>
 </defs>
</svg>
