<?xml version="1.0" encoding="utf-8" standalone="no"?>
<!DOCTYPE svg PUBLIC "-//W3C//DTD SVG 1.1//EN"
  "http://www.w3.org/Graphics/SVG/1.1/DTD/svg11.dtd">
<svg xmlns:xlink="http://www.w3.org/1999/xlink" width="475.2pt" height="360pt" viewBox="0 0 475.2 360" xmlns="http://www.w3.org/2000/svg" version="1.1">
 <metadata>
  <rdf:RDF xmlns:dc="http://purl.org/dc/elements/1.1/" xmlns:cc="http://creativecommons.org/ns#" xmlns:rdf="http://www.w3.org/1999/02/22-rdf-syntax-ns#">
   <cc:Work>
    <dc:type rdf:resource="http://purl.org/dc/dcmitype/StillImage"/>
    <dc:date>2025-12-26T22:47:07.662080</dc:date>
    <dc:format>image/svg+xml</dc:format>
    <dc:creator>
     <cc:Agent>
      <dc:title>Matplotlib v3.10.8, https://matplotlib.org/</dc:title>
     </cc:Agent>
    </dc:creator>
   </cc:Work>
  </rdf:RDF>
 </metadata>
 <defs>
  <style type="text/css">*{stroke-linejoin: round; stroke-linecap: butt}</style>
 </defs>
 <g id="figure_1">
  <g id="axes_1">
   <g id="Quiver_1">
    <path d="M 236.736 180 
L 236.736 17.568 
L 232.416 17.568 
L 237.6 7.2 
L 242.784 17.568 
L 238.464 17.568 
L 238.464 180 
L 236.736 180 
" clip-path="url(#p621b4ea420)"/>
    <path d="M 236.736178 179.982449 
L 240.035731 17.583965 
L 235.716622 17.496211 
L 241.110162 7.235655 
L 246.082483 17.706821 
L 241.763374 17.619067 
L 238.463822 180.017551 
L 236.736178 179.982449 
" clip-path="url(#p621b4ea420)"/>
    <path d="M 236.736716 179.96484 
L 243.346727 17.66739 
L 239.030305 17.491592 
L 244.631927 7.343138 
L 249.389717 17.913507 
L 245.073295 17.737709 
L 238.463284 180.03516 
L 236.736716 179.96484 
" clip-path="url(#p621b4ea420)"/>
    <path d="M 236.73762 179.947115 
L 246.680029 17.819686 
L 242.368129 17.55526 
L 248.177031 7.524012 
L 252.716689 18.189882 
L 248.404789 17.925456 
L 238.46238 180.052885 
L 236.73762 179.947115 
" clip-path="url(#p621b4ea420)"/>
    <path d="M 236.738905 179.929213 
L 250.046941 18.043294 
L 245.741465 17.689356 
L 251.757486 7.780937 
L 256.074608 18.538806 
L 251.769132 18.184868 
L 238.461095 180.070787 
L 236.738905 179.929213 
" clip-path="url(#p621b4ea420)"/>
    <path d="M 236.740589 179.911071 
L 253.459166 18.341756 
L 249.16211 17.897113 
L 255.38572 8.117749 
L 259.475045 18.964256 
L 255.177988 18.519613 
L 238.459411 180.088929 
L 236.740589 179.911071 
" clip-path="url(#p621b4ea420)"/>
    <path d="M 236.742698 179.892626 
L 256.928946 18.719831 
L 252.642436 18.182963 
L 259.074732 8.539579 
L 262.930061 19.471447 
L 258.643551 18.934578 
L 238.457302 180.107374 
L 236.742698 179.892626 
" clip-path="url(#p621b4ea420)"/>
    <path d="M 236.745265 179.873809 
L 260.469221 19.183646 
L 256.195547 18.552689 
L 262.838251 9.053018 
L 266.452366 20.066984 
L 262.178691 19.436028 
L 238.454735 180.126191 
L 236.745265 179.873809 
" clip-path="url(#p621b4ea420)"/>
    <path d="M 236.748332 179.854545 
L 264.093791 19.740897 
L 259.835449 19.013624 
L 266.690914 9.666331 
L 270.055469 20.759079 
L 265.797127 20.031806 
L 238.451668 180.145455 
L 236.748332 179.854545 
" clip-path="url(#p621b4ea420)"/>
    <path d="M 236.751949 179.834758 
L 267.817499 20.401116 
L 263.577243 19.574904 
L 270.648458 10.389743 
L 273.753858 21.557812 
L 269.513602 20.7316 
L 238.448051 180.165242 
L 236.751949 179.834758 
" clip-path="url(#p621b4ea420)"/>
    <path d="M 236.756179 179.81436 
L 271.656435 21.176008 
L 267.43733 20.24781 
L 274.727932 11.235796 
L 277.563183 22.475486 
L 273.344077 21.547288 
L 238.443821 180.18564 
L 236.756179 179.81436 
" clip-path="url(#p621b4ea420)"/>
    <path d="M 236.761099 179.79326 
L 275.628156 22.079892 
L 271.433651 21.046194 
L 278.947933 12.219821 
L 281.500462 23.52707 
L 277.305958 22.493371 
L 238.438901 180.20674 
L 236.761099 179.79326 
" clip-path="url(#p621b4ea420)"/>
    <path d="M 236.766803 179.771356 
L 279.751926 23.130257 
L 275.585939 21.987036 
L 283.328854 13.360533 
L 285.584307 24.730767 
L 281.41832 23.587545 
L 238.433197 180.228644 
L 236.766803 179.771356 
" clip-path="url(#p621b4ea420)"/>
    <path d="M 236.773404 179.748534 
L 284.048982 24.348488 
L 279.916002 23.091159 
L 287.893168 14.680802 
L 289.835154 26.108749 
L 285.702174 24.85142 
L 238.426596 180.251466 
L 236.773404 179.748534 
" clip-path="url(#p621b4ea420)"/>
    <path d="M 236.781043 179.724671 
L 288.542811 25.760799 
L 284.448027 24.384156 
L 292.66571 16.208646 
L 294.275508 27.688099 
L 290.180724 26.311456 
L 238.418957 180.275329 
L 236.781043 179.724671 
" clip-path="url(#p621b4ea420)"/>
    <path d="M 236.789893 179.69963 
L 293.259432 27.399447 
L 289.208895 25.897598 
L 297.673978 17.978529 
L 298.930183 29.502036 
L 294.879646 28.000187 
L 238.410107 180.30037 
L 236.789893 179.69963 
" clip-path="url(#p621b4ea420)"/>
    <path d="M 236.800165 179.673258 
L 298.227657 29.304319 
L 294.228483 27.670609 
L 302.948396 20.033043 
L 303.826501 31.591513 
L 299.827327 29.957803 
L 238.399835 180.326742 
L 236.800165 179.673258 
" clip-path="url(#p621b4ea420)"/>
    <path d="M 236.812126 179.645387 
L 303.479293 31.52502 
L 299.539922 29.751957 
L 308.522519 22.425141 
L 308.994414 34.007308 
L 305.055042 32.234245 
L 238.387874 180.354613 
L 236.812126 179.645387 
" clip-path="url(#p621b4ea420)"/>
    <path d="M 236.826105 179.615835 
L 309.049199 34.123638 
L 305.179725 32.202811 
L 314.433078 25.221067 
L 314.466461 36.812795 
L 310.596988 34.891968 
L 238.373895 180.384165 
L 236.826105 179.615835 
" clip-path="url(#p621b4ea420)"/>
    <path d="M 236.842521 179.584401 
L 314.975065 37.178431 
L 311.187672 35.100438 
L 320.719727 28.504287 
L 320.277414 40.087622 
L 316.490022 38.009628 
L 238.357479 180.415599 
L 236.842521 179.584401 
" clip-path="url(#p621b4ea420)"/>
    <path d="M 236.861904 179.550879 
L 321.296682 40.78877 
L 317.6062 38.543164 
L 327.424232 32.380735 
L 326.463356 43.932618 
L 322.772874 41.687012 
L 238.338096 180.449121 
L 236.861904 179.550879 
" clip-path="url(#p621b4ea420)"/>
    <path d="M 236.884929 179.515057 
L 328.054276 45.081783 
L 324.478922 42.657067 
L 334.588666 36.98588 
L 333.05977 48.476387 
L 329.484417 46.05167 
L 238.315071 180.484943 
L 236.884929 179.515057 
" clip-path="url(#p621b4ea420)"/>
    <path d="M 236.912471 179.476741 
L 335.285192 50.221325 
L 331.847548 47.60503 
L 342.251831 42.494239 
L 340.097894 53.88414 
L 336.66025 51.267844 
L 238.287529 180.523259 
L 236.912471 179.476741 
" clip-path="url(#p621b4ea420)"/>
    <path d="M 236.945661 179.435787 
L 343.017691 56.42002 
L 339.745995 53.598955 
L 350.442585 49.132162 
L 347.598065 60.36951 
L 344.326369 57.548445 
L 238.254339 180.564213 
L 236.945661 179.435787 
" clip-path="url(#p621b4ea420)"/>
    <path d="M 236.985974 179.392161 
L 351.259674 63.955269 
L 348.189544 60.916074 
L 359.167766 57.194795 
L 355.557856 68.21014 
L 352.487726 65.170946 
L 238.214026 180.607839 
L 236.985974 179.392161 
" clip-path="url(#p621b4ea420)"/>
    <path d="M 237.03534 179.346046 
L 359.978598 73.189983 
L 357.155299 69.920215 
L 368.3907 67.068017 
L 363.931218 77.767657 
L 361.107918 74.49789 
L 238.16466 180.653954 
L 237.03534 179.346046 
" clip-path="url(#p621b4ea420)"/>
    <path d="M 237.096276 179.298033 
L 369.066137 84.597925 
L 366.547517 81.088088 
L 377.993469 79.255204 
L 372.592205 89.511696 
L 370.073585 86.001859 
L 238.103724 180.701967 
L 237.096276 179.298033 
" clip-path="url(#p621b4ea420)"/>
    <path d="M 237.172028 179.249443 
L 378.276808 98.790784 
L 376.13695 95.037997 
L 387.711468 94.405682 
L 381.272609 104.044685 
L 379.132751 100.291898 
L 238.027972 180.750557 
L 237.172028 179.249443 
" clip-path="url(#p621b4ea420)"/>
    <path d="M 237.266669 179.202889 
L 387.123582 116.536629 
L 385.456927 112.551073 
L 397.022248 113.333766 
L 389.456901 122.116408 
L 387.790245 118.130852 
L 237.933331 180.797111 
L 237.266669 179.202889 
" clip-path="url(#p621b4ea420)"/>
    <path d="M 237.384991 179.16318 
L 394.70708 138.741468 
L 393.632035 134.55737 
L 404.963925 136.998178 
L 396.212144 144.599205 
L 395.137098 140.415107 
L 237.815009 180.83682 
L 237.384991 179.16318 
" clip-path="url(#p621b4ea420)"/>
    <path d="M 237.531854 179.138692 
L 399.457829 166.327243 
L 399.117099 162.020701 
L 409.861676 166.370799 
L 399.934851 172.356402 
L 399.594121 168.04986 
L 237.668146 180.861308 
L 237.531854 179.138692 
" clip-path="url(#p621b4ea420)"/>
    <path d="M 237.710259 179.143064 
L 398.814194 199.871706 
L 399.365488 195.587026 
L 408.987165 202.051746 
L 398.042383 205.870256 
L 398.593677 201.585577 
L 237.489741 180.856936 
L 237.710259 179.143064 
" clip-path="url(#p621b4ea420)"/>
    <path d="M 237.91707 179.196282 
L 389.01604 238.805475 
L 390.601391 234.786886 
L 398.343585 243.414035 
L 386.796549 244.431501 
L 388.3819 240.412911 
L 237.28293 180.803718 
L 237.91707 179.196282 
" clip-path="url(#p621b4ea420)"/>
    <path d="M 238.135863 179.322249 
L 365.553113 280.06449 
L 368.232428 276.675733 
L 373.150266 287.172597 
L 361.802072 284.808749 
L 364.481387 281.419992 
L 237.064137 180.677751 
L 238.135863 179.322249 
" clip-path="url(#p621b4ea420)"/>
    <path d="M 238.330177 179.538114 
L 325.164658 316.8113 
L 328.815541 314.501872 
L 329.977108 326.035304 
L 320.053422 320.044499 
L 323.704305 317.735071 
L 236.869823 180.461886 
L 238.330177 179.538114 
" clip-path="url(#p621b4ea420)"/>
    <path d="M 238.448073 179.834868 
L 269.492901 339.272546 
L 273.733265 338.446886 
L 270.626413 349.614551 
L 263.556392 340.428471 
L 267.796755 339.60281 
L 236.751927 180.165132 
L 238.448073 179.834868 
" clip-path="url(#p621b4ea420)"/>
    <path d="M 238.448073 180.165132 
L 207.403245 339.60281 
L 211.643608 340.428471 
L 204.573587 349.614551 
L 201.466735 338.446886 
L 205.707099 339.272546 
L 236.751927 179.834868 
L 238.448073 180.165132 
" clip-path="url(#p621b4ea420)"/>
    <path d="M 238.330177 180.461886 
L 151.495695 317.735071 
L 155.146578 320.044499 
L 145.222892 326.035304 
L 146.384459 314.501872 
L 150.035342 316.8113 
L 236.869823 179.538114 
L 238.330177 180.461886 
" clip-path="url(#p621b4ea420)"/>
    <path d="M 238.135863 180.677751 
L 110.718613 281.419992 
L 113.397928 284.808749 
L 102.049734 287.172597 
L 106.967572 276.675733 
L 109.646887 280.06449 
L 237.064137 179.322249 
L 238.135863 180.677751 
" clip-path="url(#p621b4ea420)"/>
    <path d="M 237.91707 180.803718 
L 86.8181 240.412911 
L 88.403451 244.431501 
L 76.856415 243.414035 
L 84.598609 234.786886 
L 86.18396 238.805475 
L 237.28293 179.196282 
L 237.91707 180.803718 
" clip-path="url(#p621b4ea420)"/>
    <path d="M 237.710259 180.856936 
L 76.606323 201.585577 
L 77.157617 205.870256 
L 66.212835 202.051746 
L 75.834512 195.587026 
L 76.385806 199.871706 
L 237.489741 179.143064 
L 237.710259 180.856936 
" clip-path="url(#p621b4ea420)"/>
    <path d="M 237.531854 180.861308 
L 75.605879 168.04986 
L 75.265149 172.356402 
L 65.338324 166.370799 
L 76.082901 162.020701 
L 75.742171 166.327243 
L 237.668146 179.138692 
L 237.531854 180.861308 
" clip-path="url(#p621b4ea420)"/>
    <path d="M 237.384991 180.83682 
L 80.062902 140.415107 
L 78.987856 144.599205 
L 70.236075 136.998178 
L 81.567965 134.55737 
L 80.49292 138.741468 
L 237.815009 179.16318 
L 237.384991 180.83682 
" clip-path="url(#p621b4ea420)"/>
    <path d="M 237.266669 180.797111 
L 87.409755 118.130852 
L 85.743099 122.116408 
L 78.177752 113.333766 
L 89.743073 112.551073 
L 88.076418 116.536629 
L 237.933331 179.202889 
L 237.266669 180.797111 
" clip-path="url(#p621b4ea420)"/>
    <path d="M 237.172028 180.750557 
L 96.067249 100.291898 
L 93.927391 104.044685 
L 87.488532 94.405682 
L 99.06305 95.037997 
L 96.923192 98.790784 
L 238.027972 179.249443 
L 237.172028 180.750557 
" clip-path="url(#p621b4ea420)"/>
    <path d="M 237.096276 180.701967 
L 105.126415 86.001859 
L 102.607795 89.511696 
L 97.206531 79.255204 
L 108.652483 81.088088 
L 106.133863 84.597925 
L 238.103724 179.298033 
L 237.096276 180.701967 
" clip-path="url(#p621b4ea420)"/>
    <path d="M 237.03534 180.653954 
L 114.092082 74.49789 
L 111.268782 77.767657 
L 106.8093 67.068017 
L 118.044701 69.920215 
L 115.221402 73.189983 
L 238.16466 179.346046 
L 237.03534 180.653954 
" clip-path="url(#p621b4ea420)"/>
    <path d="M 236.985974 180.607839 
L 122.712274 65.170946 
L 119.642144 68.21014 
L 116.032234 57.194795 
L 127.010456 60.916074 
L 123.940326 63.955269 
L 238.214026 179.392161 
L 236.985974 180.607839 
" clip-path="url(#p621b4ea420)"/>
    <path d="M 236.945661 180.564213 
L 130.873631 57.548445 
L 127.601935 60.36951 
L 124.757415 49.132162 
L 135.454005 53.598955 
L 132.182309 56.42002 
L 238.254339 179.435787 
L 236.945661 180.564213 
" clip-path="url(#p621b4ea420)"/>
    <path d="M 236.912471 180.523259 
L 138.53975 51.267844 
L 135.102106 53.88414 
L 132.948169 42.494239 
L 143.352452 47.60503 
L 139.914808 50.221325 
L 238.287529 179.476741 
L 236.912471 180.523259 
" clip-path="url(#p621b4ea420)"/>
    <path d="M 236.884929 180.484943 
L 145.715583 46.05167 
L 142.14023 48.476387 
L 140.611334 36.98588 
L 150.721078 42.657067 
L 147.145724 45.081783 
L 238.315071 179.515057 
L 236.884929 180.484943 
" clip-path="url(#p621b4ea420)"/>
    <path d="M 236.861904 180.449121 
L 152.427126 41.687012 
L 148.736644 43.932618 
L 147.775768 32.380735 
L 157.5938 38.543164 
L 153.903318 40.78877 
L 238.338096 179.550879 
L 236.861904 180.449121 
" clip-path="url(#p621b4ea420)"/>
    <path d="M 236.842521 180.415599 
L 158.709978 38.009628 
L 154.922586 40.087622 
L 154.480273 28.504287 
L 164.012328 35.100438 
L 160.224935 37.178431 
L 238.357479 179.584401 
L 236.842521 180.415599 
" clip-path="url(#p621b4ea420)"/>
    <path d="M 236.826105 180.384165 
L 164.603012 34.891968 
L 160.733539 36.812795 
L 160.766922 25.221067 
L 170.020275 32.202811 
L 166.150801 34.123638 
L 238.373895 179.615835 
L 236.826105 180.384165 
" clip-path="url(#p621b4ea420)"/>
    <path d="M 236.812126 180.354613 
L 170.144958 32.234245 
L 166.205586 34.007308 
L 166.677481 22.425141 
L 175.660078 29.751957 
L 171.720707 31.52502 
L 238.387874 179.645387 
L 236.812126 180.354613 
" clip-path="url(#p621b4ea420)"/>
    <path d="M 236.800165 180.326742 
L 175.372673 29.957803 
L 171.373499 31.591513 
L 172.251604 20.033043 
L 180.971517 27.670609 
L 176.972343 29.304319 
L 238.399835 179.673258 
L 236.800165 180.326742 
" clip-path="url(#p621b4ea420)"/>
    <path d="M 236.789893 180.30037 
L 180.320354 28.000187 
L 176.269817 29.502036 
L 177.526022 17.978529 
L 185.991105 25.897598 
L 181.940568 27.399447 
L 238.410107 179.69963 
L 236.789893 180.30037 
" clip-path="url(#p621b4ea420)"/>
    <path d="M 236.781043 180.275329 
L 185.019276 26.311456 
L 180.924492 27.688099 
L 182.53429 16.208646 
L 190.751973 24.384156 
L 186.657189 25.760799 
L 238.418957 179.724671 
L 236.781043 180.275329 
" clip-path="url(#p621b4ea420)"/>
    <path d="M 236.773404 180.251466 
L 189.497826 24.85142 
L 185.364846 26.108749 
L 187.306832 14.680802 
L 195.283998 23.091159 
L 191.151018 24.348488 
L 238.426596 179.748534 
L 236.773404 180.251466 
" clip-path="url(#p621b4ea420)"/>
    <path d="M 236.766803 180.228644 
L 193.78168 23.587545 
L 189.615693 24.730767 
L 191.871146 13.360533 
L 199.614061 21.987036 
L 195.448074 23.130257 
L 238.433197 179.771356 
L 236.766803 180.228644 
" clip-path="url(#p621b4ea420)"/>
    <path d="M 236.761099 180.20674 
L 197.894042 22.493371 
L 193.699538 23.52707 
L 196.252067 12.219821 
L 203.766349 21.046194 
L 199.571844 22.079892 
L 238.438901 179.79326 
L 236.761099 180.20674 
" clip-path="url(#p621b4ea420)"/>
    <path d="M 236.756179 180.18564 
L 201.855923 21.547288 
L 197.636817 22.475486 
L 200.472068 11.235796 
L 207.76267 20.24781 
L 203.543565 21.176008 
L 238.443821 179.81436 
L 236.756179 180.18564 
" clip-path="url(#p621b4ea420)"/>
    <path d="M 236.751949 180.165242 
L 205.686398 20.7316 
L 201.446142 21.557812 
L 204.551542 10.389743 
L 211.622757 19.574904 
L 207.382501 20.401116 
L 238.448051 179.834758 
L 236.751949 180.165242 
" clip-path="url(#p621b4ea420)"/>
    <path d="M 236.748332 180.145455 
L 209.402873 20.031806 
L 205.144531 20.759079 
L 208.509086 9.666331 
L 215.364551 19.013624 
L 211.106209 19.740897 
L 238.451668 179.854545 
L 236.748332 180.145455 
" clip-path="url(#p621b4ea420)"/>
    <path d="M 236.745265 180.126191 
L 213.021309 19.436028 
L 208.747634 20.066984 
L 212.361749 9.053018 
L 219.004453 18.552689 
L 214.730779 19.183646 
L 238.454735 179.873809 
L 236.745265 180.126191 
" clip-path="url(#p621b4ea420)"/>
    <path d="M 236.742698 180.107374 
L 216.556449 18.934578 
L 212.269939 19.471447 
L 216.125268 8.539579 
L 222.557564 18.182963 
L 218.271054 18.719831 
L 238.457302 179.892626 
L 236.742698 180.107374 
" clip-path="url(#p621b4ea420)"/>
    <path d="M 236.740589 180.088929 
L 220.022012 18.519613 
L 215.724955 18.964256 
L 219.81428 8.117749 
L 226.03789 17.897113 
L 221.740834 18.341756 
L 238.459411 179.911071 
L 236.740589 180.088929 
" clip-path="url(#p621b4ea420)"/>
    <path d="M 236.738905 180.070787 
L 223.430868 18.184868 
L 219.125392 18.538806 
L 223.442514 7.780937 
L 229.458535 17.689356 
L 225.153059 18.043294 
L 238.461095 179.929213 
L 236.738905 180.070787 
" clip-path="url(#p621b4ea420)"/>
    <path d="M 236.73762 180.052885 
L 226.795211 17.925456 
L 222.483311 18.189882 
L 227.022969 7.524012 
L 232.831871 17.55526 
L 228.519971 17.819686 
L 238.46238 179.947115 
L 236.73762 180.052885 
" clip-path="url(#p621b4ea420)"/>
    <path d="M 236.736716 180.03516 
L 230.126705 17.737709 
L 225.810283 17.913507 
L 230.568073 7.343138 
L 236.169695 17.491592 
L 231.853273 17.66739 
L 238.463284 179.96484 
L 236.736716 180.03516 
" clip-path="url(#p621b4ea420)"/>
    <path d="M 236.736178 180.017551 
L 233.436626 17.619067 
L 229.117517 17.706821 
L 234.089838 7.235655 
L 239.483378 17.496211 
L 235.164269 17.583965 
L 238.463822 179.982449 
L 236.736178 180.017551 
" clip-path="url(#p621b4ea420)"/>
   </g>
   <g id="Quiver_2">
    <path d="M 235.296 180 
L 235.296 38.304 
L 226.08 42.912 
L 237.6 24.48 
L 249.12 42.912 
L 239.904 38.304 
L 239.904 180 
L 235.296 180 
" clip-path="url(#p621b4ea420)" style="fill: #ff0000"/>
   </g>
   <g id="line2d_1">
    <defs>
     <path id="m9afec631f5" d="M 0 1.5 
C 0.397805 1.5 0.77937 1.341951 1.06066 1.06066 
C 1.341951 0.77937 1.5 0.397805 1.5 0 
C 1.5 -0.397805 1.341951 -0.77937 1.06066 -1.06066 
C 0.77937 -1.341951 0.397805 -1.5 0 -1.5 
C -0.397805 -1.5 -0.77937 -1.341951 -1.06066 -1.06066 
C -1.341951 -0.77937 -1.5 -0.397805 -1.5 0 
C -1.5 0.397805 -1.341951 0.77937 -1.06066 1.06066 
C -0.77937 1.341951 -0.397805 1.5 0 1.5 
z
" style="stroke: #1f77b4; stroke-opacity: 0"/>
    </defs>
    <g clip-path="url(#p621b4ea420)">
     <use xlink:href="#m9afec631f5" x="237.6" y="7.2" style="fill: #1f77b4; fill-opacity: 0; stroke: #1f77b4; stroke-opacity: 0"/>
     <use xlink:href="#m9afec631f5" x="241.110162" y="7.235655" style="fill: #1f77b4; fill-opacity: 0; stroke: #1f77b4; stroke-opacity: 0"/>
     <use xlink:href="#m9afec631f5" x="244.631927" y="7.343138" style="fill: #1f77b4; fill-opacity: 0; stroke: #1f77b4; stroke-opacity: 0"/>
     <use xlink:href="#m9afec631f5" x="248.177031" y="7.524012" style="fill: #1f77b4; fill-opacity: 0; stroke: #1f77b4; stroke-opacity: 0"/>
     <use xlink:href="#m9afec631f5" x="251.757486" y="7.780937" style="fill: #1f77b4; fill-opacity: 0; stroke: #1f77b4; stroke-opacity: 0"/>
     <use xlink:href="#m9afec631f5" x="255.38572" y="8.117749" style="fill: #1f77b4; fill-opacity: 0; stroke: #1f77b4; stroke-opacity: 0"/>
     <use xlink:href="#m9afec631f5" x="259.074732" y="8.539579" style="fill: #1f77b4; fill-opacity: 0; stroke: #1f77b4; stroke-opacity: 0"/>
     <use xlink:href="#m9afec631f5" x="262.838251" y="9.053018" style="fill: #1f77b4; fill-opacity: 0; stroke: #1f77b4; stroke-opacity: 0"/>
     <use xlink:href="#m9afec631f5" x="266.690914" y="9.666331" style="fill: #1f77b4; fill-opacity: 0; stroke: #1f77b4; stroke-opacity: 0"/>
     <use xlink:href="#m9afec631f5" x="270.648458" y="10.389743" style="fill: #1f77b4; fill-opacity: 0; stroke: #1f77b4; stroke-opacity: 0"/>
     <use xlink:href="#m9afec631f5" x="274.727932" y="11.235796" style="fill: #1f77b4; fill-opacity: 0; stroke: #1f77b4; stroke-opacity: 0"/>
     <use xlink:href="#m9afec631f5" x="278.947933" y="12.219821" style="fill: #1f77b4; fill-opacity: 0; stroke: #1f77b4; stroke-opacity: 0"/>
     <use xlink:href="#m9afec631f5" x="283.328854" y="13.360533" style="fill: #1f77b4; fill-opacity: 0; stroke: #1f77b4; stroke-opacity: 0"/>
     <use xlink:href="#m9afec631f5" x="287.893168" y="14.680802" style="fill: #1f77b4; fill-opacity: 0; stroke: #1f77b4; stroke-opacity: 0"/>
     <use xlink:href="#m9afec631f5" x="292.66571" y="16.208646" style="fill: #1f77b4; fill-opacity: 0; stroke: #1f77b4; stroke-opacity: 0"/>
     <use xlink:href="#m9afec631f5" x="297.673978" y="17.978529" style="fill: #1f77b4; fill-opacity: 0; stroke: #1f77b4; stroke-opacity: 0"/>
     <use xlink:href="#m9afec631f5" x="302.948396" y="20.033043" style="fill: #1f77b4; fill-opacity: 0; stroke: #1f77b4; stroke-opacity: 0"/>
     <use xlink:href="#m9afec631f5" x="308.522519" y="22.425141" style="fill: #1f77b4; fill-opacity: 0; stroke: #1f77b4; stroke-opacity: 0"/>
     <use xlink:href="#m9afec631f5" x="314.433078" y="25.221067" style="fill: #1f77b4; fill-opacity: 0; stroke: #1f77b4; stroke-opacity: 0"/>
     <use xlink:href="#m9afec631f5" x="320.719727" y="28.504287" style="fill: #1f77b4; fill-opacity: 0; stroke: #1f77b4; stroke-opacity: 0"/>
     <use xlink:href="#m9afec631f5" x="327.424232" y="32.380735" style="fill: #1f77b4; fill-opacity: 0; stroke: #1f77b4; stroke-opacity: 0"/>
     <use xlink:href="#m9afec631f5" x="334.588666" y="36.98588" style="fill: #1f77b4; fill-opacity: 0; stroke: #1f77b4; stroke-opacity: 0"/>
     <use xlink:href="#m9afec631f5" x="342.251831" y="42.494239" style="fill: #1f77b4; fill-opacity: 0; stroke: #1f77b4; stroke-opacity: 0"/>
     <use xlink:href="#m9afec631f5" x="350.442585" y="49.132162" style="fill: #1f77b4; fill-opacity: 0; stroke: #1f77b4; stroke-opacity: 0"/>
     <use xlink:href="#m9afec631f5" x="359.167766" y="57.194795" style="fill: #1f77b4; fill-opacity: 0; stroke: #1f77b4; stroke-opacity: 0"/>
     <use xlink:href="#m9afec631f5" x="368.3907" y="67.068017" style="fill: #1f77b4; fill-opacity: 0; stroke: #1f77b4; stroke-opacity: 0"/>
     <use xlink:href="#m9afec631f5" x="377.993469" y="79.255204" style="fill: #1f77b4; fill-opacity: 0; stroke: #1f77b4; stroke-opacity: 0"/>
     <use xlink:href="#m9afec631f5" x="387.711468" y="94.405682" style="fill: #1f77b4; fill-opacity: 0; stroke: #1f77b4; stroke-opacity: 0"/>
     <use xlink:href="#m9afec631f5" x="397.022248" y="113.333766" style="fill: #1f77b4; fill-opacity: 0; stroke: #1f77b4; stroke-opacity: 0"/>
     <use xlink:href="#m9afec631f5" x="404.963925" y="136.998178" style="fill: #1f77b4; fill-opacity: 0; stroke: #1f77b4; stroke-opacity: 0"/>
     <use xlink:href="#m9afec631f5" x="409.861676" y="166.370799" style="fill: #1f77b4; fill-opacity: 0; stroke: #1f77b4; stroke-opacity: 0"/>
     <use xlink:href="#m9afec631f5" x="408.987165" y="202.051746" style="fill: #1f77b4; fill-opacity: 0; stroke: #1f77b4; stroke-opacity: 0"/>
     <use xlink:href="#m9afec631f5" x="398.343585" y="243.414035" style="fill: #1f77b4; fill-opacity: 0; stroke: #1f77b4; stroke-opacity: 0"/>
     <use xlink:href="#m9afec631f5" x="373.150266" y="287.172597" style="fill: #1f77b4; fill-opacity: 0; stroke: #1f77b4; stroke-opacity: 0"/>
     <use xlink:href="#m9afec631f5" x="329.977108" y="326.035304" style="fill: #1f77b4; fill-opacity: 0; stroke: #1f77b4; stroke-opacity: 0"/>
     <use xlink:href="#m9afec631f5" x="270.626413" y="349.614551" style="fill: #1f77b4; fill-opacity: 0; stroke: #1f77b4; stroke-opacity: 0"/>
     <use xlink:href="#m9afec631f5" x="204.573587" y="349.614551" style="fill: #1f77b4; fill-opacity: 0; stroke: #1f77b4; stroke-opacity: 0"/>
     <use xlink:href="#m9afec631f5" x="145.222892" y="326.035304" style="fill: #1f77b4; fill-opacity: 0; stroke: #1f77b4; stroke-opacity: 0"/>
     <use xlink:href="#m9afec631f5" x="102.049734" y="287.172597" style="fill: #1f77b4; fill-opacity: 0; stroke: #1f77b4; stroke-opacity: 0"/>
     <use xlink:href="#m9afec631f5" x="76.856415" y="243.414035" style="fill: #1f77b4; fill-opacity: 0; stroke: #1f77b4; stroke-opacity: 0"/>
     <use xlink:href="#m9afec631f5" x="66.212835" y="202.051746" style="fill: #1f77b4; fill-opacity: 0; stroke: #1f77b4; stroke-opacity: 0"/>
     <use xlink:href="#m9afec631f5" x="65.338324" y="166.370799" style="fill: #1f77b4; fill-opacity: 0; stroke: #1f77b4; stroke-opacity: 0"/>
     <use xlink:href="#m9afec631f5" x="70.236075" y="136.998178" style="fill: #1f77b4; fill-opacity: 0; stroke: #1f77b4; stroke-opacity: 0"/>
     <use xlink:href="#m9afec631f5" x="78.177752" y="113.333766" style="fill: #1f77b4; fill-opacity: 0; stroke: #1f77b4; stroke-opacity: 0"/>
     <use xlink:href="#m9afec631f5" x="87.488532" y="94.405682" style="fill: #1f77b4; fill-opacity: 0; stroke: #1f77b4; stroke-opacity: 0"/>
     <use xlink:href="#m9afec631f5" x="97.206531" y="79.255204" style="fill: #1f77b4; fill-opacity: 0; stroke: #1f77b4; stroke-opacity: 0"/>
     <use xlink:href="#m9afec631f5" x="106.8093" y="67.068017" style="fill: #1f77b4; fill-opacity: 0; stroke: #1f77b4; stroke-opacity: 0"/>
     <use xlink:href="#m9afec631f5" x="116.032234" y="57.194795" style="fill: #1f77b4; fill-opacity: 0; stroke: #1f77b4; stroke-opacity: 0"/>
     <use xlink:href="#m9afec631f5" x="124.757415" y="49.132162" style="fill: #1f77b4; fill-opacity: 0; stroke: #1f77b4; stroke-opacity: 0"/>
     <use xlink:href="#m9afec631f5" x="132.948169" y="42.494239" style="fill: #1f77b4; fill-opacity: 0; stroke: #1f77b4; stroke-opacity: 0"/>
     <use xlink:href="#m9afec631f5" x="140.611334" y="36.98588" style="fill: #1f77b4; fill-opacity: 0; stroke: #1f77b4; stroke-opacity: 0"/>
     <use xlink:href="#m9afec631f5" x="147.775768" y="32.380735" style="fill: #1f77b4; fill-opacity: 0; stroke: #1f77b4; stroke-opacity: 0"/>
     <use xlink:href="#m9afec631f5" x="154.480273" y="28.504287" style="fill: #1f77b4; fill-opacity: 0; stroke: #1f77b4; stroke-opacity: 0"/>
     <use xlink:href="#m9afec631f5" x="160.766922" y="25.221067" style="fill: #1f77b4; fill-opacity: 0; stroke: #1f77b4; stroke-opacity: 0"/>
     <use xlink:href="#m9afec631f5" x="166.677481" y="22.425141" style="fill: #1f77b4; fill-opacity: 0; stroke: #1f77b4; stroke-opacity: 0"/>
     <use xlink:href="#m9afec631f5" x="172.251604" y="20.033043" style="fill: #1f77b4; fill-opacity: 0; stroke: #1f77b4; stroke-opacity: 0"/>
     <use xlink:href="#m9afec631f5" x="177.526022" y="17.978529" style="fill: #1f77b4; fill-opacity: 0; stroke: #1f77b4; stroke-opacity: 0"/>
     <use xlink:href="#m9afec631f5" x="182.53429" y="16.208646" style="fill: #1f77b4; fill-opacity: 0; stroke: #1f77b4; stroke-opacity: 0"/>
     <use xlink:href="#m9afec631f5" x="187.306832" y="14.680802" style="fill: #1f77b4; fill-opacity: 0; stroke: #1f77b4; stroke-opacity: 0"/>
     <use xlink:href="#m9afec631f5" x="191.871146" y="13.360533" style="fill: #1f77b4; fill-opacity: 0; stroke: #1f77b4; stroke-opacity: 0"/>
     <use xlink:href="#m9afec631f5" x="196.252067" y="12.219821" style="fill: #1f77b4; fill-opacity: 0; stroke: #1f77b4; stroke-opacity: 0"/>
     <use xlink:href="#m9afec631f5" x="200.472068" y="11.235796" style="fill: #1f77b4; fill-opacity: 0; stroke: #1f77b4; stroke-opacity: 0"/>
     <use xlink:href="#m9afec631f5" x="204.551542" y="10.389743" style="fill: #1f77b4; fill-opacity: 0; stroke: #1f77b4; stroke-opacity: 0"/>
     <use xlink:href="#m9afec631f5" x="208.509086" y="9.666331" style="fill: #1f77b4; fill-opacity: 0; stroke: #1f77b4; stroke-opacity: 0"/>
     <use xlink:href="#m9afec631f5" x="212.361749" y="9.053018" style="fill: #1f77b4; fill-opacity: 0; stroke: #1f77b4; stroke-opacity: 0"/>
     <use xlink:href="#m9afec631f5" x="216.125268" y="8.539579" style="fill: #1f77b4; fill-opacity: 0; stroke: #1f77b4; stroke-opacity: 0"/>
     <use xlink:href="#m9afec631f5" x="219.81428" y="8.117749" style="fill: #1f77b4; fill-opacity: 0; stroke: #1f77b4; stroke-opacity: 0"/>
     <use xlink:href="#m9afec631f5" x="223.442514" y="7.780937" style="fill: #1f77b4; fill-opacity: 0; stroke: #1f77b4; stroke-opacity: 0"/>
     <use xlink:href="#m9afec631f5" x="227.022969" y="7.524012" style="fill: #1f77b4; fill-opacity: 0; stroke: #1f77b4; stroke-opacity: 0"/>
     <use xlink:href="#m9afec631f5" x="230.568073" y="7.343138" style="fill: #1f77b4; fill-opacity: 0; stroke: #1f77b4; stroke-opacity: 0"/>
     <use xlink:href="#m9afec631f5" x="234.089838" y="7.235655" style="fill: #1f77b4; fill-opacity: 0; stroke: #1f77b4; stroke-opacity: 0"/>
    </g>
   </g>
  </g>
 </g>
 <defs>
  <clipPath id="p621b4ea420">
   <rect x="7.2" y="7.2" width="460.8" height="345.6"/>
  </clipPath>
 </defs>
</svg>
