<svg viewBox="-4.0 0.0 8 0.5" preserveAspectRatio="none" xmlns="http://www.w3.org/2000/svg" height="100%" width="100%"><path stroke="black" stroke-linecap="round" stroke-width=".017" d="M2.36.12h0M.23.12h0M-.55.05h0m-2.7.36h0m.74-.16h0M3.82.07h0M2.51.06h0m-5.89.12h0M3.57.03h0M-.04.02h0m-1.71.07h0m-.5.01h0M-3.89 0h0M3.5.44h0M2.63.35h0M2.07.03h0m-.28.21h0M0 .2h0m-2.59.22h0m.01.03h0m1.56.03h0M3 .39h0m.29-.02h0M.71.2h0m-1 .18h0m2.38.01h0M-3.04.3h0m.45.15h0M3.07.13h0m-.04.2h0M-1.71.3h0m3-.26h0M-1.3.16h0m5.15.18h0M3.61.03h0M1.3.16h0M3.04.13h0m-6.17.16h0M-.55.2h0m-3.06.21h0m5.1.04h0M-2.74 0h0m1.46.48h0M1.77.23h0m-3.6.14h0M1.75.32h0m.53.07h0M-3.08.13h0m1.79.02h0m1.02.29h0m-2.2-.05h0M1.5.44h0m.6-.03h0M3.21.04h0m-5.45.35h0m-.78-.25h0M2.37.03h0m-3.38.13h0m4.07.05h0M-.42.32h0m-1.61-.2h0m5.52.12h0m-5.23.21h0M-3.28.44h0M1.53.08h0m-2.56.38h0m3.57 0h0M1.79.38h0m-3.62.03h0m3.38-.1h0m.03-.15h0M.77.37h0M-.74.04h0m-1.05.45h0M-2.82.47h0m5.9-.43h0m.28.41h0M-2.26.14h0m5.6.33h0M.52.28h0M.51.47h0M-.5.37h0M1.25.01h0m-3.07 0h0m-2.03.2h0m3.9.02h0m-.22.21h0M.19.32h0m2.87.16h0M-.48.06h0m-1.98.02h0m4.05.07h0m-4.7.08h0m.88.22h0M-3.56.13h0m1.53-.04h0M1.3.12h0m.02.07h0m2.25 0h0M.04.45h0m3.18.03h0M3.8.26h0M2.81.18h0m-5.06.24h0M1.74.41h0M-.25.14h0m-.55.1h0m-.53.25h0m-1.25-.2h0m-.54-.04h0m1.78-.19h0m4.63.39h0M.06.31h0M-3.9.44h0m.89-.15h0M1.27.03h0m-.24.43h0M-1.33.33h0m-.96-.07h0m-.44.19h0M-3.81.33h0M.26.4h0M2.07.37h0M2.6.13h0M1.08.09h0M1.8.2h0M-1.33.17h0M2.48.06h0M2.32.02h0M.49.35h0m1.76.08h0M-.96.36h0m.67-.11h0M.73.13h0M-.31.42h0m-.7-.02h0M-3.79.38h0m.01-.01h0m.42-.24h0M.61.1h0m.67.22h0m1.76-.2h0m.29.32h0m-4.69.04h0M-3.8.4h0M3.78.16h0M2.22.27h0M.25.38h0M1.83.37h0M-3.81.28h0M-.51.2h0m4 .14h0M1.46.3h0M-1.01.14h0M3.75.09h0M.04.44h0M.82.29h0M-2.04.16h0M.93.35h0M-3.59.2h0m1.71.04h0m1.56.18h0m3.6 0h0M-1.6.32h0m.11-.3h0M-2.8.46h0M2.83.35h0M-1.51.2h0M2.78.08h0m-4.52.24h0m3.02.02h0M-3.36.33h0M-3.5.4h0m.2.06h0m6.09-.2h0M1.56.25h0M-2.29.07h0m-.5.22h0m.81.1h0M2.36.13h0M-.99.19h0m-2.6.25h0M.29 0h0m.06.14h0m-2.87.12h0M.51.21h0M-3.55.2h0M.29.44h0M0 .21h0m-3.03.18h0m2.2-.38h0m.05.42h0m-.51-.08h0M.79.16h0m-.81.21h0m-3.09 0h0m.09-.32h0m6.85.33h0M.03.14h0m-.81.25h0m4.62-.2h0M2.32.01h0M-.45.32h0M2.05.2h0M1.3.19h0M.06.02h0m-1.78.03h0M2.52.1h0m1.25.29h0M.2.38h0m-.73.07h0M-.77.04h0M.21.1h0m2.26.35h0M-.99.31h0m.29.05h0m.27-.02h0M.51.09h0m2.36.26h0M-3.91.19h0m6.48.2h0M-2.85.07h0m-1.03.27h0m.11.14h0m2.55-.45h0m-.33.02h0m3.61.24h0M-.21.21h0m-3.56-.1h0m.74.16h0M.59.43h0M.56.18h0m.5.28h0m.51-.2h0M2.86.21h0m-.83.13h0M.18.16h0m1.65.07h0M1.2.35h0m.59-.31h0M3.58.03h0m-6.41.11h0m4.1.02h0M1 .32h0M2.56.1h0M-3.4.29h0m1.64-.22h0m-1.8.28h0m5.4.04h0M3.36.32h0M.25.47h0M-3.27.4h0m.7.1h0M3.36.18h0M.98.21h0m-2.2-.03h0m.36-.1h0m4.1-.04h0M-.79.02h0m-2.1.18h0M2 .03h0M-1.07.4h0M-3.14.24h0m2.33.25h0M3.3.42h0M-3.12.17h0m1.81.16h0m-.7-.04h0M.55.31h0m-2.52.01h0m-.58-.11h0M3.22.15h0M1.27.1h0M.3.09h0m-.83.27h0m-3.01.07h0m-.1-.32h0M1.2.26h0M1.55 0h0m1.7.37h0M-.49.09h0M1.56.5h0M1.47.13h0m-1.7.28h0M2.22.12h0M-.27.1h0m.75.09h0M2.31.08h0m-3.52.15h0m-.54-.07h0m5.04.08h0M1.22.01h0m-2.48.1h0m1.3.26h0M-2.9.04h0M-.54.01h0M1.51.2h0M-2.03.18h0m-.29.04h0m1.06-.16h0m-.22.14h0M-.46.01h0m.14.37h0M2.7.04h0m-4.04.22h0M.68 0h0m.04.43h0M2 .05h0M-2.77.01h0m.13.36h0m-.43-.13h0m2.02.21h0M-2.98.3h0m-.56.03h0M-1.03.1h0m-.15.24h0M3.29.09h0M.25.41h0M2.52.17h0m-3.1.07h0M3.54.03h0m-2.01.3h0m-2.6.11h0M2.88.22h0M-.78.44h0M2.5.08h0M-3.81.4h0m.19 0h0m5.64.07h0M2.9.05h0m-5.19.03h0m-.24.24h0M-.27.03h0m.78.15h0m-4.34.05h0m3.65.21h0M.46.3h0M-2.28.27h0M-.97.02h0m.38.46h0M.98.1h0m-1.5.31h0M.53.06h0m-1.81 0h0m4.52.15h0M-2.64.09h0m3.87.16h0m-4.1.18h0m-.94.06h0M1.96.12h0M3.64.1h0m-.33.39h0M.73.41h0M2.28.16h0M-1.75.4h0M1.27.18h0M3.62 0h0M-2.8.13h0m-.23.19h0m-.55.14h0m2.36-.03h0m-.82-.28h0m-.23-.04h0m5.38.25h0M.01.1h0m1.05.35h0M.96.23h0M-2.55.15h0m-.72.29h0M2.79.37h0m-4.88.09h0M2.06.12h0m-5.36 0h0m.52.05h0M-1.5.03h0M.34.4h0M-3.22.35h0M.2.44h0M-2.49.43h0M2.79.12h0m.23.21h0m-6.09.15h0M1.26.12h0M.97.41h0M2.62.38h0M-1.53.31h0M.58.05h0M-.75.28h0M.77.32h0m1.55.11h0m.19-.4h0m-2.82.1h0m-1.16.08h0m2.53.06h0M-.6.18h0M2.8.04h0m-.84.4h0M.69.02h0m.56.3h0M.59.17h0M-1 .16h0m-.06.03h0m.75.04h0m-.4-.11h0M-1.73.04h0m.42.1h0m3.06.1h0M-2.77.08h0m2.48.19h0m-.5.03h0m-2.97.16h0M2.53.13h0m.06.12h0m-4.16.23h0m.72-.03h0M.76.31h0m-1.23.1h0m.18-.32h0m3.55.1h0M-2.86.5h0M-.71.23h0M.75.16h0m.48.23h0M-3.33.07h0m2.84 0h0m-.09.42h0M-3.05.27h0M.24.32h0m-.44.1h0M-1.84.26h0m-.68-.07h0m4.79.03h0M-.48.14h0m-2.31.19h0m.81-.14h0M.74.26h0M-2.29.3h0M-.48.14h0m3.84.19h0M1.27.42h0M.02 0h0m-1.3.11h0m-.76.38h0m.25-.01h0m.23-.46h0M-.57 0h0m-.77.46h0M.23.38h0m1.54.11h0m-4.9-.1h0m6.44.02h0M0 .48h0M-3.36.35h0m4.9-.04h0m-1.6.12h0M1.82.06h0M.51.46h0M-2.31.28h0m1.06-.21h0m3.07.1h0M.3.14h0m3.3.1h0M1.28.16h0M.09.07h0M1.22.4h0m-2.99.03h0M2.77.19h0M.49.42h0M.3.18h0M2.28.04h0m-.25.23h0M3.08.1h0M.97.38h0M-1.57.12h0m4.82.29h0M.74.49h0M3.52.14h0m-6.8-.13h0m2.24.13h0M-2.77.08h0m3.81 0h0m1.75.2h0m-3.85-.2h0m2.9.38h0M-.55.16h0m4.11.05h0M-3.31.03h0M1.6.19h0M-.19.38h0M.7.06h0m-1.73.16h0M.52.48h0M.29.1h0m1.22.06h0M.52.49h0M.79.27h0M-.28.42h0m-.93-.33h0m-.12.39h0M-3.11.47h0M2.8.1h0m.58.01h0m-5.4.28h0M3.52.31h0M-1.79.13h0M-3.07.05h0m.19.05h0m4.7 0h0m1.72.31h0M-.99.44h0m-1.28.05h0M-3.75.22h0m.49-.14h0M-.48.04h0m-2.25.02h0m-.84.23h0M1.49.16h0m-3.58.17h0m-.19 0h0M-3.85.31h0m2.35.02h0m-2.01.02h0m-.07-.02h0M.99.2h0M-3.34.15h0m6.5.06h0M.5.38h0M-2.75.36h0m.22-.24h0M.05.21h0m-2.9.02h0M-.5.37h0M-.58.3h0m2.3-.19h0m.24.25h0M.51.1h0m1.75.38h0M-3.38.27h0M1.51.09h0m-4.89.23h0M2.24.3h0m-4.48.09h0M-.65.32h0m3.92.02h0M-1.02.02h0m4.88.1h0M2.62.02h0M.72.37h0m2.1.09h0M1.06.17h0M.68.04h0m1.45.12h0m-.41.01h0M-3.91.05h0m3.16.33h0M.44.42h0M.28.25h0m-2.57.11h0m.99-.33h0m2.41.3h0M2.3.23h0m1.27.04h0m-6.85.17h0m-.61-.38h0m7.28.35h0M2.32.03h0M1.03.2h0m2.54.16h0M-.52.44h0m.48.03h0M.93.24h0M.81.16h0M-1.31.15h0m4.95.29h0m-.1 0h0M1 .45h0M-2.25.06h0m.19.28h0M-3.8.32h0M-1.37.1h0m-1.7.05h0m4.85.14h0M.18.22h0M-1.55.05h0m-1.5.16h0m2.25 0h0m.5 0h0m.24.15h0M2.79.08h0m-.05.13h0m-5.28.16h0M3.6.42h0M1.51.39h0M1.3.17h0m.24-.15h0M-.81.11h0M1.46.1h0m.37-.07h0m1.44.46h0m.65-.36h0M-3.28.1h0m5.57.06h0m-.24.2h0M2.02.23h0m-3.05.14h0M3.84.02h0M2.55.39h0M.44.2h0M-3.09.13h0m1.78.1h0m-1.34.05h0M.8.34h0M-2.25.32h0m3.81.17h0m.71-.47h0M1.23.46h0m.55-.35h0M-.97.49h0M.56.28h0M3.55.23h0M.73.34h0M-3.05.4h0M3.6.28h0M1.75.47h0M3.56.45h0m-6.58.03h0M-.26.15h0m2.23.3h0M-1.78.3h0m.3-.12h0M-.23.06h0m1.78.12h0M-.77.24h0m4.09.14h0M.04.15h0m.97.25h0m-4.5.04h0m.62.06h0M-.29.43h0m-2.78-.4h0m2.84.04h0M-.3.32h0m-2.3-.1h0m.61.22h0M1.07.35h0M-.68.17h0m-.57.2h0M2.52.16h0M1.07.48h0M-.99.47h0M-2.35.1h0m.38.03h0m-.07.1h0M-.28.08h0m-3.27.08h0M-1 .14h0m.02-.09h0M2.53.02h0M1.3.44h0m-3.62.01h0M-.05.17h0M-1.76 0h0m5.64.3h0M2.75.23h0m-3.79.16h0m.48-.22h0M-3.89.11h0M3.33.1h0M1.62.35h0M3.07.33h0M1.31.03h0M-.98.47h0m.52-.14h0m4.09.14h0M1.22.46h0M2.86.17h0M1.51.21h0m-2.3-.1h0m1.83.16h0m.94-.06h0M.01.26h0m2.55.01h0m-3.61.15h0m3.14-.3h0M.7.08h0m-1.92.41h0m.65-.43h0m-3.21.43h0M.97.41h0M1.45.4h0M3.31.12h0m-.53.13h0m-3.02.1h0m-2.78.06h0M.44.29h0M-1.48.26h0M1.96.13h0M-1.51.1h0M1.81.04h0M3.06.4h0M2.57.2h0m-.01.25h0M-2.27.43h0m-.56-.07h0m1.29-.01h0m.71-.06h0M.76.42h0M.79.25h0m2.09.13h0M-1.83.37h0M-3.01.26h0m-.78-.12h0m3.02.02h0m-.97.18h0M-3.07.12h0m5.06.11h0m-5.62.2h0m1.83.05h0m.97-.27h0M1.34.18h0M3.52.16h0M.82.47h0M.99.44h0M-3.02.02h0M.82.29h0m1.44.04h0M-.76.48h0m.23-.36h0M-3.1 0h0M.55.33h0M-.21.08h0M.51.1h0m.21.33h0m2.9-.38h0m-.31.09h0m-6.06-.1h0m-.49.25h0m.97.11h0M1.57.29h0M-1.49.4h0M3.77.19h0m-7.04.12h0m-.09-.18h0m4.41.2h0m-4.06.04h0M2.85.21h0M-.22.06h0m-2.87 0h0M.5.44h0M1.46.3h0m2.11 0h0M2.06.16h0m-3.19.01h0m-.91.26h0m1.32.01h0m-.8-.19h0m1.02.2h0M-2.02.28h0m4.59-.1h0m-4.85.29h0M.32.32h0m2.74.15h0M.99.11h0M.48.09h0m-1.91.29h0m3.54-.1h0M-.49.12h0m-.05.25h0M-2.87.36h0m4.13 0h0M-1.6.05h0M.78.18h0M-2.3.2h0m.34-.15h0m-1.08.19h0m-.79.11h0m1.32-.1h0m4.61 0h0m-5.15-.1h0m1.5-.03h0m0-.09h0M.17.42h0m-3.19 0h0m1.07.05h0M.74.37h0M-.55.06h0m4.19.43h0M-1.83.22h0m4.7-.07h0m.88.32h0M1.37.33h0M3.8.46h0m-2.02 0h0M1.61.14h0M-3.27.01h0m.45.45h0m6.6-.33h0m-7.3.35h0m1.77-.4h0M.51.31h0m-3.62.01h0m-.71-.3h0m5.1.19h0M3.32.19h0M2.05.26h0M-.32.2h0m.5.21h0M-2.54.16h0M.99.25h0M-.98.36h0M2.73.28h0M-2.05.06h0M-.04.1h0m-1.78.27h0m.22.12h0m.53-.34h0m-1.41.26h0m.71.03h0M-3.84.05h0m1.58.22h0m-.46-.21h0m-.75.3h0M1.71.23h0m-5.62.26h0m1.72-.24h0m3.7.23h0m.26-.2h0M-3.51.27h0M3.3.48h0M-1.76.4h0m.25-.24h0M2.82.15h0m.93-.03h0m-7.61.01h0m1.73.02h0m-.21.28h0M.78.23h0M2.6.24h0M.49.25h0m.56.07h0M2.27.26h0M-3.28.17h0m1.52.13h0m-1-.28h0m4.84.02h0M.81.3h0m3 .1h0m-7.4.09h0m1.08-.44h0m5.53.22h0M3.88.2h0m-7.17.22h0m1.58-.07h0m-.05.03h0m1.53-.3h0m-2.29.41h0M1.22.43h0M.5.29h0m-.95.05h0m.19.08h0M-2.7.2h0m1.68.16h0M.49.17h0m-4.1.01h0m1.08.14h0m-.64-.17h0m1.88.08h0M1.53.19h0M-1.53.3h0m-1.51.06h0M3.13.19h0m-5.1 0h0m-.84.05h0M3.1.19h0M1.27.45h0m-2.06 0h0m-.78-.2h0M.53.21h0m-3.57.23h0m5.75.02h0M-.52.1h0m.08 0h0m4.29.34h0M1.31.3h0M2.53.1h0M.18.13h0m.5-.09h0m1.91.23h0m.97-.15h0M-.78.08h0m2.05.25h0m.92.08h0M-3.84.5h0M2.21.11h0M.46.43h0M3.74.28h0M-2.52.25h0M-3.87.07h0m2.63-.02h0m-.34-.04h0M-.1.24h0M3.28.11h0M1.7.01h0m1.86.26h0M1.78.18h0M1 .09h0M.7.41h0M2.3.29h0m-6.3.2h0m2.16-.04h0m.84.04h0M3.34.36h0m.02-.29h0m-.8.2h0M1.26.5h0M.51.02h0m1.02.35h0m.08-.35h0M-.53.47h0M2.3.49h0m.8-.12h0m-6.46.09h0m2.81-.3h0m4.36.02h0m-7.15.29h0M3.29.32h0m.5-.13h0m-2.7.07h0m2.46.22h0M-3.09.42h0M3.63.08h0m-5.61.37h0M3.31.42h0M.04.16h0m-.7.31h0m-1.85 0h0M3.32.16h0m.08.32h0M1.3.32h0M3.98.06h0m-.67.27h0M2.28.35h0M-1.25.28h0m4.58.19h0m-4.8-.33h0m3.83.23h0M.96.21h0m-4.57.12h0m2.03-.02h0m3.04.02h0m-4.49.13h0m.75-.4h0m3.51.12h0m-4.04.05h0M.99.04h0m.48.1h0m-4.24.11h0m1.71-.08h0m.81.33h0M2.24.32h0M-.5.26h0M-3.56.1h0m-.32.37h0M-.51.21h0m2.6-.05h0m-3.57.18h0M1.49 0h0M.35.31h0m-3.23.01h0M1.84.2h0m.47-.01h0m1.5.06h0M-2.52.16h0M3.56.3h0M-.82.08h0m4.33.23h0M2.01.22h0M-1.03.21h0M.94.11h0m1.94.37h0M-.18.25h0m4.02.23h0M-1.58.1h0m-.91.14h0m-.14-.17h0m1.04-.05h0m4.96 0h0m.14.07h0m-5.26.29h0m1.49.03h0m-.81-.12h0M3.84.15h0m-1.1.2h0M-.49.27h0M-1.52.09h0m-.5.24h0m4.87-.1h0m.69-.02h0m-6.4.17h0M.73.07h0M2.54.01h0m-.73.43h0M3.86.15h0m-6.67.02h0m5.89.08h0M-1.36.14h0M.73.32h0M.02.13h0m1.51.34h0M3.3.06h0m-5.58.13h0m-1.53-.1h0m3.12.28h0m-3.17.09h0m1.91-.28h0M.98.13h0m.24.35h0m1.6-.26h0m-5.05.02h0m3.75.15h0m.71-.24h0m.34.31h0m-.05-.4h0m-.04.41h0m.6-.2h0M-3.31.05h0m-.5.12h0m4.5.01h0M-3.39.03h0m6.93.2h0M-2.44.16h0m-.09.19h0m.72-.04h0M3.9.47h0M1.23.01h0m-4.57.23h0M3.13.15h0m-6.67.01h0M2.48.14h0M-.94.32h0M-2.01 0h0M.35.46h0M-2.77.13h0m5.85.35h0M-.3.38h0M.99.46h0M3.88.15h0m.04.06h0m-.86.14h0M.46.14h0m-3.5.22h0m.29-.19h0m4.11.07h0M.03.45h0M.75.04h0m.06.1h0M.01.03h0m-2.83.14h0m2.57.26h0M2.48.25h0m.03.18h0M.07.22h0M-1.78.04h0m-.81.12h0m1.5.15h0M-3.36.02h0M0 .01h0m-1.26.37h0m-2.02.01h0M2.53.17h0m.01.22h0m-3.9.09h0M-3.82.3h0m.5.15h0m7.18.01h0M3.11.39h0m-6.1-.23h0m2.73.01h0m-1.48.18h0M1.28.1h0M-.74.12h0m-1.78-.1h0m1.56.45h0M3.31.02h0m-3.6.46h0M-2.49.2h0m6.05.02h0M-.55.44h0M.24.32h0M-.22.14h0M-.8.43h0m2.75 0h0M-1.47.19h0m.45.22h0M-.28.2h0m3.03.02h0M-3.59.09h0m7.47.07h0M2.26.01h0m1.73.33h0M2.39.08h0m1.12.07h0m.26.16h0m-.7-.07h0M-.35.22h0M-3.78.17h0M-.25.11h0M.2.47h0M.78.43h0M2.81.08h0m-4.63.35h0M.29.05h0M-.7.14h0M3.84.12h0m-1.59.3h0m-5.05 0h0m1.05.04h0M1.36.32h0M-.52.4h0M.77.39h0m-2.01.06h0m-.75-.2h0m1.9-.17h0m.12.06h0M-3.9.26h0M.76.12h0m-1.32 0h0m.3-.03h0m3.85.37h0M-1.77.03h0M.3.3h0m1.94.07h0M-.87.5h0m2.39 0h0M-1.44.26h0M.76.02h0M.48.01h0M-.3.26h0M3.8.01h0M1.58.48h0m-2.13 0h0M-2.79.25h0m.51 0h0m4.01.02h0m-4.81-.1h0m-.75-.04h0m.55-.09h0m1.72.46h0M3.8.32h0M-2.47.4h0m-.59-.15h0m6.61.13h0M.48.42h0M-1.26.39h0m1.01.1h0m-.79-.12h0M-3.51.26h0m7.07.06h0M-2.33.27h0M2.79.2h0M-1.74.01h0m4.73.04h0m-5.54.32h0M-3.1.34h0m6.68.12h0M2.32.29h0M.81.35h0M2.84.26h0M-1.49 0h0M.33.1h0M-3.6.39h0M3.35.05h0M2.58.01h0m.15.36h0M-2.28.29h0m4.07.05h0M3.8.01h0m-6.63.33h0m-.3-.02h0M3.56.1h0M-2.03.05h0m-1.08.28h0m-.51-.18h0m1.13.03h0m5.76.31h0M-.88.34h0M-2.92.22h0M0 .13h0m2.33.26h0M-3.78 0h0m7.33.07h0M2.34.33h0m-3.8.06h0M-3.12.5h0M2.49.13h0m-5.5-.12h0m.9.33h0m-1 .04h0M3.38.15h0M.5.11h0m1.04 0h0M-1.72.1h0m.99.12h0M-1.79.03h0m5.07.45h0M-1.55.47h0M.3.45h0M3.05.32h0M1.78.24h0M-.79.03h0m.01.28h0m2.3-.2h0m1.55.08h0M.3.02h0M-1 .34h0m4.05.05h0M1.97.15h0m1.64.18h0M.98.28h0M-3.36.04h0M.31.03h0m-.97.01h0m2.35.43h0m-3.24 0h0m-.66-.34h0M.46.1h0m-.53.3h0m-.9-.35h0m4.01.39h0M-1.54.18h0M.18.32h0m-2.64.03h0M-3.61.18h0M.01.16h0M3.08.11h0m.8-.09h0m-5.63.22h0M-3.84.07h0m3.63 0h0m-1 .27h0M.94.21h0M.76.08h0m-2.01.27h0M2.29.23h0m-5.32.25h0m-.8 0h0M1.53.1h0M3.6.18h0m-5.13.28h0m-.85-.32h0M1.79.01h0m.18.42h0M-.08.02h0m-1.41.01h0m-.97.08h0M.2.17h0M-2.53.14h0M2.95 0h0M-.73.16h0M2.03.07h0m1.84.27h0M-.26.01h0m1.27.43h0M3.3.28h0m-6.79.21h0M3.8.25h0M-.07.14h0m-2.95.28h0m1.23.01h0M-.21.25h0m-2.51.24h0m-.89-.4h0m1.84.2h0M2.35.06h0m-.81.33h0M-3.5.38h0m.37-.24h0M1.32.05h0m-5.21.2h0M1.78.3h0m-5.56.01h0M.86.03h0M-.45.3h0m4.32.02h0m.01-.25h0m-5.14.25h0m.74-.26h0m-2.72.32h0M.52.28h0M3.09.21h0M-3.12.09h0m5.38.29h0M-2.02.5h0M1.81.35h0m-.33.04h0M2.79.04h0m-6.14.23h0M-.92.05h0m-2.43.09h0m4.87.14h0m-3.61.21h0M3.86.11h0M-.21.32h0M3.59.1h0m-7.48.14h0m1.05.15h0M-1.03.1h0M.5.05h0M-.51.14h0m2.83.31h0M3.5.39h0M-1.23.08h0m3.3.22h0M-.92.09h0m-2.65.39h0m6.4-.27h0m-6.59.02h0m.27.17h0M.5.5h0M3.28.42h0M1.35.23h0m-3.44.24h0M-2.9.29h0m5.92.03h0M-.5.06h0m-.32.16h0m-2.01.26h0M1.85.43h0M3.2.39h0M-1.26.37h0M.7.37h0m-3.19-.3h0m-1.12.11h0M-1.23.1h0M2.38.08h0m-5.7.39h0m4.34.02h0M-2.72.23h0M-.81.04h0m.47.21h0m-1.49.12h0M-3.52.11h0m1.98.12h0M.24.16h0M-.98.02h0m3.56.07h0m.59.27h0M.49.23h0M-.49.11h0m3.84.15h0M2.01.09h0M-.5.15h0m-1.05.21h0m-.74-.13h0m.45.19h0M.27.37h0M1.29.09h0M.51.15h0m-2.82.13h0m4.57.21h0m-.3-.38h0M-.26.4h0M-.8.45h0M1.28.2h0m.94-.17h0M3.36.4h0M1.93.24h0M-1.51.15h0M3.54.07h0m-5.11.01h0m-.4.19h0M2 .14h0M-.26.15h0M-1.54.09h0m-1.5.12h0M.81.11h0m2.77.33h0M.26.38h0m3.72-.2h0m-7.29.24h0m3-.08h0M.79.12h0m2.57.25h0m-1.1.01h0M-1.31 0h0m1.5.08h0m-3.28.08h0M2.75.02h0M.24.45h0m-4.08-.4h0M2.4.48h0m.41-.44h0m.98.4h0M3.25.25h0M.49.37h0M-2.84.21h0m.9.17h0m3.43.1h0M-1.5.18h0M.22 0h0m1.8.38h0M3.56.12h0M.75.36h0m2.04.03h0M1.75.05h0m-4 .23h0m.22-.1h0M2.34 0h0m-5.61.17h0m-.6.29h0M3.02.14h0M.54.32h0M3.89.16h0m-.98.09h0m-.3.14h0M-2.32.24h0m-.25-.23h0m2.3.43h0m-3.2-.05h0m1.11-.08h0m.05.17h0m5.83.01h0M-3.86.22h0m.81.12h0M2.51.08h0M1.27.23h0m-3.28-.2h0m3.22.31h0m.04 0h0M2.5.23h0m-.46.09h0m-3.9-.13h0M.21.34h0m-2.96.11h0m.23-.19h0m3.71.01h0m-4.93.14h0m.4.01h0m2.26-.27h0M3.5.39h0M-.23.32h0m4 .11h0M-1.05.17h0m-1.02.02h0M1 .29h0m-3.83.16h0m-1-.29h0M.01.21h0m2.32.23h0M-.96.4h0M2.76.23h0M.71.24h0m2.85.12h0M.59.25h0m2.46.2h0M.99.11h0M3.37.09h0m-5.65.26h0M-.52.4h0M3.64.27h0m-6.21.07h0m4.1-.11h0M-2.87.1h0M.51.07h0m1.57.11h0M.49.34h0M2.04.27h0m-3.83.02h0M3 .36h0M-1.07.23h0m-.76.02h0M3.14.09h0m-.3.27h0M2.6.34h0M1.58.46h0M.98.41h0m-4.8-.17h0m5.63.22h0m-1-.15h0M2.86.07h0m-4.08.2h0M-2.79.24h0m2.24.14h0M-.78.34h0m-1.25-.1h0M1.84.2h0m-5.72.04h0m.79.25h0M-.98.13h0M-4 .06h0m2.19.25h0m.8-.01h0M1.04.13h0m-2.86.09h0m1.28.25h0M-2.61.29h0m4.1-.24h0M.78.29h0m-3.75.12h0M2.04.37h0M3.89.16h0m-6.94.15h0m.81.07h0M3.82.31h0M.87.25h0M2.54.09h0m-3.55.13h0m.23.12h0M2.55.02h0m-5.59.01h0m6.85.03h0m-7.13.05h0m6.41.3h0M-3.77.34h0M-.18.28h0m2.15.01h0m1.1-.05h0m-4.12.08h0m-.44.13h0M2.03.27h0M-.77.3h0M0 .27h0M-.98.18h0m-1.16.13h0M-.28.06h0m-3.46.38h0M3.78.41h0M2.5.37h0M-1.83.04h0m4.11.21h0m.96-.09h0M.04.09h0m.39.08h0m-2.02.08h0m-.7-.13h0m4.25.09h0M-.69.25h0M-2.83.24h0m1.6-.03h0m-.96-.13h0m-.63.24h0m-.77-.16h0m.54.24h0m1.51-.15h0M2.98.02h0m.05.3h0m.59-.27h0m-6.97.31h0M2.56.29h0M-1.6.16h0m.83.23h0M.05.03h0M2 .16h0M-2.81 0h0m6.33.18h0M-.57.22h0m.36-.2h0m3.05.23h0m-6.7 0h0m2.36-.1h0m2.05 0h0M-1.79.06h0m3.1.26h0M3.3.11h0M1.57.34h0M1.6.28h0M-.46.04h0m.45.12h0m-1.96.13h0M.27.02h0m1 .18h0M-2.27.07h0M.49.39h0m-2.8 0h0M-.53.2h0m1.54 0h0m-2.25.13h0M-3.85.04h0m7.45.1h0m-.11-.1h0m-.52.08h0M-3.76.08h0m3.55.2h0M-1.52.24h0m-1.6-.07h0m.14.05h0M.99.38h0m2.06.06h0M.74.18h0M-.29.37h0m-2.62.05h0m-.7.01h0M1.23.5h0M-3.81.32h0M-2.1.15h0m-.94.3h0M3.29.27h0M3.07.16h0M1.53.28h0M.34.31h0m.2-.13h0m.7.17h0M-3.91.22h0m.78-.16h0M-2.06 0h0m-1.77.36h0m.29-.23h0m1.32.25h0m.16.06h0m.09.01h0m-.08-.4h0m1.78.02h0m-3.01 0h0m5.09.37h0M-.23.3h0M-1.31.28h0m5.1.2h0M3.26.36h0M1.55.06h0m-2.09.3h0M-1.57.22h0m-.76.04h0M-.76.07h0m-1.72.3h0m.53 0h0m-.6.07h0M-.06.22h0m-2.49.14h0M3.34.07h0M.96.1h0m-2.48.32h0M-3.51.33h0m.42-.08h0M1.82.14h0M.56.06h0m-2.6-.02h0M.2.36h0m1.1.09h0m.28.02h0M1.2.26h0M-.55.06h0m3.06.3h0M-2.3.47h0M.23.04h0m-2.59.09h0m1.52.01h0m3.81.29h0m.14-.36h0m-1.6.28h0m-4.77.02h0M3.52.25h0M-2.83.1h0M.75 0h0M.8.48h0M-1.84.09h0M1.23.2h0m.84.26h0M.25.02h0m-3.36.25h0m-.14.14h0m2.17.02h0m.79-.34h0M-3.07.3h0M3.06.1h0M-.75.04h0m-2.56.07h0m3.26.05h0m3.9.28h0M-3.04.26h0m1.35-.01h0M.74.5h0M-2.01.03h0m.52.26h0m-.76.07h0m4.51.13h0M1.57.41h0M.47.26h0M.18.35h0m3.05.06h0M.07.42h0m-2.71.01h0M1.7.06h0M-1.56.03h0M.97.28h0M.81.44h0M-1.82.42h0M2.56.1h0m-6.17.15h0m.55-.11h0m5.65.12h0M-3.14.13h0m3.71.2h0M1.95.04h0M-2.6.32h0m-.49 0h0m.09.15h0M2.21.32h0M-.5.03h0m-.95.06h0M1 .18h0m-3.51.26h0M-.5.07h0m-3.35.29h0m3.38-.2h0M1.01.14h0M.02.48h0M1.96.07h0M-3.01.2h0m1.52-.07h0m-.55.1h0m-.33.06h0M3.59.28h0M.78.34h0M3.8.01h0m-7.12.38h0M-.25.33h0m3.8.06h0M2.23.09h0M-1.3.12h0m.02.17h0M.74.03h0m-3.86.03h0m-.18.35h0M3.73.06h0M.52.38h0M-3.77.5h0m1.18-.5h0m.84.05h0m3.27.26h0M3.29.4h0M2.21.12h0m-3.94.22h0m1.26.02h0m1.53.07h0M-3.6.21h0m1.26.04h0m2.25.14h0M1.54.27h0m.39-.11h0m-5.75.01h0M.82.03h0m-1.6.36h0m1-.38h0M-2 .08h0m3.08.07h0m-4.71.03h0m6.36.29h0M-2.55.11h0m4.6.06h0M2.58 0h0M.22.08h0M1.78.4h0M-3.04.38h0M.02.3h0M2.33.21h0m.22.01h0M-3.89.08h0m1.59.13h0M-.7.17h0M-3.17.01h0M2.78.1h0M.74.18h0M-.01.01h0m-2.6.41h0m.81-.01h0M.51.18h0m1.3.2h0M-.74.27h0m2.19.04h0M.56.28h0M.52.4h0M-2.27.3h0M2.49.26h0M-.78.16h0m2.88.2h0M-.06.19h0M-.48.05h0m-2.3.02h0m.77-.06h0M.24.15h0M2.88.14h0m.46-.05h0M.82.32h0M-3.63.17h0m6.14.32h0m1.29 0h0M3.07.28h0M1.04.07h0m-3.06.14h0m4.27.14h0m-1-.27h0m-.31.2h0M3.35.3h0M-1.23.27h0M-1.3.21h0M1.87.14h0M3.56.03h0M-.5.28h0m2.13.08h0m-5.48-.2h0m7.62.15h0m-6.53.14h0m1.72-.01h0m-.48-.2h0M.2.1h0m.76.15h0m-2.04.24h0M-3.07.11h0m-.3.04h0m.37.1h0m2.69.04h0M-3.04.03h0m3.06.2h0m2.61.14h0M2.55.05h0m1.22.29h0M.57.46h0M-3.04.33h0M2.37.32h0m-5 .04h0M-3.5.29h0m6.01.04h0M2.06.28h0M.71.39h0m.8-.23h0M-3.84.12h0m.96-.07h0M.72.5h0M-1.01.28h0M-2.72.24h0m1.27.2h0M-3.11.3h0M.2.2h0m2.05.08h0m-.13.05h0m.92.07h0M1.23.02h0m-2.71.36h0M-3.81.37h0M3.75.23h0M1.72.32h0M-2.56.26h0m.79.03h0M2.07.12h0m-3.63.23h0M.81.25h0m-.2.04h0M3.83.02h0m-5.39.11h0m.99-.04h0m-.67.31h0m0 .05h0M.86.24h0m1.22.05h0M-2.78.08h0m-.3-.07h0m2.56.12h0m-1.04 0h0m2.62.11h0m2.22.2h0M2.27.13h0m-3.49.29h0m2.7-.26h0M-.57.29h0m-1.5-.25h0m4.15.24h0m1.71.19h0M2.84.29h0M-3.17.03h0m7.04.18h0M2.58.45h0M-.5.06h0m4.32.05h0m-1 .28h0M2.65.32h0m.13-.05h0M.26.22h0m1.26.02h0m-5.07.21h0m1.72-.19h0m1.5-.08h0M1.84.11h0m-.02.36h0M-1.06.38h0M0 .43h0M3.36.1h0M.96.28h0M-3.82.04h0m1.96.36h0M.19.26h0m3.6-.05h0M-.74.12h0M3.29.01h0m-7.17.1h0m2.83.03h0M1.83.06h0m.38.16h0M-2.58.11h0m-.37.24h0M2.24.01h0M1.22.44h0m-2.78.04h0m-1.53.01h0m1.81-.01h0M2.23.39h0m.81-.17h0M3.8.17h0m-5.11.32h0M-.24.3h0M3.8.11h0m-.76-.1h0M1.08.24h0M-.27.4h0m.03-.37h0m.5.35h0m-3.05.08h0M2.05.38h0M2.04.17h0M.95.23h0m2.63.05h0M-.5.4h0M.7.01h0m-3.16.33h0M3.59.15h0M-.57.21h0M-3.89.08h0M.55.42h0M-2.48.08h0m1.76.35h0m.17-.36h0m-1.76.02h0m2.08.26h0M1.61.23h0m1.71.15h0M-.08.2h0m.35.14h0M-3.01.1h0m1.97.26h0M-3 .29h0M3.25.26h0m-4-.17h0m4.64.13h0M2.32.03h0M-1.54.1h0m4.12.05h0m1.28.17h0M-.53.2h0M-3.26.09h0m.91.15h0m5.9.21h0m-.23-.1h0M-.8.12h0m2.56.01h0m-.27.18h0M-3.87.17h0M1.28.06h0m-3.17.23h0M-3.34.01h0M.24.05h0m-3.3.1h0m-.03.28h0m6.74.06h0M-1.19.08h0m5.02.18h0M1.82.22h0m.5.1h0M-2.53.3h0m5.6.01h0m-3.35.1h0M1.47.02h0m-1.65.1h0M-.7.13h0m-1.86 0h0m.46-.06h0m-.49.4h0M-3.73.1h0m2.96.3h0m-.99.01h0M1.36.18h0m-4.34.11h0M.51.35h0M3.82.19h0m-5.57.26h0m1.5-.42h0m-1.06.21h0m.23-.22h0m.85 0h0m-2.25.29h0M2.97.4h0M-1.72.26h0M1.8.44h0M-.25.18h0M.83.11h0m1.21.18h0M-.57.44h0M.2.05h0m2.13 0h0M-2.33.03h0M.48.38h0M-3.58.06h0m5.67.3h0M-1.33.07h0m-1.66.32h0M-3.8.35h0M1.75.3h0m.32.2h0M3.35.2h0M.72.24h0M2.55.09h0M-.51.34h0M2.77.12h0m-4.36.13h0M1.27.21h0m-3.85.17h0m.72-.09h0m2.87-.1h0M-3.55.16h0m1 .13h0m5.7-.11h0M-3.04.1h0m5.15.01h0m-5.4.16h0M2.83.02h0m.75.33h0M2.32.38h0m-2.6.1h0M-.54.06h0M-3.3.42h0M.28.32h0M.2.32h0m-3.78.06h0M.95.3h0M-1.3.41h0M1 .21h0m-4 .13h0m.01.12h0M3.82.01h0M3.28.3h0M-3.57.11h0M.85.22h0m-2.52.22h0M2.81.06h0M2 .18h0m-.2.13h0m-5.71.04h0m6.96.04h0M.32.19h0m-.1.3h0M-.3.36h0M2.48.32h0M-2.56.03h0m5.83.35h0M-2.5.2h0m6.07.25h0M1.01.32h0M-3.55.28h0m2.22-.1h0m1.9.01h0m1.5-.06h0m.41.32h0M-.59.13h0m.51-.07h0m-3.73.26h0M-.72.09h0m-2.09.14h0m2.6-.1h0m3.34.31h0M-2.8.47h0m-.99-.38h0M.28.11h0m-4.11.22h0m7.7-.17h0M-3.81.02h0m.28.04h0m5.38.39h0M-3.37.5h0M.73.47h0M3.92.31h0M-.73.49h0M3.62.18h0m-5.41-.1h0m.21.25h0M2.1.42h0M-.5.14h0M.55.45h0M3.33.22h0m-6.66.12h0M0 .49h0M.5.14h0m2.11.28h0M1.27.16h0M3.6.48h0M-.1.17h0M1.47.1h0M-.5.35h0M.78.13h0M-.7.36h0M3.36.33h0M-.49.4h0M-1.74.38h0M3.83.16h0m-.75.13h0M2.35.4h0M1.83.24h0m-5.38.19h0m3.2-.38h0m1.19.2h0m-4.67.12h0m2.72-.12h0M-3.5.17h0M.76.4h0M-3.09.09h0m.81.29h0m-1.24.01h0M.25.23h0M-3.99.2h0m2.57.22h0m-.32-.27h0m-.53-.12h0M.17.31h0m2.85.11h0M2.58.1h0m.86.25h0M-2.23 0h0M.82.27h0m-3.67.22h0m-.94-.05h0M3.64.4h0M-1.55.08h0m1 .37h0M-1.5.28h0m5.04.1h0M.45.41h0M-2.23.34h0m.73.01h0M-2.03.3h0M-.17.25h0m-3.14.23h0M.99.17h0m-3.86.18h0m1.01-.31h0M2.11.03h0M-2.3.11h0M.75.18h0M.25.01h0m2.86.12h0M1.49.04h0m1.04.3h0M-.19.46h0M-.41.11h0m3.16.2h0M-.54.34h0m-2.48.05h0m6-.28h0m-5.03.05h0m3.82.22h0m-4.64-.2h0M.8.26h0M-1.46.23h0m3.68.04h0m1.6.11h0M-3.74.17h0m5.23.29h0M-2.83.34h0m4.64.13h0m.77-.16h0m1.16.07h0M-.71.42h0M1.58.4h0M-1.23.09h0M2.25.06h0M-.98.33h0M-3.87.26h0M2.55.4h0m0-.34h0M-.5.34h0m2.39.09h0M.82.39h0M1.98.17h0m-4.23.2h0m4.52.02h0M3.08 0h0m-6.61.18h0m5.52.1h0M-3.04.3h0M3.33.29h0m-7.24 0h0M.81.03h0M2.08.01h0m-3.85.26h0m4.91.1h0M-2.85.3h0m1.36-.06h0m-2.38.14h0M-.7.15h0M1.35.01h0M-.98.44h0M1.7.09h0M-.55.44h0M.75.02h0m2.81.44h0M-.54.13h0M3.78.5h0M2.09.14h0m-5.17.09h0m.31-.19h0M.76.27h0m.99.01h0M.48.23h0M.25.48h0M1.3.22h0m.56.27h0M1.05.28h0m1.8.01h0M-.74.35h0M3.57.23h0M3.02.08h0m-4.54.19h0m1.3-.01h0m4.06.15h0m-6.37.03h0M.53.15h0m1.76.09h0M3.3.46h0M-3.07.24h0m4.59.03h0m-5.4.12h0m.12.1h0m2.54-.28h0M-3.26.12h0m4.89.09h0m1.59.15h0m-.47.08h0M.84.48h0M-1.51.44h0M-3.89.26h0m3.1-.03h0m.6.24h0M.26.44h0M-3.02.11h0m6.08.26h0M.76.01h0M.51.14h0m-2.53.02h0m4 .19h0M-2.61.11h0M-3.79.04h0m5.33.34h0m.49.05h0m-.55.01h0m1.03-.2h0m.08.21h0M.98.3h0M-3.05.02h0m.76.12h0m-.03.08h0m.28-.1h0m-1.79.36h0m2.57-.2h0M1.7.39h0m-3.67 0h0m1.69.07h0M1.26.04h0m.46.44h0M-3.75.25h0m7.74.14h0M.28.39h0m.26.09h0M-2.53.02h0M1.26 0h0M-3.4.25h0m2.83 0h0m-.94-.09h0m3.49.29h0M-3.29.03h0m6.51.21h0M.69.21h0M3.04.5h0M-1.98.38h0m-1.65-.2h0M-1.96 0h0m4.01.14h0M-3.6.21h0m5.15.26h0m.44-.01h0M-.19.33h0M.78.16h0M-2.26.14h0m1.95.02h0m-3.46-.1h0M-.5.44h0M2.03 0h0m-5.17.02h0m-.43.27h0m6.1-.05h0m-.52.09h0M.23.27h0m.24.22h0M1.51.42h0M-3.53.01h0m2.78.25h0m-1-.01h0M3.28.18h0m.36.08h0m.2.18h0M-.46.43h0M1.56.26h0M.78.2h0M-2.11.17h0m3.98.2h0M-.04.05h0m3.63.01h0m-6.9.17h0m5.62.11h0M-.07.13h0m3.03.09h0m-5.3.11h0M3.03.18h0m-3.22.3h0m3.46-.4h0M-.48.07h0m2.03.24h0M1.04.09h0M-.98.28h0m2.3-.21h0M-.26.28h0M-.57.24h0M3.82 0h0M2.51.12h0m.8.08h0m-5.14 0h0m-.01.23h0m5.65.01h0M2.8.33h0M-.79.42h0M.94.22h0m-2.8.05h0M3.37.16h0m-6.16.27h0m1.54-.22h0M.69.37h0m-4.03.02h0M3.87.02h0M0 .07h0m-1.57.4h0M2.47.38h0M-.05.01h0m-1.19.05h0M2.05.4h0M.77 0h0m-4.09.14h0M-.46.11h0M3 .35h0m-4.86.02h0M2.07.26h0M-.45.45h0M.06.18h0M-.53.11h0m2.04.08h0M-3.35.03h0m1.61.43h0M-3.81.03h0M.56.29h0M.2.01h0m1.61.31h0M.51.48h0m1.36-.1h0m-3.83.11h0m.68-.04h0m3.3-.43h0m-2.6.21h0m-2-.17h0m4.37.15h0M2.2.07h0m1.16.29h0m-6.64.01h0M.5.45h0M-3.33.12h0m5.61.26h0m0-.25h0m-5.37.08h0M0 .45h0M3.1.04h0m-.54.4h0M-1.2.07h0m-.31.42h0M-3.07.08h0M.17.43h0M.11.46h0M-1.55.28h0M2.8.16h0m.17.14h0M1 .23h0M-2.79.11h0m4.28.14h0m1.04.17h0M-1.75.37h0m-.77-.2h0M.52.4h0M-2.24.12h0m1.02 0h0m4.85.13h0m-5.44.23h0m-.04-.24h0M1.21.2h0m1.62.1h0m-.7-.02h0M-.74.45h0M-3.41.08h0m1.9.01h0m1.26.32h0M-.46.37h0M1.77.28h0m.58-.24h0M.96.18h0m2.1.14h0M-.45.34h0M-.73.07h0M3.6.41h0M-1.47.17h0m4.76.3h0m-5-.03h0m.44-.26h0m-.72.23h0m-.07-.27h0m1.49.15h0M-3.12.11h0m.65.27h0M-.55.07h0m3.4.09h0M-3.34.14h0m6.57.27h0M-3.6.18h0m2.59.12h0m3.4.09h0m.46-.27h0m-5.4.21h0M.04.48h0m-1.05-.4h0M.2.49h0M3.09.38h0m-.5-.31h0M.5.35h0M-.6.37h0M.17.31h0m1.9.15h0M-2.25.45h0M-.79.19h0m2.87.29h0M-1.8.34h0m-.99-.05h0m1.04-.18h0m5.07.2h0M-1.78.3h0m.1-.08h0m3.02.15h0m-4.4.09h0m.26-.13h0m-.78-.17h0m6.37.09h0m-6.04-.2h0m4.98.13h0M-.74.33h0M-2.29.1h0m1.78.14h0m.08.23h0M-3.29.4h0M3.85.21h0M3.6 0h0M.77.27h0m-2.13.18h0M3.8.17h0m.06.3h0M4 .46h0M-2.76.25h0M1.28.24h0m1.01-.2h0m-3.32.21h0m-1.81-.1h0m1.54.12h0m-.95.05h0m.73-.27h0m-2.11.18h0m.06.24h0M-.04.39h0M1.24.22h0m-3.46.21h0m2.04.06h0M.77.47h0m-4.3-.35h0m4.62.37h0M1.05.2h0m.79-.03h0m.19.26h0M1.07.09h0M-3.54.01h0M3.01.3h0M.46.38h0m1.11.1h0M-.24.21h0m-.31.04h0M-2.03.17h0m4.8.09h0m-5.62.1h0M.51.08h0m-3.04.25h0M2.75.16h0M1.33.21h0m2.34.18h0M.94.33h0M.77.34h0M2.25.18h0M-.42.1h0M2.53.06h0m-3.38.1h0M2.88.4h0M-.26.31h0m1.92.13h0M3.07.27h0M3.03.08h0m-6.55.09h0m3.26-.1h0m-.2.07h0M.78.03h0m2.2.39h0M-2.29.05h0m3.32.03h0M2.77.2h0m.1-.07h0M-.96.37h0M-3.84.3h0m6.29.01h0m.37.1h0m.76.07h0M1.05.47h0M2.48.29h0m-4.23.16h0m.7-.08h0m2.36.1h0M-1.82.31h0m-.29-.22h0m3.36.17h0M-1.29.22h0m1.5.12h0M2.34.19h0M.04.01h0m.97.35h0m-4.78.08h0M2.28.42h0m.31-.25h0M3.63.12h0M.79.28h0m.32.2h0M-1.05.19h0M2.26.07h0m-.23.25h0M.25.38h0M-1.07.26h0m-.5-.03h0M-3.6.49h0M1.87.35h0m.12.09h0M-2.02.29h0m-.03-.23h0m-.53.36h0M1.5.41h0M2.99.03h0M1.01.14h0M-3.87.1h0m.25 0h0m5.89.37h0M.24.11h0M3.38.09h0M-.73.01h0M-.46 0h0m-3.13.3h0m2.02-.15h0m-1.96.1h0m1.01.03h0M2.03.04h0m-.51.27h0M-.49.4h0M2.49.35h0M.67.42h0M.53.27h0m-.99.19h0M.21.13h0m-.56.36h0M-3.14.25h0m1.37-.04h0M-.72.18h0M1.79.15h0M.5.35h0M2.04.17h0m-.98.2h0M.83.41h0M.26.18h0m2.55.21h0M-2.47.26h0m-.63.22h0m1.51-.29h0m-1.97.27h0m5.07.01h0M-2.27.5h0m-1.58 0h0m1.82-.04h0m3.1-.33h0m-4.44.04h0M-.61.4h0m-1.93.02h0M1.79.23h0m2 .26h0M-.57.15h0m-.74-.11h0m-.94.01h0m6.11.27h0M1.75.4h0m-4.28.09h0M.67.48h0m-.75-.1h0m3.95.04h0M1.76.28h0M1.02.24h0M-.94.11h0m3.47.33h0M.54.18h0m-2.26.09h0m3.23.01h0m2.1.08h0M1.82.21h0m1.47.24h0M.24.47h0M-3.6.39h0M3.84.13h0M-1.2.15h0m-.58.21h0m-.57-.02h0m-.64-.19h0M.03.04h0m2.85.21h0M-3.8.1h0m6.9.31h0M2.28.02h0m-5.61.03h0m2.32.07h0M1.8.19h0m1.23.2h0M-3.9.08h0m6.93.27h0M1 .27h0M-3.01.12h0m.44.3h0m-.29-.13h0m.09-.08h0M2.36.14h0m-4.17.17h0M.05 0h0m2.73.31h0m-5.84.01h0M1.1.15h0m1.4.28h0M-.19.48h0M3.62.15h0M-3.01.06h0m5.54.15h0M-3.56.06h0m7.13.1h0M.77.08h0m.1.22h0m-1.2.15h0M3.04.26h0m-1.5.19h0M.67.26h0m-2.73.21h0M.55.42h0m2.5-.07h0M-2.84.21h0M.29.46h0M1.72.28h0M-.05.33h0M3.49.18h0M-.8.34h0M1.54.12h0M-3.8.41h0m.72.01h0M1.26.13h0m-3.89.21h0M.82.33h0m.21-.3h0m-3.78.04h0m-.06.11h0M3.4.22h0m.15.03h0M3.28.06h0m-4.55.23h0M-3.35.26h0m.56.19h0m-.5-.34h0m3.87 0h0M.8.04h0m2.27 0h0m-.63.01h0m.41.03h0m.02.14h0m-6.12.05h0m.01-.22h0m4.7.38h0m.5-.36h0M.3.12h0m-1.8.27h0m4.01 0h0M-3.22.37h0M-3.54.2h0M2.21.12h0M-3.61.5h0M3.12.24h0M2.66.22h0m-5.94-.2h0m-.56.09h0m3.9.12h0M-3.02.01h0m-.83.19h0m2.48-.1h0m-1.5.23h0M2.57.02h0m-.22.16h0m.54-.06h0m-.42.29h0M.03.37h0m2.34-.3h0m.93.17h0M1.55.45h0M-.48.34h0m-.88.12h0M3.83.21h0m-5.05-.1h0M.03.42h0m3-.07h0M-.52.31h0m4.35.17h0M-2.02.36h0M-.69.01h0m-.82.24h0M.54.44h0m.04-.1h0M-3.66.19h0M2.59.06h0M.05.39h0M-2.21.02h0M.1.25h0M3.53.22h0M2.75.17h0M2.6.09h0m-6.39.37h0M2.54.39h0M1.31.21h0m0-.13h0M3.86.3h0M2.33.26h0m.95.14h0M1.02.42h0m-2.5-.05h0M3.6.46h0M-.82.32h0m-.67-.27h0M1.99.02h0M3.8.5h0M3.06.48h0M-.03.39h0M-.32.27h0M3.53.04h0m-5.58.11h0M.79.48h0M-3.03 0h0M.85.2h0m2.42.06h0M2.26.02h0m.71.09h0m-5.78.36h0M1.5.19h0M.06.45h0M-1.93.41h0M-.45.07h0m1.69.4h0M-.72.16h0M0 .23h0M3.37.07h0M-3.34.2h0m5.67.06h0M-3.83.03h0m4.88.23h0m-.03.19h0m.76-.12h0m-3.35 0h0m5.13.16h0M-.45.07h0m2.02.07h0M-.54.19h0m.32 0h0M-3.28.1h0m6.4.26h0M-1.49.08h0m4.03.21h0M.52.23h0m-1.78 0h0m.24-.23h0M.51.06h0m.26.29h0M.83.22h0m.65.16h0m-5.32.08h0m.52.02h0M.75.42h0M-.59.47h0M.24.4h0M.3.28h0M3.64.4h0m-5.6-.38h0m4.21.27h0M2.5.24h0m-4.82.08h0M2.83.15h0M.27.18h0M-3.65.02h0m5.63.14h0m-4.06.15h0M.55.25h0m-1.61.08h0M1.82.02h0m-5.37.34h0m.18.03h0m2.12-.17h0m-2.33.25h0m2.22-.36h0M2.52.05h0m-5.55.14h0m4.85.04h0M.47.08h0m2.14.17h0M.2.23h0m-.67.24h0M-3.12.39h0M.3.09h0M1.74.07h0m.51.18h0M-1.6.37h0m3.12.02h0m-.03-.3h0m-3.03.34h0m-.24-.34h0m-.81.26h0m4.3.08h0M.02.28h0M3.83.07h0M-.26.09h0m-.98.15h0m2.26.01h0m1.6-.18h0M-3.85.2h0m7.72.26h0M-.31.38h0M1.55.37h0M-2.26.3h0m1.75.11h0M-2.27.14h0m4.33.17h0M-3.32.4h0M3.05.2h0m-5.61.04h0M-.78.06h0M-3 .43h0m.98-.16h0m4.83 0h0M-.25.23h0m-2.06.25h0M3.05.09h0M2.49.2h0M-1.5.05h0m4.12.13h0M.72.5h0M3.49.45h0M-.32.48h0M2.5.01h0m1.39.36h0m-6.44 0h0m3.76.07h0M-.2.43h0M-2.51.24h0m4.08.05h0m1.18.16h0m-4.3-.29h0m.08.04h0m-2.17.16h0m5.4-.07h0M-3.48.18h0m2.43-.16h0M.26.48h0M2.05.19h0M3.1.47h0M-.99.24h0M2.97.12h0M1.3.14h0M2.59.11h0m-6.13.16h0m.78-.2h0M.48.18h0m-2.01.27h0M2.52.14h0M2 .11h0m-3.03.23h0M.31.11h0M.54.03h0m1 .3h0m.24-.27h0M.24.2h0m-4.08.08h0M-.2.02h0m.77.39h0M.72.37h0M2.59.28h0M-2.34.19h0M.49.08h0m-4.01.24h0m6.34-.1h0m-6.34.12h0m5.06.11h0m-5.32 0h0m.52-.05h0m4.78.01h0M.74.14h0M-.96.1h0m-2.1.16h0m6.13-.2h0M-3 .11h0m-.28.26h0m2.47-.2h0m3.1.29h0M1.78.01h0m-4.08.4h0m.48-.26h0m3.6-.11h0M-.33.47h0m-2.7-.16h0m4.1-.08h0m-3.34.06h0m4.54.16h0M-3.21.12h0m-.59.22h0m5 .13h0m-4.3.01h0M.25.05h0M-1.36.01h0m.68.29h0M3.83.09h0M-.05.26h0M-2.26.21h0m.66.07h0m4.63-.1h0M2.58.02h0M.45.26h0M3.74.22h0M.69.11h0m-4.18.16h0M-.28.11h0m-.51.12h0M-4 .26h0m3.74-.1h0m-2.28.23h0M-3.79.38h0M-2.04.3h0M2.31.07h0m.98.27h0M2.05.33h0M3.31.26h0M-.22.41h0M3.38.3h0M1.77.33h0m-2.8-.27h0m-1.82.07h0m.77.13h0m-1.78.17h0m1.83-.16h0M.3.13h0M.76.04h0m-1.82 0h0M-3.34.3h0M-.17.08h0M2.32.03h0m.19.32h0m.77.1h0M-.51.04h0m1.7.44h0m1.85-.3h0m-4.32.28h0m.72-.38h0m.25-.01h0M.46 0h0m-3.01 0h0m1.04.14h0M-3.83.11h0M3 .45h0M.8.29h0M.3.27h0m-2.36.02h0m1.03.12h0M3 .3h0m.59.06h0M-1.74.27h0M3.85.09h0m-5.4.13h0m3.82.05h0m-.94.14h0M-2.33.2h0M3.1.3h0M.78.1h0M.79.02h0M-.53.1h0m.32.09h0M-2.07.07h0M2.81.04h0M-.02.13h0m.23.25h0M2.46.06h0m-3.53.29h0M1.34.02h0m1.97.23h0M1.18.46h0M.23.45h0m.27 0h0M-3.77.12h0m1.98-.06h0M.5.22h0M-.29.04h0m-1.57.43h0M2.81.24h0m.75.19h0M-1.85.06h0m-1.67.23h0M3.27.26h0M-2.8.25h0m4.11.06h0M3.05.12h0m.22.33h0M.93.45h0m-4.32-.4h0m5.9.14h0m-3.87.18h0m-.46-.33h0m1.29.12h0M-3.52.15h0m6.6-.03h0m-.87.15h0m.82.21h0M-2.06.14h0m-.71.21h0M3.87.33h0M-2.81.11h0m5.36.23h0m-3.88.13h0M3 0h0m-.75.19h0M.99.14h0m.52 0h0M.77.31h0m-4.31.12h0m.97-.1h0m3.68.12h0M.1.11h0m-1.11.12h0M.22.07h0M2.99.02h0M.48.39h0M-3.23.35h0M.99.22h0m.04.23h0m-3.39-.2h0M-2.87.1h0m3.88.2h0M.72.03h0m-1.95.32h0m2.76-.3h0M-.82.44h0m-.72-.41h0m4.7.02h0M-.75.47h0M1.03.04h0m-2.26.29h0M-3.52.04h0m3.31.15h0m3.53.28h0M-3.06.35h0M-.01.29h0M-3.3.48h0M3.75.34h0M-.48 0h0m1.52.27h0M.23.01h0m-3.34.16h0m6.72 0h0m.19.28h0M-.48.04h0m-.24.11h0m-2.61.29h0m1.5-.33h0m1.3-.04h0m3.77.04h0M-2.24.1h0m1.57.01h0m4.31.08h0M.22.49h0M-.31.37h0m1.8-.2h0m-3.98.11h0M3.26 0h0M.72.15h0m-3.45.27h0M-.8.45h0M2.02.12h0m1.25.2h0m-1.2.14h0M3.85.2h0M2.38.14h0M-2.82 0h0m-.42.25h0M3.52.13h0m-.87.05h0M2.5.39h0M.03.07h0m-3.77.37h0m2.48.05h0M-1.52 0h0m1.08 0h0m-2.68.33h0m1.91.15h0M-1.33 0h0m-1.19.5h0M-3.3.07h0m1.3.08h0m5.02.21h0M-.28.01h0m1.82.4h0M-.84.32h0M2.83.17h0M.21.47h0M-2.01.36h0m3.28.05h0m1-.1h0M-3.05.23h0m6.51.18h0M-.25.24h0m-3.02.17h0M.02.22h0m2.39.07h0M2.34.3h0M1.98.07h0m-4.7.13h0m4.7-.19h0M1.1.05h0m.41.14h0M-.99.02h0m-2.05.26h0m3 .2h0M2.75.34h0M2.33.12h0M.5.12h0m-3.31.2h0M2.32.16h0M-2.1.1h0m5.35.17h0M1.71.21h0M3.33.18h0m-3.6.24h0M1.52.31h0M-.46.25h0m1.81.13h0m-3.11.01h0m.03-.25h0m-1.56.24h0M3.03.03h0m-5.34.31h0M.48.3h0m3.06.15h0M.68.49h0M1.82.46h0M-2.24.03h0m4.52.39h0M.01.22h0m-2.79.06h0m2.27-.2h0m3.55.1h0M1.24.17h0M3.78.01h0M-.07.07h0M.24.02h0m-3.01.1h0m2.75.29h0M-2.35.06h0m-1.01.18h0m1.09-.01h0m2.2-.21h0m3.65.2h0m-6.46.24h0m2.6-.24h0m-3.49.15h0M2.28.14h0m-.49.11h0m-5.1-.21h0m6.34.38h0M-3.8.46h0M1.5.27h0M-.79.07h0M3.3.13h0M-.44.04h0M3.11.02h0M-.23.38h0M1.29.04h0M-2.99.2h0m1.92.26h0M-3.25.28h0m4.78.06h0m-3.85.01h0M3.02.03h0M.5.09h0M-.06.5h0m.03-.14h0M-3.82.18h0m7.44.04h0m.02-.07h0M.19.09h0m3.43.17h0M-.81.4h0M-3.58.31h0M3.27.03h0m-4.52.26h0M-2.77.22h0m.18-.19h0m-.9.45h0m.14-.36h0M-1.21 0h0m-2.14.47h0M.58.17h0m-3.41.27h0m-.05-.38h0m1.07.01h0M-.5.33h0m-2.35.1h0M2.3.49h0M-3.6.13h0m.76.32h0m.02-.11h0m1.6-.13h0M.91.32h0M.72.12h0M-3 .43h0M2.32.2h0m-.23.25h0M-2.27.38h0M.26.42h0m2.52.02h0M-.03.37h0m-.94.11h0m-.48-.15h0m3.24.11h0M-1.59.12h0m.56.2h0M.66.35h0m-2.97.12h0M3.36.28h0M.02.17h0m-2.3.04h0m3.51.17h0m-5.1-.11h0m-.02-.23h0m7.16.25h0M.23.22h0M-2.04.4h0m2.8 0h0M-1.53.28h0m4.36-.2h0m.95-.07h0m-7.63.14h0m.54.35h0m-.47-.14h0m.23.04h0m-.08-.38h0m1.64.34h0m5.87.1h0M-1.79.21h0m.26.06h0M2.01.14h0m1.08.01h0M-1.12.03h0m4.41.46h0M.56.01h0m-2.84.37h0M1.5.42h0M-2.08.15h0m.07-.1h0M.74.2h0M.33.43h0m-2.61.06h0m-1.27 0h0M3.59.2h0M-.28.04h0m3.89.27h0m-5.14 0h0m-2.1.11h0m2.38-.18h0m4.6.14h0m-7.2-.27h0m5.83.24h0M3.27.34h0M-3.28.19h0m.47.09h0M-3.3.24h0m1.79-.09h0m4.09.09h0m-.06.01h0M-3.57.11h0m2.56-.05h0m3.04.08h0M1.95.2h0M.72.06h0m.84.09h0M-2.3.17h0m5.08.09h0M2.02.11h0m-4.88-.1h0m4.14.47h0M-1.29.24h0m-2.5.14h0M2.85.29h0m-4.97.07h0m3.49.02h0M-2.3.43h0M-.06.38h0M2.25.02h0m1.6.3h0M-.78.33h0m.04-.2h0M-3.39.07h0m1.65.24h0M-1.85.3h0m-.64-.09h0M3.03.06h0M1.77 0h0m-4.85.07h0m6.4-.04h0m-.73.04h0m-4.93.28h0m-1.47.12h0M3.37.41h0m-.14.08h0M-1.1.23h0M.53.28h0m.69.12h0M1 .23h0M3.05.12h0M-2.77.5h0M3.09.22h0m-4.6.18h0M-.24.25h0m-2-.01h0M-.8.32h0M-3.07.28h0m.74.14h0m-1.26.06h0m5.4-.46h0m-.76.27h0M-.7.2h0m3.98.15h0M2.35.11h0m-6.2.09h0m.23.05h0m5.15-.1h0m-5.07.26h0m5.1-.07h0m-.9.08h0M-2.51.25h0m-.46.1h0M3.27.5h0m-4.6-.1h0M-.29.27h0M-2.26.14h0M-1 .01h0m4.6.24h0M-3.61.07h0m1.86.14h0m3.86-.2h0M-.48.43h0m-1.8-.35h0m5.66.07h0M.25.13h0m.5-.04h0M.56.21h0m2.72-.1h0M-2.79.09h0m-.51.33h0M3.33.24h0M.23.12h0m3.53.33h0M-1.52.16h0m-1.75.02h0m6 .24h0M-.76.25h0M3.82.5h0M-3.56.29h0M4 .09h0M2.59.12h0m-3.1.1h0m2.78.17h0M1.18.06h0m1.71.42h0M-3.02.46h0m-.11-.37h0m4.66.19h0m1.55-.1h0m.71-.15h0M.02.22h0m.25.2h0M1.95.06h0M.03.32h0M-1.02.09h0M-2.3.24h0m5.07.03h0M3.81.03h0m-.68 0h0M-3.1.29h0M.5.28h0m-4.05.13h0m4.57.06h0m.97-.42h0M-.3.06h0m-2.15.4h0M.23.19h0m2.75.3h0M-3.24.27h0m-.37 0h0M-1.75.2h0M.79.49h0M3.12.44h0M-1.26.35h0m1.5.01h0m-2.19.11h0M.8.2h0M.79.31h0M-.43.29h0m.18.18h0m3.06-.1h0m-5.43.1h0M1.23.21h0M3.54.14h0M-3.38.2h0m2.32-.08h0m.88.13h0M3.07.17h0m-4.65.07h0m4.42.22h0M-3.53.34h0M1.01.33h0M2.27.04h0M.71.29h0m3.28.09h0M2.29.15h0m-.04.14h0M-1.81.17h0m4.66.1h0M-.56.3h0M1.83.1h0M-.51.44h0M-3.49.33h0M.27.44h0M-1.02.36h0m3.88.02h0M1.11.44h0M-.98.38h0m.94 0h0M2.29.03h0m1.05.19h0M.28.29h0m.74-.16h0M.03.4h0M-1.35.28h0m4.7.04h0M.47.04h0m-.5.3h0M3.52.23h0M.25.1h0m2.83.21h0M2.3.22h0m1.21.06h0m-6.74.2h0M1.04.04h0m-3.06.29h0M-2 .3h0m.93.18h0M-.8.1h0M.67.07h0m1.9.11h0M-3.28.07h0m4.87.42h0M.25.48h0M3.58.03h0M2.49.32h0m-4.01.07h0M.54.15h0M-.9.03h0m-.89.33h0M.03.14h0m3.82.15h0M2.51.3h0m.58.08h0M-.23.31h0m-.73.08h0M.29.19h0M-2.79.2h0m-.97-.09h0m2.05.22h0M-3.26.06h0m-.09.27h0m.9-.17h0m2.44.28h0M.77.06h0m-3.5.11h0m.72-.06h0m5.54.26h0M.5.38h0M-2.26.34h0m1.5-.05h0M.74.02h0M-3.5.31h0m1.94-.17h0m-.73.04h0m.27.12h0m.58.04h0m5.08-.1h0M-1.5.06h0m-.88.39h0m1.34-.26h0m-2.24.15h0M-.44.1h0m2.72.38h0m-3.5-.37h0M.76.42h0m.5-.21h0M-3.38.5h0m2.3-.42h0M-2.11.03h0M-2.2.3h0M.73.22h0m-4.32.14h0M2.03.21h0M-1.46.14h0M-3.83.03h0m5.7.1h0M-1.98.06h0m.26.16h0M.06.11h0m3.03.31h0M1.5.35h0m.03-.11h0m-.75.2h0M3.6.1h0M.78.23h0M-.23.21h0M-3.8.17h0M3.09.3h0m.3-.16h0M1.01.09h0M-.03.16h0m-3.08.29h0m1.58-.14h0m.25.12h0m.77-.31h0m-1.28.31h0m5.7-.38h0M-.74.11h0M1.12.1h0M-.3.08h0M.74.31h0M-1.34.2h0m-1.48.17h0m1.53.02h0M.48.46h0m2.85-.2h0M2.28.27h0m-1.01.2h0M.05 0h0M-.96.08h0m3.95 0h0m-4.04.17h0M1.24.07h0M.23.36h0M-1.34.31h0M0 .23h0M3.55.4h0M-1.08.12h0m-.19.32h0m4.12-.4h0m-.84.11h0M1.38.01h0M.49.18h0M-.76.09h0m.97.23h0M3.8.08h0M-.49.21h0m.4.1h0m-.19-.3h0m-3.19.38h0m.11-.34h0m1 .33h0m-.72-.31h0M2.71.01h0M-3 .47h0m6.84-.3h0M3 .22h0M2.56.18h0M2.25.01h0m-3.97.1h0M-.28.05h0M-.3.14h0m-.25.25h0M1.51.15h0M-2.32.1h0m3.81.01h0M-3.8.32h0m6.86.16h0m.82-.02h0M-.51.02h0m3.61.3h0M-1.79.23h0m-.52.03h0M3.37.24h0m-7.18.17h0m.74-.41h0m1.49.26h0m2.6-.04h0m.53.22h0m-4.11 0h0M.46.2h0m2.05.15h0m-.73-.1h0M2.84.5h0M.08.29h0M.27.08h0M-3.1.27h0m3.07.05h0m-3.26.02h0M-.22.32h0M2.84.31h0m-.2.14h0m-5.68-.1h0m6.11.12h0m-6.7-.25h0m2.38.15h0m-1.33.11h0M3.86.24h0M1.8.04h0M.75.37h0M-3.08.21h0M.71.38h0M2.54.31h0m-5.89.15h0M2.58.04h0m-4.38 0h0m-1.66.38h0m-.31-.04h0M1.08.17h0m2.43.06h0m-6.3.14h0M.25.44h0M-.51.36h0m-1.22.13h0m.54-.3h0M.7.41h0M2.8.23h0M.46.47h0m-2.43.02h0m-.29-.28h0m3.57-.1h0m1.27.25h0M-3.08.1h0M-4 .18h0m.98.23h0M1.55.27h0M1.09.13h0M-1.57.09h0m1.35.28h0M-1.99.03h0M.49.27h0M.04.1h0m.22.01h0M1.52.03h0m-4.79.1h0M3.65.09h0m-7.51.06h0m5.04.26h0M2.57.33h0M-.17.28h0m-2.39.09h0m2.29.04h0M-.73.19h0M1.61.14h0M-3.88.12h0M1.76.3h0M1.7.21h0M-2.01.07h0m4.72.42h0M1.87.41h0M.53.05h0M.07.26h0M3.35.22h0m-.11.12h0M3.32.2h0M2.75.14h0m-3.94.29h0M-3.83.16h0M-.8.12h0m.5.12h0m.8.21h0M-.59 0h0m-2.19.02h0m-.69.24h0M1.02.1h0m1.85.02h0m-1.8.29h0m-2.09-.2h0m.23-.09h0m-2.2.23h0m6.74.1h0M.92.24h0m2.42-.1h0m-.76.05h0M.23.12h0m-3 .2h0M.47.36h0m-3.85.11h0M.5.5h0M1.84.49h0M3.86.43h0M-1.47.41h0M3.87.5h0M-1.62.26h0m-1.74.09h0m1.52.05h0M-.52.31h0m.48-.29h0m-2.74.14h0m2.24.11h0M.59.07h0M-2.28.06h0m2.03.12h0m.54 0h0M2.74.04h0m.87.32h0m-5.1-.11h0m4.28.04h0M1.11.15h0m-4.67.17h0m7.1.01h0M-2.02.06h0m.76.27h0m.23-.29h0M.01.13h0m.47.34h0M.99.44h0M2.32.36h0M1.04.32h0M-3.74.15h0m1.7.02h0M.95.28h0m-2.8-.13h0m.53.29h0M-2.49.26h0M.56.11h0M-3.88.09h0m3.57.37h0M.58.43h0M.19.42h0m3.1-.08h0M-1.07.12h0m.3.16h0M3 .32h0M-.31.33h0M-2.25.02h0m3.8.26h0M-2.39 0h0m2.38.23h0m-3.54.08h0m.75.11h0M-.06.16h0M.53.4h0M-1.23.17h0m3.52.17h0M-3.86.18h0M3.05.03h0M-3.1.07h0m6.46.16h0M1.32.25h0M-.46.34h0M1.28 0h0m-2.29.29h0M3.52.21h0M-.97.07h0m-1.59.18h0m5.1.12h0M2.07.1h0m-.8-.1h0M0 .32h0M-1.76.11h0m3.02.34h0m2.07.01h0M-.74.33h0m-1.48 0h0M.96.15h0M-.97.41h0m.2-.03h0M-2.06.06h0M-.2.15h0M3.52.2h0M.56.18h0M1.01.1h0m-3.53.34h0M3.04.29h0m.77-.04h0M-3.25.03h0m6.58.18h0m-5.31.16h0M-.76.13h0m3.8.27h0m.78-.15h0M2.34.42h0M2.06.4h0M-.8.02h0m2.31.41h0M.78.34h0M-1.73.1h0m-.06.05h0M2.29.02h0m-5.54.12h0M2.23.3h0m-5.61.06h0M3.85.15h0M-3.8.39h0m1.5.05h0m5.59-.1h0M2.08.32h0M-.31.19h0M-2.23.3h0M-.3.25h0M-2.26.02h0m3.97.42h0M-2.77.26h0m1.42-.09h0m.04-.16h0m3.38.2h0m1.46.23h0M.94.29h0M-1.3.43h0M3.79.34h0M-1.6.1h0m3.31.21h0M3.6.49h0M2.3.37h0M3.9.05h0m-.01.02h0M.95.18h0m-2.24.23h0M-3.08.32h0m4.87.06h0M3.3.04h0m-.31.01h0M-2.07.2h0M-3.08.16h0m.31.33h0m1.74 0h0M.52.45h0m.5-.4h0M2.51.1h0m-4.34.1h0m1.1.1h0m-1.86.14h0M-3.75.17h0m.21.11h0m6.02.16h0M.59.07h0m2.97.06h0M-1.99.07h0m5.26.34h0M-1.36.24h0M-2.85.11h0m4.9.35h0m.5-.42h0M1.99 0h0m.38.3h0M-2.56.28h0m5.33.01h0M-2.71.01h0m4.98.11h0m-4.49.15h0M.27.02h0m-2.54.4h0M2.55.36h0m0 .01h0m-5.33.1h0m5.93-.2h0M-.27.34h0M-3.62.02h0M.34.36h0M-1.1.37h0M.72.33h0M2.78.1h0m-6.07.28h0m7.11-.1h0m-2.6.21h0M-2.04.06h0m3.06 0h0m-4.87.01h0m7.37.01h0M-3.6.36h0M.34.1h0M-3.77.02h0m5.31.07h0m-2.3.05h0M.2.36h0m1.3.1h0M-3.15.34h0M3.51.09h0m-6.55.37h0M3.25.1h0m.09-.08h0m-6.19.04h0m-.96.35h0M-.82.28h0M-1 .4h0M1.28.13h0m.73-.05h0M.5.1h0m.06.06h0M3.09.03h0M-2.49.1h0M3.59.09h0M.25.39h0m-3 .11h0M2.7.43h0M-.73.22h0m4.5.19h0M.69.16h0m-2.24-.1h0M.78.25h0m1.95.17h0M2.59.07h0M-.48.31h0m-.29.02h0m-.78-.31h0m4.34.34h0M-.75.01h0m-.35.48h0m2.55-.4h0M.02.11h0M1.09.5h0M2.22.01h0m.84 0h0m-.51.01h0m-3.98.39h0M-2.79.14h0m-.23.31h0M3.14.32h0M.74.35h0m-.8-.3h0m3.91.2h0m-2.4.13h0M-2.91.27h0M-.23.08h0m2.55.08h0m1.43.27h0M2.73.29h0M2.31.22h0M3.76.09h0m.1.38h0M2.02.21h0M.72.08h0M.06.03h0m-3.36.3h0m5.28.05h0M.62.13h0M-3.8.25h0m.48-.18h0m7.13.26h0m.04.13h0M-3.88.05h0m6.14.42h0M.07.38h0M.29.02h0m-3.06 0h0M.72.21h0M3.03.12h0M1.06.31h0M-1.05.03h0m4.4.17h0m-5.9-.16h0m2.66.3h0m-3.18-.1h0M.04.09h0m-3.62.37h0M3.36.08h0M1 .13h0m-4.33.29h0m.15-.37h0m5.17.23h0m.63.14h0M2.58.38h0M-3.29.22h0M2.6.07h0m-5.65.24h0m.97.12h0M2.49.2h0m-.95.28h0M-3.29.16h0m5.02.3h0M3.52.17h0m-5.75.06h0m5.25.13h0M-.77.1h0m-.78.16h0M4 .27h0M2.26.02h0M3.87.2h0M1.95.29h0M-.5.14h0m-1.79.3h0M-.6.13h0m.56.34h0M-1.75.01h0m-.08.05h0m3.86.25h0m-5.79.16h0M2.9.03h0m-.83.35h0M1.54.32h0M-3.63.29h0M1.55.16h0M-2.27.2h0m1.5.21h0M.58.18h0M.03.35h0M3.78.04h0M.3.32h0M-3.38.01h0m5.6.29h0M.73.04h0m-3.31.09h0m2.06.29h0m-1.06.05h0m-.46.01h0m.22-.13h0m-.8-.06h0M.34.03h0M2.2.19h0M-1.49.03h0M2.27.02h0m-.9.25h0M-3.31.23h0m4.29.2h0M3.37.41h0M.99.08h0m1.8.15h0M-3.12.18h0m6.7.23h0M-.97.24h0M.92.27h0M-1.06.08h0m2.6.21h0M.21.32h0M.24.26h0M3.55.4h0m-6.6.03h0M-.94.29h0m3.29.15h0M-2.26.05h0m3.57.33h0M2.8.32h0M2.52.17h0m.32.27h0M-1.8.27h0m-.96.04h0m5.49.11h0M-.45.44h0m2-.37h0M.73.05h0m-3.28.38h0M-.77.28h0M3.61.12h0M.28.44h0m2.8-.12h0m.71.17h0M-.43.15h0M-.3.11h0M-.76.07h0m2.3.31h0m.53.03h0M.83.16h0M.7.32h0M-.6.16h0M2.37.03h0M-.2.29h0m1.54-.2h0m.4.24h0M-1.35.04h0m4.87.27h0m-4.58-.3h0M.31.42h0m-.6.02h0m2.51.03h0M-3.59.32h0m2.22-.01h0M3.85.1h0m-6.16.01h0M3.32.07h0M-1.6.48h0M-3.54.11h0M2.9.32h0M-.21.2h0M-3.76 0h0m7.55.43h0M-3.34.22h0m7.1-.15h0M3.5.1h0M-3 .04h0M-.95.03h0m.88.04h0M.46.1h0m.77.33h0M-1.51.26h0M3.58.24h0m-.35.2h0m.6.06h0M3.29.2h0M1.61.23h0M.69.49h0M-1.24.36h0m0 .07h0m.79-.17h0m3.47.21h0M0 .5h0M-1.74.48h0M3.55.43h0M1.79.49h0M-1.2.44h0M-3.35.41h0m2.58-.2h0m-.8-.13h0m3.84.19h0m.27.17h0m.58.05h0M-3.26.27h0m-.32-.09h0m1.28.21h0M.68.09h0m-.7.35h0M-1.04.11h0m2.61.16h0M.9.41h0m-3-.29h0m1.87.16h0m-1.05.1h0m2.4-.27h0m1.97.1h0M1.01.25h0M.95.28h0M-1.06.24h0m.49-.16h0m-.73.34h0M-2.62.09h0m5.18.36h0M-.8.23h0m.31-.15h0m-1.04.35h0M-1.97.1h0M-3.32.02h0M3.4.23h0m-.37.25h0M-3.72.37h0m1.13-.22h0m.06-.09h0M.78.18h0m.66-.07h0m2.14.25h0M.76.28h0M.28.4h0M1.43.12h0m.18.06h0m-.57.31h0M-2.58.07h0M.31.45h0M-3.24.04h0m6.26.43h0m.22-.24h0M1.01.07h0m-4.83.05h0m3.53.31h0M-2.64.24h0m1.62.07h0m4.87.17h0M-2.19.37h0M-3.8.06h0m1.6.03h0M.74.47h0m-3.99-.4h0m-.03.42h0M1.5.38h0M-1.03.2h0M-2.05.01h0m.84.39h0M.44.23h0m1 .21h0M.58.35h0m-2.56.12h0M-3.06.36h0M.48.1h0m-3.83.19h0M3.82.03h0M1.59.37h0m2.25.1h0M-2.07.41h0M2.8.32h0M3.84.01h0M.75.44h0m1.98.03h0M1.58.42h0M-2.79 0h0m-1.03.31h0m6.33.02h0M.54 0h0M.25.45h0m-1.6.04h0M-3.34.31h0m1.99.08h0m2.87 0h0M-.99.41h0M-3.53 0h0m2.24.22h0m-.51 0h0m-1.99.07h0M3.56.05h0M-.05.22h0M1.07.01h0M-3.3.16h0m-.02-.09h0m7.18.08h0m-6.7.29h0m1.77-.1h0m.61.1h0M2.49.06h0M.97.43h0M2.54.35h0M.83 0h0M-.26.33h0M2 .04h0m1.8.32h0m-4.85.01h0m4.57.1h0M-3.31.5h0M3.8.02h0M1.97.04h0M.6.45h0M-.82.15h0M1.8.37h0M.32.42h0M1.99.13h0m-.16.13h0M-3.99.04h0m.73.32h0m1.47-.24h0m.81.31h0M-1.55.4h0m-.23-.25h0m1.53.31h0M-2.58.44h0M3.06.1h0M.27.47h0M.25.28h0M2.83 0h0m.49.07h0M-3.27.1h0m7.13.18h0M-2.86.21h0m6.12.12h0M-1 .11h0m-2.77-.1h0m2.28.26h0M3.02.4h0M2.49.23h0m-2.76 0h0m2.26.26h0m.84-.24h0m-3-.08h0M2.04.01h0M1.9.03h0m-4.19.09h0m-.8.02h0m-.3.13h0m.85-.03h0M.82.09h0M-3.84.06h0m3.79.32h0m3.16.01h0m-6.47.04h0m.77-.39h0m2.35.12h0m.23-.15h0m.25.2h0M-1.29.12h0m1.26.04h0M-3.52.14h0m1.46.25h0M-.8.35h0M-2.33.29h0m.09-.15h0m.21.31h0M-.51.06h0m.75.26h0m-3.22.12h0m-.87-.11h0M.17.2h0m-3.98.27h0m5.3-.14h0M-3.1.06h0m1.78.05h0m4.6.28h0m-5.12.08h0M-3.57.42h0m6.9-.23h0m-4.65.23h0M-3.07.4h0M2.51.01h0m.32.04h0M1.74.16h0m-3 .12h0m3.3-.1h0m1.07.14h0m-5.9-.14h0M.96.39h0M-2.82.04h0m1.06.18h0m3.05.27h0m-2.6-.25h0M.52.47h0M3.56.19h0M.3.25h0m2.04.04h0m-3.67.03h0M.43.23h0m2.82 0h0M-3.07.15h0M3.8.17h0m-7.65.11h0M2.07.07h0m1.8.3h0M-1.01.09h0m-2.62.26h0M.51.44h0M-1.55.2h0m3.09.23h0m.99-.15h0M1.8.35h0M.26.23h0M1.84.08h0m1.98.13h0M1.18.09h0M-2.27.3h0M1.08.18h0m-3.82.14h0M-.25.11h0M1.3.37h0M-1.79.35h0m-.5-.33h0M.06.3h0M-2.47 0h0M.42.3h0m-3.29.11h0m-.11-.29h0m1.16.27h0m5.63-.1h0M1.77.4h0M-3.31.07h0M2.08.1h0M.72.45h0M2 .34h0M1.52.21h0M-1.03.06h0M3.4.32h0m-6.76.07h0m.31-.22h0m-.86.28h0m6.25-.2h0m-.05.21h0M2.78.4h0M-2.37.1h0m1.35.4h0M.54.45h0m-.7-.06h0M-3.05.5h0M2.48.37h0M-3.04.09h0M-3.3.08h0m-.29.23h0m1.54-.23h0M1.3.27h0M3.12.15h0M-1.09.12h0m.01-.03h0m.34.06h0m4.11.01h0m-1.02 0h0m-3.88.32h0m-.58-.09h0m-.36-.05h0M-.19.11h0m-2.12.31h0m-.93-.2h0M2.3.13h0m-4.01.06h0m3.56.07h0m.24.1h0M3.82.3h0m-.3-.14h0M-.54.22h0M2.47.19h0M2.02.05h0m-.5.34h0M3.85.02h0M2.36.05h0m-.63.33h0M.54.3h0M-.76.21h0M.28.36h0M-1.99.1h0m5.54.24h0M.23.27h0M-.33.5h0M-2.35.22h0m1.33-.04h0m4.59.2h0M-2.52.13h0m1.04 0h0m-.09.04h0m.98-.09h0m4.12.03h0M.74.18h0m3.07.19h0M.46.38h0M.45.49h0M-2.31.37h0m-.93-.04h0M3.8.34h0M-1.24.12h0M-1 0h0m-1.53.41h0m1.51-.08h0M3.86.1h0M1 .43h0M-2.5.16h0M.49.02h0m-3.32.07h0m4.08.16h0m-1.94.1h0M-2.54.19h0m5.12.03h0M1.45.36h0M-.04.23h0m-3.29.15h0m1.25.09h0M-.31.05h0M.86.12h0M-3.78.2h0m2.5.04h0M-.24.02h0m-3.62.21h0m6.11.08h0m.5-.3h0m1.08.25h0M2.82.43h0M2.11.31h0m-.59.15h0M-4 .18h0m7.81.29h0m-5.42-.2h0M3.26.01h0m-6.07.07h0m4.58.17h0M2.1.08h0m-5.46.23h0M2.76.14h0M2.7.42h0M-2.51.21h0M3.25.1h0M-2.31.01h0m4.34.28h0m-.05.18h0M1.5.39h0m-4.81.03h0m1.56-.25h0m.5.28h0M-3.07.07h0m4.89.22h0M-.06.16h0m-3.17.33h0m-.3-.03h0m2.45.01h0M3.76.32h0M.27.43h0M1.49.09h0M3.5.11h0M.59.45h0M-.15.36h0M2.83.02h0m-5.4.34h0M3.02.34h0M2.5.19h0m-6.17.03h0M-2.08.2h0m.28.15h0M3.1.3h0M.75.2h0m1.12.22h0M-2.08.21h0m3.93.01h0m1.96.06h0M-1.94.23h0M1.17.06h0m.05.08h0M.16.1h0m-.67.16h0m.77.09h0m-1 .01h0m.19-.12h0m.81.05h0m-.72.09h0M1.51.35h0M3.27.18h0M.23.01h0m3.31.07h0m-7.27.37h0m5.8-.36h0m1.92.06h0m-1.46.1h0M-1.6.24h0m.31-.19h0m-.42.38h0M-3.37.29h0M.82.13h0M-.52.44h0M-1.6.21h0M.82.44h0M3.81.09h0m-7.1.36h0m.2-.01h0M1.79.33h0M-.77.42h0M2.81.27h0M.7.15h0M-.58.14h0m-1.96.2h0m-.28.13h0M3.23.41h0M-1.74.24h0m.43-.1h0m.83-.07h0m.5.16h0M-.8.47h0M.56.5h0M-2.52.43h0M3.53.31h0M-.7.2h0M-2.35.07h0m-.75.1h0m6.66.21h0M1.54.49h0M-3.32.17h0m.5-.04h0M-1.1.06h0M1.94.02h0M2 .25h0m-3.18.19h0m4.99.03h0M1.32.27h0m1.25.08h0M-2.4.49h0M-3.8.1h0m2.19.1h0M3.3.49h0M-1.63.17h0m.65-.05h0m-2.84.27h0M1 .28h0M-.75.2h0m-.97.02h0M-.07.15h0m.05.15h0m-3.23.13h0M1.69.02h0m-4.44.01h0M-.97.4h0M.25.17h0M.03.13h0m1.79.26h0M-.95.2h0m.43.28h0m-.99-.21h0m4.5-.2h0m-.74.25h0M3 .08h0M1.09.14h0m.73-.08h0m-3.93.36h0M-3.75.18h0m2.04.03h0M1.03.04h0m2.5.05h0M1.85.01h0m-.82 0h0m-4.14.46h0m6.94.01h0m-.3-.04h0M-1.03.29h0M1.05.04h0M3.11.02h0M3.93 0h0m-6.72.1h0m.3.03h0m5.52 0h0m-5.74.21h0m-.27-.02h0m5.79.04h0M-.3.18h0M2 .41h0M3.49.19h0m-6.46-.1h0m.88.01h0M2.85.06h0m.94.44h0M-1.02.38h0m-.05.05h0M.23.22h0m-.99-.2h0m.56.31h0m1.46.14h0m.93 0h0M2.04.42h0m-5.35.01h0M3.63.37h0M-2.51.34h0M.28.36h0M-2.03.09h0M2.83.08h0M-.57.05h0m-3.27.39h0M1.02.1h0m1.57.13h0m.7-.01h0M-3.59.15h0M.49.48h0M-1.87.29h0m4.41.05h0M-.84.22h0M-3.33.3h0M.02.37h0M-1.52.14h0M-2.79.11h0m.25.22h0M-3.83.15h0m.98.04h0M.32.42h0M.8.25h0M-.27.11h0m-1.34.06h0m3.93.19h0m.51.12h0M2.27.39h0M.26.34h0m.83-.05h0m-4.44.03h0M2.01.28h0M-.76.32h0m-2.07.12h0M2.59.36h0M-1.8.01h0m4.64.02h0M.52.42h0M.3.28h0M-3.58.11h0m1.02.08h0m1.49.08h0m3.72.14h0M.44.22h0M-.77.12h0m2.24.23h0m-.14.12h0m2.3.01h0m-4.7-.3h0m2.36.1h0M-1.53.1h0M2.74.04h0M-3.54.5h0M3.04.42h0M-1.31.07h0m4.6.08h0M-.46.24h0m1.5.14h0M-.23.07h0M1.8 0h0m-3.9.39h0m.02.03h0m-.67-.17h0m6.07.01h0m-.34.16h0M-1.53.11h0m2.86.21h0M-1.3.24h0m.02.23h0M3.29.31h0M2.27.43h0M-2.02.1h0m1.78.12h0m3.9-.19h0m-7.51.21h0m7.11.19h0M-2.53.18h0M-.79.04h0M3.13.4h0M-.03.02h0m2.06.37h0M-2.08.22h0m-1.21.24h0M2.53.37h0M-1.74.16h0M3.85.15h0m-4.69.2h0M3.31.33h0m-.57-.3h0M-.78.27h0m-2.54.16h0m5.1-.28h0m-.71.04h0M1.01.04h0m1.27.38h0m-5.6-.38h0m-.17.14h0m1.22-.03h0m.98.09h0M-2.8.33h0m6.6.08h0M2.75.01h0m-6.02.3h0M2.27.5h0M-1.59.35h0M2.22.32h0m-5 .17h0M-3.52.3h0m2.04-.15h0m-1.3-.04h0m-1.04.1h0m1.52-.2h0M.18.35h0M3.32.02h0m.22.19h0M-1.84.04h0m2.07 0h0m2.56.03h0m-5.82.42h0m-.21-.01h0m-.37-.1h0m.79-.32h0M.37.17h0m-2.21-.1h0m5.35.28h0m-5.03-.3h0m-.71.07h0M3.5.49h0m-5.56-.4h0m.35.01h0M2.3.09h0m-3.59.39h0m.2-.45h0m1.05.11h0m-3.07.01h0M1.81.11h0m-.29.11h0M-3.07.13h0m3.32.2h0M-2.84.09h0m-1.03.14h0M.97.16h0M-3.5.38h0m-.02-.04h0m6.6.04h0M-2.85.06h0m-.17.15h0M2.54.05h0M.23.21h0M3.38.3h0M-.19.3h0M2.29.16h0m-6.14.17h0M-1 .04h0M.73.4h0M-1.8.29h0m2.87.03h0M-1.55.14h0M.74.3h0M-2.53.06h0M.3.43h0M3.06.1h0m-4.75.22h0M1.7.18h0M-2.11.12h0M-.1.39h0M-1.46.1h0M.99.42h0M-3.24.06h0M.95.27h0M.7.24h0M-.66.35h0M3.75.06h0m-.7.26h0M-1.8.21h0m3.35.16h0m-2.3.04h0M3.31.15h0m-3-.07h0M-3.81.06h0m1.29.19h0m.49.05h0m4.52.01h0m-4 .19h0M-2.78.39h0M1.51.03h0m1.01.09h0M-2.26.3h0M1.85 0h0M.47.04h0m1.58.05h0M.82.35h0m-3.78 0h0M2.3.01h0m-5.61.43h0M3.87.27h0M-2.5.48h0M.54.35h0M-1.07.18h0m3.34.13h0M-3.87.04h0M-1.8.2h0M3.31.04h0m.58-.03h0m-2.1.16h0M-.58.34h0M-.5.29h0M3.32.25h0m-6.35.19h0m-.72-.03h0m.19-.36h0m2.29.41h0m5.1-.07h0M-3.79.3h0m5.84.16h0M-3.31.44h0m.06-.33h0M.04.26h0m1.92.13h0M3.35.03h0M-.76.22h0M2.31.17h0M.27.49h0M3.06.18h0M-1.3.42h0M-2.86.37h0m1.33-.22h0m4.02.32h0M-3.85.43h0M1.54.02h0m-.01.26h0M-2.02.23h0m.21.18h0M.8.43h0M-.85.21h0m-.98-.2h0m-2 .26h0m-.15-.18h0m1.46-.08h0M-3.54 0h0M.54.27h0m-2.15-.2h0m-.99.21h0m-.18-.04h0M3.38.05h0M-.18.31h0M1.86.3h0M.75.21h0m-1.48.2h0m.55-.13h0M-3.81.07h0m1.7.1h0m.78-.06h0m2.58.26h0M-3.27.22h0m1.72.07h0M3.78.21h0m-4.54.2h0m.73-.34h0M.5.23h0m2-.2h0m-3.53.05h0M-2.32.4h0m1.28-.23h0m-1.29.24h0M2.54.29h0M-2.02.26h0m-1-.14h0m4.04.1h0M3.23.13h0m-4 .07h0M-1.85.15h0m.01-.06h0m2.6.1h0M-.28.38h0M3.07.25h0m-.73.1h0M.99.16h0M-.25.02h0m-1.8.25h0M-3.9.15h0m6.71.31h0M2.15.43h0M.23.07h0m-2.09.12h0M.95.41h0M-2.3.49h0M-.76.4h0m3.5-.19h0M-.54.43h0M-2.51.37h0m6.37-.2h0m-6.89.25h0m-.79-.2h0m6.05.13h0m.55-.32h0M-.19.44h0M-1.27.27h0m.73.03h0m2-.19h0M3.82.1h0M-.96.01h0m2.98.05h0M-1.8.21h0m5.71.16h0M-.71.42h0M3.74.36h0m.09-.05h0M-1.79.14h0m.35.15h0M3.12.28h0m-4.22.1h0M3.75.25h0M2.26.24h0m-5.6.16h0m4.9-.22h0m-3.02.08h0m-.27.18h0m5.39.01h0M-2.27.24h0M-.81.08h0m2.3.05h0m-3.02.33h0m.5-.32h0m.25-.06h0m4.37.41h0M.47.25h0M-2.4.4h0M.29.25h0m-3.15.17h0m6.67.06h0m-7.6-.25h0M3.03.17h0m.55.31h0M-1.03.16h0M-2.5.3h0M-3.54.24h0M3.33.05h0m-5.31.27h0M-3.26.17h0M3.77.06h0M1.46.39h0M2.81.31h0M-.73.39h0M.77.02h0M-1 .34h0m.99.1h0M-1.94.42h0m-.64-.39h0m3.85.31h0M3.82.13h0M-.06.11h0m3.03.03h0m-.2.1h0m-6.28.04h0M.67.31h0M.18.11h0M1.26 0h0m.75.41h0m-4.1-.36h0m4.68.39h0m.7-.06h0M-.79.49h0M3.77.01h0m-6.8.29h0M1.01.03h0m-3.1.46h0m.84-.41h0m-.78.16h0m.07-.11h0m5.02.32h0M1.01.36h0M3.02.11h0m-5.08.28h0m-1.5-.11h0m1.31-.05h0M1.06.06h0m1.45.1h0m1.3.14h0M.28.46h0m-2.8-.33h0m-.31-.07h0M.93.34h0M-2.83.19h0m5.59.13h0M-3.6.46h0m1.82-.24h0m-1.76.21h0m.83-.09h0m2.34.03h0m1.38-.1h0m2.75.11h0M1.09.11h0m-4.11.31h0M-.98.41h0m1-.18h0M1.76.16h0M3.53.2h0m-7.37.17h0m-.14-.18h0m.39.3h0M-.47.27h0M-2.78.15h0m1.24.32h0m3.06.02h0M-1 .36h0M1.46.09h0m-5.08.28h0m1.11-.24h0m3.84.29h0m.19-.35h0m.53.31h0M-3.88.21h0M1.26.02h0M0 .19h0m3.36.23h0M-.54.09h0m-.66.22h0M-2.62.17h0m6.47.25h0M.55.37h0m-3.09.01h0M-1.5.25h0M-3.35.01h0m1.78.19h0m.6-.14h0m1.96.3h0m-4.97.06h0M-.73.18h0m-1.31.25h0M2.27.42h0M2.33.1h0M-.28.45h0m-2.78.01h0m.2-.29h0m2.12.29h0M-1.5.33h0m-.8-.08h0M-2.71.2h0m4.26.18h0m.79-.26h0m.74.3h0M2.54.19h0M.54.4h0M-3.29.13h0m4.6 0h0m-3.84.34h0M2.31.25h0M2.28.07h0m-.3.27h0M-1.03.25h0M.71.48h0m2.52-.3h0M2.56.16h0M-1.75.14h0m-.89.17h0m-.62.17h0M3.8.1h0M2.57.27h0m.71-.14h0m-.42.06h0m-4.93.22h0M.45.32h0M-.56.04h0M.03.5h0M-3.38.47h0m4.5-.29h0m-1.4.2h0M-2.57.4h0M3.6.35h0M-.78.42h0m-2.54.06h0M-1.6.4h0M1.86.02h0m-.82.13h0M.55.04h0M.5.39h0M.27.29h0M-.75.26h0m.18.14h0m3.7-.17h0m.41.25h0M-.52.15h0m-2.81.3h0m4.62.02h0M-3.59.35h0M.3.3h0m2.97 0h0M.22.3h0m2.9-.18h0M.83.17h0m.96.14h0M.74.04h0m-3.81.42h0M3.59.2h0M-.5.28h0m-1.29.13h0M2.27.04h0M-1.08.02h0m.05.47h0M-3.02.07h0m-.33.04h0M-.19.1h0m2.24.37h0m-4.68.01h0m5.22.01h0M-3.56.42h0M-.54.1h0m-3.3.29h0M1.95.06h0m.32.27h0m-.5.08h0m1.32.03h0M1.07.04h0m2.5.36h0m-4-.19h0m-2.42.27h0M1.82.25h0M3.31.24h0M.71.27h0M-2 .07h0M2.31.06h0M-.54.07h0M-3.29.06h0m6.58.33h0M-2.8.41h0M-.52.4h0M2.73.01h0M1.58.16h0m0-.05h0M-.57.37h0M-1.51.2h0m-1.85.25h0m4.42-.3h0M3.77.08h0M-3.25.5h0M-.29.1h0m-1.15.25h0M1.82.07h0M.33.3h0M-.99.33h0m-2.36.13h0M1 .46h0M-.46.15h0m4.07.29h0m-2.6.01h0m.34.04h0m-.1-.17h0M3.84.3h0M-.27.35h0M.81.18h0M1.95.07h0m-.78.41h0M-1.56.17h0M.93.4h0M-3.78.17h0m5.74.25h0M3.23.2h0M-1.99.08h0m-1.14.29h0m.49-.27h0M1.8.25h0M-1.7.18h0m-.62.22h0m.49-.15h0m-1.66.07h0M3.6.28h0m-5.59.07h0M-.02.1h0m3.53.2h0m-4.68 0h0M.52.18h0m1.54.19h0m.52.12h0m.5-.13h0M-2.11.13h0m.15.1h0M-2.08.1h0M-3.59.08h0m2.73.39h0m-.35-.24h0M1.21.14h0M-.29.08h0M-2.82.01h0m1.79.36h0M-3.55.31h0m1.22-.08h0M-3.62.08h0m3.53.33h0M.02.04h0m-1.21.09h0m3.43.23h0M3.52.05h0M-.5.4h0M2.07.24h0m.25.11h0M-3.03.16h0m-.32.24h0M2.86.3h0m-4.64.17h0m1.3-.1h0M-.52.08h0m-.74.37h0M-3.3.02h0M.45.44h0M.31.47h0M1.55.11h0m-4.39.1h0M3.55.02h0m-4.6.11h0M2.29.06h0M3.62 0h0m-.54.17h0m-5.82.14h0m1.03.15h0M3.32.3h0m-4.57.08h0M.22.26h0m-1.33.06h0m.87-.31h0m-.85.13h0m2.63.33h0M3.6.01h0M-.48.35h0m-.79-.22h0M-2.81.5h0m.04-.33h0M.05.32h0M-3.03.28h0M-.05.24h0m1.56.25h0M-2.5.45h0m2.3-.1h0m1.01.1h0M-3.26.09h0m1.23.05h0m.45.16h0m-2.07.16h0m1.41-.13h0M1.49.27h0M-2.26.4h0M.54.05h0m3.3.03h0M.22.18h0m.2-.06h0m2.44.1h0m.93-.1h0M.23.17h0M-2.76.03h0M.48.06h0m3.35.09h0M.34.39h0m.68.08h0M-2.77.11h0M.49.08h0m-3.2.08h0m4.68.08h0m-4.3.24h0M-.48.17h0m-1.46.05h0m4.65.27h0m.91-.32h0m-.1.08h0M3.3.15h0m-.67.07h0m.89.09h0M.3.22h0m-3.09.07h0m4.75.07h0M.54.1h0M-1.8.01h0m-1.22.3h0M.34.28h0M-3.04.25h0m3.02.18h0M-.99.21h0M3 .04h0m-4.87.22h0M-.42.13h0m-2.38.3h0m.16-.26h0m-.48.04h0M.97.14h0M-3.87.08h0M-.48.01h0m2.47.32h0M.98.48h0M-.79.49h0m.11-.1h0m.23-.21h0M2.99.05h0M.24.22h0M3.53.19h0m-5.35.13h0m-1.71.09h0m2.48-.1h0M2.02.13h0M-.59.37h0m-.16.01h0M-.2.35h0M-2.49.24h0M-.82.01h0M3 .35h0M-.74.32h0M-3.6.07h0m6.92.08h0M2.07.4h0M-1.21.2h0m-2.58.16h0m6.12.1h0m-5.87 0h0M.76.29h0m1.59.19h0M1.2.26h0M0 .18h0m2.79.25h0m-4.37.06h0M-3.04.35h0m2.31.07h0M1.48.05h0M3.79.1h0m-5.36.06h0m4.05.18h0m-.94-.2h0m-2.3.14h0M1 .04h0M.97.46h0m-1.5-.1h0M-2.55.17h0M2.78.08h0m-6.55.2h0M.08.32h0M.33.1h0m1.28.24h0M-.55.42h0M-3.28.15h0M.68.44h0M-2.59.5h0M3.82.21h0M1.98.18h0M-.04.13h0m1.82.32h0M-.76.14h0M-3.06 0h0m4.57.46h0M-3.02.15h0m-.55.09h0M.77.14h0m-4.31.02h0M.54.13h0m-1.82.11h0M-1.33.1h0M-.8.06h0M.99.23h0m2.6-.14h0m-6.95.03h0m.28.19h0m.06-.1h0m4.55.06h0M-.46.4h0M.3.42h0M-1.25.39h0M-1.83.1h0m-.63.24h0m.25.12h0M3.57.05h0M.53.39h0M.3.12h0m-3.14.1h0M1.6.45h0m.87-.17h0M.78.45h0M3.52.24h0M-.54.49h0M-2.82.42h0M.26.46h0M-.2.34h0M-2.3.02h0m1.21.04h0M.26.02h0m-1.81.35h0m1.1-.03h0M-1.72.23h0m-1.8-.19h0m1.5.37h0m-.22-.06h0m.25.12h0M3.56.43h0M1.57.15h0M.5.36h0M-.94.45h0M-2.23.18h0m-.61.2h0M.49.2h0m.81.12h0m-4.87.16h0M.82.33h0m-.58.1h0M.47.28h0M3.05.21h0m-5.04.22h0M2.37.21h0m-5.18.25h0M1.72.03h0m-4.96.19h0M3.33.06h0m0 .23h0m-6.9-.21h0m2 .06h0m5.13.29h0m0-.2h0m-6.72.23h0m1.91-.24h0m-.76-.16h0m-1.04.26h0m-.27-.2h0m2.08-.07h0m-.3.42h0m4.6.03h0M2.53.33h0M-2.29.27h0M2.08.01h0m-.81.11h0m1.1.05h0m1.36.26h0m-1.9.04h0M-3.05.03h0m1.23.16h0M1.8.18h0M3.51.03h0M-1.86.3h0M-3.87.01h0m5.95.36h0M.2.36h0M-3.07.21h0M-1 .17h0M-2.6.1h0m1.57.38h0M-2.57.15h0m1.03.21h0m-.7-.04h0m.43.16h0M-2.83.43h0m1.35-.26h0M3.8.04h0m-7.41.13h0m.78.24h0m-.25-.3h0m6.14.28h0M1.01.24h0M3.59.07h0m-6.35.42h0M2.32.13h0m-5.63.09h0m7.16-.2h0M.28.12h0M-1.26.07h0M2.3.05h0m-5.01.42h0m.92-.33h0m-.72.19h0M.53.25h0M2.69.21h0M2.03.19h0m1.04.22h0m-.56.07h0M-1.48.14h0m-.08.06h0m4.38.14h0m.79.06h0M-.01.33h0M2.33.27h0M.49.04h0m1.6.31h0m-4.16-.3h0m.3.02h0m3.28.11h0M2.74.4h0M-.47.38h0M3.54.13h0M.73.44h0M-3.34.39h0M-.02.1h0m2.8.34h0M-1.07.43h0M.02.15h0M.76.01h0m-4.58.4h0M2.09.05h0M.28.35h0M-1 .25h0m.23-.06h0M-2.81.4h0m.47-.03h0M3.85.18h0M.87.16h0m-4.18.15h0m.01.05h0M1.49.09h0M.7.02h0m-3 .35h0M2.3.35h0M-.97.27h0m3.47.2h0M-3.04.25h0m2.09.17h0M-.26.3h0M3.58.2h0M-1.74.05h0m-2.05.3h0M1.87.01h0M-.44.15h0m2.99.13h0m-5.1.07h0m5.89.07h0M1.08.49h0M-3.05.1h0m1.79.36h0m-1.6-.45h0m5.37.27h0m-5.39.16h0M3.56.03h0m-7.38.28h0m2.74.02h0M.53.46h0m1.55.02h0m.44-.35h0M-.27.01h0m.34.47h0M.49.19h0m-3.65.07h0M.94.04h0m-2.7.36h0m1.47.06h0m-1.52.01h0M2.59.1h0m-5.64.08h0m6.62.28h0m.24.02h0M.01.37h0M3.57.4h0M-1.56.32h0M-.21.15h0M-.22.04h0M-.5.11h0M-.51.1h0m2.84.08h0m.9.23h0M.49.41h0M-1.06.1h0M-3.38.03h0m4.61.23h0M-1.81.08h0m1.5.17h0M-2.48 0h0M.25.18h0m-4.01.3h0M2.77.12h0m-5.6.1h0M3.08.13h0M-.98.25h0m-.21-.12h0m3.39 0h0m.81.03h0M-.97.19h0m2.24.29h0M.78.47h0M3.03.41h0m-5.3-.14h0M3.56.24h0M2.04.3h0m-.35 0h0m.62-.08h0m-.23.25h0m-4.39 0h0M-1.3.11h0m.23.15h0m3.36.02h0M3.6.02h0M.94.22h0m-1.97 0h0m.49-.03h0m-3.3-.1h0m3.62.16h0m3.73.07h0M-.22.03h0m.03.2h0m3.54.26h0M3.31.31h0M.69.34h0M2.5.12h0m1.11.35h0M-1.97.29h0m-1.56.13h0m1.43-.3h0m-.37.12h0m-.05-.1h0m1.55.08h0M2.8.25h0M-.77.26h0m-.76.15h0M-2.62.37h0M-3.8.29h0m2.49-.02h0M1.17.2h0m1.42.03h0M1.01.29h0M-3.63.02h0m6.92.33h0M1.79.26h0m.4-.09h0M-.82.16h0m-2.71 0h0M2.83.12h0m-4.66.26h0m3.15.04h0M-2.78.2h0m2.61.19h0M.24.08h0M2.51.07h0M.27.21h0M1.56.16h0M1.47 0h0M.78.29h0M2.57.17h0M1.54.15h0M3.25.09h0M1.74.12h0M-2.03.11h0m4.8.37h0M-2.62.11h0M.97.03h0M-2.5.49h0m-.34-.28h0M.05.25h0M.54.19h0m-2.28 0h0m-.78.29h0m1.23-.05h0M-.5.41h0m-.53.05h0M.44.31h0M1.26.1h0M2.3.5h0M-2.74.26h0M3.15.1h0M-2.21.08h0m.44.37h0m4.3-.33h0M1.23.07h0M-.7.33h0M.45.27h0m-3.01-.1h0M1.05.04h0m1.48.23h0M-.28.36h0M-1.99.25h0M2.6.47h0M-.2.49h0M-.49.1h0M2.32.06h0m.2.38h0M.76.2h0m-3.35.1h0m.22-.1h0m-1.42.29h0m3.04-.4h0m-3.08.12h0m.5.15h0M2.83.09h0m-4.34.13h0m.19 0h0m3.04-.1h0m1.8-.11h0m-.51.12h0m-6.6.36h0m-.4-.19h0m.96.18h0m.68-.42h0m5.66.11h0M1.26.22h0M-2.55.07h0M2.79.4h0M-1.06.04h0m2.68.44h0M-.49.42h0M3.99.24h0M.31.35h0M-1.52.24h0m2.61.09h0M2.23.22h0m-6.02.03h0M.04.33h0m-2.61.04h0M-.42.3h0M1.49.28h0m.33.21h0M3.83.08h0m-.01.18h0m-6.14-.2h0m6.2.27h0M2.07.32h0M.04.19h0M-.31.3h0m.89.17h0m1.26.01h0M-3.64.35h0M2.35.31h0m-.3.1h0M1.33.14h0M.21.05h0m-4.03.2h0m2.76-.21h0m2.24.14h0m.12.15h0M1.11.17h0m.98.11h0M-.72.31h0m.16-.08h0M2.02.06h0M-3.54.4h0M1.04.24h0M.03.14h0m-2.79.21h0m-.63-.02h0M.8.34h0M1.95.02h0M-3.8.06h0M.47.37h0M3.06.2h0M.26.35h0M-2.57.3h0M2.8.48h0M1.51.42h0m-3.75 0h0M2.22.37h0M-1.31.22h0M-3.8.16h0m2.25.15h0M1.53.4h0M-1.29.11h0M.07.25h0M-.81.14h0m-2.84.3h0M2.75.3h0M1.28.38h0m-3-.13h0M.45.01h0m-3.71.13h0m-.12-.13h0M.26.3h0M-3.83.24h0m.03.01h0M.5.27h0m.51.11h0M-2.04.07h0m1.57.38h0M1.5.1h0m.29.15h0m-5.4-.19h0m7.53.23h0m-7.5.19h0m1.01-.29h0m1.12.06h0m3.2.07h0m.12.06h0M-1.3.33h0m4.34.14h0M2.23.08h0m1.1.11h0m-5.37.03h0M.53.2h0m-4.3-.02h0M2.11.17h0m-.8.01h0m1.73.06h0m-6.57.02h0m7.17.18h0M3.56.35h0M3.07.08h0m-.74.13h0M-.72.42h0m-1.65.02h0m1.63.01h0M3.83.41h0M-.77.17h0m3.05.01h0m-4.22.06h0M-.51.2h0m.53.02h0m.19.27h0M-.3.38h0M2.24.36h0M-.06.08h0M.98.15h0M-1.97.1h0m3.78.36h0m.78.03h0M2.8.38h0M-2.32.36h0M-.5.02h0m4 .46h0M-3.08.35h0m.65-.06h0M.8.44h0M3.58.12h0M-.21.26h0m.47.13h0M3.11.04h0M3.5.5h0M-2.99.25h0m1.7.01h0m-.77-.15h0M1.52.5h0M.01.21h0m-.47.05h0m-.13.01h0M1.3.5h0M.44.26h0m.07.12h0M.3.05h0M.02.33h0m-2.88-.2h0m3.94.36h0M-2.86.15h0m4.67.11h0M-.71.21h0m-1.08.03h0m5.4.25h0M-2.58.12h0m-.49.14h0m1.06.15h0m-.3-.4h0m.83.13h0M3.06.1h0m-6.9.18h0m6.55.18h0M-3 .2h0M-.05.02h0m-2.59.03h0M.55.16h0m-4.06.15h0m5.6.19h0M-3.06.26h0M1.47.1h0M2.8.08h0M-.23.29h0m2.34.16h0M-1.25.28h0M3.76.22h0m-4.79.1h0M2.31.31h0m-4.12.1h0m3.8.07h0M2.56.3h0M3.6.46h0M1.3.12h0M-.01.25h0M-2.79.21h0m.71.26h0M1.2.02h0m-4.96.2h0m.2.09h0m.99-.28h0m1.39.12h0m-.54.1h0m-.34.2h0M-3.55.2h0m5.94.2h0M-3.6.27h0M2.38.03h0m-.09.19h0M3.86.03h0m-4.6.12h0M.98.49h0M2.49.15h0M-1.43.07h0m-2.15.26h0m.22-.21h0M.32.28h0M-.51.3h0m3.29.1h0M-3.11.1h0m2.8-.09h0m1.85.24h0m-3.93.21h0M1.2.08h0m-4.48.36h0M-.34.4h0M1.54.17h0M-.82.03h0m-1.91.24h0M-.21.3h0m.94.06h0m-3.3.01h0m-.99-.24h0M2.03.5h0M2.8.32h0m-4.56.15h0m5.42-.2h0M2.11.34h0m.44-.23h0m1.01.25h0M-.42.26h0M-2.81.2h0M1.02.1h0M3.3.21h0M1.29.15h0m1.82.28h0M1.32.25h0m-.28.06h0M-.29.09h0M-3.1.16h0m1.11-.04h0m4.32.3h0M1.24.13h0m2.31.05h0M3.3.12h0M-1.85.04h0m1.68.19h0m-1.31.26h0M1.99.33h0M-2.78.2h0m.76.19h0M.29.33h0m.93.08h0M2.77.28h0M-1.85.04h0m.62.37h0M-3.82.13h0m5.43.33h0M2.79.27h0M2.76.23h0M2.3.35h0m.47-.24h0m-4.04.18h0m-2.3-.01h0M.02.06h0M-.78 0h0M-2.8.07h0m-.49.05h0M3.12.1h0M1 .2h0m-2.75.11h0M-2.82.3h0m1.26.11h0M-3.25.24h0m1.97.01h0M.25.14h0M1.76.05h0M.74.22h0M.25.16h0M-3.78.04h0m2.58.12h0m-.78.2h0M3.11.12h0M.62.22h0M-.79.09h0m-1.54.09h0M.04.2h0M-2.79.06h0M.08.08h0m-1.1.2h0M-2.03.03h0M-3.4.09h0m1.31.07h0m-1.46.29h0M-.76.2h0M2.27.19h0M-.02.12h0m-.21.16h0M-3.07.09h0m-.05.12h0M3.55.05h0m-6.78 0h0m5.97.44h0M.44.2h0m1.79.25h0M3.38.33h0M4 .06h0m-5.24.3h0M-3 .39h0M-.68.12h0m2.91.21h0M.49.45h0M-.78.07h0m3.29.05h0M2 .45h0m-5.83-.4h0m3.48.14h0M.79.02h0m-2.78.32h0M3.29.07h0m-.7.1h0M3.81.06h0m-7.16.2h0M2.52.23h0M.5.02h0M.26.07h0m-3.79.31h0m-.07.1h0m.24-.14h0m.85-.15h0m5.56.24h0m-4.88-.2h0m.35.23h0m.22-.03h0m-.68-.26h0m.88.02h0M.79.4h0m-2.17.07h0M0 .01h0m.34.14h0M.19.1h0m.82.32h0M-2.74.24h0m5.07-.1h0m-4.16.17h0m.81-.23h0m2.58.26h0m-3.8-.19h0M-3.36 0h0M.59.39h0m2.28.06h0m1-.18h0M1.75.02h0m.83.4h0m.19 0h0m-5.59-.4h0m5.18.24h0m.85-.2h0M1.25.49h0M-.06.31h0m-1.43.05h0m-1.3-.19h0M2.55.16h0M3.59.01h0m-7.46.02h0m.9.24h0M3.6.02h0m-5.38.04h0m4.86 0h0M-.09.5h0M-3.15.29h0m.82-.03h0M3.76.05h0m-7.28.2h0m.04.16h0m5.24.06h0M-1.51.29h0m2.74.2h0M-.18.12h0m-3.14.26h0M-.33.11h0m4.1.07h0M-3.28.12h0m5.3-.03h0M-.24.06h0m-1.97.4h0m1.47.03h0M3.09.38h0M-.49.01h0m-.62.34h0M.51.4h0M-.97.04h0M3.35.01h0M.57.16h0m-.35.1h0M2.28.15h0m-5.03.2h0M.22.21h0M-.95.09h0m3.3.21h0m.71 0h0M.54.41h0M.97.16h0M-3.86.11h0M1.63.03h0m-2.14.1h0m.55.06h0M-1.29.03h0m4.31.21h0m-4.8 0h0m3 0h0M-.55.14h0M1.81.09h0m.76-.05h0m.74.34h0M-3.84.29h0M1.58.23h0M-2.57.21h0m5.59-.2h0m-4.53.11h0m.98.28h0M.91.22h0m2.34.21h0m.32-.42h0M1.63.23h0m1.9.02h0m-.69.16h0M1.37.2h0m-3.71.08h0m-.68.12h0m.28-.33h0m5.62.18h0M1.06.34h0M-3.58.23h0M.98.08h0M3.77.4h0M2.29.47h0M.75.18h0m-3.04.07h0M1.03.04h0M2.3.4h0M1.58.03h0m.96-.01h0M-1.8.08h0m-.72.03h0M3.07.02h0M-.02.31h0m1.49.11h0M2.84.2h0M-.74.3h0m3.58.16h0M.21 0h0m-1.77.17h0M3.07.06h0M3.09 0h0M.62.29h0M-3.04.14h0m2.58.24h0M2.31.19h0m-4.35.24h0M.45.34h0m-3.3-.27h0m5.23.39h0M1.25.12h0M-.74.02h0m.23.31h0m3.07.02h0m-1.09.1h0M-3.36.1h0m7.24.37h0M.22.08h0m-.96.14h0m.06.04h0m3.01.08h0m.18-.09h0M-2.61.07h0m4.14.2h0m2.01.11h0M3.3.4h0M.08.45h0M-3.36.36h0M2.62.24h0M-.32.29h0m-2-.01h0m.87-.12h0m.97.09h0M2.75.11h0M-.79.15h0m1.53.3h0M-.77.3h0M-3.08.01h0m-.47.04h0M1.04.1h0m.22 0h0M-3.6.28h0M-.56.07h0m-3.28.35h0m2.82-.38h0M.03.25h0M3.84.12h0m-6.88.17h0M-.26.07h0M-2.85.1h0M.79.46h0M2.81.41h0M2.02.14h0m-3.26.32h0m-1.08-.2h0M.56.41h0M3.6.46h0M-1.97.19h0m.43-.05h0m.29.35h0m.56-.28h0m2.26.06h0m-5.19 0h0m.3.23h0m6.3-.12h0M.52.33h0m-2.1.04h0m.36.12h0M-3.39.17h0m.31-.12h0m5.17.24h0M-2.02.1h0M.17.01h0m-2.54.27h0m-1.39.16h0m1.42.03h0M1.54.25h0m.15.12h0m-.48.04h0M-2 .47h0m.48-.35h0m5.3.13h0M2 .08h0m-4.81.16h0m.01.23h0M1.21.28h0m.61-.16h0m-3.14.12h0M.99.13h0M3.07.07h0m-1.05 0h0M-.94.48h0m.63-.11h0m1.3.04h0m2.04 0h0m-5.85-.3h0m-.57.28h0M-.97.11h0m.74.06h0M3.84.16h0M.53.05h0M-.52.18h0m-1.05-.1h0m1.54.38h0M3.79.04h0m-.18.35h0M.51.19h0M2.08.07h0m-4.32.28h0m-.75.02h0m.43-.04h0M3.26.18h0M.82.44h0M2.3.31h0M.81.43h0M3.25.2h0M.49.28h0M-2.49.4h0M3.06.04h0M1.25.46h0M-1.3.34h0M1.31.28h0M-2.57.24h0m3.61 0h0M-.47.4h0m-.77-.26h0M.67.47h0M-1.22.24h0M-3.63.2h0M.01.22h0M3.25.21h0m-5.24.15h0m1.48.03h0m-.5.09h0M1.73.04h0m-5.31.17h0m5.85.16h0m-.21 0h0M-3.3.03h0m6.59.08h0m-4.34.1h0m2.74.27h0M-.3.3h0m.65.07h0M-1.31.21h0m.52.13h0M2.54.29h0M-3.82.08h0M3.6.42h0m-5.36.03h0m3.24 0h0m.94-.3h0m.69.23h0M1.3.3h0M-2.28.29h0m-.57-.23h0M3.1.39h0M-.46.43h0M-3.64.07h0m3.13.2h0M1.04.24h0M.51.07h0m2.13.11h0m-4.43.27h0M-3.32.06h0m4.83.02h0m-2.55.31h0m-.28-.24h0m4.09.33h0M.47.29h0M3.56.04h0M1.51.45h0M0 .09h0m-1.13.22h0M1.48.4h0M-1.87.04h0M.74.41h0M3.63.28h0M2.04.47h0M3.07.34h0M1.06.49h0M-.33.08h0m-1.2.08h0M-3.3.4h0m6.1.06h0M-.78.31h0m2.07 0h0M2.77.2h0M1.2.36h0m-.42.1h0m-.56 0h0M3.3.48h0m-6.93.01h0M1.59.13h0M-3.27.1h0m3.05.05h0M1.02.06h0M-2.03.05h0M-.8.33h0m.79-.18h0M-3.9.04h0m2.66.13h0m4.32.18h0M-2.04.2h0m-.73.1h0m4.84.03h0M-2.77.01h0m4.62.11h0M-.98.1h0M-2.8.26h0m4.86-.1h0M3.31.05h0M3.3.42h0m-.8.04h0M-3.53.42h0M.07.26h0M-1.51.04h0m-1.01.24h0M-3.81.03h0M-.72.3h0M.79.22h0M-3.28.19h0m.13-.12h0m1.33-.03h0m5.34.19h0M.74.03h0m1.51.29h0M.53.12h0M-2.05.06h0M.58.47h0M-2.28.11h0m2.1-.08h0m2.72 0h0M-.21.35h0m2.82.07h0m-5.36.07h0m-.6-.39h0M1.97.08h0M-.96.2h0m-.39-.05h0M-3.32.02h0m4.55.34h0M.2.36h0M-1.35.07h0M-3.79.01h0m.74.28h0M-.98.05h0M-3.03.4h0m.18-.21h0M2.07.03h0m.17.06h0m-5.6-.06h0m5.38.28h0M1.2.23h0M.53.48h0m2.44.01h0m.6-.15h0m-5.05.1h0M1.84.31h0m-4.87.04h0M3.23.01h0m-5.06.16h0M-.09.4h0M-2.62.29h0m2.56.06h0M.2.39h0M.59.01h0m-2.58.12h0M1.5.21h0m-3.48.17h0M3.77.24h0M.74.1h0m-.95.17h0M3.37.02h0M.71.39h0m-4.29.02h0m1.01.02h0M.99.35h0M3.88.04h0m-5.13.12h0m2.26.23h0m-4.86-.2h0m5.93.3h0M-.53.14h0M2.48.12h0m-.44.29h0M3.32.23h0M1.77.06h0m-4.05.12h0M-3.6.43h0M-2.36.1h0M1.78.05h0M1.22.01h0m-2 .45h0M-3.8.16h0m2.44-.09h0M-3.1.13h0m6.32.29h0M-.18.21h0m-1.9.14h0M3.39.33h0M-3.78.11h0M.98.07h0m2.61.27h0M2.08.38h0M1.2.06h0m-4.7.22h0M3.75.24h0M.54.45h0M-.75.35h0M-3.33.28h0m-.55.22h0M.22.16h0m1-.15h0M-.77.08h0m-2.59.05h0M-3.88.1h0m6.42.02h0m-4.38.2h0M-2.99.15h0m4.26.34h0m-4.8-.43h0M-.61.2h0m4.4.05h0M-1.05.09h0M2.86.08h0m-6.2.36h0M-.58.37h0m2.91.11h0M-3.31.16h0m1.98.01h0m4.67.29h0M-3.83.19h0m1.82-.05h0m1.78.31h0M-1.74.34h0m-2.03-.2h0m1.51.01h0m3.76.2h0m-.27-.3h0m-3.38.42h0M2.46.35h0m-3.7-.32h0m-1.02.23h0M.48.17h0M-.96.08h0m.27.4h0m.41-.04h0M3.76.18h0M-.48.42h0M1.77.17h0M1.55.06h0m-3.3.3h0M3.9.29h0M1.78.24h0m-4.3.25h0M-.46.13h0M2.03.3h0m1.48.2h0M1.02.1h0m-4.78.18h0m6.77.19h0M-.2.19h0m-1.75.1h0M3.11.18h0m-4.45.3h0M-.03.01h0m3.29.23h0M-3.33.11h0m2.4.17h0M3.83.24h0m-7.39.19h0m6.09-.2h0M-2.26.4h0M3.5.17h0M.73.16h0m-3.51.26h0m6.29 0h0M-2.2.1h0m4.45.04h0m1.27.14h0m.28.1h0M-2.9.02h0m1.08.14h0m1.05.19h0M.43.17h0m-1.99.05h0m5.18.16h0M-3.6.45h0M1.86.27h0m-4.62.22h0M3.55.3h0M.54.38h0m2.74.04h0M-3.28.03h0m6.29.41h0M-1.54.38h0M2 .03h0m.52.24h0m1.3-.18h0m.09.15h0M-.94.1h0m.45.35h0M.58.4h0M.45.24h0m.62-.21h0M-.49.44h0M-1.53.12h0m1.21.06h0m-.91-.04h0M.84.26h0m-3.15-.1h0m-.71.02h0M1.2.25h0M1.12.08h0m1.7.4h0M-3.84.36h0M.75.37h0m-2.51.01h0m-.6.03h0m.61.08h0m-1.5-.18h0M-.5.21h0M-1.83 0h0m1.11.11h0m2.78.24h0M3.61.01h0m-.28.1h0M3.27.1h0m.01.21h0M-1.53.02h0m3.07.42h0M-.53.28h0m4.4-.1h0M-.97.32h0m4.3-.06h0M1.74.23h0M-.7.39h0m-.78-.08h0m4.56.17h0M-.25.01h0M2.6.49h0M-.96.13h0m.44 0h0m-2.51.11h0M.78.03h0M.77.25h0m.02.09h0m-4.41-.1h0m1.81-.01h0M-3.12.19h0m1.39-.07h0m-.86.07h0m4.42.1h0M3.29.13h0m.31.15h0m.17-.23h0m-5.46.07h0m3.42.02h0m-5.26.02h0m3.5.08h0M2.76.1h0M-3.55.03h0M.26.07h0m-1.8.26h0M-2.1.09h0m1.29.08h0M3.4.28h0m-5.16.2h0M-.25.37h0m.98.05h0M.49.29h0M3.8.15h0m-1 .16h0M-1.04.03h0m3.12.34h0m-5.13.1h0m.79-.01h0M2.3.3h0M-3.76.01h0M.25.34h0m.22.08h0M-1.79.11h0m-.74-.03h0M-3.6.06h0m7.09.2h0m-7.46.23h0M.51.17h0M-1.24.02h0M-2.6.27h0m3.67.08h0M-2.56.07h0m-1.03.4h0M.73.49h0M.68.2h0m-.69.23h0M3.32.01h0m-.25.46h0M3.02.04h0M.55.33h0M-2.32.28h0M3.11.25h0M-2.87.01h0m6.39.36h0M2.75.05h0M-.77.44h0m.22-.19h0M-3.8.42h0M3.74.5h0M-2.49.22h0m4.6.21h0m.67-.22h0M-2.06.08h0m4.07.08h0M.56.11h0m-4.39.05h0M2.5.34h0M.22.15h0m-3.33.33h0m1.28-.32h0M.81.44h0M-1.98.4h0M.01.12h0M-3.57.05h0M-2.9 0h0m.36.22h0M-3 .02h0M.3.46h0m2.03-.3h0M1.01.28h0M-.21.31h0m1.42.05h0M.69.23h0m1.58-.1h0M-2.08.05h0m-.23.4h0M2.1.31h0M3.32.28h0m-6.4.18h0M1.25.03h0m-4.56.03h0m2.22.07h0M3.31 0h0m-2 .24h0M2.8.1h0M1.58.04h0m.23.01h0m-3.29.09h0m.42.14h0M3.29.5h0M1.25.42h0M2.8.1h0M1.76.12h0M.05.04h0M-2.58.5h0M-3.3.04h0m1.25.27h0M-.24.27h0M3.5.32h0M-.76.06h0m-1.7.03h0m4.14.28h0m1.2-.25h0M-2.21.09h0m.09.03h0M.04.4h0m-1.35.02h0M1.31.11h0M.45.47h0m-3.06-.3h0m-.43-.02h0M.24.13h0m.98.11h0m.73-.1h0M.74.43h0m.52-.35h0m2.21.11h0M.25.02h0M.8.3h0M1.82.12h0m.69-.03h0m-4.54.05h0m-.51.25h0M1.04.17h0m1.5.15h0M3.81.29h0M-3.88.04h0m2.37.05h0M-3.1.46h0m-.44-.17h0m4-.18h0m.35.25h0M1.56.3h0M.57.19h0M.99.01h0m1.8.11h0m-4.87.19h0M2.26.02h0m-3.84.24h0M1.33.05h0M-.08.03h0m3.66.32h0M3.32.24h0M-1.49.08h0M.78.43h0M1.99.24h0M-3.54.23h0m3.28-.1h0M3 .12h0M-3.76.4h0m.99 0h0M.52.39h0m-2.54.08h0M1.25.42h0M-1.81.06h0M-.3.32h0m.33.11h0M3.52.14h0m-.5-.09h0M.76.32h0M-1.48.1h0m1.15.28h0M-3.27.31h0M.74.27h0m1.38.01h0M-.8.05h0m4.33.19h0m-5 .02h0m4.24.13h0M-2.32.03h0M-.2 0h0m-1.28.42h0M1.55.03h0m-4.87.43h0M.74.45h0M-1.98.24h0M.53.4h0m-1.8-.23h0M1.74.09h0M.56.2h0m3.05.13h0m-2.4.03h0m.56-.27h0M3.5.34h0M-3.01.17h0M2.81.01h0m-6.54.2h0m6.99.28h0M1.03.37h0M-1 .49h0m3.36-.2h0m.92-.21h0M2.27.19h0M-3.07.05h0m5.86.02h0m.03.33h0m-6.68.08h0M3.21.5h0m-6.8-.35h0m6.62.34h0m-6.85-.2h0m2.05-.26h0M-3.54 0h0m5.77.05h0M3.55.1h0M2.43.24h0m-4.8-.06h0m.08-.16h0m2.12.33h0M-3.28.18h0m.73.24h0M3.88.2h0M1.05.49h0M3.28.45h0M-.51.17h0M2.62.12h0M1.33.4h0m.64.06h0M1.5.26h0m-.25.21h0m-3.31-.2h0M.27.14h0m-.53.21h0m1.5-.12h0M-3 .4h0M2.31.15h0m.71-.1h0m-5.83.43h0M-.8.38h0m-2.85.05h0m3.2-.08h0m-3.41.1h0M.27.49h0m-1.64-.4h0m.38.23h0M2.27.09h0m-5.09.23h0m4.64.05h0M-.21.49h0M-1.79.38h0M3.5.45h0M3.31.1h0m-.96.33h0M1.25.34h0m2.39.11h0M-2.78.06h0m4.12.11h0M.17.29h0M1.75.22h0M2.5.06h0m-.96.27h0M-3.87.08h0M3.01.3h0M2.76.06h0m-6.55.43h0m2.2-.06h0m5.4-.08h0M2.31.08h0m-4.15.01h0m-.53-.02h0m4.2.32h0m-2.02 0h0M-1.87.08h0m1.32.36h0M-2.61.27h0M.47.03h0M-.58.4h0M.07.2h0m-3.31.2h0M-.7.06h0m-2.11.27h0m4.82-.2h0m1.51.33h0M-2.59.02h0m4.09.3h0M3.26.18h0M3.3.2h0M-3.9.19h0m5.69.28h0m-.55 0h0M-.44.05h0m3.02.24h0m.76.19h0M3.6.06h0m-5.64.31h0m.56-.31h0M-3.29.04h0m-.1.23h0M2.84.09h0m.54.03h0m-2.1.33h0M-1.79.13h0M2.73.11h0M.06.21h0M-2.61.13h0M2.04.06h0M.03.01h0m-1.54.33h0m.53-.2h0m4.85.14h0M-3.82.12h0M.49.44h0M-.52.29h0m3.34.15h0M-.3.44h0M3.09.36h0M-1.24.1h0m.71.23h0m-1.32.11h0M-.56.05h0m3.3.08h0m1.11.09h0M.22.01h0m-1.67.47h0M.09.2h0m3.16.25h0M-3.81.36h0M.92.22h0m1.54.06h0m.9-.2h0M2.32.19h0M-.91.2h0M-2.06.04h0m-.52.21h0m3.66.09h0M.98.03h0m1.3.28h0m-.19.1h0M-2.5.11h0M.41.46h0m-1.83.03h0M-.23.45h0M3.09.32h0m-4.38.06h0M2.84.31h0M-2.61.02h0m-1.21.45h0m1.11-.29h0m-.55.22h0M3.27.19h0m-4.82.29h0M.24.18h0m-3.78.08h0M-.92.17h0m-2.13.19h0M.81.29h0M-1.76.03h0M3.5.24h0m.27.16h0M-2.56.23h0M.26.18h0m-1.5-.01h0m-1.52.24h0m-.27-.05h0M1.79.03h0m-5.4.09h0m2.36.33h0m5.24.02h0M-.28.04h0m.07.23h0M-.5.01h0M2.25.4h0M.53.13h0M-1.34.3h0m.08-.04h0M1.27.14h0m.49.16h0m-5.24.15h0m2.15-.08h0m-2.52-.2h0M1.51.05h0m.51.17h0m-5.23.22h0M2.59.2h0M-3.56.1h0m1.71-.05h0m1.62.03h0m-.46 0h0M.37.39h0M-.84.11h0M.21.38h0m-1-.29h0m1.81.28h0M2 .01h0m-5.62.4h0M-3.9.27h0m1.37.12h0M.04.13h0m-1.63.36h0M.52.12h0m-.81.29h0m-.75-.28h0m-2.51.16h0M.01.15h0m-2.9.31h0M.02.17h0m-3.8 0h0m1.69.32h0M2.84.27h0M1.69.32h0M-2.3.08h0M-4 .34h0m1.45-.32h0m5.59.14h0M-1.49.3h0M-2.51.13h0M-.71.1h0M2.63.01h0M.11.45h0m-2.13-.3h0m.17.07h0M-3.76.18h0M.46.19h0m3.5.14h0m-7.32.16h0M.77.3h0M3.3.16h0M1.24.42h0m-.71 0h0M.47.25h0m-1.97.1h0M3.88.1h0M-3.6.23h0m.07.15h0m1.51-.03h0m5.1-.3h0m.01.06h0m.74.27h0M2.31.26h0m.17-.09h0M1.04.49h0M-3.24.31h0M3.62.23h0M-3.49.21h0M.74.3h0m-3.26.17h0M2.34 0h0m-.62.34h0M.48.11h0M-.79.27h0M3.83.04h0M2.05.07h0m-.19.26h0m-5.61.1h0M-1.2.19h0m-.06.08h0M-2.78.02h0m1.3.25h0m-.31.13h0M.55.38h0M3.61.33h0M-3.82.26h0M1.31.23h0M-3.58 0h0m5.39.09h0M-.55.06h0m-1.31.06h0m-1.24.2h0m5.17.14h0M-1.51.03h0m4.05.1h0m.75.16h0M.79.47h0M-3.02.44h0M3.03.38h0M-1.76.16h0M.51.32h0m-4-.01h0M-.32.18h0m-2.51.1h0m1.3.11h0m-2.24-.2h0m4.84.04h0m1.45.13h0M-.25.48h0M1.76 0h0m-.8.06h0M-1 .39h0M1.11.33h0M-2.31.26h0m4.78-.1h0m.62-.04h0m-5.65.2h0M1.49.5h0m.09-.04h0M-3.75.29h0M2.07.22h0M-1.04.3h0m-2.8.18h0m.79-.11h0m-.83-.22h0m5.15.12h0M-.97.49h0M1.48.02h0m.3.22h0m-4.56 0h0M-.79.21h0M1.06.17h0M-2.59.04h0m5.43.38h0M.25.27h0M-1.08 0h0m-.67.4h0M3.01.39h0M1.57.05h0M-.58.2h0M1.24.04h0m.26.37h0m-2-.03h0M3.06.27h0M2.03.49h0M1.8.11h0m-3.05.37h0M1.74.46h0M-.73.18h0m-1 .29h0M-1.6.4h0m3.8.08h0m-.17-.3h0M3.82.05h0M2.19.06h0m1.38.39h0M.41.08h0m-.65.3h0m-.8.11h0M2.74.36h0M2.5.2h0M-.51.01h0m-1.01.04h0m4.86.31h0M-.49.26h0M-2.71.4h0m1.97.04h0M-3.09.02h0m2.31.47h0M-1.95.46h0m-.64-.08h0m.6.01h0m.62-.19h0m.11.27h0m.75-.13h0M-.52.25h0m3.28.04h0M-2.08.05h0m4.32.03h0m1.6.1h0M-1.95.01h0M-.23.1h0M-3.29.04h0m6.37.17h0M-2.57.18h0m2.54.27h0M-2.55.39h0M.86.48h0M1.87.46h0m.49-.12h0M-3.82.02h0m3.26.33h0m3.54-.1h0m-6.09.12h0M-.49.4h0m-3.1-.3h0m5.16.06h0m-.01.3h0m-3.32.01h0m.76.01h0M2.34.04h0m-.1.39h0m-4-.02h0M-.27.32h0m-.8.14h0m-1.24-.4h0m5.38.43h0M-2.32.45h0m1.3-.42h0m4.83.13h0M1.26.03h0m.22.29h0M.04.15h0M-2.59.04h0m1.75.28h0M2.78.28h0M-3.27.27h0m-.11.02h0m5.87.08h0M3.53.1h0m-.52.21h0M3.57.1h0m-.83.08h0m-4.07.24h0M3.59.33h0M-.27.38h0M-2.21.2h0M1.05.1h0m-4.89.36h0M3.89.34h0M3.48.17h0M-3.28.02h0M.24.13h0m.23.04h0m-2.74.32h0M3.87.04h0M2.82.39h0m.01-.12h0M.48.29h0M3.54.12h0M-2.29.09h0m1.82.15h0M.54.1h0m2.21.18h0M-1.52.25h0M.54.22h0m.47-.06h0m-4.07.3h0M.26.47h0M2.09.02h0m-3.2.27h0m-1.17.14h0m-.8-.09h0M1.51.08h0M.29.07h0m-3.03.2h0m-1.06 0h0m.98.03h0m1.27-.11h0M.8.06h0M.53.18h0m-.29 0h0M-2.57.13h0m1.53.27h0m.17-.24h0M.7.15h0M-2.57.08h0m1.27.15h0m-2.33-.2h0m.31.43h0m7.1-.22h0m-6.8.09h0M.92.49h0M-3.25.18h0M.98.43h0M2.59.21h0m-5.34 0h0m4.06.12h0M-2.53.19h0M.25.4h0m2.83.06h0m.55-.33h0m-7.17.1h0m1.07-.08h0m-.9.29h0m3.09.03h0M2.05.08h0m.78.02h0m-4.6-.09h0m1.51.04h0m2.1.08h0m1.43.19h0M-.01.33h0m-2.05.15h0m5.66 0h0M-3.28.16h0M-.94.1h0m-2.31.17h0M.45.3h0M-3.57.18h0m5.92.1h0M-2.6.26h0m-.05-.05h0m4.68.07h0m.47.03h0M-3.25.06h0m7.17.1h0M1.52.04h0m-4.09.25h0M1.2.16h0m2.04.06h0M-.45.38h0M1 .3h0M-3.41.16h0m.69.18h0m.44-.25h0m.53.28h0M3.26.2h0M-2.31.18h0m5.34.07h0M.74.02h0m3.13.04h0M1.81 0h0M.57.28h0M.2.47h0M-3.26.31h0M3.82.28h0M-2.6.08h0m5.59.41h0M.83.39h0M3.52.36h0M2.77.05h0M-2.1.17h0m.06.28h0M1.81.09h0m-4.06.07h0m1.49.11h0m.19.13h0M2.89.06h0m-4.46 0h0m.88.16h0M2.02.01h0m-4.01.36h0m.75.01h0m2.76.08h0m-3-.35h0m-2.39.18h0m.74-.28h0M-.2.2h0m3.55.16h0m-5.39.06h0M1.48.01h0m-5.29.24h0m2.52.07h0M.32.34h0M-3.84.08h0m3.73.18h0M-1.97.09h0m-.9.16h0M.96.43h0M-2.02.29h0m.01.16h0M-.76.33h0m-3.1-.15h0M-.45.4h0M.52.18h0M-2.75.15h0m-.38-.09h0m.38.37h0M3.08.3h0m.56-.22h0M1.51.01h0M-3.6.25h0m-.21-.12h0M.04.27h0m1.01.2h0M2.87.3h0M.02.35h0M3.79.02h0m-6.55.31h0m1.46-.2h0m4.41 0h0M2.03.15h0m1.79.19h0m-6.12.1h0M-3.58.4h0M1.53.06h0m-.44.43h0M-1.29.2h0M2.08.07h0m-4.16.3h0m.63-.31h0m3.78.22h0m1.3-.14h0M.66.14h0m-3.5.14h0M.68.31h0m1.9-.29h0m-6.41.22h0m.96-.19h0M.6.37h0m.99.03h0M-.5.03h0m-.95.21h0m-2.1-.09h0M1.56.01h0m-3.39.34h0M-3.05.3h0m1.47.04h0m3.62.11h0M.26.41h0M-2.53.22h0m1.59.26h0M-.8.29h0m3.69.05h0m-3.18.1h0M-2.27.22h0M.06.02h0m-1.43.09h0m4.14-.1h0m-6.44.32h0m5.7-.32h0M-1.6.45h0M.77.19h0m-3.83.09h0m1.78.04h0M1.03.08h0M-1.56 0h0m2.89.07h0M.17.31h0m-2.19.02h0m-.06.08h0M1.04.3h0M-2.21.13h0M.95.22h0M-.51.33h0M.33.24h0M3.77.2h0m-5.52.13h0M-2.5.04h0m.86.09h0m-.18.3h0M.75.31h0M.73.07h0M-1 .14h0M-3.1.08h0M.52.22h0M-2.6.13h0m4.89.22h0M2.23.11h0m1.03.03h0M.46.39h0M3.65.18h0m-6.41.23h0m1.49-.37h0m4.84.43h0M.56.1h0m-3.83.26h0M1.05.23h0M2.54.21h0M.23.3h0M2.55.19h0M-1.57.14h0M1.54.1h0m.45.11h0M1.5.3h0M-3 .36h0M1.34.04h0m.12.45h0M-1.97.07h0m3.28.09h0m-.03.15h0m.21.01h0m2.35.17h0M-3.59.01h0m4.86.12h0m-2.36.25h0M1.08.25h0M3.56.18h0m-5.68.29h0m.38-.34h0m3.3.31h0m.47-.11h0M-.81.03h0m2.04.4h0M3.35.11h0m-5.67.18h0m5.66.02h0m.25-.03h0m-2.28.1h0M-.02.12h0m3.05.09h0m-6.65.13h0M-.5.4h0M3.78.05h0M-.25.11h0m3.32.24h0M-1.5.05h0m.58.09h0m.6.17h0M.34.2h0m-3.41.16h0m-.47-.29h0m6.31.42h0M-3.58.01h0M.46.43h0M2.74.34h0M3.79.03h0m-.71.14h0M.54.13h0m3.08.32h0M-3.8.48h0m2.74-.2h0M2.59.23h0M-3.27.18h0m6.4.11h0M2.74.26h0M.26.35h0M3.27.3h0M-3.77.03h0M3.1.02h0m-5.63.43h0M2.59.37h0m.22.04h0M1.26.29h0M-3.36.27h0M1.97.22h0m-4.98.27h0M1.08.07h0m-2.87.28h0M2 .05h0m-4.56.06h0M1.32.07h0m2.54.31h0M2.78.4h0M2.22.16h0M3.86.12h0m-4.11.1h0M-2.24.08h0m4.33.3h0M-.21.03h0m4.09.42h0M-2.87.19h0m4.05.18h0M2.86.2h0m-4.9.01h0m5.82.04h0M.24.39h0M-3.09.24h0M-.48.07h0M.96.4h0M3.31.02h0m-4.6.21h0M1.24.16h0M-.34.04h0m-1.94.01h0m3.35.44h0M.53.25h0M-1.01.23h0m3.1.02h0M-1.58 0h0m1.37.22h0m-1.27.03h0m.65-.17h0m3.87.21h0M.96.17h0M-3.87.08h0M1.3.03h0m-3.82.05h0m5.33.05h0M.03.14h0M3.82.3h0M-2.04.25h0M.27.18h0M-1.82.4h0M1.22.11h0m-3.56.23h0M-.06.03h0m-.68.3h0M1 .44h0m2.07.03h0m.72-.43h0m-7.08.45h0m2.28-.05h0M1.24.28h0m.01.17h0m-.2-.12h0M3.59.31h0M-1.24.13h0M-3.1.2h0m1.75-.09h0M.28.23h0m3.14.18h0M2.53.03h0m-5.4.01h0m5.86.22h0M2.1.17h0m-4.34.29h0M1.07.37h0M-.94.34h0M-3.6.13h0m7.43.31h0M2.54.06h0m1.27.31h0M-1.57.1h0m4.66.27h0m-5.03.08h0M-3.82.34h0M3.64.2h0m.34.27h0M-.44.41h0M-2.18.32h0m.38-.26h0M.6.24h0M-.97.48h0m-1.99.01h0m5.22-.4h0M3.27 0h0m-5 .27h0M-2.82.18h0m6.64.09h0M-.08.18h0m-2.68.31h0M.46.23h0m.05.23h0M3.64.37h0m-7.45.02h0m2.23-.2h0m-1.99.07h0M.11.22h0m-3.96.25h0M3.61.16h0M-.5.47h0M3.32.43h0M.27.39h0M3.73.25h0m-7.29-.1h0M.42.14h0m-1.46.07h0m-1.91.25h0m3.2-.2h0m.78-.18h0M3.81.03h0m-7.62.01h0m.23.12h0M-2.3.12h0M.18.3h0M-2.3.05h0m.19.02h0m5.93.34h0M1.23.43h0M-3.41.22h0m6.15.16h0M-1.53.16h0M-3.82.01h0m.54-.01h0m4 .36h0M-.76.31h0M-3.78.07h0M-.3.24h0m2.61.02h0M-1.03.04h0M-2.5.23h0m2.17.25h0M1.28.12h0m-3.33.23h0M1.3.34h0M.31.03h0m3.57.02h0M.76.1h0m3.1.37h0M-3.55.36h0m-.01-.05h0M.29.25h0m-4.16.23h0M.98.09h0m-3.82.05h0m.06.33h0M-.49.31h0M.22.18h0M-3.76.13h0M2.07 0h0m-3.92.5h0M3.49.29h0m.33.19h0M-2.11.21h0m-1.2.1h0m5.65.15h0M3.28.1h0m-6.55.18h0M3.61.26h0m-4.88.03h0m2.87 0h0m-4.71.05h0M-.79.08h0M.27.44h0M3.74.17h0m-.46.11h0M-3.88.21h0M1.49.06h0m.05.06h0m-.03.3h0m.51-.03h0M1.83.23h0M3.59.21h0M.3.31h0M.72.04h0m-.21 0h0m-.52.43h0M2.04.06h0M.07.16h0m-3.92.29h0M.02.04h0m-.5.23h0M-2.05.24h0M.28.31h0m.49 0h0m-2.98.03h0m-.05-.01h0m.7.15h0M3.47.33h0M2 .42h0m.44-.09h0M-2.39.15h0m.42.03h0m3.46.09h0m-4 .08h0m4.09.12h0M-2.57.21h0M2.8.4h0M-3.07.06h0m2.06.07h0m2.5-.12h0m-.45.01h0M.2.27h0M-1.53.18h0M-2.86.12h0m.68.32h0M3 .3h0m-.3.12h0M2.33.19h0M-.01.13h0m-.25.1h0m-2.78.19h0M2.47.23h0M-3.88.18h0m7.63.08h0M.97.09h0m1.85.02h0m-6.4.3h0M.98.43h0M-2.36.31h0M3.32.28h0m-5.19.15h0M-.51.26h0M-1.78.04h0m2.29.4h0m2.04-.2h0M-3.3.25h0m.51-.21h0m2.47.22h0m.8-.13h0M-1.31.09h0m-2.54.36h0M-1.43.3h0m2 .09h0M3.29.38h0m.26.04h0M-2.87.05h0m.8.36h0m-1.75.03h0m.18-.42h0m-.27.06h0m3.65.06h0m.97.05h0m-3.7.26h0m5.54-.1h0M2.1.15h0m-3.54.14h0M-3.31.4h0M-.7.11h0M-3.38.2h0m1.78.09h0M3.5.06h0M-.28.07h0m1.5.05h0m2.63.22h0M-1 .11h0m3.81.31h0M-1.02.1h0m4.66.09h0M-.73.36h0M-2.52.23h0M.34.47h0M.82.23h0M.23.07h0m-3.52.15h0M3.51 0h0M.22.47h0M-3.02.24h0m-.81.17h0M3.03.22h0m-5.37.26h0m4.08-.1h0m.78-.04h0M.79.36h0m1.03.09h0M3.84.04h0m-.31.39h0M-3.46.37h0M-2.31.3h0m3.57.12h0m.29-.38h0M-.82.37h0M.97.46h0M3.83.4h0m-5.9-.39h0m-.29.02h0m-.21.1h0m-.25.01h0m-.97-.06h0m6.03.23h0M.52.4h0M.77.19h0M-1.32.08h0m-.19.1h0m-1.46.13h0m-.36.15h0m1.78-.3h0M.71.25h0m-3.56.21h0M3.09.38h0M1.22.4h0M-3.07.1h0m6.66.01h0m.2-.05h0M.23.11h0m2.56.16h0M-.8.48h0M3.26.23h0M-2.28.2h0m.81.29h0M-.3.15h0M-2.81.09h0m-.48.12h0M.79.39h0M3.06.12h0M.16.27h0M2.55.05h0M.44.46h0M3.84.1h0M.32.19h0M.04.45h0m-1.9-.43h0m.83.18h0M2.58.08h0M-.74.37h0M3.79.18h0M-.78.07h0M.47 0h0M.5.42h0M3.12.37h0M-.5.35h0M.23.11h0m.03.37h0m.77-.06h0m.81.07h0M-1.61.17h0m-2.26.11h0m1.84-.23h0m.78.11h0M.77.17h0m-2.53.12h0m-.48.17h0m4.3-.11h0M-3.05.02h0m1.77.29h0m.85-.02h0M1.3.3h0m1.26.04h0m-5.41.01h0m-.7-.13h0m1.8-.22h0m4.34.24h0M-2.33.02h0m.51.26h0m-2 .09h0m.16.11h0m-.12-.02h0M2.83.02h0m-.69.25h0m1.51.17h0M-2 .05h0M3.04.2h0m-5.31.06h0m-.81.22h0m1.02-.25h0m.76.06h0m-2.29.07h0m.57-.35h0m2.05.45h0m-1.4-.41h0m1.54.28h0M.51.36h0m-2.5-.1h0M2.05.18h0M-2.3.12h0m3.83.3h0m2.04-.1h0M-.56.41h0m.26.07h0M1.72.5h0m.31-.2h0M-.28.29h0M2.87.04h0m-6.38.08h0m2.68.21h0M1.28.09h0M-.75.36h0m3.27.09h0M-1.96.3h0m.45-.02h0m.79.01h0M3.73.5h0M.5.37h0M-1.24.21h0m2.7-.14h0M3.5.13h0M2.04.28h0M.47.5h0M-.71.24h0M-2.48.11h0m1.7.22h0m-2.05.11h0m.61-.24h0m1.94.05h0m-2.28-.1h0m-.5.04h0M.04.17h0M1.06.01h0m2.58.17h0M.06.33h0M1.28.27h0m-1.8.17h0M1.79.05h0M.03.05h0m-2.51.26h0M3.34.13h0M-1.29.06h0M.72.32h0m.62-.11h0m.12.07h0M-1.53.3h0m3.34.07h0M-.78.41h0m-2.3-.4h0m-.05.45h0m1.87-.14h0M2.97.17h0m-6.6.29h0m7.39-.2h0m-.18.05h0m-7.35.01h0m5.92-.3h0m1.67.39h0M1.81.18h0M-3.48.12h0m2.44.02h0m3.35.08h0M1.24.29h0M3.63.25h0M1.21.47h0M3.29.33h0M3.25.28h0m-.39.14h0M-1.57.35h0m-1.95-.2h0M3.01.04h0M.98.43h0M-.34.44h0m1.66-.3h0M.5.07h0m2.06.19h0M1.32.11h0m.41.36h0m.81-.45h0M-.45.01h0m.99.2h0m3.27.12h0M-.99.22h0m-2.88.11h0m.77-.05h0m-.46-.19h0m.52-.06h0M1.78.1h0M.71.22h0m2.86.25h0m.28-.42h0m-2.53.4h0M-.53.08h0M.08.1h0m-3.37.26h0m7.13.09h0M-.28.36h0m3.55.13h0M1.3.48h0M-1.97.19h0M3.5.37h0M-1.54.2h0m4.58.27h0m-4.38.01h0M2.54.16h0m.53.11h0M1 .4h0m-4.88.09h0m2.52-.23h0m-.46-.07h0m4.41.2h0m.23-.37h0M2.59.4h0m.78-.17h0M1.11.06h0m-2.57.13h0M.7.18h0m1.52.13h0m.1-.3h0m.19.1h0M-.5.46h0M1.53.31h0M-2.52.08h0M2.09.04h0M-.83.36h0m1.36 0h0m-1.8.09h0m.48-.06h0M-1.86.17h0m-.98.18h0m-.92-.28h0m6.75.42h0M1.49.35h0m-3.08 0h0M-3.04.34h0m5.56.08h0M1.8.01h0m1.24.15h0M1.24.04h0m1.03.04h0M1.76.03h0M-3.8.08h0m.96.23h0m-.73-.03h0m1.53.07h0m4.63.08h0m-5.96.06h0M1.54.24h0M-1.85.03h0m-.72.28h0M2.56.17h0M-2.28.04h0m4.13.03h0M-3.1.2h0m-.75.04h0m4.37.1h0M2.34.16h0M-.28.49h0M-3.27.45h0M.42.36h0M1 .4h0m2.84.05h0M-.76.42h0M.26.21h0m2.79.02h0M.29.14h0M-2.86.4h0m1.59-.07h0M1.81.18h0M.29.38h0M-.25.35h0M-2.74.5h0M2.82.36h0M.8.19h0M-.01.11h0m-.21.32h0m.18-.28h0m-1.28.32h0m.78-.34h0m1.75.05h0M-2.31.01h0m2 .19h0M-3.04.18h0M1.3.33h0M-1.73.07h0m1.45.19h0M1.46.01h0M-1.5.47h0M-2.55.03h0M-.52 0h0m4.03.18h0M-1.55.01h0m-1.58.44h0m1.61-.23h0m-1.1.03h0m3.95.16h0M-.17.23h0m.2.23h0M-3 .19h0m1.54-.05h0M3.81.3h0M.55.19h0m-4.09.14h0m3.34 0h0M-3.24.3h0m5.81.13h0m-.12.06h0M.94.18h0m-1 .19h0M-3.75.15h0m-.08-.11h0M.55.07h0m1.21.18h0m-5.14.19h0m.1-.32h0m4.81.17h0m1.78.06h0M2.08.18h0m-5.84.28h0M.3.19h0m-2.11.1h0m1.8-.08h0M.85.16h0m-3.2 0h0M.02.33h0m-2.26.16h0M.05.15h0m.21.14h0m2.09.1h0M.25.04h0m.83.45h0M3.87.28h0M3.5.09h0m.34.13h0M2.79.37h0M.84.27h0M.75.13h0m-.81 0h0m-3.77.24h0M-.57.32h0m.58-.3h0m.77.04h0m1.07.25h0m-.1.06h0M3.84.05h0M2.81.48h0M-3.87.47h0m1.08-.05h0m.5-.32h0m1.44.32h0m-2.24.04h0m.02-.18h0m-.5-.13h0m5.66.28h0M3.58.02h0M1.7.39h0M-2.75.27h0m6.57.11h0M-2.3.19h0M2.04.11h0M.28.37h0M.01.43h0m1-.1h0m1.74.16h0M2.1.3h0m-.28.1h0m-.08.07h0m-.51.02h0m-1.7-.3h0M2.26.13h0m1.55.3h0M.99.28h0M.42.17h0M-2.61.11h0m-.5.02h0m.07.16h0m4.8.12h0m1.75.04h0M-1.59.3h0m.09.02h0M1.89.05h0M-.51.02h0m-3.23.04h0m-.15-.04h0M.8.41h0M3.46.29h0M-3.83.02h0M1.79.01h0M-.08.27h0m-1 .11h0m-1 .05h0M2.76.35h0M2.61 0h0M.51.39h0M-3.56.14h0m-.29.36h0m1.34-.34h0M1.64.09h0M-2.9.23h0m1.86.21h0m-.77-.11h0m.32-.18h0m3.52.34h0M1.79.3h0m.09-.05h0M-.68.09h0m-2.35.05h0m5.1.25h0M-2.06.4h0M2.31.19h0m1.03.1h0M1.5.03h0M-2 .37h0M1.22.1h0m-.11.35h0M-.02.16h0m-2.44.1h0M-.23.19h0m-3.64.29h0m1.05-.33h0m-.95.2h0m.4-.23h0m.04.34h0M1.35.25h0m-4.44-.2h0M.25.22h0m-3.29.21h0m5.31-.3h0M-1.52.3h0M3.4.14h0M.26.25h0m-2.8-.02h0m-1.25.24h0m1.26-.29h0M-.67.03h0m-.64.01h0m-.75.15h0M3.3.23h0m.51.26h0M2.82.37h0M-2.61.18h0m-.24.2h0m2.59.04h0M3.62.27h0m-.36.04h0m.27-.13h0M2.32.09h0M.52.21h0M-.69.07h0m.64.03h0M-2 .11h0m-.62.22h0M-3.8.34h0M3.4.01h0M-3.31.1h0m2.34.19h0m-.3.2h0M.82.32h0M2.26.3h0M3.57.22h0m-.54.12h0m.09-.07h0M-1.8.35h0M2.13.16h0M.43.29h0M2.47.21h0m.34.02h0M.31.36h0M-.06.04h0m1.29.1h0m.83.04h0M-.87.14h0m-2.95.1h0M1.53.03h0m2.06.21h0m-4.92.21h0M3.08.44h0M.43.23h0m2.65.24h0M-.7.07h0m3.35.04h0M.5.03h0M-3.79.4h0M2.27.26h0M-2.01.4h0M3.81.05h0M-2 .3h0M.75.38h0M-1.98.05h0m4.99.14h0m-.18.04h0M1.74.4h0M.51.14h0M3.15.03h0M-.27.41h0M-3.31.09h0m-.44.34h0M1.22.42h0M-2 .4h0M-.04.26h0m1.13.21h0M.26.42h0m1.05.01h0M-2.05.06h0m-1.27.1h0m1.04-.11h0M.99.46h0m.3-.15h0m.15.13h0m-2.4-.3h0M1.01.05h0m-3.5.45h0M2.74.03h0M-.57.21h0m.23.24h0M-.7.31h0m2.46-.3h0m-4.05.28h0m.76-.04h0M.04.22h0M.96.09h0m2.32.19h0m-6.52.13h0M1.79.3h0M-.06.08h0M2.1.36h0M2.04.2h0m-.77.09h0M-1.72.21h0M2.83.09h0M.17.32h0M2.61.13h0M-.41.02h0M-.55.01h0m1.58.03h0m2.8.16h0M2.51.01h0M-.5.16h0M3.98.13h0M-.3.09h0m-.68.15h0m2.71.13h0M-2.5.48h0m1.5-.4h0M2.54.06h0m-.47.32h0M-3.78.1h0M1.25.05h0m-4.51.03h0M3.92.05h0m-5.19.04h0M-2.64.01h0m6.2.04h0M-.59.38h0M.77.31h0M.79.3h0M-2.77.08h0m2.04.01h0M.86.22h0m-2.15.21h0m.22-.35h0m-.11-.01h0m-1.3.3h0m.98-.25h0M-2.6.09h0m4.98.2h0m-1.36.2h0M-2.83.27h0m2.32 0h0m3.1.2h0m.76-.04h0M-.04.11h0m1.11.11h0m2.51.25h0M2.07.35h0m1.3 0h0m-.55-.2h0m.49 0h0M1.08.38h0m1.5.03h0M.99.28h0m-1.55 0h0M1.61.21h0M.02.4h0m-2.8-.35h0M.46.44h0M1 .05h0m1.32.1h0m-4.26.08h0M.74.36h0M-1.54.18h0m.32.15h0M1.51.24h0m.01-.21h0m-3.33.38h0M3.35 0h0m-7.14.38h0M2.64.1h0m-6.15.37h0M2.05.38h0M-2.83.16h0m3.6.01h0M-.46.43h0M.49.05h0m3.25.16h0M2.03.11h0m-4.8.02h0m.71.17h0M3.58.12h0M.3.2h0m3.01.11h0m-5.37 0h0m4.85.08h0M1.14.48h0M3.37.01h0m-2.14.4h0M-1.72.08h0m4.1.09h0m1.61.3h0M1.1.15h0M2.78.03h0M.97.36h0M-.73.23h0M-.99.07h0M.46.25h0M-1.8.37h0M.3.17h0m-2.09.16h0M-3.75.04h0M2.06.2h0M-.78.47h0m-.89-.18h0m1.45.1h0M-1.31.2h0m5.06.09h0m-6.06.06h0m2.5-.1h0M1.36.22h0m-4.74.27h0m-.13-.4h0m7.1.36h0M-3.55.13h0M-.02.1h0M1.8.1h0m-4.59.34h0M1.34.22h0m-4.14.2h0m2.55.06h0M.96.18h0M-3.82.11h0m5.59.11h0m-.48.15h0m-.22.09h0M-1.19.25h0M-1.5.13h0M.51.21h0M-1.31.03h0m-.8-.02h0m-.94.47h0M1.53.43h0m-.21-.1h0M2.76.12h0m-5.78.01h0m-.32.34h0m5.89.02h0M-.02.1h0m-2.77.05h0m6.56.21h0M-1.08.11h0m-2.32.2h0M1.75.28h0m-4.61.11h0m-.74.1h0M-.55.17h0M3.8.22h0m-.58.14h0m-4.8.05h0M.76.22h0M2.34.16h0M-2.99.03h0M3.26.01h0m-7.13.11h0M3.29.01h0m-5.34.03h0m.97.33h0m.9.04h0M.84.36h0M-3.6.13h0M.95.02h0m-3.76.36h0M1.76.07h0M-3.52.03h0m3.22.3h0M-3.32.21h0M.02.38h0M-.99.1h0m3.31.23h0m-3.68 0h0M-3.07.12h0m5.63.19h0M.06.49h0m1.21 0h0m-4.52-.3h0m3.5.18h0m3.29.02h0M.25.03h0m.28.22h0M.51.03h0M2.56.1h0M1.01.14h0M-.28.19h0m-2.29.05h0m2.31 0h0m3.1-.07h0M1.54.5h0M-.27.38h0m-.3-.17h0m1.91.26h0M-.95.4h0M.28.12h0m-1.8.38h0M-2.2.12h0m3.29.36h0M-3.57.46h0m6.1-.1h0M-3.81.21h0M1.23.08h0M3.84 0h0M-3.3.47h0M1.73.01h0m-.7.45h0M-1.55.04h0m-1.76.03h0m2.57.25h0M.2.27h0M3.89 0h0M2.81.35h0M-.23.1h0M.79.11h0M-.95.04h0m2.74.05h0m.54-.01h0m-5.92.36h0m7.5.04h0M.08.02h0M-.31.1h0M-.52.05h0m-.78.16h0m-1.93.25h0M3.04.02h0m-5.05.09h0M2.03.1h0m-5.59.27h0m5.07-.3h0M-.78.33h0M-2.64.07h0m2.41.28h0M-.44.1h0m2.68.08h0M.73.45h0M-2.52.24h0m-.84-.09h0m2.33-.09h0m2.56.43h0M.22.06h0m-2.55.31h0m-.24-.21h0M.22.03h0M-2.06.4h0M-.31.11h0M3.6.38h0M3.29.1h0m-3 .2h0M-2.05.11h0m-.65.24h0m4.12.02h0m-.17-.1h0M.01.03h0m.45.22h0M-3.62.3h0M.45.46h0M3.66.05h0M1.07.16h0M2.29 0h0M.23.1h0m-1.78.07h0M.32.05h0m-.86.1h0M3.3.3h0M3.11.19h0M-1.04.3h0m-.47.04h0M.95.35h0M1.1.19h0m2.68.22h0M3.04.04h0m-4.82.05h0m4.02.2h0M-.26.05h0m-.23.4h0M3.32.39h0M-1.27.14h0m4.58.28h0M.46.2h0m1.1.28h0M3.54.46h0M-2.69.45h0m-.37-.01h0M3.08.26h0M-1.56.17h0m-2.33.06h0m6.65.18h0M1.31.49h0M-3.87.44h0M1.49.23h0M-1.8.44h0M2.63.12h0M.56.41h0m-4.46 0h0m2.89-.37h0M1.34.03h0m1.94.33h0M-2.37.02h0m2.33.22h0M.79.22h0M-3.72.3h0M1.75.24h0M-.74.25h0M3.32.17h0M1.27.1h0M3.51.08h0M1.98.25h0M.52.45h0m.24-.2h0m-4.27.16h0M3.75.34h0M-1.74.5h0M2.52.33h0m-4.59-.1h0m.26.05h0M1.32.04h0m-3.08.24h0m-.29-.17h0M1.5.02h0M.25.21h0m-3.86.11h0m1.75.04h0m3.69.06h0M-1.33.38h0m-.78-.31h0m-.24.25h0m4.87.11h0m-5.83.01h0m6.93-.1h0M-1.27.17h0m.54.07h0m.24-.21h0M-1.38 0h0m-1.2.14h0M-.77.13h0M-.79.4h0M-1.8.25h0M-3.81.23h0m1.22-.18h0m5.65.14h0m-6.38.13h0m4.79.15h0M.98.49h0M-2.37.3h0M2.56.22h0M1.59.09h0m-3.28.04h0m-.16-.1h0M-.24.01h0m2.32.3h0M1.5.18h0M2.63.11h0m-4.17.38h0M1.74 0h0m2.08.02h0m-6.4 0h0m5.03.37h0M.08.32h0M-.25.31h0M-3.38.08h0m1.1.08h0M-.5.3h0M1.52.23h0m-3.08.12h0M-.02.18h0m2.39-.1h0m1.19.07h0m-5.53.22h0M-.29 0h0m-1.16.03h0m.13.04h0m-2.02.27h0m6.86.13h0M.27.02h0m-2.85.36h0M.5.41h0m-2.17-.2h0m5.55.26h0M.47.13h0m-3.76.16h0m6.9.08h0M1.75.34h0m1.99.08h0m-5.8-.2h0m-1.01.02h0m6.84.18h0M1.32.04h0m-4.33.4h0m.73-.1h0m.53-.26h0m.25.38h0M-3.04.13h0M1.01.05h0M3 .11h0M1.31.38h0M-3.84.06h0M2.61.02h0m.71.01h0m-7.1.07h0M.51.2h0m-1.54.19h0M-3.27.37h0M-3.8.1h0m4.86.08h0m.99.06h0M-.46.4h0m1.8-.17h0m-5.17.12h0m6.94.13h0M2.05.24h0m-3.31.18h0M2.8.36h0M-1.61.08h0m-.22.01h0m4.1.04h0M.73.45h0M-2.81.43h0M2.3.4h0M-1.84.36h0m4.9-.09h0m-4.33.14h0m-1.32.06h0M3.1.11h0M1.3.46h0M-.24.31h0M2.23.23h0m.56-.16h0m.84.36h0M3.08.2h0m-5.89.08h0M.78.26h0m2.29.15h0m.31-.36h0M1.74.01h0m-4.75.24h0m-.88-.03h0M2.55.06h0m-4.87.37h0m6.09-.3h0M.73.46h0M3.32.37h0M1.25.11h0M2.79.04h0M-.84.22h0m-1.26 0h0m-.18.16h0m.54-.11h0m4.08.04h0m.24-.04h0m-5.62.05h0m4.63-.2h0M-.24.28h0M-1.77.25h0M.45.26h0m.4.03h0m.95.03h0M-3.41.07h0m2.06.18h0m-.98.17h0m4.1.06h0M-3.86.15h0m3.8.26h0m3.87-.4h0m-7.65.31h0m5.9.14h0M2.5.02h0m1.13 0h0M.48.38h0M3.15.25h0m-4.65.2h0M2.11.34h0M3.28.13h0M1.84.19h0m1.45.29h0m-4.5-.15h0M.71.2h0m.53.11h0m-4.82.04h0m2.84.07h0M-2.07.18h0m1.36.26h0m-.86-.1h0M-.05.12h0m-.02.07h0m-.7-.15h0m-2.02.28h0m4.25.06h0M1.32.24h0m-5.15.18h0m.7-.29h0m4.19.1h0m.72.12h0M3.31.19h0m-6.12.02h0m3.97.08h0m-3 .11h0M2.78.38h0M-2.3.2h0M2.27.18h0m-3.8.24h0M-3.59.16h0m1.55-.04h0m4.58.29h0M-3.5.32h0m3.41-.3h0m1.88.41h0m-5.39 0h0m2.58-.21h0M3.49.09h0M-.58.42h0M-1.61.3h0M-.44.09h0m-1.05.15h0m1.01.15h0m.17-.33h0m3.62.05h0M2.27.35h0m.3.11h0M.29.28h0m-2.02.15h0M-.51.06h0M.71.35h0M.94.08h0M-.53.27h0m3.32.08h0M.52.47h0M-.79.04h0m-1.48.02h0M.82.07h0m-.63.3h0M.32.2h0m3.5-.01h0m-2.75 0h0M-.24.45h0M-1 .44h0m-.31-.07h0M.47.35h0M-2.26.09h0m-.77 0h0m5.39.12h0M.46.26h0m-3.73.13h0m1.82-.08h0m.69.11h0M.97 0h0m-4.79.19h0m3.8.12h0M3.8.37h0M3.55.16h0M.29.47h0M-2.99 0h0m-.12.07h0m-.17.19h0M-.02.19h0M.7.15h0m.1.27h0m1.21-.2h0m.48.13h0M2.25.27h0M-1.51.2h0m3.74.12h0m-4.2-.23h0m.17.13h0m.09-.14h0m-.54.31h0M-.21.22h0m-3.1.02h0m1.06-.08h0m5.79.13h0M2 .37h0m-3.52.12h0m5.36 0h0M-3.27.05h0m-.05.27h0m3.87 0h0m.21-.2h0m-4.52.24h0m.51-.26h0m4.84.27h0m.67-.36h0m-.03.41h0M3.92.37h0M-1.79.3h0m-1.1-.25h0m.84.41h0M-2.69.1h0m.1-.02h0m2.53.03h0M1 .26h0m2.26.12h0M-.57.07h0M2.24.06h0M-.27.21h0M3.37.14h0m-6.34.12h0M-3.06 0h0M.71.11h0M-.73.37h0m-2.91-.3h0M-.46.04h0m2.73 0h0m-2.7.44h0M.78.05h0m-3.57.03h0M1 .44h0M2.23.16h0m-.48.18h0m-3.81.11h0m-.7-.07h0M.74.14h0m-1.97.19h0M1.76.24h0m-.47.21h0M3.84.31h0M1.05.45h0m-4.88-.1h0M-.01.07h0M-3.82.05h0M.45.3h0M3.01.21h0M.26.38h0M-3.8.36h0m.76.08h0M-.51.28h0M3.1.1h0m-5.51.09h0M-.66.01h0m-2.35.26h0m6.83.22h0M.74.2h0M.49.1h0M.26.18h0m-2 .13h0m.7.1h0M3.27.25h0M1.83.23h0M1.24.08h0m-3 .18h0M1.76.12h0m-5.3.36h0m.22-.2h0M1.71.26h0m-.53.03h0m.06-.16h0m2.07.12h0M-.5.34h0M-2 .37h0M-.78.36h0m-2.71.13h0M-.96.3h0m-.89.08h0M1.58.36h0m-3.67.05h0M-3.58.27h0M.26.49h0M-.85.16h0m2.08.05h0M3.8.47h0M2.38.19h0M-1.5.17h0m5.02.15h0M3.28.17h0M.34.06h0m-1.87.22h0M.3.47h0M3.52.39h0m-4.58-.3h0M-.04.03h0m1.56.2h0M.48.49h0M2.07.24h0M.71.12h0m3.06.27h0M.99.29h0M-1.27.06h0M2.33 0h0m-5.17.27h0M.02.09h0m-.51.24h0M-2.34.3h0m.57.05h0M.44.07h0M-.69.48h0M3.34.41h0M1.48.36h0m-2.96-.1h0m2.53-.2h0M3.58.4h0M.52.49h0M2.25.08h0M-1.6.43h0M-3.28.12h0M1.35 0h0m-2.58.13h0m-.79-.02h0m.17.25h0m.58-.28h0m2.79.4h0M3.87.25h0M.74.24h0m-2.56.12h0M.32.18h0M-3.01.14h0m6.78.03h0M-1.51.06h0m.21.1h0m-2.47.03h0m7.63.13h0M3.08.21h0m.04-.08h0M1.04.38h0M3.6.36h0M3.57.14h0M-.8.47h0M2.06.05h0m.27.27h0m.23-.27h0M-.21.28h0m2.77-.2h0M.23.27h0M-1.49.23h0m4.5.18h0M-.2.25h0m.71.1h0M1 .06h0M-1.53 0h0m-.31.28h0m-.21-.07h0m1.47 0h0m2.3.06h0M.76.36h0M.18.49h0m2.88 0h0M3.3.13h0M-3.37.3h0m5.99.15h0M2.27.44h0M.44.33h0m3.08.03h0M.94.02h0m2.08.42h0M.8.05h0M.5.49h0M3.86.32h0M.09.45h0M3.32.5h0M-3.29.13h0m6.82.09h0M-.33.3h0M-2.32.21h0m3.67.02h0M-1.29.18h0m-.74-.17h0m2.02.26h0M2.6.07h0m-.11.31h0M-1.84.14h0m4.92.2h0m-5.15.15h0M-3.38.01h0m.55.07h0m-.95.23h0m6.01.12h0m-3.52-.1h0m-.77.05h0M-3.62.05h0m7.41 0h0M.74.28h0m.99-.22h0m.35.26h0M.49.03h0m.19.01h0m3.2.05h0m-6.39.09h0M2.33.06h0m-.1-.01h0m-5.07.44h0M2.12.42h0M-1.09.24h0m1.1.05h0M.26.2h0M.5.41h0M-.49.13h0m2.02.24h0m-.3.11h0M.2.35h0M1.48.26h0M-1.09.23h0m.82-.09h0M2.77.12h0m-.72 0h0m-.99.13h0M-1 .19h0M3.77.4h0M-3 .39h0M3.02.38h0m.03-.3h0m-4.26.23h0M.24.42h0m2.78 0h0M-1.96.34h0m4.3.14h0M-2.13.42h0m-.16-.39h0M2.62.2h0m-6.15.09h0M3.39.15h0m-.88.07h0m-4.2-.15h0m5 .09h0M-.54.18h0M-.8.2h0m.81.01h0m.73.28h0m1.83-.3h0M-3.57.04h0m1.09.03h0M-3.9.39h0M3.28.36h0M.25.02h0M.18.09h0M-2.8.14h0m-.7.16h0m1 0h0m-1.16.06h0m3.18.03h0M2.37.5h0M-3.88.18h0m6.21 0h0M.24.39h0m-3.87-.3h0M-2.3.3h0m-1.67.01h0m.67-.18h0M.98.07h0m2.87.12h0M2.71.08h0M-.57.02h0m3.58.45h0M2.09.05h0m1.18.28h0m-6.6-.28h0m6.36.24h0m.52.11h0M-3.04.37h0M3.98.35h0M2.58.2h0m1-.02h0m-5.1-.17h0m3.77.11h0m-.99.33h0M-1.78.3h0m1.21.01h0M-.8.26h0m1.83-.2h0M2.3.27h0m.04.15h0M3.54 0h0M1.6.15h0M-2.56.07h0m4.88.22h0m-4.39.18h0m-.91-.33h0m-.07.13h0M2.1.2h0m1.16.21h0m.1-.4h0m-5.32.43h0m.38-.22h0m5.34.06h0m-5.51.08h0m.78.08h0m-.65.02h0M-2.3.31h0m4.31.17h0M-2.36.02h0m.6 0h0m.47.07h0m2.6.13h0M.81.15h0m-4.22.14h0M2.81.4h0M-1.28.28h0M-3.61.03h0M1.04.01h0m-4.92.2h0m7.17.04h0M2.8.36h0M1.99.18h0M-3.8.45h0m4.78 0h0M-3.81.08h0M.01.4h0M-2.12.32h0M3.84.07h0M.3.18h0M-3.64.02h0m.29.07h0m6.92.32h0M2.09.2h0M.28.26h0m2.23.19h0M-3.87.16h0m1.33-.09h0M2.88.05h0M1.49.14h0M-2.77.2h0m-1.1-.09h0m2.64.09h0m1.9.02h0m-3.99.09h0m2.31-.28h0M.82.47h0M2.8.36h0m-6.15.09h0M2.06.21h0m-4.82.07h0M2.78.11h0m1.19.14h0M-.74.33h0M-.77.28h0m.81.21h0m-1.8-.03h0M-2.8.2h0m1.27.2h0M.77.02h0M0 .28h0M.27.13h0M-1 .27h0m-1.79.19h0M2.27.21h0M1 .08h0m1.84.27h0M2.9.21h0M1.52.36h0M-1.27.3h0M.22.13h0m.23.04h0m2.28.05h0m-6.06.25h0M3.31.32h0M3.02.04h0m-.15.27h0m-5.63.04h0m-.55-.3h0m-.33 0h0m3.6-.01h0m3.12.39h0M-2.97.2h0m2.64.29h0M-3.35.34h0M3.53.11h0M-2 .05h0M2.55.02h0M2 .07h0M.96.06h0m-3.49.37h0M.99.24h0m1.56.21h0M.44.23h0M.07.03h0m-1.38.44h0M-3.63.43h0M2.1.08h0m1.46 0h0M1.27.27h0m-3.79.14h0M3.14.25h0M2.3.42h0m.54-.21h0M-2.6.13h0m-.41-.01h0m5.09.23h0M.24.37h0m.54-.3h0M-.3.4h0M-1.56.06h0M.02.42h0M2.06.41h0M1.31.35h0M.44.24h0m2.88 0h0m-6.13.05h0m4.64.14h0M.45.37h0m.26.11h0M-2.8.49h0m.3-.31h0m-.34.21h0m5.89.1h0M-.02.38h0M-3.29.32h0M-.05.1h0M-.56.08h0m-.47.32h0M.23.3h0M-3.3.33h0m-.52.02h0m.29-.19h0m2.01.04h0m1.04.24h0M1.84.18h0m.94-.03h0m-5.83.3h0m.53-.1h0M3.57.16h0M1.49.49h0M-3.6.06h0M1.99.3h0m.57.05h0m.02.1h0M-.54.3h0m-1.3.01h0m-.2-.07h0M1.3.26h0m2.55.13h0M1.3.49h0M-1.55.21h0M.81.06h0m-4.68.06h0m5.62 0h0m-.51.01h0M-.77.21h0m-.72.14h0m-.86-.08h0M2.58.25h0M2.55.03h0m-.28.08h0M3.3.17h0M.61.03h0M-2.5.06h0M-.22.3h0m2.81.09h0M3.84 0h0m-7.66.32h0M3.57.06h0M.28.01h0m.04 0h0M.24.35h0M.56.04h0m-3.83.15h0m1.29.13h0m4.82.01h0m-4.61.15h0M1.26.37h0M.28.41h0M-3.65.1h0M.02.24h0m1.8-.15h0m-.23 0h0M3.3.05h0m-5.08.37h0m3.82 0h0m.75-.36h0M.26.05h0m-4.13.37h0m5.74.02h0M-2.29.18h0m.17-.02h0m3.37.17h0M-.25.3h0M2.06.09h0M.04.4h0M.77.04h0M-1 .14h0M-3.73.07h0M3.56.01h0m.26.1h0m-4.84.08h0M2.57.4h0M3.6.44h0M3.02.26h0M.95.13h0m-2.76.14h0m-.54.16h0M-.34.36h0M2.51.5h0M-1.32.44h0m.34-.38h0m3.27.39h0m-5.88-.3h0m5.37.16h0M.53.35h0M3.63.1h0m-4.91.13h0m-.02.02h0m4.64.18h0m-7.2-.09h0M1.29.29h0M-3.05.21h0m2.1.14h0M-2.54.13h0m3.81.26h0M.83.18h0m1.16.05h0m-4-.19h0m1.19.18h0m4.4-.07h0M-1.74.12h0m4.28.31h0M3.86.27h0m-4.7.18h0M1.28.32h0M-.45.36h0m.24-.33h0m-2.36.35h0M-2 .07h0m-.32.13h0M-.08.01h0M.3.32h0M-2.97.28h0M-.46.25h0m1.81-.2h0M-1.38.01h0m5.14.31h0m-6.07.1h0M3.9.11h0M-1.77.07h0m2.2.3h0m2.68-.1h0M1.3.18h0m1.74.2h0M1.76.01h0M.02.06h0m-.67.1h0M-1.99.08h0m1.57.28h0M-.83.21h0M2.5.15h0m-3.54.27h0M1.53.19h0m.73-.11h0m1.02.05h0m.02-.1h0M3.29.1h0M-.69.1h0M.78.2h0m-3 .08h0M-3.79.13h0m7.64-.1h0M.52.35h0M.97.1h0M.54.46h0M-2.03.29h0M-.76.16h0M2.8.2h0M-.56.17h0m-1.9-.03h0m1.12.07h0m3.71.22h0M1.02.24h0m-3.53.14h0m3.64.01h0M-.71.38h0m3.2.02h0M-3.88.1h0M3.28.02h0m-5.53.35h0M-3 .39h0M.24.23h0M2 .34h0m.03 0h0M-2.8.07h0m-.53.22h0m-.25.06h0M-.49.4h0M-3.03.31h0m1.69.07h0M3.29.06h0M1.8.28h0m.77-.21h0m-5.35.07h0m5.04.1h0M2.1.33h0M1.34.17h0m-.09.01h0m-3.51.3h0M3.52.22h0M.29.44h0M.98.06h0m-2.51.3h0m-2.08.06h0m.57-.31h0M-.27.1h0m3.29.17h0m-1.57.2h0M-1.53.45h0m-.75-.22h0m4.25.13h0M-1.28.07h0m.94-.02h0m1.84.4h0M3 .39h0M.45.26h0m-1.5-.21h0m-1.97.21h0M3.1.17h0m-1 .12h0m-4.05.02h0m-.35.03h0m-.33-.09h0M.31.23h0M.23.5h0M-3.83.14h0m7.67.13h0M-3.32.05h0M.05.29h0M-3.24.07h0M1.34.02h0m-4.7.48h0M-3.6.25h0m2.03.07h0m-1.57.09h0m.03.08h0m.33-.34h0m4.77.13h0m1.59.18h0M-2.57.37h0M.27.3h0M-2.07.13h0m.8.09h0m-1.78.06h0M2.02.16h0m-3.09.01h0M.47.48h0M-3.56.37h0m.77.1h0m-.99-.3h0M.93.44h0M3.74.39h0m-4.79 0h0m1.59.1h0M-3.07.48h0m1.35-.17h0M3.5.36h0M1.03.48h0m.96-.14h0M-3.25.05h0m7.1 0h0M-2.78.1h0m-.23-.06h0m1.94.35h0M3.87.05h0M.93.5h0M.78.4h0M-3.53.33h0M-1.3.05h0M.74.12h0M-.34.19h0m.4.15h0M-1.82.12h0m3.35.24h0M3.78.27h0M2.22.44h0M3.1.43h0M-1.28.41h0M3.55.27h0M1.03.24h0m-4.31.03h0m1.5-.02h0m3.53.13h0M1.63.12h0M-.2.2h0m1.99.28h0M-.18.01h0m-3.3.25h0m7.3-.02h0M-3.59.02h0m1.12.38h0M3.4.02h0M.1.03h0m2.67.28h0m-.2-.04h0m-4.82.21h0m1.5-.46h0m.79.02h0m-2.35.05h0m1.02.36h0m-1.16-.2h0M3.66.2h0M2.5.07h0M-3.83.06h0m3.78.22h0M.26.14h0M3.65.13h0M2.56.3h0m-5.58.13h0m1.49-.19h0m-.18.21h0M3.02.31h0M-.06.06h0m-2.51.1h0m1.04-.07h0M.49.22h0m1.37.23h0M2.58.4h0M1.81.05h0m-3.35.13h0M2.23.05h0M3.77.4h0m-6.6-.06h0m5.11.07h0M-.77.23h0M-2.51.5h0m.16-.07h0m.74-.2h0m-2.17-.1h0m.82.26h0m5.53-.1h0m-.3.13h0M-2.06.33h0m5.13 0h0M-.77.38h0m.07-.3h0m-.82.08h0m-2 .05h0m2.48.1h0M-2.25.23h0m5.61.11h0M-1.1.13h0m-1.94.21h0M1.8.43h0M1.23.22h0m-4.8.22h0m.76-.05h0m0-.12h0m4.6-.2h0M3.35 0h0m-5.69.35h0M2.31.02h0m1.2.45h0M-2.84.03h0m3.6.04h0M-3.38.06h0m5.72.32h0M-.69 0h0m2.12.3h0M-.02.22h0m.29.12h0M-.02.15h0m2.6.1h0M-1.76.1h0m4.05.24h0m.01.04h0m.51-.2h0m-.47.06h0M-3.55.06h0M1.74.05h0M-.2.02h0m-2.88.23h0m-.25.25h0M3.31.11h0m-7.05.37h0m.15-.01h0M-.96.41h0M-3.08.32h0M0 .03h0m-2.31.18h0m4.65.01h0M.98.06h0m-2.57.41h0M-3.49 0h0m4.75.08h0m-4.09.38h0M1.02.08h0M2.26.3h0M-2.51.08h0m1.5.41h0m-.5-.05h0m5.02-.4h0m-4.79.41h0M-3.71.41h0m6.23-.4h0M1.3.5h0M-1.76.18h0m.53-.17h0m-2.13.16h0m.78.3h0m4.14.01h0m2.3-.07h0M3.08.08h0m-5.93.31h0m1.89.08h0m.04-.01h0m3.7-.12h0M-.52.22h0M-3.05.18h0m5.08.13h0M-2.29.12h0m-.72.02h0M2.53 0h0m-5.56.47h0m2.32-.1h0M-3.79.01h0m5.86.28h0M2.05.11h0m1.26.25h0M-.74.25h0M.68.06h0m2.86.12h0m-.72.05h0m0 .03h0m.73-.05h0m-7.4.11h0M.8.07h0M-.97.05h0m3.52.33h0M1.67.23h0M1.46.06h0m-3.99.26h0m.46.01h0m1.32.1h0M2.03.15h0M3.8.06h0m-7.67.36h0m3.81.02h0M-1.83.06h0m2.86.17h0M-.53.48h0M-3.8.31h0m1.59.19h0M2.05.13h0m-4.39.04h0m4.9.28h0m-3.91-.2h0m1.06.17h0M2.56.09h0M.27.37h0M-.54.15h0m1.77.06h0m-4.85.06h0m5.89.05h0M-1.49.1h0m-2.04.1h0M1.8.33h0m1.36-.2h0m-3.7.36h0M.54.25h0m3.01.07h0m-5.8.08h0M-2.8.22h0m5.87.2h0M1.8.04h0m-4.63.18h0M.25.17h0m-3.3-.13h0M.19.18h0M-1.23.11h0m-1.33.06h0m-.51.33h0M-.54.12h0m-.29.12h0m2.27.02h0m-4.01 0h0M3.78.12h0M1.25.18h0M-.32 0h0m2.84.35h0M-2.53.29h0m-.34-.22h0m1.67.14h0m-.09.27h0m.82-.15h0m2.43.05h0m1.8-.27h0m-.47.07h0M-3.89.06h0m1.06.26h0M2.05.13h0m-4.3.09h0M1.53.01h0m-4.39.07h0m5.73.4h0M2.23.31h0M-1.51.16h0m2.79 0h0m.15.25h0m1.56.05h0M-.51.42h0m-2.06.07h0M3.56.07h0m-6.95.1h0m-.21.06h0m2.54.07h0M.2.24h0m-3.29.2h0M.22.24h0M-3.53.07h0m2.55.25h0m.74-.14h0m-2.04.08h0m2.22-.1h0M-.24.01h0M-1.8.37h0M3.34.1h0M1.8.32h0m.22.1h0m-3.04.05h0M.24.45h0M.99.29h0M3.81.01h0M-.3.18h0M.18.09h0M2.5.01h0M.77.02h0m.24.2h0m2.77.23h0m-6.3-.38h0m3.84.38h0m.15-.08h0M-1.79.09h0m.23.03h0M3.83.01h0m-5.8.3h0M-.52.1h0m3.83.33h0M-.54.1h0M3.5.26h0M-1.06.2h0m-2.79 0h0M1.53.12h0M2.8.4h0M.08.3h0M-.26.22h0m-1.69.24h0M.49.15h0M-1.34.14h0M1.11.1h0M-.97.48h0M.77 0h0m1.01.39h0m-.76.1h0m1.8-.17h0M-1.5.2h0m1.25.15h0m-3.11 0h0M2.53.33h0M0 .18h0m2.63.09h0m-4.97-.1h0m-.65-.15h0M.46.2h0m1.32.07h0m.77.18h0m-.54-.1h0m.01.04h0m-4.36.04h0M-3.39.21h0M3.36.1h0M2.91 0h0m-4.44.39h0m1.06.04h0m3.6-.35h0m-.35.09h0m-2 .11h0m-2.51.09h0M1.54.22h0m.77.01h0M.49.49h0M.43.13h0m3.34.33h0M2.07.04h0M.46.29h0M-1.08.02h0m4.95.1h0m-6.2.06h0m5.69.09h0M-.47.18h0M.72.45h0M-2.23.34h0m5.96.12h0M2.09.26h0m-3.1 0h0m-1.9-.23h0m2.45.08h0M-2.53.07h0M2.78.06h0M-.84.04h0m-2.17.4h0M1.54.19h0M-3.78.07h0m1.96.41h0M-3.31.31h0M2.6.13h0M1.48.12h0m-3.24.06h0M.81.23h0M2.5.47h0M1.49.11h0m-3.08.27h0m.32-.31h0m4.43.31h0M1.6.3h0M3.13.02h0M.97.5h0M3.89.41h0m-6.47-.2h0M1.2.19h0m-.39 0h0m-3.38.1h0M-1 .13h0M.43.28h0M-1.81.04h0m1.56.4h0M-3.06.23h0m-.23.06h0m6.37.02h0M.04.17h0M-1.51.03h0m.19.36h0m-.64-.25h0m5.19.24h0M3.07.32h0m-6.11.11h0M.45.37h0m-4.3-.23h0M.23.2h0m-4.11.11h0m6.43 0h0M1.06.4h0M-1.03.18h0m-1 .2h0m-1.74 0h0m1.92.06h0M1.56.27h0m-.88.1h0M-3.84.26h0M-3.9.02h0m7.23.01h0m-.07.2h0M.51.27h0M3.05.06h0m.02.31h0M-3.9.1h0M.56.13h0M.31.46h0M.8.02h0M.7.01h0m1.81.43h0m-5.3-.06h0M1 .28h0M-.74.42h0M-3.93.41h0m1.13.05h0M3.06.39h0M-.61.03h0m2.96.3h0M2.28.26h0M.98.07h0m-2.8.33h0M0 .39h0m-2 .09h0M3.46.44h0M-.71.35h0m-1.37.08h0m-.71-.16h0M3.62.23h0m-.23-.2h0m-.58.11h0M.49.01h0m.24.42h0m.84-.18h0m1.75.13h0M-.2.19h0"/></svg>