<svg width="3080" height="2018" xmlns="http://www.w3.org/2000/svg" xmlns:xlink="http://www.w3.org/1999/xlink" xml:space="preserve" overflow="hidden"><defs><filter id="fx0" x="-10%" y="-10%" width="120%" height="120%" filterUnits="userSpaceOnUse" primitiveUnits="userSpaceOnUse"><feComponentTransfer color-interpolation-filters="sRGB"><feFuncR type="discrete" tableValues="0 0"/><feFuncG type="discrete" tableValues="0 0"/><feFuncB type="discrete" tableValues="0 0"/><feFuncA type="linear" slope="0.690196" intercept="0"/></feComponentTransfer><feGaussianBlur stdDeviation="5.34722 5.37522"/></filter><filter id="fx1" x="-10%" y="-10%" width="120%" height="120%" filterUnits="userSpaceOnUse" primitiveUnits="userSpaceOnUse"><feComponentTransfer color-interpolation-filters="sRGB"><feFuncR type="discrete" tableValues="0 0"/><feFuncG type="discrete" tableValues="0 0"/><feFuncB type="discrete" tableValues="0 0"/><feFuncA type="linear" slope="0.439216" intercept="0"/></feComponentTransfer><feGaussianBlur stdDeviation="7.63889 7.63889"/></filter><clipPath id="clip2"><rect x="0" y="0" width="1202" height="96"/></clipPath></defs><g transform="translate(-660 -277)"><text font-family="Amasis MT Pro Medium,Amasis MT Pro Medium_MSFontService,sans-serif" font-weight="700" font-size="527" transform="matrix(1 0 0 1 1149.27 1619)">Phy</text><text font-family="Amasis MT Pro Medium,Amasis MT Pro Medium_MSFontService,sans-serif" font-weight="700" font-size="527" transform="matrix(1 0 0 1 2068.23 1619)">-</text><text font-family="Amasis MT Pro Medium,Amasis MT Pro Medium_MSFontService,sans-serif" font-weight="700" font-size="527" transform="matrix(1 0 0 1 2249.84 1619)">Hub</text><path d="M1116.21 953 3267.79 953 3267.79 830.091 3334 830.091 3334 748.541 2192 277 1050 748.541 1050 830.091 1116.21 830.091 1116.21 953Z" fill-rule="evenodd"/><g filter="url(#fx0)" transform="matrix(2 0 0 1.98958 990 1894)"><g clip-path="url(#clip2)" transform="matrix(1 0 0 1 0 -1.13687e-13)"><path d="M17 17.2565 1185 17.2565 1185 79.0785 17 79.0785Z" fill-rule="evenodd"/></g></g><path d="M1024 1910 3360 1910 3360 2033 1024 2033Z" fill-rule="evenodd"/><g filter="url(#fx1)" transform="matrix(2 0 0 2 815 2075)"><g><path d="M23.635 23.3633 1353.37 23.3633 1353.37 86.7083 23.635 86.7083Z" fill-rule="evenodd"/></g></g><path d="M901 2075 3483 2075 3483 2198 901 2198Z" fill-rule="evenodd"/></g></svg>