<svg xmlns="http://www.w3.org/2000/svg" xmlns:xlink="http://www.w3.org/1999/xlink" width="519.243" height="374.016" viewBox="0 0 389.432 280.512"><defs><style>*{stroke-linejoin:round;stroke-linecap:butt}</style></defs><g id="figure_1"><g id="axes_1"><path id="patch_1" d="m185.76 18.691 4.234 12.701h-4.228v108.864h-.012V31.392h-4.228z" clip-path="url(#p9f95d43de5)" style="fill:#3079f7;stroke:#3079f7;stroke-width:1.5;stroke-linejoin:miter"/><path id="patch_2" d="m187.484 18.703 4.053 12.76-4.227-.06-1.544 108.853h-.012l1.544-108.853-4.228-.06z" clip-path="url(#p9f95d43de5)" style="fill:#3079f7;stroke:#3079f7;stroke-width:1.5;stroke-linejoin:miter"/><path id="patch_3" d="m189.214 18.74 3.87 12.816-4.225-.12-3.093 108.82h-.012l3.093-108.82-4.226-.12z" clip-path="url(#p9f95d43de5)" style="fill:#2e7bf7;stroke:#2e7bf7;stroke-width:1.5;stroke-linejoin:miter"/><path id="patch_4" d="m190.956 18.802 3.687 12.87-4.224-.18-4.653 108.764h-.012l4.653-108.765-4.223-.18z" clip-path="url(#p9f95d43de5)" style="fill:#2e7bf7;stroke:#2e7bf7;stroke-width:1.5;stroke-linejoin:miter"/><path id="patch_5" d="m192.718 18.89 3.5 12.923-4.221-.242-6.231 108.685h-.012l6.23-108.686-4.22-.242z" clip-path="url(#p9f95d43de5)" style="fill:#2e7bf7;stroke:#2e7bf7;stroke-width:1.5;stroke-linejoin:miter"/><path id="patch_6" d="m194.505 19.006 3.31 12.973-4.217-.305-7.832 108.582h-.012l7.832-108.582-4.217-.304z" clip-path="url(#p9f95d43de5)" style="fill:#2e7bf7;stroke:#2e7bf7;stroke-width:1.5;stroke-linejoin:miter"/><path id="patch_7" d="m196.326 19.151 3.113 13.02-4.211-.367-9.462 108.453-.012-.002 9.462-108.452-4.212-.367z" clip-path="url(#p9f95d43de5)" style="fill:#2e7bf7;stroke:#2e7bf7;stroke-width:1.5;stroke-linejoin:miter"/><path id="patch_8" d="m198.187 19.328 2.913 13.067-4.205-.432-11.129 108.294-.012-.002 11.129-108.293-4.206-.432z" clip-path="url(#p9f95d43de5)" style="fill:#2e7bf7;stroke:#2e7bf7;stroke-width:1.5;stroke-linejoin:miter"/><path id="patch_9" d="m200.097 19.54 2.706 13.111-4.198-.499-12.839 108.105-.012-.002 12.84-108.104-4.199-.499z" clip-path="url(#p9f95d43de5)" style="fill:#2e7bf7;stroke:#2e7bf7;stroke-width:1.5;stroke-linejoin:miter"/><path id="patch_10" d="m202.065 19.79 2.492 13.153-4.19-.567-14.601 107.88h-.012l14.601-107.881-4.189-.567z" clip-path="url(#p9f95d43de5)" style="fill:#2e7bf7;stroke:#2e7bf7;stroke-width:1.5;stroke-linejoin:miter"/><path id="patch_11" d="m204.1 20.083 2.27 13.194-4.18-.638-16.424 107.618-.012-.002 16.425-107.618-4.18-.638z" clip-path="url(#p9f95d43de5)" style="fill:#2e7bf7;stroke:#2e7bf7;stroke-width:1.5;stroke-linejoin:miter"/><path id="patch_12" d="m206.215 20.425 2.037 13.232-4.168-.712-18.318 107.312-.012-.002 18.318-107.312-4.167-.711z" clip-path="url(#p9f95d43de5)" style="fill:#2e7bf7;stroke:#2e7bf7;stroke-width:1.5;stroke-linejoin:miter"/><path id="patch_13" d="m208.421 20.822 1.792 13.267-4.153-.788-20.294 106.956-.012-.002 20.294-106.956-4.154-.788z" clip-path="url(#p9f95d43de5)" style="fill:#2e7bf7;stroke:#2e7bf7;stroke-width:1.5;stroke-linejoin:miter"/><path id="patch_14" d="m210.733 21.284 1.534 13.3-4.137-.869-22.364 106.542-.012-.002 22.364-106.542-4.138-.869z" clip-path="url(#p9f95d43de5)" style="fill:#2e7bf7;stroke:#2e7bf7;stroke-width:1.5;stroke-linejoin:miter"/><path id="patch_15" d="m213.165 21.82 1.262 13.329-4.12-.953-24.541 106.061-.012-.002 24.542-106.062-4.119-.953z" clip-path="url(#p9f95d43de5)" style="fill:#2e7bf7;stroke:#2e7bf7;stroke-width:1.5;stroke-linejoin:miter"/><path id="patch_16" d="m215.738 22.445.97 13.353-4.097-1.043-26.845 105.502-.012-.002L212.6 34.752l-4.097-1.042z" clip-path="url(#p9f95d43de5)" style="fill:#2e7bf7;stroke:#2e7bf7;stroke-width:1.5;stroke-linejoin:miter"/><path id="patch_17" d="m218.471 23.175.66 13.371-4.072-1.137-29.293 104.849-.012-.004 29.294-104.848-4.072-1.138z" clip-path="url(#p9f95d43de5)" style="fill:#2e7bf7;stroke:#2e7bf7;stroke-width:1.5;stroke-linejoin:miter"/><path id="patch_18" d="m221.39 24.03.325 13.384-4.042-1.24-31.907 104.084-.012-.004 31.908-104.083-4.042-1.239z" clip-path="url(#p9f95d43de5)" style="fill:#2e7bf7;stroke:#2e7bf7;stroke-width:1.5;stroke-linejoin:miter"/><path id="patch_19" d="m224.524 25.037-.037 13.388-4.007-1.348-34.714 103.18-.012-.003 34.714-103.18-4.007-1.349z" clip-path="url(#p9f95d43de5)" style="fill:#2c7ef7;stroke:#2c7ef7;stroke-width:1.5;stroke-linejoin:miter"/><path id="patch_20" d="m227.907 26.231-.433 13.381-3.965-1.466-37.743 102.112-.012-.004 37.744-102.112-3.966-1.466z" clip-path="url(#p9f95d43de5)" style="fill:#2c7ef7;stroke:#2c7ef7;stroke-width:1.5;stroke-linejoin:miter"/><path id="patch_21" d="m231.578 27.656-.865 13.36-3.916-1.593-41.031 100.835-.012-.004 41.032-100.836-3.916-1.593z" clip-path="url(#p9f95d43de5)" style="fill:#2c7ef7;stroke:#2c7ef7;stroke-width:1.5;stroke-linejoin:miter"/><path id="patch_22" d="m235.587 29.372-1.344 13.32-3.857-1.733-44.62 99.3-.012-.005 44.621-99.3-3.856-1.733z" clip-path="url(#p9f95d43de5)" style="fill:#2c7ef7;stroke:#2c7ef7;stroke-width:1.5;stroke-linejoin:miter"/><path id="patch_23" d="m239.987 31.456-1.876 13.256-3.784-1.886-48.562 97.433-.01-.006 48.561-97.432-3.783-1.886z" clip-path="url(#p9f95d43de5)" style="fill:#2981f6;stroke:#2981f6;stroke-width:1.5;stroke-linejoin:miter"/><path id="patch_24" d="m244.846 34.016-2.474 13.158-3.694-2.055-52.913 95.14-.01-.006 52.912-95.14-3.694-2.055z" clip-path="url(#p9f95d43de5)" style="fill:#2981f6;stroke:#2981f6;stroke-width:1.5;stroke-linejoin:miter"/><path id="patch_25" d="m250.237 37.199-3.148 13.013-3.584-2.243-57.74 92.29-.01-.006 57.74-92.29-3.584-2.242z" clip-path="url(#p9f95d43de5)" style="fill:#2884f6;stroke:#2884f6;stroke-width:1.5;stroke-linejoin:miter"/><path id="patch_26" d="m256.244 41.21-3.915 12.803-3.444-2.451-63.12 88.698-.01-.008 63.12-88.697-3.445-2.451z" clip-path="url(#p9f95d43de5)" style="fill:#2686f5;stroke:#2686f5;stroke-width:1.5;stroke-linejoin:miter"/><path id="patch_27" d="m262.95 46.343-4.793 12.5-3.266-2.684-69.126 84.1-.01-.007 69.126-84.1-3.266-2.685z" clip-path="url(#p9f95d43de5)" style="fill:#2489f5;stroke:#2489f5;stroke-width:1.5;stroke-linejoin:miter"/><path id="patch_28" d="m270.425 53.022-5.808 12.062-3.033-2.944-75.82 78.12-.008-.008 75.82-78.12-3.035-2.945z" clip-path="url(#p9f95d43de5)" style="fill:#218cf4;stroke:#218cf4;stroke-width:1.5;stroke-linejoin:miter"/><path id="patch_29" d="m278.674 61.866-6.977 11.426-2.727-3.231-83.206 70.2-.008-.01 83.207-70.2-2.726-3.23z" clip-path="url(#p9f95d43de5)" style="fill:#1e91f3;stroke:#1e91f3;stroke-width:1.5;stroke-linejoin:miter"/><path id="patch_30" d="m287.545 73.789-8.32 10.489-2.311-3.54-91.15 59.523-.007-.01 91.15-59.523-2.311-3.54z" clip-path="url(#p9f95d43de5)" style="fill:#1898f2;stroke:#1898f2;stroke-width:1.5;stroke-linejoin:miter"/><path id="patch_31" d="m296.501 90.113-9.823 9.095-1.744-3.85-99.172 44.904-.004-.012 99.17-44.904-1.743-3.851z" clip-path="url(#p9f95d43de5)" style="fill:#0ea5ef;stroke:#0ea5ef;stroke-width:1.5;stroke-linejoin:miter"/><path id="patch_32" d="m304.145 112.635-11.406 7.009-.96-4.117-106.018 24.735-.002-.012 106.016-24.735-.96-4.117z" clip-path="url(#p9f95d43de5)" style="fill:#02b7eb;stroke:#02b7eb;stroke-width:1.5;stroke-linejoin:miter"/><path id="patch_33" d="m307.286 143.339-12.804 3.91.107-4.226-108.83-2.761.001-.012 108.83 2.76.106-4.225z" clip-path="url(#p9f95d43de5)" style="fill:#22d6e0;stroke:#22d6e0;stroke-width:1.5;stroke-linejoin:miter"/><path id="patch_34" d="m299.622 182.84-13.379-.483 1.48-3.96-101.965-38.135.004-.012 101.966 38.136 1.481-3.96z" clip-path="url(#p9f95d43de5)" style="fill:#6efebe;stroke:#6efebe;stroke-width:1.5;stroke-linejoin:miter"/><path id="patch_35" d="m271.85 226.085-11.984-5.969 2.985-2.994-77.095-76.862.008-.008 77.095 76.862 2.985-2.994z" clip-path="url(#p9f95d43de5)" style="fill:#ff2914;stroke:#ff2914;stroke-width:1.5;stroke-linejoin:miter"/><path id="patch_36" d="m218.728 257.265-7.52-11.077 4.07-1.146-29.524-104.784.012-.004 29.523 104.785 4.07-1.147z" clip-path="url(#p9f95d43de5)" style="fill:red;stroke:red;stroke-width:1.5;stroke-linejoin:miter"/><path id="patch_37" d="m152.792 257.265-.63-13.373 4.069 1.147 29.523-104.785.012.004-29.523 104.784 4.069 1.146z" clip-path="url(#p9f95d43de5)" style="fill:red;stroke:red;stroke-width:1.5;stroke-linejoin:miter"/><path id="patch_38" d="m99.67 226.085 6.006-11.965 2.985 2.994 77.095-76.862.008.008-77.095 76.862 2.985 2.994z" clip-path="url(#p9f95d43de5)" style="fill:#ff2914;stroke:#ff2914;stroke-width:1.5;stroke-linejoin:miter"/><path id="patch_39" d="m71.898 182.84 10.413-8.414 1.48 3.96 101.967-38.136.004.012-101.966 38.135 1.481 3.96z" clip-path="url(#p9f95d43de5)" style="fill:#6efebe;stroke:#6efebe;stroke-width:1.5;stroke-linejoin:miter"/><path id="patch_40" d="m64.234 143.339 12.59-4.554.107 4.226 108.829-2.761v.012l-108.829 2.761.107 4.226z" clip-path="url(#p9f95d43de5)" style="fill:#22d6e0;stroke:#22d6e0;stroke-width:1.5;stroke-linejoin:miter"/><path id="patch_41" d="m67.375 112.635 13.33-1.237-.96 4.117L185.76 140.25l-.002.012-106.017-24.735-.96 4.117z" clip-path="url(#p9f95d43de5)" style="fill:#02b7eb;stroke:#02b7eb;stroke-width:1.5;stroke-linejoin:miter"/><path id="patch_42" d="m75.019 90.113 13.316 1.382-1.744 3.851 99.171 44.904-.004.012-99.172-44.905-1.744 3.851z" clip-path="url(#p9f95d43de5)" style="fill:#0ea5ef;stroke:#0ea5ef;stroke-width:1.5;stroke-linejoin:miter"/><path id="patch_43" d="m83.975 73.789 12.95 3.4-2.312 3.54 91.15 59.522-.006.01-91.15-59.523-2.312 3.54z" clip-path="url(#p9f95d43de5)" style="fill:#1898f2;stroke:#1898f2;stroke-width:1.5;stroke-linejoin:miter"/><path id="patch_44" d="m92.846 61.866 12.437 4.954-2.726 3.231 83.207 70.2-.008.01-83.206-70.2-2.727 3.23z" clip-path="url(#p9f95d43de5)" style="fill:#1e91f3;stroke:#1e91f3;stroke-width:1.5;stroke-linejoin:miter"/><path id="patch_45" d="m101.095 53.022 11.884 6.165-3.034 2.944 75.82 78.12-.01.01-75.819-78.121-3.033 2.944z" clip-path="url(#p9f95d43de5)" style="fill:#218cf4;stroke:#218cf4;stroke-width:1.5;stroke-linejoin:miter"/><path id="patch_46" d="m108.57 46.343 11.335 7.124-3.266 2.684 69.126 84.101-.01.008-69.126-84.101-3.266 2.684z" clip-path="url(#p9f95d43de5)" style="fill:#2489f5;stroke:#2489f5;stroke-width:1.5;stroke-linejoin:miter"/><path id="patch_47" d="m115.276 41.21 10.814 7.894-3.445 2.45 63.12 88.698-.01.008-63.12-88.698-3.444 2.451z" clip-path="url(#p9f95d43de5)" style="fill:#2686f5;stroke:#2686f5;stroke-width:1.5;stroke-linejoin:miter"/><path id="patch_48" d="m121.283 37.199 10.326 8.522-3.584 2.242 57.74 92.29-.01.006-57.74-92.29-3.584 2.243z" clip-path="url(#p9f95d43de5)" style="fill:#2884f6;stroke:#2884f6;stroke-width:1.5;stroke-linejoin:miter"/><path id="patch_49" d="m126.674 34.016 9.873 9.042-3.694 2.055 52.912 95.14-.01.006-52.913-95.14-3.694 2.055z" clip-path="url(#p9f95d43de5)" style="fill:#2981f6;stroke:#2981f6;stroke-width:1.5;stroke-linejoin:miter"/><path id="patch_50" d="m131.533 31.456 9.454 9.479-3.783 1.886 48.561 97.432-.01.006-48.562-97.433-3.784 1.886z" clip-path="url(#p9f95d43de5)" style="fill:#2981f6;stroke:#2981f6;stroke-width:1.5;stroke-linejoin:miter"/><path id="patch_51" d="m135.933 29.372 9.068 9.85-3.856 1.732 44.62 99.3-.01.004-44.621-99.299-3.857 1.733z" clip-path="url(#p9f95d43de5)" style="fill:#2c7ef7;stroke:#2c7ef7;stroke-width:1.5;stroke-linejoin:miter"/><path id="patch_52" d="m139.942 27.656 8.708 10.169-3.916 1.593 41.032 100.836-.012.004-41.031-100.835-3.916 1.593z" clip-path="url(#p9f95d43de5)" style="fill:#2c7ef7;stroke:#2c7ef7;stroke-width:1.5;stroke-linejoin:miter"/><path id="patch_53" d="m143.613 26.231 8.375 10.445-3.966 1.466 37.744 102.112-.012.004-37.743-102.112-3.965 1.466z" clip-path="url(#p9f95d43de5)" style="fill:#2c7ef7;stroke:#2c7ef7;stroke-width:1.5;stroke-linejoin:miter"/><path id="patch_54" d="m146.996 25.037 8.063 10.688-4.007 1.348 34.714 103.181-.012.004L151.04 37.077l-4.007 1.348z" clip-path="url(#p9f95d43de5)" style="fill:#2c7ef7;stroke:#2c7ef7;stroke-width:1.5;stroke-linejoin:miter"/><path id="patch_55" d="m150.13 24.03 7.77 10.902-4.042 1.24 31.908 104.082-.012.004-31.907-104.083-4.042 1.239z" clip-path="url(#p9f95d43de5)" style="fill:#2e7bf7;stroke:#2e7bf7;stroke-width:1.5;stroke-linejoin:miter"/><path id="patch_56" d="m153.049 23.175 7.495 11.093-4.072 1.138 29.294 104.848-.012.004-29.293-104.85-4.072 1.138z" clip-path="url(#p9f95d43de5)" style="fill:#2e7bf7;stroke:#2e7bf7;stroke-width:1.5;stroke-linejoin:miter"/><path id="patch_57" d="m155.782 22.445 7.235 11.265-4.097 1.042 26.846 105.503-.012.002L158.91 34.755l-4.097 1.043z" clip-path="url(#p9f95d43de5)" style="fill:#2e7bf7;stroke:#2e7bf7;stroke-width:1.5;stroke-linejoin:miter"/><path id="patch_58" d="m158.355 21.82 6.988 11.42-4.12.953 24.543 106.062-.012.002-24.542-106.061-4.119.953z" clip-path="url(#p9f95d43de5)" style="fill:#2e7bf7;stroke:#2e7bf7;stroke-width:1.5;stroke-linejoin:miter"/><path id="patch_59" d="m160.787 21.284 6.753 11.56-4.138.869 22.364 106.542-.012.002L163.39 33.715l-4.137.868z" clip-path="url(#p9f95d43de5)" style="fill:#2e7bf7;stroke:#2e7bf7;stroke-width:1.5;stroke-linejoin:miter"/><path id="patch_60" d="m163.099 20.822 6.527 11.689-4.154.788 20.294 106.956-.012.002L165.46 33.301l-4.153.788z" clip-path="url(#p9f95d43de5)" style="fill:#2e7bf7;stroke:#2e7bf7;stroke-width:1.5;stroke-linejoin:miter"/><path id="patch_61" d="m165.305 20.425 6.31 11.807-4.167.711 18.318 107.312-.012.002-18.318-107.312-4.168.712z" clip-path="url(#p9f95d43de5)" style="fill:#2e7bf7;stroke:#2e7bf7;stroke-width:1.5;stroke-linejoin:miter"/><path id="patch_62" d="m167.42 20.083 6.1 11.916-4.179.638 16.425 107.618-.012.002-16.425-107.618-4.179.638z" clip-path="url(#p9f95d43de5)" style="fill:#2e7bf7;stroke:#2e7bf7;stroke-width:1.5;stroke-linejoin:miter"/><path id="patch_63" d="m169.455 19.79 5.899 12.018-4.19.567 14.602 107.88-.012.002-14.601-107.88-4.19.566z" clip-path="url(#p9f95d43de5)" style="fill:#2e7bf7;stroke:#2e7bf7;stroke-width:1.5;stroke-linejoin:miter"/><path id="patch_64" d="m171.423 19.54 5.702 12.112-4.198.499 12.839 108.104-.012.002-12.84-108.105-4.197.5z" clip-path="url(#p9f95d43de5)" style="fill:#2e7bf7;stroke:#2e7bf7;stroke-width:1.5;stroke-linejoin:miter"/><path id="patch_65" d="m173.333 19.328 5.51 12.202-4.206.432 11.129 108.293-.012.002-11.129-108.294-4.205.432z" clip-path="url(#p9f95d43de5)" style="fill:#2e7bf7;stroke:#2e7bf7;stroke-width:1.5;stroke-linejoin:miter"/><path id="patch_66" d="m175.194 19.151 5.322 12.285-4.212.367 9.462 108.452-.012.002-9.462-108.453-4.211.368z" clip-path="url(#p9f95d43de5)" style="fill:#2e7bf7;stroke:#2e7bf7;stroke-width:1.5;stroke-linejoin:miter"/><path id="patch_67" d="m177.015 19.006 5.136 12.364-4.217.304 7.832 108.582h-.012l-7.832-108.582-4.216.305z" clip-path="url(#p9f95d43de5)" style="fill:#2e7bf7;stroke:#2e7bf7;stroke-width:1.5;stroke-linejoin:miter"/><path id="patch_68" d="m178.802 18.89 4.954 12.438-4.22.242 6.23 108.686h-.012l-6.23-108.685-4.221.242z" clip-path="url(#p9f95d43de5)" style="fill:#2e7bf7;stroke:#2e7bf7;stroke-width:1.5;stroke-linejoin:miter"/><path id="patch_69" d="m180.564 18.802 4.772 12.509-4.223.18 4.653 108.765h-.012l-4.653-108.764-4.224.18z" clip-path="url(#p9f95d43de5)" style="fill:#2e7bf7;stroke:#2e7bf7;stroke-width:1.5;stroke-linejoin:miter"/><path id="patch_70" d="m182.306 18.74 4.593 12.576-4.226.12 3.093 108.82h-.012l-3.093-108.82-4.226.12z" clip-path="url(#p9f95d43de5)" style="fill:#2e7bf7;stroke:#2e7bf7;stroke-width:1.5;stroke-linejoin:miter"/><path id="patch_71" d="m184.036 18.703 4.414 12.64-4.228.06 1.544 108.853h-.012L184.21 31.403l-4.227.06z" clip-path="url(#p9f95d43de5)" style="fill:#3079f7;stroke:#3079f7;stroke-width:1.5;stroke-linejoin:miter"/><g id="PathCollection_1"><defs><path id="m27041740a8" d="M0 4.183a4.183 4.183 0 1 0 0-8.367 4.183 4.183 0 0 0 0 8.367z" style="stroke:#000"/></defs><g clip-path="url(#p9f95d43de5)"><use xlink:href="#m27041740a8" x="185.76" y="140.256" style="stroke:#000"/></g></g><path id="Quiver_1" d="M183.974 140.256v-87.35l-7.142-1.786 8.928-14.285 8.928 14.285-7.142 1.786v87.35z" clip-path="url(#p9f95d43de5)"/><g id="text_1" transform="matrix(.1 0 0 -.1 246.24 261.216)"><defs><path id="DejaVuSans-Bold-53" d="M3834 4519v-988q-384 172-750 259-365 88-690 88-431 0-638-119-206-118-206-368 0-188 139-293 139-104 505-179l512-103q778-157 1106-476 329-318 329-906 0-771-458-1148T2284-91q-443 0-890 85-447 84-894 250v1015q447-237 864-358 417-120 805-120 394 0 603 131 209 132 209 376 0 218-142 337t-567 213l-466 103q-700 150-1024 478-323 328-323 884 0 697 450 1072t1294 375q385 0 791-58t840-173" transform="scale(.01563)"/><path id="DejaVuSans-Bold-6f" d="M2203 2784q-372 0-567-267t-195-770 195-771q195-267 567-267 366 0 559 267 194 268 194 771t-194 770q-193 267-559 267m0 800q903 0 1411-488 508-487 508-1349 0-863-508-1351Q3106-91 2203-91q-906 0-1417 487-511 488-511 1351 0 862 511 1349 511 488 1417 488" transform="scale(.01563)"/><path id="DejaVuSans-Bold-75" d="M500 1363v2137h1125v-350q0-284-3-714t-3-573q0-422 22-608t75-271q68-109 179-169 111-59 255-59 350 0 550 269t200 747v1728h1119V0H2900v506q-253-306-536-452-283-145-623-145-607 0-924 372T500 1363" transform="scale(.01563)"/><path id="DejaVuSans-Bold-72" d="M3138 2547q-147 69-293 101-145 33-292 33-431 0-664-277-233-276-233-791V0H538v3500h1118v-575q216 344 495 501 280 158 671 158 56 0 121-5 66-4 191-20z" transform="scale(.01563)"/><path id="DejaVuSans-Bold-63" d="M3366 3391v-913q-228 156-458 231t-477 75q-468 0-729-273t-261-764 261-765q261-273 729-273 263 0 499 78 236 79 436 232V103Q3103 6 2833-42q-270-49-542-49-947 0-1482 486-534 486-534 1352t534 1351q535 486 1482 486 275 0 542-48t533-145" transform="scale(.01563)"/><path id="DejaVuSans-Bold-65" d="M4031 1759v-318H1416q40-394 284-591t681-197q353 0 723 105 371 105 762 317V213Q3469 63 3072-14t-794-77q-950 0-1477 483-526 483-526 1355 0 856 517 1346 517 491 1424 491 825 0 1320-497 495-496 495-1328m-1150 372q0 319-186 514-186 196-486 196-325 0-528-183t-253-527z" transform="scale(.01563)"/><path id="DejaVuSans-Bold-76" d="M97 3500h1119l872-2419 868 2419h1122L2700 0H1472z" transform="scale(.01563)"/><path id="DejaVuSans-Bold-6c" d="M538 4863h1118V0H538z" transform="scale(.01563)"/><path id="DejaVuSans-Bold-69" d="M538 3500h1118V0H538zm0 1363h1118v-913H538z" transform="scale(.01563)"/><path id="DejaVuSans-Bold-74" d="M1759 4494v-994h1154v-800H1759V1216q0-244 97-330t385-86h575V0h-960q-662 0-939 276-276 277-276 940v1484H84v800h557v994z" transform="scale(.01563)"/><path id="DejaVuSans-Bold-79" d="M78 3500h1119l941-2375 800 2375h1118L2584-331q-221-585-517-817-295-233-779-233H641v734h350q284 0 413 91 130 90 202 325l32 97z" transform="scale(.01563)"/><path id="DejaVuSans-Bold-3d" d="M678 3084h4006v-734H678zm0-1421h4006V922H678z" transform="scale(.01563)"/><path id="DejaVuSans-Bold-30" d="M2944 2338q0 875-164 1232-164 358-552 358-387 0-553-358-166-357-166-1232 0-885 166-1248 166-362 553-362 385 0 550 362 166 363 166 1248m1203-10q0-1159-500-1789T2228-91q-922 0-1422 630T306 2328q0 1163 500 1792 500 630 1422 630 919 0 1419-630 500-629 500-1792" transform="scale(.01563)"/><path id="DejaVuSans-Bold-2e" d="M653 1209h1125V0H653z" transform="scale(.01563)"/><path id="DejaVuSans-Bold-39" d="M641 103v863q287-135 549-202 263-67 519-67 538 0 838 298 300 299 353 886-212-156-453-234t-522-78q-716 0-1155 417T331 3084q0 754 489 1207t1311 453q913 0 1413-616 500-615 500-1740 0-1157-585-1818Q2875-91 1856-91q-328 0-628 49Q928 6 641 103m1484 2247q316 0 475 204 159 205 159 615 0 406-159 612-159 207-475 207t-475-207q-159-206-159-612 0-410 159-615 159-204 475-204" transform="scale(.01563)"/><path id="DejaVuSans-Bold-35" d="M678 4666h2991v-885H1638v-722q137 38 276 58 139 21 289 21 853 0 1328-427t475-1189q0-756-517-1185Q2972-91 2053-91q-397 0-786 77T494 219v947q381-219 723-329 342-109 646-109 437 0 688 214 252 214 252 580 0 369-252 581-251 213-688 213-260 0-554-68-293-67-631-207z" transform="scale(.01563)"/></defs><use xlink:href="#DejaVuSans-Bold-53"/><use xlink:href="#DejaVuSans-Bold-6f" x="72.021"/><use xlink:href="#DejaVuSans-Bold-75" x="140.723"/><use xlink:href="#DejaVuSans-Bold-72" x="211.914"/><use xlink:href="#DejaVuSans-Bold-63" x="261.23"/><use xlink:href="#DejaVuSans-Bold-65" x="320.508"/><use xlink:href="#DejaVuSans-Bold-76" x="423.145"/><use xlink:href="#DejaVuSans-Bold-65" x="488.33"/><use xlink:href="#DejaVuSans-Bold-6c" x="556.152"/><use xlink:href="#DejaVuSans-Bold-6f" x="590.43"/><use xlink:href="#DejaVuSans-Bold-63" x="659.131"/><use xlink:href="#DejaVuSans-Bold-69" x="718.408"/><use xlink:href="#DejaVuSans-Bold-74" x="752.686"/><use xlink:href="#DejaVuSans-Bold-79" x="800.488"/><use xlink:href="#DejaVuSans-Bold-3d" x="900.488"/><use xlink:href="#DejaVuSans-Bold-30" x="1019.092"/><use xlink:href="#DejaVuSans-Bold-2e" x="1088.672"/><use xlink:href="#DejaVuSans-Bold-39" x="1126.66"/><use xlink:href="#DejaVuSans-Bold-35" x="1196.24"/><use xlink:href="#DejaVuSans-Bold-63" x="1300.635"/></g></g></g><defs><clipPath id="p9f95d43de5"><path d="M7.2 7.2h357.12v266.112H7.2z"/></clipPath></defs></svg>