<svg xmlns="http://www.w3.org/2000/svg" xmlns:xlink="http://www.w3.org/1999/xlink" width="260.176" height="374.016" viewBox="0 0 195.132 280.512"><defs><style>*{stroke-linejoin:round;stroke-linecap:butt}</style></defs><g id="figure_1"><path id="patch_1" d="M0 280.512h195.132V0H0z" style="fill:none"/><g id="axes_1"><path id="patch_2" d="m151.344 140.256-5.544 3.604 1.294-3.601H7.2v-.006h139.894l-1.294-3.6z" clip-path="url(#p09fbbd21dc)" style="fill:gray;stroke:gray;stroke-linejoin:miter"/><path id="patch_3" d="m79.272 7.2 3.604 5.544-3.601-1.294v261.862h-.006V11.45l-3.6 1.294z" clip-path="url(#p09fbbd21dc)" style="fill:gray;stroke:gray;stroke-linejoin:miter"/><g id="Quiver_1"><path d="M24.192 159.382v6.836l1.442-.36-1.802 3.604-1.802-3.604 1.442.36v-6.836zm11.088 0v6.836l1.442-.36-1.802 3.604-1.802-3.604 1.442.36v-6.836zm11.088 0v6.836l1.442-.36-1.802 3.604-1.802-3.604 1.442.36v-6.836zm11.088 0v6.836l1.442-.36-1.802 3.604-1.802-3.604 1.442.36v-6.836zm11.088 0v6.836l1.442-.36-1.802 3.604-1.802-3.604 1.442.36v-6.836zm11.088 0v6.836l1.442-.36-1.802 3.604-1.802-3.604 1.442.36v-6.836zm11.088 0v6.836l1.442-.36-1.802 3.604-1.802-3.604 1.442.36v-6.836zm11.088 0v6.836l1.442-.36-1.802 3.604-1.802-3.604 1.442.36v-6.836zm11.088 0v6.836l1.442-.36-1.802 3.604-1.802-3.604 1.442.36v-6.836zm11.088 0v6.836l1.442-.36-1.802 3.604-1.802-3.604 1.442.36v-6.836zm11.088 0v6.836l1.442-.36-1.802 3.604-1.802-3.604 1.442.36v-6.836z" clip-path="url(#p09fbbd21dc)"/><path d="M24.192 154.549v6.836l1.442-.36-1.802 3.604-1.802-3.604 1.442.36v-6.836zm11.088 0v6.836l1.442-.36-1.802 3.604-1.802-3.604 1.442.36v-6.836zm11.088 0v6.836l1.442-.36-1.802 3.604-1.802-3.604 1.442.36v-6.836zm11.088 0v6.836l1.442-.36-1.802 3.604-1.802-3.604 1.442.36v-6.836zm11.088 0v6.836l1.442-.36-1.802 3.604-1.802-3.604 1.442.36v-6.836zm11.088 0v6.836l1.442-.36-1.802 3.604-1.802-3.604 1.442.36v-6.836zm11.088 0v6.836l1.442-.36-1.802 3.604-1.802-3.604 1.442.36v-6.836zm11.088 0v6.836l1.442-.36-1.802 3.604-1.802-3.604 1.442.36v-6.836zm11.088 0v6.836l1.442-.36-1.802 3.604-1.802-3.604 1.442.36v-6.836zm11.088 0v6.836l1.442-.36-1.802 3.604-1.802-3.604 1.442.36v-6.836zm11.088 0v6.836l1.442-.36-1.802 3.604-1.802-3.604 1.442.36v-6.836z" clip-path="url(#p09fbbd21dc)"/><path d="M24.192 149.715v6.837l1.442-.36-1.802 3.603-1.802-3.603 1.442.36v-6.837zm11.088 0v6.837l1.442-.36-1.802 3.603-1.802-3.603 1.442.36v-6.837zm11.088 0v6.837l1.442-.36-1.802 3.603-1.802-3.603 1.442.36v-6.837zm11.088 0v6.837l1.442-.36-1.802 3.603-1.802-3.603 1.442.36v-6.837zm11.088 0v6.837l1.442-.36-1.802 3.603-1.802-3.603 1.442.36v-6.837zm11.088 0v6.837l1.442-.36-1.802 3.603-1.802-3.603 1.442.36v-6.837zm11.088 0v6.837l1.442-.36-1.802 3.603-1.802-3.603 1.442.36v-6.837zm11.088 0v6.837l1.442-.36-1.802 3.603-1.802-3.603 1.442.36v-6.837zm11.088 0v6.837l1.442-.36-1.802 3.603-1.802-3.603 1.442.36v-6.837zm11.088 0v6.837l1.442-.36-1.802 3.603-1.802-3.603 1.442.36v-6.837zm11.088 0v6.837l1.442-.36-1.802 3.603-1.802-3.603 1.442.36v-6.837z" clip-path="url(#p09fbbd21dc)"/><path d="M24.192 144.882v6.837l1.442-.36-1.802 3.603-1.802-3.603 1.442.36v-6.837zm11.088 0v6.837l1.442-.36-1.802 3.603-1.802-3.603 1.442.36v-6.837zm11.088 0v6.837l1.442-.36-1.802 3.603-1.802-3.603 1.442.36v-6.837zm11.088 0v6.837l1.442-.36-1.802 3.603-1.802-3.603 1.442.36v-6.837zm11.088 0v6.837l1.442-.36-1.802 3.603-1.802-3.603 1.442.36v-6.837zm11.088 0v6.837l1.442-.36-1.802 3.603-1.802-3.603 1.442.36v-6.837zm11.088 0v6.837l1.442-.36-1.802 3.603-1.802-3.603 1.442.36v-6.837zm11.088 0v6.837l1.442-.36-1.802 3.603-1.802-3.603 1.442.36v-6.837zm11.088 0v6.837l1.442-.36-1.802 3.603-1.802-3.603 1.442.36v-6.837zm11.088 0v6.837l1.442-.36-1.802 3.603-1.802-3.603 1.442.36v-6.837zm11.088 0v6.837l1.442-.36-1.802 3.603-1.802-3.603 1.442.36v-6.837z" clip-path="url(#p09fbbd21dc)"/><path d="M24.192 140.05v6.836l1.442-.36-1.802 3.603-1.802-3.603 1.442.36v-6.837zm11.088 0v6.836l1.442-.36-1.802 3.603-1.802-3.603 1.442.36v-6.837zm11.088 0v6.836l1.442-.36-1.802 3.603-1.802-3.603 1.442.36v-6.837zm11.088 0v6.836l1.442-.36-1.802 3.603-1.802-3.603 1.442.36v-6.837zm11.088 0v6.836l1.442-.36-1.802 3.603-1.802-3.603 1.442.36v-6.837zm11.088 0v6.836l1.442-.36-1.802 3.603-1.802-3.603 1.442.36v-6.837zm11.088 0v6.836l1.442-.36-1.802 3.603-1.802-3.603 1.442.36v-6.837zm11.088 0v6.836l1.442-.36-1.802 3.603-1.802-3.603 1.442.36v-6.837zm11.088 0v6.836l1.442-.36-1.802 3.603-1.802-3.603 1.442.36v-6.837zm11.088 0v6.836l1.442-.36-1.802 3.603-1.802-3.603 1.442.36v-6.837zm11.088 0v6.836l1.442-.36-1.802 3.603-1.802-3.603 1.442.36v-6.837z" clip-path="url(#p09fbbd21dc)"/><path d="M24.192 135.216v6.837l1.442-.36-1.802 3.603-1.802-3.604 1.442.36v-6.836zm11.088 0v6.837l1.442-.36-1.802 3.603-1.802-3.604 1.442.36v-6.836zm11.088 0v6.837l1.442-.36-1.802 3.603-1.802-3.604 1.442.36v-6.836zm11.088 0v6.837l1.442-.36-1.802 3.603-1.802-3.604 1.442.36v-6.836zm11.088 0v6.837l1.442-.36-1.802 3.603-1.802-3.604 1.442.36v-6.836zm11.088 0v6.837l1.442-.36-1.802 3.603-1.802-3.604 1.442.36v-6.836zm11.088 0v6.837l1.442-.36-1.802 3.603-1.802-3.604 1.442.36v-6.836zm11.088 0v6.837l1.442-.36-1.802 3.603-1.802-3.604 1.442.36v-6.836zm11.088 0v6.837l1.442-.36-1.802 3.603-1.802-3.604 1.442.36v-6.836zm11.088 0v6.837l1.442-.36-1.802 3.603-1.802-3.604 1.442.36v-6.836zm11.088 0v6.837l1.442-.36-1.802 3.603-1.802-3.604 1.442.36v-6.836z" clip-path="url(#p09fbbd21dc)"/><path d="M24.192 130.383v6.837l1.442-.36-1.802 3.603-1.802-3.604 1.442.36v-6.836zm11.088 0v6.837l1.442-.36-1.802 3.603-1.802-3.604 1.442.36v-6.836zm11.088 0v6.837l1.442-.36-1.802 3.603-1.802-3.604 1.442.36v-6.836zm11.088 0v6.837l1.442-.36-1.802 3.603-1.802-3.604 1.442.36v-6.836zm11.088 0v6.837l1.442-.36-1.802 3.603-1.802-3.604 1.442.36v-6.836zm11.088 0v6.837l1.442-.36-1.802 3.603-1.802-3.604 1.442.36v-6.836zm11.088 0v6.837l1.442-.36-1.802 3.603-1.802-3.604 1.442.36v-6.836zm11.088 0v6.837l1.442-.36-1.802 3.603-1.802-3.604 1.442.36v-6.836zm11.088 0v6.837l1.442-.36-1.802 3.603-1.802-3.604 1.442.36v-6.836zm11.088 0v6.837l1.442-.36-1.802 3.603-1.802-3.604 1.442.36v-6.836zm11.088 0v6.837l1.442-.36-1.802 3.603-1.802-3.604 1.442.36v-6.836z" clip-path="url(#p09fbbd21dc)"/><path d="M24.192 125.55v6.836l1.442-.36-1.802 3.604-1.802-3.604 1.442.36v-6.836zm11.088 0v6.836l1.442-.36-1.802 3.604-1.802-3.604 1.442.36v-6.836zm11.088 0v6.836l1.442-.36-1.802 3.604-1.802-3.604 1.442.36v-6.836zm11.088 0v6.836l1.442-.36-1.802 3.604-1.802-3.604 1.442.36v-6.836zm11.088 0v6.836l1.442-.36-1.802 3.604-1.802-3.604 1.442.36v-6.836zm11.088 0v6.836l1.442-.36-1.802 3.604-1.802-3.604 1.442.36v-6.836zm11.088 0v6.836l1.442-.36-1.802 3.604-1.802-3.604 1.442.36v-6.836zm11.088 0v6.836l1.442-.36-1.802 3.604-1.802-3.604 1.442.36v-6.836zm11.088 0v6.836l1.442-.36-1.802 3.604-1.802-3.604 1.442.36v-6.836zm11.088 0v6.836l1.442-.36-1.802 3.604-1.802-3.604 1.442.36v-6.836zm11.088 0v6.836l1.442-.36-1.802 3.604-1.802-3.604 1.442.36v-6.836z" clip-path="url(#p09fbbd21dc)"/><path d="M24.192 120.717v6.836l1.442-.36-1.802 3.604-1.802-3.604 1.442.36v-6.836zm11.088 0v6.836l1.442-.36-1.802 3.604-1.802-3.604 1.442.36v-6.836zm11.088 0v6.836l1.442-.36-1.802 3.604-1.802-3.604 1.442.36v-6.836zm11.088 0v6.836l1.442-.36-1.802 3.604-1.802-3.604 1.442.36v-6.836zm11.088 0v6.836l1.442-.36-1.802 3.604-1.802-3.604 1.442.36v-6.836zm11.088 0v6.836l1.442-.36-1.802 3.604-1.802-3.604 1.442.36v-6.836zm11.088 0v6.836l1.442-.36-1.802 3.604-1.802-3.604 1.442.36v-6.836zm11.088 0v6.836l1.442-.36-1.802 3.604-1.802-3.604 1.442.36v-6.836zm11.088 0v6.836l1.442-.36-1.802 3.604-1.802-3.604 1.442.36v-6.836zm11.088 0v6.836l1.442-.36-1.802 3.604-1.802-3.604 1.442.36v-6.836zm11.088 0v6.836l1.442-.36-1.802 3.604-1.802-3.604 1.442.36v-6.836z" clip-path="url(#p09fbbd21dc)"/><path d="M24.192 115.883v6.837l1.442-.36-1.802 3.603-1.802-3.603 1.442.36v-6.837zm11.088 0v6.837l1.442-.36-1.802 3.603-1.802-3.603 1.442.36v-6.837zm11.088 0v6.837l1.442-.36-1.802 3.603-1.802-3.603 1.442.36v-6.837zm11.088 0v6.837l1.442-.36-1.802 3.603-1.802-3.603 1.442.36v-6.837zm11.088 0v6.837l1.442-.36-1.802 3.603-1.802-3.603 1.442.36v-6.837zm11.088 0v6.837l1.442-.36-1.802 3.603-1.802-3.603 1.442.36v-6.837zm11.088 0v6.837l1.442-.36-1.802 3.603-1.802-3.603 1.442.36v-6.837zm11.088 0v6.837l1.442-.36-1.802 3.603-1.802-3.603 1.442.36v-6.837zm11.088 0v6.837l1.442-.36-1.802 3.603-1.802-3.603 1.442.36v-6.837zm11.088 0v6.837l1.442-.36-1.802 3.603-1.802-3.603 1.442.36v-6.837zm11.088 0v6.837l1.442-.36-1.802 3.603-1.802-3.603 1.442.36v-6.837z" clip-path="url(#p09fbbd21dc)"/><path d="M24.192 111.05v6.837l1.442-.36-1.802 3.603-1.802-3.603 1.442.36v-6.837zm11.088 0v6.837l1.442-.36-1.802 3.603-1.802-3.603 1.442.36v-6.837zm11.088 0v6.837l1.442-.36-1.802 3.603-1.802-3.603 1.442.36v-6.837zm11.088 0v6.837l1.442-.36-1.802 3.603-1.802-3.603 1.442.36v-6.837zm11.088 0v6.837l1.442-.36-1.802 3.603-1.802-3.603 1.442.36v-6.837zm11.088 0v6.837l1.442-.36-1.802 3.603-1.802-3.603 1.442.36v-6.837zm11.088 0v6.837l1.442-.36-1.802 3.603-1.802-3.603 1.442.36v-6.837zm11.088 0v6.837l1.442-.36-1.802 3.603-1.802-3.603 1.442.36v-6.837zm11.088 0v6.837l1.442-.36-1.802 3.603-1.802-3.603 1.442.36v-6.837zm11.088 0v6.837l1.442-.36-1.802 3.603-1.802-3.603 1.442.36v-6.837zm11.088 0v6.837l1.442-.36-1.802 3.603-1.802-3.603 1.442.36v-6.837z" clip-path="url(#p09fbbd21dc)"/></g><g id="text_1" style="fill:gray" transform="matrix(.1 0 0 -.1 145.8 134.712)"><defs><path id="DejaVuSans-79" d="M2059-325q-243-625-475-815-231-191-618-191H506v481h338q237 0 368 113 132 112 291 531l103 262L191 3500h609L1894 763l1094 2737h609z" transform="scale(.01563)"/><path id="DejaVuSans-27" d="M1147 4666V2931H616v1735z" transform="scale(.01563)"/></defs><use xlink:href="#DejaVuSans-79"/><use xlink:href="#DejaVuSans-27" x="59.18"/></g><g id="text_2" style="fill:gray" transform="matrix(.1 0 0 -.1 84.816 18.288)"><defs><path id="DejaVuSans-7a" d="M353 3500h2731v-525L922 459h2162V0H275v525l2163 2516H353z" transform="scale(.01563)"/></defs><use xlink:href="#DejaVuSans-7a"/><use xlink:href="#DejaVuSans-27" x="52.49"/></g><g id="text_3" transform="matrix(.1 0 0 -.1 162.432 112.536)"><defs><path id="DejaVuSans-Oblique-74" d="m2706 3500-87-447H1472l-372-1900q-19-106-28-178t-9-112q0-200 120-291t386-91h581L2053 0h-550Q991 0 739 200 488 400 488 806q0 72 9 158t28 189l372 1900H409l91 447h478l194 994h575l-191-994z" transform="scale(.01563)"/><path id="Cmsy10-30" d="M225 347q-41 12-41 62l782 2907q37 118 127 190 91 72 207 72 150 0 264-99 114-98 114-248 0-65-34-147L488 319q-22-44-60-44-34 0-108 31-73 32-95 41" transform="scale(.01563)"/><path id="DejaVuSans-3d" d="M678 2906h4006v-525H678zm0-1275h4006v-531H678z" transform="scale(.01563)"/><path id="DejaVuSans-30" d="M2034 4250q-487 0-733-480-245-479-245-1442 0-959 245-1439 246-480 733-480 491 0 736 480 246 480 246 1439 0 963-246 1442-245 480-736 480m0 500q785 0 1199-621 414-620 414-1801 0-1178-414-1799Q2819-91 2034-91q-784 0-1198 620-414 621-414 1799 0 1181 414 1801 414 621 1198 621" transform="scale(.01563)"/></defs><use xlink:href="#DejaVuSans-Oblique-74" transform="translate(0 .584)"/><use xlink:href="#Cmsy10-30" transform="matrix(.7 0 0 .7 45.85 38.866)"/><use xlink:href="#DejaVuSans-3d" transform="translate(87.31 .584)"/><use xlink:href="#DejaVuSans-30" transform="translate(190.581 .584)"/></g></g></g><defs><clipPath id="p09fbbd21dc"><path d="M7.2 7.2h144.144v266.112H7.2z"/></clipPath></defs></svg>