<svg xmlns="http://www.w3.org/2000/svg" xmlns:xlink="http://www.w3.org/1999/xlink" width="263.199" height="374.016" viewBox="0 0 197.399 280.512"><defs><style>*{stroke-linejoin:round;stroke-linecap:butt}</style></defs><g id="figure_1"><path id="patch_1" d="M0 280.512h197.4V0H0z" style="fill:none"/><g id="axes_1"><path id="patch_2" d="m151.344 140.256-5.544 3.604 1.294-3.601H7.2v-.006h139.894l-1.294-3.6z" clip-path="url(#p5237a79372)" style="fill:gray;stroke:gray;stroke-linejoin:miter"/><path id="patch_3" d="m79.272 7.2 3.604 5.544-3.601-1.294v261.862h-.006V11.45l-3.6 1.294z" clip-path="url(#p5237a79372)" style="fill:gray;stroke:gray;stroke-linejoin:miter"/><g id="Quiver_1"><path d="M24.192 159.382v6.836l1.442-.36-1.802 3.604-1.802-3.604 1.442.36v-6.836zm11.088 0v6.836l1.442-.36-1.802 3.604-1.802-3.604 1.442.36v-6.836zm11.088 0v6.836l1.442-.36-1.802 3.604-1.802-3.604 1.442.36v-6.836zm11.088 0v6.836l1.442-.36-1.802 3.604-1.802-3.604 1.442.36v-6.836zm11.088 0v6.836l1.442-.36-1.802 3.604-1.802-3.604 1.442.36v-6.836zm11.088 0v6.836l1.442-.36-1.802 3.604-1.802-3.604 1.442.36v-6.836zm11.088 0v6.836l1.442-.36-1.802 3.604-1.802-3.604 1.442.36v-6.836zm11.088 0v6.836l1.442-.36-1.802 3.604-1.802-3.604 1.442.36v-6.836zm11.088 0v6.836l1.442-.36-1.802 3.604-1.802-3.604 1.442.36v-6.836zm11.088 0v6.836l1.442-.36-1.802 3.604-1.802-3.604 1.442.36v-6.836zm11.088 0v6.836l1.442-.36-1.802 3.604-1.802-3.604 1.442.36v-6.836z" clip-path="url(#p5237a79372)" style="fill:red"/><path d="M24.192 154.549v6.836l1.442-.36-1.802 3.604-1.802-3.604 1.442.36v-6.836zm11.088 0v6.836l1.442-.36-1.802 3.604-1.802-3.604 1.442.36v-6.836zm11.088 0v6.836l1.442-.36-1.802 3.604-1.802-3.604 1.442.36v-6.836zm11.088 0v6.836l1.442-.36-1.802 3.604-1.802-3.604 1.442.36v-6.836zm11.088 0v6.836l1.442-.36-1.802 3.604-1.802-3.604 1.442.36v-6.836zm11.088 0v6.836l1.442-.36-1.802 3.604-1.802-3.604 1.442.36v-6.836zm11.088 0v6.836l1.442-.36-1.802 3.604-1.802-3.604 1.442.36v-6.836zm11.088 0v6.836l1.442-.36-1.802 3.604-1.802-3.604 1.442.36v-6.836zm11.088 0v6.836l1.442-.36-1.802 3.604-1.802-3.604 1.442.36v-6.836zm11.088 0v6.836l1.442-.36-1.802 3.604-1.802-3.604 1.442.36v-6.836zm11.088 0v6.836l1.442-.36-1.802 3.604-1.802-3.604 1.442.36v-6.836z" clip-path="url(#p5237a79372)" style="fill:red"/><path d="M24.192 149.715v6.837l1.442-.36-1.802 3.603-1.802-3.603 1.442.36v-6.837zm11.088 0v6.837l1.442-.36-1.802 3.603-1.802-3.603 1.442.36v-6.837zm11.088 0v6.837l1.442-.36-1.802 3.603-1.802-3.603 1.442.36v-6.837zm11.088 0v6.837l1.442-.36-1.802 3.603-1.802-3.603 1.442.36v-6.837zm11.088 0v6.837l1.442-.36-1.802 3.603-1.802-3.603 1.442.36v-6.837zm11.088 0v6.837l1.442-.36-1.802 3.603-1.802-3.603 1.442.36v-6.837zm11.088 0v6.837l1.442-.36-1.802 3.603-1.802-3.603 1.442.36v-6.837zm11.088 0v6.837l1.442-.36-1.802 3.603-1.802-3.603 1.442.36v-6.837zm11.088 0v6.837l1.442-.36-1.802 3.603-1.802-3.603 1.442.36v-6.837zm11.088 0v6.837l1.442-.36-1.802 3.603-1.802-3.603 1.442.36v-6.837zm11.088 0v6.837l1.442-.36-1.802 3.603-1.802-3.603 1.442.36v-6.837z" clip-path="url(#p5237a79372)" style="fill:red"/><path d="M24.192 144.882v6.837l1.442-.36-1.802 3.603-1.802-3.603 1.442.36v-6.837zm11.088 0v6.837l1.442-.36-1.802 3.603-1.802-3.603 1.442.36v-6.837zm11.088 0v6.837l1.442-.36-1.802 3.603-1.802-3.603 1.442.36v-6.837zm11.088 0v6.837l1.442-.36-1.802 3.603-1.802-3.603 1.442.36v-6.837zm11.088 0v6.837l1.442-.36-1.802 3.603-1.802-3.603 1.442.36v-6.837zm11.088 0v6.837l1.442-.36-1.802 3.603-1.802-3.603 1.442.36v-6.837zm11.088 0v6.837l1.442-.36-1.802 3.603-1.802-3.603 1.442.36v-6.837zm11.088 0v6.837l1.442-.36-1.802 3.603-1.802-3.603 1.442.36v-6.837zm11.088 0v6.837l1.442-.36-1.802 3.603-1.802-3.603 1.442.36v-6.837zm11.088 0v6.837l1.442-.36-1.802 3.603-1.802-3.603 1.442.36v-6.837zm11.088 0v6.837l1.442-.36-1.802 3.603-1.802-3.603 1.442.36v-6.837z" clip-path="url(#p5237a79372)" style="fill:red"/><path d="M24.192 140.05v6.836l1.442-.36-1.802 3.603-1.802-3.603 1.442.36v-6.837zm11.088 0v6.836l1.442-.36-1.802 3.603-1.802-3.603 1.442.36v-6.837zm11.088 0v6.836l1.442-.36-1.802 3.603-1.802-3.603 1.442.36v-6.837zm11.088 0v6.836l1.442-.36-1.802 3.603-1.802-3.603 1.442.36v-6.837zm11.088 0v6.836l1.442-.36-1.802 3.603-1.802-3.603 1.442.36v-6.837zm11.088 0v6.836l1.442-.36-1.802 3.603-1.802-3.603 1.442.36v-6.837zm11.088 0v6.836l1.442-.36-1.802 3.603-1.802-3.603 1.442.36v-6.837zm11.088 0v6.836l1.442-.36-1.802 3.603-1.802-3.603 1.442.36v-6.837zm11.088 0v6.836l1.442-.36-1.802 3.603-1.802-3.603 1.442.36v-6.837zm11.088 0v6.836l1.442-.36-1.802 3.603-1.802-3.603 1.442.36v-6.837zm11.088 0v6.836l1.442-.36-1.802 3.603-1.802-3.603 1.442.36v-6.837z" clip-path="url(#p5237a79372)" style="fill:red"/><path d="M24.192 135.216v6.837l1.442-.36-1.802 3.603-1.802-3.604 1.442.36v-6.836zm11.088 0v6.837l1.442-.36-1.802 3.603-1.802-3.604 1.442.36v-6.836zm11.088 0v6.837l1.442-.36-1.802 3.603-1.802-3.604 1.442.36v-6.836zm11.088 0v6.837l1.442-.36-1.802 3.603-1.802-3.604 1.442.36v-6.836zm11.088 0v6.837l1.442-.36-1.802 3.603-1.802-3.604 1.442.36v-6.836zm11.088 0v6.837l1.442-.36-1.802 3.603-1.802-3.604 1.442.36v-6.836zm11.088 0v6.837l1.442-.36-1.802 3.603-1.802-3.604 1.442.36v-6.836zm11.088 0v6.837l1.442-.36-1.802 3.603-1.802-3.604 1.442.36v-6.836zm11.088 0v6.837l1.442-.36-1.802 3.603-1.802-3.604 1.442.36v-6.836zm11.088 0v6.837l1.442-.36-1.802 3.603-1.802-3.604 1.442.36v-6.836zm11.088 0v6.837l1.442-.36-1.802 3.603-1.802-3.604 1.442.36v-6.836z" clip-path="url(#p5237a79372)" style="fill:red"/><path d="M24.192 130.383v6.837l1.442-.36-1.802 3.603-1.802-3.604 1.442.36v-6.836zm11.088 0v6.837l1.442-.36-1.802 3.603-1.802-3.604 1.442.36v-6.836zm11.088 0v6.837l1.442-.36-1.802 3.603-1.802-3.604 1.442.36v-6.836zm11.088 0v6.837l1.442-.36-1.802 3.603-1.802-3.604 1.442.36v-6.836zm11.088 0v6.837l1.442-.36-1.802 3.603-1.802-3.604 1.442.36v-6.836zm11.088 0v6.837l1.442-.36-1.802 3.603-1.802-3.604 1.442.36v-6.836zm11.088 0v6.837l1.442-.36-1.802 3.603-1.802-3.604 1.442.36v-6.836zm11.088 0v6.837l1.442-.36-1.802 3.603-1.802-3.604 1.442.36v-6.836zm11.088 0v6.837l1.442-.36-1.802 3.603-1.802-3.604 1.442.36v-6.836zm11.088 0v6.837l1.442-.36-1.802 3.603-1.802-3.604 1.442.36v-6.836zm11.088 0v6.837l1.442-.36-1.802 3.603-1.802-3.604 1.442.36v-6.836z" clip-path="url(#p5237a79372)" style="fill:red"/><path d="M24.192 125.55v6.836l1.442-.36-1.802 3.604-1.802-3.604 1.442.36v-6.836zm11.088 0v6.836l1.442-.36-1.802 3.604-1.802-3.604 1.442.36v-6.836zm11.088 0v6.836l1.442-.36-1.802 3.604-1.802-3.604 1.442.36v-6.836zm11.088 0v6.836l1.442-.36-1.802 3.604-1.802-3.604 1.442.36v-6.836zm11.088 0v6.836l1.442-.36-1.802 3.604-1.802-3.604 1.442.36v-6.836zm11.088 0v6.836l1.442-.36-1.802 3.604-1.802-3.604 1.442.36v-6.836zm11.088 0v6.836l1.442-.36-1.802 3.604-1.802-3.604 1.442.36v-6.836zm11.088 0v6.836l1.442-.36-1.802 3.604-1.802-3.604 1.442.36v-6.836zm11.088 0v6.836l1.442-.36-1.802 3.604-1.802-3.604 1.442.36v-6.836zm11.088 0v6.836l1.442-.36-1.802 3.604-1.802-3.604 1.442.36v-6.836zm11.088 0v6.836l1.442-.36-1.802 3.604-1.802-3.604 1.442.36v-6.836z" clip-path="url(#p5237a79372)" style="fill:red"/><path d="M24.192 120.717v6.836l1.442-.36-1.802 3.604-1.802-3.604 1.442.36v-6.836zm11.088 0v6.836l1.442-.36-1.802 3.604-1.802-3.604 1.442.36v-6.836zm11.088 0v6.836l1.442-.36-1.802 3.604-1.802-3.604 1.442.36v-6.836zm11.088 0v6.836l1.442-.36-1.802 3.604-1.802-3.604 1.442.36v-6.836zm11.088 0v6.836l1.442-.36-1.802 3.604-1.802-3.604 1.442.36v-6.836zm11.088 0v6.836l1.442-.36-1.802 3.604-1.802-3.604 1.442.36v-6.836zm11.088 0v6.836l1.442-.36-1.802 3.604-1.802-3.604 1.442.36v-6.836zm11.088 0v6.836l1.442-.36-1.802 3.604-1.802-3.604 1.442.36v-6.836zm11.088 0v6.836l1.442-.36-1.802 3.604-1.802-3.604 1.442.36v-6.836zm11.088 0v6.836l1.442-.36-1.802 3.604-1.802-3.604 1.442.36v-6.836zm11.088 0v6.836l1.442-.36-1.802 3.604-1.802-3.604 1.442.36v-6.836z" clip-path="url(#p5237a79372)" style="fill:red"/><path d="M24.192 115.883v6.837l1.442-.36-1.802 3.603-1.802-3.603 1.442.36v-6.837zm11.088 0v6.837l1.442-.36-1.802 3.603-1.802-3.603 1.442.36v-6.837zm11.088 0v6.837l1.442-.36-1.802 3.603-1.802-3.603 1.442.36v-6.837zm11.088 0v6.837l1.442-.36-1.802 3.603-1.802-3.603 1.442.36v-6.837zm11.088 0v6.837l1.442-.36-1.802 3.603-1.802-3.603 1.442.36v-6.837zm11.088 0v6.837l1.442-.36-1.802 3.603-1.802-3.603 1.442.36v-6.837zm11.088 0v6.837l1.442-.36-1.802 3.603-1.802-3.603 1.442.36v-6.837zm11.088 0v6.837l1.442-.36-1.802 3.603-1.802-3.603 1.442.36v-6.837zm11.088 0v6.837l1.442-.36-1.802 3.603-1.802-3.603 1.442.36v-6.837zm11.088 0v6.837l1.442-.36-1.802 3.603-1.802-3.603 1.442.36v-6.837zm11.088 0v6.837l1.442-.36-1.802 3.603-1.802-3.603 1.442.36v-6.837z" clip-path="url(#p5237a79372)" style="fill:red"/><path d="M24.192 111.05v6.837l1.442-.36-1.802 3.603-1.802-3.603 1.442.36v-6.837zm11.088 0v6.837l1.442-.36-1.802 3.603-1.802-3.603 1.442.36v-6.837zm11.088 0v6.837l1.442-.36-1.802 3.603-1.802-3.603 1.442.36v-6.837zm11.088 0v6.837l1.442-.36-1.802 3.603-1.802-3.603 1.442.36v-6.837zm11.088 0v6.837l1.442-.36-1.802 3.603-1.802-3.603 1.442.36v-6.837zm11.088 0v6.837l1.442-.36-1.802 3.603-1.802-3.603 1.442.36v-6.837zm11.088 0v6.837l1.442-.36-1.802 3.603-1.802-3.603 1.442.36v-6.837zm11.088 0v6.837l1.442-.36-1.802 3.603-1.802-3.603 1.442.36v-6.837zm11.088 0v6.837l1.442-.36-1.802 3.603-1.802-3.603 1.442.36v-6.837zm11.088 0v6.837l1.442-.36-1.802 3.603-1.802-3.603 1.442.36v-6.837zm11.088 0v6.837l1.442-.36-1.802 3.603-1.802-3.603 1.442.36v-6.837z" clip-path="url(#p5237a79372)" style="fill:red"/></g><g id="text_1" style="fill:gray" transform="matrix(.1 0 0 -.1 145.8 134.712)"><defs><path id="DejaVuSans-79" d="M2059-325q-243-625-475-815-231-191-618-191H506v481h338q237 0 368 113 132 112 291 531l103 262L191 3500h609L1894 763l1094 2737h609z" transform="scale(.01563)"/><path id="DejaVuSans-27" d="M1147 4666V2931H616v1735z" transform="scale(.01563)"/></defs><use xlink:href="#DejaVuSans-79"/><use xlink:href="#DejaVuSans-27" x="59.18"/></g><g id="text_2" style="fill:gray" transform="matrix(.1 0 0 -.1 84.816 18.288)"><defs><path id="DejaVuSans-7a" d="M353 3500h2731v-525L922 459h2162V0H275v525l2163 2516H353z" transform="scale(.01563)"/></defs><use xlink:href="#DejaVuSans-7a"/><use xlink:href="#DejaVuSans-27" x="52.49"/></g><g id="text_3" transform="matrix(.1 0 0 -.1 162.432 142.474)"><defs><path id="DejaVuSans-74" d="M1172 4494v-994h1184v-447H1172V1153q0-428 117-550t477-122h590V0h-590q-666 0-919 248-253 249-253 905v1900H172v447h422v994z" transform="scale(.01563)"/><path id="DejaVuSans-3d" d="M678 2906h4006v-525H678zm0-1275h4006v-531H678z" transform="scale(.01563)"/><path id="DejaVuSans-30" d="M2034 4250q-487 0-733-480-245-479-245-1442 0-959 245-1439 246-480 733-480 491 0 736 480 246 480 246 1439 0 963-246 1442-245 480-736 480m0 500q785 0 1199-621 414-620 414-1801 0-1178-414-1799Q2819-91 2034-91q-784 0-1198 620-414 621-414 1799 0 1181 414 1801 414 621 1198 621" transform="scale(.01563)"/></defs><use xlink:href="#DejaVuSans-74"/><use xlink:href="#DejaVuSans-27" x="39.209"/><use xlink:href="#DejaVuSans-3d" x="98.486"/><use xlink:href="#DejaVuSans-30" x="214.063"/></g></g></g><defs><clipPath id="p5237a79372"><path d="M7.2 7.2h144.144v266.112H7.2z"/></clipPath></defs></svg>