<svg xmlns="http://www.w3.org/2000/svg" xml:space="preserve" width="4147" height="981" overflow="hidden"><defs><linearGradient id="a" x1="0" x2="138.422" y1="0" y2="0" gradientUnits="userSpaceOnUse" spreadMethod="reflect"><stop offset="0" stop-color="#F6F8FC"/><stop offset=".42" stop-color="#D9D9D9"/><stop offset=".71" stop-color="#7F7F7F"/><stop offset="1" stop-color="#7F7F7F"/></linearGradient><linearGradient id="b" x1="0" x2="138.422" y1="0" y2="0" gradientUnits="userSpaceOnUse" spreadMethod="reflect"><stop offset="0" stop-color="#F6F8FC"/><stop offset=".42" stop-color="#D9D9D9"/><stop offset=".71" stop-color="#7F7F7F"/><stop offset="1" stop-color="#7F7F7F"/></linearGradient><linearGradient id="c" x1="0" x2="138.422" y1="0" y2="0" gradientUnits="userSpaceOnUse" spreadMethod="reflect"><stop offset="0" stop-color="#F6F8FC"/><stop offset=".42" stop-color="#D9D9D9"/><stop offset=".71" stop-color="#7F7F7F"/><stop offset="1" stop-color="#7F7F7F"/></linearGradient><linearGradient id="d" x1="0" x2="138.422" y1="0" y2="0" gradientUnits="userSpaceOnUse" spreadMethod="reflect"><stop offset="0" stop-color="#F6F8FC"/><stop offset=".42" stop-color="#D9D9D9"/><stop offset=".71" stop-color="#7F7F7F"/><stop offset="1" stop-color="#7F7F7F"/></linearGradient><linearGradient id="e" x1="0" x2="138.422" y1="0" y2="0" gradientUnits="userSpaceOnUse" spreadMethod="reflect"><stop offset="0" stop-color="#F6F8FC"/><stop offset=".42" stop-color="#D9D9D9"/><stop offset=".71" stop-color="#7F7F7F"/><stop offset="1" stop-color="#7F7F7F"/></linearGradient><linearGradient id="f" x1="0" x2="138.422" y1="0" y2="0" gradientUnits="userSpaceOnUse" spreadMethod="reflect"><stop offset="0" stop-color="#F6F8FC"/><stop offset=".42" stop-color="#D9D9D9"/><stop offset=".71" stop-color="#7F7F7F"/><stop offset="1" stop-color="#7F7F7F"/></linearGradient><linearGradient id="g" x1="0" x2="138.422" y1="0" y2="0" gradientUnits="userSpaceOnUse" spreadMethod="reflect"><stop offset="0" stop-color="#F6F8FC"/><stop offset=".42" stop-color="#D9D9D9"/><stop offset=".71" stop-color="#7F7F7F"/><stop offset="1" stop-color="#7F7F7F"/></linearGradient><linearGradient id="h" x1="0" x2="138.422" y1="0" y2="0" gradientUnits="userSpaceOnUse" spreadMethod="reflect"><stop offset="0" stop-color="#F6F8FC"/><stop offset=".42" stop-color="#D9D9D9"/><stop offset=".71" stop-color="#7F7F7F"/><stop offset="1" stop-color="#7F7F7F"/></linearGradient><linearGradient id="i" x1="0" x2="138.422" y1="0" y2="0" gradientUnits="userSpaceOnUse" spreadMethod="reflect"><stop offset="0" stop-color="#F6F8FC"/><stop offset=".42" stop-color="#D9D9D9"/><stop offset=".71" stop-color="#7F7F7F"/><stop offset="1" stop-color="#7F7F7F"/></linearGradient><linearGradient id="j" x1="0" x2="138.422" y1="0" y2="0" gradientUnits="userSpaceOnUse" spreadMethod="reflect"><stop offset="0" stop-color="#F6F8FC"/><stop offset=".42" stop-color="#D9D9D9"/><stop offset=".71" stop-color="#7F7F7F"/><stop offset="1" stop-color="#7F7F7F"/></linearGradient><linearGradient id="k" x1="0" x2="138.422" y1="0" y2="0" gradientUnits="userSpaceOnUse" spreadMethod="reflect"><stop offset="0" stop-color="#F6F8FC"/><stop offset=".42" stop-color="#D9D9D9"/><stop offset=".71" stop-color="#7F7F7F"/><stop offset="1" stop-color="#7F7F7F"/></linearGradient><linearGradient id="l" x1="0" x2="138.422" y1="0" y2="0" gradientUnits="userSpaceOnUse" spreadMethod="reflect"><stop offset="0" stop-color="#F6F8FC"/><stop offset=".42" stop-color="#D9D9D9"/><stop offset=".71" stop-color="#7F7F7F"/><stop offset="1" stop-color="#7F7F7F"/></linearGradient><linearGradient id="m" x1="0" x2="138.422" y1="0" y2="0" gradientUnits="userSpaceOnUse" spreadMethod="reflect"><stop offset="0" stop-color="#F6F8FC"/><stop offset=".42" stop-color="#D9D9D9"/><stop offset=".71" stop-color="#7F7F7F"/><stop offset="1" stop-color="#7F7F7F"/></linearGradient><linearGradient id="n" x1="0" x2="138.422" y1="0" y2="0" gradientUnits="userSpaceOnUse" spreadMethod="reflect"><stop offset="0" stop-color="#F6F8FC"/><stop offset=".42" stop-color="#D9D9D9"/><stop offset=".71" stop-color="#7F7F7F"/><stop offset="1" stop-color="#7F7F7F"/></linearGradient><linearGradient id="o" x1="0" x2="138.422" y1="0" y2="0" gradientUnits="userSpaceOnUse" spreadMethod="reflect"><stop offset="0" stop-color="#F6F8FC"/><stop offset=".42" stop-color="#D9D9D9"/><stop offset=".71" stop-color="#7F7F7F"/><stop offset="1" stop-color="#7F7F7F"/></linearGradient><linearGradient id="p" x1="0" x2="138.422" y1="0" y2="0" gradientUnits="userSpaceOnUse" spreadMethod="reflect"><stop offset="0" stop-color="#F6F8FC"/><stop offset=".42" stop-color="#D9D9D9"/><stop offset=".71" stop-color="#7F7F7F"/><stop offset="1" stop-color="#7F7F7F"/></linearGradient><linearGradient id="q" x1="0" x2="138.422" y1="0" y2="0" gradientUnits="userSpaceOnUse" spreadMethod="reflect"><stop offset="0" stop-color="#F6F8FC"/><stop offset=".42" stop-color="#D9D9D9"/><stop offset=".71" stop-color="#7F7F7F"/><stop offset="1" stop-color="#7F7F7F"/></linearGradient><linearGradient id="r" x1="0" x2="138.422" y1="0" y2="0" gradientUnits="userSpaceOnUse" spreadMethod="reflect"><stop offset="0" stop-color="#F6F8FC"/><stop offset=".42" stop-color="#D9D9D9"/><stop offset=".71" stop-color="#7F7F7F"/><stop offset="1" stop-color="#7F7F7F"/></linearGradient><linearGradient id="s" x1="0" x2="138.422" y1="0" y2="0" gradientUnits="userSpaceOnUse" spreadMethod="reflect"><stop offset="0" stop-color="#F6F8FC"/><stop offset=".42" stop-color="#D9D9D9"/><stop offset=".71" stop-color="#7F7F7F"/><stop offset="1" stop-color="#7F7F7F"/></linearGradient><linearGradient id="t" x1="0" x2="138.422" y1="0" y2="0" gradientUnits="userSpaceOnUse" spreadMethod="reflect"><stop offset="0" stop-color="#F6F8FC"/><stop offset=".42" stop-color="#D9D9D9"/><stop offset=".71" stop-color="#7F7F7F"/><stop offset="1" stop-color="#7F7F7F"/></linearGradient><linearGradient id="u" x1="0" x2="138.422" y1="0" y2="0" gradientUnits="userSpaceOnUse" spreadMethod="reflect"><stop offset="0" stop-color="#F6F8FC"/><stop offset=".42" stop-color="#D9D9D9"/><stop offset=".71" stop-color="#7F7F7F"/><stop offset="1" stop-color="#7F7F7F"/></linearGradient><linearGradient id="v" x1="0" x2="138.422" y1="0" y2="0" gradientUnits="userSpaceOnUse" spreadMethod="reflect"><stop offset="0" stop-color="#F6F8FC"/><stop offset=".42" stop-color="#D9D9D9"/><stop offset=".71" stop-color="#7F7F7F"/><stop offset="1" stop-color="#7F7F7F"/></linearGradient><linearGradient id="w" x1="0" x2="138.422" y1="0" y2="0" gradientUnits="userSpaceOnUse" spreadMethod="reflect"><stop offset="0" stop-color="#F6F8FC"/><stop offset=".42" stop-color="#D9D9D9"/><stop offset=".71" stop-color="#7F7F7F"/><stop offset="1" stop-color="#7F7F7F"/></linearGradient><linearGradient id="x" x1="0" x2="138.422" y1="0" y2="0" gradientUnits="userSpaceOnUse" spreadMethod="reflect"><stop offset="0" stop-color="#F6F8FC"/><stop offset=".42" stop-color="#D9D9D9"/><stop offset=".71" stop-color="#7F7F7F"/><stop offset="1" stop-color="#7F7F7F"/></linearGradient><linearGradient id="y" x1="0" x2="138.422" y1="0" y2="0" gradientUnits="userSpaceOnUse" spreadMethod="reflect"><stop offset="0" stop-color="#F6F8FC"/><stop offset=".42" stop-color="#D9D9D9"/><stop offset=".71" stop-color="#7F7F7F"/><stop offset="1" stop-color="#7F7F7F"/></linearGradient><linearGradient id="z" x1="0" x2="502.212" y1="0" y2="0" gradientUnits="userSpaceOnUse" spreadMethod="reflect"><stop offset="0" stop-color="#FFF"/><stop offset=".37" stop-color="#9EBFDD"/><stop offset=".81" stop-color="#2F5597"/><stop offset="1" stop-color="#1F4E79"/></linearGradient><linearGradient id="A" x1="0" x2="502.212" y1="0" y2="0" gradientUnits="userSpaceOnUse" spreadMethod="reflect"><stop offset="0" stop-color="#FFF"/><stop offset=".37" stop-color="#9EBFDD"/><stop offset=".81" stop-color="#2F5597"/><stop offset="1" stop-color="#1F4E79"/></linearGradient><linearGradient id="B" x1="0" x2="502.212" y1="0" y2="0" gradientUnits="userSpaceOnUse" spreadMethod="reflect"><stop offset="0" stop-color="#FFF"/><stop offset=".37" stop-color="#9EBFDD"/><stop offset=".81" stop-color="#2F5597"/><stop offset="1" stop-color="#1F4E79"/></linearGradient><linearGradient id="C" x1="0" x2="502.212" y1="0" y2="0" gradientUnits="userSpaceOnUse" spreadMethod="reflect"><stop offset="0" stop-color="#FFF"/><stop offset=".37" stop-color="#9EBFDD"/><stop offset=".81" stop-color="#2F5597"/><stop offset="1" stop-color="#1F4E79"/></linearGradient><linearGradient id="D" x1="0" x2="502.212" y1="0" y2="0" gradientUnits="userSpaceOnUse" spreadMethod="reflect"><stop offset="0" stop-color="#FFF"/><stop offset=".37" stop-color="#9EBFDD"/><stop offset=".81" stop-color="#2F5597"/><stop offset="1" stop-color="#1F4E79"/></linearGradient><linearGradient id="E" x1="0" x2="502.212" y1="0" y2="0" gradientUnits="userSpaceOnUse" spreadMethod="reflect"><stop offset="0" stop-color="#FFF"/><stop offset=".37" stop-color="#9EBFDD"/><stop offset=".81" stop-color="#2F5597"/><stop offset="1" stop-color="#1F4E79"/></linearGradient><linearGradient id="F" x1="3935.34" x2="3433.12" y1="1268" y2="1268" gradientUnits="userSpaceOnUse" spreadMethod="reflect"><stop offset="0" stop-color="#FFF"/><stop offset=".37" stop-color="#9EBFDD"/><stop offset=".81" stop-color="#2F5597"/><stop offset="1" stop-color="#1F4E79"/></linearGradient><linearGradient id="G" x1="3928.34" x2="3426.12" y1="1230" y2="1230" gradientUnits="userSpaceOnUse" spreadMethod="reflect"><stop offset="0" stop-color="#FFF"/><stop offset=".37" stop-color="#9EBFDD"/><stop offset=".81" stop-color="#2F5597"/><stop offset="1" stop-color="#1F4E79"/></linearGradient><linearGradient id="H" x1="3913.34" x2="3411.12" y1="1191" y2="1191" gradientUnits="userSpaceOnUse" spreadMethod="reflect"><stop offset="0" stop-color="#FFF"/><stop offset=".37" stop-color="#9EBFDD"/><stop offset=".81" stop-color="#2F5597"/><stop offset="1" stop-color="#1F4E79"/></linearGradient><linearGradient id="I" x1="3888.34" x2="3386.12" y1="1153" y2="1153" gradientUnits="userSpaceOnUse" spreadMethod="reflect"><stop offset="0" stop-color="#FFF"/><stop offset=".37" stop-color="#9EBFDD"/><stop offset=".81" stop-color="#2F5597"/><stop offset="1" stop-color="#1F4E79"/></linearGradient><linearGradient id="J" x1="3852.34" x2="3350.12" y1="1115" y2="1115" gradientUnits="userSpaceOnUse" spreadMethod="reflect"><stop offset="0" stop-color="#FFF"/><stop offset=".37" stop-color="#9EBFDD"/><stop offset=".81" stop-color="#2F5597"/><stop offset="1" stop-color="#1F4E79"/></linearGradient><linearGradient id="K" x1="3791.34" x2="3289.12" y1="1077" y2="1077" gradientUnits="userSpaceOnUse" spreadMethod="reflect"><stop offset="0" stop-color="#FFF"/><stop offset=".37" stop-color="#9EBFDD"/><stop offset=".81" stop-color="#2F5597"/><stop offset="1" stop-color="#1F4E79"/></linearGradient></defs><path fill="none" stroke="url(#a)" stroke-miterlimit="8" stroke-width="5.729" d="M0 0h135.558" transform="scale(1 -1)rotate(.418 131843.233 -458.99)"/><path fill="none" stroke="url(#b)" stroke-miterlimit="8" stroke-width="5.729" d="M0 0h135.558" transform="scale(1 -1)rotate(.418 127324.756 4026.752)"/><path fill="none" stroke="url(#c)" stroke-miterlimit="8" stroke-width="5.729" d="M0 0h135.558" transform="scale(1 -1)rotate(.418 122804.91 8512.5)"/><path fill="none" stroke="url(#d)" stroke-miterlimit="8" stroke-width="5.729" d="M0 0h135.558" transform="scale(1 -1)rotate(.418 118286.434 12998.242)"/><path fill="none" stroke="url(#e)" stroke-miterlimit="8" stroke-width="5.729" d="M0 0h135.558" transform="scale(1 -1)rotate(.418 113767.957 17483.984)"/><path fill="none" stroke="url(#f)" stroke-miterlimit="8" stroke-width="5.729" d="M0 0h135.558" transform="scale(1 -1)rotate(.418 109249.481 21969.727)"/><path fill="none" stroke="url(#g)" stroke-miterlimit="8" stroke-width="5.729" d="M0 0h135.558" transform="scale(1 -1)rotate(.418 104731.005 26455.469)"/><path fill="none" stroke="url(#h)" stroke-miterlimit="8" stroke-width="5.729" d="M0 0h135.558" transform="scale(1 -1)rotate(.418 100212.528 30941.211)"/><path fill="none" stroke="url(#i)" stroke-miterlimit="8" stroke-width="5.729" d="M0 0h135.558" transform="scale(1 -1)rotate(.418 95694.052 35426.954)"/><path fill="none" stroke="url(#j)" stroke-miterlimit="8" stroke-width="5.729" d="M0 0h135.558" transform="scale(1 -1)rotate(.418 91175.575 39912.696)"/><path fill="none" stroke="url(#k)" stroke-miterlimit="8" stroke-width="5.729" d="M0 0h135.558" transform="scale(1 -1)rotate(.418 86657.099 44398.439)"/><path fill="none" stroke="url(#l)" stroke-miterlimit="8" stroke-width="5.729" d="M0 0h135.558" transform="scale(1 -1)rotate(.418 82137.253 48884.186)"/><path fill="none" stroke="url(#m)" stroke-miterlimit="8" stroke-width="5.729" d="M0 0h135.558" transform="scale(1 -1)rotate(.418 77618.777 53369.928)"/><path fill="none" stroke="url(#n)" stroke-miterlimit="8" stroke-width="5.729" d="M0 0h135.558" transform="scale(1 -1)rotate(.418 73100.3 57855.67)"/><path fill="none" stroke="url(#o)" stroke-miterlimit="8" stroke-width="5.729" d="M0 0h135.558" transform="scale(1 -1)rotate(.418 68581.824 62341.413)"/><path fill="none" stroke="url(#p)" stroke-miterlimit="8" stroke-width="5.729" d="M0 0h135.558" transform="scale(1 -1)rotate(.418 64063.347 66827.156)"/><path fill="none" stroke="url(#q)" stroke-miterlimit="8" stroke-width="5.729" d="M0 0h135.558" transform="scale(1 -1)rotate(.418 59544.871 71312.898)"/><path fill="none" stroke="url(#r)" stroke-miterlimit="8" stroke-width="5.729" d="M0 0h135.558" transform="scale(1 -1)rotate(.418 55026.395 75798.64)"/><path fill="none" stroke="url(#s)" stroke-miterlimit="8" stroke-width="5.729" d="M0 0h135.558" transform="scale(1 -1)rotate(.418 50507.918 80284.383)"/><path fill="none" stroke="url(#t)" stroke-miterlimit="8" stroke-width="5.729" d="M0 0h135.558" transform="scale(1 -1)rotate(.418 45989.442 84770.125)"/><path fill="none" stroke="url(#u)" stroke-miterlimit="8" stroke-width="5.729" d="M0 0h135.558" transform="scale(1 -1)rotate(.418 41469.596 89255.873)"/><path fill="none" stroke="url(#v)" stroke-miterlimit="8" stroke-width="5.729" d="M0 0h135.558" transform="scale(1 -1)rotate(.418 36951.12 93741.752)"/><path fill="none" stroke="url(#w)" stroke-miterlimit="8" stroke-width="5.729" d="M0 0h135.558" transform="scale(1 -1)rotate(.418 32433.054 98227.356)"/><path fill="none" stroke="url(#x)" stroke-miterlimit="8" stroke-width="5.729" d="M0 0h135.558" transform="scale(1 -1)rotate(.418 27914.304 102713.236)"/><path fill="none" stroke="url(#y)" stroke-miterlimit="8" stroke-width="5.729" d="M0 0h135.558" transform="scale(1 -1)rotate(.418 23395.827 107198.842)"/><path fill="#7F7F7F" d="m133.359 964.535 1188.038-8.675-.042-5.73-1188.038 8.675Zm1183.527 2.243 27.4-13.95-27.6-13.549ZM165.99 931.415l1188.038-8.675-.042-5.73-1188.038 8.675Zm1183.527 2.243 27.4-13.95-27.6-13.549ZM198.62 898.305l1188.039-8.675-.042-5.73-1188.038 8.675Zm1183.528 2.243 27.4-13.95-27.6-13.549ZM231.252 865.195l1188.038-8.675-.042-5.73-1188.038 8.675Zm1183.527 2.243 27.4-13.95-27.6-13.549ZM263.883 832.085l1188.038-8.675-.042-5.73-1188.038 8.675Zm1183.527 2.243 27.4-13.95-27.6-13.549ZM296.514 798.975l1188.038-8.675-.042-5.73-1188.038 8.675Zm1183.527 2.243 27.4-13.95-27.6-13.549ZM329.145 765.865l1188.038-8.675-.042-5.73-1188.038 8.675Zm1183.527 2.243 27.4-13.95-27.6-13.549ZM361.776 732.755l1188.038-8.675-.042-5.73-1188.038 8.675Zm1183.527 2.243 27.4-13.95-27.6-13.549ZM394.407 699.645l1188.038-8.675-.042-5.73-1188.038 8.675Zm1183.527 2.243 27.4-13.95-27.6-13.549ZM427.038 666.535l1188.038-8.675-.042-5.73-1188.038 8.675Zm1183.527 2.243 27.4-13.95-27.6-13.549ZM459.669 633.415l1188.038-8.675-.042-5.73-1188.038 8.675Zm1183.527 2.243 27.4-13.95-27.6-13.549ZM492.3 600.305l1188.038-8.675-.042-5.73-1188.038 8.675Zm1183.527 2.243 27.4-13.95-27.6-13.549ZM524.93 567.195l1188.039-8.675-.042-5.73-1188.038 8.675Zm1183.528 2.243 27.4-13.95-27.6-13.549ZM557.562 534.085 1745.6 525.41l-.042-5.73-1188.038 8.675Zm1183.527 2.243 27.4-13.95-27.6-13.549ZM590.193 500.975 1778.23 492.3l-.042-5.73-1188.038 8.675Zm1183.527 2.243 27.4-13.95-27.6-13.549ZM622.824 467.865l1188.038-8.675-.042-5.73-1188.038 8.675Zm1183.527 2.243 27.4-13.95-27.6-13.549ZM655.455 434.755l1188.038-8.675-.042-5.73-1188.038 8.675Zm1183.527 2.243 27.4-13.95-27.6-13.549ZM688.086 401.645l1188.038-8.675-.042-5.73-1188.038 8.675Zm1183.527 2.243 27.4-13.95-27.6-13.549ZM720.717 368.535l1188.038-8.675-.042-5.73-1188.038 8.675Zm1183.527 2.243 27.4-13.95-27.6-13.549ZM753.348 335.425l1188.038-8.675-.042-5.73-1188.038 8.675Zm1183.527 2.243 27.4-13.95-27.6-13.549ZM785.979 302.305l1188.038-8.675-.042-5.73-1188.038 8.675Zm1183.527 2.243 27.4-13.95-27.6-13.549ZM818.61 269.195l1188.039-8.675-.042-5.73-1188.038 8.675Zm1183.528 2.243 27.4-13.95-27.6-13.549ZM851.24 236.087l1188.039-8.675-.042-5.73-1188.038 8.675Zm1183.528 2.243 27.4-13.95-27.6-13.549ZM883.873 202.976 2071.91 194.3l-.042-5.73-1188.038 8.675Zm1183.527 2.243 27.4-13.95-27.6-13.549ZM916.5 169.865l1188.039-8.675-.042-5.73-1188.038 8.675Zm1183.528 2.243 27.4-13.95-27.6-13.549Z"/><path fill="none" stroke="#7F7F7F" stroke-miterlimit="8" stroke-width="5.729" d="M1893.76 162.374 1113.13 954.49m734.67-792.309L1067.17 954.29m734.67-792.303L1021.21 954.1m734.67-792.307L973.69 955.49m736.23-793.891L926.46 956.58m737.41-795.092L880.414 956.47m737.416-795.093L834.371 956.36m737.419-795.094L788.328 956.25M1524.03 162.9 740.565 957.89m737.415-795.1L694.522 957.78m735.698-793.356L646.759 959.41m737.421-795.096L600.716 959.3m737.414-795.097L554.673 959.19m737.417-795.098L508.63 959.08m735.7-793.353L460.867 960.71m737.413-795.094L414.824 960.6m735.696-793.349L367.061 962.24m737.419-795.1L321.018 962.12m737.422-795.091L274.975 962.01m737.415-795.092L228.932 961.9M964.63 168.553 181.169 963.54M918.59 168.442 135.126 963.43M1990.63 161.559 1210 953.67m734.67-792.304L1164.04 953.48m878.3-792.114L1261.71 953.48"/><path fill="#2F5597" fill-rule="evenodd" stroke="#000" stroke-miterlimit="8" stroke-width="11.458" d="M1324.32 503.4c.12 1.81 9.94 12.18 10.01 13.98 1.03 26.55-2.62 52.5-10.32 76.91-.27.85-9.42 7.15-9.7 8-3.58 10.9-6.53 15.98-10.62 23.05-4.55 7.89-7.74 14.45-15.47 24.87-.47.64.47 12.63-.01 13.26-32.43 42.79-80.06 74.33-136.87 85.62-36.2 7.2-72.11 5.37-105.38-3.93-.69-.19-13.42-13.33-14.05-13.65-27.91-14.26-38.24-19.73-61.28-37.92-17.91-14.15-28.18-24.87-41.25-43.98-.49-.73-11.23 3.28-11.71 2.55-16.066-24.08-27.766-51.65-33.761-81.81-4.077-20.5-5.258-40.92-3.827-60.8.119-1.65 6.525-2.99 6.68-4.63 2.461-26.18 8.404-49.69 19.258-72.95 12.72-27.24 29.9-50.04 52.18-70.38 1.42-1.29-1.53-6.34-.08-7.6 28.85-25.02 64.41-43.1 104.54-51.08 53.35-10.61 106.04-1.62 150.64 21.99 2.32 1.23-3.49 10.36-1.21 11.67 32.63 18.74 60 42.26 80.08 74.92 13.76 22.38 31.52 81.86 32.15 91.91Z"/><path fill="#548235" fill-rule="evenodd" stroke="#000" stroke-miterlimit="8" stroke-width="10.313" d="M917.44 651.55c30.3 45.67 76.18 78.85 128.56 93.45-7.17-15.3-22.57-38-21.16-69.26 1.74-38.28 26.99-50.64 18.18-82.09-.94-3.35-7.66-26.16-27.27-36.49-15.8-8.32-27.27-9.12-45.45-9.12-7.21 0-42.36 6.38-45.45-9.12-5.41-27.18 65.65-69.41 59.09-91.21-4.31-14.31-32.69-16.13-31.82-22.81.75-5.66 20.99-2.67 40.91-13.68 19.01-10.51 36.63-33.17 31.81-45.61-4.97-12.84-34.93-17.49-66.8-12.86-44.99 39.11-73.682 95.14-78.04 156.03 9.585 3.89 18.959 9.92 26.67 21.02 17.4 25.04 15.53 60.24 13.64 95.78-.63 11.79-1.76 19.85-2.87 25.97Z"/><path fill="#548235" fill-rule="evenodd" stroke="#000" stroke-miterlimit="8" stroke-width="11.458" d="M1330.28 481.31c-13.88-69.94-58.42-125.94-116.83-156.81-39.39 5.47-80.8 13.82-110.33 23.78-41.09 13.86-35.83 39.17-34.9 40.9 10.24 18.96 50.23 9.33 54.48 22.74 3.07 9.67-17.2 16.31-27.24 40.93-7.5 18.38-8.87 45.75 4.54 59.12 14.93 14.88 36.53.79 59.02 9.1 44.32 16.37 30.17 125.66 48.53 127.36 16.91 1.57 42.65-23.57 59.02-72.76 13.62-40.93-2.33-57.7 10.5-68.25 13.85-11.38 38.52 7.69 57.43 9.8-.46-11.88-1.84-23.88-4.22-35.91Z"/><path fill="#548235" fill-rule="evenodd" stroke="#000" stroke-miterlimit="8" stroke-width="10.313" d="M1285.1 615.87c-9.02 16.33-4.87 35.19 3.14 47.13 15.72-20.7 27.87-44.04 35.76-69-14.18.34-30.44 6.55-38.9 21.87Z"/><text font-family="Calibri,Calibri_MSFontService,sans-serif" font-size="73" font-weight="700" transform="translate(1009.57 91)">Aether flowing relative to earth</text><path fill="none" stroke="#A6A6A6" stroke-dasharray="5.72917 5.72917" stroke-miterlimit="8" stroke-width="5.729" d="m2217.72 959.45 804.72-804.727M2264.21 959.45l804.72-804.727M2310.7 959.45l804.72-804.727M2357.18 959.45l804.73-804.727M2403.67 959.45l804.72-804.727M2450.16 959.45l804.72-804.727M2496.65 959.45l804.72-804.727M2543.13 959.45l804.73-804.727M2589.62 959.45l804.72-804.727M2636.11 959.45l804.72-804.727M2682.6 959.45l804.72-804.727M2729.09 959.45l804.72-804.727M2775.57 959.45l804.73-804.726M2822.06 959.45l804.72-804.726M2868.55 959.45l804.72-804.726M2915.04 959.45l804.72-804.726M2961.53 959.45l804.72-804.726M3008.01 959.45l804.73-804.726M3054.5 959.45l804.72-804.726M3100.99 959.45l804.72-804.726M3147.48 959.45l804.72-804.726M3193.97 959.45l804.72-804.726M3240.45 959.45l804.73-804.726M3976.12 267H2864m1080.12 32H2832m1080.12 33H2800m1079.35 33H2765m1083.16 33H2732m1083.16 33H2699m1084.16 33H2667m1084.16 33H2635m1081.16 33H2600m1084.16 32H2568m1081.16 33H2533m1084.16 33H2501m1084.16 33H2469m1084.16 33H2437m1081.16 33H2402m1084.16 33H2370m1081.16 33H2335m1084.16 32H2303m1083.16 33H2270m1084.16 33H2238m1081.16 33H2203m1869.12-753H2960m1080.35 32H2926m1082.16 33H2892"/><path fill="none" stroke="url(#z)" stroke-miterlimit="8" stroke-width="13.75" d="M0 0h495.337" transform="matrix(-1 0 0 1 3843.34 565)"/><path fill="none" stroke="url(#A)" stroke-miterlimit="8" stroke-width="13.75" d="M0 0h495.337" transform="matrix(-1 0 0 1 3838.34 603)"/><path fill="none" stroke="url(#B)" stroke-miterlimit="8" stroke-width="13.75" d="M0 0h495.337" transform="matrix(-1 0 0 1 3823.34 642)"/><path fill="none" stroke="url(#C)" stroke-miterlimit="8" stroke-width="13.75" d="M0 0h495.337" transform="matrix(-1 0 0 1 3800.34 680)"/><path fill="none" stroke="url(#D)" stroke-miterlimit="8" stroke-width="13.75" d="M0 0h495.337" transform="matrix(-1 0 0 1 3764.34 718)"/><path fill="none" stroke="url(#E)" stroke-miterlimit="8" stroke-width="13.75" d="M0 0h495.337" transform="matrix(-1 0 0 1 3704.34 756)"/><path fill="none" stroke="url(#F)" stroke-miterlimit="8" stroke-width="13.75" d="M3935.34 1268H3440" transform="translate(-94 -743)"/><path fill="none" stroke="url(#G)" stroke-miterlimit="8" stroke-width="13.75" d="M3928.34 1230H3433" transform="translate(-94 -743)"/><path fill="none" stroke="url(#H)" stroke-miterlimit="8" stroke-width="13.75" d="M3913.34 1191H3418" transform="translate(-94 -743)"/><path fill="none" stroke="url(#I)" stroke-miterlimit="8" stroke-width="13.75" d="M3888.34 1153H3393" transform="translate(-94 -743)"/><path fill="none" stroke="url(#J)" stroke-miterlimit="8" stroke-width="13.75" d="M3852.34 1115H3357" transform="translate(-94 -743)"/><path fill="none" stroke="url(#K)" stroke-miterlimit="8" stroke-width="13.75" d="M3791.34 1077H3296" transform="translate(-94 -743)"/><path fill="#2F5597" fill-rule="evenodd" stroke="#000" stroke-miterlimit="8" stroke-width="11.458" d="M3347.32 520.4c.12 1.81 9.94 12.18 10.01 13.98 1.03 26.55-2.62 52.5-10.32 76.91-.27.85-9.42 7.15-9.7 8-3.58 10.9-6.53 15.98-10.62 23.05-4.55 7.89-7.74 14.45-15.47 24.87-.47.64.47 12.63-.01 13.26-32.43 42.79-80.06 74.33-136.87 85.62-36.2 7.2-72.11 5.37-105.38-3.93-.69-.19-13.42-13.33-14.05-13.65-27.91-14.26-38.24-19.73-61.28-37.92-17.91-14.15-28.18-24.87-41.25-43.98-.49-.73-11.23 3.28-11.71 2.55-16.07-24.08-27.77-51.65-33.76-81.81-4.08-20.5-5.26-40.92-3.83-60.8.12-1.65 6.53-2.99 6.68-4.63 2.46-26.18 8.41-49.69 19.26-72.95 12.72-27.24 29.9-50.04 52.18-70.38 1.42-1.29-1.53-6.34-.08-7.6 28.85-25.02 64.41-43.1 104.54-51.08 53.35-10.61 106.04-1.62 150.64 21.99 2.32 1.23-3.49 10.36-1.21 11.67 32.63 18.74 60 42.26 80.08 74.92 13.76 22.38 31.52 81.86 32.15 91.91Z"/><path fill="#548235" fill-rule="evenodd" stroke="#000" stroke-miterlimit="8" stroke-width="10.313" d="M2940.44 668.78c30.3 45.56 76.18 78.66 128.56 93.22-7.17-15.26-22.57-37.91-21.16-69.08 1.74-38.19 26.99-50.51 18.18-81.88-.94-3.35-7.66-26.1-27.27-36.4-15.8-8.3-27.27-9.1-45.45-9.1-7.21 0-42.36 6.37-45.45-9.1-5.41-27.11 65.65-69.23 59.09-90.98-4.31-14.27-32.69-16.09-31.82-22.74.75-5.66 20.99-2.67 40.91-13.65 19.01-10.49 36.63-33.09 31.81-45.49-4.97-12.82-34.93-17.45-66.8-12.84-44.99 39.01-73.68 94.91-78.04 155.64 9.59 3.88 18.96 9.89 26.67 20.97 17.4 24.97 15.53 60.09 13.64 95.53-.63 11.76-1.76 19.8-2.87 25.9Z"/><path fill="#548235" fill-rule="evenodd" stroke="#000" stroke-miterlimit="8" stroke-width="11.458" d="M3353.26 499.31c-13.93-69.94-58.64-125.94-117.27-156.81-39.53 5.47-81.1 13.82-110.73 23.78-41.25 13.86-35.97 39.18-35.04 40.9 10.28 18.96 50.42 9.33 54.69 22.74 3.08 9.67-17.27 16.31-27.34 40.93-7.53 18.38-8.91 45.75 4.55 59.12 14.99 14.88 36.67.79 59.25 9.1 44.48 16.37 30.27 125.66 48.7 127.36 16.97 1.57 42.82-23.57 59.25-72.76 13.67-40.93-2.35-57.7 10.54-68.25 13.9-11.38 38.65 7.69 57.64 9.8-.46-11.88-1.84-23.88-4.24-35.91Z"/><path fill="#548235" fill-rule="evenodd" stroke="#000" stroke-miterlimit="8" stroke-width="10.313" d="M3308.1 632.87c-9.02 16.33-4.87 35.19 3.14 47.13 15.72-20.7 27.87-44.04 35.76-69-14.18.34-30.44 6.55-38.9 21.87Z"/><path d="M2815.34 529.823h-429.452v26.354h429.452Zm-416.275-26.354L2320.003 543l79.062 39.532Z"/><text font-family="Calibri,Calibri_MSFontService,sans-serif" font-size="73" font-weight="700" transform="translate(3060.01 94)">Earth moving relative to aether</text></svg>