<svg xmlns="http://www.w3.org/2000/svg" xmlns:xlink="http://www.w3.org/1999/xlink" width="437.277" height="141.025" viewBox="0 0 327.958 105.769"><defs><symbol id="b" overflow="visible"><path d="M5.078-1.89v-.704h-2v-2H2.36v2h-2v.703h2v2h.72v-2Zm0 0" style="stroke:none"/></symbol><symbol id="d" overflow="visible"><path d="M2.61-1.75v-.75H.374v.75Zm0 0" style="stroke:none"/></symbol><symbol id="c" overflow="visible"><path d="M7.156-3.328a3.49 3.49 0 0 0-3.484-3.484C1.766-6.812.203-5.25.203-3.328A3.48 3.48 0 0 0 3.672.14c1.922 0 3.484-1.563 3.484-3.47m-.437 0A3.037 3.037 0 0 1 3.672-.297 3.034 3.034 0 0 1 .64-3.328C.64-5 2-6.375 3.67-6.375a3.05 3.05 0 0 1 3.05 3.047m0 0" style="stroke:none"/></symbol><symbol id="e" overflow="visible"><path d="M3.563-2.906c.406 1.047.89 2.562 1.046 2.797.157.218.25.218.532.218h.218c.094-.015.11-.062.11-.093 0-.032-.032-.063-.063-.094-.093-.11-.156-.266-.218-.453L3.156-6.203c-.219-.578-.75-.719-1.219-.719-.046 0-.187 0-.187.11 0 .078.078.109.094.109.328.047.406.11.656.797l.953 2.703L.703-.47c-.11.125-.172.172-.172.313 0 .172.14.281.297.281s.25-.11.328-.203Zm0 0" style="stroke:none"/></symbol><symbol id="j" overflow="visible"><path d="M4.672-3.703c0-.547-.266-.703-.438-.703-.25 0-.5.265-.5.484 0 .125.047.188.157.297.218.203.343.453.343.813 0 .421-.609 2.703-1.765 2.703-.516 0-.75-.344-.75-.875 0-.547.281-1.282.578-2.11.078-.172.125-.312.125-.5 0-.437-.313-.812-.813-.812-.937 0-1.312 1.453-1.312 1.531 0 .11.094.11.11.11.109 0 .109-.032.156-.188.296-1 .718-1.235 1.015-1.235.078 0 .25 0 .25.313 0 .25-.11.531-.172.703-.437 1.156-.562 1.61-.562 2.047 0 1.078.875 1.234 1.328 1.234 1.672 0 2.25-3.296 2.25-3.812m0 0" style="stroke:none"/></symbol><symbol id="l" overflow="visible"><path d="M.875-.594c-.031.156-.094.39-.094.438 0 .172.14.265.297.265a.41.41 0 0 0 .375-.28c.016-.032.344-1.391.39-1.579.079-.328.266-1.016.313-1.297.047-.125.328-.594.563-.812.078-.063.375-.328.797-.328.265 0 .406.125.422.125-.297.046-.516.28-.516.546 0 .157.11.344.375.344s.547-.234.547-.594c0-.343-.313-.64-.828-.64-.641 0-1.078.484-1.266.765-.094-.453-.453-.765-.922-.765-.453 0-.64.39-.734.562-.172.344-.297.938-.297.969 0 .11.094.11.11.11.109 0 .109-.016.171-.235.172-.703.375-1.187.735-1.187.156 0 .296.078.296.453 0 .218-.03.328-.156.843Zm0 0" style="stroke:none"/></symbol><symbol id="f" overflow="visible"><path d="M1.969-4.625c0-.016.031-.11.031-.11 0-.046-.031-.109-.125-.109-.14 0-.719.063-.89.078-.047 0-.141.016-.141.157 0 .093.094.093.172.093.343 0 .343.063.343.11s-.015.093-.03.156L.452-.812c-.016.078-.016.156-.016.218 0 .453.391.657.72.657.171 0 .39-.047.562-.36.156-.265.25-.672.25-.703 0-.094-.094-.094-.11-.094-.109 0-.125.047-.14.172-.094.344-.235.797-.532.797C1-.125.954-.297.954-.469A.9.9 0 0 1 1-.75Zm0 0" style="stroke:none"/></symbol><symbol id="g" overflow="visible"><path d="M2.938-2.656c-.141-.235-.376-.422-.72-.422-.89 0-1.796.984-1.796 1.984C.422-.406.875.063 1.484.063c.375 0 .704-.204.985-.485.125.422.531.485.719.485.25 0 .421-.141.546-.36.157-.281.25-.672.25-.703 0-.094-.093-.094-.109-.094-.11 0-.11.032-.156.219-.094.344-.219.75-.516.75-.172 0-.234-.156-.234-.344 0-.11.062-.375.11-.547.046-.187.124-.468.155-.625l.141-.53c.047-.188.125-.517.125-.548 0-.156-.125-.219-.234-.219-.125 0-.282.079-.328.282M2.5-.875c-.047.203-.203.344-.36.469-.062.062-.343.281-.64.281-.266 0-.516-.187-.516-.672 0-.375.204-1.14.375-1.422.313-.562.672-.656.86-.656.484 0 .625.531.625.61 0 .015-.016.078-.016.093Zm0 0" style="stroke:none"/></symbol><symbol id="h" overflow="visible"><path d="M1.844-4.625c0-.016.031-.11.031-.11 0-.046-.031-.109-.125-.109-.14 0-.719.063-.89.078-.047 0-.157.016-.157.157 0 .093.11.093.188.093.328 0 .328.063.328.11s-.063.328-.11.484l-.156.64C.891-3.031.516-1.515.5-1.421c-.047.172-.047.266-.047.344 0 .703.453 1.14 1.031 1.14.875 0 1.797-.937 1.797-1.968 0-.813-.562-1.172-1.047-1.172-.359 0-.671.203-.875.39Zm-.36 4.5c-.328 0-.53-.297-.53-.719 0-.25.062-.484.265-1.281.031-.125.031-.14.172-.297.265-.297.578-.453.828-.453.265 0 .5.203.5.672 0 .281-.14 1-.36 1.406-.171.344-.515.672-.875.672m0 0" style="stroke:none"/></symbol><symbol id="k" overflow="visible"><path d="M1.563-1.594c.187 0 .75-.015 1.125-.14.515-.188.609-.516.609-.72 0-.39-.39-.624-.86-.624-.843 0-1.968.64-1.968 1.844 0 .703.437 1.297 1.25 1.297 1.187 0 1.734-.688 1.734-.782 0-.047-.062-.125-.125-.125-.031 0-.047.016-.11.078-.546.641-1.359.641-1.484.641-.421 0-.703-.281-.703-.844 0-.094 0-.234.094-.625Zm-.391-.187c.297-1.016 1.062-1.094 1.266-1.094.296 0 .562.156.562.422 0 .672-1.187.672-1.484.672Zm0 0" style="stroke:none"/></symbol><symbol id="n" overflow="visible"><path d="M.516.844c-.047.203-.063.25-.328.25-.094 0-.188 0-.188.156 0 .078.063.11.094.11.172 0 .406-.032.594-.032.234 0 .5.031.734.031.062 0 .14-.03.14-.156 0-.11-.093-.11-.187-.11-.156 0-.344 0-.344-.077 0-.032.063-.22.078-.313.094-.375.188-.75.266-1.047.078.14.297.407.719.407.844 0 1.781-.938 1.781-1.97 0-.812-.562-1.171-1.031-1.171-.438 0-.813.297-1 .5-.11-.406-.5-.5-.719-.5-.266 0-.437.187-.547.375A2.6 2.6 0 0 0 .328-2c0 .078.094.078.125.078.094 0 .094-.016.14-.203.11-.406.25-.75.516-.75.188 0 .235.156.235.344a.7.7 0 0 1-.032.203Zm1.328-3.078c.406-.547.75-.641.968-.641.282 0 .516.203.516.672 0 .281-.156 1-.36 1.406-.187.344-.515.672-.874.672-.5 0-.625-.531-.625-.61 0-.03.015-.078.015-.109Zm0 0" style="stroke:none"/></symbol><symbol id="i" overflow="visible"><path d="M6.563-2.297c.171 0 .359 0 .359-.203 0-.187-.188-.187-.36-.187h-5.39c-.172 0-.344 0-.344.187 0 .203.172.203.344.203Zm0 0" style="stroke:none"/></symbol><symbol id="m" overflow="visible"><path d="M.406 1.125c-.062.25-.078.344-.453.344-.11 0-.219 0-.219.156 0 .031.032.11.125.11l.375-.016h.844c.156 0 .297.015.438.015.046 0 .172 0 .172-.156 0-.11-.094-.11-.25-.11-.422 0-.422-.062-.422-.155a3 3 0 0 1 .109-.438l.328-1.328c.094.187.344.547.86.547C3.359.094 4.5-1.172 4.5-2.516c0-.906-.562-1.453-1.234-1.453-.188 0-.641.047-1.188.656-.125-.5-.547-.656-.844-.656-.375 0-.578.281-.703.531-.14.313-.265.813-.265.86 0 .078.062.11.125.11.093 0 .109-.048.156-.235.172-.703.36-1.031.656-1.031.281 0 .281.28.281.422 0 .062-.015.203-.03.265Zm1.625-3.89c.047-.172.047-.188.172-.329.235-.312.64-.64 1.047-.64.422 0 .594.422.594.843 0 .391-.25 1.516-.531 1.985-.313.515-.688.781-1.016.781-.578 0-.735-.703-.735-.766 0-.062.032-.109.032-.156Zm0 0" style="stroke:none"/></symbol><clipPath id="a"><path d="M0 0h327.957v105.77H0Zm0 0"/></clipPath></defs><g clip-path="url(#a)"><path d="M0 105.77h327.957V0H0Zm0 0" style="stroke:none;fill-rule:nonzero;fill:#ffe4c8;fill-opacity:1"/></g><path d="M5.867 49.27V20.922h283.469V49.27Zm0 0" style="stroke:none;fill-rule:nonzero;fill:#ccc;fill-opacity:1"/><path d="M0-.002h283.468" style="fill:none;stroke-width:.3985;stroke-linecap:butt;stroke-linejoin:miter;stroke:#000;stroke-opacity:1;stroke-dasharray:2.98883,2.98883;stroke-miterlimit:10" transform="matrix(1 0 0 -1 5.868 35.096)"/><use xlink:href="#b" x="17.325" y="30.14" style="fill:#000;fill-opacity:1"/><use xlink:href="#c" x="16.37" y="30.465" style="fill:#000;fill-opacity:1"/><use xlink:href="#b" x="45.671" y="30.14" style="fill:#000;fill-opacity:1"/><use xlink:href="#c" x="44.717" y="30.465" style="fill:#000;fill-opacity:1"/><use xlink:href="#b" x="74.018" y="30.14" style="fill:#000;fill-opacity:1"/><use xlink:href="#c" x="73.063" y="30.465" style="fill:#000;fill-opacity:1"/><use xlink:href="#b" x="102.364" y="30.14" style="fill:#000;fill-opacity:1"/><use xlink:href="#c" x="101.41" y="30.465" style="fill:#000;fill-opacity:1"/><use xlink:href="#b" x="130.711" y="30.14" style="fill:#000;fill-opacity:1"/><use xlink:href="#c" x="129.756" y="30.465" style="fill:#000;fill-opacity:1"/><use xlink:href="#b" x="159.057" y="30.14" style="fill:#000;fill-opacity:1"/><use xlink:href="#c" x="158.103" y="30.465" style="fill:#000;fill-opacity:1"/><use xlink:href="#b" x="187.404" y="30.14" style="fill:#000;fill-opacity:1"/><use xlink:href="#c" x="186.449" y="30.465" style="fill:#000;fill-opacity:1"/><use xlink:href="#b" x="215.75" y="30.14" style="fill:#000;fill-opacity:1"/><use xlink:href="#c" x="214.796" y="30.465" style="fill:#000;fill-opacity:1"/><use xlink:href="#b" x="244.096" y="30.14" style="fill:#000;fill-opacity:1"/><use xlink:href="#c" x="243.142" y="30.465" style="fill:#000;fill-opacity:1"/><use xlink:href="#b" x="272.443" y="30.14" style="fill:#000;fill-opacity:1"/><use xlink:href="#c" x="271.488" y="30.465" style="fill:#000;fill-opacity:1"/><use xlink:href="#d" x="18.549" y="46.077" style="fill:#000;fill-opacity:1"/><use xlink:href="#c" x="16.37" y="46.402" style="fill:#000;fill-opacity:1"/><use xlink:href="#d" x="46.895" y="46.077" style="fill:#000;fill-opacity:1"/><use xlink:href="#c" x="44.717" y="46.402" style="fill:#000;fill-opacity:1"/><use xlink:href="#d" x="75.242" y="46.077" style="fill:#000;fill-opacity:1"/><use xlink:href="#c" x="73.063" y="46.402" style="fill:#000;fill-opacity:1"/><use xlink:href="#d" x="103.588" y="46.077" style="fill:#000;fill-opacity:1"/><use xlink:href="#c" x="101.41" y="46.402" style="fill:#000;fill-opacity:1"/><use xlink:href="#d" x="131.935" y="46.077" style="fill:#000;fill-opacity:1"/><use xlink:href="#c" x="129.756" y="46.402" style="fill:#000;fill-opacity:1"/><use xlink:href="#d" x="160.281" y="46.077" style="fill:#000;fill-opacity:1"/><use xlink:href="#c" x="158.103" y="46.402" style="fill:#000;fill-opacity:1"/><use xlink:href="#d" x="188.627" y="46.077" style="fill:#000;fill-opacity:1"/><use xlink:href="#c" x="186.449" y="46.402" style="fill:#000;fill-opacity:1"/><use xlink:href="#d" x="216.974" y="46.077" style="fill:#000;fill-opacity:1"/><use xlink:href="#c" x="214.796" y="46.402" style="fill:#000;fill-opacity:1"/><use xlink:href="#d" x="245.32" y="46.077" style="fill:#000;fill-opacity:1"/><use xlink:href="#c" x="243.142" y="46.402" style="fill:#000;fill-opacity:1"/><use xlink:href="#d" x="273.667" y="46.077" style="fill:#000;fill-opacity:1"/><use xlink:href="#c" x="271.488" y="46.402" style="fill:#000;fill-opacity:1"/><path d="M141.734 5.67v11.34h141.734V5.67" style="fill:none;stroke-width:.3985;stroke-linecap:butt;stroke-linejoin:miter;stroke:#000;stroke-opacity:1;stroke-miterlimit:10" transform="matrix(1 0 0 -1 5.868 35.096)"/><use xlink:href="#e" x="210.12" y="10.239" style="fill:#000;fill-opacity:1"/><use xlink:href="#f" x="215.931" y="11.734" style="fill:#000;fill-opacity:1"/><g style="fill:#000;fill-opacity:1"><use xlink:href="#g" x="218.492" y="11.734"/><use xlink:href="#h" x="222.814" y="11.734"/></g><path d="M141.734-5.67v-11.34h141.734v11.34" style="fill:none;stroke-width:.3985;stroke-linecap:butt;stroke-linejoin:miter;stroke:#000;stroke-opacity:1;stroke-miterlimit:10" transform="matrix(1 0 0 -1 5.868 35.096)"/><use xlink:href="#i" x="206.245" y="62.542" style="fill:#000;fill-opacity:1"/><use xlink:href="#e" x="213.994" y="62.542" style="fill:#000;fill-opacity:1"/><use xlink:href="#f" x="219.805" y="64.037" style="fill:#000;fill-opacity:1"/><g style="fill:#000;fill-opacity:1"><use xlink:href="#g" x="222.366" y="64.037"/><use xlink:href="#h" x="226.688" y="64.037"/></g><path d="M289.597 8.502h16.09" style="fill:none;stroke-width:.3985;stroke-linecap:butt;stroke-linejoin:miter;stroke:#000;stroke-opacity:1;stroke-miterlimit:10" transform="matrix(1 0 0 -1 5.868 35.096)"/><path d="M-1.196 1.596C-1.094.998 0 .1.3.002 0-.1-1.094-.998-1.196-1.596" style="fill:none;stroke-width:.31879;stroke-linecap:round;stroke-linejoin:round;stroke:#000;stroke-opacity:1;stroke-miterlimit:10" transform="matrix(-1 0 0 1 297.277 26.592)"/><path d="M-1.197 1.596C-1.095.998 0 .1.3.002c-.301-.102-1.395-1-1.497-1.598" style="fill:none;stroke-width:.31879;stroke-linecap:round;stroke-linejoin:round;stroke:#000;stroke-opacity:1;stroke-miterlimit:10" transform="matrix(-1 0 0 1 295.464 26.592)"/><path d="M-1.195 1.596C-1.098.998 0 .1.297-.002 0-.1-1.098-.998-1.195-1.596" style="fill:none;stroke-width:.31879;stroke-linecap:round;stroke-linejoin:round;stroke:#000;stroke-opacity:1;stroke-miterlimit:10" transform="matrix(1 0 0 -1 309.742 26.592)"/><path d="M-1.196 1.596C-1.094.998-.001.1.3-.002 0-.1-1.094-.998-1.196-1.596" style="fill:none;stroke-width:.31879;stroke-linecap:round;stroke-linejoin:round;stroke:#000;stroke-opacity:1;stroke-miterlimit:10" transform="matrix(1 0 0 -1 311.555 26.592)"/><use xlink:href="#j" x="315.53" y="27.99" style="fill:#000;fill-opacity:1"/><use xlink:href="#k" x="320.359" y="29.484" style="fill:#000;fill-opacity:1"/><path d="M-5.669-.299v-56.097" style="fill:none;stroke-width:.3985;stroke-linecap:butt;stroke-linejoin:miter;stroke:#000;stroke-opacity:1;stroke-miterlimit:10" transform="matrix(1 0 0 -1 5.868 35.096)"/><path d="M.098-2.59v5.18" style="fill:none;stroke-width:.3985;stroke-linecap:square;stroke-linejoin:miter;stroke:#000;stroke-opacity:1;stroke-miterlimit:10" transform="matrix(0 -1 -1 0 .199 35.395)"/><path d="M.1-2.59v5.18" style="fill:none;stroke-width:.3985;stroke-linecap:square;stroke-linejoin:miter;stroke:#000;stroke-opacity:1;stroke-miterlimit:10" transform="matrix(0 1 1 0 .199 91.49)"/><use xlink:href="#l" x="3.719" y="65.587" style="fill:#000;fill-opacity:1"/><use xlink:href="#m" x="12.059" y="93.557" style="fill:#000;fill-opacity:1"/><use xlink:href="#c" x="10.701" y="93.882" style="fill:#000;fill-opacity:1"/><path d="M14.175-56.693h10.879" style="fill:none;stroke-width:.3985;stroke-linecap:butt;stroke-linejoin:miter;stroke:#000;stroke-opacity:1;stroke-miterlimit:10" transform="matrix(1 0 0 -1 5.868 35.096)"/><path d="M-1.194 1.594C-1.097.997 0 .098.298.001 0-.101-1.097-.996-1.194-1.593" style="fill:none;stroke-width:.31879;stroke-linecap:round;stroke-linejoin:round;stroke:#000;stroke-opacity:1;stroke-miterlimit:10" transform="matrix(1 0 0 -1 29.108 91.79)"/><path d="M-1.195 1.594C-1.097.997 0 .098.297.001 0-.101-1.097-.996-1.195-1.593" style="fill:none;stroke-width:.31879;stroke-linecap:round;stroke-linejoin:round;stroke:#000;stroke-opacity:1;stroke-miterlimit:10" transform="matrix(1 0 0 -1 30.922 91.79)"/><use xlink:href="#j" x="20.994" y="99.598" style="fill:#000;fill-opacity:1"/><use xlink:href="#n" x="25.823" y="101.092" style="fill:#000;fill-opacity:1"/></svg>