<svg xmlns="http://www.w3.org/2000/svg" xmlns:xlink="http://www.w3.org/1999/xlink" width="401.852" height="141.445" viewBox="0 0 301.389 106.084"><defs><symbol id="a" overflow="visible"><path d="M5.14-6.812s0-.11-.124-.11c-.157 0-1.094.094-1.266.11-.078.015-.14.062-.14.187s.093.125.234.125c.484 0 .5.063.5.172l-.032.203-.593 2.36c-.188-.376-.469-.641-.922-.641-1.156 0-2.39 1.468-2.39 2.922C.406-.547.952.109 1.718.109c.203 0 .703-.046 1.297-.75a.91.91 0 0 0 .906.75c.36 0 .578-.234.75-.546a6.5 6.5 0 0 0 .297-.985c0-.11-.094-.11-.125-.11-.094 0-.11.048-.14.188-.173.64-.345 1.235-.75 1.235-.282 0-.298-.266-.298-.453 0-.25.016-.313.047-.485ZM3.079-1.187c-.062.187-.062.203-.203.375-.437.546-.844.703-1.125.703-.5 0-.64-.547-.64-.938 0-.5.312-1.719.546-2.187.313-.578.75-.953 1.157-.953.64 0 .78.812.78.875a.6.6 0 0 1-.03.171Zm0 0" style="stroke:none"/></symbol><symbol id="b" overflow="visible"><path d="M2.578-6.812s0-.11-.14-.11c-.22 0-.954.078-1.22.11-.077 0-.187.015-.187.203 0 .109.11.109.25.109.485 0 .5.094.5.172l-.031.203L.484-1.141a1 1 0 0 0-.046.329.89.89 0 0 0 .906.921c.328 0 .578-.203.75-.562.172-.375.297-.953.297-.969 0-.11-.094-.11-.125-.11-.094 0-.11.048-.125.188-.172.64-.36 1.235-.766 1.235-.297 0-.297-.313-.297-.453 0-.25.016-.297.063-.485Zm0 0" style="stroke:none"/></symbol><symbol id="c" overflow="visible"><path d="M5.36-5.937c-.141.14-.47.421-.47.593 0 .094.094.203.188.203s.14-.078.203-.14c.11-.14.344-.422.782-.64.062-.048.171-.095.171-.204 0-.11-.078-.156-.14-.203a1.03 1.03 0 0 1-.407-.563c-.03-.093-.062-.234-.203-.234-.14 0-.203.14-.203.219 0 .047.078.36.235.578h-3.36c-.156 0-.344 0-.344.203 0 .188.188.188.344.188Zm0 0" style="stroke:none"/></symbol><symbol id="d" overflow="visible"><path d="M.875-.594c-.031.156-.094.39-.094.438 0 .172.14.265.297.265a.41.41 0 0 0 .375-.28c.016-.032.344-1.391.39-1.579.079-.328.266-1.016.313-1.297.047-.125.328-.594.563-.812.078-.063.375-.328.797-.328.265 0 .406.125.422.125-.297.046-.516.28-.516.546 0 .157.11.344.375.344s.547-.234.547-.594c0-.343-.313-.64-.828-.64-.641 0-1.078.484-1.266.765-.094-.453-.453-.765-.922-.765-.453 0-.64.39-.734.562-.172.344-.297.938-.297.969 0 .11.094.11.11.11.109 0 .109-.016.171-.235.172-.703.375-1.187.735-1.187.156 0 .296.078.296.453 0 .218-.03.328-.156.843Zm0 0" style="stroke:none"/></symbol><symbol id="e" overflow="visible"><path d="m5.953-5.672.14-.14c.298-.297.626-.641 1.298-.688.109-.016.203-.016.203-.187 0-.079-.047-.125-.125-.125-.266 0-.547.03-.813.03-.343 0-.687-.03-1-.03-.062 0-.187 0-.187.187 0 .11.093.125.14.125.079 0 .36.016.36.234 0 .172-.235.422-.266.47l-2.312 2.67-1.094-2.968c-.063-.14-.063-.156-.063-.172 0-.234.485-.234.594-.234.125 0 .235 0 .235-.203 0-.11-.126-.11-.157-.11-.281 0-.969.032-1.25.032-.25 0-.875-.032-1.125-.032-.047 0-.187 0-.187.204 0 .109.11.109.234.109.594 0 .64.094.735.344L2.53-2.875a1 1 0 0 1 .047.156c0 .031-.406 1.64-.453 1.828-.125.547-.14.579-.937.579-.188 0-.266 0-.266.203 0 .109.11.109.14.109.266 0 .97-.031 1.25-.031.282 0 1 .031 1.282.031.062 0 .187 0 .187-.203 0-.11-.094-.11-.281-.11-.016 0-.203 0-.375-.015-.219-.016-.281-.047-.281-.156 0-.079.094-.422.14-.625l.36-1.407c.047-.203.062-.218.14-.312Zm0 0" style="stroke:none"/></symbol><symbol id="f" overflow="visible"><path d="M7.172-6.562a.5.5 0 0 0 .031-.157c0-.093-.047-.093-.25-.093H2.75c-.234 0-.25.015-.312.203L1.89-4.812a1 1 0 0 0-.032.14s0 .11.125.11c.094 0 .11-.079.125-.11C2.5-5.844 3.016-6.5 4.563-6.5h1.625L.625-.266s-.047.141-.047.172C.578 0 .641 0 .828 0h4.328c.25 0 .25-.016.313-.203l.718-2.203c0-.031.032-.11.032-.14 0-.063-.032-.11-.125-.11-.094 0-.11.031-.172.25C5.484-1.062 5-.344 3.312-.344H1.61Zm0 0" style="stroke:none"/></symbol><symbol id="g" overflow="visible"><path d="M4.672-3.703c0-.547-.266-.703-.438-.703-.25 0-.5.265-.5.484 0 .125.047.188.157.297.218.203.343.453.343.813 0 .421-.609 2.703-1.765 2.703-.516 0-.75-.344-.75-.875 0-.547.281-1.282.578-2.11.078-.172.125-.312.125-.5 0-.437-.313-.812-.813-.812-.937 0-1.312 1.453-1.312 1.531 0 .11.094.11.11.11.109 0 .109-.032.156-.188.296-1 .718-1.235 1.015-1.235.078 0 .25 0 .25.313 0 .25-.11.531-.172.703-.437 1.156-.562 1.61-.562 2.047 0 1.078.875 1.234 1.328 1.234 1.672 0 2.25-3.296 2.25-3.812m0 0" style="stroke:none"/></symbol><symbol id="h" overflow="visible"><path d="M3.016-3.156h1.703c1.406 0 2.797-1.031 2.797-2.14 0-.782-.657-1.516-1.97-1.516H2.329c-.187 0-.297 0-.297.187 0 .125.078.125.281.125.126 0 .313.016.422.016.172.03.22.046.22.172 0 .03 0 .062-.032.187L1.578-.781c-.094.39-.11.469-.906.469-.156 0-.266 0-.266.187 0 .125.11.125.14.125.282 0 .985-.031 1.267-.031.218 0 .437.015.64.015.219 0 .438.016.64.016.079 0 .204 0 .204-.203 0-.11-.094-.11-.281-.11-.36 0-.641 0-.641-.171 0-.063.016-.11.031-.172Zm.718-2.969c.094-.344.11-.375.547-.375h.953c.829 0 1.36.266 1.36.953 0 .39-.203 1.25-.594 1.61-.5.453-1.094.53-1.531.53H3.062Zm0 0" style="stroke:none"/></symbol><symbol id="i" overflow="visible"><path d="M4.531-4.984c0-.657-.172-2.047-1.187-2.047-1.39 0-2.922 2.812-2.922 5.094C.422-1 .703.108 1.609.108c1.407 0 2.922-2.859 2.922-5.093M1.47-3.625c.172-.625.375-1.422.781-2.14.266-.485.625-1.048 1.078-1.048.485 0 .547.641.547 1.204 0 .5-.078 1-.312 1.984Zm2 .328c-.11.453-.313 1.297-.703 2.016-.344.687-.72 1.172-1.157 1.172-.328 0-.53-.297-.53-1.22 0-.421.062-1 .312-1.968Zm0 0" style="stroke:none"/></symbol><symbol id="j" overflow="visible"><path d="M2.64-3.719h1.126c-.328 1.469-.422 1.906-.422 2.578 0 .141 0 .407.078.75.11.438.219.5.36.5.202 0 .421-.171.421-.375 0-.062 0-.078-.062-.218-.297-.72-.297-1.375-.297-1.657 0-.515.078-1.062.187-1.578h1.125c.14 0 .5 0 .5-.344 0-.234-.218-.234-.406-.234H1.906c-.218 0-.593 0-1.031.469-.344.39-.61.844-.61.89 0 .016 0 .11.126.11.078 0 .093-.047.156-.125.484-.766 1.062-.766 1.265-.766h.563c-.312 1.203-.844 2.407-1.266 3.313-.078.156-.078.172-.078.25 0 .187.157.265.282.265.296 0 .375-.28.5-.64.14-.469.14-.485.265-.985Zm0 0" style="stroke:none"/></symbol><symbol id="k" overflow="visible"><path d="M6.563-2.297c.171 0 .359 0 .359-.203 0-.187-.188-.187-.36-.187h-5.39c-.172 0-.344 0-.344.187 0 .203.172.203.344.203Zm0 0" style="stroke:none"/></symbol><symbol id="r" overflow="visible"><path d="M3.875 8.516 2.125 4.64c-.078-.157-.125-.157-.156-.157 0 0-.063 0-.172.079l-.938.718c-.125.11-.125.125-.125.157 0 .062.016.109.094.109.063 0 .235-.14.344-.219.047-.047.203-.156.312-.234l1.97 4.312c.062.156.108.156.202.156.156 0 .188-.046.25-.187L8.437 0C8.5-.14 8.5-.172 8.5-.203a.206.206 0 0 0-.203-.203c-.078 0-.14.062-.219.219Zm0 0" style="stroke:none"/></symbol><symbol id="l" overflow="visible"><path d="M1.172-2.172c0-1.625.812-2.047 1.344-2.047.093 0 .718.016 1.062.375-.406.031-.469.328-.469.453 0 .266.188.454.454.454.265 0 .468-.157.468-.47 0-.671-.765-1.062-1.531-1.062C1.25-4.469.344-3.39.344-2.156c0 1.281.984 2.265 2.14 2.265 1.329 0 1.657-1.203 1.657-1.296 0-.094-.11-.094-.141-.094-.078 0-.11.031-.125.093C3.594-.265 2.938-.14 2.578-.14c-.531 0-1.406-.421-1.406-2.03m0 0" style="stroke:none"/></symbol><symbol id="m" overflow="visible"><path d="M4.688-2.14c0-1.266-.985-2.329-2.188-2.329C1.25-4.469.281-3.375.281-2.14A2.22 2.22 0 0 0 2.484.11c1.204 0 2.204-.984 2.204-2.25M2.5-.14a1.28 1.28 0 0 1-1.14-.672c-.25-.438-.25-1.047-.25-1.407 0-.39 0-.922.234-1.36a1.35 1.35 0 0 1 1.14-.671c.438 0 .86.219 1.125.656.266.422.266 1 .266 1.375 0 .36 0 .906-.219 1.344-.234.453-.672.734-1.156.734m0 0" style="stroke:none"/></symbol><symbol id="n" overflow="visible"><path d="M2.078-1.937c.219.046 1.031.203 1.031.921 0 .5-.343.907-1.125.907-.843 0-1.203-.563-1.39-1.422-.031-.125-.031-.157-.14-.157-.126 0-.126.063-.126.235v1.328c0 .172 0 .234.11.234C.484.11.5.094.688-.094.703-.109.703-.125.89-.312c.437.406.89.421 1.093.421 1.141 0 1.61-.671 1.61-1.39 0-.516-.297-.828-.422-.938-.328-.328-.719-.406-1.14-.484-.563-.11-1.22-.235-1.22-.813 0-.359.25-.765 1.11-.765 1.094 0 1.156.906 1.172 1.203 0 .094.094.094.11.094.14 0 .14-.047.14-.235v-1.015c0-.157 0-.235-.11-.235-.046 0-.078 0-.203.125a2 2 0 0 1-.172.157c-.375-.282-.78-.282-.937-.282-1.219 0-1.594.672-1.594 1.235 0 .343.156.625.422.843.328.25.61.313 1.328.454m0 0" style="stroke:none"/></symbol><symbol id="o" overflow="visible"><path d="M3.297 2.39c0-.03 0-.046-.172-.218C1.891.922 1.563-.968 1.563-2.5c0-1.734.375-3.469 1.609-4.703.125-.125.125-.14.125-.172 0-.078-.031-.11-.094-.11-.11 0-1 .688-1.594 1.954C1.11-4.438.984-3.328.984-2.5c0 .781.11 1.984.657 3.125C2.25 1.844 3.094 2.5 3.203 2.5c.063 0 .094-.031.094-.11m0 0" style="stroke:none"/></symbol><symbol id="p" overflow="visible"><path d="M2.875-2.5c0-.766-.11-1.969-.656-3.11C1.625-6.827.766-7.483.672-7.483a.107.107 0 0 0-.11.109c0 .031 0 .047.188.234.984.985 1.547 2.563 1.547 4.641C2.297-.78 1.937.97.703 2.22c-.14.125-.14.14-.14.172 0 .062.046.109.109.109.094 0 1-.687 1.578-1.953.516-1.094.625-2.203.625-3.047m0 0" style="stroke:none"/></symbol><symbol id="q" overflow="visible"><path d="M6.844-3.266c.156 0 .343 0 .343-.187 0-.203-.187-.203-.328-.203H.891c-.141 0-.328 0-.328.203 0 .187.187.187.328.187Zm.015 1.938c.141 0 .329 0 .329-.203 0-.188-.188-.188-.344-.188H.89c-.141 0-.328 0-.328.188 0 .203.187.203.328.203Zm0 0" style="stroke:none"/></symbol><symbol id="t" overflow="visible"><path d="M4.078-2.297H6.86c.141 0 .329 0 .329-.203 0-.187-.188-.187-.329-.187H4.08v-2.797c0-.141 0-.328-.204-.328s-.203.187-.203.328v2.797H.89c-.141 0-.328 0-.328.187 0 .203.187.203.328.203h2.78V.5c0 .14 0 .328.204.328S4.078.641 4.078.5Zm0 0" style="stroke:none"/></symbol><symbol id="s" overflow="visible"><path d="M3.516-1.266H3.28c-.015.157-.094.563-.187.625-.047.047-.578.047-.688.047h-1.28c.734-.64.984-.843 1.39-1.172.516-.406 1-.843 1-1.5 0-.843-.734-1.359-1.624-1.359-.86 0-1.453.61-1.453 1.25 0 .344.296.39.375.39a.365.365 0 0 0 .359-.374c0-.125-.047-.375-.406-.375.218-.485.687-.641 1.015-.641.703 0 1.063.547 1.063 1.11 0 .609-.438 1.078-.656 1.328L.516-.266C.437-.203.437-.187.437 0h2.876Zm0 0" style="stroke:none"/></symbol></defs><path d="M0 106.086h301.39V0H0Zm0 0" style="stroke:none;fill-rule:nonzero;fill:#ffe4c8;fill-opacity:1"/><path d="M24.184 99.414V.2h5.668v99.215Zm0 0" style="stroke:none;fill-rule:nonzero;fill:#ccc;fill-opacity:1"/><path d="M24.184 48.387V37.05h5.668v11.336Zm0 0" style="stroke:none;fill-rule:nonzero;fill:#66f;fill-opacity:1"/><g style="fill:#66f;fill-opacity:1"><use xlink:href="#a" x="15.143" y="46.178"/><use xlink:href="#b" x="20.329" y="46.178"/></g><path d="M-.001 42.52 109.022 1.637" style="fill:none;stroke-width:.79701;stroke-linecap:butt;stroke-linejoin:miter;stroke:#000;stroke-opacity:1;stroke-dasharray:2.98883,2.98883;stroke-miterlimit:10" transform="matrix(1 0 0 -1 27.017 85.239)"/><path d="M140.402 85.238c-1.199-.726-3.03-2.242-4.168-3.636l-1.363 3.636c1.774-.3 4.149-.242 5.531 0" style="stroke:none;fill-rule:nonzero;fill:#000;fill-opacity:1"/><use xlink:href="#c" x="81.006" y="60.26" style="fill:#000;fill-opacity:1"/><use xlink:href="#d" x="81.325" y="60.26" style="fill:#000;fill-opacity:1"/><path d="M-.001 0h137.074" style="fill:none;stroke-width:.79701;stroke-linecap:butt;stroke-linejoin:miter;stroke:#000;stroke-opacity:1;stroke-miterlimit:10" transform="matrix(1 0 0 -1 27.017 85.239)"/><path d="M168.75 85.238c-1.379-.258-3.625-1.035-5.18-1.941v3.887c1.555-.91 3.801-1.688 5.18-1.946" style="stroke:none;fill-rule:nonzero;fill:#000;fill-opacity:1"/><use xlink:href="#e" x="164.75" y="95.765" style="fill:#000;fill-opacity:1"/><path d="M-.001 0v66.204" style="fill:none;stroke-width:.79701;stroke-linecap:butt;stroke-linejoin:miter;stroke:#000;stroke-opacity:1;stroke-miterlimit:10" transform="matrix(1 0 0 -1 27.017 85.239)"/><path d="M27.016 14.371c-.258 1.383-1.036 3.629-1.942 5.18h3.887c-.906-1.551-1.684-3.797-1.945-5.18" style="stroke:none;fill-rule:nonzero;fill:#000;fill-opacity:1"/><use xlink:href="#f" x="15.784" y="17.776" style="fill:#000;fill-opacity:1"/><path d="M113.385 0v67.282" style="fill:none;stroke-width:.3985;stroke-linecap:butt;stroke-linejoin:miter;stroke:#000;stroke-opacity:1;stroke-dasharray:2.98883,2.98883;stroke-miterlimit:10" transform="matrix(1 0 0 -1 27.017 85.239)"/><path d="M140.402 14.371c-.199 1.063-.797 2.79-1.492 3.984h2.988c-.695-1.195-1.296-2.921-1.496-3.984" style="stroke:none;fill-rule:nonzero;fill:#000;fill-opacity:1"/><use xlink:href="#c" x="143.536" y="17.931" style="fill:#000;fill-opacity:1"/><use xlink:href="#g" x="143.925" y="17.931" style="fill:#000;fill-opacity:1"/><path d="M-17.01.298v41.921" style="fill:none;stroke-width:.3985;stroke-linecap:butt;stroke-linejoin:miter;stroke:#000;stroke-opacity:1;stroke-miterlimit:10" transform="matrix(1 0 0 -1 27.017 85.239)"/><path d="M.099-2.59v5.179" style="fill:none;stroke-width:.3985;stroke-linecap:square;stroke-linejoin:miter;stroke:#000;stroke-opacity:1;stroke-miterlimit:10" transform="matrix(0 1 1 0 10.009 84.94)"/><path d="M.1-2.589v5.18" style="fill:none;stroke-width:.3985;stroke-linecap:square;stroke-linejoin:miter;stroke:#000;stroke-opacity:1;stroke-miterlimit:10" transform="matrix(0 -1 -1 0 10.009 43.018)"/><use xlink:href="#b" x="3.321" y="67.438" style="fill:#000;fill-opacity:1"/><path d="M.3-7.085h112.788" style="fill:none;stroke-width:.3985;stroke-linecap:butt;stroke-linejoin:miter;stroke:#000;stroke-opacity:1;stroke-miterlimit:10" transform="matrix(1 0 0 -1 27.017 85.239)"/><path d="M.101-2.591v5.18" style="fill:none;stroke-width:.3985;stroke-linecap:square;stroke-linejoin:miter;stroke:#000;stroke-opacity:1;stroke-miterlimit:10" transform="matrix(-1 0 0 1 27.316 92.326)"/><path d="M.098-2.588v5.18" style="fill:none;stroke-width:.3985;stroke-linecap:square;stroke-linejoin:miter;stroke:#000;stroke-opacity:1;stroke-miterlimit:10" transform="matrix(1 0 0 -1 140.105 92.326)"/><use xlink:href="#a" x="81.117" y="102.763" style="fill:#000;fill-opacity:1"/><path d="M-.001-14.175V85.04" style="fill:none;stroke-width:.3985;stroke-linecap:butt;stroke-linejoin:miter;stroke:#000;stroke-opacity:1;stroke-dasharray:2.98883,2.98883;stroke-miterlimit:10" transform="matrix(1 0 0 -1 27.017 85.239)"/><path d="M143.395 85.238a2.99 2.99 0 0 0-5.98 0 2.99 2.99 0 0 0 2.987 2.989 2.99 2.99 0 0 0 2.993-2.989m0 0" style="stroke:none;fill-rule:nonzero;fill:#00f;fill-opacity:1"/><use xlink:href="#h" x="143.923" y="81.719" style="fill:#00f;fill-opacity:1"/><path d="M-.001 62.364c7.09 0 13.64-3.785 17.187-9.922 2.93-5.078 3.465-11.2 3.055-12.328" style="fill:none;stroke-width:.79701;stroke-linecap:butt;stroke-linejoin:miter;stroke:red;stroke-opacity:1;stroke-dasharray:2.98883,2.98883;stroke-miterlimit:10" transform="matrix(1 0 0 -1 27.017 85.239)"/><path d="M45.664 49.504c.715-1.207 2.215-3.05 3.598-4.203l-3.653-1.328c.32 1.77.282 4.144.055 5.53" style="stroke:none;fill-rule:nonzero;fill:red;fill-opacity:1"/><use xlink:href="#i" x="46.99" y="34.797" style="fill:red;fill-opacity:1"/><path d="M-.001 22.677a19.85 19.85 0 0 1 18.648 13.058" style="fill:none;stroke-width:.79701;stroke-linecap:butt;stroke-linejoin:miter;stroke:#000;stroke-opacity:1;stroke-miterlimit:10" transform="matrix(1 0 0 -1 27.017 85.239)"/><use xlink:href="#j" x="29.585" y="69.61" style="fill:#000;fill-opacity:1"/><use xlink:href="#k" x="37.835" y="69.61" style="fill:#000;fill-opacity:1"/><use xlink:href="#i" x="47.797" y="69.61" style="fill:#000;fill-opacity:1"/><path d="M113.385 19.844A19.84 19.84 0 0 1 94.741 6.786" style="fill:none;stroke-width:.79701;stroke-linecap:butt;stroke-linejoin:miter;stroke:#000;stroke-opacity:1;stroke-miterlimit:10" transform="matrix(1 0 0 -1 27.017 85.239)"/><use xlink:href="#j" x="110.352" y="64.435" style="fill:#000;fill-opacity:1"/><use xlink:href="#k" x="118.602" y="64.435" style="fill:#000;fill-opacity:1"/><use xlink:href="#i" x="128.565" y="64.435" style="fill:#000;fill-opacity:1"/><g style="fill:#000;fill-opacity:1"><use xlink:href="#l" x="209.509" y="31.036"/><use xlink:href="#m" x="213.936" y="31.036"/><use xlink:href="#n" x="218.918" y="31.036"/></g><use xlink:href="#o" x="224.511" y="31.036" style="fill:#000;fill-opacity:1"/><use xlink:href="#j" x="228.382" y="31.036" style="fill:#000;fill-opacity:1"/><use xlink:href="#k" x="236.632" y="31.036" style="fill:#000;fill-opacity:1"/><use xlink:href="#i" x="246.595" y="31.036" style="fill:#000;fill-opacity:1"/><use xlink:href="#p" x="251.549" y="31.036" style="fill:#000;fill-opacity:1"/><use xlink:href="#q" x="258.193" y="31.036" style="fill:#000;fill-opacity:1"/><use xlink:href="#k" x="268.707" y="31.036" style="fill:#000;fill-opacity:1"/><g style="fill:#000;fill-opacity:1"><use xlink:href="#l" x="278.116" y="31.036"/><use xlink:href="#m" x="282.543" y="31.036"/><use xlink:href="#n" x="287.525" y="31.036"/></g><use xlink:href="#i" x="293.115" y="31.036" style="fill:#000;fill-opacity:1"/><g style="fill:#000;fill-opacity:1"><use xlink:href="#l" x="217.089" y="59.089"/><use xlink:href="#m" x="221.516" y="59.089"/><use xlink:href="#n" x="226.498" y="59.089"/></g><use xlink:href="#i" x="232.088" y="59.089" style="fill:#000;fill-opacity:1"/><use xlink:href="#q" x="239.809" y="59.089" style="fill:#000;fill-opacity:1"/><use xlink:href="#k" x="264.948" y="52.349" style="fill:#000;fill-opacity:1"/><use xlink:href="#b" x="272.697" y="52.349" style="fill:#000;fill-opacity:1"/><path d="M-.001 0h37.773" style="fill:none;stroke-width:.398;stroke-linecap:butt;stroke-linejoin:miter;stroke:#000;stroke-opacity:1;stroke-miterlimit:10" transform="matrix(1 0 0 -1 251.521 56.598)"/><use xlink:href="#r" x="251.521" y="58.79" style="fill:#000;fill-opacity:1"/><path d="M.001 0H29.47" style="fill:none;stroke-width:.398;stroke-linecap:butt;stroke-linejoin:miter;stroke:#000;stroke-opacity:1;stroke-miterlimit:10" transform="matrix(1 0 0 -1 259.823 58.59)"/><use xlink:href="#a" x="259.823" y="67.092" style="fill:#000;fill-opacity:1"/><use xlink:href="#s" x="265.009" y="64.214" style="fill:#000;fill-opacity:1"/><use xlink:href="#t" x="271.692" y="67.092" style="fill:#000;fill-opacity:1"/><use xlink:href="#b" x="281.654" y="67.092" style="fill:#000;fill-opacity:1"/><use xlink:href="#s" x="284.823" y="64.214" style="fill:#000;fill-opacity:1"/></svg>