<svg xmlns="http://www.w3.org/2000/svg" xmlns:xlink="http://www.w3.org/1999/xlink" width="400.963" height="260.065" viewBox="0 0 300.722 195.049"><defs><symbol id="a" overflow="visible"><path d="M2.047-3.984h.937c.204 0 .313 0 .313-.203 0-.11-.11-.11-.281-.11H2.14c.359-1.422.406-1.61.406-1.672 0-.172-.125-.265-.297-.265-.031 0-.312 0-.39.359l-.391 1.578H.53c-.203 0-.297 0-.297.188 0 .125.078.125.282.125h.875C.67-1.156.625-.984.625-.812c0 .546.375.921.922.921 1.016 0 1.578-1.453 1.578-1.53 0-.11-.078-.11-.11-.11-.093 0-.109.031-.156.14C2.438-.344 1.906-.109 1.563-.109c-.204 0-.313-.125-.313-.453 0-.25.031-.313.063-.485Zm0 0" style="stroke:none"/></symbol><symbol id="g" overflow="visible"><path d="M3.328-3.016c.063-.25.297-1.171.985-1.171.046 0 .296 0 .5.125a.58.58 0 0 0-.47.546c0 .157.11.344.376.344a.546.546 0 0 0 .531-.578c0-.516-.578-.656-.922-.656-.578 0-.922.531-1.047.75-.25-.656-.781-.75-1.078-.75-1.031 0-1.61 1.281-1.61 1.531 0 .11.11.11.126.11.078 0 .11-.032.125-.11.344-1.062 1-1.312 1.344-1.312.187 0 .53.093.53.671 0 .313-.171.97-.53 2.375-.157.61-.516 1.032-.954 1.032-.062 0-.28 0-.5-.125.25-.063.47-.266.47-.547 0-.266-.22-.344-.36-.344-.313 0-.547.25-.547.578 0 .453.484.656.922.656.672 0 1.031-.703 1.047-.75.125.36.484.75 1.078.75 1.031 0 1.594-1.28 1.594-1.53 0-.11-.079-.11-.11-.11-.094 0-.11.047-.14.11-.329 1.077-1 1.312-1.313 1.312-.39 0-.547-.313-.547-.657 0-.218.047-.437.156-.875Zm0 0" style="stroke:none"/></symbol><symbol id="i" overflow="visible"><path d="M1.328-.828c.531-.578.828-.828 1.188-1.14 0 0 .609-.532.968-.891.954-.922 1.172-1.407 1.172-1.453 0-.094-.093-.094-.11-.094-.077 0-.093.015-.155.11-.297.484-.5.64-.735.64-.25 0-.36-.156-.515-.328-.188-.22-.36-.422-.688-.422-.75 0-1.203.922-1.203 1.14 0 .047.031.11.11.11.093 0 .109-.047.14-.11.188-.468.766-.468.844-.468.203 0 .39.062.625.14.406.156.515.156.765.156-.359.422-1.187 1.141-1.375 1.297l-.906.844C.781-.625.422-.062.422.016c0 .093.11.093.125.093C.625.11.64.094.703-.016c.235-.359.531-.625.86-.625.218 0 .328.094.578.375.156.22.343.375.625.375 1 0 1.578-1.265 1.578-1.53 0-.048-.047-.11-.125-.11-.094 0-.11.062-.14.14-.235.641-.876.829-1.204.829-.187 0-.375-.063-.578-.125-.344-.125-.5-.172-.703-.172-.016 0-.172 0-.266.03m0 0" style="stroke:none"/></symbol><symbol id="k" overflow="visible"><path d="M4.844-3.797c.047-.14.047-.156.047-.234 0-.172-.141-.266-.297-.266a.46.46 0 0 0-.344.203c-.016.063-.11.36-.14.547-.079.25-.141.531-.204.797L3.453-.953c-.031.14-.469.844-1.125.844-.5 0-.61-.438-.61-.813 0-.453.173-1.078.5-1.953.157-.406.204-.516.204-.719 0-.437-.313-.812-.813-.812-.953 0-1.312 1.453-1.312 1.531 0 .11.094.11.11.11.109 0 .109-.032.156-.188.28-.938.671-1.235 1.015-1.235.078 0 .25 0 .25.313 0 .25-.11.516-.172.703-.406 1.063-.578 1.625-.578 2.094 0 .89.625 1.187 1.219 1.187.39 0 .719-.171 1-.453-.125.516-.25 1.016-.64 1.547-.266.328-.641.625-1.094.625-.141 0-.594-.031-.766-.422.156 0 .297 0 .422-.125a.5.5 0 0 0 .203-.406c0-.312-.266-.344-.36-.344C.829.531.5.687.5 1.171c0 .5.438.876 1.063.876 1.015 0 2.046-.906 2.328-2.031Zm0 0" style="stroke:none"/></symbol><symbol id="o" overflow="visible"><path d="M4.672-3.703c0-.547-.266-.703-.438-.703-.25 0-.5.265-.5.484 0 .125.047.188.157.297.218.203.343.453.343.813 0 .421-.609 2.703-1.765 2.703-.516 0-.75-.344-.75-.875 0-.547.281-1.282.578-2.11.078-.172.125-.312.125-.5 0-.437-.313-.812-.813-.812-.937 0-1.312 1.453-1.312 1.531 0 .11.094.11.11.11.109 0 .109-.032.156-.188.296-1 .718-1.235 1.015-1.235.078 0 .25 0 .25.313 0 .25-.11.531-.172.703-.437 1.156-.562 1.61-.562 2.047 0 1.078.875 1.234 1.328 1.234 1.672 0 2.25-3.296 2.25-3.812m0 0" style="stroke:none"/></symbol><symbol id="p" overflow="visible"><path d="M6.734-2.266c.11-.062.188-.109.188-.234 0-.11-.078-.156-.188-.219l-5.53-2.593c-.126-.079-.141-.079-.173-.079a.207.207 0 0 0-.203.204c0 .093.047.156.188.218L6.25-2.5 1.016-.016C.875.047.828.11.828.204c0 .109.094.202.203.202.032 0 .047 0 .172-.078Zm0 0" style="stroke:none"/></symbol><symbol id="b" overflow="visible"><path d="M6.844-3.266c.156 0 .343 0 .343-.187 0-.203-.187-.203-.328-.203H.891c-.141 0-.328 0-.328.203 0 .187.187.187.328.187Zm.015 1.938c.141 0 .329 0 .329-.203 0-.188-.188-.188-.344-.188H.89c-.141 0-.328 0-.328.188 0 .203.187.203.328.203Zm0 0" style="stroke:none"/></symbol><symbol id="c" overflow="visible"><path d="M4.578-3.187c0-.797-.047-1.594-.39-2.329C3.734-6.484 2.906-6.64 2.5-6.64c-.61 0-1.328.266-1.75 1.188-.312.687-.36 1.469-.36 2.266 0 .75.032 1.64.454 2.406a1.83 1.83 0 0 0 1.64 1c.532 0 1.297-.203 1.735-1.156.312-.688.36-1.47.36-2.25M2.484 0c-.39 0-.984-.25-1.156-1.203-.11-.594-.11-1.516-.11-2.11 0-.64 0-1.296.079-1.828.187-1.187.937-1.28 1.187-1.28.329 0 .985.187 1.172 1.171.11.563.11 1.313.11 1.938 0 .75 0 1.421-.11 2.062C3.5-.297 2.937 0 2.484 0m0 0" style="stroke:none"/></symbol><symbol id="d" overflow="visible"><path d="M7.875-5.828c.219-.094.234-.172.234-.25a.214.214 0 0 0-.218-.219c-.032 0-.032.016-.203.078l-6.47 2.985c-.218.093-.234.172-.234.25s0 .156.235.265L7.688.25c.156.078.171.078.203.078A.214.214 0 0 0 8.109.11c0-.078-.015-.156-.234-.25L1.719-2.969Zm0 0" style="stroke:none"/></symbol><symbol id="e" overflow="visible"><path d="M7.594-8.312c0-.11-.094-.11-.11-.11-.046 0-.062.016-.203.203-.078.078-.562.703-.578.719-.39-.781-1.187-.922-1.687-.922-1.516 0-2.891 1.39-2.891 2.75 0 .89.547 1.422 1.125 1.625.125.047.844.234 1.203.313.61.172.766.218 1.016.484.047.063.281.328.281.89 0 1.11-1.031 2.266-2.219 2.266-.984 0-2.078-.422-2.078-1.765 0-.22.047-.5.094-.625v-.125c0-.047-.016-.11-.11-.11-.109 0-.125.031-.171.235L.656-.031S.61.125.61.14c0 .11.093.11.124.11C.781.25.781.234.938.063l.546-.72c.282.423.907.907 2.016.907 1.547 0 2.953-1.5 2.953-2.984 0-.5-.125-.953-.578-1.391-.25-.25-.453-.312-1.562-.594-.797-.218-.907-.25-1.125-.437a1.24 1.24 0 0 1-.36-.907c0-1 1.016-2.03 2.156-2.03 1.172 0 1.72.718 1.72 1.859 0 .312-.063.625-.063.672 0 .109.093.109.14.109.11 0 .11-.031.157-.219Zm0 0" style="stroke:none"/></symbol><symbol id="f" overflow="visible"><path d="M7.875-2.719c.234-.11.234-.187.234-.265s-.015-.157-.234-.25L1.406-6.22c-.156-.062-.172-.078-.203-.078-.14 0-.219.11-.219.219 0 .14.094.187.25.25l6.141 2.844L1.219-.141C.984-.03.984.047.984.125a.21.21 0 0 0 .22.203c.03 0 .046 0 .202-.078Zm0 0" style="stroke:none"/></symbol><symbol id="l" overflow="visible"><path d="M2.016-3.297c.062-.11.062-.172.062-.219 0-.218-.187-.375-.406-.375-.266 0-.344.22-.375.329L.375-.547a.3.3 0 0 0-.047.11c0 .078.219.156.281.156.047 0 .047-.016.094-.125Zm0 0" style="stroke:none"/></symbol><clipPath id="h"><path d="M87 109h2v86.05h-2Zm0 0"/></clipPath><clipPath id="j"><path d="M66 134h66v61.05H66Zm0 0"/></clipPath><clipPath id="m"><path d="M87 143h2v52.05h-2Zm0 0"/></clipPath><clipPath id="n"><path d="M66 150h49v45.05H66Zm0 0"/></clipPath><clipPath id="q"><path d="M214 177h86.723v2H214Zm0 0"/></clipPath><clipPath id="r"><path d="M297 175h3.723v6H297Zm0 0"/></clipPath><clipPath id="s"><path d="M231 109h2v86.05h-2Zm0 0"/></clipPath><clipPath id="t"><path d="M211 134h65v61.05h-65Zm0 0"/></clipPath></defs><path d="M0 195.05h300.723V0H0Zm0 0" style="stroke:none;fill-rule:nonzero;fill:#ffe4c8;fill-opacity:1"/><use xlink:href="#a" x="76.794" y="10.774" style="fill:#000;fill-opacity:1"/><use xlink:href="#b" x="83.159" y="10.774" style="fill:#000;fill-opacity:1"/><use xlink:href="#c" x="93.678" y="10.774" style="fill:#000;fill-opacity:1"/><use xlink:href="#d" x="3.321" y="11.489" style="fill:#000;fill-opacity:1"/><use xlink:href="#e" x="15.75" y="11.489" style="fill:#000;fill-opacity:1"/><use xlink:href="#f" x="26.966" y="11.489" style="fill:#000;fill-opacity:1"/><path d="M-17.006-.002h84.332" style="fill:none;stroke-width:.79701;stroke-linecap:butt;stroke-linejoin:miter;stroke:#000;stroke-opacity:1;stroke-miterlimit:10" transform="matrix(1 0 0 -1 87.725 177.643)"/><path d="M-1.554 2.073C-1.425 1.295 0 .13.387-.002.001-.13-1.425-1.294-1.554-2.072" style="fill:none;stroke-width:.6376;stroke-linecap:round;stroke-linejoin:round;stroke:#000;stroke-opacity:1;stroke-miterlimit:10" transform="matrix(1 0 0 -1 155.05 177.643)"/><use xlink:href="#g" x="146.344" y="185.651" style="fill:#000;fill-opacity:1"/><g clip-path="url(#h)"><path d="M.002-17.01v84.337" style="fill:none;stroke-width:.79701;stroke-linecap:butt;stroke-linejoin:miter;stroke:#000;stroke-opacity:1;stroke-miterlimit:10" transform="matrix(1 0 0 -1 87.725 177.643)"/></g><path d="M-1.553 2.073C-1.424 1.295 0 .13.388-.002.001-.13-1.424-1.295-1.553-2.072" style="fill:none;stroke-width:.6376;stroke-linecap:round;stroke-linejoin:round;stroke:#000;stroke-opacity:1;stroke-miterlimit:10" transform="matrix(0 -1 -1 0 87.725 110.318)"/><use xlink:href="#i" x="91.444" y="117.62" style="fill:#000;fill-opacity:1"/><g clip-path="url(#j)"><path d="M-9.823-9.822 32.24 32.241" style="fill:none;stroke-width:.79701;stroke-linecap:butt;stroke-linejoin:miter;stroke:#000;stroke-opacity:1;stroke-miterlimit:10" transform="matrix(1 0 0 -1 87.725 177.643)"/></g><path d="M-1.552 2.072C-1.425 1.293 0 .128.388.001c-.39-.13-1.813-1.299-1.943-2.075" style="fill:none;stroke-width:.6376;stroke-linecap:round;stroke-linejoin:round;stroke:#000;stroke-opacity:1;stroke-miterlimit:10" transform="scale(1 -1)rotate(45 235.502 72.11)"/><use xlink:href="#k" x="117.844" y="139.247" style="fill:#000;fill-opacity:1"/><path d="M-17.006-.002H33.31" style="fill:none;stroke-width:.79701;stroke-linecap:butt;stroke-linejoin:miter;stroke:gray;stroke-opacity:1;stroke-dasharray:2.98883,2.98883;stroke-miterlimit:10" transform="matrix(1 0 0 -1 87.725 177.643)"/><path d="M-1.553 2.073C-1.423 1.295.002.13.39-.002.002-.13-1.424-1.294-1.553-2.072" style="fill:none;stroke-width:.6376;stroke-linecap:round;stroke-linejoin:round;stroke:gray;stroke-opacity:1;stroke-miterlimit:10" transform="matrix(1 0 0 -1 121.033 177.643)"/><use xlink:href="#g" x="109.533" y="188.852" style="fill:gray;fill-opacity:1"/><use xlink:href="#l" x="115.226" y="185.236" style="fill:gray;fill-opacity:1"/><g clip-path="url(#m)"><path d="M.002-17.01v50.317" style="fill:none;stroke-width:.79701;stroke-linecap:butt;stroke-linejoin:miter;stroke:gray;stroke-opacity:1;stroke-dasharray:2.98883,2.98883;stroke-miterlimit:10" transform="matrix(1 0 0 -1 87.725 177.643)"/></g><path d="M-1.556 2.073C-1.423 1.295 0 .13.39-.002 0-.13-1.423-1.295-1.556-2.072" style="fill:none;stroke-width:.6376;stroke-linecap:round;stroke-linejoin:round;stroke:gray;stroke-opacity:1;stroke-miterlimit:10" transform="matrix(0 -1 -1 0 87.725 144.335)"/><use xlink:href="#i" x="91.444" y="139.909" style="fill:gray;fill-opacity:1"/><use xlink:href="#l" x="96.516" y="136.293" style="fill:gray;fill-opacity:1"/><g clip-path="url(#n)"><path d="M-9.823-9.822 15.87 15.87" style="fill:none;stroke-width:.79701;stroke-linecap:butt;stroke-linejoin:miter;stroke:gray;stroke-opacity:1;stroke-dasharray:2.98883,2.98883;stroke-miterlimit:10" transform="matrix(1 0 0 -1 87.725 177.643)"/></g><path d="M-1.553 2.072C-1.423 1.296.002.13.389-.002.002-.13-1.423-1.295-1.553-2.071" style="fill:none;stroke-width:.6376;stroke-linecap:round;stroke-linejoin:round;stroke:gray;stroke-opacity:1;stroke-miterlimit:10" transform="scale(1 -1)rotate(45 247.077 44.164)"/><use xlink:href="#k" x="100.077" y="155.617" style="fill:gray;fill-opacity:1"/><use xlink:href="#l" x="105.319" y="152.002" style="fill:gray;fill-opacity:1"/><path d="M-12.756-.002v18.004" style="fill:none;stroke-width:.79701;stroke-linecap:butt;stroke-linejoin:miter;stroke:gray;stroke-opacity:1;stroke-miterlimit:10" transform="matrix(1 0 0 -1 87.725 177.643)"/><path d="M-1.556 2.071C-1.423 1.294 0 .13.39.001 0-.13-1.423-1.296-1.556-2.073" style="fill:none;stroke-width:.6376;stroke-linecap:round;stroke-linejoin:round;stroke:gray;stroke-opacity:1;stroke-miterlimit:10" transform="matrix(0 -1 -1 0 74.97 162.222)"/><path d="M-1.554 2.071C-1.425 1.294.001.13.387.001c-.386-.13-1.812-1.297-1.94-2.074" style="fill:none;stroke-width:.6376;stroke-linecap:round;stroke-linejoin:round;stroke:gray;stroke-opacity:1;stroke-miterlimit:10" transform="matrix(0 -1 -1 0 74.97 159.641)"/><use xlink:href="#o" x="66.064" y="161.079" style="fill:gray;fill-opacity:1"/><path d="M144.793 160.637a1.793 1.793 0 1 0-3.586 0 1.793 1.793 0 0 0 3.586 0m0 0" style="stroke:none;fill-rule:nonzero;fill:red;fill-opacity:1"/><path d="M55.275 17.006V35.01" style="fill:none;stroke-width:.79701;stroke-linecap:butt;stroke-linejoin:miter;stroke:gray;stroke-opacity:1;stroke-miterlimit:10" transform="matrix(1 0 0 -1 87.725 177.643)"/><path d="M-1.556 2.071C-1.423 1.294 0 .13.39.001 0-.13-1.423-1.296-1.556-2.074" style="fill:none;stroke-width:.6376;stroke-linecap:round;stroke-linejoin:round;stroke:gray;stroke-opacity:1;stroke-miterlimit:10" transform="matrix(0 -1 -1 0 143 145.214)"/><path d="M-1.554 2.071C-1.425 1.294.001.13.387.001c-.386-.13-1.812-1.297-1.94-2.075" style="fill:none;stroke-width:.6376;stroke-linecap:round;stroke-linejoin:round;stroke:gray;stroke-opacity:1;stroke-miterlimit:10" transform="matrix(0 -1 -1 0 143 142.634)"/><use xlink:href="#o" x="146.719" y="144.071" style="fill:gray;fill-opacity:1"/><use xlink:href="#a" x="221.361" y="10.58" style="fill:#000;fill-opacity:1"/><use xlink:href="#p" x="227.728" y="10.58" style="fill:#000;fill-opacity:1"/><use xlink:href="#c" x="238.242" y="10.58" style="fill:#000;fill-opacity:1"/><g clip-path="url(#q)"><path d="M127.56-.002h84.332" style="fill:none;stroke-width:.79701;stroke-linecap:butt;stroke-linejoin:miter;stroke:#000;stroke-opacity:1;stroke-miterlimit:10" transform="matrix(1 0 0 -1 87.725 177.643)"/></g><g clip-path="url(#r)"><path d="M-1.552 2.073C-1.423 1.295-.002.13.389-.002 0-.13-1.423-1.294-1.552-2.072" style="fill:none;stroke-width:.6376;stroke-linecap:round;stroke-linejoin:round;stroke:#000;stroke-opacity:1;stroke-miterlimit:10" transform="matrix(1 0 0 -1 299.619 177.643)"/></g><use xlink:href="#g" x="290.911" y="185.651" style="fill:#000;fill-opacity:1"/><g clip-path="url(#s)"><path d="M144.568-17.01v84.337" style="fill:none;stroke-width:.79701;stroke-linecap:butt;stroke-linejoin:miter;stroke:#000;stroke-opacity:1;stroke-miterlimit:10" transform="matrix(1 0 0 -1 87.725 177.643)"/></g><path d="M-1.553 2.07C-1.424 1.294 0 .13.388 0 .001-.128-1.424-1.296-1.553-2.074" style="fill:none;stroke-width:.6376;stroke-linecap:round;stroke-linejoin:round;stroke:#000;stroke-opacity:1;stroke-miterlimit:10" transform="matrix(0 -1 -1 0 232.293 110.318)"/><use xlink:href="#i" x="236.011" y="117.62" style="fill:#000;fill-opacity:1"/><g clip-path="url(#t)"><path d="m134.748-9.822 42.062 42.063" style="fill:none;stroke-width:.79701;stroke-linecap:butt;stroke-linejoin:miter;stroke:#000;stroke-opacity:1;stroke-miterlimit:10" transform="matrix(1 0 0 -1 87.725 177.643)"/></g><path d="M-1.553 2.074C-1.426 1.294-.001.129.389-.001c-.39-.13-1.815-1.295-1.945-2.071" style="fill:none;stroke-width:.6376;stroke-linecap:round;stroke-linejoin:round;stroke:#000;stroke-opacity:1;stroke-miterlimit:10" transform="scale(1 -1)rotate(45 307.787 246.62)"/><use xlink:href="#k" x="262.411" y="139.247" style="fill:#000;fill-opacity:1"/><path d="M127.56 102.05h58.82" style="fill:none;stroke-width:.79701;stroke-linecap:butt;stroke-linejoin:miter;stroke:gray;stroke-opacity:1;stroke-dasharray:2.98883,2.98883;stroke-miterlimit:10" transform="matrix(1 0 0 -1 87.725 177.643)"/><path d="M-1.556 2.071C-1.423 1.294 0 .13.39.001 0-.128-1.423-1.296-1.556-2.073" style="fill:none;stroke-width:.6376;stroke-linecap:round;stroke-linejoin:round;stroke:gray;stroke-opacity:1;stroke-miterlimit:10" transform="matrix(1 0 0 -1 274.106 75.595)"/><use xlink:href="#g" x="262.604" y="86.805" style="fill:gray;fill-opacity:1"/><use xlink:href="#l" x="268.298" y="83.189" style="fill:gray;fill-opacity:1"/><path d="M144.568 85.041v58.82" style="fill:none;stroke-width:.79701;stroke-linecap:butt;stroke-linejoin:miter;stroke:gray;stroke-opacity:1;stroke-dasharray:2.98883,2.98883;stroke-miterlimit:10" transform="matrix(1 0 0 -1 87.725 177.643)"/><path d="M-1.554 2.07C-1.425 1.294.001.13.387 0 .001-.128-1.425-1.296-1.554-2.074" style="fill:none;stroke-width:.6376;stroke-linecap:round;stroke-linejoin:round;stroke:gray;stroke-opacity:1;stroke-miterlimit:10" transform="matrix(0 -1 -1 0 232.293 33.782)"/><use xlink:href="#i" x="236.011" y="36.821" style="fill:gray;fill-opacity:1"/><use xlink:href="#l" x="241.082" y="33.206" style="fill:gray;fill-opacity:1"/><path d="m134.748 92.225 35.511 35.516" style="fill:none;stroke-width:.79701;stroke-linecap:butt;stroke-linejoin:miter;stroke:gray;stroke-opacity:1;stroke-dasharray:2.98883,2.98883;stroke-miterlimit:10" transform="matrix(1 0 0 -1 87.725 177.643)"/><path d="M-1.553 2.073C-1.426 1.293 0 .128.39-.002 0-.132-1.423-1.294-1.555-2.073" style="fill:none;stroke-width:.6376;stroke-linecap:round;stroke-linejoin:round;stroke:gray;stroke-opacity:1;stroke-miterlimit:10" transform="scale(1 -1)rotate(45 189.233 286.467)"/><use xlink:href="#k" x="254.465" y="43.748" style="fill:gray;fill-opacity:1"/><use xlink:href="#l" x="259.707" y="40.133" style="fill:gray;fill-opacity:1"/><path d="M131.814 102.05v18" style="fill:none;stroke-width:.79701;stroke-linecap:butt;stroke-linejoin:miter;stroke:gray;stroke-opacity:1;stroke-miterlimit:10" transform="matrix(1 0 0 -1 87.725 177.643)"/><path d="M-1.553 2.073C-1.424 1.296.002.128.388 0 .002-.13-1.424-1.293-1.553-2.07" style="fill:none;stroke-width:.6376;stroke-linecap:round;stroke-linejoin:round;stroke:gray;stroke-opacity:1;stroke-miterlimit:10" transform="matrix(0 -1 -1 0 219.538 60.173)"/><path d="M-1.555 2.073C-1.426 1.296-.001.128.39 0 0-.131-1.426-1.294-1.555-2.071" style="fill:none;stroke-width:.6376;stroke-linecap:round;stroke-linejoin:round;stroke:gray;stroke-opacity:1;stroke-miterlimit:10" transform="matrix(0 -1 -1 0 219.538 57.593)"/><use xlink:href="#o" x="210.631" y="59.032" style="fill:gray;fill-opacity:1"/><path d="M289.363 58.586a1.793 1.793 0 1 0-3.586 0 1.793 1.793 0 0 0 3.586 0m0 0" style="stroke:none;fill-rule:nonzero;fill:red;fill-opacity:1"/><path d="M199.845 119.057v18" style="fill:none;stroke-width:.79701;stroke-linecap:butt;stroke-linejoin:miter;stroke:gray;stroke-opacity:1;stroke-miterlimit:10" transform="matrix(1 0 0 -1 87.725 177.643)"/><path d="M-1.553 2.07C-1.424 1.294.002.13.388 0 .002-.129-1.424-1.297-1.553-2.074" style="fill:none;stroke-width:.6376;stroke-linecap:round;stroke-linejoin:round;stroke:gray;stroke-opacity:1;stroke-miterlimit:10" transform="matrix(0 -1 -1 0 287.57 43.166)"/><path d="M-1.555 2.07C-1.426 1.294-.001.13.39 0 0-.129-1.426-1.297-1.555-2.074" style="fill:none;stroke-width:.6376;stroke-linecap:round;stroke-linejoin:round;stroke:gray;stroke-opacity:1;stroke-miterlimit:10" transform="matrix(0 -1 -1 0 287.57 40.585)"/><use xlink:href="#o" x="291.287" y="42.024" style="fill:gray;fill-opacity:1"/></svg>