<svg xmlns="http://www.w3.org/2000/svg" xml:space="preserve" width="4401" height="2470" overflow="hidden"><defs><linearGradient id="b" x1="2200" x2="2200" y1="5" y2="1204" gradientUnits="userSpaceOnUse" spreadMethod="reflect"><stop offset="0" stop-color="#D9D9D9"/><stop offset=".22" stop-color="#A6A6A6"/><stop offset=".92" stop-color="#BFBFBF"/><stop offset="1" stop-color="#0D0D0D"/></linearGradient><linearGradient id="c" x1="2199" x2="2199" y1="1276" y2="2475" gradientUnits="userSpaceOnUse" spreadMethod="reflect"><stop offset="0" stop-color="#D9D9D9"/><stop offset=".22" stop-color="#A6A6A6"/><stop offset=".92" stop-color="#BFBFBF"/><stop offset="1" stop-color="#0D0D0D"/></linearGradient><linearGradient id="d" x1="2659.5" x2="2789.47" y1="321.5" y2="321.5" gradientUnits="userSpaceOnUse" spreadMethod="reflect"><stop offset="0" stop-color="#A6A6A6" stop-opacity="0"/><stop offset=".09" stop-color="#A6A6A6"/><stop offset=".81" stop-color="#262626"/><stop offset="1"/></linearGradient><linearGradient id="e" x1="2661.5" x2="2791.47" y1="331.5" y2="331.5" gradientUnits="userSpaceOnUse" spreadMethod="reflect"><stop offset="0" stop-color="#A6A6A6" stop-opacity="0"/><stop offset=".09" stop-color="#A6A6A6"/><stop offset=".81" stop-color="#262626"/><stop offset="1"/></linearGradient><linearGradient id="f" x1="2664.5" x2="2794.47" y1="340.5" y2="340.5" gradientUnits="userSpaceOnUse" spreadMethod="reflect"><stop offset="0" stop-color="#A6A6A6" stop-opacity="0"/><stop offset=".09" stop-color="#A6A6A6"/><stop offset=".81" stop-color="#262626"/><stop offset="1"/></linearGradient><linearGradient id="g" x1="2670.5" x2="2800.47" y1="350.5" y2="350.5" gradientUnits="userSpaceOnUse" spreadMethod="reflect"><stop offset="0" stop-color="#A6A6A6" stop-opacity="0"/><stop offset=".09" stop-color="#A6A6A6"/><stop offset=".81" stop-color="#262626"/><stop offset="1"/></linearGradient><linearGradient id="h" x1="2679.5" x2="2809.47" y1="359.5" y2="359.5" gradientUnits="userSpaceOnUse" spreadMethod="reflect"><stop offset="0" stop-color="#A6A6A6" stop-opacity="0"/><stop offset=".09" stop-color="#A6A6A6"/><stop offset=".81" stop-color="#262626"/><stop offset="1"/></linearGradient><linearGradient id="i" x1="2694.5" x2="2824.47" y1="369.5" y2="369.5" gradientUnits="userSpaceOnUse" spreadMethod="reflect"><stop offset="0" stop-color="#A6A6A6" stop-opacity="0"/><stop offset=".09" stop-color="#A6A6A6"/><stop offset=".81" stop-color="#262626"/><stop offset="1"/></linearGradient><linearGradient id="j" x1="0" x2="129.967" y1="0" y2="0" gradientUnits="userSpaceOnUse" spreadMethod="reflect"><stop offset="0" stop-color="#A6A6A6" stop-opacity="0"/><stop offset=".09" stop-color="#A6A6A6"/><stop offset=".81" stop-color="#262626"/><stop offset="1"/></linearGradient><linearGradient id="k" x1="0" x2="129.967" y1="0" y2="0" gradientUnits="userSpaceOnUse" spreadMethod="reflect"><stop offset="0" stop-color="#A6A6A6" stop-opacity="0"/><stop offset=".09" stop-color="#A6A6A6"/><stop offset=".81" stop-color="#262626"/><stop offset="1"/></linearGradient><linearGradient id="l" x1="0" x2="129.967" y1="0" y2="0" gradientUnits="userSpaceOnUse" spreadMethod="reflect"><stop offset="0" stop-color="#A6A6A6" stop-opacity="0"/><stop offset=".09" stop-color="#A6A6A6"/><stop offset=".81" stop-color="#262626"/><stop offset="1"/></linearGradient><linearGradient id="m" x1="0" x2="129.967" y1="0" y2="0" gradientUnits="userSpaceOnUse" spreadMethod="reflect"><stop offset="0" stop-color="#A6A6A6" stop-opacity="0"/><stop offset=".09" stop-color="#A6A6A6"/><stop offset=".81" stop-color="#262626"/><stop offset="1"/></linearGradient><linearGradient id="n" x1="0" x2="129.967" y1="0" y2="0" gradientUnits="userSpaceOnUse" spreadMethod="reflect"><stop offset="0" stop-color="#A6A6A6" stop-opacity="0"/><stop offset=".09" stop-color="#A6A6A6"/><stop offset=".81" stop-color="#262626"/><stop offset="1"/></linearGradient><linearGradient id="o" x1="0" x2="129.967" y1="0" y2="0" gradientUnits="userSpaceOnUse" spreadMethod="reflect"><stop offset="0" stop-color="#A6A6A6" stop-opacity="0"/><stop offset=".09" stop-color="#A6A6A6"/><stop offset=".81" stop-color="#262626"/><stop offset="1"/></linearGradient><linearGradient id="p" x1="2526" x2="2777.87" y1="1583" y2="1583" gradientUnits="userSpaceOnUse" spreadMethod="reflect"><stop offset="0" stop-color="#A6A6A6"/><stop offset=".13" stop-color="#AFABAB"/><stop offset=".81" stop-color="#262626"/><stop offset="1"/></linearGradient><linearGradient id="q" x1="2528" x2="2779.87" y1="1593" y2="1593" gradientUnits="userSpaceOnUse" spreadMethod="reflect"><stop offset="0" stop-color="#A6A6A6"/><stop offset=".13" stop-color="#AFABAB"/><stop offset=".81" stop-color="#262626"/><stop offset="1"/></linearGradient><linearGradient id="r" x1="2536" x2="2787.87" y1="1602" y2="1602" gradientUnits="userSpaceOnUse" spreadMethod="reflect"><stop offset="0" stop-color="#A6A6A6"/><stop offset=".13" stop-color="#AFABAB"/><stop offset=".81" stop-color="#262626"/><stop offset="1"/></linearGradient><linearGradient id="s" x1="2547" x2="2798.87" y1="1612" y2="1612" gradientUnits="userSpaceOnUse" spreadMethod="reflect"><stop offset="0" stop-color="#A6A6A6"/><stop offset=".13" stop-color="#AFABAB"/><stop offset=".81" stop-color="#262626"/><stop offset="1"/></linearGradient><linearGradient id="t" x1="2565" x2="2816.87" y1="1622" y2="1622" gradientUnits="userSpaceOnUse" spreadMethod="reflect"><stop offset="0" stop-color="#A6A6A6"/><stop offset=".13" stop-color="#AFABAB"/><stop offset=".81" stop-color="#262626"/><stop offset="1"/></linearGradient><linearGradient id="u" x1="2595" x2="2846.87" y1="1631" y2="1631" gradientUnits="userSpaceOnUse" spreadMethod="reflect"><stop offset="0" stop-color="#A6A6A6"/><stop offset=".13" stop-color="#AFABAB"/><stop offset=".81" stop-color="#262626"/><stop offset="1"/></linearGradient><linearGradient id="v" x1="0" x2="251.874" y1="0" y2="0" gradientUnits="userSpaceOnUse" spreadMethod="reflect"><stop offset="0" stop-color="#A6A6A6"/><stop offset=".13" stop-color="#AFABAB"/><stop offset=".81" stop-color="#262626"/><stop offset="1"/></linearGradient><linearGradient id="w" x1="0" x2="251.874" y1="0" y2="0" gradientUnits="userSpaceOnUse" spreadMethod="reflect"><stop offset="0" stop-color="#A6A6A6"/><stop offset=".13" stop-color="#AFABAB"/><stop offset=".81" stop-color="#262626"/><stop offset="1"/></linearGradient><linearGradient id="x" x1="0" x2="251.874" y1="0" y2="0" gradientUnits="userSpaceOnUse" spreadMethod="reflect"><stop offset="0" stop-color="#A6A6A6"/><stop offset=".13" stop-color="#AFABAB"/><stop offset=".81" stop-color="#262626"/><stop offset="1"/></linearGradient><linearGradient id="y" x1="0" x2="251.874" y1="0" y2="0" gradientUnits="userSpaceOnUse" spreadMethod="reflect"><stop offset="0" stop-color="#A6A6A6"/><stop offset=".13" stop-color="#AFABAB"/><stop offset=".81" stop-color="#262626"/><stop offset="1"/></linearGradient><linearGradient id="z" x1="0" x2="251.874" y1="0" y2="0" gradientUnits="userSpaceOnUse" spreadMethod="reflect"><stop offset="0" stop-color="#A6A6A6"/><stop offset=".13" stop-color="#AFABAB"/><stop offset=".81" stop-color="#262626"/><stop offset="1"/></linearGradient><linearGradient id="A" x1="0" x2="251.874" y1="0" y2="0" gradientUnits="userSpaceOnUse" spreadMethod="reflect"><stop offset="0" stop-color="#A6A6A6"/><stop offset=".13" stop-color="#AFABAB"/><stop offset=".81" stop-color="#262626"/><stop offset="1"/></linearGradient><linearGradient id="B" x1="1031" x2="1518.2" y1="2069" y2="2069" gradientUnits="userSpaceOnUse" spreadMethod="reflect"><stop offset="0" stop-color="#A6A6A6" stop-opacity="0"/><stop offset=".28" stop-color="#767171"/><stop offset=".81" stop-color="#262626"/><stop offset="1"/></linearGradient><linearGradient id="C" x1="1036" x2="1523.21" y1="2089" y2="2089" gradientUnits="userSpaceOnUse" spreadMethod="reflect"><stop offset="0" stop-color="#A6A6A6" stop-opacity="0"/><stop offset=".28" stop-color="#767171"/><stop offset=".81" stop-color="#262626"/><stop offset="1"/></linearGradient><linearGradient id="D" x1="1051" x2="1538.2" y1="2109" y2="2109" gradientUnits="userSpaceOnUse" spreadMethod="reflect"><stop offset="0" stop-color="#A6A6A6" stop-opacity="0"/><stop offset=".28" stop-color="#767171"/><stop offset=".81" stop-color="#262626"/><stop offset="1"/></linearGradient><linearGradient id="E" x1="1073" x2="1560.2" y1="2130" y2="2130" gradientUnits="userSpaceOnUse" spreadMethod="reflect"><stop offset="0" stop-color="#A6A6A6" stop-opacity="0"/><stop offset=".28" stop-color="#767171"/><stop offset=".81" stop-color="#262626"/><stop offset="1"/></linearGradient><linearGradient id="F" x1="1108" x2="1595.2" y1="2150" y2="2150" gradientUnits="userSpaceOnUse" spreadMethod="reflect"><stop offset="0" stop-color="#A6A6A6" stop-opacity="0"/><stop offset=".28" stop-color="#767171"/><stop offset=".81" stop-color="#262626"/><stop offset="1"/></linearGradient><linearGradient id="G" x1="1166" x2="1653.2" y1="2170" y2="2170" gradientUnits="userSpaceOnUse" spreadMethod="reflect"><stop offset="0" stop-color="#A6A6A6" stop-opacity="0"/><stop offset=".28" stop-color="#767171"/><stop offset=".81" stop-color="#262626"/><stop offset="1"/></linearGradient><linearGradient id="H" x1="0" x2="487.205" y1="0" y2="0" gradientUnits="userSpaceOnUse" spreadMethod="reflect"><stop offset="0" stop-color="#A6A6A6" stop-opacity="0"/><stop offset=".28" stop-color="#767171"/><stop offset=".81" stop-color="#262626"/><stop offset="1"/></linearGradient><linearGradient id="I" x1="0" x2="487.205" y1="0" y2="0" gradientUnits="userSpaceOnUse" spreadMethod="reflect"><stop offset="0" stop-color="#A6A6A6" stop-opacity="0"/><stop offset=".28" stop-color="#767171"/><stop offset=".81" stop-color="#262626"/><stop offset="1"/></linearGradient><linearGradient id="J" x1="0" x2="487.205" y1="0" y2="0" gradientUnits="userSpaceOnUse" spreadMethod="reflect"><stop offset="0" stop-color="#A6A6A6" stop-opacity="0"/><stop offset=".28" stop-color="#767171"/><stop offset=".81" stop-color="#262626"/><stop offset="1"/></linearGradient><linearGradient id="K" x1="0" x2="487.205" y1="0" y2="0" gradientUnits="userSpaceOnUse" spreadMethod="reflect"><stop offset="0" stop-color="#A6A6A6" stop-opacity="0"/><stop offset=".28" stop-color="#767171"/><stop offset=".81" stop-color="#262626"/><stop offset="1"/></linearGradient><linearGradient id="L" x1="0" x2="487.205" y1="0" y2="0" gradientUnits="userSpaceOnUse" spreadMethod="reflect"><stop offset="0" stop-color="#A6A6A6" stop-opacity="0"/><stop offset=".28" stop-color="#767171"/><stop offset=".81" stop-color="#262626"/><stop offset="1"/></linearGradient><linearGradient id="M" x1="0" x2="487.205" y1="0" y2="0" gradientUnits="userSpaceOnUse" spreadMethod="reflect"><stop offset="0" stop-color="#A6A6A6" stop-opacity="0"/><stop offset=".28" stop-color="#767171"/><stop offset=".81" stop-color="#262626"/><stop offset="1"/></linearGradient><linearGradient id="N" x1="1016" x2="1503.2" y1="2292" y2="2292" gradientUnits="userSpaceOnUse" spreadMethod="reflect"><stop offset="0" stop-color="#A6A6A6" stop-opacity="0"/><stop offset=".55" stop-color="#767171"/><stop offset=".81" stop-color="#262626"/><stop offset="1"/></linearGradient><linearGradient id="O" x1="1021" x2="1508.2" y1="2308" y2="2308" gradientUnits="userSpaceOnUse" spreadMethod="reflect"><stop offset="0" stop-color="#A6A6A6" stop-opacity="0"/><stop offset=".55" stop-color="#767171"/><stop offset=".81" stop-color="#262626"/><stop offset="1"/></linearGradient><linearGradient id="P" x1="1036" x2="1523.2" y1="2324" y2="2324" gradientUnits="userSpaceOnUse" spreadMethod="reflect"><stop offset="0" stop-color="#A6A6A6" stop-opacity="0"/><stop offset=".55" stop-color="#767171"/><stop offset=".81" stop-color="#262626"/><stop offset="1"/></linearGradient><linearGradient id="Q" x1="1058" x2="1545.2" y1="2340" y2="2340" gradientUnits="userSpaceOnUse" spreadMethod="reflect"><stop offset="0" stop-color="#A6A6A6" stop-opacity="0"/><stop offset=".55" stop-color="#767171"/><stop offset=".81" stop-color="#262626"/><stop offset="1"/></linearGradient><linearGradient id="R" x1="0" x2="487.205" y1="0" y2="0" gradientUnits="userSpaceOnUse" spreadMethod="reflect"><stop offset="0" stop-color="#A6A6A6" stop-opacity="0"/><stop offset=".55" stop-color="#767171"/><stop offset=".81" stop-color="#262626"/><stop offset="1"/></linearGradient><linearGradient id="S" x1="0" x2="487.205" y1="0" y2="0" gradientUnits="userSpaceOnUse" spreadMethod="reflect"><stop offset="0" stop-color="#A6A6A6" stop-opacity="0"/><stop offset=".55" stop-color="#767171"/><stop offset=".81" stop-color="#262626"/><stop offset="1"/></linearGradient><linearGradient id="T" x1="0" x2="487.205" y1="0" y2="0" gradientUnits="userSpaceOnUse" spreadMethod="reflect"><stop offset="0" stop-color="#A6A6A6" stop-opacity="0"/><stop offset=".55" stop-color="#767171"/><stop offset=".81" stop-color="#262626"/><stop offset="1"/></linearGradient><linearGradient id="U" x1="0" x2="487.205" y1="0" y2="0" gradientUnits="userSpaceOnUse" spreadMethod="reflect"><stop offset="0" stop-color="#A6A6A6" stop-opacity="0"/><stop offset=".55" stop-color="#767171"/><stop offset=".81" stop-color="#262626"/><stop offset="1"/></linearGradient><linearGradient id="V" x1="555.937" x2="348.771" y1="641.5" y2="641.5" gradientUnits="userSpaceOnUse" spreadMethod="reflect"><stop offset="0" stop-color="#A6A6A6" stop-opacity="0"/><stop offset=".09" stop-color="#A6A6A6"/><stop offset=".81" stop-color="#262626"/><stop offset="1"/></linearGradient><linearGradient id="W" x1="552.937" x2="345.771" y1="626.5" y2="626.5" gradientUnits="userSpaceOnUse" spreadMethod="reflect"><stop offset="0" stop-color="#A6A6A6" stop-opacity="0"/><stop offset=".09" stop-color="#A6A6A6"/><stop offset=".81" stop-color="#262626"/><stop offset="1"/></linearGradient><linearGradient id="X" x1="546.937" x2="339.771" y1="611.5" y2="611.5" gradientUnits="userSpaceOnUse" spreadMethod="reflect"><stop offset="0" stop-color="#A6A6A6" stop-opacity="0"/><stop offset=".09" stop-color="#A6A6A6"/><stop offset=".81" stop-color="#262626"/><stop offset="1"/></linearGradient><linearGradient id="Y" x1="537.937" x2="330.771" y1="595.5" y2="595.5" gradientUnits="userSpaceOnUse" spreadMethod="reflect"><stop offset="0" stop-color="#A6A6A6" stop-opacity="0"/><stop offset=".09" stop-color="#A6A6A6"/><stop offset=".81" stop-color="#262626"/><stop offset="1"/></linearGradient><linearGradient id="Z" x1="522.937" x2="315.771" y1="580.5" y2="580.5" gradientUnits="userSpaceOnUse" spreadMethod="reflect"><stop offset="0" stop-color="#A6A6A6" stop-opacity="0"/><stop offset=".09" stop-color="#A6A6A6"/><stop offset=".81" stop-color="#262626"/><stop offset="1"/></linearGradient><linearGradient id="aa" x1="498.937" x2="291.771" y1="568.5" y2="568.5" gradientUnits="userSpaceOnUse" spreadMethod="reflect"><stop offset="0" stop-color="#A6A6A6" stop-opacity="0"/><stop offset=".09" stop-color="#A6A6A6"/><stop offset=".81" stop-color="#262626"/><stop offset="1"/></linearGradient><linearGradient id="ab" x1="0" x2="207.166" y1="0" y2="0" gradientUnits="userSpaceOnUse" spreadMethod="reflect"><stop offset="0" stop-color="#A6A6A6" stop-opacity="0"/><stop offset=".09" stop-color="#A6A6A6"/><stop offset=".81" stop-color="#262626"/><stop offset="1"/></linearGradient><linearGradient id="ac" x1="0" x2="207.166" y1="0" y2="0" gradientUnits="userSpaceOnUse" spreadMethod="reflect"><stop offset="0" stop-color="#A6A6A6" stop-opacity="0"/><stop offset=".09" stop-color="#A6A6A6"/><stop offset=".81" stop-color="#262626"/><stop offset="1"/></linearGradient><linearGradient id="ad" x1="0" x2="207.166" y1="0" y2="0" gradientUnits="userSpaceOnUse" spreadMethod="reflect"><stop offset="0" stop-color="#A6A6A6" stop-opacity="0"/><stop offset=".09" stop-color="#A6A6A6"/><stop offset=".81" stop-color="#262626"/><stop offset="1"/></linearGradient><linearGradient id="ae" x1="0" x2="207.166" y1="0" y2="0" gradientUnits="userSpaceOnUse" spreadMethod="reflect"><stop offset="0" stop-color="#A6A6A6" stop-opacity="0"/><stop offset=".09" stop-color="#A6A6A6"/><stop offset=".81" stop-color="#262626"/><stop offset="1"/></linearGradient><linearGradient id="af" x1="0" x2="207.166" y1="0" y2="0" gradientUnits="userSpaceOnUse" spreadMethod="reflect"><stop offset="0" stop-color="#A6A6A6" stop-opacity="0"/><stop offset=".09" stop-color="#A6A6A6"/><stop offset=".81" stop-color="#262626"/><stop offset="1"/></linearGradient><linearGradient id="ag" x1="0" x2="207.166" y1="0" y2="0" gradientUnits="userSpaceOnUse" spreadMethod="reflect"><stop offset="0" stop-color="#A6A6A6" stop-opacity="0"/><stop offset=".09" stop-color="#A6A6A6"/><stop offset=".81" stop-color="#262626"/><stop offset="1"/></linearGradient><clipPath id="a"><path d="M-1 5h4401v2470H-1z"/></clipPath></defs><g clip-path="url(#a)" transform="translate(1 -5)"><path fill="url(#b)" d="M0 5h4400v1199H0z"/><path fill="url(#c)" d="M-1 1276h4400v1199H-1z"/><path fill-rule="evenodd" d="M2209.67 493.861c-5.92 95.099-87.86 167.513-183 161.591-95.19-5.925-167.47-87.932-161.55-183.037 5.92-95.144 87.81-167.561 183-161.636 95.15 5.923 167.47 87.938 161.55 183.082l-48.24-3.003c4.26-68.492-47.83-127.497-116.32-131.76s-127.5 47.827-131.76 116.319c-4.26 68.454 47.83 127.453 116.32 131.716s127.5-47.833 131.76-116.275z"/><path fill-rule="evenodd" d="M2487.25 248.967c-17.48 18.501-39.27 17.144-39.27 17.144l-573.68-23.147c-52.33-1.446-64.42 39.453-67.07 62.857a27.68 27.68 0 0 0-22.19-13.63c-15.33-.954-28.48 10.652-29.44 26.027-.95 15.285 10.66 28.346 25.99 29.301 10.71.666 20.34-4.881 25.48-13.448 1.56 14.735 7.14 39.403 26.49 53.784l-104.43 148.262-53.77 2.001 1.09-17.619-70.43.659 1.51 95.788 167.51-10.046 99.81-143.687 51.3-67.513 26.06-1.739 51.64 58.49c-4.18 4.568-7.42 9.884-9.48 15.993l-98.72-6.145-1.09 17.496 97.48 6.067c.4 7.055 2.29 13.71 5.63 19.674l-72.34 63.814 11.57 13.104 72.06-63.661c5.48 4.365 12.01 7.335 19.13 8.882l-6 96.424 17.39 1.083 6.06-97.258c6.66-1.176 12.85-3.887 18.17-7.71l65.47 74.196 13.06-11.57-66.57-75.205c3.23-4.877 5.33-10.326 6.4-16.186l101.88 6.341 1.09-17.489-103.11-6.418c-1.05-5.193-2.91-10.132-5.59-14.543l77.86-68.734-8.17-9.35 303.02-19.876s21.66-1.924 39.63 18.342zm-450.5 139.462-3.07 49.334c-5.6.58-10.91 2.021-15.79 4.366l-43.7-49.591zm27.83 58.021c-4.06-2.952-8.65-5.225-13.55-6.77l3.26-52.463 83.51-5.414z"/><path fill="none" stroke="url(#d)" stroke-miterlimit="8" stroke-width="11.458" d="M2659.5 321.5h124.24"/><path fill="none" stroke="url(#e)" stroke-miterlimit="8" stroke-width="11.458" d="M2661.5 331.5h124.24"/><path fill="none" stroke="url(#f)" stroke-miterlimit="8" stroke-width="11.458" d="m2664.5 340.5 124.24.001"/><path fill="none" stroke="url(#g)" stroke-miterlimit="8" stroke-width="11.458" d="M2670.5 350.5h124.24"/><path fill="none" stroke="url(#h)" stroke-miterlimit="8" stroke-width="11.458" d="M2679.5 359.5h124.24"/><path fill="none" stroke="url(#i)" stroke-miterlimit="8" stroke-width="11.458" d="M2694.5 369.5h124.24"/><path fill="none" stroke="url(#j)" stroke-miterlimit="8" stroke-width="11.458" d="M0 0h124.238" transform="matrix(1 0 0 -1 2660.5 311.5)"/><path fill="none" stroke="url(#k)" stroke-miterlimit="8" stroke-width="11.458" d="M0 0h124.238" transform="matrix(1 0 0 -1 2662.5 301.5)"/><path fill="none" stroke="url(#l)" stroke-miterlimit="8" stroke-width="11.458" d="M0 0h124.238" transform="matrix(1 0 0 -1 2665.5 292.5)"/><path fill="none" stroke="url(#m)" stroke-miterlimit="8" stroke-width="11.458" d="M0 0h124.238" transform="matrix(1 0 0 -1 2672.5 282.5)"/><path fill="none" stroke="url(#n)" stroke-miterlimit="8" stroke-width="11.458" d="M0 0h124.238" transform="matrix(1 0 0 -1 2681.5 273.5)"/><path fill="none" stroke="url(#o)" stroke-miterlimit="8" stroke-width="11.458" d="M0 0h124.238" transform="matrix(1 0 0 -1 2696.5 263.5)"/><path fill="#3B3838" fill-rule="evenodd" d="M2759 317c0-33.689 27.31-61 61-61s61 27.311 61 61-27.31 61-61 61-61-27.311-61-61"/><path fill-rule="evenodd" d="M1755 1092c0 43.08-34.92 78-78 78s-78-34.92-78-78 34.92-78 78-78 78 34.92 78 78m804-2c0 43.08-34.92 78-78 78s-78-34.92-78-78 34.92-78 78-78 78 34.92 78 78"/><path fill-rule="evenodd" stroke="#0D0D0D" stroke-miterlimit="8" stroke-width="10.313" d="M1501 655h793v267h-793Z"/><path fill-rule="evenodd" d="M2362.43 709.445h71.14c21.34 0 40.32 14.233 45.06 34.397l23.71 81.841c0 1.187 1.19 1.187 1.19 2.373h-141.1zM2433.57 662H2315v427h47.43c0-65.24 53.36-118.611 118.57-118.611s118.57 53.371 118.57 118.611c26.09 0 47.43-21.35 47.43-47.44V922.944c0-15.419-7.11-28.466-18.97-37.955l-62.84-47.445c-8.3-5.93-14.23-15.419-16.6-24.908l-23.72-81.842c-11.86-40.327-49.8-68.794-91.3-68.794M2124 1089h-333.75c0-61.29-50.06-111.429-111.25-111.429S1567.75 1027.71 1567.75 1089H1501V933h623z"/><path fill-rule="evenodd" d="M2298 1089h-225c0-61.29-33.75-111.429-75-111.429s-75 50.139-75 111.429h-45V933h420z"/><path fill="none" stroke="url(#p)" stroke-miterlimit="8" stroke-width="10.313" d="M2526 1583h246.72"/><path fill="none" stroke="url(#q)" stroke-miterlimit="8" stroke-width="10.313" d="M2528 1593h246.72"/><path fill="none" stroke="url(#r)" stroke-miterlimit="8" stroke-width="10.313" d="M2536 1602h246.72"/><path fill="none" stroke="url(#s)" stroke-miterlimit="8" stroke-width="10.313" d="M2547 1612h246.72"/><path fill="none" stroke="url(#t)" stroke-miterlimit="8" stroke-width="10.313" d="M2565 1622h246.72"/><path fill="none" stroke="url(#u)" stroke-miterlimit="8" stroke-width="10.313" d="M2595 1631h246.72"/><path fill="none" stroke="url(#v)" stroke-miterlimit="8" stroke-width="10.313" d="M0 0h246.718" transform="matrix(1 0 0 -1 2526 1573)"/><path fill="none" stroke="url(#w)" stroke-miterlimit="8" stroke-width="10.313" d="M0 0h246.718" transform="matrix(1 0 0 -1 2530 1564)"/><path fill="none" stroke="url(#x)" stroke-miterlimit="8" stroke-width="10.313" d="M0 0h246.718" transform="matrix(1 0 0 -1 2537 1554)"/><path fill="none" stroke="url(#y)" stroke-miterlimit="8" stroke-width="10.313" d="M0 0h246.718" transform="matrix(1 0 0 -1 2550 1544)"/><path fill="none" stroke="url(#z)" stroke-miterlimit="8" stroke-width="10.313" d="M0 0h246.718" transform="matrix(1 0 0 -1 2568 1535)"/><path fill="none" stroke="url(#A)" stroke-miterlimit="8" stroke-width="10.313" d="M0 0h246.718" transform="matrix(1 0 0 -1 2598 1525)"/><path fill="#3B3838" fill-rule="evenodd" d="M2770 1579c0-33.69 27.31-61 61-61s61 27.31 61 61-27.31 61-61 61-61-27.31-61-61"/><path fill-rule="evenodd" d="M2209.67 1763.9c-5.92 95.1-87.86 167.52-183 161.59-95.19-5.92-167.47-87.93-161.55-183.03 5.92-95.15 87.81-167.56 183-161.64 95.15 5.92 167.47 87.94 161.55 183.08l-48.24-3c4.26-68.49-47.83-127.5-116.32-131.76s-127.5 47.83-131.76 116.32c-4.26 68.45 47.83 127.45 116.32 131.72 68.49 4.26 127.5-47.84 131.76-116.28z"/><path fill-rule="evenodd" d="M2487.25 1519.01c-17.48 18.5-39.27 17.14-39.27 17.14l-573.68-23.14c-52.33-1.45-64.42 39.45-67.07 62.85a27.72 27.72 0 0 0-22.19-13.63c-15.33-.95-28.48 10.66-29.44 26.03-.95 15.29 10.66 28.35 25.99 29.3 10.71.67 20.34-4.88 25.48-13.45 1.56 14.74 7.14 39.41 26.49 53.79l-104.43 148.26-53.77 2 1.09-17.62-70.43.66 1.51 95.79 167.51-10.05 99.81-143.68 51.3-67.52 26.06-1.74 51.64 58.49c-4.18 4.57-7.42 9.89-9.48 16l-98.72-6.15-1.09 17.5 97.48 6.07c.4 7.05 2.29 13.7 5.63 19.67l-72.34 63.81 11.57 13.11 72.06-63.66c5.48 4.36 12.01 7.33 19.13 8.88l-6 96.42 17.39 1.08 6.06-97.25c6.66-1.18 12.85-3.89 18.17-7.71l65.47 74.19 13.06-11.57-66.57-75.2c3.23-4.88 5.33-10.33 6.4-16.19l101.88 6.34 1.09-17.49-103.11-6.41c-1.05-5.2-2.91-10.14-5.59-14.55l77.86-68.73-8.17-9.35 303.02-19.88s21.66-1.92 39.63 18.35zm-450.5 139.46-3.07 49.34c-5.6.58-10.91 2.02-15.79 4.36l-43.7-49.59zm27.83 58.02c-4.06-2.95-8.65-5.22-13.55-6.77l3.26-52.46 83.51-5.41z"/><path fill="none" stroke="url(#B)" stroke-miterlimit="8" stroke-width="10.313" d="M1031 2069h482.05"/><path fill="none" stroke="url(#C)" stroke-miterlimit="8" stroke-width="10.313" d="M1036 2089h482.05"/><path fill="none" stroke="url(#D)" stroke-miterlimit="8" stroke-width="10.313" d="M1051 2109h482.05"/><path fill="none" stroke="url(#E)" stroke-miterlimit="8" stroke-width="10.313" d="M1073 2130h482.05"/><path fill="none" stroke="url(#F)" stroke-miterlimit="8" stroke-width="10.313" d="M1108 2150h482.05"/><path fill="none" stroke="url(#G)" stroke-miterlimit="8" stroke-width="10.313" d="M1166 2170h482.05"/><path fill="none" stroke="url(#H)" stroke-miterlimit="8" stroke-width="10.313" d="M0 0h482.049" transform="matrix(1 0 0 -1 1033 2047)"/><path fill="none" stroke="url(#I)" stroke-miterlimit="8" stroke-width="10.313" d="M0 0h482.049" transform="matrix(1 0 0 -1 1040 2027)"/><path fill="none" stroke="url(#J)" stroke-miterlimit="8" stroke-width="10.313" d="M0 0h482.049" transform="matrix(1 0 0 -1 1054 2007)"/><path fill="none" stroke="url(#K)" stroke-miterlimit="8" stroke-width="10.313" d="M0 0h482.049" transform="matrix(1 0 0 -1 1078 1986)"/><path fill="none" stroke="url(#L)" stroke-miterlimit="8" stroke-width="10.313" d="M0 0h482.049" transform="matrix(1 0 0 -1 1114 1966)"/><path fill="none" stroke="url(#M)" stroke-miterlimit="8" stroke-width="10.313" d="M0 0h482.049" transform="matrix(1 0 0 -1 1174 1946)"/><path fill="#3B3838" fill-rule="evenodd" d="M1509 2060c0-71.24 53.05-129 118.5-129s118.5 57.76 118.5 129-53.05 129-118.5 129-118.5-57.76-118.5-129"/><path fill="none" stroke="url(#N)" stroke-miterlimit="8" stroke-width="10.313" d="M1016 2292h482.05"/><path fill="none" stroke="url(#O)" stroke-miterlimit="8" stroke-width="10.313" d="M1021 2308h482.05"/><path fill="none" stroke="url(#P)" stroke-miterlimit="8" stroke-width="10.313" d="M1036 2324h482.05"/><path fill="none" stroke="url(#Q)" stroke-miterlimit="8" stroke-width="10.313" d="M1058 2340h482.05"/><path fill="none" stroke="url(#R)" stroke-miterlimit="8" stroke-width="10.313" d="M0 0h482.048" transform="matrix(1 0 0 -1 1018 2275)"/><path fill="none" stroke="url(#S)" stroke-miterlimit="8" stroke-width="10.313" d="M0 0h482.048" transform="matrix(1 0 0 -1 1025 2259)"/><path fill="none" stroke="url(#T)" stroke-miterlimit="8" stroke-width="10.313" d="M0 0h482.048" transform="matrix(1 0 0 -1 1039 2243)"/><path fill="none" stroke="url(#U)" stroke-miterlimit="8" stroke-width="10.313" d="M0 0h482.048" transform="matrix(1 0 0 -1 1063 2227)"/><path fill-rule="evenodd" d="M1755 2365c0 43.08-34.7 78-77.5 78s-77.5-34.92-77.5-78 34.7-78 77.5-78 77.5 34.92 77.5 78m804-2c0 43.08-34.7 78-77.5 78s-77.5-34.92-77.5-78 34.7-78 77.5-78 77.5 34.92 77.5 78"/><path fill-rule="evenodd" stroke="#0D0D0D" stroke-miterlimit="8" stroke-width="10.313" d="M1501 1928h793v267h-793Z"/><path fill-rule="evenodd" d="M2362.43 1982.44h71.14c21.34 0 40.32 14.24 45.06 34.4l23.71 81.84c0 1.19 1.19 1.19 1.19 2.38h-141.1zm71.14-47.44H2315v427h47.43c0-65.24 53.36-118.61 118.57-118.61s118.57 53.37 118.57 118.61c26.09 0 47.43-21.35 47.43-47.44v-118.62c0-15.41-7.11-28.46-18.97-37.95l-62.84-47.45c-8.3-5.93-14.23-15.42-16.6-24.9l-23.72-81.85c-11.86-40.32-49.8-68.79-91.3-68.79M2124 2362h-333.75c0-61.29-50.06-111.43-111.25-111.43s-111.25 50.14-111.25 111.43H1501v-156h623z"/><path fill-rule="evenodd" d="M2298 2361h-225c0-60.89-33.75-110.71-75-110.71s-75 49.82-75 110.71h-45v-155h420z"/><path fill="none" stroke="url(#V)" stroke-miterlimit="8" stroke-width="11.458" d="M555.937 641.5H354.5"/><path fill="none" stroke="url(#W)" stroke-miterlimit="8" stroke-width="11.458" d="M552.937 626.5H351.5"/><path fill="none" stroke="url(#X)" stroke-miterlimit="8" stroke-width="11.458" d="M546.937 611.5H345.5"/><path fill="none" stroke="url(#Y)" stroke-miterlimit="8" stroke-width="11.458" d="M537.937 595.5H336.5"/><path fill="none" stroke="url(#Z)" stroke-miterlimit="8" stroke-width="11.458" d="M522.937 580.5H321.5"/><path fill="none" stroke="url(#aa)" stroke-miterlimit="8" stroke-width="11.458" d="M498.937 568.5H297.5"/><path fill="none" stroke="url(#ab)" stroke-miterlimit="8" stroke-width="11.458" d="M0 0h201.437" transform="matrix(-1 0 0 1 554.937 656.5)"/><path fill="none" stroke="url(#ac)" stroke-miterlimit="8" stroke-width="11.458" d="M0 0h201.437" transform="matrix(-1 0 0 1 551.937 672.5)"/><path fill="none" stroke="url(#ad)" stroke-miterlimit="8" stroke-width="11.458" d="M0 0h201.437" transform="matrix(-1 0 0 1 545.937 687.5)"/><path fill="none" stroke="url(#ae)" stroke-miterlimit="8" stroke-width="11.458" d="M0 0h201.437" transform="matrix(-1 0 0 1 535.937 702.5)"/><path fill="none" stroke="url(#af)" stroke-miterlimit="8" stroke-width="11.458" d="M0 0h201.437" transform="matrix(-1 0 0 1 520.937 718.5)"/><path fill="none" stroke="url(#ag)" stroke-miterlimit="8" stroke-width="11.458" d="M0 0h201.437" transform="matrix(-1 0 0 1 495.937 733.5)"/><path fill="none" stroke="#000" stroke-miterlimit="8" stroke-width="20.625" d="m291.516 636.5-3.016 566.586"/><path fill-rule="evenodd" stroke="#172C51" stroke-miterlimit="8" stroke-width="4.583" d="m190.5 653 43.75-87.5h109.5L387.5 653l-43.75 87.5h-109.5Z"/><path fill="none" stroke="#000" stroke-miterlimit="8" stroke-width="20.625" d="m275.516 1893.5-3.016 566.586"/><path fill-rule="evenodd" stroke="#172C51" stroke-miterlimit="8" stroke-width="4.583" d="m174.5 1910 43.75-87.5h110.5l43.75 87.5-43.75 87.5h-110.5Z"/></g></svg>