<svg xmlns="http://www.w3.org/2000/svg" xmlns:xlink="http://www.w3.org/1999/xlink" width="261.679" height="374.016" viewBox="0 0 196.259 280.512"><defs><style>*{stroke-linejoin:round;stroke-linecap:butt}</style></defs><g id="figure_1"><g id="axes_1"><path id="patch_1" d="m181.68 106.21-3.689 2.398 2.583-2.396H7.2v-.004h173.374l-2.583-2.396z" clip-path="url(#p1c56332bde)" style="fill:#1f77b4;stroke:gray;stroke-linejoin:miter"/><path id="patch_2" d="m98.13 14.578 2.397 3.69-2.396-2.583V205.22h-.003V15.685l-2.397 2.583z" clip-path="url(#p1c56332bde)" style="fill:#1f77b4;stroke:gray;stroke-linejoin:miter"/><g id="PathCollection_1"><defs><path id="mbc56ed0e26" d="M0 2.236a2.236 2.236 0 1 0 0-4.472 2.236 2.236 0 0 0 0 4.472z" style="stroke:gray;stroke-opacity:.4"/></defs><g clip-path="url(#p1c56332bde)"><use xlink:href="#mbc56ed0e26" x="98.129" y="182.383" style="fill:gray;fill-opacity:.4;stroke:gray;stroke-opacity:.4"/></g></g><g id="PathCollection_2"><defs><path id="mdb9616ad5f" d="M0 2.236a2.236 2.236 0 1 0 0-4.472 2.236 2.236 0 0 0 0 4.472z" style="stroke:#000"/></defs><g clip-path="url(#p1c56332bde)"><use xlink:href="#mdb9616ad5f" x="98.129" y="106.21" style="stroke:#000"/></g></g><g id="Quiver_1"><path d="m101.072 26.986.13-5.987-1.828.415 2.372-4.496 2.174 4.595-1.808-.494-.131 5.987zm6.665 3.015.395-5.975-1.845.334 2.568-4.387 1.969 4.686-1.785-.573-.394 5.975zm6.286 5.939.665-5.95-1.858.25 2.764-4.267 1.754 4.77-1.757-.653-.664 5.951z" clip-path="url(#p1c56332bde)" style="fill:#0ca7ef"/><path d="m119.69 44.586.945-5.913-1.867.162 2.962-4.13 1.527 4.848-1.724-.736-.945 5.913zm4.831 11.035 1.241-5.858-1.873.068 3.166-3.977 1.282 4.92-1.685-.822-1.241 5.858zm3.807 13.019 1.559-5.782-1.874-.035 3.378-3.797 1.011 4.981-1.637-.912-1.56 5.781z" clip-path="url(#p1c56332bde)" style="fill:#09a9ee"/><path d="m130.958 83.161 1.905-5.677-1.868-.147 3.601-3.587.709 5.034-1.58-1.01-1.905 5.677zm1.34 15.487 2.29-5.533-1.854-.276 3.84-3.33.361 5.07-1.506-1.116-2.29 5.533z" clip-path="url(#p1c56332bde)" style="fill:#08acee"/><path d="m132.282 114.519 2.724-5.333-1.826-.423 4.092-3.014-.043 5.083-1.413-1.233-2.724 5.333z" clip-path="url(#p1c56332bde)" style="fill:#06aeed"/><path d="m130.888 130.169 3.22-5.05-1.778-.594 4.362-2.61-.528 5.055-1.29-1.361-3.219 5.049z" clip-path="url(#p1c56332bde)" style="fill:#01b3ec"/><path d="m128.144 144.982 3.792-4.635-1.695-.8 4.638-2.079-1.12 4.959-1.119-1.504-3.792 4.635z" clip-path="url(#p1c56332bde)" style="fill:#02b7eb"/><path d="m124.132 158.34 4.449-4.009-1.555-1.046 4.9-1.355-1.857 4.732-.88-1.655-4.448 4.008z" clip-path="url(#p1c56332bde)" style="fill:#0ac0e8"/><path d="m119.01 169.62 5.166-3.028-1.312-1.339 5.072-.337-2.773 4.26-.527-1.8-5.167 3.028z" clip-path="url(#p1c56332bde)" style="fill:#18cde4"/><path d="m113.075 178.188 5.81-1.448-.881-1.655 4.961 1.106-3.861 3.306v-1.875l-5.81 1.449z" clip-path="url(#p1c56332bde)" style="fill:#37e6d8"/><path d="m106.955 183.466 5.898 1.033-.134-1.87 4.086 3.024-4.87 1.455.761-1.713-5.898-1.033z" clip-path="url(#p1c56332bde)" style="fill:#88ffaf"/><path d="m101.856 185.442 4.248 4.22.96-1.61 1.623 4.816-4.827-1.59 1.604-.97-4.249-4.22zm-3.272.364v5.988l1.819-.454-2.274 4.546-2.273-4.546 1.819.454v-5.988zm-3.54.282-4.249 4.22 1.604.97-4.827 1.59 1.624-4.816.958 1.61 4.25-4.22z" clip-path="url(#p1c56332bde)" style="fill:red"/><path d="m89.461 184.362-5.898 1.033.761 1.713-4.87-1.455 4.086-3.024-.134 1.87 5.898-1.033z" clip-path="url(#p1c56332bde)" style="fill:#88ffaf"/><path d="m82.964 179.07-5.81-1.448.001 1.875-3.861-3.306 4.961-1.106-.88 1.655 5.81 1.448z" clip-path="url(#p1c56332bde)" style="fill:#37e6d8"/><path d="m76.79 170.404-5.167-3.027-.527 1.799-2.773-4.26 5.072.337-1.312 1.34 5.166 3.027z" clip-path="url(#p1c56332bde)" style="fill:#18cde4"/><path d="m71.518 159.015-4.449-4.008-.88 1.655-1.855-4.732 4.9 1.355-1.556 1.046 4.449 4.009z" clip-path="url(#p1c56332bde)" style="fill:#0ac0e8"/><path d="m67.411 145.558-3.792-4.635-1.12 1.504-1.12-4.959 4.64 2.08-1.696.8 3.792 4.634z" clip-path="url(#p1c56332bde)" style="fill:#02b7eb"/><path d="m64.604 130.658-3.22-5.05-1.289 1.362-.528-5.056 4.362 2.611-1.778.595 3.22 5.049z" clip-path="url(#p1c56332bde)" style="fill:#01b3ec"/><path d="m63.167 114.932-2.724-5.333-1.413 1.233-.043-5.083 4.092 3.014-1.826.423 2.724 5.333z" clip-path="url(#p1c56332bde)" style="fill:#06aeed"/><path d="m63.12 98.996-2.29-5.533-1.506 1.115.361-5.07 3.84 3.331-1.855.276 2.29 5.533zm1.32-15.546-1.906-5.676-1.58 1.01.708-5.034 3.602 3.587-1.868.147 1.905 5.677z" clip-path="url(#p1c56332bde)" style="fill:#08acee"/><path d="m67.053 68.876-1.559-5.781-1.637.912 1.01-4.981 3.38 3.797-1.875.035 1.56 5.782zm3.795-13.066-1.241-5.858-1.685.821 1.282-4.919 3.166 3.977-1.873-.068 1.24 5.858zm4.822-11.08-.944-5.913-1.724.736 1.527-4.849 2.962 4.131-1.867-.162.945 5.913z" clip-path="url(#p1c56332bde)" style="fill:#09a9ee"/><path d="m81.332 36.041-.665-5.95-1.756.653 1.754-4.77 2.764 4.265-1.858-.25.665 5.952zm6.282-5.98-.394-5.975-1.785.573 1.969-4.686 2.568 4.387-1.845-.334.395 5.975zm6.664-3.055-.13-5.987-1.809.494 2.174-4.595 2.372 4.496-1.829-.415.131 5.987z" clip-path="url(#p1c56332bde)" style="fill:#0ca7ef"/></g><g id="PathCollection_3" clip-path="url(#p1c56332bde)"><use xlink:href="#mbc56ed0e26" x="98.129" y="182.383" style="fill:gray;fill-opacity:.4;stroke:gray;stroke-opacity:.4"/></g><g id="PathCollection_4" clip-path="url(#p1c56332bde)"><use xlink:href="#mdb9616ad5f" x="98.129" y="106.21" style="stroke:#000"/></g><g id="Quiver_2"><path d="m101.072 26.986.13-5.987-1.828.415 2.372-4.496 2.174 4.595-1.808-.494-.131 5.987zm6.665 3.015.395-5.975-1.845.334 2.568-4.387 1.969 4.686-1.785-.573-.394 5.975zm6.286 5.939.665-5.95-1.858.25 2.764-4.267 1.754 4.77-1.757-.653-.664 5.951z" clip-path="url(#p1c56332bde)" style="fill:#0ca7ef"/><path d="m119.69 44.586.945-5.913-1.867.162 2.962-4.13 1.527 4.848-1.724-.736-.945 5.913zm4.831 11.035 1.241-5.858-1.873.068 3.166-3.977 1.282 4.92-1.685-.822-1.241 5.858zm3.807 13.019 1.559-5.782-1.874-.035 3.378-3.797 1.011 4.981-1.637-.912-1.56 5.781z" clip-path="url(#p1c56332bde)" style="fill:#09a9ee"/><path d="m130.958 83.161 1.905-5.677-1.868-.147 3.601-3.587.709 5.034-1.58-1.01-1.905 5.677zm1.34 15.487 2.29-5.533-1.854-.276 3.84-3.33.361 5.07-1.506-1.116-2.29 5.533z" clip-path="url(#p1c56332bde)" style="fill:#08acee"/><path d="m132.282 114.519 2.724-5.333-1.826-.423 4.092-3.014-.043 5.083-1.413-1.233-2.724 5.333z" clip-path="url(#p1c56332bde)" style="fill:#06aeed"/><path d="m130.888 130.169 3.22-5.05-1.778-.594 4.362-2.61-.528 5.055-1.29-1.361-3.219 5.049z" clip-path="url(#p1c56332bde)" style="fill:#01b3ec"/><path d="m128.144 144.982 3.792-4.635-1.695-.8 4.638-2.079-1.12 4.959-1.119-1.504-3.792 4.635z" clip-path="url(#p1c56332bde)" style="fill:#02b7eb"/><path d="m124.132 158.34 4.449-4.009-1.555-1.046 4.9-1.355-1.857 4.732-.88-1.655-4.448 4.008z" clip-path="url(#p1c56332bde)" style="fill:#0ac0e8"/><path d="m119.01 169.62 5.166-3.028-1.312-1.339 5.072-.337-2.773 4.26-.527-1.8-5.167 3.028z" clip-path="url(#p1c56332bde)" style="fill:#18cde4"/><path d="m113.075 178.188 5.81-1.448-.881-1.655 4.961 1.106-3.861 3.306v-1.875l-5.81 1.449z" clip-path="url(#p1c56332bde)" style="fill:#37e6d8"/><path d="m106.955 183.466 5.898 1.033-.134-1.87 4.086 3.024-4.87 1.455.761-1.713-5.898-1.033z" clip-path="url(#p1c56332bde)" style="fill:#88ffaf"/><path d="m101.856 185.442 4.248 4.22.96-1.61 1.623 4.816-4.827-1.59 1.604-.97-4.249-4.22zm-3.272.364v5.988l1.819-.454-2.274 4.546-2.273-4.546 1.819.454v-5.988zm-3.54.282-4.249 4.22 1.604.97-4.827 1.59 1.624-4.816.958 1.61 4.25-4.22z" clip-path="url(#p1c56332bde)" style="fill:red"/><path d="m89.461 184.362-5.898 1.033.761 1.713-4.87-1.455 4.086-3.024-.134 1.87 5.898-1.033z" clip-path="url(#p1c56332bde)" style="fill:#88ffaf"/><path d="m82.964 179.07-5.81-1.448.001 1.875-3.861-3.306 4.961-1.106-.88 1.655 5.81 1.448z" clip-path="url(#p1c56332bde)" style="fill:#37e6d8"/><path d="m76.79 170.404-5.167-3.027-.527 1.799-2.773-4.26 5.072.337-1.312 1.34 5.166 3.027z" clip-path="url(#p1c56332bde)" style="fill:#18cde4"/><path d="m71.518 159.015-4.449-4.008-.88 1.655-1.855-4.732 4.9 1.355-1.556 1.046 4.449 4.009z" clip-path="url(#p1c56332bde)" style="fill:#0ac0e8"/><path d="m67.411 145.558-3.792-4.635-1.12 1.504-1.12-4.959 4.64 2.08-1.696.8 3.792 4.634z" clip-path="url(#p1c56332bde)" style="fill:#02b7eb"/><path d="m64.604 130.658-3.22-5.05-1.289 1.362-.528-5.056 4.362 2.611-1.778.595 3.22 5.049z" clip-path="url(#p1c56332bde)" style="fill:#01b3ec"/><path d="m63.167 114.932-2.724-5.333-1.413 1.233-.043-5.083 4.092 3.014-1.826.423 2.724 5.333z" clip-path="url(#p1c56332bde)" style="fill:#06aeed"/><path d="m63.12 98.996-2.29-5.533-1.506 1.115.361-5.07 3.84 3.331-1.855.276 2.29 5.533zm1.32-15.546-1.906-5.676-1.58 1.01.708-5.034 3.602 3.587-1.868.147 1.905 5.677z" clip-path="url(#p1c56332bde)" style="fill:#08acee"/><path d="m67.053 68.876-1.559-5.781-1.637.912 1.01-4.981 3.38 3.797-1.875.035 1.56 5.782zm3.795-13.066-1.241-5.858-1.685.821 1.282-4.919 3.166 3.977-1.873-.068 1.24 5.858zm4.822-11.08-.944-5.913-1.724.736 1.527-4.849 2.962 4.131-1.867-.162.945 5.913z" clip-path="url(#p1c56332bde)" style="fill:#09a9ee"/><path d="m81.332 36.041-.665-5.95-1.756.653 1.754-4.77 2.764 4.265-1.858-.25.665 5.952zm6.282-5.98-.394-5.975-1.785.573 1.969-4.686 2.568 4.387-1.845-.334.395 5.975zm6.664-3.055-.13-5.987-1.809.494 2.174-4.595 2.372 4.496-1.829-.415.131 5.987z" clip-path="url(#p1c56332bde)" style="fill:#0ca7ef"/></g><g id="text_1" style="fill:gray" transform="matrix(.1 0 0 -.1 166.924 98.831)"><defs><path id="DejaVuSans-79" d="M2059-325q-243-625-475-815-231-191-618-191H506v481h338q237 0 368 113 132 112 291 531l103 262L191 3500h609L1894 763l1094 2737h609z" transform="scale(.01563)"/></defs><use xlink:href="#DejaVuSans-79"/></g><g id="text_2" style="fill:gray" transform="matrix(.1 0 0 -.1 87.062 29.335)"><defs><path id="DejaVuSans-7a" d="M353 3500h2731v-525L922 459h2162V0H275v525l2163 2516H353z" transform="scale(.01563)"/></defs><use xlink:href="#DejaVuSans-7a"/></g><g id="text_3" style="fill:gray" transform="matrix(.1 0 0 -.1 128.44 30.435)"><defs><path id="DejaVuSans-74" d="M1172 4494v-994h1184v-447H1172V1153q0-428 117-550t477-122h590V0h-590q-666 0-919 248-253 249-253 905v1900H172v447h422v994z" transform="scale(.01563)"/><path id="DejaVuSans-3d" d="M678 2906h4006v-525H678zm0-1275h4006v-531H678z" transform="scale(.01563)"/><path id="DejaVuSans-Oblique-3b3" d="m1491 2950 347-2162 1618 2712h610L1972 0l-259-1331h-575L1397 0 988 2613q-63 393-360 393H475l94 494h219q615 0 703-550" transform="scale(.01563)"/><path id="DejaVuSans-Oblique-75" d="m428 1388 410 2112h578l-410-2091q-31-153-45-262t-14-181q0-266 162-412 163-145 460-145 462 0 799 312 338 313 441 842l385 1937h575L3091 0h-575l115 550q-243-306-579-474-336-167-714-167-460 0-716 252T366 863q0 93 15 234 16 141 47 291" transform="scale(.01563)"/><path id="DejaVuSans-Oblique-7a" d="M744 3500h2731l-103-525L738 459h2175L2822 0H-19L84 525l2635 2516H653z" transform="scale(.01563)"/><path id="DejaVuSans-30" d="M2034 4250q-487 0-733-480-245-479-245-1442 0-959 245-1439 246-480 733-480 491 0 736 480 246 480 246 1439 0 963-246 1442-245 480-736 480m0 500q785 0 1199-621 414-620 414-1801 0-1178-414-1799Q2819-91 2034-91q-784 0-1198 620-414 621-414 1799 0 1181 414 1801 414 621 1198 621" transform="scale(.01563)"/><path id="DejaVuSans-Oblique-63" d="m3431 3366-115-569q-207 150-440 225-232 75-482 75-275 0-524-97-248-97-417-275-269-272-416-638-146-365-146-756 0-472 236-703t717-231q237 0 504 72 268 72 558 215l-109-568Q2547 13 2283-39t-542-52q-697 0-1072 348-375 349-375 996 0 544 195 1002t580 823q262 250 615 378 354 128 772 128 244 0 484-55 241-54 491-163" transform="scale(.01563)"/><path id="DejaVuSans-32" d="M1228 531h2203V0H469v531q359 372 979 998 621 627 780 809 303 340 423 576 121 236 121 464 0 372-261 606-261 235-680 235-297 0-627-103-329-103-704-313v638q381 153 712 231 332 78 607 78 725 0 1156-363 431-362 431-968 0-288-108-546-107-257-392-607-78-91-497-524-418-433-1181-1211" transform="scale(.01563)"/></defs><use xlink:href="#DejaVuSans-74" transform="translate(0 .74)"/><use xlink:href="#DejaVuSans-3d" transform="translate(70.996 .74)"/><use xlink:href="#DejaVuSans-Oblique-3b3" transform="translate(186.572 .74)"/><use xlink:href="#DejaVuSans-Oblique-75" transform="matrix(.7 0 0 .7 245.752 56.719)"/><use xlink:href="#DejaVuSans-Oblique-7a" transform="matrix(.7 0 0 .7 290.117 56.719)"/><use xlink:href="#DejaVuSans-30" transform="matrix(.49 0 0 .49 326.86 45.234)"/><use xlink:href="#DejaVuSans-Oblique-63" transform="matrix(.7 0 0 .7 265.752 -49.876)"/><use xlink:href="#DejaVuSans-32" transform="matrix(.49 0 0 .49 307.493 -23.08)"/><path d="M245.752 19.538v6.25H359.95v-6.25z"/></g></g></g><defs><clipPath id="p1c56332bde"><path d="M7.2 7.2h181.859v266.112H7.2z"/></clipPath></defs></svg>