<svg xmlns="http://www.w3.org/2000/svg" xml:space="preserve" width="4466" height="1662" overflow="hidden"><path fill="#BFBFBF" d="M50 5h4413v1640H50z"/><path fill="#7F7F7F" d="m4462.77 1556.77-4358.73.001v11.459h4358.73Zm-4352.98-11.457L52.5 1562.5l57.29 17.188Zm4352.98 58.457-4358.73.001v11.459h4358.73Zm-4352.98-11.457L52.5 1609.5l57.29 17.188Zm4352.98-174.543-4358.73.001v11.459h4358.73Zm-4352.98-11.457L52.5 1423.5l57.29 17.188Zm4348.18 59.457-4353.91.001v11.459h4353.91Zm-4348.18-11.457L52.5 1471.5l57.29 17.188Zm4355.33 58.457-4361.06.001v11.459h4361.06Zm-4355.33-11.457L52.5 1518.5l57.29 17.188ZM4462.77 437.152l-4358.73-1.9.005-11.459 4358.735 1.901Zm-4352.986 9.561L52.5 429.5l57.3-17.162ZM4462.77 470.77l-4358.73.001v11.459h4358.73ZM109.79 459.314 52.5 476.5l57.29 17.188Zm4352.98 58.456-4358.73.001v11.459h4358.73ZM109.79 506.314 52.5 523.5l57.29 17.188Zm4348.18 59.456-4353.91.001v11.459h4353.91ZM109.79 554.314 52.5 571.5l57.29 17.188Zm4355.33 58.456-4361.06.001v11.459h4361.06ZM109.79 601.314 52.5 618.5l57.29 17.188Zm4355.33 58.456-4361.06.001v11.459h4361.06ZM109.79 648.314 52.5 665.5l57.29 17.188Zm4355.33 58.456-4361.06.001v11.459h4361.06ZM109.79 695.314 52.5 712.5l57.29 17.188Zm4355.33 59.456-4361.06.001v11.459h4361.06ZM109.79 743.314 52.5 760.5l57.29 17.188Zm4355.33 58.456-4361.06.001v11.459h4361.06ZM109.79 790.314 52.5 807.5l57.29 17.188Zm4355.33 58.456-4361.06.001v11.459h4361.06ZM109.79 837.314 52.5 854.5l57.29 17.188Zm4355.33 58.456-4361.06.001v11.459h4361.06ZM109.79 884.314 52.5 901.5l57.29 17.188Zm4355.33 59.456-4361.06.001v11.459h4361.06ZM109.79 932.314 52.5 949.5l57.29 17.188Zm4355.33 58.456-4361.06.001v11.459h4361.06ZM109.79 979.314 52.5 996.5l57.29 17.188Zm4355.33 58.456-4361.06.001v11.459h4361.06Zm-4355.33-11.457L52.5 1043.5l57.29 17.188Zm4355.33 58.457-4361.06.001v11.459h4361.06Zm-4355.33-11.457L52.5 1090.5l57.29 17.188Zm4355.33 59.457-4361.06.001v11.459h4361.06Zm-4355.33-11.457L52.5 1138.5l57.29 17.188Zm4355.33 58.457-4361.06.001v11.459h4361.06Zm-4355.33-11.457L52.5 1185.5l57.29 17.188Zm4355.33 58.457-4361.06.001v11.459h4361.06Zm-4355.33-11.457L52.5 1232.5l57.29 17.188Zm4355.33 58.457-4361.06.001v11.459h4361.06Zm-4355.33-11.457L52.5 1279.5l57.29 17.188Zm4355.33 59.457-4361.06.001v11.459h4361.06Zm-4355.33-11.457L52.5 1327.5l57.29 17.188Zm4355.33 58.457-4361.06.001v11.459h4361.06Zm-4355.33-11.457L52.5 1374.5l57.29 17.188ZM4462.77 285.77l-4358.73.001v11.459h4358.73ZM109.79 274.314 52.5 291.5l57.29 17.188Zm4348.18 58.456-4353.91.001v11.459h4353.91ZM109.79 321.314 52.5 338.5l57.29 17.188Zm4355.33 58.456-4361.06.001v11.459h4361.06ZM109.79 368.314 52.5 385.5l57.29 17.188ZM4465.12 46.77l-4361.06.001V58.23h4361.06ZM109.79 35.314 52.5 52.5l57.29 17.188ZM4465.12 94.77l-4361.06.001v11.459h4361.06ZM109.79 83.314 52.5 100.5l57.29 17.188Zm4355.33 58.456-4361.06.001v11.459h4361.06ZM109.79 130.314 52.5 147.5l57.29 17.188Zm4355.33 58.456-4361.06.001v11.459h4361.06ZM109.79 177.314 52.5 194.5l57.29 17.188Zm4355.33 58.456-4361.06.001v11.459h4361.06ZM109.79 224.314 52.5 241.5l57.29 17.188Z"/><path fill="none" stroke="#7F7F7F" stroke-miterlimit="8" stroke-width="6.875" d="M1606.5 8.5v1634.31m46-1634.31v1634.31m47-1634.31v1634.31m47-1636.31v1637.59m47-1638.59v1640.24m47-1640.24v1640.24m46-1640.24v1640.24m47-1640.24v1640.24m47-1640.24v1640.24m47-1640.24v1640.24m47-1640.24v1640.24m46-1640.24v1640.24m47-1640.24v1640.24m47-1640.24v1640.24m47-1640.24v1640.24m47-1640.24v1640.24m47-1640.24v1640.24m46-1640.24v1640.24m47-1640.24v1640.24m47-1640.24v1640.24m47-1640.24v1640.24M1465.5 8.5v1634.31m47-1636.31v1637.59m47-1638.59v1640.24M482.5 10.5v1634.31m47-1634.31v1634.31m47-1634.31v1634.31M623.5 8.5v1637.59M669.5 7.5v1640.24M716.5 7.5v1640.24M763.5 7.5v1640.24M810.5 7.5v1640.24M857.5 7.5v1640.24M903.5 7.5v1640.24M950.5 7.5v1640.24M997.5 7.5v1640.24m47-1640.24v1640.24m47-1640.24v1640.24m47-1640.24v1640.24m46-1640.24v1640.24m47-1640.24v1640.24m47-1640.24v1640.24m47-1640.24v1640.24m47-1640.24v1640.24m46-1640.24v1640.24M342.5 10.5v1634.31M389.5 8.5v1637.59M435.5 7.5v1640.24M4133.5 8.5v1634.31m47-1634.31v1634.31m47-1634.31v1634.31m47-1635.31v1637.59m46-1639.59v1640.24m47-1640.24v1640.24m47-1640.24v1640.24M3993.5 8.5v1634.31m47-1635.31v1637.59m46-1639.59v1640.24M3010.5 10.5v1634.31m47-1634.31v1634.31m46-1634.31v1634.31m47-1636.31v1637.59m47-1638.59v1640.24m47-1640.24v1640.24m47-1640.24v1640.24m46-1640.24v1640.24m47-1640.24v1640.24m47-1640.24v1640.24m47-1640.24v1640.24m47-1640.24v1640.24m47-1640.24v1640.24m46-1640.24v1640.24m47-1640.24v1640.24m47-1640.24v1640.24m47-1640.24v1640.24m47-1640.24v1640.24m46-1640.24v1640.24m47-1640.24v1640.24m47-1640.24v1640.24M2869.5 10.5v1634.31m47-1636.31v1637.59m47-1638.59v1640.24M2589.5 7.5v1640.24m46-1640.24v1640.24m47-1640.24v1640.24m47-1640.24v1640.24m47-1640.24v1640.24m47-1640.24v1640.24"/><path fill="#767171" fill-rule="evenodd" d="M2859 786.5 3016.5 629v78.75H3912v157.501h-895.5V944Z"/><path fill="#C55A11" d="M715.094 241.5v938.07h-17.188V241.5Zm17.187 929.47-25.781 51.57-25.781-51.57Zm-87.374 51.57V284.468h17.187v938.072Zm-17.188-929.478 25.782-51.562 25.781 51.562Z"/><path d="M1785.82 1305.09H852.468v-17.18h933.352Zm-924.758 17.19L809.5 1296.5l51.562-25.78Zm-46.562 28.63h933.35v17.18H814.5Zm924.76-17.19 51.56 25.78-51.56 25.78Z"/><path fill-rule="evenodd" d="m823.328 1481.14-61.796-11.04-18.882-14.83c-2.06-1.38-4.806-.35-5.493 2.07l-4.12 16.55c-14.762-12.41-37.077-20.69-62.139-21.73-35.018-1.03-66.259 24.49-69.349 59.68-1.029 10.69.687 20.7 4.12 29.67-19.225-12.42-31.069-38.87-35.361-52.78-4.291-13.92 11.902-30.47 9.613-30.7.057-16.33-19.054-2.48-19.912 23.8-.686 46.22 38.107 84.17 84.111 84.17h36.048c5.836 0 6.808-8.57 10.299-10.35s9.097-1.44 10.642-.34c1.545 1.09-.343 4.83-1.373 6.9 8.926 2.07 19.569 3.45 32.271 3.45h30.898c5.837 0 10.299-4.49 10.299-10.35 0-5.87-4.462-10.35-10.299-10.35h-10.299l77.245-42.09c3.089-1.72 4.806-4.83 5.149-7.93 0-6.56-5.149-12.42-11.672-13.8"/><path fill="#C55A11" fill-rule="evenodd" stroke="#0D0D0D" stroke-miterlimit="8" stroke-width="6.875" d="m463.377 1204.17-10.943 61.8-14.704 18.88c-1.368 2.06-.342 4.81 2.052 5.49l16.414 4.12c-12.311 14.77-20.518 37.08-21.544 62.14-1.026 35.02 24.279 66.26 59.16 69.35 10.601 1.03 20.518-.69 29.409-4.12-12.311 19.23-38.528 31.07-52.321 35.36s-30.207-11.9-30.435-9.61c-16.186-.06-2.45 19.05 23.596 19.91 45.823.69 83.439-38.11 83.439-84.11v-36.05c0-5.83-8.492-6.81-10.259-10.3s-1.424-9.09-.342-10.64c1.083-1.54 4.788.34 6.84 1.37 2.051-8.92 3.419-19.56 3.419-32.27v-30.89c0-5.84-4.445-10.3-10.259-10.3-5.813 0-10.259 4.46-10.259 10.3v10.29l-41.719-77.24c-1.71-3.09-4.788-4.81-7.865-5.15-6.498 0-12.311 5.15-13.679 11.67Z"/><path fill-rule="evenodd" d="M609.589 1296.34c5.602-12.66 29.536-35.45 55.007-35.34 22.235.09 63.901 6.25 85.571 22.68s34.775 35.42 32.599 54.9c-1.733 15.46-10.648 27.49-37.6 34.26-26.023 5.8-52.776 5.53-78.71-.79-20.311-4.33-33.765-8.79-44.088-17.96-13.704-12.17-21.296-38.51-12.779-57.75"/><path fill="#939393" fill-rule="evenodd" stroke="#0D0D0D" stroke-miterlimit="8" stroke-width="10.313" d="M1928.4 1241.57c11.68 5.57 32.7 29.37 32.6 54.69-.08 22.11-5.76 63.55-20.92 85.09-15.16 21.55-32.68 34.58-50.64 32.42-14.26-1.73-25.36-10.59-31.6-37.39a184.8 184.8 0 0 1 .72-78.27c4-20.19 8.11-33.57 16.57-43.83 11.23-13.63 35.53-21.18 53.27-12.71ZM704.099 55.59c11.784 5.601 33.002 29.536 32.901 55.006-.085 22.236-5.818 63.902-21.117 85.571-15.298 21.67-32.981 34.775-51.111 32.599-14.397-1.733-25.595-10.648-31.898-37.6a185.1 185.1 0 0 1 .73-78.71c4.032-20.31 8.185-33.765 16.723-44.088 11.336-13.704 35.86-21.295 53.772-12.779Z"/></svg>