<svg xmlns="http://www.w3.org/2000/svg" xmlns:xlink="http://www.w3.org/1999/xlink" width="465.6" height="309.12" viewBox="0 0 349.2 231.84"><defs><style>*{stroke-linejoin:round;stroke-linecap:butt}</style></defs><g id="figure_1"><g id="axes_1"><path id="patch_1" d="m174.6 21.037 1.977 5.93h-1.972v88.953h-.01V26.967h-1.972z" clip-path="url(#pee22df1595)" style="stroke:#000;stroke-width:1.5;stroke-linejoin:miter"/><path id="patch_2" d="m182.986 21.408 1.445 6.082-1.965-.174-7.861 88.604h-.01l7.862-88.605-1.964-.174z" clip-path="url(#pee22df1595)" style="stroke:#000;stroke-width:1.5;stroke-linejoin:miter"/><path id="patch_3" d="m191.306 22.52.901 6.185-1.94-.347-15.662 87.563-.01-.002 15.662-87.563-1.941-.347z" clip-path="url(#pee22df1595)" style="stroke:#000;stroke-width:1.5;stroke-linejoin:miter"/><path id="patch_4" d="m199.495 24.361.352 6.241-1.903-.517-23.34 85.836-.009-.002 23.34-85.837-1.903-.517z" clip-path="url(#pee22df1595)" style="stroke:#000;stroke-width:1.5;stroke-linejoin:miter"/><path id="patch_5" d="m207.49 26.92-.202 6.247-1.85-.683-30.833 83.438-.01-.004 30.834-83.437-1.85-.684z" clip-path="url(#pee22df1595)" style="stroke:#000;stroke-width:1.5;stroke-linejoin:miter"/><path id="patch_6" d="m215.227 30.175-.753 6.205-1.782-.844-38.088 80.386-.008-.004 38.087-80.386-1.782-.845z" clip-path="url(#pee22df1595)" style="stroke:#000;stroke-width:1.5;stroke-linejoin:miter"/><path id="patch_7" d="m222.646 34.1-1.299 6.115-1.7-.998-45.043 76.706-.008-.006 45.043-76.705-1.7-.998z" clip-path="url(#pee22df1595)" style="stroke:#000;stroke-width:1.5;stroke-linejoin:miter"/><path id="patch_8" d="m229.689 38.667-1.834 5.976-1.605-1.145-51.646 72.425-.008-.006 51.646-72.424-1.606-1.145z" clip-path="url(#pee22df1595)" style="stroke:#000;stroke-width:1.5;stroke-linejoin:miter"/><path id="patch_9" d="m236.3 43.838-2.354 5.79-1.498-1.281-57.844 67.576-.008-.006 57.845-67.577-1.498-1.282z" clip-path="url(#pee22df1595)" style="stroke:#000;stroke-width:1.5;stroke-linejoin:miter"/><path id="patch_10" d="m242.43 49.573-2.857 5.56-1.379-1.41-63.59 62.2-.007-.007 63.59-62.2-1.379-1.409z" clip-path="url(#pee22df1595)" style="stroke:#000;stroke-width:1.5;stroke-linejoin:miter"/><path id="patch_11" d="m248.028 55.828-3.337 5.285-1.249-1.526-68.839 56.337-.006-.008 68.839-56.336-1.249-1.526z" clip-path="url(#pee22df1595)" style="stroke:#000;stroke-width:1.5;stroke-linejoin:miter"/><path id="patch_12" d="m253.052 62.553-3.792 4.97-1.109-1.63-73.548 50.031-.006-.008 73.549-50.032-1.11-1.63z" clip-path="url(#pee22df1595)" style="stroke:#000;stroke-width:1.5;stroke-linejoin:miter"/><path id="patch_13" d="m257.461 69.695-4.215 4.615-.961-1.722-77.683 43.336-.004-.008L252.28 72.58l-.96-1.722z" clip-path="url(#pee22df1595)" style="stroke:#000;stroke-width:1.5;stroke-linejoin:miter"/><path id="patch_14" d="m261.222 77.199-4.607 4.225-.804-1.8-81.209 36.3-.004-.009 81.209-36.3-.805-1.8z" clip-path="url(#pee22df1595)" style="stroke:#000;stroke-width:1.5;stroke-linejoin:miter"/><path id="patch_15" d="m264.306 85.006-4.963 3.801-.642-1.864-84.1 28.982-.003-.01 84.1-28.981-.643-1.865z" clip-path="url(#pee22df1595)" style="stroke:#000;stroke-width:1.5;stroke-linejoin:miter"/><path id="patch_16" d="m266.687 93.055-5.28 3.348-.474-1.914-86.332 21.436-.002-.01L260.93 94.48l-.475-1.914z" clip-path="url(#pee22df1595)" style="stroke:#000;stroke-width:1.5;stroke-linejoin:miter"/><path id="patch_17" d="m268.347 101.283-5.554 2.868-.304-1.948-87.888 13.722-.002-.01 87.888-13.722-.304-1.948z" clip-path="url(#pee22df1595)" style="stroke:#000;stroke-width:1.5;stroke-linejoin:miter"/><path id="patch_18" d="m269.274 109.626-5.786 2.366-.13-1.968-88.758 5.9v-.009l88.756-5.9-.13-1.968z" clip-path="url(#pee22df1595)" style="stroke:#000;stroke-width:1.5;stroke-linejoin:miter"/><path id="patch_19" d="m269.46 118.018-5.973 1.845.044-1.971-88.931-1.967v-.01l88.931 1.967.044-1.971z" clip-path="url(#pee22df1595)" style="stroke:#000;stroke-width:1.5;stroke-linejoin:miter"/><path id="patch_20" d="m268.903 126.394-6.112 1.31.218-1.96-88.41-9.82.002-.009 88.409 9.82.217-1.96z" clip-path="url(#pee22df1595)" style="stroke:#000;stroke-width:1.5;stroke-linejoin:miter"/><path id="patch_21" d="m267.608 134.687-6.204.765.39-1.933-87.195-17.594.002-.01 87.195 17.594.39-1.933z" clip-path="url(#pee22df1595)" style="stroke:#000;stroke-width:1.5;stroke-linejoin:miter"/><path id="patch_22" d="m265.586 142.834-6.248.213.56-1.89-85.3-25.232.003-.01 85.3 25.232.559-1.89z" clip-path="url(#pee22df1595)" style="stroke:#000;stroke-width:1.5;stroke-linejoin:miter"/><path id="patch_23" d="m262.851 150.77-6.242-.34.725-1.834-82.736-32.671.004-.01 82.735 32.672.724-1.834z" clip-path="url(#pee22df1595)" style="stroke:#000;stroke-width:1.5;stroke-linejoin:miter"/><path id="patch_24" d="m259.426 158.433-6.188-.89.884-1.763-79.524-39.856.004-.008 79.524 39.856.884-1.763z" clip-path="url(#pee22df1595)" style="stroke:#000;stroke-width:1.5;stroke-linejoin:miter"/><path id="patch_25" d="m255.336 165.764-6.084-1.434 1.036-1.677-75.69-46.729.005-.008 75.69 46.728 1.036-1.678z" clip-path="url(#pee22df1595)" style="stroke:#000;stroke-width:1.5;stroke-linejoin:miter"/><path id="patch_26" d="m250.615 172.704-5.934-1.965 1.18-1.58-71.264-53.235.006-.008 71.264 53.235 1.18-1.58z" clip-path="url(#pee22df1595)" style="stroke:#000;stroke-width:1.5;stroke-linejoin:miter"/><path id="patch_27" d="m245.3 179.2-5.738-2.482 1.315-1.47-66.28-59.324.006-.008 66.28 59.326 1.316-1.47z" clip-path="url(#pee22df1595)" style="stroke:#000;stroke-width:1.5;stroke-linejoin:miter"/><path id="patch_28" d="m239.43 185.201-5.495-2.98 1.44-1.347-60.779-64.95.008-.007 60.778 64.95 1.44-1.347z" clip-path="url(#pee22df1595)" style="stroke:#000;stroke-width:1.5;stroke-linejoin:miter"/><path id="patch_29" d="m233.053 190.66-5.21-3.454 1.553-1.215-54.8-70.068.008-.006 54.8 70.068 1.553-1.214z" clip-path="url(#pee22df1595)" style="stroke:#000;stroke-width:1.5;stroke-linejoin:miter"/><path id="patch_30" d="m226.219 195.533-4.885-3.9 1.654-1.073-48.392-74.637.008-.006 48.393 74.638 1.654-1.073z" clip-path="url(#pee22df1595)" style="stroke:#000;stroke-width:1.5;stroke-linejoin:miter"/><path id="patch_31" d="m218.98 199.784-4.52-4.317 1.742-.922-41.606-78.623.008-.004 41.607 78.622 1.743-.922z" clip-path="url(#pee22df1595)" style="stroke:#000;stroke-width:1.5;stroke-linejoin:miter"/><path id="patch_32" d="m211.395 203.378-4.122-4.7 1.818-.764-34.496-81.992.01-.004L209.1 197.91l1.817-.765z" clip-path="url(#pee22df1595)" style="stroke:#000;stroke-width:1.5;stroke-linejoin:miter"/><path id="patch_33" d="m203.521 206.288-3.69-5.046 1.878-.6-27.114-84.72.01-.004 27.113 84.72 1.878-.6z" clip-path="url(#pee22df1595)" style="stroke:#000;stroke-width:1.5;stroke-linejoin:miter"/><path id="patch_34" d="m195.421 208.49-3.23-5.352 1.924-.432-19.52-86.785.01-.002 19.52 86.784 1.923-.432z" clip-path="url(#pee22df1595)" style="stroke:#000;stroke-width:1.5;stroke-linejoin:miter"/><path id="patch_35" d="m187.158 209.968-2.744-5.616 1.954-.261-11.773-88.17.01-.002 11.773 88.17 1.955-.26z" clip-path="url(#pee22df1595)" style="stroke:#000;stroke-width:1.5;stroke-linejoin:miter"/><path id="patch_36" d="m178.797 210.71-2.237-5.837 1.97-.087-3.935-88.866h.01l3.935 88.865 1.97-.087z" clip-path="url(#pee22df1595)" style="stroke:#000;stroke-width:1.5;stroke-linejoin:miter"/><path id="patch_37" d="m170.403 210.71-1.713-6.012 1.97.087 3.935-88.865h.01l-3.935 88.866 1.97.087z" clip-path="url(#pee22df1595)" style="stroke:#000;stroke-width:1.5;stroke-linejoin:miter"/><path id="patch_38" d="m162.042 209.968-1.175-6.14 1.955.261 11.773-88.17.01.002-11.773 88.17 1.954.26z" clip-path="url(#pee22df1595)" style="stroke:#000;stroke-width:1.5;stroke-linejoin:miter"/><path id="patch_39" d="m153.779 208.49-.627-6.22 1.923.433 19.52-86.784.01.002-19.52 86.785 1.924.432z" clip-path="url(#pee22df1595)" style="stroke:#000;stroke-width:1.5;stroke-linejoin:miter"/><path id="patch_40" d="m145.679 206.288-.075-6.25 1.878.6 27.113-84.72.01.004-27.114 84.72 1.878.6z" clip-path="url(#pee22df1595)" style="stroke:#000;stroke-width:1.5;stroke-linejoin:miter"/><path id="patch_41" d="m137.805 203.378.478-6.233 1.817.765 34.495-81.992.01.004-34.496 81.992 1.818.764z" clip-path="url(#pee22df1595)" style="stroke:#000;stroke-width:1.5;stroke-linejoin:miter"/><path id="patch_42" d="m130.22 199.784 1.026-6.166 1.743.922 41.607-78.622.008.004-41.606 78.623 1.743.922z" clip-path="url(#pee22df1595)" style="stroke:#000;stroke-width:1.5;stroke-linejoin:miter"/><path id="patch_43" d="m122.981 195.533 1.568-6.05 1.654 1.072 48.393-74.638.008.006-48.392 74.637 1.654 1.073z" clip-path="url(#pee22df1595)" style="stroke:#000;stroke-width:1.5;stroke-linejoin:miter"/><path id="patch_44" d="m116.147 190.66 2.096-5.89 1.553 1.215 54.8-70.068.008.006-54.8 70.068 1.553 1.215z" clip-path="url(#pee22df1595)" style="stroke:#000;stroke-width:1.5;stroke-linejoin:miter"/><path id="patch_45" d="m109.77 185.201 2.609-5.68 1.44 1.347 60.777-64.951.008.006-60.778 64.951 1.44 1.348z" clip-path="url(#pee22df1595)" style="stroke:#000;stroke-width:1.5;stroke-linejoin:miter"/><path id="patch_46" d="m103.9 179.2 3.101-5.428 1.315 1.47 66.28-59.326.007.008-66.28 59.325 1.315 1.47z" clip-path="url(#pee22df1595)" style="stroke:#000;stroke-width:1.5;stroke-linejoin:miter"/><path id="patch_47" d="m98.585 172.704 3.568-5.132 1.18 1.58 71.264-53.236.006.008-71.264 53.235 1.18 1.58z" clip-path="url(#pee22df1595)" style="stroke:#000;stroke-width:1.5;stroke-linejoin:miter"/><path id="patch_48" d="m93.864 165.764 4.007-4.798 1.036 1.678 75.69-46.728.006.008-75.69 46.729 1.035 1.677z" clip-path="url(#pee22df1595)" style="stroke:#000;stroke-width:1.5;stroke-linejoin:miter"/><path id="patch_49" d="m89.774 158.433 4.416-4.424.884 1.763 79.524-39.856.004.008-79.524 39.856.884 1.763z" clip-path="url(#pee22df1595)" style="stroke:#000;stroke-width:1.5;stroke-linejoin:miter"/><path id="patch_50" d="m86.349 150.77 4.79-4.017.724 1.834 82.735-32.672.004.01-82.736 32.671.725 1.834z" clip-path="url(#pee22df1595)" style="stroke:#000;stroke-width:1.5;stroke-linejoin:miter"/><path id="patch_51" d="m83.614 142.834 5.126-3.578.56 1.89 85.299-25.23.002.009-85.299 25.231.56 1.891z" clip-path="url(#pee22df1595)" style="stroke:#000;stroke-width:1.5;stroke-linejoin:miter"/><path id="patch_52" d="m81.592 134.687 5.422-3.11.39 1.932 87.195-17.594.002.01-87.195 17.594.39 1.933z" clip-path="url(#pee22df1595)" style="stroke:#000;stroke-width:1.5;stroke-linejoin:miter"/><path id="patch_53" d="m80.297 126.394 5.676-2.62.217 1.96 88.41-9.819v.01l-88.409 9.819.218 1.96z" clip-path="url(#pee22df1595)" style="stroke:#000;stroke-width:1.5;stroke-linejoin:miter"/><path id="patch_54" d="m79.74 118.018 5.885-2.107.044 1.971 88.93-1.967.001.01-88.93 1.967.043 1.971z" clip-path="url(#pee22df1595)" style="stroke:#000;stroke-width:1.5;stroke-linejoin:miter"/><path id="patch_55" d="m79.926 109.626 6.048-1.579-.13 1.968 88.756 5.9v.01l-88.757-5.9-.13 1.967z" clip-path="url(#pee22df1595)" style="stroke:#000;stroke-width:1.5;stroke-linejoin:miter"/><path id="patch_56" d="m80.853 101.283 6.164-1.038-.304 1.948 87.888 13.722-.002.01-87.888-13.722-.304 1.948z" clip-path="url(#pee22df1595)" style="stroke:#000;stroke-width:1.5;stroke-linejoin:miter"/><path id="patch_57" d="m82.513 93.055 6.232-.489-.475 1.914 86.331 21.435-.002.01-86.332-21.436-.475 1.914z" clip-path="url(#pee22df1595)" style="stroke:#000;stroke-width:1.5;stroke-linejoin:miter"/><path id="patch_58" d="m84.894 85.006 6.251.063-.642 1.865 84.099 28.981-.004.01L90.5 86.943l-.642 1.864z" clip-path="url(#pee22df1595)" style="stroke:#000;stroke-width:1.5;stroke-linejoin:miter"/><path id="patch_59" d="m87.978 77.199 6.22.615-.805 1.8 81.209 36.301-.004.01-81.209-36.301-.804 1.8z" clip-path="url(#pee22df1595)" style="stroke:#000;stroke-width:1.5;stroke-linejoin:miter"/><path id="patch_60" d="m91.739 69.695 6.141 1.163-.96 1.722 77.682 43.336-.004.008-77.683-43.336-.96 1.722z" clip-path="url(#pee22df1595)" style="stroke:#000;stroke-width:1.5;stroke-linejoin:miter"/><path id="patch_61" d="m96.148 62.553 6.015 1.7-1.109 1.63 73.549 50.033-.006.008-73.548-50.032-1.11 1.63z" clip-path="url(#pee22df1595)" style="stroke:#000;stroke-width:1.5;stroke-linejoin:miter"/><path id="patch_62" d="m101.172 55.828 5.841 2.226-1.249 1.526 68.84 56.336-.007.008-68.839-56.337-1.249 1.526z" clip-path="url(#pee22df1595)" style="stroke:#000;stroke-width:1.5;stroke-linejoin:miter"/><path id="patch_63" d="m106.77 49.573 5.622 2.734-1.38 1.41 63.591 62.2-.006.007-63.591-62.2-1.379 1.41z" clip-path="url(#pee22df1595)" style="stroke:#000;stroke-width:1.5;stroke-linejoin:miter"/><path id="patch_64" d="m112.9 43.838 5.357 3.22-1.498 1.282 57.845 67.577-.008.006-57.844-67.576-1.498 1.282z" clip-path="url(#pee22df1595)" style="stroke:#000;stroke-width:1.5;stroke-linejoin:miter"/><path id="patch_65" d="m119.511 38.667 5.053 3.68-1.606 1.146 51.646 72.424-.008.006-51.646-72.425-1.605 1.145z" clip-path="url(#pee22df1595)" style="stroke:#000;stroke-width:1.5;stroke-linejoin:miter"/><path id="patch_66" d="m126.554 34.1 4.708 4.114-1.7.998 45.042 76.705-.008.006-45.043-76.706-1.7.998z" clip-path="url(#pee22df1595)" style="stroke:#000;stroke-width:1.5;stroke-linejoin:miter"/><path id="patch_67" d="m133.973 30.175 4.326 4.512-1.782.845 38.087 80.386-.008.004-38.088-80.386-1.782.844z" clip-path="url(#pee22df1595)" style="stroke:#000;stroke-width:1.5;stroke-linejoin:miter"/><path id="patch_68" d="m141.71 26.92 3.91 4.877-1.85.684 30.835 83.437-.01.004-30.834-83.438-1.85.683z" clip-path="url(#pee22df1595)" style="stroke:#000;stroke-width:1.5;stroke-linejoin:miter"/><path id="patch_69" d="m149.705 24.361 3.463 5.204-1.902.517 23.339 85.837-.01.002-23.339-85.836-1.903.517z" clip-path="url(#pee22df1595)" style="stroke:#000;stroke-width:1.5;stroke-linejoin:miter"/><path id="patch_70" d="m157.894 22.52 2.99 5.489-1.94.347 15.66 87.563-.009.002-15.661-87.563-1.941.347z" clip-path="url(#pee22df1595)" style="stroke:#000;stroke-width:1.5;stroke-linejoin:miter"/><path id="patch_71" d="m166.214 21.408 2.493 5.733-1.964.174 7.862 88.605h-.01l-7.861-88.604-1.965.174z" clip-path="url(#pee22df1595)" style="stroke:#000;stroke-width:1.5;stroke-linejoin:miter"/><g id="PathCollection_1"><defs><path id="mf7bd539ccf" d="M0 2.739A2.739 2.739 0 1 0 0-2.74a2.739 2.739 0 0 0 0 5.48z" style="stroke:#000"/></defs><g clip-path="url(#pee22df1595)"><use xlink:href="#mf7bd539ccf" x="174.6" y="115.92" style="stroke:#000"/></g></g></g></g><defs><clipPath id="pee22df1595"><path d="M7.2 7.2H342v217.44H7.2z"/></clipPath></defs></svg>