<svg xmlns="http://www.w3.org/2000/svg" xmlns:xlink="http://www.w3.org/1999/xlink" width="261.679" height="374.016" viewBox="0 0 196.259 280.512"><defs><style>*{stroke-linejoin:round;stroke-linecap:butt}</style></defs><g id="figure_1"><g id="axes_1"><path id="patch_1" d="m181.68 106.21-3.689 2.398 2.583-2.396H7.2v-.004h173.374l-2.583-2.396z" clip-path="url(#pee775acdfc)" style="fill:#1f77b4;stroke:#000;stroke-linejoin:miter"/><path id="patch_2" d="m98.13 14.578 2.397 3.69-2.396-2.583V205.22h-.003V15.685l-2.397 2.583z" clip-path="url(#pee775acdfc)" style="fill:#1f77b4;stroke:#000;stroke-linejoin:miter"/><g id="PathCollection_1"><defs><path id="m6bd770caa4" d="M0 1.581A1.581 1.581 0 1 0 0-1.58a1.581 1.581 0 0 0 0 3.16z" style="stroke:#000"/></defs><g clip-path="url(#pee775acdfc)"><use xlink:href="#m6bd770caa4" x="98.129" y="106.21" style="stroke:#000"/></g></g><path id="Quiver_1" d="m100.705 74.459.569-5.961-2.759.193 3.6-4.223 2.736 4.828-2.672-.712-.57 5.961zm5.962 1.061 1.687-5.746-2.745-.332 4.334-3.466 1.773 5.26-2.49-1.206-1.687 5.746zm5.653 2.17 2.745-5.322-2.633-.846 4.912-2.583.745 5.5-2.216-1.655-2.744 5.323zm5.142 3.201 3.701-4.707-2.425-1.329 5.312-1.606-.309 5.541-1.863-2.044-3.701 4.707zm4.442 4.117 4.526-3.922-2.13-1.764 5.52-.572-1.352 5.383-1.443-2.36-4.526 3.922zm3.583 4.882 5.186-2.994-1.758-2.135 5.529.483-2.346 5.03-.97-2.59-5.186 2.994zm2.594 5.472 5.659-1.958-1.322-2.43 5.337 1.521-3.255 4.495-.463-2.727-5.659 1.959zm1.512 5.865 5.927-.852-.838-2.636 4.953 2.503-4.048 3.797.062-2.764-5.927.852zm.374 6.044 5.982.285-.325-2.746 4.39 3.395-4.693 2.963.584-2.703-5.981-.285zm-.777 6.006 5.82 1.412.202-2.758 3.668 4.165-5.169 2.02 1.085-2.543-5.82-1.412zm-1.898 5.751 5.447 2.488.72-2.67 2.813 4.783-5.457 1.006 1.546-2.292-5.447-2.488zm-2.952 5.288 4.877 3.473 1.212-2.486 1.857 5.23-5.55-.045 1.954-1.958-4.878-3.474zm-3.901 4.633 4.132 4.333 1.66-2.211.835 5.487-5.44-1.095 2.287-1.553-4.132-4.334zm-4.706 3.811 3.237 5.037 2.049-1.857-.22 5.545-5.135-2.104 2.541-1.092-3.237-5.038zm-5.343 2.851 2.225 5.56 2.364-1.436-1.265 5.403-4.644-3.038 2.701-.591-2.225-5.56zm-5.786 1.789 1.133 5.88 2.593-.962-2.265 5.066-3.985-3.862 2.764-.07-1.133-5.88zm-6.02.662v5.988l2.728-.455-3.183 4.547-3.182-4.547 2.728.455v-5.988zm-6.036-.49-1.133 5.88 2.764.07-3.985 3.862-2.265-5.066 2.593.962 1.133-5.88zm-5.835-1.622-2.225 5.559 2.701.591-4.644 3.038-1.265-5.403 2.364 1.436 2.225-5.56zm-5.422-2.699-3.237 5.038 2.54 1.092-5.135 2.104-.219-5.545 2.049 1.857 3.237-5.037zm-4.813-3.675-4.132 4.334 2.288 1.553-5.441 1.095.834-5.487 1.66 2.211 4.133-4.333zm-4.031-4.52-4.878 3.474 1.953 1.958-5.55.045 1.858-5.23 1.212 2.486 4.878-3.473zm-3.102-5.201-5.447 2.488 1.546 2.292-5.457-1.006 2.813-4.784.72 2.67 5.447-2.487zm-2.063-5.694-5.819 1.412 1.085 2.544-5.169-2.021 3.668-4.165.202 2.758 5.82-1.412zm-.947-5.981-5.981.285.584 2.703-4.693-2.963 4.39-3.395-.325 2.746 5.982-.285zm.202-6.053-5.927-.852.061 2.764-4.047-3.797 4.953-2.503-.838 2.636 5.927.852zm1.343-5.905-5.658-1.959-.463 2.727-3.255-4.495 5.337-1.52-1.322 2.429 5.659 1.958zm2.437-5.544-5.185-2.995-.97 2.59-2.347-5.03 5.529-.482-1.758 2.135 5.186 2.994zm3.443-4.983-4.526-3.922-1.443 2.36-1.352-5.383 5.52.572-2.13 1.764 4.526 3.922zm4.322-4.242-3.701-4.707-1.863 2.044-.31-5.541 5.313 1.606-2.425 1.33 3.701 4.706zm5.048-3.346-2.744-5.323-2.216 1.655.745-5.5 4.912 2.583-2.633.846 2.744 5.322zm5.59-2.331-1.688-5.746-2.489 1.205 1.773-5.259 4.334 3.466-2.745.332 1.687 5.746zm5.93-1.231-.57-5.96-2.672.711 2.736-4.828 3.6 4.223-2.759-.193.57 5.96z" clip-path="url(#pee775acdfc)" style="fill:red"/><g id="PathCollection_2" clip-path="url(#pee775acdfc)"><use xlink:href="#m6bd770caa4" x="98.129" y="106.21" style="stroke:#000"/></g><path id="Quiver_2" d="m100.705 74.459.569-5.961-2.759.193 3.6-4.223 2.736 4.828-2.672-.712-.57 5.961zm5.962 1.061 1.687-5.746-2.745-.332 4.334-3.466 1.773 5.26-2.49-1.206-1.687 5.746zm5.653 2.17 2.745-5.322-2.633-.846 4.912-2.583.745 5.5-2.216-1.655-2.744 5.323zm5.142 3.201 3.701-4.707-2.425-1.329 5.312-1.606-.309 5.541-1.863-2.044-3.701 4.707zm4.442 4.117 4.526-3.922-2.13-1.764 5.52-.572-1.352 5.383-1.443-2.36-4.526 3.922zm3.583 4.882 5.186-2.994-1.758-2.135 5.529.483-2.346 5.03-.97-2.59-5.186 2.994zm2.594 5.472 5.659-1.958-1.322-2.43 5.337 1.521-3.255 4.495-.463-2.727-5.659 1.959zm1.512 5.865 5.927-.852-.838-2.636 4.953 2.503-4.048 3.797.062-2.764-5.927.852zm.374 6.044 5.982.285-.325-2.746 4.39 3.395-4.693 2.963.584-2.703-5.981-.285zm-.777 6.006 5.82 1.412.202-2.758 3.668 4.165-5.169 2.02 1.085-2.543-5.82-1.412zm-1.898 5.751 5.447 2.488.72-2.67 2.813 4.783-5.457 1.006 1.546-2.292-5.447-2.488zm-2.952 5.288 4.877 3.473 1.212-2.486 1.857 5.23-5.55-.045 1.954-1.958-4.878-3.474zm-3.901 4.633 4.132 4.333 1.66-2.211.835 5.487-5.44-1.095 2.287-1.553-4.132-4.334zm-4.706 3.811 3.237 5.037 2.049-1.857-.22 5.545-5.135-2.104 2.541-1.092-3.237-5.038zm-5.343 2.851 2.225 5.56 2.364-1.436-1.265 5.403-4.644-3.038 2.701-.591-2.225-5.56zm-5.786 1.789 1.133 5.88 2.593-.962-2.265 5.066-3.985-3.862 2.764-.07-1.133-5.88zm-6.02.662v5.988l2.728-.455-3.183 4.547-3.182-4.547 2.728.455v-5.988zm-6.036-.49-1.133 5.88 2.764.07-3.985 3.862-2.265-5.066 2.593.962 1.133-5.88zm-5.835-1.622-2.225 5.559 2.701.591-4.644 3.038-1.265-5.403 2.364 1.436 2.225-5.56zm-5.422-2.699-3.237 5.038 2.54 1.092-5.135 2.104-.219-5.545 2.049 1.857 3.237-5.037zm-4.813-3.675-4.132 4.334 2.288 1.553-5.441 1.095.834-5.487 1.66 2.211 4.133-4.333zm-4.031-4.52-4.878 3.474 1.953 1.958-5.55.045 1.858-5.23 1.212 2.486 4.878-3.473zm-3.102-5.201-5.447 2.488 1.546 2.292-5.457-1.006 2.813-4.784.72 2.67 5.447-2.487zm-2.063-5.694-5.819 1.412 1.085 2.544-5.169-2.021 3.668-4.165.202 2.758 5.82-1.412zm-.947-5.981-5.981.285.584 2.703-4.693-2.963 4.39-3.395-.325 2.746 5.982-.285zm.202-6.053-5.927-.852.061 2.764-4.047-3.797 4.953-2.503-.838 2.636 5.927.852zm1.343-5.905-5.658-1.959-.463 2.727-3.255-4.495 5.337-1.52-1.322 2.429 5.659 1.958zm2.437-5.544-5.185-2.995-.97 2.59-2.347-5.03 5.529-.482-1.758 2.135 5.186 2.994zm3.443-4.983-4.526-3.922-1.443 2.36-1.352-5.383 5.52.572-2.13 1.764 4.526 3.922zm4.322-4.242-3.701-4.707-1.863 2.044-.31-5.541 5.313 1.606-2.425 1.33 3.701 4.706zm5.048-3.346-2.744-5.323-2.216 1.655.745-5.5 4.912 2.583-2.633.846 2.744 5.322zm5.59-2.331-1.688-5.746-2.489 1.205 1.773-5.259 4.334 3.466-2.745.332 1.687 5.746zm5.93-1.231-.57-5.96-2.672.711 2.736-4.828 3.6 4.223-2.759-.193.57 5.96z" clip-path="url(#pee775acdfc)" style="fill:red"/><g id="text_1" transform="matrix(.1 0 0 -.1 166.924 98.831)"><defs><path id="DejaVuSans-Oblique-79" d="M1588-325q-400-672-652-839t-642-167h-453l96 481h332q240 0 409 131t378 513l178 334-775 3372h610l581-2681 1606 2681h603z" transform="scale(.01563)"/><path id="DejaVuSans-30" d="M2034 4250q-487 0-733-480-245-479-245-1442 0-959 245-1439 246-480 733-480 491 0 736 480 246 480 246 1439 0 963-246 1442-245 480-736 480m0 500q785 0 1199-621 414-620 414-1801 0-1178-414-1799Q2819-91 2034-91q-784 0-1198 620-414 621-414 1799 0 1181 414 1801 414 621 1198 621" transform="scale(.01563)"/></defs><use xlink:href="#DejaVuSans-Oblique-79" transform="translate(0 .313)"/><use xlink:href="#DejaVuSans-30" transform="matrix(.7 0 0 .7 59.18 -16.094)"/></g><g id="text_2" transform="matrix(.1 0 0 -.1 87.062 29.335)"><defs><path id="DejaVuSans-Oblique-7a" d="M744 3500h2731l-103-525L738 459h2175L2822 0H-19L84 525l2635 2516H653z" transform="scale(.01563)"/></defs><use xlink:href="#DejaVuSans-Oblique-7a" transform="translate(0 .313)"/><use xlink:href="#DejaVuSans-30" transform="matrix(.7 0 0 .7 52.49 -16.094)"/></g><g id="text_3" transform="matrix(.1 0 0 -.1 128.44 30.435)"><defs><path id="DejaVuSans-Oblique-74" d="m2706 3500-87-447H1472l-372-1900q-19-106-28-178t-9-112q0-200 120-291t386-91h581L2053 0h-550Q991 0 739 200 488 400 488 806q0 72 9 158t28 189l372 1900H409l91 447h478l194 994h575l-191-994z" transform="scale(.01563)"/><path id="DejaVuSans-3d" d="M678 2906h4006v-525H678zm0-1275h4006v-531H678z" transform="scale(.01563)"/></defs><use xlink:href="#DejaVuSans-Oblique-74" transform="translate(0 .781)"/><use xlink:href="#DejaVuSans-30" transform="matrix(.7 0 0 .7 39.209 -15.625)"/><use xlink:href="#DejaVuSans-3d" transform="translate(118.267 .781)"/><use xlink:href="#DejaVuSans-30" transform="translate(233.843 .781)"/></g></g></g><defs><clipPath id="pee775acdfc"><path d="M7.2 7.2h181.859v266.112H7.2z"/></clipPath></defs></svg>