<svg xmlns="http://www.w3.org/2000/svg" xmlns:xlink="http://www.w3.org/1999/xlink" width="200.529" height="163.645" viewBox="0 0 150.397 122.734"><defs><symbol id="a" overflow="visible"><path d="M4.844-3.797c.047-.14.047-.156.047-.234 0-.172-.141-.266-.297-.266a.46.46 0 0 0-.344.203c-.016.063-.11.36-.14.547-.079.25-.141.531-.204.797L3.453-.953c-.031.14-.469.844-1.125.844-.5 0-.61-.438-.61-.813 0-.453.173-1.078.5-1.953.157-.406.204-.516.204-.719 0-.437-.313-.812-.813-.812-.953 0-1.312 1.453-1.312 1.531 0 .11.094.11.11.11.109 0 .109-.032.156-.188.28-.938.671-1.235 1.015-1.235.078 0 .25 0 .25.313 0 .25-.11.516-.172.703-.406 1.063-.578 1.625-.578 2.094 0 .89.625 1.187 1.219 1.187.39 0 .719-.171 1-.453-.125.516-.25 1.016-.64 1.547-.266.328-.641.625-1.094.625-.141 0-.594-.031-.766-.422.156 0 .297 0 .422-.125a.5.5 0 0 0 .203-.406c0-.312-.266-.344-.36-.344C.829.531.5.687.5 1.171c0 .5.438.876 1.063.876 1.015 0 2.046-.906 2.328-2.031Zm0 0" style="stroke:none"/></symbol><symbol id="b" overflow="visible"><path d="M1.328-.828c.531-.578.828-.828 1.188-1.14 0 0 .609-.532.968-.891.954-.922 1.172-1.407 1.172-1.453 0-.094-.093-.094-.11-.094-.077 0-.093.015-.155.11-.297.484-.5.64-.735.64-.25 0-.36-.156-.515-.328-.188-.22-.36-.422-.688-.422-.75 0-1.203.922-1.203 1.14 0 .047.031.11.11.11.093 0 .109-.047.14-.11.188-.468.766-.468.844-.468.203 0 .39.062.625.14.406.156.515.156.765.156-.359.422-1.187 1.141-1.375 1.297l-.906.844C.781-.625.422-.062.422.016c0 .093.11.093.125.093C.625.11.64.094.703-.016c.235-.359.531-.625.86-.625.218 0 .328.094.578.375.156.22.343.375.625.375 1 0 1.578-1.265 1.578-1.53 0-.048-.047-.11-.125-.11-.094 0-.11.062-.14.14-.235.641-.876.829-1.204.829-.187 0-.375-.063-.578-.125-.344-.125-.5-.172-.703-.172-.016 0-.172 0-.266.03m0 0" style="stroke:none"/></symbol><symbol id="e" overflow="visible"><path d="M3.328-3.016c.063-.25.297-1.171.985-1.171.046 0 .296 0 .5.125a.58.58 0 0 0-.47.546c0 .157.11.344.376.344a.546.546 0 0 0 .531-.578c0-.516-.578-.656-.922-.656-.578 0-.922.531-1.047.75-.25-.656-.781-.75-1.078-.75-1.031 0-1.61 1.281-1.61 1.531 0 .11.11.11.126.11.078 0 .11-.032.125-.11.344-1.062 1-1.312 1.344-1.312.187 0 .53.093.53.671 0 .313-.171.97-.53 2.375-.157.61-.516 1.032-.954 1.032-.062 0-.28 0-.5-.125.25-.063.47-.266.47-.547 0-.266-.22-.344-.36-.344-.313 0-.547.25-.547.578 0 .453.484.656.922.656.672 0 1.031-.703 1.047-.75.125.36.484.75 1.078.75 1.031 0 1.594-1.28 1.594-1.53 0-.11-.079-.11-.11-.11-.094 0-.11.047-.14.11-.329 1.077-1 1.312-1.313 1.312-.39 0-.547-.313-.547-.657 0-.218.047-.437.156-.875Zm0 0" style="stroke:none"/></symbol><symbol id="h" overflow="visible"><path d="M4.672-3.703c0-.547-.266-.703-.438-.703-.25 0-.5.265-.5.484 0 .125.047.188.157.297.218.203.343.453.343.813 0 .421-.609 2.703-1.765 2.703-.516 0-.75-.344-.75-.875 0-.547.281-1.282.578-2.11.078-.172.125-.312.125-.5 0-.437-.313-.812-.813-.812-.937 0-1.312 1.453-1.312 1.531 0 .11.094.11.11.11.109 0 .109-.032.156-.188.296-1 .718-1.235 1.015-1.235.078 0 .25 0 .25.313 0 .25-.11.531-.172.703-.437 1.156-.562 1.61-.562 2.047 0 1.078.875 1.234 1.328 1.234 1.672 0 2.25-3.296 2.25-3.812m0 0" style="stroke:none"/></symbol><symbol id="i" overflow="visible"><path d="M4.531-4.984c0-.657-.172-2.047-1.187-2.047-1.39 0-2.922 2.812-2.922 5.094C.422-1 .703.108 1.609.108c1.407 0 2.922-2.859 2.922-5.093M1.47-3.625c.172-.625.375-1.422.781-2.14.266-.485.625-1.048 1.078-1.048.485 0 .547.641.547 1.204 0 .5-.078 1-.312 1.984Zm2 .328c-.11.453-.313 1.297-.703 2.016-.344.687-.72 1.172-1.157 1.172-.328 0-.53-.297-.53-1.22 0-.421.062-1 .312-1.968Zm0 0" style="stroke:none"/></symbol><symbol id="m" overflow="visible"><path d="M.875-.594c-.031.156-.094.39-.094.438 0 .172.14.265.297.265a.41.41 0 0 0 .375-.28c.016-.032.344-1.391.39-1.579.079-.328.266-1.016.313-1.297.047-.125.328-.594.563-.812.078-.063.375-.328.797-.328.265 0 .406.125.422.125-.297.046-.516.28-.516.546 0 .157.11.344.375.344s.547-.234.547-.594c0-.343-.313-.64-.828-.64-.641 0-1.078.484-1.266.765-.094-.453-.453-.765-.922-.765-.453 0-.64.39-.734.562-.172.344-.297.938-.297.969 0 .11.094.11.11.11.109 0 .109-.016.171-.235.172-.703.375-1.187.735-1.187.156 0 .296.078.296.453 0 .218-.03.328-.156.843Zm0 0" style="stroke:none"/></symbol><symbol id="n" overflow="visible"><path d="M4.75-2.36c0-1.562-.922-2.046-1.656-2.046-1.375 0-2.688 1.422-2.688 2.828C.406-.641 1 .109 2.031.109c.625 0 1.344-.234 2.094-.843.125.53.453.843.906.843.532 0 .844-.546.844-.703 0-.078-.062-.11-.125-.11-.062 0-.094.032-.125.11-.187.485-.547.485-.562.485-.313 0-.313-.782-.313-1.016 0-.203 0-.234.11-.344C5.796-2.656 6-3.812 6-3.812c0-.032-.016-.11-.125-.11-.094 0-.094.031-.14.219-.188.625-.516 1.375-.985 1.969ZM4.094-.983c-.89.765-1.657.875-2.047.875-.594 0-.906-.453-.906-1.094 0-.484.265-1.563.578-2.063.468-.734 1.015-.921 1.36-.921.983 0 .983 1.312.983 2.078 0 .375 0 .953.032 1.125m0 0" style="stroke:none"/></symbol><symbol id="f" overflow="visible"><path d="M2.016-3.297c.062-.11.062-.172.062-.219 0-.218-.187-.375-.406-.375-.266 0-.344.22-.375.329L.375-.547a.3.3 0 0 0-.047.11c0 .078.219.156.281.156.047 0 .047-.016.094-.125Zm0 0" style="stroke:none"/></symbol><symbol id="j" overflow="visible"><path d="M1.64-1.406c0-.047.173-.672.173-.703.015-.063.218-.407.453-.578a.9.9 0 0 1 .562-.188.7.7 0 0 1 .375.094.41.41 0 0 0-.297.39c0 .141.11.25.266.25.172 0 .39-.125.39-.421 0-.36-.374-.516-.734-.516s-.672.156-.984.5c-.125-.422-.547-.5-.719-.5-.25 0-.422.172-.547.36A2.4 2.4 0 0 0 .328-2c0 .078.094.078.125.078.094 0 .094-.016.14-.203.11-.422.25-.75.516-.75.188 0 .235.156.235.344 0 .125-.063.39-.125.578-.047.187-.11.469-.14.625l-.235.89C.828-.343.78-.171.78-.156c0 .156.125.219.235.219s.25-.063.297-.188c.015-.047.093-.36.14-.531Zm0 0" style="stroke:none"/></symbol><symbol id="k" overflow="visible"><path d="M1.563-1.594c.187 0 .75-.015 1.125-.14.515-.188.609-.516.609-.72 0-.39-.39-.624-.86-.624-.843 0-1.968.64-1.968 1.844 0 .703.437 1.297 1.25 1.297 1.187 0 1.734-.688 1.734-.782 0-.047-.062-.125-.125-.125-.031 0-.047.016-.11.078-.546.641-1.359.641-1.484.641-.421 0-.703-.281-.703-.844 0-.094 0-.234.094-.625Zm-.391-.187c.297-1.016 1.062-1.094 1.266-1.094.296 0 .562.156.562.422 0 .672-1.187.672-1.484.672Zm0 0" style="stroke:none"/></symbol><symbol id="l" overflow="visible"><path d="M1.719-2.75h.703c.14 0 .219 0 .219-.156C2.64-3 2.562-3 2.438-3H1.78l.25-1.031a.3.3 0 0 0 .031-.094c0-.14-.109-.234-.25-.234-.171 0-.265.125-.328.297-.046.187.047-.157-.265 1.062H.516c-.125 0-.22 0-.22.156 0 .094.079.094.204.094h.656L.75-1.11c-.047.173-.11.423-.11.516 0 .407.36.657.75.657.782 0 1.22-.97 1.22-1.063 0-.094-.094-.094-.11-.094-.094 0-.094.016-.156.14-.188.438-.547.829-.922.829-.156 0-.25-.094-.25-.344 0-.062.031-.219.047-.281Zm0 0" style="stroke:none"/></symbol><clipPath id="c"><path d="M1 81h54v41.734H1Zm0 0"/></clipPath><clipPath id="d"><path d="M12 118h5v4.734h-5Zm0 0"/></clipPath><clipPath id="g"><path d="M12 81h43v41.734H12Zm0 0"/></clipPath></defs><path d="M0 122.734h150.398V0H0Zm0 0" style="stroke:none;fill-rule:nonzero;fill:#ffe4c8;fill-opacity:1"/><path d="M3.544 0A3.543 3.543 0 1 1-3.54 0a3.543 3.543 0 0 1 7.085 0ZM.001 0h55.984" style="fill:none;stroke-width:.79701;stroke-linecap:butt;stroke-linejoin:miter;stroke:#000;stroke-opacity:1;stroke-miterlimit:10" transform="matrix(1 0 0 -1 42.745 92.324)"/><path d="M-1.555 2.074C-1.425 1.297 0 .129.387 0 0-.13-1.426-1.293-1.555-2.07" style="fill:none;stroke-width:.6376;stroke-linecap:round;stroke-linejoin:round;stroke:#000;stroke-opacity:1;stroke-miterlimit:10" transform="matrix(1 0 0 -1 98.73 92.324)"/><use xlink:href="#a" x="90.476" y="100.332" style="fill:#000;fill-opacity:1"/><path d="M.001 0v55.984" style="fill:none;stroke-width:.79701;stroke-linecap:butt;stroke-linejoin:miter;stroke:#000;stroke-opacity:1;stroke-miterlimit:10" transform="matrix(1 0 0 -1 42.745 92.324)"/><path d="M-1.556 2.073C-1.423 1.296 0 .128.39 0 0-.13-1.423-1.294-1.556-2.071" style="fill:none;stroke-width:.6376;stroke-linecap:round;stroke-linejoin:round;stroke:#000;stroke-opacity:1;stroke-miterlimit:10" transform="matrix(0 -1 -1 0 42.745 36.339)"/><use xlink:href="#b" x="33.955" y="43.64" style="fill:#000;fill-opacity:1"/><g clip-path="url(#c)"><path d="M.001 0-29.51-29.512" style="fill:none;stroke-width:.79701;stroke-linecap:butt;stroke-linejoin:miter;stroke:#000;stroke-opacity:1;stroke-miterlimit:10" transform="matrix(1 0 0 -1 42.745 92.324)"/></g><g clip-path="url(#d)"><path d="M-1.553 2.073C-1.426 1.293 0 .128.39-.002 0-.132-1.422-1.295-1.552-2.071" style="fill:none;stroke-width:.6376;stroke-linecap:round;stroke-linejoin:round;stroke:#000;stroke-opacity:1;stroke-miterlimit:10" transform="scale(-1 1)rotate(45 -153.687 44.944)"/></g><use xlink:href="#e" x="3.321" y="118.616" style="fill:#000;fill-opacity:1"/><path d="M.001 0h27.637" style="fill:none;stroke-width:.79701;stroke-linecap:butt;stroke-linejoin:miter;stroke:gray;stroke-opacity:1;stroke-dasharray:2.98883,2.98883;stroke-miterlimit:10" transform="matrix(1 0 0 -1 42.745 92.324)"/><path d="M-1.556 2.074C-1.423 1.297 0 .129.39 0 0-.13-1.423-1.293-1.556-2.07" style="fill:none;stroke-width:.6376;stroke-linecap:round;stroke-linejoin:round;stroke:gray;stroke-opacity:1;stroke-miterlimit:10" transform="matrix(1 0 0 -1 70.384 92.324)"/><use xlink:href="#a" x="59.335" y="103.533" style="fill:gray;fill-opacity:1"/><use xlink:href="#f" x="64.577" y="99.917" style="fill:gray;fill-opacity:1"/><path d="M.001 0v27.64" style="fill:none;stroke-width:.79701;stroke-linecap:butt;stroke-linejoin:miter;stroke:gray;stroke-opacity:1;stroke-dasharray:2.98883,2.98883;stroke-miterlimit:10" transform="matrix(1 0 0 -1 42.745 92.324)"/><path d="M-1.553 2.073C-1.424 1.296 0 .128.388 0 .001-.13-1.424-1.294-1.553-2.071" style="fill:none;stroke-width:.6376;stroke-linecap:round;stroke-linejoin:round;stroke:gray;stroke-opacity:1;stroke-miterlimit:10" transform="matrix(0 -1 -1 0 42.745 64.685)"/><use xlink:href="#b" x="31.16" y="75.187" style="fill:gray;fill-opacity:1"/><use xlink:href="#f" x="36.231" y="71.571" style="fill:gray;fill-opacity:1"/><g clip-path="url(#g)"><path d="M.001 0-18.6-18.598" style="fill:none;stroke-width:.79701;stroke-linecap:butt;stroke-linejoin:miter;stroke:gray;stroke-opacity:1;stroke-dasharray:2.98883,2.98883;stroke-miterlimit:10" transform="matrix(1 0 0 -1 42.745 92.324)"/></g><path d="M-1.554 2.073C-1.424 1.296 0 .13.388-.002 0-.129-1.424-1.295-1.554-2.07" style="fill:none;stroke-width:.6376;stroke-linecap:round;stroke-linejoin:round;stroke:gray;stroke-opacity:1;stroke-miterlimit:10" transform="scale(-1 1)rotate(45 -145.97 26.314)"/><use xlink:href="#e" x="19.402" y="107.703" style="fill:gray;fill-opacity:1"/><use xlink:href="#f" x="25.096" y="104.088" style="fill:gray;fill-opacity:1"/><path d="M-21.26 0v13.469" style="fill:none;stroke-width:.79701;stroke-linecap:butt;stroke-linejoin:miter;stroke:gray;stroke-opacity:1;stroke-miterlimit:10" transform="matrix(1 0 0 -1 42.745 92.324)"/><path d="M-1.555 2.072C-1.425 1.294 0 .13.387.002 0-.132-1.426-1.296-1.555-2.074" style="fill:none;stroke-width:.6376;stroke-linecap:round;stroke-linejoin:round;stroke:gray;stroke-opacity:1;stroke-miterlimit:10" transform="matrix(0 -1 -1 0 21.486 81.437)"/><path d="M-1.553 2.072C-1.424 1.294.002.13.388.002.002-.132-1.424-1.296-1.553-2.074" style="fill:none;stroke-width:.6376;stroke-linecap:round;stroke-linejoin:round;stroke:gray;stroke-opacity:1;stroke-miterlimit:10" transform="matrix(0 -1 -1 0 21.486 78.857)"/><use xlink:href="#h" x="12.58" y="86.158" style="fill:gray;fill-opacity:1"/><path d="M.001 17.719c5.082 2.343 11.117.12 13.274-4.547" style="fill:none;stroke-width:.3985;stroke-linecap:butt;stroke-linejoin:miter;stroke:#000;stroke-opacity:1;stroke-miterlimit:10" transform="matrix(1 0 0 -1 42.745 92.324)"/><path d="M-1.196 1.595C-1.096.999 0 .101.298.002 0-.102-1.097-.998-1.196-1.593" style="fill:none;stroke-width:.31879;stroke-linecap:round;stroke-linejoin:round;stroke:#000;stroke-opacity:1;stroke-miterlimit:10" transform="matrix(.41905 .90791 .90791 -.41905 56.018 79.152)"/><use xlink:href="#i" x="46.145" y="70.942" style="fill:#000;fill-opacity:1"/><use xlink:href="#j" x="50.822" y="72.436" style="fill:#000;fill-opacity:1"/><g style="fill:#000;fill-opacity:1"><use xlink:href="#k" x="54.737" y="72.436"/><use xlink:href="#l" x="58.517" y="72.436"/></g><path d="m3.34 3.328 63.274 61.871" style="fill:none;stroke-width:.79701;stroke-linecap:butt;stroke-linejoin:miter;stroke:red;stroke-opacity:1;stroke-dasharray:.79701,1.99255;stroke-miterlimit:10" transform="matrix(1 0 0 -1 42.745 92.324)"/><path d="M-1.552 2.072C-1.425 1.297 0 .128.388 0 0-.129-1.423-1.294-1.556-2.07" style="fill:none;stroke-width:.6376;stroke-linecap:round;stroke-linejoin:round;stroke:red;stroke-opacity:1;stroke-miterlimit:10" transform="matrix(-.71497 .69908 .69908 .71497 46.086 88.994)"/><path d="M114.188 24.293a1.99 1.99 0 0 0-1.993-1.992 1.99 1.99 0 0 0-1.992 1.992 1.99 1.99 0 0 0 1.992 1.992 1.99 1.99 0 0 0 1.993-1.992m0 0" style="stroke:none;fill-rule:nonzero;fill:#00f;fill-opacity:1"/><use xlink:href="#m" x="131.104" y="25.193" style="fill:#00f;fill-opacity:1"/><path d="M.001.001h4.77" style="fill:none;stroke-width:.398;stroke-linecap:butt;stroke-linejoin:miter;stroke:#00f;stroke-opacity:1;stroke-miterlimit:10" transform="matrix(1 0 0 -1 131.104 26.587)"/><use xlink:href="#j" x="135.875" y="27.683" style="fill:#00f;fill-opacity:1"/><g style="fill:#00f;fill-opacity:1"><use xlink:href="#k" x="139.79" y="27.683"/><use xlink:href="#l" x="143.57" y="27.683"/></g><path d="M69.45 68.031v24.094" style="fill:none;stroke-width:.3985;stroke-linecap:butt;stroke-linejoin:miter;stroke:gray;stroke-opacity:1;stroke-dasharray:2.98883,2.98883;stroke-miterlimit:10" transform="matrix(1 0 0 -1 42.745 92.324)"/><path d="M69.45 82.207c7.828 0 14.176-6.348 14.176-14.176S77.278 53.859 69.45 53.859c-3.758 0-7.363 1.492-9.699 3.824" style="fill:none;stroke-width:.3985;stroke-linecap:butt;stroke-linejoin:miter;stroke:red;stroke-opacity:1;stroke-miterlimit:10" transform="matrix(1 0 0 -1 42.745 92.324)"/><path d="M-1.197 1.595C-1.095.996 0 .101.3 0 0-.098-1.097-.996-1.194-1.595" style="fill:none;stroke-width:.31879;stroke-linecap:round;stroke-linejoin:round;stroke:red;stroke-opacity:1;stroke-miterlimit:10" transform="scale(-1 1)rotate(-45 -9.435 141.045)"/><use xlink:href="#n" x="116.074" y="27.854" style="fill:red;fill-opacity:1"/></svg>