<svg xmlns="http://www.w3.org/2000/svg" xmlns:xlink="http://www.w3.org/1999/xlink" width="190.433" height="221.705" viewBox="0 0 142.825 166.279"><defs><symbol id="b" overflow="visible"><path d="M4.844-3.797c.047-.14.047-.156.047-.234 0-.172-.141-.266-.297-.266a.46.46 0 0 0-.344.203c-.016.063-.11.36-.14.547-.079.25-.141.531-.204.797L3.453-.953c-.031.14-.469.844-1.125.844-.5 0-.61-.438-.61-.813 0-.453.173-1.078.5-1.953.157-.406.204-.516.204-.719 0-.437-.313-.812-.813-.812-.953 0-1.312 1.453-1.312 1.531 0 .11.094.11.11.11.109 0 .109-.032.156-.188.28-.938.671-1.235 1.015-1.235.078 0 .25 0 .25.313 0 .25-.11.516-.172.703-.406 1.063-.578 1.625-.578 2.094 0 .89.625 1.187 1.219 1.187.39 0 .719-.171 1-.453-.125.516-.25 1.016-.64 1.547-.266.328-.641.625-1.094.625-.141 0-.594-.031-.766-.422.156 0 .297 0 .422-.125a.5.5 0 0 0 .203-.406c0-.312-.266-.344-.36-.344C.829.531.5.687.5 1.171c0 .5.438.876 1.063.876 1.015 0 2.046-.906 2.328-2.031Zm0 0" style="stroke:none"/></symbol><symbol id="c" overflow="visible"><path d="M1.328-.828c.531-.578.828-.828 1.188-1.14 0 0 .609-.532.968-.891.954-.922 1.172-1.407 1.172-1.453 0-.094-.093-.094-.11-.094-.077 0-.093.015-.155.11-.297.484-.5.64-.735.64-.25 0-.36-.156-.515-.328-.188-.22-.36-.422-.688-.422-.75 0-1.203.922-1.203 1.14 0 .047.031.11.11.11.093 0 .109-.047.14-.11.188-.468.766-.468.844-.468.203 0 .39.062.625.14.406.156.515.156.765.156-.359.422-1.187 1.141-1.375 1.297l-.906.844C.781-.625.422-.062.422.016c0 .093.11.093.125.093C.625.11.64.094.703-.016c.235-.359.531-.625.86-.625.218 0 .328.094.578.375.156.22.343.375.625.375 1 0 1.578-1.265 1.578-1.53 0-.048-.047-.11-.125-.11-.094 0-.11.062-.14.14-.235.641-.876.829-1.204.829-.187 0-.375-.063-.578-.125-.344-.125-.5-.172-.703-.172-.016 0-.172 0-.266.03m0 0" style="stroke:none"/></symbol><symbol id="d" overflow="visible"><path d="M3.328-3.016c.063-.25.297-1.171.985-1.171.046 0 .296 0 .5.125a.58.58 0 0 0-.47.546c0 .157.11.344.376.344a.546.546 0 0 0 .531-.578c0-.516-.578-.656-.922-.656-.578 0-.922.531-1.047.75-.25-.656-.781-.75-1.078-.75-1.031 0-1.61 1.281-1.61 1.531 0 .11.11.11.126.11.078 0 .11-.032.125-.11.344-1.062 1-1.312 1.344-1.312.187 0 .53.093.53.671 0 .313-.171.97-.53 2.375-.157.61-.516 1.032-.954 1.032-.062 0-.28 0-.5-.125.25-.063.47-.266.47-.547 0-.266-.22-.344-.36-.344-.313 0-.547.25-.547.578 0 .453.484.656.922.656.672 0 1.031-.703 1.047-.75.125.36.484.75 1.078.75 1.031 0 1.594-1.28 1.594-1.53 0-.11-.079-.11-.11-.11-.094 0-.11.047-.14.11-.329 1.077-1 1.312-1.313 1.312-.39 0-.547-.313-.547-.657 0-.218.047-.437.156-.875Zm0 0" style="stroke:none"/></symbol><symbol id="h" overflow="visible"><path d="M.875-.594c-.031.156-.094.39-.094.438 0 .172.14.265.297.265a.41.41 0 0 0 .375-.28c.016-.032.344-1.391.39-1.579.079-.328.266-1.016.313-1.297.047-.125.328-.594.563-.812.078-.063.375-.328.797-.328.265 0 .406.125.422.125-.297.046-.516.28-.516.546 0 .157.11.344.375.344s.547-.234.547-.594c0-.343-.313-.64-.828-.64-.641 0-1.078.484-1.266.765-.094-.453-.453-.765-.922-.765-.453 0-.64.39-.734.562-.172.344-.297.938-.297.969 0 .11.094.11.11.11.109 0 .109-.016.171-.235.172-.703.375-1.187.735-1.187.156 0 .296.078.296.453 0 .218-.03.328-.156.843Zm0 0" style="stroke:none"/></symbol><symbol id="p" overflow="visible"><path d="M4.672-3.703c0-.547-.266-.703-.438-.703-.25 0-.5.265-.5.484 0 .125.047.188.157.297.218.203.343.453.343.813 0 .421-.609 2.703-1.765 2.703-.516 0-.75-.344-.75-.875 0-.547.281-1.282.578-2.11.078-.172.125-.312.125-.5 0-.437-.313-.812-.813-.812-.937 0-1.312 1.453-1.312 1.531 0 .11.094.11.11.11.109 0 .109-.032.156-.188.296-1 .718-1.235 1.015-1.235.078 0 .25 0 .25.313 0 .25-.11.531-.172.703-.437 1.156-.562 1.61-.562 2.047 0 1.078.875 1.234 1.328 1.234 1.672 0 2.25-3.296 2.25-3.812m0 0" style="stroke:none"/></symbol><symbol id="q" overflow="visible"><path d="M4.531-4.984c0-.657-.172-2.047-1.187-2.047-1.39 0-2.922 2.812-2.922 5.094C.422-1 .703.108 1.609.108c1.407 0 2.922-2.859 2.922-5.093M1.47-3.625c.172-.625.375-1.422.781-2.14.266-.485.625-1.048 1.078-1.048.485 0 .547.641.547 1.204 0 .5-.078 1-.312 1.984Zm2 .328c-.11.453-.313 1.297-.703 2.016-.344.687-.72 1.172-1.157 1.172-.328 0-.53-.297-.53-1.22 0-.421.062-1 .312-1.968Zm0 0" style="stroke:none"/></symbol><symbol id="e" overflow="visible"><path d="M2.016-3.297c.062-.11.062-.172.062-.219 0-.218-.187-.375-.406-.375-.266 0-.344.22-.375.329L.375-.547a.3.3 0 0 0-.047.11c0 .078.219.156.281.156.047 0 .047-.016.094-.125Zm0 0" style="stroke:none"/></symbol><symbol id="i" overflow="visible"><path d="M1.64-1.406c0-.047.173-.672.173-.703.015-.063.218-.407.453-.578a.9.9 0 0 1 .562-.188.7.7 0 0 1 .375.094.41.41 0 0 0-.297.39c0 .141.11.25.266.25.172 0 .39-.125.39-.421 0-.36-.374-.516-.734-.516s-.672.156-.984.5c-.125-.422-.547-.5-.719-.5-.25 0-.422.172-.547.36A2.4 2.4 0 0 0 .328-2c0 .078.094.078.125.078.094 0 .094-.016.14-.203.11-.422.25-.75.516-.75.188 0 .235.156.235.344 0 .125-.063.39-.125.578-.047.187-.11.469-.14.625l-.235.89C.828-.343.78-.171.78-.156c0 .156.125.219.235.219s.25-.063.297-.188c.015-.047.093-.36.14-.531Zm0 0" style="stroke:none"/></symbol><symbol id="j" overflow="visible"><path d="M1.563-1.594c.187 0 .75-.015 1.125-.14.515-.188.609-.516.609-.72 0-.39-.39-.624-.86-.624-.843 0-1.968.64-1.968 1.844 0 .703.437 1.297 1.25 1.297 1.187 0 1.734-.688 1.734-.782 0-.047-.062-.125-.125-.125-.031 0-.047.016-.11.078-.546.641-1.359.641-1.484.641-.421 0-.703-.281-.703-.844 0-.094 0-.234.094-.625Zm-.391-.187c.297-1.016 1.062-1.094 1.266-1.094.296 0 .562.156.562.422 0 .672-1.187.672-1.484.672Zm0 0" style="stroke:none"/></symbol><symbol id="k" overflow="visible"><path d="M1.719-2.75h.703c.14 0 .219 0 .219-.156C2.64-3 2.562-3 2.438-3H1.78l.25-1.031a.3.3 0 0 0 .031-.094c0-.14-.109-.234-.25-.234-.171 0-.265.125-.328.297-.046.187.047-.157-.265 1.062H.516c-.125 0-.22 0-.22.156 0 .094.079.094.204.094h.656L.75-1.11c-.047.173-.11.423-.11.516 0 .407.36.657.75.657.782 0 1.22-.97 1.22-1.063 0-.094-.094-.094-.11-.094-.094 0-.094.016-.156.14-.188.438-.547.829-.922.829-.156 0-.25-.094-.25-.344 0-.062.031-.219.047-.281Zm0 0" style="stroke:none"/></symbol><symbol id="l" overflow="visible"><path d="M1.797-2.312c0-.016.047-.11.047-.188 0-.172-.157-.281-.313-.281-.203 0-.25.156-.281.219L.484-.406C.47-.344.47-.328.47-.312c0 .078.203.125.203.125.047 0 .062-.032.094-.094Zm0 0" style="stroke:none"/></symbol><symbol id="m" overflow="visible"><path d="M5.36-2.344c.093 0 .25 0 .25-.172s-.157-.171-.25-.171H.75c-.094 0-.266 0-.266.171s.157.172.266.172Zm0 1.531c.093 0 .25 0 .25-.156 0-.187-.157-.187-.25-.187H.75c-.11 0-.266 0-.266.187 0 .156.172.156.266.156Zm0 0" style="stroke:none"/></symbol><symbol id="n" overflow="visible"><path d="M3.594-2.219c0-.765-.094-1.328-.406-1.812-.22-.313-.657-.594-1.204-.594C.36-4.625.36-2.719.36-2.219s0 2.36 1.625 2.36c1.61 0 1.61-1.86 1.61-2.36M1.984-.062c-.328 0-.75-.188-.89-.75C1-1.22 1-1.797 1-2.312c0-.516 0-1.047.094-1.422.156-.547.593-.703.89-.703.375 0 .735.234.86.64.11.375.125.875.125 1.485 0 .515 0 1.03-.094 1.468-.14.64-.61.782-.89.782m0 0" style="stroke:none"/></symbol><symbol id="o" overflow="visible"><path d="M6.563-2.297c.171 0 .359 0 .359-.203 0-.187-.188-.187-.36-.187h-5.39c-.172 0-.344 0-.344.187 0 .203.172.203.344.203Zm0 0" style="stroke:none"/></symbol><clipPath id="a"><path d="M0 0h142.824v166.277H0Zm0 0"/></clipPath><clipPath id="f"><path d="M4 124h53v42.277H4Zm0 0"/></clipPath><clipPath id="g"><path d="M15 162h4v4.277h-4Zm0 0"/></clipPath></defs><g clip-path="url(#a)"><path d="M0 166.277h142.824V0H0Zm0 0" style="stroke:none;fill-rule:nonzero;fill:#ffe4c8;fill-opacity:1"/></g><path d="M3.542.002A3.54 3.54 0 0 1-.001 3.54 3.542 3.542 0 1 1 3.542 0Zm0 0" style="fill:none;stroke-width:.79701;stroke-linecap:butt;stroke-linejoin:miter;stroke:#000;stroke-opacity:1;stroke-miterlimit:10" transform="matrix(1 0 0 -1 45.54 135.869)"/><path d="M4.253 99.213a4.256 4.256 0 0 1-4.254 4.254 4.253 4.253 0 1 1 4.254-4.254Zm0 0" style="fill:none;stroke-width:.79701;stroke-linecap:butt;stroke-linejoin:miter;stroke:gray;stroke-opacity:1;stroke-dasharray:2.98883,2.98883;stroke-miterlimit:10" transform="matrix(1 0 0 -1 45.54 135.869)"/><path d="M66.616 127.56V31.89" style="fill:none;stroke-width:.79701;stroke-linecap:butt;stroke-linejoin:miter;stroke:#00f;stroke-opacity:1;stroke-dasharray:.79701,1.99255;stroke-miterlimit:10" transform="matrix(1 0 0 -1 45.54 135.869)"/><path d="M-1.554 2.071C-1.425 1.294 0 .13.387.001 0-.128-1.425-1.296-1.554-2.073" style="fill:none;stroke-width:.6376;stroke-linecap:round;stroke-linejoin:round;stroke:#00f;stroke-opacity:1;stroke-miterlimit:10" transform="matrix(0 1 1 0 112.155 103.98)"/><path d="M0 99.213h27.64" style="fill:none;stroke-width:.79701;stroke-linecap:butt;stroke-linejoin:miter;stroke:gray;stroke-opacity:1;stroke-dasharray:2.98883,2.98883;stroke-miterlimit:10" transform="matrix(1 0 0 -1 45.54 135.869)"/><path d="M-1.554 2.074C-1.425 1.296.001.128.387-.001.001-.13-1.425-1.294-1.554-2.07" style="fill:none;stroke-width:.6376;stroke-linecap:round;stroke-linejoin:round;stroke:gray;stroke-opacity:1;stroke-miterlimit:10" transform="matrix(1 0 0 -1 73.179 36.656)"/><use xlink:href="#b" x="64.925" y="44.665" style="fill:gray;fill-opacity:1"/><path d="M0 99.213v27.64" style="fill:none;stroke-width:.79701;stroke-linecap:butt;stroke-linejoin:miter;stroke:gray;stroke-opacity:1;stroke-dasharray:2.98883,2.98883;stroke-miterlimit:10" transform="matrix(1 0 0 -1 45.54 135.869)"/><path d="M-1.554 2.071C-1.424 1.294.001.13.388.001 0-.128-1.425-1.296-1.554-2.073" style="fill:none;stroke-width:.6376;stroke-linecap:round;stroke-linejoin:round;stroke:gray;stroke-opacity:1;stroke-miterlimit:10" transform="matrix(0 -1 -1 0 45.54 9.017)"/><use xlink:href="#c" x="36.75" y="16.319" style="fill:gray;fill-opacity:1"/><path d="m0 99.213-18.6-18.598" style="fill:none;stroke-width:.79701;stroke-linecap:butt;stroke-linejoin:miter;stroke:gray;stroke-opacity:1;stroke-dasharray:2.98883,2.98883;stroke-miterlimit:10" transform="matrix(1 0 0 -1 45.54 135.869)"/><path d="M-1.552 2.071C-1.422 1.295.003.13.387 0 0-.127-1.423-1.296-1.553-2.072" style="fill:none;stroke-width:.6376;stroke-linecap:round;stroke-linejoin:round;stroke:gray;stroke-opacity:1;stroke-miterlimit:10" transform="scale(-1 1)rotate(45 -80.17 -4.894)"/><use xlink:href="#d" x="23.595" y="52.036" style="fill:gray;fill-opacity:1"/><path d="M0 .002h27.64" style="fill:none;stroke-width:.79701;stroke-linecap:butt;stroke-linejoin:miter;stroke:gray;stroke-opacity:1;stroke-dasharray:2.98883,2.98883;stroke-miterlimit:10" transform="matrix(1 0 0 -1 45.54 135.869)"/><path d="M-1.554 2.072C-1.425 1.295.001.131.387.002.001-.131-1.425-1.295-1.554-2.072" style="fill:none;stroke-width:.6376;stroke-linecap:round;stroke-linejoin:round;stroke:gray;stroke-opacity:1;stroke-miterlimit:10" transform="matrix(1 0 0 -1 73.179 135.869)"/><use xlink:href="#b" x="64.925" y="143.877" style="fill:gray;fill-opacity:1"/><path d="M0 .002v27.637" style="fill:none;stroke-width:.79701;stroke-linecap:butt;stroke-linejoin:miter;stroke:gray;stroke-opacity:1;stroke-dasharray:2.98883,2.98883;stroke-miterlimit:10" transform="matrix(1 0 0 -1 45.54 135.869)"/><path d="M-1.555 2.071C-1.426 1.294 0 .13.39.001 0-.128-1.426-1.296-1.555-2.073" style="fill:none;stroke-width:.6376;stroke-linecap:round;stroke-linejoin:round;stroke:gray;stroke-opacity:1;stroke-miterlimit:10" transform="matrix(0 -1 -1 0 45.54 108.23)"/><use xlink:href="#c" x="36.75" y="115.531" style="fill:gray;fill-opacity:1"/><path d="M0 .002-18.6-18.6" style="fill:none;stroke-width:.79701;stroke-linecap:butt;stroke-linejoin:miter;stroke:gray;stroke-opacity:1;stroke-dasharray:2.98883,2.98883;stroke-miterlimit:10" transform="matrix(1 0 0 -1 45.54 135.869)"/><path d="M-1.554 2.07C-1.424 1.294 0 .128.388 0c-.39-.129-1.812-1.297-1.942-2.074" style="fill:none;stroke-width:.6376;stroke-linecap:round;stroke-linejoin:round;stroke:gray;stroke-opacity:1;stroke-miterlimit:10" transform="scale(-1 1)rotate(45 -199.931 44.713)"/><use xlink:href="#d" x="23.595" y="151.248" style="fill:gray;fill-opacity:1"/><path d="M0 .002h55.983" style="fill:none;stroke-width:.79701;stroke-linecap:butt;stroke-linejoin:miter;stroke:#000;stroke-opacity:1;stroke-miterlimit:10" transform="matrix(1 0 0 -1 45.54 135.869)"/><path d="M-1.553 2.072C-1.423 1.295-.002.131.39.002 0-.131-1.423-1.295-1.552-2.072" style="fill:none;stroke-width:.6376;stroke-linecap:round;stroke-linejoin:round;stroke:#000;stroke-opacity:1;stroke-miterlimit:10" transform="matrix(1 0 0 -1 101.525 135.869)"/><use xlink:href="#b" x="90.476" y="147.078" style="fill:#000;fill-opacity:1"/><use xlink:href="#e" x="95.718" y="143.462" style="fill:#000;fill-opacity:1"/><path d="M0 .002v55.984" style="fill:none;stroke-width:.79701;stroke-linecap:butt;stroke-linejoin:miter;stroke:#000;stroke-opacity:1;stroke-miterlimit:10" transform="matrix(1 0 0 -1 45.54 135.869)"/><path d="M-1.554 2.071C-1.425 1.294.001.13.388.001 0-.128-1.425-1.296-1.554-2.073" style="fill:none;stroke-width:.6376;stroke-linecap:round;stroke-linejoin:round;stroke:#000;stroke-opacity:1;stroke-miterlimit:10" transform="matrix(0 -1 -1 0 45.54 79.884)"/><use xlink:href="#c" x="33.955" y="90.386" style="fill:#000;fill-opacity:1"/><use xlink:href="#e" x="39.026" y="86.77" style="fill:#000;fill-opacity:1"/><g clip-path="url(#f)"><path d="M0 .002-29.514-29.51" style="fill:none;stroke-width:.79701;stroke-linecap:butt;stroke-linejoin:miter;stroke:#000;stroke-opacity:1;stroke-miterlimit:10" transform="matrix(1 0 0 -1 45.54 135.869)"/></g><g clip-path="url(#g)"><path d="M-1.556 2.072C-1.426 1.296 0 .131.39.001 0-.129-1.425-1.295-1.552-2.074" style="fill:none;stroke-width:.6376;stroke-linecap:round;stroke-linejoin:round;stroke:#000;stroke-opacity:1;stroke-miterlimit:10" transform="scale(-1 1)rotate(45 -207.648 63.343)"/></g><use xlink:href="#d" x="3.321" y="162.161" style="fill:#000;fill-opacity:1"/><use xlink:href="#e" x="9.014" y="158.546" style="fill:#000;fill-opacity:1"/><path d="m3.151 3.467 60.63 121.261" style="fill:none;stroke-width:.79701;stroke-linecap:butt;stroke-linejoin:miter;stroke:red;stroke-opacity:1;stroke-dasharray:.79701,1.99255;stroke-miterlimit:10" transform="matrix(1 0 0 -1 45.54 135.869)"/><path d="M-1.554 2.07C-1.424 1.298.001.132.39.003.001-.13-1.426-1.294-1.554-2.07" style="fill:none;stroke-width:.6376;stroke-linecap:round;stroke-linejoin:round;stroke:red;stroke-opacity:1;stroke-miterlimit:10" transform="matrix(-.44717 .89438 .89438 .44717 48.692 132.4)"/><path d="M0 99.213V3.54" style="fill:none;stroke-width:.79701;stroke-linecap:butt;stroke-linejoin:miter;stroke:gray;stroke-opacity:1;stroke-dasharray:.79701,1.99255;stroke-miterlimit:10" transform="matrix(1 0 0 -1 45.54 135.869)"/><path d="M-1.553 2.073C-1.424 1.296.002.128.388 0 .002-.13-1.424-1.294-1.553-2.07" style="fill:none;stroke-width:.6376;stroke-linecap:round;stroke-linejoin:round;stroke:gray;stroke-opacity:1;stroke-miterlimit:10" transform="matrix(0 1 1 0 45.54 132.326)"/><path d="M114.148 8.309a1.993 1.993 0 1 0-3.986.001 1.993 1.993 0 0 0 3.986-.001m0 0" style="stroke:none;fill-rule:nonzero;fill:gray;fill-opacity:1"/><use xlink:href="#h" x="118.444" y="10.811" style="fill:gray;fill-opacity:1"/><path d="M.001.002h4.77" style="fill:none;stroke-width:.398;stroke-linecap:butt;stroke-linejoin:miter;stroke:gray;stroke-opacity:1;stroke-miterlimit:10" transform="matrix(1 0 0 -1 118.444 12.205)"/><use xlink:href="#e" x="123.215" y="7.195" style="fill:gray;fill-opacity:1"/><use xlink:href="#i" x="123.215" y="13.301" style="fill:gray;fill-opacity:1"/><g style="fill:gray;fill-opacity:1"><use xlink:href="#j" x="127.13" y="13.301"/><use xlink:href="#k" x="130.91" y="13.301"/></g><path d="M114.148 107.523a1.993 1.993 0 1 0-3.986.002 1.993 1.993 0 0 0 3.986-.002m0 0" style="stroke:none;fill-rule:nonzero;fill:#00f;fill-opacity:1"/><use xlink:href="#h" x="118.444" y="109.899" style="fill:#00f;fill-opacity:1"/><path d="M.001 0h4.77" style="fill:none;stroke-width:.398;stroke-linecap:butt;stroke-linejoin:miter;stroke:#00f;stroke-opacity:1;stroke-miterlimit:10" transform="matrix(1 0 0 -1 118.444 111.293)"/><use xlink:href="#e" x="123.215" y="106.283" style="fill:#00f;fill-opacity:1"/><use xlink:href="#k" x="123.215" y="112.637" style="fill:#00f;fill-opacity:1"/><use xlink:href="#l" x="126.225" y="110.645" style="fill:#00f;fill-opacity:1"/><g style="fill:#00f;fill-opacity:1"><use xlink:href="#m" x="128.92" y="112.637"/><use xlink:href="#n" x="135.036" y="112.637"/></g><path d="M0 82.205V70.158" style="fill:none;stroke-width:.79701;stroke-linecap:butt;stroke-linejoin:miter;stroke:gray;stroke-opacity:1;stroke-miterlimit:10" transform="matrix(1 0 0 -1 45.54 135.869)"/><path d="M-1.553 2.073C-1.423 1.296.002.128.39 0 .002-.13-1.424-1.294-1.553-2.07" style="fill:none;stroke-width:.6376;stroke-linecap:round;stroke-linejoin:round;stroke:gray;stroke-opacity:1;stroke-miterlimit:10" transform="matrix(0 1 1 0 45.54 63.13)"/><path d="M-1.555 2.073C-1.426 1.296 0 .128.39 0 0-.13-1.426-1.294-1.555-2.07" style="fill:none;stroke-width:.6376;stroke-linecap:round;stroke-linejoin:round;stroke:gray;stroke-opacity:1;stroke-miterlimit:10" transform="matrix(0 1 1 0 45.54 65.711)"/><use xlink:href="#o" x="49.259" y="62.532" style="fill:gray;fill-opacity:1"/><use xlink:href="#p" x="57.008" y="62.532" style="fill:gray;fill-opacity:1"/><path d="M66.616 82.205V70.158" style="fill:none;stroke-width:.79701;stroke-linecap:butt;stroke-linejoin:miter;stroke:#00f;stroke-opacity:1;stroke-miterlimit:10" transform="matrix(1 0 0 -1 45.54 135.869)"/><path d="M-1.553 2.071C-1.423 1.294.002.13.39.001.002-.128-1.424-1.296-1.553-2.073" style="fill:none;stroke-width:.6376;stroke-linecap:round;stroke-linejoin:round;stroke:#00f;stroke-opacity:1;stroke-miterlimit:10" transform="matrix(0 1 1 0 112.155 63.13)"/><path d="M-1.555 2.071C-1.426 1.294 0 .13.39.001 0-.128-1.426-1.296-1.555-2.073" style="fill:none;stroke-width:.6376;stroke-linecap:round;stroke-linejoin:round;stroke:#00f;stroke-opacity:1;stroke-miterlimit:10" transform="matrix(0 1 1 0 112.155 65.711)"/><use xlink:href="#o" x="115.873" y="62.532" style="fill:#00f;fill-opacity:1"/><use xlink:href="#p" x="123.622" y="62.532" style="fill:#00f;fill-opacity:1"/><path d="M0 32.6c6.233 1.07 10.765-.165 15.241-3.958" style="fill:none;stroke-width:.3985;stroke-linecap:butt;stroke-linejoin:miter;stroke:#000;stroke-opacity:1;stroke-miterlimit:10" transform="matrix(1 0 0 -1 45.54 135.869)"/><path d="M-1.195 1.593C-1.095.997 0 .097.297 0c-.3-.1-1.394-.995-1.49-1.594" style="fill:none;stroke-width:.31879;stroke-linecap:round;stroke-linejoin:round;stroke:#000;stroke-opacity:1;stroke-miterlimit:10" transform="matrix(.76318 .64612 .64612 -.76318 60.781 107.227)"/><use xlink:href="#q" x="46.814" y="97.281" style="fill:#000;fill-opacity:1"/><use xlink:href="#e" x="51.768" y="93.666" style="fill:#000;fill-opacity:1"/><use xlink:href="#i" x="51.491" y="99.744" style="fill:#000;fill-opacity:1"/><g style="fill:#000;fill-opacity:1"><use xlink:href="#j" x="55.406" y="99.744"/><use xlink:href="#k" x="59.186" y="99.744"/></g></svg>