<?xml version="1.0" encoding="utf-8" standalone="no"?>
<!DOCTYPE svg PUBLIC "-//W3C//DTD SVG 1.1//EN"
  "http://www.w3.org/Graphics/SVG/1.1/DTD/svg11.dtd">
<!-- Created with matplotlib (https://matplotlib.org/) -->
<svg height="263.63625pt" version="1.1" viewBox="0 0 275.850937 263.63625" width="275.850937pt" xmlns="http://www.w3.org/2000/svg" xmlns:xlink="http://www.w3.org/1999/xlink">
 <metadata>
  <rdf:RDF xmlns:cc="http://creativecommons.org/ns#" xmlns:dc="http://purl.org/dc/elements/1.1/" xmlns:rdf="http://www.w3.org/1999/02/22-rdf-syntax-ns#">
   <cc:Work>
    <dc:type rdf:resource="http://purl.org/dc/dcmitype/StillImage"/>
    <dc:date>2021-07-30T18:50:27.689406</dc:date>
    <dc:format>image/svg+xml</dc:format>
    <dc:creator>
     <cc:Agent>
      <dc:title>Matplotlib v3.3.4, https://matplotlib.org/</dc:title>
     </cc:Agent>
    </dc:creator>
   </cc:Work>
  </rdf:RDF>
 </metadata>
 <defs>
  <style type="text/css">*{stroke-linecap:butt;stroke-linejoin:round;}</style>
 </defs>
 <g id="figure_1">
  <g id="patch_1">
   <path d="M 0 263.63625 
L 275.850937 263.63625 
L 275.850937 0 
L 0 0 
z
" style="fill:none;"/>
  </g>
  <g id="axes_1">
   <g id="patch_2">
    <path d="M 41.667187 239.758125 
L 259.107188 239.758125 
L 259.107188 22.318125 
L 41.667187 22.318125 
z
" style="fill:none;"/>
   </g>
   <g id="patch_3">
    <path clip-path="url(#p39303b039c)" d="M 150.387187 141.910125 
C 153.270476 141.910125 156.03606 140.764582 158.074852 138.72579 
C 160.113645 136.686997 161.259187 133.921413 161.259187 131.038125 
C 161.259187 128.154837 160.113645 125.389253 158.074852 123.35046 
C 156.03606 121.311668 153.270476 120.166125 150.387187 120.166125 
C 147.503899 120.166125 144.738315 121.311668 142.699523 123.35046 
C 140.66073 125.389253 139.515187 128.154837 139.515187 131.038125 
C 139.515187 133.921413 140.66073 136.686997 142.699523 138.72579 
C 144.738315 140.764582 147.503899 141.910125 150.387187 141.910125 
z
" style="stroke:#000000;stroke-linejoin:miter;"/>
   </g>
   <g id="matplotlib.axis_1">
    <g id="xtick_1">
     <g id="line2d_1">
      <defs>
       <path d="M 0 0 
L 0 3.5 
" id="m366aa8a57b" style="stroke:#000000;stroke-width:0.8;"/>
      </defs>
      <g>
       <use style="stroke:#000000;stroke-width:0.8;" x="41.667187" xlink:href="#m366aa8a57b" y="239.758125"/>
      </g>
     </g>
     <g id="text_1">
      <!-- −100 -->
      <g transform="translate(27.933594 254.356563)scale(0.1 -0.1)">
       <defs>
        <path d="M 10.59375 35.5 
L 73.1875 35.5 
L 73.1875 27.203125 
L 10.59375 27.203125 
z
" id="DejaVuSans-8722"/>
        <path d="M 12.40625 8.296875 
L 28.515625 8.296875 
L 28.515625 63.921875 
L 10.984375 60.40625 
L 10.984375 69.390625 
L 28.421875 72.90625 
L 38.28125 72.90625 
L 38.28125 8.296875 
L 54.390625 8.296875 
L 54.390625 0 
L 12.40625 0 
z
" id="DejaVuSans-49"/>
        <path d="M 31.78125 66.40625 
Q 24.171875 66.40625 20.328125 58.90625 
Q 16.5 51.421875 16.5 36.375 
Q 16.5 21.390625 20.328125 13.890625 
Q 24.171875 6.390625 31.78125 6.390625 
Q 39.453125 6.390625 43.28125 13.890625 
Q 47.125 21.390625 47.125 36.375 
Q 47.125 51.421875 43.28125 58.90625 
Q 39.453125 66.40625 31.78125 66.40625 
z
M 31.78125 74.21875 
Q 44.046875 74.21875 50.515625 64.515625 
Q 56.984375 54.828125 56.984375 36.375 
Q 56.984375 17.96875 50.515625 8.265625 
Q 44.046875 -1.421875 31.78125 -1.421875 
Q 19.53125 -1.421875 13.0625 8.265625 
Q 6.59375 17.96875 6.59375 36.375 
Q 6.59375 54.828125 13.0625 64.515625 
Q 19.53125 74.21875 31.78125 74.21875 
z
" id="DejaVuSans-48"/>
       </defs>
       <use xlink:href="#DejaVuSans-8722"/>
       <use x="83.789062" xlink:href="#DejaVuSans-49"/>
       <use x="147.412109" xlink:href="#DejaVuSans-48"/>
       <use x="211.035156" xlink:href="#DejaVuSans-48"/>
      </g>
     </g>
    </g>
    <g id="xtick_2">
     <g id="line2d_2">
      <g>
       <use style="stroke:#000000;stroke-width:0.8;" x="96.027187" xlink:href="#m366aa8a57b" y="239.758125"/>
      </g>
     </g>
     <g id="text_2">
      <!-- −50 -->
      <g transform="translate(85.474844 254.356563)scale(0.1 -0.1)">
       <defs>
        <path d="M 10.796875 72.90625 
L 49.515625 72.90625 
L 49.515625 64.59375 
L 19.828125 64.59375 
L 19.828125 46.734375 
Q 21.96875 47.46875 24.109375 47.828125 
Q 26.265625 48.1875 28.421875 48.1875 
Q 40.625 48.1875 47.75 41.5 
Q 54.890625 34.8125 54.890625 23.390625 
Q 54.890625 11.625 47.5625 5.09375 
Q 40.234375 -1.421875 26.90625 -1.421875 
Q 22.3125 -1.421875 17.546875 -0.640625 
Q 12.796875 0.140625 7.71875 1.703125 
L 7.71875 11.625 
Q 12.109375 9.234375 16.796875 8.0625 
Q 21.484375 6.890625 26.703125 6.890625 
Q 35.15625 6.890625 40.078125 11.328125 
Q 45.015625 15.765625 45.015625 23.390625 
Q 45.015625 31 40.078125 35.4375 
Q 35.15625 39.890625 26.703125 39.890625 
Q 22.75 39.890625 18.8125 39.015625 
Q 14.890625 38.140625 10.796875 36.28125 
z
" id="DejaVuSans-53"/>
       </defs>
       <use xlink:href="#DejaVuSans-8722"/>
       <use x="83.789062" xlink:href="#DejaVuSans-53"/>
       <use x="147.412109" xlink:href="#DejaVuSans-48"/>
      </g>
     </g>
    </g>
    <g id="xtick_3">
     <g id="line2d_3">
      <g>
       <use style="stroke:#000000;stroke-width:0.8;" x="150.387187" xlink:href="#m366aa8a57b" y="239.758125"/>
      </g>
     </g>
     <g id="text_3">
      <!-- 0 -->
      <g transform="translate(147.205937 254.356563)scale(0.1 -0.1)">
       <use xlink:href="#DejaVuSans-48"/>
      </g>
     </g>
    </g>
    <g id="xtick_4">
     <g id="line2d_4">
      <g>
       <use style="stroke:#000000;stroke-width:0.8;" x="204.747187" xlink:href="#m366aa8a57b" y="239.758125"/>
      </g>
     </g>
     <g id="text_4">
      <!-- 50 -->
      <g transform="translate(198.384687 254.356563)scale(0.1 -0.1)">
       <use xlink:href="#DejaVuSans-53"/>
       <use x="63.623047" xlink:href="#DejaVuSans-48"/>
      </g>
     </g>
    </g>
    <g id="xtick_5">
     <g id="line2d_5">
      <g>
       <use style="stroke:#000000;stroke-width:0.8;" x="259.107188" xlink:href="#m366aa8a57b" y="239.758125"/>
      </g>
     </g>
     <g id="text_5">
      <!-- 100 -->
      <g transform="translate(249.563438 254.356563)scale(0.1 -0.1)">
       <use xlink:href="#DejaVuSans-49"/>
       <use x="63.623047" xlink:href="#DejaVuSans-48"/>
       <use x="127.246094" xlink:href="#DejaVuSans-48"/>
      </g>
     </g>
    </g>
   </g>
   <g id="matplotlib.axis_2">
    <g id="ytick_1">
     <g id="line2d_6">
      <defs>
       <path d="M 0 0 
L -3.5 0 
" id="mb00dab88cd" style="stroke:#000000;stroke-width:0.8;"/>
      </defs>
      <g>
       <use style="stroke:#000000;stroke-width:0.8;" x="41.667187" xlink:href="#mb00dab88cd" y="239.758125"/>
      </g>
     </g>
     <g id="text_6">
      <!-- −100 -->
      <g transform="translate(7.2 243.557344)scale(0.1 -0.1)">
       <use xlink:href="#DejaVuSans-8722"/>
       <use x="83.789062" xlink:href="#DejaVuSans-49"/>
       <use x="147.412109" xlink:href="#DejaVuSans-48"/>
       <use x="211.035156" xlink:href="#DejaVuSans-48"/>
      </g>
     </g>
    </g>
    <g id="ytick_2">
     <g id="line2d_7">
      <g>
       <use style="stroke:#000000;stroke-width:0.8;" x="41.667187" xlink:href="#mb00dab88cd" y="212.578125"/>
      </g>
     </g>
     <g id="text_7">
      <!-- −75 -->
      <g transform="translate(13.5625 216.377344)scale(0.1 -0.1)">
       <defs>
        <path d="M 8.203125 72.90625 
L 55.078125 72.90625 
L 55.078125 68.703125 
L 28.609375 0 
L 18.3125 0 
L 43.21875 64.59375 
L 8.203125 64.59375 
z
" id="DejaVuSans-55"/>
       </defs>
       <use xlink:href="#DejaVuSans-8722"/>
       <use x="83.789062" xlink:href="#DejaVuSans-55"/>
       <use x="147.412109" xlink:href="#DejaVuSans-53"/>
      </g>
     </g>
    </g>
    <g id="ytick_3">
     <g id="line2d_8">
      <g>
       <use style="stroke:#000000;stroke-width:0.8;" x="41.667187" xlink:href="#mb00dab88cd" y="185.398125"/>
      </g>
     </g>
     <g id="text_8">
      <!-- −50 -->
      <g transform="translate(13.5625 189.197344)scale(0.1 -0.1)">
       <use xlink:href="#DejaVuSans-8722"/>
       <use x="83.789062" xlink:href="#DejaVuSans-53"/>
       <use x="147.412109" xlink:href="#DejaVuSans-48"/>
      </g>
     </g>
    </g>
    <g id="ytick_4">
     <g id="line2d_9">
      <g>
       <use style="stroke:#000000;stroke-width:0.8;" x="41.667187" xlink:href="#mb00dab88cd" y="158.218125"/>
      </g>
     </g>
     <g id="text_9">
      <!-- −25 -->
      <g transform="translate(13.5625 162.017344)scale(0.1 -0.1)">
       <defs>
        <path d="M 19.1875 8.296875 
L 53.609375 8.296875 
L 53.609375 0 
L 7.328125 0 
L 7.328125 8.296875 
Q 12.9375 14.109375 22.625 23.890625 
Q 32.328125 33.6875 34.8125 36.53125 
Q 39.546875 41.84375 41.421875 45.53125 
Q 43.3125 49.21875 43.3125 52.78125 
Q 43.3125 58.59375 39.234375 62.25 
Q 35.15625 65.921875 28.609375 65.921875 
Q 23.96875 65.921875 18.8125 64.3125 
Q 13.671875 62.703125 7.8125 59.421875 
L 7.8125 69.390625 
Q 13.765625 71.78125 18.9375 73 
Q 24.125 74.21875 28.421875 74.21875 
Q 39.75 74.21875 46.484375 68.546875 
Q 53.21875 62.890625 53.21875 53.421875 
Q 53.21875 48.921875 51.53125 44.890625 
Q 49.859375 40.875 45.40625 35.40625 
Q 44.1875 33.984375 37.640625 27.21875 
Q 31.109375 20.453125 19.1875 8.296875 
z
" id="DejaVuSans-50"/>
       </defs>
       <use xlink:href="#DejaVuSans-8722"/>
       <use x="83.789062" xlink:href="#DejaVuSans-50"/>
       <use x="147.412109" xlink:href="#DejaVuSans-53"/>
      </g>
     </g>
    </g>
    <g id="ytick_5">
     <g id="line2d_10">
      <g>
       <use style="stroke:#000000;stroke-width:0.8;" x="41.667187" xlink:href="#mb00dab88cd" y="131.038125"/>
      </g>
     </g>
     <g id="text_10">
      <!-- 0 -->
      <g transform="translate(28.304687 134.837344)scale(0.1 -0.1)">
       <use xlink:href="#DejaVuSans-48"/>
      </g>
     </g>
    </g>
    <g id="ytick_6">
     <g id="line2d_11">
      <g>
       <use style="stroke:#000000;stroke-width:0.8;" x="41.667187" xlink:href="#mb00dab88cd" y="103.858125"/>
      </g>
     </g>
     <g id="text_11">
      <!-- 25 -->
      <g transform="translate(21.942187 107.657344)scale(0.1 -0.1)">
       <use xlink:href="#DejaVuSans-50"/>
       <use x="63.623047" xlink:href="#DejaVuSans-53"/>
      </g>
     </g>
    </g>
    <g id="ytick_7">
     <g id="line2d_12">
      <g>
       <use style="stroke:#000000;stroke-width:0.8;" x="41.667187" xlink:href="#mb00dab88cd" y="76.678125"/>
      </g>
     </g>
     <g id="text_12">
      <!-- 50 -->
      <g transform="translate(21.942187 80.477344)scale(0.1 -0.1)">
       <use xlink:href="#DejaVuSans-53"/>
       <use x="63.623047" xlink:href="#DejaVuSans-48"/>
      </g>
     </g>
    </g>
    <g id="ytick_8">
     <g id="line2d_13">
      <g>
       <use style="stroke:#000000;stroke-width:0.8;" x="41.667187" xlink:href="#mb00dab88cd" y="49.498125"/>
      </g>
     </g>
     <g id="text_13">
      <!-- 75 -->
      <g transform="translate(21.942187 53.297344)scale(0.1 -0.1)">
       <use xlink:href="#DejaVuSans-55"/>
       <use x="63.623047" xlink:href="#DejaVuSans-53"/>
      </g>
     </g>
    </g>
    <g id="ytick_9">
     <g id="line2d_14">
      <g>
       <use style="stroke:#000000;stroke-width:0.8;" x="41.667187" xlink:href="#mb00dab88cd" y="22.318125"/>
      </g>
     </g>
     <g id="text_14">
      <!-- 100 -->
      <g transform="translate(15.579687 26.117344)scale(0.1 -0.1)">
       <use xlink:href="#DejaVuSans-49"/>
       <use x="63.623047" xlink:href="#DejaVuSans-48"/>
       <use x="127.246094" xlink:href="#DejaVuSans-48"/>
      </g>
     </g>
    </g>
   </g>
   <g id="line2d_15">
    <path clip-path="url(#p39303b039c)" d="M 0 0 
" style="fill:none;stroke:#000000;stroke-linecap:square;"/>
   </g>
   <g id="line2d_16">
    <path clip-path="url(#p39303b039c)" d="M 0 0 
" style="fill:none;stroke:#000000;stroke-linecap:square;"/>
   </g>
   <g id="line2d_17">
    <path clip-path="url(#p39303b039c)" d="M 0 0 
" style="fill:none;stroke:#000000;stroke-linecap:square;"/>
   </g>
   <g id="line2d_18">
    <path clip-path="url(#p39303b039c)" d="M 0 0 
" style="fill:none;stroke:#000000;stroke-linecap:square;"/>
   </g>
   <g id="line2d_19">
    <path clip-path="url(#p39303b039c)" d="M 0 0 
" style="fill:none;stroke:#000000;stroke-linecap:square;"/>
   </g>
   <g id="line2d_20">
    <path clip-path="url(#p39303b039c)" d="M 224.042927 264.63625 
L 246.597971 262.446328 
L 259.116433 261.144177 
L 259.116433 261.144177 
" style="fill:none;stroke:#000000;stroke-linecap:square;"/>
   </g>
   <g id="line2d_21">
    <path clip-path="url(#p39303b039c)" d="M 145.617516 264.63625 
L 163.982299 263.58839 
L 182.38143 262.314485 
L 201.19707 260.788678 
L 221.075227 258.952705 
L 242.66061 256.732489 
L 259.267461 254.888701 
L 259.267461 254.888701 
" style="fill:none;stroke:#000000;stroke-linecap:square;"/>
   </g>
   <g id="line2d_22">
    <path clip-path="url(#p39303b039c)" d="M 41.884192 261.502118 
L 67.490002 261.388841 
L 89.838021 261.072665 
L 110.011389 260.56968 
L 128.875896 259.878277 
L 146.863154 258.995799 
L 164.404484 257.911752 
L 181.930769 256.605837 
L 200.08836 255.027173 
L 219.090386 253.150297 
L 239.797058 250.877616 
L 259.189896 248.569406 
L 259.189896 248.569406 
" style="fill:none;stroke:#000000;stroke-linecap:square;"/>
   </g>
   <g id="line2d_23">
    <path clip-path="url(#p39303b039c)" d="M 41.884192 256.066117 
L 67.05594 255.952542 
L 88.969754 255.635055 
L 108.708675 255.128744 
L 126.921556 254.440008 
L 144.040204 253.572937 
L 160.712694 252.508344 
L 177.369649 251.223009 
L 194.440919 249.682066 
L 212.355486 247.839764 
L 231.541543 245.641469 
L 252.857104 242.970447 
L 259.311458 242.12141 
L 259.311458 242.12141 
" style="fill:none;stroke:#000000;stroke-linecap:square;"/>
   </g>
   <g id="line2d_24">
    <path clip-path="url(#p39303b039c)" d="M 41.884192 250.630117 
L 66.621874 250.516452 
L 88.101473 250.198202 
L 107.189067 249.696384 
L 124.750437 249.014568 
L 141.217278 248.15566 
L 157.237419 247.098126 
L 173.024945 245.834437 
L 189.2258 244.312655 
L 206.052633 242.506022 
L 223.933522 240.361107 
L 243.510757 237.786848 
L 259.197382 235.583285 
L 259.197382 235.583285 
" style="fill:none;stroke:#000000;stroke-linecap:square;"/>
   </g>
   <g id="line2d_25">
    <path clip-path="url(#p39303b039c)" d="M 41.884192 245.194117 
L 66.187804 245.08061 
L 87.016244 244.766788 
L 105.669451 244.266249 
L 122.579334 243.593233 
L 138.394411 242.7449 
L 153.762251 241.69724 
L 168.896576 240.440067 
L 184.011101 238.961874 
L 199.750518 237.197968 
L 216.541883 235.087694 
L 234.811147 232.561111 
L 254.983588 229.542706 
L 259.27186 228.875062 
L 259.27186 228.875062 
" style="fill:none;stroke:#000000;stroke-linecap:square;"/>
   </g>
   <g id="line2d_26">
    <path clip-path="url(#p39303b039c)" d="M 41.884192 239.758117 
L 65.75373 239.645056 
L 86.147943 239.332015 
L 104.149833 238.838697 
L 120.624971 238.166266 
L 135.788166 237.328129 
L 150.287271 236.307277 
L 164.552476 235.080555 
L 178.797073 233.632971 
L 193.449554 231.920117 
L 208.936878 229.88291 
L 225.684549 227.45033 
L 244.116982 224.543194 
L 259.311962 221.999604 
L 259.311962 221.999604 
" style="fill:none;stroke:#000000;stroke-linecap:square;"/>
   </g>
   <g id="line2d_27">
    <path clip-path="url(#p39303b039c)" d="M 41.884192 234.322117 
L 65.319652 234.209839 
L 85.279632 233.898497 
L 102.847054 233.406588 
L 118.670627 232.744239 
L 133.398488 231.90526 
L 147.245028 230.895007 
L 160.640788 229.697587 
L 174.015112 228.280485 
L 187.79565 226.59363 
L 202.193408 224.60183 
L 217.419265 222.268552 
L 234.111906 219.483091 
L 252.907265 216.116626 
L 259.306972 214.924553 
L 259.306972 214.924553 
" style="fill:none;stroke:#000000;stroke-linecap:square;"/>
   </g>
   <g id="line2d_28">
    <path clip-path="url(#p39303b039c)" d="M 41.884192 228.886116 
L 65.102548 228.772789 
L 84.628232 228.461648 
L 101.761082 227.969856 
L 116.932984 227.317024 
L 131.008871 226.490823 
L 144.202946 225.495098 
L 156.945356 224.311169 
L 169.449381 222.928031 
L 182.142972 221.300775 
L 195.237414 219.398309 
L 209.157541 217.149804 
L 224.326053 214.470104 
L 241.164025 211.264268 
L 259.241832 207.608711 
L 259.241832 207.608711 
" style="fill:none;stroke:#000000;stroke-linecap:square;"/>
   </g>
   <g id="line2d_29">
    <path clip-path="url(#p39303b039c)" d="M 41.884192 223.450116 
L 64.668461 223.338384 
L 83.976814 223.026328 
L 100.458287 222.544355 
L 115.195367 221.895977 
L 128.619388 221.086352 
L 141.161165 220.109845 
L 153.250427 218.944837 
L 165.09984 217.576874 
L 176.921594 215.98627 
L 188.92735 214.147593 
L 201.541773 211.991551 
L 215.186749 209.430942 
L 230.281766 206.365213 
L 247.244736 202.685741 
L 259.306464 199.949757 
L 259.306464 199.949757 
" style="fill:none;stroke:#000000;stroke-linecap:square;"/>
   </g>
   <g id="line2d_30">
    <path clip-path="url(#p39303b039c)" d="M 41.884192 218.014116 
L 64.451344 217.902219 
L 83.32538 217.592829 
L 99.589078 217.106944 
L 113.891008 216.459007 
L 126.662792 215.662777 
L 138.551824 214.702892 
L 149.77184 213.578597 
L 160.751437 212.25682 
L 171.702046 210.713281 
L 182.834159 208.916603 
L 194.357329 206.828742 
L 206.692656 204.361817 
L 220.046341 201.458332 
L 234.835703 198.01034 
L 251.686732 193.848305 
L 259.255015 191.914511 
L 259.255015 191.914511 
" style="fill:none;stroke:#000000;stroke-linecap:square;"/>
   </g>
   <g id="line2d_31">
    <path clip-path="url(#p39303b039c)" d="M 41.884192 212.578116 
L 64.451188 212.46429 
L 82.890832 212.156413 
L 98.719843 211.673838 
L 112.370074 211.04131 
L 124.706309 210.251068 
L 135.942816 209.313506 
L 146.509572 208.213916 
L 156.834416 206.915095 
L 166.913589 205.421938 
L 176.958331 203.710689 
L 187.391265 201.705537 
L 198.207091 199.400161 
L 209.824429 196.696381 
L 222.657957 193.477503 
L 237.119386 189.614435 
L 253.618847 184.971836 
L 259.246334 183.342849 
L 259.246334 183.342849 
" style="fill:none;stroke:#000000;stroke-linecap:square;"/>
   </g>
   <g id="line2d_32">
    <path clip-path="url(#p39303b039c)" d="M 41.884192 207.142116 
L 64.234053 207.029314 
L 82.456261 206.722376 
L 97.850595 206.245906 
L 111.065766 205.620819 
L 122.966246 204.837138 
L 133.7659 203.903187 
L 143.678782 202.826949 
L 153.133562 201.58137 
L 162.341732 200.147346 
L 171.51337 198.495566 
L 180.856778 196.585959 
L 190.57831 194.368353 
L 200.882517 191.784186 
L 211.972596 188.768963 
L 224.258855 185.192625 
L 238.148131 180.912149 
L 254.251535 175.710121 
L 259.194879 174.072645 
L 259.194879 174.072645 
" style="fill:none;stroke:#000000;stroke-linecap:square;"/>
   </g>
   <g id="line2d_33">
    <path clip-path="url(#p39303b039c)" d="M 41.884192 201.706116 
L 64.233873 201.592759 
L 82.238548 201.285965 
L 97.198084 200.815514 
L 109.978036 200.198361 
L 121.226416 199.439116 
L 131.373727 198.536655 
L 140.848839 197.470742 
L 149.648951 196.259221 
L 158.200142 194.85699 
L 166.498575 193.272173 
L 174.75359 191.473258 
L 183.381973 189.361474 
L 192.375616 186.924059 
L 201.93631 184.095127 
L 212.264048 180.801817 
L 223.76263 176.895805 
L 236.83155 172.214992 
L 252.070844 166.513261 
L 259.160547 163.79192 
L 259.160547 163.79192 
" style="fill:none;stroke:#000000;stroke-linecap:square;"/>
   </g>
   <g id="line2d_34">
    <path clip-path="url(#p39303b039c)" d="M 41.884192 196.270116 
L 64.23368 196.157098 
L 82.020806 195.852809 
L 96.762268 195.383369 
L 109.106826 194.77507 
L 119.919073 194.025351 
L 129.629028 193.130805 
L 138.449906 192.095759 
L 146.594585 190.919353 
L 154.275037 189.591271 
L 161.912997 188.042182 
L 169.291494 186.319791 
L 176.827242 184.329947 
L 184.51319 182.067475 
L 192.550183 179.466759 
L 201.13564 176.450446 
L 210.464283 172.932812 
L 220.929808 168.740874 
L 232.721056 163.772584 
L 246.622825 157.664283 
L 259.270769 151.933773 
L 259.270769 151.933773 
" style="fill:none;stroke:#000000;stroke-linecap:square;"/>
   </g>
   <g id="line2d_35">
    <path clip-path="url(#p39303b039c)" d="M 41.884192 190.834116 
L 64.233476 190.722499 
L 82.019893 190.418252 
L 96.326438 189.959313 
L 108.452071 189.352482 
L 118.827928 188.614454 
L 127.884837 187.753881 
L 136.052214 186.761161 
L 143.54254 185.633703 
L 150.566951 184.358163 
L 157.334097 182.906402 
L 163.83981 181.288286 
L 170.289517 179.459598 
L 176.883532 177.356873 
L 183.613433 174.973859 
L 190.674393 172.231539 
L 198.057943 169.123505 
L 206.15262 165.469834 
L 215.141326 161.160089 
L 225.206067 156.08201 
L 236.912035 149.919662 
L 250.816014 142.340045 
L 259.155596 137.69389 
L 259.155596 137.69389 
" style="fill:none;stroke:#000000;stroke-linecap:square;"/>
   </g>
   <g id="line2d_36">
    <path clip-path="url(#p39303b039c)" d="M 41.884192 185.398117 
L 64.667157 185.284479 
L 82.23578 184.982982 
L 96.3239 184.527069 
L 108.013702 183.932661 
L 117.952891 183.209374 
L 126.571857 182.364099 
L 134.299194 181.384677 
L 141.346247 180.265654 
L 147.711053 179.034491 
L 153.814583 177.627666 
L 159.650956 176.051574 
L 165.216729 174.321228 
L 170.713891 172.383558 
L 176.336729 170.161961 
L 182.074274 167.647983 
L 187.918803 164.841315 
L 194.056884 161.646198 
L 200.667836 157.951303 
L 207.925322 153.634483 
L 215.999534 148.567462 
L 225.239728 142.499256 
L 235.988633 135.168196 
L 248.940313 126.057431 
L 259.160907 118.715946 
L 259.160907 118.715946 
" style="fill:none;stroke:#000000;stroke-linecap:square;"/>
   </g>
   <g id="line2d_37">
    <path clip-path="url(#p39303b039c)" d="M 41.884192 179.962117 
L 64.883869 179.850364 
L 82.45162 179.553232 
L 96.321313 179.106137 
L 107.575415 178.531789 
L 117.078196 177.832722 
L 125.259617 177.014025 
L 132.333618 176.0925 
L 138.726925 175.043107 
L 144.648016 173.846004 
L 150.092413 172.5174 
L 155.264494 171.020596 
L 160.15833 169.366317 
L 164.771124 167.573391 
L 169.298837 165.57608 
L 173.734431 163.379398 
L 178.260501 160.886153 
L 182.8636 158.088873 
L 187.534236 154.987324 
L 192.440699 151.458589 
L 197.739654 147.36218 
L 203.413719 142.685636 
L 209.615536 137.283 
L 216.65183 130.854398 
L 224.817296 123.085692 
L 234.554774 113.503525 
L 246.451544 101.471604 
L 259.134961 88.382136 
L 259.134961 88.382136 
" style="fill:none;stroke:#000000;stroke-linecap:square;"/>
   </g>
   <g id="line2d_38">
    <path clip-path="url(#p39303b039c)" d="M 41.884192 174.526117 
L 65.534434 174.413552 
L 83.101019 174.119647 
L 96.751829 173.680914 
L 107.785781 173.113111 
L 116.85072 172.433403 
L 124.592558 171.636201 
L 131.224607 170.73718 
L 137.171982 169.708375 
L 142.431532 168.575844 
L 147.21135 167.322569 
L 151.509893 165.976039 
L 155.529566 164.494962 
L 159.460421 162.805499 
L 163.097226 160.998702 
L 166.625061 158.991861 
L 170.032029 156.786975 
L 173.309139 154.391224 
L 176.451116 151.816293 
L 179.611222 148.928889 
L 182.623646 145.87975 
L 185.775726 142.363883 
L 188.905007 138.535412 
L 192.135669 134.229213 
L 195.573292 129.264312 
L 199.195613 123.633292 
L 203.210597 116.96326 
L 207.697529 109.055121 
L 212.83888 99.519468 
L 218.9084 87.769307 
L 226.266505 73.017711 
L 235.548518 53.887012 
L 247.746424 28.20711 
L 259.165566 3.836083 
L 259.165566 3.836083 
" style="fill:none;stroke:#000000;stroke-linecap:square;"/>
   </g>
   <g id="line2d_39">
    <path clip-path="url(#p39303b039c)" d="M 41.884192 169.090118 
L 66.401886 168.97696 
L 84.183861 168.684024 
L 97.831684 168.245467 
L 108.644007 167.680441 
L 117.26909 167.015832 
L 124.568352 166.235156 
L 130.754203 165.353285 
L 136.03924 164.382837 
L 140.634806 163.325797 
L 144.747966 162.164656 
L 148.576662 160.85398 
L 151.915799 159.485794 
L 154.962655 158.011186 
L 157.893727 156.340934 
L 160.514044 154.587925 
L 162.828065 152.78382 
L 164.995678 150.816955 
L 166.998136 148.690552 
L 168.694137 146.5793 
L 170.219616 144.345051 
L 171.563747 141.998767 
L 172.718167 139.553414 
L 173.677357 137.023395 
L 174.438868 134.423916 
L 175.038734 131.564384 
L 175.41493 128.660571 
L 175.57587 125.729518 
L 175.522533 122.575855 
L 175.252382 119.423416 
L 174.746752 116.075527 
L 173.990164 112.546213 
L 172.974286 108.848781 
L 171.625234 104.793152 
L 169.919745 100.396603 
L 167.846605 95.673138 
L 165.307529 90.439809 
L 162.084684 84.330029 
L 158.148874 77.365104 
L 153.265084 69.186823 
L 147.069906 59.259988 
L 139.067893 46.875249 
L 128.512626 30.968283 
L 114.159206 9.763249 
L 106.797164 -1 
L 106.797164 -1 
" style="fill:none;stroke:#000000;stroke-linecap:square;"/>
   </g>
   <g id="line2d_40">
    <path clip-path="url(#p39303b039c)" d="M 41.884192 163.654119 
L 67.4862 163.541387 
L 85.699988 163.248935 
L 99.127528 162.822295 
L 109.501482 162.281796 
L 117.901351 161.627332 
L 124.756241 160.873726 
L 130.493171 160.021215 
L 135.323399 159.082593 
L 139.456358 158.060085 
L 143.09542 156.934998 
L 146.237632 155.738877 
L 149.07317 154.422308 
L 151.589316 153.001248 
L 153.776955 151.500266 
L 155.6327 149.951797 
L 157.160833 148.394373 
L 158.485698 146.712327 
L 159.478108 145.090652 
L 160.232634 143.408326 
L 160.679792 141.8795 
L 160.887133 140.39016 
L 160.853238 139.017147 
L 160.585004 137.756177 
L 160.12169 136.675764 
L 159.83766 136.412967 
L 150.387187 131.038125 
L 150.387187 131.038125 
" style="fill:none;stroke:#000000;stroke-linecap:square;"/>
   </g>
   <g id="line2d_41">
    <path clip-path="url(#p39303b039c)" d="M 41.884192 158.21812 
L 69.004243 158.105878 
L 87.649184 157.818133 
L 101.071679 157.400039 
L 111.220642 156.871394 
L 119.175439 156.241359 
L 125.579928 155.514685 
L 130.649146 154.729096 
L 135.015484 153.834199 
L 138.673165 152.86263 
L 141.820157 151.797436 
L 144.45144 150.676594 
L 146.744362 149.453888 
L 148.677303 148.157629 
L 150.234234 146.832781 
L 151.411505 145.541855 
L 152.301188 144.233116 
L 152.859477 143.037655 
L 153.177902 141.857774 
L 153.143942 141.55481 
L 150.387187 131.038125 
L 150.387187 131.038125 
" style="fill:none;stroke:#000000;stroke-linecap:square;"/>
   </g>
   <g id="line2d_42">
    <path clip-path="url(#p39303b039c)" d="M 41.884192 152.78212 
L 71.172806 152.67046 
L 90.464344 152.38766 
L 103.878972 151.980442 
L 113.582701 151.478243 
L 121.085869 150.877747 
L 127.029209 150.182762 
L 131.626339 149.433712 
L 135.501404 148.581737 
L 138.644985 147.667235 
L 141.245142 146.682889 
L 143.295273 145.685293 
L 144.953193 144.653673 
L 146.301326 143.564124 
L 147.288725 142.494432 
L 147.803878 141.69145 
L 147.827574 141.604522 
L 150.387187 131.038125 
L 150.387187 131.038125 
" style="fill:none;stroke:#000000;stroke-linecap:square;"/>
   </g>
   <g id="line2d_43">
    <path clip-path="url(#p39303b039c)" d="M 41.884192 147.346122 
L 74.425376 147.235118 
L 94.57734 146.958957 
L 107.977751 146.564605 
L 117.439499 146.072241 
L 124.256882 145.508142 
L 129.497122 144.863529 
L 133.574957 144.149168 
L 136.881774 143.34664 
L 139.398057 142.520003 
L 141.433094 141.627333 
L 142.971087 140.724446 
L 143.968679 139.924361 
L 144.022838 139.852625 
L 150.387187 131.038125 
L 150.387187 131.038125 
" style="fill:none;stroke:#000000;stroke-linecap:square;"/>
   </g>
   <g id="line2d_44">
    <path clip-path="url(#p39303b039c)" d="M 41.884192 141.910123 
L 80.06205 141.797832 
L 101.065902 141.532195 
L 114.002184 141.164537 
L 122.75894 140.706444 
L 128.834751 140.181087 
L 133.275093 139.590993 
L 136.649881 138.931318 
L 139.208829 138.21409 
L 141.189266 137.426966 
L 141.469317 137.256802 
L 150.387187 131.038125 
L 150.387187 131.038125 
" style="fill:none;stroke:#000000;stroke-linecap:square;"/>
   </g>
   <g id="line2d_45">
    <path clip-path="url(#p39303b039c)" d="M 41.884192 136.474124 
L 91.111987 136.362239 
L 112.92541 136.111467 
L 124.647873 135.772553 
L 131.832584 135.355526 
L 136.448791 134.879292 
L 139.62206 134.337905 
L 139.996737 134.237953 
L 150.387187 131.038125 
L 150.387187 131.038125 
" style="fill:none;stroke:#000000;stroke-linecap:square;"/>
   </g>
   <g id="line2d_46">
    <path clip-path="url(#p39303b039c)" d="M 41.884192 131.038125 
L 150.387187 131.038125 
L 150.387187 131.038125 
" style="fill:none;stroke:#000000;stroke-linecap:square;"/>
   </g>
   <g id="line2d_47">
    <path clip-path="url(#p39303b039c)" d="M 41.884192 125.602126 
L 91.111987 125.714011 
L 112.92541 125.964783 
L 124.647873 126.303697 
L 131.832584 126.720724 
L 136.448791 127.196958 
L 139.62206 127.738345 
L 139.996737 127.838297 
L 150.387187 131.038125 
L 150.387187 131.038125 
" style="fill:none;stroke:#000000;stroke-linecap:square;"/>
   </g>
   <g id="line2d_48">
    <path clip-path="url(#p39303b039c)" d="M 41.884192 120.166127 
L 80.06205 120.278418 
L 101.065902 120.544055 
L 114.002184 120.911713 
L 122.75894 121.369806 
L 128.834751 121.895163 
L 133.275093 122.485257 
L 136.649881 123.144932 
L 139.208829 123.86216 
L 141.189266 124.649284 
L 141.469317 124.819448 
L 150.387187 131.038125 
L 150.387187 131.038125 
" style="fill:none;stroke:#000000;stroke-linecap:square;"/>
   </g>
   <g id="line2d_49">
    <path clip-path="url(#p39303b039c)" d="M 41.884192 114.730128 
L 74.425376 114.841132 
L 94.57734 115.117293 
L 107.977751 115.511645 
L 117.439499 116.004009 
L 124.256882 116.568108 
L 129.497122 117.212721 
L 133.574957 117.927082 
L 136.881774 118.72961 
L 139.398057 119.556247 
L 141.433094 120.448917 
L 142.971087 121.351804 
L 143.968679 122.151889 
L 144.022838 122.223625 
L 150.387187 131.038125 
L 150.387187 131.038125 
" style="fill:none;stroke:#000000;stroke-linecap:square;"/>
   </g>
   <g id="line2d_50">
    <path clip-path="url(#p39303b039c)" d="M 41.884192 109.29413 
L 71.172806 109.40579 
L 90.464344 109.68859 
L 103.878972 110.095808 
L 113.582701 110.598007 
L 121.085869 111.198503 
L 127.029209 111.893488 
L 131.626339 112.642538 
L 135.501404 113.494513 
L 138.644985 114.409015 
L 141.245142 115.393361 
L 143.295273 116.390957 
L 144.953193 117.422577 
L 146.301326 118.512126 
L 147.288725 119.581818 
L 147.803878 120.3848 
L 147.827574 120.471728 
L 150.387187 131.038125 
L 150.387187 131.038125 
" style="fill:none;stroke:#000000;stroke-linecap:square;"/>
   </g>
   <g id="line2d_51">
    <path clip-path="url(#p39303b039c)" d="M 41.884192 103.85813 
L 69.004243 103.970372 
L 87.649184 104.258117 
L 101.071679 104.676211 
L 111.220642 105.204856 
L 119.175439 105.834891 
L 125.579928 106.561565 
L 130.649146 107.347154 
L 135.015484 108.242051 
L 138.673165 109.21362 
L 141.820157 110.278814 
L 144.45144 111.399656 
L 146.744362 112.622362 
L 148.677303 113.918621 
L 150.234234 115.243469 
L 151.411505 116.534395 
L 152.301188 117.843134 
L 152.859477 119.038595 
L 153.177902 120.218476 
L 153.143942 120.52144 
L 150.387187 131.038125 
L 150.387187 131.038125 
" style="fill:none;stroke:#000000;stroke-linecap:square;"/>
   </g>
   <g id="line2d_52">
    <path clip-path="url(#p39303b039c)" d="M 41.884192 98.422131 
L 67.4862 98.534863 
L 85.699988 98.827315 
L 99.127528 99.253955 
L 109.501482 99.794454 
L 117.901351 100.448918 
L 124.756241 101.202524 
L 130.493171 102.055035 
L 135.323399 102.993657 
L 139.456358 104.016165 
L 143.09542 105.141252 
L 146.237632 106.337373 
L 149.07317 107.653942 
L 151.589316 109.075002 
L 153.776955 110.575984 
L 155.6327 112.124453 
L 157.160833 113.681877 
L 158.485698 115.363923 
L 159.478108 116.985598 
L 160.232634 118.667924 
L 160.679792 120.19675 
L 160.887133 121.68609 
L 160.853238 123.059103 
L 160.585004 124.320073 
L 160.12169 125.400486 
L 159.83766 125.663283 
L 150.387187 131.038125 
L 150.387187 131.038125 
" style="fill:none;stroke:#000000;stroke-linecap:square;"/>
   </g>
   <g id="line2d_53">
    <path clip-path="url(#p39303b039c)" d="M 41.884192 92.986132 
L 66.401886 93.09929 
L 84.183861 93.392226 
L 97.831684 93.830783 
L 108.644007 94.395809 
L 117.26909 95.060418 
L 124.568352 95.841094 
L 130.754203 96.722965 
L 136.03924 97.693413 
L 140.634806 98.750453 
L 144.747966 99.911594 
L 148.576662 101.22227 
L 151.915799 102.590456 
L 154.962655 104.065064 
L 157.893727 105.735316 
L 160.514044 107.488325 
L 162.828065 109.29243 
L 164.995678 111.259295 
L 166.998136 113.385698 
L 168.694137 115.49695 
L 170.219616 117.731199 
L 171.563747 120.077483 
L 172.718167 122.522836 
L 173.677357 125.052855 
L 174.438868 127.652334 
L 175.038734 130.511866 
L 175.41493 133.415679 
L 175.57587 136.346732 
L 175.522533 139.500395 
L 175.252382 142.652834 
L 174.746752 146.000723 
L 173.990164 149.530037 
L 172.974286 153.227469 
L 171.625234 157.283098 
L 169.919745 161.679647 
L 167.846605 166.403112 
L 165.307529 171.636441 
L 162.084684 177.746221 
L 158.148874 184.711146 
L 153.265084 192.889427 
L 147.069906 202.816262 
L 139.067893 215.201001 
L 128.512626 231.107967 
L 114.159206 252.313001 
L 105.726996 264.63625 
L 105.726996 264.63625 
" style="fill:none;stroke:#000000;stroke-linecap:square;"/>
   </g>
   <g id="line2d_54">
    <path clip-path="url(#p39303b039c)" d="M 41.884192 87.550133 
L 65.534434 87.662698 
L 83.101019 87.956603 
L 96.751829 88.395336 
L 107.785781 88.963139 
L 116.85072 89.642847 
L 124.592558 90.440049 
L 131.224607 91.33907 
L 137.171982 92.367875 
L 142.431532 93.500406 
L 147.21135 94.753681 
L 151.509893 96.100211 
L 155.529566 97.581288 
L 159.460421 99.270751 
L 163.097226 101.077548 
L 166.625061 103.084389 
L 170.032029 105.289275 
L 173.309139 107.685026 
L 176.451116 110.259957 
L 179.611222 113.147361 
L 182.623646 116.1965 
L 185.775726 119.712367 
L 188.905007 123.540838 
L 192.135669 127.847037 
L 195.573292 132.811938 
L 199.195613 138.442958 
L 203.210597 145.11299 
L 207.697529 153.021129 
L 212.83888 162.556782 
L 218.9084 174.306943 
L 226.266505 189.058539 
L 235.548518 208.189238 
L 247.746424 233.86914 
L 259.165566 258.240167 
L 259.165566 258.240167 
" style="fill:none;stroke:#000000;stroke-linecap:square;"/>
   </g>
   <g id="line2d_55">
    <path clip-path="url(#p39303b039c)" d="M 41.884192 82.114133 
L 64.883869 82.225886 
L 82.45162 82.523018 
L 96.321313 82.970113 
L 107.575415 83.544461 
L 117.078196 84.243528 
L 125.259617 85.062225 
L 132.333618 85.98375 
L 138.726925 87.033143 
L 144.648016 88.230246 
L 150.092413 89.55885 
L 155.264494 91.055654 
L 160.15833 92.709933 
L 164.771124 94.502859 
L 169.298837 96.50017 
L 173.734431 98.696852 
L 178.260501 101.190097 
L 182.8636 103.987377 
L 187.534236 107.088926 
L 192.440699 110.617661 
L 197.739654 114.71407 
L 203.413719 119.390614 
L 209.615536 124.79325 
L 216.65183 131.221852 
L 224.817296 138.990558 
L 234.554774 148.572725 
L 246.451544 160.604646 
L 259.134961 173.694114 
L 259.134961 173.694114 
" style="fill:none;stroke:#000000;stroke-linecap:square;"/>
   </g>
   <g id="line2d_56">
    <path clip-path="url(#p39303b039c)" d="M 41.884192 76.678133 
L 64.667157 76.791771 
L 82.23578 77.093268 
L 96.3239 77.549181 
L 108.013702 78.143589 
L 117.952891 78.866876 
L 126.571857 79.712151 
L 134.299194 80.691573 
L 141.346247 81.810596 
L 147.711053 83.041759 
L 153.814583 84.448584 
L 159.650956 86.024676 
L 165.216729 87.755022 
L 170.713891 89.692692 
L 176.336729 91.914289 
L 182.074274 94.428267 
L 187.918803 97.234935 
L 194.056884 100.430052 
L 200.667836 104.124947 
L 207.925322 108.441767 
L 215.999534 113.508788 
L 225.239728 119.576994 
L 235.988633 126.908054 
L 248.940313 136.018819 
L 259.160907 143.360304 
L 259.160907 143.360304 
" style="fill:none;stroke:#000000;stroke-linecap:square;"/>
   </g>
   <g id="line2d_57">
    <path clip-path="url(#p39303b039c)" d="M 41.884192 71.242134 
L 64.233476 71.353751 
L 82.019893 71.657998 
L 96.326438 72.116937 
L 108.452071 72.723768 
L 118.827928 73.461796 
L 127.884837 74.322369 
L 136.052214 75.315089 
L 143.54254 76.442547 
L 150.566951 77.718087 
L 157.334097 79.169848 
L 163.83981 80.787964 
L 170.289517 82.616652 
L 176.883532 84.719377 
L 183.613433 87.102391 
L 190.674393 89.844711 
L 198.057943 92.952745 
L 206.15262 96.606416 
L 215.141326 100.916161 
L 225.206067 105.99424 
L 236.912035 112.156588 
L 250.816014 119.736205 
L 259.155596 124.38236 
L 259.155596 124.38236 
" style="fill:none;stroke:#000000;stroke-linecap:square;"/>
   </g>
   <g id="line2d_58">
    <path clip-path="url(#p39303b039c)" d="M 41.884192 65.806134 
L 64.23368 65.919152 
L 82.020806 66.223441 
L 96.762268 66.692881 
L 109.106826 67.30118 
L 119.919073 68.050899 
L 129.629028 68.945445 
L 138.449906 69.980491 
L 146.594585 71.156897 
L 154.275037 72.484979 
L 161.912997 74.034068 
L 169.291494 75.756459 
L 176.827242 77.746303 
L 184.51319 80.008775 
L 192.550183 82.609491 
L 201.13564 85.625804 
L 210.464283 89.143438 
L 220.929808 93.335376 
L 232.721056 98.303666 
L 246.622825 104.411967 
L 259.270769 110.142477 
L 259.270769 110.142477 
" style="fill:none;stroke:#000000;stroke-linecap:square;"/>
   </g>
   <g id="line2d_59">
    <path clip-path="url(#p39303b039c)" d="M 41.884192 60.370134 
L 64.233873 60.483491 
L 82.238548 60.790285 
L 97.198084 61.260736 
L 109.978036 61.877889 
L 121.226416 62.637134 
L 131.373727 63.539595 
L 140.848839 64.605508 
L 149.648951 65.817029 
L 158.200142 67.21926 
L 166.498575 68.804077 
L 174.75359 70.602992 
L 183.381973 72.714776 
L 192.375616 75.152191 
L 201.93631 77.981123 
L 212.264048 81.274433 
L 223.76263 85.180445 
L 236.83155 89.861258 
L 252.070844 95.562989 
L 259.160547 98.28433 
L 259.160547 98.28433 
" style="fill:none;stroke:#000000;stroke-linecap:square;"/>
   </g>
   <g id="line2d_60">
    <path clip-path="url(#p39303b039c)" d="M 41.884192 54.934134 
L 64.234053 55.046936 
L 82.456261 55.353874 
L 97.850595 55.830344 
L 111.065766 56.455431 
L 122.966246 57.239112 
L 133.7659 58.173063 
L 143.678782 59.249301 
L 153.133562 60.49488 
L 162.341732 61.928904 
L 171.51337 63.580684 
L 180.856778 65.490291 
L 190.57831 67.707897 
L 200.882517 70.292064 
L 211.972596 73.307287 
L 224.258855 76.883625 
L 238.148131 81.164101 
L 254.251535 86.366129 
L 259.194879 88.003605 
L 259.194879 88.003605 
" style="fill:none;stroke:#000000;stroke-linecap:square;"/>
   </g>
   <g id="line2d_61">
    <path clip-path="url(#p39303b039c)" d="M 41.884192 49.498134 
L 64.451188 49.61196 
L 82.890832 49.919837 
L 98.719843 50.402412 
L 112.370074 51.03494 
L 124.706309 51.825182 
L 135.942816 52.762744 
L 146.509572 53.862334 
L 156.834416 55.161155 
L 166.913589 56.654312 
L 176.958331 58.365561 
L 187.391265 60.370713 
L 198.207091 62.676089 
L 209.824429 65.379869 
L 222.657957 68.598747 
L 237.119386 72.461815 
L 253.618847 77.104414 
L 259.246334 78.733401 
L 259.246334 78.733401 
" style="fill:none;stroke:#000000;stroke-linecap:square;"/>
   </g>
   <g id="line2d_62">
    <path clip-path="url(#p39303b039c)" d="M 41.884192 44.062134 
L 64.451344 44.174031 
L 83.32538 44.483421 
L 99.589078 44.969306 
L 113.891008 45.617243 
L 126.662792 46.413473 
L 138.551824 47.373358 
L 149.77184 48.497653 
L 160.751437 49.81943 
L 171.702046 51.362969 
L 182.834159 53.159647 
L 194.357329 55.247508 
L 206.692656 57.714433 
L 220.046341 60.617918 
L 234.835703 64.06591 
L 251.686732 68.227945 
L 259.255015 70.161739 
L 259.255015 70.161739 
" style="fill:none;stroke:#000000;stroke-linecap:square;"/>
   </g>
   <g id="line2d_63">
    <path clip-path="url(#p39303b039c)" d="M 41.884192 38.626134 
L 64.668461 38.737866 
L 83.976814 39.049922 
L 100.458287 39.531895 
L 115.195367 40.180273 
L 128.619388 40.989898 
L 141.161165 41.966405 
L 153.250427 43.131413 
L 165.09984 44.499376 
L 176.921594 46.08998 
L 188.92735 47.928657 
L 201.541773 50.084699 
L 215.186749 52.645308 
L 230.281766 55.711037 
L 247.244736 59.390509 
L 259.306464 62.126493 
L 259.306464 62.126493 
" style="fill:none;stroke:#000000;stroke-linecap:square;"/>
   </g>
   <g id="line2d_64">
    <path clip-path="url(#p39303b039c)" d="M 41.884192 33.190134 
L 65.102548 33.303461 
L 84.628232 33.614602 
L 101.761082 34.106394 
L 116.932984 34.759226 
L 131.008871 35.585427 
L 144.202946 36.581152 
L 156.945356 37.765081 
L 169.449381 39.148219 
L 182.142972 40.775475 
L 195.237414 42.677941 
L 209.157541 44.926446 
L 224.326053 47.606146 
L 241.164025 50.811982 
L 259.241832 54.467539 
L 259.241832 54.467539 
" style="fill:none;stroke:#000000;stroke-linecap:square;"/>
   </g>
   <g id="line2d_65">
    <path clip-path="url(#p39303b039c)" d="M 41.884192 27.754133 
L 65.319652 27.866411 
L 85.279632 28.177753 
L 102.847054 28.669662 
L 118.670627 29.332011 
L 133.398488 30.17099 
L 147.245028 31.181243 
L 160.640788 32.378663 
L 174.015112 33.795765 
L 187.79565 35.48262 
L 202.193408 37.47442 
L 217.419265 39.807698 
L 234.111906 42.593159 
L 252.907265 45.959624 
L 259.306972 47.151697 
L 259.306972 47.151697 
" style="fill:none;stroke:#000000;stroke-linecap:square;"/>
   </g>
   <g id="line2d_66">
    <path clip-path="url(#p39303b039c)" d="M 41.884192 22.318133 
L 65.75373 22.431194 
L 86.147943 22.744235 
L 104.149833 23.237553 
L 120.624971 23.909984 
L 135.788166 24.748121 
L 150.287271 25.768973 
L 164.552476 26.995695 
L 178.797073 28.443279 
L 193.449554 30.156133 
L 208.936878 32.19334 
L 225.684549 34.62592 
L 244.116982 37.533056 
L 259.311962 40.076646 
L 259.311962 40.076646 
" style="fill:none;stroke:#000000;stroke-linecap:square;"/>
   </g>
   <g id="line2d_67">
    <path clip-path="url(#p39303b039c)" d="M 41.884192 16.882133 
L 66.187804 16.99564 
L 87.016244 17.309462 
L 105.669451 17.810001 
L 122.579334 18.483017 
L 138.394411 19.33135 
L 153.762251 20.37901 
L 168.896576 21.636183 
L 184.011101 23.114376 
L 199.750518 24.878282 
L 216.541883 26.988556 
L 234.811147 29.515139 
L 254.983588 32.533544 
L 259.27186 33.201188 
L 259.27186 33.201188 
" style="fill:none;stroke:#000000;stroke-linecap:square;"/>
   </g>
   <g id="line2d_68">
    <path clip-path="url(#p39303b039c)" d="M 41.884192 11.446133 
L 66.621874 11.559798 
L 88.101473 11.878048 
L 107.189067 12.379866 
L 124.750437 13.061682 
L 141.217278 13.92059 
L 157.237419 14.978124 
L 173.024945 16.241813 
L 189.2258 17.763595 
L 206.052633 19.570228 
L 223.933522 21.715143 
L 243.510757 24.289402 
L 259.197382 26.492965 
L 259.197382 26.492965 
" style="fill:none;stroke:#000000;stroke-linecap:square;"/>
   </g>
   <g id="line2d_69">
    <path clip-path="url(#p39303b039c)" d="M 41.884192 6.010133 
L 67.05594 6.123708 
L 88.969754 6.441195 
L 108.708675 6.947506 
L 126.921556 7.636242 
L 144.040204 8.503313 
L 160.712694 9.567906 
L 177.369649 10.853241 
L 194.440919 12.394184 
L 212.355486 14.236486 
L 231.541543 16.434781 
L 252.857104 19.105803 
L 259.311458 19.95484 
L 259.311458 19.95484 
" style="fill:none;stroke:#000000;stroke-linecap:square;"/>
   </g>
   <g id="line2d_70">
    <path clip-path="url(#p39303b039c)" d="M 41.884192 0.574132 
L 67.490002 0.687409 
L 89.838021 1.003585 
L 110.011389 1.50657 
L 128.875896 2.197973 
L 146.863154 3.080451 
L 164.404484 4.164498 
L 181.930769 5.470413 
L 200.08836 7.049077 
L 219.090386 8.925953 
L 239.797058 11.198634 
L 259.189896 13.506844 
L 259.189896 13.506844 
" style="fill:none;stroke:#000000;stroke-linecap:square;"/>
   </g>
   <g id="line2d_71">
    <path clip-path="url(#p39303b039c)" d="M 171.771005 -1 
L 190.169294 0.366829 
L 209.409959 2.019753 
L 229.927831 4.00776 
L 252.367291 6.408518 
L 259.267461 7.187549 
L 259.267461 7.187549 
" style="fill:none;stroke:#000000;stroke-linecap:square;"/>
   </g>
   <g id="line2d_72">
    <path clip-path="url(#p39303b039c)" d="M 240.329487 -1 
L 259.116433 0.932073 
L 259.116433 0.932073 
" style="fill:none;stroke:#000000;stroke-linecap:square;"/>
   </g>
   <g id="line2d_73">
    <path clip-path="url(#p39303b039c)" d="M 0 0 
" style="fill:none;stroke:#000000;stroke-linecap:square;"/>
   </g>
   <g id="line2d_74">
    <path clip-path="url(#p39303b039c)" d="M 0 0 
" style="fill:none;stroke:#000000;stroke-linecap:square;"/>
   </g>
   <g id="line2d_75">
    <path clip-path="url(#p39303b039c)" d="M 0 0 
" style="fill:none;stroke:#000000;stroke-linecap:square;"/>
   </g>
   <g id="line2d_76">
    <path clip-path="url(#p39303b039c)" d="M 150.488398 114.730439 
L 152.40621 114.855591 
L 154.295981 115.205493 
L 156.131465 115.775289 
L 157.88717 116.557062 
L 159.538711 117.539956 
L 161.063151 118.71032 
L 162.439317 120.051899 
L 163.648098 121.546061 
L 164.672705 123.172053 
L 165.498907 124.907294 
L 166.11523 126.727683 
L 166.513114 128.607939 
L 166.687034 130.521947 
L 166.634574 132.443125 
L 166.356462 134.34479 
L 165.856562 136.200533 
L 165.141815 137.984579 
L 164.222149 139.672152 
L 163.110336 141.239815 
L 161.821818 142.665795 
L 160.374489 143.93029 
L 158.788449 145.015737 
L 157.085726 145.907063 
L 155.289966 146.591891 
L 153.426108 147.060709 
L 151.520034 147.307009 
L 149.598214 147.32737 
L 147.687335 147.121511 
L 145.813929 146.692292 
L 144.00401 146.045672 
L 142.282705 145.190632 
L 140.673911 144.139044 
L 139.19996 142.905507 
L 137.881308 141.507147 
L 136.736255 139.963373 
L 135.780686 138.295608 
L 135.027854 136.526995 
L 134.488194 134.682067 
L 134.169182 132.786407 
L 134.075229 130.866293 
L 134.207625 128.948329 
L 134.564523 127.05907 
L 135.140965 125.224658 
L 135.928961 123.470448 
L 136.9176 121.820659 
L 138.093217 120.298031 
L 139.439585 118.923512 
L 140.938158 117.715964 
L 142.568343 116.6919 
L 144.307801 115.865263 
L 146.132782 115.247234 
L 148.01848 114.846091 
L 149.026735 114.723986 
L 149.026735 114.723986 
" style="fill:none;stroke:#000000;stroke-linecap:square;stroke-width:2;"/>
   </g>
   <g id="patch_4">
    <path d="M 41.667187 239.758125 
L 41.667187 22.318125 
" style="fill:none;stroke:#000000;stroke-linecap:square;stroke-linejoin:miter;stroke-width:0.8;"/>
   </g>
   <g id="patch_5">
    <path d="M 259.107188 239.758125 
L 259.107188 22.318125 
" style="fill:none;stroke:#000000;stroke-linecap:square;stroke-linejoin:miter;stroke-width:0.8;"/>
   </g>
   <g id="patch_6">
    <path d="M 41.667187 239.758125 
L 259.107188 239.758125 
" style="fill:none;stroke:#000000;stroke-linecap:square;stroke-linejoin:miter;stroke-width:0.8;"/>
   </g>
   <g id="patch_7">
    <path d="M 41.667187 22.318125 
L 259.107188 22.318125 
" style="fill:none;stroke:#000000;stroke-linecap:square;stroke-linejoin:miter;stroke-width:0.8;"/>
   </g>
   <g id="text_15">
    <!-- Photon Orbits GR -->
    <g transform="translate(98.694375 16.318125)scale(0.12 -0.12)">
     <defs>
      <path d="M 19.671875 64.796875 
L 19.671875 37.40625 
L 32.078125 37.40625 
Q 38.96875 37.40625 42.71875 40.96875 
Q 46.484375 44.53125 46.484375 51.125 
Q 46.484375 57.671875 42.71875 61.234375 
Q 38.96875 64.796875 32.078125 64.796875 
z
M 9.8125 72.90625 
L 32.078125 72.90625 
Q 44.34375 72.90625 50.609375 67.359375 
Q 56.890625 61.8125 56.890625 51.125 
Q 56.890625 40.328125 50.609375 34.8125 
Q 44.34375 29.296875 32.078125 29.296875 
L 19.671875 29.296875 
L 19.671875 0 
L 9.8125 0 
z
" id="DejaVuSans-80"/>
      <path d="M 54.890625 33.015625 
L 54.890625 0 
L 45.90625 0 
L 45.90625 32.71875 
Q 45.90625 40.484375 42.875 44.328125 
Q 39.84375 48.1875 33.796875 48.1875 
Q 26.515625 48.1875 22.3125 43.546875 
Q 18.109375 38.921875 18.109375 30.90625 
L 18.109375 0 
L 9.078125 0 
L 9.078125 75.984375 
L 18.109375 75.984375 
L 18.109375 46.1875 
Q 21.34375 51.125 25.703125 53.5625 
Q 30.078125 56 35.796875 56 
Q 45.21875 56 50.046875 50.171875 
Q 54.890625 44.34375 54.890625 33.015625 
z
" id="DejaVuSans-104"/>
      <path d="M 30.609375 48.390625 
Q 23.390625 48.390625 19.1875 42.75 
Q 14.984375 37.109375 14.984375 27.296875 
Q 14.984375 17.484375 19.15625 11.84375 
Q 23.34375 6.203125 30.609375 6.203125 
Q 37.796875 6.203125 41.984375 11.859375 
Q 46.1875 17.53125 46.1875 27.296875 
Q 46.1875 37.015625 41.984375 42.703125 
Q 37.796875 48.390625 30.609375 48.390625 
z
M 30.609375 56 
Q 42.328125 56 49.015625 48.375 
Q 55.71875 40.765625 55.71875 27.296875 
Q 55.71875 13.875 49.015625 6.21875 
Q 42.328125 -1.421875 30.609375 -1.421875 
Q 18.84375 -1.421875 12.171875 6.21875 
Q 5.515625 13.875 5.515625 27.296875 
Q 5.515625 40.765625 12.171875 48.375 
Q 18.84375 56 30.609375 56 
z
" id="DejaVuSans-111"/>
      <path d="M 18.3125 70.21875 
L 18.3125 54.6875 
L 36.8125 54.6875 
L 36.8125 47.703125 
L 18.3125 47.703125 
L 18.3125 18.015625 
Q 18.3125 11.328125 20.140625 9.421875 
Q 21.96875 7.515625 27.59375 7.515625 
L 36.8125 7.515625 
L 36.8125 0 
L 27.59375 0 
Q 17.1875 0 13.234375 3.875 
Q 9.28125 7.765625 9.28125 18.015625 
L 9.28125 47.703125 
L 2.6875 47.703125 
L 2.6875 54.6875 
L 9.28125 54.6875 
L 9.28125 70.21875 
z
" id="DejaVuSans-116"/>
      <path d="M 54.890625 33.015625 
L 54.890625 0 
L 45.90625 0 
L 45.90625 32.71875 
Q 45.90625 40.484375 42.875 44.328125 
Q 39.84375 48.1875 33.796875 48.1875 
Q 26.515625 48.1875 22.3125 43.546875 
Q 18.109375 38.921875 18.109375 30.90625 
L 18.109375 0 
L 9.078125 0 
L 9.078125 54.6875 
L 18.109375 54.6875 
L 18.109375 46.1875 
Q 21.34375 51.125 25.703125 53.5625 
Q 30.078125 56 35.796875 56 
Q 45.21875 56 50.046875 50.171875 
Q 54.890625 44.34375 54.890625 33.015625 
z
" id="DejaVuSans-110"/>
      <path id="DejaVuSans-32"/>
      <path d="M 39.40625 66.21875 
Q 28.65625 66.21875 22.328125 58.203125 
Q 16.015625 50.203125 16.015625 36.375 
Q 16.015625 22.609375 22.328125 14.59375 
Q 28.65625 6.59375 39.40625 6.59375 
Q 50.140625 6.59375 56.421875 14.59375 
Q 62.703125 22.609375 62.703125 36.375 
Q 62.703125 50.203125 56.421875 58.203125 
Q 50.140625 66.21875 39.40625 66.21875 
z
M 39.40625 74.21875 
Q 54.734375 74.21875 63.90625 63.9375 
Q 73.09375 53.65625 73.09375 36.375 
Q 73.09375 19.140625 63.90625 8.859375 
Q 54.734375 -1.421875 39.40625 -1.421875 
Q 24.03125 -1.421875 14.8125 8.828125 
Q 5.609375 19.09375 5.609375 36.375 
Q 5.609375 53.65625 14.8125 63.9375 
Q 24.03125 74.21875 39.40625 74.21875 
z
" id="DejaVuSans-79"/>
      <path d="M 41.109375 46.296875 
Q 39.59375 47.171875 37.8125 47.578125 
Q 36.03125 48 33.890625 48 
Q 26.265625 48 22.1875 43.046875 
Q 18.109375 38.09375 18.109375 28.8125 
L 18.109375 0 
L 9.078125 0 
L 9.078125 54.6875 
L 18.109375 54.6875 
L 18.109375 46.1875 
Q 20.953125 51.171875 25.484375 53.578125 
Q 30.03125 56 36.53125 56 
Q 37.453125 56 38.578125 55.875 
Q 39.703125 55.765625 41.0625 55.515625 
z
" id="DejaVuSans-114"/>
      <path d="M 48.6875 27.296875 
Q 48.6875 37.203125 44.609375 42.84375 
Q 40.53125 48.484375 33.40625 48.484375 
Q 26.265625 48.484375 22.1875 42.84375 
Q 18.109375 37.203125 18.109375 27.296875 
Q 18.109375 17.390625 22.1875 11.75 
Q 26.265625 6.109375 33.40625 6.109375 
Q 40.53125 6.109375 44.609375 11.75 
Q 48.6875 17.390625 48.6875 27.296875 
z
M 18.109375 46.390625 
Q 20.953125 51.265625 25.265625 53.625 
Q 29.59375 56 35.59375 56 
Q 45.5625 56 51.78125 48.09375 
Q 58.015625 40.1875 58.015625 27.296875 
Q 58.015625 14.40625 51.78125 6.484375 
Q 45.5625 -1.421875 35.59375 -1.421875 
Q 29.59375 -1.421875 25.265625 0.953125 
Q 20.953125 3.328125 18.109375 8.203125 
L 18.109375 0 
L 9.078125 0 
L 9.078125 75.984375 
L 18.109375 75.984375 
z
" id="DejaVuSans-98"/>
      <path d="M 9.421875 54.6875 
L 18.40625 54.6875 
L 18.40625 0 
L 9.421875 0 
z
M 9.421875 75.984375 
L 18.40625 75.984375 
L 18.40625 64.59375 
L 9.421875 64.59375 
z
" id="DejaVuSans-105"/>
      <path d="M 44.28125 53.078125 
L 44.28125 44.578125 
Q 40.484375 46.53125 36.375 47.5 
Q 32.28125 48.484375 27.875 48.484375 
Q 21.1875 48.484375 17.84375 46.4375 
Q 14.5 44.390625 14.5 40.28125 
Q 14.5 37.15625 16.890625 35.375 
Q 19.28125 33.59375 26.515625 31.984375 
L 29.59375 31.296875 
Q 39.15625 29.25 43.1875 25.515625 
Q 47.21875 21.78125 47.21875 15.09375 
Q 47.21875 7.46875 41.1875 3.015625 
Q 35.15625 -1.421875 24.609375 -1.421875 
Q 20.21875 -1.421875 15.453125 -0.5625 
Q 10.6875 0.296875 5.421875 2 
L 5.421875 11.28125 
Q 10.40625 8.6875 15.234375 7.390625 
Q 20.0625 6.109375 24.8125 6.109375 
Q 31.15625 6.109375 34.5625 8.28125 
Q 37.984375 10.453125 37.984375 14.40625 
Q 37.984375 18.0625 35.515625 20.015625 
Q 33.0625 21.96875 24.703125 23.78125 
L 21.578125 24.515625 
Q 13.234375 26.265625 9.515625 29.90625 
Q 5.8125 33.546875 5.8125 39.890625 
Q 5.8125 47.609375 11.28125 51.796875 
Q 16.75 56 26.8125 56 
Q 31.78125 56 36.171875 55.265625 
Q 40.578125 54.546875 44.28125 53.078125 
z
" id="DejaVuSans-115"/>
      <path d="M 59.515625 10.40625 
L 59.515625 29.984375 
L 43.40625 29.984375 
L 43.40625 38.09375 
L 69.28125 38.09375 
L 69.28125 6.78125 
Q 63.578125 2.734375 56.6875 0.65625 
Q 49.8125 -1.421875 42 -1.421875 
Q 24.90625 -1.421875 15.25 8.5625 
Q 5.609375 18.5625 5.609375 36.375 
Q 5.609375 54.25 15.25 64.234375 
Q 24.90625 74.21875 42 74.21875 
Q 49.125 74.21875 55.546875 72.453125 
Q 61.96875 70.703125 67.390625 67.28125 
L 67.390625 56.78125 
Q 61.921875 61.421875 55.765625 63.765625 
Q 49.609375 66.109375 42.828125 66.109375 
Q 29.4375 66.109375 22.71875 58.640625 
Q 16.015625 51.171875 16.015625 36.375 
Q 16.015625 21.625 22.71875 14.15625 
Q 29.4375 6.6875 42.828125 6.6875 
Q 48.046875 6.6875 52.140625 7.59375 
Q 56.25 8.5 59.515625 10.40625 
z
" id="DejaVuSans-71"/>
      <path d="M 44.390625 34.1875 
Q 47.5625 33.109375 50.5625 29.59375 
Q 53.5625 26.078125 56.59375 19.921875 
L 66.609375 0 
L 56 0 
L 46.6875 18.703125 
Q 43.0625 26.03125 39.671875 28.421875 
Q 36.28125 30.8125 30.421875 30.8125 
L 19.671875 30.8125 
L 19.671875 0 
L 9.8125 0 
L 9.8125 72.90625 
L 32.078125 72.90625 
Q 44.578125 72.90625 50.734375 67.671875 
Q 56.890625 62.453125 56.890625 51.90625 
Q 56.890625 45.015625 53.6875 40.46875 
Q 50.484375 35.9375 44.390625 34.1875 
z
M 19.671875 64.796875 
L 19.671875 38.921875 
L 32.078125 38.921875 
Q 39.203125 38.921875 42.84375 42.21875 
Q 46.484375 45.515625 46.484375 51.90625 
Q 46.484375 58.296875 42.84375 61.546875 
Q 39.203125 64.796875 32.078125 64.796875 
z
" id="DejaVuSans-82"/>
     </defs>
     <use xlink:href="#DejaVuSans-80"/>
     <use x="60.302734" xlink:href="#DejaVuSans-104"/>
     <use x="123.681641" xlink:href="#DejaVuSans-111"/>
     <use x="184.863281" xlink:href="#DejaVuSans-116"/>
     <use x="224.072266" xlink:href="#DejaVuSans-111"/>
     <use x="285.253906" xlink:href="#DejaVuSans-110"/>
     <use x="348.632812" xlink:href="#DejaVuSans-32"/>
     <use x="380.419922" xlink:href="#DejaVuSans-79"/>
     <use x="459.130859" xlink:href="#DejaVuSans-114"/>
     <use x="500.244141" xlink:href="#DejaVuSans-98"/>
     <use x="563.720703" xlink:href="#DejaVuSans-105"/>
     <use x="591.503906" xlink:href="#DejaVuSans-116"/>
     <use x="630.712891" xlink:href="#DejaVuSans-115"/>
     <use x="682.8125" xlink:href="#DejaVuSans-32"/>
     <use x="714.599609" xlink:href="#DejaVuSans-71"/>
     <use x="792.089844" xlink:href="#DejaVuSans-82"/>
    </g>
   </g>
  </g>
 </g>
 <defs>
  <clipPath id="p39303b039c">
   <rect height="217.44" width="217.44" x="41.667187" y="22.318125"/>
  </clipPath>
 </defs>
</svg>
