<?xml version="1.0" encoding="utf-8" standalone="no"?>
<!DOCTYPE svg PUBLIC "-//W3C//DTD SVG 1.1//EN"
  "http://www.w3.org/Graphics/SVG/1.1/DTD/svg11.dtd">
<!-- Created with matplotlib (https://matplotlib.org/) -->
<svg height="263.63625pt" version="1.1" viewBox="0 0 275.850937 263.63625" width="275.850937pt" xmlns="http://www.w3.org/2000/svg" xmlns:xlink="http://www.w3.org/1999/xlink">
 <metadata>
  <rdf:RDF xmlns:cc="http://creativecommons.org/ns#" xmlns:dc="http://purl.org/dc/elements/1.1/" xmlns:rdf="http://www.w3.org/1999/02/22-rdf-syntax-ns#">
   <cc:Work>
    <dc:type rdf:resource="http://purl.org/dc/dcmitype/StillImage"/>
    <dc:date>2021-07-30T14:38:37.964507</dc:date>
    <dc:format>image/svg+xml</dc:format>
    <dc:creator>
     <cc:Agent>
      <dc:title>Matplotlib v3.3.4, https://matplotlib.org/</dc:title>
     </cc:Agent>
    </dc:creator>
   </cc:Work>
  </rdf:RDF>
 </metadata>
 <defs>
  <style type="text/css">*{stroke-linecap:butt;stroke-linejoin:round;}</style>
 </defs>
 <g id="figure_1">
  <g id="patch_1">
   <path d="M 0 263.63625 
L 275.850937 263.63625 
L 275.850937 0 
L 0 0 
z
" style="fill:none;"/>
  </g>
  <g id="axes_1">
   <g id="patch_2">
    <path d="M 41.667187 239.758125 
L 259.107188 239.758125 
L 259.107188 22.318125 
L 41.667187 22.318125 
z
" style="fill:none;"/>
   </g>
   <g id="matplotlib.axis_1">
    <g id="xtick_1">
     <g id="line2d_1">
      <defs>
       <path d="M 0 0 
L 0 3.5 
" id="mf0bf657953" style="stroke:#000000;stroke-width:0.8;"/>
      </defs>
      <g>
       <use style="stroke:#000000;stroke-width:0.8;" x="41.667187" xlink:href="#mf0bf657953" y="239.758125"/>
      </g>
     </g>
     <g id="text_1">
      <!-- −100 -->
      <g transform="translate(27.933594 254.356563)scale(0.1 -0.1)">
       <defs>
        <path d="M 10.59375 35.5 
L 73.1875 35.5 
L 73.1875 27.203125 
L 10.59375 27.203125 
z
" id="DejaVuSans-8722"/>
        <path d="M 12.40625 8.296875 
L 28.515625 8.296875 
L 28.515625 63.921875 
L 10.984375 60.40625 
L 10.984375 69.390625 
L 28.421875 72.90625 
L 38.28125 72.90625 
L 38.28125 8.296875 
L 54.390625 8.296875 
L 54.390625 0 
L 12.40625 0 
z
" id="DejaVuSans-49"/>
        <path d="M 31.78125 66.40625 
Q 24.171875 66.40625 20.328125 58.90625 
Q 16.5 51.421875 16.5 36.375 
Q 16.5 21.390625 20.328125 13.890625 
Q 24.171875 6.390625 31.78125 6.390625 
Q 39.453125 6.390625 43.28125 13.890625 
Q 47.125 21.390625 47.125 36.375 
Q 47.125 51.421875 43.28125 58.90625 
Q 39.453125 66.40625 31.78125 66.40625 
z
M 31.78125 74.21875 
Q 44.046875 74.21875 50.515625 64.515625 
Q 56.984375 54.828125 56.984375 36.375 
Q 56.984375 17.96875 50.515625 8.265625 
Q 44.046875 -1.421875 31.78125 -1.421875 
Q 19.53125 -1.421875 13.0625 8.265625 
Q 6.59375 17.96875 6.59375 36.375 
Q 6.59375 54.828125 13.0625 64.515625 
Q 19.53125 74.21875 31.78125 74.21875 
z
" id="DejaVuSans-48"/>
       </defs>
       <use xlink:href="#DejaVuSans-8722"/>
       <use x="83.789062" xlink:href="#DejaVuSans-49"/>
       <use x="147.412109" xlink:href="#DejaVuSans-48"/>
       <use x="211.035156" xlink:href="#DejaVuSans-48"/>
      </g>
     </g>
    </g>
    <g id="xtick_2">
     <g id="line2d_2">
      <g>
       <use style="stroke:#000000;stroke-width:0.8;" x="96.027187" xlink:href="#mf0bf657953" y="239.758125"/>
      </g>
     </g>
     <g id="text_2">
      <!-- −50 -->
      <g transform="translate(85.474844 254.356563)scale(0.1 -0.1)">
       <defs>
        <path d="M 10.796875 72.90625 
L 49.515625 72.90625 
L 49.515625 64.59375 
L 19.828125 64.59375 
L 19.828125 46.734375 
Q 21.96875 47.46875 24.109375 47.828125 
Q 26.265625 48.1875 28.421875 48.1875 
Q 40.625 48.1875 47.75 41.5 
Q 54.890625 34.8125 54.890625 23.390625 
Q 54.890625 11.625 47.5625 5.09375 
Q 40.234375 -1.421875 26.90625 -1.421875 
Q 22.3125 -1.421875 17.546875 -0.640625 
Q 12.796875 0.140625 7.71875 1.703125 
L 7.71875 11.625 
Q 12.109375 9.234375 16.796875 8.0625 
Q 21.484375 6.890625 26.703125 6.890625 
Q 35.15625 6.890625 40.078125 11.328125 
Q 45.015625 15.765625 45.015625 23.390625 
Q 45.015625 31 40.078125 35.4375 
Q 35.15625 39.890625 26.703125 39.890625 
Q 22.75 39.890625 18.8125 39.015625 
Q 14.890625 38.140625 10.796875 36.28125 
z
" id="DejaVuSans-53"/>
       </defs>
       <use xlink:href="#DejaVuSans-8722"/>
       <use x="83.789062" xlink:href="#DejaVuSans-53"/>
       <use x="147.412109" xlink:href="#DejaVuSans-48"/>
      </g>
     </g>
    </g>
    <g id="xtick_3">
     <g id="line2d_3">
      <g>
       <use style="stroke:#000000;stroke-width:0.8;" x="150.387187" xlink:href="#mf0bf657953" y="239.758125"/>
      </g>
     </g>
     <g id="text_3">
      <!-- 0 -->
      <g transform="translate(147.205937 254.356563)scale(0.1 -0.1)">
       <use xlink:href="#DejaVuSans-48"/>
      </g>
     </g>
    </g>
    <g id="xtick_4">
     <g id="line2d_4">
      <g>
       <use style="stroke:#000000;stroke-width:0.8;" x="204.747187" xlink:href="#mf0bf657953" y="239.758125"/>
      </g>
     </g>
     <g id="text_4">
      <!-- 50 -->
      <g transform="translate(198.384687 254.356563)scale(0.1 -0.1)">
       <use xlink:href="#DejaVuSans-53"/>
       <use x="63.623047" xlink:href="#DejaVuSans-48"/>
      </g>
     </g>
    </g>
    <g id="xtick_5">
     <g id="line2d_5">
      <g>
       <use style="stroke:#000000;stroke-width:0.8;" x="259.107188" xlink:href="#mf0bf657953" y="239.758125"/>
      </g>
     </g>
     <g id="text_5">
      <!-- 100 -->
      <g transform="translate(249.563438 254.356563)scale(0.1 -0.1)">
       <use xlink:href="#DejaVuSans-49"/>
       <use x="63.623047" xlink:href="#DejaVuSans-48"/>
       <use x="127.246094" xlink:href="#DejaVuSans-48"/>
      </g>
     </g>
    </g>
   </g>
   <g id="matplotlib.axis_2">
    <g id="ytick_1">
     <g id="line2d_6">
      <defs>
       <path d="M 0 0 
L -3.5 0 
" id="m5366b3797d" style="stroke:#000000;stroke-width:0.8;"/>
      </defs>
      <g>
       <use style="stroke:#000000;stroke-width:0.8;" x="41.667187" xlink:href="#m5366b3797d" y="239.758125"/>
      </g>
     </g>
     <g id="text_6">
      <!-- −100 -->
      <g transform="translate(7.2 243.557344)scale(0.1 -0.1)">
       <use xlink:href="#DejaVuSans-8722"/>
       <use x="83.789062" xlink:href="#DejaVuSans-49"/>
       <use x="147.412109" xlink:href="#DejaVuSans-48"/>
       <use x="211.035156" xlink:href="#DejaVuSans-48"/>
      </g>
     </g>
    </g>
    <g id="ytick_2">
     <g id="line2d_7">
      <g>
       <use style="stroke:#000000;stroke-width:0.8;" x="41.667187" xlink:href="#m5366b3797d" y="212.578125"/>
      </g>
     </g>
     <g id="text_7">
      <!-- −75 -->
      <g transform="translate(13.5625 216.377344)scale(0.1 -0.1)">
       <defs>
        <path d="M 8.203125 72.90625 
L 55.078125 72.90625 
L 55.078125 68.703125 
L 28.609375 0 
L 18.3125 0 
L 43.21875 64.59375 
L 8.203125 64.59375 
z
" id="DejaVuSans-55"/>
       </defs>
       <use xlink:href="#DejaVuSans-8722"/>
       <use x="83.789062" xlink:href="#DejaVuSans-55"/>
       <use x="147.412109" xlink:href="#DejaVuSans-53"/>
      </g>
     </g>
    </g>
    <g id="ytick_3">
     <g id="line2d_8">
      <g>
       <use style="stroke:#000000;stroke-width:0.8;" x="41.667187" xlink:href="#m5366b3797d" y="185.398125"/>
      </g>
     </g>
     <g id="text_8">
      <!-- −50 -->
      <g transform="translate(13.5625 189.197344)scale(0.1 -0.1)">
       <use xlink:href="#DejaVuSans-8722"/>
       <use x="83.789062" xlink:href="#DejaVuSans-53"/>
       <use x="147.412109" xlink:href="#DejaVuSans-48"/>
      </g>
     </g>
    </g>
    <g id="ytick_4">
     <g id="line2d_9">
      <g>
       <use style="stroke:#000000;stroke-width:0.8;" x="41.667187" xlink:href="#m5366b3797d" y="158.218125"/>
      </g>
     </g>
     <g id="text_9">
      <!-- −25 -->
      <g transform="translate(13.5625 162.017344)scale(0.1 -0.1)">
       <defs>
        <path d="M 19.1875 8.296875 
L 53.609375 8.296875 
L 53.609375 0 
L 7.328125 0 
L 7.328125 8.296875 
Q 12.9375 14.109375 22.625 23.890625 
Q 32.328125 33.6875 34.8125 36.53125 
Q 39.546875 41.84375 41.421875 45.53125 
Q 43.3125 49.21875 43.3125 52.78125 
Q 43.3125 58.59375 39.234375 62.25 
Q 35.15625 65.921875 28.609375 65.921875 
Q 23.96875 65.921875 18.8125 64.3125 
Q 13.671875 62.703125 7.8125 59.421875 
L 7.8125 69.390625 
Q 13.765625 71.78125 18.9375 73 
Q 24.125 74.21875 28.421875 74.21875 
Q 39.75 74.21875 46.484375 68.546875 
Q 53.21875 62.890625 53.21875 53.421875 
Q 53.21875 48.921875 51.53125 44.890625 
Q 49.859375 40.875 45.40625 35.40625 
Q 44.1875 33.984375 37.640625 27.21875 
Q 31.109375 20.453125 19.1875 8.296875 
z
" id="DejaVuSans-50"/>
       </defs>
       <use xlink:href="#DejaVuSans-8722"/>
       <use x="83.789062" xlink:href="#DejaVuSans-50"/>
       <use x="147.412109" xlink:href="#DejaVuSans-53"/>
      </g>
     </g>
    </g>
    <g id="ytick_5">
     <g id="line2d_10">
      <g>
       <use style="stroke:#000000;stroke-width:0.8;" x="41.667187" xlink:href="#m5366b3797d" y="131.038125"/>
      </g>
     </g>
     <g id="text_10">
      <!-- 0 -->
      <g transform="translate(28.304687 134.837344)scale(0.1 -0.1)">
       <use xlink:href="#DejaVuSans-48"/>
      </g>
     </g>
    </g>
    <g id="ytick_6">
     <g id="line2d_11">
      <g>
       <use style="stroke:#000000;stroke-width:0.8;" x="41.667187" xlink:href="#m5366b3797d" y="103.858125"/>
      </g>
     </g>
     <g id="text_11">
      <!-- 25 -->
      <g transform="translate(21.942187 107.657344)scale(0.1 -0.1)">
       <use xlink:href="#DejaVuSans-50"/>
       <use x="63.623047" xlink:href="#DejaVuSans-53"/>
      </g>
     </g>
    </g>
    <g id="ytick_7">
     <g id="line2d_12">
      <g>
       <use style="stroke:#000000;stroke-width:0.8;" x="41.667187" xlink:href="#m5366b3797d" y="76.678125"/>
      </g>
     </g>
     <g id="text_12">
      <!-- 50 -->
      <g transform="translate(21.942187 80.477344)scale(0.1 -0.1)">
       <use xlink:href="#DejaVuSans-53"/>
       <use x="63.623047" xlink:href="#DejaVuSans-48"/>
      </g>
     </g>
    </g>
    <g id="ytick_8">
     <g id="line2d_13">
      <g>
       <use style="stroke:#000000;stroke-width:0.8;" x="41.667187" xlink:href="#m5366b3797d" y="49.498125"/>
      </g>
     </g>
     <g id="text_13">
      <!-- 75 -->
      <g transform="translate(21.942187 53.297344)scale(0.1 -0.1)">
       <use xlink:href="#DejaVuSans-55"/>
       <use x="63.623047" xlink:href="#DejaVuSans-53"/>
      </g>
     </g>
    </g>
    <g id="ytick_9">
     <g id="line2d_14">
      <g>
       <use style="stroke:#000000;stroke-width:0.8;" x="41.667187" xlink:href="#m5366b3797d" y="22.318125"/>
      </g>
     </g>
     <g id="text_14">
      <!-- 100 -->
      <g transform="translate(15.579687 26.117344)scale(0.1 -0.1)">
       <use xlink:href="#DejaVuSans-49"/>
       <use x="63.623047" xlink:href="#DejaVuSans-48"/>
       <use x="127.246094" xlink:href="#DejaVuSans-48"/>
      </g>
     </g>
    </g>
   </g>
   <g id="line2d_15">
    <path clip-path="url(#pef82d94c77)" d="M 0 0 
" style="fill:none;stroke:#000000;stroke-linecap:square;"/>
   </g>
   <g id="line2d_16">
    <path clip-path="url(#pef82d94c77)" d="M 149.645902 264.63625 
L 205.012376 258.24723 
L 222.96639 255.94619 
L 237.513594 253.862126 
L 250.577314 251.769183 
L 262.813342 249.58632 
L 274.544202 247.270334 
L 276.850937 246.787841 
L 276.850937 246.787841 
" style="fill:none;stroke:#000000;stroke-linecap:square;"/>
   </g>
   <g id="line2d_17">
    <path clip-path="url(#pef82d94c77)" d="M 94.194797 264.63625 
L 107.447373 263.411256 
L 122.659167 261.775677 
L 142.538173 259.398087 
L 192.127765 253.152817 
L 213.753422 250.258996 
L 229.033992 247.993938 
L 242.285576 245.80791 
L 254.479675 243.573463 
L 266.106762 241.218074 
L 276.850937 238.830561 
L 276.850937 238.830561 
" style="fill:none;stroke:#000000;stroke-linecap:square;"/>
   </g>
   <g id="line2d_18">
    <path clip-path="url(#pef82d94c77)" d="M 41.667187 261.502125 
L 52.620174 261.392291 
L 63.707533 261.057071 
L 74.892935 260.495889 
L 86.434769 259.692218 
L 98.46621 258.629317 
L 111.468893 257.253212 
L 126.308145 255.452076 
L 146.050324 252.813951 
L 195.976221 245.830734 
L 215.11756 242.963861 
L 229.415857 240.602038 
L 242.050662 238.29161 
L 253.719729 235.933874 
L 264.913184 233.446086 
L 275.772075 230.805037 
L 276.850937 230.529936 
L 276.850937 230.529936 
" style="fill:none;stroke:#000000;stroke-linecap:square;"/>
   </g>
   <g id="line2d_19">
    <path clip-path="url(#pef82d94c77)" d="M 41.667187 256.066125 
L 52.299953 255.956394 
L 62.975021 255.62379 
L 73.763345 255.064174 
L 84.726384 254.27204 
L 96.105768 253.22419 
L 108.11279 251.891705 
L 121.373028 250.190272 
L 137.287498 247.913504 
L 163.591732 243.886646 
L 205.661265 237.257663 
L 221.002083 234.597676 
L 233.749265 232.166712 
L 245.416396 229.717223 
L 256.364552 227.193977 
L 267.00346 224.514142 
L 276.850937 221.82161 
L 276.850937 221.82161 
" style="fill:none;stroke:#000000;stroke-linecap:square;"/>
   </g>
   <g id="line2d_20">
    <path clip-path="url(#pef82d94c77)" d="M 41.667187 250.630125 
L 51.980103 250.520843 
L 62.347364 250.187732 
L 72.738047 249.629937 
L 83.220249 248.843677 
L 93.947342 247.814658 
L 105.143913 246.513849 
L 117.093576 244.897876 
L 130.639499 242.835104 
L 148.323992 239.900615 
L 192.557235 232.244484 
L 211.102931 228.856983 
L 224.542195 226.179584 
L 236.304778 223.611462 
L 247.137996 221.021611 
L 257.508184 218.316184 
L 267.64571 215.4412 
L 276.850937 212.623744 
L 276.850937 212.623744 
" style="fill:none;stroke:#000000;stroke-linecap:square;"/>
   </g>
   <g id="line2d_21">
    <path clip-path="url(#pef82d94c77)" d="M 41.667187 245.194125 
L 51.76677 245.083351 
L 61.721386 244.753251 
L 71.71678 244.199673 
L 81.721876 243.423412 
L 91.896646 242.410144 
L 102.288549 241.151489 
L 113.202677 239.603965 
L 125.073545 237.692045 
L 139.016035 235.211781 
L 159.714128 231.274702 
L 202.725333 222.849269 
L 216.946209 219.821378 
L 228.693937 217.097581 
L 239.404049 214.38903 
L 249.508642 211.606616 
L 259.30853 208.678073 
L 268.85115 205.595766 
L 276.850937 202.82979 
L 276.850937 202.82979 
" style="fill:none;stroke:#000000;stroke-linecap:square;"/>
   </g>
   <g id="line2d_22">
    <path clip-path="url(#pef82d94c77)" d="M 41.667187 239.758125 
L 51.447712 239.648581 
L 61.200591 239.315849 
L 70.800142 238.766992 
L 80.426415 237.994293 
L 90.142671 236.989265 
L 99.910604 235.755303 
L 110.049192 234.247857 
L 120.747943 232.427653 
L 132.498164 230.197875 
L 146.907006 227.225771 
L 174.424628 221.26473 
L 202.819231 214.966083 
L 216.058845 211.792158 
L 227.112206 208.917813 
L 237.223839 206.061838 
L 246.820288 203.122449 
L 256.10813 200.046629 
L 265.226653 196.793305 
L 274.236084 193.343011 
L 276.850937 192.296802 
L 276.850937 192.296802 
" style="fill:none;stroke:#000000;stroke-linecap:square;"/>
   </g>
   <g id="line2d_23">
    <path clip-path="url(#pef82d94c77)" d="M 41.667187 234.322125 
L 51.235275 234.211848 
L 60.681658 233.880215 
L 69.988512 233.331788 
L 79.23681 232.564733 
L 88.496986 231.572467 
L 97.737045 230.358913 
L 107.105094 228.904921 
L 116.813354 227.171457 
L 127.124653 225.100496 
L 138.657995 222.550776 
L 153.458738 219.035296 
L 189.79702 210.084093 
L 205.985125 205.924447 
L 217.563491 202.722965 
L 227.666826 199.701212 
L 237.065406 196.659323 
L 246.019905 193.529421 
L 254.737965 190.248696 
L 263.360957 186.766037 
L 271.85917 183.094795 
L 276.850937 180.825478 
L 276.850937 180.825478 
" style="fill:none;stroke:#000000;stroke-linecap:square;"/>
   </g>
   <g id="line2d_24">
    <path clip-path="url(#pef82d94c77)" d="M 41.667187 228.886125 
L 51.02332 228.77556 
L 60.164562 228.446628 
L 69.181246 227.901393 
L 78.153466 227.13493 
L 86.959645 226.16035 
L 95.768012 224.961814 
L 104.545942 223.544111 
L 113.52069 221.867693 
L 122.720619 219.921699 
L 132.563484 217.60846 
L 143.706293 214.753253 
L 158.666344 210.669554 
L 195.275627 200.370464 
L 208.089974 196.548521 
L 218.325277 193.266867 
L 227.546731 190.077516 
L 236.21196 186.84567 
L 244.58688 183.484262 
L 252.79698 179.947543 
L 260.895032 176.21481 
L 268.941954 172.258137 
L 276.850937 168.123733 
L 276.850937 168.123733 
" style="fill:none;stroke:#000000;stroke-linecap:square;"/>
   </g>
   <g id="line2d_25">
    <path clip-path="url(#pef82d94c77)" d="M 41.667187 223.450125 
L 50.811846 223.339797 
L 59.753195 223.010254 
L 68.580855 222.461326 
L 77.176867 221.705219 
L 85.626391 220.741497 
L 94.004015 219.563723 
L 102.373144 218.161296 
L 110.699932 216.539689 
L 119.119131 214.672642 
L 127.822881 212.511481 
L 137.047745 209.987643 
L 147.571894 206.868963 
L 162.060935 202.319847 
L 195.765141 191.449113 
L 207.054826 187.571568 
L 216.328679 184.155251 
L 224.751013 180.818524 
L 232.773942 177.400998 
L 240.499269 173.869356 
L 248.046795 170.17689 
L 255.551926 166.257952 
L 262.990355 162.123253 
L 270.426617 157.734708 
L 276.850937 153.734487 
L 276.850937 153.734487 
" style="fill:none;stroke:#000000;stroke-linecap:square;"/>
   </g>
   <g id="line2d_26">
    <path clip-path="url(#pef82d94c77)" d="M 41.667187 218.014125 
L 50.60084 217.904641 
L 59.343869 217.576312 
L 67.883872 217.034517 
L 76.208632 216.28634 
L 84.402557 215.328226 
L 92.445925 214.164671 
L 100.409609 212.786548 
L 108.26614 211.199563 
L 116.073272 209.394291 
L 123.878646 207.36148 
L 131.87392 205.049343 
L 140.362974 202.359414 
L 149.943734 199.082105 
L 162.963723 194.37084 
L 193.508911 183.021029 
L 203.906727 178.919442 
L 212.378043 175.343258 
L 220.09845 171.846032 
L 227.424558 168.285285 
L 234.529332 164.585771 
L 241.529645 160.688549 
L 248.395203 156.612493 
L 255.261329 152.276278 
L 262.108529 147.686387 
L 268.918912 142.852169 
L 275.758928 137.721518 
L 276.850937 136.876515 
L 276.850937 136.876515 
" style="fill:none;stroke:#000000;stroke-linecap:square;"/>
   </g>
   <g id="line2d_27">
    <path clip-path="url(#pef82d94c77)" d="M 41.667187 212.578125 
L 50.496887 212.467484 
L 59.040833 212.139819 
L 67.394933 211.598471 
L 75.546186 210.848295 
L 83.481634 209.895888 
L 91.188675 208.749824 
L 98.746102 207.403365 
L 106.13377 205.863562 
L 113.416773 204.119748 
L 120.648516 202.15878 
L 127.871283 199.967901 
L 135.191333 197.512632 
L 142.833866 194.710739 
L 151.312394 191.35747 
L 162.301945 186.752709 
L 189.173619 175.166873 
L 199.030327 170.696126 
L 206.839105 166.913018 
L 213.873871 163.260164 
L 220.529892 159.554532 
L 226.966099 155.717074 
L 233.289561 151.686604 
L 239.5452 147.432705 
L 245.70885 142.971661 
L 251.835242 138.263508 
L 257.983043 133.256149 
L 264.061102 128.019516 
L 270.131686 122.49784 
L 276.257885 116.62237 
L 276.850937 116.037111 
L 276.850937 116.037111 
" style="fill:none;stroke:#000000;stroke-linecap:square;"/>
   </g>
   <g id="line2d_28">
    <path clip-path="url(#pef82d94c77)" d="M 41.667187 207.142125 
L 50.393564 207.031042 
L 58.844611 206.700892 
L 67.01339 206.161255 
L 74.993138 205.411987 
L 82.770023 204.457237 
L 90.235768 203.318755 
L 97.56809 201.975232 
L 104.656562 200.450289 
L 111.573765 198.734322 
L 118.298861 196.837406 
L 124.890685 194.74798 
L 131.396683 192.453709 
L 137.924335 189.916338 
L 144.625373 187.071962 
L 151.871033 183.749817 
L 160.727319 179.429119 
L 180.722563 169.333024 
L 191.716697 163.614059 
L 199.048786 159.55149 
L 205.441098 155.758758 
L 211.42297 151.951694 
L 217.130305 148.057499 
L 222.722068 143.972978 
L 228.236482 139.667412 
L 233.649233 135.159368 
L 239.008497 130.408472 
L 244.365771 125.361789 
L 249.705566 120.023802 
L 255.013855 114.400708 
L 260.278102 108.49996 
L 265.553598 102.24907 
L 270.762446 95.73115 
L 275.960345 88.868418 
L 276.850937 87.655397 
L 276.850937 87.655397 
" style="fill:none;stroke:#000000;stroke-linecap:square;"/>
   </g>
   <g id="line2d_29">
    <path clip-path="url(#pef82d94c77)" d="M 41.667187 201.706125 
L 50.290856 201.595458 
L 58.651002 201.26536 
L 66.739992 200.723576 
L 74.550315 199.978826 
L 82.074712 199.040899 
L 89.401388 197.904531 
L 96.42337 196.593237 
L 103.223969 195.09988 
L 109.788952 193.433233 
L 116.187228 191.579206 
L 122.316932 189.573619 
L 128.317821 187.376484 
L 134.159712 185.000789 
L 139.950775 182.403732 
L 145.774323 179.544469 
L 151.813023 176.327583 
L 158.654252 172.422242 
L 169.31653 166.037496 
L 186.127425 155.751211 
L 192.553645 151.536458 
L 198.062149 147.662528 
L 203.180301 143.793337 
L 208.08763 139.804166 
L 212.866027 135.630515 
L 217.547244 131.243089 
L 222.108106 126.664996 
L 226.650929 121.788842 
L 231.158409 116.62011 
L 235.615163 111.166421 
L 240.007736 105.436886 
L 244.324518 99.441583 
L 248.611407 93.106144 
L 252.856087 86.431804 
L 256.994046 79.512031 
L 261.070641 72.264111 
L 265.076162 64.690878 
L 269.001573 56.795552 
L 272.838479 48.581641 
L 276.623793 39.947584 
L 276.850937 39.411494 
L 276.850937 39.411494 
" style="fill:none;stroke:#000000;stroke-linecap:square;"/>
   </g>
   <g id="line2d_30">
    <path clip-path="url(#pef82d94c77)" d="M 41.667187 196.270125 
L 50.188718 196.160874 
L 58.459855 195.833836 
L 66.472523 195.294861 
L 74.218509 194.550638 
L 81.689537 193.608815 
L 88.877372 192.478119 
L 95.773959 191.168492 
L 102.371612 189.691224 
L 108.750262 188.034884 
L 114.810105 186.23349 
L 120.625923 184.275012 
L 126.183131 182.172165 
L 131.541218 179.908704 
L 136.677745 177.499961 
L 141.702041 174.897359 
L 146.635511 172.088062 
L 151.548647 169.033206 
L 156.804483 165.497026 
L 163.346613 160.806219 
L 178.790489 149.36264 
L 184.6042 144.800354 
L 189.281907 140.847485 
L 193.501015 136.992952 
L 197.511343 133.027568 
L 201.379817 128.887208 
L 205.130875 124.544921 
L 208.794432 119.962173 
L 212.402763 115.087272 
L 215.889319 110.004154 
L 219.339167 104.578714 
L 222.689684 98.893979 
L 225.975661 92.877648 
L 229.183848 86.533082 
L 232.260929 79.956117 
L 235.240976 73.065832 
L 238.151498 65.769626 
L 240.94215 58.164616 
L 243.604677 50.256486 
L 246.131597 42.050999 
L 248.51612 33.553935 
L 250.778569 24.661524 
L 252.882381 15.484843 
L 254.822436 6.029799 
L 256.124641 -1 
L 256.124641 -1 
" style="fill:none;stroke:#000000;stroke-linecap:square;"/>
   </g>
   <g id="line2d_31">
    <path clip-path="url(#pef82d94c77)" d="M 41.667187 190.834125 
L 50.194203 190.724649 
L 58.481633 190.395713 
L 66.417336 189.859706 
L 74.099799 189.118446 
L 81.420903 188.19147 
L 88.475358 187.076591 
L 95.254226 185.781122 
L 101.748464 184.313551 
L 107.949057 182.683712 
L 113.847224 180.902984 
L 119.434689 178.984484 
L 124.704057 176.943254 
L 129.723401 174.762398 
L 134.476431 172.455947 
L 138.948659 170.041878 
L 143.190003 167.504019 
L 147.29358 164.788516 
L 151.271398 161.885612 
L 155.226024 158.720757 
L 159.534761 154.977863 
L 166.141592 148.892946 
L 175.523439 140.014056 
L 179.378066 136.035213 
L 182.715648 132.272278 
L 185.768217 128.49855 
L 188.669121 124.559911 
L 191.433739 120.433108 
L 194.08289 116.082696 
L 196.638823 111.459235 
L 199.085144 106.576277 
L 201.443612 101.368105 
L 203.665278 95.924126 
L 205.772765 90.17314 
L 207.753599 84.121849 
L 209.596778 77.777474 
L 211.292623 71.14752 
L 212.853021 64.141067 
L 214.244905 56.859592 
L 215.461664 49.311092 
L 216.510002 41.398243 
L 217.367091 33.229938 
L 218.035681 24.705099 
L 218.499514 15.936622 
L 218.757145 6.820016 
L 218.806706 -1 
L 218.806706 -1 
" style="fill:none;stroke:#000000;stroke-linecap:square;"/>
   </g>
   <g id="line2d_32">
    <path clip-path="url(#pef82d94c77)" d="M 41.667187 185.398125 
L 50.200406 185.289778 
L 58.506504 184.963017 
L 66.472548 184.428204 
L 74.094599 183.696378 
L 81.469023 182.765074 
L 88.488184 181.655234 
L 95.148866 180.380162 
L 101.541127 178.93132 
L 107.56478 177.340992 
L 113.305034 175.597258 
L 118.75157 173.709612 
L 123.814197 171.722618 
L 128.570318 169.621014 
L 133.011299 167.419959 
L 137.197335 165.097487 
L 141.046335 162.710436 
L 144.613617 160.240654 
L 147.939198 157.66979 
L 151.048804 154.983891 
L 153.958451 152.178541 
L 156.833921 149.096073 
L 160.088639 145.264044 
L 167.330804 136.263565 
L 170.357971 132.201639 
L 172.69814 128.689124 
L 174.772234 125.171726 
L 176.643085 121.563799 
L 178.380127 117.730192 
L 179.963743 113.699665 
L 181.429632 109.351876 
L 182.735663 104.774723 
L 183.890517 99.906237 
L 184.879623 94.757266 
L 185.690903 89.339188 
L 186.314409 83.663472 
L 186.741981 77.7414 
L 186.968781 71.488123 
L 186.9811 65.006091 
L 186.76996 58.20646 
L 186.330205 51.195493 
L 185.648214 43.880767 
L 184.712636 36.267872 
L 183.530204 28.46718 
L 182.079863 20.382047 
L 180.352274 12.018253 
L 178.338691 3.381684 
L 177.231664 -1 
L 177.231664 -1 
" style="fill:none;stroke:#000000;stroke-linecap:square;"/>
   </g>
   <g id="line2d_33">
    <path clip-path="url(#pef82d94c77)" d="M 41.667187 179.962125 
L 50.314663 179.853754 
L 58.640079 179.531168 
L 66.638741 179.00264 
L 74.30598 178.276985 
L 81.63719 177.363609 
L 88.627866 176.27257 
L 95.273656 175.014646 
L 101.570429 173.601402 
L 107.605866 172.019485 
L 113.279272 170.302312 
L 118.587065 168.464481 
L 123.526355 166.52181 
L 128.095177 164.491445 
L 132.36706 162.352515 
L 136.260039 160.159889 
L 139.841512 157.892028 
L 143.101536 155.567583 
L 146.03212 153.208953 
L 148.677841 150.79492 
L 151.022367 148.355407 
L 153.095196 145.880522 
L 154.979796 143.280403 
L 156.775865 140.41253 
L 159.209981 136.03687 
L 162.399176 129.946378 
L 163.717324 126.903924 
L 164.783398 123.877519 
L 165.650833 120.73606 
L 166.33598 117.409955 
L 166.836444 113.866917 
L 167.144563 110.058727 
L 167.243207 106.082655 
L 167.123678 101.800513 
L 166.772923 97.306214 
L 166.184729 92.616256 
L 165.338105 87.65817 
L 164.218393 82.442119 
L 162.837647 77.068588 
L 161.167238 71.459643 
L 159.196749 65.625132 
L 156.916873 59.574839 
L 154.319289 53.318413 
L 151.396533 46.86532 
L 148.141904 40.224809 
L 144.549367 33.405899 
L 140.613477 26.417363 
L 136.329313 19.267726 
L 131.692414 11.965265 
L 126.698733 4.518012 
L 122.829799 -1 
L 122.829799 -1 
" style="fill:none;stroke:#000000;stroke-linecap:square;"/>
   </g>
   <g id="line2d_34">
    <path clip-path="url(#pef82d94c77)" d="M 41.667187 174.526125 
L 50.537335 174.417011 
L 59.095536 174.090655 
L 67.231187 173.561133 
L 75.046375 172.832072 
L 82.535357 171.910256 
L 89.592275 170.820056 
L 96.314824 169.55831 
L 102.69707 168.133702 
L 108.639808 166.581861 
L 114.235217 164.893102 
L 119.477585 163.078818 
L 124.277161 161.186874 
L 128.719543 159.201813 
L 132.800342 157.138897 
L 136.515707 155.015094 
L 139.862658 152.849347 
L 142.839571 150.662862 
L 145.44688 148.479377 
L 147.738274 146.273368 
L 149.658482 144.124325 
L 151.257718 142.013083 
L 152.567399 139.925875 
L 153.605171 137.862797 
L 154.437473 135.708608 
L 155.273397 132.850565 
L 156.378259 128.370399 
L 156.681991 126.106783 
L 156.76742 123.801133 
L 156.636232 121.362203 
L 156.26646 118.708055 
L 155.640129 115.868944 
L 154.748346 112.873386 
L 153.558234 109.673454 
L 152.08936 106.363023 
L 150.304767 102.887969 
L 148.194455 99.265575 
L 145.75058 95.512228 
L 142.966989 91.643361 
L 139.779863 87.601766 
L 136.236364 83.474915 
L 132.33424 79.275975 
L 128.071855 75.017237 
L 123.448061 70.71021 
L 118.384949 66.300635 
L 112.953133 61.866889 
L 107.15293 57.418699 
L 100.898963 52.905073 
L 94.27252 48.39824 
L 87.183799 43.849755 
L 79.72026 39.327663 
L 71.883499 34.839431 
L 63.577489 30.340724 
L 54.897437 25.893266 
L 45.743696 21.455616 
L 36.216023 17.085342 
L 26.211435 12.74396 
L 15.833746 8.484938 
L 5.085165 4.31363 
L -1 2.052772 
L -1 2.052772 
" style="fill:none;stroke:#000000;stroke-linecap:square;"/>
   </g>
   <g id="line2d_35">
    <path clip-path="url(#pef82d94c77)" d="M 41.667187 169.090125 
L 50.868762 168.980171 
L 59.661949 168.65487 
L 68.0438 168.125407 
L 76.011596 167.403557 
L 83.665568 166.487905 
L 90.897645 165.399457 
L 97.705594 164.151892 
L 104.087612 162.759709 
L 110.042416 161.23829 
L 115.661744 159.574643 
L 120.847808 157.80901 
L 125.60085 155.959846 
L 129.922209 154.046868 
L 133.893684 152.048754 
L 137.432063 150.024077 
L 140.612434 147.948517 
L 143.362111 145.891134 
L 145.69079 143.880616 
L 147.663899 141.891263 
L 149.27874 139.950733 
L 150.535981 138.092564 
L 151.44321 136.35733 
L 152.021499 134.792278 
L 152.329341 133.348056 
L 152.406431 131.897452 
L 152.404073 131.780187 
L 152.404073 131.780187 
" style="fill:none;stroke:#000000;stroke-linecap:square;"/>
   </g>
   <g id="line2d_36">
    <path clip-path="url(#pef82d94c77)" d="M 41.667187 163.654125 
L 51.309236 163.54411 
L 60.553587 163.216436 
L 69.290011 162.686467 
L 77.622431 161.959847 
L 85.443085 161.058635 
L 92.854156 159.984336 
L 99.851693 158.746816 
L 106.332832 157.379175 
L 112.396188 155.876422 
L 118.038115 154.250769 
L 123.163042 152.548032 
L 127.864876 150.756741 
L 132.14087 148.892525 
L 135.988357 146.97241 
L 139.327591 145.062521 
L 142.243648 143.143839 
L 144.736884 141.239707 
L 146.7495 139.434697 
L 148.360135 137.707141 
L 149.579142 136.090735 
L 150.422951 134.624434 
L 150.918513 133.353272 
L 150.999578 133.04291 
L 150.999578 133.04291 
" style="fill:none;stroke:#000000;stroke-linecap:square;"/>
   </g>
   <g id="line2d_37">
    <path clip-path="url(#pef82d94c77)" d="M 41.667187 158.218125 
L 51.967055 158.107673 
L 61.772405 157.78085 
L 71.08029 157.24835 
L 79.78218 156.531544 
L 87.983009 155.637797 
L 95.680495 154.580051 
L 102.872551 153.372047 
L 109.557336 152.02841 
L 115.733305 150.564757 
L 121.399282 148.997822 
L 126.554549 147.345606 
L 131.198958 145.627567 
L 135.333079 143.864842 
L 138.95839 142.080541 
L 142.077541 140.300121 
L 144.6947 138.551892 
L 146.816049 136.867727 
L 148.392161 135.347371 
L 149.516505 133.978945 
L 150.075922 133.090036 
L 150.075922 133.090036 
" style="fill:none;stroke:#000000;stroke-linecap:square;"/>
   </g>
   <g id="line2d_38">
    <path clip-path="url(#pef82d94c77)" d="M 41.667187 152.782125 
L 52.842758 152.673125 
L 63.427464 152.351583 
L 73.418868 151.82933 
L 82.814615 151.118869 
L 91.612454 150.233447 
L 99.810256 149.18713 
L 107.406036 147.994907 
L 114.295843 146.693858 
L 120.583321 145.286948 
L 126.26796 143.793471 
L 131.349788 142.234411 
L 135.829497 140.632738 
L 139.708602 139.013778 
L 142.989605 137.40572 
L 145.594953 135.892142 
L 147.624665 134.470255 
L 149.092276 133.185106 
L 149.405873 132.855876 
L 149.405873 132.855876 
" style="fill:none;stroke:#000000;stroke-linecap:square;"/>
   </g>
   <g id="line2d_39">
    <path clip-path="url(#pef82d94c77)" d="M 41.667187 147.346125 
L 54.37025 147.236159 
L 66.276377 146.914158 
L 77.383813 146.395541 
L 87.69102 145.696836 
L 97.303223 144.824882 
L 106.111575 143.804538 
L 114.115216 142.656135 
L 121.313778 141.40189 
L 127.707535 140.066279 
L 133.297631 138.676504 
L 138.086401 137.263153 
L 142.077847 135.861098 
L 145.278376 134.510823 
L 147.697952 133.260454 
L 148.956212 132.460661 
L 148.956212 132.460661 
" style="fill:none;stroke:#000000;stroke-linecap:square;"/>
   </g>
   <g id="line2d_40">
    <path clip-path="url(#pef82d94c77)" d="M 41.667187 141.910125 
L 56.985113 141.799741 
L 71.191262 141.477178 
L 84.175745 140.963699 
L 96.04549 140.275363 
L 106.691649 139.440889 
L 116.221143 138.476517 
L 124.633036 137.405867 
L 131.821363 136.273446 
L 137.893138 135.09771 
L 142.746603 133.940543 
L 146.389744 132.859785 
L 148.646337 132.014226 
L 148.646337 132.014226 
" style="fill:none;stroke:#000000;stroke-linecap:square;"/>
   </g>
   <g id="line2d_41">
    <path clip-path="url(#pef82d94c77)" d="M 41.667187 136.474125 
L 62.970368 136.36328 
L 81.977734 136.046299 
L 98.688272 135.55043 
L 113.101193 134.906538 
L 125.216051 134.150164 
L 135.032911 133.323078 
L 142.445472 132.4896 
L 147.564462 131.707852 
L 148.410415 131.545225 
L 148.410415 131.545225 
" style="fill:none;stroke:#000000;stroke-linecap:square;"/>
   </g>
   <g id="line2d_42">
    <path clip-path="url(#pef82d94c77)" d="M 41.667187 131.038125 
L 148.430227 131.038125 
L 148.430227 131.038125 
" style="fill:none;stroke:#000000;stroke-linecap:square;"/>
   </g>
   <g id="line2d_43">
    <path clip-path="url(#pef82d94c77)" d="M 41.667187 125.602125 
L 62.970368 125.71297 
L 81.977734 126.029951 
L 98.688272 126.52582 
L 113.101193 127.169712 
L 125.216051 127.926086 
L 135.032911 128.753172 
L 142.445472 129.58665 
L 147.564462 130.368398 
L 148.410415 130.531025 
L 148.410415 130.531025 
" style="fill:none;stroke:#000000;stroke-linecap:square;"/>
   </g>
   <g id="line2d_44">
    <path clip-path="url(#pef82d94c77)" d="M 41.667187 120.166125 
L 56.985113 120.276509 
L 71.191262 120.599072 
L 84.175745 121.112551 
L 96.04549 121.800887 
L 106.691649 122.635361 
L 116.221143 123.599733 
L 124.633036 124.670383 
L 131.821363 125.802804 
L 137.893138 126.97854 
L 142.746603 128.135707 
L 146.389744 129.216465 
L 148.646337 130.062024 
L 148.646337 130.062024 
" style="fill:none;stroke:#000000;stroke-linecap:square;"/>
   </g>
   <g id="line2d_45">
    <path clip-path="url(#pef82d94c77)" d="M 41.667187 114.730125 
L 54.37025 114.840091 
L 66.276377 115.162092 
L 77.383813 115.680709 
L 87.69102 116.379414 
L 97.303223 117.251368 
L 106.111575 118.271712 
L 114.115216 119.420115 
L 121.313778 120.67436 
L 127.707535 122.009971 
L 133.297631 123.399746 
L 138.086401 124.813097 
L 142.077847 126.215152 
L 145.278376 127.565427 
L 147.697952 128.815796 
L 148.956212 129.615589 
L 148.956212 129.615589 
" style="fill:none;stroke:#000000;stroke-linecap:square;"/>
   </g>
   <g id="line2d_46">
    <path clip-path="url(#pef82d94c77)" d="M 41.667187 109.294125 
L 52.842758 109.403125 
L 63.427464 109.724667 
L 73.418868 110.24692 
L 82.814615 110.957381 
L 91.612454 111.842803 
L 99.810256 112.88912 
L 107.406036 114.081343 
L 114.295843 115.382392 
L 120.583321 116.789302 
L 126.26796 118.282779 
L 131.349788 119.841839 
L 135.829497 121.443512 
L 139.708602 123.062472 
L 142.989605 124.67053 
L 145.594953 126.184108 
L 147.624665 127.605995 
L 149.092276 128.891144 
L 149.405873 129.220374 
L 149.405873 129.220374 
" style="fill:none;stroke:#000000;stroke-linecap:square;"/>
   </g>
   <g id="line2d_47">
    <path clip-path="url(#pef82d94c77)" d="M 41.667187 103.858125 
L 51.967055 103.968577 
L 61.772405 104.2954 
L 71.08029 104.8279 
L 79.78218 105.544706 
L 87.983009 106.438453 
L 95.680495 107.496199 
L 102.872551 108.704203 
L 109.557336 110.04784 
L 115.733305 111.511493 
L 121.399282 113.078428 
L 126.554549 114.730644 
L 131.198958 116.448683 
L 135.333079 118.211408 
L 138.95839 119.995709 
L 142.077541 121.776129 
L 144.6947 123.524358 
L 146.816049 125.208523 
L 148.392161 126.728879 
L 149.516505 128.097305 
L 150.075922 128.986214 
L 150.075922 128.986214 
" style="fill:none;stroke:#000000;stroke-linecap:square;"/>
   </g>
   <g id="line2d_48">
    <path clip-path="url(#pef82d94c77)" d="M 41.667187 98.422125 
L 51.309236 98.53214 
L 60.553587 98.859814 
L 69.290011 99.389783 
L 77.622431 100.116403 
L 85.443085 101.017615 
L 92.854156 102.091914 
L 99.851693 103.329434 
L 106.332832 104.697075 
L 112.396188 106.199828 
L 118.038115 107.825481 
L 123.163042 109.528218 
L 127.864876 111.319509 
L 132.14087 113.183725 
L 135.988357 115.10384 
L 139.327591 117.013729 
L 142.243648 118.932411 
L 144.736884 120.836543 
L 146.7495 122.641553 
L 148.360135 124.369109 
L 149.579142 125.985515 
L 150.422951 127.451816 
L 150.918513 128.722978 
L 150.999578 129.03334 
L 150.999578 129.03334 
" style="fill:none;stroke:#000000;stroke-linecap:square;"/>
   </g>
   <g id="line2d_49">
    <path clip-path="url(#pef82d94c77)" d="M 41.667187 92.986125 
L 50.868762 93.096079 
L 59.661949 93.42138 
L 68.0438 93.950843 
L 76.011596 94.672693 
L 83.665568 95.588345 
L 90.897645 96.676793 
L 97.705594 97.924358 
L 104.087612 99.316541 
L 110.042416 100.83796 
L 115.661744 102.501607 
L 120.847808 104.26724 
L 125.60085 106.116404 
L 129.922209 108.029382 
L 133.893684 110.027496 
L 137.432063 112.052173 
L 140.612434 114.127733 
L 143.362111 116.185116 
L 145.69079 118.195634 
L 147.663899 120.184987 
L 149.27874 122.125517 
L 150.535981 123.983686 
L 151.44321 125.71892 
L 152.021499 127.283972 
L 152.329341 128.728194 
L 152.406431 130.178798 
L 152.404073 130.296063 
L 152.404073 130.296063 
" style="fill:none;stroke:#000000;stroke-linecap:square;"/>
   </g>
   <g id="line2d_50">
    <path clip-path="url(#pef82d94c77)" d="M 41.667187 87.550125 
L 50.537335 87.659239 
L 59.095536 87.985595 
L 67.231187 88.515117 
L 75.046375 89.244178 
L 82.535357 90.165994 
L 89.592275 91.256194 
L 96.314824 92.51794 
L 102.69707 93.942548 
L 108.639808 95.494389 
L 114.235217 97.183148 
L 119.477585 98.997432 
L 124.277161 100.889376 
L 128.719543 102.874437 
L 132.800342 104.937353 
L 136.515707 107.061156 
L 139.862658 109.226903 
L 142.839571 111.413388 
L 145.44688 113.596873 
L 147.738274 115.802882 
L 149.658482 117.951925 
L 151.257718 120.063167 
L 152.567399 122.150375 
L 153.605171 124.213453 
L 154.437473 126.367642 
L 155.273397 129.225685 
L 156.378259 133.705851 
L 156.681991 135.969467 
L 156.76742 138.275117 
L 156.636232 140.714047 
L 156.26646 143.368195 
L 155.640129 146.207306 
L 154.748346 149.202864 
L 153.558234 152.402796 
L 152.08936 155.713227 
L 150.304767 159.188281 
L 148.194455 162.810675 
L 145.75058 166.564022 
L 142.966989 170.432889 
L 139.779863 174.474484 
L 136.236364 178.601335 
L 132.33424 182.800275 
L 128.071855 187.059013 
L 123.448061 191.36604 
L 118.384949 195.775615 
L 112.953133 200.209361 
L 107.15293 204.657551 
L 100.898963 209.171177 
L 94.27252 213.67801 
L 87.183799 218.226495 
L 79.72026 222.748587 
L 71.883499 227.236819 
L 63.577489 231.735526 
L 54.897437 236.182984 
L 45.743696 240.620634 
L 36.216023 244.990908 
L 26.211435 249.33229 
L 15.833746 253.591312 
L 5.085165 257.76262 
L -1 260.023478 
L -1 260.023478 
" style="fill:none;stroke:#000000;stroke-linecap:square;"/>
   </g>
   <g id="line2d_51">
    <path clip-path="url(#pef82d94c77)" d="M 41.667187 82.114125 
L 50.314663 82.222496 
L 58.640079 82.545082 
L 66.638741 83.07361 
L 74.30598 83.799265 
L 81.63719 84.712641 
L 88.627866 85.80368 
L 95.273656 87.061604 
L 101.570429 88.474848 
L 107.605866 90.056765 
L 113.279272 91.773938 
L 118.587065 93.611769 
L 123.526355 95.55444 
L 128.095177 97.584805 
L 132.36706 99.723735 
L 136.260039 101.916361 
L 139.841512 104.184222 
L 143.101536 106.508667 
L 146.03212 108.867297 
L 148.677841 111.28133 
L 151.022367 113.720843 
L 153.095196 116.195728 
L 154.979796 118.795847 
L 156.775865 121.66372 
L 159.209981 126.03938 
L 162.399176 132.129872 
L 163.717324 135.172326 
L 164.783398 138.198731 
L 165.650833 141.34019 
L 166.33598 144.666295 
L 166.836444 148.209333 
L 167.144563 152.017523 
L 167.243207 155.993595 
L 167.123678 160.275737 
L 166.772923 164.770036 
L 166.184729 169.459994 
L 165.338105 174.41808 
L 164.218393 179.634131 
L 162.837647 185.007662 
L 161.167238 190.616607 
L 159.196749 196.451118 
L 156.916873 202.501411 
L 154.319289 208.757837 
L 151.396533 215.21093 
L 148.141904 221.851441 
L 144.549367 228.670351 
L 140.613477 235.658887 
L 136.329313 242.808524 
L 131.692414 250.110985 
L 126.698733 257.558238 
L 121.710295 264.63625 
L 121.710295 264.63625 
" style="fill:none;stroke:#000000;stroke-linecap:square;"/>
   </g>
   <g id="line2d_52">
    <path clip-path="url(#pef82d94c77)" d="M 41.667187 76.678125 
L 50.200406 76.786472 
L 58.506504 77.113233 
L 66.472548 77.648046 
L 74.094599 78.379872 
L 81.469023 79.311176 
L 88.488184 80.421016 
L 95.148866 81.696088 
L 101.541127 83.14493 
L 107.56478 84.735258 
L 113.305034 86.478992 
L 118.75157 88.366638 
L 123.814197 90.353632 
L 128.570318 92.455236 
L 133.011299 94.656291 
L 137.197335 96.978763 
L 141.046335 99.365814 
L 144.613617 101.835596 
L 147.939198 104.40646 
L 151.048804 107.092359 
L 153.958451 109.897709 
L 156.833921 112.980177 
L 160.088639 116.812206 
L 167.330804 125.812685 
L 170.357971 129.874611 
L 172.69814 133.387126 
L 174.772234 136.904524 
L 176.643085 140.512451 
L 178.380127 144.346058 
L 179.963743 148.376585 
L 181.429632 152.724374 
L 182.735663 157.301527 
L 183.890517 162.170013 
L 184.879623 167.318984 
L 185.690903 172.737062 
L 186.314409 178.412778 
L 186.741981 184.33485 
L 186.968781 190.588127 
L 186.9811 197.070159 
L 186.76996 203.86979 
L 186.330205 210.880757 
L 185.648214 218.195483 
L 184.712636 225.808378 
L 183.530204 233.60907 
L 182.079863 241.694203 
L 180.352274 250.057997 
L 178.338691 258.694566 
L 176.824024 264.63625 
L 176.824024 264.63625 
" style="fill:none;stroke:#000000;stroke-linecap:square;"/>
   </g>
   <g id="line2d_53">
    <path clip-path="url(#pef82d94c77)" d="M 41.667187 71.242125 
L 50.194203 71.351601 
L 58.481633 71.680537 
L 66.417336 72.216544 
L 74.099799 72.957804 
L 81.420903 73.88478 
L 88.475358 74.999659 
L 95.254226 76.295128 
L 101.748464 77.762699 
L 107.949057 79.392538 
L 113.847224 81.173266 
L 119.434689 83.091766 
L 124.704057 85.132996 
L 129.723401 87.313852 
L 134.476431 89.620303 
L 138.948659 92.034372 
L 143.190003 94.572231 
L 147.29358 97.287734 
L 151.271398 100.190638 
L 155.226024 103.355493 
L 159.534761 107.098387 
L 166.141592 113.183304 
L 175.523439 122.062194 
L 179.378066 126.041037 
L 182.715648 129.803972 
L 185.768217 133.5777 
L 188.669121 137.516339 
L 191.433739 141.643142 
L 194.08289 145.993554 
L 196.638823 150.617015 
L 199.085144 155.499973 
L 201.443612 160.708145 
L 203.665278 166.152124 
L 205.772765 171.90311 
L 207.753599 177.954401 
L 209.596778 184.298776 
L 211.292623 190.92873 
L 212.853021 197.935183 
L 214.244905 205.216658 
L 215.461664 212.765158 
L 216.510002 220.678007 
L 217.367091 228.846312 
L 218.035681 237.371151 
L 218.499514 246.139628 
L 218.757145 255.256234 
L 218.798442 264.63625 
L 218.798442 264.63625 
" style="fill:none;stroke:#000000;stroke-linecap:square;"/>
   </g>
   <g id="line2d_54">
    <path clip-path="url(#pef82d94c77)" d="M 41.667187 65.806125 
L 50.188718 65.915376 
L 58.459855 66.242414 
L 66.472523 66.781389 
L 74.218509 67.525612 
L 81.689537 68.467435 
L 88.877372 69.598131 
L 95.773959 70.907758 
L 102.371612 72.385026 
L 108.750262 74.041366 
L 114.810105 75.84276 
L 120.625923 77.801238 
L 126.183131 79.904085 
L 131.541218 82.167546 
L 136.677745 84.576289 
L 141.702041 87.178891 
L 146.635511 89.988188 
L 151.548647 93.043044 
L 156.804483 96.579224 
L 163.346613 101.270031 
L 178.790489 112.71361 
L 184.6042 117.275896 
L 189.281907 121.228765 
L 193.501015 125.083298 
L 197.511343 129.048682 
L 201.379817 133.189042 
L 205.130875 137.531329 
L 208.794432 142.114077 
L 212.402763 146.988978 
L 215.889319 152.072096 
L 219.339167 157.497536 
L 222.689684 163.182271 
L 225.975661 169.198602 
L 229.183848 175.543168 
L 232.260929 182.120133 
L 235.240976 189.010418 
L 238.151498 196.306624 
L 240.94215 203.911634 
L 243.604677 211.819764 
L 246.131597 220.025251 
L 248.51612 228.522315 
L 250.778569 237.414726 
L 252.882381 246.591407 
L 254.822436 256.046451 
L 256.398099 264.63625 
L 256.398099 264.63625 
" style="fill:none;stroke:#000000;stroke-linecap:square;"/>
   </g>
   <g id="line2d_55">
    <path clip-path="url(#pef82d94c77)" d="M 41.667187 60.370125 
L 50.290856 60.480792 
L 58.651002 60.81089 
L 66.739992 61.352674 
L 74.550315 62.097424 
L 82.074712 63.035351 
L 89.401388 64.171719 
L 96.42337 65.483013 
L 103.223969 66.97637 
L 109.788952 68.643017 
L 116.187228 70.497044 
L 122.316932 72.502631 
L 128.317821 74.699766 
L 134.159712 77.075461 
L 139.950775 79.672518 
L 145.774323 82.531781 
L 151.813023 85.748667 
L 158.654252 89.654008 
L 169.31653 96.038754 
L 186.127425 106.325039 
L 192.553645 110.539792 
L 198.062149 114.413722 
L 203.180301 118.282913 
L 208.08763 122.272084 
L 212.866027 126.445735 
L 217.547244 130.833161 
L 222.108106 135.411254 
L 226.650929 140.287408 
L 231.158409 145.45614 
L 235.615163 150.909829 
L 240.007736 156.639364 
L 244.324518 162.634667 
L 248.611407 168.970106 
L 252.856087 175.644446 
L 256.994046 182.564219 
L 261.070641 189.812139 
L 265.076162 197.385372 
L 269.001573 205.280698 
L 272.838479 213.494609 
L 276.623793 222.128666 
L 276.850937 222.664756 
L 276.850937 222.664756 
" style="fill:none;stroke:#000000;stroke-linecap:square;"/>
   </g>
   <g id="line2d_56">
    <path clip-path="url(#pef82d94c77)" d="M 41.667187 54.934125 
L 50.393564 55.045208 
L 58.844611 55.375358 
L 67.01339 55.914995 
L 74.993138 56.664263 
L 82.770023 57.619013 
L 90.235768 58.757495 
L 97.56809 60.101018 
L 104.656562 61.625961 
L 111.573765 63.341928 
L 118.298861 65.238844 
L 124.890685 67.32827 
L 131.396683 69.622541 
L 137.924335 72.159912 
L 144.625373 75.004288 
L 151.871033 78.326433 
L 160.727319 82.647131 
L 180.722563 92.743226 
L 191.716697 98.462191 
L 199.048786 102.52476 
L 205.441098 106.317492 
L 211.42297 110.124556 
L 217.130305 114.018751 
L 222.722068 118.103272 
L 228.236482 122.408838 
L 233.649233 126.916882 
L 239.008497 131.667778 
L 244.365771 136.714461 
L 249.705566 142.052448 
L 255.013855 147.675542 
L 260.278102 153.57629 
L 265.553598 159.82718 
L 270.762446 166.3451 
L 275.960345 173.207832 
L 276.850937 174.420853 
L 276.850937 174.420853 
" style="fill:none;stroke:#000000;stroke-linecap:square;"/>
   </g>
   <g id="line2d_57">
    <path clip-path="url(#pef82d94c77)" d="M 41.667187 49.498125 
L 50.496887 49.608766 
L 59.040833 49.936431 
L 67.394933 50.477779 
L 75.546186 51.227955 
L 83.481634 52.180362 
L 91.188675 53.326426 
L 98.746102 54.672885 
L 106.13377 56.212688 
L 113.416773 57.956502 
L 120.648516 59.91747 
L 127.871283 62.108349 
L 135.191333 64.563618 
L 142.833866 67.365511 
L 151.312394 70.71878 
L 162.301945 75.323541 
L 189.173619 86.909377 
L 199.030327 91.380124 
L 206.839105 95.163232 
L 213.873871 98.816086 
L 220.529892 102.521718 
L 226.966099 106.359176 
L 233.289561 110.389646 
L 239.5452 114.643545 
L 245.70885 119.104589 
L 251.835242 123.812742 
L 257.983043 128.820101 
L 264.061102 134.056734 
L 270.131686 139.57841 
L 276.257885 145.45388 
L 276.850937 146.039139 
L 276.850937 146.039139 
" style="fill:none;stroke:#000000;stroke-linecap:square;"/>
   </g>
   <g id="line2d_58">
    <path clip-path="url(#pef82d94c77)" d="M 41.667187 44.062125 
L 50.60084 44.171609 
L 59.343869 44.499938 
L 67.883872 45.041733 
L 76.208632 45.78991 
L 84.402557 46.748024 
L 92.445925 47.911579 
L 100.409609 49.289702 
L 108.26614 50.876687 
L 116.073272 52.681959 
L 123.878646 54.71477 
L 131.87392 57.026907 
L 140.362974 59.716836 
L 149.943734 62.994145 
L 162.963723 67.70541 
L 193.508911 79.055221 
L 203.906727 83.156808 
L 212.378043 86.732992 
L 220.09845 90.230218 
L 227.424558 93.790965 
L 234.529332 97.490479 
L 241.529645 101.387701 
L 248.395203 105.463757 
L 255.261329 109.799972 
L 262.108529 114.389863 
L 268.918912 119.224081 
L 275.758928 124.354732 
L 276.850937 125.199735 
L 276.850937 125.199735 
" style="fill:none;stroke:#000000;stroke-linecap:square;"/>
   </g>
   <g id="line2d_59">
    <path clip-path="url(#pef82d94c77)" d="M 41.667187 38.626125 
L 50.811846 38.736453 
L 59.753195 39.065996 
L 68.580855 39.614924 
L 77.176867 40.371031 
L 85.626391 41.334753 
L 94.004015 42.512527 
L 102.373144 43.914954 
L 110.699932 45.536561 
L 119.119131 47.403608 
L 127.822881 49.564769 
L 137.047745 52.088607 
L 147.571894 55.207287 
L 162.060935 59.756403 
L 195.765141 70.627137 
L 207.054826 74.504682 
L 216.328679 77.920999 
L 224.751013 81.257726 
L 232.773942 84.675252 
L 240.499269 88.206894 
L 248.046795 91.89936 
L 255.551926 95.818298 
L 262.990355 99.952997 
L 270.426617 104.341542 
L 276.850937 108.341763 
L 276.850937 108.341763 
" style="fill:none;stroke:#000000;stroke-linecap:square;"/>
   </g>
   <g id="line2d_60">
    <path clip-path="url(#pef82d94c77)" d="M 41.667187 33.190125 
L 51.02332 33.30069 
L 60.164562 33.629622 
L 69.181246 34.174857 
L 78.153466 34.94132 
L 86.959645 35.9159 
L 95.768012 37.114436 
L 104.545942 38.532139 
L 113.52069 40.208557 
L 122.720619 42.154551 
L 132.563484 44.46779 
L 143.706293 47.322997 
L 158.666344 51.406696 
L 195.275627 61.705786 
L 208.089974 65.527729 
L 218.325277 68.809383 
L 227.546731 71.998734 
L 236.21196 75.23058 
L 244.58688 78.591988 
L 252.79698 82.128707 
L 260.895032 85.86144 
L 268.941954 89.818113 
L 276.850937 93.952517 
L 276.850937 93.952517 
" style="fill:none;stroke:#000000;stroke-linecap:square;"/>
   </g>
   <g id="line2d_61">
    <path clip-path="url(#pef82d94c77)" d="M 41.667187 27.754125 
L 51.235275 27.864402 
L 60.681658 28.196035 
L 69.988512 28.744462 
L 79.23681 29.511517 
L 88.496986 30.503783 
L 97.737045 31.717337 
L 107.105094 33.171329 
L 116.813354 34.904793 
L 127.124653 36.975754 
L 138.657995 39.525474 
L 153.458738 43.040954 
L 189.79702 51.992157 
L 205.985125 56.151803 
L 217.563491 59.353285 
L 227.666826 62.375038 
L 237.065406 65.416927 
L 246.019905 68.546829 
L 254.737965 71.827554 
L 263.360957 75.310213 
L 271.85917 78.981455 
L 276.850937 81.250772 
L 276.850937 81.250772 
" style="fill:none;stroke:#000000;stroke-linecap:square;"/>
   </g>
   <g id="line2d_62">
    <path clip-path="url(#pef82d94c77)" d="M 41.667187 22.318125 
L 51.447712 22.427669 
L 61.200591 22.760401 
L 70.800142 23.309258 
L 80.426415 24.081957 
L 90.142671 25.086985 
L 99.910604 26.320947 
L 110.049192 27.828393 
L 120.747943 29.648597 
L 132.498164 31.878375 
L 146.907006 34.850479 
L 174.424628 40.81152 
L 202.819231 47.110167 
L 216.058845 50.284092 
L 227.112206 53.158437 
L 237.223839 56.014412 
L 246.820288 58.953801 
L 256.10813 62.029621 
L 265.226653 65.282945 
L 274.236084 68.733239 
L 276.850937 69.779448 
L 276.850937 69.779448 
" style="fill:none;stroke:#000000;stroke-linecap:square;"/>
   </g>
   <g id="line2d_63">
    <path clip-path="url(#pef82d94c77)" d="M 41.667187 16.882125 
L 51.76677 16.992899 
L 61.721386 17.322999 
L 71.71678 17.876577 
L 81.721876 18.652838 
L 91.896646 19.666106 
L 102.288549 20.924761 
L 113.202677 22.472285 
L 125.073545 24.384205 
L 139.016035 26.864469 
L 159.714128 30.801548 
L 202.725333 39.226981 
L 216.946209 42.254872 
L 228.693937 44.978669 
L 239.404049 47.68722 
L 249.508642 50.469634 
L 259.30853 53.398177 
L 268.85115 56.480484 
L 276.850937 59.24646 
L 276.850937 59.24646 
" style="fill:none;stroke:#000000;stroke-linecap:square;"/>
   </g>
   <g id="line2d_64">
    <path clip-path="url(#pef82d94c77)" d="M 41.667187 11.446125 
L 51.980103 11.555407 
L 62.347364 11.888518 
L 72.738047 12.446313 
L 83.220249 13.232573 
L 93.947342 14.261592 
L 105.143913 15.562401 
L 117.093576 17.178374 
L 130.639499 19.241146 
L 148.323992 22.175635 
L 192.557235 29.831766 
L 211.102931 33.219267 
L 224.542195 35.896666 
L 236.304778 38.464788 
L 247.137996 41.054639 
L 257.508184 43.760066 
L 267.64571 46.63505 
L 276.850937 49.452506 
L 276.850937 49.452506 
" style="fill:none;stroke:#000000;stroke-linecap:square;"/>
   </g>
   <g id="line2d_65">
    <path clip-path="url(#pef82d94c77)" d="M 41.667187 6.010125 
L 52.299953 6.119856 
L 62.975021 6.45246 
L 73.763345 7.012076 
L 84.726384 7.80421 
L 96.105768 8.85206 
L 108.11279 10.184545 
L 121.373028 11.885978 
L 137.287498 14.162746 
L 163.591732 18.189604 
L 205.661265 24.818587 
L 221.002083 27.478574 
L 233.749265 29.909538 
L 245.416396 32.359027 
L 256.364552 34.882273 
L 267.00346 37.562108 
L 276.850937 40.25464 
L 276.850937 40.25464 
" style="fill:none;stroke:#000000;stroke-linecap:square;"/>
   </g>
   <g id="line2d_66">
    <path clip-path="url(#pef82d94c77)" d="M 41.667187 0.574125 
L 52.620174 0.683959 
L 63.707533 1.019179 
L 74.892935 1.580361 
L 86.434769 2.384032 
L 98.46621 3.446933 
L 111.468893 4.823038 
L 126.308145 6.624174 
L 146.050324 9.262299 
L 195.976221 16.245516 
L 215.11756 19.112389 
L 229.415857 21.474212 
L 242.050662 23.78464 
L 253.719729 26.142376 
L 264.913184 28.630164 
L 275.772075 31.271213 
L 276.850937 31.546314 
L 276.850937 31.546314 
" style="fill:none;stroke:#000000;stroke-linecap:square;"/>
   </g>
   <g id="line2d_67">
    <path clip-path="url(#pef82d94c77)" d="M 110.734766 -1 
L 126.556003 0.749998 
L 148.684317 3.442512 
L 202.438563 10.270386 
L 220.32892 12.763004 
L 234.623207 14.976082 
L 247.373662 17.17287 
L 259.313469 19.454164 
L 270.758077 21.866161 
L 276.850937 23.245689 
L 276.850937 23.245689 
" style="fill:none;stroke:#000000;stroke-linecap:square;"/>
   </g>
   <g id="line2d_68">
    <path clip-path="url(#pef82d94c77)" d="M 163.35693 -1 
L 208.229782 4.22439 
L 225.374407 6.459361 
L 239.616847 8.535819 
L 252.545067 10.642891 
L 264.732137 12.853341 
L 276.405618 15.194553 
L 276.850937 15.288409 
L 276.850937 15.288409 
" style="fill:none;stroke:#000000;stroke-linecap:square;"/>
   </g>
   <g id="line2d_69">
    <defs>
     <path d="M 0 3 
C 0.795609 3 1.55874 2.683901 2.12132 2.12132 
C 2.683901 1.55874 3 0.795609 3 0 
C 3 -0.795609 2.683901 -1.55874 2.12132 -2.12132 
C 1.55874 -2.683901 0.795609 -3 0 -3 
C -0.795609 -3 -1.55874 -2.683901 -2.12132 -2.12132 
C -2.683901 -1.55874 -3 -0.795609 -3 0 
C -3 0.795609 -2.683901 1.55874 -2.12132 2.12132 
C -1.55874 2.683901 -0.795609 3 0 3 
z
" id="m84f9285341" style="stroke:#ff0000;"/>
    </defs>
    <g clip-path="url(#pef82d94c77)">
     <use style="fill:#ff0000;stroke:#ff0000;" x="150.387187" xlink:href="#m84f9285341" y="131.038125"/>
    </g>
   </g>
   <g id="patch_3">
    <path d="M 41.667187 239.758125 
L 41.667187 22.318125 
" style="fill:none;stroke:#000000;stroke-linecap:square;stroke-linejoin:miter;stroke-width:0.8;"/>
   </g>
   <g id="patch_4">
    <path d="M 259.107188 239.758125 
L 259.107188 22.318125 
" style="fill:none;stroke:#000000;stroke-linecap:square;stroke-linejoin:miter;stroke-width:0.8;"/>
   </g>
   <g id="patch_5">
    <path d="M 41.667187 239.758125 
L 259.107188 239.758125 
" style="fill:none;stroke:#000000;stroke-linecap:square;stroke-linejoin:miter;stroke-width:0.8;"/>
   </g>
   <g id="patch_6">
    <path d="M 41.667187 22.318125 
L 259.107188 22.318125 
" style="fill:none;stroke:#000000;stroke-linecap:square;stroke-linejoin:miter;stroke-width:0.8;"/>
   </g>
   <g id="text_15">
    <!-- bent light: squashed azimuthal length -->
    <g transform="translate(36.179062 16.318125)scale(0.12 -0.12)">
     <defs>
      <path d="M 48.6875 27.296875 
Q 48.6875 37.203125 44.609375 42.84375 
Q 40.53125 48.484375 33.40625 48.484375 
Q 26.265625 48.484375 22.1875 42.84375 
Q 18.109375 37.203125 18.109375 27.296875 
Q 18.109375 17.390625 22.1875 11.75 
Q 26.265625 6.109375 33.40625 6.109375 
Q 40.53125 6.109375 44.609375 11.75 
Q 48.6875 17.390625 48.6875 27.296875 
z
M 18.109375 46.390625 
Q 20.953125 51.265625 25.265625 53.625 
Q 29.59375 56 35.59375 56 
Q 45.5625 56 51.78125 48.09375 
Q 58.015625 40.1875 58.015625 27.296875 
Q 58.015625 14.40625 51.78125 6.484375 
Q 45.5625 -1.421875 35.59375 -1.421875 
Q 29.59375 -1.421875 25.265625 0.953125 
Q 20.953125 3.328125 18.109375 8.203125 
L 18.109375 0 
L 9.078125 0 
L 9.078125 75.984375 
L 18.109375 75.984375 
z
" id="DejaVuSans-98"/>
      <path d="M 56.203125 29.59375 
L 56.203125 25.203125 
L 14.890625 25.203125 
Q 15.484375 15.921875 20.484375 11.0625 
Q 25.484375 6.203125 34.421875 6.203125 
Q 39.59375 6.203125 44.453125 7.46875 
Q 49.3125 8.734375 54.109375 11.28125 
L 54.109375 2.78125 
Q 49.265625 0.734375 44.1875 -0.34375 
Q 39.109375 -1.421875 33.890625 -1.421875 
Q 20.796875 -1.421875 13.15625 6.1875 
Q 5.515625 13.8125 5.515625 26.8125 
Q 5.515625 40.234375 12.765625 48.109375 
Q 20.015625 56 32.328125 56 
Q 43.359375 56 49.78125 48.890625 
Q 56.203125 41.796875 56.203125 29.59375 
z
M 47.21875 32.234375 
Q 47.125 39.59375 43.09375 43.984375 
Q 39.0625 48.390625 32.421875 48.390625 
Q 24.90625 48.390625 20.390625 44.140625 
Q 15.875 39.890625 15.1875 32.171875 
z
" id="DejaVuSans-101"/>
      <path d="M 54.890625 33.015625 
L 54.890625 0 
L 45.90625 0 
L 45.90625 32.71875 
Q 45.90625 40.484375 42.875 44.328125 
Q 39.84375 48.1875 33.796875 48.1875 
Q 26.515625 48.1875 22.3125 43.546875 
Q 18.109375 38.921875 18.109375 30.90625 
L 18.109375 0 
L 9.078125 0 
L 9.078125 54.6875 
L 18.109375 54.6875 
L 18.109375 46.1875 
Q 21.34375 51.125 25.703125 53.5625 
Q 30.078125 56 35.796875 56 
Q 45.21875 56 50.046875 50.171875 
Q 54.890625 44.34375 54.890625 33.015625 
z
" id="DejaVuSans-110"/>
      <path d="M 18.3125 70.21875 
L 18.3125 54.6875 
L 36.8125 54.6875 
L 36.8125 47.703125 
L 18.3125 47.703125 
L 18.3125 18.015625 
Q 18.3125 11.328125 20.140625 9.421875 
Q 21.96875 7.515625 27.59375 7.515625 
L 36.8125 7.515625 
L 36.8125 0 
L 27.59375 0 
Q 17.1875 0 13.234375 3.875 
Q 9.28125 7.765625 9.28125 18.015625 
L 9.28125 47.703125 
L 2.6875 47.703125 
L 2.6875 54.6875 
L 9.28125 54.6875 
L 9.28125 70.21875 
z
" id="DejaVuSans-116"/>
      <path id="DejaVuSans-32"/>
      <path d="M 9.421875 75.984375 
L 18.40625 75.984375 
L 18.40625 0 
L 9.421875 0 
z
" id="DejaVuSans-108"/>
      <path d="M 9.421875 54.6875 
L 18.40625 54.6875 
L 18.40625 0 
L 9.421875 0 
z
M 9.421875 75.984375 
L 18.40625 75.984375 
L 18.40625 64.59375 
L 9.421875 64.59375 
z
" id="DejaVuSans-105"/>
      <path d="M 45.40625 27.984375 
Q 45.40625 37.75 41.375 43.109375 
Q 37.359375 48.484375 30.078125 48.484375 
Q 22.859375 48.484375 18.828125 43.109375 
Q 14.796875 37.75 14.796875 27.984375 
Q 14.796875 18.265625 18.828125 12.890625 
Q 22.859375 7.515625 30.078125 7.515625 
Q 37.359375 7.515625 41.375 12.890625 
Q 45.40625 18.265625 45.40625 27.984375 
z
M 54.390625 6.78125 
Q 54.390625 -7.171875 48.1875 -13.984375 
Q 42 -20.796875 29.203125 -20.796875 
Q 24.46875 -20.796875 20.265625 -20.09375 
Q 16.0625 -19.390625 12.109375 -17.921875 
L 12.109375 -9.1875 
Q 16.0625 -11.328125 19.921875 -12.34375 
Q 23.78125 -13.375 27.78125 -13.375 
Q 36.625 -13.375 41.015625 -8.765625 
Q 45.40625 -4.15625 45.40625 5.171875 
L 45.40625 9.625 
Q 42.625 4.78125 38.28125 2.390625 
Q 33.9375 0 27.875 0 
Q 17.828125 0 11.671875 7.65625 
Q 5.515625 15.328125 5.515625 27.984375 
Q 5.515625 40.671875 11.671875 48.328125 
Q 17.828125 56 27.875 56 
Q 33.9375 56 38.28125 53.609375 
Q 42.625 51.21875 45.40625 46.390625 
L 45.40625 54.6875 
L 54.390625 54.6875 
z
" id="DejaVuSans-103"/>
      <path d="M 54.890625 33.015625 
L 54.890625 0 
L 45.90625 0 
L 45.90625 32.71875 
Q 45.90625 40.484375 42.875 44.328125 
Q 39.84375 48.1875 33.796875 48.1875 
Q 26.515625 48.1875 22.3125 43.546875 
Q 18.109375 38.921875 18.109375 30.90625 
L 18.109375 0 
L 9.078125 0 
L 9.078125 75.984375 
L 18.109375 75.984375 
L 18.109375 46.1875 
Q 21.34375 51.125 25.703125 53.5625 
Q 30.078125 56 35.796875 56 
Q 45.21875 56 50.046875 50.171875 
Q 54.890625 44.34375 54.890625 33.015625 
z
" id="DejaVuSans-104"/>
      <path d="M 11.71875 12.40625 
L 22.015625 12.40625 
L 22.015625 0 
L 11.71875 0 
z
M 11.71875 51.703125 
L 22.015625 51.703125 
L 22.015625 39.3125 
L 11.71875 39.3125 
z
" id="DejaVuSans-58"/>
      <path d="M 44.28125 53.078125 
L 44.28125 44.578125 
Q 40.484375 46.53125 36.375 47.5 
Q 32.28125 48.484375 27.875 48.484375 
Q 21.1875 48.484375 17.84375 46.4375 
Q 14.5 44.390625 14.5 40.28125 
Q 14.5 37.15625 16.890625 35.375 
Q 19.28125 33.59375 26.515625 31.984375 
L 29.59375 31.296875 
Q 39.15625 29.25 43.1875 25.515625 
Q 47.21875 21.78125 47.21875 15.09375 
Q 47.21875 7.46875 41.1875 3.015625 
Q 35.15625 -1.421875 24.609375 -1.421875 
Q 20.21875 -1.421875 15.453125 -0.5625 
Q 10.6875 0.296875 5.421875 2 
L 5.421875 11.28125 
Q 10.40625 8.6875 15.234375 7.390625 
Q 20.0625 6.109375 24.8125 6.109375 
Q 31.15625 6.109375 34.5625 8.28125 
Q 37.984375 10.453125 37.984375 14.40625 
Q 37.984375 18.0625 35.515625 20.015625 
Q 33.0625 21.96875 24.703125 23.78125 
L 21.578125 24.515625 
Q 13.234375 26.265625 9.515625 29.90625 
Q 5.8125 33.546875 5.8125 39.890625 
Q 5.8125 47.609375 11.28125 51.796875 
Q 16.75 56 26.8125 56 
Q 31.78125 56 36.171875 55.265625 
Q 40.578125 54.546875 44.28125 53.078125 
z
" id="DejaVuSans-115"/>
      <path d="M 14.796875 27.296875 
Q 14.796875 17.390625 18.875 11.75 
Q 22.953125 6.109375 30.078125 6.109375 
Q 37.203125 6.109375 41.296875 11.75 
Q 45.40625 17.390625 45.40625 27.296875 
Q 45.40625 37.203125 41.296875 42.84375 
Q 37.203125 48.484375 30.078125 48.484375 
Q 22.953125 48.484375 18.875 42.84375 
Q 14.796875 37.203125 14.796875 27.296875 
z
M 45.40625 8.203125 
Q 42.578125 3.328125 38.25 0.953125 
Q 33.9375 -1.421875 27.875 -1.421875 
Q 17.96875 -1.421875 11.734375 6.484375 
Q 5.515625 14.40625 5.515625 27.296875 
Q 5.515625 40.1875 11.734375 48.09375 
Q 17.96875 56 27.875 56 
Q 33.9375 56 38.25 53.625 
Q 42.578125 51.265625 45.40625 46.390625 
L 45.40625 54.6875 
L 54.390625 54.6875 
L 54.390625 -20.796875 
L 45.40625 -20.796875 
z
" id="DejaVuSans-113"/>
      <path d="M 8.5 21.578125 
L 8.5 54.6875 
L 17.484375 54.6875 
L 17.484375 21.921875 
Q 17.484375 14.15625 20.5 10.265625 
Q 23.53125 6.390625 29.59375 6.390625 
Q 36.859375 6.390625 41.078125 11.03125 
Q 45.3125 15.671875 45.3125 23.6875 
L 45.3125 54.6875 
L 54.296875 54.6875 
L 54.296875 0 
L 45.3125 0 
L 45.3125 8.40625 
Q 42.046875 3.421875 37.71875 1 
Q 33.40625 -1.421875 27.6875 -1.421875 
Q 18.265625 -1.421875 13.375 4.4375 
Q 8.5 10.296875 8.5 21.578125 
z
M 31.109375 56 
z
" id="DejaVuSans-117"/>
      <path d="M 34.28125 27.484375 
Q 23.390625 27.484375 19.1875 25 
Q 14.984375 22.515625 14.984375 16.5 
Q 14.984375 11.71875 18.140625 8.90625 
Q 21.296875 6.109375 26.703125 6.109375 
Q 34.1875 6.109375 38.703125 11.40625 
Q 43.21875 16.703125 43.21875 25.484375 
L 43.21875 27.484375 
z
M 52.203125 31.203125 
L 52.203125 0 
L 43.21875 0 
L 43.21875 8.296875 
Q 40.140625 3.328125 35.546875 0.953125 
Q 30.953125 -1.421875 24.3125 -1.421875 
Q 15.921875 -1.421875 10.953125 3.296875 
Q 6 8.015625 6 15.921875 
Q 6 25.140625 12.171875 29.828125 
Q 18.359375 34.515625 30.609375 34.515625 
L 43.21875 34.515625 
L 43.21875 35.40625 
Q 43.21875 41.609375 39.140625 45 
Q 35.0625 48.390625 27.6875 48.390625 
Q 23 48.390625 18.546875 47.265625 
Q 14.109375 46.140625 10.015625 43.890625 
L 10.015625 52.203125 
Q 14.9375 54.109375 19.578125 55.046875 
Q 24.21875 56 28.609375 56 
Q 40.484375 56 46.34375 49.84375 
Q 52.203125 43.703125 52.203125 31.203125 
z
" id="DejaVuSans-97"/>
      <path d="M 45.40625 46.390625 
L 45.40625 75.984375 
L 54.390625 75.984375 
L 54.390625 0 
L 45.40625 0 
L 45.40625 8.203125 
Q 42.578125 3.328125 38.25 0.953125 
Q 33.9375 -1.421875 27.875 -1.421875 
Q 17.96875 -1.421875 11.734375 6.484375 
Q 5.515625 14.40625 5.515625 27.296875 
Q 5.515625 40.1875 11.734375 48.09375 
Q 17.96875 56 27.875 56 
Q 33.9375 56 38.25 53.625 
Q 42.578125 51.265625 45.40625 46.390625 
z
M 14.796875 27.296875 
Q 14.796875 17.390625 18.875 11.75 
Q 22.953125 6.109375 30.078125 6.109375 
Q 37.203125 6.109375 41.296875 11.75 
Q 45.40625 17.390625 45.40625 27.296875 
Q 45.40625 37.203125 41.296875 42.84375 
Q 37.203125 48.484375 30.078125 48.484375 
Q 22.953125 48.484375 18.875 42.84375 
Q 14.796875 37.203125 14.796875 27.296875 
z
" id="DejaVuSans-100"/>
      <path d="M 5.515625 54.6875 
L 48.1875 54.6875 
L 48.1875 46.484375 
L 14.40625 7.171875 
L 48.1875 7.171875 
L 48.1875 0 
L 4.296875 0 
L 4.296875 8.203125 
L 38.09375 47.515625 
L 5.515625 47.515625 
z
" id="DejaVuSans-122"/>
      <path d="M 52 44.1875 
Q 55.375 50.25 60.0625 53.125 
Q 64.75 56 71.09375 56 
Q 79.640625 56 84.28125 50.015625 
Q 88.921875 44.046875 88.921875 33.015625 
L 88.921875 0 
L 79.890625 0 
L 79.890625 32.71875 
Q 79.890625 40.578125 77.09375 44.375 
Q 74.3125 48.1875 68.609375 48.1875 
Q 61.625 48.1875 57.5625 43.546875 
Q 53.515625 38.921875 53.515625 30.90625 
L 53.515625 0 
L 44.484375 0 
L 44.484375 32.71875 
Q 44.484375 40.625 41.703125 44.40625 
Q 38.921875 48.1875 33.109375 48.1875 
Q 26.21875 48.1875 22.15625 43.53125 
Q 18.109375 38.875 18.109375 30.90625 
L 18.109375 0 
L 9.078125 0 
L 9.078125 54.6875 
L 18.109375 54.6875 
L 18.109375 46.1875 
Q 21.1875 51.21875 25.484375 53.609375 
Q 29.78125 56 35.6875 56 
Q 41.65625 56 45.828125 52.96875 
Q 50 49.953125 52 44.1875 
z
" id="DejaVuSans-109"/>
     </defs>
     <use xlink:href="#DejaVuSans-98"/>
     <use x="63.476562" xlink:href="#DejaVuSans-101"/>
     <use x="125" xlink:href="#DejaVuSans-110"/>
     <use x="188.378906" xlink:href="#DejaVuSans-116"/>
     <use x="227.587891" xlink:href="#DejaVuSans-32"/>
     <use x="259.375" xlink:href="#DejaVuSans-108"/>
     <use x="287.158203" xlink:href="#DejaVuSans-105"/>
     <use x="314.941406" xlink:href="#DejaVuSans-103"/>
     <use x="378.417969" xlink:href="#DejaVuSans-104"/>
     <use x="441.796875" xlink:href="#DejaVuSans-116"/>
     <use x="481.005859" xlink:href="#DejaVuSans-58"/>
     <use x="514.697266" xlink:href="#DejaVuSans-32"/>
     <use x="546.484375" xlink:href="#DejaVuSans-115"/>
     <use x="598.583984" xlink:href="#DejaVuSans-113"/>
     <use x="662.060547" xlink:href="#DejaVuSans-117"/>
     <use x="725.439453" xlink:href="#DejaVuSans-97"/>
     <use x="786.71875" xlink:href="#DejaVuSans-115"/>
     <use x="838.818359" xlink:href="#DejaVuSans-104"/>
     <use x="902.197266" xlink:href="#DejaVuSans-101"/>
     <use x="963.720703" xlink:href="#DejaVuSans-100"/>
     <use x="1027.197266" xlink:href="#DejaVuSans-32"/>
     <use x="1058.984375" xlink:href="#DejaVuSans-97"/>
     <use x="1120.263672" xlink:href="#DejaVuSans-122"/>
     <use x="1172.753906" xlink:href="#DejaVuSans-105"/>
     <use x="1200.537109" xlink:href="#DejaVuSans-109"/>
     <use x="1297.949219" xlink:href="#DejaVuSans-117"/>
     <use x="1361.328125" xlink:href="#DejaVuSans-116"/>
     <use x="1400.537109" xlink:href="#DejaVuSans-104"/>
     <use x="1463.916016" xlink:href="#DejaVuSans-97"/>
     <use x="1525.195312" xlink:href="#DejaVuSans-108"/>
     <use x="1552.978516" xlink:href="#DejaVuSans-32"/>
     <use x="1584.765625" xlink:href="#DejaVuSans-108"/>
     <use x="1612.548828" xlink:href="#DejaVuSans-101"/>
     <use x="1674.072266" xlink:href="#DejaVuSans-110"/>
     <use x="1737.451172" xlink:href="#DejaVuSans-103"/>
     <use x="1800.927734" xlink:href="#DejaVuSans-116"/>
     <use x="1840.136719" xlink:href="#DejaVuSans-104"/>
    </g>
   </g>
  </g>
 </g>
 <defs>
  <clipPath id="pef82d94c77">
   <rect height="217.44" width="217.44" x="41.667187" y="22.318125"/>
  </clipPath>
 </defs>
</svg>
