<?xml version="1.0" encoding="utf-8" standalone="no"?>
<!DOCTYPE svg PUBLIC "-//W3C//DTD SVG 1.1//EN"
  "http://www.w3.org/Graphics/SVG/1.1/DTD/svg11.dtd">
<svg xmlns:xlink="http://www.w3.org/1999/xlink" width="186.704104pt" height="280.512pt" viewBox="0 0 186.704104 280.512" xmlns="http://www.w3.org/2000/svg" version="1.1">
 <metadata>
  <rdf:RDF xmlns:dc="http://purl.org/dc/elements/1.1/" xmlns:cc="http://creativecommons.org/ns#" xmlns:rdf="http://www.w3.org/1999/02/22-rdf-syntax-ns#">
   <cc:Work>
    <dc:type rdf:resource="http://purl.org/dc/dcmitype/StillImage"/>
    <dc:date>2024-02-25T23:52:32.476917</dc:date>
    <dc:format>image/svg+xml</dc:format>
    <dc:creator>
     <cc:Agent>
      <dc:title>Matplotlib v3.8.2, https://matplotlib.org/</dc:title>
     </cc:Agent>
    </dc:creator>
   </cc:Work>
  </rdf:RDF>
 </metadata>
 <defs>
  <style type="text/css">*{stroke-linejoin: round; stroke-linecap: butt}</style>
 </defs>
 <g id="figure_1">
  <g id="axes_1">
   <g id="patch_1">
    <path d="M 172.513346 101.007896 
L 169.017968 103.279892 
L 171.464733 101.009644 
L 7.2 101.009644 
L 7.2 101.006149 
L 171.464733 101.006149 
L 169.017968 98.7359 
z
" clip-path="url(#p193305eaa8)" style="fill: #1f77b4; stroke: #000000; stroke-linejoin: miter"/>
   </g>
   <g id="patch_2">
    <path d="M 93.352052 14.190757 
L 95.624048 17.686136 
L 93.3538 15.239371 
L 93.3538 194.815793 
L 93.350304 194.815793 
L 93.350304 15.239371 
L 91.080056 17.686136 
z
" clip-path="url(#p193305eaa8)" style="fill: #1f77b4; stroke: #000000; stroke-linejoin: miter"/>
   </g>
   <g id="PathCollection_1">
    <defs>
     <path id="ma59a357d47" d="M 0 2.236068 
C 0.593012 2.236068 1.161816 2.000462 1.581139 1.581139 
C 2.000462 1.161816 2.236068 0.593012 2.236068 0 
C 2.236068 -0.593012 2.000462 -1.161816 1.581139 -1.581139 
C 1.161816 -2.000462 0.593012 -2.236068 0 -2.236068 
C -0.593012 -2.236068 -1.161816 -2.000462 -1.581139 -1.581139 
C -2.000462 -1.161816 -2.236068 -0.593012 -2.236068 0 
C -2.236068 0.593012 -2.000462 1.161816 -1.581139 1.581139 
C -1.161816 2.000462 -0.593012 2.236068 0 2.236068 
z
" style="stroke: #808080; stroke-opacity: 0.4"/>
    </defs>
    <g clip-path="url(#p193305eaa8)">
     <use xlink:href="#ma59a357d47" x="93.352052" y="173.178434" style="fill: #808080; fill-opacity: 0.4; stroke: #808080; stroke-opacity: 0.4"/>
    </g>
   </g>
   <g id="PathCollection_2">
    <defs>
     <path id="m40664c6038" d="M 0 2.236068 
C 0.593012 2.236068 1.161816 2.000462 1.581139 1.581139 
C 2.000462 1.161816 2.236068 0.593012 2.236068 0 
C 2.236068 -0.593012 2.000462 -1.161816 1.581139 -1.581139 
C 1.161816 -2.000462 0.593012 -2.236068 0 -2.236068 
C -0.593012 -2.236068 -1.161816 -2.000462 -1.581139 -1.581139 
C -2.000462 -1.161816 -2.236068 -0.593012 -2.236068 0 
C -2.236068 0.593012 -2.000462 1.161816 -1.581139 1.581139 
C -1.161816 2.000462 -0.593012 2.236068 0 2.236068 
z
" style="stroke: #000000"/>
    </defs>
    <g clip-path="url(#p193305eaa8)">
     <use xlink:href="#m40664c6038" x="93.352052" y="101.007896" style="stroke: #000000"/>
    </g>
   </g>
   <g id="Quiver_1">
    <path d="M 96.133818 26.210897 
L 96.269383 20.009221 
L 94.53734 20.402222 
L 96.784766 16.142718 
L 98.843913 20.496362 
L 97.130698 20.028049 
L 96.995133 26.229725 
L 96.133818 26.210897 
" clip-path="url(#p193305eaa8)" style="fill: #ff00ff"/>
    <path d="M 102.43772 29.067306 
L 102.846498 22.877632 
L 101.098816 23.193911 
L 103.531799 19.037603 
L 105.397055 23.477774 
L 103.706146 22.934405 
L 103.297368 29.124079 
L 102.43772 29.067306 
" clip-path="url(#p193305eaa8)" style="fill: #fb04ff"/>
    <path d="M 108.381427 34.693711 
L 109.069777 28.528864 
L 107.309577 28.765762 
L 109.928081 24.723766 
L 111.590576 29.243767 
L 109.925977 28.624465 
L 109.237627 34.789312 
L 108.381427 34.693711 
" clip-path="url(#p193305eaa8)" style="fill: #f20dff"/>
    <path d="M 113.738333 42.883573 
L 114.717242 36.758142 
L 112.947814 36.911595 
L 115.754402 32.997855 
L 117.201441 37.59137 
L 115.567968 36.894097 
L 114.589059 43.019528 
L 113.738333 42.883573 
" clip-path="url(#p193305eaa8)" style="fill: #e51aff"/>
    <path d="M 118.302334 53.336223 
L 119.588038 47.267769 
L 117.813132 47.332047 
L 120.812983 43.564396 
L 122.027193 48.224868 
L 120.430851 47.446334 
L 119.145146 53.514787 
L 118.302334 53.336223 
" clip-path="url(#p193305eaa8)" style="fill: #d42bff"/>
    <path d="M 121.894903 65.667216 
L 123.509828 59.677961 
L 121.734058 59.645292 
L 124.935028 56.046946 
L 125.893123 60.76673 
L 124.341641 59.902248 
L 122.726716 65.891504 
L 121.894903 65.667216 
" clip-path="url(#p193305eaa8)" style="fill: #c03fff"/>
    <path d="M 124.371119 79.421373 
L 126.345206 73.540714 
L 124.57466 73.40074 
L 127.987334 70.002512 
L 128.658312 74.771588 
L 127.161936 73.814884 
L 125.187849 79.695542 
L 124.371119 79.421373 
" clip-path="url(#p193305eaa8)" style="fill: #aa55ff"/>
    <path d="M 125.624423 94.087799 
L 127.996918 88.356269 
L 126.240129 88.095274 
L 129.877686 84.938935 
L 130.220223 89.742785 
L 128.792937 88.685771 
L 126.420442 94.417301 
L 125.624423 94.087799 
" clip-path="url(#p193305eaa8)" style="fill: #926dff"/>
    <path d="M 125.590059 109.11592 
L 128.411724 103.591667 
L 126.681319 103.191514 
L 130.558821 100.335069 
L 130.517476 105.150937 
L 129.178955 103.983552 
L 126.35729 109.507805 
L 125.590059 109.11592 
" clip-path="url(#p193305eaa8)" style="fill: #7986ff"/>
    <path d="M 124.247387 123.9311 
L 127.582775 118.700961 
L 125.898391 118.137688 
L 130.030513 115.663852 
L 129.530309 120.453851 
L 128.309158 119.164194 
L 124.97377 124.394333 
L 124.247387 123.9311 
" clip-path="url(#p193305eaa8)" style="fill: #619eff"/>
    <path d="M 121.622133 137.947693 
L 125.55033 133.146815 
L 123.944015 132.389069 
L 128.338753 130.41915 
L 127.277846 135.116891 
L 126.217096 133.692379 
L 122.288899 138.493258 
L 121.622133 137.947693 
" clip-path="url(#p193305eaa8)" style="fill: #4ab5ff"/>
    <path d="M 117.792024 150.576172 
L 122.400314 146.423724 
L 120.926886 145.432042 
L 125.568753 144.148542 
L 123.810433 148.632135 
L 122.977024 147.063743 
L 118.368733 151.216191 
L 117.792024 150.576172 
" clip-path="url(#p193305eaa8)" style="fill: #35caff"/>
    <path d="M 112.906739 161.220242 
L 118.258689 158.084034 
L 117.015899 156.815216 
L 121.821329 156.495621 
L 119.193747 160.531722 
L 118.694258 158.827335 
L 113.342309 161.963543 
L 112.906739 161.220242 
" clip-path="url(#p193305eaa8)" style="fill: #22ddff"/>
    <path d="M 107.254962 169.268704 
L 113.27392 167.768268 
L 112.439178 166.200585 
L 117.139835 167.248496 
L 113.481112 170.380276 
L 113.482307 168.604206 
L 107.463349 170.104642 
L 107.254962 169.268704 
" clip-path="url(#p193305eaa8)" style="fill: #13ecff"/>
    <path d="M 101.452897 174.159629 
L 107.563085 175.229563 
L 107.435975 173.458047 
L 111.307526 176.322553 
L 106.692991 177.70109 
L 107.414489 176.078172 
L 101.3043 175.008238 
L 101.452897 174.159629 
" clip-path="url(#p193305eaa8)" style="fill: #08f7ff"/>
    <path d="M 96.694624 175.891045 
L 101.095939 180.262268 
L 102.00449 178.736175 
L 103.543121 183.299826 
L 98.969022 181.79254 
L 100.488846 180.873541 
L 96.087531 176.502318 
L 96.694624 175.891045 
" clip-path="url(#p193305eaa8)" style="fill: #01feff"/>
    <path d="M 93.782812 176.157382 
L 93.782812 182.36054 
L 95.505853 181.92978 
L 93.352052 186.237382 
L 91.198251 181.92978 
L 92.921292 182.36054 
L 92.921292 176.157382 
L 93.782812 176.157382 
" clip-path="url(#p193305eaa8)" style="fill: #00ffff"/>
    <path d="M 90.616573 176.502318 
L 86.215258 180.873541 
L 87.735082 181.79254 
L 83.160982 183.299826 
L 84.699613 178.736175 
L 85.608164 180.262268 
L 90.009479 175.891045 
L 90.616573 176.502318 
" clip-path="url(#p193305eaa8)" style="fill: #01feff"/>
    <path d="M 85.399804 175.008238 
L 79.289615 176.078172 
L 80.011113 177.70109 
L 75.396578 176.322553 
L 79.268129 173.458047 
L 79.141018 175.229563 
L 85.251207 174.159629 
L 85.399804 175.008238 
" clip-path="url(#p193305eaa8)" style="fill: #08f7ff"/>
    <path d="M 79.240755 170.104642 
L 73.221796 168.604206 
L 73.222992 170.380276 
L 69.564268 167.248496 
L 74.264926 166.200585 
L 73.430183 167.768268 
L 79.449141 169.268704 
L 79.240755 170.104642 
" clip-path="url(#p193305eaa8)" style="fill: #13ecff"/>
    <path d="M 73.361795 161.963543 
L 68.009845 158.827335 
L 67.510357 160.531722 
L 64.882775 156.495621 
L 69.688205 156.815216 
L 68.445415 158.084034 
L 73.797365 161.220242 
L 73.361795 161.963543 
" clip-path="url(#p193305eaa8)" style="fill: #22ddff"/>
    <path d="M 68.335371 151.216191 
L 63.72708 147.063743 
L 62.893671 148.632135 
L 61.135351 144.148542 
L 65.777217 145.432042 
L 64.303789 146.423724 
L 68.91208 150.576172 
L 68.335371 151.216191 
" clip-path="url(#p193305eaa8)" style="fill: #35caff"/>
    <path d="M 64.415205 138.493258 
L 60.487008 133.692379 
L 59.426258 135.116891 
L 58.365351 130.41915 
L 62.760088 132.389069 
L 61.153774 133.146815 
L 65.081971 137.947693 
L 64.415205 138.493258 
" clip-path="url(#p193305eaa8)" style="fill: #4ab5ff"/>
    <path d="M 61.730333 124.394333 
L 58.394945 119.164194 
L 57.173795 120.453851 
L 56.67359 115.663852 
L 60.805713 118.137688 
L 59.121329 118.700961 
L 62.456717 123.9311 
L 61.730333 124.394333 
" clip-path="url(#p193305eaa8)" style="fill: #619eff"/>
    <path d="M 60.346814 109.507805 
L 57.525148 103.983552 
L 56.186628 105.150937 
L 56.145283 100.335069 
L 60.022785 103.191514 
L 58.29238 103.591667 
L 61.114045 109.11592 
L 60.346814 109.507805 
" clip-path="url(#p193305eaa8)" style="fill: #7986ff"/>
    <path d="M 60.283662 94.417301 
L 57.911167 88.685771 
L 56.48388 89.742785 
L 56.826417 84.938935 
L 60.463975 88.095274 
L 58.707186 88.356269 
L 61.079681 94.087799 
L 60.283662 94.417301 
" clip-path="url(#p193305eaa8)" style="fill: #926dff"/>
    <path d="M 61.516255 79.695542 
L 59.542168 73.814884 
L 58.045791 74.771588 
L 58.71677 70.002512 
L 62.129444 73.40074 
L 60.358898 73.540714 
L 62.332985 79.421373 
L 61.516255 79.695542 
" clip-path="url(#p193305eaa8)" style="fill: #aa55ff"/>
    <path d="M 63.977387 65.891504 
L 62.362463 59.902248 
L 60.810981 60.76673 
L 61.769076 56.046946 
L 64.970045 59.645292 
L 63.194276 59.677961 
L 64.8092 65.667216 
L 63.977387 65.891504 
" clip-path="url(#p193305eaa8)" style="fill: #c03fff"/>
    <path d="M 67.558958 53.514787 
L 66.273253 47.446334 
L 64.676911 48.224868 
L 65.891121 43.564396 
L 68.890972 47.332047 
L 67.116065 47.267769 
L 68.40177 53.336223 
L 67.558958 53.514787 
" clip-path="url(#p193305eaa8)" style="fill: #d42bff"/>
    <path d="M 72.115045 43.019528 
L 71.136136 36.894097 
L 69.502663 37.59137 
L 70.949701 32.997855 
L 73.75629 36.911595 
L 71.986862 36.758142 
L 72.965771 42.883573 
L 72.115045 43.019528 
" clip-path="url(#p193305eaa8)" style="fill: #e51aff"/>
    <path d="M 77.466477 34.789312 
L 76.778127 28.624465 
L 75.113528 29.243767 
L 76.776023 24.723766 
L 79.394527 28.765762 
L 77.634327 28.528864 
L 78.322676 34.693711 
L 77.466477 34.789312 
" clip-path="url(#p193305eaa8)" style="fill: #f20dff"/>
    <path d="M 83.406736 29.124079 
L 82.997958 22.934405 
L 81.307049 23.477774 
L 83.172305 19.037603 
L 85.605288 23.193911 
L 83.857606 22.877632 
L 84.266384 29.067306 
L 83.406736 29.124079 
" clip-path="url(#p193305eaa8)" style="fill: #fb04ff"/>
    <path d="M 89.708971 26.229725 
L 89.573406 20.028049 
L 87.86019 20.496362 
L 89.919338 16.142718 
L 92.166764 20.402222 
L 90.434721 20.009221 
L 90.570286 26.210897 
L 89.708971 26.229725 
" clip-path="url(#p193305eaa8)" style="fill: #ff00ff"/>
   </g>
   <g id="PathCollection_3">
    <g clip-path="url(#p193305eaa8)">
     <use xlink:href="#ma59a357d47" x="93.352052" y="173.178434" style="fill: #808080; fill-opacity: 0.4; stroke: #808080; stroke-opacity: 0.4"/>
    </g>
   </g>
   <g id="PathCollection_4">
    <g clip-path="url(#p193305eaa8)">
     <use xlink:href="#m40664c6038" x="93.352052" y="101.007896" style="stroke: #000000"/>
    </g>
   </g>
   <g id="Quiver_2">
    <path d="M 96.133818 26.210897 
L 96.269383 20.009221 
L 94.53734 20.402222 
L 96.784766 16.142718 
L 98.843913 20.496362 
L 97.130698 20.028049 
L 96.995133 26.229725 
L 96.133818 26.210897 
" clip-path="url(#p193305eaa8)" style="fill: #ff00ff"/>
    <path d="M 102.43772 29.067306 
L 102.846498 22.877632 
L 101.098816 23.193911 
L 103.531799 19.037603 
L 105.397055 23.477774 
L 103.706146 22.934405 
L 103.297368 29.124079 
L 102.43772 29.067306 
" clip-path="url(#p193305eaa8)" style="fill: #fb04ff"/>
    <path d="M 108.381427 34.693711 
L 109.069777 28.528864 
L 107.309577 28.765762 
L 109.928081 24.723766 
L 111.590576 29.243767 
L 109.925977 28.624465 
L 109.237627 34.789312 
L 108.381427 34.693711 
" clip-path="url(#p193305eaa8)" style="fill: #f20dff"/>
    <path d="M 113.738333 42.883573 
L 114.717242 36.758142 
L 112.947814 36.911595 
L 115.754402 32.997855 
L 117.201441 37.59137 
L 115.567968 36.894097 
L 114.589059 43.019528 
L 113.738333 42.883573 
" clip-path="url(#p193305eaa8)" style="fill: #e51aff"/>
    <path d="M 118.302334 53.336223 
L 119.588038 47.267769 
L 117.813132 47.332047 
L 120.812983 43.564396 
L 122.027193 48.224868 
L 120.430851 47.446334 
L 119.145146 53.514787 
L 118.302334 53.336223 
" clip-path="url(#p193305eaa8)" style="fill: #d42bff"/>
    <path d="M 121.894903 65.667216 
L 123.509828 59.677961 
L 121.734058 59.645292 
L 124.935028 56.046946 
L 125.893123 60.76673 
L 124.341641 59.902248 
L 122.726716 65.891504 
L 121.894903 65.667216 
" clip-path="url(#p193305eaa8)" style="fill: #c03fff"/>
    <path d="M 124.371119 79.421373 
L 126.345206 73.540714 
L 124.57466 73.40074 
L 127.987334 70.002512 
L 128.658312 74.771588 
L 127.161936 73.814884 
L 125.187849 79.695542 
L 124.371119 79.421373 
" clip-path="url(#p193305eaa8)" style="fill: #aa55ff"/>
    <path d="M 125.624423 94.087799 
L 127.996918 88.356269 
L 126.240129 88.095274 
L 129.877686 84.938935 
L 130.220223 89.742785 
L 128.792937 88.685771 
L 126.420442 94.417301 
L 125.624423 94.087799 
" clip-path="url(#p193305eaa8)" style="fill: #926dff"/>
    <path d="M 125.590059 109.11592 
L 128.411724 103.591667 
L 126.681319 103.191514 
L 130.558821 100.335069 
L 130.517476 105.150937 
L 129.178955 103.983552 
L 126.35729 109.507805 
L 125.590059 109.11592 
" clip-path="url(#p193305eaa8)" style="fill: #7986ff"/>
    <path d="M 124.247387 123.9311 
L 127.582775 118.700961 
L 125.898391 118.137688 
L 130.030513 115.663852 
L 129.530309 120.453851 
L 128.309158 119.164194 
L 124.97377 124.394333 
L 124.247387 123.9311 
" clip-path="url(#p193305eaa8)" style="fill: #619eff"/>
    <path d="M 121.622133 137.947693 
L 125.55033 133.146815 
L 123.944015 132.389069 
L 128.338753 130.41915 
L 127.277846 135.116891 
L 126.217096 133.692379 
L 122.288899 138.493258 
L 121.622133 137.947693 
" clip-path="url(#p193305eaa8)" style="fill: #4ab5ff"/>
    <path d="M 117.792024 150.576172 
L 122.400314 146.423724 
L 120.926886 145.432042 
L 125.568753 144.148542 
L 123.810433 148.632135 
L 122.977024 147.063743 
L 118.368733 151.216191 
L 117.792024 150.576172 
" clip-path="url(#p193305eaa8)" style="fill: #35caff"/>
    <path d="M 112.906739 161.220242 
L 118.258689 158.084034 
L 117.015899 156.815216 
L 121.821329 156.495621 
L 119.193747 160.531722 
L 118.694258 158.827335 
L 113.342309 161.963543 
L 112.906739 161.220242 
" clip-path="url(#p193305eaa8)" style="fill: #22ddff"/>
    <path d="M 107.254962 169.268704 
L 113.27392 167.768268 
L 112.439178 166.200585 
L 117.139835 167.248496 
L 113.481112 170.380276 
L 113.482307 168.604206 
L 107.463349 170.104642 
L 107.254962 169.268704 
" clip-path="url(#p193305eaa8)" style="fill: #13ecff"/>
    <path d="M 101.452897 174.159629 
L 107.563085 175.229563 
L 107.435975 173.458047 
L 111.307526 176.322553 
L 106.692991 177.70109 
L 107.414489 176.078172 
L 101.3043 175.008238 
L 101.452897 174.159629 
" clip-path="url(#p193305eaa8)" style="fill: #08f7ff"/>
    <path d="M 96.694624 175.891045 
L 101.095939 180.262268 
L 102.00449 178.736175 
L 103.543121 183.299826 
L 98.969022 181.79254 
L 100.488846 180.873541 
L 96.087531 176.502318 
L 96.694624 175.891045 
" clip-path="url(#p193305eaa8)" style="fill: #01feff"/>
    <path d="M 93.782812 176.157382 
L 93.782812 182.36054 
L 95.505853 181.92978 
L 93.352052 186.237382 
L 91.198251 181.92978 
L 92.921292 182.36054 
L 92.921292 176.157382 
L 93.782812 176.157382 
" clip-path="url(#p193305eaa8)" style="fill: #00ffff"/>
    <path d="M 90.616573 176.502318 
L 86.215258 180.873541 
L 87.735082 181.79254 
L 83.160982 183.299826 
L 84.699613 178.736175 
L 85.608164 180.262268 
L 90.009479 175.891045 
L 90.616573 176.502318 
" clip-path="url(#p193305eaa8)" style="fill: #01feff"/>
    <path d="M 85.399804 175.008238 
L 79.289615 176.078172 
L 80.011113 177.70109 
L 75.396578 176.322553 
L 79.268129 173.458047 
L 79.141018 175.229563 
L 85.251207 174.159629 
L 85.399804 175.008238 
" clip-path="url(#p193305eaa8)" style="fill: #08f7ff"/>
    <path d="M 79.240755 170.104642 
L 73.221796 168.604206 
L 73.222992 170.380276 
L 69.564268 167.248496 
L 74.264926 166.200585 
L 73.430183 167.768268 
L 79.449141 169.268704 
L 79.240755 170.104642 
" clip-path="url(#p193305eaa8)" style="fill: #13ecff"/>
    <path d="M 73.361795 161.963543 
L 68.009845 158.827335 
L 67.510357 160.531722 
L 64.882775 156.495621 
L 69.688205 156.815216 
L 68.445415 158.084034 
L 73.797365 161.220242 
L 73.361795 161.963543 
" clip-path="url(#p193305eaa8)" style="fill: #22ddff"/>
    <path d="M 68.335371 151.216191 
L 63.72708 147.063743 
L 62.893671 148.632135 
L 61.135351 144.148542 
L 65.777217 145.432042 
L 64.303789 146.423724 
L 68.91208 150.576172 
L 68.335371 151.216191 
" clip-path="url(#p193305eaa8)" style="fill: #35caff"/>
    <path d="M 64.415205 138.493258 
L 60.487008 133.692379 
L 59.426258 135.116891 
L 58.365351 130.41915 
L 62.760088 132.389069 
L 61.153774 133.146815 
L 65.081971 137.947693 
L 64.415205 138.493258 
" clip-path="url(#p193305eaa8)" style="fill: #4ab5ff"/>
    <path d="M 61.730333 124.394333 
L 58.394945 119.164194 
L 57.173795 120.453851 
L 56.67359 115.663852 
L 60.805713 118.137688 
L 59.121329 118.700961 
L 62.456717 123.9311 
L 61.730333 124.394333 
" clip-path="url(#p193305eaa8)" style="fill: #619eff"/>
    <path d="M 60.346814 109.507805 
L 57.525148 103.983552 
L 56.186628 105.150937 
L 56.145283 100.335069 
L 60.022785 103.191514 
L 58.29238 103.591667 
L 61.114045 109.11592 
L 60.346814 109.507805 
" clip-path="url(#p193305eaa8)" style="fill: #7986ff"/>
    <path d="M 60.283662 94.417301 
L 57.911167 88.685771 
L 56.48388 89.742785 
L 56.826417 84.938935 
L 60.463975 88.095274 
L 58.707186 88.356269 
L 61.079681 94.087799 
L 60.283662 94.417301 
" clip-path="url(#p193305eaa8)" style="fill: #926dff"/>
    <path d="M 61.516255 79.695542 
L 59.542168 73.814884 
L 58.045791 74.771588 
L 58.71677 70.002512 
L 62.129444 73.40074 
L 60.358898 73.540714 
L 62.332985 79.421373 
L 61.516255 79.695542 
" clip-path="url(#p193305eaa8)" style="fill: #aa55ff"/>
    <path d="M 63.977387 65.891504 
L 62.362463 59.902248 
L 60.810981 60.76673 
L 61.769076 56.046946 
L 64.970045 59.645292 
L 63.194276 59.677961 
L 64.8092 65.667216 
L 63.977387 65.891504 
" clip-path="url(#p193305eaa8)" style="fill: #c03fff"/>
    <path d="M 67.558958 53.514787 
L 66.273253 47.446334 
L 64.676911 48.224868 
L 65.891121 43.564396 
L 68.890972 47.332047 
L 67.116065 47.267769 
L 68.40177 53.336223 
L 67.558958 53.514787 
" clip-path="url(#p193305eaa8)" style="fill: #d42bff"/>
    <path d="M 72.115045 43.019528 
L 71.136136 36.894097 
L 69.502663 37.59137 
L 70.949701 32.997855 
L 73.75629 36.911595 
L 71.986862 36.758142 
L 72.965771 42.883573 
L 72.115045 43.019528 
" clip-path="url(#p193305eaa8)" style="fill: #e51aff"/>
    <path d="M 77.466477 34.789312 
L 76.778127 28.624465 
L 75.113528 29.243767 
L 76.776023 24.723766 
L 79.394527 28.765762 
L 77.634327 28.528864 
L 78.322676 34.693711 
L 77.466477 34.789312 
" clip-path="url(#p193305eaa8)" style="fill: #f20dff"/>
    <path d="M 83.406736 29.124079 
L 82.997958 22.934405 
L 81.307049 23.477774 
L 83.172305 19.037603 
L 85.605288 23.193911 
L 83.857606 22.877632 
L 84.266384 29.067306 
L 83.406736 29.124079 
" clip-path="url(#p193305eaa8)" style="fill: #fb04ff"/>
    <path d="M 89.708971 26.229725 
L 89.573406 20.028049 
L 87.86019 20.496362 
L 89.919338 16.142718 
L 92.166764 20.402222 
L 90.434721 20.009221 
L 90.570286 26.210897 
L 89.708971 26.229725 
" clip-path="url(#p193305eaa8)" style="fill: #ff00ff"/>
   </g>
   <g id="text_1">
    <!-- y' -->
    <g transform="translate(158.531832 94.017139) scale(0.1 -0.1)">
     <defs>
      <path id="DejaVuSans-79" d="M 2059 -325 
Q 1816 -950 1584 -1140 
Q 1353 -1331 966 -1331 
L 506 -1331 
L 506 -850 
L 844 -850 
Q 1081 -850 1212 -737 
Q 1344 -625 1503 -206 
L 1606 56 
L 191 3500 
L 800 3500 
L 1894 763 
L 2988 3500 
L 3597 3500 
L 2059 -325 
z
" transform="scale(0.015625)"/>
      <path id="DejaVuSans-27" d="M 1147 4666 
L 1147 2931 
L 616 2931 
L 616 4666 
L 1147 4666 
z
" transform="scale(0.015625)"/>
     </defs>
     <use xlink:href="#DejaVuSans-79"/>
     <use xlink:href="#DejaVuSans-27" x="59.179688"/>
    </g>
   </g>
   <g id="text_2">
    <!-- z' -->
    <g transform="translate(82.865916 28.172272) scale(0.1 -0.1)">
     <defs>
      <path id="DejaVuSans-7a" d="M 353 3500 
L 3084 3500 
L 3084 2975 
L 922 459 
L 3084 459 
L 3084 0 
L 275 0 
L 275 525 
L 2438 3041 
L 353 3041 
L 353 3500 
z
" transform="scale(0.015625)"/>
     </defs>
     <use xlink:href="#DejaVuSans-7a"/>
     <use xlink:href="#DejaVuSans-27" x="52.490234"/>
    </g>
   </g>
   <g id="text_3">
    <!-- t' = $- \gamma \frac{vz}{c^2}$ -->
    <g transform="translate(122.069402 29.21452) scale(0.1 -0.1)">
     <defs>
      <path id="DejaVuSans-74" d="M 1172 4494 
L 1172 3500 
L 2356 3500 
L 2356 3053 
L 1172 3053 
L 1172 1153 
Q 1172 725 1289 603 
Q 1406 481 1766 481 
L 2356 481 
L 2356 0 
L 1766 0 
Q 1100 0 847 248 
Q 594 497 594 1153 
L 594 3053 
L 172 3053 
L 172 3500 
L 594 3500 
L 594 4494 
L 1172 4494 
z
" transform="scale(0.015625)"/>
      <path id="DejaVuSans-20" transform="scale(0.015625)"/>
      <path id="DejaVuSans-3d" d="M 678 2906 
L 4684 2906 
L 4684 2381 
L 678 2381 
L 678 2906 
z
M 678 1631 
L 4684 1631 
L 4684 1100 
L 678 1100 
L 678 1631 
z
" transform="scale(0.015625)"/>
      <path id="DejaVuSans-2212" d="M 678 2272 
L 4684 2272 
L 4684 1741 
L 678 1741 
L 678 2272 
z
" transform="scale(0.015625)"/>
      <path id="DejaVuSans-Oblique-3b3" d="M 1491 2950 
L 1838 788 
L 3456 3500 
L 4066 3500 
L 1972 0 
L 1713 -1331 
L 1138 -1331 
L 1397 0 
L 988 2613 
Q 925 3006 628 3006 
L 475 3006 
L 569 3500 
L 788 3500 
Q 1403 3500 1491 2950 
z
" transform="scale(0.015625)"/>
      <path id="DejaVuSans-Oblique-76" d="M 459 3500 
L 1069 3500 
L 1581 525 
L 3256 3500 
L 3866 3500 
L 1875 0 
L 1100 0 
L 459 3500 
z
" transform="scale(0.015625)"/>
      <path id="DejaVuSans-Oblique-7a" d="M 744 3500 
L 3475 3500 
L 3372 2975 
L 738 459 
L 2913 459 
L 2822 0 
L -19 0 
L 84 525 
L 2719 3041 
L 653 3041 
L 744 3500 
z
" transform="scale(0.015625)"/>
      <path id="DejaVuSans-Oblique-63" d="M 3431 3366 
L 3316 2797 
Q 3109 2947 2876 3022 
Q 2644 3097 2394 3097 
Q 2119 3097 1870 3000 
Q 1622 2903 1453 2725 
Q 1184 2453 1037 2087 
Q 891 1722 891 1331 
Q 891 859 1127 628 
Q 1363 397 1844 397 
Q 2081 397 2348 469 
Q 2616 541 2906 684 
L 2797 116 
Q 2547 13 2283 -39 
Q 2019 -91 1741 -91 
Q 1044 -91 669 257 
Q 294 606 294 1253 
Q 294 1797 489 2255 
Q 684 2713 1069 3078 
Q 1331 3328 1684 3456 
Q 2038 3584 2456 3584 
Q 2700 3584 2940 3529 
Q 3181 3475 3431 3366 
z
" transform="scale(0.015625)"/>
      <path id="DejaVuSans-32" d="M 1228 531 
L 3431 531 
L 3431 0 
L 469 0 
L 469 531 
Q 828 903 1448 1529 
Q 2069 2156 2228 2338 
Q 2531 2678 2651 2914 
Q 2772 3150 2772 3378 
Q 2772 3750 2511 3984 
Q 2250 4219 1831 4219 
Q 1534 4219 1204 4116 
Q 875 4013 500 3803 
L 500 4441 
Q 881 4594 1212 4672 
Q 1544 4750 1819 4750 
Q 2544 4750 2975 4387 
Q 3406 4025 3406 3419 
Q 3406 3131 3298 2873 
Q 3191 2616 2906 2266 
Q 2828 2175 2409 1742 
Q 1991 1309 1228 531 
z
" transform="scale(0.015625)"/>
     </defs>
     <use xlink:href="#DejaVuSans-74" transform="translate(0 0.921875)"/>
     <use xlink:href="#DejaVuSans-27" transform="translate(39.208984 0.921875)"/>
     <use xlink:href="#DejaVuSans-20" transform="translate(66.699219 0.921875)"/>
     <use xlink:href="#DejaVuSans-3d" transform="translate(98.486328 0.921875)"/>
     <use xlink:href="#DejaVuSans-20" transform="translate(182.275391 0.921875)"/>
     <use xlink:href="#DejaVuSans-2212" transform="translate(214.0625 0.921875)"/>
     <use xlink:href="#DejaVuSans-Oblique-3b3" transform="translate(297.851562 0.921875)"/>
     <use xlink:href="#DejaVuSans-Oblique-76" transform="translate(357.03125 44.71875) scale(0.7)"/>
     <use xlink:href="#DejaVuSans-Oblique-7a" transform="translate(398.457031 44.71875) scale(0.7)"/>
     <use xlink:href="#DejaVuSans-Oblique-63" transform="translate(359.03125 -49.695312) scale(0.7)"/>
     <use xlink:href="#DejaVuSans-32" transform="translate(400.772505 -22.898438) scale(0.49)"/>
     <path d="M 357.03125 19.71875 
L 357.03125 25.96875 
L 435.200195 25.96875 
L 435.200195 19.71875 
L 357.03125 19.71875 
z
"/>
    </g>
   </g>
  </g>
 </g>
 <defs>
  <clipPath id="p193305eaa8">
   <rect x="7.2" y="7.2" width="172.304104" height="266.112"/>
  </clipPath>
 </defs>
</svg>
