<svg data-optimized="true" xmlns="http://www.w3.org/2000/svg" xmlns:xlink="http://www.w3.org/1999/xlink" width="495.36" height="374.016" viewBox="0 0 371.52 280.512"><defs><style>*{stroke-linejoin:round;stroke-linecap:butt}</style></defs><g id="figure_1"><g id="axes_1"><path id="patch_1" d="m185.76 217.67 2.42 7.258h-2.414v24.192h-.012v-24.192h-2.413z" clip-path="url(#pfcd7840b25)" style="stroke:#000;stroke-width:1.5;stroke-linejoin:miter"/><path id="patch_2" d="M185.76 140.256h.006V249.12h-.012V140.256z" clip-path="url(#pfcd7840b25)" style="stroke:#000;stroke-width:1.5;stroke-linejoin:miter"/><path id="patch_3" d="m178.918 217.367 1.768 7.443-2.403-.213-2.138 24.098-.012-.002 2.138-24.097-2.404-.213z" clip-path="url(#pfcd7840b25)" style="stroke:#000;stroke-width:1.5;stroke-linejoin:miter"/><path id="patch_4" d="M185.76 140.256h.006l-9.621 108.439-.012-.002 9.621-108.438z" clip-path="url(#pfcd7840b25)" style="stroke:#000;stroke-width:1.5;stroke-linejoin:miter"/><path id="patch_5" d="m172.13 216.461 1.103 7.57-2.375-.425-4.26 23.814-.011-.002 4.259-23.814-2.375-.425z" clip-path="url(#pfcd7840b25)" style="stroke:#000;stroke-width:1.5;stroke-linejoin:miter"/><path id="patch_6" d="m185.76 140.256.006.001-19.168 107.163-.011-.002 19.167-107.163z" clip-path="url(#pfcd7840b25)" style="stroke:#000;stroke-width:1.5;stroke-linejoin:miter"/><path id="patch_7" d="m165.448 214.958.43 7.638-2.328-.633-6.348 23.345-.011-.004 6.347-23.344-2.329-.633z" clip-path="url(#pfcd7840b25)" style="stroke:#000;stroke-width:1.5;stroke-linejoin:miter"/><path id="patch_8" d="m185.76 140.256.006.002-28.564 105.05-.011-.004 28.563-105.05z" clip-path="url(#pfcd7840b25)" style="stroke:#000;stroke-width:1.5;stroke-linejoin:miter"/><path id="patch_9" d="m158.925 212.87-.246 7.647-2.264-.837-8.385 22.693-.012-.005 8.386-22.692-2.264-.836z" clip-path="url(#pfcd7840b25)" style="stroke:#000;stroke-width:1.5;stroke-linejoin:miter"/><path id="patch_10" d="m185.76 140.256.006.002-37.736 102.115-.012-.005 37.736-102.114z" clip-path="url(#pfcd7840b25)" style="stroke:#000;stroke-width:1.5;stroke-linejoin:miter"/><path id="patch_11" d="m152.613 210.215-.922 7.594-2.18-1.033-10.359 21.862-.01-.005 10.358-21.862-2.181-1.033z" clip-path="url(#pfcd7840b25)" style="stroke:#000;stroke-width:1.5;stroke-linejoin:miter"/><path id="patch_12" d="m185.76 140.256.005.003-46.613 98.38-.01-.006 46.613-98.38z" clip-path="url(#pfcd7840b25)" style="stroke:#000;stroke-width:1.5;stroke-linejoin:miter"/><path id="patch_13" d="m146.56 207.012-1.59 7.483-2.08-1.222-12.25 20.861-.011-.006 12.25-20.861-2.08-1.222z" clip-path="url(#pfcd7840b25)" style="stroke:#000;stroke-width:1.5;stroke-linejoin:miter"/><path id="patch_14" d="m185.76 140.256.005.003-55.126 93.875-.01-.006 55.126-93.875z" clip-path="url(#pfcd7840b25)" style="stroke:#000;stroke-width:1.5;stroke-linejoin:miter"/><path id="patch_15" d="m140.813 203.286-2.244 7.313-1.965-1.4-14.046 19.696-.01-.007 14.046-19.697-1.964-1.4z" clip-path="url(#pfcd7840b25)" style="stroke:#000;stroke-width:1.5;stroke-linejoin:miter"/><path id="patch_16" d="m185.76 140.256.005.004-63.207 88.635-.01-.007 63.207-88.636z" clip-path="url(#pfcd7840b25)" style="stroke:#000;stroke-width:1.5;stroke-linejoin:miter"/><path id="patch_17" d="m135.418 199.067-2.881 7.086-1.834-1.569-15.731 18.379-.01-.008 15.732-18.379-1.833-1.569z" clip-path="url(#pfcd7840b25)" style="stroke:#000;stroke-width:1.5;stroke-linejoin:miter"/><path id="patch_18" d="m185.76 140.256.005.004-70.793 82.703-.01-.008 70.793-82.703z" clip-path="url(#pfcd7840b25)" style="stroke:#000;stroke-width:1.5;stroke-linejoin:miter"/><path id="patch_19" d="m130.418 194.387-3.497 6.805-1.688-1.725-17.294 16.916-.009-.01 17.295-16.915-1.687-1.725z" clip-path="url(#pfcd7840b25)" style="stroke:#000;stroke-width:1.5;stroke-linejoin:miter"/><path id="patch_20" d="m185.76 140.256.004.004-77.825 76.123-.009-.01 77.826-76.121z" clip-path="url(#pfcd7840b25)" style="stroke:#000;stroke-width:1.5;stroke-linejoin:miter"/><path id="patch_21" d="m125.85 189.284-4.084 6.469-1.529-1.868-18.722 15.322-.007-.01 18.722-15.32-1.529-1.868z" clip-path="url(#pfcd7840b25)" style="stroke:#000;stroke-width:1.5;stroke-linejoin:miter"/><path id="patch_22" d="m185.76 140.256.004.005-84.249 68.946-.007-.01 84.248-68.946z" clip-path="url(#pfcd7840b25)" style="stroke:#000;stroke-width:1.5;stroke-linejoin:miter"/><path id="patch_23" d="m121.751 183.798-4.64 6.082-1.357-1.995L95.75 201.49l-.007-.01 20.003-13.606-1.357-1.996z" clip-path="url(#pfcd7840b25)" style="stroke:#000;stroke-width:1.5;stroke-linejoin:miter"/><path id="patch_24" d="m185.76 140.256.003.005-90.012 61.23-.007-.01 90.013-61.23z" clip-path="url(#pfcd7840b25)" style="stroke:#000;stroke-width:1.5;stroke-linejoin:miter"/><path id="patch_25" d="m118.154 177.97-5.16 5.649-1.176-2.108-21.127 11.786-.005-.01 21.127-11.786-1.176-2.108z" clip-path="url(#pfcd7840b25)" style="stroke:#000;stroke-width:1.5;stroke-linejoin:miter"/><path id="patch_26" d="m185.76 140.256.003.005-95.072 53.036-.005-.01 95.071-53.036z" clip-path="url(#pfcd7840b25)" style="stroke:#000;stroke-width:1.5;stroke-linejoin:miter"/><path id="patch_27" d="m115.085 171.848-5.639 5.17-.984-2.203-22.086 9.872-.005-.01 22.086-9.873-.985-2.203z" clip-path="url(#pfcd7840b25)" style="stroke:#000;stroke-width:1.5;stroke-linejoin:miter"/><path id="patch_28" d="m185.76 140.256.002.006-99.386 44.425-.005-.01 99.387-44.427z" clip-path="url(#pfcd7840b25)" style="stroke:#000;stroke-width:1.5;stroke-linejoin:miter"/><path id="patch_29" d="m112.57 165.478-6.074 4.651-.786-2.281-22.872 7.882-.004-.012 22.872-7.882-.786-2.281z" clip-path="url(#pfcd7840b25)" style="stroke:#000;stroke-width:1.5;stroke-linejoin:miter"/><path id="patch_30" d="m185.76 140.256.002.006L82.838 175.73l-.004-.012 102.924-35.468z" clip-path="url(#pfcd7840b25)" style="stroke:#000;stroke-width:1.5;stroke-linejoin:miter"/><path id="patch_31" d="m110.627 158.91-6.461 4.097-.582-2.342-23.479 5.83-.003-.012 23.48-5.83-.582-2.342z" clip-path="url(#pfcd7840b25)" style="stroke:#000;stroke-width:1.5;stroke-linejoin:miter"/><path id="patch_32" d="m185.76 140.256.001.006-105.656 26.233-.003-.012L185.76 140.25z" clip-path="url(#pfcd7840b25)" style="stroke:#000;stroke-width:1.5;stroke-linejoin:miter"/><path id="patch_33" d="m109.272 152.197-6.797 3.51-.373-2.384-23.902 3.731-.002-.012 23.902-3.731-.372-2.385z" clip-path="url(#pfcd7840b25)" style="stroke:#000;stroke-width:1.5;stroke-linejoin:miter"/><path id="patch_34" d="M185.76 140.256v.006L78.2 157.054l-.002-.012 107.561-16.792z" clip-path="url(#pfcd7840b25)" style="stroke:#000;stroke-width:1.5;stroke-linejoin:miter"/><path id="patch_35" d="m108.516 145.39-7.081 2.896-.16-2.408-24.139 1.604v-.012l24.138-1.604-.16-2.408z" clip-path="url(#pfcd7840b25)" style="stroke:#000;stroke-width:1.5;stroke-linejoin:miter"/><path id="patch_36" d="M185.76 140.256v.006l-108.624 7.22v-.012l108.624-7.22z" clip-path="url(#pfcd7840b25)" style="stroke:#000;stroke-width:1.5;stroke-linejoin:miter"/><path id="patch_37" d="m108.365 138.543-7.31 2.258.054-2.412-24.186-.535v-.012l24.186.535.053-2.413z" clip-path="url(#pfcd7840b25)" style="stroke:#000;stroke-width:1.5;stroke-linejoin:miter"/><path id="patch_38" d="M185.76 140.256v.006l-108.837-2.408v-.012l108.837 2.408z" clip-path="url(#pfcd7840b25)" style="stroke:#000;stroke-width:1.5;stroke-linejoin:miter"/><path id="patch_39" d="m108.819 131.71-7.48 1.603.266-2.398-24.044-2.67.001-.013 24.044 2.67.267-2.398z" clip-path="url(#pfcd7840b25)" style="stroke:#000;stroke-width:1.5;stroke-linejoin:miter"/><path id="patch_40" d="M185.76 140.256v.006l-108.2-12.018.002-.012 108.199 12.018z" clip-path="url(#pfcd7840b25)" style="stroke:#000;stroke-width:1.5;stroke-linejoin:miter"/><path id="patch_41" d="m109.875 124.943-7.593.936.478-2.365-23.714-4.786.002-.011 23.714 4.785.477-2.366z" clip-path="url(#pfcd7840b25)" style="stroke:#000;stroke-width:1.5;stroke-linejoin:miter"/><path id="patch_42" d="m185.76 140.256-.001.006-106.713-21.534.002-.011 106.713 21.533z" clip-path="url(#pfcd7840b25)" style="stroke:#000;stroke-width:1.5;stroke-linejoin:miter"/><path id="patch_43" d="m111.525 118.296-7.645.262.684-2.314-23.198-6.863.003-.011 23.199 6.862.684-2.314z" clip-path="url(#pfcd7840b25)" style="stroke:#000;stroke-width:1.5;stroke-linejoin:miter"/><path id="patch_44" d="m185.76 140.256-.002.006-104.392-30.88.003-.012 104.393 30.88z" clip-path="url(#pfcd7840b25)" style="stroke:#000;stroke-width:1.5;stroke-linejoin:miter"/><path id="patch_45" d="m113.757 111.822-7.64-.416.887-2.245-22.5-8.885.004-.012 22.5 8.886.887-2.244z" clip-path="url(#pfcd7840b25)" style="stroke:#000;stroke-width:1.5;stroke-linejoin:miter"/><path id="patch_46" d="m185.76 140.256-.002.006-101.255-39.986.005-.012 101.254 39.986z" clip-path="url(#pfcd7840b25)" style="stroke:#000;stroke-width:1.5;stroke-linejoin:miter"/><path id="patch_47" d="m116.552 105.57-7.573-1.09 1.082-2.157-21.628-10.84.005-.01 21.628 10.839 1.081-2.157z" clip-path="url(#pfcd7840b25)" style="stroke:#000;stroke-width:1.5;stroke-linejoin:miter"/><path id="patch_48" d="m185.76 140.256-.003.005-97.324-48.778.005-.01 97.325 48.778z" clip-path="url(#pfcd7840b25)" style="stroke:#000;stroke-width:1.5;stroke-linejoin:miter"/><path id="patch_49" d="m119.888 99.588-7.446-1.754 1.267-2.053-20.585-12.709.007-.01 20.585 12.709 1.267-2.054z" clip-path="url(#pfcd7840b25)" style="stroke:#000;stroke-width:1.5;stroke-linejoin:miter"/><path id="patch_50" d="m185.76 140.256-.003.005-92.633-57.189.007-.01 92.632 57.189z" clip-path="url(#pfcd7840b25)" style="stroke:#000;stroke-width:1.5;stroke-linejoin:miter"/><path id="patch_51" d="m123.74 93.926-7.262-2.406 1.444-1.933-19.381-14.478.007-.01 19.381 14.478 1.444-1.933z" clip-path="url(#pfcd7840b25)" style="stroke:#000;stroke-width:1.5;stroke-linejoin:miter"/><path id="patch_52" d="m185.76 140.256-.004.005-87.215-65.152.007-.01 87.216 65.152z" clip-path="url(#pfcd7840b25)" style="stroke:#000;stroke-width:1.5;stroke-linejoin:miter"/><path id="patch_53" d="m128.077 88.626-7.02-3.038 1.609-1.798-18.026-16.135.008-.009 18.026 16.135 1.609-1.798z" clip-path="url(#pfcd7840b25)" style="stroke:#000;stroke-width:1.5;stroke-linejoin:miter"/><path id="patch_54" d="m185.76 140.256-.004.005-81.116-72.606.008-.009 81.116 72.605z" clip-path="url(#pfcd7840b25)" style="stroke:#000;stroke-width:1.5;stroke-linejoin:miter"/><path id="patch_55" d="m132.866 83.73-6.725-3.647 1.762-1.649-16.53-17.664.01-.008 16.529 17.664 1.762-1.649z" clip-path="url(#pfcd7840b25)" style="stroke:#000;stroke-width:1.5;stroke-linejoin:miter"/><path id="patch_56" d="m185.76 140.256-.004.004-74.382-79.49.008-.008 74.382 79.49z" clip-path="url(#pfcd7840b25)" style="stroke:#000;stroke-width:1.5;stroke-linejoin:miter"/><path id="patch_57" d="m138.069 79.276-6.377-4.226 1.901-1.487-14.903-19.056.01-.008 14.903 19.056 1.9-1.486z" clip-path="url(#pfcd7840b25)" style="stroke:#000;stroke-width:1.5;stroke-linejoin:miter"/><path id="patch_58" d="m185.76 140.256-.005.004-67.065-85.753.01-.008 67.065 85.753z" clip-path="url(#pfcd7840b25)" style="stroke:#000;stroke-width:1.5;stroke-linejoin:miter"/><path id="patch_59" d="m143.645 75.3-5.978-4.774 2.025-1.313-13.161-20.298.01-.007 13.16 20.299 2.026-1.313z" clip-path="url(#pfcd7840b25)" style="stroke:#000;stroke-width:1.5;stroke-linejoin:miter"/><path id="patch_60" d="m185.76 140.256-.005.003-59.224-91.344.01-.007 59.224 91.345z" clip-path="url(#pfcd7840b25)" style="stroke:#000;stroke-width:1.5;stroke-linejoin:miter"/><path id="patch_61" d="m149.55 71.832-5.532-5.283 2.133-1.13-11.316-21.382.01-.005 11.316 21.382 2.133-1.129z" clip-path="url(#pfcd7840b25)" style="stroke:#000;stroke-width:1.5;stroke-linejoin:miter"/><path id="patch_62" d="m185.76 140.256-.005.003-50.92-96.222.01-.005 50.92 96.221z" clip-path="url(#pfcd7840b25)" style="stroke:#000;stroke-width:1.5;stroke-linejoin:miter"/><path id="patch_63" d="m155.74 68.9-5.045-5.752 2.225-.936-9.382-22.299.011-.005 9.382 22.3 2.224-.936z" clip-path="url(#pfcd7840b25)" style="stroke:#000;stroke-width:1.5;stroke-linejoin:miter"/><path id="patch_64" d="m185.76 140.256-.006.002-42.216-100.345.011-.005 42.217 100.346z" clip-path="url(#pfcd7840b25)" style="stroke:#000;stroke-width:1.5;stroke-linejoin:miter"/><path id="patch_65" d="m162.164 66.525-4.517-6.174 2.299-.736-7.374-23.04.011-.004 7.374 23.04 2.299-.735z" clip-path="url(#pfcd7840b25)" style="stroke:#000;stroke-width:1.5;stroke-linejoin:miter"/><path id="patch_66" d="m185.76 140.256-.006.002-33.182-103.684.011-.003 33.183 103.683z" clip-path="url(#pfcd7840b25)" style="stroke:#000;stroke-width:1.5;stroke-linejoin:miter"/><path id="patch_67" d="m168.772 64.728-3.953-6.55 2.355-.529-5.309-23.602.012-.003 5.309 23.602 2.354-.53z" clip-path="url(#pfcd7840b25)" style="stroke:#000;stroke-width:1.5;stroke-linejoin:miter"/><path id="patch_68" d="m185.76 140.256-.006.001-23.889-106.21.012-.003 23.889 106.21z" clip-path="url(#pfcd7840b25)" style="stroke:#000;stroke-width:1.5;stroke-linejoin:miter"/><path id="patch_69" d="m175.514 63.523-3.359-6.874 2.392-.32-3.202-23.978.012-.002 3.202 23.98 2.392-.32z" clip-path="url(#pfcd7840b25)" style="stroke:#000;stroke-width:1.5;stroke-linejoin:miter"/><path id="patch_70" d="M185.76 140.256h-.006L171.345 32.352l.012-.002 14.409 107.906z" clip-path="url(#pfcd7840b25)" style="stroke:#000;stroke-width:1.5;stroke-linejoin:miter"/><path id="patch_71" d="m182.336 62.917-2.738-7.143 2.41-.107-1.07-24.168h.013l1.07 24.168 2.41-.107z" clip-path="url(#pfcd7840b25)" style="stroke:#000;stroke-width:1.5;stroke-linejoin:miter"/><path id="patch_72" d="M185.76 140.256h-.006L180.939 31.5h.012l4.815 108.757z" clip-path="url(#pfcd7840b25)" style="stroke:#000;stroke-width:1.5;stroke-linejoin:miter"/><path id="patch_73" d="m189.184 62.917-2.096-7.357 2.411.107 1.07-24.169h.012l-1.07 24.17 2.411.106z" clip-path="url(#pfcd7840b25)" style="stroke:#000;stroke-width:1.5;stroke-linejoin:miter"/><path id="patch_74" d="M185.76 140.256h-.006l4.815-108.758h.012l-4.815 108.758z" clip-path="url(#pfcd7840b25)" style="stroke:#000;stroke-width:1.5;stroke-linejoin:miter"/><path id="patch_75" d="m196.006 63.523-1.437-7.514 2.392.32 3.202-23.98.012.002-3.202 23.979 2.392.32z" clip-path="url(#pfcd7840b25)" style="stroke:#000;stroke-width:1.5;stroke-linejoin:miter"/><path id="patch_76" d="M185.76 140.256h-.006l14.409-107.907.012.002-14.409 107.906z" clip-path="url(#pfcd7840b25)" style="stroke:#000;stroke-width:1.5;stroke-linejoin:miter"/><path id="patch_77" d="m202.748 64.728-.768-7.611 2.354.53 5.31-23.603.01.003-5.308 23.602 2.355.53z" clip-path="url(#pfcd7840b25)" style="stroke:#000;stroke-width:1.5;stroke-linejoin:miter"/><path id="patch_78" d="m185.76 140.256-.006-.001 23.89-106.21.01.002-23.888 106.21z" clip-path="url(#pfcd7840b25)" style="stroke:#000;stroke-width:1.5;stroke-linejoin:miter"/><path id="patch_79" d="m209.356 66.525-.092-7.65 2.299.736 7.374-23.04.011.003-7.374 23.041 2.299.736z" clip-path="url(#pfcd7840b25)" style="stroke:#000;stroke-width:1.5;stroke-linejoin:miter"/><path id="patch_80" d="m185.76 140.256-.006-.002 33.183-103.683.011.003-33.182 103.684z" clip-path="url(#pfcd7840b25)" style="stroke:#000;stroke-width:1.5;stroke-linejoin:miter"/><path id="patch_81" d="m215.78 68.9.585-7.628 2.224.935 9.382-22.299.01.005-9.38 22.299 2.224.936z" clip-path="url(#pfcd7840b25)" style="stroke:#000;stroke-width:1.5;stroke-linejoin:miter"/><path id="patch_82" d="m185.76 140.256-.006-.002 42.217-100.346.01.005-42.215 100.345z" clip-path="url(#pfcd7840b25)" style="stroke:#000;stroke-width:1.5;stroke-linejoin:miter"/><path id="patch_83" d="m221.97 71.832 1.256-7.547 2.133 1.13 11.315-21.383.01.005L225.37 65.42l2.133 1.129z" clip-path="url(#pfcd7840b25)" style="stroke:#000;stroke-width:1.5;stroke-linejoin:miter"/><path id="patch_84" d="m185.76 140.256-.005-.003 50.92-96.221.01.005-50.92 96.222z" clip-path="url(#pfcd7840b25)" style="stroke:#000;stroke-width:1.5;stroke-linejoin:miter"/><path id="patch_85" d="m227.875 75.3 1.918-7.406 2.025 1.313 13.161-20.299.01.007-13.16 20.298 2.024 1.313z" clip-path="url(#pfcd7840b25)" style="stroke:#000;stroke-width:1.5;stroke-linejoin:miter"/><path id="patch_86" d="m185.76 140.256-.005-.003 59.224-91.345.01.007-59.224 91.344z" clip-path="url(#pfcd7840b25)" style="stroke:#000;stroke-width:1.5;stroke-linejoin:miter"/><path id="patch_87" d="m233.451 79.276 2.565-7.207 1.901 1.486L252.821 54.5l.01.008-14.904 19.056 1.9 1.487z" clip-path="url(#pfcd7840b25)" style="stroke:#000;stroke-width:1.5;stroke-linejoin:miter"/><path id="patch_88" d="m185.76 140.256-.005-.004L252.821 54.5l.01.008-67.066 85.753z" clip-path="url(#pfcd7840b25)" style="stroke:#000;stroke-width:1.5;stroke-linejoin:miter"/><path id="patch_89" d="m238.654 83.73 3.192-6.953 1.762 1.65 16.53-17.665.008.008-16.529 17.664 1.762 1.65z" clip-path="url(#pfcd7840b25)" style="stroke:#000;stroke-width:1.5;stroke-linejoin:miter"/><path id="patch_90" d="m185.76 140.256-.004-.004 74.382-79.49.008.008-74.382 79.49z" clip-path="url(#pfcd7840b25)" style="stroke:#000;stroke-width:1.5;stroke-linejoin:miter"/><path id="patch_91" d="m243.443 88.626 3.794-6.643 1.61 1.798 18.025-16.135.008.01-18.026 16.134 1.61 1.798z" clip-path="url(#pfcd7840b25)" style="stroke:#000;stroke-width:1.5;stroke-linejoin:miter"/><path id="patch_92" d="m185.76 140.256-.004-.005 81.116-72.605.008.01-81.116 72.605z" clip-path="url(#pfcd7840b25)" style="stroke:#000;stroke-width:1.5;stroke-linejoin:miter"/><path id="patch_93" d="m247.78 93.926 4.367-6.282 1.444 1.933L272.972 75.1l.007.01-19.381 14.478 1.444 1.933z" clip-path="url(#pfcd7840b25)" style="stroke:#000;stroke-width:1.5;stroke-linejoin:miter"/><path id="patch_94" d="m185.76 140.256-.004-.005L272.972 75.1l.007.01-87.215 65.152z" clip-path="url(#pfcd7840b25)" style="stroke:#000;stroke-width:1.5;stroke-linejoin:miter"/><path id="patch_95" d="m251.632 99.588 4.905-5.87 1.267 2.053 20.585-12.71.007.011-20.585 12.709 1.267 2.053z" clip-path="url(#pfcd7840b25)" style="stroke:#000;stroke-width:1.5;stroke-linejoin:miter"/><path id="patch_96" d="m185.76 140.256-.003-.005 92.632-57.19.007.011-92.633 57.19z" clip-path="url(#pfcd7840b25)" style="stroke:#000;stroke-width:1.5;stroke-linejoin:miter"/><path id="patch_97" d="m254.968 105.57 5.405-5.415 1.081 2.157 21.628-10.84.005.011-21.628 10.84 1.082 2.157z" clip-path="url(#pfcd7840b25)" style="stroke:#000;stroke-width:1.5;stroke-linejoin:miter"/><path id="patch_98" d="m185.76 140.256-.003-.005 97.325-48.779.005.011-97.324 48.778z" clip-path="url(#pfcd7840b25)" style="stroke:#000;stroke-width:1.5;stroke-linejoin:miter"/><path id="patch_99" d="m257.763 111.822 5.862-4.916.886 2.244 22.501-8.886.005.012-22.501 8.885.886 2.245z" clip-path="url(#pfcd7840b25)" style="stroke:#000;stroke-width:1.5;stroke-linejoin:miter"/><path id="patch_100" d="m185.76 140.256-.002-.006 101.254-39.986.005.012-101.255 39.986z" clip-path="url(#pfcd7840b25)" style="stroke:#000;stroke-width:1.5;stroke-linejoin:miter"/><path id="patch_101" d="m259.995 118.296 6.273-4.378.684 2.314 23.199-6.862.003.011-23.198 6.863.684 2.314z" clip-path="url(#pfcd7840b25)" style="stroke:#000;stroke-width:1.5;stroke-linejoin:miter"/><path id="patch_102" d="m185.76 140.256-.002-.006 104.393-30.88.003.011-104.392 30.88z" clip-path="url(#pfcd7840b25)" style="stroke:#000;stroke-width:1.5;stroke-linejoin:miter"/><path id="patch_103" d="m261.645 124.943 6.636-3.807.477 2.366 23.714-4.785.002.011-23.714 4.786.478 2.365z" clip-path="url(#pfcd7840b25)" style="stroke:#000;stroke-width:1.5;stroke-linejoin:miter"/><path id="patch_104" d="m185.76 140.256-.001-.006 106.713-21.533.002.011-106.713 21.534z" clip-path="url(#pfcd7840b25)" style="stroke:#000;stroke-width:1.5;stroke-linejoin:miter"/><path id="patch_105" d="m262.701 131.71 6.946-3.206.267 2.399 24.044-2.67.001.011-24.044 2.67.267 2.4z" clip-path="url(#pfcd7840b25)" style="stroke:#000;stroke-width:1.5;stroke-linejoin:miter"/><path id="patch_106" d="M185.76 140.256v-.006l108.198-12.018.001.012-108.198 12.018z" clip-path="url(#pfcd7840b25)" style="stroke:#000;stroke-width:1.5;stroke-linejoin:miter"/><path id="patch_107" d="m263.155 138.543 7.203-2.579.053 2.413 24.186-.535v.012l-24.186.535.054 2.412z" clip-path="url(#pfcd7840b25)" style="stroke:#000;stroke-width:1.5;stroke-linejoin:miter"/><path id="patch_108" d="M185.76 140.256v-.006l108.837-2.408v.012l-108.837 2.408z" clip-path="url(#pfcd7840b25)" style="stroke:#000;stroke-width:1.5;stroke-linejoin:miter"/><path id="patch_109" d="m263.004 145.39 7.402-1.932-.16 2.408 24.139 1.604-.001.012-24.139-1.604-.16 2.408z" clip-path="url(#pfcd7840b25)" style="stroke:#000;stroke-width:1.5;stroke-linejoin:miter"/><path id="patch_110" d="M185.76 140.256v-.006l108.625 7.22-.001.012-108.624-7.22z" clip-path="url(#pfcd7840b25)" style="stroke:#000;stroke-width:1.5;stroke-linejoin:miter"/><path id="patch_111" d="m262.248 152.197 7.544-1.27-.372 2.384 23.902 3.731-.002.012-23.902-3.731-.373 2.384z" clip-path="url(#pfcd7840b25)" style="stroke:#000;stroke-width:1.5;stroke-linejoin:miter"/><path id="patch_112" d="M185.76 140.256v-.006l107.562 16.792-.002.012-107.56-16.792z" clip-path="url(#pfcd7840b25)" style="stroke:#000;stroke-width:1.5;stroke-linejoin:miter"/><path id="patch_113" d="m260.893 158.91 7.627-.599-.582 2.342 23.48 5.83-.003.012-23.48-5.83-.581 2.342z" clip-path="url(#pfcd7840b25)" style="stroke:#000;stroke-width:1.5;stroke-linejoin:miter"/><path id="patch_114" d="m185.76 140.256.001-.006 105.657 26.233-.003.012-105.656-26.233z" clip-path="url(#pfcd7840b25)" style="stroke:#000;stroke-width:1.5;stroke-linejoin:miter"/><path id="patch_115" d="m258.95 165.478 7.65.077-.786 2.281 22.872 7.882-.004.012-22.872-7.882-.786 2.281z" clip-path="url(#pfcd7840b25)" style="stroke:#000;stroke-width:1.5;stroke-linejoin:miter"/><path id="patch_116" d="m185.76 140.256.002-.006 102.924 35.468-.004.012-102.924-35.468z" clip-path="url(#pfcd7840b25)" style="stroke:#000;stroke-width:1.5;stroke-linejoin:miter"/><path id="patch_117" d="m256.435 171.848 7.613.753-.985 2.203 22.086 9.872-.005.011-22.086-9.872-.984 2.203z" clip-path="url(#pfcd7840b25)" style="stroke:#000;stroke-width:1.5;stroke-linejoin:miter"/><path id="patch_118" d="m185.76 140.256.002-.006 99.387 44.426-.005.011-99.386-44.425z" clip-path="url(#pfcd7840b25)" style="stroke:#000;stroke-width:1.5;stroke-linejoin:miter"/><path id="patch_119" d="m253.366 177.97 7.517 1.423-1.176 2.108 21.127 11.785-.005.01-21.127-11.785-1.176 2.108z" clip-path="url(#pfcd7840b25)" style="stroke:#000;stroke-width:1.5;stroke-linejoin:miter"/><path id="patch_120" d="m185.76 140.256.003-.005 95.071 53.035-.005.01-95.072-53.035z" clip-path="url(#pfcd7840b25)" style="stroke:#000;stroke-width:1.5;stroke-linejoin:miter"/><path id="patch_121" d="m249.769 183.798 7.361 2.081-1.357 1.996 20.003 13.606-.007.01-20.003-13.606-1.357 1.995z" clip-path="url(#pfcd7840b25)" style="stroke:#000;stroke-width:1.5;stroke-linejoin:miter"/><path id="patch_122" d="m185.76 140.256.003-.005 90.013 61.23-.007.01-90.012-61.23z" clip-path="url(#pfcd7840b25)" style="stroke:#000;stroke-width:1.5;stroke-linejoin:miter"/><path id="patch_123" d="m245.67 189.284 7.149 2.725-1.529 1.867 18.722 15.321-.007.01-18.722-15.322-1.529 1.868z" clip-path="url(#pfcd7840b25)" style="stroke:#000;stroke-width:1.5;stroke-linejoin:miter"/><path id="patch_124" d="m185.76 140.256.004-.005 84.248 68.946-.007.01-84.249-68.946z" clip-path="url(#pfcd7840b25)" style="stroke:#000;stroke-width:1.5;stroke-linejoin:miter"/><path id="patch_125" d="m241.102 194.387 6.88 3.346-1.687 1.725 17.295 16.916-.009.009-17.294-16.916-1.688 1.725z" clip-path="url(#pfcd7840b25)" style="stroke:#000;stroke-width:1.5;stroke-linejoin:miter"/><path id="patch_126" d="m185.76 140.256.004-.004 77.826 76.122-.009.009-77.825-76.123z" clip-path="url(#pfcd7840b25)" style="stroke:#000;stroke-width:1.5;stroke-linejoin:miter"/><path id="patch_127" d="m236.102 199.067 6.557 3.94-1.833 1.57 15.732 18.378-.01.008-15.731-18.379-1.834 1.57z" clip-path="url(#pfcd7840b25)" style="stroke:#000;stroke-width:1.5;stroke-linejoin:miter"/><path id="patch_128" d="m185.76 140.256.005-.004 70.793 82.703-.01.008-70.793-82.703z" clip-path="url(#pfcd7840b25)" style="stroke:#000;stroke-width:1.5;stroke-linejoin:miter"/><path id="patch_129" d="m230.707 203.286 6.183 4.504-1.964 1.401 14.046 19.697-.01.007-14.046-19.697-1.965 1.401z" clip-path="url(#pfcd7840b25)" style="stroke:#000;stroke-width:1.5;stroke-linejoin:miter"/><path id="patch_130" d="m185.76 140.256.005-.004 63.207 88.636-.01.007-63.207-88.635z" clip-path="url(#pfcd7840b25)" style="stroke:#000;stroke-width:1.5;stroke-linejoin:miter"/><path id="patch_131" d="m224.96 207.012 5.762 5.033-2.081 1.222 12.25 20.861-.01.006-12.25-20.861-2.082 1.222z" clip-path="url(#pfcd7840b25)" style="stroke:#000;stroke-width:1.5;stroke-linejoin:miter"/><path id="patch_132" d="m185.76 140.256.005-.003 55.126 93.875-.01.006-55.126-93.875z" clip-path="url(#pfcd7840b25)" style="stroke:#000;stroke-width:1.5;stroke-linejoin:miter"/><path id="patch_133" d="m218.907 210.215 5.294 5.523-2.18 1.033 10.358 21.862-.011.005-10.359-21.862-2.18 1.033z" clip-path="url(#pfcd7840b25)" style="stroke:#000;stroke-width:1.5;stroke-linejoin:miter"/><path id="patch_134" d="m185.76 140.256.005-.003 46.614 98.38-.011.005-46.613-98.38z" clip-path="url(#pfcd7840b25)" style="stroke:#000;stroke-width:1.5;stroke-linejoin:miter"/><path id="patch_135" d="m212.595 212.87 4.785 5.97-2.264.836 8.386 22.692-.012.005-8.385-22.693-2.264.837z" clip-path="url(#pfcd7840b25)" style="stroke:#000;stroke-width:1.5;stroke-linejoin:miter"/><path id="patch_136" d="m185.76 140.256.006-.002 37.736 102.114-.012.005-37.736-102.115z" clip-path="url(#pfcd7840b25)" style="stroke:#000;stroke-width:1.5;stroke-linejoin:miter"/><path id="patch_137" d="m206.072 214.958 4.239 6.369-2.329.633 6.347 23.344-.011.004-6.348-23.345-2.328.633z" clip-path="url(#pfcd7840b25)" style="stroke:#000;stroke-width:1.5;stroke-linejoin:miter"/><path id="patch_138" d="m185.76 140.256.006-.002 28.563 105.05-.011.004-28.564-105.05z" clip-path="url(#pfcd7840b25)" style="stroke:#000;stroke-width:1.5;stroke-linejoin:miter"/><path id="patch_139" d="m199.39 216.461 3.66 6.718-2.376.425 4.26 23.814-.012.002-4.26-23.814-2.375.425z" clip-path="url(#pfcd7840b25)" style="stroke:#000;stroke-width:1.5;stroke-linejoin:miter"/><path id="patch_140" d="m185.76 140.256.006-.001 19.167 107.163-.011.002-19.168-107.163z" clip-path="url(#pfcd7840b25)" style="stroke:#000;stroke-width:1.5;stroke-linejoin:miter"/><path id="patch_141" d="m192.602 217.367 3.051 7.016-2.404.213 2.138 24.097-.012.002-2.138-24.098-2.403.213z" clip-path="url(#pfcd7840b25)" style="stroke:#000;stroke-width:1.5;stroke-linejoin:miter"/><path id="patch_142" d="M185.76 140.256h.006l9.621 108.437-.012.002-9.621-108.438z" clip-path="url(#pfcd7840b25)" style="stroke:#000;stroke-width:1.5;stroke-linejoin:miter"/><g id="PathCollection_1"><defs><path id="mcedb6ae408" d="M0 5A5 5 0 1 0 0-5 5 5 0 0 0 0 5z" style="stroke:#000"/></defs><g clip-path="url(#pfcd7840b25)"><use xlink:href="#mcedb6ae408" x="185.76" y="140.256" style="stroke:#000"/></g></g><g id="text_1" transform="matrix(.1 0 0 -.1 246.24 261.216)"><defs><path id="DejaVuSans-Bold-53" d="M3834 4519v-988q-384 172-750 259-365 88-690 88-431 0-638-119-206-118-206-368 0-188 139-293 139-104 505-179l512-103q778-157 1106-476 329-318 329-906 0-771-458-1148T2284-91q-443 0-890 85-447 84-894 250v1015q447-237 864-358 417-120 805-120 394 0 603 131 209 132 209 376 0 218-142 337t-567 213l-466 103q-700 150-1024 478-323 328-323 884 0 697 450 1072t1294 375q385 0 791-58t840-173" transform="scale(.01563)"/><path id="DejaVuSans-Bold-6f" d="M2203 2784q-372 0-567-267t-195-770 195-771q195-267 567-267 366 0 559 267 194 268 194 771t-194 770q-193 267-559 267m0 800q903 0 1411-488 508-487 508-1349 0-863-508-1351Q3106-91 2203-91q-906 0-1417 487-511 488-511 1351 0 862 511 1349 511 488 1417 488" transform="scale(.01563)"/><path id="DejaVuSans-Bold-75" d="M500 1363v2137h1125v-350q0-284-3-714t-3-573q0-422 22-608t75-271q68-109 179-169 111-59 255-59 350 0 550 269t200 747v1728h1119V0H2900v506q-253-306-536-452-283-145-623-145-607 0-924 372T500 1363" transform="scale(.01563)"/><path id="DejaVuSans-Bold-72" d="M3138 2547q-147 69-293 101-145 33-292 33-431 0-664-277-233-276-233-791V0H538v3500h1118v-575q216 344 495 501 280 158 671 158 56 0 121-5 66-4 191-20z" transform="scale(.01563)"/><path id="DejaVuSans-Bold-63" d="M3366 3391v-913q-228 156-458 231t-477 75q-468 0-729-273t-261-764 261-765q261-273 729-273 263 0 499 78 236 79 436 232V103Q3103 6 2833-42q-270-49-542-49-947 0-1482 486-534 486-534 1352t534 1351q535 486 1482 486 275 0 542-48t533-145" transform="scale(.01563)"/><path id="DejaVuSans-Bold-65" d="M4031 1759v-318H1416q40-394 284-591t681-197q353 0 723 105 371 105 762 317V213Q3469 63 3072-14t-794-77q-950 0-1477 483-526 483-526 1355 0 856 517 1346 517 491 1424 491 825 0 1320-497 495-496 495-1328m-1150 372q0 319-186 514-186 196-486 196-325 0-528-183t-253-527z" transform="scale(.01563)"/><path id="DejaVuSans-Bold-76" d="M97 3500h1119l872-2419 868 2419h1122L2700 0H1472z" transform="scale(.01563)"/><path id="DejaVuSans-Bold-6c" d="M538 4863h1118V0H538z" transform="scale(.01563)"/><path id="DejaVuSans-Bold-69" d="M538 3500h1118V0H538zm0 1363h1118v-913H538z" transform="scale(.01563)"/><path id="DejaVuSans-Bold-74" d="M1759 4494v-994h1154v-800H1759V1216q0-244 97-330t385-86h575V0h-960q-662 0-939 276-276 277-276 940v1484H84v800h557v994z" transform="scale(.01563)"/><path id="DejaVuSans-Bold-79" d="M78 3500h1119l941-2375 800 2375h1118L2584-331q-221-585-517-817-295-233-779-233H641v734h350q284 0 413 91 130 90 202 325l32 97z" transform="scale(.01563)"/><path id="DejaVuSans-Bold-3d" d="M678 3084h4006v-734H678zm0-1421h4006V922H678z" transform="scale(.01563)"/><path id="DejaVuSans-Bold-30" d="M2944 2338q0 875-164 1232-164 358-552 358-387 0-553-358-166-357-166-1232 0-885 166-1248 166-362 553-362 385 0 550 362 166 363 166 1248m1203-10q0-1159-500-1789T2228-91q-922 0-1422 630T306 2328q0 1163 500 1792 500 630 1422 630 919 0 1419-630 500-629 500-1792" transform="scale(.01563)"/></defs><use xlink:href="#DejaVuSans-Bold-53"/><use xlink:href="#DejaVuSans-Bold-6f" x="72.021"/><use xlink:href="#DejaVuSans-Bold-75" x="140.723"/><use xlink:href="#DejaVuSans-Bold-72" x="211.914"/><use xlink:href="#DejaVuSans-Bold-63" x="261.23"/><use xlink:href="#DejaVuSans-Bold-65" x="320.508"/><use xlink:href="#DejaVuSans-Bold-76" x="423.145"/><use xlink:href="#DejaVuSans-Bold-65" x="488.33"/><use xlink:href="#DejaVuSans-Bold-6c" x="556.152"/><use xlink:href="#DejaVuSans-Bold-6f" x="590.43"/><use xlink:href="#DejaVuSans-Bold-63" x="659.131"/><use xlink:href="#DejaVuSans-Bold-69" x="718.408"/><use xlink:href="#DejaVuSans-Bold-74" x="752.686"/><use xlink:href="#DejaVuSans-Bold-79" x="800.488"/><use xlink:href="#DejaVuSans-Bold-3d" x="900.488"/><use xlink:href="#DejaVuSans-Bold-30" x="1019.092"/></g></g></g><defs><clipPath id="pfcd7840b25"><path d="M7.2 7.2h357.12v266.112H7.2z"/></clipPath></defs></svg>