<svg xmlns="http://www.w3.org/2000/svg" xmlns:xlink="http://www.w3.org/1999/xlink" width="519.243" height="374.016" viewBox="0 0 389.432 280.512"><defs><style>*{stroke-linejoin:round;stroke-linecap:butt}</style></defs><g id="figure_1"><g id="axes_1"><path id="patch_1" d="m185.76 200.131 4.234 12.701h-4.228v36.288h-.012v-36.288h-4.228z" clip-path="url(#p5d60f4e7c7)" style="fill:#3079f7;stroke:#3079f7;stroke-width:1.5;stroke-linejoin:miter"/><path id="patch_2" d="M185.76 140.256h.006V249.12h-.012V140.256z" clip-path="url(#p5d60f4e7c7)" style="fill:#3079f7;stroke:#3079f7;stroke-width:1.5;stroke-linejoin:miter"/><path id="patch_3" d="m186.609 200.125 4.413 12.64-4.227.06.515 36.284h-.012l-.515-36.284-4.227.06z" clip-path="url(#p5d60f4e7c7)" style="fill:#3079f7;stroke:#3079f7;stroke-width:1.5;stroke-linejoin:miter"/><path id="patch_4" d="M185.76 140.256h.006l1.544 108.853h-.012l-1.544-108.853z" clip-path="url(#p5d60f4e7c7)" style="fill:#3079f7;stroke:#3079f7;stroke-width:1.5;stroke-linejoin:miter"/><path id="patch_5" d="m187.461 200.107 4.593 12.575-4.226.12 1.03 36.274h-.011l-1.031-36.273-4.226.12z" clip-path="url(#p5d60f4e7c7)" style="fill:#2e7bf7;stroke:#2e7bf7;stroke-width:1.5;stroke-linejoin:miter"/><path id="patch_6" d="M185.76 140.256h.006l3.093 108.82h-.012l-3.093-108.82z" clip-path="url(#p5d60f4e7c7)" style="fill:#2e7bf7;stroke:#2e7bf7;stroke-width:1.5;stroke-linejoin:miter"/><path id="patch_7" d="m188.32 200.076 4.772 12.509-4.224.18 1.551 36.255h-.012l-1.55-36.254-4.225.18z" clip-path="url(#p5d60f4e7c7)" style="fill:#2e7bf7;stroke:#2e7bf7;stroke-width:1.5;stroke-linejoin:miter"/><path id="patch_8" d="M185.76 140.256h.006l4.653 108.764h-.012l-4.653-108.764z" clip-path="url(#p5d60f4e7c7)" style="fill:#2e7bf7;stroke:#2e7bf7;stroke-width:1.5;stroke-linejoin:miter"/><path id="patch_9" d="m189.187 200.033 4.954 12.438-4.221.242 2.077 36.228h-.012l-2.077-36.228-4.22.242z" clip-path="url(#p5d60f4e7c7)" style="fill:#2e7bf7;stroke:#2e7bf7;stroke-width:1.5;stroke-linejoin:miter"/><path id="patch_10" d="M185.76 140.256h.006l6.23 108.685h-.011l-6.231-108.685z" clip-path="url(#p5d60f4e7c7)" style="fill:#2e7bf7;stroke:#2e7bf7;stroke-width:1.5;stroke-linejoin:miter"/><path id="patch_11" d="m190.067 199.976 5.137 12.363-4.217.305 2.61 36.194h-.011l-2.611-36.194-4.217.305z" clip-path="url(#p5d60f4e7c7)" style="fill:#2e7bf7;stroke:#2e7bf7;stroke-width:1.5;stroke-linejoin:miter"/><path id="patch_12" d="M185.76 140.256h.006l7.832 108.582h-.012l-7.832-108.582z" clip-path="url(#p5d60f4e7c7)" style="fill:#2e7bf7;stroke:#2e7bf7;stroke-width:1.5;stroke-linejoin:miter"/><path id="patch_13" d="m190.964 199.905 5.321 12.284-4.211.368 3.154 36.15-.012.002-3.154-36.151-4.212.367z" clip-path="url(#p5d60f4e7c7)" style="fill:#2e7bf7;stroke:#2e7bf7;stroke-width:1.5;stroke-linejoin:miter"/><path id="patch_14" d="M185.76 140.256h.006l9.462 108.452h-.012l-9.462-108.451z" clip-path="url(#p5d60f4e7c7)" style="fill:#2e7bf7;stroke:#2e7bf7;stroke-width:1.5;stroke-linejoin:miter"/><path id="patch_15" d="m191.88 199.818 5.51 12.201-4.205.432 3.71 36.098-.012.001-3.71-36.098-4.205.433z" clip-path="url(#p5d60f4e7c7)" style="fill:#2e7bf7;stroke:#2e7bf7;stroke-width:1.5;stroke-linejoin:miter"/><path id="patch_16" d="M185.76 140.256h.006l11.129 108.293-.012.001-11.129-108.293z" clip-path="url(#p5d60f4e7c7)" style="fill:#2e7bf7;stroke:#2e7bf7;stroke-width:1.5;stroke-linejoin:miter"/><path id="patch_17" d="m192.822 199.713 5.701 12.113-4.198.499 4.28 36.035-.012.001-4.28-36.035-4.198.499z" clip-path="url(#p5d60f4e7c7)" style="fill:#2e7bf7;stroke:#2e7bf7;stroke-width:1.5;stroke-linejoin:miter"/><path id="patch_18" d="M185.76 140.256h.006l12.84 108.104-.013.001-12.839-108.104z" clip-path="url(#p5d60f4e7c7)" style="fill:#2e7bf7;stroke:#2e7bf7;stroke-width:1.5;stroke-linejoin:miter"/><path id="patch_19" d="m193.79 199.59 5.9 12.018-4.19.567 4.867 35.96-.012.002-4.867-35.96-4.189.567z" clip-path="url(#p5d60f4e7c7)" style="fill:#2e7bf7;stroke:#2e7bf7;stroke-width:1.5;stroke-linejoin:miter"/><path id="patch_20" d="M185.76 140.256h.006l14.601 107.88-.012.001-14.601-107.88z" clip-path="url(#p5d60f4e7c7)" style="fill:#2e7bf7;stroke:#2e7bf7;stroke-width:1.5;stroke-linejoin:miter"/><path id="patch_21" d="m194.794 199.446 6.1 11.917-4.178.637 5.475 35.873-.012.002-5.475-35.873-4.18.638z" clip-path="url(#p5d60f4e7c7)" style="fill:#2e7bf7;stroke:#2e7bf7;stroke-width:1.5;stroke-linejoin:miter"/><path id="patch_22" d="M185.76 140.256h.006l16.425 107.617-.012.002-16.425-107.618z" clip-path="url(#p5d60f4e7c7)" style="fill:#2e7bf7;stroke:#2e7bf7;stroke-width:1.5;stroke-linejoin:miter"/><path id="patch_23" d="m195.835 199.277 6.31 11.808-4.167.711 6.106 35.77-.012.003-6.106-35.77-4.167.71z" clip-path="url(#p5d60f4e7c7)" style="fill:#2e7bf7;stroke:#2e7bf7;stroke-width:1.5;stroke-linejoin:miter"/><path id="patch_24" d="m185.76 140.256.006-.001 18.318 107.312-.012.002-18.318-107.312z" clip-path="url(#p5d60f4e7c7)" style="fill:#2e7bf7;stroke:#2e7bf7;stroke-width:1.5;stroke-linejoin:miter"/><path id="patch_25" d="m196.922 199.082 6.527 11.689-4.154.788 6.765 35.652-.012.002-6.765-35.652-4.153.788z" clip-path="url(#p5d60f4e7c7)" style="fill:#2e7bf7;stroke:#2e7bf7;stroke-width:1.5;stroke-linejoin:miter"/><path id="patch_26" d="m185.76 140.256.006-.001L206.06 247.21l-.012.002-20.294-106.956z" clip-path="url(#p5d60f4e7c7)" style="fill:#2e7bf7;stroke:#2e7bf7;stroke-width:1.5;stroke-linejoin:miter"/><path id="patch_27" d="m198.06 198.854 6.752 11.56-4.137.869 7.455 35.514-.012.002-7.455-35.514-4.137.869z" clip-path="url(#p5d60f4e7c7)" style="fill:#2e7bf7;stroke:#2e7bf7;stroke-width:1.5;stroke-linejoin:miter"/><path id="patch_28" d="m185.76 140.256.006-.001 22.364 106.542-.012.002-22.364-106.542z" clip-path="url(#p5d60f4e7c7)" style="fill:#2e7bf7;stroke:#2e7bf7;stroke-width:1.5;stroke-linejoin:miter"/><path id="patch_29" d="m199.258 198.59 6.988 11.42-4.119.952 8.18 35.354-.01.003-8.182-35.354-4.118.953z" clip-path="url(#p5d60f4e7c7)" style="fill:#2e7bf7;stroke:#2e7bf7;stroke-width:1.5;stroke-linejoin:miter"/><path id="patch_30" d="m185.76 140.256.006-.001 24.542 106.061-.012.003-24.542-106.062z" clip-path="url(#p5d60f4e7c7)" style="fill:#2e7bf7;stroke:#2e7bf7;stroke-width:1.5;stroke-linejoin:miter"/><path id="patch_31" d="m200.525 198.282 7.235 11.265-4.097 1.042 8.948 35.168-.011.003-8.949-35.168-4.097 1.043z" clip-path="url(#p5d60f4e7c7)" style="fill:#2e7bf7;stroke:#2e7bf7;stroke-width:1.5;stroke-linejoin:miter"/><path id="patch_32" d="m185.76 140.256.006-.001 26.845 105.502-.011.003-26.846-105.503z" clip-path="url(#p5d60f4e7c7)" style="fill:#2e7bf7;stroke:#2e7bf7;stroke-width:1.5;stroke-linejoin:miter"/><path id="patch_33" d="m201.871 197.923 7.495 11.093-4.071 1.138 9.764 34.95-.011.002-9.765-34.95-4.072 1.138z" clip-path="url(#p5d60f4e7c7)" style="fill:#2e7bf7;stroke:#2e7bf7;stroke-width:1.5;stroke-linejoin:miter"/><path id="patch_34" d="m185.76 140.256.006-.002 29.293 104.85-.011.002-29.294-104.848z" clip-path="url(#p5d60f4e7c7)" style="fill:#2e7bf7;stroke:#2e7bf7;stroke-width:1.5;stroke-linejoin:miter"/><path id="patch_35" d="m203.31 197.502 7.77 10.902-4.043 1.239 10.636 34.694-.011.004-10.636-34.695-4.042 1.24z" clip-path="url(#p5d60f4e7c7)" style="fill:#2e7bf7;stroke:#2e7bf7;stroke-width:1.5;stroke-linejoin:miter"/><path id="patch_36" d="m185.76 140.256.006-.002 31.907 104.083-.011.004-31.908-104.083z" clip-path="url(#p5d60f4e7c7)" style="fill:#2e7bf7;stroke:#2e7bf7;stroke-width:1.5;stroke-linejoin:miter"/><path id="patch_37" d="m204.853 197.006 8.062 10.687-4.007 1.348 11.572 34.394-.012.004-11.571-34.394-4.007 1.348z" clip-path="url(#p5d60f4e7c7)" style="fill:#2c7ef7;stroke:#2c7ef7;stroke-width:1.5;stroke-linejoin:miter"/><path id="patch_38" d="m185.76 140.256.006-.002 34.714 103.181-.012.004-34.714-103.181z" clip-path="url(#p5d60f4e7c7)" style="fill:#2c7ef7;stroke:#2c7ef7;stroke-width:1.5;stroke-linejoin:miter"/><path id="patch_39" d="m206.519 196.417 8.374 10.446-3.965 1.465 12.581 34.038-.011.004-12.581-34.037-3.966 1.465z" clip-path="url(#p5d60f4e7c7)" style="fill:#2c7ef7;stroke:#2c7ef7;stroke-width:1.5;stroke-linejoin:miter"/><path id="patch_40" d="m185.76 140.256.006-.002 37.743 102.112-.011.004-37.744-102.112z" clip-path="url(#p5d60f4e7c7)" style="fill:#2c7ef7;stroke:#2c7ef7;stroke-width:1.5;stroke-linejoin:miter"/><path id="patch_41" d="m208.327 195.716 8.709 10.168-3.916 1.593 13.677 33.612-.011.005-13.677-33.612-3.916 1.593z" clip-path="url(#p5d60f4e7c7)" style="fill:#2c7ef7;stroke:#2c7ef7;stroke-width:1.5;stroke-linejoin:miter"/><path id="patch_42" d="m185.76 140.256.006-.002 41.031 100.835-.011.005-41.032-100.836z" clip-path="url(#p5d60f4e7c7)" style="fill:#2c7ef7;stroke:#2c7ef7;stroke-width:1.5;stroke-linejoin:miter"/><path id="patch_43" d="m210.301 194.87 9.068 9.85-3.856 1.733 14.873 33.1-.01.005-14.874-33.1-3.856 1.733z" clip-path="url(#p5d60f4e7c7)" style="fill:#2c7ef7;stroke:#2c7ef7;stroke-width:1.5;stroke-linejoin:miter"/><path id="patch_44" d="m185.76 140.256.006-.002 44.62 99.299-.01.005-44.622-99.3z" clip-path="url(#p5d60f4e7c7)" style="fill:#2c7ef7;stroke:#2c7ef7;stroke-width:1.5;stroke-linejoin:miter"/><path id="patch_45" d="m212.469 193.844 9.455 9.479-3.784 1.885 16.187 32.478-.01.005-16.188-32.477-3.784 1.886z" clip-path="url(#p5d60f4e7c7)" style="fill:#2981f6;stroke:#2981f6;stroke-width:1.5;stroke-linejoin:miter"/><path id="patch_46" d="m185.76 140.256.005-.003 48.562 97.433-.01.005-48.562-97.432z" clip-path="url(#p5d60f4e7c7)" style="fill:#2981f6;stroke:#2981f6;stroke-width:1.5;stroke-linejoin:miter"/><path id="patch_47" d="m214.862 192.583 9.873 9.042-3.695 2.055 17.638 31.713-.01.006-17.638-31.713-3.695 2.054z" clip-path="url(#p5d60f4e7c7)" style="fill:#2981f6;stroke:#2981f6;stroke-width:1.5;stroke-linejoin:miter"/><path id="patch_48" d="m185.76 140.256.005-.003 52.913 95.14-.01.006-52.913-95.14z" clip-path="url(#p5d60f4e7c7)" style="fill:#2981f6;stroke:#2981f6;stroke-width:1.5;stroke-linejoin:miter"/><path id="patch_49" d="m217.517 191.015 10.326 8.522-3.584 2.242 19.246 30.764-.01.006-19.247-30.763-3.583 2.242z" clip-path="url(#p5d60f4e7c7)" style="fill:#2884f6;stroke:#2884f6;stroke-width:1.5;stroke-linejoin:miter"/><path id="patch_50" d="m185.76 140.256.005-.003 57.74 92.29-.01.006-57.74-92.29z" clip-path="url(#p5d60f4e7c7)" style="fill:#2884f6;stroke:#2884f6;stroke-width:1.5;stroke-linejoin:miter"/><path id="patch_51" d="m220.476 189.04 10.813 7.893-3.444 2.451 21.04 29.566-.01.007-21.04-29.566-3.445 2.451z" clip-path="url(#p5d60f4e7c7)" style="fill:#2686f5;stroke:#2686f5;stroke-width:1.5;stroke-linejoin:miter"/><path id="patch_52" d="m185.76 140.256.005-.004 63.12 88.698-.01.007-63.12-88.697z" clip-path="url(#p5d60f4e7c7)" style="fill:#2686f5;stroke:#2686f5;stroke-width:1.5;stroke-linejoin:miter"/><path id="patch_53" d="m223.78 186.512 11.335 7.123-3.266 2.684 23.042 28.034-.01.008-23.042-28.034-3.266 2.685z" clip-path="url(#p5d60f4e7c7)" style="fill:#2489f5;stroke:#2489f5;stroke-width:1.5;stroke-linejoin:miter"/><path id="patch_54" d="m185.76 140.256.005-.004 69.126 84.101-.01.008-69.126-84.101z" clip-path="url(#p5d60f4e7c7)" style="fill:#2489f5;stroke:#2489f5;stroke-width:1.5;stroke-linejoin:miter"/><path id="patch_55" d="m227.46 183.222 11.884 6.166-3.033 2.944 25.273 26.04-.009.009-25.273-26.04-3.034 2.944z" clip-path="url(#p5d60f4e7c7)" style="fill:#218cf4;stroke:#218cf4;stroke-width:1.5;stroke-linejoin:miter"/><path id="patch_56" d="m185.76 140.256.004-.004 75.82 78.12-.009.009-75.82-78.12z" clip-path="url(#p5d60f4e7c7)" style="fill:#218cf4;stroke:#218cf4;stroke-width:1.5;stroke-linejoin:miter"/><path id="patch_57" d="m231.524 178.866 12.437 4.954-2.726 3.231 27.735 23.4-.007.01-27.736-23.4-2.726 3.23z" clip-path="url(#p5d60f4e7c7)" style="fill:#1e91f3;stroke:#1e91f3;stroke-width:1.5;stroke-linejoin:miter"/><path id="patch_58" d="m185.76 140.256.004-.005 83.206 70.2-.007.01-83.207-70.2z" clip-path="url(#p5d60f4e7c7)" style="fill:#1e91f3;stroke:#1e91f3;stroke-width:1.5;stroke-linejoin:miter"/><path id="patch_59" d="m235.893 172.994 12.949 3.4-2.312 3.539 30.384 19.84-.007.01-30.383-19.84-2.312 3.54z" clip-path="url(#p5d60f4e7c7)" style="fill:#1898f2;stroke:#1898f2;stroke-width:1.5;stroke-linejoin:miter"/><path id="patch_60" d="m185.76 140.256.003-.005 91.15 59.523-.006.01-91.15-59.523z" clip-path="url(#p5d60f4e7c7)" style="fill:#1898f2;stroke:#1898f2;stroke-width:1.5;stroke-linejoin:miter"/><path id="patch_61" d="m240.304 164.953 13.317 1.383-1.744 3.85 33.057 14.969-.005.01-33.057-14.967-1.744 3.85z" clip-path="url(#p5d60f4e7c7)" style="fill:#0ea5ef;stroke:#0ea5ef;stroke-width:1.5;stroke-linejoin:miter"/><path id="patch_62" d="m185.76 140.256.002-.006 99.172 44.905-.005.01-99.171-44.903z" clip-path="url(#p5d60f4e7c7)" style="fill:#0ea5ef;stroke:#0ea5ef;stroke-width:1.5;stroke-linejoin:miter"/><path id="patch_63" d="m244.07 153.86 13.33-1.237-.96 4.117 35.338 8.245-.003.012-35.339-8.245-.96 4.117z" clip-path="url(#p5d60f4e7c7)" style="fill:#02b7eb;stroke:#02b7eb;stroke-width:1.5;stroke-linejoin:miter"/><path id="patch_64" d="m185.76 140.256.001-.006 106.017 24.735-.003.012-106.016-24.735z" clip-path="url(#p5d60f4e7c7)" style="fill:#02b7eb;stroke:#02b7eb;stroke-width:1.5;stroke-linejoin:miter"/><path id="patch_65" d="m245.616 138.737 12.59-4.554.107 4.226 36.276-.92v.012l-36.276.92.107 4.227z" clip-path="url(#p5d60f4e7c7)" style="fill:#22d6e0;stroke:#22d6e0;stroke-width:1.5;stroke-linejoin:miter"/><path id="patch_66" d="M185.76 140.256v-.006l108.829-2.761v.012l-108.829 2.761z" clip-path="url(#p5d60f4e7c7)" style="fill:#22d6e0;stroke:#22d6e0;stroke-width:1.5;stroke-linejoin:miter"/><path id="patch_67" d="m241.841 119.282 10.413-8.415 1.481 3.96 33.989-12.712.004.011-33.989 12.712 1.481 3.96z" clip-path="url(#p5d60f4e7c7)" style="fill:#6efebe;stroke:#6efebe;stroke-width:1.5;stroke-linejoin:miter"/><path id="patch_68" d="m185.76 140.256-.002-.006 101.966-38.135.004.011-101.966 38.136z" clip-path="url(#p5d60f4e7c7)" style="fill:#6efebe;stroke:#6efebe;stroke-width:1.5;stroke-linejoin:miter"/><path id="patch_69" d="m228.162 97.982 6.006-11.965 2.984 2.993 25.699-25.62.008.008-25.698 25.621 2.985 2.994z" clip-path="url(#p5d60f4e7c7)" style="fill:#ff2914;stroke:#ff2914;stroke-width:1.5;stroke-linejoin:miter"/><path id="patch_70" d="m185.76 140.256-.004-.004L262.85 63.39l.008.008-77.095 76.862z" clip-path="url(#p5d60f4e7c7)" style="fill:#ff2914;stroke:#ff2914;stroke-width:1.5;stroke-linejoin:miter"/><path id="patch_71" d="m201.998 82.625-.63-13.373 4.068 1.146 9.841-34.928.012.003-9.841 34.928 4.07 1.147z" clip-path="url(#p5d60f4e7c7)" style="fill:red;stroke:red;stroke-width:1.5;stroke-linejoin:miter"/><path id="patch_72" d="m185.76 140.256-.006-.002L215.277 35.47l.012.003-29.523 104.785z" clip-path="url(#p5d60f4e7c7)" style="fill:red;stroke:red;stroke-width:1.5;stroke-linejoin:miter"/><path id="patch_73" d="m169.522 82.625-7.52-11.077 4.07-1.147-9.841-34.928.012-.003 9.84 34.928 4.07-1.146z" clip-path="url(#p5d60f4e7c7)" style="fill:red;stroke:red;stroke-width:1.5;stroke-linejoin:miter"/><path id="patch_74" d="m185.76 140.256-.006.002-29.523-104.785.012-.003 29.523 104.784z" clip-path="url(#p5d60f4e7c7)" style="fill:red;stroke:red;stroke-width:1.5;stroke-linejoin:miter"/><path id="patch_75" d="m143.358 97.982-11.984-5.97 2.985-2.993-25.698-25.62.008-.01 25.699 25.621 2.984-2.993z" clip-path="url(#p5d60f4e7c7)" style="fill:#ff2914;stroke:#ff2914;stroke-width:1.5;stroke-linejoin:miter"/><path id="patch_76" d="m185.76 140.256-.004.004-77.095-76.862.008-.008 77.095 76.862z" clip-path="url(#p5d60f4e7c7)" style="fill:#ff2914;stroke:#ff2914;stroke-width:1.5;stroke-linejoin:miter"/><path id="patch_77" d="m129.679 119.282-13.38-.484 1.482-3.96-33.99-12.712.005-.01 33.989 12.71 1.48-3.959z" clip-path="url(#p5d60f4e7c7)" style="fill:#6efebe;stroke:#6efebe;stroke-width:1.5;stroke-linejoin:miter"/><path id="patch_78" d="m185.76 140.256-.002.006-101.966-38.136.004-.01 101.966 38.134z" clip-path="url(#p5d60f4e7c7)" style="fill:#6efebe;stroke:#6efebe;stroke-width:1.5;stroke-linejoin:miter"/><path id="patch_79" d="m125.904 138.737-12.804 3.91.107-4.226-36.276-.92v-.012l36.276.92.108-4.226z" clip-path="url(#p5d60f4e7c7)" style="fill:#22d6e0;stroke:#22d6e0;stroke-width:1.5;stroke-linejoin:miter"/><path id="patch_80" d="M185.76 140.256v.006l-108.83-2.76.001-.013 108.83 2.761z" clip-path="url(#p5d60f4e7c7)" style="fill:#22d6e0;stroke:#22d6e0;stroke-width:1.5;stroke-linejoin:miter"/><path id="patch_81" d="m127.45 153.86-11.406 7.009-.96-4.117-35.34 8.245-.002-.012 35.339-8.245-.96-4.117z" clip-path="url(#p5d60f4e7c7)" style="fill:#02b7eb;stroke:#02b7eb;stroke-width:1.5;stroke-linejoin:miter"/><path id="patch_82" d="m185.76 140.256.001.006-106.016 24.735-.003-.012 106.017-24.735z" clip-path="url(#p5d60f4e7c7)" style="fill:#02b7eb;stroke:#02b7eb;stroke-width:1.5;stroke-linejoin:miter"/><path id="patch_83" d="m131.216 164.953-9.824 9.096-1.744-3.851-33.057 14.968-.005-.011 33.057-14.968-1.744-3.851z" clip-path="url(#p5d60f4e7c7)" style="fill:#0ea5ef;stroke:#0ea5ef;stroke-width:1.5;stroke-linejoin:miter"/><path id="patch_84" d="m185.76 140.256.002.006-99.17 44.904-.006-.011 99.172-44.905z" clip-path="url(#p5d60f4e7c7)" style="fill:#0ea5ef;stroke:#0ea5ef;stroke-width:1.5;stroke-linejoin:miter"/><path id="patch_85" d="m135.627 172.994-8.32 10.489-2.31-3.54-30.384 19.84-.007-.01 30.384-19.84-2.312-3.54z" clip-path="url(#p5d60f4e7c7)" style="fill:#1898f2;stroke:#1898f2;stroke-width:1.5;stroke-linejoin:miter"/><path id="patch_86" d="m185.76 140.256.003.005-91.15 59.523-.007-.01 91.15-59.523z" clip-path="url(#p5d60f4e7c7)" style="fill:#1898f2;stroke:#1898f2;stroke-width:1.5;stroke-linejoin:miter"/><path id="patch_87" d="m139.996 178.866-6.977 11.426-2.726-3.231-27.736 23.4-.007-.01 27.735-23.4-2.726-3.23z" clip-path="url(#p5d60f4e7c7)" style="fill:#1e91f3;stroke:#1e91f3;stroke-width:1.5;stroke-linejoin:miter"/><path id="patch_88" d="m185.76 140.256.004.005-83.207 70.2-.007-.01 83.206-70.2z" clip-path="url(#p5d60f4e7c7)" style="fill:#1e91f3;stroke:#1e91f3;stroke-width:1.5;stroke-linejoin:miter"/><path id="patch_89" d="m144.06 183.222-5.808 12.063-3.034-2.945-25.273 26.04-.009-.008 25.273-26.04-3.033-2.944z" clip-path="url(#p5d60f4e7c7)" style="fill:#218cf4;stroke:#218cf4;stroke-width:1.5;stroke-linejoin:miter"/><path id="patch_90" d="m185.76 140.256.004.004-75.82 78.12-.008-.008 75.82-78.12z" clip-path="url(#p5d60f4e7c7)" style="fill:#218cf4;stroke:#218cf4;stroke-width:1.5;stroke-linejoin:miter"/><path id="patch_91" d="m147.74 186.512-4.793 12.5-3.266-2.685-23.042 28.034-.01-.008 23.042-28.034-3.266-2.684z" clip-path="url(#p5d60f4e7c7)" style="fill:#2489f5;stroke:#2489f5;stroke-width:1.5;stroke-linejoin:miter"/><path id="patch_92" d="m185.76 140.256.005.004-69.126 84.1-.01-.007 69.126-84.1z" clip-path="url(#p5d60f4e7c7)" style="fill:#2489f5;stroke:#2489f5;stroke-width:1.5;stroke-linejoin:miter"/><path id="patch_93" d="m151.044 189.04-3.914 12.802-3.445-2.45-21.04 29.565-.01-.007 21.04-29.566-3.444-2.45z" clip-path="url(#p5d60f4e7c7)" style="fill:#2686f5;stroke:#2686f5;stroke-width:1.5;stroke-linejoin:miter"/><path id="patch_94" d="m185.76 140.256.005.004-63.12 88.697-.01-.007 63.12-88.698z" clip-path="url(#p5d60f4e7c7)" style="fill:#2686f5;stroke:#2686f5;stroke-width:1.5;stroke-linejoin:miter"/><path id="patch_95" d="m154.003 191.015-3.148 13.013-3.583-2.242-19.247 30.763-.01-.006 19.246-30.764-3.584-2.242z" clip-path="url(#p5d60f4e7c7)" style="fill:#2884f6;stroke:#2884f6;stroke-width:1.5;stroke-linejoin:miter"/><path id="patch_96" d="m185.76 140.256.005.003-57.74 92.29-.01-.006 57.74-92.29z" clip-path="url(#p5d60f4e7c7)" style="fill:#2884f6;stroke:#2884f6;stroke-width:1.5;stroke-linejoin:miter"/><path id="patch_97" d="m156.658 192.583-2.473 13.157-3.695-2.054-17.637 31.713-.01-.006 17.637-31.713-3.695-2.055z" clip-path="url(#p5d60f4e7c7)" style="fill:#2981f6;stroke:#2981f6;stroke-width:1.5;stroke-linejoin:miter"/><path id="patch_98" d="m185.76 140.256.005.003-52.912 95.14-.01-.006 52.912-95.14z" clip-path="url(#p5d60f4e7c7)" style="fill:#2981f6;stroke:#2981f6;stroke-width:1.5;stroke-linejoin:miter"/><path id="patch_99" d="m159.051 193.844-1.876 13.256-3.784-1.886-16.187 32.477-.011-.005 16.187-32.478-3.784-1.885z" clip-path="url(#p5d60f4e7c7)" style="fill:#2981f6;stroke:#2981f6;stroke-width:1.5;stroke-linejoin:miter"/><path id="patch_100" d="m185.76 140.256.005.003-48.561 97.432-.011-.005 48.562-97.433z" clip-path="url(#p5d60f4e7c7)" style="fill:#2981f6;stroke:#2981f6;stroke-width:1.5;stroke-linejoin:miter"/><path id="patch_101" d="m161.219 194.87-1.345 13.32-3.856-1.732-14.873 33.1-.011-.005 14.873-33.1-3.856-1.733z" clip-path="url(#p5d60f4e7c7)" style="fill:#2c7ef7;stroke:#2c7ef7;stroke-width:1.5;stroke-linejoin:miter"/><path id="patch_102" d="m185.76 140.256.006.002-44.621 99.3-.011-.005 44.62-99.3z" clip-path="url(#p5d60f4e7c7)" style="fill:#2c7ef7;stroke:#2c7ef7;stroke-width:1.5;stroke-linejoin:miter"/><path id="patch_103" d="m163.193 195.716-.866 13.36-3.916-1.594-13.677 33.612-.011-.005 13.677-33.612-3.916-1.593z" clip-path="url(#p5d60f4e7c7)" style="fill:#2c7ef7;stroke:#2c7ef7;stroke-width:1.5;stroke-linejoin:miter"/><path id="patch_104" d="m185.76 140.256.006.002-41.032 100.836-.011-.005 41.031-100.835z" clip-path="url(#p5d60f4e7c7)" style="fill:#2c7ef7;stroke:#2c7ef7;stroke-width:1.5;stroke-linejoin:miter"/><path id="patch_105" d="m165.001 196.417-.432 13.381-3.966-1.465-12.58 34.037-.012-.004 12.581-34.038-3.965-1.465z" clip-path="url(#p5d60f4e7c7)" style="fill:#2c7ef7;stroke:#2c7ef7;stroke-width:1.5;stroke-linejoin:miter"/><path id="patch_106" d="m185.76 140.256.006.002-37.744 102.112-.011-.004 37.743-102.112z" clip-path="url(#p5d60f4e7c7)" style="fill:#2c7ef7;stroke:#2c7ef7;stroke-width:1.5;stroke-linejoin:miter"/><path id="patch_107" d="m166.667 197.006-.037 13.387-4.007-1.348-11.571 34.394-.012-.004 11.572-34.394-4.007-1.348z" clip-path="url(#p5d60f4e7c7)" style="fill:#2c7ef7;stroke:#2c7ef7;stroke-width:1.5;stroke-linejoin:miter"/><path id="patch_108" d="m185.76 140.256.006.002-34.714 103.18-.012-.003 34.714-103.18z" clip-path="url(#p5d60f4e7c7)" style="fill:#2c7ef7;stroke:#2c7ef7;stroke-width:1.5;stroke-linejoin:miter"/><path id="patch_109" d="m168.21 197.502.326 13.384-4.042-1.24-10.636 34.695-.011-.004 10.636-34.694-4.042-1.24z" clip-path="url(#p5d60f4e7c7)" style="fill:#2e7bf7;stroke:#2e7bf7;stroke-width:1.5;stroke-linejoin:miter"/><path id="patch_110" d="m185.76 140.256.006.002-31.908 104.083-.011-.004 31.907-104.083z" clip-path="url(#p5d60f4e7c7)" style="fill:#2e7bf7;stroke:#2e7bf7;stroke-width:1.5;stroke-linejoin:miter"/><path id="patch_111" d="m169.649 197.923.66 13.371-4.072-1.137-9.765 34.95-.011-.004 9.764-34.95-4.071-1.137z" clip-path="url(#p5d60f4e7c7)" style="fill:#2e7bf7;stroke:#2e7bf7;stroke-width:1.5;stroke-linejoin:miter"/><path id="patch_112" d="m185.76 140.256.006.002-29.294 104.848-.011-.003 29.293-104.849z" clip-path="url(#p5d60f4e7c7)" style="fill:#2e7bf7;stroke:#2e7bf7;stroke-width:1.5;stroke-linejoin:miter"/><path id="patch_113" d="m170.995 198.282.97 13.353-4.096-1.043-8.949 35.168-.011-.003 8.948-35.168-4.097-1.042z" clip-path="url(#p5d60f4e7c7)" style="fill:#2e7bf7;stroke:#2e7bf7;stroke-width:1.5;stroke-linejoin:miter"/><path id="patch_114" d="m185.76 140.256.006.001L158.92 245.76l-.011-.003 26.845-105.502z" clip-path="url(#p5d60f4e7c7)" style="fill:#2e7bf7;stroke:#2e7bf7;stroke-width:1.5;stroke-linejoin:miter"/><path id="patch_115" d="m172.262 198.59 1.261 13.328-4.118-.953-8.181 35.354-.012-.003 8.18-35.354-4.118-.953z" clip-path="url(#p5d60f4e7c7)" style="fill:#2e7bf7;stroke:#2e7bf7;stroke-width:1.5;stroke-linejoin:miter"/><path id="patch_116" d="m185.76 140.256.006.001-24.542 106.062-.012-.003 24.542-106.061z" clip-path="url(#p5d60f4e7c7)" style="fill:#2e7bf7;stroke:#2e7bf7;stroke-width:1.5;stroke-linejoin:miter"/><path id="patch_117" d="m173.46 198.854 1.534 13.3-4.137-.869-7.455 35.514-.012-.002 7.455-35.514-4.137-.869z" clip-path="url(#p5d60f4e7c7)" style="fill:#2e7bf7;stroke:#2e7bf7;stroke-width:1.5;stroke-linejoin:miter"/><path id="patch_118" d="m185.76 140.256.006.001L163.402 246.8l-.012-.002 22.364-106.542z" clip-path="url(#p5d60f4e7c7)" style="fill:#2e7bf7;stroke:#2e7bf7;stroke-width:1.5;stroke-linejoin:miter"/><path id="patch_119" d="m174.598 199.082 1.792 13.267-4.153-.788-6.765 35.652-.012-.002 6.765-35.652-4.154-.788z" clip-path="url(#p5d60f4e7c7)" style="fill:#2e7bf7;stroke:#2e7bf7;stroke-width:1.5;stroke-linejoin:miter"/><path id="patch_120" d="m185.76 140.256.006.001-20.294 106.956-.012-.002 20.294-106.956z" clip-path="url(#p5d60f4e7c7)" style="fill:#2e7bf7;stroke:#2e7bf7;stroke-width:1.5;stroke-linejoin:miter"/><path id="patch_121" d="m175.685 199.277 2.036 13.233-4.167-.712-6.106 35.77-.012-.001 6.106-35.77-4.167-.712z" clip-path="url(#p5d60f4e7c7)" style="fill:#2e7bf7;stroke:#2e7bf7;stroke-width:1.5;stroke-linejoin:miter"/><path id="patch_122" d="m185.76 140.256.006.001-18.318 107.312-.012-.002 18.318-107.312z" clip-path="url(#p5d60f4e7c7)" style="fill:#2e7bf7;stroke:#2e7bf7;stroke-width:1.5;stroke-linejoin:miter"/><path id="patch_123" d="m176.726 199.446 2.27 13.194-4.18-.638-5.475 35.873-.012-.002L174.804 212l-4.179-.637z" clip-path="url(#p5d60f4e7c7)" style="fill:#2e7bf7;stroke:#2e7bf7;stroke-width:1.5;stroke-linejoin:miter"/><path id="patch_124" d="M185.76 140.256h.006l-16.425 107.619-.012-.002 16.425-107.618z" clip-path="url(#p5d60f4e7c7)" style="fill:#2e7bf7;stroke:#2e7bf7;stroke-width:1.5;stroke-linejoin:miter"/><path id="patch_125" d="m177.73 199.59 2.491 13.154-4.19-.567-4.866 35.96-.012-.001 4.867-35.96-4.19-.568z" clip-path="url(#p5d60f4e7c7)" style="fill:#2e7bf7;stroke:#2e7bf7;stroke-width:1.5;stroke-linejoin:miter"/><path id="patch_126" d="M185.76 140.256h.006l-14.601 107.881-.012-.001 14.601-107.88z" clip-path="url(#p5d60f4e7c7)" style="fill:#2e7bf7;stroke:#2e7bf7;stroke-width:1.5;stroke-linejoin:miter"/><path id="patch_127" d="m178.698 199.713 2.707 13.112-4.198-.499-4.28 36.035-.012-.001 4.28-36.035-4.198-.499z" clip-path="url(#p5d60f4e7c7)" style="fill:#2e7bf7;stroke:#2e7bf7;stroke-width:1.5;stroke-linejoin:miter"/><path id="patch_128" d="M185.76 140.256h.006l-12.84 108.105-.011-.001 12.839-108.105z" clip-path="url(#p5d60f4e7c7)" style="fill:#2e7bf7;stroke:#2e7bf7;stroke-width:1.5;stroke-linejoin:miter"/><path id="patch_129" d="m179.64 199.818 2.912 13.067-4.205-.433-3.71 36.098h-.012l3.71-36.099-4.205-.432z" clip-path="url(#p5d60f4e7c7)" style="fill:#2e7bf7;stroke:#2e7bf7;stroke-width:1.5;stroke-linejoin:miter"/><path id="patch_130" d="M185.76 140.256h.006L174.637 248.55h-.012l11.129-108.295z" clip-path="url(#p5d60f4e7c7)" style="fill:#2e7bf7;stroke:#2e7bf7;stroke-width:1.5;stroke-linejoin:miter"/><path id="patch_131" d="m180.556 199.905 3.114 13.02-4.212-.367-3.154 36.15h-.012l3.154-36.151-4.211-.368z" clip-path="url(#p5d60f4e7c7)" style="fill:#2e7bf7;stroke:#2e7bf7;stroke-width:1.5;stroke-linejoin:miter"/><path id="patch_132" d="M185.76 140.256h.006l-9.462 108.453-.012-.001 9.462-108.453z" clip-path="url(#p5d60f4e7c7)" style="fill:#2e7bf7;stroke:#2e7bf7;stroke-width:1.5;stroke-linejoin:miter"/><path id="patch_133" d="m181.453 199.976 3.309 12.973-4.217-.305-2.61 36.194h-.013l2.61-36.194-4.216-.305z" clip-path="url(#p5d60f4e7c7)" style="fill:#2e7bf7;stroke:#2e7bf7;stroke-width:1.5;stroke-linejoin:miter"/><path id="patch_134" d="M185.76 140.256h.006l-7.832 108.582h-.012l7.832-108.582z" clip-path="url(#p5d60f4e7c7)" style="fill:#2e7bf7;stroke:#2e7bf7;stroke-width:1.5;stroke-linejoin:miter"/><path id="patch_135" d="m182.333 200.033 3.5 12.922-4.22-.242-2.078 36.229h-.012l2.077-36.23-4.22-.241z" clip-path="url(#p5d60f4e7c7)" style="fill:#2e7bf7;stroke:#2e7bf7;stroke-width:1.5;stroke-linejoin:miter"/><path id="patch_136" d="M185.76 140.256h.006l-6.23 108.686h-.013l6.231-108.686z" clip-path="url(#p5d60f4e7c7)" style="fill:#2e7bf7;stroke:#2e7bf7;stroke-width:1.5;stroke-linejoin:miter"/><path id="patch_137" d="m183.2 200.076 3.688 12.87-4.224-.18-1.551 36.255h-.012l1.55-36.256-4.223-.18z" clip-path="url(#p5d60f4e7c7)" style="fill:#2e7bf7;stroke:#2e7bf7;stroke-width:1.5;stroke-linejoin:miter"/><path id="patch_138" d="M185.76 140.256h.006l-4.653 108.765h-.012l4.653-108.765z" clip-path="url(#p5d60f4e7c7)" style="fill:#2e7bf7;stroke:#2e7bf7;stroke-width:1.5;stroke-linejoin:miter"/><path id="patch_139" d="m184.059 200.107 3.871 12.816-4.226-.12-1.03 36.273h-.013l1.031-36.273-4.226-.12z" clip-path="url(#p5d60f4e7c7)" style="fill:#2e7bf7;stroke:#2e7bf7;stroke-width:1.5;stroke-linejoin:miter"/><path id="patch_140" d="M185.76 140.256h.006l-3.093 108.82h-.012l3.093-108.82z" clip-path="url(#p5d60f4e7c7)" style="fill:#2e7bf7;stroke:#2e7bf7;stroke-width:1.5;stroke-linejoin:miter"/><path id="patch_141" d="m184.911 200.125 4.053 12.76-4.227-.06-.515 36.284h-.012l.515-36.284-4.227-.06z" clip-path="url(#p5d60f4e7c7)" style="fill:#3079f7;stroke:#3079f7;stroke-width:1.5;stroke-linejoin:miter"/><path id="patch_142" d="M185.76 140.256h.006l-1.544 108.853h-.012l1.544-108.853z" clip-path="url(#p5d60f4e7c7)" style="fill:#3079f7;stroke:#3079f7;stroke-width:1.5;stroke-linejoin:miter"/><g id="PathCollection_1"><defs><path id="m77a0b2bcef" d="M0 5A5 5 0 1 0 0-5 5 5 0 0 0 0 5z" style="stroke:#000"/></defs><g clip-path="url(#p5d60f4e7c7)"><use xlink:href="#m77a0b2bcef" x="185.76" y="140.256" style="stroke:#000"/></g></g><path id="Quiver_1" d="M183.617 140.256V56.12h-6.428l8.571-19.285 8.57 19.285h-6.427v84.136z" clip-path="url(#p5d60f4e7c7)"/><g id="text_1" transform="matrix(.1 0 0 -.1 246.24 261.216)"><defs><path id="DejaVuSans-Bold-53" d="M3834 4519v-988q-384 172-750 259-365 88-690 88-431 0-638-119-206-118-206-368 0-188 139-293 139-104 505-179l512-103q778-157 1106-476 329-318 329-906 0-771-458-1148T2284-91q-443 0-890 85-447 84-894 250v1015q447-237 864-358 417-120 805-120 394 0 603 131 209 132 209 376 0 218-142 337t-567 213l-466 103q-700 150-1024 478-323 328-323 884 0 697 450 1072t1294 375q385 0 791-58t840-173" transform="scale(.01563)"/><path id="DejaVuSans-Bold-6f" d="M2203 2784q-372 0-567-267t-195-770 195-771q195-267 567-267 366 0 559 267 194 268 194 771t-194 770q-193 267-559 267m0 800q903 0 1411-488 508-487 508-1349 0-863-508-1351Q3106-91 2203-91q-906 0-1417 487-511 488-511 1351 0 862 511 1349 511 488 1417 488" transform="scale(.01563)"/><path id="DejaVuSans-Bold-75" d="M500 1363v2137h1125v-350q0-284-3-714t-3-573q0-422 22-608t75-271q68-109 179-169 111-59 255-59 350 0 550 269t200 747v1728h1119V0H2900v506q-253-306-536-452-283-145-623-145-607 0-924 372T500 1363" transform="scale(.01563)"/><path id="DejaVuSans-Bold-72" d="M3138 2547q-147 69-293 101-145 33-292 33-431 0-664-277-233-276-233-791V0H538v3500h1118v-575q216 344 495 501 280 158 671 158 56 0 121-5 66-4 191-20z" transform="scale(.01563)"/><path id="DejaVuSans-Bold-63" d="M3366 3391v-913q-228 156-458 231t-477 75q-468 0-729-273t-261-764 261-765q261-273 729-273 263 0 499 78 236 79 436 232V103Q3103 6 2833-42q-270-49-542-49-947 0-1482 486-534 486-534 1352t534 1351q535 486 1482 486 275 0 542-48t533-145" transform="scale(.01563)"/><path id="DejaVuSans-Bold-65" d="M4031 1759v-318H1416q40-394 284-591t681-197q353 0 723 105 371 105 762 317V213Q3469 63 3072-14t-794-77q-950 0-1477 483-526 483-526 1355 0 856 517 1346 517 491 1424 491 825 0 1320-497 495-496 495-1328m-1150 372q0 319-186 514-186 196-486 196-325 0-528-183t-253-527z" transform="scale(.01563)"/><path id="DejaVuSans-Bold-76" d="M97 3500h1119l872-2419 868 2419h1122L2700 0H1472z" transform="scale(.01563)"/><path id="DejaVuSans-Bold-6c" d="M538 4863h1118V0H538z" transform="scale(.01563)"/><path id="DejaVuSans-Bold-69" d="M538 3500h1118V0H538zm0 1363h1118v-913H538z" transform="scale(.01563)"/><path id="DejaVuSans-Bold-74" d="M1759 4494v-994h1154v-800H1759V1216q0-244 97-330t385-86h575V0h-960q-662 0-939 276-276 277-276 940v1484H84v800h557v994z" transform="scale(.01563)"/><path id="DejaVuSans-Bold-79" d="M78 3500h1119l941-2375 800 2375h1118L2584-331q-221-585-517-817-295-233-779-233H641v734h350q284 0 413 91 130 90 202 325l32 97z" transform="scale(.01563)"/><path id="DejaVuSans-Bold-3d" d="M678 3084h4006v-734H678zm0-1421h4006V922H678z" transform="scale(.01563)"/><path id="DejaVuSans-Bold-30" d="M2944 2338q0 875-164 1232-164 358-552 358-387 0-553-358-166-357-166-1232 0-885 166-1248 166-362 553-362 385 0 550 362 166 363 166 1248m1203-10q0-1159-500-1789T2228-91q-922 0-1422 630T306 2328q0 1163 500 1792 500 630 1422 630 919 0 1419-630 500-629 500-1792" transform="scale(.01563)"/><path id="DejaVuSans-Bold-2e" d="M653 1209h1125V0H653z" transform="scale(.01563)"/><path id="DejaVuSans-Bold-39" d="M641 103v863q287-135 549-202 263-67 519-67 538 0 838 298 300 299 353 886-212-156-453-234t-522-78q-716 0-1155 417T331 3084q0 754 489 1207t1311 453q913 0 1413-616 500-615 500-1740 0-1157-585-1818Q2875-91 1856-91q-328 0-628 49Q928 6 641 103m1484 2247q316 0 475 204 159 205 159 615 0 406-159 612-159 207-475 207t-475-207q-159-206-159-612 0-410 159-615 159-204 475-204" transform="scale(.01563)"/><path id="DejaVuSans-Bold-35" d="M678 4666h2991v-885H1638v-722q137 38 276 58 139 21 289 21 853 0 1328-427t475-1189q0-756-517-1185Q2972-91 2053-91q-397 0-786 77T494 219v947q381-219 723-329 342-109 646-109 437 0 688 214 252 214 252 580 0 369-252 581-251 213-688 213-260 0-554-68-293-67-631-207z" transform="scale(.01563)"/></defs><use xlink:href="#DejaVuSans-Bold-53"/><use xlink:href="#DejaVuSans-Bold-6f" x="72.021"/><use xlink:href="#DejaVuSans-Bold-75" x="140.723"/><use xlink:href="#DejaVuSans-Bold-72" x="211.914"/><use xlink:href="#DejaVuSans-Bold-63" x="261.23"/><use xlink:href="#DejaVuSans-Bold-65" x="320.508"/><use xlink:href="#DejaVuSans-Bold-76" x="423.145"/><use xlink:href="#DejaVuSans-Bold-65" x="488.33"/><use xlink:href="#DejaVuSans-Bold-6c" x="556.152"/><use xlink:href="#DejaVuSans-Bold-6f" x="590.43"/><use xlink:href="#DejaVuSans-Bold-63" x="659.131"/><use xlink:href="#DejaVuSans-Bold-69" x="718.408"/><use xlink:href="#DejaVuSans-Bold-74" x="752.686"/><use xlink:href="#DejaVuSans-Bold-79" x="800.488"/><use xlink:href="#DejaVuSans-Bold-3d" x="900.488"/><use xlink:href="#DejaVuSans-Bold-30" x="1019.092"/><use xlink:href="#DejaVuSans-Bold-2e" x="1088.672"/><use xlink:href="#DejaVuSans-Bold-39" x="1126.66"/><use xlink:href="#DejaVuSans-Bold-35" x="1196.24"/><use xlink:href="#DejaVuSans-Bold-63" x="1300.635"/></g></g></g><defs><clipPath id="p5d60f4e7c7"><path d="M7.2 7.2h357.12v266.112H7.2z"/></clipPath></defs></svg>