<?xml version="1.0" encoding="utf-8" standalone="no"?>
<!DOCTYPE svg PUBLIC "-//W3C//DTD SVG 1.1//EN"
  "http://www.w3.org/Graphics/SVG/1.1/DTD/svg11.dtd">
<svg xmlns:xlink="http://www.w3.org/1999/xlink" width="371.52pt" height="280.512pt" viewBox="0 0 371.52 280.512" xmlns="http://www.w3.org/2000/svg" version="1.1">
 <metadata>
  <rdf:RDF xmlns:dc="http://purl.org/dc/elements/1.1/" xmlns:cc="http://creativecommons.org/ns#" xmlns:rdf="http://www.w3.org/1999/02/22-rdf-syntax-ns#">
   <cc:Work>
    <dc:type rdf:resource="http://purl.org/dc/dcmitype/StillImage"/>
    <dc:date>2024-07-10T12:21:53.804567</dc:date>
    <dc:format>image/svg+xml</dc:format>
    <dc:creator>
     <cc:Agent>
      <dc:title>Matplotlib v3.9.0, https://matplotlib.org/</dc:title>
     </cc:Agent>
    </dc:creator>
   </cc:Work>
  </rdf:RDF>
 </metadata>
 <defs>
  <style type="text/css">*{stroke-linejoin: round; stroke-linecap: butt}</style>
 </defs>
 <g id="figure_1">
  <g id="axes_1">
   <g id="patch_1">
    <path d="M 185.76 217.6704 
L 188.1792 224.928 
L 185.766048 224.928 
L 185.766048 249.12 
L 185.753952 249.12 
L 185.753952 224.928 
L 183.3408 224.928 
z
" clip-path="url(#pfcd7840b25)" style="stroke: #000000; stroke-width: 1.5; stroke-linejoin: miter"/>
   </g>
   <g id="patch_2">
    <path d="M 185.76 140.256 
L 185.76 140.256 
L 185.766048 140.256 
L 185.766048 249.12 
L 185.753952 249.12 
L 185.753952 140.256 
L 185.76 140.256 
z
" clip-path="url(#pfcd7840b25)" style="stroke: #000000; stroke-width: 1.5; stroke-linejoin: miter"/>
   </g>
   <g id="patch_3">
    <path d="M 178.918107 217.367464 
L 180.686413 224.810473 
L 178.282704 224.597198 
L 176.144613 248.69453 
L 176.132564 248.693461 
L 178.270655 224.596129 
L 175.866947 224.382854 
z
" clip-path="url(#pfcd7840b25)" style="stroke: #000000; stroke-width: 1.5; stroke-linejoin: miter"/>
   </g>
   <g id="patch_4">
    <path d="M 185.76 140.256 
L 185.76 140.256 
L 185.766024 140.256535 
L 176.144613 248.69453 
L 176.132564 248.693461 
L 185.753976 140.255465 
L 185.76 140.256 
z
" clip-path="url(#pfcd7840b25)" style="stroke: #000000; stroke-width: 1.5; stroke-linejoin: miter"/>
   </g>
   <g id="patch_5">
    <path d="M 172.129762 216.461026 
L 173.233334 224.031192 
L 170.85788 223.606312 
L 166.598431 247.420382 
L 166.586524 247.418252 
L 170.845973 223.604182 
L 168.47052 223.179302 
z
" clip-path="url(#pfcd7840b25)" style="stroke: #000000; stroke-width: 1.5; stroke-linejoin: miter"/>
   </g>
   <g id="patch_6">
    <path d="M 185.76 140.256 
L 185.76 140.256 
L 185.765954 140.257065 
L 166.598431 247.420382 
L 166.586524 247.418252 
L 185.754046 140.254935 
L 185.76 140.256 
z
" clip-path="url(#pfcd7840b25)" style="stroke: #000000; stroke-width: 1.5; stroke-linejoin: miter"/>
   </g>
   <g id="patch_7">
    <path d="M 165.448091 214.95818 
L 165.878293 222.596256 
L 163.549686 221.963096 
L 157.202214 245.307527 
L 157.190542 245.304354 
L 163.538013 221.959922 
L 161.209406 221.326762 
z
" clip-path="url(#pfcd7840b25)" style="stroke: #000000; stroke-width: 1.5; stroke-linejoin: miter"/>
   </g>
   <g id="patch_8">
    <path d="M 185.76 140.256 
L 185.76 140.256 
L 185.765836 140.257587 
L 157.202214 245.307527 
L 157.190542 245.304354 
L 185.754164 140.254413 
L 185.76 140.256 
z
" clip-path="url(#pfcd7840b25)" style="stroke: #000000; stroke-width: 1.5; stroke-linejoin: miter"/>
   </g>
   <g id="patch_9">
    <path d="M 158.925389 212.870688 
L 158.678853 220.516897 
L 156.415317 219.680412 
L 148.029501 242.372502 
L 148.018155 242.368309 
L 156.403971 219.676219 
L 154.140435 218.839734 
z
" clip-path="url(#pfcd7840b25)" style="stroke: #000000; stroke-width: 1.5; stroke-linejoin: miter"/>
   </g>
   <g id="patch_10">
    <path d="M 185.76 140.256 
L 185.76 140.256 
L 185.765673 140.258096 
L 148.029501 242.372502 
L 148.018155 242.368309 
L 185.754327 140.253904 
L 185.76 140.256 
z
" clip-path="url(#pfcd7840b25)" style="stroke: #000000; stroke-width: 1.5; stroke-linejoin: miter"/>
   </g>
   <g id="patch_11">
    <path d="M 152.612703 210.214888 
L 151.69136 217.809387 
L 149.51061 216.776124 
L 139.15208 238.638276 
L 139.141149 238.633097 
L 149.499679 216.770945 
L 147.318929 215.737681 
z
" clip-path="url(#pfcd7840b25)" style="stroke: #000000; stroke-width: 1.5; stroke-linejoin: miter"/>
   </g>
   <g id="patch_12">
    <path d="M 185.76 140.256 
L 185.76 140.256 
L 185.765466 140.25859 
L 139.15208 238.638276 
L 139.141149 238.633097 
L 185.754534 140.25341 
L 185.76 140.256 
z
" clip-path="url(#pfcd7840b25)" style="stroke: #000000; stroke-width: 1.5; stroke-linejoin: miter"/>
   </g>
   <g id="patch_13">
    <path d="M 146.559441 207.011565 
L 144.9705 214.494917 
L 142.889604 213.272962 
L 130.639429 234.134076 
L 130.628998 234.127951 
L 142.879173 213.266837 
L 140.798277 212.044882 
z
" clip-path="url(#pfcd7840b25)" style="stroke: #000000; stroke-width: 1.5; stroke-linejoin: miter"/>
   </g>
   <g id="patch_14">
    <path d="M 185.76 140.256 
L 185.76 140.256 
L 185.765215 140.259063 
L 130.639429 234.134076 
L 130.628998 234.127951 
L 185.754785 140.252937 
L 185.76 140.256 
z
" clip-path="url(#pfcd7840b25)" style="stroke: #000000; stroke-width: 1.5; stroke-linejoin: miter"/>
   </g>
   <g id="patch_15">
    <path d="M 140.812976 203.285789 
L 138.568873 210.599427 
L 136.604116 209.198344 
L 122.558171 228.895153 
L 122.548323 228.88813 
L 136.594268 209.191321 
L 134.629511 207.790238 
z
" clip-path="url(#pfcd7840b25)" style="stroke: #000000; stroke-width: 1.5; stroke-linejoin: miter"/>
   </g>
   <g id="patch_16">
    <path d="M 185.76 140.256 
L 185.76 140.256 
L 185.764924 140.259511 
L 122.558171 228.895153 
L 122.548323 228.88813 
L 185.755076 140.252489 
L 185.76 140.256 
z
" clip-path="url(#pfcd7840b25)" style="stroke: #000000; stroke-width: 1.5; stroke-linejoin: miter"/>
   </g>
   <g id="patch_17">
    <path d="M 135.418282 199.06672 
L 132.536581 206.153404 
L 130.703341 204.584158 
L 114.971554 222.962508 
L 114.962365 222.954642 
L 130.694151 204.576292 
L 128.860911 203.007046 
z
" clip-path="url(#pfcd7840b25)" style="stroke: #000000; stroke-width: 1.5; stroke-linejoin: miter"/>
   </g>
   <g id="patch_18">
    <path d="M 185.76 140.256 
L 185.76 140.256 
L 185.764595 140.259933 
L 114.971554 222.962508 
L 114.962365 222.954642 
L 185.755405 140.252067 
L 185.76 140.256 
z
" clip-path="url(#pfcd7840b25)" style="stroke: #000000; stroke-width: 1.5; stroke-linejoin: miter"/>
   </g>
   <g id="patch_19">
    <path d="M 130.417581 194.387377 
L 126.920834 201.191644 
L 125.233458 199.466517 
L 107.938952 216.382572 
L 107.930494 216.373925 
L 125.225 199.45787 
L 123.537623 197.732743 
z
" clip-path="url(#pfcd7840b25)" style="stroke: #000000; stroke-width: 1.5; stroke-linejoin: miter"/>
   </g>
   <g id="patch_20">
    <path d="M 185.76 140.256 
L 185.76 140.256 
L 185.764229 140.260324 
L 107.938952 216.382572 
L 107.930494 216.373925 
L 185.755771 140.251676 
L 185.76 140.256 
z
" clip-path="url(#pfcd7840b25)" style="stroke: #000000; stroke-width: 1.5; stroke-linejoin: miter"/>
   </g>
   <g id="patch_21">
    <path d="M 125.850009 189.284382 
L 121.765584 195.75298 
L 120.237277 193.885474 
L 101.515405 209.206843 
L 101.507744 209.197482 
L 120.229617 193.876113 
L 118.70131 192.008606 
z
" clip-path="url(#pfcd7840b25)" style="stroke: #000000; stroke-width: 1.5; stroke-linejoin: miter"/>
   </g>
   <g id="patch_22">
    <path d="M 185.76 140.256 
L 185.76 140.256 
L 185.76383 140.26068 
L 101.515405 209.206843 
L 101.507744 209.197482 
L 185.75617 140.25132 
L 185.76 140.256 
z
" clip-path="url(#pfcd7840b25)" style="stroke: #000000; stroke-width: 1.5; stroke-linejoin: miter"/>
   </g>
   <g id="patch_23">
    <path d="M 121.751314 183.797674 
L 117.111177 189.879978 
L 115.753901 187.884707 
L 95.751186 201.49148 
L 95.744383 201.481479 
L 115.747098 187.874705 
L 114.389822 185.879435 
z
" clip-path="url(#pfcd7840b25)" style="stroke: #000000; stroke-width: 1.5; stroke-linejoin: miter"/>
   </g>
   <g id="patch_24">
    <path d="M 185.76 140.256 
L 185.76 140.256 
L 185.763402 140.261001 
L 95.751186 201.49148 
L 95.744383 201.481479 
L 185.756598 140.250999 
L 185.76 140.256 
z
" clip-path="url(#pfcd7840b25)" style="stroke: #000000; stroke-width: 1.5; stroke-linejoin: miter"/>
   </g>
   <g id="patch_25">
    <path d="M 118.153573 177.970193 
L 112.994039 183.6186 
L 111.818417 181.511181 
L 90.691409 193.296866 
L 90.685516 193.286303 
L 111.812524 181.500617 
L 110.636902 179.393198 
z
" clip-path="url(#pfcd7840b25)" style="stroke: #000000; stroke-width: 1.5; stroke-linejoin: miter"/>
   </g>
   <g id="patch_26">
    <path d="M 185.76 140.256 
L 185.76 140.256 
L 185.762946 140.261282 
L 90.691409 193.296866 
L 90.685516 193.286303 
L 185.757054 140.250718 
L 185.76 140.256 
z
" clip-path="url(#pfcd7840b25)" style="stroke: #000000; stroke-width: 1.5; stroke-linejoin: miter"/>
   </g>
   <g id="patch_27">
    <path d="M 115.084945 171.847548 
L 109.446394 177.017851 
L 108.461627 174.814777 
L 86.375672 184.687136 
L 86.370736 184.676093 
L 108.45669 174.803734 
L 107.471923 172.60066 
z
" clip-path="url(#pfcd7840b25)" style="stroke: #000000; stroke-width: 1.5; stroke-linejoin: miter"/>
   </g>
   <g id="patch_28">
    <path d="M 185.76 140.256 
L 185.76 140.256 
L 185.762468 140.261521 
L 86.375672 184.687136 
L 86.370736 184.676093 
L 185.757532 140.250479 
L 185.76 140.256 
z
" clip-path="url(#pfcd7840b25)" style="stroke: #000000; stroke-width: 1.5; stroke-linejoin: miter"/>
   </g>
   <g id="patch_29">
    <path d="M 112.569445 165.477656 
L 106.496007 170.129391 
L 105.7098 167.847904 
L 82.837752 175.729672 
L 82.833811 175.718236 
L 105.70586 167.836468 
L 104.919653 165.554981 
z
" clip-path="url(#pfcd7840b25)" style="stroke: #000000; stroke-width: 1.5; stroke-linejoin: miter"/>
   </g>
   <g id="patch_30">
    <path d="M 185.76 140.256 
L 185.76 140.256 
L 185.76197 140.261718 
L 82.837752 175.729672 
L 82.833811 175.718236 
L 185.75803 140.250282 
L 185.76 140.256 
z
" clip-path="url(#pfcd7840b25)" style="stroke: #000000; stroke-width: 1.5; stroke-linejoin: miter"/>
   </g>
   <g id="patch_31">
    <path d="M 110.62676 158.91037 
L 104.165967 163.007131 
L 103.584476 160.665087 
L 80.105338 166.494578 
L 80.102423 166.482838 
L 103.581561 160.653348 
L 103.000069 158.311304 
z
" clip-path="url(#pfcd7840b25)" style="stroke: #000000; stroke-width: 1.5; stroke-linejoin: miter"/>
   </g>
   <g id="patch_32">
    <path d="M 185.76 140.256 
L 185.76 140.256 
L 185.761457 140.26187 
L 80.105338 166.494578 
L 80.102423 166.482838 
L 185.758543 140.25013 
L 185.76 140.256 
z
" clip-path="url(#pfcd7840b25)" style="stroke: #000000; stroke-width: 1.5; stroke-linejoin: miter"/>
   </g>
   <g id="patch_33">
    <path d="M 109.272094 152.197089 
L 102.474512 155.706813 
L 102.102286 153.322541 
L 78.199815 157.054131 
L 78.19795 157.04218 
L 102.10042 153.31059 
L 101.728194 150.926319 
z
" clip-path="url(#pfcd7840b25)" style="stroke: #000000; stroke-width: 1.5; stroke-linejoin: miter"/>
   </g>
   <g id="patch_34">
    <path d="M 185.76 140.256 
L 185.76 140.256 
L 185.760933 140.261976 
L 78.199815 157.054131 
L 78.19795 157.04218 
L 185.759067 140.250024 
L 185.76 140.256 
z
" clip-path="url(#pfcd7840b25)" style="stroke: #000000; stroke-width: 1.5; stroke-linejoin: miter"/>
   </g>
   <g id="patch_35">
    <path d="M 108.51605 145.390352 
L 101.434879 148.285571 
L 101.274831 145.877732 
L 77.136097 147.482217 
L 77.135295 147.470148 
L 101.274029 145.865663 
L 101.113982 143.457824 
z
" clip-path="url(#pfcd7840b25)" style="stroke: #000000; stroke-width: 1.5; stroke-linejoin: miter"/>
   </g>
   <g id="patch_36">
    <path d="M 185.76 140.256 
L 185.76 140.256 
L 185.760401 140.262035 
L 77.136097 147.482217 
L 77.135295 147.470148 
L 185.759599 140.249965 
L 185.76 140.256 
z
" clip-path="url(#pfcd7840b25)" style="stroke: #000000; stroke-width: 1.5; stroke-linejoin: miter"/>
   </g>
   <g id="patch_37">
    <path d="M 108.364545 138.543432 
L 101.055203 140.801487 
L 101.108587 138.388925 
L 76.922508 137.853748 
L 76.922775 137.841655 
L 101.108855 138.376832 
L 101.162239 135.964271 
z
" clip-path="url(#pfcd7840b25)" style="stroke: #000000; stroke-width: 1.5; stroke-linejoin: miter"/>
   </g>
   <g id="patch_38">
    <path d="M 185.76 140.256 
L 185.76 140.256 
L 185.759866 140.262047 
L 76.922508 137.853748 
L 76.922775 137.841655 
L 185.760134 140.249953 
L 185.76 140.256 
z
" clip-path="url(#pfcd7840b25)" style="stroke: #000000; stroke-width: 1.5; stroke-linejoin: miter"/>
   </g>
   <g id="patch_39">
    <path d="M 108.818764 131.709915 
L 101.338458 133.313133 
L 101.604856 130.914731 
L 77.56072 128.244079 
L 77.562055 128.232057 
L 101.606191 130.902709 
L 101.872589 128.504306 
z
" clip-path="url(#pfcd7840b25)" style="stroke: #000000; stroke-width: 1.5; stroke-linejoin: miter"/>
   </g>
   <g id="patch_40">
    <path d="M 185.76 140.256 
L 185.76 140.256 
L 185.759332 140.262011 
L 77.56072 128.244079 
L 77.562055 128.232057 
L 185.760668 140.249989 
L 185.76 140.256 
z
" clip-path="url(#pfcd7840b25)" style="stroke: #000000; stroke-width: 1.5; stroke-linejoin: miter"/>
   </g>
   <g id="patch_41">
    <path d="M 109.875153 124.943283 
L 102.282426 125.879117 
L 102.759752 123.513644 
L 79.045737 118.72842 
L 79.04813 118.716563 
L 102.762145 123.501787 
L 103.239471 121.136314 
z
" clip-path="url(#pfcd7840b25)" style="stroke: #000000; stroke-width: 1.5; stroke-linejoin: miter"/>
   </g>
   <g id="patch_42">
    <path d="M 185.76 140.256 
L 185.76 140.256 
L 185.758804 140.261929 
L 79.045737 118.72842 
L 79.04813 118.716563 
L 185.761196 140.250071 
L 185.76 140.256 
z
" clip-path="url(#pfcd7840b25)" style="stroke: #000000; stroke-width: 1.5; stroke-linejoin: miter"/>
   </g>
   <g id="patch_43">
    <path d="M 111.525443 118.296494 
L 103.879719 118.55762 
L 104.564238 116.243589 
L 81.365939 109.381244 
L 81.36937 109.369645 
L 104.567669 116.23199 
L 105.252188 113.91796 
z
" clip-path="url(#pfcd7840b25)" style="stroke: #000000; stroke-width: 1.5; stroke-linejoin: miter"/>
   </g>
   <g id="patch_44">
    <path d="M 185.76 140.256 
L 185.76 140.256 
L 185.758284 140.2618 
L 81.365939 109.381244 
L 81.36937 109.369645 
L 185.761716 140.2502 
L 185.76 140.256 
z
" clip-path="url(#pfcd7840b25)" style="stroke: #000000; stroke-width: 1.5; stroke-linejoin: miter"/>
   </g>
   <g id="patch_45">
    <path d="M 113.75672 111.821567 
L 106.117836 111.405942 
L 107.004191 109.161464 
L 84.503166 100.275704 
L 84.507609 100.264454 
L 107.008634 109.150214 
L 107.894988 106.905737 
z
" clip-path="url(#pfcd7840b25)" style="stroke: #000000; stroke-width: 1.5; stroke-linejoin: miter"/>
   </g>
   <g id="patch_46">
    <path d="M 185.76 140.256 
L 185.76 140.256 
L 185.757779 140.261625 
L 84.503166 100.275704 
L 84.507609 100.264454 
L 185.762221 140.250375 
L 185.76 140.256 
z
" clip-path="url(#pfcd7840b25)" style="stroke: #000000; stroke-width: 1.5; stroke-linejoin: miter"/>
   </g>
   <g id="patch_47">
    <path d="M 116.55152 105.569179 
L 108.979261 104.480054 
L 110.060515 102.322696 
L 88.432865 91.483065 
L 88.438284 91.472251 
L 110.065934 102.311882 
L 111.147188 100.154524 
z
" clip-path="url(#pfcd7840b25)" style="stroke: #000000; stroke-width: 1.5; stroke-linejoin: miter"/>
   </g>
   <g id="patch_48">
    <path d="M 185.76 140.256 
L 185.76 140.256 
L 185.75729 140.261407 
L 88.432865 91.483065 
L 88.438284 91.472251 
L 185.76271 140.250593 
L 185.76 140.256 
z
" clip-path="url(#pfcd7840b25)" style="stroke: #000000; stroke-width: 1.5; stroke-linejoin: miter"/>
   </g>
   <g id="patch_49">
    <path d="M 119.88797 99.588262 
L 112.4416 97.834162 
L 113.70929 95.780808 
L 93.12428 83.072139 
L 93.130634 83.061847 
L 113.715644 95.770515 
L 114.983334 93.71716 
z
" clip-path="url(#pfcd7840b25)" style="stroke: #000000; stroke-width: 1.5; stroke-linejoin: miter"/>
   </g>
   <g id="patch_50">
    <path d="M 185.76 140.256 
L 185.76 140.256 
L 185.756823 140.261146 
L 93.12428 83.072139 
L 93.130634 83.061847 
L 185.763177 140.250854 
L 185.76 140.256 
z
" clip-path="url(#pfcd7840b25)" style="stroke: #000000; stroke-width: 1.5; stroke-linejoin: miter"/>
   </g>
   <g id="patch_51">
    <path d="M 123.739958 93.925625 
L 116.477754 91.520279 
L 117.921959 89.586998 
L 98.540696 75.108755 
L 98.547935 75.099065 
L 117.929198 89.577307 
L 119.373403 87.644026 
z
" clip-path="url(#pfcd7840b25)" style="stroke: #000000; stroke-width: 1.5; stroke-linejoin: miter"/>
   </g>
   <g id="patch_52">
    <path d="M 185.76 140.256 
L 185.76 140.256 
L 185.75638 140.260845 
L 98.540696 75.108755 
L 98.547935 75.099065 
L 185.76362 140.251155 
L 185.76 140.256 
z
" clip-path="url(#pfcd7840b25)" style="stroke: #000000; stroke-width: 1.5; stroke-linejoin: miter"/>
   </g>
   <g id="patch_53">
    <path d="M 128.077336 88.625586 
L 121.056136 85.587818 
L 122.665553 83.789741 
L 104.639721 67.655237 
L 104.647788 67.646224 
L 122.67362 83.780728 
L 124.283037 81.982651 
z
" clip-path="url(#pfcd7840b25)" style="stroke: #000000; stroke-width: 1.5; stroke-linejoin: miter"/>
   </g>
   <g id="patch_54">
    <path d="M 185.76 140.256 
L 185.76 140.256 
L 185.755966 140.260506 
L 104.639721 67.655237 
L 104.647788 67.646224 
L 185.764034 140.251494 
L 185.76 140.256 
z
" clip-path="url(#pfcd7840b25)" style="stroke: #000000; stroke-width: 1.5; stroke-linejoin: miter"/>
   </g>
   <g id="patch_55">
    <path d="M 132.86616 83.729625 
L 126.140914 80.08321 
L 127.902947 78.43441 
L 111.373622 60.769918 
L 111.382454 60.761653 
L 127.911779 78.426145 
L 129.673812 76.777345 
z
" clip-path="url(#pfcd7840b25)" style="stroke: #000000; stroke-width: 1.5; stroke-linejoin: miter"/>
   </g>
   <g id="patch_56">
    <path d="M 185.76 140.256 
L 185.76 140.256 
L 185.755584 140.260132 
L 111.373622 60.769918 
L 111.382454 60.761653 
L 185.764416 140.251868 
L 185.76 140.256 
z
" clip-path="url(#pfcd7840b25)" style="stroke: #000000; stroke-width: 1.5; stroke-linejoin: miter"/>
   </g>
   <g id="patch_57">
    <path d="M 138.06895 79.27606 
L 131.692291 75.049536 
L 133.59315 73.562916 
L 118.689697 54.506685 
L 118.699225 54.499233 
L 133.602678 73.555465 
L 135.503537 72.068845 
z
" clip-path="url(#pfcd7840b25)" style="stroke: #000000; stroke-width: 1.5; stroke-linejoin: miter"/>
   </g>
   <g id="patch_58">
    <path d="M 185.76 140.256 
L 185.76 140.256 
L 185.755236 140.259726 
L 118.689697 54.506685 
L 118.699225 54.499233 
L 185.764764 140.252274 
L 185.76 140.256 
z
" clip-path="url(#pfcd7840b25)" style="stroke: #000000; stroke-width: 1.5; stroke-linejoin: miter"/>
   </g>
   <g id="patch_59">
    <path d="M 143.644987 75.299745 
L 137.666822 70.526191 
L 139.69163 69.213387 
L 126.530689 48.914557 
L 126.540838 48.907977 
L 139.70178 69.206806 
L 141.726588 67.894002 
z
" clip-path="url(#pfcd7840b25)" style="stroke: #000000; stroke-width: 1.5; stroke-linejoin: miter"/>
   </g>
   <g id="patch_60">
    <path d="M 185.76 140.256 
L 185.76 140.256 
L 185.754925 140.25929 
L 126.530689 48.914557 
L 126.540838 48.907977 
L 185.765075 140.25271 
L 185.76 140.256 
z
" clip-path="url(#pfcd7840b25)" style="stroke: #000000; stroke-width: 1.5; stroke-linejoin: miter"/>
   </g>
   <g id="patch_61">
    <path d="M 149.550631 71.831801 
L 144.017747 66.548576 
L 146.150657 65.419862 
L 134.83523 44.0373 
L 134.845921 44.031642 
L 146.161349 65.414204 
L 148.294259 64.28549 
z
" clip-path="url(#pfcd7840b25)" style="stroke: #000000; stroke-width: 1.5; stroke-linejoin: miter"/>
   </g>
   <g id="patch_62">
    <path d="M 185.76 140.256 
L 185.76 140.256 
L 185.754654 140.258829 
L 134.83523 44.0373 
L 134.845921 44.031642 
L 185.765346 140.253171 
L 185.76 140.256 
z
" clip-path="url(#pfcd7840b25)" style="stroke: #000000; stroke-width: 1.5; stroke-linejoin: miter"/>
   </g>
   <g id="patch_63">
    <path d="M 155.739663 68.89937 
L 150.695362 63.147821 
L 152.919682 62.212031 
L 143.538326 39.913084 
L 143.549476 39.908393 
L 152.930831 62.20734 
L 155.155151 61.27155 
z
" clip-path="url(#pfcd7840b25)" style="stroke: #000000; stroke-width: 1.5; stroke-linejoin: miter"/>
   </g>
   <g id="patch_64">
    <path d="M 185.76 140.256 
L 185.76 140.256 
L 185.754425 140.258345 
L 143.538326 39.913084 
L 143.549476 39.908393 
L 185.765575 140.253655 
L 185.76 140.256 
z
" clip-path="url(#pfcd7840b25)" style="stroke: #000000; stroke-width: 1.5; stroke-linejoin: miter"/>
   </g>
   <g id="patch_65">
    <path d="M 162.163644 66.5254 
L 157.647405 60.350543 
L 159.945726 59.615 
L 152.571865 36.574188 
L 152.583385 36.570501 
L 159.957246 59.611313 
L 162.255567 58.875771 
z
" clip-path="url(#pfcd7840b25)" style="stroke: #000000; stroke-width: 1.5; stroke-linejoin: miter"/>
   </g>
   <g id="patch_66">
    <path d="M 185.76 140.256 
L 185.76 140.256 
L 185.75424 140.257843 
L 152.571865 36.574188 
L 152.583385 36.570501 
L 185.76576 140.254157 
L 185.76 140.256 
z
" clip-path="url(#pfcd7840b25)" style="stroke: #000000; stroke-width: 1.5; stroke-linejoin: miter"/>
   </g>
   <g id="patch_67">
    <path d="M 168.772299 64.728473 
L 164.819467 58.178633 
L 167.173802 57.649094 
L 161.865145 34.046742 
L 161.876946 34.044088 
L 167.185603 57.64644 
L 169.539937 57.116902 
z
" clip-path="url(#pfcd7840b25)" style="stroke: #000000; stroke-width: 1.5; stroke-linejoin: miter"/>
   </g>
   <g id="patch_68">
    <path d="M 185.76 140.256 
L 185.76 140.256 
L 185.754099 140.257327 
L 161.865145 34.046742 
L 161.876946 34.044088 
L 185.765901 140.254673 
L 185.76 140.256 
z
" clip-path="url(#pfcd7840b25)" style="stroke: #000000; stroke-width: 1.5; stroke-linejoin: miter"/>
   </g>
   <g id="patch_69">
    <path d="M 175.513906 63.522651 
L 172.155417 56.64909 
L 174.54734 56.3297 
L 171.345435 32.350528 
L 171.357425 32.348927 
L 174.559329 56.328099 
L 176.951252 56.008709 
z
" clip-path="url(#pfcd7840b25)" style="stroke: #000000; stroke-width: 1.5; stroke-linejoin: miter"/>
   </g>
   <g id="patch_70">
    <path d="M 185.76 140.256 
L 185.76 140.256 
L 185.754005 140.2568 
L 171.345435 32.350528 
L 171.357425 32.348927 
L 185.765995 140.2552 
L 185.76 140.256 
z
" clip-path="url(#pfcd7840b25)" style="stroke: #000000; stroke-width: 1.5; stroke-linejoin: miter"/>
   </g>
   <g id="patch_71">
    <path d="M 182.335702 62.917371 
L 179.597842 55.773884 
L 182.008632 55.667142 
L 180.938539 31.498821 
L 180.950623 31.498286 
L 182.020716 55.666607 
L 184.431506 55.559865 
z
" clip-path="url(#pfcd7840b25)" style="stroke: #000000; stroke-width: 1.5; stroke-linejoin: miter"/>
   </g>
   <g id="patch_72">
    <path d="M 185.76 140.256 
L 185.76 140.256 
L 185.753958 140.256268 
L 180.938539 31.498821 
L 180.950623 31.498286 
L 185.766042 140.255732 
L 185.76 140.256 
z
" clip-path="url(#pfcd7840b25)" style="stroke: #000000; stroke-width: 1.5; stroke-linejoin: miter"/>
   </g>
   <g id="patch_73">
    <path d="M 189.184298 62.917371 
L 187.088494 55.559865 
L 189.499284 55.666607 
L 190.569377 31.498286 
L 190.581461 31.498821 
L 189.511368 55.667142 
L 191.922158 55.773884 
z
" clip-path="url(#pfcd7840b25)" style="stroke: #000000; stroke-width: 1.5; stroke-linejoin: miter"/>
   </g>
   <g id="patch_74">
    <path d="M 185.76 140.256 
L 185.76 140.256 
L 185.753958 140.255732 
L 190.569377 31.498286 
L 190.581461 31.498821 
L 185.766042 140.256268 
L 185.76 140.256 
z
" clip-path="url(#pfcd7840b25)" style="stroke: #000000; stroke-width: 1.5; stroke-linejoin: miter"/>
   </g>
   <g id="patch_75">
    <path d="M 196.006094 63.522651 
L 194.568748 56.008709 
L 196.960671 56.328099 
L 200.162575 32.348927 
L 200.174565 32.350528 
L 196.97266 56.3297 
L 199.364583 56.64909 
z
" clip-path="url(#pfcd7840b25)" style="stroke: #000000; stroke-width: 1.5; stroke-linejoin: miter"/>
   </g>
   <g id="patch_76">
    <path d="M 185.76 140.256 
L 185.76 140.256 
L 185.754005 140.2552 
L 200.162575 32.348927 
L 200.174565 32.350528 
L 185.765995 140.2568 
L 185.76 140.256 
z
" clip-path="url(#pfcd7840b25)" style="stroke: #000000; stroke-width: 1.5; stroke-linejoin: miter"/>
   </g>
   <g id="patch_77">
    <path d="M 202.747701 64.728473 
L 201.980063 57.116902 
L 204.334397 57.64644 
L 209.643054 34.044088 
L 209.654855 34.046742 
L 204.346198 57.649094 
L 206.700533 58.178633 
z
" clip-path="url(#pfcd7840b25)" style="stroke: #000000; stroke-width: 1.5; stroke-linejoin: miter"/>
   </g>
   <g id="patch_78">
    <path d="M 185.76 140.256 
L 185.76 140.256 
L 185.754099 140.254673 
L 209.643054 34.044088 
L 209.654855 34.046742 
L 185.765901 140.257327 
L 185.76 140.256 
z
" clip-path="url(#pfcd7840b25)" style="stroke: #000000; stroke-width: 1.5; stroke-linejoin: miter"/>
   </g>
   <g id="patch_79">
    <path d="M 209.356356 66.5254 
L 209.264433 58.875771 
L 211.562754 59.611313 
L 218.936615 36.570501 
L 218.948135 36.574188 
L 211.574274 59.615 
L 213.872595 60.350543 
z
" clip-path="url(#pfcd7840b25)" style="stroke: #000000; stroke-width: 1.5; stroke-linejoin: miter"/>
   </g>
   <g id="patch_80">
    <path d="M 185.76 140.256 
L 185.76 140.256 
L 185.75424 140.254157 
L 218.936615 36.570501 
L 218.948135 36.574188 
L 185.76576 140.257843 
L 185.76 140.256 
z
" clip-path="url(#pfcd7840b25)" style="stroke: #000000; stroke-width: 1.5; stroke-linejoin: miter"/>
   </g>
   <g id="patch_81">
    <path d="M 215.780337 68.89937 
L 216.364849 61.27155 
L 218.589169 62.20734 
L 227.970524 39.908393 
L 227.981674 39.913084 
L 218.600318 62.212031 
L 220.824638 63.147821 
z
" clip-path="url(#pfcd7840b25)" style="stroke: #000000; stroke-width: 1.5; stroke-linejoin: miter"/>
   </g>
   <g id="patch_82">
    <path d="M 185.76 140.256 
L 185.76 140.256 
L 185.754425 140.253655 
L 227.970524 39.908393 
L 227.981674 39.913084 
L 185.765575 140.258345 
L 185.76 140.256 
z
" clip-path="url(#pfcd7840b25)" style="stroke: #000000; stroke-width: 1.5; stroke-linejoin: miter"/>
   </g>
   <g id="patch_83">
    <path d="M 221.969369 71.831801 
L 223.225741 64.28549 
L 225.358651 65.414204 
L 236.674079 44.031642 
L 236.68477 44.0373 
L 225.369343 65.419862 
L 227.502253 66.548576 
z
" clip-path="url(#pfcd7840b25)" style="stroke: #000000; stroke-width: 1.5; stroke-linejoin: miter"/>
   </g>
   <g id="patch_84">
    <path d="M 185.76 140.256 
L 185.76 140.256 
L 185.754654 140.253171 
L 236.674079 44.031642 
L 236.68477 44.0373 
L 185.765346 140.258829 
L 185.76 140.256 
z
" clip-path="url(#pfcd7840b25)" style="stroke: #000000; stroke-width: 1.5; stroke-linejoin: miter"/>
   </g>
   <g id="patch_85">
    <path d="M 227.875013 75.299745 
L 229.793412 67.894002 
L 231.81822 69.206806 
L 244.979162 48.907977 
L 244.989311 48.914557 
L 231.82837 69.213387 
L 233.853178 70.526191 
z
" clip-path="url(#pfcd7840b25)" style="stroke: #000000; stroke-width: 1.5; stroke-linejoin: miter"/>
   </g>
   <g id="patch_86">
    <path d="M 185.76 140.256 
L 185.76 140.256 
L 185.754925 140.25271 
L 244.979162 48.907977 
L 244.989311 48.914557 
L 185.765075 140.25929 
L 185.76 140.256 
z
" clip-path="url(#pfcd7840b25)" style="stroke: #000000; stroke-width: 1.5; stroke-linejoin: miter"/>
   </g>
   <g id="patch_87">
    <path d="M 233.45105 79.27606 
L 236.016463 72.068845 
L 237.917322 73.555465 
L 252.820775 54.499233 
L 252.830303 54.506685 
L 237.92685 73.562916 
L 239.827709 75.049536 
z
" clip-path="url(#pfcd7840b25)" style="stroke: #000000; stroke-width: 1.5; stroke-linejoin: miter"/>
   </g>
   <g id="patch_88">
    <path d="M 185.76 140.256 
L 185.76 140.256 
L 185.755236 140.252274 
L 252.820775 54.499233 
L 252.830303 54.506685 
L 185.764764 140.259726 
L 185.76 140.256 
z
" clip-path="url(#pfcd7840b25)" style="stroke: #000000; stroke-width: 1.5; stroke-linejoin: miter"/>
   </g>
   <g id="patch_89">
    <path d="M 238.65384 83.729625 
L 241.846188 76.777345 
L 243.608221 78.426145 
L 260.137546 60.761653 
L 260.146378 60.769918 
L 243.617053 78.43441 
L 245.379086 80.08321 
z
" clip-path="url(#pfcd7840b25)" style="stroke: #000000; stroke-width: 1.5; stroke-linejoin: miter"/>
   </g>
   <g id="patch_90">
    <path d="M 185.76 140.256 
L 185.76 140.256 
L 185.755584 140.251868 
L 260.137546 60.761653 
L 260.146378 60.769918 
L 185.764416 140.260132 
L 185.76 140.256 
z
" clip-path="url(#pfcd7840b25)" style="stroke: #000000; stroke-width: 1.5; stroke-linejoin: miter"/>
   </g>
   <g id="patch_91">
    <path d="M 243.442664 88.625586 
L 247.236963 81.982651 
L 248.84638 83.780728 
L 266.872212 67.646224 
L 266.880279 67.655237 
L 248.854447 83.789741 
L 250.463864 85.587818 
z
" clip-path="url(#pfcd7840b25)" style="stroke: #000000; stroke-width: 1.5; stroke-linejoin: miter"/>
   </g>
   <g id="patch_92">
    <path d="M 185.76 140.256 
L 185.76 140.256 
L 185.755966 140.251494 
L 266.872212 67.646224 
L 266.880279 67.655237 
L 185.764034 140.260506 
L 185.76 140.256 
z
" clip-path="url(#pfcd7840b25)" style="stroke: #000000; stroke-width: 1.5; stroke-linejoin: miter"/>
   </g>
   <g id="patch_93">
    <path d="M 247.780042 93.925625 
L 252.146597 87.644026 
L 253.590802 89.577307 
L 272.972065 75.099065 
L 272.979304 75.108755 
L 253.598041 89.586998 
L 255.042246 91.520279 
z
" clip-path="url(#pfcd7840b25)" style="stroke: #000000; stroke-width: 1.5; stroke-linejoin: miter"/>
   </g>
   <g id="patch_94">
    <path d="M 185.76 140.256 
L 185.76 140.256 
L 185.75638 140.251155 
L 272.972065 75.099065 
L 272.979304 75.108755 
L 185.76362 140.260845 
L 185.76 140.256 
z
" clip-path="url(#pfcd7840b25)" style="stroke: #000000; stroke-width: 1.5; stroke-linejoin: miter"/>
   </g>
   <g id="patch_95">
    <path d="M 251.63203 99.588262 
L 256.536666 93.71716 
L 257.804356 95.770515 
L 278.389366 83.061847 
L 278.39572 83.072139 
L 257.81071 95.780808 
L 259.0784 97.834162 
z
" clip-path="url(#pfcd7840b25)" style="stroke: #000000; stroke-width: 1.5; stroke-linejoin: miter"/>
   </g>
   <g id="patch_96">
    <path d="M 185.76 140.256 
L 185.76 140.256 
L 185.756823 140.250854 
L 278.389366 83.061847 
L 278.39572 83.072139 
L 185.763177 140.261146 
L 185.76 140.256 
z
" clip-path="url(#pfcd7840b25)" style="stroke: #000000; stroke-width: 1.5; stroke-linejoin: miter"/>
   </g>
   <g id="patch_97">
    <path d="M 254.96848 105.569179 
L 260.372812 100.154524 
L 261.454066 102.311882 
L 283.081716 91.472251 
L 283.087135 91.483065 
L 261.459485 102.322696 
L 262.540739 104.480054 
z
" clip-path="url(#pfcd7840b25)" style="stroke: #000000; stroke-width: 1.5; stroke-linejoin: miter"/>
   </g>
   <g id="patch_98">
    <path d="M 185.76 140.256 
L 185.76 140.256 
L 185.75729 140.250593 
L 283.081716 91.472251 
L 283.087135 91.483065 
L 185.76271 140.261407 
L 185.76 140.256 
z
" clip-path="url(#pfcd7840b25)" style="stroke: #000000; stroke-width: 1.5; stroke-linejoin: miter"/>
   </g>
   <g id="patch_99">
    <path d="M 257.76328 111.821567 
L 263.625012 106.905737 
L 264.511366 109.150214 
L 287.012391 100.264454 
L 287.016834 100.275704 
L 264.515809 109.161464 
L 265.402164 111.405942 
z
" clip-path="url(#pfcd7840b25)" style="stroke: #000000; stroke-width: 1.5; stroke-linejoin: miter"/>
   </g>
   <g id="patch_100">
    <path d="M 185.76 140.256 
L 185.76 140.256 
L 185.757779 140.250375 
L 287.012391 100.264454 
L 287.016834 100.275704 
L 185.762221 140.261625 
L 185.76 140.256 
z
" clip-path="url(#pfcd7840b25)" style="stroke: #000000; stroke-width: 1.5; stroke-linejoin: miter"/>
   </g>
   <g id="patch_101">
    <path d="M 259.994557 118.296494 
L 266.267812 113.91796 
L 266.952331 116.23199 
L 290.15063 109.369645 
L 290.154061 109.381244 
L 266.955762 116.243589 
L 267.640281 118.55762 
z
" clip-path="url(#pfcd7840b25)" style="stroke: #000000; stroke-width: 1.5; stroke-linejoin: miter"/>
   </g>
   <g id="patch_102">
    <path d="M 185.76 140.256 
L 185.76 140.256 
L 185.758284 140.2502 
L 290.15063 109.369645 
L 290.154061 109.381244 
L 185.761716 140.2618 
L 185.76 140.256 
z
" clip-path="url(#pfcd7840b25)" style="stroke: #000000; stroke-width: 1.5; stroke-linejoin: miter"/>
   </g>
   <g id="patch_103">
    <path d="M 261.644847 124.943283 
L 268.280529 121.136314 
L 268.757855 123.501787 
L 292.47187 118.716563 
L 292.474263 118.72842 
L 268.760248 123.513644 
L 269.237574 125.879117 
z
" clip-path="url(#pfcd7840b25)" style="stroke: #000000; stroke-width: 1.5; stroke-linejoin: miter"/>
   </g>
   <g id="patch_104">
    <path d="M 185.76 140.256 
L 185.76 140.256 
L 185.758804 140.250071 
L 292.47187 118.716563 
L 292.474263 118.72842 
L 185.761196 140.261929 
L 185.76 140.256 
z
" clip-path="url(#pfcd7840b25)" style="stroke: #000000; stroke-width: 1.5; stroke-linejoin: miter"/>
   </g>
   <g id="patch_105">
    <path d="M 262.701236 131.709915 
L 269.647411 128.504306 
L 269.913809 130.902709 
L 293.957945 128.232057 
L 293.95928 128.244079 
L 269.915144 130.914731 
L 270.181542 133.313133 
z
" clip-path="url(#pfcd7840b25)" style="stroke: #000000; stroke-width: 1.5; stroke-linejoin: miter"/>
   </g>
   <g id="patch_106">
    <path d="M 185.76 140.256 
L 185.76 140.256 
L 185.759332 140.249989 
L 293.957945 128.232057 
L 293.95928 128.244079 
L 185.760668 140.262011 
L 185.76 140.256 
z
" clip-path="url(#pfcd7840b25)" style="stroke: #000000; stroke-width: 1.5; stroke-linejoin: miter"/>
   </g>
   <g id="patch_107">
    <path d="M 263.155455 138.543432 
L 270.357761 135.964271 
L 270.411145 138.376832 
L 294.597225 137.841655 
L 294.597492 137.853748 
L 270.411413 138.388925 
L 270.464797 140.801487 
z
" clip-path="url(#pfcd7840b25)" style="stroke: #000000; stroke-width: 1.5; stroke-linejoin: miter"/>
   </g>
   <g id="patch_108">
    <path d="M 185.76 140.256 
L 185.76 140.256 
L 185.759866 140.249953 
L 294.597225 137.841655 
L 294.597492 137.853748 
L 185.760134 140.262047 
L 185.76 140.256 
z
" clip-path="url(#pfcd7840b25)" style="stroke: #000000; stroke-width: 1.5; stroke-linejoin: miter"/>
   </g>
   <g id="patch_109">
    <path d="M 263.00395 145.390352 
L 270.406018 143.457824 
L 270.245971 145.865663 
L 294.384705 147.470148 
L 294.383903 147.482217 
L 270.245169 145.877732 
L 270.085121 148.285571 
z
" clip-path="url(#pfcd7840b25)" style="stroke: #000000; stroke-width: 1.5; stroke-linejoin: miter"/>
   </g>
   <g id="patch_110">
    <path d="M 185.76 140.256 
L 185.76 140.256 
L 185.760401 140.249965 
L 294.384705 147.470148 
L 294.383903 147.482217 
L 185.759599 140.262035 
L 185.76 140.256 
z
" clip-path="url(#pfcd7840b25)" style="stroke: #000000; stroke-width: 1.5; stroke-linejoin: miter"/>
   </g>
   <g id="patch_111">
    <path d="M 262.247906 152.197089 
L 269.791806 150.926319 
L 269.41958 153.31059 
L 293.32205 157.04218 
L 293.320185 157.054131 
L 269.417714 153.322541 
L 269.045488 155.706813 
z
" clip-path="url(#pfcd7840b25)" style="stroke: #000000; stroke-width: 1.5; stroke-linejoin: miter"/>
   </g>
   <g id="patch_112">
    <path d="M 185.76 140.256 
L 185.76 140.256 
L 185.760933 140.250024 
L 293.32205 157.04218 
L 293.320185 157.054131 
L 185.759067 140.261976 
L 185.76 140.256 
z
" clip-path="url(#pfcd7840b25)" style="stroke: #000000; stroke-width: 1.5; stroke-linejoin: miter"/>
   </g>
   <g id="patch_113">
    <path d="M 260.89324 158.91037 
L 268.519931 158.311304 
L 267.938439 160.653348 
L 291.417577 166.482838 
L 291.414662 166.494578 
L 267.935524 160.665087 
L 267.354033 163.007131 
z
" clip-path="url(#pfcd7840b25)" style="stroke: #000000; stroke-width: 1.5; stroke-linejoin: miter"/>
   </g>
   <g id="patch_114">
    <path d="M 185.76 140.256 
L 185.76 140.256 
L 185.761457 140.25013 
L 291.417577 166.482838 
L 291.414662 166.494578 
L 185.758543 140.26187 
L 185.76 140.256 
z
" clip-path="url(#pfcd7840b25)" style="stroke: #000000; stroke-width: 1.5; stroke-linejoin: miter"/>
   </g>
   <g id="patch_115">
    <path d="M 258.950555 165.477656 
L 266.600347 165.554981 
L 265.81414 167.836468 
L 288.686189 175.718236 
L 288.682248 175.729672 
L 265.8102 167.847904 
L 265.023993 170.129391 
z
" clip-path="url(#pfcd7840b25)" style="stroke: #000000; stroke-width: 1.5; stroke-linejoin: miter"/>
   </g>
   <g id="patch_116">
    <path d="M 185.76 140.256 
L 185.76 140.256 
L 185.76197 140.250282 
L 288.686189 175.718236 
L 288.682248 175.729672 
L 185.75803 140.261718 
L 185.76 140.256 
z
" clip-path="url(#pfcd7840b25)" style="stroke: #000000; stroke-width: 1.5; stroke-linejoin: miter"/>
   </g>
   <g id="patch_117">
    <path d="M 256.435055 171.847548 
L 264.048077 172.60066 
L 263.06331 174.803734 
L 285.149264 184.676093 
L 285.144328 184.687136 
L 263.058373 174.814777 
L 262.073606 177.017851 
z
" clip-path="url(#pfcd7840b25)" style="stroke: #000000; stroke-width: 1.5; stroke-linejoin: miter"/>
   </g>
   <g id="patch_118">
    <path d="M 185.76 140.256 
L 185.76 140.256 
L 185.762468 140.250479 
L 285.149264 184.676093 
L 285.144328 184.687136 
L 185.757532 140.261521 
L 185.76 140.256 
z
" clip-path="url(#pfcd7840b25)" style="stroke: #000000; stroke-width: 1.5; stroke-linejoin: miter"/>
   </g>
   <g id="patch_119">
    <path d="M 253.366427 177.970193 
L 260.883098 179.393198 
L 259.707476 181.500617 
L 280.834484 193.286303 
L 280.828591 193.296866 
L 259.701583 181.511181 
L 258.525961 183.6186 
z
" clip-path="url(#pfcd7840b25)" style="stroke: #000000; stroke-width: 1.5; stroke-linejoin: miter"/>
   </g>
   <g id="patch_120">
    <path d="M 185.76 140.256 
L 185.76 140.256 
L 185.762946 140.250718 
L 280.834484 193.286303 
L 280.828591 193.296866 
L 185.757054 140.261282 
L 185.76 140.256 
z
" clip-path="url(#pfcd7840b25)" style="stroke: #000000; stroke-width: 1.5; stroke-linejoin: miter"/>
   </g>
   <g id="patch_121">
    <path d="M 249.768686 183.797674 
L 257.130178 185.879435 
L 255.772902 187.874705 
L 275.775617 201.481479 
L 275.768814 201.49148 
L 255.766099 187.884707 
L 254.408823 189.879978 
z
" clip-path="url(#pfcd7840b25)" style="stroke: #000000; stroke-width: 1.5; stroke-linejoin: miter"/>
   </g>
   <g id="patch_122">
    <path d="M 185.76 140.256 
L 185.76 140.256 
L 185.763402 140.250999 
L 275.775617 201.481479 
L 275.768814 201.49148 
L 185.756598 140.261001 
L 185.76 140.256 
z
" clip-path="url(#pfcd7840b25)" style="stroke: #000000; stroke-width: 1.5; stroke-linejoin: miter"/>
   </g>
   <g id="patch_123">
    <path d="M 245.669991 189.284382 
L 252.81869 192.008606 
L 251.290383 193.876113 
L 270.012256 209.197482 
L 270.004595 209.206843 
L 251.282723 193.885474 
L 249.754416 195.75298 
z
" clip-path="url(#pfcd7840b25)" style="stroke: #000000; stroke-width: 1.5; stroke-linejoin: miter"/>
   </g>
   <g id="patch_124">
    <path d="M 185.76 140.256 
L 185.76 140.256 
L 185.76383 140.25132 
L 270.012256 209.197482 
L 270.004595 209.206843 
L 185.75617 140.26068 
L 185.76 140.256 
z
" clip-path="url(#pfcd7840b25)" style="stroke: #000000; stroke-width: 1.5; stroke-linejoin: miter"/>
   </g>
   <g id="patch_125">
    <path d="M 241.102419 194.387377 
L 247.982377 197.732743 
L 246.295 199.45787 
L 263.589506 216.373925 
L 263.581048 216.382572 
L 246.286542 199.466517 
L 244.599166 201.191644 
z
" clip-path="url(#pfcd7840b25)" style="stroke: #000000; stroke-width: 1.5; stroke-linejoin: miter"/>
   </g>
   <g id="patch_126">
    <path d="M 185.76 140.256 
L 185.76 140.256 
L 185.764229 140.251676 
L 263.589506 216.373925 
L 263.581048 216.382572 
L 185.755771 140.260324 
L 185.76 140.256 
z
" clip-path="url(#pfcd7840b25)" style="stroke: #000000; stroke-width: 1.5; stroke-linejoin: miter"/>
   </g>
   <g id="patch_127">
    <path d="M 236.101718 199.06672 
L 242.659089 203.007046 
L 240.825849 204.576292 
L 256.557635 222.954642 
L 256.548446 222.962508 
L 240.816659 204.584158 
L 238.983419 206.153404 
z
" clip-path="url(#pfcd7840b25)" style="stroke: #000000; stroke-width: 1.5; stroke-linejoin: miter"/>
   </g>
   <g id="patch_128">
    <path d="M 185.76 140.256 
L 185.76 140.256 
L 185.764595 140.252067 
L 256.557635 222.954642 
L 256.548446 222.962508 
L 185.755405 140.259933 
L 185.76 140.256 
z
" clip-path="url(#pfcd7840b25)" style="stroke: #000000; stroke-width: 1.5; stroke-linejoin: miter"/>
   </g>
   <g id="patch_129">
    <path d="M 230.707024 203.285789 
L 236.890489 207.790238 
L 234.925732 209.191321 
L 248.971677 228.88813 
L 248.961829 228.895153 
L 234.915884 209.198344 
L 232.951127 210.599427 
z
" clip-path="url(#pfcd7840b25)" style="stroke: #000000; stroke-width: 1.5; stroke-linejoin: miter"/>
   </g>
   <g id="patch_130">
    <path d="M 185.76 140.256 
L 185.76 140.256 
L 185.764924 140.252489 
L 248.971677 228.88813 
L 248.961829 228.895153 
L 185.755076 140.259511 
L 185.76 140.256 
z
" clip-path="url(#pfcd7840b25)" style="stroke: #000000; stroke-width: 1.5; stroke-linejoin: miter"/>
   </g>
   <g id="patch_131">
    <path d="M 224.960559 207.011565 
L 230.721723 212.044882 
L 228.640827 213.266837 
L 240.891002 234.127951 
L 240.880571 234.134076 
L 228.630396 213.272962 
L 226.5495 214.494917 
z
" clip-path="url(#pfcd7840b25)" style="stroke: #000000; stroke-width: 1.5; stroke-linejoin: miter"/>
   </g>
   <g id="patch_132">
    <path d="M 185.76 140.256 
L 185.76 140.256 
L 185.765215 140.252937 
L 240.891002 234.127951 
L 240.880571 234.134076 
L 185.754785 140.259063 
L 185.76 140.256 
z
" clip-path="url(#pfcd7840b25)" style="stroke: #000000; stroke-width: 1.5; stroke-linejoin: miter"/>
   </g>
   <g id="patch_133">
    <path d="M 218.907297 210.214888 
L 224.201071 215.737681 
L 222.020321 216.770945 
L 232.378851 238.633097 
L 232.36792 238.638276 
L 222.00939 216.776124 
L 219.82864 217.809387 
z
" clip-path="url(#pfcd7840b25)" style="stroke: #000000; stroke-width: 1.5; stroke-linejoin: miter"/>
   </g>
   <g id="patch_134">
    <path d="M 185.76 140.256 
L 185.76 140.256 
L 185.765466 140.25341 
L 232.378851 238.633097 
L 232.36792 238.638276 
L 185.754534 140.25859 
L 185.76 140.256 
z
" clip-path="url(#pfcd7840b25)" style="stroke: #000000; stroke-width: 1.5; stroke-linejoin: miter"/>
   </g>
   <g id="patch_135">
    <path d="M 212.594611 212.870688 
L 217.379565 218.839734 
L 215.116029 219.676219 
L 223.501845 242.368309 
L 223.490499 242.372502 
L 215.104683 219.680412 
L 212.841147 220.516897 
z
" clip-path="url(#pfcd7840b25)" style="stroke: #000000; stroke-width: 1.5; stroke-linejoin: miter"/>
   </g>
   <g id="patch_136">
    <path d="M 185.76 140.256 
L 185.76 140.256 
L 185.765673 140.253904 
L 223.501845 242.368309 
L 223.490499 242.372502 
L 185.754327 140.258096 
L 185.76 140.256 
z
" clip-path="url(#pfcd7840b25)" style="stroke: #000000; stroke-width: 1.5; stroke-linejoin: miter"/>
   </g>
   <g id="patch_137">
    <path d="M 206.071909 214.95818 
L 210.310594 221.326762 
L 207.981987 221.959922 
L 214.329458 245.304354 
L 214.317786 245.307527 
L 207.970314 221.963096 
L 205.641707 222.596256 
z
" clip-path="url(#pfcd7840b25)" style="stroke: #000000; stroke-width: 1.5; stroke-linejoin: miter"/>
   </g>
   <g id="patch_138">
    <path d="M 185.76 140.256 
L 185.76 140.256 
L 185.765836 140.254413 
L 214.329458 245.304354 
L 214.317786 245.307527 
L 185.754164 140.257587 
L 185.76 140.256 
z
" clip-path="url(#pfcd7840b25)" style="stroke: #000000; stroke-width: 1.5; stroke-linejoin: miter"/>
   </g>
   <g id="patch_139">
    <path d="M 199.390238 216.461026 
L 203.04948 223.179302 
L 200.674027 223.604182 
L 204.933476 247.418252 
L 204.921569 247.420382 
L 200.66212 223.606312 
L 198.286666 224.031192 
z
" clip-path="url(#pfcd7840b25)" style="stroke: #000000; stroke-width: 1.5; stroke-linejoin: miter"/>
   </g>
   <g id="patch_140">
    <path d="M 185.76 140.256 
L 185.76 140.256 
L 185.765954 140.254935 
L 204.933476 247.418252 
L 204.921569 247.420382 
L 185.754046 140.257065 
L 185.76 140.256 
z
" clip-path="url(#pfcd7840b25)" style="stroke: #000000; stroke-width: 1.5; stroke-linejoin: miter"/>
   </g>
   <g id="patch_141">
    <path d="M 192.601893 217.367464 
L 195.653053 224.382854 
L 193.249345 224.596129 
L 195.387436 248.693461 
L 195.375387 248.69453 
L 193.237296 224.597198 
L 190.833587 224.810473 
z
" clip-path="url(#pfcd7840b25)" style="stroke: #000000; stroke-width: 1.5; stroke-linejoin: miter"/>
   </g>
   <g id="patch_142">
    <path d="M 185.76 140.256 
L 185.76 140.256 
L 185.766024 140.255465 
L 195.387436 248.693461 
L 195.375387 248.69453 
L 185.753976 140.256535 
L 185.76 140.256 
z
" clip-path="url(#pfcd7840b25)" style="stroke: #000000; stroke-width: 1.5; stroke-linejoin: miter"/>
   </g>
   <g id="PathCollection_1">
    <defs>
     <path id="mcedb6ae408" d="M 0 5 
C 1.326016 5 2.597899 4.473168 3.535534 3.535534 
C 4.473168 2.597899 5 1.326016 5 0 
C 5 -1.326016 4.473168 -2.597899 3.535534 -3.535534 
C 2.597899 -4.473168 1.326016 -5 0 -5 
C -1.326016 -5 -2.597899 -4.473168 -3.535534 -3.535534 
C -4.473168 -2.597899 -5 -1.326016 -5 0 
C -5 1.326016 -4.473168 2.597899 -3.535534 3.535534 
C -2.597899 4.473168 -1.326016 5 0 5 
z
" style="stroke: #000000"/>
    </defs>
    <g clip-path="url(#pfcd7840b25)">
     <use xlink:href="#mcedb6ae408" x="185.76" y="140.256" style="stroke: #000000"/>
    </g>
   </g>
   <g id="text_1">
    <!-- Source velocity = 0 -->
    <g transform="translate(246.24 261.216) scale(0.1 -0.1)">
     <defs>
      <path id="DejaVuSans-Bold-53" d="M 3834 4519 
L 3834 3531 
Q 3450 3703 3084 3790 
Q 2719 3878 2394 3878 
Q 1963 3878 1756 3759 
Q 1550 3641 1550 3391 
Q 1550 3203 1689 3098 
Q 1828 2994 2194 2919 
L 2706 2816 
Q 3484 2659 3812 2340 
Q 4141 2022 4141 1434 
Q 4141 663 3683 286 
Q 3225 -91 2284 -91 
Q 1841 -91 1394 -6 
Q 947 78 500 244 
L 500 1259 
Q 947 1022 1364 901 
Q 1781 781 2169 781 
Q 2563 781 2772 912 
Q 2981 1044 2981 1288 
Q 2981 1506 2839 1625 
Q 2697 1744 2272 1838 
L 1806 1941 
Q 1106 2091 782 2419 
Q 459 2747 459 3303 
Q 459 4000 909 4375 
Q 1359 4750 2203 4750 
Q 2588 4750 2994 4692 
Q 3400 4634 3834 4519 
z
" transform="scale(0.015625)"/>
      <path id="DejaVuSans-Bold-6f" d="M 2203 2784 
Q 1831 2784 1636 2517 
Q 1441 2250 1441 1747 
Q 1441 1244 1636 976 
Q 1831 709 2203 709 
Q 2569 709 2762 976 
Q 2956 1244 2956 1747 
Q 2956 2250 2762 2517 
Q 2569 2784 2203 2784 
z
M 2203 3584 
Q 3106 3584 3614 3096 
Q 4122 2609 4122 1747 
Q 4122 884 3614 396 
Q 3106 -91 2203 -91 
Q 1297 -91 786 396 
Q 275 884 275 1747 
Q 275 2609 786 3096 
Q 1297 3584 2203 3584 
z
" transform="scale(0.015625)"/>
      <path id="DejaVuSans-Bold-75" d="M 500 1363 
L 500 3500 
L 1625 3500 
L 1625 3150 
Q 1625 2866 1622 2436 
Q 1619 2006 1619 1863 
Q 1619 1441 1641 1255 
Q 1663 1069 1716 984 
Q 1784 875 1895 815 
Q 2006 756 2150 756 
Q 2500 756 2700 1025 
Q 2900 1294 2900 1772 
L 2900 3500 
L 4019 3500 
L 4019 0 
L 2900 0 
L 2900 506 
Q 2647 200 2364 54 
Q 2081 -91 1741 -91 
Q 1134 -91 817 281 
Q 500 653 500 1363 
z
" transform="scale(0.015625)"/>
      <path id="DejaVuSans-Bold-72" d="M 3138 2547 
Q 2991 2616 2845 2648 
Q 2700 2681 2553 2681 
Q 2122 2681 1889 2404 
Q 1656 2128 1656 1613 
L 1656 0 
L 538 0 
L 538 3500 
L 1656 3500 
L 1656 2925 
Q 1872 3269 2151 3426 
Q 2431 3584 2822 3584 
Q 2878 3584 2943 3579 
Q 3009 3575 3134 3559 
L 3138 2547 
z
" transform="scale(0.015625)"/>
      <path id="DejaVuSans-Bold-63" d="M 3366 3391 
L 3366 2478 
Q 3138 2634 2908 2709 
Q 2678 2784 2431 2784 
Q 1963 2784 1702 2511 
Q 1441 2238 1441 1747 
Q 1441 1256 1702 982 
Q 1963 709 2431 709 
Q 2694 709 2930 787 
Q 3166 866 3366 1019 
L 3366 103 
Q 3103 6 2833 -42 
Q 2563 -91 2291 -91 
Q 1344 -91 809 395 
Q 275 881 275 1747 
Q 275 2613 809 3098 
Q 1344 3584 2291 3584 
Q 2566 3584 2833 3536 
Q 3100 3488 3366 3391 
z
" transform="scale(0.015625)"/>
      <path id="DejaVuSans-Bold-65" d="M 4031 1759 
L 4031 1441 
L 1416 1441 
Q 1456 1047 1700 850 
Q 1944 653 2381 653 
Q 2734 653 3104 758 
Q 3475 863 3866 1075 
L 3866 213 
Q 3469 63 3072 -14 
Q 2675 -91 2278 -91 
Q 1328 -91 801 392 
Q 275 875 275 1747 
Q 275 2603 792 3093 
Q 1309 3584 2216 3584 
Q 3041 3584 3536 3087 
Q 4031 2591 4031 1759 
z
M 2881 2131 
Q 2881 2450 2695 2645 
Q 2509 2841 2209 2841 
Q 1884 2841 1681 2658 
Q 1478 2475 1428 2131 
L 2881 2131 
z
" transform="scale(0.015625)"/>
      <path id="DejaVuSans-Bold-20" transform="scale(0.015625)"/>
      <path id="DejaVuSans-Bold-76" d="M 97 3500 
L 1216 3500 
L 2088 1081 
L 2956 3500 
L 4078 3500 
L 2700 0 
L 1472 0 
L 97 3500 
z
" transform="scale(0.015625)"/>
      <path id="DejaVuSans-Bold-6c" d="M 538 4863 
L 1656 4863 
L 1656 0 
L 538 0 
L 538 4863 
z
" transform="scale(0.015625)"/>
      <path id="DejaVuSans-Bold-69" d="M 538 3500 
L 1656 3500 
L 1656 0 
L 538 0 
L 538 3500 
z
M 538 4863 
L 1656 4863 
L 1656 3950 
L 538 3950 
L 538 4863 
z
" transform="scale(0.015625)"/>
      <path id="DejaVuSans-Bold-74" d="M 1759 4494 
L 1759 3500 
L 2913 3500 
L 2913 2700 
L 1759 2700 
L 1759 1216 
Q 1759 972 1856 886 
Q 1953 800 2241 800 
L 2816 800 
L 2816 0 
L 1856 0 
Q 1194 0 917 276 
Q 641 553 641 1216 
L 641 2700 
L 84 2700 
L 84 3500 
L 641 3500 
L 641 4494 
L 1759 4494 
z
" transform="scale(0.015625)"/>
      <path id="DejaVuSans-Bold-79" d="M 78 3500 
L 1197 3500 
L 2138 1125 
L 2938 3500 
L 4056 3500 
L 2584 -331 
Q 2363 -916 2067 -1148 
Q 1772 -1381 1288 -1381 
L 641 -1381 
L 641 -647 
L 991 -647 
Q 1275 -647 1404 -556 
Q 1534 -466 1606 -231 
L 1638 -134 
L 78 3500 
z
" transform="scale(0.015625)"/>
      <path id="DejaVuSans-Bold-3d" d="M 678 3084 
L 4684 3084 
L 4684 2350 
L 678 2350 
L 678 3084 
z
M 678 1663 
L 4684 1663 
L 4684 922 
L 678 922 
L 678 1663 
z
" transform="scale(0.015625)"/>
      <path id="DejaVuSans-Bold-30" d="M 2944 2338 
Q 2944 3213 2780 3570 
Q 2616 3928 2228 3928 
Q 1841 3928 1675 3570 
Q 1509 3213 1509 2338 
Q 1509 1453 1675 1090 
Q 1841 728 2228 728 
Q 2613 728 2778 1090 
Q 2944 1453 2944 2338 
z
M 4147 2328 
Q 4147 1169 3647 539 
Q 3147 -91 2228 -91 
Q 1306 -91 806 539 
Q 306 1169 306 2328 
Q 306 3491 806 4120 
Q 1306 4750 2228 4750 
Q 3147 4750 3647 4120 
Q 4147 3491 4147 2328 
z
" transform="scale(0.015625)"/>
     </defs>
     <use xlink:href="#DejaVuSans-Bold-53"/>
     <use xlink:href="#DejaVuSans-Bold-6f" x="72.021484"/>
     <use xlink:href="#DejaVuSans-Bold-75" x="140.722656"/>
     <use xlink:href="#DejaVuSans-Bold-72" x="211.914062"/>
     <use xlink:href="#DejaVuSans-Bold-63" x="261.230469"/>
     <use xlink:href="#DejaVuSans-Bold-65" x="320.507812"/>
     <use xlink:href="#DejaVuSans-Bold-20" x="388.330078"/>
     <use xlink:href="#DejaVuSans-Bold-76" x="423.144531"/>
     <use xlink:href="#DejaVuSans-Bold-65" x="488.330078"/>
     <use xlink:href="#DejaVuSans-Bold-6c" x="556.152344"/>
     <use xlink:href="#DejaVuSans-Bold-6f" x="590.429688"/>
     <use xlink:href="#DejaVuSans-Bold-63" x="659.130859"/>
     <use xlink:href="#DejaVuSans-Bold-69" x="718.408203"/>
     <use xlink:href="#DejaVuSans-Bold-74" x="752.685547"/>
     <use xlink:href="#DejaVuSans-Bold-79" x="800.488281"/>
     <use xlink:href="#DejaVuSans-Bold-20" x="865.673828"/>
     <use xlink:href="#DejaVuSans-Bold-3d" x="900.488281"/>
     <use xlink:href="#DejaVuSans-Bold-20" x="984.277344"/>
     <use xlink:href="#DejaVuSans-Bold-30" x="1019.091797"/>
    </g>
   </g>
  </g>
 </g>
 <defs>
  <clipPath id="pfcd7840b25">
   <rect x="7.2" y="7.2" width="357.12" height="266.112"/>
  </clipPath>
 </defs>
</svg>
