<svg data-optimized="true" xmlns="http://www.w3.org/2000/svg" xmlns:xlink="http://www.w3.org/1999/xlink" width="495.36" height="374.016" viewBox="0 0 371.52 280.512"><defs><style>*{stroke-linejoin:round;stroke-linecap:butt}</style></defs><g id="figure_1"><g id="axes_1"><path id="patch_1" d="m185.76 18.691 4.234 12.701h-4.228v108.864h-.012V31.392h-4.228z" clip-path="url(#pc464007aac)" style="stroke:#000;stroke-width:1.5;stroke-linejoin:miter"/><path id="patch_2" d="m196.504 19.167 3.094 13.025-4.21-.373-9.622 108.438-.012-.002 9.621-108.438-4.21-.373z" clip-path="url(#pc464007aac)" style="stroke:#000;stroke-width:1.5;stroke-linejoin:miter"/><path id="patch_3" d="m207.164 20.59 1.931 13.248-4.162-.744-19.167 107.163-.012-.002 19.168-107.163-4.162-.745z" clip-path="url(#pc464007aac)" style="stroke:#000;stroke-width:1.5;stroke-linejoin:miter"/><path id="patch_4" d="m217.656 22.95.753 13.367-4.08-1.11-28.563 105.05-.012-.003 28.564-105.05-4.08-1.109z" clip-path="url(#pc464007aac)" style="stroke:#000;stroke-width:1.5;stroke-linejoin:miter"/><path id="patch_5" d="m227.899 26.228-.432 13.381-3.965-1.465-37.736 102.114-.012-.004L223.49 38.139l-3.965-1.465z" clip-path="url(#pc464007aac)" style="stroke:#000;stroke-width:1.5;stroke-linejoin:miter"/><path id="patch_6" d="m237.812 30.399-1.613 13.29-3.82-1.81-46.614 98.38-.01-.006 46.613-98.38-3.82-1.81z" clip-path="url(#pc464007aac)" style="stroke:#000;stroke-width:1.5;stroke-linejoin:miter"/><path id="patch_7" d="m247.317 35.429-2.78 13.096-3.646-2.141-55.126 93.875-.01-.006 55.126-93.875-3.646-2.14z" clip-path="url(#pc464007aac)" style="stroke:#000;stroke-width:1.5;stroke-linejoin:miter"/><path id="patch_8" d="m256.34 41.28-3.926 12.798-3.442-2.454-63.207 88.636-.01-.008 63.207-88.635-3.442-2.455z" clip-path="url(#pc464007aac)" style="stroke:#000;stroke-width:1.5;stroke-linejoin:miter"/><path id="patch_9" d="m264.812 47.905-5.043 12.401-3.211-2.749-70.793 82.703-.01-.008 70.793-82.703-3.211-2.749z" clip-path="url(#pc464007aac)" style="stroke:#000;stroke-width:1.5;stroke-linejoin:miter"/><path id="patch_10" d="m272.665 55.253-6.12 11.907-2.955-3.022-77.826 76.122-.008-.008 77.825-76.123-2.956-3.022z" clip-path="url(#pc464007aac)" style="stroke:#000;stroke-width:1.5;stroke-linejoin:miter"/><path id="patch_11" d="m279.837 63.266-7.147 11.32-2.678-3.271-84.248 68.946-.008-.01 84.249-68.946-2.678-3.271z" clip-path="url(#pc464007aac)" style="stroke:#000;stroke-width:1.5;stroke-linejoin:miter"/><path id="patch_12" d="m286.274 71.882-8.12 10.644-2.378-3.495-90.013 61.23-.006-.01 90.012-61.23-2.378-3.496z" clip-path="url(#pc464007aac)" style="stroke:#000;stroke-width:1.5;stroke-linejoin:miter"/><path id="patch_13" d="m291.923 81.033-9.029 9.885-2.06-3.692-95.071 53.035-.006-.01 95.072-53.036-2.06-3.692z" clip-path="url(#pc464007aac)" style="stroke:#000;stroke-width:1.5;stroke-linejoin:miter"/><path id="patch_14" d="m296.742 90.647-9.868 9.048-1.725-3.86-99.387 44.427-.004-.012 99.386-44.425-1.725-3.86z" clip-path="url(#pc464007aac)" style="stroke:#000;stroke-width:1.5;stroke-linejoin:miter"/><path id="patch_15" d="m300.692 100.65-10.628 8.14-1.378-3.996-102.924 35.468-.004-.012 102.924-35.468-1.377-3.997z" clip-path="url(#pc464007aac)" style="stroke:#000;stroke-width:1.5;stroke-linejoin:miter"/><path id="patch_16" d="m303.743 110.963-11.307 7.17-1.018-4.104-105.657 26.233-.002-.012 105.656-26.233-1.019-4.103z" clip-path="url(#pc464007aac)" style="stroke:#000;stroke-width:1.5;stroke-linejoin:miter"/><path id="patch_17" d="m305.87 121.505-11.896 6.142-.652-4.177-107.561 16.792-.002-.012 107.561-16.792-.652-4.177z" clip-path="url(#pc464007aac)" style="stroke:#000;stroke-width:1.5;stroke-linejoin:miter"/><path id="patch_18" d="m307.057 132.193-12.392 5.067-.28-4.218-108.625 7.22v-.012l108.624-7.22-.28-4.218z" clip-path="url(#pc464007aac)" style="stroke:#000;stroke-width:1.5;stroke-linejoin:miter"/><path id="patch_19" d="m307.295 142.945-12.791 3.952.093-4.227-108.837-2.408v-.012l108.837 2.408.094-4.226z" clip-path="url(#pc464007aac)" style="stroke:#000;stroke-width:1.5;stroke-linejoin:miter"/><path id="patch_20" d="m306.582 153.676-13.09 2.806.466-4.202-108.199-12.018.002-.012 108.198 12.018.467-4.202z" clip-path="url(#pc464007aac)" style="stroke:#000;stroke-width:1.5;stroke-linejoin:miter"/><path id="patch_21" d="m304.923 164.302-13.287 1.637.836-4.144-106.713-21.533.002-.012 106.713 21.534.836-4.144z" clip-path="url(#pc464007aac)" style="stroke:#000;stroke-width:1.5;stroke-linejoin:miter"/><path id="patch_22" d="m302.331 174.74-13.38.456 1.2-4.054-104.393-30.88.004-.012 104.392 30.88 1.2-4.053z" clip-path="url(#pc464007aac)" style="stroke:#000;stroke-width:1.5;stroke-linejoin:miter"/><path id="patch_23" d="m298.828 184.907-13.368-.727 1.552-3.932-101.254-39.986.004-.012 101.255 39.986 1.553-3.932z" clip-path="url(#pc464007aac)" style="stroke:#000;stroke-width:1.5;stroke-linejoin:miter"/><path id="patch_24" d="m294.439 194.725-13.252-1.906 1.895-3.78-97.325-48.778.006-.01 97.324 48.778 1.894-3.78z" clip-path="url(#pc464007aac)" style="stroke:#000;stroke-width:1.5;stroke-linejoin:miter"/><path id="patch_25" d="m289.2 204.117-13.031-3.07 2.22-3.597-92.632-57.189.006-.01 92.633 57.189 2.22-3.597z" clip-path="url(#pc464007aac)" style="stroke:#000;stroke-width:1.5;stroke-linejoin:miter"/><path id="patch_26" d="m283.15 213.01-12.708-4.21 2.53-3.387-87.216-65.152.008-.01 87.215 65.152 2.53-3.387z" clip-path="url(#pc464007aac)" style="stroke:#000;stroke-width:1.5;stroke-linejoin:miter"/><path id="patch_27" d="m276.34 221.332-12.287-5.316 2.82-3.15-81.117-72.605.008-.01 81.116 72.606 2.82-3.15z" clip-path="url(#pc464007aac)" style="stroke:#000;stroke-width:1.5;stroke-linejoin:miter"/><path id="patch_28" d="m268.82 229.02-11.77-6.381 3.088-2.889-74.382-79.49.008-.008 74.382 79.49 3.087-2.888z" clip-path="url(#pc464007aac)" style="stroke:#000;stroke-width:1.5;stroke-linejoin:miter"/><path id="patch_29" d="m260.65 236.014-11.16-7.397 3.33-2.604-67.065-85.753.01-.008 67.065 85.753 3.33-2.604z" clip-path="url(#pc464007aac)" style="stroke:#000;stroke-width:1.5;stroke-linejoin:miter"/><path id="patch_30" d="m251.894 242.258-10.462-8.354 3.547-2.3-59.224-91.345.01-.006 59.224 91.344 3.548-2.3z" clip-path="url(#pc464007aac)" style="stroke:#000;stroke-width:1.5;stroke-linejoin:miter"/><path id="patch_31" d="m242.62 247.703-9.683-9.245 3.737-1.978-50.92-96.221.011-.006 50.92 96.222 3.736-1.978z" clip-path="url(#pc464007aac)" style="stroke:#000;stroke-width:1.5;stroke-linejoin:miter"/><path id="patch_32" d="m232.901 252.308-8.827-10.065 3.897-1.64-42.217-100.345.012-.004 42.216 100.345 3.896-1.64z" clip-path="url(#pc464007aac)" style="stroke:#000;stroke-width:1.5;stroke-linejoin:miter"/><path id="patch_33" d="m222.814 256.036-7.904-10.806 4.027-1.289-33.183-103.683.012-.004 33.182 103.684 4.027-1.289z" clip-path="url(#pc464007aac)" style="stroke:#000;stroke-width:1.5;stroke-linejoin:miter"/><path id="patch_34" d="m212.436 258.858-6.917-11.462 4.124-.928-23.889-106.21.012-.003 23.889 106.21 4.124-.927z" clip-path="url(#pc464007aac)" style="stroke:#000;stroke-width:1.5;stroke-linejoin:miter"/><path id="patch_35" d="m201.85 260.751-5.878-12.028 4.19-.56-14.408-107.906.012-.002 14.409 107.906 4.19-.56z" clip-path="url(#pc464007aac)" style="stroke:#000;stroke-width:1.5;stroke-linejoin:miter"/><path id="patch_36" d="m191.137 261.702-4.791-12.501 4.223-.187-4.815-108.758h.012l4.815 108.757 4.224-.187z" clip-path="url(#pc464007aac)" style="stroke:#000;stroke-width:1.5;stroke-linejoin:miter"/><path id="patch_37" d="m180.383 261.702-3.668-12.876 4.224.187 4.815-108.757h.012l-4.815 108.758 4.223.187z" clip-path="url(#pc464007aac)" style="stroke:#000;stroke-width:1.5;stroke-linejoin:miter"/><path id="patch_38" d="m169.67 260.751-2.515-13.15 4.19.56 14.409-107.906.012.002-14.409 107.906 4.19.56z" clip-path="url(#pc464007aac)" style="stroke:#000;stroke-width:1.5;stroke-linejoin:miter"/><path id="patch_39" d="m159.084 258.858-1.343-13.32 4.124.927 23.89-106.21.01.002-23.888 106.21 4.124.929z" clip-path="url(#pc464007aac)" style="stroke:#000;stroke-width:1.5;stroke-linejoin:miter"/><path id="patch_40" d="m148.706 256.036-.16-13.387 4.026 1.289 33.182-103.684.012.004-33.183 103.683 4.027 1.29z" clip-path="url(#pc464007aac)" style="stroke:#000;stroke-width:1.5;stroke-linejoin:miter"/><path id="patch_41" d="m138.619 252.308 1.023-13.348 3.896 1.639 42.216-100.345.012.004-42.217 100.346 3.897 1.639z" clip-path="url(#pc464007aac)" style="stroke:#000;stroke-width:1.5;stroke-linejoin:miter"/><path id="patch_42" d="m128.9 247.703 2.199-13.206 3.736 1.978 50.92-96.222.01.006-50.92 96.221 3.738 1.978z" clip-path="url(#pc464007aac)" style="stroke:#000;stroke-width:1.5;stroke-linejoin:miter"/><path id="patch_43" d="m119.626 242.258 3.357-12.96 3.548 2.3 59.224-91.345.01.006-59.224 91.345 3.547 2.3z" clip-path="url(#pc464007aac)" style="stroke:#000;stroke-width:1.5;stroke-linejoin:miter"/><path id="patch_44" d="m110.87 236.014 4.49-12.613 3.33 2.604 67.065-85.753.01.008-67.066 85.753 3.33 2.604z" clip-path="url(#pc464007aac)" style="stroke:#000;stroke-width:1.5;stroke-linejoin:miter"/><path id="patch_45" d="m102.7 229.02 5.587-12.166 3.087 2.888 74.382-79.49.008.008-74.382 79.49 3.087 2.889z" clip-path="url(#pc464007aac)" style="stroke:#000;stroke-width:1.5;stroke-linejoin:miter"/><path id="patch_46" d="m95.18 221.332 6.64-11.625 2.82 3.15 81.116-72.606.008.01-81.116 72.605 2.82 3.15z" clip-path="url(#pc464007aac)" style="stroke:#000;stroke-width:1.5;stroke-linejoin:miter"/><path id="patch_47" d="m88.37 213.01 7.64-10.994 2.53 3.387 87.216-65.152.008.01-87.216 65.152 2.53 3.387z" clip-path="url(#pc464007aac)" style="stroke:#000;stroke-width:1.5;stroke-linejoin:miter"/><path id="patch_48" d="m82.32 204.117 8.583-10.274 2.221 3.597 92.633-57.19.006.011-92.632 57.19 2.22 3.596z" clip-path="url(#pc464007aac)" style="stroke:#000;stroke-width:1.5;stroke-linejoin:miter"/><path id="patch_49" d="m77.081 194.725 9.458-9.475 1.894 3.779 97.324-48.778.006.01-97.325 48.779 1.895 3.78z" clip-path="url(#pc464007aac)" style="stroke:#000;stroke-width:1.5;stroke-linejoin:miter"/><path id="patch_50" d="m72.692 184.907 10.258-8.603 1.553 3.932 101.255-39.986.004.012-101.254 39.986 1.552 3.932z" clip-path="url(#pc464007aac)" style="stroke:#000;stroke-width:1.5;stroke-linejoin:miter"/><path id="patch_51" d="m69.189 174.74 10.978-7.663 1.199 4.054 104.392-30.88.004.01-104.393 30.881 1.2 4.054z" clip-path="url(#pc464007aac)" style="stroke:#000;stroke-width:1.5;stroke-linejoin:miter"/><path id="patch_52" d="m66.597 164.302 11.613-6.662.836 4.144 106.713-21.534.002.012-106.713 21.533.836 4.144z" clip-path="url(#pc464007aac)" style="stroke:#000;stroke-width:1.5;stroke-linejoin:miter"/><path id="patch_53" d="m64.938 153.676 12.156-5.61.467 4.202 108.198-12.018.002.012L77.562 152.28l.467 4.202z" clip-path="url(#pc464007aac)" style="stroke:#000;stroke-width:1.5;stroke-linejoin:miter"/><path id="patch_54" d="m64.225 142.945 12.604-4.513.094 4.226 108.837-2.408v.012L76.923 142.67l.093 4.227z" clip-path="url(#pc464007aac)" style="stroke:#000;stroke-width:1.5;stroke-linejoin:miter"/><path id="patch_55" d="m64.463 132.193 12.953-3.381-.28 4.218 108.624 7.22v.012l-108.625-7.22-.28 4.218z" clip-path="url(#pc464007aac)" style="stroke:#000;stroke-width:1.5;stroke-linejoin:miter"/><path id="patch_56" d="m65.65 121.505 13.202-2.224-.652 4.177 107.56 16.792v.012L78.197 123.47l-.652 4.177z" clip-path="url(#pc464007aac)" style="stroke:#000;stroke-width:1.5;stroke-linejoin:miter"/><path id="patch_57" d="m67.777 110.963 13.347-1.049-1.019 4.103 105.656 26.233-.002.012-105.657-26.233-1.018 4.103z" clip-path="url(#pc464007aac)" style="stroke:#000;stroke-width:1.5;stroke-linejoin:miter"/><path id="patch_58" d="m70.828 100.65 13.387.135-1.377 3.997 102.924 35.468-.004.012-102.924-35.468-1.378 3.997z" clip-path="url(#pc464007aac)" style="stroke:#000;stroke-width:1.5;stroke-linejoin:miter"/><path id="patch_59" d="m74.778 90.647 13.323 1.318-1.725 3.86 99.386 44.425-.004.012L86.37 95.836l-1.725 3.86z" clip-path="url(#pc464007aac)" style="stroke:#000;stroke-width:1.5;stroke-linejoin:miter"/><path id="patch_60" d="m79.597 81.033 13.154 2.49-2.06 3.692 95.072 53.036-.006.01-95.071-53.035-2.06 3.692z" clip-path="url(#pc464007aac)" style="stroke:#000;stroke-width:1.5;stroke-linejoin:miter"/><path id="patch_61" d="m85.246 71.882 12.883 3.643-2.378 3.496 90.012 61.23-.006.01-90.013-61.23-2.377 3.495z" clip-path="url(#pc464007aac)" style="stroke:#000;stroke-width:1.5;stroke-linejoin:miter"/><path id="patch_62" d="m91.683 63.266 12.51 4.768-2.678 3.271 84.249 68.946-.008.01-84.248-68.946-2.678 3.271z" clip-path="url(#pc464007aac)" style="stroke:#000;stroke-width:1.5;stroke-linejoin:miter"/><path id="patch_63" d="m98.855 55.253 12.04 5.854-2.956 3.022 77.825 76.123-.008.008-77.826-76.122-2.956 3.022z" clip-path="url(#pc464007aac)" style="stroke:#000;stroke-width:1.5;stroke-linejoin:miter"/><path id="patch_64" d="m106.708 47.905 11.475 6.895-3.211 2.75 70.793 82.702-.01.008-70.793-82.703-3.211 2.75z" clip-path="url(#pc464007aac)" style="stroke:#000;stroke-width:1.5;stroke-linejoin:miter"/><path id="patch_65" d="M115.18 41.28 126 49.162l-3.442 2.455 63.207 88.635-.01.008-63.207-88.636-3.442 2.454z" clip-path="url(#pc464007aac)" style="stroke:#000;stroke-width:1.5;stroke-linejoin:miter"/><path id="patch_66" d="m124.203 35.429 10.082 8.808-3.646 2.14 55.126 93.876-.01.006-55.126-93.875-3.645 2.14z" clip-path="url(#pc464007aac)" style="stroke:#000;stroke-width:1.5;stroke-linejoin:miter"/><path id="patch_67" d="m133.708 30.399 9.264 9.665-3.82 1.81 46.613 98.38-.01.005-46.614-98.38-3.82 1.81z" clip-path="url(#pc464007aac)" style="stroke:#000;stroke-width:1.5;stroke-linejoin:miter"/><path id="patch_68" d="m143.621 26.228 8.374 10.446-3.965 1.465 37.736 102.115-.012.004-37.736-102.114-3.965 1.465z" clip-path="url(#pc464007aac)" style="stroke:#000;stroke-width:1.5;stroke-linejoin:miter"/><path id="patch_69" d="m153.864 22.95 7.418 11.145-4.08 1.11 28.564 105.05-.012.003-28.563-105.05-4.08 1.109z" clip-path="url(#pc464007aac)" style="stroke:#000;stroke-width:1.5;stroke-linejoin:miter"/><path id="patch_70" d="m164.356 20.59 6.404 11.757-4.162.745 19.168 107.163-.012.002-19.167-107.163-4.162.744z" clip-path="url(#pc464007aac)" style="stroke:#000;stroke-width:1.5;stroke-linejoin:miter"/><path id="patch_71" d="m175.016 19.167 5.34 12.277-4.211.373 9.621 108.438-.012.002-9.621-108.438-4.211.373z" clip-path="url(#pc464007aac)" style="stroke:#000;stroke-width:1.5;stroke-linejoin:miter"/><g id="PathCollection_1"><defs><path id="m04dfc645fd" d="M0 2.739A2.739 2.739 0 1 0 0-2.74a2.739 2.739 0 0 0 0 5.48z" style="stroke:#000"/></defs><g clip-path="url(#pc464007aac)"><use xlink:href="#m04dfc645fd" x="185.76" y="140.256" style="stroke:#000"/></g></g><g id="text_1" transform="matrix(.1 0 0 -.1 246.24 261.216)"><defs><path id="DejaVuSans-Bold-53" d="M3834 4519v-988q-384 172-750 259-365 88-690 88-431 0-638-119-206-118-206-368 0-188 139-293 139-104 505-179l512-103q778-157 1106-476 329-318 329-906 0-771-458-1148T2284-91q-443 0-890 85-447 84-894 250v1015q447-237 864-358 417-120 805-120 394 0 603 131 209 132 209 376 0 218-142 337t-567 213l-466 103q-700 150-1024 478-323 328-323 884 0 697 450 1072t1294 375q385 0 791-58t840-173" transform="scale(.01563)"/><path id="DejaVuSans-Bold-6f" d="M2203 2784q-372 0-567-267t-195-770 195-771q195-267 567-267 366 0 559 267 194 268 194 771t-194 770q-193 267-559 267m0 800q903 0 1411-488 508-487 508-1349 0-863-508-1351Q3106-91 2203-91q-906 0-1417 487-511 488-511 1351 0 862 511 1349 511 488 1417 488" transform="scale(.01563)"/><path id="DejaVuSans-Bold-75" d="M500 1363v2137h1125v-350q0-284-3-714t-3-573q0-422 22-608t75-271q68-109 179-169 111-59 255-59 350 0 550 269t200 747v1728h1119V0H2900v506q-253-306-536-452-283-145-623-145-607 0-924 372T500 1363" transform="scale(.01563)"/><path id="DejaVuSans-Bold-72" d="M3138 2547q-147 69-293 101-145 33-292 33-431 0-664-277-233-276-233-791V0H538v3500h1118v-575q216 344 495 501 280 158 671 158 56 0 121-5 66-4 191-20z" transform="scale(.01563)"/><path id="DejaVuSans-Bold-63" d="M3366 3391v-913q-228 156-458 231t-477 75q-468 0-729-273t-261-764 261-765q261-273 729-273 263 0 499 78 236 79 436 232V103Q3103 6 2833-42q-270-49-542-49-947 0-1482 486-534 486-534 1352t534 1351q535 486 1482 486 275 0 542-48t533-145" transform="scale(.01563)"/><path id="DejaVuSans-Bold-65" d="M4031 1759v-318H1416q40-394 284-591t681-197q353 0 723 105 371 105 762 317V213Q3469 63 3072-14t-794-77q-950 0-1477 483-526 483-526 1355 0 856 517 1346 517 491 1424 491 825 0 1320-497 495-496 495-1328m-1150 372q0 319-186 514-186 196-486 196-325 0-528-183t-253-527z" transform="scale(.01563)"/><path id="DejaVuSans-Bold-76" d="M97 3500h1119l872-2419 868 2419h1122L2700 0H1472z" transform="scale(.01563)"/><path id="DejaVuSans-Bold-6c" d="M538 4863h1118V0H538z" transform="scale(.01563)"/><path id="DejaVuSans-Bold-69" d="M538 3500h1118V0H538zm0 1363h1118v-913H538z" transform="scale(.01563)"/><path id="DejaVuSans-Bold-74" d="M1759 4494v-994h1154v-800H1759V1216q0-244 97-330t385-86h575V0h-960q-662 0-939 276-276 277-276 940v1484H84v800h557v994z" transform="scale(.01563)"/><path id="DejaVuSans-Bold-79" d="M78 3500h1119l941-2375 800 2375h1118L2584-331q-221-585-517-817-295-233-779-233H641v734h350q284 0 413 91 130 90 202 325l32 97z" transform="scale(.01563)"/><path id="DejaVuSans-Bold-3d" d="M678 3084h4006v-734H678zm0-1421h4006V922H678z" transform="scale(.01563)"/><path id="DejaVuSans-Bold-30" d="M2944 2338q0 875-164 1232-164 358-552 358-387 0-553-358-166-357-166-1232 0-885 166-1248 166-362 553-362 385 0 550 362 166 363 166 1248m1203-10q0-1159-500-1789T2228-91q-922 0-1422 630T306 2328q0 1163 500 1792 500 630 1422 630 919 0 1419-630 500-629 500-1792" transform="scale(.01563)"/></defs><use xlink:href="#DejaVuSans-Bold-53"/><use xlink:href="#DejaVuSans-Bold-6f" x="72.021"/><use xlink:href="#DejaVuSans-Bold-75" x="140.723"/><use xlink:href="#DejaVuSans-Bold-72" x="211.914"/><use xlink:href="#DejaVuSans-Bold-63" x="261.23"/><use xlink:href="#DejaVuSans-Bold-65" x="320.508"/><use xlink:href="#DejaVuSans-Bold-76" x="423.145"/><use xlink:href="#DejaVuSans-Bold-65" x="488.33"/><use xlink:href="#DejaVuSans-Bold-6c" x="556.152"/><use xlink:href="#DejaVuSans-Bold-6f" x="590.43"/><use xlink:href="#DejaVuSans-Bold-63" x="659.131"/><use xlink:href="#DejaVuSans-Bold-69" x="718.408"/><use xlink:href="#DejaVuSans-Bold-74" x="752.686"/><use xlink:href="#DejaVuSans-Bold-79" x="800.488"/><use xlink:href="#DejaVuSans-Bold-3d" x="900.488"/><use xlink:href="#DejaVuSans-Bold-30" x="1019.092"/></g></g></g><defs><clipPath id="pc464007aac"><path d="M7.2 7.2h357.12v266.112H7.2z"/></clipPath></defs></svg>