<svg xmlns="http://www.w3.org/2000/svg" xml:space="preserve" width="3949" height="2129" overflow="hidden"><defs><linearGradient id="b" x1="410" x2="979.714" y1="1860" y2="1860" gradientUnits="userSpaceOnUse" spreadMethod="reflect"><stop offset="0" stop-color="#FFF"/><stop offset=".37" stop-color="#D0CECE"/><stop offset=".81" stop-color="#262626"/><stop offset="1"/></linearGradient><linearGradient id="c" x1="416" x2="985.714" y1="1878" y2="1878" gradientUnits="userSpaceOnUse" spreadMethod="reflect"><stop offset="0" stop-color="#FFF"/><stop offset=".37" stop-color="#D0CECE"/><stop offset=".81" stop-color="#262626"/><stop offset="1"/></linearGradient><linearGradient id="d" x1="433" x2="1002.71" y1="1897" y2="1897" gradientUnits="userSpaceOnUse" spreadMethod="reflect"><stop offset="0" stop-color="#FFF"/><stop offset=".37" stop-color="#D0CECE"/><stop offset=".81" stop-color="#262626"/><stop offset="1"/></linearGradient><linearGradient id="e" x1="459" x2="1028.71" y1="1911" y2="1911" gradientUnits="userSpaceOnUse" spreadMethod="reflect"><stop offset="0" stop-color="#FFF"/><stop offset=".37" stop-color="#D0CECE"/><stop offset=".81" stop-color="#262626"/><stop offset="1"/></linearGradient><linearGradient id="f" x1="0" x2="569.714" y1="0" y2="0" gradientUnits="userSpaceOnUse" spreadMethod="reflect"><stop offset="0" stop-color="#FFF"/><stop offset=".37" stop-color="#D0CECE"/><stop offset=".81" stop-color="#262626"/><stop offset="1"/></linearGradient><linearGradient id="g" x1="0" x2="569.714" y1="0" y2="0" gradientUnits="userSpaceOnUse" spreadMethod="reflect"><stop offset="0" stop-color="#FFF"/><stop offset=".37" stop-color="#D0CECE"/><stop offset=".81" stop-color="#262626"/><stop offset="1"/></linearGradient><linearGradient id="h" x1="0" x2="569.714" y1="0" y2="0" gradientUnits="userSpaceOnUse" spreadMethod="reflect"><stop offset="0" stop-color="#FFF"/><stop offset=".37" stop-color="#D0CECE"/><stop offset=".81" stop-color="#262626"/><stop offset="1"/></linearGradient><linearGradient id="i" x1="0" x2="569.714" y1="0" y2="0" gradientUnits="userSpaceOnUse" spreadMethod="reflect"><stop offset="0" stop-color="#FFF"/><stop offset=".37" stop-color="#D0CECE"/><stop offset=".81" stop-color="#262626"/><stop offset="1"/></linearGradient><clipPath id="a"><path d="M47 242h3949v2129H47z"/></clipPath></defs><g clip-path="url(#a)" transform="translate(-47 -242)"><path fill="#767171" fill-rule="evenodd" d="M2794 439.823C2795.92 791.72 2904.28 265 2981 265v352c-76.72 0-187-528.22-187-177.074z"/><path fill="#767171" fill-rule="evenodd" d="M2946 310.836c-1.76 152.198 0 263.421 0 263.421l-1155.45 49.494-393.27 18.722c-148.75 9.137-179.73-102.564-185.81-164.818-9.37 27.858-34.14 28.603-58.94 31.534-37.18 3.045-69.53-34.281-69.53-65.185 0-33.949 32.35-70.929 69.53-68.331 24.8 3.378 49.59 5.676 58.94 33.534 6.08-61.677 37.06-175.723 185.81-166.702l393.27 18.605z"/><path fill="#FFF" d="M1362 351h1619v184H1362z"/><path fill="#FFF" fill-rule="evenodd" d="M1318 381.667c0-16.937 19.57-30.667 43.72-30.667h1109.56c24.15 0 43.72-.119 43.72 30.667v122.666c0 16.937-19.57 30.667-43.72 30.667H1361.72c-24.15 0-43.72-13.73-43.72-30.667z"/><path fill="#3B3838" fill-rule="evenodd" d="M1326 443c0-50.81 41.19-92 92-92s92 41.19 92 92-41.19 92-92 92-92-41.19-92-92"/><path fill="#767171" fill-rule="evenodd" d="M1758 1845.33c1.92 350.89 110.28-174.33 187-174.33v351c-76.72 0-187-526.72-187-176.57z"/><path fill="#767171" fill-rule="evenodd" d="M1910 1716.66c-1.76 151.82 0 262.77 0 262.77L754.552 2028.8l-393.269 18.67c-148.749 9.12-179.731-102.3-185.818-164.4-9.36 27.79-34.139 28.53-58.933 31.45C79.349 1917.56 47 1880.33 47 1849.5c0-33.86 32.349-70.75 69.532-68.16 24.794 3.37 49.587 5.66 58.933 33.45 6.087-61.52 37.069-175.29 185.818-166.29l393.269 18.56z"/><path fill="#FFF" d="M326 1757h1619v184H326z"/><path fill="#FFF" fill-rule="evenodd" d="M282 1786.83c0-17.03 19.574-30.83 43.719-30.83H1435.28c24.15 0 43.72-.12 43.72 30.83v123.34c0 17.03-19.57 30.83-43.72 30.83H325.719c-24.145 0-43.719-13.8-43.719-30.83z"/><path fill="none" stroke="url(#b)" stroke-miterlimit="8" stroke-width="10.313" d="M410 1860h564.558"/><path fill="none" stroke="url(#c)" stroke-miterlimit="8" stroke-width="10.313" d="M416 1878h564.558"/><path fill="none" stroke="url(#d)" stroke-miterlimit="8" stroke-width="10.313" d="M433 1897h564.558"/><path fill="none" stroke="url(#e)" stroke-miterlimit="8" stroke-width="10.313" d="M459 1911h564.56"/><path fill="none" stroke="url(#f)" stroke-miterlimit="8" stroke-width="10.313" d="M0 0h564.558" transform="matrix(1 0 0 -1 412 1841)"/><path fill="none" stroke="url(#g)" stroke-miterlimit="8" stroke-width="10.313" d="M0 0h564.558" transform="matrix(1 0 0 -1 420 1822)"/><path fill="none" stroke="url(#h)" stroke-miterlimit="8" stroke-width="10.313" d="M0 0h564.558" transform="matrix(1 0 0 -1 437 1805)"/><path fill="none" stroke="url(#i)" stroke-miterlimit="8" stroke-width="10.313" d="M0 0h564.558" transform="matrix(1 0 0 -1 465 1789)"/><path fill="#3B3838" fill-rule="evenodd" d="M959 1851c0-38.66 31.34-70 70-70s70 31.34 70 70-31.34 70-70 70-70-31.34-70-70"/><path fill="#767171" fill-rule="evenodd" d="M3889 1830.82c1.1 202.94 63.1-100.82 107-100.82v203c-43.9 0-107-304.63-107-102.12z"/><path fill="#767171" fill-rule="evenodd" d="M3976 1756.65c-1 87.68 0 151.75 0 151.75l-655.56 28.51-223.13 10.79c-84.39 5.26-101.97-59.09-105.42-94.95-5.31 16.05-19.37 16.48-33.44 18.17-21.1 1.75-39.45-19.75-39.45-37.55 0-19.56 18.35-40.86 39.45-39.37 14.07 1.95 28.13 3.27 33.44 19.32 3.45-35.53 21.03-101.23 105.42-96.03l223.13 10.72z"/><path fill="#FFF" d="M3078 1780h918v106h-918z"/><path fill="#FFF" fill-rule="evenodd" d="M3052 1797.67c0-9.76 11.1-17.67 24.8-17.67h629.4c13.7 0 24.8-.07 24.8 17.67v70.66c0 9.76-11.1 17.67-24.8 17.67h-629.4c-13.7 0-24.8-7.91-24.8-17.67z"/><path fill="#3B3838" fill-rule="evenodd" d="M3356 1832c0-50.81 41.19-92 92-92s92 41.19 92 92-41.19 92-92 92-92-41.19-92-92"/><path fill="#767171" d="M3773.76 2212.156h-520.538v44.688h520.538Zm-498.194-44.687-134.062 67.031 134.062 67.032Z"/><path d="M1216.5 1829.16h520.54v44.68H1216.5Zm498.19-44.69 134.07 67.03-134.07 67.03Zm-48.894-955.635-12.33 13.567 13.567 12.33 12.33-13.567Zm-24.66 27.135-12.33 13.567 13.567 12.33 12.33-13.567Zm-24.661 27.134-12.33 13.568 13.567 12.33 12.33-13.567Zm-24.66 27.135-12.331 13.567 13.567 12.331 12.33-13.568Zm-24.661 27.135-12.331 13.567 13.568 12.331 12.33-13.568Zm-24.661 27.135-12.331 13.567 13.568 12.33 12.33-13.567Zm-24.661 27.134-12.33 13.568 13.567 12.33 12.33-13.567Zm-24.661 27.135-12.33 13.567 13.567 12.331 12.331-13.568Zm-24.66 27.135-12.331 13.567 13.568 12.331 12.33-13.568Zm-24.661 27.135-12.33 13.567 13.567 12.33 12.33-13.567Zm-24.661 27.134-12.33 13.568 13.567 12.33 12.331-13.567Zm-24.66 27.135-12.331 13.567 13.568 12.331 12.33-13.568Zm-24.661 27.135-12.33 13.567 13.567 12.331 12.33-13.568Zm-24.661 27.135-12.33 13.567 13.567 12.33 12.331-13.567Zm-25.564.87-16.64 59.197 57.342-22.206ZM2611.78 834.835l12.33 13.567-13.56 12.331-12.33-13.568Zm24.66 27.135 12.33 13.567-13.56 12.33-12.33-13.567Zm24.66 27.134 12.34 13.568-13.57 12.33-12.33-13.567Zm24.67 27.135 12.33 13.568-13.57 12.33-12.33-13.567Zm24.66 27.135 12.33 13.567-13.57 12.331-12.33-13.568Zm24.66 27.135 12.33 13.567-13.57 12.33-12.33-13.567Zm24.66 27.134 12.33 13.567-13.57 12.33-12.33-13.57Zm24.66 27.137 12.33 13.57-13.57 12.33-12.33-13.57Zm24.66 27.13 12.33 13.57-13.57 12.33-12.33-13.57Zm24.66 27.14 12.33 13.57-13.57 12.33-12.33-13.57Zm24.66 27.13 12.33 13.57-13.57 12.33-12.33-13.57Zm24.66 27.14 12.33 13.56-13.57 12.33-12.33-13.56Zm24.66 27.13 12.33 13.57-13.56 12.33-12.34-13.57Zm24.66 27.14 12.33 13.56-13.56 12.33-12.33-13.56Zm25.57.87 16.64 59.19-57.35-22.2Z"/></g></svg>