<svg data-optimized="true" xmlns="http://www.w3.org/2000/svg" xmlns:xlink="http://www.w3.org/1999/xlink" xml:space="preserve" width="4400" height="2552" overflow="hidden"><defs><linearGradient id="b" x1="2200" x2="2200" y1="6" y2="622" gradientUnits="userSpaceOnUse" spreadMethod="reflect"><stop offset="0" stop-color="#d9d9d9"/><stop offset=".22" stop-color="#a6a6a6"/><stop offset=".92" stop-color="#bfbfbf"/><stop offset="1" stop-color="#0d0d0d"/></linearGradient><linearGradient id="c" x1="2200" x2="2200" y1="616" y2="1238" gradientUnits="userSpaceOnUse" spreadMethod="reflect"><stop offset="0" stop-color="#d9d9d9"/><stop offset=".22" stop-color="#a6a6a6"/><stop offset=".92" stop-color="#bfbfbf"/><stop offset="1" stop-color="#0d0d0d"/></linearGradient><linearGradient id="d" x1="2200" x2="2200" y1="1238" y2="1854" gradientUnits="userSpaceOnUse" spreadMethod="reflect"><stop offset="0" stop-color="#d9d9d9"/><stop offset=".22" stop-color="#a6a6a6"/><stop offset=".92" stop-color="#bfbfbf"/><stop offset="1" stop-color="#0d0d0d"/></linearGradient><linearGradient id="e" x1="2200" x2="2200" y1="1854" y2="2475" gradientUnits="userSpaceOnUse" spreadMethod="reflect"><stop offset="0" stop-color="#d9d9d9"/><stop offset=".22" stop-color="#a6a6a6"/><stop offset=".92" stop-color="#bfbfbf"/><stop offset="1" stop-color="#0d0d0d"/></linearGradient><linearGradient id="i" x1="1548" x2="1732.25" y1="1124" y2="1124" gradientUnits="userSpaceOnUse" spreadMethod="reflect"><stop offset="0" stop-color="#fff" stop-opacity="0"/><stop offset=".37" stop-color="#d0cece"/><stop offset=".81" stop-color="#262626"/><stop offset="1"/></linearGradient><linearGradient id="j" x1="1550" x2="1734.25" y1="1140" y2="1140" gradientUnits="userSpaceOnUse" spreadMethod="reflect"><stop offset="0" stop-color="#fff" stop-opacity="0"/><stop offset=".37" stop-color="#d0cece"/><stop offset=".81" stop-color="#262626"/><stop offset="1"/></linearGradient><linearGradient id="k" x1="1555" x2="1739.26" y1="1155" y2="1155" gradientUnits="userSpaceOnUse" spreadMethod="reflect"><stop offset="0" stop-color="#fff" stop-opacity="0"/><stop offset=".37" stop-color="#d0cece"/><stop offset=".81" stop-color="#262626"/><stop offset="1"/></linearGradient><linearGradient id="l" x1="1563" x2="1747.25" y1="1171" y2="1171" gradientUnits="userSpaceOnUse" spreadMethod="reflect"><stop offset="0" stop-color="#fff" stop-opacity="0"/><stop offset=".37" stop-color="#d0cece"/><stop offset=".81" stop-color="#262626"/><stop offset="1"/></linearGradient><linearGradient id="m" x1="0" x2="184.25" y1="0" y2="0" gradientUnits="userSpaceOnUse" spreadMethod="reflect"><stop offset="0" stop-color="#fff" stop-opacity="0"/><stop offset=".37" stop-color="#d0cece"/><stop offset=".81" stop-color="#262626"/><stop offset="1"/></linearGradient><linearGradient id="n" x1="0" x2="184.25" y1="0" y2="0" gradientUnits="userSpaceOnUse" spreadMethod="reflect"><stop offset="0" stop-color="#fff" stop-opacity="0"/><stop offset=".37" stop-color="#d0cece"/><stop offset=".81" stop-color="#262626"/><stop offset="1"/></linearGradient><linearGradient id="o" x1="0" x2="184.25" y1="0" y2="0" gradientUnits="userSpaceOnUse" spreadMethod="reflect"><stop offset="0" stop-color="#fff" stop-opacity="0"/><stop offset=".37" stop-color="#d0cece"/><stop offset=".81" stop-color="#262626"/><stop offset="1"/></linearGradient><linearGradient id="p" x1="0" x2="184.25" y1="0" y2="0" gradientUnits="userSpaceOnUse" spreadMethod="reflect"><stop offset="0" stop-color="#fff" stop-opacity="0"/><stop offset=".37" stop-color="#d0cece"/><stop offset=".81" stop-color="#262626"/><stop offset="1"/></linearGradient><linearGradient id="r" x1="1047" x2="1231.26" y1="1124" y2="1124" gradientUnits="userSpaceOnUse" spreadMethod="reflect"><stop offset="0" stop-color="#fff" stop-opacity="0"/><stop offset=".37" stop-color="#d0cece"/><stop offset=".81" stop-color="#262626"/><stop offset="1"/></linearGradient><linearGradient id="s" x1="1049" x2="1233.26" y1="1140" y2="1140" gradientUnits="userSpaceOnUse" spreadMethod="reflect"><stop offset="0" stop-color="#fff" stop-opacity="0"/><stop offset=".37" stop-color="#d0cece"/><stop offset=".81" stop-color="#262626"/><stop offset="1"/></linearGradient><linearGradient id="t" x1="1055" x2="1239.25" y1="1155" y2="1155" gradientUnits="userSpaceOnUse" spreadMethod="reflect"><stop offset="0" stop-color="#fff" stop-opacity="0"/><stop offset=".37" stop-color="#d0cece"/><stop offset=".81" stop-color="#262626"/><stop offset="1"/></linearGradient><linearGradient id="u" x1="1063" x2="1247.25" y1="1171" y2="1171" gradientUnits="userSpaceOnUse" spreadMethod="reflect"><stop offset="0" stop-color="#fff" stop-opacity="0"/><stop offset=".37" stop-color="#d0cece"/><stop offset=".81" stop-color="#262626"/><stop offset="1"/></linearGradient><linearGradient id="v" x1="0" x2="184.25" y1="0" y2="0" gradientUnits="userSpaceOnUse" spreadMethod="reflect"><stop offset="0" stop-color="#fff" stop-opacity="0"/><stop offset=".37" stop-color="#d0cece"/><stop offset=".81" stop-color="#262626"/><stop offset="1"/></linearGradient><linearGradient id="w" x1="0" x2="184.25" y1="0" y2="0" gradientUnits="userSpaceOnUse" spreadMethod="reflect"><stop offset="0" stop-color="#fff" stop-opacity="0"/><stop offset=".37" stop-color="#d0cece"/><stop offset=".81" stop-color="#262626"/><stop offset="1"/></linearGradient><linearGradient id="x" x1="0" x2="184.25" y1="0" y2="0" gradientUnits="userSpaceOnUse" spreadMethod="reflect"><stop offset="0" stop-color="#fff" stop-opacity="0"/><stop offset=".37" stop-color="#d0cece"/><stop offset=".81" stop-color="#262626"/><stop offset="1"/></linearGradient><linearGradient id="y" x1="0" x2="184.25" y1="0" y2="0" gradientUnits="userSpaceOnUse" spreadMethod="reflect"><stop offset="0" stop-color="#fff" stop-opacity="0"/><stop offset=".37" stop-color="#d0cece"/><stop offset=".81" stop-color="#262626"/><stop offset="1"/></linearGradient><linearGradient id="z" x1="544" x2="728.25" y1="1125" y2="1125" gradientUnits="userSpaceOnUse" spreadMethod="reflect"><stop offset="0" stop-color="#fff" stop-opacity="0"/><stop offset=".37" stop-color="#d0cece"/><stop offset=".81" stop-color="#262626"/><stop offset="1"/></linearGradient><linearGradient id="A" x1="546" x2="730.25" y1="1140" y2="1140" gradientUnits="userSpaceOnUse" spreadMethod="reflect"><stop offset="0" stop-color="#fff" stop-opacity="0"/><stop offset=".37" stop-color="#d0cece"/><stop offset=".81" stop-color="#262626"/><stop offset="1"/></linearGradient><linearGradient id="B" x1="551" x2="735.25" y1="1156" y2="1156" gradientUnits="userSpaceOnUse" spreadMethod="reflect"><stop offset="0" stop-color="#fff" stop-opacity="0"/><stop offset=".37" stop-color="#d0cece"/><stop offset=".81" stop-color="#262626"/><stop offset="1"/></linearGradient><linearGradient id="C" x1="560" x2="744.25" y1="1171" y2="1171" gradientUnits="userSpaceOnUse" spreadMethod="reflect"><stop offset="0" stop-color="#fff" stop-opacity="0"/><stop offset=".37" stop-color="#d0cece"/><stop offset=".81" stop-color="#262626"/><stop offset="1"/></linearGradient><linearGradient id="D" x1="0" x2="184.25" y1="0" y2="0" gradientUnits="userSpaceOnUse" spreadMethod="reflect"><stop offset="0" stop-color="#fff" stop-opacity="0"/><stop offset=".37" stop-color="#d0cece"/><stop offset=".81" stop-color="#262626"/><stop offset="1"/></linearGradient><linearGradient id="E" x1="0" x2="184.25" y1="0" y2="0" gradientUnits="userSpaceOnUse" spreadMethod="reflect"><stop offset="0" stop-color="#fff" stop-opacity="0"/><stop offset=".37" stop-color="#d0cece"/><stop offset=".81" stop-color="#262626"/><stop offset="1"/></linearGradient><linearGradient id="F" x1="0" x2="184.25" y1="0" y2="0" gradientUnits="userSpaceOnUse" spreadMethod="reflect"><stop offset="0" stop-color="#fff" stop-opacity="0"/><stop offset=".37" stop-color="#d0cece"/><stop offset=".81" stop-color="#262626"/><stop offset="1"/></linearGradient><linearGradient id="G" x1="0" x2="184.25" y1="0" y2="0" gradientUnits="userSpaceOnUse" spreadMethod="reflect"><stop offset="0" stop-color="#fff" stop-opacity="0"/><stop offset=".37" stop-color="#d0cece"/><stop offset=".81" stop-color="#262626"/><stop offset="1"/></linearGradient><linearGradient id="H" x1="1755" x2="1939.25" y1="1724" y2="1724" gradientUnits="userSpaceOnUse" spreadMethod="reflect"><stop offset="0" stop-color="#fff" stop-opacity="0"/><stop offset=".37" stop-color="#d0cece"/><stop offset=".81" stop-color="#262626"/><stop offset="1"/></linearGradient><linearGradient id="I" x1="1757" x2="1941.25" y1="1739" y2="1739" gradientUnits="userSpaceOnUse" spreadMethod="reflect"><stop offset="0" stop-color="#fff" stop-opacity="0"/><stop offset=".37" stop-color="#d0cece"/><stop offset=".81" stop-color="#262626"/><stop offset="1"/></linearGradient><linearGradient id="J" x1="1762" x2="1946.26" y1="1755" y2="1755" gradientUnits="userSpaceOnUse" spreadMethod="reflect"><stop offset="0" stop-color="#fff" stop-opacity="0"/><stop offset=".37" stop-color="#d0cece"/><stop offset=".81" stop-color="#262626"/><stop offset="1"/></linearGradient><linearGradient id="K" x1="1771" x2="1955.25" y1="1771" y2="1771" gradientUnits="userSpaceOnUse" spreadMethod="reflect"><stop offset="0" stop-color="#fff" stop-opacity="0"/><stop offset=".37" stop-color="#d0cece"/><stop offset=".81" stop-color="#262626"/><stop offset="1"/></linearGradient><linearGradient id="L" x1="0" x2="184.25" y1="0" y2="0" gradientUnits="userSpaceOnUse" spreadMethod="reflect"><stop offset="0" stop-color="#fff" stop-opacity="0"/><stop offset=".37" stop-color="#d0cece"/><stop offset=".81" stop-color="#262626"/><stop offset="1"/></linearGradient><linearGradient id="M" x1="0" x2="184.25" y1="0" y2="0" gradientUnits="userSpaceOnUse" spreadMethod="reflect"><stop offset="0" stop-color="#fff" stop-opacity="0"/><stop offset=".37" stop-color="#d0cece"/><stop offset=".81" stop-color="#262626"/><stop offset="1"/></linearGradient><linearGradient id="N" x1="0" x2="184.25" y1="0" y2="0" gradientUnits="userSpaceOnUse" spreadMethod="reflect"><stop offset="0" stop-color="#fff" stop-opacity="0"/><stop offset=".37" stop-color="#d0cece"/><stop offset=".81" stop-color="#262626"/><stop offset="1"/></linearGradient><linearGradient id="O" x1="0" x2="184.25" y1="0" y2="0" gradientUnits="userSpaceOnUse" spreadMethod="reflect"><stop offset="0" stop-color="#fff" stop-opacity="0"/><stop offset=".37" stop-color="#d0cece"/><stop offset=".81" stop-color="#262626"/><stop offset="1"/></linearGradient><linearGradient id="P" x1="1254" x2="1438.25" y1="1724" y2="1724" gradientUnits="userSpaceOnUse" spreadMethod="reflect"><stop offset="0" stop-color="#fff" stop-opacity="0"/><stop offset=".37" stop-color="#d0cece"/><stop offset=".81" stop-color="#262626"/><stop offset="1"/></linearGradient><linearGradient id="Q" x1="1256" x2="1440.26" y1="1739" y2="1739" gradientUnits="userSpaceOnUse" spreadMethod="reflect"><stop offset="0" stop-color="#fff" stop-opacity="0"/><stop offset=".37" stop-color="#d0cece"/><stop offset=".81" stop-color="#262626"/><stop offset="1"/></linearGradient><linearGradient id="R" x1="1262" x2="1446.25" y1="1755" y2="1755" gradientUnits="userSpaceOnUse" spreadMethod="reflect"><stop offset="0" stop-color="#fff" stop-opacity="0"/><stop offset=".37" stop-color="#d0cece"/><stop offset=".81" stop-color="#262626"/><stop offset="1"/></linearGradient><linearGradient id="S" x1="1270" x2="1454.26" y1="1771" y2="1771" gradientUnits="userSpaceOnUse" spreadMethod="reflect"><stop offset="0" stop-color="#fff" stop-opacity="0"/><stop offset=".37" stop-color="#d0cece"/><stop offset=".81" stop-color="#262626"/><stop offset="1"/></linearGradient><linearGradient id="T" x1="0" x2="184.25" y1="0" y2="0" gradientUnits="userSpaceOnUse" spreadMethod="reflect"><stop offset="0" stop-color="#fff" stop-opacity="0"/><stop offset=".37" stop-color="#d0cece"/><stop offset=".81" stop-color="#262626"/><stop offset="1"/></linearGradient><linearGradient id="U" x1="0" x2="184.25" y1="0" y2="0" gradientUnits="userSpaceOnUse" spreadMethod="reflect"><stop offset="0" stop-color="#fff" stop-opacity="0"/><stop offset=".37" stop-color="#d0cece"/><stop offset=".81" stop-color="#262626"/><stop offset="1"/></linearGradient><linearGradient id="V" x1="0" x2="184.25" y1="0" y2="0" gradientUnits="userSpaceOnUse" spreadMethod="reflect"><stop offset="0" stop-color="#fff" stop-opacity="0"/><stop offset=".37" stop-color="#d0cece"/><stop offset=".81" stop-color="#262626"/><stop offset="1"/></linearGradient><linearGradient id="W" x1="0" x2="184.25" y1="0" y2="0" gradientUnits="userSpaceOnUse" spreadMethod="reflect"><stop offset="0" stop-color="#fff" stop-opacity="0"/><stop offset=".37" stop-color="#d0cece"/><stop offset=".81" stop-color="#262626"/><stop offset="1"/></linearGradient><linearGradient id="X" x1="751" x2="935.25" y1="1724" y2="1724" gradientUnits="userSpaceOnUse" spreadMethod="reflect"><stop offset="0" stop-color="#fff" stop-opacity="0"/><stop offset=".37" stop-color="#d0cece"/><stop offset=".81" stop-color="#262626"/><stop offset="1"/></linearGradient><linearGradient id="Y" x1="753" x2="937.25" y1="1740" y2="1740" gradientUnits="userSpaceOnUse" spreadMethod="reflect"><stop offset="0" stop-color="#fff" stop-opacity="0"/><stop offset=".37" stop-color="#d0cece"/><stop offset=".81" stop-color="#262626"/><stop offset="1"/></linearGradient><linearGradient id="Z" x1="759" x2="943.25" y1="1756" y2="1756" gradientUnits="userSpaceOnUse" spreadMethod="reflect"><stop offset="0" stop-color="#fff" stop-opacity="0"/><stop offset=".37" stop-color="#d0cece"/><stop offset=".81" stop-color="#262626"/><stop offset="1"/></linearGradient><linearGradient id="aa" x1="767" x2="951.25" y1="1771" y2="1771" gradientUnits="userSpaceOnUse" spreadMethod="reflect"><stop offset="0" stop-color="#fff" stop-opacity="0"/><stop offset=".37" stop-color="#d0cece"/><stop offset=".81" stop-color="#262626"/><stop offset="1"/></linearGradient><linearGradient id="ab" x1="0" x2="184.25" y1="0" y2="0" gradientUnits="userSpaceOnUse" spreadMethod="reflect"><stop offset="0" stop-color="#fff" stop-opacity="0"/><stop offset=".37" stop-color="#d0cece"/><stop offset=".81" stop-color="#262626"/><stop offset="1"/></linearGradient><linearGradient id="ac" x1="0" x2="184.25" y1="0" y2="0" gradientUnits="userSpaceOnUse" spreadMethod="reflect"><stop offset="0" stop-color="#fff" stop-opacity="0"/><stop offset=".37" stop-color="#d0cece"/><stop offset=".81" stop-color="#262626"/><stop offset="1"/></linearGradient><linearGradient id="ad" x1="0" x2="184.25" y1="0" y2="0" gradientUnits="userSpaceOnUse" spreadMethod="reflect"><stop offset="0" stop-color="#fff" stop-opacity="0"/><stop offset=".37" stop-color="#d0cece"/><stop offset=".81" stop-color="#262626"/><stop offset="1"/></linearGradient><linearGradient id="ae" x1="0" x2="184.25" y1="0" y2="0" gradientUnits="userSpaceOnUse" spreadMethod="reflect"><stop offset="0" stop-color="#fff" stop-opacity="0"/><stop offset=".37" stop-color="#d0cece"/><stop offset=".81" stop-color="#262626"/><stop offset="1"/></linearGradient><linearGradient id="ag" x1="3260" x2="3388.68" y1="2358" y2="2358" gradientUnits="userSpaceOnUse" spreadMethod="reflect"><stop offset="0" stop-color="#fff" stop-opacity="0"/><stop offset=".37" stop-color="#d0cece"/><stop offset=".81" stop-color="#262626"/><stop offset="1"/></linearGradient><linearGradient id="ah" x1="3261" x2="3389.68" y1="2374" y2="2374" gradientUnits="userSpaceOnUse" spreadMethod="reflect"><stop offset="0" stop-color="#fff" stop-opacity="0"/><stop offset=".37" stop-color="#d0cece"/><stop offset=".81" stop-color="#262626"/><stop offset="1"/></linearGradient><linearGradient id="ai" x1="3265" x2="3393.68" y1="2389" y2="2389" gradientUnits="userSpaceOnUse" spreadMethod="reflect"><stop offset="0" stop-color="#fff" stop-opacity="0"/><stop offset=".37" stop-color="#d0cece"/><stop offset=".81" stop-color="#262626"/><stop offset="1"/></linearGradient><linearGradient id="aj" x1="3270" x2="3398.68" y1="2405" y2="2405" gradientUnits="userSpaceOnUse" spreadMethod="reflect"><stop offset="0" stop-color="#fff" stop-opacity="0"/><stop offset=".37" stop-color="#d0cece"/><stop offset=".81" stop-color="#262626"/><stop offset="1"/></linearGradient><linearGradient id="ak" x1="0" x2="128.68" y1="0" y2="0" gradientUnits="userSpaceOnUse" spreadMethod="reflect"><stop offset="0" stop-color="#fff" stop-opacity="0"/><stop offset=".37" stop-color="#d0cece"/><stop offset=".81" stop-color="#262626"/><stop offset="1"/></linearGradient><linearGradient id="al" x1="0" x2="128.68" y1="0" y2="0" gradientUnits="userSpaceOnUse" spreadMethod="reflect"><stop offset="0" stop-color="#fff" stop-opacity="0"/><stop offset=".37" stop-color="#d0cece"/><stop offset=".81" stop-color="#262626"/><stop offset="1"/></linearGradient><linearGradient id="am" x1="0" x2="128.68" y1="0" y2="0" gradientUnits="userSpaceOnUse" spreadMethod="reflect"><stop offset="0" stop-color="#fff" stop-opacity="0"/><stop offset=".37" stop-color="#d0cece"/><stop offset=".81" stop-color="#262626"/><stop offset="1"/></linearGradient><linearGradient id="an" x1="0" x2="128.68" y1="0" y2="0" gradientUnits="userSpaceOnUse" spreadMethod="reflect"><stop offset="0" stop-color="#fff" stop-opacity="0"/><stop offset=".37" stop-color="#d0cece"/><stop offset=".81" stop-color="#262626"/><stop offset="1"/></linearGradient><linearGradient id="ao" x1="2914" x2="3042.68" y1="2358" y2="2358" gradientUnits="userSpaceOnUse" spreadMethod="reflect"><stop offset="0" stop-color="#fff" stop-opacity="0"/><stop offset=".37" stop-color="#d0cece"/><stop offset=".81" stop-color="#262626"/><stop offset="1"/></linearGradient><linearGradient id="ap" x1="2916" x2="3044.68" y1="2374" y2="2374" gradientUnits="userSpaceOnUse" spreadMethod="reflect"><stop offset="0" stop-color="#fff" stop-opacity="0"/><stop offset=".37" stop-color="#d0cece"/><stop offset=".81" stop-color="#262626"/><stop offset="1"/></linearGradient><linearGradient id="aq" x1="2919" x2="3047.68" y1="2389" y2="2389" gradientUnits="userSpaceOnUse" spreadMethod="reflect"><stop offset="0" stop-color="#fff" stop-opacity="0"/><stop offset=".37" stop-color="#d0cece"/><stop offset=".81" stop-color="#262626"/><stop offset="1"/></linearGradient><linearGradient id="ar" x1="2925" x2="3053.68" y1="2405" y2="2405" gradientUnits="userSpaceOnUse" spreadMethod="reflect"><stop offset="0" stop-color="#fff" stop-opacity="0"/><stop offset=".37" stop-color="#d0cece"/><stop offset=".81" stop-color="#262626"/><stop offset="1"/></linearGradient><linearGradient id="as" x1="0" x2="128.68" y1="0" y2="0" gradientUnits="userSpaceOnUse" spreadMethod="reflect"><stop offset="0" stop-color="#fff" stop-opacity="0"/><stop offset=".37" stop-color="#d0cece"/><stop offset=".81" stop-color="#262626"/><stop offset="1"/></linearGradient><linearGradient id="at" x1="0" x2="128.68" y1="0" y2="0" gradientUnits="userSpaceOnUse" spreadMethod="reflect"><stop offset="0" stop-color="#fff" stop-opacity="0"/><stop offset=".37" stop-color="#d0cece"/><stop offset=".81" stop-color="#262626"/><stop offset="1"/></linearGradient><linearGradient id="au" x1="0" x2="128.68" y1="0" y2="0" gradientUnits="userSpaceOnUse" spreadMethod="reflect"><stop offset="0" stop-color="#fff" stop-opacity="0"/><stop offset=".37" stop-color="#d0cece"/><stop offset=".81" stop-color="#262626"/><stop offset="1"/></linearGradient><linearGradient id="av" x1="0" x2="128.68" y1="0" y2="0" gradientUnits="userSpaceOnUse" spreadMethod="reflect"><stop offset="0" stop-color="#fff" stop-opacity="0"/><stop offset=".37" stop-color="#d0cece"/><stop offset=".81" stop-color="#262626"/><stop offset="1"/></linearGradient><linearGradient id="aw" x1="2567" x2="2695.68" y1="2359" y2="2359" gradientUnits="userSpaceOnUse" spreadMethod="reflect"><stop offset="0" stop-color="#fff" stop-opacity="0"/><stop offset=".37" stop-color="#d0cece"/><stop offset=".81" stop-color="#262626"/><stop offset="1"/></linearGradient><linearGradient id="ax" x1="2569" x2="2697.68" y1="2374" y2="2374" gradientUnits="userSpaceOnUse" spreadMethod="reflect"><stop offset="0" stop-color="#fff" stop-opacity="0"/><stop offset=".37" stop-color="#d0cece"/><stop offset=".81" stop-color="#262626"/><stop offset="1"/></linearGradient><linearGradient id="ay" x1="2572" x2="2700.68" y1="2390" y2="2390" gradientUnits="userSpaceOnUse" spreadMethod="reflect"><stop offset="0" stop-color="#fff" stop-opacity="0"/><stop offset=".37" stop-color="#d0cece"/><stop offset=".81" stop-color="#262626"/><stop offset="1"/></linearGradient><linearGradient id="az" x1="2578" x2="2706.68" y1="2405" y2="2405" gradientUnits="userSpaceOnUse" spreadMethod="reflect"><stop offset="0" stop-color="#fff" stop-opacity="0"/><stop offset=".37" stop-color="#d0cece"/><stop offset=".81" stop-color="#262626"/><stop offset="1"/></linearGradient><linearGradient id="aA" x1="0" x2="128.68" y1="0" y2="0" gradientUnits="userSpaceOnUse" spreadMethod="reflect"><stop offset="0" stop-color="#fff" stop-opacity="0"/><stop offset=".37" stop-color="#d0cece"/><stop offset=".81" stop-color="#262626"/><stop offset="1"/></linearGradient><linearGradient id="aB" x1="0" x2="128.68" y1="0" y2="0" gradientUnits="userSpaceOnUse" spreadMethod="reflect"><stop offset="0" stop-color="#fff" stop-opacity="0"/><stop offset=".37" stop-color="#d0cece"/><stop offset=".81" stop-color="#262626"/><stop offset="1"/></linearGradient><linearGradient id="aC" x1="0" x2="128.68" y1="0" y2="0" gradientUnits="userSpaceOnUse" spreadMethod="reflect"><stop offset="0" stop-color="#fff" stop-opacity="0"/><stop offset=".37" stop-color="#d0cece"/><stop offset=".81" stop-color="#262626"/><stop offset="1"/></linearGradient><linearGradient id="aD" x1="0" x2="128.68" y1="0" y2="0" gradientUnits="userSpaceOnUse" spreadMethod="reflect"><stop offset="0" stop-color="#fff" stop-opacity="0"/><stop offset=".37" stop-color="#d0cece"/><stop offset=".81" stop-color="#262626"/><stop offset="1"/></linearGradient><radialGradient id="h" cx="128847" cy="128848" r="182218" gradientTransform="translate(606 340)scale(.00036)" gradientUnits="userSpaceOnUse" spreadMethod="pad"><stop offset="0" stop-color="#c00000"/><stop offset=".18" stop-color="#c00000"/><stop offset="1" stop-color="#d9d9d9" stop-opacity="0"/></radialGradient><radialGradient id="q" cx="128847" cy="128847" r="182217" fx="128847" fy="128847" gradientTransform="translate(1277 962)scale(.00036)" gradientUnits="userSpaceOnUse" spreadMethod="pad"><stop offset="0" stop-color="#c00000"/><stop offset=".18" stop-color="#c00000"/><stop offset="1" stop-color="#d9d9d9" stop-opacity="0"/></radialGradient><radialGradient id="af" cx="128847" cy="130233" r="183200" fx="128848" fy="130233" gradientTransform="translate(1276 1560)scale(.00036)" gradientUnits="userSpaceOnUse" spreadMethod="pad"><stop offset="0" stop-color="#c00000"/><stop offset=".18" stop-color="#c00000"/><stop offset="1" stop-color="#d9d9d9" stop-opacity="0"/></radialGradient><clipPath id="a"><path d="M0-36h4400v2552H0z"/></clipPath><clipPath id="f"><path d="M1265-44h118v2564h-118z"/></clipPath></defs><g clip-path="url(#a)" transform="translate(0 36)"><path fill="url(#b)" d="M0 6h4400v616H0z"/><path fill="url(#c)" d="M0 616h4400v622H0z"/><path fill="url(#d)" d="M0 1238h4400v616H0z"/><path fill="url(#e)" d="M0 1854h4400v621H0z"/><g clip-path="url(#f)"><use xlink:href="#g" width="100%" height="100%" transform="translate(1265 -44)"/></g><path fill="none" stroke="#000" stroke-dasharray="30.9375 10.3125" stroke-linecap="square" stroke-miterlimit="8" stroke-width="10.31" d="M1324 10v2454.71"/><path fill-rule="evenodd" d="M133 554.5a27.5 27.5 0 1 1-55 0 27.5 27.5 0 0 1 55 0m165 0a27.5 27.5 0 1 1-55 0 27.5 27.5 0 0 1 55 0"/><path fill-rule="evenodd" d="M156.51 485.11v-41.33h47.17c3.79 0 7.23 1.38 9.64 4.13l37.19 37.2zm-13.77 0H55.63l37.18-37.2a13.6 13.6 0 0 1 9.64-4.13h40.29zm161.83 0h-28.58c-3.79 0-7.23-1.38-9.64-4.13l-43.39-43.06c-5.16-5.16-12.05-7.92-19.62-7.92H102.45a27.88 27.88 0 0 0-19.62 7.92l-42.7 43.06a13.8 13.8 0 0 0-4.13 9.99v35.48A27.63 27.63 0 0 0 63.55 554h3.44a37.77 37.77 0 0 1 37.87-37.89c21 0 37.88 16.88 37.88 37.89h89.52a37.77 37.77 0 0 1 37.88-37.89c21 0 37.87 16.88 37.87 37.89h17.22c7.57 0 13.77-6.2 13.77-13.78v-20.66a34.54 34.54 0 0 0-34.43-34.45M636 554.5a27.5 27.5 0 1 1-55 0 27.5 27.5 0 0 1 55 0m165 0a27.5 27.5 0 1 1-55 0 27.5 27.5 0 0 1 55 0"/><path fill-rule="evenodd" d="M660.51 485.11v-41.33h47.17c3.79 0 7.23 1.38 9.64 4.13l37.19 37.2zm-13.77 0h-87.11l37.18-37.2a13.6 13.6 0 0 1 9.64-4.13h40.29zm161.83 0h-28.58c-3.79 0-7.23-1.38-9.64-4.13l-43.38-43.06c-5.17-5.16-12.06-7.92-19.63-7.92H606.45a27.88 27.88 0 0 0-19.62 7.92l-42.7 43.06a13.8 13.8 0 0 0-4.13 9.99v35.48A27.63 27.63 0 0 0 567.54 554H571a37.77 37.77 0 0 1 37.87-37.89c21 0 37.88 16.88 37.88 37.89h89.52a37.77 37.77 0 0 1 37.88-37.89c21 0 37.87 16.88 37.87 37.89h17.22c7.57 0 13.77-6.2 13.77-13.78v-20.66a34.54 34.54 0 0 0-34.43-34.45ZM1140 554.5a27.5 27.5 0 1 1-55 0 27.5 27.5 0 0 1 55 0m165 0a27.5 27.5 0 1 1-55 0 27.5 27.5 0 0 1 55 0"/><path fill-rule="evenodd" d="M1164.11 485.11v-41.33h47.02c3.77 0 7.21 1.38 9.61 4.13l37.06 37.2zm-13.72 0h-86.83l37.07-37.2a13.5 13.5 0 0 1 9.6-4.13h40.16zm161.29 0h-28.48c-3.78 0-7.21-1.38-9.61-4.13l-43.24-43.06a27.16 27.16 0 0 0-19.56-7.92h-100.56c-7.2 0-14.41 2.76-19.56 7.92l-42.55 43.06a13.8 13.8 0 0 0-4.12 9.99v35.48a27.58 27.58 0 0 0 27.45 27.55h3.44a37.7 37.7 0 0 1 37.75-37.89 37.71 37.71 0 0 1 37.75 37.89h89.22a37.71 37.71 0 0 1 37.75-37.89 37.7 37.7 0 0 1 37.75 37.89h17.16a13.8 13.8 0 0 0 13.73-13.78v-20.66c0-18.95-15.44-34.45-34.32-34.45"/><path fill="url(#h)" fill-rule="evenodd" d="M606 386.5a46.5 46.5 0 1 1 93 0 46.5 46.5 0 0 1-93 0"/><path fill="red" d="m656.5 384.78 13.75.04v3.44l-13.75-.04Zm24.07.07 13.75.04-.01 3.44-13.75-.04Zm24.06.07 13.75.04-.01 3.44-13.75-.04Zm24.06.07 13.75.05v3.43l-13.76-.04Zm24.06.08 13.75.04v3.43l-13.75-.04Zm24.07.07 13.75.04-.01 3.44-13.75-.05Zm24.06.07 13.75.04-.01 3.44-13.75-.04Zm24.06.07 13.75.04v3.44l-13.76-.04Zm24.06.07 13.75.04v3.44l-13.76-.04Zm24.07.07 13.75.04-.01 3.44-13.75-.04Zm24.06.07 13.75.04-.01 3.44-13.75-.04Zm24.06.07 13.75.05v3.43l-13.76-.04Zm24.06.08 13.75.04v3.43l-13.76-.04Zm24.07.07 13.75.04-.01 3.44-13.75-.05Zm24.06.07 13.75.04-.01 3.44-13.75-.04Zm24.06.07 13.75.04-.01 3.44-13.75-.04Zm24.06.07 13.75.04-.01 3.44-13.75-.04Zm24.07.07 13.75.04-.01 3.44-13.75-.04Zm24.06.07 13.75.04-.01 3.44-13.75-.04Zm24.06.07h.17l-.01 3.44h-.17Zm-4.37-12.04 45.79 13.89-45.87 13.61Zm-458.01 10.69-13.75.08.02 3.44 13.75-.08Zm-24.06.14-13.75.08.02 3.44 13.75-.08Zm-24.06.14-13.75.08.02 3.44 13.75-.08Zm-24.07.14-13.75.09.03 3.43 13.74-.08Zm-24.06.15-13.75.08.02 3.43 13.75-.08Zm-24.06.14-13.75.08.02 3.44 13.75-.09Zm-24.06.14-13.75.08.02 3.44 13.75-.08Zm-24.06.14-13.75.08.02 3.44 13.75-.08Zm-24.07.14-13.75.08.03 3.44 13.74-.08Zm-24.06.14-13.75.08.02 3.44 13.75-.08Zm-24.06.14-13.75.08.02 3.44 13.75-.08Zm-24.06.14-13.75.08.02 3.44 13.75-.08Zm-24.06.15-13.75.08.02 3.43 13.75-.08Zm-24.07.14-13.75.08.02 3.43 13.75-.08Zm-24.06.14-13.75.08.02 3.44 13.75-.08Zm-24.06.14-13.75.08.02 3.44 13.75-.08Zm-24.06.14-13.75.08.02 3.44 13.75-.08Zm-24.06.14-13.75.08.02 3.44 13.75-.08Zm-24.07.14-13.75.08.02 3.44 13.75-.08Zm-24.06.14-4.4.03.03 3.44 4.4-.03Zm.12-12.03-45.75 14.02 45.91 13.48Z"/><path fill="none" stroke="url(#i)" stroke-miterlimit="8" stroke-width="10.31" d="M1548 1124h179.1"/><path fill="none" stroke="url(#j)" stroke-miterlimit="8" stroke-width="10.31" d="M1550 1140h179.1"/><path fill="none" stroke="url(#k)" stroke-miterlimit="8" stroke-width="10.31" d="M1555 1155h179.1"/><path fill="none" stroke="url(#l)" stroke-miterlimit="8" stroke-width="10.31" d="M1563 1171h179.1"/><path fill="none" stroke="url(#m)" stroke-miterlimit="8" stroke-width="10.31" d="M0 0h179.1" transform="matrix(1 0 0 -1 1548 1108)"/><path fill="none" stroke="url(#n)" stroke-miterlimit="8" stroke-width="10.31" d="M0 0h179.1" transform="matrix(1 0 0 -1 1557 1092)"/><path fill="none" stroke="url(#o)" stroke-miterlimit="8" stroke-width="10.31" d="M0 0h179.1" transform="matrix(1 0 0 -1 1572 1076)"/><path fill="none" stroke="url(#p)" stroke-miterlimit="8" stroke-width="10.31" d="M0 0h179.1" transform="matrix(1 0 0 -1 1587 1061)"/><path fill-rule="evenodd" d="M804 1176.5a27.5 27.5 0 1 1-55 0 27.5 27.5 0 0 1 55 0m165 0a27.5 27.5 0 1 1-55 0 27.5 27.5 0 0 1 55 0"/><path fill-rule="evenodd" d="M827.51 1107.11v-41.33h47.17c3.79 0 7.23 1.38 9.64 4.13l37.19 37.2zm-13.77 0h-87.11l37.18-37.2a13.6 13.6 0 0 1 9.64-4.13h40.29zm161.83 0h-28.58c-3.79 0-7.23-1.38-9.64-4.13l-43.38-43.06a27.32 27.32 0 0 0-19.63-7.92H773.45a27.9 27.9 0 0 0-19.62 7.92l-42.7 43.06a13.8 13.8 0 0 0-4.13 9.99v35.47a27.63 27.63 0 0 0 27.55 27.56h3.44a37.77 37.77 0 0 1 37.87-37.89c21 0 37.88 16.88 37.88 37.89h89.52a37.77 37.77 0 0 1 37.88-37.89c21 0 37.87 16.88 37.87 37.89h17.22c7.57 0 13.77-6.2 13.77-13.78v-20.66a34.54 34.54 0 0 0-34.43-34.45M1307 1176.5a27.5 27.5 0 1 1-55 0 27.5 27.5 0 0 1 55 0m165 0a27.5 27.5 0 1 1-55 0 27.5 27.5 0 0 1 55 0"/><path fill-rule="evenodd" d="M1331.51 1107.11v-41.33h47.17c3.79 0 7.23 1.38 9.64 4.13l37.19 37.2zm-13.77 0h-87.11l37.18-37.2a13.63 13.63 0 0 1 9.64-4.13h40.29zm161.83 0h-28.58c-3.79 0-7.23-1.38-9.64-4.13l-43.39-43.06a27.3 27.3 0 0 0-19.62-7.92h-100.89a27.88 27.88 0 0 0-19.62 7.92l-42.7 43.06a13.8 13.8 0 0 0-4.13 9.99v35.47a27.64 27.64 0 0 0 27.55 27.56h3.44a37.77 37.77 0 0 1 37.87-37.89 37.77 37.77 0 0 1 37.88 37.89h89.52a37.77 37.77 0 0 1 37.88-37.89c21 0 37.87 16.88 37.87 37.89h17.22c7.57 0 13.77-6.2 13.77-13.78v-20.66a34.54 34.54 0 0 0-34.43-34.45M1811 1176.5a27.5 27.5 0 1 1-55 0 27.5 27.5 0 0 1 55 0m165 0a27.5 27.5 0 1 1-55 0 27.5 27.5 0 0 1 55 0"/><path fill-rule="evenodd" d="M1835.11 1107.11v-41.33h47.02c3.77 0 7.21 1.38 9.61 4.13l37.06 37.2zm-13.72 0h-86.83l37.07-37.2a13.52 13.52 0 0 1 9.6-4.13h40.16zm161.29 0h-28.48c-3.78 0-7.21-1.38-9.61-4.13l-43.24-43.06a27.18 27.18 0 0 0-19.56-7.92h-100.56c-7.2 0-14.41 2.76-19.56 7.92l-42.55 43.06a13.8 13.8 0 0 0-4.12 9.99v35.47a27.58 27.58 0 0 0 27.45 27.56h3.44a37.7 37.7 0 0 1 37.75-37.89 37.71 37.71 0 0 1 37.75 37.89h89.22a37.71 37.71 0 0 1 37.75-37.89 37.7 37.7 0 0 1 37.75 37.89h17.16a13.8 13.8 0 0 0 13.73-13.78v-20.66c0-18.95-15.44-34.45-34.32-34.45"/><path fill="url(#q)" fill-rule="evenodd" d="M1277 1008.5a46.5 46.5 0 1 1 93 0 46.5 46.5 0 0 1-93 0"/><path fill="none" stroke="url(#r)" stroke-miterlimit="8" stroke-width="10.31" d="M1047 1124h179.1"/><path fill="none" stroke="url(#s)" stroke-miterlimit="8" stroke-width="10.31" d="M1049 1140h179.1"/><path fill="none" stroke="url(#t)" stroke-miterlimit="8" stroke-width="10.31" d="M1055 1155h179.1"/><path fill="none" stroke="url(#u)" stroke-miterlimit="8" stroke-width="10.31" d="M1063 1171h179.1"/><path fill="none" stroke="url(#v)" stroke-miterlimit="8" stroke-width="10.31" d="M0 0h179.1" transform="matrix(1 0 0 -1 1048 1108)"/><path fill="none" stroke="url(#w)" stroke-miterlimit="8" stroke-width="10.31" d="M0 0h179.1" transform="matrix(1 0 0 -1 1056 1092)"/><path fill="none" stroke="url(#x)" stroke-miterlimit="8" stroke-width="10.31" d="M0 0h179.1" transform="matrix(1 0 0 -1 1072 1076)"/><path fill="none" stroke="url(#y)" stroke-miterlimit="8" stroke-width="10.31" d="M0 0h179.1" transform="matrix(1 0 0 -1 1086 1061)"/><path fill="none" stroke="url(#z)" stroke-miterlimit="8" stroke-width="10.31" d="M544 1125h179.1"/><path fill="none" stroke="url(#A)" stroke-miterlimit="8" stroke-width="10.31" d="M546 1140h179.1"/><path fill="none" stroke="url(#B)" stroke-miterlimit="8" stroke-width="10.31" d="M551 1156h179.1"/><path fill="none" stroke="url(#C)" stroke-miterlimit="8" stroke-width="10.31" d="M560 1171h179.1"/><path fill="none" stroke="url(#D)" stroke-miterlimit="8" stroke-width="10.31" d="M0 0h179.1" transform="matrix(1 0 0 -1 545 1108)"/><path fill="none" stroke="url(#E)" stroke-miterlimit="8" stroke-width="10.31" d="M0 0h179.1" transform="matrix(1 0 0 -1 553 1093)"/><path fill="none" stroke="url(#F)" stroke-miterlimit="8" stroke-width="10.31" d="M0 0h179.1" transform="matrix(1 0 0 -1 568 1077)"/><path fill="none" stroke="url(#G)" stroke-miterlimit="8" stroke-width="10.31" d="M0 0h179.1" transform="matrix(1 0 0 -1 583 1061)"/><path fill="none" stroke="url(#H)" stroke-miterlimit="8" stroke-width="10.31" d="M1755 1724h179.1"/><path fill="none" stroke="url(#I)" stroke-miterlimit="8" stroke-width="10.31" d="M1757 1739h179.1"/><path fill="none" stroke="url(#J)" stroke-miterlimit="8" stroke-width="10.31" d="M1762 1755h179.1"/><path fill="none" stroke="url(#K)" stroke-miterlimit="8" stroke-width="10.31" d="M1771 1771h179.1"/><path fill="none" stroke="url(#L)" stroke-miterlimit="8" stroke-width="10.31" d="M0 0h179.1" transform="matrix(1 0 0 -1 1756 1707)"/><path fill="none" stroke="url(#M)" stroke-miterlimit="8" stroke-width="10.31" d="M0 0h179.1" transform="matrix(1 0 0 -1 1764 1692)"/><path fill="none" stroke="url(#N)" stroke-miterlimit="8" stroke-width="10.31" d="M0 0h179.1" transform="matrix(1 0 0 -1 1779 1676)"/><path fill="none" stroke="url(#O)" stroke-miterlimit="8" stroke-width="10.31" d="M0 0h179.1" transform="matrix(1 0 0 -1 1794 1660)"/><path fill-rule="evenodd" d="M1011 1775.5a27.5 27.5 0 1 1-55 0 27.5 27.5 0 0 1 55 0m165 0a27.5 27.5 0 1 1-55 0 27.5 27.5 0 0 1 55 0"/><path fill-rule="evenodd" d="M1035.11 1707.11v-41.33h47.02c3.77 0 7.21 1.38 9.61 4.13l37.06 37.2zm-13.72 0h-86.83l37.07-37.2a13.55 13.55 0 0 1 9.6-4.13h40.16zm161.29 0h-28.48c-3.78 0-7.21-1.38-9.61-4.13l-43.24-43.06a27.18 27.18 0 0 0-19.56-7.92H981.23c-7.2 0-14.4 2.76-19.56 7.92l-42.55 43.06a13.8 13.8 0 0 0-4.12 9.99v35.47a27.59 27.59 0 0 0 27.46 27.56h3.43a37.71 37.71 0 0 1 37.75-37.89 37.72 37.72 0 0 1 37.75 37.89h89.22a37.71 37.71 0 0 1 37.75-37.89 37.7 37.7 0 0 1 37.75 37.89h17.16a13.8 13.8 0 0 0 13.73-13.78v-20.66c0-18.95-15.44-34.45-34.32-34.45M1515 1775.5a27.5 27.5 0 1 1-55 0 27.5 27.5 0 0 1 55 0m165 0a27.5 27.5 0 1 1-55 0 27.5 27.5 0 0 1 55 0"/><path fill-rule="evenodd" d="M1538.51 1707.11v-41.33h47.17c3.79 0 7.23 1.38 9.64 4.13l37.19 37.2zm-13.77 0h-87.11l37.18-37.2a13.63 13.63 0 0 1 9.64-4.13h40.29zm161.83 0h-28.58c-3.79 0-7.23-1.38-9.64-4.13l-43.38-43.06a27.34 27.34 0 0 0-19.63-7.92h-100.89a27.88 27.88 0 0 0-19.62 7.92l-42.7 43.06a13.8 13.8 0 0 0-4.13 9.99v35.47a27.64 27.64 0 0 0 27.55 27.56h3.44a37.77 37.77 0 0 1 37.87-37.89 37.77 37.77 0 0 1 37.88 37.89h89.52a37.77 37.77 0 0 1 37.88-37.89c21 0 37.87 16.88 37.87 37.89h17.22c7.57 0 13.77-6.2 13.77-13.78v-20.66a34.54 34.54 0 0 0-34.43-34.45M2018 1775.5a27.5 27.5 0 1 1-55 0 27.5 27.5 0 0 1 55 0m165 0a27.5 27.5 0 1 1-55 0 27.5 27.5 0 0 1 55 0"/><path fill-rule="evenodd" d="M2042.51 1707.11v-41.33h47.17c3.79 0 7.23 1.38 9.64 4.13l37.19 37.2zm-13.77 0h-87.11l37.18-37.2a13.63 13.63 0 0 1 9.64-4.13h40.29zm161.83 0h-28.58c-3.79 0-7.23-1.38-9.64-4.13l-43.39-43.06a27.3 27.3 0 0 0-19.62-7.92h-100.89a27.88 27.88 0 0 0-19.62 7.92l-42.7 43.06a13.8 13.8 0 0 0-4.13 9.99v35.47a27.64 27.64 0 0 0 27.55 27.56h3.44a37.77 37.77 0 0 1 37.87-37.89 37.77 37.77 0 0 1 37.88 37.89h89.52a37.77 37.77 0 0 1 37.88-37.89c21 0 37.87 16.88 37.87 37.89h17.22c7.57 0 13.77-6.2 13.77-13.78v-20.66a34.54 34.54 0 0 0-34.43-34.45"/><path fill="none" stroke="url(#P)" stroke-miterlimit="8" stroke-width="10.31" d="M1254 1724h179.1"/><path fill="none" stroke="url(#Q)" stroke-miterlimit="8" stroke-width="10.31" d="M1256 1739h179.1"/><path fill="none" stroke="url(#R)" stroke-miterlimit="8" stroke-width="10.31" d="M1262 1755h179.1"/><path fill="none" stroke="url(#S)" stroke-miterlimit="8" stroke-width="10.31" d="M1270 1771h179.1"/><path fill="none" stroke="url(#T)" stroke-miterlimit="8" stroke-width="10.31" d="M0 0h179.1" transform="matrix(1 0 0 -1 1255 1707)"/><path fill="none" stroke="url(#U)" stroke-miterlimit="8" stroke-width="10.31" d="M0 0h179.1" transform="matrix(1 0 0 -1 1263 1692)"/><path fill="none" stroke="url(#V)" stroke-miterlimit="8" stroke-width="10.31" d="M0 0h179.1" transform="matrix(1 0 0 -1 1279 1676)"/><path fill="none" stroke="url(#W)" stroke-miterlimit="8" stroke-width="10.31" d="M0 0h179.1" transform="matrix(1 0 0 -1 1293 1660)"/><path fill="none" stroke="url(#X)" stroke-miterlimit="8" stroke-width="10.31" d="M751 1724h179.1"/><path fill="none" stroke="url(#Y)" stroke-miterlimit="8" stroke-width="10.31" d="M753 1740h179.1"/><path fill="none" stroke="url(#Z)" stroke-miterlimit="8" stroke-width="10.31" d="M759 1756h179.1"/><path fill="none" stroke="url(#aa)" stroke-miterlimit="8" stroke-width="10.31" d="M767 1771h179.1"/><path fill="none" stroke="url(#ab)" stroke-miterlimit="8" stroke-width="10.31" d="M0 0h179.1" transform="matrix(1 0 0 -1 752 1708)"/><path fill="none" stroke="url(#ac)" stroke-miterlimit="8" stroke-width="10.31" d="M0 0h179.1" transform="matrix(1 0 0 -1 760 1692)"/><path fill="none" stroke="url(#ad)" stroke-miterlimit="8" stroke-width="10.31" d="M0 0h179.1" transform="matrix(1 0 0 -1 776 1677)"/><path fill="none" stroke="url(#ae)" stroke-miterlimit="8" stroke-width="10.31" d="M0 0h179.1" transform="matrix(1 0 0 -1 790 1661)"/><path fill="red" d="m1326.5 1609.54 13.76-.06-.02-3.44-13.75.06Zm24.07-.1 13.75-.07-.02-3.43-13.75.06Zm24.06-.11 13.75-.06-.01-3.44-13.75.06Zm24.06-.1 13.75-.07-.01-3.44-13.75.06Zm24.07-.11 13.75-.06-.02-3.44-13.75.06Zm24.06-.11 13.75-.06-.02-3.44-13.75.06Zm24.06-.1 13.75-.07-.01-3.43-13.75.06Zm24.06-.11 13.75-.06-.01-3.44-13.75.06Zm24.07-.1 13.75-.07-.02-3.44-13.75.07Zm24.06-.11 13.75-.06-.02-3.44-13.75.06Zm24.06-.1 13.75-.07-.02-3.44-13.74.06Zm14.1 11.96 45.77-13.95-45.9-13.55Z"/><path fill="red" d="m1327.99 1609.54-13.75-.06.02-3.44 13.75.06Zm-24.06-.11-13.75-.06.01-3.43 13.75.06Zm-24.06-.1-13.75-.06.01-3.44 13.75.06Zm-24.07-.11-13.75-.06.02-3.44 13.75.06Zm-24.06-.1-13.75-.06.02-3.44 13.75.06Zm-24.06-.11-13.75-.06.02-3.44 13.75.06Zm-24.06-.11-13.75-.06.01-3.43 13.75.06Zm-24.06-.1-13.75-.06.01-3.44 13.75.06Zm-24.07-.11-13.75-.06.02-3.43 13.75.06Zm-24.06-.1-13.75-.06.02-3.44 13.75.06Zm-24.06-.11-13.75-.06.01-3.44 13.75.06Zm-14.1 11.97-45.77-13.95 45.89-13.55Z"/><path fill="url(#af)" fill-rule="evenodd" d="M1276 1607c0-25.96 20.82-47 46.5-47s46.5 21.04 46.5 47-20.82 47-46.5 47-46.5-21.04-46.5-47"/><path fill="none" stroke="url(#ag)" stroke-miterlimit="8" stroke-width="10.31" d="M3260 2358h123.52"/><path fill="none" stroke="url(#ah)" stroke-miterlimit="8" stroke-width="10.31" d="M3261 2374h123.52"/><path fill="none" stroke="url(#ai)" stroke-miterlimit="8" stroke-width="10.31" d="M3265 2389h123.52"/><path fill="none" stroke="url(#aj)" stroke-miterlimit="8" stroke-width="10.31" d="M3270 2405h123.52"/><path fill="none" stroke="url(#ak)" stroke-miterlimit="8" stroke-width="10.31" d="M0 0h123.52" transform="matrix(1 0 0 -1 3260 2342)"/><path fill="none" stroke="url(#al)" stroke-miterlimit="8" stroke-width="10.31" d="M0 0h123.52" transform="matrix(1 0 0 -1 3266 2326)"/><path fill="none" stroke="url(#am)" stroke-miterlimit="8" stroke-width="10.31" d="M0 0h123.52" transform="matrix(1 0 0 -1 3277 2310)"/><path fill="none" stroke="url(#an)" stroke-miterlimit="8" stroke-width="10.31" d="M0 0h123.52" transform="matrix(1 0 0 -1 3287 2295)"/><path fill-rule="evenodd" d="M2746 2410.5c0 15.19-8.28 27.5-18.5 27.5s-18.5-12.31-18.5-27.5 8.28-27.5 18.5-27.5 18.5 12.31 18.5 27.5m114 0c0 15.19-8.51 27.5-19 27.5s-19-12.31-19-27.5 8.51-27.5 19-27.5 19 12.31 19 27.5"/><path fill-rule="evenodd" d="M2763.12 2341.11v-41.33h32.54c2.61 0 4.99 1.38 6.65 4.13l25.65 37.2zm-9.5 0h-60.08l25.65-37.2c1.9-2.75 4.27-4.13 6.65-4.13h27.78zm111.63 0h-19.71c-2.62 0-4.99-1.38-6.65-4.13l-29.93-43.06c-3.56-5.16-8.31-7.92-13.54-7.92h-69.58c-4.99 0-9.98 2.76-13.54 7.92l-29.45 43.06c-1.9 2.75-2.85 6.2-2.85 9.99v35.47c0 15.16 8.55 27.56 19 27.56h2.37c0-21.01 11.64-37.89 26.13-37.89s26.12 16.88 26.12 37.89h61.75c0-21.01 11.64-37.89 26.13-37.89s26.12 16.88 26.12 37.89h11.88c5.22 0 9.5-6.2 9.5-13.78v-20.66c0-18.95-10.69-34.45-23.75-34.45M3094 2410.5c0 15.19-8.51 27.5-19 27.5s-19-12.31-19-27.5 8.51-27.5 19-27.5 19 12.31 19 27.5m114 0c0 15.19-8.51 27.5-19 27.5s-19-12.31-19-27.5 8.51-27.5 19-27.5 19 12.31 19 27.5"/><path fill-rule="evenodd" d="M3110.73 2341.11v-41.33h32.38c2.6 0 4.96 1.38 6.62 4.13l25.52 37.2zm-9.46 0h-59.8l25.53-37.2c1.89-2.75 4.25-4.13 6.62-4.13h27.65zm111.09 0h-19.61c-2.6 0-4.97-1.38-6.62-4.13l-29.78-43.06c-3.55-5.16-8.28-7.92-13.48-7.92h-69.25c-4.97 0-9.93 2.76-13.47 7.92l-29.31 43.06c-1.89 2.75-2.84 6.2-2.84 9.99v35.47c0 15.16 8.51 27.56 18.91 27.56h2.36c0-21.01 11.58-37.89 26-37.89s26 16.88 26 37.89h61.46c0-21.01 11.58-37.89 26-37.89s26 16.88 26 37.89h11.82c5.2 0 9.45-6.2 9.45-13.78v-20.66c0-18.95-10.64-34.45-23.64-34.45M3441 2410.5c0 15.19-8.51 27.5-19 27.5s-19-12.31-19-27.5 8.51-27.5 19-27.5 19 12.31 19 27.5m114 0c0 15.19-8.51 27.5-19 27.5s-19-12.31-19-27.5 8.51-27.5 19-27.5 19 12.31 19 27.5"/><path fill-rule="evenodd" d="M3458.12 2341.11v-41.33h32.54c2.61 0 4.99 1.38 6.65 4.13l25.65 37.2zm-9.5 0h-60.08l25.65-37.2c1.9-2.75 4.27-4.13 6.65-4.13h27.78zm111.63 0h-19.71c-2.61 0-4.99-1.38-6.65-4.13l-29.93-43.06c-3.56-5.16-8.31-7.92-13.53-7.92h-69.59c-4.99 0-9.98 2.76-13.54 7.92l-29.45 43.06c-1.9 2.75-2.85 6.2-2.85 9.99v35.47c0 15.16 8.55 27.56 19 27.56h2.38c0-21.01 11.63-37.89 26.12-37.89s26.12 16.88 26.12 37.89h61.76c0-21.01 11.63-37.89 26.12-37.89s26.12 16.88 26.12 37.89h11.88c5.23 0 9.5-6.2 9.5-13.78v-20.66c0-18.95-10.69-34.45-23.75-34.45"/><path fill="none" stroke="url(#ao)" stroke-miterlimit="8" stroke-width="10.31" d="M2914 2358h123.52"/><path fill="none" stroke="url(#ap)" stroke-miterlimit="8" stroke-width="10.31" d="M2916 2374h123.52"/><path fill="none" stroke="url(#aq)" stroke-miterlimit="8" stroke-width="10.31" d="M2919 2389h123.52"/><path fill="none" stroke="url(#ar)" stroke-miterlimit="8" stroke-width="10.31" d="M2925 2405h123.52"/><path fill="none" stroke="url(#as)" stroke-miterlimit="8" stroke-width="10.31" d="M0 0h123.52" transform="matrix(1 0 0 -1 2915 2342)"/><path fill="none" stroke="url(#at)" stroke-miterlimit="8" stroke-width="10.31" d="M0 0h123.52" transform="matrix(1 0 0 -1 2920 2326)"/><path fill="none" stroke="url(#au)" stroke-miterlimit="8" stroke-width="10.31" d="M0 0h123.52" transform="matrix(1 0 0 -1 2931 2310)"/><path fill="none" stroke="url(#av)" stroke-miterlimit="8" stroke-width="10.31" d="M0 0h123.52" transform="matrix(1 0 0 -1 2941 2295)"/><path fill="none" stroke="url(#aw)" stroke-miterlimit="8" stroke-width="10.31" d="M2567 2359h123.52"/><path fill="none" stroke="url(#ax)" stroke-miterlimit="8" stroke-width="10.31" d="M2569 2374h123.52"/><path fill="none" stroke="url(#ay)" stroke-miterlimit="8" stroke-width="10.31" d="M2572 2390h123.52"/><path fill="none" stroke="url(#az)" stroke-miterlimit="8" stroke-width="10.31" d="M2578 2405h123.52"/><path fill="none" stroke="url(#aA)" stroke-miterlimit="8" stroke-width="10.31" d="M0 0h123.52" transform="matrix(1 0 0 -1 2568 2342)"/><path fill="none" stroke="url(#aB)" stroke-miterlimit="8" stroke-width="10.31" d="M0 0h123.52" transform="matrix(1 0 0 -1 2573 2327)"/><path fill="none" stroke="url(#aC)" stroke-miterlimit="8" stroke-width="10.31" d="M0 0h123.52" transform="matrix(1 0 0 -1 2584 2311)"/><path fill="none" stroke="url(#aD)" stroke-miterlimit="8" stroke-width="10.31" d="M0 0h123.52" transform="matrix(1 0 0 -1 2594 2295)"/><path fill="red" d="M1328.5 2236.78h13.75v3.44h-13.75Zm24.06 0h13.75v3.44h-13.75Zm24.07 0h13.75v3.44h-13.75Zm24.06 0h13.75v3.44h-13.75Zm24.06 0h13.75v3.44h-13.75Zm24.06 0h13.75v3.44h-13.75Zm24.07 0h13.75v3.44h-13.75Zm24.06 0h13.75v3.44h-13.75Zm24.06 0h13.75v3.44H1521Zm24.06 0h13.75v3.44h-13.75Zm24.07 0h13.75v3.44h-13.75Zm24.06 0h13.75v3.44h-13.75Zm24.06 0H1631v3.44h-13.75Zm24.06 0h13.75v3.44h-13.75Zm24.07 0h13.75v3.44h-13.75Zm24.06 0h13.75v3.44h-13.75Zm24.06 0h13.75v3.44h-13.75Zm24.06 0h13.75v3.44h-13.75Zm24.07 0h13.75v3.44h-13.75Zm24.06 0h13.75v3.44h-13.75Zm24.06 0h13.75v3.44h-13.75Zm24.06 0h13.75v3.44h-13.75Zm24.07 0h13.75v3.44h-13.75Zm24.06 0h13.75v3.44h-13.75Zm24.06 0h13.75v3.44H1906Zm24.06 0h13.75v3.44h-13.75Zm24.07 0h13.75v3.44h-13.75Zm24.06 0h13.75v3.44h-13.75Zm24.06 0H2016v3.44h-13.75Zm24.06 0h13.75v3.44h-13.75Zm24.07 0h13.74v3.44h-13.74Zm24.06 0h13.75v3.44h-13.75Zm24.06 0h13.75v3.44h-13.75Zm24.06 0h13.75v3.44h-13.75Zm24.06 0h13.76v3.44h-13.76Zm24.07 0h13.75v3.44h-13.75Zm24.06 0h13.75v3.44h-13.75Zm24.06 0h13.75v3.44h-13.75Zm24.07 0h13.74v3.44h-13.74Zm24.06 0h13.75v3.44h-13.75Zm24.06 0h13.75v3.44H2291Zm24.06 0h13.75v3.44h-13.75Zm24.06 0h13.76v3.44h-13.76Zm24.07 0h13.75v3.44h-13.75Zm24.06 0H2401v3.44h-13.75Zm24.06 0h13.75v3.44h-13.75Zm24.07 0h13.74v3.44h-13.74Zm24.06 0h13.75v3.44h-13.75Zm24.06 0h13.75v3.44h-13.75Zm24.06 0h13.75v3.44h-13.75Zm24.06 0h13.76v3.44h-13.76Zm24.07 0h13.75v3.44h-13.75Zm24.06 0h13.75v3.44h-13.75Zm24.06 0h13.75v3.44h-13.75Zm24.07 0h13.74v3.44h-13.74Zm24.06 0h13.75v3.44h-13.75Zm24.06 0h13.75v3.44H2676Zm24.06 0h13.75v3.44h-13.75Zm24.06 0h13.76v3.44h-13.76Zm24.07 0h13.75v3.44h-13.75Zm24.06 0H2786v3.44h-13.75Zm24.06 0h13.75v3.44h-13.75Zm24.07 0h13.74v3.44h-13.74Zm24.06 0h13.75v3.44h-13.75Zm24.06 0h13.75v3.44h-13.75Zm24.06 0h13.75v3.44h-13.75Zm24.06 0h13.76v3.44h-13.76Zm24.07 0h13.75v3.44h-13.75Zm24.06 0h13.75v3.44h-13.75Zm24.06 0h13.75v3.44h-13.75Zm24.07 0h13.74v3.44h-13.74Zm24.06 0h13.75v3.44h-13.75Zm24.06 0h13.75v3.44H3061Zm24.06 0h13.75v3.44h-13.75Zm24.06 0h13.76v3.44h-13.76Zm24.07 0h13.75v3.44h-13.75Zm24.06 0H3171v3.44h-13.75Zm24.06 0h13.75v3.44h-13.75Zm24.07 0h13.74v3.44h-13.74Zm24.06 0h13.75v3.44h-13.75Zm24.06 0h13.75v3.44h-13.75Zm24.06 0h13.75v3.44h-13.75Zm24.06 0h13.76v3.44h-13.76Zm24.07 0h13.75v3.44h-13.75Zm24.06 0h13.75v3.44h-13.75Zm24.06 0h13.75v3.44h-13.75Zm24.07 0h13.74v3.44h-13.74Zm9.74-12.03 45.84 13.75-45.84 13.75Z"/></g></svg>