<?xml version="1.0" encoding="UTF-8"?>
<svg xmlns="http://www.w3.org/2000/svg" xmlns:xlink="http://www.w3.org/1999/xlink" width="234.854pt" height="227.17pt" viewBox="0 0 234.854 227.17" version="1.1">
<defs>
<clipPath id="clip1">
  <path d="M 0 0 L 233 0 L 233 227.171875 L 0 227.171875 Z M 0 0 "/>
</clipPath>
<clipPath id="clip2">
  <path d="M 212 94 L 234.855469 94 L 234.855469 133 L 212 133 Z M 212 94 "/>
</clipPath>
</defs>
<g id="surface1">
<path style=" stroke:none;fill-rule:nonzero;fill:rgb(100%,89.411926%,78.431702%);fill-opacity:1;" d="M 0 227.171875 L 234.855469 227.171875 L 234.855469 0 L 0 0 Z M 0 227.171875 "/>
<g clip-path="url(#clip1)" clip-rule="nonzero">
<path style="fill:none;stroke-width:0.3985;stroke-linecap:butt;stroke-linejoin:miter;stroke:rgb(100%,0%,0%);stroke-opacity:1;stroke-miterlimit:10;" d="M 113.387656 -0.0009375 C 113.387656 62.624062 62.622031 113.385781 0.0009375 113.385781 C -62.624062 113.385781 -113.385781 62.624062 -113.385781 -0.0009375 C -113.385781 -62.622031 -62.624062 -113.387656 0.0009375 -113.387656 C 62.622031 -113.387656 113.387656 -62.622031 113.387656 -0.0009375 Z M 113.387656 -0.0009375 " transform="matrix(1,0,0,-1,113.585,113.585)"/>
</g>
<path style="fill-rule:nonzero;fill:rgb(100%,79.998779%,79.998779%);fill-opacity:1;stroke-width:0.3985;stroke-linecap:butt;stroke-linejoin:miter;stroke:rgb(0%,0%,0%);stroke-opacity:1;stroke-dasharray:0.49814,0.99628;stroke-miterlimit:10;" d="M 2.989219 -0.0009375 C 2.989219 1.651406 1.649375 2.987344 0.0009375 2.987344 C -1.651406 2.987344 -2.987344 1.651406 -2.987344 -0.0009375 C -2.987344 -1.649375 -1.651406 -2.989219 0.0009375 -2.989219 C 1.649375 -2.989219 2.989219 -1.649375 2.989219 -0.0009375 Z M 2.989219 -0.0009375 " transform="matrix(1,0,0,-1,113.585,113.585)"/>
<path style="fill:none;stroke-width:0.3985;stroke-linecap:butt;stroke-linejoin:miter;stroke:rgb(100%,0%,0%);stroke-opacity:1;stroke-miterlimit:10;" d="M 110.551719 -0.0009375 C 110.551719 46.967812 72.4775 85.042031 25.512656 85.042031 C -21.456094 85.042031 -59.530312 46.967812 -59.530312 -0.0009375 C -59.530312 -46.965781 -21.456094 -85.04 25.512656 -85.04 C 72.4775 -85.04 110.551719 -46.965781 110.551719 -0.0009375 Z M 110.551719 -0.0009375 " transform="matrix(1,0,0,-1,113.585,113.585)"/>
<path style="fill-rule:nonzero;fill:rgb(100%,79.998779%,79.998779%);fill-opacity:1;stroke-width:0.3985;stroke-linecap:butt;stroke-linejoin:miter;stroke:rgb(0%,0%,0%);stroke-opacity:1;stroke-dasharray:0.49814,0.99628;stroke-miterlimit:10;" d="M 28.500938 -0.0009375 C 28.500938 1.651406 27.161094 2.987344 25.512656 2.987344 C 23.860313 2.987344 22.524375 1.651406 22.524375 -0.0009375 C 22.524375 -1.649375 23.860313 -2.989219 25.512656 -2.989219 C 27.161094 -2.989219 28.500938 -1.649375 28.500938 -0.0009375 Z M 28.500938 -0.0009375 " transform="matrix(1,0,0,-1,113.585,113.585)"/>
<path style="fill:none;stroke-width:0.3985;stroke-linecap:butt;stroke-linejoin:miter;stroke:rgb(100%,0%,0%);stroke-opacity:1;stroke-miterlimit:10;" d="M 107.715781 -0.0009375 C 107.715781 31.311562 82.336875 56.694375 51.024375 56.694375 C 19.711875 56.694375 -5.670937 31.311562 -5.670937 -0.0009375 C -5.670937 -31.309531 19.711875 -56.692344 51.024375 -56.692344 C 82.336875 -56.692344 107.715781 -31.309531 107.715781 -0.0009375 Z M 107.715781 -0.0009375 " transform="matrix(1,0,0,-1,113.585,113.585)"/>
<path style="fill-rule:nonzero;fill:rgb(100%,79.998779%,79.998779%);fill-opacity:1;stroke-width:0.3985;stroke-linecap:butt;stroke-linejoin:miter;stroke:rgb(0%,0%,0%);stroke-opacity:1;stroke-dasharray:0.49814,0.99628;stroke-miterlimit:10;" d="M 54.012656 -0.0009375 C 54.012656 1.651406 52.672813 2.987344 51.024375 2.987344 C 49.372031 2.987344 48.036094 1.651406 48.036094 -0.0009375 C 48.036094 -1.649375 49.372031 -2.989219 51.024375 -2.989219 C 52.672813 -2.989219 54.012656 -1.649375 54.012656 -0.0009375 Z M 54.012656 -0.0009375 " transform="matrix(1,0,0,-1,113.585,113.585)"/>
<path style="fill:none;stroke-width:0.3985;stroke-linecap:butt;stroke-linejoin:miter;stroke:rgb(100%,0%,0%);stroke-opacity:1;stroke-miterlimit:10;" d="M 104.88375 -0.0009375 C 104.88375 15.655312 92.192344 28.346719 76.536094 28.346719 C 60.879844 28.346719 48.188438 15.655312 48.188438 -0.0009375 C 48.188438 -15.657188 60.879844 -28.348594 76.536094 -28.348594 C 92.192344 -28.348594 104.88375 -15.657188 104.88375 -0.0009375 Z M 104.88375 -0.0009375 " transform="matrix(1,0,0,-1,113.585,113.585)"/>
<path style="fill-rule:nonzero;fill:rgb(100%,79.998779%,79.998779%);fill-opacity:1;stroke-width:0.3985;stroke-linecap:butt;stroke-linejoin:miter;stroke:rgb(0%,0%,0%);stroke-opacity:1;stroke-dasharray:0.49814,0.99628;stroke-miterlimit:10;" d="M 79.524375 -0.0009375 C 79.524375 1.651406 78.188438 2.987344 76.536094 2.987344 C 74.88375 2.987344 73.547813 1.651406 73.547813 -0.0009375 C 73.547813 -1.649375 74.88375 -2.989219 76.536094 -2.989219 C 78.188438 -2.989219 79.524375 -1.649375 79.524375 -0.0009375 Z M 79.524375 -0.0009375 " transform="matrix(1,0,0,-1,113.585,113.585)"/>
<path style="fill:none;stroke-width:1.59404;stroke-linecap:butt;stroke-linejoin:miter;stroke:rgb(0%,0%,0%);stroke-opacity:1;stroke-miterlimit:10;" d="M 102.047813 -0.0009375 L 115.372031 -0.0009375 " transform="matrix(1,0,0,-1,113.585,113.585)"/>
<path style=" stroke:none;fill-rule:nonzero;fill:rgb(0%,0%,0%);fill-opacity:1;" d="M 232.789063 113.585938 C 232.320313 113.375 230.25 112.171875 228.957031 110.867188 L 228.957031 116.304688 C 230.25 114.996094 232.320313 113.796875 232.789063 113.585938 Z M 232.789063 113.585938 "/>
<g clip-path="url(#clip2)" clip-rule="nonzero">
<path style="fill:none;stroke-width:1.13383;stroke-linecap:butt;stroke-linejoin:miter;stroke:rgb(0%,0%,0%);stroke-opacity:1;stroke-miterlimit:10;" d="M 3.833462 -0.0009375 C 3.364712 0.21 1.2944 1.413125 0.00143125 2.717812 L 0.00143125 -2.719688 C 1.2944 -1.411094 3.364712 -0.211875 3.833462 -0.0009375 Z M 3.833462 -0.0009375 " transform="matrix(1,0,0,-1,228.9556,113.585)"/>
</g>
<path style="fill-rule:nonzero;fill:rgb(100%,0%,0%);fill-opacity:1;stroke-width:0.3985;stroke-linecap:butt;stroke-linejoin:miter;stroke:rgb(0%,0%,0%);stroke-opacity:1;stroke-miterlimit:10;" d="M 105.036094 -0.0009375 C 105.036094 1.651406 103.700156 2.987344 102.047813 2.987344 C 100.395469 2.987344 99.059531 1.651406 99.059531 -0.0009375 C 99.059531 -1.649375 100.395469 -2.989219 102.047813 -2.989219 C 103.700156 -2.989219 105.036094 -1.649375 105.036094 -0.0009375 Z M 105.036094 -0.0009375 " transform="matrix(1,0,0,-1,113.585,113.585)"/>
</g>
</svg>
