<svg data-optimized="true" xmlns="http://www.w3.org/2000/svg" width="605.256" height="605.256" viewBox="0 0 453.942 453.942"><defs><clipPath id="a"><path d="M0 0h453.941v453.941H0Zm0 0"/></clipPath></defs><g clip-path="url(#a)"><path d="M0 453.941h453.941V0H0Zm0 0" style="stroke:none;fill-rule:nonzero;fill:#ffe4c8;fill-opacity:1"/><path d="M226.775-.002c0 125.246-101.531 226.778-226.773 226.778-125.246 0-226.778-101.532-226.778-226.778 0-125.242 101.532-226.773 226.778-226.773 125.242 0 226.773 101.531 226.773 226.773Zm0 0" style="fill:none;stroke-width:.3985;stroke-linecap:butt;stroke-linejoin:miter;stroke:red;stroke-opacity:1;stroke-miterlimit:10" transform="matrix(1 0 0 -1 226.971 226.971)"/></g><path d="M198.427-.002c0 109.59-88.835 198.43-198.425 198.43s-198.43-88.84-198.43-198.43 88.84-198.425 198.43-198.425S198.427-109.591 198.427-.002Zm0 0" style="fill:none;stroke-width:.3985;stroke-linecap:butt;stroke-linejoin:miter;stroke:red;stroke-opacity:1;stroke-miterlimit:10" transform="matrix(1 0 0 -1 226.971 226.971)"/><path d="M170.08-.002C170.08 93.936 93.935 170.08.002 170.08c-93.938 0-170.082-76.144-170.082-170.082 0-93.933 76.144-170.078 170.082-170.078 93.933 0 170.078 76.145 170.078 170.078Zm0 0" style="fill:none;stroke-width:.3985;stroke-linecap:butt;stroke-linejoin:miter;stroke:red;stroke-opacity:1;stroke-miterlimit:10" transform="matrix(1 0 0 -1 226.971 226.971)"/><path d="M141.732-.002c0 78.282-63.453 141.735-141.73 141.735-78.282 0-141.735-63.453-141.735-141.735 0-78.277 63.453-141.73 141.735-141.73 78.277 0 141.73 63.453 141.73 141.73Zm0 0" style="fill:none;stroke-width:.3985;stroke-linecap:butt;stroke-linejoin:miter;stroke:red;stroke-opacity:1;stroke-miterlimit:10" transform="matrix(1 0 0 -1 226.971 226.971)"/><path d="M113.388-.002c0 62.625-50.765 113.391-113.386 113.391-62.625 0-113.391-50.766-113.391-113.39 0-62.622 50.766-113.387 113.39-113.387 62.622 0 113.387 50.765 113.387 113.386Zm0 0" style="fill:none;stroke-width:.3985;stroke-linecap:butt;stroke-linejoin:miter;stroke:red;stroke-opacity:1;stroke-miterlimit:10" transform="matrix(1 0 0 -1 226.971 226.971)"/><path d="M85.04-.002c0 46.97-38.073 85.043-85.038 85.043-46.97 0-85.043-38.074-85.043-85.043 0-46.964 38.074-85.039 85.043-85.039C46.967-85.04 85.04-46.967 85.04 0Zm0 0" style="fill:none;stroke-width:.3985;stroke-linecap:butt;stroke-linejoin:miter;stroke:red;stroke-opacity:1;stroke-miterlimit:10" transform="matrix(1 0 0 -1 226.971 226.971)"/><path d="M56.693-.002c0 31.313-25.383 56.696-56.691 56.696-31.313 0-56.696-25.383-56.696-56.696 0-31.308 25.383-56.691 56.696-56.691 31.308 0 56.691 25.383 56.691 56.691Zm0 0" style="fill:none;stroke-width:.3985;stroke-linecap:butt;stroke-linejoin:miter;stroke:red;stroke-opacity:1;stroke-miterlimit:10" transform="matrix(1 0 0 -1 226.971 226.971)"/><path d="M28.345-.002c0 15.657-12.691 28.348-28.343 28.348-15.657 0-28.348-12.691-28.348-28.348 0-15.652 12.691-28.343 28.348-28.343 15.652 0 28.343 12.691 28.343 28.343Zm0 0" style="fill:none;stroke-width:.3985;stroke-linecap:butt;stroke-linejoin:miter;stroke:red;stroke-opacity:1;stroke-miterlimit:10" transform="matrix(1 0 0 -1 226.971 226.971)"/><path d="M6.974-.002a6.975 6.975 0 1 1-13.95.003 6.975 6.975 0 0 1 13.95-.003Zm0 0" style="fill-rule:nonzero;fill:red;fill-opacity:1;stroke-width:.3985;stroke-linecap:butt;stroke-linejoin:miter;stroke:#000;stroke-opacity:1;stroke-miterlimit:10" transform="matrix(1 0 0 -1 226.971 226.971)"/></svg>