<svg xmlns="http://www.w3.org/2000/svg" width="313.14" height="302.89" viewBox="0 0 234.85 227.17"><defs><clipPath id="a"><path d="M0 0h233v227.17H0Zm0 0"/></clipPath><clipPath id="b"><path d="M212 94h22.86v39H212Zm0 0"/></clipPath></defs><path d="M0 227.17h234.86V0H0Zm0 0" style="stroke:none;fill-rule:nonzero;fill:#ffe4c8;fill-opacity:1"/><g clip-path="url(#a)"><path d="M113.39 0c0 62.62-50.77 113.39-113.39 113.39S-113.39 62.62-113.39-.01c0-62.61 50.77-113.38 113.4-113.38 62.61 0 113.38 50.77 113.38 113.39Zm0 0" style="fill:none;stroke-width:.3985;stroke-linecap:butt;stroke-linejoin:miter;stroke:red;stroke-opacity:1;stroke-miterlimit:10" transform="matrix(1 0 0 -1 113.58 113.58)"/></g><path d="M2.99 0A2.99 2.99 0 1 1-3 0 2.99 2.99 0 0 1 3 0Zm0 0" style="fill-rule:nonzero;fill:#fcc;fill-opacity:1;stroke-width:.3985;stroke-linecap:butt;stroke-linejoin:miter;stroke:#000;stroke-opacity:1;stroke-dasharray:.49814,.99628;stroke-miterlimit:10" transform="matrix(1 0 0 -1 113.58 113.58)"/><path d="M110.55 0A85.04 85.04 0 1 1-59.53 0a85.04 85.04 0 0 1 170.08 0Zm0 0" style="fill:none;stroke-width:.3985;stroke-linecap:butt;stroke-linejoin:miter;stroke:red;stroke-opacity:1;stroke-miterlimit:10" transform="matrix(1 0 0 -1 113.58 113.58)"/><path d="M28.5 0a2.99 2.99 0 1 1-5.98 0 2.99 2.99 0 0 1 5.98 0Zm0 0" style="fill-rule:nonzero;fill:#fcc;fill-opacity:1;stroke-width:.3985;stroke-linecap:butt;stroke-linejoin:miter;stroke:#000;stroke-opacity:1;stroke-dasharray:.49814,.99628;stroke-miterlimit:10" transform="matrix(1 0 0 -1 113.58 113.58)"/><path d="M107.72 0A56.7 56.7 0 1 1-5.67 0a56.7 56.7 0 0 1 113.39 0Zm0 0" style="fill:none;stroke-width:.3985;stroke-linecap:butt;stroke-linejoin:miter;stroke:red;stroke-opacity:1;stroke-miterlimit:10" transform="matrix(1 0 0 -1 113.58 113.58)"/><path d="M54.01 0a2.99 2.99 0 1 1-5.97 0A2.99 2.99 0 0 1 54 0Zm0 0" style="fill-rule:nonzero;fill:#fcc;fill-opacity:1;stroke-width:.3985;stroke-linecap:butt;stroke-linejoin:miter;stroke:#000;stroke-opacity:1;stroke-dasharray:.49814,.99628;stroke-miterlimit:10" transform="matrix(1 0 0 -1 113.58 113.58)"/><path d="M104.88 0a28.35 28.35 0 1 1-56.7 0 28.35 28.35 0 0 1 56.7 0Zm0 0" style="fill:none;stroke-width:.3985;stroke-linecap:butt;stroke-linejoin:miter;stroke:red;stroke-opacity:1;stroke-miterlimit:10" transform="matrix(1 0 0 -1 113.58 113.58)"/><path d="M79.52 0a2.99 2.99 0 1 1-5.97 0 2.99 2.99 0 0 1 5.97 0Zm0 0" style="fill-rule:nonzero;fill:#fcc;fill-opacity:1;stroke-width:.3985;stroke-linecap:butt;stroke-linejoin:miter;stroke:#000;stroke-opacity:1;stroke-dasharray:.49814,.99628;stroke-miterlimit:10" transform="matrix(1 0 0 -1 113.58 113.58)"/><path d="M102.05 0h13.32" style="fill:none;stroke-width:1.59404;stroke-linecap:butt;stroke-linejoin:miter;stroke:#000;stroke-opacity:1;stroke-miterlimit:10" transform="matrix(1 0 0 -1 113.58 113.58)"/><path d="M232.79 113.59a17 17 0 0 1-3.83-2.72v5.43c1.29-1.3 3.36-2.5 3.83-2.71m0 0" style="stroke:none;fill-rule:nonzero;fill:#000;fill-opacity:1"/><g clip-path="url(#b)"><path d="M3.83 0C3.36.2 1.3 1.4 0 2.72v-5.44C1.3-1.42 3.36-.22 3.83 0Zm0 0" style="fill:none;stroke-width:1.13383;stroke-linecap:butt;stroke-linejoin:miter;stroke:#000;stroke-opacity:1;stroke-miterlimit:10" transform="matrix(1 0 0 -1 228.96 113.58)"/></g><path d="M105.04 0a2.99 2.99 0 1 1-5.98 0 2.99 2.99 0 0 1 5.98 0Zm0 0" style="fill-rule:nonzero;fill:red;fill-opacity:1;stroke-width:.3985;stroke-linecap:butt;stroke-linejoin:miter;stroke:#000;stroke-opacity:1;stroke-miterlimit:10" transform="matrix(1 0 0 -1 113.58 113.58)"/></svg>