<svg xmlns="http://www.w3.org/2000/svg" width="604.72" height="604.72" viewBox="0 0 453.54 453.54"><desc>A figure created by Phy-Hub, for The Handbook of Special Relativity</desc><defs><clipPath id="a"><path d="M0 0h453.54v453.54H0Zm0 0"/></clipPath></defs><g clip-path="url(#a)"><path d="M0 453.54h453.54V0H0Zm0 0" style="stroke:none;fill-rule:nonzero;fill:#ffe4c8;fill-opacity:1"/><path d="M226.77 0c0 125.25-101.52 226.77-226.77 226.77-125.24 0-226.78-101.52-226.78-226.77 0-125.24 101.54-226.78 226.78-226.78 125.25 0 226.77 101.54 226.77 226.78Zm0 0" style="fill:none;stroke-width:.3985;stroke-linecap:butt;stroke-linejoin:miter;stroke:red;stroke-opacity:1;stroke-miterlimit:10" transform="matrix(1 0 0 -1 226.77 226.77)"/></g><path d="M198.43 0c0 109.6-88.84 198.43-198.43 198.43S-198.43 109.59-198.43 0-109.59-198.43 0-198.43 198.43-109.59 198.43 0Zm0 0" style="fill:none;stroke-width:.3985;stroke-linecap:butt;stroke-linejoin:miter;stroke:red;stroke-opacity:1;stroke-miterlimit:10" transform="matrix(1 0 0 -1 226.77 226.77)"/><path d="M170.08 0c0 93.94-76.14 170.08-170.08 170.08S-170.08 93.94-170.08 0-93.94-170.08 0-170.08 170.08-93.94 170.08 0Zm0 0" style="fill:none;stroke-width:.3985;stroke-linecap:butt;stroke-linejoin:miter;stroke:red;stroke-opacity:1;stroke-miterlimit:10" transform="matrix(1 0 0 -1 226.77 226.77)"/><path d="M141.74 0c0 78.28-63.46 141.74-141.74 141.74S-141.73 78.28-141.73 0-78.28-141.73 0-141.73 141.74-78.28 141.74 0Zm0 0" style="fill:none;stroke-width:.3985;stroke-linecap:butt;stroke-linejoin:miter;stroke:red;stroke-opacity:1;stroke-miterlimit:10" transform="matrix(1 0 0 -1 226.77 226.77)"/><path d="M113.39 0C113.39 62.62 62.62 113.4 0 113.4S-113.39 62.62-113.39 0-62.62-113.39.01-113.39c62.61 0 113.38 50.77 113.38 113.4Zm0 0" style="fill:none;stroke-width:.3985;stroke-linecap:butt;stroke-linejoin:miter;stroke:red;stroke-opacity:1;stroke-miterlimit:10" transform="matrix(1 0 0 -1 226.77 226.77)"/><path d="M85.04 0A85.04 85.04 0 1 1-85.04 0 85.04 85.04 0 0 1 85.04 0Zm0 0" style="fill:none;stroke-width:.3985;stroke-linecap:butt;stroke-linejoin:miter;stroke:red;stroke-opacity:1;stroke-miterlimit:10" transform="matrix(1 0 0 -1 226.77 226.77)"/><path d="M56.7 0A56.7 56.7 0 1 1-56.7 0 56.7 56.7 0 0 1 56.7 0Zm0 0" style="fill:none;stroke-width:.3985;stroke-linecap:butt;stroke-linejoin:miter;stroke:red;stroke-opacity:1;stroke-miterlimit:10" transform="matrix(1 0 0 -1 226.77 226.77)"/><path d="M28.35 0a28.35 28.35 0 1 1-56.7 0 28.35 28.35 0 0 1 56.7 0Zm0 0" style="fill:none;stroke-width:.3985;stroke-linecap:butt;stroke-linejoin:miter;stroke:red;stroke-opacity:1;stroke-miterlimit:10" transform="matrix(1 0 0 -1 226.77 226.77)"/><path d="M6.97 0A6.97 6.97 0 1 1-6.97 0 6.97 6.97 0 0 1 6.97 0Zm0 0" style="fill-rule:nonzero;fill:red;fill-opacity:1;stroke-width:.3985;stroke-linecap:butt;stroke-linejoin:miter;stroke:#000;stroke-opacity:1;stroke-miterlimit:10" transform="matrix(1 0 0 -1 226.77 226.77)"/></svg>