<svg data-optimized="true" xmlns="http://www.w3.org/2000/svg" width="313.139" height="302.893" viewBox="0 0 234.854 227.17"><defs><clipPath id="a"><path d="M0 0h233v227.172H0Zm0 0"/></clipPath><clipPath id="b"><path d="M212 94h22.855v39H212Zm0 0"/></clipPath></defs><path d="M0 227.172h234.855V0H0Zm0 0" style="stroke:none;fill-rule:nonzero;fill:#ffe4c8;fill-opacity:1"/><g clip-path="url(#a)"><path d="M113.388 0c0 62.624-50.766 113.386-113.387 113.386-62.625 0-113.387-50.762-113.387-113.387 0-62.621 50.762-113.387 113.387-113.387 62.621 0 113.387 50.766 113.387 113.387Zm0 0" style="fill:none;stroke-width:.3985;stroke-linecap:butt;stroke-linejoin:miter;stroke:red;stroke-opacity:1;stroke-miterlimit:10" transform="matrix(1 0 0 -1 113.585 113.585)"/></g><path d="M2.99 0a2.988 2.988 0 1 1-5.977 0 2.988 2.988 0 0 1 5.976 0Zm0 0" style="fill-rule:nonzero;fill:#fcc;fill-opacity:1;stroke-width:.3985;stroke-linecap:butt;stroke-linejoin:miter;stroke:#000;stroke-opacity:1;stroke-dasharray:.49814,.99628;stroke-miterlimit:10" transform="matrix(1 0 0 -1 113.585 113.585)"/><path d="M110.552 0c0 46.968-38.074 85.042-85.04 85.042-46.968 0-85.042-38.074-85.042-85.043 0-46.965 38.074-85.039 85.043-85.039 46.965 0 85.039 38.074 85.039 85.04Zm0 0" style="fill:none;stroke-width:.3985;stroke-linecap:butt;stroke-linejoin:miter;stroke:red;stroke-opacity:1;stroke-miterlimit:10" transform="matrix(1 0 0 -1 113.585 113.585)"/><path d="M28.5 0a2.988 2.988 0 1 1-5.976 0 2.988 2.988 0 0 1 5.977 0Zm0 0" style="fill-rule:nonzero;fill:#fcc;fill-opacity:1;stroke-width:.3985;stroke-linecap:butt;stroke-linejoin:miter;stroke:#000;stroke-opacity:1;stroke-dasharray:.49814,.99628;stroke-miterlimit:10" transform="matrix(1 0 0 -1 113.585 113.585)"/><path d="M107.716 0c0 31.312-25.38 56.694-56.692 56.694S-5.67 31.312-5.67 0c0-31.309 25.383-56.691 56.695-56.691S107.716-31.31 107.716-.001Zm0 0" style="fill:none;stroke-width:.3985;stroke-linecap:butt;stroke-linejoin:miter;stroke:red;stroke-opacity:1;stroke-miterlimit:10" transform="matrix(1 0 0 -1 113.585 113.585)"/><path d="M54.013 0a2.988 2.988 0 1 1-5.977 0 2.988 2.988 0 0 1 5.977 0Zm0 0" style="fill-rule:nonzero;fill:#fcc;fill-opacity:1;stroke-width:.3985;stroke-linecap:butt;stroke-linejoin:miter;stroke:#000;stroke-opacity:1;stroke-dasharray:.49814,.99628;stroke-miterlimit:10" transform="matrix(1 0 0 -1 113.585 113.585)"/><path d="M104.884 0c0 15.655-12.692 28.347-28.348 28.347S48.188 15.655 48.188-.001 60.88-28.349 76.536-28.349 104.884-15.657 104.884 0Zm0 0" style="fill:none;stroke-width:.3985;stroke-linecap:butt;stroke-linejoin:miter;stroke:red;stroke-opacity:1;stroke-miterlimit:10" transform="matrix(1 0 0 -1 113.585 113.585)"/><path d="M79.524 0a2.986 2.986 0 0 1-2.988 2.987A2.988 2.988 0 1 1 79.524 0Zm0 0" style="fill-rule:nonzero;fill:#fcc;fill-opacity:1;stroke-width:.3985;stroke-linecap:butt;stroke-linejoin:miter;stroke:#000;stroke-opacity:1;stroke-dasharray:.49814,.99628;stroke-miterlimit:10" transform="matrix(1 0 0 -1 113.585 113.585)"/><path d="M102.048 0h13.324" style="fill:none;stroke-width:1.59404;stroke-linecap:butt;stroke-linejoin:miter;stroke:#000;stroke-opacity:1;stroke-miterlimit:10" transform="matrix(1 0 0 -1 113.585 113.585)"/><path d="M232.79 113.586c-.47-.211-2.54-1.414-3.833-2.719v5.438c1.293-1.309 3.363-2.508 3.832-2.72m0 0" style="stroke:none;fill-rule:nonzero;fill:#000;fill-opacity:1"/><g clip-path="url(#b)"><path d="M3.833 0C3.365.21 1.294 1.412.001 2.717V-2.72C1.294-1.41 3.365-.212 3.833 0Zm0 0" style="fill:none;stroke-width:1.13383;stroke-linecap:butt;stroke-linejoin:miter;stroke:#000;stroke-opacity:1;stroke-miterlimit:10" transform="matrix(1 0 0 -1 228.956 113.585)"/></g><path d="M105.036 0a2.986 2.986 0 0 1-2.988 2.987A2.988 2.988 0 1 1 105.036 0Zm0 0" style="fill-rule:nonzero;fill:red;fill-opacity:1;stroke-width:.3985;stroke-linecap:butt;stroke-linejoin:miter;stroke:#000;stroke-opacity:1;stroke-miterlimit:10" transform="matrix(1 0 0 -1 113.585 113.585)"/></svg>