<svg xmlns="http://www.w3.org/2000/svg" width="604.72" height="604.72" viewBox="0 0 453.54 453.54"><desc>A figure created by Phy-Hub, for The Handbook of Special Relativity</desc><defs><clipPath id="a"><path d="M0 0h453.54v453.54H0Zm0 0"/></clipPath></defs><g clip-path="url(#a)"><path d="M0 453.54h453.54V0H0Zm0 0" style="stroke:none;fill-rule:nonzero;fill:#ffe4c8;fill-opacity:1"/></g><path d="M113.39 0C113.39 62.62 62.62 113.4 0 113.4S-113.39 62.62-113.39 0-62.62-113.39.01-113.39c62.61 0 113.38 50.77 113.38 113.4Zm0 0" style="fill:none;stroke-width:.3985;stroke-linecap:butt;stroke-linejoin:miter;stroke:red;stroke-opacity:1;stroke-miterlimit:10" transform="matrix(1 0 0 -1 226.77 226.77)"/><path d="M2.99 0a3 3 0 1 1-5.98 0 3 3 0 0 1 5.98 0Zm0 0" style="fill-rule:nonzero;fill:#fcc;fill-opacity:1;stroke-width:.3985;stroke-linecap:butt;stroke-linejoin:miter;stroke:#000;stroke-opacity:1;stroke-dasharray:.49814,.99628;stroke-miterlimit:10" transform="matrix(1 0 0 -1 226.77 226.77)"/><path d="M110.55 0A85.04 85.04 0 1 1-59.53 0a85.04 85.04 0 0 1 170.08 0Zm0 0" style="fill:none;stroke-width:.3985;stroke-linecap:butt;stroke-linejoin:miter;stroke:red;stroke-opacity:1;stroke-miterlimit:10" transform="matrix(1 0 0 -1 226.77 226.77)"/><path d="M28.5 0a3 3 0 1 1-5.98 0 3 3 0 0 1 5.98 0Zm0 0" style="fill-rule:nonzero;fill:#fcc;fill-opacity:1;stroke-width:.3985;stroke-linecap:butt;stroke-linejoin:miter;stroke:#000;stroke-opacity:1;stroke-dasharray:.49814,.99628;stroke-miterlimit:10" transform="matrix(1 0 0 -1 226.77 226.77)"/><path d="M107.72 0A56.7 56.7 0 1 1-5.67 0a56.7 56.7 0 0 1 113.39 0Zm0 0" style="fill:none;stroke-width:.3985;stroke-linecap:butt;stroke-linejoin:miter;stroke:red;stroke-opacity:1;stroke-miterlimit:10" transform="matrix(1 0 0 -1 226.77 226.77)"/><path d="M54.01 0a3 3 0 1 1-5.98 0 3 3 0 0 1 5.98 0Zm0 0" style="fill-rule:nonzero;fill:#fcc;fill-opacity:1;stroke-width:.3985;stroke-linecap:butt;stroke-linejoin:miter;stroke:#000;stroke-opacity:1;stroke-dasharray:.49814,.99628;stroke-miterlimit:10" transform="matrix(1 0 0 -1 226.77 226.77)"/><path d="M104.88 0A28.35 28.35 0 1 1 48.2 0a28.35 28.35 0 0 1 56.7 0Zm0 0" style="fill:none;stroke-width:.3985;stroke-linecap:butt;stroke-linejoin:miter;stroke:red;stroke-opacity:1;stroke-miterlimit:10" transform="matrix(1 0 0 -1 226.77 226.77)"/><path d="M79.52 0a3 3 0 1 1-5.98 0 3 3 0 0 1 5.98 0Zm0 0" style="fill-rule:nonzero;fill:#fcc;fill-opacity:1;stroke-width:.3985;stroke-linecap:butt;stroke-linejoin:miter;stroke:#000;stroke-opacity:1;stroke-dasharray:.49814,.99628;stroke-miterlimit:10" transform="matrix(1 0 0 -1 226.77 226.77)"/><path d="M102.05 0h13.32" style="fill:none;stroke-width:1.59404;stroke-linecap:butt;stroke-linejoin:miter;stroke:#000;stroke-opacity:1;stroke-miterlimit:10" transform="matrix(1 0 0 -1 226.77 226.77)"/><path d="M3.83 0C3.37.21 1.3 1.41 0 2.72v-5.44A17 17 0 0 0 3.83 0Zm0 0" style="fill-rule:nonzero;fill:#000;fill-opacity:1;stroke-width:1.13383;stroke-linecap:butt;stroke-linejoin:miter;stroke:#000;stroke-opacity:1;stroke-miterlimit:10" transform="matrix(1 0 0 -1 342.14 226.77)"/><path d="M105.04 0a3 3 0 1 1-5.98 0 3 3 0 0 1 5.98 0Zm0 0" style="fill-rule:nonzero;fill:red;fill-opacity:1;stroke-width:.3985;stroke-linecap:butt;stroke-linejoin:miter;stroke:#000;stroke-opacity:1;stroke-miterlimit:10" transform="matrix(1 0 0 -1 226.77 226.77)"/></svg>