<svg xmlns="http://www.w3.org/2000/svg" xml:space="preserve" width="4337" height="2449" overflow="hidden"><defs><linearGradient id="a" x1="385.401" x2="1722.62" y1="-256.01" y2="1757.01" gradientUnits="userSpaceOnUse" spreadMethod="reflect"><stop offset="0" stop-color="#909090"/><stop offset=".5" stop-color="#DDD"/><stop offset="1"/></linearGradient><linearGradient id="b" x1="387.333" x2="1736.69" y1="-257.567" y2="1771.57" gradientUnits="userSpaceOnUse" spreadMethod="reflect"><stop offset="0" stop-color="#909090"/><stop offset=".5" stop-color="#DDD"/><stop offset="1"/></linearGradient><linearGradient id="c" x1="405.384" x2="1740.64" y1="-265.574" y2="1772.57" gradientUnits="userSpaceOnUse" spreadMethod="reflect"><stop offset="0" stop-color="#909090"/><stop offset=".5" stop-color="#DDD"/><stop offset="1"/></linearGradient><linearGradient id="d" x1="48.292" x2="1451.73" y1="-43.813" y2="1502.81" gradientUnits="userSpaceOnUse" spreadMethod="reflect"><stop offset="0" stop-color="#909090"/><stop offset=".5" stop-color="#DDD"/><stop offset="1"/></linearGradient></defs><path fill="#283644" fill-rule="evenodd" stroke="#000" stroke-miterlimit="8" stroke-width="1.612" d="m4309.136 2155.928-227.639 16.487-.362 60.513 227.64-16.396z"/><path fill="#3E546A" fill-rule="evenodd" stroke="#000" stroke-miterlimit="8" stroke-width="1.612" d="m3525.783 1395.928-227.643 16.351 782.348 758.65 227.648-16.351z"/><path fill="#283644" fill-rule="evenodd" stroke="#000" stroke-miterlimit="8" stroke-width="1.612" d="m4081.125 2171.929-227.638 16.487-.362 60.513 227.64-16.397z"/><path fill="#3E546A" fill-rule="evenodd" stroke="#000" stroke-miterlimit="8" stroke-width="1.612" d="m3298.773 1412.93-227.643 16.35 782.348 758.649 227.647-16.351z"/><path fill="#283644" fill-rule="evenodd" stroke="#000" stroke-miterlimit="8" stroke-width="1.612" d="m3854.115 2188.93-227.639 16.486-.361 60.514 227.639-16.397z"/><path fill="#3E546A" fill-rule="evenodd" stroke="#000" stroke-miterlimit="8" stroke-width="1.612" d="m3070.763 1428.93-227.653 16.35 782.357 758.651 227.648-16.352z"/><path fill="#283644" fill-rule="evenodd" stroke="#000" stroke-miterlimit="8" stroke-width="1.612" d="m3626.105 2204.93-227.639 16.487-.361 60.514 227.638-16.397z"/><path fill="#3E546A" fill-rule="evenodd" stroke="#000" stroke-miterlimit="8" stroke-width="1.612" d="m2842.752 1445.93-227.652 16.351 782.357 758.65 227.648-16.351z"/><path fill="#283644" fill-rule="evenodd" stroke="#000" stroke-miterlimit="8" stroke-width="1.612" d="m3398.095 2221.931-227.639 16.487-.361 60.513 227.638-16.397z"/><path fill="#3E546A" fill-rule="evenodd" stroke="#000" stroke-miterlimit="8" stroke-width="1.612" d="m2615.742 1461.931-227.652 16.351 782.357 758.65 227.648-16.351z"/><path fill="#283644" fill-rule="evenodd" stroke="#000" stroke-miterlimit="8" stroke-width="1.612" d="m3171.085 2237.932-227.639 16.487-.362 60.513 227.64-16.397z"/><path fill="#3E546A" fill-rule="evenodd" stroke="#000" stroke-miterlimit="8" stroke-width="1.612" d="m2387.732 1477.932-227.652 16.372 782.357 759.628 227.648-16.372z"/><path fill="#283644" fill-rule="evenodd" stroke="#000" stroke-miterlimit="8" stroke-width="1.612" d="m2943.074 2254.933-227.638 16.486-.362 60.514 227.64-16.397z"/><path fill="#3E546A" fill-rule="evenodd" stroke="#000" stroke-miterlimit="8" stroke-width="1.612" d="m2160.722 1494.933-227.652 16.35 782.357 758.65 227.647-16.351z"/><path fill="#283644" fill-rule="evenodd" stroke="#000" stroke-miterlimit="8" stroke-width="1.612" d="m2716.064 2270.933-227.639 16.487-.361 60.514 227.639-16.397z"/><path fill="#3E546A" fill-rule="evenodd" stroke="#000" stroke-miterlimit="8" stroke-width="1.612" d="m1932.711 1510.934-227.651 16.371 782.356 759.629 227.648-16.372z"/><path fill="#283644" fill-rule="evenodd" stroke="#000" stroke-miterlimit="8" stroke-width="1.612" d="m2488.054 2287.934-227.639 16.487-.361 60.513 227.638-16.397z"/><path fill="#3E546A" fill-rule="evenodd" stroke="#000" stroke-miterlimit="8" stroke-width="1.612" d="m1705.476 1527.934-227.426 16.351 781.582 758.65 227.422-16.351z"/><path fill="#283644" fill-rule="evenodd" stroke="#000" stroke-miterlimit="8" stroke-width="1.612" d="m2260.044 2303.935-226.641 16.487-.359 60.513 226.64-16.397z"/><path fill="#3E546A" fill-rule="evenodd" stroke="#000" stroke-miterlimit="8" stroke-width="1.612" d="m1477.691 1543.935-227.651 16.372 782.356 759.628 227.648-16.372z"/><path fill="#283644" fill-rule="evenodd" stroke="#000" stroke-miterlimit="8" stroke-width="1.612" d="m2033.034 2320.935-227.639 16.488-.362 60.513 227.64-16.397z"/><path fill="#3E546A" fill-rule="evenodd" stroke="#000" stroke-miterlimit="8" stroke-width="1.612" d="m1250.456 1560.936-227.426 16.35 781.581 758.65 227.423-16.35z"/><path fill="#283644" fill-rule="evenodd" stroke="#000" stroke-miterlimit="8" stroke-width="1.612" d="m1805.023 2336.936-227.638 16.487-.362 60.513 227.64-16.396z"/><path fill="#3E546A" fill-rule="evenodd" stroke="#000" stroke-miterlimit="8" stroke-width="1.612" d="M1022.671 1576.936 795.02 1593.31l782.356 759.628 227.647-16.373z"/><path fill="url(#a)" fill-rule="evenodd" stroke="#000" stroke-miterlimit="8" stroke-width=".29" d="M635.573 1500.96.01 921.938 985.827-.001 2108.01 79.733 635.564 1501Z" transform="matrix(-1 0 0 1 4192.5 544.5)"/><path fill="url(#b)" fill-rule="evenodd" stroke="#000" stroke-miterlimit="8" stroke-width=".29" d="M638.728 1513.95.01 934.834 1001.82-.001l1122.19 79.756L638.728 1514Z" transform="matrix(-1 0 0 1 3322.5 599.5)"/><path fill="url(#c)" fill-rule="evenodd" stroke="#000" stroke-miterlimit="8" stroke-width=".29" d="M670.618 1506.95.01 966.394 1023.99-.001l1122.02 79.72L670.618 1507Z" transform="matrix(-1 0 0 1 2468.5 654.5)"/><path fill="#283644" fill-rule="evenodd" stroke="#000" stroke-miterlimit="8" stroke-width="1.612" d="m1578.013 2353.937-227.639 16.487-.361 60.513 227.639-16.396z"/><path fill="#3E546A" fill-rule="evenodd" stroke="#000" stroke-miterlimit="8" stroke-width="1.612" d="m794.661 1593.937-227.651 16.351 782.355 758.65 227.648-16.351z"/><path fill="#E6E6E6" fill-rule="evenodd" stroke="#000" stroke-miterlimit="8" stroke-width=".169" d="M2586.5 1851.027c.65 229.513 187.203 402.801 416.681 387.047 229.473-15.758 414.972-214.587 414.317-444.1-.65-229.513-187.202-402.801-416.675-387.048-228.556 15.693-413.673 213.061-414.323 441.742"/><path fill="#999" fill-rule="evenodd" stroke="#000" stroke-miterlimit="8" stroke-width=".135" d="M2668.499 1841.36c.522 183.921 150.259 322.786 334.449 310.162 184.185-12.628 333.076-171.961 332.55-355.882-.521-183.921-150.257-322.786-334.443-310.162-183.45 12.576-332.034 170.737-332.556 353.991"/><path fill="#1A1A1A" fill-rule="evenodd" stroke="#000" stroke-miterlimit="8" stroke-width=".099" d="M2758.5 1835.71c.381 134.444 109.708 235.953 244.192 226.725 134.48-9.231 243.19-125.701 242.807-260.145-.38-134.444-109.708-235.952-244.189-226.725-133.943 9.193-242.429 124.807-242.81 258.763"/><path fill="#E6E6E6" fill-rule="evenodd" stroke="#000" stroke-miterlimit="8" stroke-width=".169" d="M1714.5 1913.494c.65 229.255 187.203 402.347 416.681 386.611 229.473-15.741 414.972-214.345 414.317-443.599-.65-229.254-187.202-402.346-416.675-386.61-228.556 15.675-413.673 212.819-414.323 441.242"/><path fill="#999" fill-rule="evenodd" stroke="#000" stroke-miterlimit="8" stroke-width=".135" d="M1796.5 1904.36c.522 183.921 150.258 322.786 334.448 310.162 184.185-12.628 333.076-171.961 332.55-355.882-.521-183.921-150.257-322.786-334.443-310.162-183.45 12.576-332.033 170.737-332.555 353.991"/><path fill="#1A1A1A" fill-rule="evenodd" stroke="#000" stroke-miterlimit="8" stroke-width=".099" d="M1886.5 1898.71c.381 134.444 109.708 235.953 244.192 226.725 134.48-9.231 243.19-125.701 242.807-260.145-.38-134.444-109.708-235.952-244.189-226.725-133.943 9.193-242.429 124.807-242.81 258.763"/><path fill="#283644" fill-rule="evenodd" stroke="#000" stroke-miterlimit="8" stroke-width="1.612" d="m1350.003 2369.938-227.639 16.487-.361 60.513 227.638-16.397z"/><path fill="#3E546A" fill-rule="evenodd" stroke="#000" stroke-miterlimit="8" stroke-width="1.612" d="M567.65 1609.938 340 1626.288l782.355 758.65 227.648-16.351z"/><path fill="#19222B" fill-rule="evenodd" stroke="#000" stroke-miterlimit="8" stroke-width="1.612" d="m1122.913 2386.019-783.91-758.08 1.627 44.555 782.373 773.444z"/><path fill="url(#d)" fill-rule="evenodd" stroke="#000" stroke-miterlimit="8" stroke-width=".29" d="M667.108 1459 .01 931.262 972.436-.001l527.574 629.093z" transform="matrix(-1 0 0 1 1583.5 734.5)"/><path fill="#E6E6E6" fill-rule="evenodd" stroke="#000" stroke-miterlimit="8" stroke-width=".169" d="M848.5 1976.027c.65 229.512 187.203 402.801 416.681 387.047 229.473-15.759 414.972-214.588 414.317-444.1-.65-229.513-187.202-402.801-416.675-387.048-228.556 15.693-413.673 213.061-414.323 441.742"/><path fill="#999" fill-rule="evenodd" stroke="#000" stroke-miterlimit="8" stroke-width=".135" d="M931.499 1966.892c.522 184.18 150.033 323.241 333.947 310.599 183.91-12.646 332.578-172.203 332.053-356.383-.521-184.18-150.033-323.24-333.943-310.599-183.175 12.593-331.535 170.977-332.057 354.49"/><path fill="#1A1A1A" fill-rule="evenodd" stroke="#000" stroke-miterlimit="8" stroke-width=".099" d="M1020.5 1960.71c.381 134.444 109.708 235.953 244.192 226.725 134.48-9.231 243.19-125.701 242.807-260.145-.38-134.444-109.708-235.952-244.189-226.725-133.943 9.193-242.429 124.807-242.81 258.763"/><path fill="#E6E6E6" fill-rule="evenodd" stroke="#000" stroke-miterlimit="8" stroke-width=".169" d="M3459.499 1788.027c.65 229.512 187.203 402.801 416.682 387.047 229.473-15.759 414.972-214.588 414.317-444.1-.65-229.513-187.203-402.801-416.676-387.048-228.555 15.693-413.673 213.061-414.323 441.742"/><path fill="#999" fill-rule="evenodd" stroke="#000" stroke-miterlimit="8" stroke-width=".135" d="M3541.5 1778.892c.522 184.181 150.258 323.241 334.448 310.599 184.185-12.646 333.076-172.203 332.55-356.383-.521-184.18-150.257-323.24-334.443-310.599-183.45 12.593-332.033 170.977-332.555 354.49"/><path fill="#1A1A1A" fill-rule="evenodd" stroke="#000" stroke-miterlimit="8" stroke-width=".099" d="M3631.5 1772.71c.381 134.444 109.709 235.953 244.192 226.725 134.48-9.231 243.19-125.701 242.807-260.145-.38-134.444-109.708-235.952-244.189-226.725-133.943 9.193-242.429 124.807-242.81 258.763"/><path fill="#283644" fill-rule="evenodd" stroke="#000" stroke-miterlimit="8" stroke-width="1.612" d="m1604.015 1444.897-227.64 16.273-.361 59.727 227.639-16.183z"/><path fill="#3E546A" fill-rule="evenodd" stroke="#000" stroke-miterlimit="8" stroke-width="1.612" d="M820.662 684.896 593.01 701.247l782.357 758.65 227.648-16.351z"/><path fill="#283644" fill-rule="evenodd" stroke="#000" stroke-miterlimit="8" stroke-width="1.612" d="m1831.025 1427.895-227.639 16.487-.362 60.514 227.64-16.397z"/><path fill="#3E546A" fill-rule="evenodd" stroke="#000" stroke-miterlimit="8" stroke-width="1.612" d="m1048.672 667.896-227.652 16.35 782.357 758.65 227.648-16.351z"/><path fill="#283644" fill-rule="evenodd" stroke="#000" stroke-miterlimit="8" stroke-width="1.612" d="m2059.035 1411.895-227.639 16.487-.361 60.513 227.638-16.397z"/><path fill="#3E546A" fill-rule="evenodd" stroke="#000" stroke-miterlimit="8" stroke-width="1.612" d="m1275.682 651.895-227.652 16.35 782.357 758.65 227.648-16.351z"/><path fill="#283644" fill-rule="evenodd" stroke="#000" stroke-miterlimit="8" stroke-width="1.612" d="m2286.045 1395.895-227.639 16.273-.362 59.728 227.64-16.184z"/><path fill="#3E546A" fill-rule="evenodd" stroke="#000" stroke-miterlimit="8" stroke-width="1.612" d="m1503.692 635.894-227.652 16.351 782.357 758.65 227.648-16.351z"/><path fill="#283644" fill-rule="evenodd" stroke="#000" stroke-miterlimit="8" stroke-width="1.612" d="m2514.055 1378.893-227.638 16.487-.362 60.513 227.639-16.396z"/><path fill="#3E546A" fill-rule="evenodd" stroke="#000" stroke-miterlimit="8" stroke-width="1.612" d="m1731.477 618.894-227.417 16.35 781.573 758.65 227.422-16.351z"/><path fill="#283644" fill-rule="evenodd" stroke="#000" stroke-miterlimit="8" stroke-width="1.612" d="m2742.066 1362.892-227.639 16.488-.362 60.512 227.639-16.396z"/><path fill="#3E546A" fill-rule="evenodd" stroke="#000" stroke-miterlimit="8" stroke-width="1.612" d="m1958.713 602.893-227.643 16.35 782.348 758.65 227.648-16.35z"/><path fill="#283644" fill-rule="evenodd" stroke="#000" stroke-miterlimit="8" stroke-width="1.612" d="m2969.076 1345.892-227.639 16.487-.362 60.513 227.64-16.397z"/><path fill="#3E546A" fill-rule="evenodd" stroke="#000" stroke-miterlimit="8" stroke-width="1.612" d="m2186.723 585.892-227.643 16.372 782.348 759.628 227.648-16.372z"/><path fill="#283644" fill-rule="evenodd" stroke="#000" stroke-miterlimit="8" stroke-width="1.612" d="m3197.086 1329.89-227.639 16.488-.362 60.513 227.64-16.397z"/><path fill="#3E546A" fill-rule="evenodd" stroke="#000" stroke-miterlimit="8" stroke-width="1.612" d="m2413.733 569.891-227.643 16.351 782.348 758.65 227.648-16.351z"/><path fill="#283644" fill-rule="evenodd" stroke="#000" stroke-miterlimit="8" stroke-width="1.612" d="m3424.096 1313.892-227.639 16.272-.361 59.728 227.639-16.184z"/><path fill="#3E546A" fill-rule="evenodd" stroke="#000" stroke-miterlimit="8" stroke-width="1.612" d="M2641.744 553.89 2414.1 570.242l782.348 758.65 227.648-16.351z"/><path fill="#283644" fill-rule="evenodd" stroke="#000" stroke-miterlimit="8" stroke-width="1.612" d="m3652.106 1296.89-227.638 16.486-.362 60.514 227.639-16.397z"/><path fill="#3E546A" fill-rule="evenodd" stroke="#000" stroke-miterlimit="8" stroke-width="1.612" d="m2869.528 536.89-227.418 16.372 781.574 759.628 227.422-16.372z"/><path fill="#283644" fill-rule="evenodd" stroke="#000" stroke-miterlimit="8" stroke-width="1.612" d="m3880.117 1280.889-227.64 16.487-.361 60.513 227.639-16.397z"/><path fill="#3E546A" fill-rule="evenodd" stroke="#000" stroke-miterlimit="8" stroke-width="1.612" d="m3096.764 520.89-227.644 16.35 782.349 758.649 227.648-16.351z"/><path fill="#283644" fill-rule="evenodd" stroke="#000" stroke-miterlimit="8" stroke-width="1.612" d="m4107.127 1264.89-227.639 16.272-.362 59.727 227.639-16.183z"/><path fill="#3E546A" fill-rule="evenodd" stroke="#000" stroke-miterlimit="8" stroke-width="1.612" d="M3324.774 504.888 3097.13 521.24l782.349 758.649 227.648-16.351z"/><path fill="#283644" fill-rule="evenodd" stroke="#000" stroke-miterlimit="8" stroke-width="1.612" d="m4335.137 1247.887-227.639 16.487-.362 60.514 227.64-16.397z"/><path fill="#3E546A" fill-rule="evenodd" stroke="#000" stroke-miterlimit="8" stroke-width="1.612" d="m3551.784 487.888-227.644 16.35 782.349 758.65 227.648-16.351z"/><path fill="#283644" fill-rule="evenodd" stroke="#000" stroke-miterlimit="8" stroke-width="1.612" d="m1376.004 1460.897-227.638 16.487-.362 60.513 227.639-16.397z"/><path fill="#3E546A" fill-rule="evenodd" stroke="#000" stroke-miterlimit="8" stroke-width="1.612" d="M593.426 700.897 366 717.248l781.582 758.65 227.422-16.351z"/><path fill="#19222B" fill-rule="evenodd" stroke="#000" stroke-miterlimit="8" stroke-width="1.612" d="m1148.914 1476.051-783.91-757.154 1.627 44.502 782.373 772.498z"/><path fill="#283644" fill-rule="evenodd" stroke="#000" stroke-miterlimit="8" stroke-width="1.612" d="M1117.99 1490.897 937.005 1617.45l31.822 47.447 179.178-128.55z"/><path fill="#2E445A" fill-rule="evenodd" stroke="#000" stroke-miterlimit="8" stroke-width="1.612" d="m345.944 737.897-193.94 124.979 785.693 755.022 180.307-125.793L613.47 999.24z"/><path fill="#0D1216" fill-rule="evenodd" stroke="#000" stroke-miterlimit="8" stroke-width="1.612" d="m937.275 1617.228-785.271-752.33 6.142 24.32 806.858 771.679z"/><path fill="#3E546A" fill-rule="evenodd" stroke="#000" stroke-miterlimit="8" stroke-width="1.612" d="M790.091 1875.999 3.99 1115.799l35.953-1.8 809.047 761.819z"/><path fill="#283644" fill-rule="evenodd" stroke="#000" stroke-miterlimit="8" stroke-width="1.612" d="m909.193 1637.897-117.189 207.827 58.099 29.173 118.901-210.446z"/><path fill="#1F3448" fill-rule="evenodd" stroke="#000" stroke-miterlimit="8" stroke-width="1.612" d="M129.208 890.897 12.004 1086.002l779.525 759.895 117.475-208.124z"/><path fill="#304966" fill-rule="evenodd" stroke="#000" stroke-miterlimit="8" stroke-width="1.612" d="M908.748 1637.775 131.004 890.891l27.729-.994 808.271 772.001z"/><path fill="#283644" fill-rule="evenodd" stroke="#000" stroke-miterlimit="8" stroke-width="1.612" d="M1117.99 1490.897 937.005 1617.45l31.822 47.447 179.178-128.55z"/><path fill="#2E445A" fill-rule="evenodd" stroke="#000" stroke-miterlimit="8" stroke-width="1.612" d="m345.944 737.897-193.94 124.979 785.693 755.022 180.307-125.793L613.47 999.24z"/><path fill="#0D1216" fill-rule="evenodd" stroke="#000" stroke-miterlimit="8" stroke-width="1.612" d="m937.275 1617.228-785.271-752.33 6.142 24.32 806.858 771.679z"/><path fill="#2E445A" fill-rule="evenodd" stroke="#000" stroke-miterlimit="8" stroke-width="1.612" d="m799.285 2110.917-784.298-743.8 33.629-27.2 803.371 744.795z"/><path fill="#283644" fill-rule="evenodd" stroke="#000" stroke-miterlimit="8" stroke-width="1.612" d="m797.987 2111.028 98.593 185.889 46.407-39.13-90.105-173.87z"/><path fill="#0D1216" fill-rule="evenodd" stroke="#000" stroke-miterlimit="8" stroke-width="1.612" d="m17.987 1368.917 80.942 162.826 795.058 762.174-95.035-182.795z"/><path fill="#19222B" fill-rule="evenodd" stroke="#000" stroke-miterlimit="8" stroke-width="1.612" d="m2.261 1116-.271 222.676 788 746.323-.27-209.892-495.684-477.881-206.888-199.457z"/><path fill="#283644" fill-rule="evenodd" stroke="#000" stroke-miterlimit="8" stroke-width="1.612" d="m789.99 1875 .363 210.999 62.637-1.353-2.178-209.647zM1092.9 2430.999l-180.91-125.826 31.808-47.174L1122.99 2385.9z"/><path fill="#2E445A" fill-rule="evenodd" stroke="#000" stroke-miterlimit="8" stroke-width="1.612" d="m911.78 2304.999-10.79-11.501 40.73-35.499.27.362z"/><path fill-rule="evenodd" d="m1987.73 1284.03-70.05 1.7-23.08-9.56c-2.49-.84-5.38.58-5.78 2.83l-2.14 15.33c-18.16-8.2-44.09-11.36-71.99-7.64-38.93 5.55-69.79 33.77-68.05 65.29.43 9.59 3.8 18.08 8.91 25.33-23.11-7.37-40.1-28.45-46.89-39.89-6.8-11.45 8.71-29 6.14-28.78-2.33-14.37-21.46 1.35-18.56 24.61 6.02 40.79 54.54 67 105.49 58.5l39.92-6.65c6.46-1.08 6.28-8.8 9.88-11.01 3.61-2.21 9.87-2.94 11.74-2.27 1.87.68.33 4.32-.51 6.33 10.19.17 22.17-.58 36.24-2.93l34.22-5.7c6.46-1.08 10.74-5.85 9.88-11.01s-6.46-8.28-12.92-7.2l-11.4 1.9 79.36-51.27c3.17-2.09 4.62-5.14 4.54-7.93-.96-5.77-7.52-9.98-14.95-9.98"/><path fill="#C55A11" fill-rule="evenodd" stroke="#0D0D0D" stroke-miterlimit="8" stroke-width="6.875" d="m1525.275 1123.65 54.364 44.21 24.108 6.565c2.475.86 3.893 3.75 2.837 5.778l-7.69 13.426c19.387 4.635 41.827 17.998 61.623 38.013 27.392 28.216 34.526 69.415 13.865 93.28-6.21 7.327-14.063 11.975-22.55 14.582 22.791 8.31 49.128 2.041 61.503-2.855s10.855-28.266 12.751-26.52c10.638-9.94 16.153 14.196-.38 30.823-29.715 28.573-84.134 19.613-119.23-18.278l-27.5-29.691c-4.452-4.807.41-10.799-1.087-14.754s-6-8.364-7.893-8.974-2.898 3.208-3.466 5.311c-8.163-6.098-17.185-14.028-26.875-24.49l-23.572-25.45c-4.453-4.807-4.924-11.2-1.088-14.753s10.175-2.594 14.627 2.213l7.858 8.483-31.399-89.123c-1.228-3.59-.507-6.885 1.263-9.049 4.287-3.971 12.052-3.283 17.93 1.253Z"/><path fill="none" stroke="#FFC000" stroke-miterlimit="8" stroke-width="20.625" d="M1753.5.5v1182.93"/><path fill-rule="evenodd" d="M1658.02 1134.3c6.26-14.08 33.04-39.42 61.53-39.3 24.87.1 71.48 6.95 95.72 25.22 24.24 18.28 38.9 39.4 36.47 61.05-1.94 17.2-11.91 30.57-42.06 38.1-29.11 6.45-59.04 6.16-88.05-.87-22.72-4.82-37.77-9.78-49.32-19.97-15.33-13.54-23.82-42.84-14.29-64.23"/><path fill="none" stroke="#FFC000" stroke-miterlimit="8" stroke-width="20.625" d="M1196.5.5V622.06"/><path fill="#939393" fill-rule="evenodd" stroke="#0D0D0D" stroke-miterlimit="8" stroke-width="10.313" d="M1100.03 604.506c5.36-13.558 30.45-39.023 58.88-40.846 24.81-1.596 71.74 1.623 97.08 17.025 25.34 15.4 41.3 34.108 40.25 54.477-.84 16.176-9.94 29.333-39.53 38.406a207.3 207.3 0 0 1-87.87 5.17c-22.97-2.948-38.3-6.553-50.46-15.282-16.16-11.591-26.49-38.343-18.35-58.95Z"/><path fill="none" stroke="#FFC000" stroke-miterlimit="8" stroke-width="20.625" d="M2700.5.5v1035.93"/><path fill="#939393" fill-rule="evenodd" stroke="#0D0D0D" stroke-miterlimit="8" stroke-width="10.313" d="M2603.67 1080.55c5.36-13.56 30.45-39.03 58.88-40.85 24.81-1.6 71.74 1.62 97.08 17.02s41.3 34.11 40.25 54.48c-.84 16.18-9.94 29.33-39.53 38.41a207.45 207.45 0 0 1-87.87 5.17c-22.97-2.95-38.3-6.56-50.47-15.28-16.15-11.6-26.48-38.35-18.34-58.95Z"/><path fill="#C55A11" d="m1195.57 741.415 321.41 320.555-12.14 12.17-321.41-320.555Zm327.46 302.315 18.31 54.67-54.72-18.16ZM1464.04 1137.57l-316.83-309.881 12.02-12.288 316.83 309.879Zm-322.7-291.585L1122.5 791.5l54.89 17.623Z"/><path d="m2714.656 1215.931-646.966 49.406 1.309 17.138 646.965-49.406Zm-639.706 31.614-49.45 29.633 53.376 21.78ZM2061.148 1343.46l662.772-50.153-1.297-17.139-662.771 50.153Zm655.5-32.366 49.47-29.599-53.361-21.817Z"/></svg>