<svg width="4337" height="2449" xmlns="http://www.w3.org/2000/svg" xmlns:xlink="http://www.w3.org/1999/xlink" xml:space="preserve" overflow="hidden"><defs><linearGradient x1="385.401" y1="-256.01" x2="1722.62" y2="1757.01" gradientUnits="userSpaceOnUse" spreadMethod="reflect" id="fill0"><stop offset="0" stop-color="#909090"/><stop offset="0.5" stop-color="#DDDDDD"/><stop offset="1"/></linearGradient><linearGradient x1="387.333" y1="-257.567" x2="1736.69" y2="1771.57" gradientUnits="userSpaceOnUse" spreadMethod="reflect" id="fill1"><stop offset="0" stop-color="#909090"/><stop offset="0.5" stop-color="#DDDDDD"/><stop offset="1"/></linearGradient><linearGradient x1="405.384" y1="-265.574" x2="1740.64" y2="1772.57" gradientUnits="userSpaceOnUse" spreadMethod="reflect" id="fill2"><stop offset="0" stop-color="#909090"/><stop offset="0.5" stop-color="#DDDDDD"/><stop offset="1"/></linearGradient><linearGradient x1="48.2917" y1="-43.8128" x2="1451.73" y2="1502.81" gradientUnits="userSpaceOnUse" spreadMethod="reflect" id="fill3"><stop offset="0" stop-color="#909090"/><stop offset="0.5" stop-color="#DDDDDD"/><stop offset="1"/></linearGradient></defs><g transform="translate(-29 0)"><path d="M-0.135575-0.0718064 227.503 16.4149 227.865 76.9282 0.225824 60.5316-0.135575-0.0718064Z" stroke="#000000" stroke-width="1.61175" stroke-miterlimit="8" fill="#283644" fill-rule="evenodd" transform="matrix(-1 0 0 1 4338 2156)"/><path d="M782.217-0.0716072 1009.86 16.2795 227.512 774.929-0.135581 758.578 782.217-0.0716072Z" stroke="#000000" stroke-width="1.61175" stroke-miterlimit="8" fill="#3E546A" fill-rule="evenodd" transform="matrix(-1 0 0 1 4337 1396)"/><path d="M-0.125458-0.070995 227.513 16.4157 227.875 76.929 0.235941 60.5324-0.125458-0.070995Z" stroke="#000000" stroke-width="1.61175" stroke-miterlimit="8" fill="#283644" fill-rule="evenodd" transform="matrix(-1 0 0 1 4110 2172)"/><path d="M782.227-0.070798 1009.87 16.2799 227.522 774.929-0.125463 758.578 782.227-0.070798Z" stroke="#000000" stroke-width="1.61175" stroke-miterlimit="8" fill="#3E546A" fill-rule="evenodd" transform="matrix(-1 0 0 1 4110 1413)"/><path d="M-0.11534-0.0701837 227.524 16.4165 227.885 76.9298 0.246464 60.5328-0.11534-0.0701837Z" stroke="#000000" stroke-width="1.61175" stroke-miterlimit="8" fill="#283644" fill-rule="evenodd" transform="matrix(-1 0 0 1 3883 2189)"/><path d="M782.237-0.0699889 1009.89 16.2807 227.533 774.931-0.115345 758.579 782.237-0.0699889Z" stroke="#000000" stroke-width="1.61175" stroke-miterlimit="8" fill="#3E546A" fill-rule="evenodd" transform="matrix(-1 0 0 1 3882 1429)"/><path d="M-0.105223-0.069778 227.534 16.4173 227.895 76.9306 0.256582 60.5336-0.105223-0.069778Z" stroke="#000000" stroke-width="1.61175" stroke-miterlimit="8" fill="#283644" fill-rule="evenodd" transform="matrix(-1 0 0 1 3655 2205)"/><path d="M782.248-0.0695843 1009.9 16.2815 227.543 774.931-0.105227 758.58 782.248-0.0695843Z" stroke="#000000" stroke-width="1.61175" stroke-miterlimit="8" fill="#3E546A" fill-rule="evenodd" transform="matrix(-1 0 0 1 3654 1446)"/><path d="M-0.0947003-0.0689666 227.544 16.4181 227.905 76.931 0.266699 60.5344-0.0947003-0.0689666Z" stroke="#000000" stroke-width="1.61175" stroke-miterlimit="8" fill="#283644" fill-rule="evenodd" transform="matrix(-1 0 0 1 3427 2222)"/><path d="M782.258-0.0687752 1009.91 16.2823 227.553 774.932-0.0947041 758.581 782.258-0.0687752Z" stroke="#000000" stroke-width="1.61175" stroke-miterlimit="8" fill="#3E546A" fill-rule="evenodd" transform="matrix(-1 0 0 1 3427 1462)"/><path d="M-0.0845828-0.0681552 227.554 16.4185 227.916 76.9318 0.276816 60.5352-0.0845828-0.0681552Z" stroke="#000000" stroke-width="1.61175" stroke-miterlimit="8" fill="#283644" fill-rule="evenodd" transform="matrix(-1 0 0 1 3200 2238)"/><path d="M782.268-0.0680538 1009.92 16.3041 227.563 775.932-0.0845861 759.56 782.268-0.0680538Z" stroke="#000000" stroke-width="1.61175" stroke-miterlimit="8" fill="#3E546A" fill-rule="evenodd" transform="matrix(-1 0 0 1 3199 1478)"/><path d="M-0.0744652-0.0673439 227.564 16.4193 227.926 76.9327 0.286934 60.536-0.0744652-0.0673439Z" stroke="#000000" stroke-width="1.61175" stroke-miterlimit="8" fill="#283644" fill-rule="evenodd" transform="matrix(-1 0 0 1 2972 2255)"/><path d="M782.278-0.067157 1009.93 16.2835 227.573 774.933-0.0744682 758.582 782.278-0.067157Z" stroke="#000000" stroke-width="1.61175" stroke-miterlimit="8" fill="#3E546A" fill-rule="evenodd" transform="matrix(-1 0 0 1 2972 1495)"/><path d="M-0.0643476-0.0665325 227.575 16.4201 227.936 76.9335 0.297456 60.5369-0.0643476-0.0665325Z" stroke="#000000" stroke-width="1.61175" stroke-miterlimit="8" fill="#283644" fill-rule="evenodd" transform="matrix(-1 0 0 1 2745 2271)"/><path d="M782.289-0.0664335 1009.94 16.3054 227.584 775.934-0.0643502 759.562 782.289-0.0664335Z" stroke="#000000" stroke-width="1.61175" stroke-miterlimit="8" fill="#3E546A" fill-rule="evenodd" transform="matrix(-1 0 0 1 2744 1511)"/><path d="M-0.0542301-0.0661268 227.585 16.4209 227.946 76.9343 0.307574 60.5373-0.0542301-0.0661268Z" stroke="#000000" stroke-width="1.61175" stroke-miterlimit="8" fill="#283644" fill-rule="evenodd" transform="matrix(-1 0 0 1 2517 2288)"/><path d="M781.524-0.0659433 1008.95 16.2852 227.368 774.935-0.0541786 758.584 781.524-0.0659433Z" stroke="#000000" stroke-width="1.61175" stroke-miterlimit="8" fill="#3E546A" fill-rule="evenodd" transform="matrix(-1 0 0 1 2516 1528)"/><path d="M-0.0435161-0.0653154 226.597 16.4218 226.956 76.9351 0.316298 60.5381-0.0435161-0.0653154Z" stroke="#000000" stroke-width="1.61175" stroke-miterlimit="8" fill="#283644" fill-rule="evenodd" transform="matrix(-1 0 0 1 2289 2304)"/><path d="M782.309-0.0652182 1009.96 16.307 227.604 775.935-0.0437096 759.563 782.309-0.0652182Z" stroke="#000000" stroke-width="1.61175" stroke-miterlimit="8" fill="#3E546A" fill-rule="evenodd" transform="matrix(-1 0 0 1 2289 1544)"/><path d="M-0.0335903-0.0645041 227.605 16.4226 227.967 76.9355 0.327809 60.5389-0.0335903-0.0645041Z" stroke="#000000" stroke-width="1.61175" stroke-miterlimit="8" fill="#283644" fill-rule="evenodd" transform="matrix(-1 0 0 1 2062 2321)"/><path d="M781.544-0.0643251 1008.97 16.2868 227.389 774.936-0.0335584 758.586 781.544-0.0643251Z" stroke="#000000" stroke-width="1.61175" stroke-miterlimit="8" fill="#3E546A" fill-rule="evenodd" transform="matrix(-1 0 0 1 2061 1561)"/><path d="M-0.0234727-0.0636927 227.615 16.423 227.977 76.9363 0.337926 60.5397-0.0234727-0.0636927Z" stroke="#000000" stroke-width="1.61175" stroke-miterlimit="8" fill="#283644" fill-rule="evenodd" transform="matrix(-1 0 0 1 1834 2337)"/><path d="M782.329-0.0635979 1009.98 16.3086 227.624 775.937-0.0234737 759.564 782.329-0.0635979Z" stroke="#000000" stroke-width="1.61175" stroke-miterlimit="8" fill="#3E546A" fill-rule="evenodd" transform="matrix(-1 0 0 1 1834 1577)"/><path d="M635.573 1500.96 0.00971272 921.938 985.827-0.000809324 2108.01 79.7325 635.564 1501Z" stroke="#000000" stroke-width="0.290157" stroke-miterlimit="8" fill="url(#fill0)" fill-rule="evenodd" transform="matrix(-1 0 0 1 4221.5 544.5)"/><path d="M638.728 1513.95 0.00971274 934.834 1001.82-0.000809457 2124.01 79.7546 638.728 1514Z" stroke="#000000" stroke-width="0.290157" stroke-miterlimit="8" fill="url(#fill1)" fill-rule="evenodd" transform="matrix(-1 0 0 1 3351.5 599.5)"/><path d="M670.618 1506.95 0.00971129 966.394 1023.99-0.000809096 2146.01 79.719 670.618 1507Z" stroke="#000000" stroke-width="0.290157" stroke-miterlimit="8" fill="url(#fill2)" fill-rule="evenodd" transform="matrix(-1 0 0 1 2497.5 654.5)"/><path d="M-0.0133552-0.0628813 227.626 16.4238 227.987 76.9371 0.348044 60.5405-0.0133552-0.0628813Z" stroke="#000000" stroke-width="1.61175" stroke-miterlimit="8" fill="#283644" fill-rule="evenodd" transform="matrix(-1 0 0 1 1607 2354)"/><path d="M782.339-0.0627068 1009.99 16.288 227.635 774.938-0.0133557 758.587 782.339-0.0627068Z" stroke="#000000" stroke-width="1.61175" stroke-miterlimit="8" fill="#3E546A" fill-rule="evenodd" transform="matrix(-1 0 0 1 1606 1594)"/><path d="M831 471.527C830.35 701.04 643.797 874.328 414.319 858.574 184.846 842.816-0.65332 643.987 0.00161813 414.474 0.651702 184.961 187.204 11.673 416.677 27.4263 645.233 43.1193 830.35 240.487 831 469.168" stroke="#000000" stroke-width="0.168537" stroke-miterlimit="8" fill="#E6E6E6" fill-rule="evenodd" transform="matrix(-1 0 0 1 3446.5 1379.5)"/><path d="M667.001 377.86C666.479 561.781 516.742 700.646 332.552 688.022 148.367 675.394-0.524319 516.061 0.00121464 332.14 0.523105 148.219 150.259 9.35396 334.445 21.9781 517.895 34.5537 666.479 192.715 667.001 375.969" stroke="#000000" stroke-width="0.134974" stroke-miterlimit="8" fill="#999999" fill-rule="evenodd" transform="matrix(-1 0 0 1 3364.5 1463.5)"/><path d="M487 276.21C486.619 410.654 377.292 512.163 242.808 502.935 108.328 493.704-0.382748 377.234 0.00121379 242.79 0.381938 108.346 109.709 6.83788 244.19 16.0655 378.133 25.2583 486.619 140.872 487 274.828" stroke="#000000" stroke-width="0.0988845" stroke-miterlimit="8" fill="#1A1A1A" fill-rule="evenodd" transform="matrix(-1 0 0 1 3274.5 1559.5)"/><path d="M831 470.994C830.35 700.249 643.797 873.341 414.319 857.605 184.846 841.864-0.65332 643.26 0.00161813 414.006 0.651702 184.752 187.204 11.6598 416.677 27.3953 645.233 43.0707 830.35 240.215 831 468.638" stroke="#000000" stroke-width="0.168537" stroke-miterlimit="8" fill="#E6E6E6" fill-rule="evenodd" transform="matrix(-1 0 0 1 2574.5 1442.5)"/><path d="M667 377.86C666.478 561.781 516.742 700.646 332.552 688.022 148.367 675.394-0.524319 516.061 0.00121464 332.14 0.523104 148.219 150.259 9.35395 334.445 21.9781 517.895 34.5537 666.478 192.715 667 375.969" stroke="#000000" stroke-width="0.134974" stroke-miterlimit="8" fill="#999999" fill-rule="evenodd" transform="matrix(-1 0 0 1 2492.5 1526.5)"/><path d="M487 276.21C486.619 410.654 377.292 512.163 242.808 502.935 108.328 493.704-0.382748 377.234 0.00121379 242.79 0.381938 108.346 109.709 6.83788 244.19 16.0655 378.133 25.2583 486.619 140.872 487 274.828" stroke="#000000" stroke-width="0.0988845" stroke-miterlimit="8" fill="#1A1A1A" fill-rule="evenodd" transform="matrix(-1 0 0 1 2402.5 1622.5)"/><path d="M-0.00323762-0.0620699 227.636 16.4246 227.997 76.9379 0.358567 60.5409-0.00323762-0.0620699Z" stroke="#000000" stroke-width="1.61175" stroke-miterlimit="8" fill="#283644" fill-rule="evenodd" transform="matrix(-1 0 0 1 1379 2370)"/><path d="M782.35-0.0618977 1010 16.2888 227.645 774.938-0.00323775 758.587 782.35-0.0618977Z" stroke="#000000" stroke-width="1.61175" stroke-miterlimit="8" fill="#3E546A" fill-rule="evenodd" transform="matrix(-1 0 0 1 1379 1610)"/><path d="M0.0874416 758.019 783.997-0.061925 782.37 44.4937-0.00323858 817.938 0.0874416 758.019Z" stroke="#000000" stroke-width="1.61175" stroke-miterlimit="8" fill="#19222B" fill-rule="evenodd" transform="matrix(-1 0 0 1 1152 1628)"/><path d="M667.108 1459 0.00970623 931.262 972.436-0.000809102 1500.01 629.092 667.108 1459Z" stroke="#000000" stroke-width="0.290157" stroke-miterlimit="8" fill="url(#fill3)" fill-rule="evenodd" transform="matrix(-1 0 0 1 1612.5 734.5)"/><path d="M831 471.527C830.35 701.039 643.797 874.328 414.319 858.574 184.846 842.815-0.65332 643.986 0.00161813 414.474 0.651702 184.961 187.204 11.673 416.677 27.4263 645.233 43.1193 830.35 240.487 831 469.168" stroke="#000000" stroke-width="0.168537" stroke-miterlimit="8" fill="#E6E6E6" fill-rule="evenodd" transform="matrix(-1 0 0 1 1708.5 1504.5)"/><path d="M666.001 378.392C665.479 562.572 515.968 701.633 332.054 688.991 148.144 676.345-0.523533 516.788 0.00121282 332.608 0.52232 148.428 150.034 9.36713 333.944 22.009 517.119 34.6023 665.479 192.986 666.001 376.499" stroke="#000000" stroke-width="0.134974" stroke-miterlimit="8" fill="#999999" fill-rule="evenodd" transform="matrix(-1 0 0 1 1626.5 1588.5)"/><path d="M487 276.21C486.619 410.654 377.292 512.163 242.808 502.935 108.328 493.704-0.382748 377.234 0.00121379 242.79 0.381938 108.346 109.709 6.83788 244.19 16.0655 378.133 25.2583 486.619 140.872 487 274.828" stroke="#000000" stroke-width="0.0988845" stroke-miterlimit="8" fill="#1A1A1A" fill-rule="evenodd" transform="matrix(-1 0 0 1 1536.5 1684.5)"/><path d="M831.001 471.527C830.351 701.039 643.798 874.328 414.319 858.574 184.846 842.815-0.653321 643.986 0.00161813 414.474 0.651703 184.961 187.205 11.673 416.678 27.4263 645.233 43.1193 830.351 240.487 831.001 469.168" stroke="#000000" stroke-width="0.168537" stroke-miterlimit="8" fill="#E6E6E6" fill-rule="evenodd" transform="matrix(-1 0 0 1 4319.5 1316.5)"/><path d="M667 378.392C666.478 562.573 516.742 701.633 332.552 688.991 148.367 676.345-0.524319 516.788 0.00121464 332.608 0.523104 148.428 150.259 9.36713 334.445 22.009 517.895 34.6023 666.478 192.986 667 376.499" stroke="#000000" stroke-width="0.134974" stroke-miterlimit="8" fill="#999999" fill-rule="evenodd" transform="matrix(-1 0 0 1 4237.5 1400.5)"/><path d="M487 276.21C486.619 410.654 377.291 512.163 242.808 502.935 108.328 493.704-0.382747 377.234 0.00121379 242.79 0.381938 108.346 109.709 6.83788 244.19 16.0655 378.133 25.2583 486.619 140.872 487 274.828" stroke="#000000" stroke-width="0.0988845" stroke-miterlimit="8" fill="#1A1A1A" fill-rule="evenodd" transform="matrix(-1 0 0 1 4147.5 1496.5)"/><path d="M-0.0145693-0.102507 227.625 16.1704 227.986 75.8975 0.347235 59.7138-0.0145693-0.102507Z" stroke="#000000" stroke-width="1.61175" stroke-miterlimit="8" fill="#283644" fill-rule="evenodd" transform="matrix(-1 0 0 1 1633 1445)"/><path d="M782.338-0.103567 1009.99 16.2475 227.633 774.897-0.0145699 758.546 782.338-0.103567Z" stroke="#000000" stroke-width="1.61175" stroke-miterlimit="8" fill="#3E546A" fill-rule="evenodd" transform="matrix(-1 0 0 1 1632 685)"/><path d="M-0.0246868-0.104667 227.614 16.3824 227.976 76.8957 0.336712 60.4987-0.0246868-0.104667Z" stroke="#000000" stroke-width="1.61175" stroke-miterlimit="8" fill="#283644" fill-rule="evenodd" transform="matrix(-1 0 0 1 1860 1428)"/><path d="M782.328-0.104377 1009.98 16.2467 227.623 774.896-0.0246878 758.545 782.328-0.104377Z" stroke="#000000" stroke-width="1.61175" stroke-miterlimit="8" fill="#3E546A" fill-rule="evenodd" transform="matrix(-1 0 0 1 1860 668)"/><path d="M-0.0348044-0.105073 227.604 16.3816 227.965 76.8949 0.326595 60.4979-0.0348044-0.105073Z" stroke="#000000" stroke-width="1.61175" stroke-miterlimit="8" fill="#283644" fill-rule="evenodd" transform="matrix(-1 0 0 1 2088 1412)"/><path d="M782.318-0.104781 1009.97 16.2459 227.613 774.895-0.0348058 758.544 782.318-0.104781Z" stroke="#000000" stroke-width="1.61175" stroke-miterlimit="8" fill="#3E546A" fill-rule="evenodd" transform="matrix(-1 0 0 1 2087 652)"/><path d="M-0.044922-0.104509 227.594 16.168 227.956 75.8955 0.316478 59.7118-0.044922-0.104509Z" stroke="#000000" stroke-width="1.61175" stroke-miterlimit="8" fill="#283644" fill-rule="evenodd" transform="matrix(-1 0 0 1 2315 1396)"/><path d="M782.308-0.10559 1009.96 16.2451 227.603 774.895-0.0449237 758.544 782.308-0.10559Z" stroke="#000000" stroke-width="1.61175" stroke-miterlimit="8" fill="#3E546A" fill-rule="evenodd" transform="matrix(-1 0 0 1 2315 636)"/><path d="M-0.0554442-0.106695 227.583 16.38 227.945 76.8933 0.30636 60.4967-0.0554442-0.106695Z" stroke="#000000" stroke-width="1.61175" stroke-miterlimit="8" fill="#283644" fill-rule="evenodd" transform="matrix(-1 0 0 1 2543 1379)"/><path d="M781.523-0.106399 1008.94 16.2447 227.367 774.894-0.0553915 758.543 781.523-0.106399Z" stroke="#000000" stroke-width="1.61175" stroke-miterlimit="8" fill="#3E546A" fill-rule="evenodd" transform="matrix(-1 0 0 1 2542 619)"/><path d="M-0.0655618-0.107507 227.573 16.3796 227.935 76.8925 0.296242 60.4959-0.0655618-0.107507Z" stroke="#000000" stroke-width="1.61175" stroke-miterlimit="8" fill="#283644" fill-rule="evenodd" transform="matrix(-1 0 0 1 2771 1363)"/><path d="M782.287-0.107208 1009.93 16.2439 227.582 774.893-0.0655644 758.543 782.287-0.107208Z" stroke="#000000" stroke-width="1.61175" stroke-miterlimit="8" fill="#3E546A" fill-rule="evenodd" transform="matrix(-1 0 0 1 2770 603)"/><path d="M-0.0756793-0.108318 227.563 16.3788 227.925 76.8921 0.28572 60.4951-0.0756793-0.108318Z" stroke="#000000" stroke-width="1.61175" stroke-miterlimit="8" fill="#283644" fill-rule="evenodd" transform="matrix(-1 0 0 1 2998 1346)"/><path d="M782.277-0.108157 1009.92 16.264 227.572 775.892-0.0756823 759.52 782.277-0.108157Z" stroke="#000000" stroke-width="1.61175" stroke-miterlimit="8" fill="#3E546A" fill-rule="evenodd" transform="matrix(-1 0 0 1 2998 586)"/><path d="M-0.085797-0.10913 227.553 16.3779 227.915 76.8913 0.275603 60.4943-0.085797-0.10913Z" stroke="#000000" stroke-width="1.61175" stroke-miterlimit="8" fill="#283644" fill-rule="evenodd" transform="matrix(-1 0 0 1 3226 1330)"/><path d="M782.267-0.108827 1009.91 16.2423 227.562 774.892-0.0858003 758.541 782.267-0.108827Z" stroke="#000000" stroke-width="1.61175" stroke-miterlimit="8" fill="#3E546A" fill-rule="evenodd" transform="matrix(-1 0 0 1 3225 570)"/><path d="M-0.0959144-0.108113 227.543 16.1644 227.904 75.8919 0.265485 59.7082-0.0959144-0.108113Z" stroke="#000000" stroke-width="1.61175" stroke-miterlimit="8" fill="#283644" fill-rule="evenodd" transform="matrix(-1 0 0 1 3453 1314)"/><path d="M782.256-0.109231 1009.9 16.2415 227.552 774.891-0.0959182 758.54 782.256-0.109231Z" stroke="#000000" stroke-width="1.61175" stroke-miterlimit="8" fill="#3E546A" fill-rule="evenodd" transform="matrix(-1 0 0 1 3453 554)"/><path d="M-0.106032-0.110347 227.532 16.3763 227.894 76.8896 0.255367 60.493-0.106032-0.110347Z" stroke="#000000" stroke-width="1.61175" stroke-miterlimit="8" fill="#283644" fill-rule="evenodd" transform="matrix(-1 0 0 1 3681 1297)"/><path d="M781.472-0.110182 1008.89 16.262 227.316 775.89-0.105931 759.518 781.472-0.110182Z" stroke="#000000" stroke-width="1.61175" stroke-miterlimit="8" fill="#3E546A" fill-rule="evenodd" transform="matrix(-1 0 0 1 3680 537)"/><path d="M-0.116554-0.111158 227.523 16.3759 227.884 76.8888 0.24525 60.4922-0.116554-0.111158Z" stroke="#000000" stroke-width="1.61175" stroke-miterlimit="8" fill="#283644" fill-rule="evenodd" transform="matrix(-1 0 0 1 3909 1281)"/><path d="M782.236-0.110849 1009.88 16.2403 227.531 774.889-0.116559 758.538 782.236-0.110849Z" stroke="#000000" stroke-width="1.61175" stroke-miterlimit="8" fill="#3E546A" fill-rule="evenodd" transform="matrix(-1 0 0 1 3908 521)"/><path d="M-0.126672-0.110515 227.512 16.1624 227.874 75.8895 0.235132 59.7058-0.126672-0.110515Z" stroke="#000000" stroke-width="1.61175" stroke-miterlimit="8" fill="#283644" fill-rule="evenodd" transform="matrix(-1 0 0 1 4136 1265)"/><path d="M782.226-0.111659 1009.87 16.2395 227.521 774.889-0.126677 758.538 782.226-0.111659Z" stroke="#000000" stroke-width="1.61175" stroke-miterlimit="8" fill="#3E546A" fill-rule="evenodd" transform="matrix(-1 0 0 1 4136 505)"/><path d="M-0.136789-0.112781 227.502 16.3743 227.864 76.8876 0.22461 60.4906-0.136789-0.112781Z" stroke="#000000" stroke-width="1.61175" stroke-miterlimit="8" fill="#283644" fill-rule="evenodd" transform="matrix(-1 0 0 1 4364 1248)"/><path d="M782.216-0.112468 1009.86 16.2386 227.511 774.888-0.136795 758.537 782.216-0.112468Z" stroke="#000000" stroke-width="1.61175" stroke-miterlimit="8" fill="#3E546A" fill-rule="evenodd" transform="matrix(-1 0 0 1 4363 488)"/><path d="M-0.00445172-0.103044 227.634 16.3836 227.996 76.897 0.357352 60.5004-0.00445172-0.103044Z" stroke="#000000" stroke-width="1.61175" stroke-miterlimit="8" fill="#283644" fill-rule="evenodd" transform="matrix(-1 0 0 1 1405 1461)"/><path d="M781.574-0.102758 1009 16.2484 227.418 774.898-0.00444749 758.547 781.574-0.102758Z" stroke="#000000" stroke-width="1.61175" stroke-miterlimit="8" fill="#3E546A" fill-rule="evenodd" transform="matrix(-1 0 0 1 1404 701)"/><path d="M0.0862272 757.051 783.996-0.102678 782.369 44.3989-0.00445305 816.897 0.0862272 757.051Z" stroke="#000000" stroke-width="1.61175" stroke-miterlimit="8" fill="#19222B" fill-rule="evenodd" transform="matrix(-1 0 0 1 1178 719)"/><path d="M30.0095-0.103194 210.996 126.451 179.174 173.898-0.00445341 45.3476 30.0095-0.103194Z" stroke="#000000" stroke-width="1.61175" stroke-miterlimit="8" fill="#283644" fill-rule="evenodd" transform="matrix(-1 0 0 1 1177 1491)"/><path d="M772.056-0.102793 965.996 124.876 180.303 879.898-0.00444779 754.105 504.53 261.24 772.056-0.102793Z" stroke="#000000" stroke-width="1.61175" stroke-miterlimit="8" fill="#2E445A" fill-rule="evenodd" transform="matrix(-1 0 0 1 1147 738)"/><path d="M27.7252 752.228 812.996-0.102845 806.854 24.2185-0.00444949 795.897 27.7252 752.228Z" stroke="#000000" stroke-width="1.61175" stroke-miterlimit="8" fill="#0D1216" fill-rule="evenodd" transform="matrix(-1 0 0 1 994 865)"/><path d="M58.9088 761.999 845.01 1.79927 809.057-0.000810118 0.00970931 761.818 58.9088 761.999Z" stroke="#000000" stroke-width="1.61175" stroke-miterlimit="8" fill="#3E546A" fill-rule="evenodd" transform="matrix(-1 0 0 1 878 1114)"/><path d="M59.8068-0.102739 176.996 207.724 118.897 236.897-0.00443733 26.4513 59.8068-0.102739Z" stroke="#000000" stroke-width="1.61175" stroke-miterlimit="8" fill="#283644" fill-rule="evenodd" transform="matrix(-1 0 0 1 998 1638)"/><path d="M779.792-0.102841 896.996 195.002 117.471 954.897-0.00444815 746.773 779.792-0.102841Z" stroke="#000000" stroke-width="1.61175" stroke-miterlimit="8" fill="#1F3448" fill-rule="evenodd" transform="matrix(-1 0 0 1 938 891)"/><path d="M58.2521 747.775 835.996 0.891328 808.267-0.102768-0.00444932 771.898 58.2521 747.775Z" stroke="#000000" stroke-width="1.61175" stroke-miterlimit="8" fill="#304966" fill-rule="evenodd" transform="matrix(-1 0 0 1 996 890)"/><path d="M30.0095-0.103194 210.996 126.451 179.174 173.898-0.00445341 45.3476 30.0095-0.103194Z" stroke="#000000" stroke-width="1.61175" stroke-miterlimit="8" fill="#283644" fill-rule="evenodd" transform="matrix(-1 0 0 1 1177 1491)"/><path d="M772.056-0.102793 965.996 124.876 180.303 879.898-0.00444779 754.105 504.53 261.24 772.056-0.102793Z" stroke="#000000" stroke-width="1.61175" stroke-miterlimit="8" fill="#2E445A" fill-rule="evenodd" transform="matrix(-1 0 0 1 1147 738)"/><path d="M27.7252 752.228 812.996-0.102845 806.854 24.2185-0.00444949 795.897 27.7252 752.228Z" stroke="#000000" stroke-width="1.61175" stroke-miterlimit="8" fill="#0D1216" fill-rule="evenodd" transform="matrix(-1 0 0 1 994 865)"/><path d="M52.7153 770.917 837.013 27.1174 803.384-0.0825565 0.0125499 744.712 52.7153 770.917Z" stroke="#000000" stroke-width="1.61175" stroke-miterlimit="8" fill="#2E445A" fill-rule="evenodd" transform="matrix(-1 0 0 1 881 1340)"/><path d="M145.013 27.0282 46.42 212.917 0.0125344 173.787 90.1185-0.0825596 145.013 27.0282Z" stroke="#000000" stroke-width="1.61175" stroke-miterlimit="8" fill="#283644" fill-rule="evenodd" transform="matrix(-1 0 0 1 972 2084)"/><path d="M876.013-0.08255 795.071 162.743 0.0125414 924.917 95.0476 742.122 876.013-0.08255Z" stroke="#000000" stroke-width="1.61175" stroke-miterlimit="8" fill="#0D1216" fill-rule="evenodd" transform="matrix(-1 0 0 1 923 1369)"/><path d="M787.739-0.000809272 788.01 222.676 0.009706 968.999 0.280665 759.107 495.964 281.226 702.852 81.7692 787.739-0.000809272Z" stroke="#000000" stroke-width="1.61175" stroke-miterlimit="8" fill="#19222B" fill-rule="evenodd" transform="matrix(-1 0 0 1 819 1116)"/><path d="M63.0101-0.000807979 62.6466 210.999 0.0097569 209.646 2.18839-0.000807979 63.0101-0.000807979Z" stroke="#000000" stroke-width="1.61175" stroke-miterlimit="8" fill="#283644" fill-rule="evenodd" transform="matrix(-1 0 0 1 882 1875)"/><path d="M30.1007 172.999 211.01 47.1728 179.202-0.000807878 0.00971237 127.9 30.1007 172.999Z" stroke="#000000" stroke-width="1.61175" stroke-miterlimit="8" fill="#283644" fill-rule="evenodd" transform="matrix(-1 0 0 1 1152 2258)"/><path d="M30.2206 46.9989 41.0103 35.4979 0.279447-0.000811102 0.00966389 0.361346 30.2206 46.9989Z" stroke="#000000" stroke-width="1.61175" stroke-miterlimit="8" fill="#2E445A" fill-rule="evenodd" transform="matrix(-1 0 0 1 971 2258)"/><path d="M2016.73 1284.03 1946.68 1285.73 1923.6 1276.17C1921.11 1275.33 1918.22 1276.75 1917.82 1279L1915.68 1294.33C1897.52 1286.13 1871.59 1282.97 1843.69 1286.69 1804.76 1292.24 1773.9 1320.46 1775.64 1351.98 1776.07 1361.57 1779.44 1370.06 1784.55 1377.31 1761.44 1369.94 1744.45 1348.86 1737.66 1337.42 1730.86 1325.97 1746.37 1308.42 1743.8 1308.64 1741.47 1294.27 1722.34 1309.99 1725.24 1333.25 1731.26 1374.04 1779.78 1400.25 1830.73 1391.75L1870.65 1385.1C1877.11 1384.02 1876.93 1376.3 1880.53 1374.09 1884.14 1371.88 1890.4 1371.15 1892.27 1371.82 1894.14 1372.5 1892.6 1376.14 1891.76 1378.15 1901.95 1378.32 1913.93 1377.57 1928 1375.22L1962.22 1369.52C1968.68 1368.44 1972.96 1363.67 1972.1 1358.51 1971.24 1353.35 1965.64 1350.23 1959.18 1351.31L1947.78 1353.21 2027.14 1301.94C2030.31 1299.85 2031.76 1296.8 2031.68 1294.01 2030.72 1288.24 2024.16 1284.03 2016.73 1284.03Z" fill-rule="evenodd"/><path d="M295.632 26.8735 226.255 17.0306 205.057 3.80443C202.744 2.57407 199.661 3.49668 198.89 5.64997L194.265 20.4143C177.691 9.34105 152.639 1.95889 124.503 1.03596 85.1891 0.113348 50.1155 22.8747 46.6465 54.2492 45.4904 63.7844 47.4173 72.7046 51.2716 80.702 29.6877 69.6287 16.3906 46.0468 11.5729 33.6405 6.75517 21.2342 24.9343 6.46989 22.3648 6.26483 22.4292-8.29444 0.97358 4.06051 0.0101162 27.4887-0.760736 68.7058 42.7922 102.541 94.4393 102.541L134.909 102.541C141.461 102.541 142.553 94.9021 146.472 93.313 150.391 91.7239 156.686 92.0316 158.42 93.0056 160.154 93.9795 158.035 97.3118 156.878 99.1574 166.899 101.003 178.848 102.233 193.108 102.233L227.797 102.233C234.349 102.233 239.36 98.2345 239.36 93.0056 239.36 87.7764 234.349 83.7779 227.797 83.7779L216.234 83.7779 302.955 46.2519C306.424 44.7138 308.351 41.9456 308.736 39.1771 308.736 33.3331 302.955 28.1039 295.632 26.8735Z" stroke="#0D0D0D" stroke-width="6.875" stroke-miterlimit="8" fill="#C55A11" fill-rule="evenodd" transform="matrix(-0.679526 -0.733652 -0.733652 0.679526 1774.88 1322.28)"/><path d="M1782.5 0.499836 1782.5 1183.43" stroke="#FFC000" stroke-width="20.625" stroke-miterlimit="8" fill="none" fill-rule="evenodd"/><path d="M1687.02 1134.3C1693.28 1120.22 1720.06 1094.88 1748.55 1095 1773.42 1095.1 1820.03 1101.95 1844.27 1120.22 1868.51 1138.5 1883.17 1159.62 1880.74 1181.27 1878.8 1198.47 1868.83 1211.84 1838.68 1219.37 1809.57 1225.82 1779.64 1225.53 1750.63 1218.5 1727.91 1213.68 1712.86 1208.72 1701.31 1198.53 1685.98 1184.99 1677.49 1155.69 1687.02 1134.3Z" fill-rule="evenodd"/><path d="M1225.5 0.499836 1225.5 622.061" stroke="#FFC000" stroke-width="20.625" stroke-miterlimit="8" fill="none" fill-rule="evenodd"/><path d="M1129.03 604.506C1134.39 590.948 1159.48 565.483 1187.91 563.66 1212.72 562.064 1259.65 565.283 1284.99 580.685 1310.33 596.085 1326.29 614.793 1325.24 635.162 1324.4 651.338 1315.3 664.495 1285.71 673.568 1257.09 681.564 1227.22 683.322 1197.84 678.738 1174.87 675.79 1159.54 672.185 1147.38 663.456 1131.22 651.865 1120.89 625.113 1129.03 604.506Z" stroke="#0D0D0D" stroke-width="10.3125" stroke-miterlimit="8" fill="#939393" fill-rule="evenodd"/><path d="M2729.5 0.499836 2729.5 1036.43" stroke="#FFC000" stroke-width="20.625" stroke-miterlimit="8" fill="none" fill-rule="evenodd"/><path d="M2632.67 1080.55C2638.03 1066.99 2663.12 1041.52 2691.55 1039.7 2716.36 1038.1 2763.29 1041.32 2788.63 1056.72 2813.97 1072.12 2829.93 1090.83 2828.88 1111.2 2828.04 1127.38 2818.94 1140.53 2789.35 1149.61 2760.73 1157.6 2730.86 1159.36 2701.48 1154.78 2678.51 1151.83 2663.18 1148.22 2651.01 1139.5 2634.86 1127.9 2624.53 1101.15 2632.67 1080.55Z" stroke="#0D0D0D" stroke-width="10.3125" stroke-miterlimit="8" fill="#939393" fill-rule="evenodd"/><path d="M1224.57 741.415 1545.98 1061.97 1533.84 1074.14 1212.43 753.585ZM1552.03 1043.73 1570.34 1098.4 1515.62 1080.24Z" fill="#C55A11"/><path d="M1493.04 1137.57 1176.21 827.689 1188.23 815.401 1505.06 1125.28ZM1170.34 845.985 1151.5 791.5 1206.39 809.123Z" fill="#C55A11"/><path d="M0.654365-8.5688 647.62 40.8374 646.311 57.975-0.654365 8.5688ZM640.36 23.0454 689.81 52.678 636.434 74.4582Z" transform="matrix(-1 0 0 1 2744.31 1224.5)"/><path d="M0.648443-8.56925 663.42 41.5833 662.123 58.7218-0.648443 8.56925ZM656.148 23.7963 705.618 53.3947 652.257 75.2118Z" transform="matrix(1 0 0 -1 2089.5 1334.89)"/></g></svg>