<svg data-optimized="true" xmlns="http://www.w3.org/2000/svg" xmlns:xlink="http://www.w3.org/1999/xlink" width="270.497" height="374.016" viewBox="0 0 202.873 280.512"><defs><style>*{stroke-linejoin:round;stroke-linecap:butt}</style></defs><g id="figure_1"><path id="patch_1" d="M0 280.512h202.873V0H0z" style="fill:none"/><g id="axes_1"><path id="patch_2" d="m194.198 179.813-7.193 4.675 1.679-4.671H7.2v-.007h181.484l-1.679-4.672z" clip-path="url(#pc4314e4456)" style="fill:gray;stroke:gray;stroke-linejoin:miter"/><path id="patch_3" d="m100.699 7.2 4.675 7.192-4.672-1.678v260.598h-.007V12.714l-4.671 1.678z" clip-path="url(#pc4314e4456)" style="fill:gray;stroke:gray;stroke-linejoin:miter"/><g id="Quiver_1"><path d="M29.244 129.762v5.873l1.87-.468-2.337 4.675-2.338-4.675 1.87.468v-5.873zM43.629 149.6v5.873l1.87-.468-2.338 4.675-2.337-4.675 1.87.468V149.6zm14.384 16.994v5.872l1.87-.467-2.337 4.675-2.338-4.675 1.87.467v-5.872zm14.384 13.24v5.872l1.87-.467-2.337 4.675-2.338-4.675 1.87.467v-5.872zm14.385 8.498v5.873l1.87-.468-2.338 4.675-2.337-4.675 1.87.468v-5.873zm14.384 2.941v5.873l1.87-.468-2.337 4.675-2.338-4.675 1.87.468v-5.873zm14.384-2.941v5.873l1.87-.468-2.337 4.675-2.337-4.675 1.87.468v-5.873zm14.385-8.498v5.872l1.87-.467-2.337 4.675-2.338-4.675 1.87.467v-5.872zm14.385-13.24v5.872l1.87-.467-2.338 4.675-2.337-4.675 1.87.467v-5.872zm14.384-16.994v5.873l1.87-.468-2.337 4.675-2.338-4.675 1.87.468V149.6zm14.384-19.838v5.873l1.87-.468-2.337 4.675-2.337-4.675 1.87.468v-5.873zM29.244 116.6v5.873l1.87-.468-2.337 4.675-2.338-4.675 1.87.468V116.6zm14.385 22.164v5.873l1.87-.467-2.338 4.674-2.337-4.674 1.87.467v-5.873z" clip-path="url(#pc4314e4456)"/><path d="M58.013 158.273v5.873l1.87-.468-2.337 4.675-2.338-4.675 1.87.468v-5.873zm14.384 15.677v5.873l1.87-.467-2.337 4.675-2.338-4.675 1.87.467v-5.872zm14.385 10.367v5.873l1.87-.468-2.338 4.675-2.337-4.675 1.87.468v-5.873zm14.384 3.656v5.873l1.87-.468-2.337 4.675-2.338-4.675 1.87.468v-5.873zm14.384-3.656v5.873l1.87-.468-2.337 4.675-2.337-4.675 1.87.468v-5.873zm14.385-10.367v5.873l1.87-.467-2.337 4.675-2.338-4.675 1.87.467v-5.872zm14.385-15.677v5.873l1.87-.468-2.338 4.675-2.337-4.675 1.87.468v-5.873zm14.384-19.509v5.873l1.87-.467-2.337 4.674-2.338-4.674 1.87.467v-5.873zm14.384-22.164v5.873l1.87-.468-2.337 4.675-2.337-4.675 1.87.468V116.6zM29.244 100.594v5.872l1.87-.467-2.337 4.675-2.338-4.675 1.87.467v-5.872zm14.385 24.679v5.873l1.87-.468-2.338 4.675-2.337-4.675 1.87.468v-5.873zm14.384 22.494v5.872l1.87-.467-2.337 4.675-2.338-4.675 1.87.467v-5.872z" clip-path="url(#pc4314e4456)"/><path d="M72.397 166.688v5.873l1.87-.468-2.337 4.675-2.338-4.675 1.87.468v-5.873zm14.385 13.166v5.872l1.87-.467-2.338 4.675-2.337-4.675 1.87.467v-5.872zm14.384 4.819v5.873l1.87-.468-2.337 4.675-2.338-4.675 1.87.468v-5.873zm14.384-4.819v5.872l1.87-.467-2.337 4.675-2.337-4.675 1.87.467v-5.872zm14.385-13.166v5.873l1.87-.468-2.337 4.675-2.338-4.675 1.87.468v-5.873zm14.385-18.921v5.872l1.87-.467-2.338 4.675-2.337-4.675 1.87.467v-5.872zm14.384-22.494v5.873l1.87-.468-2.337 4.675-2.338-4.675 1.87.468v-5.873zm14.384-24.679v5.872l1.87-.467-2.337 4.675-2.337-4.675 1.87.467v-5.872zM29.244 80.833v5.873l1.87-.468-2.337 4.675-2.338-4.675 1.87.468v-5.873zm14.385 27.117v5.873l1.87-.467-2.338 4.674-2.337-4.674 1.87.467v-5.873zm14.384 25.738v5.873l1.87-.468-2.337 4.675-2.338-4.675 1.87.468v-5.873z" clip-path="url(#pc4314e4456)"/><path d="M72.397 156.769v5.872l1.87-.467-2.337 4.675-2.338-4.675 1.87.467v-5.872zm14.385 17.593v5.873l1.87-.468-2.338 4.675-2.337-4.675 1.87.468v-5.873zm14.384 7.011v5.873l1.87-.468-2.337 4.675-2.338-4.675 1.87.468v-5.873zm14.384-7.011v5.873l1.87-.468-2.337 4.675-2.337-4.675 1.87.468v-5.873zm14.385-17.593v5.872l1.87-.467-2.337 4.675-2.338-4.675 1.87.467v-5.872zm14.385-23.081v5.873l1.87-.468-2.338 4.675-2.337-4.675 1.87.468v-5.873zm14.384-25.738v5.873l1.87-.467-2.337 4.674-2.338-4.674 1.87.467v-5.873zm14.384-27.117v5.873l1.87-.468-2.337 4.675-2.337-4.675 1.87.468v-5.873zM29.244 56.332v5.872l1.87-.467-2.337 4.675-2.338-4.675 1.87.467v-5.872zm14.385 28.985v5.872l1.87-.467-2.338 4.675-2.337-4.675 1.87.467v-5.872zm14.384 28.536v5.873l1.87-.468-2.337 4.675-2.338-4.675 1.87.468v-5.873zm14.384 27.509v5.872l1.87-.467-2.337 4.675-2.338-4.675 1.87.467v-5.872z" clip-path="url(#pc4314e4456)"/><path d="M86.782 165.771v5.873l1.87-.468-2.338 4.675-2.337-4.675 1.87.468v-5.873zm14.384 12.302v5.873l1.87-.468-2.337 4.675-2.338-4.675 1.87.468v-5.873zm14.384-12.302v5.873l1.87-.468-2.337 4.675-2.337-4.675 1.87.468v-5.873zm14.385-24.409v5.872l1.87-.467-2.337 4.675-2.338-4.675 1.87.467v-5.872zm14.385-27.509v5.873l1.87-.468-2.338 4.675-2.337-4.675 1.87.468v-5.873zm14.384-28.536v5.872l1.87-.467-2.337 4.675-2.338-4.675 1.87.467v-5.872zm14.384-28.985v5.872l1.87-.467-2.337 4.675-2.337-4.675 1.87.467v-5.872zM29.244 26.273v5.872l1.87-.467-2.337 4.675-2.338-4.675 1.87.467v-5.872zm14.385 29.7v5.872l1.87-.467-2.338 4.675-2.337-4.675 1.87.467v-5.872zm14.384 29.7v5.872l1.87-.467-2.337 4.675-2.338-4.675 1.87.467v-5.872zm14.384 29.7v5.872l1.87-.467-2.337 4.675-2.338-4.675 1.87.467v-5.872zm14.385 29.7v5.873l1.87-.468-2.338 4.675-2.337-4.675 1.87.468v-5.873z" clip-path="url(#pc4314e4456)"/><path d="M101.166 174.773v5.873l1.87-.468-2.337 4.675-2.338-4.675 1.87.468v-5.873zm14.384-29.7v5.873l1.87-.468-2.337 4.675-2.337-4.675 1.87.468v-5.873zm14.385-29.7v5.872l1.87-.467-2.337 4.675-2.338-4.675 1.87.467v-5.872zm14.385-29.7v5.872l1.87-.467-2.338 4.675-2.337-4.675 1.87.467v-5.872zm14.384-29.7v5.872l1.87-.467-2.337 4.675-2.338-4.675 1.87.467v-5.872zm14.384-29.7v5.872l1.87-.467-2.337 4.675-2.337-4.675 1.87.467v-5.872zM29.244-9.669v5.873l1.87-.467L28.777.41l-2.338-4.674 1.87.467V-9.67zm14.385 28.985v5.873l1.87-.468-2.338 4.675-2.337-4.675 1.87.468v-5.873zm14.384 28.537v5.873l1.87-.468-2.337 4.675-2.338-4.675 1.87.468v-5.873zm14.384 27.509v5.872l1.87-.467-2.337 4.675-2.338-4.675 1.87.467v-5.872zM86.782 99.77v5.873l1.87-.467-2.338 4.675-2.337-4.675 1.87.467v-5.872zm14.384 12.303v5.872l1.87-.467-2.337 4.675-2.338-4.675 1.87.467v-5.872zM115.55 99.77v5.873l1.87-.467-2.337 4.675-2.337-4.675 1.87.467v-5.872zm14.385-24.408v5.872l1.87-.467-2.337 4.675-2.338-4.675 1.87.467v-5.872zm14.385-27.509v5.873l1.87-.468-2.338 4.675-2.337-4.675 1.87.468v-5.873zm14.384-28.537v5.873l1.87-.468-2.337 4.675-2.338-4.675 1.87.468v-5.873zm14.384-28.985v5.873l1.87-.467L172.621.41l-2.337-4.674 1.87.467V-9.67zM29.244-51.167v5.872l1.87-.467-2.337 4.675-2.338-4.675 1.87.467v-5.872zM43.629-24.05v5.872l1.87-.467-2.338 4.675-2.337-4.675 1.87.467v-5.872zM58.013 1.688V7.56l1.87-.467-2.337 4.675-2.338-4.675 1.87.467V1.688zm14.384 23.08v5.873l1.87-.468-2.337 4.675-2.338-4.675 1.87.468v-5.873zm14.385 17.593v5.873l1.87-.468-2.338 4.675-2.337-4.675 1.87.468V42.36zm14.384 7.012v5.872l1.87-.467-2.337 4.675-2.338-4.675 1.87.467v-5.872zm14.384-7.012v5.873l1.87-.468-2.337 4.675-2.337-4.675 1.87.468V42.36zm14.385-17.593v5.873l1.87-.468-2.337 4.675-2.338-4.675 1.87.468v-5.873zm14.385-23.08V7.56l1.87-.467-2.338 4.675-2.337-4.675 1.87.467V1.688zm14.384-25.738v5.872l1.87-.467-2.337 4.675-2.338-4.675 1.87.467v-5.872zm14.384-27.117v5.872l1.87-.467-2.337 4.675-2.337-4.675 1.87.467v-5.872zM29.244-97.407v5.872l1.87-.467-2.337 4.675-2.338-4.675 1.87.467v-5.872zm14.385 24.679v5.873l1.87-.468-2.338 4.675-2.337-4.675 1.87.468v-5.873zm14.384 22.494v5.872l1.87-.467-2.337 4.675-2.338-4.675 1.87.467v-5.872zm14.384 18.921v5.873l1.87-.468-2.337 4.675-2.338-4.675 1.87.468v-5.873zm14.385 13.166v5.872l1.87-.467-2.338 4.675-2.337-4.675 1.87.467v-5.872zm14.384 4.819v5.873l1.87-.468-2.337 4.675-2.338-4.675 1.87.468v-5.873zm14.384-4.819v5.872l1.87-.467-2.337 4.675-2.337-4.675 1.87.467v-5.872zm14.385-13.166v5.873l1.87-.468-2.337 4.675-2.338-4.675 1.87.468v-5.873zm14.385-18.921v5.872l1.87-.467-2.338 4.675-2.337-4.675 1.87.467v-5.872zm14.384-22.494v5.873l1.87-.468-2.337 4.675-2.338-4.675 1.87.468v-5.873zm14.384-24.679v5.872l1.87-.467-2.337 4.675-2.337-4.675 1.87.467v-5.872zM29.244-147.401v5.872l1.87-.467-2.337 4.675-2.338-4.675 1.87.467v-5.872zm14.385 22.164v5.873l1.87-.468-2.338 4.675-2.337-4.675 1.87.468v-5.873zm14.384 19.509v5.872l1.87-.467-2.337 4.675-2.338-4.675 1.87.467v-5.872zM72.397-90.05v5.872l1.87-.467-2.337 4.675-2.338-4.675 1.87.467v-5.872zm14.385 10.366v5.872l1.87-.467-2.338 4.675-2.337-4.675 1.87.467v-5.872zm14.384 3.656v5.873l1.87-.468-2.337 4.675-2.338-4.675 1.87.468v-5.873zm14.384-3.656v5.872l1.87-.467-2.337 4.675-2.337-4.675 1.87.467v-5.872zm14.385-10.366v5.872l1.87-.467-2.337 4.675-2.338-4.675 1.87.467v-5.872zm14.385-15.678v5.872l1.87-.467-2.338 4.675-2.337-4.675 1.87.467v-5.872zm14.384-19.509v5.873l1.87-.468-2.337 4.675-2.338-4.675 1.87.468v-5.873zm14.384-22.164v5.872l1.87-.467-2.337 4.675-2.337-4.675 1.87.467v-5.872zM29.244-200.24v5.873l1.87-.467-2.337 4.675-2.338-4.675 1.87.467v-5.872zm14.385 19.839v5.872l1.87-.467-2.338 4.675-2.337-4.675 1.87.467v-5.872zm14.384 16.993v5.873l1.87-.468-2.337 4.675-2.338-4.675 1.87.468v-5.873zm14.384 13.24v5.873l1.87-.468-2.337 4.675-2.338-4.675 1.87.468v-5.873zm14.385 8.498v5.873l1.87-.467-2.338 4.675-2.337-4.675 1.87.467v-5.872zm14.384 2.942v5.872l1.87-.467-2.337 4.675-2.338-4.675 1.87.467v-5.872zm14.384-2.942v5.873l1.87-.467-2.337 4.675-2.337-4.675 1.87.467v-5.872zm14.385-8.498v5.873l1.87-.468-2.337 4.675-2.338-4.675 1.87.468v-5.873zm14.385-13.24v5.873l1.87-.468-2.338 4.675-2.337-4.675 1.87.468v-5.873zm14.384-16.993v5.872l1.87-.467-2.337 4.675-2.338-4.675 1.87.467v-5.872zm14.384-19.839v5.873l1.87-.467-2.337 4.675-2.337-4.675 1.87.467v-5.872z" clip-path="url(#pc4314e4456)"/></g><g id="text_1" style="fill:gray" transform="matrix(.1 0 0 -.1 187.005 172.621)"><defs><path id="DejaVuSans-79" d="M2059-325q-243-625-475-815-231-191-618-191H506v481h338q237 0 368 113 132 112 291 531l103 262L191 3500h609L1894 763l1094 2737h609z" transform="scale(.01563)"/><path id="DejaVuSans-27" d="M1147 4666V2931H616v1735z" transform="scale(.01563)"/></defs><use xlink:href="#DejaVuSans-79"/><use xlink:href="#DejaVuSans-27" x="59.18"/></g><g id="text_2" style="fill:gray" transform="matrix(.1 0 0 -.1 107.891 21.584)"><defs><path id="DejaVuSans-7a" d="M353 3500h2731v-525L922 459h2162V0H275v525l2163 2516H353z" transform="scale(.01563)"/></defs><use xlink:href="#DejaVuSans-7a"/><use xlink:href="#DejaVuSans-27" x="52.49"/></g></g></g><defs><clipPath id="pc4314e4456"><path d="M7.2 7.2h186.998v266.112H7.2z"/></clipPath></defs></svg>