<svg data-optimized="true" xmlns="http://www.w3.org/2000/svg" xmlns:xlink="http://www.w3.org/1999/xlink" width="211.892" height="374.016" viewBox="0 0 158.919 280.512"><defs><style>*{stroke-linejoin:round;stroke-linecap:butt}</style></defs><g id="figure_1"><path id="patch_1" d="M0 280.512h158.919V0H0z" style="fill:none"/><g id="axes_1"><path id="patch_2" d="m151.344 140.256-5.544 3.604 1.294-3.601H7.2v-.006h139.894l-1.294-3.6z" clip-path="url(#p4fbe84dbb1)" style="stroke:#000;stroke-linejoin:miter"/><path id="patch_3" d="m79.272 7.2 3.604 5.544-3.601-1.294v261.862h-.006V11.45l-3.6 1.294z" clip-path="url(#p4fbe84dbb1)" style="stroke:#000;stroke-linejoin:miter"/><path id="patch_4" d="m12.744 118.08 3.604 5.544-3.601-1.294v17.926h-.006V122.33l-3.6 1.294z" clip-path="url(#p4fbe84dbb1)" style="fill:gray;stroke:gray;stroke-linejoin:miter"/><path id="patch_5" d="m12.744 123.624 3.604 5.544-3.601-1.294v12.382h-.006v-12.382l-3.6 1.294z" clip-path="url(#p4fbe84dbb1)" style="fill:gray;stroke:gray;stroke-linejoin:miter"/><g id="line2d_1"><defs><path id="m1b0f8e88b7" d="M0 .5a.5.5 0 1 0 0-1 .5.5 0 0 0 0 1z" style="stroke:#000"/></defs><g clip-path="url(#p4fbe84dbb1)"><use xlink:href="#m1b0f8e88b7" x="23.832" y="195.696" style="stroke:#000"/><use xlink:href="#m1b0f8e88b7" x="23.832" y="184.608" style="stroke:#000"/><use xlink:href="#m1b0f8e88b7" x="23.832" y="173.52" style="stroke:#000"/><use xlink:href="#m1b0f8e88b7" x="23.832" y="162.432" style="stroke:#000"/><use xlink:href="#m1b0f8e88b7" x="23.832" y="151.344" style="stroke:#000"/><use xlink:href="#m1b0f8e88b7" x="23.832" y="140.256" style="stroke:#000"/><use xlink:href="#m1b0f8e88b7" x="23.832" y="129.168" style="stroke:#000"/><use xlink:href="#m1b0f8e88b7" x="23.832" y="118.08" style="stroke:#000"/><use xlink:href="#m1b0f8e88b7" x="23.832" y="106.992" style="stroke:#000"/><use xlink:href="#m1b0f8e88b7" x="23.832" y="95.904" style="stroke:#000"/><use xlink:href="#m1b0f8e88b7" x="23.832" y="84.816" style="stroke:#000"/></g></g><g id="line2d_2" clip-path="url(#p4fbe84dbb1)"><use xlink:href="#m1b0f8e88b7" x="34.92" y="195.696" style="stroke:#000"/><use xlink:href="#m1b0f8e88b7" x="34.92" y="184.608" style="stroke:#000"/><use xlink:href="#m1b0f8e88b7" x="34.92" y="173.52" style="stroke:#000"/><use xlink:href="#m1b0f8e88b7" x="34.92" y="162.432" style="stroke:#000"/><use xlink:href="#m1b0f8e88b7" x="34.92" y="151.344" style="stroke:#000"/><use xlink:href="#m1b0f8e88b7" x="34.92" y="140.256" style="stroke:#000"/><use xlink:href="#m1b0f8e88b7" x="34.92" y="129.168" style="stroke:#000"/><use xlink:href="#m1b0f8e88b7" x="34.92" y="118.08" style="stroke:#000"/><use xlink:href="#m1b0f8e88b7" x="34.92" y="106.992" style="stroke:#000"/><use xlink:href="#m1b0f8e88b7" x="34.92" y="95.904" style="stroke:#000"/><use xlink:href="#m1b0f8e88b7" x="34.92" y="84.816" style="stroke:#000"/></g><g id="line2d_3" clip-path="url(#p4fbe84dbb1)"><use xlink:href="#m1b0f8e88b7" x="46.008" y="195.696" style="stroke:#000"/><use xlink:href="#m1b0f8e88b7" x="46.008" y="184.608" style="stroke:#000"/><use xlink:href="#m1b0f8e88b7" x="46.008" y="173.52" style="stroke:#000"/><use xlink:href="#m1b0f8e88b7" x="46.008" y="162.432" style="stroke:#000"/><use xlink:href="#m1b0f8e88b7" x="46.008" y="151.344" style="stroke:#000"/><use xlink:href="#m1b0f8e88b7" x="46.008" y="140.256" style="stroke:#000"/><use xlink:href="#m1b0f8e88b7" x="46.008" y="129.168" style="stroke:#000"/><use xlink:href="#m1b0f8e88b7" x="46.008" y="118.08" style="stroke:#000"/><use xlink:href="#m1b0f8e88b7" x="46.008" y="106.992" style="stroke:#000"/><use xlink:href="#m1b0f8e88b7" x="46.008" y="95.904" style="stroke:#000"/><use xlink:href="#m1b0f8e88b7" x="46.008" y="84.816" style="stroke:#000"/></g><g id="line2d_4" clip-path="url(#p4fbe84dbb1)"><use xlink:href="#m1b0f8e88b7" x="57.096" y="195.696" style="stroke:#000"/><use xlink:href="#m1b0f8e88b7" x="57.096" y="184.608" style="stroke:#000"/><use xlink:href="#m1b0f8e88b7" x="57.096" y="173.52" style="stroke:#000"/><use xlink:href="#m1b0f8e88b7" x="57.096" y="162.432" style="stroke:#000"/><use xlink:href="#m1b0f8e88b7" x="57.096" y="151.344" style="stroke:#000"/><use xlink:href="#m1b0f8e88b7" x="57.096" y="140.256" style="stroke:#000"/><use xlink:href="#m1b0f8e88b7" x="57.096" y="129.168" style="stroke:#000"/><use xlink:href="#m1b0f8e88b7" x="57.096" y="118.08" style="stroke:#000"/><use xlink:href="#m1b0f8e88b7" x="57.096" y="106.992" style="stroke:#000"/><use xlink:href="#m1b0f8e88b7" x="57.096" y="95.904" style="stroke:#000"/><use xlink:href="#m1b0f8e88b7" x="57.096" y="84.816" style="stroke:#000"/></g><g id="line2d_5" clip-path="url(#p4fbe84dbb1)"><use xlink:href="#m1b0f8e88b7" x="68.184" y="195.696" style="stroke:#000"/><use xlink:href="#m1b0f8e88b7" x="68.184" y="184.608" style="stroke:#000"/><use xlink:href="#m1b0f8e88b7" x="68.184" y="173.52" style="stroke:#000"/><use xlink:href="#m1b0f8e88b7" x="68.184" y="162.432" style="stroke:#000"/><use xlink:href="#m1b0f8e88b7" x="68.184" y="151.344" style="stroke:#000"/><use xlink:href="#m1b0f8e88b7" x="68.184" y="140.256" style="stroke:#000"/><use xlink:href="#m1b0f8e88b7" x="68.184" y="129.168" style="stroke:#000"/><use xlink:href="#m1b0f8e88b7" x="68.184" y="118.08" style="stroke:#000"/><use xlink:href="#m1b0f8e88b7" x="68.184" y="106.992" style="stroke:#000"/><use xlink:href="#m1b0f8e88b7" x="68.184" y="95.904" style="stroke:#000"/><use xlink:href="#m1b0f8e88b7" x="68.184" y="84.816" style="stroke:#000"/></g><g id="line2d_6" clip-path="url(#p4fbe84dbb1)"><use xlink:href="#m1b0f8e88b7" x="79.272" y="195.696" style="stroke:#000"/><use xlink:href="#m1b0f8e88b7" x="79.272" y="184.608" style="stroke:#000"/><use xlink:href="#m1b0f8e88b7" x="79.272" y="173.52" style="stroke:#000"/><use xlink:href="#m1b0f8e88b7" x="79.272" y="162.432" style="stroke:#000"/><use xlink:href="#m1b0f8e88b7" x="79.272" y="151.344" style="stroke:#000"/><use xlink:href="#m1b0f8e88b7" x="79.272" y="140.256" style="stroke:#000"/><use xlink:href="#m1b0f8e88b7" x="79.272" y="129.168" style="stroke:#000"/><use xlink:href="#m1b0f8e88b7" x="79.272" y="118.08" style="stroke:#000"/><use xlink:href="#m1b0f8e88b7" x="79.272" y="106.992" style="stroke:#000"/><use xlink:href="#m1b0f8e88b7" x="79.272" y="95.904" style="stroke:#000"/><use xlink:href="#m1b0f8e88b7" x="79.272" y="84.816" style="stroke:#000"/></g><g id="line2d_7" clip-path="url(#p4fbe84dbb1)"><use xlink:href="#m1b0f8e88b7" x="90.36" y="195.696" style="stroke:#000"/><use xlink:href="#m1b0f8e88b7" x="90.36" y="184.608" style="stroke:#000"/><use xlink:href="#m1b0f8e88b7" x="90.36" y="173.52" style="stroke:#000"/><use xlink:href="#m1b0f8e88b7" x="90.36" y="162.432" style="stroke:#000"/><use xlink:href="#m1b0f8e88b7" x="90.36" y="151.344" style="stroke:#000"/><use xlink:href="#m1b0f8e88b7" x="90.36" y="140.256" style="stroke:#000"/><use xlink:href="#m1b0f8e88b7" x="90.36" y="129.168" style="stroke:#000"/><use xlink:href="#m1b0f8e88b7" x="90.36" y="118.08" style="stroke:#000"/><use xlink:href="#m1b0f8e88b7" x="90.36" y="106.992" style="stroke:#000"/><use xlink:href="#m1b0f8e88b7" x="90.36" y="95.904" style="stroke:#000"/><use xlink:href="#m1b0f8e88b7" x="90.36" y="84.816" style="stroke:#000"/></g><g id="line2d_8" clip-path="url(#p4fbe84dbb1)"><use xlink:href="#m1b0f8e88b7" x="101.448" y="195.696" style="stroke:#000"/><use xlink:href="#m1b0f8e88b7" x="101.448" y="184.608" style="stroke:#000"/><use xlink:href="#m1b0f8e88b7" x="101.448" y="173.52" style="stroke:#000"/><use xlink:href="#m1b0f8e88b7" x="101.448" y="162.432" style="stroke:#000"/><use xlink:href="#m1b0f8e88b7" x="101.448" y="151.344" style="stroke:#000"/><use xlink:href="#m1b0f8e88b7" x="101.448" y="140.256" style="stroke:#000"/><use xlink:href="#m1b0f8e88b7" x="101.448" y="129.168" style="stroke:#000"/><use xlink:href="#m1b0f8e88b7" x="101.448" y="118.08" style="stroke:#000"/><use xlink:href="#m1b0f8e88b7" x="101.448" y="106.992" style="stroke:#000"/><use xlink:href="#m1b0f8e88b7" x="101.448" y="95.904" style="stroke:#000"/><use xlink:href="#m1b0f8e88b7" x="101.448" y="84.816" style="stroke:#000"/></g><g id="line2d_9" clip-path="url(#p4fbe84dbb1)"><use xlink:href="#m1b0f8e88b7" x="112.536" y="195.696" style="stroke:#000"/><use xlink:href="#m1b0f8e88b7" x="112.536" y="184.608" style="stroke:#000"/><use xlink:href="#m1b0f8e88b7" x="112.536" y="173.52" style="stroke:#000"/><use xlink:href="#m1b0f8e88b7" x="112.536" y="162.432" style="stroke:#000"/><use xlink:href="#m1b0f8e88b7" x="112.536" y="151.344" style="stroke:#000"/><use xlink:href="#m1b0f8e88b7" x="112.536" y="140.256" style="stroke:#000"/><use xlink:href="#m1b0f8e88b7" x="112.536" y="129.168" style="stroke:#000"/><use xlink:href="#m1b0f8e88b7" x="112.536" y="118.08" style="stroke:#000"/><use xlink:href="#m1b0f8e88b7" x="112.536" y="106.992" style="stroke:#000"/><use xlink:href="#m1b0f8e88b7" x="112.536" y="95.904" style="stroke:#000"/><use xlink:href="#m1b0f8e88b7" x="112.536" y="84.816" style="stroke:#000"/></g><g id="line2d_10" clip-path="url(#p4fbe84dbb1)"><use xlink:href="#m1b0f8e88b7" x="123.624" y="195.696" style="stroke:#000"/><use xlink:href="#m1b0f8e88b7" x="123.624" y="184.608" style="stroke:#000"/><use xlink:href="#m1b0f8e88b7" x="123.624" y="173.52" style="stroke:#000"/><use xlink:href="#m1b0f8e88b7" x="123.624" y="162.432" style="stroke:#000"/><use xlink:href="#m1b0f8e88b7" x="123.624" y="151.344" style="stroke:#000"/><use xlink:href="#m1b0f8e88b7" x="123.624" y="140.256" style="stroke:#000"/><use xlink:href="#m1b0f8e88b7" x="123.624" y="129.168" style="stroke:#000"/><use xlink:href="#m1b0f8e88b7" x="123.624" y="118.08" style="stroke:#000"/><use xlink:href="#m1b0f8e88b7" x="123.624" y="106.992" style="stroke:#000"/><use xlink:href="#m1b0f8e88b7" x="123.624" y="95.904" style="stroke:#000"/><use xlink:href="#m1b0f8e88b7" x="123.624" y="84.816" style="stroke:#000"/></g><g id="line2d_11" clip-path="url(#p4fbe84dbb1)"><use xlink:href="#m1b0f8e88b7" x="134.712" y="195.696" style="stroke:#000"/><use xlink:href="#m1b0f8e88b7" x="134.712" y="184.608" style="stroke:#000"/><use xlink:href="#m1b0f8e88b7" x="134.712" y="173.52" style="stroke:#000"/><use xlink:href="#m1b0f8e88b7" x="134.712" y="162.432" style="stroke:#000"/><use xlink:href="#m1b0f8e88b7" x="134.712" y="151.344" style="stroke:#000"/><use xlink:href="#m1b0f8e88b7" x="134.712" y="140.256" style="stroke:#000"/><use xlink:href="#m1b0f8e88b7" x="134.712" y="129.168" style="stroke:#000"/><use xlink:href="#m1b0f8e88b7" x="134.712" y="118.08" style="stroke:#000"/><use xlink:href="#m1b0f8e88b7" x="134.712" y="106.992" style="stroke:#000"/><use xlink:href="#m1b0f8e88b7" x="134.712" y="95.904" style="stroke:#000"/><use xlink:href="#m1b0f8e88b7" x="134.712" y="84.816" style="stroke:#000"/></g><g id="text_1" transform="matrix(.1 0 0 -.1 145.8 134.712)"><defs><path id="DejaVuSans-79" d="M2059-325q-243-625-475-815-231-191-618-191H506v481h338q237 0 368 113 132 112 291 531l103 262L191 3500h609L1894 763l1094 2737h609z" transform="scale(.01563)"/></defs><use xlink:href="#DejaVuSans-79"/></g><g id="text_2" transform="matrix(.1 0 0 -.1 84.816 18.288)"><defs><path id="DejaVuSans-7a" d="M353 3500h2731v-525L922 459h2162V0H275v525l2163 2516H353z" transform="scale(.01563)"/></defs><use xlink:href="#DejaVuSans-7a"/></g><g id="text_3" style="fill:gray" transform="matrix(.1 0 0 -.1 7.2 112.536)"><defs><path id="DejaVuSans-76" d="M191 3500h609L1894 563l1094 2937h609L2284 0h-781z" transform="scale(.01563)"/></defs><use xlink:href="#DejaVuSans-76"/></g></g></g><defs><clipPath id="p4fbe84dbb1"><path d="M7.2 7.2h144.144v266.112H7.2z"/></clipPath></defs></svg>