<svg xmlns="http://www.w3.org/2000/svg" xmlns:xlink="http://www.w3.org/1999/xlink" width="268.53" height="374.016" viewBox="0 0 201.398 280.512"><defs><style>*{stroke-linejoin:round;stroke-linecap:butt}</style></defs><g id="figure_1"><path id="patch_1" d="M0 280.512h201.398V0H0z" style="fill:none"/><g id="axes_1"><path id="patch_2" d="m194.198 179.813-7.193 4.675 1.679-4.671H7.2v-.007h181.484l-1.679-4.672z" clip-path="url(#p975e272802)" style="stroke:#000;stroke-linejoin:miter"/><path id="patch_3" d="m100.699 7.2 4.675 7.192-4.672-1.678v260.598h-.007V12.714l-4.671 1.678z" clip-path="url(#p975e272802)" style="stroke:#000;stroke-linejoin:miter"/><path id="patch_4" d="m14.392 151.044 4.675 7.193-4.671-1.679v23.255h-.007v-23.255l-4.672 1.679z" clip-path="url(#p975e272802)" style="fill:gray;stroke:gray;stroke-linejoin:miter"/><path id="patch_5" d="m14.392 158.237 4.675 7.192-4.671-1.678v16.062h-.007v-16.062l-4.672 1.678z" clip-path="url(#p975e272802)" style="fill:gray;stroke:gray;stroke-linejoin:miter"/><g id="line2d_1"><defs><path id="m215a2d50b7" d="M0 .5a.5.5 0 1 0 0-1 .5.5 0 0 0 0 1z" style="stroke:#000"/></defs><g clip-path="url(#p975e272802)"><use xlink:href="#m215a2d50b7" x="28.777" y="251.735" style="stroke:#000"/><use xlink:href="#m215a2d50b7" x="28.777" y="237.351" style="stroke:#000"/><use xlink:href="#m215a2d50b7" x="28.777" y="222.966" style="stroke:#000"/><use xlink:href="#m215a2d50b7" x="28.777" y="208.582" style="stroke:#000"/><use xlink:href="#m215a2d50b7" x="28.777" y="194.198" style="stroke:#000"/><use xlink:href="#m215a2d50b7" x="28.777" y="179.813" style="stroke:#000"/><use xlink:href="#m215a2d50b7" x="28.777" y="165.429" style="stroke:#000"/><use xlink:href="#m215a2d50b7" x="28.777" y="151.044" style="stroke:#000"/><use xlink:href="#m215a2d50b7" x="28.777" y="136.66" style="stroke:#000"/><use xlink:href="#m215a2d50b7" x="28.777" y="122.275" style="stroke:#000"/><use xlink:href="#m215a2d50b7" x="28.777" y="107.891" style="stroke:#000"/></g></g><g id="line2d_2" clip-path="url(#p975e272802)"><use xlink:href="#m215a2d50b7" x="43.161" y="251.735" style="stroke:#000"/><use xlink:href="#m215a2d50b7" x="43.161" y="237.351" style="stroke:#000"/><use xlink:href="#m215a2d50b7" x="43.161" y="222.966" style="stroke:#000"/><use xlink:href="#m215a2d50b7" x="43.161" y="208.582" style="stroke:#000"/><use xlink:href="#m215a2d50b7" x="43.161" y="194.198" style="stroke:#000"/><use xlink:href="#m215a2d50b7" x="43.161" y="179.813" style="stroke:#000"/><use xlink:href="#m215a2d50b7" x="43.161" y="165.429" style="stroke:#000"/><use xlink:href="#m215a2d50b7" x="43.161" y="151.044" style="stroke:#000"/><use xlink:href="#m215a2d50b7" x="43.161" y="136.66" style="stroke:#000"/><use xlink:href="#m215a2d50b7" x="43.161" y="122.275" style="stroke:#000"/><use xlink:href="#m215a2d50b7" x="43.161" y="107.891" style="stroke:#000"/></g><g id="line2d_3" clip-path="url(#p975e272802)"><use xlink:href="#m215a2d50b7" x="57.546" y="251.735" style="stroke:#000"/><use xlink:href="#m215a2d50b7" x="57.546" y="237.351" style="stroke:#000"/><use xlink:href="#m215a2d50b7" x="57.546" y="222.966" style="stroke:#000"/><use xlink:href="#m215a2d50b7" x="57.546" y="208.582" style="stroke:#000"/><use xlink:href="#m215a2d50b7" x="57.546" y="194.198" style="stroke:#000"/><use xlink:href="#m215a2d50b7" x="57.546" y="179.813" style="stroke:#000"/><use xlink:href="#m215a2d50b7" x="57.546" y="165.429" style="stroke:#000"/><use xlink:href="#m215a2d50b7" x="57.546" y="151.044" style="stroke:#000"/><use xlink:href="#m215a2d50b7" x="57.546" y="136.66" style="stroke:#000"/><use xlink:href="#m215a2d50b7" x="57.546" y="122.275" style="stroke:#000"/><use xlink:href="#m215a2d50b7" x="57.546" y="107.891" style="stroke:#000"/></g><g id="line2d_4" clip-path="url(#p975e272802)"><use xlink:href="#m215a2d50b7" x="71.93" y="251.735" style="stroke:#000"/><use xlink:href="#m215a2d50b7" x="71.93" y="237.351" style="stroke:#000"/><use xlink:href="#m215a2d50b7" x="71.93" y="222.966" style="stroke:#000"/><use xlink:href="#m215a2d50b7" x="71.93" y="208.582" style="stroke:#000"/><use xlink:href="#m215a2d50b7" x="71.93" y="194.198" style="stroke:#000"/><use xlink:href="#m215a2d50b7" x="71.93" y="179.813" style="stroke:#000"/><use xlink:href="#m215a2d50b7" x="71.93" y="165.429" style="stroke:#000"/><use xlink:href="#m215a2d50b7" x="71.93" y="151.044" style="stroke:#000"/><use xlink:href="#m215a2d50b7" x="71.93" y="136.66" style="stroke:#000"/><use xlink:href="#m215a2d50b7" x="71.93" y="122.275" style="stroke:#000"/><use xlink:href="#m215a2d50b7" x="71.93" y="107.891" style="stroke:#000"/></g><g id="line2d_5" clip-path="url(#p975e272802)"><use xlink:href="#m215a2d50b7" x="86.314" y="251.735" style="stroke:#000"/><use xlink:href="#m215a2d50b7" x="86.314" y="237.351" style="stroke:#000"/><use xlink:href="#m215a2d50b7" x="86.314" y="222.966" style="stroke:#000"/><use xlink:href="#m215a2d50b7" x="86.314" y="208.582" style="stroke:#000"/><use xlink:href="#m215a2d50b7" x="86.314" y="194.198" style="stroke:#000"/><use xlink:href="#m215a2d50b7" x="86.314" y="179.813" style="stroke:#000"/><use xlink:href="#m215a2d50b7" x="86.314" y="165.429" style="stroke:#000"/><use xlink:href="#m215a2d50b7" x="86.314" y="151.044" style="stroke:#000"/><use xlink:href="#m215a2d50b7" x="86.314" y="136.66" style="stroke:#000"/><use xlink:href="#m215a2d50b7" x="86.314" y="122.275" style="stroke:#000"/><use xlink:href="#m215a2d50b7" x="86.314" y="107.891" style="stroke:#000"/></g><g id="line2d_6" clip-path="url(#p975e272802)"><use xlink:href="#m215a2d50b7" x="100.699" y="251.735" style="stroke:#000"/><use xlink:href="#m215a2d50b7" x="100.699" y="237.351" style="stroke:#000"/><use xlink:href="#m215a2d50b7" x="100.699" y="222.966" style="stroke:#000"/><use xlink:href="#m215a2d50b7" x="100.699" y="208.582" style="stroke:#000"/><use xlink:href="#m215a2d50b7" x="100.699" y="194.198" style="stroke:#000"/><use xlink:href="#m215a2d50b7" x="100.699" y="179.813" style="stroke:#000"/><use xlink:href="#m215a2d50b7" x="100.699" y="165.429" style="stroke:#000"/><use xlink:href="#m215a2d50b7" x="100.699" y="151.044" style="stroke:#000"/><use xlink:href="#m215a2d50b7" x="100.699" y="136.66" style="stroke:#000"/><use xlink:href="#m215a2d50b7" x="100.699" y="122.275" style="stroke:#000"/><use xlink:href="#m215a2d50b7" x="100.699" y="107.891" style="stroke:#000"/></g><g id="line2d_7" clip-path="url(#p975e272802)"><use xlink:href="#m215a2d50b7" x="115.083" y="251.735" style="stroke:#000"/><use xlink:href="#m215a2d50b7" x="115.083" y="237.351" style="stroke:#000"/><use xlink:href="#m215a2d50b7" x="115.083" y="222.966" style="stroke:#000"/><use xlink:href="#m215a2d50b7" x="115.083" y="208.582" style="stroke:#000"/><use xlink:href="#m215a2d50b7" x="115.083" y="194.198" style="stroke:#000"/><use xlink:href="#m215a2d50b7" x="115.083" y="179.813" style="stroke:#000"/><use xlink:href="#m215a2d50b7" x="115.083" y="165.429" style="stroke:#000"/><use xlink:href="#m215a2d50b7" x="115.083" y="151.044" style="stroke:#000"/><use xlink:href="#m215a2d50b7" x="115.083" y="136.66" style="stroke:#000"/><use xlink:href="#m215a2d50b7" x="115.083" y="122.275" style="stroke:#000"/><use xlink:href="#m215a2d50b7" x="115.083" y="107.891" style="stroke:#000"/></g><g id="line2d_8" clip-path="url(#p975e272802)"><use xlink:href="#m215a2d50b7" x="129.468" y="251.735" style="stroke:#000"/><use xlink:href="#m215a2d50b7" x="129.468" y="237.351" style="stroke:#000"/><use xlink:href="#m215a2d50b7" x="129.468" y="222.966" style="stroke:#000"/><use xlink:href="#m215a2d50b7" x="129.468" y="208.582" style="stroke:#000"/><use xlink:href="#m215a2d50b7" x="129.468" y="194.198" style="stroke:#000"/><use xlink:href="#m215a2d50b7" x="129.468" y="179.813" style="stroke:#000"/><use xlink:href="#m215a2d50b7" x="129.468" y="165.429" style="stroke:#000"/><use xlink:href="#m215a2d50b7" x="129.468" y="151.044" style="stroke:#000"/><use xlink:href="#m215a2d50b7" x="129.468" y="136.66" style="stroke:#000"/><use xlink:href="#m215a2d50b7" x="129.468" y="122.275" style="stroke:#000"/><use xlink:href="#m215a2d50b7" x="129.468" y="107.891" style="stroke:#000"/></g><g id="line2d_9" clip-path="url(#p975e272802)"><use xlink:href="#m215a2d50b7" x="143.852" y="251.735" style="stroke:#000"/><use xlink:href="#m215a2d50b7" x="143.852" y="237.351" style="stroke:#000"/><use xlink:href="#m215a2d50b7" x="143.852" y="222.966" style="stroke:#000"/><use xlink:href="#m215a2d50b7" x="143.852" y="208.582" style="stroke:#000"/><use xlink:href="#m215a2d50b7" x="143.852" y="194.198" style="stroke:#000"/><use xlink:href="#m215a2d50b7" x="143.852" y="179.813" style="stroke:#000"/><use xlink:href="#m215a2d50b7" x="143.852" y="165.429" style="stroke:#000"/><use xlink:href="#m215a2d50b7" x="143.852" y="151.044" style="stroke:#000"/><use xlink:href="#m215a2d50b7" x="143.852" y="136.66" style="stroke:#000"/><use xlink:href="#m215a2d50b7" x="143.852" y="122.275" style="stroke:#000"/><use xlink:href="#m215a2d50b7" x="143.852" y="107.891" style="stroke:#000"/></g><g id="line2d_10" clip-path="url(#p975e272802)"><use xlink:href="#m215a2d50b7" x="158.237" y="251.735" style="stroke:#000"/><use xlink:href="#m215a2d50b7" x="158.237" y="237.351" style="stroke:#000"/><use xlink:href="#m215a2d50b7" x="158.237" y="222.966" style="stroke:#000"/><use xlink:href="#m215a2d50b7" x="158.237" y="208.582" style="stroke:#000"/><use xlink:href="#m215a2d50b7" x="158.237" y="194.198" style="stroke:#000"/><use xlink:href="#m215a2d50b7" x="158.237" y="179.813" style="stroke:#000"/><use xlink:href="#m215a2d50b7" x="158.237" y="165.429" style="stroke:#000"/><use xlink:href="#m215a2d50b7" x="158.237" y="151.044" style="stroke:#000"/><use xlink:href="#m215a2d50b7" x="158.237" y="136.66" style="stroke:#000"/><use xlink:href="#m215a2d50b7" x="158.237" y="122.275" style="stroke:#000"/><use xlink:href="#m215a2d50b7" x="158.237" y="107.891" style="stroke:#000"/></g><g id="line2d_11" clip-path="url(#p975e272802)"><use xlink:href="#m215a2d50b7" x="172.621" y="251.735" style="stroke:#000"/><use xlink:href="#m215a2d50b7" x="172.621" y="237.351" style="stroke:#000"/><use xlink:href="#m215a2d50b7" x="172.621" y="222.966" style="stroke:#000"/><use xlink:href="#m215a2d50b7" x="172.621" y="208.582" style="stroke:#000"/><use xlink:href="#m215a2d50b7" x="172.621" y="194.198" style="stroke:#000"/><use xlink:href="#m215a2d50b7" x="172.621" y="179.813" style="stroke:#000"/><use xlink:href="#m215a2d50b7" x="172.621" y="165.429" style="stroke:#000"/><use xlink:href="#m215a2d50b7" x="172.621" y="151.044" style="stroke:#000"/><use xlink:href="#m215a2d50b7" x="172.621" y="136.66" style="stroke:#000"/><use xlink:href="#m215a2d50b7" x="172.621" y="122.275" style="stroke:#000"/><use xlink:href="#m215a2d50b7" x="172.621" y="107.891" style="stroke:#000"/></g><g id="text_1" transform="matrix(.1 0 0 -.1 187.005 172.621)"><defs><path id="DejaVuSans-79" d="M2059-325q-243-625-475-815-231-191-618-191H506v481h338q237 0 368 113 132 112 291 531l103 262L191 3500h609L1894 763l1094 2737h609z" transform="scale(.01563)"/></defs><use xlink:href="#DejaVuSans-79"/></g><g id="text_2" transform="matrix(.1 0 0 -.1 107.891 21.584)"><defs><path id="DejaVuSans-7a" d="M353 3500h2731v-525L922 459h2162V0H275v525l2163 2516H353z" transform="scale(.01563)"/></defs><use xlink:href="#DejaVuSans-7a"/></g><g id="text_3" style="fill:gray" transform="matrix(.1 0 0 -.1 7.2 143.852)"><defs><path id="DejaVuSans-76" d="M191 3500h609L1894 563l1094 2937h609L2284 0h-781z" transform="scale(.01563)"/></defs><use xlink:href="#DejaVuSans-76"/></g></g></g><defs><clipPath id="p975e272802"><path d="M7.2 7.2h186.998v266.112H7.2z"/></clipPath></defs></svg>