<svg data-optimized="true" xmlns="http://www.w3.org/2000/svg" xmlns:xlink="http://www.w3.org/1999/xlink" width="270.497" height="374.016" viewBox="0 0 202.873 280.512"><defs><style>*{stroke-linejoin:round;stroke-linecap:butt}</style></defs><g id="figure_1"><path id="patch_1" d="M0 280.512h202.873V0H0z" style="fill:none"/><g id="axes_1"><path id="patch_2" d="m194.198 179.813-7.193 4.675 1.679-4.671H7.2v-.007h181.484l-1.679-4.672z" clip-path="url(#p5ebe60e9de)" style="fill:gray;stroke:gray;stroke-linejoin:miter"/><path id="patch_3" d="m100.699 7.2 4.675 7.192-4.672-1.678v260.598h-.007V12.714l-4.671 1.678z" clip-path="url(#p5ebe60e9de)" style="fill:gray;stroke:gray;stroke-linejoin:miter"/><g id="line2d_1"><defs><path id="m4153b9d5e2" d="M0 .5a.5.5 0 1 0 0-1 .5.5 0 0 0 0 1z" style="stroke:#000"/></defs><g clip-path="url(#p5ebe60e9de)"><use xlink:href="#m4153b9d5e2" x="81.541" y="79.92" style="stroke:#000"/><use xlink:href="#m4153b9d5e2" x="80.631" y="89.92" style="stroke:#000"/><use xlink:href="#m4153b9d5e2" x="79.271" y="98.721" style="stroke:#000"/><use xlink:href="#m4153b9d5e2" x="77.202" y="106" style="stroke:#000"/><use xlink:href="#m4153b9d5e2" x="74.052" y="111.478" style="stroke:#000"/><use xlink:href="#m4153b9d5e2" x="69.349" y="115.083" style="stroke:#000"/><use xlink:href="#m4153b9d5e2" x="62.629" y="117.12" style="stroke:#000"/><use xlink:href="#m4153b9d5e2" x="53.609" y="118.307" style="stroke:#000"/><use xlink:href="#m4153b9d5e2" x="42.314" y="119.595" style="stroke:#000"/><use xlink:href="#m4153b9d5e2" x="29.087" y="121.89" style="stroke:#000"/><use xlink:href="#m4153b9d5e2" x="14.479" y="125.853" style="stroke:#000"/></g></g><g id="line2d_2" clip-path="url(#p5ebe60e9de)"><use xlink:href="#m4153b9d5e2" x="85.97" y="88.893" style="stroke:#000"/><use xlink:href="#m4153b9d5e2" x="85.372" y="99.898" style="stroke:#000"/><use xlink:href="#m4153b9d5e2" x="84.413" y="109.758" style="stroke:#000"/><use xlink:href="#m4153b9d5e2" x="82.816" y="118.019" style="stroke:#000"/><use xlink:href="#m4153b9d5e2" x="80.112" y="124.191" style="stroke:#000"/><use xlink:href="#m4153b9d5e2" x="75.619" y="128.029" style="stroke:#000"/><use xlink:href="#m4153b9d5e2" x="68.616" y="129.931" style="stroke:#000"/><use xlink:href="#m4153b9d5e2" x="58.725" y="131.064" style="stroke:#000"/><use xlink:href="#m4153b9d5e2" x="46.177" y="132.907" style="stroke:#000"/><use xlink:href="#m4153b9d5e2" x="31.723" y="136.645" style="stroke:#000"/><use xlink:href="#m4153b9d5e2" x="16.317" y="142.894" style="stroke:#000"/></g><g id="line2d_3" clip-path="url(#p5ebe60e9de)"><use xlink:href="#m4153b9d5e2" x="90.082" y="96.612" style="stroke:#000"/><use xlink:href="#m4153b9d5e2" x="89.763" y="108.727" style="stroke:#000"/><use xlink:href="#m4153b9d5e2" x="89.204" y="119.877" style="stroke:#000"/><use xlink:href="#m4153b9d5e2" x="88.152" y="129.489" style="stroke:#000"/><use xlink:href="#m4153b9d5e2" x="86.056" y="136.746" style="stroke:#000"/><use xlink:href="#m4153b9d5e2" x="81.889" y="140.975" style="stroke:#000"/><use xlink:href="#m4153b9d5e2" x="74.406" y="142.694" style="stroke:#000"/><use xlink:href="#m4153b9d5e2" x="63.137" y="144.05" style="stroke:#000"/><use xlink:href="#m4153b9d5e2" x="48.968" y="147.437" style="stroke:#000"/><use xlink:href="#m4153b9d5e2" x="33.522" y="154.125" style="stroke:#000"/><use xlink:href="#m4153b9d5e2" x="18.293" y="164.191" style="stroke:#000"/></g><g id="line2d_4" clip-path="url(#p5ebe60e9de)"><use xlink:href="#m4153b9d5e2" x="93.867" y="102.652" style="stroke:#000"/><use xlink:href="#m4153b9d5e2" x="93.751" y="115.86" style="stroke:#000"/><use xlink:href="#m4153b9d5e2" x="93.528" y="128.447" style="stroke:#000"/><use xlink:href="#m4153b9d5e2" x="93.036" y="139.855" style="stroke:#000"/><use xlink:href="#m4153b9d5e2" x="91.757" y="148.916" style="stroke:#000"/><use xlink:href="#m4153b9d5e2" x="88.159" y="153.921" style="stroke:#000"/><use xlink:href="#m4153b9d5e2" x="79.712" y="155.438" style="stroke:#000"/><use xlink:href="#m4153b9d5e2" x="66.212" y="158.228" style="stroke:#000"/><use xlink:href="#m4153b9d5e2" x="50.771" y="165.779" style="stroke:#000"/><use xlink:href="#m4153b9d5e2" x="36.399" y="177.972" style="stroke:#000"/><use xlink:href="#m4153b9d5e2" x="24.411" y="193.229" style="stroke:#000"/></g><g id="line2d_5" clip-path="url(#p5ebe60e9de)"><use xlink:href="#m4153b9d5e2" x="97.368" y="106.542" style="stroke:#000"/><use xlink:href="#m4153b9d5e2" x="97.351" y="120.599" style="stroke:#000"/><use xlink:href="#m4153b9d5e2" x="97.317" y="134.451" style="stroke:#000"/><use xlink:href="#m4153b9d5e2" x="97.225" y="147.836" style="stroke:#000"/><use xlink:href="#m4153b9d5e2" x="96.867" y="159.834" style="stroke:#000"/><use xlink:href="#m4153b9d5e2" x="94.429" y="166.867" style="stroke:#000"/><use xlink:href="#m4153b9d5e2" x="83.456" y="169.02" style="stroke:#000"/><use xlink:href="#m4153b9d5e2" x="68.55" y="178.891" style="stroke:#000"/><use xlink:href="#m4153b9d5e2" x="57.812" y="194.956" style="stroke:#000"/><use xlink:href="#m4153b9d5e2" x="51.283" y="212.595" style="stroke:#000"/><use xlink:href="#m4153b9d5e2" x="47.331" y="230.114" style="stroke:#000"/></g><g id="line2d_6" clip-path="url(#p5ebe60e9de)"><use xlink:href="#m4153b9d5e2" x="100.699" y="107.89" style="stroke:#000"/><use xlink:href="#m4153b9d5e2" x="100.699" y="122.275" style="stroke:#000"/><use xlink:href="#m4153b9d5e2" x="100.699" y="136.659" style="stroke:#000"/><use xlink:href="#m4153b9d5e2" x="100.699" y="151.044" style="stroke:#000"/><use xlink:href="#m4153b9d5e2" x="100.699" y="165.428" style="stroke:#000"/><use xlink:href="#m4153b9d5e2" x="100.699" y="179.813" style="stroke:#000"/><use xlink:href="#m4153b9d5e2" x="100.699" y="194.185" style="stroke:#000"/><use xlink:href="#m4153b9d5e2" x="100.699" y="208.569" style="stroke:#000"/><use xlink:href="#m4153b9d5e2" x="100.699" y="222.954" style="stroke:#000"/><use xlink:href="#m4153b9d5e2" x="100.699" y="237.338" style="stroke:#000"/><use xlink:href="#m4153b9d5e2" x="100.699" y="251.722" style="stroke:#000"/></g><g id="line2d_7" clip-path="url(#p5ebe60e9de)"><use xlink:href="#m4153b9d5e2" x="104.029" y="106.542" style="stroke:#000"/><use xlink:href="#m4153b9d5e2" x="104.046" y="120.599" style="stroke:#000"/><use xlink:href="#m4153b9d5e2" x="104.081" y="134.451" style="stroke:#000"/><use xlink:href="#m4153b9d5e2" x="104.173" y="147.836" style="stroke:#000"/><use xlink:href="#m4153b9d5e2" x="104.53" y="159.834" style="stroke:#000"/><use xlink:href="#m4153b9d5e2" x="106.969" y="166.867" style="stroke:#000"/><use xlink:href="#m4153b9d5e2" x="117.942" y="169.02" style="stroke:#000"/><use xlink:href="#m4153b9d5e2" x="132.847" y="178.891" style="stroke:#000"/><use xlink:href="#m4153b9d5e2" x="143.586" y="194.956" style="stroke:#000"/><use xlink:href="#m4153b9d5e2" x="150.115" y="212.595" style="stroke:#000"/><use xlink:href="#m4153b9d5e2" x="154.067" y="230.114" style="stroke:#000"/></g><g id="line2d_8" clip-path="url(#p5ebe60e9de)"><use xlink:href="#m4153b9d5e2" x="107.53" y="102.652" style="stroke:#000"/><use xlink:href="#m4153b9d5e2" x="107.646" y="115.86" style="stroke:#000"/><use xlink:href="#m4153b9d5e2" x="107.869" y="128.447" style="stroke:#000"/><use xlink:href="#m4153b9d5e2" x="108.362" y="139.855" style="stroke:#000"/><use xlink:href="#m4153b9d5e2" x="109.64" y="148.916" style="stroke:#000"/><use xlink:href="#m4153b9d5e2" x="113.239" y="153.921" style="stroke:#000"/><use xlink:href="#m4153b9d5e2" x="121.686" y="155.438" style="stroke:#000"/><use xlink:href="#m4153b9d5e2" x="135.186" y="158.228" style="stroke:#000"/><use xlink:href="#m4153b9d5e2" x="150.626" y="165.779" style="stroke:#000"/><use xlink:href="#m4153b9d5e2" x="164.999" y="177.972" style="stroke:#000"/><use xlink:href="#m4153b9d5e2" x="176.986" y="193.229" style="stroke:#000"/></g><g id="line2d_9" clip-path="url(#p5ebe60e9de)"><use xlink:href="#m4153b9d5e2" x="111.316" y="96.612" style="stroke:#000"/><use xlink:href="#m4153b9d5e2" x="111.635" y="108.727" style="stroke:#000"/><use xlink:href="#m4153b9d5e2" x="112.194" y="119.877" style="stroke:#000"/><use xlink:href="#m4153b9d5e2" x="113.245" y="129.489" style="stroke:#000"/><use xlink:href="#m4153b9d5e2" x="115.342" y="136.746" style="stroke:#000"/><use xlink:href="#m4153b9d5e2" x="119.509" y="140.975" style="stroke:#000"/><use xlink:href="#m4153b9d5e2" x="126.992" y="142.694" style="stroke:#000"/><use xlink:href="#m4153b9d5e2" x="138.261" y="144.05" style="stroke:#000"/><use xlink:href="#m4153b9d5e2" x="152.43" y="147.437" style="stroke:#000"/><use xlink:href="#m4153b9d5e2" x="167.876" y="154.125" style="stroke:#000"/><use xlink:href="#m4153b9d5e2" x="183.104" y="164.191" style="stroke:#000"/></g><g id="line2d_10" clip-path="url(#p5ebe60e9de)"><use xlink:href="#m4153b9d5e2" x="115.428" y="88.893" style="stroke:#000"/><use xlink:href="#m4153b9d5e2" x="116.025" y="99.898" style="stroke:#000"/><use xlink:href="#m4153b9d5e2" x="116.985" y="109.758" style="stroke:#000"/><use xlink:href="#m4153b9d5e2" x="118.581" y="118.019" style="stroke:#000"/><use xlink:href="#m4153b9d5e2" x="121.285" y="124.191" style="stroke:#000"/><use xlink:href="#m4153b9d5e2" x="125.779" y="128.029" style="stroke:#000"/><use xlink:href="#m4153b9d5e2" x="132.782" y="129.931" style="stroke:#000"/><use xlink:href="#m4153b9d5e2" x="142.673" y="131.064" style="stroke:#000"/><use xlink:href="#m4153b9d5e2" x="155.22" y="132.907" style="stroke:#000"/><use xlink:href="#m4153b9d5e2" x="169.674" y="136.645" style="stroke:#000"/><use xlink:href="#m4153b9d5e2" x="185.08" y="142.894" style="stroke:#000"/></g><g id="line2d_11" clip-path="url(#p5ebe60e9de)"><use xlink:href="#m4153b9d5e2" x="119.857" y="79.92" style="stroke:#000"/><use xlink:href="#m4153b9d5e2" x="120.766" y="89.92" style="stroke:#000"/><use xlink:href="#m4153b9d5e2" x="122.127" y="98.721" style="stroke:#000"/><use xlink:href="#m4153b9d5e2" x="124.195" y="106" style="stroke:#000"/><use xlink:href="#m4153b9d5e2" x="127.346" y="111.478" style="stroke:#000"/><use xlink:href="#m4153b9d5e2" x="132.049" y="115.083" style="stroke:#000"/><use xlink:href="#m4153b9d5e2" x="138.768" y="117.12" style="stroke:#000"/><use xlink:href="#m4153b9d5e2" x="147.789" y="118.307" style="stroke:#000"/><use xlink:href="#m4153b9d5e2" x="159.084" y="119.595" style="stroke:#000"/><use xlink:href="#m4153b9d5e2" x="172.311" y="121.89" style="stroke:#000"/><use xlink:href="#m4153b9d5e2" x="186.918" y="125.853" style="stroke:#000"/></g><g id="text_1" style="fill:gray" transform="matrix(.1 0 0 -.1 187.005 172.621)"><defs><path id="DejaVuSans-79" d="M2059-325q-243-625-475-815-231-191-618-191H506v481h338q237 0 368 113 132 112 291 531l103 262L191 3500h609L1894 763l1094 2737h609z" transform="scale(.01563)"/><path id="DejaVuSans-27" d="M1147 4666V2931H616v1735z" transform="scale(.01563)"/></defs><use xlink:href="#DejaVuSans-79"/><use xlink:href="#DejaVuSans-27" x="59.18"/></g><g id="text_2" style="fill:gray" transform="matrix(.1 0 0 -.1 107.891 21.584)"><defs><path id="DejaVuSans-7a" d="M353 3500h2731v-525L922 459h2162V0H275v525l2163 2516H353z" transform="scale(.01563)"/></defs><use xlink:href="#DejaVuSans-7a"/><use xlink:href="#DejaVuSans-27" x="52.49"/></g></g></g><defs><clipPath id="p5ebe60e9de"><path d="M7.2 7.2h186.998v266.112H7.2z"/></clipPath></defs></svg>