<?xml version="1.0" encoding="utf-8" standalone="no"?>
<!DOCTYPE svg PUBLIC "-//W3C//DTD SVG 1.1//EN"
  "http://www.w3.org/Graphics/SVG/1.1/DTD/svg11.dtd">
<svg xmlns:xlink="http://www.w3.org/1999/xlink" width="202.872593pt" height="280.512pt" viewBox="0 0 202.872593 280.512" xmlns="http://www.w3.org/2000/svg" version="1.1">
 <metadata>
  <rdf:RDF xmlns:dc="http://purl.org/dc/elements/1.1/" xmlns:cc="http://creativecommons.org/ns#" xmlns:rdf="http://www.w3.org/1999/02/22-rdf-syntax-ns#">
   <cc:Work>
    <dc:type rdf:resource="http://purl.org/dc/dcmitype/StillImage"/>
    <dc:date>2025-02-20T01:00:14.962326</dc:date>
    <dc:format>image/svg+xml</dc:format>
    <dc:creator>
     <cc:Agent>
      <dc:title>Matplotlib v3.9.0, https://matplotlib.org/</dc:title>
     </cc:Agent>
    </dc:creator>
   </cc:Work>
  </rdf:RDF>
 </metadata>
 <defs>
  <style type="text/css">*{stroke-linejoin: round; stroke-linecap: butt}</style>
 </defs>
 <g id="figure_1">
  <g id="patch_1">
   <path d="M 0 280.512 
L 202.872593 280.512 
L 202.872593 0 
L 0 0 
L 0 280.512 
z
" style="fill: none"/>
  </g>
  <g id="axes_1">
   <g id="patch_2">
    <path d="M 194.197622 179.813189 
L 187.005405 184.48813 
L 188.683589 179.816785 
L 7.2 179.816785 
L 7.2 179.809593 
L 188.683589 179.809593 
L 187.005405 175.138249 
z
" clip-path="url(#pc4314e4456)" style="fill: #808080; stroke: #808080; stroke-linejoin: miter"/>
   </g>
   <g id="patch_3">
    <path d="M 100.698811 7.2 
L 105.373751 14.392216 
L 100.702407 12.714032 
L 100.702407 273.312 
L 100.695215 273.312 
L 100.695215 12.714032 
L 96.02387 14.392216 
z
" clip-path="url(#pc4314e4456)" style="fill: #808080; stroke: #808080; stroke-linejoin: miter"/>
   </g>
   <g id="Quiver_1">
    <path d="M 29.244143 129.762269 
L 29.244143 135.634822 
L 31.114119 135.167328 
L 28.776649 139.842269 
L 26.439178 135.167328 
L 28.309155 135.634822 
L 28.309155 129.762269 
L 29.244143 129.762269 
" clip-path="url(#pc4314e4456)"/>
    <path d="M 43.628575 149.600284 
L 43.628575 155.472837 
L 45.498551 155.005343 
L 43.161081 159.680284 
L 40.823611 155.005343 
L 42.693587 155.472837 
L 42.693587 149.600284 
L 43.628575 149.600284 
" clip-path="url(#pc4314e4456)"/>
    <path d="M 58.013008 166.59388 
L 58.013008 172.466434 
L 59.882984 171.99894 
L 57.545514 176.67388 
L 55.208043 171.99894 
L 57.078019 172.466434 
L 57.078019 166.59388 
L 58.013008 166.59388 
" clip-path="url(#pc4314e4456)"/>
    <path d="M 72.39744 179.833818 
L 72.39744 185.706371 
L 74.267416 185.238877 
L 71.929946 189.913818 
L 69.592476 185.238877 
L 71.462452 185.706371 
L 71.462452 179.833818 
L 72.39744 179.833818 
" clip-path="url(#pc4314e4456)"/>
    <path d="M 86.781872 188.332372 
L 86.781872 194.204925 
L 88.651849 193.737431 
L 86.314378 198.412372 
L 83.976908 193.737431 
L 85.846884 194.204925 
L 85.846884 188.332372 
L 86.781872 188.332372 
" clip-path="url(#pc4314e4456)"/>
    <path d="M 101.166305 191.273265 
L 101.166305 197.145818 
L 103.036281 196.678324 
L 100.698811 201.353265 
L 98.361341 196.678324 
L 100.231317 197.145818 
L 100.231317 191.273265 
L 101.166305 191.273265 
" clip-path="url(#pc4314e4456)"/>
    <path d="M 115.550737 188.332372 
L 115.550737 194.204925 
L 117.420714 193.737431 
L 115.083243 198.412372 
L 112.745773 193.737431 
L 114.615749 194.204925 
L 114.615749 188.332372 
L 115.550737 188.332372 
" clip-path="url(#pc4314e4456)"/>
    <path d="M 129.93517 179.833818 
L 129.93517 185.706371 
L 131.805146 185.238877 
L 129.467676 189.913818 
L 127.130205 185.238877 
L 129.000182 185.706371 
L 129.000182 179.833818 
L 129.93517 179.833818 
" clip-path="url(#pc4314e4456)"/>
    <path d="M 144.319602 166.59388 
L 144.319602 172.466434 
L 146.189578 171.99894 
L 143.852108 176.67388 
L 141.514638 171.99894 
L 143.384614 172.466434 
L 143.384614 166.59388 
L 144.319602 166.59388 
" clip-path="url(#pc4314e4456)"/>
    <path d="M 158.704035 149.600284 
L 158.704035 155.472837 
L 160.574011 155.005343 
L 158.236541 159.680284 
L 155.89907 155.005343 
L 157.769046 155.472837 
L 157.769046 149.600284 
L 158.704035 149.600284 
" clip-path="url(#pc4314e4456)"/>
    <path d="M 173.088467 129.762269 
L 173.088467 135.634822 
L 174.958443 135.167328 
L 172.620973 139.842269 
L 170.283503 135.167328 
L 172.153479 135.634822 
L 172.153479 129.762269 
L 173.088467 129.762269 
" clip-path="url(#pc4314e4456)"/>
    <path d="M 29.244143 116.600133 
L 29.244143 122.472686 
L 31.114119 122.005192 
L 28.776649 126.680133 
L 26.439178 122.005192 
L 28.309155 122.472686 
L 28.309155 116.600133 
L 29.244143 116.600133 
" clip-path="url(#pc4314e4456)"/>
    <path d="M 43.628575 138.764453 
L 43.628575 144.637006 
L 45.498551 144.169512 
L 43.161081 148.844453 
L 40.823611 144.169512 
L 42.693587 144.637006 
L 42.693587 138.764453 
L 43.628575 138.764453 
" clip-path="url(#pc4314e4456)"/>
    <path d="M 58.013008 158.273114 
L 58.013008 164.145667 
L 59.882984 163.678173 
L 57.545514 168.353114 
L 55.208043 163.678173 
L 57.078019 164.145667 
L 57.078019 158.273114 
L 58.013008 158.273114 
" clip-path="url(#pc4314e4456)"/>
    <path d="M 72.39744 173.950748 
L 72.39744 179.823301 
L 74.267416 179.355807 
L 71.929946 184.030748 
L 69.592476 179.355807 
L 71.462452 179.823301 
L 71.462452 173.950748 
L 72.39744 173.950748 
" clip-path="url(#pc4314e4456)"/>
    <path d="M 86.781872 184.316996 
L 86.781872 190.189549 
L 88.651849 189.722055 
L 86.314378 194.396996 
L 83.976908 189.722055 
L 85.846884 190.189549 
L 85.846884 184.316996 
L 86.781872 184.316996 
" clip-path="url(#pc4314e4456)"/>
    <path d="M 101.166305 187.97325 
L 101.166305 193.845803 
L 103.036281 193.378309 
L 100.698811 198.05325 
L 98.361341 193.378309 
L 100.231317 193.845803 
L 100.231317 187.97325 
L 101.166305 187.97325 
" clip-path="url(#pc4314e4456)"/>
    <path d="M 115.550737 184.316996 
L 115.550737 190.189549 
L 117.420714 189.722055 
L 115.083243 194.396996 
L 112.745773 189.722055 
L 114.615749 190.189549 
L 114.615749 184.316996 
L 115.550737 184.316996 
" clip-path="url(#pc4314e4456)"/>
    <path d="M 129.93517 173.950748 
L 129.93517 179.823301 
L 131.805146 179.355807 
L 129.467676 184.030748 
L 127.130205 179.355807 
L 129.000182 179.823301 
L 129.000182 173.950748 
L 129.93517 173.950748 
" clip-path="url(#pc4314e4456)"/>
    <path d="M 144.319602 158.273114 
L 144.319602 164.145667 
L 146.189578 163.678173 
L 143.852108 168.353114 
L 141.514638 163.678173 
L 143.384614 164.145667 
L 143.384614 158.273114 
L 144.319602 158.273114 
" clip-path="url(#pc4314e4456)"/>
    <path d="M 158.704035 138.764453 
L 158.704035 144.637006 
L 160.574011 144.169512 
L 158.236541 148.844453 
L 155.89907 144.169512 
L 157.769046 144.637006 
L 157.769046 138.764453 
L 158.704035 138.764453 
" clip-path="url(#pc4314e4456)"/>
    <path d="M 173.088467 116.600133 
L 173.088467 122.472686 
L 174.958443 122.005192 
L 172.620973 126.680133 
L 170.283503 122.005192 
L 172.153479 122.472686 
L 172.153479 116.600133 
L 173.088467 116.600133 
" clip-path="url(#pc4314e4456)"/>
    <path d="M 29.244143 100.593578 
L 29.244143 106.466131 
L 31.114119 105.998637 
L 28.776649 110.673578 
L 26.439178 105.998637 
L 28.309155 106.466131 
L 28.309155 100.593578 
L 29.244143 100.593578 
" clip-path="url(#pc4314e4456)"/>
    <path d="M 43.628575 125.272962 
L 43.628575 131.145516 
L 45.498551 130.678022 
L 43.161081 135.352962 
L 40.823611 130.678022 
L 42.693587 131.145516 
L 42.693587 125.272962 
L 43.628575 125.272962 
" clip-path="url(#pc4314e4456)"/>
    <path d="M 58.013008 147.766637 
L 58.013008 153.639191 
L 59.882984 153.171696 
L 57.545514 157.846637 
L 55.208043 153.171696 
L 57.078019 153.639191 
L 57.078019 147.766637 
L 58.013008 147.766637 
" clip-path="url(#pc4314e4456)"/>
    <path d="M 72.39744 166.688279 
L 72.39744 172.560833 
L 74.267416 172.093339 
L 71.929946 176.768279 
L 69.592476 172.093339 
L 71.462452 172.560833 
L 71.462452 166.688279 
L 72.39744 166.688279 
" clip-path="url(#pc4314e4456)"/>
    <path d="M 86.781872 179.853566 
L 86.781872 185.726119 
L 88.651849 185.258625 
L 86.314378 189.933566 
L 83.976908 185.258625 
L 85.846884 185.726119 
L 85.846884 179.853566 
L 86.781872 179.853566 
" clip-path="url(#pc4314e4456)"/>
    <path d="M 101.166305 184.673235 
L 101.166305 190.545788 
L 103.036281 190.078294 
L 100.698811 194.753235 
L 98.361341 190.078294 
L 100.231317 190.545788 
L 100.231317 184.673235 
L 101.166305 184.673235 
" clip-path="url(#pc4314e4456)"/>
    <path d="M 115.550737 179.853566 
L 115.550737 185.726119 
L 117.420714 185.258625 
L 115.083243 189.933566 
L 112.745773 185.258625 
L 114.615749 185.726119 
L 114.615749 179.853566 
L 115.550737 179.853566 
" clip-path="url(#pc4314e4456)"/>
    <path d="M 129.93517 166.688279 
L 129.93517 172.560833 
L 131.805146 172.093339 
L 129.467676 176.768279 
L 127.130205 172.093339 
L 129.000182 172.560833 
L 129.000182 166.688279 
L 129.93517 166.688279 
" clip-path="url(#pc4314e4456)"/>
    <path d="M 144.319602 147.766637 
L 144.319602 153.639191 
L 146.189578 153.171696 
L 143.852108 157.846637 
L 141.514638 153.171696 
L 143.384614 153.639191 
L 143.384614 147.766637 
L 144.319602 147.766637 
" clip-path="url(#pc4314e4456)"/>
    <path d="M 158.704035 125.272962 
L 158.704035 131.145516 
L 160.574011 130.678022 
L 158.236541 135.352962 
L 155.89907 130.678022 
L 157.769046 131.145516 
L 157.769046 125.272962 
L 158.704035 125.272962 
" clip-path="url(#pc4314e4456)"/>
    <path d="M 173.088467 100.593578 
L 173.088467 106.466131 
L 174.958443 105.998637 
L 172.620973 110.673578 
L 170.283503 105.998637 
L 172.153479 106.466131 
L 172.153479 100.593578 
L 173.088467 100.593578 
" clip-path="url(#pc4314e4456)"/>
    <path d="M 29.244143 80.833364 
L 29.244143 86.705917 
L 31.114119 86.238423 
L 28.776649 90.913364 
L 26.439178 86.238423 
L 28.309155 86.705917 
L 28.309155 80.833364 
L 29.244143 80.833364 
" clip-path="url(#pc4314e4456)"/>
    <path d="M 43.628575 107.950445 
L 43.628575 113.822999 
L 45.498551 113.355505 
L 43.161081 118.030445 
L 40.823611 113.355505 
L 42.693587 113.822999 
L 42.693587 107.950445 
L 43.628575 107.950445 
" clip-path="url(#pc4314e4456)"/>
    <path d="M 58.013008 133.688128 
L 58.013008 139.560682 
L 59.882984 139.093187 
L 57.545514 143.768128 
L 55.208043 139.093187 
L 57.078019 139.560682 
L 57.078019 133.688128 
L 58.013008 133.688128 
" clip-path="url(#pc4314e4456)"/>
    <path d="M 72.39744 156.768821 
L 72.39744 162.641375 
L 74.267416 162.173881 
L 71.929946 166.848821 
L 69.592476 162.173881 
L 71.462452 162.641375 
L 71.462452 156.768821 
L 72.39744 156.768821 
" clip-path="url(#pc4314e4456)"/>
    <path d="M 86.781872 174.361968 
L 86.781872 180.234522 
L 88.651849 179.767028 
L 86.314378 184.441968 
L 83.976908 179.767028 
L 85.846884 180.234522 
L 85.846884 174.361968 
L 86.781872 174.361968 
" clip-path="url(#pc4314e4456)"/>
    <path d="M 101.166305 181.373219 
L 101.166305 187.245773 
L 103.036281 186.778279 
L 100.698811 191.453219 
L 98.361341 186.778279 
L 100.231317 187.245773 
L 100.231317 181.373219 
L 101.166305 181.373219 
" clip-path="url(#pc4314e4456)"/>
    <path d="M 115.550737 174.361968 
L 115.550737 180.234522 
L 117.420714 179.767028 
L 115.083243 184.441968 
L 112.745773 179.767028 
L 114.615749 180.234522 
L 114.615749 174.361968 
L 115.550737 174.361968 
" clip-path="url(#pc4314e4456)"/>
    <path d="M 129.93517 156.768821 
L 129.93517 162.641375 
L 131.805146 162.173881 
L 129.467676 166.848821 
L 127.130205 162.173881 
L 129.000182 162.641375 
L 129.000182 156.768821 
L 129.93517 156.768821 
" clip-path="url(#pc4314e4456)"/>
    <path d="M 144.319602 133.688128 
L 144.319602 139.560682 
L 146.189578 139.093187 
L 143.852108 143.768128 
L 141.514638 139.093187 
L 143.384614 139.560682 
L 143.384614 133.688128 
L 144.319602 133.688128 
" clip-path="url(#pc4314e4456)"/>
    <path d="M 158.704035 107.950445 
L 158.704035 113.822999 
L 160.574011 113.355505 
L 158.236541 118.030445 
L 155.89907 113.355505 
L 157.769046 113.822999 
L 157.769046 107.950445 
L 158.704035 107.950445 
" clip-path="url(#pc4314e4456)"/>
    <path d="M 173.088467 80.833364 
L 173.088467 86.705917 
L 174.958443 86.238423 
L 172.620973 90.913364 
L 170.283503 86.238423 
L 172.153479 86.705917 
L 172.153479 80.833364 
L 173.088467 80.833364 
" clip-path="url(#pc4314e4456)"/>
    <path d="M 29.244143 56.331767 
L 29.244143 62.20432 
L 31.114119 61.736826 
L 28.776649 66.411767 
L 26.439178 61.736826 
L 28.309155 62.20432 
L 28.309155 56.331767 
L 29.244143 56.331767 
" clip-path="url(#pc4314e4456)"/>
    <path d="M 43.628575 85.316542 
L 43.628575 91.189096 
L 45.498551 90.721602 
L 43.161081 95.396542 
L 40.823611 90.721602 
L 42.693587 91.189096 
L 42.693587 85.316542 
L 43.628575 85.316542 
" clip-path="url(#pc4314e4456)"/>
    <path d="M 58.013008 113.853264 
L 58.013008 119.725817 
L 59.882984 119.258323 
L 57.545514 123.933264 
L 55.208043 119.258323 
L 57.078019 119.725817 
L 57.078019 113.853264 
L 58.013008 113.853264 
" clip-path="url(#pc4314e4456)"/>
    <path d="M 72.39744 141.361817 
L 72.39744 147.234371 
L 74.267416 146.766877 
L 71.929946 151.441817 
L 69.592476 146.766877 
L 71.462452 147.234371 
L 71.462452 141.361817 
L 72.39744 141.361817 
" clip-path="url(#pc4314e4456)"/>
    <path d="M 86.781872 165.771005 
L 86.781872 171.643559 
L 88.651849 171.176065 
L 86.314378 175.851005 
L 83.976908 171.176065 
L 85.846884 171.643559 
L 85.846884 165.771005 
L 86.781872 165.771005 
" clip-path="url(#pc4314e4456)"/>
    <path d="M 101.166305 178.073204 
L 101.166305 183.945758 
L 103.036281 183.478264 
L 100.698811 188.153204 
L 98.361341 183.478264 
L 100.231317 183.945758 
L 100.231317 178.073204 
L 101.166305 178.073204 
" clip-path="url(#pc4314e4456)"/>
    <path d="M 115.550737 165.771005 
L 115.550737 171.643559 
L 117.420714 171.176065 
L 115.083243 175.851005 
L 112.745773 171.176065 
L 114.615749 171.643559 
L 114.615749 165.771005 
L 115.550737 165.771005 
" clip-path="url(#pc4314e4456)"/>
    <path d="M 129.93517 141.361817 
L 129.93517 147.234371 
L 131.805146 146.766877 
L 129.467676 151.441817 
L 127.130205 146.766877 
L 129.000182 147.234371 
L 129.000182 141.361817 
L 129.93517 141.361817 
" clip-path="url(#pc4314e4456)"/>
    <path d="M 144.319602 113.853264 
L 144.319602 119.725817 
L 146.189578 119.258323 
L 143.852108 123.933264 
L 141.514638 119.258323 
L 143.384614 119.725817 
L 143.384614 113.853264 
L 144.319602 113.853264 
" clip-path="url(#pc4314e4456)"/>
    <path d="M 158.704035 85.316542 
L 158.704035 91.189096 
L 160.574011 90.721602 
L 158.236541 95.396542 
L 155.89907 90.721602 
L 157.769046 91.189096 
L 157.769046 85.316542 
L 158.704035 85.316542 
" clip-path="url(#pc4314e4456)"/>
    <path d="M 173.088467 56.331767 
L 173.088467 62.20432 
L 174.958443 61.736826 
L 172.620973 66.411767 
L 170.283503 61.736826 
L 172.153479 62.20432 
L 172.153479 56.331767 
L 173.088467 56.331767 
" clip-path="url(#pc4314e4456)"/>
    <path d="M 29.244143 26.272509 
L 29.244143 32.145062 
L 31.114119 31.677568 
L 28.776649 36.352509 
L 26.439178 31.677568 
L 28.309155 32.145062 
L 28.309155 26.272509 
L 29.244143 26.272509 
" clip-path="url(#pc4314e4456)"/>
    <path d="M 43.628575 55.972645 
L 43.628575 61.845198 
L 45.498551 61.377704 
L 43.161081 66.052645 
L 40.823611 61.377704 
L 42.693587 61.845198 
L 42.693587 55.972645 
L 43.628575 55.972645 
" clip-path="url(#pc4314e4456)"/>
    <path d="M 58.013008 85.672781 
L 58.013008 91.545334 
L 59.882984 91.07784 
L 57.545514 95.752781 
L 55.208043 91.07784 
L 57.078019 91.545334 
L 57.078019 85.672781 
L 58.013008 85.672781 
" clip-path="url(#pc4314e4456)"/>
    <path d="M 72.39744 115.372917 
L 72.39744 121.24547 
L 74.267416 120.777976 
L 71.929946 125.452917 
L 69.592476 120.777976 
L 71.462452 121.24547 
L 71.462452 115.372917 
L 72.39744 115.372917 
" clip-path="url(#pc4314e4456)"/>
    <path d="M 86.781872 145.073053 
L 86.781872 150.945607 
L 88.651849 150.478113 
L 86.314378 155.153053 
L 83.976908 150.478113 
L 85.846884 150.945607 
L 85.846884 145.073053 
L 86.781872 145.073053 
" clip-path="url(#pc4314e4456)"/>
    <path d="M 101.166305 174.773189 
L 101.166305 180.645743 
L 103.036281 180.178249 
L 100.698811 184.853189 
L 98.361341 180.178249 
L 100.231317 180.645743 
L 100.231317 174.773189 
L 101.166305 174.773189 
" clip-path="url(#pc4314e4456)"/>
    <path d="M 115.550737 145.073053 
L 115.550737 150.945607 
L 117.420714 150.478113 
L 115.083243 155.153053 
L 112.745773 150.478113 
L 114.615749 150.945607 
L 114.615749 145.073053 
L 115.550737 145.073053 
" clip-path="url(#pc4314e4456)"/>
    <path d="M 129.93517 115.372917 
L 129.93517 121.24547 
L 131.805146 120.777976 
L 129.467676 125.452917 
L 127.130205 120.777976 
L 129.000182 121.24547 
L 129.000182 115.372917 
L 129.93517 115.372917 
" clip-path="url(#pc4314e4456)"/>
    <path d="M 144.319602 85.672781 
L 144.319602 91.545334 
L 146.189578 91.07784 
L 143.852108 95.752781 
L 141.514638 91.07784 
L 143.384614 91.545334 
L 143.384614 85.672781 
L 144.319602 85.672781 
" clip-path="url(#pc4314e4456)"/>
    <path d="M 158.704035 55.972645 
L 158.704035 61.845198 
L 160.574011 61.377704 
L 158.236541 66.052645 
L 155.89907 61.377704 
L 157.769046 61.845198 
L 157.769046 55.972645 
L 158.704035 55.972645 
" clip-path="url(#pc4314e4456)"/>
    <path d="M 173.088467 26.272509 
L 173.088467 32.145062 
L 174.958443 31.677568 
L 172.620973 36.352509 
L 170.283503 31.677568 
L 172.153479 32.145062 
L 172.153479 26.272509 
L 173.088467 26.272509 
" clip-path="url(#pc4314e4456)"/>
    <path d="M 29.244143 -9.668536 
L 29.244143 -3.795982 
L 31.114119 -4.263476 
L 28.776649 0.411464 
L 26.439178 -4.263476 
L 28.309155 -3.795982 
L 28.309155 -9.668536 
L 29.244143 -9.668536 
" clip-path="url(#pc4314e4456)"/>
    <path d="M 43.628575 19.31624 
L 43.628575 25.188793 
L 45.498551 24.721299 
L 43.161081 29.39624 
L 40.823611 24.721299 
L 42.693587 25.188793 
L 42.693587 19.31624 
L 43.628575 19.31624 
" clip-path="url(#pc4314e4456)"/>
    <path d="M 58.013008 47.852961 
L 58.013008 53.725515 
L 59.882984 53.258021 
L 57.545514 57.932961 
L 55.208043 53.258021 
L 57.078019 53.725515 
L 57.078019 47.852961 
L 58.013008 47.852961 
" clip-path="url(#pc4314e4456)"/>
    <path d="M 72.39744 75.361515 
L 72.39744 81.234068 
L 74.267416 80.766574 
L 71.929946 85.441515 
L 69.592476 80.766574 
L 71.462452 81.234068 
L 71.462452 75.361515 
L 72.39744 75.361515 
" clip-path="url(#pc4314e4456)"/>
    <path d="M 86.781872 99.770703 
L 86.781872 105.643256 
L 88.651849 105.175762 
L 86.314378 109.850703 
L 83.976908 105.175762 
L 85.846884 105.643256 
L 85.846884 99.770703 
L 86.781872 99.770703 
" clip-path="url(#pc4314e4456)"/>
    <path d="M 101.166305 112.072902 
L 101.166305 117.945455 
L 103.036281 117.477961 
L 100.698811 122.152902 
L 98.361341 117.477961 
L 100.231317 117.945455 
L 100.231317 112.072902 
L 101.166305 112.072902 
" clip-path="url(#pc4314e4456)"/>
    <path d="M 115.550737 99.770703 
L 115.550737 105.643256 
L 117.420714 105.175762 
L 115.083243 109.850703 
L 112.745773 105.175762 
L 114.615749 105.643256 
L 114.615749 99.770703 
L 115.550737 99.770703 
" clip-path="url(#pc4314e4456)"/>
    <path d="M 129.93517 75.361515 
L 129.93517 81.234068 
L 131.805146 80.766574 
L 129.467676 85.441515 
L 127.130205 80.766574 
L 129.000182 81.234068 
L 129.000182 75.361515 
L 129.93517 75.361515 
" clip-path="url(#pc4314e4456)"/>
    <path d="M 144.319602 47.852961 
L 144.319602 53.725515 
L 146.189578 53.258021 
L 143.852108 57.932961 
L 141.514638 53.258021 
L 143.384614 53.725515 
L 143.384614 47.852961 
L 144.319602 47.852961 
" clip-path="url(#pc4314e4456)"/>
    <path d="M 158.704035 19.31624 
L 158.704035 25.188793 
L 160.574011 24.721299 
L 158.236541 29.39624 
L 155.89907 24.721299 
L 157.769046 25.188793 
L 157.769046 19.31624 
L 158.704035 19.31624 
" clip-path="url(#pc4314e4456)"/>
    <path d="M 173.088467 -9.668536 
L 173.088467 -3.795982 
L 174.958443 -4.263476 
L 172.620973 0.411464 
L 170.283503 -4.263476 
L 172.153479 -3.795982 
L 172.153479 -9.668536 
L 173.088467 -9.668536 
" clip-path="url(#pc4314e4456)"/>
    <path d="M 29.244143 -51.167241 
L 29.244143 -45.294687 
L 31.114119 -45.762182 
L 28.776649 -41.087241 
L 26.439178 -45.762182 
L 28.309155 -45.294687 
L 28.309155 -51.167241 
L 29.244143 -51.167241 
" clip-path="url(#pc4314e4456)"/>
    <path d="M 43.628575 -24.05016 
L 43.628575 -18.177606 
L 45.498551 -18.6451 
L 43.161081 -13.97016 
L 40.823611 -18.6451 
L 42.693587 -18.177606 
L 42.693587 -24.05016 
L 43.628575 -24.05016 
" clip-path="url(#pc4314e4456)"/>
    <path d="M 58.013008 1.687523 
L 58.013008 7.560077 
L 59.882984 7.092583 
L 57.545514 11.767523 
L 55.208043 7.092583 
L 57.078019 7.560077 
L 57.078019 1.687523 
L 58.013008 1.687523 
" clip-path="url(#pc4314e4456)"/>
    <path d="M 72.39744 24.768216 
L 72.39744 30.64077 
L 74.267416 30.173276 
L 71.929946 34.848216 
L 69.592476 30.173276 
L 71.462452 30.64077 
L 71.462452 24.768216 
L 72.39744 24.768216 
" clip-path="url(#pc4314e4456)"/>
    <path d="M 86.781872 42.361363 
L 86.781872 48.233917 
L 88.651849 47.766423 
L 86.314378 52.441363 
L 83.976908 47.766423 
L 85.846884 48.233917 
L 85.846884 42.361363 
L 86.781872 42.361363 
" clip-path="url(#pc4314e4456)"/>
    <path d="M 101.166305 49.372615 
L 101.166305 55.245168 
L 103.036281 54.777674 
L 100.698811 59.452615 
L 98.361341 54.777674 
L 100.231317 55.245168 
L 100.231317 49.372615 
L 101.166305 49.372615 
" clip-path="url(#pc4314e4456)"/>
    <path d="M 115.550737 42.361363 
L 115.550737 48.233917 
L 117.420714 47.766423 
L 115.083243 52.441363 
L 112.745773 47.766423 
L 114.615749 48.233917 
L 114.615749 42.361363 
L 115.550737 42.361363 
" clip-path="url(#pc4314e4456)"/>
    <path d="M 129.93517 24.768216 
L 129.93517 30.64077 
L 131.805146 30.173276 
L 129.467676 34.848216 
L 127.130205 30.173276 
L 129.000182 30.64077 
L 129.000182 24.768216 
L 129.93517 24.768216 
" clip-path="url(#pc4314e4456)"/>
    <path d="M 144.319602 1.687523 
L 144.319602 7.560077 
L 146.189578 7.092583 
L 143.852108 11.767523 
L 141.514638 7.092583 
L 143.384614 7.560077 
L 143.384614 1.687523 
L 144.319602 1.687523 
" clip-path="url(#pc4314e4456)"/>
    <path d="M 158.704035 -24.05016 
L 158.704035 -18.177606 
L 160.574011 -18.6451 
L 158.236541 -13.97016 
L 155.89907 -18.6451 
L 157.769046 -18.177606 
L 157.769046 -24.05016 
L 158.704035 -24.05016 
" clip-path="url(#pc4314e4456)"/>
    <path d="M 173.088467 -51.167241 
L 173.088467 -45.294687 
L 174.958443 -45.762182 
L 172.620973 -41.087241 
L 170.283503 -45.762182 
L 172.153479 -45.294687 
L 172.153479 -51.167241 
L 173.088467 -51.167241 
" clip-path="url(#pc4314e4456)"/>
    <path d="M 29.244143 -97.407329 
L 29.244143 -91.534776 
L 31.114119 -92.00227 
L 28.776649 -87.327329 
L 26.439178 -92.00227 
L 28.309155 -91.534776 
L 28.309155 -97.407329 
L 29.244143 -97.407329 
" clip-path="url(#pc4314e4456)"/>
    <path d="M 43.628575 -72.727945 
L 43.628575 -66.855392 
L 45.498551 -67.322886 
L 43.161081 -62.647945 
L 40.823611 -67.322886 
L 42.693587 -66.855392 
L 42.693587 -72.727945 
L 43.628575 -72.727945 
" clip-path="url(#pc4314e4456)"/>
    <path d="M 58.013008 -50.23427 
L 58.013008 -44.361717 
L 59.882984 -44.829211 
L 57.545514 -40.15427 
L 55.208043 -44.829211 
L 57.078019 -44.361717 
L 57.078019 -50.23427 
L 58.013008 -50.23427 
" clip-path="url(#pc4314e4456)"/>
    <path d="M 72.39744 -31.312628 
L 72.39744 -25.440075 
L 74.267416 -25.907569 
L 71.929946 -21.232628 
L 69.592476 -25.907569 
L 71.462452 -25.440075 
L 71.462452 -31.312628 
L 72.39744 -31.312628 
" clip-path="url(#pc4314e4456)"/>
    <path d="M 86.781872 -18.147341 
L 86.781872 -12.274788 
L 88.651849 -12.742282 
L 86.314378 -8.067341 
L 83.976908 -12.742282 
L 85.846884 -12.274788 
L 85.846884 -18.147341 
L 86.781872 -18.147341 
" clip-path="url(#pc4314e4456)"/>
    <path d="M 101.166305 -13.327673 
L 101.166305 -7.455119 
L 103.036281 -7.922613 
L 100.698811 -3.247673 
L 98.361341 -7.922613 
L 100.231317 -7.455119 
L 100.231317 -13.327673 
L 101.166305 -13.327673 
" clip-path="url(#pc4314e4456)"/>
    <path d="M 115.550737 -18.147341 
L 115.550737 -12.274788 
L 117.420714 -12.742282 
L 115.083243 -8.067341 
L 112.745773 -12.742282 
L 114.615749 -12.274788 
L 114.615749 -18.147341 
L 115.550737 -18.147341 
" clip-path="url(#pc4314e4456)"/>
    <path d="M 129.93517 -31.312628 
L 129.93517 -25.440075 
L 131.805146 -25.907569 
L 129.467676 -21.232628 
L 127.130205 -25.907569 
L 129.000182 -25.440075 
L 129.000182 -31.312628 
L 129.93517 -31.312628 
" clip-path="url(#pc4314e4456)"/>
    <path d="M 144.319602 -50.23427 
L 144.319602 -44.361717 
L 146.189578 -44.829211 
L 143.852108 -40.15427 
L 141.514638 -44.829211 
L 143.384614 -44.361717 
L 143.384614 -50.23427 
L 144.319602 -50.23427 
" clip-path="url(#pc4314e4456)"/>
    <path d="M 158.704035 -72.727945 
L 158.704035 -66.855392 
L 160.574011 -67.322886 
L 158.236541 -62.647945 
L 155.89907 -67.322886 
L 157.769046 -66.855392 
L 157.769046 -72.727945 
L 158.704035 -72.727945 
" clip-path="url(#pc4314e4456)"/>
    <path d="M 173.088467 -97.407329 
L 173.088467 -91.534776 
L 174.958443 -92.00227 
L 172.620973 -87.327329 
L 170.283503 -92.00227 
L 172.153479 -91.534776 
L 172.153479 -97.407329 
L 173.088467 -97.407329 
" clip-path="url(#pc4314e4456)"/>
    <path d="M 29.244143 -147.401077 
L 29.244143 -141.528524 
L 31.114119 -141.996018 
L 28.776649 -137.321077 
L 26.439178 -141.996018 
L 28.309155 -141.528524 
L 28.309155 -147.401077 
L 29.244143 -147.401077 
" clip-path="url(#pc4314e4456)"/>
    <path d="M 43.628575 -125.236757 
L 43.628575 -119.364203 
L 45.498551 -119.831697 
L 43.161081 -115.156757 
L 40.823611 -119.831697 
L 42.693587 -119.364203 
L 42.693587 -125.236757 
L 43.628575 -125.236757 
" clip-path="url(#pc4314e4456)"/>
    <path d="M 58.013008 -105.728096 
L 58.013008 -99.855543 
L 59.882984 -100.323037 
L 57.545514 -95.648096 
L 55.208043 -100.323037 
L 57.078019 -99.855543 
L 57.078019 -105.728096 
L 58.013008 -105.728096 
" clip-path="url(#pc4314e4456)"/>
    <path d="M 72.39744 -90.050462 
L 72.39744 -84.177909 
L 74.267416 -84.645403 
L 71.929946 -79.970462 
L 69.592476 -84.645403 
L 71.462452 -84.177909 
L 71.462452 -90.050462 
L 72.39744 -90.050462 
" clip-path="url(#pc4314e4456)"/>
    <path d="M 86.781872 -79.684214 
L 86.781872 -73.81166 
L 88.651849 -74.279155 
L 86.314378 -69.604214 
L 83.976908 -74.279155 
L 85.846884 -73.81166 
L 85.846884 -79.684214 
L 86.781872 -79.684214 
" clip-path="url(#pc4314e4456)"/>
    <path d="M 101.166305 -76.02796 
L 101.166305 -70.155407 
L 103.036281 -70.622901 
L 100.698811 -65.94796 
L 98.361341 -70.622901 
L 100.231317 -70.155407 
L 100.231317 -76.02796 
L 101.166305 -76.02796 
" clip-path="url(#pc4314e4456)"/>
    <path d="M 115.550737 -79.684214 
L 115.550737 -73.81166 
L 117.420714 -74.279155 
L 115.083243 -69.604214 
L 112.745773 -74.279155 
L 114.615749 -73.81166 
L 114.615749 -79.684214 
L 115.550737 -79.684214 
" clip-path="url(#pc4314e4456)"/>
    <path d="M 129.93517 -90.050462 
L 129.93517 -84.177909 
L 131.805146 -84.645403 
L 129.467676 -79.970462 
L 127.130205 -84.645403 
L 129.000182 -84.177909 
L 129.000182 -90.050462 
L 129.93517 -90.050462 
" clip-path="url(#pc4314e4456)"/>
    <path d="M 144.319602 -105.728096 
L 144.319602 -99.855543 
L 146.189578 -100.323037 
L 143.852108 -95.648096 
L 141.514638 -100.323037 
L 143.384614 -99.855543 
L 143.384614 -105.728096 
L 144.319602 -105.728096 
" clip-path="url(#pc4314e4456)"/>
    <path d="M 158.704035 -125.236757 
L 158.704035 -119.364203 
L 160.574011 -119.831697 
L 158.236541 -115.156757 
L 155.89907 -119.831697 
L 157.769046 -119.364203 
L 157.769046 -125.236757 
L 158.704035 -125.236757 
" clip-path="url(#pc4314e4456)"/>
    <path d="M 173.088467 -147.401077 
L 173.088467 -141.528524 
L 174.958443 -141.996018 
L 172.620973 -137.321077 
L 170.283503 -141.996018 
L 172.153479 -141.528524 
L 172.153479 -147.401077 
L 173.088467 -147.401077 
" clip-path="url(#pc4314e4456)"/>
    <path d="M 29.244143 -200.239243 
L 29.244143 -194.36669 
L 31.114119 -194.834184 
L 28.776649 -190.159243 
L 26.439178 -194.834184 
L 28.309155 -194.36669 
L 28.309155 -200.239243 
L 29.244143 -200.239243 
" clip-path="url(#pc4314e4456)"/>
    <path d="M 43.628575 -180.401228 
L 43.628575 -174.528675 
L 45.498551 -174.996169 
L 43.161081 -170.321228 
L 40.823611 -174.996169 
L 42.693587 -174.528675 
L 42.693587 -180.401228 
L 43.628575 -180.401228 
" clip-path="url(#pc4314e4456)"/>
    <path d="M 58.013008 -163.407632 
L 58.013008 -157.535078 
L 59.882984 -158.002572 
L 57.545514 -153.327632 
L 55.208043 -158.002572 
L 57.078019 -157.535078 
L 57.078019 -163.407632 
L 58.013008 -163.407632 
" clip-path="url(#pc4314e4456)"/>
    <path d="M 72.39744 -150.167695 
L 72.39744 -144.295141 
L 74.267416 -144.762635 
L 71.929946 -140.087695 
L 69.592476 -144.762635 
L 71.462452 -144.295141 
L 71.462452 -150.167695 
L 72.39744 -150.167695 
" clip-path="url(#pc4314e4456)"/>
    <path d="M 86.781872 -141.669141 
L 86.781872 -135.796587 
L 88.651849 -136.264081 
L 86.314378 -131.589141 
L 83.976908 -136.264081 
L 85.846884 -135.796587 
L 85.846884 -141.669141 
L 86.781872 -141.669141 
" clip-path="url(#pc4314e4456)"/>
    <path d="M 101.166305 -138.728247 
L 101.166305 -132.855694 
L 103.036281 -133.323188 
L 100.698811 -128.648247 
L 98.361341 -133.323188 
L 100.231317 -132.855694 
L 100.231317 -138.728247 
L 101.166305 -138.728247 
" clip-path="url(#pc4314e4456)"/>
    <path d="M 115.550737 -141.669141 
L 115.550737 -135.796587 
L 117.420714 -136.264081 
L 115.083243 -131.589141 
L 112.745773 -136.264081 
L 114.615749 -135.796587 
L 114.615749 -141.669141 
L 115.550737 -141.669141 
" clip-path="url(#pc4314e4456)"/>
    <path d="M 129.93517 -150.167695 
L 129.93517 -144.295141 
L 131.805146 -144.762635 
L 129.467676 -140.087695 
L 127.130205 -144.762635 
L 129.000182 -144.295141 
L 129.000182 -150.167695 
L 129.93517 -150.167695 
" clip-path="url(#pc4314e4456)"/>
    <path d="M 144.319602 -163.407632 
L 144.319602 -157.535078 
L 146.189578 -158.002572 
L 143.852108 -153.327632 
L 141.514638 -158.002572 
L 143.384614 -157.535078 
L 143.384614 -163.407632 
L 144.319602 -163.407632 
" clip-path="url(#pc4314e4456)"/>
    <path d="M 158.704035 -180.401228 
L 158.704035 -174.528675 
L 160.574011 -174.996169 
L 158.236541 -170.321228 
L 155.89907 -174.996169 
L 157.769046 -174.528675 
L 157.769046 -180.401228 
L 158.704035 -180.401228 
" clip-path="url(#pc4314e4456)"/>
    <path d="M 173.088467 -200.239243 
L 173.088467 -194.36669 
L 174.958443 -194.834184 
L 172.620973 -190.159243 
L 170.283503 -194.834184 
L 172.153479 -194.36669 
L 172.153479 -200.239243 
L 173.088467 -200.239243 
" clip-path="url(#pc4314e4456)"/>
   </g>
   <g id="text_1">
    <!-- y' -->
    <g style="fill: #808080" transform="translate(187.005405 172.620973) scale(0.1 -0.1)">
     <defs>
      <path id="DejaVuSans-79" d="M 2059 -325 
Q 1816 -950 1584 -1140 
Q 1353 -1331 966 -1331 
L 506 -1331 
L 506 -850 
L 844 -850 
Q 1081 -850 1212 -737 
Q 1344 -625 1503 -206 
L 1606 56 
L 191 3500 
L 800 3500 
L 1894 763 
L 2988 3500 
L 3597 3500 
L 2059 -325 
z
" transform="scale(0.015625)"/>
      <path id="DejaVuSans-27" d="M 1147 4666 
L 1147 2931 
L 616 2931 
L 616 4666 
L 1147 4666 
z
" transform="scale(0.015625)"/>
     </defs>
     <use xlink:href="#DejaVuSans-79"/>
     <use xlink:href="#DejaVuSans-27" x="59.179688"/>
    </g>
   </g>
   <g id="text_2">
    <!-- z' -->
    <g style="fill: #808080" transform="translate(107.891027 21.584432) scale(0.1 -0.1)">
     <defs>
      <path id="DejaVuSans-7a" d="M 353 3500 
L 3084 3500 
L 3084 2975 
L 922 459 
L 3084 459 
L 3084 0 
L 275 0 
L 275 525 
L 2438 3041 
L 353 3041 
L 353 3500 
z
" transform="scale(0.015625)"/>
     </defs>
     <use xlink:href="#DejaVuSans-7a"/>
     <use xlink:href="#DejaVuSans-27" x="52.490234"/>
    </g>
   </g>
  </g>
 </g>
 <defs>
  <clipPath id="pc4314e4456">
   <rect x="7.2" y="7.2" width="186.997622" height="266.112"/>
  </clipPath>
 </defs>
</svg>
