<svg data-optimized="true" xmlns="http://www.w3.org/2000/svg" xmlns:xlink="http://www.w3.org/1999/xlink" width="626.174" height="287.845" viewBox="0 0 469.631 215.883"><defs><style>*{stroke-linejoin:round;stroke-linecap:butt}</style></defs><g id="figure_1"><path id="patch_1" d="M0 215.883h469.63V0H0z" style="fill:none"/><g id="axes_1"><path id="patch_2" d="m116.337 107.942-4.198 2.728.98-2.726H7.2v-.004h105.919l-.98-2.727z" clip-path="url(#pd2aad7b598)" style="stroke:#000;stroke-linejoin:miter"/><path id="patch_3" d="m61.768 7.2 2.729 4.198-2.726-.98v198.265h-.005V10.418l-2.726.98z" clip-path="url(#pd2aad7b598)" style="stroke:#000;stroke-linejoin:miter"/><path id="patch_4" d="m11.398 91.151 2.728 4.198-2.726-.98v13.573h-.005V94.37l-2.726.979z" clip-path="url(#pd2aad7b598)" style="fill:gray;stroke:gray;stroke-linejoin:miter"/><path id="patch_5" d="m11.398 95.349 2.728 4.198-2.726-.98v9.375h-.005v-9.375l-2.726.98z" clip-path="url(#pd2aad7b598)" style="fill:gray;stroke:gray;stroke-linejoin:miter"/><g id="line2d_1"><defs><path id="m4fda342219" d="M0 .5a.5.5 0 1 0 0-1 .5.5 0 0 0 0 1z" style="stroke:#000"/></defs><g clip-path="url(#pd2aad7b598)"><use xlink:href="#m4fda342219" x="19.793" y="149.917" style="stroke:#000"/><use xlink:href="#m4fda342219" x="19.793" y="141.522" style="stroke:#000"/><use xlink:href="#m4fda342219" x="19.793" y="133.127" style="stroke:#000"/><use xlink:href="#m4fda342219" x="19.793" y="124.732" style="stroke:#000"/><use xlink:href="#m4fda342219" x="19.793" y="116.337" style="stroke:#000"/><use xlink:href="#m4fda342219" x="19.793" y="107.942" style="stroke:#000"/><use xlink:href="#m4fda342219" x="19.793" y="99.547" style="stroke:#000"/><use xlink:href="#m4fda342219" x="19.793" y="91.151" style="stroke:#000"/><use xlink:href="#m4fda342219" x="19.793" y="82.756" style="stroke:#000"/><use xlink:href="#m4fda342219" x="19.793" y="74.361" style="stroke:#000"/><use xlink:href="#m4fda342219" x="19.793" y="65.966" style="stroke:#000"/></g></g><g id="line2d_2" clip-path="url(#pd2aad7b598)"><use xlink:href="#m4fda342219" x="28.188" y="149.917" style="stroke:#000"/><use xlink:href="#m4fda342219" x="28.188" y="141.522" style="stroke:#000"/><use xlink:href="#m4fda342219" x="28.188" y="133.127" style="stroke:#000"/><use xlink:href="#m4fda342219" x="28.188" y="124.732" style="stroke:#000"/><use xlink:href="#m4fda342219" x="28.188" y="116.337" style="stroke:#000"/><use xlink:href="#m4fda342219" x="28.188" y="107.942" style="stroke:#000"/><use xlink:href="#m4fda342219" x="28.188" y="99.547" style="stroke:#000"/><use xlink:href="#m4fda342219" x="28.188" y="91.151" style="stroke:#000"/><use xlink:href="#m4fda342219" x="28.188" y="82.756" style="stroke:#000"/><use xlink:href="#m4fda342219" x="28.188" y="74.361" style="stroke:#000"/><use xlink:href="#m4fda342219" x="28.188" y="65.966" style="stroke:#000"/></g><g id="line2d_3" clip-path="url(#pd2aad7b598)"><use xlink:href="#m4fda342219" x="36.583" y="149.917" style="stroke:#000"/><use xlink:href="#m4fda342219" x="36.583" y="141.522" style="stroke:#000"/><use xlink:href="#m4fda342219" x="36.583" y="133.127" style="stroke:#000"/><use xlink:href="#m4fda342219" x="36.583" y="124.732" style="stroke:#000"/><use xlink:href="#m4fda342219" x="36.583" y="116.337" style="stroke:#000"/><use xlink:href="#m4fda342219" x="36.583" y="107.942" style="stroke:#000"/><use xlink:href="#m4fda342219" x="36.583" y="99.547" style="stroke:#000"/><use xlink:href="#m4fda342219" x="36.583" y="91.151" style="stroke:#000"/><use xlink:href="#m4fda342219" x="36.583" y="82.756" style="stroke:#000"/><use xlink:href="#m4fda342219" x="36.583" y="74.361" style="stroke:#000"/><use xlink:href="#m4fda342219" x="36.583" y="65.966" style="stroke:#000"/></g><g id="line2d_4" clip-path="url(#pd2aad7b598)"><use xlink:href="#m4fda342219" x="44.978" y="149.917" style="stroke:#000"/><use xlink:href="#m4fda342219" x="44.978" y="141.522" style="stroke:#000"/><use xlink:href="#m4fda342219" x="44.978" y="133.127" style="stroke:#000"/><use xlink:href="#m4fda342219" x="44.978" y="124.732" style="stroke:#000"/><use xlink:href="#m4fda342219" x="44.978" y="116.337" style="stroke:#000"/><use xlink:href="#m4fda342219" x="44.978" y="107.942" style="stroke:#000"/><use xlink:href="#m4fda342219" x="44.978" y="99.547" style="stroke:#000"/><use xlink:href="#m4fda342219" x="44.978" y="91.151" style="stroke:#000"/><use xlink:href="#m4fda342219" x="44.978" y="82.756" style="stroke:#000"/><use xlink:href="#m4fda342219" x="44.978" y="74.361" style="stroke:#000"/><use xlink:href="#m4fda342219" x="44.978" y="65.966" style="stroke:#000"/></g><g id="line2d_5" clip-path="url(#pd2aad7b598)"><use xlink:href="#m4fda342219" x="53.373" y="149.917" style="stroke:#000"/><use xlink:href="#m4fda342219" x="53.373" y="141.522" style="stroke:#000"/><use xlink:href="#m4fda342219" x="53.373" y="133.127" style="stroke:#000"/><use xlink:href="#m4fda342219" x="53.373" y="124.732" style="stroke:#000"/><use xlink:href="#m4fda342219" x="53.373" y="116.337" style="stroke:#000"/><use xlink:href="#m4fda342219" x="53.373" y="107.942" style="stroke:#000"/><use xlink:href="#m4fda342219" x="53.373" y="99.547" style="stroke:#000"/><use xlink:href="#m4fda342219" x="53.373" y="91.151" style="stroke:#000"/><use xlink:href="#m4fda342219" x="53.373" y="82.756" style="stroke:#000"/><use xlink:href="#m4fda342219" x="53.373" y="74.361" style="stroke:#000"/><use xlink:href="#m4fda342219" x="53.373" y="65.966" style="stroke:#000"/></g><g id="line2d_6" clip-path="url(#pd2aad7b598)"><use xlink:href="#m4fda342219" x="61.768" y="149.917" style="stroke:#000"/><use xlink:href="#m4fda342219" x="61.768" y="141.522" style="stroke:#000"/><use xlink:href="#m4fda342219" x="61.768" y="133.127" style="stroke:#000"/><use xlink:href="#m4fda342219" x="61.768" y="124.732" style="stroke:#000"/><use xlink:href="#m4fda342219" x="61.768" y="116.337" style="stroke:#000"/><use xlink:href="#m4fda342219" x="61.768" y="107.942" style="stroke:#000"/><use xlink:href="#m4fda342219" x="61.768" y="99.547" style="stroke:#000"/><use xlink:href="#m4fda342219" x="61.768" y="91.151" style="stroke:#000"/><use xlink:href="#m4fda342219" x="61.768" y="82.756" style="stroke:#000"/><use xlink:href="#m4fda342219" x="61.768" y="74.361" style="stroke:#000"/><use xlink:href="#m4fda342219" x="61.768" y="65.966" style="stroke:#000"/></g><g id="line2d_7" clip-path="url(#pd2aad7b598)"><use xlink:href="#m4fda342219" x="70.164" y="149.917" style="stroke:#000"/><use xlink:href="#m4fda342219" x="70.164" y="141.522" style="stroke:#000"/><use xlink:href="#m4fda342219" x="70.164" y="133.127" style="stroke:#000"/><use xlink:href="#m4fda342219" x="70.164" y="124.732" style="stroke:#000"/><use xlink:href="#m4fda342219" x="70.164" y="116.337" style="stroke:#000"/><use xlink:href="#m4fda342219" x="70.164" y="107.942" style="stroke:#000"/><use xlink:href="#m4fda342219" x="70.164" y="99.547" style="stroke:#000"/><use xlink:href="#m4fda342219" x="70.164" y="91.151" style="stroke:#000"/><use xlink:href="#m4fda342219" x="70.164" y="82.756" style="stroke:#000"/><use xlink:href="#m4fda342219" x="70.164" y="74.361" style="stroke:#000"/><use xlink:href="#m4fda342219" x="70.164" y="65.966" style="stroke:#000"/></g><g id="line2d_8" clip-path="url(#pd2aad7b598)"><use xlink:href="#m4fda342219" x="78.559" y="149.917" style="stroke:#000"/><use xlink:href="#m4fda342219" x="78.559" y="141.522" style="stroke:#000"/><use xlink:href="#m4fda342219" x="78.559" y="133.127" style="stroke:#000"/><use xlink:href="#m4fda342219" x="78.559" y="124.732" style="stroke:#000"/><use xlink:href="#m4fda342219" x="78.559" y="116.337" style="stroke:#000"/><use xlink:href="#m4fda342219" x="78.559" y="107.942" style="stroke:#000"/><use xlink:href="#m4fda342219" x="78.559" y="99.547" style="stroke:#000"/><use xlink:href="#m4fda342219" x="78.559" y="91.151" style="stroke:#000"/><use xlink:href="#m4fda342219" x="78.559" y="82.756" style="stroke:#000"/><use xlink:href="#m4fda342219" x="78.559" y="74.361" style="stroke:#000"/><use xlink:href="#m4fda342219" x="78.559" y="65.966" style="stroke:#000"/></g><g id="line2d_9" clip-path="url(#pd2aad7b598)"><use xlink:href="#m4fda342219" x="86.954" y="149.917" style="stroke:#000"/><use xlink:href="#m4fda342219" x="86.954" y="141.522" style="stroke:#000"/><use xlink:href="#m4fda342219" x="86.954" y="133.127" style="stroke:#000"/><use xlink:href="#m4fda342219" x="86.954" y="124.732" style="stroke:#000"/><use xlink:href="#m4fda342219" x="86.954" y="116.337" style="stroke:#000"/><use xlink:href="#m4fda342219" x="86.954" y="107.942" style="stroke:#000"/><use xlink:href="#m4fda342219" x="86.954" y="99.547" style="stroke:#000"/><use xlink:href="#m4fda342219" x="86.954" y="91.151" style="stroke:#000"/><use xlink:href="#m4fda342219" x="86.954" y="82.756" style="stroke:#000"/><use xlink:href="#m4fda342219" x="86.954" y="74.361" style="stroke:#000"/><use xlink:href="#m4fda342219" x="86.954" y="65.966" style="stroke:#000"/></g><g id="line2d_10" clip-path="url(#pd2aad7b598)"><use xlink:href="#m4fda342219" x="95.349" y="149.917" style="stroke:#000"/><use xlink:href="#m4fda342219" x="95.349" y="141.522" style="stroke:#000"/><use xlink:href="#m4fda342219" x="95.349" y="133.127" style="stroke:#000"/><use xlink:href="#m4fda342219" x="95.349" y="124.732" style="stroke:#000"/><use xlink:href="#m4fda342219" x="95.349" y="116.337" style="stroke:#000"/><use xlink:href="#m4fda342219" x="95.349" y="107.942" style="stroke:#000"/><use xlink:href="#m4fda342219" x="95.349" y="99.547" style="stroke:#000"/><use xlink:href="#m4fda342219" x="95.349" y="91.151" style="stroke:#000"/><use xlink:href="#m4fda342219" x="95.349" y="82.756" style="stroke:#000"/><use xlink:href="#m4fda342219" x="95.349" y="74.361" style="stroke:#000"/><use xlink:href="#m4fda342219" x="95.349" y="65.966" style="stroke:#000"/></g><g id="line2d_11" clip-path="url(#pd2aad7b598)"><use xlink:href="#m4fda342219" x="103.744" y="149.917" style="stroke:#000"/><use xlink:href="#m4fda342219" x="103.744" y="141.522" style="stroke:#000"/><use xlink:href="#m4fda342219" x="103.744" y="133.127" style="stroke:#000"/><use xlink:href="#m4fda342219" x="103.744" y="124.732" style="stroke:#000"/><use xlink:href="#m4fda342219" x="103.744" y="116.337" style="stroke:#000"/><use xlink:href="#m4fda342219" x="103.744" y="107.942" style="stroke:#000"/><use xlink:href="#m4fda342219" x="103.744" y="99.547" style="stroke:#000"/><use xlink:href="#m4fda342219" x="103.744" y="91.151" style="stroke:#000"/><use xlink:href="#m4fda342219" x="103.744" y="82.756" style="stroke:#000"/><use xlink:href="#m4fda342219" x="103.744" y="74.361" style="stroke:#000"/><use xlink:href="#m4fda342219" x="103.744" y="65.966" style="stroke:#000"/></g><g id="text_1" transform="matrix(.1 0 0 -.1 112.14 103.744)"><defs><path id="DejaVuSans-79" d="M2059-325q-243-625-475-815-231-191-618-191H506v481h338q237 0 368 113 132 112 291 531l103 262L191 3500h609L1894 763l1094 2737h609z" transform="scale(.01563)"/></defs><use xlink:href="#DejaVuSans-79"/></g><g id="text_2" transform="matrix(.1 0 0 -.1 65.966 15.595)"><defs><path id="DejaVuSans-7a" d="M353 3500h2731v-525L922 459h2162V0H275v525l2163 2516H353z" transform="scale(.01563)"/></defs><use xlink:href="#DejaVuSans-7a"/></g><g id="text_3" style="fill:gray" transform="matrix(.1 0 0 -.1 7.2 86.954)"><defs><path id="DejaVuSans-76" d="M191 3500h609L1894 563l1094 2937h609L2284 0h-781z" transform="scale(.01563)"/></defs><use xlink:href="#DejaVuSans-76"/></g><g id="text_4" transform="matrix(.1 0 0 -.1 124.732 86.954)"><defs><path id="DejaVuSans-74" d="M1172 4494v-994h1184v-447H1172V1153q0-428 117-550t477-122h590V0h-590q-666 0-919 248-253 249-253 905v1900H172v447h422v994z" transform="scale(.01563)"/><path id="DejaVuSans-27" d="M1147 4666V2931H616v1735z" transform="scale(.01563)"/><path id="DejaVuSans-3d" d="M678 2906h4006v-525H678zm0-1275h4006v-531H678z" transform="scale(.01563)"/><path id="DejaVuSans-30" d="M2034 4250q-487 0-733-480-245-479-245-1442 0-959 245-1439 246-480 733-480 491 0 736 480 246 480 246 1439 0 963-246 1442-245 480-736 480m0 500q785 0 1199-621 414-620 414-1801 0-1178-414-1799Q2819-91 2034-91q-784 0-1198 620-414 621-414 1799 0 1181 414 1801 414 621 1198 621" transform="scale(.01563)"/></defs><use xlink:href="#DejaVuSans-74"/><use xlink:href="#DejaVuSans-27" x="39.209"/><use xlink:href="#DejaVuSans-3d" x="98.486"/><use xlink:href="#DejaVuSans-30" x="214.063"/></g></g><g id="axes_2"><path id="patch_6" d="m269.128 107.942-4.197 2.728.98-2.726H159.99v-.004h105.92l-.98-2.727z" clip-path="url(#p1b008ed132)" style="fill:gray;stroke:gray;stroke-linejoin:miter"/><path id="patch_7" d="m214.56 7.2 2.728 4.198-2.726-.98v198.265h-.004V10.418l-2.726.98z" clip-path="url(#p1b008ed132)" style="fill:gray;stroke:gray;stroke-linejoin:miter"/><g id="line2d_12" clip-path="url(#p1b008ed132)"><use xlink:href="#m4fda342219" x="203.379" y="49.641" style="stroke:#000"/><use xlink:href="#m4fda342219" x="202.848" y="55.478" style="stroke:#000"/><use xlink:href="#m4fda342219" x="202.054" y="60.614" style="stroke:#000"/><use xlink:href="#m4fda342219" x="200.847" y="64.862" style="stroke:#000"/><use xlink:href="#m4fda342219" x="199.008" y="68.059" style="stroke:#000"/><use xlink:href="#m4fda342219" x="196.263" y="70.163" style="stroke:#000"/><use xlink:href="#m4fda342219" x="192.342" y="71.352" style="stroke:#000"/><use xlink:href="#m4fda342219" x="187.077" y="72.045" style="stroke:#000"/><use xlink:href="#m4fda342219" x="180.485" y="72.797" style="stroke:#000"/><use xlink:href="#m4fda342219" x="172.765" y="74.136" style="stroke:#000"/><use xlink:href="#m4fda342219" x="164.24" y="76.449" style="stroke:#000"/></g><g id="line2d_13" clip-path="url(#p1b008ed132)"><use xlink:href="#m4fda342219" x="205.964" y="54.878" style="stroke:#000"/><use xlink:href="#m4fda342219" x="205.615" y="61.301" style="stroke:#000"/><use xlink:href="#m4fda342219" x="205.055" y="67.056" style="stroke:#000"/><use xlink:href="#m4fda342219" x="204.123" y="71.877" style="stroke:#000"/><use xlink:href="#m4fda342219" x="202.545" y="75.479" style="stroke:#000"/><use xlink:href="#m4fda342219" x="199.923" y="77.719" style="stroke:#000"/><use xlink:href="#m4fda342219" x="195.835" y="78.829" style="stroke:#000"/><use xlink:href="#m4fda342219" x="190.063" y="79.491" style="stroke:#000"/><use xlink:href="#m4fda342219" x="182.74" y="80.566" style="stroke:#000"/><use xlink:href="#m4fda342219" x="174.304" y="82.747" style="stroke:#000"/><use xlink:href="#m4fda342219" x="165.313" y="86.395" style="stroke:#000"/></g><g id="line2d_14" clip-path="url(#p1b008ed132)"><use xlink:href="#m4fda342219" x="208.364" y="59.383" style="stroke:#000"/><use xlink:href="#m4fda342219" x="208.177" y="66.454" style="stroke:#000"/><use xlink:href="#m4fda342219" x="207.851" y="72.961" style="stroke:#000"/><use xlink:href="#m4fda342219" x="207.237" y="78.571" style="stroke:#000"/><use xlink:href="#m4fda342219" x="206.014" y="82.807" style="stroke:#000"/><use xlink:href="#m4fda342219" x="203.582" y="85.274" style="stroke:#000"/><use xlink:href="#m4fda342219" x="199.215" y="86.278" style="stroke:#000"/><use xlink:href="#m4fda342219" x="192.638" y="87.07" style="stroke:#000"/><use xlink:href="#m4fda342219" x="184.368" y="89.046" style="stroke:#000"/><use xlink:href="#m4fda342219" x="175.354" y="92.949" style="stroke:#000"/><use xlink:href="#m4fda342219" x="166.466" y="98.824" style="stroke:#000"/></g><g id="line2d_15" clip-path="url(#p1b008ed132)"><use xlink:href="#m4fda342219" x="210.573" y="62.908" style="stroke:#000"/><use xlink:href="#m4fda342219" x="210.505" y="70.617" style="stroke:#000"/><use xlink:href="#m4fda342219" x="210.375" y="77.963" style="stroke:#000"/><use xlink:href="#m4fda342219" x="210.088" y="84.621" style="stroke:#000"/><use xlink:href="#m4fda342219" x="209.342" y="89.909" style="stroke:#000"/><use xlink:href="#m4fda342219" x="207.241" y="92.83" style="stroke:#000"/><use xlink:href="#m4fda342219" x="202.311" y="93.716" style="stroke:#000"/><use xlink:href="#m4fda342219" x="194.432" y="95.344" style="stroke:#000"/><use xlink:href="#m4fda342219" x="185.421" y="99.751" style="stroke:#000"/><use xlink:href="#m4fda342219" x="177.033" y="106.867" style="stroke:#000"/><use xlink:href="#m4fda342219" x="170.037" y="115.771" style="stroke:#000"/></g><g id="line2d_16" clip-path="url(#p1b008ed132)"><use xlink:href="#m4fda342219" x="212.616" y="65.178" style="stroke:#000"/><use xlink:href="#m4fda342219" x="212.606" y="73.382" style="stroke:#000"/><use xlink:href="#m4fda342219" x="212.586" y="81.467" style="stroke:#000"/><use xlink:href="#m4fda342219" x="212.533" y="89.279" style="stroke:#000"/><use xlink:href="#m4fda342219" x="212.324" y="96.281" style="stroke:#000"/><use xlink:href="#m4fda342219" x="210.901" y="100.386" style="stroke:#000"/><use xlink:href="#m4fda342219" x="204.496" y="101.643" style="stroke:#000"/><use xlink:href="#m4fda342219" x="195.797" y="107.403" style="stroke:#000"/><use xlink:href="#m4fda342219" x="189.53" y="116.779" style="stroke:#000"/><use xlink:href="#m4fda342219" x="185.719" y="127.074" style="stroke:#000"/><use xlink:href="#m4fda342219" x="183.413" y="137.299" style="stroke:#000"/></g><g id="line2d_17" clip-path="url(#p1b008ed132)"><use xlink:href="#m4fda342219" x="214.56" y="65.966" style="stroke:#000"/><use xlink:href="#m4fda342219" x="214.56" y="74.361" style="stroke:#000"/><use xlink:href="#m4fda342219" x="214.56" y="82.756" style="stroke:#000"/><use xlink:href="#m4fda342219" x="214.56" y="91.151" style="stroke:#000"/><use xlink:href="#m4fda342219" x="214.56" y="99.546" style="stroke:#000"/><use xlink:href="#m4fda342219" x="214.56" y="107.941" style="stroke:#000"/><use xlink:href="#m4fda342219" x="214.56" y="116.329" style="stroke:#000"/><use xlink:href="#m4fda342219" x="214.56" y="124.724" style="stroke:#000"/><use xlink:href="#m4fda342219" x="214.56" y="133.12" style="stroke:#000"/><use xlink:href="#m4fda342219" x="214.56" y="141.515" style="stroke:#000"/><use xlink:href="#m4fda342219" x="214.56" y="149.91" style="stroke:#000"/></g><g id="line2d_18" clip-path="url(#p1b008ed132)"><use xlink:href="#m4fda342219" x="216.504" y="65.178" style="stroke:#000"/><use xlink:href="#m4fda342219" x="216.514" y="73.382" style="stroke:#000"/><use xlink:href="#m4fda342219" x="216.534" y="81.467" style="stroke:#000"/><use xlink:href="#m4fda342219" x="216.587" y="89.279" style="stroke:#000"/><use xlink:href="#m4fda342219" x="216.796" y="96.281" style="stroke:#000"/><use xlink:href="#m4fda342219" x="218.219" y="100.386" style="stroke:#000"/><use xlink:href="#m4fda342219" x="224.624" y="101.643" style="stroke:#000"/><use xlink:href="#m4fda342219" x="233.323" y="107.403" style="stroke:#000"/><use xlink:href="#m4fda342219" x="239.59" y="116.779" style="stroke:#000"/><use xlink:href="#m4fda342219" x="243.401" y="127.074" style="stroke:#000"/><use xlink:href="#m4fda342219" x="245.707" y="137.299" style="stroke:#000"/></g><g id="line2d_19" clip-path="url(#p1b008ed132)"><use xlink:href="#m4fda342219" x="218.547" y="62.908" style="stroke:#000"/><use xlink:href="#m4fda342219" x="218.615" y="70.617" style="stroke:#000"/><use xlink:href="#m4fda342219" x="218.745" y="77.963" style="stroke:#000"/><use xlink:href="#m4fda342219" x="219.032" y="84.621" style="stroke:#000"/><use xlink:href="#m4fda342219" x="219.778" y="89.909" style="stroke:#000"/><use xlink:href="#m4fda342219" x="221.879" y="92.83" style="stroke:#000"/><use xlink:href="#m4fda342219" x="226.809" y="93.716" style="stroke:#000"/><use xlink:href="#m4fda342219" x="234.688" y="95.344" style="stroke:#000"/><use xlink:href="#m4fda342219" x="243.699" y="99.751" style="stroke:#000"/><use xlink:href="#m4fda342219" x="252.087" y="106.867" style="stroke:#000"/><use xlink:href="#m4fda342219" x="259.083" y="115.771" style="stroke:#000"/></g><g id="line2d_20" clip-path="url(#p1b008ed132)"><use xlink:href="#m4fda342219" x="220.756" y="59.383" style="stroke:#000"/><use xlink:href="#m4fda342219" x="220.943" y="66.454" style="stroke:#000"/><use xlink:href="#m4fda342219" x="221.269" y="72.961" style="stroke:#000"/><use xlink:href="#m4fda342219" x="221.883" y="78.571" style="stroke:#000"/><use xlink:href="#m4fda342219" x="223.106" y="82.807" style="stroke:#000"/><use xlink:href="#m4fda342219" x="225.538" y="85.274" style="stroke:#000"/><use xlink:href="#m4fda342219" x="229.905" y="86.278" style="stroke:#000"/><use xlink:href="#m4fda342219" x="236.482" y="87.07" style="stroke:#000"/><use xlink:href="#m4fda342219" x="244.752" y="89.046" style="stroke:#000"/><use xlink:href="#m4fda342219" x="253.766" y="92.949" style="stroke:#000"/><use xlink:href="#m4fda342219" x="262.654" y="98.824" style="stroke:#000"/></g><g id="line2d_21" clip-path="url(#p1b008ed132)"><use xlink:href="#m4fda342219" x="223.156" y="54.878" style="stroke:#000"/><use xlink:href="#m4fda342219" x="223.505" y="61.301" style="stroke:#000"/><use xlink:href="#m4fda342219" x="224.065" y="67.056" style="stroke:#000"/><use xlink:href="#m4fda342219" x="224.997" y="71.877" style="stroke:#000"/><use xlink:href="#m4fda342219" x="226.575" y="75.479" style="stroke:#000"/><use xlink:href="#m4fda342219" x="229.197" y="77.719" style="stroke:#000"/><use xlink:href="#m4fda342219" x="233.285" y="78.829" style="stroke:#000"/><use xlink:href="#m4fda342219" x="239.057" y="79.491" style="stroke:#000"/><use xlink:href="#m4fda342219" x="246.38" y="80.566" style="stroke:#000"/><use xlink:href="#m4fda342219" x="254.816" y="82.747" style="stroke:#000"/><use xlink:href="#m4fda342219" x="263.807" y="86.395" style="stroke:#000"/></g><g id="line2d_22" clip-path="url(#p1b008ed132)"><use xlink:href="#m4fda342219" x="225.741" y="49.641" style="stroke:#000"/><use xlink:href="#m4fda342219" x="226.272" y="55.478" style="stroke:#000"/><use xlink:href="#m4fda342219" x="227.066" y="60.614" style="stroke:#000"/><use xlink:href="#m4fda342219" x="228.273" y="64.862" style="stroke:#000"/><use xlink:href="#m4fda342219" x="230.112" y="68.059" style="stroke:#000"/><use xlink:href="#m4fda342219" x="232.857" y="70.163" style="stroke:#000"/><use xlink:href="#m4fda342219" x="236.778" y="71.352" style="stroke:#000"/><use xlink:href="#m4fda342219" x="242.043" y="72.045" style="stroke:#000"/><use xlink:href="#m4fda342219" x="248.635" y="72.797" style="stroke:#000"/><use xlink:href="#m4fda342219" x="256.355" y="74.136" style="stroke:#000"/><use xlink:href="#m4fda342219" x="264.88" y="76.449" style="stroke:#000"/></g><g id="text_5" style="fill:gray" transform="matrix(.1 0 0 -.1 264.93 103.744)"><use xlink:href="#DejaVuSans-79"/><use xlink:href="#DejaVuSans-27" x="59.18"/></g><g id="text_6" style="fill:gray" transform="matrix(.1 0 0 -.1 218.758 15.595)"><use xlink:href="#DejaVuSans-7a"/><use xlink:href="#DejaVuSans-27" x="52.49"/></g><g id="text_7" transform="matrix(.1 0 0 -.1 277.524 86.954)"><defs><path id="DejaVuSans-72" d="M2631 2963q-97 56-211 82-114 27-251 27-488 0-749-317t-261-911V0H581v3500h578v-544q182 319 472 473 291 155 707 155 59 0 131-8 72-7 159-23z" transform="scale(.01563)"/><path id="DejaVuSans-6f" d="M1959 3097q-462 0-731-361t-269-989 267-989q268-361 733-361 460 0 728 362 269 363 269 988 0 622-269 986-268 364-728 364m0 487q750 0 1178-488 429-487 429-1349 0-859-429-1349Q2709-91 1959-91q-753 0-1180 489-426 490-426 1349 0 862 426 1349 427 488 1180 488" transform="scale(.01563)"/><path id="DejaVuSans-61" d="M2194 1759q-697 0-966-159t-269-544q0-306 202-486 202-179 548-179 479 0 768 339t289 901v128zm1147 238V0h-575v531q-197-318-491-470T1556-91q-537 0-855 302-317 302-317 808 0 590 395 890 396 300 1180 300h807v57q0 397-261 614t-733 217q-300 0-585-72-284-72-546-216v532q315 122 612 182 297 61 578 61 760 0 1135-394 375-393 375-1193" transform="scale(.01563)"/><path id="DejaVuSans-65" d="M3597 1894v-281H953q38-594 358-905t892-311q331 0 642 81t618 244V178Q3153 47 2828-22t-659-69q-838 0-1327 487-489 488-489 1320 0 859 464 1363 464 505 1252 505 706 0 1117-455 411-454 411-1235m-575 169q-6 471-264 752-258 282-683 282-481 0-770-272t-333-766z" transform="scale(.01563)"/><path id="DejaVuSans-64" d="M2906 2969v1894h575V0h-575v525q-181-312-458-464-276-152-664-152-634 0-1033 506-398 507-398 1332t398 1331q399 506 1033 506 388 0 664-152 277-151 458-463M947 1747q0-634 261-995t717-361 718 361q263 361 263 995t-263 995q-262 361-718 361t-717-361-261-995" transform="scale(.01563)"/></defs><use xlink:href="#DejaVuSans-72"/><use xlink:href="#DejaVuSans-6f" x="38.863"/><use xlink:href="#DejaVuSans-74" x="100.045"/><use xlink:href="#DejaVuSans-61" x="139.254"/><use xlink:href="#DejaVuSans-74" x="200.533"/><use xlink:href="#DejaVuSans-65" x="239.742"/><use xlink:href="#DejaVuSans-64" x="301.266"/></g></g><g id="axes_3"><path id="patch_8" d="m421.92 107.942-4.198 2.728.98-2.726H312.783v-.004h105.919l-.98-2.727z" clip-path="url(#pc1ae6a73c9)" style="fill:gray;stroke:gray;stroke-linejoin:miter"/><path id="patch_9" d="m367.352 7.2 2.728 4.198-2.726-.98v198.265h-.005V10.418l-2.726.98z" clip-path="url(#pc1ae6a73c9)" style="fill:gray;stroke:gray;stroke-linejoin:miter"/><g id="Quiver_1"><path d="M325.649-115.967v7.625l1.091-.273-1.364 2.728-1.364-2.728 1.091.273v-7.625zm8.395 11.578v7.625l1.091-.273-1.364 2.728-1.364-2.728 1.091.273v-7.625zm8.395 9.919v7.624l1.091-.273-1.364 2.728-1.364-2.728 1.091.273v-7.625zm8.395 7.727v7.624l1.092-.273-1.365 2.729-1.364-2.729 1.091.273v-7.624zm8.396 4.96v7.624l1.09-.273-1.364 2.729-1.364-2.729 1.092.273v-7.624zm8.394 1.716v7.624l1.092-.272-1.364 2.728-1.365-2.728 1.092.272v-7.624zm8.396-1.716v7.624l1.09-.273-1.363 2.729-1.364-2.729 1.09.273v-7.624zm8.395-4.96v7.624l1.091-.273-1.364 2.729-1.364-2.729 1.091.273v-7.624zm8.395-7.727v7.624l1.091-.273-1.364 2.728-1.364-2.728 1.091.273v-7.625zm8.395-9.919v7.625l1.091-.273-1.364 2.728-1.364-2.728 1.091.273v-7.625zm8.395-11.578v7.625l1.091-.273-1.364 2.728-1.364-2.728 1.091.273v-7.625zm-83.951 30.838v7.625l1.091-.273-1.364 2.728-1.364-2.728 1.091.273v-7.625zm8.395 12.936v7.624l1.091-.272-1.364 2.728-1.364-2.728 1.091.272v-7.624zm8.395 11.386v7.624l1.091-.273-1.364 2.729-1.364-2.729 1.091.273v-7.624zm8.395 9.15v7.624l1.092-.273-1.365 2.729-1.364-2.729 1.091.273v-7.624zm8.396 6.05v7.624l1.09-.273-1.364 2.729-1.364-2.729 1.092.273v-7.624zm8.394 2.134v7.624l1.092-.273-1.364 2.729-1.365-2.729 1.092.273v-7.624zm8.396-2.134v7.624l1.09-.273-1.363 2.729-1.364-2.729 1.09.273v-7.624zm8.395-6.05v7.624l1.091-.273-1.364 2.729-1.364-2.729 1.091.273v-7.624zm8.395-9.15v7.624l1.091-.273-1.364 2.729-1.364-2.729 1.091.273v-7.624zm8.395-11.386v7.624l1.091-.272-1.364 2.728-1.364-2.728 1.091.272v-7.624zm8.395-12.936v7.625l1.091-.273-1.364 2.728-1.364-2.728 1.091.273v-7.625zm-83.951 29.178v7.624l1.091-.272-1.364 2.728-1.364-2.728 1.091.272v-7.624zm8.395 14.404v7.624l1.091-.273-1.364 2.729-1.364-2.729 1.091.273v-7.624zm8.395 13.127v7.625l1.091-.273-1.364 2.728-1.364-2.728 1.091.273v-7.625zm8.395 11.044v7.624l1.092-.273-1.365 2.729-1.364-2.729 1.091.273v-7.624zm8.396 7.683v7.625l1.09-.273-1.364 2.728-1.364-2.728 1.092.273v-7.625zm8.394 2.813V.745l1.092-.273-1.364 2.728-1.365-2.728 1.092.273V-6.88zm8.396-2.813v7.625l1.09-.273-1.363 2.728-1.364-2.728 1.09.273v-7.625zm8.395-7.683v7.624l1.091-.273-1.364 2.729-1.364-2.729 1.091.273v-7.624zm8.395-11.044v7.625l1.091-.273-1.364 2.728-1.364-2.728 1.091.273v-7.625zm8.395-13.127v7.624l1.091-.273-1.364 2.729-1.364-2.729 1.091.273v-7.624zm8.395-14.404v7.624l1.091-.272-1.364 2.728-1.364-2.728 1.091.272v-7.624zm-83.951 26.987v7.624l1.091-.273-1.364 2.729-1.364-2.729 1.091.273v-7.624zm8.395 15.826v7.625l1.091-.273-1.364 2.728-1.364-2.728 1.091.273v-7.625zm8.395 15.021v7.625l1.091-.273-1.364 2.728-1.364-2.728 1.091.273V1.883zm8.395 13.471v7.624l1.092-.273-1.365 2.729-1.364-2.729 1.091.273v-7.624zm8.396 10.268v7.624l1.09-.273-1.364 2.729-1.364-2.729 1.092.273v-7.624zm8.394 4.092v7.624l1.092-.273-1.364 2.729-1.365-2.729 1.092.273v-7.624zm8.396-4.092v7.624l1.09-.273-1.363 2.729-1.364-2.729 1.09.273v-7.624zm8.395-10.268v7.624l1.091-.273-1.364 2.729-1.364-2.729 1.091.273v-7.624zm8.395-13.471v7.625l1.091-.273-1.364 2.728-1.364-2.728 1.091.273V1.883zm8.395-15.021v7.625l1.091-.273-1.364 2.728-1.364-2.728 1.091.273v-7.625zm8.395-15.826v7.624l1.091-.273-1.364 2.729-1.364-2.729 1.091.273v-7.624zm-83.951 24.22V2.88l1.091-.273-1.364 2.729-1.364-2.729 1.091.273v-7.624zm8.395 16.916v7.624l1.091-.272-1.364 2.728-1.364-2.728 1.091.272v-7.624zm8.395 16.655v7.624l1.091-.273-1.364 2.729-1.364-2.729 1.091.273v-7.624zm8.395 16.055v7.624l1.092-.273-1.365 2.729-1.364-2.729 1.091.273v-7.624zm8.396 14.245v7.625l1.09-.273-1.364 2.728-1.364-2.728 1.092.273v-7.625zm8.394 7.18v7.625l1.092-.273-1.364 2.728-1.365-2.728 1.092.273v-7.625zm8.396-7.18v7.625l1.09-.273-1.363 2.728-1.364-2.728 1.09.273v-7.625zm8.395-14.245v7.624l1.091-.273-1.364 2.729-1.364-2.729 1.091.273v-7.624zm8.395-16.055v7.624l1.091-.273-1.364 2.729-1.364-2.729 1.091.273v-7.624zm8.395-16.655v7.624l1.091-.272-1.364 2.728-1.364-2.728 1.091.272v-7.624zM409.6-4.744V2.88l1.091-.273-1.364 2.729-1.364-2.729 1.091.273v-7.624zm-83.951 20.976v7.624l1.091-.273-1.364 2.729-1.364-2.729 1.091.273v-7.624zm8.395 17.334v7.624l1.091-.273-1.364 2.729-1.364-2.729 1.091.273v-7.624zm8.395 17.334v7.624l1.091-.273-1.364 2.728-1.364-2.728 1.091.273v-7.625zm8.395 17.333v7.625l1.092-.273-1.365 2.728-1.364-2.728 1.091.273v-7.625zm8.396 17.334v7.624l1.09-.272-1.364 2.728-1.364-2.728 1.092.272v-7.624zm8.394 17.333v7.625l1.092-.273-1.364 2.729-1.365-2.729 1.092.273v-7.624zm8.396-17.333v7.624l1.09-.272-1.363 2.728-1.364-2.728 1.09.272v-7.624zm8.395-17.334v7.625l1.091-.273-1.364 2.728-1.364-2.728 1.091.273v-7.625zM392.81 50.9v7.624l1.091-.273-1.364 2.728-1.364-2.728 1.091.273v-7.625zm8.395-17.334v7.624l1.091-.273-1.364 2.729-1.364-2.729 1.091.273v-7.624zm8.395-17.334v7.624l1.091-.273-1.364 2.729-1.364-2.729 1.091.273v-7.624zm-83.951 17.543V41.4l1.091-.273-1.364 2.728-1.364-2.728 1.091.273v-7.625zm8.395 16.917v7.624l1.091-.273-1.364 2.729-1.364-2.729 1.091.273v-7.624zm8.395 16.654v7.625l1.091-.273-1.364 2.728-1.364-2.728 1.091.273v-7.625zm8.395 16.055v7.624l1.092-.272-1.365 2.728-1.364-2.728 1.091.272v-7.624zm8.396 14.246v7.624l1.09-.273-1.364 2.729-1.364-2.729 1.092.273v-7.624z" clip-path="url(#pc1ae6a73c9)"/><path d="M367.624 104.827v7.624l1.092-.273-1.364 2.729-1.365-2.729 1.092.273v-7.624zm8.396-7.18v7.624l1.09-.273-1.363 2.729-1.364-2.729 1.09.273v-7.624zm8.395-14.246v7.624l1.091-.272-1.364 2.728-1.364-2.728 1.091.272v-7.624zm8.395-16.055v7.625l1.091-.273-1.364 2.728-1.364-2.728 1.091.273v-7.625zm8.395-16.654v7.624l1.091-.273-1.364 2.729-1.364-2.729 1.091.273v-7.624zm8.395-16.917V41.4l1.091-.273-1.364 2.728-1.364-2.728 1.091.273v-7.625zm-83.951 14.3v7.624l1.091-.272-1.364 2.728-1.364-2.728 1.091.272v-7.624zm8.395 15.826v7.625l1.091-.273-1.364 2.728-1.364-2.728 1.091.273V63.9zm8.395 15.021v7.625l1.091-.273-1.364 2.728-1.364-2.728 1.091.273v-7.625zm8.395 13.471v7.624l1.092-.272-1.365 2.728-1.364-2.728 1.091.272v-7.624zm8.396 10.267v7.625l1.09-.273-1.364 2.729-1.364-2.729 1.092.273v-7.624z" clip-path="url(#pc1ae6a73c9)"/><path d="M367.624 106.753v7.624l1.092-.273-1.364 2.729-1.365-2.729 1.092.273v-7.624zm8.396-4.093v7.625l1.09-.273-1.363 2.729-1.364-2.729 1.09.273v-7.624zm8.395-10.267v7.624l1.091-.272-1.364 2.728-1.364-2.728 1.091.272v-7.624zm8.395-13.471v7.625l1.091-.273-1.364 2.728-1.364-2.728 1.091.273v-7.625zm8.395-15.021v7.625l1.091-.273-1.364 2.728-1.364-2.728 1.091.273V63.9zm8.395-15.826v7.624l1.091-.272-1.364 2.728-1.364-2.728 1.091.272v-7.624zm-83.951 11.533v7.624l1.091-.273-1.364 2.729-1.364-2.729 1.091.273v-7.624zm8.395 14.403v7.625l1.091-.273-1.364 2.728-1.364-2.728 1.091.273V74.01zm8.395 13.129v7.624l1.091-.273-1.364 2.728-1.364-2.728 1.091.273v-7.625zm8.395 11.042v7.625l1.092-.273-1.365 2.728-1.364-2.728 1.091.273v-7.625zm8.396 7.684v7.624l1.09-.273-1.364 2.729-1.364-2.729 1.092.273v-7.624z" clip-path="url(#pc1ae6a73c9)"/><path d="M367.624 108.679v7.624l1.092-.273-1.364 2.729-1.365-2.729 1.092.273v-7.624zm8.396-2.813v7.624l1.09-.273-1.363 2.729-1.364-2.729 1.09.273v-7.624zm8.395-7.684v7.625l1.091-.273-1.364 2.728-1.364-2.728 1.091.273v-7.625zm8.395-11.042v7.624l1.091-.273-1.364 2.728-1.364-2.728 1.091.273v-7.625zm8.395-13.129v7.625l1.091-.273-1.364 2.728-1.364-2.728 1.091.273V74.01zm8.395-14.403v7.624l1.091-.273-1.364 2.729-1.364-2.729 1.091.273v-7.624zm-83.951 9.342v7.624l1.091-.273-1.364 2.728-1.364-2.728 1.091.273v-7.625zm8.395 12.935v7.625l1.091-.273-1.364 2.728-1.364-2.728 1.091.273v-7.625zm8.395 11.385v7.625l1.091-.272-1.364 2.728-1.364-2.728 1.091.272v-7.624zm8.395 9.15v7.625l1.092-.273-1.365 2.729-1.364-2.729 1.091.273v-7.624zm8.396 6.05v7.625l1.09-.273-1.364 2.729-1.364-2.729 1.092.273v-7.624z" clip-path="url(#pc1ae6a73c9)"/><path d="M367.624 110.605v7.624l1.092-.273-1.364 2.729-1.365-2.729 1.092.273v-7.624zm8.396-2.135v7.625l1.09-.273-1.363 2.729-1.364-2.729 1.09.273v-7.624zm8.395-6.05v7.625l1.091-.273-1.364 2.729-1.364-2.729 1.091.273v-7.624zm8.395-9.15v7.625l1.091-.272-1.364 2.728-1.364-2.728 1.091.272v-7.624zm8.395-11.385v7.625l1.091-.273-1.364 2.728-1.364-2.728 1.091.273v-7.625zM409.6 68.95v7.624l1.091-.273-1.364 2.728-1.364-2.728 1.091.273v-7.625zm-83.951 7.681v7.625l1.091-.273-1.364 2.728-1.364-2.728 1.091.273V76.63zm8.395 11.579v7.624l1.091-.273-1.364 2.728-1.364-2.728 1.091.273v-7.625zm8.395 9.917v7.625l1.091-.273-1.364 2.728-1.364-2.728 1.091.273v-7.625zm8.395 7.727v7.625l1.092-.273-1.365 2.728-1.364-2.728 1.091.273v-7.625zm8.396 4.96v7.625l1.09-.273-1.364 2.728-1.364-2.728 1.092.273v-7.625z" clip-path="url(#pc1ae6a73c9)"/><path d="M367.624 112.53v7.625l1.092-.273-1.364 2.729-1.365-2.729 1.092.273v-7.624zm8.396-1.716v7.625l1.09-.273-1.363 2.728-1.364-2.728 1.09.273v-7.625zm8.395-4.96v7.625l1.091-.273-1.364 2.728-1.364-2.728 1.091.273v-7.625zm8.395-7.727v7.625l1.091-.273-1.364 2.728-1.364-2.728 1.091.273v-7.625zm8.395-9.917v7.624l1.091-.273-1.364 2.728-1.364-2.728 1.091.273v-7.625zm8.395-11.579v7.625l1.091-.273-1.364 2.728-1.364-2.728 1.091.273V76.63z" clip-path="url(#pc1ae6a73c9)"/></g><g id="text_8" style="fill:gray" transform="matrix(.1 0 0 -.1 417.722 103.744)"><use xlink:href="#DejaVuSans-79"/><use xlink:href="#DejaVuSans-27" x="59.18"/></g><g id="text_9" style="fill:gray" transform="matrix(.1 0 0 -.1 371.55 15.595)"><use xlink:href="#DejaVuSans-7a"/><use xlink:href="#DejaVuSans-27" x="52.49"/></g><g id="text_10" transform="matrix(.1 0 0 -.1 430.315 86.954)"><defs><path id="DejaVuSans-73" d="M2834 3397v-544q-243 125-506 187-262 63-544 63-428 0-642-131t-214-394q0-200 153-314t616-217l197-44q612-131 870-370t258-667q0-488-386-773Q2250-91 1575-91q-281 0-586 55T347 128v594q319-166 628-249 309-82 613-82 406 0 624 139 219 139 219 392 0 234-158 359-157 125-692 241l-200 47q-534 112-772 345-237 233-237 639 0 494 350 762 350 269 994 269 318 0 599-47 282-46 519-140" transform="scale(.01563)"/><path id="DejaVuSans-63" d="M3122 3366v-538q-244 135-489 202t-495 67q-560 0-870-355-309-354-309-995t309-996q310-354 870-354 250 0 495 67t489 202V134Q2881 22 2623-34q-257-57-548-57-791 0-1257 497-465 497-465 1341 0 856 470 1346 471 491 1290 491 265 0 518-55 253-54 491-163" transform="scale(.01563)"/><path id="DejaVuSans-6c" d="M603 4863h575V0H603z" transform="scale(.01563)"/></defs><use xlink:href="#DejaVuSans-73"/><use xlink:href="#DejaVuSans-63" x="52.1"/><use xlink:href="#DejaVuSans-61" x="107.08"/><use xlink:href="#DejaVuSans-6c" x="168.359"/><use xlink:href="#DejaVuSans-65" x="196.143"/><use xlink:href="#DejaVuSans-64" x="257.666"/></g></g></g><defs><clipPath id="pd2aad7b598"><path d="M7.2 7.2h109.137v201.483H7.2z"/></clipPath><clipPath id="p1b008ed132"><path d="M159.992 7.2h109.137v201.483H159.992z"/></clipPath><clipPath id="pc1ae6a73c9"><path d="M312.783 7.2H421.92v201.483H312.783z"/></clipPath></defs></svg>