<?xml version="1.0" encoding="utf-8" standalone="no"?>
<!DOCTYPE svg PUBLIC "-//W3C//DTD SVG 1.1//EN"
  "http://www.w3.org/Graphics/SVG/1.1/DTD/svg11.dtd">
<svg xmlns:xlink="http://www.w3.org/1999/xlink" width="195.132pt" height="280.512pt" viewBox="0 0 195.132 280.512" xmlns="http://www.w3.org/2000/svg" version="1.1">
 <metadata>
  <rdf:RDF xmlns:dc="http://purl.org/dc/elements/1.1/" xmlns:cc="http://creativecommons.org/ns#" xmlns:rdf="http://www.w3.org/1999/02/22-rdf-syntax-ns#">
   <cc:Work>
    <dc:type rdf:resource="http://purl.org/dc/dcmitype/StillImage"/>
    <dc:date>2024-06-06T15:57:18.227291</dc:date>
    <dc:format>image/svg+xml</dc:format>
    <dc:creator>
     <cc:Agent>
      <dc:title>Matplotlib v3.9.0, https://matplotlib.org/</dc:title>
     </cc:Agent>
    </dc:creator>
   </cc:Work>
  </rdf:RDF>
 </metadata>
 <defs>
  <style type="text/css">*{stroke-linejoin: round; stroke-linecap: butt}</style>
 </defs>
 <g id="figure_1">
  <g id="patch_1">
   <path d="M 0 280.512 
L 195.132 280.512 
L 195.132 0 
L 0 0 
L 0 280.512 
z
" style="fill: none"/>
  </g>
  <g id="axes_1">
   <g id="patch_2">
    <path d="M 151.344 140.256 
L 145.8 143.8596 
L 147.0936 140.258772 
L 7.2 140.258772 
L 7.2 140.253228 
L 147.0936 140.253228 
L 145.8 136.6524 
z
" clip-path="url(#p0d4757cec1)" style="fill: #808080; stroke: #808080; stroke-linejoin: miter"/>
   </g>
   <g id="patch_3">
    <path d="M 79.272 7.2 
L 82.8756 12.744 
L 79.274772 11.4504 
L 79.274772 273.312 
L 79.269228 273.312 
L 79.269228 11.4504 
L 75.6684 12.744 
z
" clip-path="url(#p0d4757cec1)" style="fill: #808080; stroke: #808080; stroke-linejoin: miter"/>
   </g>
   <g id="Quiver_1">
    <path d="M 24.19236 159.381736 
L 24.19236 166.218496 
L 25.6338 165.858136 
L 23.832 169.461736 
L 22.0302 165.858136 
L 23.47164 166.218496 
L 23.47164 159.381736 
L 24.19236 159.381736 
" clip-path="url(#p0d4757cec1)"/>
    <path d="M 35.28036 159.381736 
L 35.28036 166.218496 
L 36.7218 165.858136 
L 34.92 169.461736 
L 33.1182 165.858136 
L 34.55964 166.218496 
L 34.55964 159.381736 
L 35.28036 159.381736 
" clip-path="url(#p0d4757cec1)"/>
    <path d="M 46.36836 159.381736 
L 46.36836 166.218496 
L 47.8098 165.858136 
L 46.008 169.461736 
L 44.2062 165.858136 
L 45.64764 166.218496 
L 45.64764 159.381736 
L 46.36836 159.381736 
" clip-path="url(#p0d4757cec1)"/>
    <path d="M 57.45636 159.381736 
L 57.45636 166.218496 
L 58.8978 165.858136 
L 57.096 169.461736 
L 55.2942 165.858136 
L 56.73564 166.218496 
L 56.73564 159.381736 
L 57.45636 159.381736 
" clip-path="url(#p0d4757cec1)"/>
    <path d="M 68.54436 159.381736 
L 68.54436 166.218496 
L 69.9858 165.858136 
L 68.184 169.461736 
L 66.3822 165.858136 
L 67.82364 166.218496 
L 67.82364 159.381736 
L 68.54436 159.381736 
" clip-path="url(#p0d4757cec1)"/>
    <path d="M 79.63236 159.381736 
L 79.63236 166.218496 
L 81.0738 165.858136 
L 79.272 169.461736 
L 77.4702 165.858136 
L 78.91164 166.218496 
L 78.91164 159.381736 
L 79.63236 159.381736 
" clip-path="url(#p0d4757cec1)"/>
    <path d="M 90.72036 159.381736 
L 90.72036 166.218496 
L 92.1618 165.858136 
L 90.36 169.461736 
L 88.5582 165.858136 
L 89.99964 166.218496 
L 89.99964 159.381736 
L 90.72036 159.381736 
" clip-path="url(#p0d4757cec1)"/>
    <path d="M 101.80836 159.381736 
L 101.80836 166.218496 
L 103.2498 165.858136 
L 101.448 169.461736 
L 99.6462 165.858136 
L 101.08764 166.218496 
L 101.08764 159.381736 
L 101.80836 159.381736 
" clip-path="url(#p0d4757cec1)"/>
    <path d="M 112.89636 159.381736 
L 112.89636 166.218496 
L 114.3378 165.858136 
L 112.536 169.461736 
L 110.7342 165.858136 
L 112.17564 166.218496 
L 112.17564 159.381736 
L 112.89636 159.381736 
" clip-path="url(#p0d4757cec1)"/>
    <path d="M 123.98436 159.381736 
L 123.98436 166.218496 
L 125.4258 165.858136 
L 123.624 169.461736 
L 121.8222 165.858136 
L 123.26364 166.218496 
L 123.26364 159.381736 
L 123.98436 159.381736 
" clip-path="url(#p0d4757cec1)"/>
    <path d="M 135.07236 159.381736 
L 135.07236 166.218496 
L 136.5138 165.858136 
L 134.712 169.461736 
L 132.9102 165.858136 
L 134.35164 166.218496 
L 134.35164 159.381736 
L 135.07236 159.381736 
" clip-path="url(#p0d4757cec1)"/>
    <path d="M 24.19236 154.548589 
L 24.19236 161.385349 
L 25.6338 161.024989 
L 23.832 164.628589 
L 22.0302 161.024989 
L 23.47164 161.385349 
L 23.47164 154.548589 
L 24.19236 154.548589 
" clip-path="url(#p0d4757cec1)"/>
    <path d="M 35.28036 154.548589 
L 35.28036 161.385349 
L 36.7218 161.024989 
L 34.92 164.628589 
L 33.1182 161.024989 
L 34.55964 161.385349 
L 34.55964 154.548589 
L 35.28036 154.548589 
" clip-path="url(#p0d4757cec1)"/>
    <path d="M 46.36836 154.548589 
L 46.36836 161.385349 
L 47.8098 161.024989 
L 46.008 164.628589 
L 44.2062 161.024989 
L 45.64764 161.385349 
L 45.64764 154.548589 
L 46.36836 154.548589 
" clip-path="url(#p0d4757cec1)"/>
    <path d="M 57.45636 154.548589 
L 57.45636 161.385349 
L 58.8978 161.024989 
L 57.096 164.628589 
L 55.2942 161.024989 
L 56.73564 161.385349 
L 56.73564 154.548589 
L 57.45636 154.548589 
" clip-path="url(#p0d4757cec1)"/>
    <path d="M 68.54436 154.548589 
L 68.54436 161.385349 
L 69.9858 161.024989 
L 68.184 164.628589 
L 66.3822 161.024989 
L 67.82364 161.385349 
L 67.82364 154.548589 
L 68.54436 154.548589 
" clip-path="url(#p0d4757cec1)"/>
    <path d="M 79.63236 154.548589 
L 79.63236 161.385349 
L 81.0738 161.024989 
L 79.272 164.628589 
L 77.4702 161.024989 
L 78.91164 161.385349 
L 78.91164 154.548589 
L 79.63236 154.548589 
" clip-path="url(#p0d4757cec1)"/>
    <path d="M 90.72036 154.548589 
L 90.72036 161.385349 
L 92.1618 161.024989 
L 90.36 164.628589 
L 88.5582 161.024989 
L 89.99964 161.385349 
L 89.99964 154.548589 
L 90.72036 154.548589 
" clip-path="url(#p0d4757cec1)"/>
    <path d="M 101.80836 154.548589 
L 101.80836 161.385349 
L 103.2498 161.024989 
L 101.448 164.628589 
L 99.6462 161.024989 
L 101.08764 161.385349 
L 101.08764 154.548589 
L 101.80836 154.548589 
" clip-path="url(#p0d4757cec1)"/>
    <path d="M 112.89636 154.548589 
L 112.89636 161.385349 
L 114.3378 161.024989 
L 112.536 164.628589 
L 110.7342 161.024989 
L 112.17564 161.385349 
L 112.17564 154.548589 
L 112.89636 154.548589 
" clip-path="url(#p0d4757cec1)"/>
    <path d="M 123.98436 154.548589 
L 123.98436 161.385349 
L 125.4258 161.024989 
L 123.624 164.628589 
L 121.8222 161.024989 
L 123.26364 161.385349 
L 123.26364 154.548589 
L 123.98436 154.548589 
" clip-path="url(#p0d4757cec1)"/>
    <path d="M 135.07236 154.548589 
L 135.07236 161.385349 
L 136.5138 161.024989 
L 134.712 164.628589 
L 132.9102 161.024989 
L 134.35164 161.385349 
L 134.35164 154.548589 
L 135.07236 154.548589 
" clip-path="url(#p0d4757cec1)"/>
    <path d="M 24.19236 149.715441 
L 24.19236 156.552201 
L 25.6338 156.191841 
L 23.832 159.795441 
L 22.0302 156.191841 
L 23.47164 156.552201 
L 23.47164 149.715441 
L 24.19236 149.715441 
" clip-path="url(#p0d4757cec1)"/>
    <path d="M 35.28036 149.715441 
L 35.28036 156.552201 
L 36.7218 156.191841 
L 34.92 159.795441 
L 33.1182 156.191841 
L 34.55964 156.552201 
L 34.55964 149.715441 
L 35.28036 149.715441 
" clip-path="url(#p0d4757cec1)"/>
    <path d="M 46.36836 149.715441 
L 46.36836 156.552201 
L 47.8098 156.191841 
L 46.008 159.795441 
L 44.2062 156.191841 
L 45.64764 156.552201 
L 45.64764 149.715441 
L 46.36836 149.715441 
" clip-path="url(#p0d4757cec1)"/>
    <path d="M 57.45636 149.715441 
L 57.45636 156.552201 
L 58.8978 156.191841 
L 57.096 159.795441 
L 55.2942 156.191841 
L 56.73564 156.552201 
L 56.73564 149.715441 
L 57.45636 149.715441 
" clip-path="url(#p0d4757cec1)"/>
    <path d="M 68.54436 149.715441 
L 68.54436 156.552201 
L 69.9858 156.191841 
L 68.184 159.795441 
L 66.3822 156.191841 
L 67.82364 156.552201 
L 67.82364 149.715441 
L 68.54436 149.715441 
" clip-path="url(#p0d4757cec1)"/>
    <path d="M 79.63236 149.715441 
L 79.63236 156.552201 
L 81.0738 156.191841 
L 79.272 159.795441 
L 77.4702 156.191841 
L 78.91164 156.552201 
L 78.91164 149.715441 
L 79.63236 149.715441 
" clip-path="url(#p0d4757cec1)"/>
    <path d="M 90.72036 149.715441 
L 90.72036 156.552201 
L 92.1618 156.191841 
L 90.36 159.795441 
L 88.5582 156.191841 
L 89.99964 156.552201 
L 89.99964 149.715441 
L 90.72036 149.715441 
" clip-path="url(#p0d4757cec1)"/>
    <path d="M 101.80836 149.715441 
L 101.80836 156.552201 
L 103.2498 156.191841 
L 101.448 159.795441 
L 99.6462 156.191841 
L 101.08764 156.552201 
L 101.08764 149.715441 
L 101.80836 149.715441 
" clip-path="url(#p0d4757cec1)"/>
    <path d="M 112.89636 149.715441 
L 112.89636 156.552201 
L 114.3378 156.191841 
L 112.536 159.795441 
L 110.7342 156.191841 
L 112.17564 156.552201 
L 112.17564 149.715441 
L 112.89636 149.715441 
" clip-path="url(#p0d4757cec1)"/>
    <path d="M 123.98436 149.715441 
L 123.98436 156.552201 
L 125.4258 156.191841 
L 123.624 159.795441 
L 121.8222 156.191841 
L 123.26364 156.552201 
L 123.26364 149.715441 
L 123.98436 149.715441 
" clip-path="url(#p0d4757cec1)"/>
    <path d="M 135.07236 149.715441 
L 135.07236 156.552201 
L 136.5138 156.191841 
L 134.712 159.795441 
L 132.9102 156.191841 
L 134.35164 156.552201 
L 134.35164 149.715441 
L 135.07236 149.715441 
" clip-path="url(#p0d4757cec1)"/>
    <path d="M 24.19236 144.882294 
L 24.19236 151.719054 
L 25.6338 151.358694 
L 23.832 154.962294 
L 22.0302 151.358694 
L 23.47164 151.719054 
L 23.47164 144.882294 
L 24.19236 144.882294 
" clip-path="url(#p0d4757cec1)"/>
    <path d="M 35.28036 144.882294 
L 35.28036 151.719054 
L 36.7218 151.358694 
L 34.92 154.962294 
L 33.1182 151.358694 
L 34.55964 151.719054 
L 34.55964 144.882294 
L 35.28036 144.882294 
" clip-path="url(#p0d4757cec1)"/>
    <path d="M 46.36836 144.882294 
L 46.36836 151.719054 
L 47.8098 151.358694 
L 46.008 154.962294 
L 44.2062 151.358694 
L 45.64764 151.719054 
L 45.64764 144.882294 
L 46.36836 144.882294 
" clip-path="url(#p0d4757cec1)"/>
    <path d="M 57.45636 144.882294 
L 57.45636 151.719054 
L 58.8978 151.358694 
L 57.096 154.962294 
L 55.2942 151.358694 
L 56.73564 151.719054 
L 56.73564 144.882294 
L 57.45636 144.882294 
" clip-path="url(#p0d4757cec1)"/>
    <path d="M 68.54436 144.882294 
L 68.54436 151.719054 
L 69.9858 151.358694 
L 68.184 154.962294 
L 66.3822 151.358694 
L 67.82364 151.719054 
L 67.82364 144.882294 
L 68.54436 144.882294 
" clip-path="url(#p0d4757cec1)"/>
    <path d="M 79.63236 144.882294 
L 79.63236 151.719054 
L 81.0738 151.358694 
L 79.272 154.962294 
L 77.4702 151.358694 
L 78.91164 151.719054 
L 78.91164 144.882294 
L 79.63236 144.882294 
" clip-path="url(#p0d4757cec1)"/>
    <path d="M 90.72036 144.882294 
L 90.72036 151.719054 
L 92.1618 151.358694 
L 90.36 154.962294 
L 88.5582 151.358694 
L 89.99964 151.719054 
L 89.99964 144.882294 
L 90.72036 144.882294 
" clip-path="url(#p0d4757cec1)"/>
    <path d="M 101.80836 144.882294 
L 101.80836 151.719054 
L 103.2498 151.358694 
L 101.448 154.962294 
L 99.6462 151.358694 
L 101.08764 151.719054 
L 101.08764 144.882294 
L 101.80836 144.882294 
" clip-path="url(#p0d4757cec1)"/>
    <path d="M 112.89636 144.882294 
L 112.89636 151.719054 
L 114.3378 151.358694 
L 112.536 154.962294 
L 110.7342 151.358694 
L 112.17564 151.719054 
L 112.17564 144.882294 
L 112.89636 144.882294 
" clip-path="url(#p0d4757cec1)"/>
    <path d="M 123.98436 144.882294 
L 123.98436 151.719054 
L 125.4258 151.358694 
L 123.624 154.962294 
L 121.8222 151.358694 
L 123.26364 151.719054 
L 123.26364 144.882294 
L 123.98436 144.882294 
" clip-path="url(#p0d4757cec1)"/>
    <path d="M 135.07236 144.882294 
L 135.07236 151.719054 
L 136.5138 151.358694 
L 134.712 154.962294 
L 132.9102 151.358694 
L 134.35164 151.719054 
L 134.35164 144.882294 
L 135.07236 144.882294 
" clip-path="url(#p0d4757cec1)"/>
    <path d="M 24.19236 140.049147 
L 24.19236 146.885907 
L 25.6338 146.525547 
L 23.832 150.129147 
L 22.0302 146.525547 
L 23.47164 146.885907 
L 23.47164 140.049147 
L 24.19236 140.049147 
" clip-path="url(#p0d4757cec1)"/>
    <path d="M 35.28036 140.049147 
L 35.28036 146.885907 
L 36.7218 146.525547 
L 34.92 150.129147 
L 33.1182 146.525547 
L 34.55964 146.885907 
L 34.55964 140.049147 
L 35.28036 140.049147 
" clip-path="url(#p0d4757cec1)"/>
    <path d="M 46.36836 140.049147 
L 46.36836 146.885907 
L 47.8098 146.525547 
L 46.008 150.129147 
L 44.2062 146.525547 
L 45.64764 146.885907 
L 45.64764 140.049147 
L 46.36836 140.049147 
" clip-path="url(#p0d4757cec1)"/>
    <path d="M 57.45636 140.049147 
L 57.45636 146.885907 
L 58.8978 146.525547 
L 57.096 150.129147 
L 55.2942 146.525547 
L 56.73564 146.885907 
L 56.73564 140.049147 
L 57.45636 140.049147 
" clip-path="url(#p0d4757cec1)"/>
    <path d="M 68.54436 140.049147 
L 68.54436 146.885907 
L 69.9858 146.525547 
L 68.184 150.129147 
L 66.3822 146.525547 
L 67.82364 146.885907 
L 67.82364 140.049147 
L 68.54436 140.049147 
" clip-path="url(#p0d4757cec1)"/>
    <path d="M 79.63236 140.049147 
L 79.63236 146.885907 
L 81.0738 146.525547 
L 79.272 150.129147 
L 77.4702 146.525547 
L 78.91164 146.885907 
L 78.91164 140.049147 
L 79.63236 140.049147 
" clip-path="url(#p0d4757cec1)"/>
    <path d="M 90.72036 140.049147 
L 90.72036 146.885907 
L 92.1618 146.525547 
L 90.36 150.129147 
L 88.5582 146.525547 
L 89.99964 146.885907 
L 89.99964 140.049147 
L 90.72036 140.049147 
" clip-path="url(#p0d4757cec1)"/>
    <path d="M 101.80836 140.049147 
L 101.80836 146.885907 
L 103.2498 146.525547 
L 101.448 150.129147 
L 99.6462 146.525547 
L 101.08764 146.885907 
L 101.08764 140.049147 
L 101.80836 140.049147 
" clip-path="url(#p0d4757cec1)"/>
    <path d="M 112.89636 140.049147 
L 112.89636 146.885907 
L 114.3378 146.525547 
L 112.536 150.129147 
L 110.7342 146.525547 
L 112.17564 146.885907 
L 112.17564 140.049147 
L 112.89636 140.049147 
" clip-path="url(#p0d4757cec1)"/>
    <path d="M 123.98436 140.049147 
L 123.98436 146.885907 
L 125.4258 146.525547 
L 123.624 150.129147 
L 121.8222 146.525547 
L 123.26364 146.885907 
L 123.26364 140.049147 
L 123.98436 140.049147 
" clip-path="url(#p0d4757cec1)"/>
    <path d="M 135.07236 140.049147 
L 135.07236 146.885907 
L 136.5138 146.525547 
L 134.712 150.129147 
L 132.9102 146.525547 
L 134.35164 146.885907 
L 134.35164 140.049147 
L 135.07236 140.049147 
" clip-path="url(#p0d4757cec1)"/>
    <path d="M 24.19236 135.216 
L 24.19236 142.05276 
L 25.6338 141.6924 
L 23.832 145.296 
L 22.0302 141.6924 
L 23.47164 142.05276 
L 23.47164 135.216 
L 24.19236 135.216 
" clip-path="url(#p0d4757cec1)"/>
    <path d="M 35.28036 135.216 
L 35.28036 142.05276 
L 36.7218 141.6924 
L 34.92 145.296 
L 33.1182 141.6924 
L 34.55964 142.05276 
L 34.55964 135.216 
L 35.28036 135.216 
" clip-path="url(#p0d4757cec1)"/>
    <path d="M 46.36836 135.216 
L 46.36836 142.05276 
L 47.8098 141.6924 
L 46.008 145.296 
L 44.2062 141.6924 
L 45.64764 142.05276 
L 45.64764 135.216 
L 46.36836 135.216 
" clip-path="url(#p0d4757cec1)"/>
    <path d="M 57.45636 135.216 
L 57.45636 142.05276 
L 58.8978 141.6924 
L 57.096 145.296 
L 55.2942 141.6924 
L 56.73564 142.05276 
L 56.73564 135.216 
L 57.45636 135.216 
" clip-path="url(#p0d4757cec1)"/>
    <path d="M 68.54436 135.216 
L 68.54436 142.05276 
L 69.9858 141.6924 
L 68.184 145.296 
L 66.3822 141.6924 
L 67.82364 142.05276 
L 67.82364 135.216 
L 68.54436 135.216 
" clip-path="url(#p0d4757cec1)"/>
    <path d="M 79.63236 135.216 
L 79.63236 142.05276 
L 81.0738 141.6924 
L 79.272 145.296 
L 77.4702 141.6924 
L 78.91164 142.05276 
L 78.91164 135.216 
L 79.63236 135.216 
" clip-path="url(#p0d4757cec1)"/>
    <path d="M 90.72036 135.216 
L 90.72036 142.05276 
L 92.1618 141.6924 
L 90.36 145.296 
L 88.5582 141.6924 
L 89.99964 142.05276 
L 89.99964 135.216 
L 90.72036 135.216 
" clip-path="url(#p0d4757cec1)"/>
    <path d="M 101.80836 135.216 
L 101.80836 142.05276 
L 103.2498 141.6924 
L 101.448 145.296 
L 99.6462 141.6924 
L 101.08764 142.05276 
L 101.08764 135.216 
L 101.80836 135.216 
" clip-path="url(#p0d4757cec1)"/>
    <path d="M 112.89636 135.216 
L 112.89636 142.05276 
L 114.3378 141.6924 
L 112.536 145.296 
L 110.7342 141.6924 
L 112.17564 142.05276 
L 112.17564 135.216 
L 112.89636 135.216 
" clip-path="url(#p0d4757cec1)"/>
    <path d="M 123.98436 135.216 
L 123.98436 142.05276 
L 125.4258 141.6924 
L 123.624 145.296 
L 121.8222 141.6924 
L 123.26364 142.05276 
L 123.26364 135.216 
L 123.98436 135.216 
" clip-path="url(#p0d4757cec1)"/>
    <path d="M 135.07236 135.216 
L 135.07236 142.05276 
L 136.5138 141.6924 
L 134.712 145.296 
L 132.9102 141.6924 
L 134.35164 142.05276 
L 134.35164 135.216 
L 135.07236 135.216 
" clip-path="url(#p0d4757cec1)"/>
    <path d="M 24.19236 130.382853 
L 24.19236 137.219613 
L 25.6338 136.859253 
L 23.832 140.462853 
L 22.0302 136.859253 
L 23.47164 137.219613 
L 23.47164 130.382853 
L 24.19236 130.382853 
" clip-path="url(#p0d4757cec1)"/>
    <path d="M 35.28036 130.382853 
L 35.28036 137.219613 
L 36.7218 136.859253 
L 34.92 140.462853 
L 33.1182 136.859253 
L 34.55964 137.219613 
L 34.55964 130.382853 
L 35.28036 130.382853 
" clip-path="url(#p0d4757cec1)"/>
    <path d="M 46.36836 130.382853 
L 46.36836 137.219613 
L 47.8098 136.859253 
L 46.008 140.462853 
L 44.2062 136.859253 
L 45.64764 137.219613 
L 45.64764 130.382853 
L 46.36836 130.382853 
" clip-path="url(#p0d4757cec1)"/>
    <path d="M 57.45636 130.382853 
L 57.45636 137.219613 
L 58.8978 136.859253 
L 57.096 140.462853 
L 55.2942 136.859253 
L 56.73564 137.219613 
L 56.73564 130.382853 
L 57.45636 130.382853 
" clip-path="url(#p0d4757cec1)"/>
    <path d="M 68.54436 130.382853 
L 68.54436 137.219613 
L 69.9858 136.859253 
L 68.184 140.462853 
L 66.3822 136.859253 
L 67.82364 137.219613 
L 67.82364 130.382853 
L 68.54436 130.382853 
" clip-path="url(#p0d4757cec1)"/>
    <path d="M 79.63236 130.382853 
L 79.63236 137.219613 
L 81.0738 136.859253 
L 79.272 140.462853 
L 77.4702 136.859253 
L 78.91164 137.219613 
L 78.91164 130.382853 
L 79.63236 130.382853 
" clip-path="url(#p0d4757cec1)"/>
    <path d="M 90.72036 130.382853 
L 90.72036 137.219613 
L 92.1618 136.859253 
L 90.36 140.462853 
L 88.5582 136.859253 
L 89.99964 137.219613 
L 89.99964 130.382853 
L 90.72036 130.382853 
" clip-path="url(#p0d4757cec1)"/>
    <path d="M 101.80836 130.382853 
L 101.80836 137.219613 
L 103.2498 136.859253 
L 101.448 140.462853 
L 99.6462 136.859253 
L 101.08764 137.219613 
L 101.08764 130.382853 
L 101.80836 130.382853 
" clip-path="url(#p0d4757cec1)"/>
    <path d="M 112.89636 130.382853 
L 112.89636 137.219613 
L 114.3378 136.859253 
L 112.536 140.462853 
L 110.7342 136.859253 
L 112.17564 137.219613 
L 112.17564 130.382853 
L 112.89636 130.382853 
" clip-path="url(#p0d4757cec1)"/>
    <path d="M 123.98436 130.382853 
L 123.98436 137.219613 
L 125.4258 136.859253 
L 123.624 140.462853 
L 121.8222 136.859253 
L 123.26364 137.219613 
L 123.26364 130.382853 
L 123.98436 130.382853 
" clip-path="url(#p0d4757cec1)"/>
    <path d="M 135.07236 130.382853 
L 135.07236 137.219613 
L 136.5138 136.859253 
L 134.712 140.462853 
L 132.9102 136.859253 
L 134.35164 137.219613 
L 134.35164 130.382853 
L 135.07236 130.382853 
" clip-path="url(#p0d4757cec1)"/>
    <path d="M 24.19236 125.549706 
L 24.19236 132.386466 
L 25.6338 132.026106 
L 23.832 135.629706 
L 22.0302 132.026106 
L 23.47164 132.386466 
L 23.47164 125.549706 
L 24.19236 125.549706 
" clip-path="url(#p0d4757cec1)"/>
    <path d="M 35.28036 125.549706 
L 35.28036 132.386466 
L 36.7218 132.026106 
L 34.92 135.629706 
L 33.1182 132.026106 
L 34.55964 132.386466 
L 34.55964 125.549706 
L 35.28036 125.549706 
" clip-path="url(#p0d4757cec1)"/>
    <path d="M 46.36836 125.549706 
L 46.36836 132.386466 
L 47.8098 132.026106 
L 46.008 135.629706 
L 44.2062 132.026106 
L 45.64764 132.386466 
L 45.64764 125.549706 
L 46.36836 125.549706 
" clip-path="url(#p0d4757cec1)"/>
    <path d="M 57.45636 125.549706 
L 57.45636 132.386466 
L 58.8978 132.026106 
L 57.096 135.629706 
L 55.2942 132.026106 
L 56.73564 132.386466 
L 56.73564 125.549706 
L 57.45636 125.549706 
" clip-path="url(#p0d4757cec1)"/>
    <path d="M 68.54436 125.549706 
L 68.54436 132.386466 
L 69.9858 132.026106 
L 68.184 135.629706 
L 66.3822 132.026106 
L 67.82364 132.386466 
L 67.82364 125.549706 
L 68.54436 125.549706 
" clip-path="url(#p0d4757cec1)"/>
    <path d="M 79.63236 125.549706 
L 79.63236 132.386466 
L 81.0738 132.026106 
L 79.272 135.629706 
L 77.4702 132.026106 
L 78.91164 132.386466 
L 78.91164 125.549706 
L 79.63236 125.549706 
" clip-path="url(#p0d4757cec1)"/>
    <path d="M 90.72036 125.549706 
L 90.72036 132.386466 
L 92.1618 132.026106 
L 90.36 135.629706 
L 88.5582 132.026106 
L 89.99964 132.386466 
L 89.99964 125.549706 
L 90.72036 125.549706 
" clip-path="url(#p0d4757cec1)"/>
    <path d="M 101.80836 125.549706 
L 101.80836 132.386466 
L 103.2498 132.026106 
L 101.448 135.629706 
L 99.6462 132.026106 
L 101.08764 132.386466 
L 101.08764 125.549706 
L 101.80836 125.549706 
" clip-path="url(#p0d4757cec1)"/>
    <path d="M 112.89636 125.549706 
L 112.89636 132.386466 
L 114.3378 132.026106 
L 112.536 135.629706 
L 110.7342 132.026106 
L 112.17564 132.386466 
L 112.17564 125.549706 
L 112.89636 125.549706 
" clip-path="url(#p0d4757cec1)"/>
    <path d="M 123.98436 125.549706 
L 123.98436 132.386466 
L 125.4258 132.026106 
L 123.624 135.629706 
L 121.8222 132.026106 
L 123.26364 132.386466 
L 123.26364 125.549706 
L 123.98436 125.549706 
" clip-path="url(#p0d4757cec1)"/>
    <path d="M 135.07236 125.549706 
L 135.07236 132.386466 
L 136.5138 132.026106 
L 134.712 135.629706 
L 132.9102 132.026106 
L 134.35164 132.386466 
L 134.35164 125.549706 
L 135.07236 125.549706 
" clip-path="url(#p0d4757cec1)"/>
    <path d="M 24.19236 120.716559 
L 24.19236 127.553319 
L 25.6338 127.192959 
L 23.832 130.796559 
L 22.0302 127.192959 
L 23.47164 127.553319 
L 23.47164 120.716559 
L 24.19236 120.716559 
" clip-path="url(#p0d4757cec1)"/>
    <path d="M 35.28036 120.716559 
L 35.28036 127.553319 
L 36.7218 127.192959 
L 34.92 130.796559 
L 33.1182 127.192959 
L 34.55964 127.553319 
L 34.55964 120.716559 
L 35.28036 120.716559 
" clip-path="url(#p0d4757cec1)"/>
    <path d="M 46.36836 120.716559 
L 46.36836 127.553319 
L 47.8098 127.192959 
L 46.008 130.796559 
L 44.2062 127.192959 
L 45.64764 127.553319 
L 45.64764 120.716559 
L 46.36836 120.716559 
" clip-path="url(#p0d4757cec1)"/>
    <path d="M 57.45636 120.716559 
L 57.45636 127.553319 
L 58.8978 127.192959 
L 57.096 130.796559 
L 55.2942 127.192959 
L 56.73564 127.553319 
L 56.73564 120.716559 
L 57.45636 120.716559 
" clip-path="url(#p0d4757cec1)"/>
    <path d="M 68.54436 120.716559 
L 68.54436 127.553319 
L 69.9858 127.192959 
L 68.184 130.796559 
L 66.3822 127.192959 
L 67.82364 127.553319 
L 67.82364 120.716559 
L 68.54436 120.716559 
" clip-path="url(#p0d4757cec1)"/>
    <path d="M 79.63236 120.716559 
L 79.63236 127.553319 
L 81.0738 127.192959 
L 79.272 130.796559 
L 77.4702 127.192959 
L 78.91164 127.553319 
L 78.91164 120.716559 
L 79.63236 120.716559 
" clip-path="url(#p0d4757cec1)"/>
    <path d="M 90.72036 120.716559 
L 90.72036 127.553319 
L 92.1618 127.192959 
L 90.36 130.796559 
L 88.5582 127.192959 
L 89.99964 127.553319 
L 89.99964 120.716559 
L 90.72036 120.716559 
" clip-path="url(#p0d4757cec1)"/>
    <path d="M 101.80836 120.716559 
L 101.80836 127.553319 
L 103.2498 127.192959 
L 101.448 130.796559 
L 99.6462 127.192959 
L 101.08764 127.553319 
L 101.08764 120.716559 
L 101.80836 120.716559 
" clip-path="url(#p0d4757cec1)"/>
    <path d="M 112.89636 120.716559 
L 112.89636 127.553319 
L 114.3378 127.192959 
L 112.536 130.796559 
L 110.7342 127.192959 
L 112.17564 127.553319 
L 112.17564 120.716559 
L 112.89636 120.716559 
" clip-path="url(#p0d4757cec1)"/>
    <path d="M 123.98436 120.716559 
L 123.98436 127.553319 
L 125.4258 127.192959 
L 123.624 130.796559 
L 121.8222 127.192959 
L 123.26364 127.553319 
L 123.26364 120.716559 
L 123.98436 120.716559 
" clip-path="url(#p0d4757cec1)"/>
    <path d="M 135.07236 120.716559 
L 135.07236 127.553319 
L 136.5138 127.192959 
L 134.712 130.796559 
L 132.9102 127.192959 
L 134.35164 127.553319 
L 134.35164 120.716559 
L 135.07236 120.716559 
" clip-path="url(#p0d4757cec1)"/>
    <path d="M 24.19236 115.883411 
L 24.19236 122.720171 
L 25.6338 122.359811 
L 23.832 125.963411 
L 22.0302 122.359811 
L 23.47164 122.720171 
L 23.47164 115.883411 
L 24.19236 115.883411 
" clip-path="url(#p0d4757cec1)"/>
    <path d="M 35.28036 115.883411 
L 35.28036 122.720171 
L 36.7218 122.359811 
L 34.92 125.963411 
L 33.1182 122.359811 
L 34.55964 122.720171 
L 34.55964 115.883411 
L 35.28036 115.883411 
" clip-path="url(#p0d4757cec1)"/>
    <path d="M 46.36836 115.883411 
L 46.36836 122.720171 
L 47.8098 122.359811 
L 46.008 125.963411 
L 44.2062 122.359811 
L 45.64764 122.720171 
L 45.64764 115.883411 
L 46.36836 115.883411 
" clip-path="url(#p0d4757cec1)"/>
    <path d="M 57.45636 115.883411 
L 57.45636 122.720171 
L 58.8978 122.359811 
L 57.096 125.963411 
L 55.2942 122.359811 
L 56.73564 122.720171 
L 56.73564 115.883411 
L 57.45636 115.883411 
" clip-path="url(#p0d4757cec1)"/>
    <path d="M 68.54436 115.883411 
L 68.54436 122.720171 
L 69.9858 122.359811 
L 68.184 125.963411 
L 66.3822 122.359811 
L 67.82364 122.720171 
L 67.82364 115.883411 
L 68.54436 115.883411 
" clip-path="url(#p0d4757cec1)"/>
    <path d="M 79.63236 115.883411 
L 79.63236 122.720171 
L 81.0738 122.359811 
L 79.272 125.963411 
L 77.4702 122.359811 
L 78.91164 122.720171 
L 78.91164 115.883411 
L 79.63236 115.883411 
" clip-path="url(#p0d4757cec1)"/>
    <path d="M 90.72036 115.883411 
L 90.72036 122.720171 
L 92.1618 122.359811 
L 90.36 125.963411 
L 88.5582 122.359811 
L 89.99964 122.720171 
L 89.99964 115.883411 
L 90.72036 115.883411 
" clip-path="url(#p0d4757cec1)"/>
    <path d="M 101.80836 115.883411 
L 101.80836 122.720171 
L 103.2498 122.359811 
L 101.448 125.963411 
L 99.6462 122.359811 
L 101.08764 122.720171 
L 101.08764 115.883411 
L 101.80836 115.883411 
" clip-path="url(#p0d4757cec1)"/>
    <path d="M 112.89636 115.883411 
L 112.89636 122.720171 
L 114.3378 122.359811 
L 112.536 125.963411 
L 110.7342 122.359811 
L 112.17564 122.720171 
L 112.17564 115.883411 
L 112.89636 115.883411 
" clip-path="url(#p0d4757cec1)"/>
    <path d="M 123.98436 115.883411 
L 123.98436 122.720171 
L 125.4258 122.359811 
L 123.624 125.963411 
L 121.8222 122.359811 
L 123.26364 122.720171 
L 123.26364 115.883411 
L 123.98436 115.883411 
" clip-path="url(#p0d4757cec1)"/>
    <path d="M 135.07236 115.883411 
L 135.07236 122.720171 
L 136.5138 122.359811 
L 134.712 125.963411 
L 132.9102 122.359811 
L 134.35164 122.720171 
L 134.35164 115.883411 
L 135.07236 115.883411 
" clip-path="url(#p0d4757cec1)"/>
    <path d="M 24.19236 111.050264 
L 24.19236 117.887024 
L 25.6338 117.526664 
L 23.832 121.130264 
L 22.0302 117.526664 
L 23.47164 117.887024 
L 23.47164 111.050264 
L 24.19236 111.050264 
" clip-path="url(#p0d4757cec1)"/>
    <path d="M 35.28036 111.050264 
L 35.28036 117.887024 
L 36.7218 117.526664 
L 34.92 121.130264 
L 33.1182 117.526664 
L 34.55964 117.887024 
L 34.55964 111.050264 
L 35.28036 111.050264 
" clip-path="url(#p0d4757cec1)"/>
    <path d="M 46.36836 111.050264 
L 46.36836 117.887024 
L 47.8098 117.526664 
L 46.008 121.130264 
L 44.2062 117.526664 
L 45.64764 117.887024 
L 45.64764 111.050264 
L 46.36836 111.050264 
" clip-path="url(#p0d4757cec1)"/>
    <path d="M 57.45636 111.050264 
L 57.45636 117.887024 
L 58.8978 117.526664 
L 57.096 121.130264 
L 55.2942 117.526664 
L 56.73564 117.887024 
L 56.73564 111.050264 
L 57.45636 111.050264 
" clip-path="url(#p0d4757cec1)"/>
    <path d="M 68.54436 111.050264 
L 68.54436 117.887024 
L 69.9858 117.526664 
L 68.184 121.130264 
L 66.3822 117.526664 
L 67.82364 117.887024 
L 67.82364 111.050264 
L 68.54436 111.050264 
" clip-path="url(#p0d4757cec1)"/>
    <path d="M 79.63236 111.050264 
L 79.63236 117.887024 
L 81.0738 117.526664 
L 79.272 121.130264 
L 77.4702 117.526664 
L 78.91164 117.887024 
L 78.91164 111.050264 
L 79.63236 111.050264 
" clip-path="url(#p0d4757cec1)"/>
    <path d="M 90.72036 111.050264 
L 90.72036 117.887024 
L 92.1618 117.526664 
L 90.36 121.130264 
L 88.5582 117.526664 
L 89.99964 117.887024 
L 89.99964 111.050264 
L 90.72036 111.050264 
" clip-path="url(#p0d4757cec1)"/>
    <path d="M 101.80836 111.050264 
L 101.80836 117.887024 
L 103.2498 117.526664 
L 101.448 121.130264 
L 99.6462 117.526664 
L 101.08764 117.887024 
L 101.08764 111.050264 
L 101.80836 111.050264 
" clip-path="url(#p0d4757cec1)"/>
    <path d="M 112.89636 111.050264 
L 112.89636 117.887024 
L 114.3378 117.526664 
L 112.536 121.130264 
L 110.7342 117.526664 
L 112.17564 117.887024 
L 112.17564 111.050264 
L 112.89636 111.050264 
" clip-path="url(#p0d4757cec1)"/>
    <path d="M 123.98436 111.050264 
L 123.98436 117.887024 
L 125.4258 117.526664 
L 123.624 121.130264 
L 121.8222 117.526664 
L 123.26364 117.887024 
L 123.26364 111.050264 
L 123.98436 111.050264 
" clip-path="url(#p0d4757cec1)"/>
    <path d="M 135.07236 111.050264 
L 135.07236 117.887024 
L 136.5138 117.526664 
L 134.712 121.130264 
L 132.9102 117.526664 
L 134.35164 117.887024 
L 134.35164 111.050264 
L 135.07236 111.050264 
" clip-path="url(#p0d4757cec1)"/>
   </g>
   <g id="text_1">
    <!-- y' -->
    <g style="fill: #808080" transform="translate(145.8 134.712) scale(0.1 -0.1)">
     <defs>
      <path id="DejaVuSans-79" d="M 2059 -325 
Q 1816 -950 1584 -1140 
Q 1353 -1331 966 -1331 
L 506 -1331 
L 506 -850 
L 844 -850 
Q 1081 -850 1212 -737 
Q 1344 -625 1503 -206 
L 1606 56 
L 191 3500 
L 800 3500 
L 1894 763 
L 2988 3500 
L 3597 3500 
L 2059 -325 
z
" transform="scale(0.015625)"/>
      <path id="DejaVuSans-27" d="M 1147 4666 
L 1147 2931 
L 616 2931 
L 616 4666 
L 1147 4666 
z
" transform="scale(0.015625)"/>
     </defs>
     <use xlink:href="#DejaVuSans-79"/>
     <use xlink:href="#DejaVuSans-27" x="59.179688"/>
    </g>
   </g>
   <g id="text_2">
    <!-- z' -->
    <g style="fill: #808080" transform="translate(84.816 18.288) scale(0.1 -0.1)">
     <defs>
      <path id="DejaVuSans-7a" d="M 353 3500 
L 3084 3500 
L 3084 2975 
L 922 459 
L 3084 459 
L 3084 0 
L 275 0 
L 275 525 
L 2438 3041 
L 353 3041 
L 353 3500 
z
" transform="scale(0.015625)"/>
     </defs>
     <use xlink:href="#DejaVuSans-7a"/>
     <use xlink:href="#DejaVuSans-27" x="52.490234"/>
    </g>
   </g>
   <g id="text_3">
    <!-- $t' = 0$ -->
    <g transform="translate(162.432 112.536) scale(0.1 -0.1)">
     <defs>
      <path id="DejaVuSans-Oblique-74" d="M 2706 3500 
L 2619 3053 
L 1472 3053 
L 1100 1153 
Q 1081 1047 1072 975 
Q 1063 903 1063 863 
Q 1063 663 1183 572 
Q 1303 481 1569 481 
L 2150 481 
L 2053 0 
L 1503 0 
Q 991 0 739 200 
Q 488 400 488 806 
Q 488 878 497 964 
Q 506 1050 525 1153 
L 897 3053 
L 409 3053 
L 500 3500 
L 978 3500 
L 1172 4494 
L 1747 4494 
L 1556 3500 
L 2706 3500 
z
" transform="scale(0.015625)"/>
      <path id="Cmsy10-30" d="M 225 347 
Q 184 359 184 409 
L 966 3316 
Q 1003 3434 1093 3506 
Q 1184 3578 1300 3578 
Q 1450 3578 1564 3479 
Q 1678 3381 1678 3231 
Q 1678 3166 1644 3084 
L 488 319 
Q 466 275 428 275 
Q 394 275 320 306 
Q 247 338 225 347 
z
" transform="scale(0.015625)"/>
      <path id="DejaVuSans-3d" d="M 678 2906 
L 4684 2906 
L 4684 2381 
L 678 2381 
L 678 2906 
z
M 678 1631 
L 4684 1631 
L 4684 1100 
L 678 1100 
L 678 1631 
z
" transform="scale(0.015625)"/>
      <path id="DejaVuSans-30" d="M 2034 4250 
Q 1547 4250 1301 3770 
Q 1056 3291 1056 2328 
Q 1056 1369 1301 889 
Q 1547 409 2034 409 
Q 2525 409 2770 889 
Q 3016 1369 3016 2328 
Q 3016 3291 2770 3770 
Q 2525 4250 2034 4250 
z
M 2034 4750 
Q 2819 4750 3233 4129 
Q 3647 3509 3647 2328 
Q 3647 1150 3233 529 
Q 2819 -91 2034 -91 
Q 1250 -91 836 529 
Q 422 1150 422 2328 
Q 422 3509 836 4129 
Q 1250 4750 2034 4750 
z
" transform="scale(0.015625)"/>
     </defs>
     <use xlink:href="#DejaVuSans-Oblique-74" transform="translate(0 0.584375)"/>
     <use xlink:href="#Cmsy10-30" transform="translate(45.849505 38.865625) scale(0.7)"/>
     <use xlink:href="#DejaVuSans-3d" transform="translate(87.309466 0.584375)"/>
     <use xlink:href="#DejaVuSans-30" transform="translate(190.580951 0.584375)"/>
    </g>
   </g>
  </g>
 </g>
 <defs>
  <clipPath id="p0d4757cec1">
   <rect x="7.2" y="7.2" width="144.144" height="266.112"/>
  </clipPath>
 </defs>
</svg>
