<svg xmlns="http://www.w3.org/2000/svg" xmlns:xlink="http://www.w3.org/1999/xlink" width="215.556" height="374.016" viewBox="0 0 161.667 280.512"><defs><style>*{stroke-linejoin:round;stroke-linecap:butt}</style></defs><g id="figure_1"><path id="patch_1" d="M0 280.512h161.667V0H0z" style="fill:none"/><g id="axes_1"><path id="patch_2" d="m151.344 140.256-5.544 3.604 1.294-3.601H7.2v-.006h139.894l-1.294-3.6z" clip-path="url(#p2505a2c50b)" style="fill:gray;stroke:gray;stroke-linejoin:miter"/><path id="patch_3" d="m79.272 7.2 3.604 5.544-3.601-1.294v261.862h-.006V11.45l-3.6 1.294z" clip-path="url(#p2505a2c50b)" style="fill:gray;stroke:gray;stroke-linejoin:miter"/><g id="line2d_1"><defs><path id="m637b332fac" d="M0 .5a.5.5 0 1 0 0-1 .5.5 0 0 0 0 1z" style="stroke:#000"/></defs><g clip-path="url(#p2505a2c50b)"><use xlink:href="#m637b332fac" x="64.504" y="63.255" style="stroke:#000"/><use xlink:href="#m637b332fac" x="63.803" y="70.963" style="stroke:#000"/><use xlink:href="#m637b332fac" x="62.755" y="77.747" style="stroke:#000"/><use xlink:href="#m637b332fac" x="61.16" y="83.358" style="stroke:#000"/><use xlink:href="#m637b332fac" x="58.732" y="87.581" style="stroke:#000"/><use xlink:href="#m637b332fac" x="55.106" y="90.36" style="stroke:#000"/><use xlink:href="#m637b332fac" x="49.927" y="91.93" style="stroke:#000"/><use xlink:href="#m637b332fac" x="42.974" y="92.845" style="stroke:#000"/><use xlink:href="#m637b332fac" x="34.267" y="93.838" style="stroke:#000"/><use xlink:href="#m637b332fac" x="24.071" y="95.607" style="stroke:#000"/><use xlink:href="#m637b332fac" x="12.811" y="98.662" style="stroke:#000"/></g></g><g id="line2d_2" clip-path="url(#p2505a2c50b)"><use xlink:href="#m637b332fac" x="67.918" y="70.171" style="stroke:#000"/><use xlink:href="#m637b332fac" x="67.458" y="78.655" style="stroke:#000"/><use xlink:href="#m637b332fac" x="66.718" y="86.255" style="stroke:#000"/><use xlink:href="#m637b332fac" x="65.488" y="92.623" style="stroke:#000"/><use xlink:href="#m637b332fac" x="63.403" y="97.381" style="stroke:#000"/><use xlink:href="#m637b332fac" x="59.939" y="100.339" style="stroke:#000"/><use xlink:href="#m637b332fac" x="54.541" y="101.805" style="stroke:#000"/><use xlink:href="#m637b332fac" x="46.917" y="102.679" style="stroke:#000"/><use xlink:href="#m637b332fac" x="37.245" y="104.099" style="stroke:#000"/><use xlink:href="#m637b332fac" x="26.103" y="106.98" style="stroke:#000"/><use xlink:href="#m637b332fac" x="14.228" y="111.797" style="stroke:#000"/></g><g id="line2d_3" clip-path="url(#p2505a2c50b)"><use xlink:href="#m637b332fac" x="71.088" y="76.122" style="stroke:#000"/><use xlink:href="#m637b332fac" x="70.842" y="85.46" style="stroke:#000"/><use xlink:href="#m637b332fac" x="70.411" y="94.055" style="stroke:#000"/><use xlink:href="#m637b332fac" x="69.601" y="101.465" style="stroke:#000"/><use xlink:href="#m637b332fac" x="67.985" y="107.059" style="stroke:#000"/><use xlink:href="#m637b332fac" x="64.773" y="110.318" style="stroke:#000"/><use xlink:href="#m637b332fac" x="59.004" y="111.643" style="stroke:#000"/><use xlink:href="#m637b332fac" x="50.318" y="112.689" style="stroke:#000"/><use xlink:href="#m637b332fac" x="39.396" y="115.299" style="stroke:#000"/><use xlink:href="#m637b332fac" x="27.49" y="120.455" style="stroke:#000"/><use xlink:href="#m637b332fac" x="15.751" y="128.214" style="stroke:#000"/></g><g id="line2d_4" clip-path="url(#p2505a2c50b)"><use xlink:href="#m637b332fac" x="74.006" y="80.777" style="stroke:#000"/><use xlink:href="#m637b332fac" x="73.917" y="90.958" style="stroke:#000"/><use xlink:href="#m637b332fac" x="73.745" y="100.661" style="stroke:#000"/><use xlink:href="#m637b332fac" x="73.365" y="109.455" style="stroke:#000"/><use xlink:href="#m637b332fac" x="72.38" y="116.439" style="stroke:#000"/><use xlink:href="#m637b332fac" x="69.606" y="120.297" style="stroke:#000"/><use xlink:href="#m637b332fac" x="63.095" y="121.467" style="stroke:#000"/><use xlink:href="#m637b332fac" x="52.688" y="123.618" style="stroke:#000"/><use xlink:href="#m637b332fac" x="40.786" y="129.438" style="stroke:#000"/><use xlink:href="#m637b332fac" x="29.707" y="138.836" style="stroke:#000"/><use xlink:href="#m637b332fac" x="20.467" y="150.597" style="stroke:#000"/></g><g id="line2d_5" clip-path="url(#p2505a2c50b)"><use xlink:href="#m637b332fac" x="76.705" y="83.776" style="stroke:#000"/><use xlink:href="#m637b332fac" x="76.692" y="94.611" style="stroke:#000"/><use xlink:href="#m637b332fac" x="76.665" y="105.289" style="stroke:#000"/><use xlink:href="#m637b332fac" x="76.594" y="115.607" style="stroke:#000"/><use xlink:href="#m637b332fac" x="76.318" y="124.855" style="stroke:#000"/><use xlink:href="#m637b332fac" x="74.439" y="130.276" style="stroke:#000"/><use xlink:href="#m637b332fac" x="65.98" y="131.936" style="stroke:#000"/><use xlink:href="#m637b332fac" x="54.491" y="139.545" style="stroke:#000"/><use xlink:href="#m637b332fac" x="46.213" y="151.928" style="stroke:#000"/><use xlink:href="#m637b332fac" x="41.18" y="165.525" style="stroke:#000"/><use xlink:href="#m637b332fac" x="38.134" y="179.03" style="stroke:#000"/></g><g id="line2d_6" clip-path="url(#p2505a2c50b)"><use xlink:href="#m637b332fac" x="79.272" y="84.815" style="stroke:#000"/><use xlink:href="#m637b332fac" x="79.272" y="95.903" style="stroke:#000"/><use xlink:href="#m637b332fac" x="79.272" y="106.991" style="stroke:#000"/><use xlink:href="#m637b332fac" x="79.272" y="118.079" style="stroke:#000"/><use xlink:href="#m637b332fac" x="79.272" y="129.167" style="stroke:#000"/><use xlink:href="#m637b332fac" x="79.272" y="140.256" style="stroke:#000"/><use xlink:href="#m637b332fac" x="79.272" y="151.334" style="stroke:#000"/><use xlink:href="#m637b332fac" x="79.272" y="162.422" style="stroke:#000"/><use xlink:href="#m637b332fac" x="79.272" y="173.51" style="stroke:#000"/><use xlink:href="#m637b332fac" x="79.272" y="184.598" style="stroke:#000"/><use xlink:href="#m637b332fac" x="79.272" y="195.686" style="stroke:#000"/></g><g id="line2d_7" clip-path="url(#p2505a2c50b)"><use xlink:href="#m637b332fac" x="81.839" y="83.776" style="stroke:#000"/><use xlink:href="#m637b332fac" x="81.852" y="94.611" style="stroke:#000"/><use xlink:href="#m637b332fac" x="81.879" y="105.289" style="stroke:#000"/><use xlink:href="#m637b332fac" x="81.95" y="115.607" style="stroke:#000"/><use xlink:href="#m637b332fac" x="82.226" y="124.855" style="stroke:#000"/><use xlink:href="#m637b332fac" x="84.105" y="130.276" style="stroke:#000"/><use xlink:href="#m637b332fac" x="92.564" y="131.936" style="stroke:#000"/><use xlink:href="#m637b332fac" x="104.053" y="139.545" style="stroke:#000"/><use xlink:href="#m637b332fac" x="112.331" y="151.928" style="stroke:#000"/><use xlink:href="#m637b332fac" x="117.364" y="165.525" style="stroke:#000"/><use xlink:href="#m637b332fac" x="120.41" y="179.03" style="stroke:#000"/></g><g id="line2d_8" clip-path="url(#p2505a2c50b)"><use xlink:href="#m637b332fac" x="84.538" y="80.777" style="stroke:#000"/><use xlink:href="#m637b332fac" x="84.627" y="90.958" style="stroke:#000"/><use xlink:href="#m637b332fac" x="84.799" y="100.661" style="stroke:#000"/><use xlink:href="#m637b332fac" x="85.179" y="109.455" style="stroke:#000"/><use xlink:href="#m637b332fac" x="86.164" y="116.439" style="stroke:#000"/><use xlink:href="#m637b332fac" x="88.938" y="120.297" style="stroke:#000"/><use xlink:href="#m637b332fac" x="95.449" y="121.467" style="stroke:#000"/><use xlink:href="#m637b332fac" x="105.856" y="123.618" style="stroke:#000"/><use xlink:href="#m637b332fac" x="117.758" y="129.438" style="stroke:#000"/><use xlink:href="#m637b332fac" x="128.837" y="138.836" style="stroke:#000"/><use xlink:href="#m637b332fac" x="138.077" y="150.597" style="stroke:#000"/></g><g id="line2d_9" clip-path="url(#p2505a2c50b)"><use xlink:href="#m637b332fac" x="87.456" y="76.122" style="stroke:#000"/><use xlink:href="#m637b332fac" x="87.702" y="85.46" style="stroke:#000"/><use xlink:href="#m637b332fac" x="88.133" y="94.055" style="stroke:#000"/><use xlink:href="#m637b332fac" x="88.943" y="101.465" style="stroke:#000"/><use xlink:href="#m637b332fac" x="90.559" y="107.059" style="stroke:#000"/><use xlink:href="#m637b332fac" x="93.771" y="110.318" style="stroke:#000"/><use xlink:href="#m637b332fac" x="99.54" y="111.643" style="stroke:#000"/><use xlink:href="#m637b332fac" x="108.226" y="112.689" style="stroke:#000"/><use xlink:href="#m637b332fac" x="119.148" y="115.299" style="stroke:#000"/><use xlink:href="#m637b332fac" x="131.054" y="120.455" style="stroke:#000"/><use xlink:href="#m637b332fac" x="142.793" y="128.214" style="stroke:#000"/></g><g id="line2d_10" clip-path="url(#p2505a2c50b)"><use xlink:href="#m637b332fac" x="90.626" y="70.171" style="stroke:#000"/><use xlink:href="#m637b332fac" x="91.086" y="78.655" style="stroke:#000"/><use xlink:href="#m637b332fac" x="91.826" y="86.255" style="stroke:#000"/><use xlink:href="#m637b332fac" x="93.056" y="92.623" style="stroke:#000"/><use xlink:href="#m637b332fac" x="95.141" y="97.381" style="stroke:#000"/><use xlink:href="#m637b332fac" x="98.605" y="100.339" style="stroke:#000"/><use xlink:href="#m637b332fac" x="104.003" y="101.805" style="stroke:#000"/><use xlink:href="#m637b332fac" x="111.627" y="102.679" style="stroke:#000"/><use xlink:href="#m637b332fac" x="121.299" y="104.099" style="stroke:#000"/><use xlink:href="#m637b332fac" x="132.441" y="106.98" style="stroke:#000"/><use xlink:href="#m637b332fac" x="144.316" y="111.797" style="stroke:#000"/></g><g id="line2d_11" clip-path="url(#p2505a2c50b)"><use xlink:href="#m637b332fac" x="94.04" y="63.255" style="stroke:#000"/><use xlink:href="#m637b332fac" x="94.741" y="70.963" style="stroke:#000"/><use xlink:href="#m637b332fac" x="95.789" y="77.747" style="stroke:#000"/><use xlink:href="#m637b332fac" x="97.384" y="83.358" style="stroke:#000"/><use xlink:href="#m637b332fac" x="99.812" y="87.581" style="stroke:#000"/><use xlink:href="#m637b332fac" x="103.438" y="90.36" style="stroke:#000"/><use xlink:href="#m637b332fac" x="108.617" y="91.93" style="stroke:#000"/><use xlink:href="#m637b332fac" x="115.57" y="92.845" style="stroke:#000"/><use xlink:href="#m637b332fac" x="124.277" y="93.838" style="stroke:#000"/><use xlink:href="#m637b332fac" x="134.473" y="95.607" style="stroke:#000"/><use xlink:href="#m637b332fac" x="145.733" y="98.662" style="stroke:#000"/></g><g id="text_1" style="fill:gray" transform="matrix(.1 0 0 -.1 145.8 134.712)"><defs><path id="DejaVuSans-79" d="M2059-325q-243-625-475-815-231-191-618-191H506v481h338q237 0 368 113 132 112 291 531l103 262L191 3500h609L1894 763l1094 2737h609z" transform="scale(.01563)"/><path id="DejaVuSans-27" d="M1147 4666V2931H616v1735z" transform="scale(.01563)"/></defs><use xlink:href="#DejaVuSans-79"/><use xlink:href="#DejaVuSans-27" x="59.18"/></g><g id="text_2" style="fill:gray" transform="matrix(.1 0 0 -.1 84.816 18.288)"><defs><path id="DejaVuSans-7a" d="M353 3500h2731v-525L922 459h2162V0H275v525l2163 2516H353z" transform="scale(.01563)"/></defs><use xlink:href="#DejaVuSans-7a"/><use xlink:href="#DejaVuSans-27" x="52.49"/></g></g></g><defs><clipPath id="p2505a2c50b"><path d="M7.2 7.2h144.144v266.112H7.2z"/></clipPath></defs></svg>