<svg data-optimized="true" xmlns="http://www.w3.org/2000/svg" xmlns:xlink="http://www.w3.org/1999/xlink" width="270.497" height="374.016" viewBox="0 0 202.873 280.512"><defs><style>*{stroke-linejoin:round;stroke-linecap:butt}</style></defs><g id="figure_1"><path id="patch_1" d="M0 280.512h202.873V0H0z" style="fill:none"/><g id="axes_1"><path id="patch_2" d="m194.198 179.813-7.193 4.675 1.679-4.671H7.2v-.007h181.484l-1.679-4.672z" clip-path="url(#p1758977b5c)" style="fill:gray;stroke:gray;stroke-linejoin:miter"/><path id="patch_3" d="m100.699 7.2 4.675 7.192-4.672-1.678v260.598h-.007V12.714l-4.671 1.678z" clip-path="url(#p1758977b5c)" style="fill:gray;stroke:gray;stroke-linejoin:miter"/><g id="Quiver_1"><path d="M29.244-200.24v5.872l1.87-.468-2.337 4.675-2.338-4.675 1.87.468v-5.873zm14.385 19.837v5.873l1.87-.468-2.338 4.675-2.337-4.675 1.87.468v-5.873zm14.384 16.993v5.873l1.87-.467-2.337 4.675-2.338-4.675 1.87.467v-5.872zm14.384 13.24v5.873l1.87-.467-2.337 4.675-2.338-4.675 1.87.467v-5.872zm14.385 8.5v5.872l1.87-.468-2.338 4.675-2.337-4.675 1.87.468v-5.873zm14.384 2.94v5.873l1.87-.468-2.337 4.675-2.338-4.675 1.87.468v-5.873zm14.384-2.94v5.872l1.87-.468-2.337 4.675-2.337-4.675 1.87.468v-5.873zm14.385-8.5v5.873l1.87-.467-2.337 4.675-2.338-4.675 1.87.467v-5.872zm14.385-13.24v5.873l1.87-.467-2.338 4.675-2.337-4.675 1.87.467v-5.872zm14.384-16.993v5.873l1.87-.468-2.337 4.675-2.338-4.675 1.87.468v-5.873zm14.384-19.837v5.872l1.87-.468-2.337 4.675-2.337-4.675 1.87.468v-5.873zM29.244-147.403v5.873l1.87-.468-2.337 4.675-2.338-4.675 1.87.468v-5.873zm14.385 22.165v5.872l1.87-.467-2.338 4.675-2.337-4.675 1.87.467v-5.872zm14.384 19.508v5.873l1.87-.468-2.337 4.675-2.338-4.675 1.87.468v-5.873zm14.384 15.678v5.873l1.87-.468-2.337 4.675-2.338-4.675 1.87.468v-5.873zm14.385 10.366v5.873l1.87-.468-2.338 4.675-2.337-4.675 1.87.468v-5.873zm14.384 3.656v5.873l1.87-.467-2.337 4.675-2.338-4.675 1.87.467v-5.872zm14.384-3.656v5.873l1.87-.468-2.337 4.675-2.337-4.675 1.87.468v-5.873zm14.385-10.366v5.873l1.87-.468-2.337 4.675-2.338-4.675 1.87.468v-5.873zm14.385-15.678v5.873l1.87-.468-2.338 4.675-2.337-4.675 1.87.468v-5.873zm14.384-19.508v5.872l1.87-.467-2.337 4.675-2.338-4.675 1.87.467v-5.872zm14.384-22.165v5.873l1.87-.468-2.337 4.675-2.337-4.675 1.87.468v-5.873zM29.244-97.409v5.873l1.87-.468-2.337 4.675-2.338-4.675 1.87.468v-5.873zM43.629-72.73v5.873l1.87-.467-2.338 4.675-2.337-4.675 1.87.467v-5.872zm14.384 22.494v5.873l1.87-.468-2.337 4.675-2.338-4.675 1.87.468v-5.873zm14.384 18.922v5.872l1.87-.467-2.337 4.675-2.338-4.675 1.87.467v-5.872zm14.385 13.165v5.873l1.87-.468-2.338 4.675-2.337-4.675 1.87.468v-5.873zm14.384 4.819v5.873l1.87-.467L100.7-3.25l-2.34-4.674 1.87.467v-5.872zm14.384-4.819v5.873l1.87-.468-2.337 4.675-2.337-4.675 1.87.468v-5.873zm14.385-13.165v5.872l1.87-.467-2.337 4.675-2.338-4.675 1.87.467v-5.872zm14.385-18.922v5.873l1.87-.468-2.338 4.675-2.337-4.675 1.87.468v-5.873zm14.384-22.494v5.873l1.87-.467-2.337 4.675-2.338-4.675 1.87.467v-5.872zm14.384-24.679v5.873l1.87-.468-2.337 4.675-2.337-4.675 1.87.468v-5.873zM29.244-51.169v5.873l1.87-.468-2.337 4.675-2.338-4.675 1.87.468v-5.873zm14.385 27.117v5.873l1.87-.468-2.338 4.675-2.337-4.675 1.87.468v-5.873zM58.013 1.686v5.873l1.87-.468-2.337 4.675-2.338-4.675 1.87.468V1.686zm14.384 23.081v5.872l1.87-.467-2.337 4.675-2.338-4.675 1.87.467v-5.872zM86.782 42.36v5.872l1.87-.467-2.338 4.675-2.337-4.675 1.87.467V42.36zm14.384 7.011v5.873l1.87-.468-2.337 4.675-2.338-4.675 1.87.468V49.37zm14.384-7.011v5.872l1.87-.467-2.337 4.675-2.337-4.675 1.87.467V42.36zm14.385-17.593v5.872l1.87-.467-2.337 4.675-2.338-4.675 1.87.467v-5.872zM144.32 1.686v5.873l1.87-.468-2.338 4.675-2.337-4.675 1.87.468V1.686zm14.384-25.738v5.873l1.87-.468-2.337 4.675-2.338-4.675 1.87.468v-5.873zm14.384-27.117v5.873l1.87-.468-2.337 4.675-2.337-4.675 1.87.468v-5.873zM29.244-9.67v5.873l1.87-.468L28.777.41l-2.338-4.675 1.87.468V-9.67zm14.385 28.985v5.872l1.87-.467-2.338 4.675-2.337-4.675 1.87.467v-5.872zm14.384 28.536v5.873l1.87-.467-2.337 4.674-2.338-4.674 1.87.467v-5.873zM72.397 75.36v5.873l1.87-.468-2.337 4.675-2.338-4.675 1.87.468V75.36zm14.385 24.41v5.872l1.87-.468-2.338 4.675-2.337-4.675 1.87.468v-5.873zm14.384 12.301v5.873l1.87-.468-2.337 4.675-2.338-4.675 1.87.468v-5.873zM115.55 99.77v5.872l1.87-.468-2.337 4.675-2.337-4.675 1.87.468v-5.873zm14.385-24.41v5.873l1.87-.468-2.337 4.675-2.338-4.675 1.87.468V75.36zm14.385-27.509v5.873l1.87-.467-2.338 4.674-2.337-4.674 1.87.467v-5.873zm14.384-28.536v5.872l1.87-.467-2.337 4.675-2.338-4.675 1.87.467v-5.872zM173.088-9.67v5.873l1.87-.468L172.621.41l-2.337-4.675 1.87.468V-9.67zM29.244 26.271v5.873l1.87-.468-2.337 4.675-2.338-4.675 1.87.468V26.27zm14.385 29.7v5.873l1.87-.468-2.338 4.675-2.337-4.675 1.87.468V55.97zm14.384 29.7v5.873l1.87-.468-2.337 4.675-2.338-4.675 1.87.468V85.67zm14.384 29.7v5.873l1.87-.468-2.337 4.675-2.338-4.675 1.87.468v-5.873zm14.385 29.701v5.872l1.87-.467-2.338 4.675-2.337-4.675 1.87.467v-5.872zm14.384 29.7v5.872l1.87-.467-2.337 4.675-2.338-4.675 1.87.467v-5.872zm14.384-29.7v5.872l1.87-.467-2.337 4.675-2.337-4.675 1.87.467v-5.872zm14.385-29.701v5.873l1.87-.468-2.337 4.675-2.338-4.675 1.87.468v-5.873zm14.385-29.7v5.873l1.87-.468-2.338 4.675-2.337-4.675 1.87.468V85.67zm14.384-29.7v5.873l1.87-.468-2.337 4.675-2.338-4.675 1.87.468V55.97zm14.384-29.7v5.873l1.87-.468-2.337 4.675-2.337-4.675 1.87.468V26.27zM29.244 56.33v5.873l1.87-.468-2.337 4.675-2.338-4.675 1.87.468V56.33zm14.385 28.985v5.873l1.87-.468-2.338 4.675-2.337-4.675 1.87.468v-5.873zm14.384 28.537v5.872l1.87-.467-2.337 4.675-2.338-4.675 1.87.467v-5.872zm14.384 27.508v5.873l1.87-.468-2.337 4.675-2.338-4.675 1.87.468v-5.873zm14.385 24.41v5.872l1.87-.467-2.338 4.675-2.337-4.675 1.87.467v-5.872z" clip-path="url(#p1758977b5c)"/><path d="M101.166 178.072v5.872l1.87-.467-2.337 4.675-2.338-4.675 1.87.467v-5.872zm14.384-12.302v5.872l1.87-.467-2.337 4.675-2.337-4.675 1.87.467v-5.872zm14.385-24.41v5.873l1.87-.468-2.337 4.675-2.338-4.675 1.87.468v-5.873zm14.385-27.508v5.872l1.87-.467-2.338 4.675-2.337-4.675 1.87.467v-5.872zm14.384-28.537v5.873l1.87-.468-2.337 4.675-2.338-4.675 1.87.468v-5.873zm14.384-28.985v5.873l1.87-.468-2.337 4.675-2.337-4.675 1.87.468V56.33zM29.244 80.832v5.872l1.87-.467-2.337 4.675-2.338-4.675 1.87.467v-5.872zm14.385 27.117v5.873l1.87-.468-2.338 4.675-2.337-4.675 1.87.468v-5.873zm14.384 25.738v5.872l1.87-.467-2.337 4.675-2.338-4.675 1.87.467v-5.872zm14.384 23.08v5.873l1.87-.468-2.337 4.675-2.338-4.675 1.87.468v-5.873zm14.385 17.593v5.873l1.87-.467-2.338 4.674-2.337-4.674 1.87.467v-5.873z" clip-path="url(#p1758977b5c)"/><path d="M101.166 181.372v5.872l1.87-.467-2.337 4.675-2.338-4.675 1.87.467v-5.872zm14.384-7.012v5.873l1.87-.467-2.337 4.674-2.337-4.674 1.87.467v-5.873zm14.385-17.593v5.873l1.87-.468-2.337 4.675-2.338-4.675 1.87.468v-5.873zm14.385-23.08v5.872l1.87-.467-2.338 4.675-2.337-4.675 1.87.467v-5.872zm14.384-25.738v5.873l1.87-.468-2.337 4.675-2.338-4.675 1.87.468v-5.873zm14.384-27.117v5.872l1.87-.467-2.337 4.675-2.337-4.675 1.87.467v-5.872zm-143.844 19.76v5.873l1.87-.468-2.337 4.675-2.338-4.675 1.87.468v-5.873zm14.385 24.679v5.873l1.87-.467-2.338 4.674-2.337-4.674 1.87.467v-5.873zm14.384 22.494v5.873l1.87-.468-2.337 4.675-2.338-4.675 1.87.468v-5.873zm14.384 18.922v5.872l1.87-.467-2.337 4.675-2.338-4.675 1.87.467v-5.872zm14.385 13.165v5.873l1.87-.468-2.338 4.675-2.337-4.675 1.87.468v-5.873z" clip-path="url(#p1758977b5c)"/><path d="M101.166 184.672v5.872l1.87-.467-2.337 4.675-2.338-4.675 1.87.467v-5.872zm14.384-4.82v5.873l1.87-.468-2.337 4.675-2.337-4.675 1.87.468v-5.873zm14.385-13.165v5.872l1.87-.467-2.337 4.675-2.338-4.675 1.87.467v-5.872zm14.385-18.922v5.873l1.87-.468-2.338 4.675-2.337-4.675 1.87.468v-5.873zm14.384-22.494v5.873l1.87-.467-2.337 4.674-2.338-4.674 1.87.467v-5.873zm14.384-24.679v5.873l1.87-.468-2.337 4.675-2.337-4.675 1.87.468v-5.873zM29.244 116.599v5.872l1.87-.467-2.337 4.675-2.338-4.675 1.87.467V116.6zm14.385 22.164v5.873l1.87-.468-2.338 4.675-2.337-4.675 1.87.468v-5.873zm14.384 19.509v5.872l1.87-.467-2.337 4.675-2.338-4.675 1.87.467v-5.872zm14.384 15.678v5.872l1.87-.468-2.337 4.675-2.338-4.675 1.87.468v-5.873zm14.385 10.366v5.872l1.87-.467-2.338 4.675-2.337-4.675 1.87.467v-5.872z" clip-path="url(#p1758977b5c)"/><path d="M101.166 187.972v5.872l1.87-.467-2.337 4.675-2.338-4.675 1.87.467v-5.872zm14.384-3.656v5.872l1.87-.467-2.337 4.675-2.337-4.675 1.87.467v-5.872zm14.385-10.366v5.872l1.87-.468-2.337 4.675-2.338-4.675 1.87.468v-5.873zm14.385-15.678v5.872l1.87-.467-2.338 4.675-2.337-4.675 1.87.467v-5.872zm14.384-19.509v5.873l1.87-.468-2.337 4.675-2.338-4.675 1.87.468v-5.873zm14.384-22.164v5.872l1.87-.467-2.337 4.675-2.337-4.675 1.87.467V116.6zM29.244 129.76v5.873l1.87-.467-2.337 4.675-2.338-4.675 1.87.467v-5.872zm14.385 19.839v5.872l1.87-.467-2.338 4.675-2.337-4.675 1.87.467V149.6zm14.384 16.993v5.873l1.87-.468-2.337 4.675-2.338-4.675 1.87.468v-5.873zm14.384 13.24v5.873l1.87-.468-2.337 4.675-2.338-4.675 1.87.468v-5.873zm14.385 8.498v5.873l1.87-.467-2.338 4.675-2.337-4.675 1.87.467v-5.872z" clip-path="url(#p1758977b5c)"/><path d="M101.166 191.272v5.872l1.87-.467-2.337 4.675-2.338-4.675 1.87.467v-5.872zm14.384-2.942v5.873l1.87-.467-2.337 4.675-2.337-4.675 1.87.467v-5.872zm14.385-8.498v5.873l1.87-.468-2.337 4.675-2.338-4.675 1.87.468v-5.873zm14.385-13.24v5.873l1.87-.468-2.338 4.675-2.337-4.675 1.87.468v-5.873zm14.384-16.993v5.872l1.87-.467-2.337 4.675-2.338-4.675 1.87.467V149.6zm14.384-19.839v5.873l1.87-.467-2.337 4.675-2.337-4.675 1.87.467v-5.872z" clip-path="url(#p1758977b5c)"/></g><g id="text_1" style="fill:gray" transform="matrix(.1 0 0 -.1 187.005 172.621)"><defs><path id="DejaVuSans-79" d="M2059-325q-243-625-475-815-231-191-618-191H506v481h338q237 0 368 113 132 112 291 531l103 262L191 3500h609L1894 763l1094 2737h609z" transform="scale(.01563)"/><path id="DejaVuSans-27" d="M1147 4666V2931H616v1735z" transform="scale(.01563)"/></defs><use xlink:href="#DejaVuSans-79"/><use xlink:href="#DejaVuSans-27" x="59.18"/></g><g id="text_2" style="fill:gray" transform="matrix(.1 0 0 -.1 107.891 21.584)"><defs><path id="DejaVuSans-7a" d="M353 3500h2731v-525L922 459h2162V0H275v525l2163 2516H353z" transform="scale(.01563)"/></defs><use xlink:href="#DejaVuSans-7a"/><use xlink:href="#DejaVuSans-27" x="52.49"/></g></g></g><defs><clipPath id="p1758977b5c"><path d="M7.2 7.2h186.998v266.112H7.2z"/></clipPath></defs></svg>