<svg data-optimized="true" xmlns="http://www.w3.org/2000/svg" xmlns:xlink="http://www.w3.org/1999/xlink" width="872.054" height="327.197" viewBox="0 0 654.041 245.398"><defs><style>*{stroke-linejoin:round;stroke-linecap:butt}</style></defs><g id="figure_1"><path id="patch_1" d="M0 245.398h654.04V0H0z" style="fill:none"/><g id="axes_1"><path id="patch_2" d="m132 122.998-4.8 3.12 1.12-3.118H7.2v-.004h121.12l-1.12-3.118z" clip-path="url(#p1e850ec33b)" style="stroke:#000;stroke-linejoin:miter"/><path id="patch_3" d="m69.6 7.798 3.12 4.8-3.118-1.12v226.72h-.004V11.478l-3.118 1.12z" clip-path="url(#p1e850ec33b)" style="stroke:#000;stroke-linejoin:miter"/><g id="line2d_1"><defs><path id="m42f1e72180" d="M0 .5a.5.5 0 1 0 0-1 .5.5 0 0 0 0 1z" style="stroke:#000"/></defs><g clip-path="url(#p1e850ec33b)"><use xlink:href="#m42f1e72180" x="21.6" y="170.998" style="stroke:#000"/><use xlink:href="#m42f1e72180" x="21.6" y="161.398" style="stroke:#000"/><use xlink:href="#m42f1e72180" x="21.6" y="151.798" style="stroke:#000"/><use xlink:href="#m42f1e72180" x="21.6" y="142.198" style="stroke:#000"/><use xlink:href="#m42f1e72180" x="21.6" y="132.598" style="stroke:#000"/><use xlink:href="#m42f1e72180" x="21.6" y="122.998" style="stroke:#000"/><use xlink:href="#m42f1e72180" x="21.6" y="113.398" style="stroke:#000"/><use xlink:href="#m42f1e72180" x="21.6" y="103.798" style="stroke:#000"/><use xlink:href="#m42f1e72180" x="21.6" y="94.198" style="stroke:#000"/><use xlink:href="#m42f1e72180" x="21.6" y="84.598" style="stroke:#000"/><use xlink:href="#m42f1e72180" x="21.6" y="74.998" style="stroke:#000"/></g></g><g id="line2d_2" clip-path="url(#p1e850ec33b)"><use xlink:href="#m42f1e72180" x="31.2" y="170.998" style="stroke:#000"/><use xlink:href="#m42f1e72180" x="31.2" y="161.398" style="stroke:#000"/><use xlink:href="#m42f1e72180" x="31.2" y="151.798" style="stroke:#000"/><use xlink:href="#m42f1e72180" x="31.2" y="142.198" style="stroke:#000"/><use xlink:href="#m42f1e72180" x="31.2" y="132.598" style="stroke:#000"/><use xlink:href="#m42f1e72180" x="31.2" y="122.998" style="stroke:#000"/><use xlink:href="#m42f1e72180" x="31.2" y="113.398" style="stroke:#000"/><use xlink:href="#m42f1e72180" x="31.2" y="103.798" style="stroke:#000"/><use xlink:href="#m42f1e72180" x="31.2" y="94.198" style="stroke:#000"/><use xlink:href="#m42f1e72180" x="31.2" y="84.598" style="stroke:#000"/><use xlink:href="#m42f1e72180" x="31.2" y="74.998" style="stroke:#000"/></g><g id="line2d_3" clip-path="url(#p1e850ec33b)"><use xlink:href="#m42f1e72180" x="40.8" y="170.998" style="stroke:#000"/><use xlink:href="#m42f1e72180" x="40.8" y="161.398" style="stroke:#000"/><use xlink:href="#m42f1e72180" x="40.8" y="151.798" style="stroke:#000"/><use xlink:href="#m42f1e72180" x="40.8" y="142.198" style="stroke:#000"/><use xlink:href="#m42f1e72180" x="40.8" y="132.598" style="stroke:#000"/><use xlink:href="#m42f1e72180" x="40.8" y="122.998" style="stroke:#000"/><use xlink:href="#m42f1e72180" x="40.8" y="113.398" style="stroke:#000"/><use xlink:href="#m42f1e72180" x="40.8" y="103.798" style="stroke:#000"/><use xlink:href="#m42f1e72180" x="40.8" y="94.198" style="stroke:#000"/><use xlink:href="#m42f1e72180" x="40.8" y="84.598" style="stroke:#000"/><use xlink:href="#m42f1e72180" x="40.8" y="74.998" style="stroke:#000"/></g><g id="line2d_4" clip-path="url(#p1e850ec33b)"><use xlink:href="#m42f1e72180" x="50.4" y="170.998" style="stroke:#000"/><use xlink:href="#m42f1e72180" x="50.4" y="161.398" style="stroke:#000"/><use xlink:href="#m42f1e72180" x="50.4" y="151.798" style="stroke:#000"/><use xlink:href="#m42f1e72180" x="50.4" y="142.198" style="stroke:#000"/><use xlink:href="#m42f1e72180" x="50.4" y="132.598" style="stroke:#000"/><use xlink:href="#m42f1e72180" x="50.4" y="122.998" style="stroke:#000"/><use xlink:href="#m42f1e72180" x="50.4" y="113.398" style="stroke:#000"/><use xlink:href="#m42f1e72180" x="50.4" y="103.798" style="stroke:#000"/><use xlink:href="#m42f1e72180" x="50.4" y="94.198" style="stroke:#000"/><use xlink:href="#m42f1e72180" x="50.4" y="84.598" style="stroke:#000"/><use xlink:href="#m42f1e72180" x="50.4" y="74.998" style="stroke:#000"/></g><g id="line2d_5" clip-path="url(#p1e850ec33b)"><use xlink:href="#m42f1e72180" x="60" y="170.998" style="stroke:#000"/><use xlink:href="#m42f1e72180" x="60" y="161.398" style="stroke:#000"/><use xlink:href="#m42f1e72180" x="60" y="151.798" style="stroke:#000"/><use xlink:href="#m42f1e72180" x="60" y="142.198" style="stroke:#000"/><use xlink:href="#m42f1e72180" x="60" y="132.598" style="stroke:#000"/><use xlink:href="#m42f1e72180" x="60" y="122.998" style="stroke:#000"/><use xlink:href="#m42f1e72180" x="60" y="113.398" style="stroke:#000"/><use xlink:href="#m42f1e72180" x="60" y="103.798" style="stroke:#000"/><use xlink:href="#m42f1e72180" x="60" y="94.198" style="stroke:#000"/><use xlink:href="#m42f1e72180" x="60" y="84.598" style="stroke:#000"/><use xlink:href="#m42f1e72180" x="60" y="74.998" style="stroke:#000"/></g><g id="line2d_6" clip-path="url(#p1e850ec33b)"><use xlink:href="#m42f1e72180" x="69.6" y="170.998" style="stroke:#000"/><use xlink:href="#m42f1e72180" x="69.6" y="161.398" style="stroke:#000"/><use xlink:href="#m42f1e72180" x="69.6" y="151.798" style="stroke:#000"/><use xlink:href="#m42f1e72180" x="69.6" y="142.198" style="stroke:#000"/><use xlink:href="#m42f1e72180" x="69.6" y="132.598" style="stroke:#000"/><use xlink:href="#m42f1e72180" x="69.6" y="122.998" style="stroke:#000"/><use xlink:href="#m42f1e72180" x="69.6" y="113.398" style="stroke:#000"/><use xlink:href="#m42f1e72180" x="69.6" y="103.798" style="stroke:#000"/><use xlink:href="#m42f1e72180" x="69.6" y="94.198" style="stroke:#000"/><use xlink:href="#m42f1e72180" x="69.6" y="84.598" style="stroke:#000"/><use xlink:href="#m42f1e72180" x="69.6" y="74.998" style="stroke:#000"/></g><g id="line2d_7" clip-path="url(#p1e850ec33b)"><use xlink:href="#m42f1e72180" x="79.2" y="170.998" style="stroke:#000"/><use xlink:href="#m42f1e72180" x="79.2" y="161.398" style="stroke:#000"/><use xlink:href="#m42f1e72180" x="79.2" y="151.798" style="stroke:#000"/><use xlink:href="#m42f1e72180" x="79.2" y="142.198" style="stroke:#000"/><use xlink:href="#m42f1e72180" x="79.2" y="132.598" style="stroke:#000"/><use xlink:href="#m42f1e72180" x="79.2" y="122.998" style="stroke:#000"/><use xlink:href="#m42f1e72180" x="79.2" y="113.398" style="stroke:#000"/><use xlink:href="#m42f1e72180" x="79.2" y="103.798" style="stroke:#000"/><use xlink:href="#m42f1e72180" x="79.2" y="94.198" style="stroke:#000"/><use xlink:href="#m42f1e72180" x="79.2" y="84.598" style="stroke:#000"/><use xlink:href="#m42f1e72180" x="79.2" y="74.998" style="stroke:#000"/></g><g id="line2d_8" clip-path="url(#p1e850ec33b)"><use xlink:href="#m42f1e72180" x="88.8" y="170.998" style="stroke:#000"/><use xlink:href="#m42f1e72180" x="88.8" y="161.398" style="stroke:#000"/><use xlink:href="#m42f1e72180" x="88.8" y="151.798" style="stroke:#000"/><use xlink:href="#m42f1e72180" x="88.8" y="142.198" style="stroke:#000"/><use xlink:href="#m42f1e72180" x="88.8" y="132.598" style="stroke:#000"/><use xlink:href="#m42f1e72180" x="88.8" y="122.998" style="stroke:#000"/><use xlink:href="#m42f1e72180" x="88.8" y="113.398" style="stroke:#000"/><use xlink:href="#m42f1e72180" x="88.8" y="103.798" style="stroke:#000"/><use xlink:href="#m42f1e72180" x="88.8" y="94.198" style="stroke:#000"/><use xlink:href="#m42f1e72180" x="88.8" y="84.598" style="stroke:#000"/><use xlink:href="#m42f1e72180" x="88.8" y="74.998" style="stroke:#000"/></g><g id="line2d_9" clip-path="url(#p1e850ec33b)"><use xlink:href="#m42f1e72180" x="98.4" y="170.998" style="stroke:#000"/><use xlink:href="#m42f1e72180" x="98.4" y="161.398" style="stroke:#000"/><use xlink:href="#m42f1e72180" x="98.4" y="151.798" style="stroke:#000"/><use xlink:href="#m42f1e72180" x="98.4" y="142.198" style="stroke:#000"/><use xlink:href="#m42f1e72180" x="98.4" y="132.598" style="stroke:#000"/><use xlink:href="#m42f1e72180" x="98.4" y="122.998" style="stroke:#000"/><use xlink:href="#m42f1e72180" x="98.4" y="113.398" style="stroke:#000"/><use xlink:href="#m42f1e72180" x="98.4" y="103.798" style="stroke:#000"/><use xlink:href="#m42f1e72180" x="98.4" y="94.198" style="stroke:#000"/><use xlink:href="#m42f1e72180" x="98.4" y="84.598" style="stroke:#000"/><use xlink:href="#m42f1e72180" x="98.4" y="74.998" style="stroke:#000"/></g><g id="line2d_10" clip-path="url(#p1e850ec33b)"><use xlink:href="#m42f1e72180" x="108" y="170.998" style="stroke:#000"/><use xlink:href="#m42f1e72180" x="108" y="161.398" style="stroke:#000"/><use xlink:href="#m42f1e72180" x="108" y="151.798" style="stroke:#000"/><use xlink:href="#m42f1e72180" x="108" y="142.198" style="stroke:#000"/><use xlink:href="#m42f1e72180" x="108" y="132.598" style="stroke:#000"/><use xlink:href="#m42f1e72180" x="108" y="122.998" style="stroke:#000"/><use xlink:href="#m42f1e72180" x="108" y="113.398" style="stroke:#000"/><use xlink:href="#m42f1e72180" x="108" y="103.798" style="stroke:#000"/><use xlink:href="#m42f1e72180" x="108" y="94.198" style="stroke:#000"/><use xlink:href="#m42f1e72180" x="108" y="84.598" style="stroke:#000"/><use xlink:href="#m42f1e72180" x="108" y="74.998" style="stroke:#000"/></g><g id="line2d_11" clip-path="url(#p1e850ec33b)"><use xlink:href="#m42f1e72180" x="117.6" y="170.998" style="stroke:#000"/><use xlink:href="#m42f1e72180" x="117.6" y="161.398" style="stroke:#000"/><use xlink:href="#m42f1e72180" x="117.6" y="151.798" style="stroke:#000"/><use xlink:href="#m42f1e72180" x="117.6" y="142.198" style="stroke:#000"/><use xlink:href="#m42f1e72180" x="117.6" y="132.598" style="stroke:#000"/><use xlink:href="#m42f1e72180" x="117.6" y="122.998" style="stroke:#000"/><use xlink:href="#m42f1e72180" x="117.6" y="113.398" style="stroke:#000"/><use xlink:href="#m42f1e72180" x="117.6" y="103.798" style="stroke:#000"/><use xlink:href="#m42f1e72180" x="117.6" y="94.198" style="stroke:#000"/><use xlink:href="#m42f1e72180" x="117.6" y="84.598" style="stroke:#000"/><use xlink:href="#m42f1e72180" x="117.6" y="74.998" style="stroke:#000"/></g><g id="text_1" transform="matrix(.1 0 0 -.1 127.2 118.198)"><defs><path id="DejaVuSans-79" d="M2059-325q-243-625-475-815-231-191-618-191H506v481h338q237 0 368 113 132 112 291 531l103 262L191 3500h609L1894 763l1094 2737h609z" transform="scale(.01563)"/></defs><use xlink:href="#DejaVuSans-79"/></g><g id="text_2" transform="matrix(.1 0 0 -.1 74.4 17.398)"><defs><path id="DejaVuSans-7a" d="M353 3500h2731v-525L922 459h2162V0H275v525l2163 2516H353z" transform="scale(.01563)"/></defs><use xlink:href="#DejaVuSans-7a"/></g><g id="text_3" transform="matrix(.1 0 0 -.1 141.6 172.918)"><defs><path id="DejaVuSans-74" d="M1172 4494v-994h1184v-447H1172V1153q0-428 117-550t477-122h590V0h-590q-666 0-919 248-253 249-253 905v1900H172v447h422v994z" transform="scale(.01563)"/><path id="DejaVuSans-3d" d="M678 2906h4006v-525H678zm0-1275h4006v-531H678z" transform="scale(.01563)"/><path id="DejaVuSans-30" d="M2034 4250q-487 0-733-480-245-479-245-1442 0-959 245-1439 246-480 733-480 491 0 736 480 246 480 246 1439 0 963-246 1442-245 480-736 480m0 500q785 0 1199-621 414-620 414-1801 0-1178-414-1799Q2819-91 2034-91q-784 0-1198 620-414 621-414 1799 0 1181 414 1801 414 621 1198 621" transform="scale(.01563)"/></defs><use xlink:href="#DejaVuSans-74"/><use xlink:href="#DejaVuSans-3d" x="70.996"/><use xlink:href="#DejaVuSans-30" x="186.572"/></g><g id="text_4" transform="matrix(.1 0 0 -.1 141.6 163.318)"><use xlink:href="#DejaVuSans-74"/><use xlink:href="#DejaVuSans-3d" x="70.996"/><use xlink:href="#DejaVuSans-30" x="186.572"/></g><g id="text_5" transform="matrix(.1 0 0 -.1 141.6 153.718)"><use xlink:href="#DejaVuSans-74"/><use xlink:href="#DejaVuSans-3d" x="70.996"/><use xlink:href="#DejaVuSans-30" x="186.572"/></g><g id="text_6" transform="matrix(.1 0 0 -.1 141.6 144.118)"><use xlink:href="#DejaVuSans-74"/><use xlink:href="#DejaVuSans-3d" x="70.996"/><use xlink:href="#DejaVuSans-30" x="186.572"/></g><g id="text_7" transform="matrix(.1 0 0 -.1 141.6 134.518)"><use xlink:href="#DejaVuSans-74"/><use xlink:href="#DejaVuSans-3d" x="70.996"/><use xlink:href="#DejaVuSans-30" x="186.572"/></g><g id="text_8" transform="matrix(.1 0 0 -.1 141.6 124.918)"><use xlink:href="#DejaVuSans-74"/><use xlink:href="#DejaVuSans-3d" x="70.996"/><use xlink:href="#DejaVuSans-30" x="186.572"/></g><g id="text_9" transform="matrix(.1 0 0 -.1 141.6 115.318)"><use xlink:href="#DejaVuSans-74"/><use xlink:href="#DejaVuSans-3d" x="70.996"/><use xlink:href="#DejaVuSans-30" x="186.572"/></g><g id="text_10" transform="matrix(.1 0 0 -.1 141.6 105.718)"><use xlink:href="#DejaVuSans-74"/><use xlink:href="#DejaVuSans-3d" x="70.996"/><use xlink:href="#DejaVuSans-30" x="186.572"/></g><g id="text_11" transform="matrix(.1 0 0 -.1 141.6 96.118)"><use xlink:href="#DejaVuSans-74"/><use xlink:href="#DejaVuSans-3d" x="70.996"/><use xlink:href="#DejaVuSans-30" x="186.572"/></g><g id="text_12" transform="matrix(.1 0 0 -.1 141.6 86.518)"><use xlink:href="#DejaVuSans-74"/><use xlink:href="#DejaVuSans-3d" x="70.996"/><use xlink:href="#DejaVuSans-30" x="186.572"/></g><g id="text_13" transform="matrix(.1 0 0 -.1 141.6 76.918)"><use xlink:href="#DejaVuSans-74"/><use xlink:href="#DejaVuSans-3d" x="70.996"/><use xlink:href="#DejaVuSans-30" x="186.572"/></g></g><g id="axes_2"><path id="patch_4" d="m370.737 122.998-4.8 3.12 1.12-3.118h-121.12v-.004h121.12l-1.12-3.118z" clip-path="url(#p3a901c1148)" style="stroke:#000;stroke-linejoin:miter"/><path id="patch_5" d="m308.337 7.798 3.12 4.8-3.118-1.12v226.72h-.005V11.478l-3.117 1.12z" clip-path="url(#p3a901c1148)" style="stroke:#000;stroke-linejoin:miter"/><g id="Quiver_1"><path d="M260.025 238.158v-7.272l-1.248.312 1.56-3.12 1.56 3.12-1.248-.312v7.272zm9.6 0v-7.272l-1.248.312 1.56-3.12 1.56 3.12-1.248-.312v7.272zm9.6 0v-7.272l-1.248.312 1.56-3.12 1.56 3.12-1.248-.312v7.272zm9.6 0v-7.272l-1.248.312 1.56-3.12 1.56 3.12-1.248-.312v7.272zm9.6 0v-7.272l-1.248.312 1.56-3.12 1.56 3.12-1.248-.312v7.272zm9.6 0v-7.272l-1.248.312 1.56-3.12 1.56 3.12-1.248-.312v7.272zm9.6 0v-7.272l-1.248.312 1.56-3.12 1.56 3.12-1.248-.312v7.272zm9.6 0v-7.272l-1.248.312 1.56-3.12 1.56 3.12-1.248-.312v7.272zm9.6 0v-7.272l-1.248.312 1.56-3.12 1.56 3.12-1.248-.312v7.272zm9.6 0v-7.272l-1.248.312 1.56-3.12 1.56 3.12-1.248-.312v7.272zm9.6 0v-7.272l-1.248.312 1.56-3.12 1.56 3.12-1.248-.312v7.272z" clip-path="url(#p3a901c1148)" style="fill:maroon"/><path d="M260.025 216.134v-7.272l-1.248.312 1.56-3.12 1.56 3.12-1.248-.312v7.272zm9.6 0v-7.272l-1.248.312 1.56-3.12 1.56 3.12-1.248-.312v7.272zm9.6 0v-7.272l-1.248.312 1.56-3.12 1.56 3.12-1.248-.312v7.272zm9.6 0v-7.272l-1.248.312 1.56-3.12 1.56 3.12-1.248-.312v7.272zm9.6 0v-7.272l-1.248.312 1.56-3.12 1.56 3.12-1.248-.312v7.272zm9.6 0v-7.272l-1.248.312 1.56-3.12 1.56 3.12-1.248-.312v7.272zm9.6 0v-7.272l-1.248.312 1.56-3.12 1.56 3.12-1.248-.312v7.272zm9.6 0v-7.272l-1.248.312 1.56-3.12 1.56 3.12-1.248-.312v7.272zm9.6 0v-7.272l-1.248.312 1.56-3.12 1.56 3.12-1.248-.312v7.272zm9.6 0v-7.272l-1.248.312 1.56-3.12 1.56 3.12-1.248-.312v7.272zm9.6 0v-7.272l-1.248.312 1.56-3.12 1.56 3.12-1.248-.312v7.272z" clip-path="url(#p3a901c1148)" style="fill:#f10800"/><path d="M260.025 194.11v-7.272l-1.248.312 1.56-3.12 1.56 3.12-1.248-.312v7.272zm9.6 0v-7.272l-1.248.312 1.56-3.12 1.56 3.12-1.248-.312v7.272zm9.6 0v-7.272l-1.248.312 1.56-3.12 1.56 3.12-1.248-.312v7.272zm9.6 0v-7.272l-1.248.312 1.56-3.12 1.56 3.12-1.248-.312v7.272zm9.6 0v-7.272l-1.248.312 1.56-3.12 1.56 3.12-1.248-.312v7.272zm9.6 0v-7.272l-1.248.312 1.56-3.12 1.56 3.12-1.248-.312v7.272zm9.6 0v-7.272l-1.248.312 1.56-3.12 1.56 3.12-1.248-.312v7.272zm9.6 0v-7.272l-1.248.312 1.56-3.12 1.56 3.12-1.248-.312v7.272zm9.6 0v-7.272l-1.248.312 1.56-3.12 1.56 3.12-1.248-.312v7.272zm9.6 0v-7.272l-1.248.312 1.56-3.12 1.56 3.12-1.248-.312v7.272zm9.6 0v-7.272l-1.248.312 1.56-3.12 1.56 3.12-1.248-.312v7.272z" clip-path="url(#p3a901c1148)" style="fill:#ff6800"/><path d="M260.025 172.086v-7.272l-1.248.312 1.56-3.12 1.56 3.12-1.248-.312v7.272zm9.6 0v-7.272l-1.248.312 1.56-3.12 1.56 3.12-1.248-.312v7.272zm9.6 0v-7.272l-1.248.312 1.56-3.12 1.56 3.12-1.248-.312v7.272zm9.6 0v-7.272l-1.248.312 1.56-3.12 1.56 3.12-1.248-.312v7.272zm9.6 0v-7.272l-1.248.312 1.56-3.12 1.56 3.12-1.248-.312v7.272zm9.6 0v-7.272l-1.248.312 1.56-3.12 1.56 3.12-1.248-.312v7.272zm9.6 0v-7.272l-1.248.312 1.56-3.12 1.56 3.12-1.248-.312v7.272zm9.6 0v-7.272l-1.248.312 1.56-3.12 1.56 3.12-1.248-.312v7.272zm9.6 0v-7.272l-1.248.312 1.56-3.12 1.56 3.12-1.248-.312v7.272zm9.6 0v-7.272l-1.248.312 1.56-3.12 1.56 3.12-1.248-.312v7.272zm9.6 0v-7.272l-1.248.312 1.56-3.12 1.56 3.12-1.248-.312v7.272z" clip-path="url(#p3a901c1148)" style="fill:#ffc400"/><path d="M260.025 150.062v-7.272l-1.248.312 1.56-3.12 1.56 3.12-1.248-.312v7.272zm9.6 0v-7.272l-1.248.312 1.56-3.12 1.56 3.12-1.248-.312v7.272zm9.6 0v-7.272l-1.248.312 1.56-3.12 1.56 3.12-1.248-.312v7.272zm9.6 0v-7.272l-1.248.312 1.56-3.12 1.56 3.12-1.248-.312v7.272zm9.6 0v-7.272l-1.248.312 1.56-3.12 1.56 3.12-1.248-.312v7.272zm9.6 0v-7.272l-1.248.312 1.56-3.12 1.56 3.12-1.248-.312v7.272zm9.6 0v-7.272l-1.248.312 1.56-3.12 1.56 3.12-1.248-.312v7.272zm9.6 0v-7.272l-1.248.312 1.56-3.12 1.56 3.12-1.248-.312v7.272zm9.6 0v-7.272l-1.248.312 1.56-3.12 1.56 3.12-1.248-.312v7.272zm9.6 0v-7.272l-1.248.312 1.56-3.12 1.56 3.12-1.248-.312v7.272zm9.6 0v-7.272l-1.248.312 1.56-3.12 1.56 3.12-1.248-.312v7.272z" clip-path="url(#p3a901c1148)" style="fill:#ceff29"/><path d="M260.025 128.038v-7.272l-1.248.312 1.56-3.12 1.56 3.12-1.248-.312v7.272zm9.6 0v-7.272l-1.248.312 1.56-3.12 1.56 3.12-1.248-.312v7.272zm9.6 0v-7.272l-1.248.312 1.56-3.12 1.56 3.12-1.248-.312v7.272zm9.6 0v-7.272l-1.248.312 1.56-3.12 1.56 3.12-1.248-.312v7.272zm9.6 0v-7.272l-1.248.312 1.56-3.12 1.56 3.12-1.248-.312v7.272zm9.6 0v-7.272l-1.248.312 1.56-3.12 1.56 3.12-1.248-.312v7.272zm9.6 0v-7.272l-1.248.312 1.56-3.12 1.56 3.12-1.248-.312v7.272zm9.6 0v-7.272l-1.248.312 1.56-3.12 1.56 3.12-1.248-.312v7.272zm9.6 0v-7.272l-1.248.312 1.56-3.12 1.56 3.12-1.248-.312v7.272zm9.6 0v-7.272l-1.248.312 1.56-3.12 1.56 3.12-1.248-.312v7.272zm9.6 0v-7.272l-1.248.312 1.56-3.12 1.56 3.12-1.248-.312v7.272z" clip-path="url(#p3a901c1148)" style="fill:#7dff7a"/><path d="M260.025 106.014v-7.272l-1.248.312 1.56-3.12 1.56 3.12-1.248-.312v7.272zm9.6 0v-7.272l-1.248.312 1.56-3.12 1.56 3.12-1.248-.312v7.272zm9.6 0v-7.272l-1.248.312 1.56-3.12 1.56 3.12-1.248-.312v7.272zm9.6 0v-7.272l-1.248.312 1.56-3.12 1.56 3.12-1.248-.312v7.272zm9.6 0v-7.272l-1.248.312 1.56-3.12 1.56 3.12-1.248-.312v7.272zm9.6 0v-7.272l-1.248.312 1.56-3.12 1.56 3.12-1.248-.312v7.272zm9.6 0v-7.272l-1.248.312 1.56-3.12 1.56 3.12-1.248-.312v7.272zm9.6 0v-7.272l-1.248.312 1.56-3.12 1.56 3.12-1.248-.312v7.272zm9.6 0v-7.272l-1.248.312 1.56-3.12 1.56 3.12-1.248-.312v7.272zm9.6 0v-7.272l-1.248.312 1.56-3.12 1.56 3.12-1.248-.312v7.272zm9.6 0v-7.272l-1.248.312 1.56-3.12 1.56 3.12-1.248-.312v7.272z" clip-path="url(#p3a901c1148)" style="fill:#29ffce"/><path d="M260.025 83.99v-7.272l-1.248.312 1.56-3.12 1.56 3.12-1.248-.312v7.272zm9.6 0v-7.272l-1.248.312 1.56-3.12 1.56 3.12-1.248-.312v7.272zm9.6 0v-7.272l-1.248.312 1.56-3.12 1.56 3.12-1.248-.312v7.272zm9.6 0v-7.272l-1.248.312 1.56-3.12 1.56 3.12-1.248-.312v7.272zm9.6 0v-7.272l-1.248.312 1.56-3.12 1.56 3.12-1.248-.312v7.272zm9.6 0v-7.272l-1.248.312 1.56-3.12 1.56 3.12-1.248-.312v7.272zm9.6 0v-7.272l-1.248.312 1.56-3.12 1.56 3.12-1.248-.312v7.272zm9.6 0v-7.272l-1.248.312 1.56-3.12 1.56 3.12-1.248-.312v7.272zm9.6 0v-7.272l-1.248.312 1.56-3.12 1.56 3.12-1.248-.312v7.272zm9.6 0v-7.272l-1.248.312 1.56-3.12 1.56 3.12-1.248-.312v7.272zm9.6 0v-7.272l-1.248.312 1.56-3.12 1.56 3.12-1.248-.312v7.272z" clip-path="url(#p3a901c1148)" style="fill:#00b0ff"/><path d="M260.025 61.966v-7.272l-1.248.312 1.56-3.12 1.56 3.12-1.248-.312v7.272zm9.6 0v-7.272l-1.248.312 1.56-3.12 1.56 3.12-1.248-.312v7.272zm9.6 0v-7.272l-1.248.312 1.56-3.12 1.56 3.12-1.248-.312v7.272zm9.6 0v-7.272l-1.248.312 1.56-3.12 1.56 3.12-1.248-.312v7.272zm9.6 0v-7.272l-1.248.312 1.56-3.12 1.56 3.12-1.248-.312v7.272zm9.6 0v-7.272l-1.248.312 1.56-3.12 1.56 3.12-1.248-.312v7.272zm9.6 0v-7.272l-1.248.312 1.56-3.12 1.56 3.12-1.248-.312v7.272zm9.6 0v-7.272l-1.248.312 1.56-3.12 1.56 3.12-1.248-.312v7.272zm9.6 0v-7.272l-1.248.312 1.56-3.12 1.56 3.12-1.248-.312v7.272zm9.6 0v-7.272l-1.248.312 1.56-3.12 1.56 3.12-1.248-.312v7.272zm9.6 0v-7.272l-1.248.312 1.56-3.12 1.56 3.12-1.248-.312v7.272z" clip-path="url(#p3a901c1148)" style="fill:#004cff"/><path d="M260.025 39.942V32.67l-1.248.312 1.56-3.12 1.56 3.12-1.248-.312v7.272zm9.6 0V32.67l-1.248.312 1.56-3.12 1.56 3.12-1.248-.312v7.272zm9.6 0V32.67l-1.248.312 1.56-3.12 1.56 3.12-1.248-.312v7.272zm9.6 0V32.67l-1.248.312 1.56-3.12 1.56 3.12-1.248-.312v7.272zm9.6 0V32.67l-1.248.312 1.56-3.12 1.56 3.12-1.248-.312v7.272zm9.6 0V32.67l-1.248.312 1.56-3.12 1.56 3.12-1.248-.312v7.272zm9.6 0V32.67l-1.248.312 1.56-3.12 1.56 3.12-1.248-.312v7.272zm9.6 0V32.67l-1.248.312 1.56-3.12 1.56 3.12-1.248-.312v7.272zm9.6 0V32.67l-1.248.312 1.56-3.12 1.56 3.12-1.248-.312v7.272zm9.6 0V32.67l-1.248.312 1.56-3.12 1.56 3.12-1.248-.312v7.272zm9.6 0V32.67l-1.248.312 1.56-3.12 1.56 3.12-1.248-.312v7.272z" clip-path="url(#p3a901c1148)" style="fill:#0000f1"/><path d="M260.025 17.918v-7.272l-1.248.312 1.56-3.12 1.56 3.12-1.248-.312v7.272zm9.6 0v-7.272l-1.248.312 1.56-3.12 1.56 3.12-1.248-.312v7.272zm9.6 0v-7.272l-1.248.312 1.56-3.12 1.56 3.12-1.248-.312v7.272zm9.6 0v-7.272l-1.248.312 1.56-3.12 1.56 3.12-1.248-.312v7.272zm9.6 0v-7.272l-1.248.312 1.56-3.12 1.56 3.12-1.248-.312v7.272zm9.6 0v-7.272l-1.248.312 1.56-3.12 1.56 3.12-1.248-.312v7.272zm9.6 0v-7.272l-1.248.312 1.56-3.12 1.56 3.12-1.248-.312v7.272zm9.6 0v-7.272l-1.248.312 1.56-3.12 1.56 3.12-1.248-.312v7.272zm9.6 0v-7.272l-1.248.312 1.56-3.12 1.56 3.12-1.248-.312v7.272zm9.6 0v-7.272l-1.248.312 1.56-3.12 1.56 3.12-1.248-.312v7.272zm9.6 0v-7.272l-1.248.312 1.56-3.12 1.56 3.12-1.248-.312v7.272z" clip-path="url(#p3a901c1148)" style="fill:navy"/></g><g id="text_14" transform="matrix(.1 0 0 -.1 365.937 118.198)"><defs><path id="DejaVuSans-27" d="M1147 4666V2931H616v1735z" transform="scale(.01563)"/></defs><use xlink:href="#DejaVuSans-79"/><use xlink:href="#DejaVuSans-27" x="59.18"/></g><g id="text_15" transform="matrix(.1 0 0 -.1 313.137 17.398)"><use xlink:href="#DejaVuSans-7a"/><use xlink:href="#DejaVuSans-27" x="52.49"/></g><g id="text_16" transform="matrix(.1 0 0 -.1 380.337 235.038)"><defs><path id="DejaVuSans-2d" d="M313 2009h1684v-512H313z" transform="scale(.01563)"/><path id="DejaVuSans-32" d="M1228 531h2203V0H469v531q359 372 979 998 621 627 780 809 303 340 423 576 121 236 121 464 0 372-261 606-261 235-680 235-297 0-627-103-329-103-704-313v638q381 153 712 231 332 78 607 78 725 0 1156-363 431-362 431-968 0-288-108-546-107-257-392-607-78-91-497-524-418-433-1181-1211" transform="scale(.01563)"/><path id="DejaVuSans-2e" d="M684 794h660V0H684z" transform="scale(.01563)"/><path id="DejaVuSans-36" d="M2113 2584q-425 0-674-291-248-290-248-796 0-503 248-796 249-292 674-292t673 292q248 293 248 796 0 506-248 796-248 291-673 291m1253 1979v-575q-238 112-480 171-242 60-480 60-625 0-955-422-329-422-376-1275 184 272 462 417 279 145 613 145 703 0 1111-427 408-426 408-1160 0-719-425-1154Q2819-91 2113-91q-810 0-1238 620-428 621-428 1799 0 1106 525 1764t1409 658q238 0 480-47t505-140" transform="scale(.01563)"/></defs><use xlink:href="#DejaVuSans-74"/><use xlink:href="#DejaVuSans-27" x="39.209"/><use xlink:href="#DejaVuSans-3d" x="98.486"/><use xlink:href="#DejaVuSans-2d" x="214.063"/><use xlink:href="#DejaVuSans-32" x="250.146"/><use xlink:href="#DejaVuSans-30" x="313.77"/><use xlink:href="#DejaVuSans-2e" x="377.393"/><use xlink:href="#DejaVuSans-36" x="409.18"/></g><g id="text_17" transform="matrix(.1 0 0 -.1 380.337 213.014)"><defs><path id="DejaVuSans-31" d="M794 531h1031v3560L703 3866v575l1116 225h631V531h1031V0H794z" transform="scale(.01563)"/><path id="DejaVuSans-35" d="M691 4666h2478v-532H1269V2991q137 47 274 70 138 23 276 23 781 0 1237-428 457-428 457-1159 0-753-469-1171Q2575-91 1722-91q-294 0-599 50Q819 9 494 109v635q281-153 581-228t634-75q541 0 856 284 316 284 316 772 0 487-316 771-315 285-856 285-253 0-505-56-251-56-513-175z" transform="scale(.01563)"/></defs><use xlink:href="#DejaVuSans-74"/><use xlink:href="#DejaVuSans-27" x="39.209"/><use xlink:href="#DejaVuSans-3d" x="98.486"/><use xlink:href="#DejaVuSans-2d" x="214.063"/><use xlink:href="#DejaVuSans-31" x="250.146"/><use xlink:href="#DejaVuSans-36" x="313.77"/><use xlink:href="#DejaVuSans-2e" x="377.393"/><use xlink:href="#DejaVuSans-35" x="409.18"/></g><g id="text_18" transform="matrix(.1 0 0 -.1 380.337 190.99)"><defs><path id="DejaVuSans-34" d="M2419 4116 825 1625h1594zm-166 550h794V1625h666v-525h-666V0h-628v1100H313v609z" transform="scale(.01563)"/></defs><use xlink:href="#DejaVuSans-74"/><use xlink:href="#DejaVuSans-27" x="39.209"/><use xlink:href="#DejaVuSans-3d" x="98.486"/><use xlink:href="#DejaVuSans-2d" x="214.063"/><use xlink:href="#DejaVuSans-31" x="250.146"/><use xlink:href="#DejaVuSans-32" x="313.77"/><use xlink:href="#DejaVuSans-2e" x="377.393"/><use xlink:href="#DejaVuSans-34" x="409.18"/></g><g id="text_19" transform="matrix(.1 0 0 -.1 380.337 168.966)"><defs><path id="DejaVuSans-38" d="M2034 2216q-450 0-708-241-257-241-257-662 0-422 257-663 258-241 708-241t709 242q260 243 260 662 0 421-258 662-257 241-711 241m-631 268q-406 100-633 378-226 279-226 679 0 559 398 884 399 325 1092 325 697 0 1094-325t397-884q0-400-227-679-226-278-629-378 456-106 710-416 255-309 255-755 0-679-414-1042Q2806-91 2034-91q-771 0-1186 362-414 363-414 1042 0 446 256 755 257 310 713 416m-231 997q0-362 226-565 227-203 636-203 407 0 636 203 230 203 230 565 0 363-230 566-229 203-636 203-409 0-636-203-226-203-226-566" transform="scale(.01563)"/><path id="DejaVuSans-33" d="M2597 2516q453-97 707-404 255-306 255-756 0-690-475-1069Q2609-91 1734-91q-293 0-604 58T488 141v609q262-153 574-231 313-78 654-78 593 0 904 234t311 681q0 413-289 645-289 233-804 233h-544v519h569q465 0 712 186t247 536q0 359-255 551-254 193-729 193-260 0-557-57-297-56-653-174v562q360 100 674 150t592 50q719 0 1137-327 419-326 419-882 0-388-222-655t-631-370" transform="scale(.01563)"/></defs><use xlink:href="#DejaVuSans-74"/><use xlink:href="#DejaVuSans-27" x="39.209"/><use xlink:href="#DejaVuSans-3d" x="98.486"/><use xlink:href="#DejaVuSans-2d" x="214.063"/><use xlink:href="#DejaVuSans-38" x="250.146"/><use xlink:href="#DejaVuSans-2e" x="313.77"/><use xlink:href="#DejaVuSans-33" x="345.557"/></g><g id="text_20" transform="matrix(.1 0 0 -.1 380.337 146.942)"><use xlink:href="#DejaVuSans-74"/><use xlink:href="#DejaVuSans-27" x="39.209"/><use xlink:href="#DejaVuSans-3d" x="98.486"/><use xlink:href="#DejaVuSans-2d" x="214.063"/><use xlink:href="#DejaVuSans-34" x="250.146"/><use xlink:href="#DejaVuSans-2e" x="313.77"/><use xlink:href="#DejaVuSans-31" x="345.557"/></g><g id="text_21" transform="matrix(.1 0 0 -.1 380.337 124.918)"><use xlink:href="#DejaVuSans-74"/><use xlink:href="#DejaVuSans-27" x="39.209"/><use xlink:href="#DejaVuSans-3d" x="98.486"/><use xlink:href="#DejaVuSans-30" x="214.063"/><use xlink:href="#DejaVuSans-2e" x="277.686"/><use xlink:href="#DejaVuSans-30" x="309.473"/></g><g id="text_22" transform="matrix(.1 0 0 -.1 380.337 102.894)"><use xlink:href="#DejaVuSans-74"/><use xlink:href="#DejaVuSans-27" x="39.209"/><use xlink:href="#DejaVuSans-3d" x="98.486"/><use xlink:href="#DejaVuSans-34" x="214.063"/><use xlink:href="#DejaVuSans-2e" x="277.686"/><use xlink:href="#DejaVuSans-31" x="309.473"/></g><g id="text_23" transform="matrix(.1 0 0 -.1 380.337 80.87)"><use xlink:href="#DejaVuSans-74"/><use xlink:href="#DejaVuSans-27" x="39.209"/><use xlink:href="#DejaVuSans-3d" x="98.486"/><use xlink:href="#DejaVuSans-38" x="214.063"/><use xlink:href="#DejaVuSans-2e" x="277.686"/><use xlink:href="#DejaVuSans-33" x="309.473"/></g><g id="text_24" transform="matrix(.1 0 0 -.1 380.337 58.846)"><use xlink:href="#DejaVuSans-74"/><use xlink:href="#DejaVuSans-27" x="39.209"/><use xlink:href="#DejaVuSans-3d" x="98.486"/><use xlink:href="#DejaVuSans-31" x="214.063"/><use xlink:href="#DejaVuSans-32" x="277.686"/><use xlink:href="#DejaVuSans-2e" x="341.309"/><use xlink:href="#DejaVuSans-34" x="373.096"/></g><g id="text_25" transform="matrix(.1 0 0 -.1 380.337 36.822)"><use xlink:href="#DejaVuSans-74"/><use xlink:href="#DejaVuSans-27" x="39.209"/><use xlink:href="#DejaVuSans-3d" x="98.486"/><use xlink:href="#DejaVuSans-31" x="214.063"/><use xlink:href="#DejaVuSans-36" x="277.686"/><use xlink:href="#DejaVuSans-2e" x="341.309"/><use xlink:href="#DejaVuSans-35" x="373.096"/></g><g id="text_26" transform="matrix(.1 0 0 -.1 380.337 14.798)"><use xlink:href="#DejaVuSans-74"/><use xlink:href="#DejaVuSans-27" x="39.209"/><use xlink:href="#DejaVuSans-3d" x="98.486"/><use xlink:href="#DejaVuSans-32" x="214.063"/><use xlink:href="#DejaVuSans-30" x="277.686"/><use xlink:href="#DejaVuSans-2e" x="341.309"/><use xlink:href="#DejaVuSans-36" x="373.096"/></g></g><g id="axes_3"><path id="patch_6" d="m609.474 122.998-4.8 3.12 1.12-3.118h-121.12v-.004h121.12l-1.12-3.118z" clip-path="url(#p906fbf9215)" style="stroke:#000;stroke-linejoin:miter"/><path id="patch_7" d="m547.074 7.798 3.12 4.8-3.118-1.12v226.72h-.005V11.478l-3.117 1.12z" clip-path="url(#p906fbf9215)" style="stroke:#000;stroke-linejoin:miter"/><g id="Quiver_2"><path d="M498.762 148.96v-7.271l-1.248.312 1.56-3.12 1.56 3.12-1.248-.312v7.272zm9.6 0v-7.271l-1.248.312 1.56-3.12 1.56 3.12-1.248-.312v7.272zm9.6 0v-7.271l-1.248.312 1.56-3.12 1.56 3.12-1.248-.312v7.272zm9.6 0v-7.271l-1.248.312 1.56-3.12 1.56 3.12-1.248-.312v7.272zm9.6 0v-7.271l-1.248.312 1.56-3.12 1.56 3.12-1.248-.312v7.272zm9.6 0v-7.271l-1.248.312 1.56-3.12 1.56 3.12-1.248-.312v7.272zm9.6 0v-7.271l-1.248.312 1.56-3.12 1.56 3.12-1.248-.312v7.272zm9.6 0v-7.271l-1.248.312 1.56-3.12 1.56 3.12-1.248-.312v7.272zm9.6 0v-7.271l-1.248.312 1.56-3.12 1.56 3.12-1.248-.312v7.272zm9.6 0v-7.271l-1.248.312 1.56-3.12 1.56 3.12-1.248-.312v7.272zm9.6 0v-7.271l-1.248.312 1.56-3.12 1.56 3.12-1.248-.312v7.272z" clip-path="url(#p906fbf9215)" style="fill:red"/><path d="M498.762 144.776v-7.272l-1.248.312 1.56-3.12 1.56 3.12-1.248-.312v7.272zm9.6 0v-7.272l-1.248.312 1.56-3.12 1.56 3.12-1.248-.312v7.272zm9.6 0v-7.272l-1.248.312 1.56-3.12 1.56 3.12-1.248-.312v7.272zm9.6 0v-7.272l-1.248.312 1.56-3.12 1.56 3.12-1.248-.312v7.272zm9.6 0v-7.272l-1.248.312 1.56-3.12 1.56 3.12-1.248-.312v7.272zm9.6 0v-7.272l-1.248.312 1.56-3.12 1.56 3.12-1.248-.312v7.272zm9.6 0v-7.272l-1.248.312 1.56-3.12 1.56 3.12-1.248-.312v7.272zm9.6 0v-7.272l-1.248.312 1.56-3.12 1.56 3.12-1.248-.312v7.272zm9.6 0v-7.272l-1.248.312 1.56-3.12 1.56 3.12-1.248-.312v7.272zm9.6 0v-7.272l-1.248.312 1.56-3.12 1.56 3.12-1.248-.312v7.272zm9.6 0v-7.272l-1.248.312 1.56-3.12 1.56 3.12-1.248-.312v7.272z" clip-path="url(#p906fbf9215)" style="fill:red"/><path d="M498.762 140.592v-7.272l-1.248.312 1.56-3.12 1.56 3.12-1.248-.312v7.272zm9.6 0v-7.272l-1.248.312 1.56-3.12 1.56 3.12-1.248-.312v7.272zm9.6 0v-7.272l-1.248.312 1.56-3.12 1.56 3.12-1.248-.312v7.272zm9.6 0v-7.272l-1.248.312 1.56-3.12 1.56 3.12-1.248-.312v7.272zm9.6 0v-7.272l-1.248.312 1.56-3.12 1.56 3.12-1.248-.312v7.272zm9.6 0v-7.272l-1.248.312 1.56-3.12 1.56 3.12-1.248-.312v7.272zm9.6 0v-7.272l-1.248.312 1.56-3.12 1.56 3.12-1.248-.312v7.272zm9.6 0v-7.272l-1.248.312 1.56-3.12 1.56 3.12-1.248-.312v7.272zm9.6 0v-7.272l-1.248.312 1.56-3.12 1.56 3.12-1.248-.312v7.272zm9.6 0v-7.272l-1.248.312 1.56-3.12 1.56 3.12-1.248-.312v7.272zm9.6 0v-7.272l-1.248.312 1.56-3.12 1.56 3.12-1.248-.312v7.272z" clip-path="url(#p906fbf9215)" style="fill:red"/><path d="M498.762 136.407v-7.272l-1.248.312 1.56-3.12 1.56 3.12-1.248-.312v7.272zm9.6 0v-7.272l-1.248.312 1.56-3.12 1.56 3.12-1.248-.312v7.272zm9.6 0v-7.272l-1.248.312 1.56-3.12 1.56 3.12-1.248-.312v7.272zm9.6 0v-7.272l-1.248.312 1.56-3.12 1.56 3.12-1.248-.312v7.272zm9.6 0v-7.272l-1.248.312 1.56-3.12 1.56 3.12-1.248-.312v7.272zm9.6 0v-7.272l-1.248.312 1.56-3.12 1.56 3.12-1.248-.312v7.272zm9.6 0v-7.272l-1.248.312 1.56-3.12 1.56 3.12-1.248-.312v7.272zm9.6 0v-7.272l-1.248.312 1.56-3.12 1.56 3.12-1.248-.312v7.272zm9.6 0v-7.272l-1.248.312 1.56-3.12 1.56 3.12-1.248-.312v7.272zm9.6 0v-7.272l-1.248.312 1.56-3.12 1.56 3.12-1.248-.312v7.272zm9.6 0v-7.272l-1.248.312 1.56-3.12 1.56 3.12-1.248-.312v7.272z" clip-path="url(#p906fbf9215)" style="fill:red"/><path d="M498.762 132.223v-7.272l-1.248.312 1.56-3.12 1.56 3.12-1.248-.312v7.272zm9.6 0v-7.272l-1.248.312 1.56-3.12 1.56 3.12-1.248-.312v7.272zm9.6 0v-7.272l-1.248.312 1.56-3.12 1.56 3.12-1.248-.312v7.272zm9.6 0v-7.272l-1.248.312 1.56-3.12 1.56 3.12-1.248-.312v7.272zm9.6 0v-7.272l-1.248.312 1.56-3.12 1.56 3.12-1.248-.312v7.272zm9.6 0v-7.272l-1.248.312 1.56-3.12 1.56 3.12-1.248-.312v7.272zm9.6 0v-7.272l-1.248.312 1.56-3.12 1.56 3.12-1.248-.312v7.272zm9.6 0v-7.272l-1.248.312 1.56-3.12 1.56 3.12-1.248-.312v7.272zm9.6 0v-7.272l-1.248.312 1.56-3.12 1.56 3.12-1.248-.312v7.272zm9.6 0v-7.272l-1.248.312 1.56-3.12 1.56 3.12-1.248-.312v7.272zm9.6 0v-7.272l-1.248.312 1.56-3.12 1.56 3.12-1.248-.312v7.272z" clip-path="url(#p906fbf9215)" style="fill:red"/><path d="M498.762 128.038v-7.272l-1.248.312 1.56-3.12 1.56 3.12-1.248-.312v7.272zm9.6 0v-7.272l-1.248.312 1.56-3.12 1.56 3.12-1.248-.312v7.272zm9.6 0v-7.272l-1.248.312 1.56-3.12 1.56 3.12-1.248-.312v7.272zm9.6 0v-7.272l-1.248.312 1.56-3.12 1.56 3.12-1.248-.312v7.272zm9.6 0v-7.272l-1.248.312 1.56-3.12 1.56 3.12-1.248-.312v7.272zm9.6 0v-7.272l-1.248.312 1.56-3.12 1.56 3.12-1.248-.312v7.272zm9.6 0v-7.272l-1.248.312 1.56-3.12 1.56 3.12-1.248-.312v7.272zm9.6 0v-7.272l-1.248.312 1.56-3.12 1.56 3.12-1.248-.312v7.272zm9.6 0v-7.272l-1.248.312 1.56-3.12 1.56 3.12-1.248-.312v7.272zm9.6 0v-7.272l-1.248.312 1.56-3.12 1.56 3.12-1.248-.312v7.272zm9.6 0v-7.272l-1.248.312 1.56-3.12 1.56 3.12-1.248-.312v7.272z" clip-path="url(#p906fbf9215)" style="fill:red"/><path d="M498.762 123.853v-7.272l-1.248.312 1.56-3.12 1.56 3.12-1.248-.312v7.272zm9.6 0v-7.272l-1.248.312 1.56-3.12 1.56 3.12-1.248-.312v7.272zm9.6 0v-7.272l-1.248.312 1.56-3.12 1.56 3.12-1.248-.312v7.272zm9.6 0v-7.272l-1.248.312 1.56-3.12 1.56 3.12-1.248-.312v7.272zm9.6 0v-7.272l-1.248.312 1.56-3.12 1.56 3.12-1.248-.312v7.272zm9.6 0v-7.272l-1.248.312 1.56-3.12 1.56 3.12-1.248-.312v7.272zm9.6 0v-7.272l-1.248.312 1.56-3.12 1.56 3.12-1.248-.312v7.272zm9.6 0v-7.272l-1.248.312 1.56-3.12 1.56 3.12-1.248-.312v7.272zm9.6 0v-7.272l-1.248.312 1.56-3.12 1.56 3.12-1.248-.312v7.272zm9.6 0v-7.272l-1.248.312 1.56-3.12 1.56 3.12-1.248-.312v7.272zm9.6 0v-7.272l-1.248.312 1.56-3.12 1.56 3.12-1.248-.312v7.272z" clip-path="url(#p906fbf9215)" style="fill:red"/><path d="M498.762 119.669v-7.272l-1.248.312 1.56-3.12 1.56 3.12-1.248-.312v7.272zm9.6 0v-7.272l-1.248.312 1.56-3.12 1.56 3.12-1.248-.312v7.272zm9.6 0v-7.272l-1.248.312 1.56-3.12 1.56 3.12-1.248-.312v7.272zm9.6 0v-7.272l-1.248.312 1.56-3.12 1.56 3.12-1.248-.312v7.272zm9.6 0v-7.272l-1.248.312 1.56-3.12 1.56 3.12-1.248-.312v7.272zm9.6 0v-7.272l-1.248.312 1.56-3.12 1.56 3.12-1.248-.312v7.272zm9.6 0v-7.272l-1.248.312 1.56-3.12 1.56 3.12-1.248-.312v7.272zm9.6 0v-7.272l-1.248.312 1.56-3.12 1.56 3.12-1.248-.312v7.272zm9.6 0v-7.272l-1.248.312 1.56-3.12 1.56 3.12-1.248-.312v7.272zm9.6 0v-7.272l-1.248.312 1.56-3.12 1.56 3.12-1.248-.312v7.272zm9.6 0v-7.272l-1.248.312 1.56-3.12 1.56 3.12-1.248-.312v7.272z" clip-path="url(#p906fbf9215)" style="fill:red"/><path d="M498.762 115.484v-7.272l-1.248.312 1.56-3.12 1.56 3.12-1.248-.312v7.272zm9.6 0v-7.272l-1.248.312 1.56-3.12 1.56 3.12-1.248-.312v7.272zm9.6 0v-7.272l-1.248.312 1.56-3.12 1.56 3.12-1.248-.312v7.272zm9.6 0v-7.272l-1.248.312 1.56-3.12 1.56 3.12-1.248-.312v7.272zm9.6 0v-7.272l-1.248.312 1.56-3.12 1.56 3.12-1.248-.312v7.272zm9.6 0v-7.272l-1.248.312 1.56-3.12 1.56 3.12-1.248-.312v7.272zm9.6 0v-7.272l-1.248.312 1.56-3.12 1.56 3.12-1.248-.312v7.272zm9.6 0v-7.272l-1.248.312 1.56-3.12 1.56 3.12-1.248-.312v7.272zm9.6 0v-7.272l-1.248.312 1.56-3.12 1.56 3.12-1.248-.312v7.272zm9.6 0v-7.272l-1.248.312 1.56-3.12 1.56 3.12-1.248-.312v7.272zm9.6 0v-7.272l-1.248.312 1.56-3.12 1.56 3.12-1.248-.312v7.272z" clip-path="url(#p906fbf9215)" style="fill:red"/><path d="M498.762 111.3v-7.272l-1.248.312 1.56-3.12 1.56 3.12-1.248-.312v7.272zm9.6 0v-7.272l-1.248.312 1.56-3.12 1.56 3.12-1.248-.312v7.272zm9.6 0v-7.272l-1.248.312 1.56-3.12 1.56 3.12-1.248-.312v7.272zm9.6 0v-7.272l-1.248.312 1.56-3.12 1.56 3.12-1.248-.312v7.272zm9.6 0v-7.272l-1.248.312 1.56-3.12 1.56 3.12-1.248-.312v7.272zm9.6 0v-7.272l-1.248.312 1.56-3.12 1.56 3.12-1.248-.312v7.272zm9.6 0v-7.272l-1.248.312 1.56-3.12 1.56 3.12-1.248-.312v7.272zm9.6 0v-7.272l-1.248.312 1.56-3.12 1.56 3.12-1.248-.312v7.272zm9.6 0v-7.272l-1.248.312 1.56-3.12 1.56 3.12-1.248-.312v7.272zm9.6 0v-7.272l-1.248.312 1.56-3.12 1.56 3.12-1.248-.312v7.272zm9.6 0v-7.272l-1.248.312 1.56-3.12 1.56 3.12-1.248-.312v7.272z" clip-path="url(#p906fbf9215)" style="fill:red"/><path d="M498.762 107.115v-7.272l-1.248.312 1.56-3.12 1.56 3.12-1.248-.312v7.272zm9.6 0v-7.272l-1.248.312 1.56-3.12 1.56 3.12-1.248-.312v7.272zm9.6 0v-7.272l-1.248.312 1.56-3.12 1.56 3.12-1.248-.312v7.272zm9.6 0v-7.272l-1.248.312 1.56-3.12 1.56 3.12-1.248-.312v7.272zm9.6 0v-7.272l-1.248.312 1.56-3.12 1.56 3.12-1.248-.312v7.272zm9.6 0v-7.272l-1.248.312 1.56-3.12 1.56 3.12-1.248-.312v7.272zm9.6 0v-7.272l-1.248.312 1.56-3.12 1.56 3.12-1.248-.312v7.272zm9.6 0v-7.272l-1.248.312 1.56-3.12 1.56 3.12-1.248-.312v7.272zm9.6 0v-7.272l-1.248.312 1.56-3.12 1.56 3.12-1.248-.312v7.272zm9.6 0v-7.272l-1.248.312 1.56-3.12 1.56 3.12-1.248-.312v7.272zm9.6 0v-7.272l-1.248.312 1.56-3.12 1.56 3.12-1.248-.312v7.272z" clip-path="url(#p906fbf9215)" style="fill:red"/></g><g id="text_27" transform="matrix(.1 0 0 -.1 604.674 118.198)"><use xlink:href="#DejaVuSans-79"/><use xlink:href="#DejaVuSans-27" x="59.18"/></g><g id="text_28" transform="matrix(.1 0 0 -.1 551.874 17.398)"><use xlink:href="#DejaVuSans-7a"/><use xlink:href="#DejaVuSans-27" x="52.49"/></g><g id="text_29" transform="matrix(.1 0 0 -.1 619.074 124.918)"><use xlink:href="#DejaVuSans-74"/><use xlink:href="#DejaVuSans-27" x="39.209"/><use xlink:href="#DejaVuSans-3d" x="98.486"/><use xlink:href="#DejaVuSans-30" x="214.063"/></g></g></g><defs><clipPath id="p1e850ec33b"><path d="M7.2 7.798H132v230.4H7.2z"/></clipPath><clipPath id="p3a901c1148"><path d="M245.937 7.798h124.8v230.4h-124.8z"/></clipPath><clipPath id="p906fbf9215"><path d="M484.674 7.798h124.8v230.4h-124.8z"/></clipPath></defs></svg>