<svg xmlns="http://www.w3.org/2000/svg" xmlns:xlink="http://www.w3.org/1999/xlink" width="215.556" height="374.016" viewBox="0 0 161.667 280.512"><defs><style>*{stroke-linejoin:round;stroke-linecap:butt}</style></defs><g id="figure_1"><path id="patch_1" d="M0 280.512h161.667V0H0z" style="fill:none"/><g id="axes_1"><path id="patch_2" d="m151.344 140.256-5.544 3.604 1.294-3.601H7.2v-.006h139.894l-1.294-3.6z" clip-path="url(#pcc0a62c575)" style="fill:gray;stroke:gray;stroke-linejoin:miter"/><path id="patch_3" d="m79.272 7.2 3.604 5.544-3.601-1.294v261.862h-.006V11.45l-3.6 1.294z" clip-path="url(#pcc0a62c575)" style="fill:gray;stroke:gray;stroke-linejoin:miter"/><g id="Quiver_1"><path d="M24.192-153.857v6.837l1.442-.36-1.802 3.603-1.802-3.604 1.442.36v-6.836zM35.28-138.565v6.836l1.442-.36-1.802 3.604-1.802-3.604 1.442.36v-6.836zM46.368-125.466v6.837l1.442-.36-1.802 3.603-1.802-3.604 1.442.36v-6.836zM57.456-115.26v6.836l1.442-.36-1.802 3.604-1.802-3.604 1.442.36v-6.836zM68.544-108.71v6.837l1.442-.36-1.802 3.604-1.802-3.604 1.442.36v-6.836zM79.632-106.443v6.837l1.442-.36-1.802 3.603-1.802-3.603 1.442.36v-6.837zM90.72-108.71v6.837l1.442-.36-1.802 3.604-1.802-3.604 1.442.36v-6.836zM101.808-115.26v6.836l1.442-.36-1.802 3.604-1.802-3.604 1.442.36v-6.836zM112.896-125.466v6.837l1.442-.36-1.802 3.603-1.802-3.604 1.442.36v-6.836zM123.984-138.565v6.836l1.442-.36-1.802 3.604-1.802-3.604 1.442.36v-6.836zM135.072-153.857v6.837l1.442-.36-1.802 3.603-1.802-3.604 1.442.36v-6.836zM24.192-113.128v6.837l1.442-.36-1.802 3.603-1.802-3.603 1.442.36v-6.837zM35.28-96.043v6.837l1.442-.36-1.802 3.603-1.802-3.603 1.442.36v-6.837zM46.368-81.005v6.837l1.442-.36-1.802 3.603-1.802-3.603 1.442.36v-6.837zM57.456-68.92v6.837l1.442-.36-1.802 3.603-1.802-3.604 1.442.36v-6.836zM68.544-60.93v6.837l1.442-.36-1.802 3.604-1.802-3.604 1.442.36v-6.836zM79.632-58.111v6.837l1.442-.36-1.802 3.603-1.802-3.604 1.442.36v-6.836zM90.72-60.93v6.837l1.442-.36-1.802 3.604-1.802-3.604 1.442.36v-6.836zM101.808-68.92v6.837l1.442-.36-1.802 3.603-1.802-3.604 1.442.36v-6.836zM112.896-81.005v6.837l1.442-.36-1.802 3.603-1.802-3.603 1.442.36v-6.837zM123.984-96.043v6.837l1.442-.36-1.802 3.603-1.802-3.603 1.442.36v-6.837zM135.072-113.128v6.837l1.442-.36-1.802 3.603-1.802-3.603 1.442.36v-6.837zM24.192-74.591v6.837l1.442-.36-1.802 3.603-1.802-3.604 1.442.36v-6.836zM35.28-55.567v6.836l1.442-.36-1.802 3.604-1.802-3.604 1.442.36v-6.836zM46.368-38.228v6.836l1.442-.36-1.802 3.604-1.802-3.604 1.442.36v-6.836zM57.456-23.643v6.837l1.442-.36-1.802 3.603-1.802-3.604 1.442.36v-6.836zM68.544-13.495v6.837l1.442-.36-1.802 3.603-1.802-3.603 1.442.36v-6.837zM79.632-9.78v6.837l1.442-.36L79.272.3 77.47-3.303l1.442.36V-9.78zM90.72-13.495v6.837l1.442-.36-1.802 3.603-1.802-3.603 1.442.36v-6.837zM101.808-23.643v6.837l1.442-.36-1.802 3.603-1.802-3.604 1.442.36v-6.836zM112.896-38.228v6.836l1.442-.36-1.802 3.604-1.802-3.604 1.442.36v-6.836zM123.984-55.567v6.836l1.442-.36-1.802 3.604-1.802-3.604 1.442.36v-6.836zM135.072-74.591v6.837l1.442-.36-1.802 3.603-1.802-3.604 1.442.36v-6.836zM24.192-38.948v6.837l1.442-.36-1.802 3.603-1.802-3.603 1.442.36v-6.837zM35.28-18.045v6.837l1.442-.36-1.802 3.603-1.802-3.603 1.442.36v-6.837zM46.368 1.795V8.63l1.442-.36-1.802 3.604-1.802-3.604 1.442.36V1.795zM57.456 19.586v6.837l1.442-.36-1.802 3.603-1.802-3.604 1.442.36v-6.836zM68.544 33.147v6.837l1.442-.36-1.802 3.603-1.802-3.603 1.442.36v-6.837zM79.632 38.552v6.837l1.442-.36-1.802 3.603-1.802-3.604 1.442.36v-6.836zM90.72 33.147v6.837l1.442-.36-1.802 3.603-1.802-3.603 1.442.36v-6.837zM101.808 19.586v6.837l1.442-.36-1.802 3.603-1.802-3.604 1.442.36v-6.836zM112.896 1.795V8.63l1.442-.36-1.802 3.604-1.802-3.604 1.442.36V1.795zM123.984-18.045v6.837l1.442-.36-1.802 3.603-1.802-3.603 1.442.36v-6.837zM135.072-38.948v6.837l1.442-.36-1.802 3.603-1.802-3.603 1.442.36v-6.837zM24.192-6.959v6.837l1.442-.36-1.802 3.603L22.03-.483l1.442.36v-6.836zM35.28 15.383v6.837l1.442-.36-1.802 3.603-1.802-3.603 1.442.36v-6.837zM46.368 37.38v6.837l1.442-.36-1.802 3.604-1.802-3.604 1.442.36v-6.836zM57.456 58.585v6.837l1.442-.36-1.802 3.603-1.802-3.604 1.442.36v-6.836zM68.544 77.4v6.837l1.442-.36-1.802 3.603-1.802-3.603 1.442.36V77.4zM79.632 86.883v6.837l1.442-.36-1.802 3.603-1.802-3.603 1.442.36v-6.837zM90.72 77.4v6.837l1.442-.36-1.802 3.603-1.802-3.603 1.442.36V77.4zM101.808 58.585v6.837l1.442-.36-1.802 3.603-1.802-3.604 1.442.36v-6.836zM112.896 37.38v6.837l1.442-.36-1.802 3.604-1.802-3.604 1.442.36v-6.836zM123.984 15.383v6.837l1.442-.36-1.802 3.603-1.802-3.603 1.442.36v-6.837zM135.072-6.959v6.837l1.442-.36-1.802 3.603-1.802-3.604 1.442.36v-6.836zM24.192 20.746v6.836l1.442-.36-1.802 3.604-1.802-3.604 1.442.36v-6.836zM35.28 43.64v6.836l1.442-.36-1.802 3.603-1.802-3.603 1.442.36V43.64zM46.368 66.533v6.837l1.442-.36-1.802 3.603-1.802-3.603 1.442.36v-6.837zM57.456 89.427v6.837l1.442-.36-1.802 3.603-1.802-3.603 1.442.36v-6.837zM68.544 112.321v6.837l1.442-.36-1.802 3.603-1.802-3.604 1.442.36v-6.836zM79.632 135.215v6.837l1.442-.36-1.802 3.603-1.802-3.604 1.442.36v-6.836zM90.72 112.321v6.837l1.442-.36-1.802 3.603-1.802-3.604 1.442.36v-6.836zM101.808 89.427v6.837l1.442-.36-1.802 3.603-1.802-3.603 1.442.36v-6.837zM112.896 66.533v6.837l1.442-.36-1.802 3.603-1.802-3.603 1.442.36v-6.837zM123.984 43.64v6.836l1.442-.36-1.802 3.603-1.802-3.603 1.442.36V43.64zM135.072 20.746v6.836l1.442-.36-1.802 3.604-1.802-3.604 1.442.36v-6.836zM24.192 43.916v6.837l1.442-.36-1.802 3.603-1.802-3.603 1.442.36v-6.837zM35.28 66.259v6.836l1.442-.36-1.802 3.604-1.802-3.604 1.442.36V66.26zM46.368 88.256v6.837l1.442-.36-1.802 3.603-1.802-3.604 1.442.36v-6.836zM57.456 109.46v6.837l1.442-.36-1.802 3.603-1.802-3.603 1.442.36v-6.837zM68.544 128.276v6.836l1.442-.36-1.802 3.604-1.802-3.604 1.442.36v-6.836z" clip-path="url(#pcc0a62c575)"/><path d="M79.632 137.759v6.836l1.442-.36-1.802 3.604-1.802-3.604 1.442.36v-6.836zM90.72 128.276v6.836l1.442-.36-1.802 3.604-1.802-3.604 1.442.36v-6.836zM101.808 109.46v6.837l1.442-.36-1.802 3.603-1.802-3.603 1.442.36v-6.837zM112.896 88.256v6.837l1.442-.36-1.802 3.603-1.802-3.604 1.442.36v-6.836zM123.984 66.259v6.836l1.442-.36-1.802 3.604-1.802-3.604 1.442.36V66.26zM135.072 43.916v6.837l1.442-.36-1.802 3.603-1.802-3.603 1.442.36v-6.837zM24.192 62.803v6.837l1.442-.36-1.802 3.603-1.802-3.604 1.442.36v-6.836zM35.28 83.706v6.836l1.442-.36-1.802 3.604-1.802-3.604 1.442.36v-6.836zM46.368 103.545v6.837l1.442-.36-1.802 3.603-1.802-3.603 1.442.36v-6.837zM57.456 121.336v6.837l1.442-.36-1.802 3.603-1.802-3.603 1.442.36v-6.837zM68.544 134.898v6.837l1.442-.36-1.802 3.603-1.802-3.604 1.442.36v-6.836z" clip-path="url(#pcc0a62c575)"/><path d="M79.632 140.302v6.837l1.442-.36-1.802 3.603-1.802-3.603 1.442.36v-6.837zM90.72 134.898v6.837l1.442-.36-1.802 3.603-1.802-3.604 1.442.36v-6.836zM101.808 121.336v6.837l1.442-.36-1.802 3.603-1.802-3.603 1.442.36v-6.837zM112.896 103.545v6.837l1.442-.36-1.802 3.603-1.802-3.603 1.442.36v-6.837zM123.984 83.706v6.836l1.442-.36-1.802 3.604-1.802-3.604 1.442.36v-6.836zM135.072 62.803v6.837l1.442-.36-1.802 3.603-1.802-3.604 1.442.36v-6.836zM24.192 78.035v6.836l1.442-.36-1.802 3.604-1.802-3.604 1.442.36v-6.836zM35.28 97.058v6.837l1.442-.36-1.802 3.603-1.802-3.603 1.442.36v-6.837zM46.368 114.397v6.837l1.442-.36-1.802 3.603-1.802-3.603 1.442.36v-6.837zM57.456 128.983v6.836l1.442-.36-1.802 3.604-1.802-3.604 1.442.36v-6.836zM68.544 139.131v6.837l1.442-.36-1.802 3.603-1.802-3.604 1.442.36v-6.836z" clip-path="url(#pcc0a62c575)"/><path d="M79.632 142.846v6.837l1.442-.36-1.802 3.603-1.802-3.603 1.442.36v-6.837zM90.72 139.131v6.837l1.442-.36-1.802 3.603-1.802-3.604 1.442.36v-6.836zM101.808 128.983v6.836l1.442-.36-1.802 3.604-1.802-3.604 1.442.36v-6.836zM112.896 114.397v6.837l1.442-.36-1.802 3.603-1.802-3.603 1.442.36v-6.837zM123.984 97.058v6.837l1.442-.36-1.802 3.603-1.802-3.603 1.442.36v-6.837zM135.072 78.035v6.836l1.442-.36-1.802 3.604-1.802-3.604 1.442.36v-6.836zM24.192 90.373v6.837l1.442-.36-1.802 3.603-1.802-3.603 1.442.36v-6.837zM35.28 107.458v6.837l1.442-.36-1.802 3.603-1.802-3.603 1.442.36v-6.837zM46.368 122.496v6.837l1.442-.36-1.802 3.603-1.802-3.604 1.442.36v-6.836zM57.456 134.58v6.838l1.442-.36-1.802 3.603-1.802-3.604 1.442.36v-6.836zM68.544 142.572v6.836l1.442-.36-1.802 3.604-1.802-3.604 1.442.36v-6.836z" clip-path="url(#pcc0a62c575)"/><path d="M79.632 145.39v6.837l1.442-.36-1.802 3.603-1.802-3.604 1.442.36v-6.836zM90.72 142.572v6.836l1.442-.36-1.802 3.604-1.802-3.604 1.442.36v-6.836zM101.808 134.58v6.838l1.442-.36-1.802 3.603-1.802-3.604 1.442.36v-6.836zM112.896 122.496v6.837l1.442-.36-1.802 3.603-1.802-3.604 1.442.36v-6.836zM123.984 107.458v6.837l1.442-.36-1.802 3.603-1.802-3.603 1.442.36v-6.837zM135.072 90.373v6.837l1.442-.36-1.802 3.603-1.802-3.603 1.442.36v-6.837zM24.192 100.519v6.837l1.442-.36-1.802 3.603-1.802-3.604 1.442.36v-6.836zM35.28 115.81v6.838l1.442-.36-1.802 3.603-1.802-3.604 1.442.36v-6.836zM46.368 128.91v6.837l1.442-.36-1.802 3.603-1.802-3.604 1.442.36v-6.836zM57.456 139.116v6.837l1.442-.36-1.802 3.603-1.802-3.604 1.442.36v-6.836zM68.544 145.667v6.836l1.442-.36-1.802 3.604-1.802-3.604 1.442.36v-6.836z" clip-path="url(#pcc0a62c575)"/><path d="M79.632 147.934v6.836l1.442-.36-1.802 3.604-1.802-3.604 1.442.36v-6.836zM90.72 145.667v6.836l1.442-.36-1.802 3.604-1.802-3.604 1.442.36v-6.836zM101.808 139.116v6.837l1.442-.36-1.802 3.603-1.802-3.604 1.442.36v-6.836zM112.896 128.91v6.837l1.442-.36-1.802 3.603-1.802-3.604 1.442.36v-6.836zM123.984 115.81v6.838l1.442-.36-1.802 3.603-1.802-3.604 1.442.36v-6.836zM135.072 100.519v6.837l1.442-.36-1.802 3.603-1.802-3.604 1.442.36v-6.836z" clip-path="url(#pcc0a62c575)"/></g><g id="text_1" style="fill:gray" transform="matrix(.1 0 0 -.1 145.8 134.712)"><defs><path id="DejaVuSans-79" d="M2059-325q-243-625-475-815-231-191-618-191H506v481h338q237 0 368 113 132 112 291 531l103 262L191 3500h609L1894 763l1094 2737h609z" transform="scale(.01563)"/><path id="DejaVuSans-27" d="M1147 4666V2931H616v1735z" transform="scale(.01563)"/></defs><use xlink:href="#DejaVuSans-79"/><use xlink:href="#DejaVuSans-27" x="59.18"/></g><g id="text_2" style="fill:gray" transform="matrix(.1 0 0 -.1 84.816 18.288)"><defs><path id="DejaVuSans-7a" d="M353 3500h2731v-525L922 459h2162V0H275v525l2163 2516H353z" transform="scale(.01563)"/></defs><use xlink:href="#DejaVuSans-7a"/><use xlink:href="#DejaVuSans-27" x="52.49"/></g></g></g><defs><clipPath id="pcc0a62c575"><path d="M7.2 7.2h144.144v266.112H7.2z"/></clipPath></defs></svg>