<?xml version="1.0" encoding="utf-8" standalone="no"?>
<!DOCTYPE svg PUBLIC "-//W3C//DTD SVG 1.1//EN"
  "http://www.w3.org/Graphics/SVG/1.1/DTD/svg11.dtd">
<svg xmlns:xlink="http://www.w3.org/1999/xlink" width="161.667187pt" height="280.512pt" viewBox="0 0 161.667187 280.512" xmlns="http://www.w3.org/2000/svg" version="1.1">
 <metadata>
  <rdf:RDF xmlns:dc="http://purl.org/dc/elements/1.1/" xmlns:cc="http://creativecommons.org/ns#" xmlns:rdf="http://www.w3.org/1999/02/22-rdf-syntax-ns#">
   <cc:Work>
    <dc:type rdf:resource="http://purl.org/dc/dcmitype/StillImage"/>
    <dc:date>2024-06-06T16:05:13.189368</dc:date>
    <dc:format>image/svg+xml</dc:format>
    <dc:creator>
     <cc:Agent>
      <dc:title>Matplotlib v3.9.0, https://matplotlib.org/</dc:title>
     </cc:Agent>
    </dc:creator>
   </cc:Work>
  </rdf:RDF>
 </metadata>
 <defs>
  <style type="text/css">*{stroke-linejoin: round; stroke-linecap: butt}</style>
 </defs>
 <g id="figure_1">
  <g id="patch_1">
   <path d="M 0 280.512 
L 161.667187 280.512 
L 161.667187 0 
L 0 0 
L 0 280.512 
z
" style="fill: none"/>
  </g>
  <g id="axes_1">
   <g id="patch_2">
    <path d="M 151.344 140.256 
L 145.8 143.8596 
L 147.0936 140.258772 
L 7.2 140.258772 
L 7.2 140.253228 
L 147.0936 140.253228 
L 145.8 136.6524 
z
" clip-path="url(#p984f9d1f48)" style="fill: #808080; stroke: #808080; stroke-linejoin: miter"/>
   </g>
   <g id="patch_3">
    <path d="M 79.272 7.2 
L 82.8756 12.744 
L 79.274772 11.4504 
L 79.274772 273.312 
L 79.269228 273.312 
L 79.269228 11.4504 
L 75.6684 12.744 
z
" clip-path="url(#p984f9d1f48)" style="fill: #808080; stroke: #808080; stroke-linejoin: miter"/>
   </g>
   <g id="Quiver_1">
    <path d="M 24.19236 -153.857228 
L 24.19236 -147.020468 
L 25.6338 -147.380828 
L 23.832 -143.777228 
L 22.0302 -147.380828 
L 23.47164 -147.020468 
L 23.47164 -153.857228 
L 24.19236 -153.857228 
" clip-path="url(#p984f9d1f48)"/>
    <path d="M 35.28036 -138.565425 
L 35.28036 -131.728665 
L 36.7218 -132.089025 
L 34.92 -128.485425 
L 33.1182 -132.089025 
L 34.55964 -131.728665 
L 34.55964 -138.565425 
L 35.28036 -138.565425 
" clip-path="url(#p984f9d1f48)"/>
    <path d="M 46.36836 -125.466194 
L 46.36836 -118.629434 
L 47.8098 -118.989794 
L 46.008 -115.386194 
L 44.2062 -118.989794 
L 45.64764 -118.629434 
L 45.64764 -125.466194 
L 46.36836 -125.466194 
" clip-path="url(#p984f9d1f48)"/>
    <path d="M 57.45636 -115.260409 
L 57.45636 -108.423649 
L 58.8978 -108.784009 
L 57.096 -105.180409 
L 55.2942 -108.784009 
L 56.73564 -108.423649 
L 56.73564 -115.260409 
L 57.45636 -115.260409 
" clip-path="url(#p984f9d1f48)"/>
    <path d="M 68.54436 -108.709441 
L 68.54436 -101.872681 
L 69.9858 -102.233041 
L 68.184 -98.629441 
L 66.3822 -102.233041 
L 67.82364 -101.872681 
L 67.82364 -108.709441 
L 68.54436 -108.709441 
" clip-path="url(#p984f9d1f48)"/>
    <path d="M 79.63236 -106.442502 
L 79.63236 -99.605742 
L 81.0738 -99.966102 
L 79.272 -96.362502 
L 77.4702 -99.966102 
L 78.91164 -99.605742 
L 78.91164 -106.442502 
L 79.63236 -106.442502 
" clip-path="url(#p984f9d1f48)"/>
    <path d="M 90.72036 -108.709441 
L 90.72036 -101.872681 
L 92.1618 -102.233041 
L 90.36 -98.629441 
L 88.5582 -102.233041 
L 89.99964 -101.872681 
L 89.99964 -108.709441 
L 90.72036 -108.709441 
" clip-path="url(#p984f9d1f48)"/>
    <path d="M 101.80836 -115.260409 
L 101.80836 -108.423649 
L 103.2498 -108.784009 
L 101.448 -105.180409 
L 99.6462 -108.784009 
L 101.08764 -108.423649 
L 101.08764 -115.260409 
L 101.80836 -115.260409 
" clip-path="url(#p984f9d1f48)"/>
    <path d="M 112.89636 -125.466194 
L 112.89636 -118.629434 
L 114.3378 -118.989794 
L 112.536 -115.386194 
L 110.7342 -118.989794 
L 112.17564 -118.629434 
L 112.17564 -125.466194 
L 112.89636 -125.466194 
" clip-path="url(#p984f9d1f48)"/>
    <path d="M 123.98436 -138.565425 
L 123.98436 -131.728665 
L 125.4258 -132.089025 
L 123.624 -128.485425 
L 121.8222 -132.089025 
L 123.26364 -131.728665 
L 123.26364 -138.565425 
L 123.98436 -138.565425 
" clip-path="url(#p984f9d1f48)"/>
    <path d="M 135.07236 -153.857228 
L 135.07236 -147.020468 
L 136.5138 -147.380828 
L 134.712 -143.777228 
L 132.9102 -147.380828 
L 134.35164 -147.020468 
L 134.35164 -153.857228 
L 135.07236 -153.857228 
" clip-path="url(#p984f9d1f48)"/>
    <path d="M 24.19236 -113.127808 
L 24.19236 -106.291048 
L 25.6338 -106.651408 
L 23.832 -103.047808 
L 22.0302 -106.651408 
L 23.47164 -106.291048 
L 23.47164 -113.127808 
L 24.19236 -113.127808 
" clip-path="url(#p984f9d1f48)"/>
    <path d="M 35.28036 -96.042811 
L 35.28036 -89.206051 
L 36.7218 -89.566411 
L 34.92 -85.962811 
L 33.1182 -89.566411 
L 34.55964 -89.206051 
L 34.55964 -96.042811 
L 35.28036 -96.042811 
" clip-path="url(#p984f9d1f48)"/>
    <path d="M 46.36836 -81.004886 
L 46.36836 -74.168126 
L 47.8098 -74.528486 
L 46.008 -70.924886 
L 44.2062 -74.528486 
L 45.64764 -74.168126 
L 45.64764 -81.004886 
L 46.36836 -81.004886 
" clip-path="url(#p984f9d1f48)"/>
    <path d="M 57.45636 -68.920043 
L 57.45636 -62.083283 
L 58.8978 -62.443643 
L 57.096 -58.840043 
L 55.2942 -62.443643 
L 56.73564 -62.083283 
L 56.73564 -68.920043 
L 57.45636 -68.920043 
" clip-path="url(#p984f9d1f48)"/>
    <path d="M 68.54436 -60.929393 
L 68.54436 -54.092633 
L 69.9858 -54.452993 
L 68.184 -50.849393 
L 66.3822 -54.452993 
L 67.82364 -54.092633 
L 67.82364 -60.929393 
L 68.54436 -60.929393 
" clip-path="url(#p984f9d1f48)"/>
    <path d="M 79.63236 -58.111031 
L 79.63236 -51.274271 
L 81.0738 -51.634631 
L 79.272 -48.031031 
L 77.4702 -51.634631 
L 78.91164 -51.274271 
L 78.91164 -58.111031 
L 79.63236 -58.111031 
" clip-path="url(#p984f9d1f48)"/>
    <path d="M 90.72036 -60.929393 
L 90.72036 -54.092633 
L 92.1618 -54.452993 
L 90.36 -50.849393 
L 88.5582 -54.452993 
L 89.99964 -54.092633 
L 89.99964 -60.929393 
L 90.72036 -60.929393 
" clip-path="url(#p984f9d1f48)"/>
    <path d="M 101.80836 -68.920043 
L 101.80836 -62.083283 
L 103.2498 -62.443643 
L 101.448 -58.840043 
L 99.6462 -62.443643 
L 101.08764 -62.083283 
L 101.08764 -68.920043 
L 101.80836 -68.920043 
" clip-path="url(#p984f9d1f48)"/>
    <path d="M 112.89636 -81.004886 
L 112.89636 -74.168126 
L 114.3378 -74.528486 
L 112.536 -70.924886 
L 110.7342 -74.528486 
L 112.17564 -74.168126 
L 112.17564 -81.004886 
L 112.89636 -81.004886 
" clip-path="url(#p984f9d1f48)"/>
    <path d="M 123.98436 -96.042811 
L 123.98436 -89.206051 
L 125.4258 -89.566411 
L 123.624 -85.962811 
L 121.8222 -89.566411 
L 123.26364 -89.206051 
L 123.26364 -96.042811 
L 123.98436 -96.042811 
" clip-path="url(#p984f9d1f48)"/>
    <path d="M 135.07236 -113.127808 
L 135.07236 -106.291048 
L 136.5138 -106.651408 
L 134.712 -103.047808 
L 132.9102 -106.651408 
L 134.35164 -106.291048 
L 134.35164 -113.127808 
L 135.07236 -113.127808 
" clip-path="url(#p984f9d1f48)"/>
    <path d="M 24.19236 -74.590961 
L 24.19236 -67.754201 
L 25.6338 -68.114561 
L 23.832 -64.510961 
L 22.0302 -68.114561 
L 23.47164 -67.754201 
L 23.47164 -74.590961 
L 24.19236 -74.590961 
" clip-path="url(#p984f9d1f48)"/>
    <path d="M 35.28036 -55.567269 
L 35.28036 -48.730509 
L 36.7218 -49.090869 
L 34.92 -45.487269 
L 33.1182 -49.090869 
L 34.55964 -48.730509 
L 34.55964 -55.567269 
L 35.28036 -55.567269 
" clip-path="url(#p984f9d1f48)"/>
    <path d="M 46.36836 -38.228395 
L 46.36836 -31.391635 
L 47.8098 -31.751995 
L 46.008 -28.148395 
L 44.2062 -31.751995 
L 45.64764 -31.391635 
L 45.64764 -38.228395 
L 46.36836 -38.228395 
" clip-path="url(#p984f9d1f48)"/>
    <path d="M 57.45636 -23.642962 
L 57.45636 -16.806202 
L 58.8978 -17.166562 
L 57.096 -13.562962 
L 55.2942 -17.166562 
L 56.73564 -16.806202 
L 56.73564 -23.642962 
L 57.45636 -23.642962 
" clip-path="url(#p984f9d1f48)"/>
    <path d="M 68.54436 -13.49472 
L 68.54436 -6.65796 
L 69.9858 -7.01832 
L 68.184 -3.41472 
L 66.3822 -7.01832 
L 67.82364 -6.65796 
L 67.82364 -13.49472 
L 68.54436 -13.49472 
" clip-path="url(#p984f9d1f48)"/>
    <path d="M 79.63236 -9.779559 
L 79.63236 -2.942799 
L 81.0738 -3.303159 
L 79.272 0.300441 
L 77.4702 -3.303159 
L 78.91164 -2.942799 
L 78.91164 -9.779559 
L 79.63236 -9.779559 
" clip-path="url(#p984f9d1f48)"/>
    <path d="M 90.72036 -13.49472 
L 90.72036 -6.65796 
L 92.1618 -7.01832 
L 90.36 -3.41472 
L 88.5582 -7.01832 
L 89.99964 -6.65796 
L 89.99964 -13.49472 
L 90.72036 -13.49472 
" clip-path="url(#p984f9d1f48)"/>
    <path d="M 101.80836 -23.642962 
L 101.80836 -16.806202 
L 103.2498 -17.166562 
L 101.448 -13.562962 
L 99.6462 -17.166562 
L 101.08764 -16.806202 
L 101.08764 -23.642962 
L 101.80836 -23.642962 
" clip-path="url(#p984f9d1f48)"/>
    <path d="M 112.89636 -38.228395 
L 112.89636 -31.391635 
L 114.3378 -31.751995 
L 112.536 -28.148395 
L 110.7342 -31.751995 
L 112.17564 -31.391635 
L 112.17564 -38.228395 
L 112.89636 -38.228395 
" clip-path="url(#p984f9d1f48)"/>
    <path d="M 123.98436 -55.567269 
L 123.98436 -48.730509 
L 125.4258 -49.090869 
L 123.624 -45.487269 
L 121.8222 -49.090869 
L 123.26364 -48.730509 
L 123.26364 -55.567269 
L 123.98436 -55.567269 
" clip-path="url(#p984f9d1f48)"/>
    <path d="M 135.07236 -74.590961 
L 135.07236 -67.754201 
L 136.5138 -68.114561 
L 134.712 -64.510961 
L 132.9102 -68.114561 
L 134.35164 -67.754201 
L 134.35164 -74.590961 
L 135.07236 -74.590961 
" clip-path="url(#p984f9d1f48)"/>
    <path d="M 24.19236 -38.94756 
L 24.19236 -32.1108 
L 25.6338 -32.47116 
L 23.832 -28.86756 
L 22.0302 -32.47116 
L 23.47164 -32.1108 
L 23.47164 -38.94756 
L 24.19236 -38.94756 
" clip-path="url(#p984f9d1f48)"/>
    <path d="M 35.28036 -18.04481 
L 35.28036 -11.20805 
L 36.7218 -11.56841 
L 34.92 -7.96481 
L 33.1182 -11.56841 
L 34.55964 -11.20805 
L 34.55964 -18.04481 
L 35.28036 -18.04481 
" clip-path="url(#p984f9d1f48)"/>
    <path d="M 46.36836 1.794654 
L 46.36836 8.631414 
L 47.8098 8.271054 
L 46.008 11.874654 
L 44.2062 8.271054 
L 45.64764 8.631414 
L 45.64764 1.794654 
L 46.36836 1.794654 
" clip-path="url(#p984f9d1f48)"/>
    <path d="M 57.45636 19.586022 
L 57.45636 26.422782 
L 58.8978 26.062422 
L 57.096 29.666022 
L 55.2942 26.062422 
L 56.73564 26.422782 
L 56.73564 19.586022 
L 57.45636 19.586022 
" clip-path="url(#p984f9d1f48)"/>
    <path d="M 68.54436 33.147406 
L 68.54436 39.984166 
L 69.9858 39.623806 
L 68.184 43.227406 
L 66.3822 39.623806 
L 67.82364 39.984166 
L 67.82364 33.147406 
L 68.54436 33.147406 
" clip-path="url(#p984f9d1f48)"/>
    <path d="M 79.63236 38.551912 
L 79.63236 45.388672 
L 81.0738 45.028312 
L 79.272 48.631912 
L 77.4702 45.028312 
L 78.91164 45.388672 
L 78.91164 38.551912 
L 79.63236 38.551912 
" clip-path="url(#p984f9d1f48)"/>
    <path d="M 90.72036 33.147406 
L 90.72036 39.984166 
L 92.1618 39.623806 
L 90.36 43.227406 
L 88.5582 39.623806 
L 89.99964 39.984166 
L 89.99964 33.147406 
L 90.72036 33.147406 
" clip-path="url(#p984f9d1f48)"/>
    <path d="M 101.80836 19.586022 
L 101.80836 26.422782 
L 103.2498 26.062422 
L 101.448 29.666022 
L 99.6462 26.062422 
L 101.08764 26.422782 
L 101.08764 19.586022 
L 101.80836 19.586022 
" clip-path="url(#p984f9d1f48)"/>
    <path d="M 112.89636 1.794654 
L 112.89636 8.631414 
L 114.3378 8.271054 
L 112.536 11.874654 
L 110.7342 8.271054 
L 112.17564 8.631414 
L 112.17564 1.794654 
L 112.89636 1.794654 
" clip-path="url(#p984f9d1f48)"/>
    <path d="M 123.98436 -18.04481 
L 123.98436 -11.20805 
L 125.4258 -11.56841 
L 123.624 -7.96481 
L 121.8222 -11.56841 
L 123.26364 -11.20805 
L 123.26364 -18.04481 
L 123.98436 -18.04481 
" clip-path="url(#p984f9d1f48)"/>
    <path d="M 135.07236 -38.94756 
L 135.07236 -32.1108 
L 136.5138 -32.47116 
L 134.712 -28.86756 
L 132.9102 -32.47116 
L 134.35164 -32.1108 
L 134.35164 -38.94756 
L 135.07236 -38.94756 
" clip-path="url(#p984f9d1f48)"/>
    <path d="M 24.19236 -6.958974 
L 24.19236 -0.122214 
L 25.6338 -0.482574 
L 23.832 3.121026 
L 22.0302 -0.482574 
L 23.47164 -0.122214 
L 23.47164 -6.958974 
L 24.19236 -6.958974 
" clip-path="url(#p984f9d1f48)"/>
    <path d="M 35.28036 15.383457 
L 35.28036 22.220217 
L 36.7218 21.859857 
L 34.92 25.463457 
L 33.1182 21.859857 
L 34.55964 22.220217 
L 34.55964 15.383457 
L 35.28036 15.383457 
" clip-path="url(#p984f9d1f48)"/>
    <path d="M 46.36836 37.380513 
L 46.36836 44.217273 
L 47.8098 43.856913 
L 46.008 47.460513 
L 44.2062 43.856913 
L 45.64764 44.217273 
L 45.64764 37.380513 
L 46.36836 37.380513 
" clip-path="url(#p984f9d1f48)"/>
    <path d="M 57.45636 58.585023 
L 57.45636 65.421783 
L 58.8978 65.061423 
L 57.096 68.665023 
L 55.2942 65.061423 
L 56.73564 65.421783 
L 56.73564 58.585023 
L 57.45636 58.585023 
" clip-path="url(#p984f9d1f48)"/>
    <path d="M 68.54436 77.400439 
L 68.54436 84.237199 
L 69.9858 83.876839 
L 68.184 87.480439 
L 66.3822 83.876839 
L 67.82364 84.237199 
L 67.82364 77.400439 
L 68.54436 77.400439 
" clip-path="url(#p984f9d1f48)"/>
    <path d="M 79.63236 86.883384 
L 79.63236 93.720144 
L 81.0738 93.359784 
L 79.272 96.963384 
L 77.4702 93.359784 
L 78.91164 93.720144 
L 78.91164 86.883384 
L 79.63236 86.883384 
" clip-path="url(#p984f9d1f48)"/>
    <path d="M 90.72036 77.400439 
L 90.72036 84.237199 
L 92.1618 83.876839 
L 90.36 87.480439 
L 88.5582 83.876839 
L 89.99964 84.237199 
L 89.99964 77.400439 
L 90.72036 77.400439 
" clip-path="url(#p984f9d1f48)"/>
    <path d="M 101.80836 58.585023 
L 101.80836 65.421783 
L 103.2498 65.061423 
L 101.448 68.665023 
L 99.6462 65.061423 
L 101.08764 65.421783 
L 101.08764 58.585023 
L 101.80836 58.585023 
" clip-path="url(#p984f9d1f48)"/>
    <path d="M 112.89636 37.380513 
L 112.89636 44.217273 
L 114.3378 43.856913 
L 112.536 47.460513 
L 110.7342 43.856913 
L 112.17564 44.217273 
L 112.17564 37.380513 
L 112.89636 37.380513 
" clip-path="url(#p984f9d1f48)"/>
    <path d="M 123.98436 15.383457 
L 123.98436 22.220217 
L 125.4258 21.859857 
L 123.624 25.463457 
L 121.8222 21.859857 
L 123.26364 22.220217 
L 123.26364 15.383457 
L 123.98436 15.383457 
" clip-path="url(#p984f9d1f48)"/>
    <path d="M 135.07236 -6.958974 
L 135.07236 -0.122214 
L 136.5138 -0.482574 
L 134.712 3.121026 
L 132.9102 -0.482574 
L 134.35164 -0.122214 
L 134.35164 -6.958974 
L 135.07236 -6.958974 
" clip-path="url(#p984f9d1f48)"/>
    <path d="M 24.19236 20.745581 
L 24.19236 27.582341 
L 25.6338 27.221981 
L 23.832 30.825581 
L 22.0302 27.221981 
L 23.47164 27.582341 
L 23.47164 20.745581 
L 24.19236 20.745581 
" clip-path="url(#p984f9d1f48)"/>
    <path d="M 35.28036 43.639436 
L 35.28036 50.476196 
L 36.7218 50.115836 
L 34.92 53.719436 
L 33.1182 50.115836 
L 34.55964 50.476196 
L 34.55964 43.639436 
L 35.28036 43.639436 
" clip-path="url(#p984f9d1f48)"/>
    <path d="M 46.36836 66.533291 
L 46.36836 73.370051 
L 47.8098 73.009691 
L 46.008 76.613291 
L 44.2062 73.009691 
L 45.64764 73.370051 
L 45.64764 66.533291 
L 46.36836 66.533291 
" clip-path="url(#p984f9d1f48)"/>
    <path d="M 57.45636 89.427145 
L 57.45636 96.263905 
L 58.8978 95.903545 
L 57.096 99.507145 
L 55.2942 95.903545 
L 56.73564 96.263905 
L 56.73564 89.427145 
L 57.45636 89.427145 
" clip-path="url(#p984f9d1f48)"/>
    <path d="M 68.54436 112.321 
L 68.54436 119.15776 
L 69.9858 118.7974 
L 68.184 122.401 
L 66.3822 118.7974 
L 67.82364 119.15776 
L 67.82364 112.321 
L 68.54436 112.321 
" clip-path="url(#p984f9d1f48)"/>
    <path d="M 79.63236 135.214855 
L 79.63236 142.051615 
L 81.0738 141.691255 
L 79.272 145.294855 
L 77.4702 141.691255 
L 78.91164 142.051615 
L 78.91164 135.214855 
L 79.63236 135.214855 
" clip-path="url(#p984f9d1f48)"/>
    <path d="M 90.72036 112.321 
L 90.72036 119.15776 
L 92.1618 118.7974 
L 90.36 122.401 
L 88.5582 118.7974 
L 89.99964 119.15776 
L 89.99964 112.321 
L 90.72036 112.321 
" clip-path="url(#p984f9d1f48)"/>
    <path d="M 101.80836 89.427145 
L 101.80836 96.263905 
L 103.2498 95.903545 
L 101.448 99.507145 
L 99.6462 95.903545 
L 101.08764 96.263905 
L 101.08764 89.427145 
L 101.80836 89.427145 
" clip-path="url(#p984f9d1f48)"/>
    <path d="M 112.89636 66.533291 
L 112.89636 73.370051 
L 114.3378 73.009691 
L 112.536 76.613291 
L 110.7342 73.009691 
L 112.17564 73.370051 
L 112.17564 66.533291 
L 112.89636 66.533291 
" clip-path="url(#p984f9d1f48)"/>
    <path d="M 123.98436 43.639436 
L 123.98436 50.476196 
L 125.4258 50.115836 
L 123.624 53.719436 
L 121.8222 50.115836 
L 123.26364 50.476196 
L 123.26364 43.639436 
L 123.98436 43.639436 
" clip-path="url(#p984f9d1f48)"/>
    <path d="M 135.07236 20.745581 
L 135.07236 27.582341 
L 136.5138 27.221981 
L 134.712 30.825581 
L 132.9102 27.221981 
L 134.35164 27.582341 
L 134.35164 20.745581 
L 135.07236 20.745581 
" clip-path="url(#p984f9d1f48)"/>
    <path d="M 24.19236 43.916259 
L 24.19236 50.753019 
L 25.6338 50.392659 
L 23.832 53.996259 
L 22.0302 50.392659 
L 23.47164 50.753019 
L 23.47164 43.916259 
L 24.19236 43.916259 
" clip-path="url(#p984f9d1f48)"/>
    <path d="M 35.28036 66.25869 
L 35.28036 73.09545 
L 36.7218 72.73509 
L 34.92 76.33869 
L 33.1182 72.73509 
L 34.55964 73.09545 
L 34.55964 66.25869 
L 35.28036 66.25869 
" clip-path="url(#p984f9d1f48)"/>
    <path d="M 46.36836 88.255746 
L 46.36836 95.092506 
L 47.8098 94.732146 
L 46.008 98.335746 
L 44.2062 94.732146 
L 45.64764 95.092506 
L 45.64764 88.255746 
L 46.36836 88.255746 
" clip-path="url(#p984f9d1f48)"/>
    <path d="M 57.45636 109.460256 
L 57.45636 116.297016 
L 58.8978 115.936656 
L 57.096 119.540256 
L 55.2942 115.936656 
L 56.73564 116.297016 
L 56.73564 109.460256 
L 57.45636 109.460256 
" clip-path="url(#p984f9d1f48)"/>
    <path d="M 68.54436 128.275672 
L 68.54436 135.112432 
L 69.9858 134.752072 
L 68.184 138.355672 
L 66.3822 134.752072 
L 67.82364 135.112432 
L 67.82364 128.275672 
L 68.54436 128.275672 
" clip-path="url(#p984f9d1f48)"/>
    <path d="M 79.63236 137.758617 
L 79.63236 144.595377 
L 81.0738 144.235017 
L 79.272 147.838617 
L 77.4702 144.235017 
L 78.91164 144.595377 
L 78.91164 137.758617 
L 79.63236 137.758617 
" clip-path="url(#p984f9d1f48)"/>
    <path d="M 90.72036 128.275672 
L 90.72036 135.112432 
L 92.1618 134.752072 
L 90.36 138.355672 
L 88.5582 134.752072 
L 89.99964 135.112432 
L 89.99964 128.275672 
L 90.72036 128.275672 
" clip-path="url(#p984f9d1f48)"/>
    <path d="M 101.80836 109.460256 
L 101.80836 116.297016 
L 103.2498 115.936656 
L 101.448 119.540256 
L 99.6462 115.936656 
L 101.08764 116.297016 
L 101.08764 109.460256 
L 101.80836 109.460256 
" clip-path="url(#p984f9d1f48)"/>
    <path d="M 112.89636 88.255746 
L 112.89636 95.092506 
L 114.3378 94.732146 
L 112.536 98.335746 
L 110.7342 94.732146 
L 112.17564 95.092506 
L 112.17564 88.255746 
L 112.89636 88.255746 
" clip-path="url(#p984f9d1f48)"/>
    <path d="M 123.98436 66.25869 
L 123.98436 73.09545 
L 125.4258 72.73509 
L 123.624 76.33869 
L 121.8222 72.73509 
L 123.26364 73.09545 
L 123.26364 66.25869 
L 123.98436 66.25869 
" clip-path="url(#p984f9d1f48)"/>
    <path d="M 135.07236 43.916259 
L 135.07236 50.753019 
L 136.5138 50.392659 
L 134.712 53.996259 
L 132.9102 50.392659 
L 134.35164 50.753019 
L 134.35164 43.916259 
L 135.07236 43.916259 
" clip-path="url(#p984f9d1f48)"/>
    <path d="M 24.19236 62.802907 
L 24.19236 69.639667 
L 25.6338 69.279307 
L 23.832 72.882907 
L 22.0302 69.279307 
L 23.47164 69.639667 
L 23.47164 62.802907 
L 24.19236 62.802907 
" clip-path="url(#p984f9d1f48)"/>
    <path d="M 35.28036 83.705657 
L 35.28036 90.542417 
L 36.7218 90.182057 
L 34.92 93.785657 
L 33.1182 90.182057 
L 34.55964 90.542417 
L 34.55964 83.705657 
L 35.28036 83.705657 
" clip-path="url(#p984f9d1f48)"/>
    <path d="M 46.36836 103.545121 
L 46.36836 110.381881 
L 47.8098 110.021521 
L 46.008 113.625121 
L 44.2062 110.021521 
L 45.64764 110.381881 
L 45.64764 103.545121 
L 46.36836 103.545121 
" clip-path="url(#p984f9d1f48)"/>
    <path d="M 57.45636 121.336488 
L 57.45636 128.173248 
L 58.8978 127.812888 
L 57.096 131.416488 
L 55.2942 127.812888 
L 56.73564 128.173248 
L 56.73564 121.336488 
L 57.45636 121.336488 
" clip-path="url(#p984f9d1f48)"/>
    <path d="M 68.54436 134.897873 
L 68.54436 141.734633 
L 69.9858 141.374273 
L 68.184 144.977873 
L 66.3822 141.374273 
L 67.82364 141.734633 
L 67.82364 134.897873 
L 68.54436 134.897873 
" clip-path="url(#p984f9d1f48)"/>
    <path d="M 79.63236 140.302379 
L 79.63236 147.139139 
L 81.0738 146.778779 
L 79.272 150.382379 
L 77.4702 146.778779 
L 78.91164 147.139139 
L 78.91164 140.302379 
L 79.63236 140.302379 
" clip-path="url(#p984f9d1f48)"/>
    <path d="M 90.72036 134.897873 
L 90.72036 141.734633 
L 92.1618 141.374273 
L 90.36 144.977873 
L 88.5582 141.374273 
L 89.99964 141.734633 
L 89.99964 134.897873 
L 90.72036 134.897873 
" clip-path="url(#p984f9d1f48)"/>
    <path d="M 101.80836 121.336488 
L 101.80836 128.173248 
L 103.2498 127.812888 
L 101.448 131.416488 
L 99.6462 127.812888 
L 101.08764 128.173248 
L 101.08764 121.336488 
L 101.80836 121.336488 
" clip-path="url(#p984f9d1f48)"/>
    <path d="M 112.89636 103.545121 
L 112.89636 110.381881 
L 114.3378 110.021521 
L 112.536 113.625121 
L 110.7342 110.021521 
L 112.17564 110.381881 
L 112.17564 103.545121 
L 112.89636 103.545121 
" clip-path="url(#p984f9d1f48)"/>
    <path d="M 123.98436 83.705657 
L 123.98436 90.542417 
L 125.4258 90.182057 
L 123.624 93.785657 
L 121.8222 90.182057 
L 123.26364 90.542417 
L 123.26364 83.705657 
L 123.98436 83.705657 
" clip-path="url(#p984f9d1f48)"/>
    <path d="M 135.07236 62.802907 
L 135.07236 69.639667 
L 136.5138 69.279307 
L 134.712 72.882907 
L 132.9102 69.279307 
L 134.35164 69.639667 
L 134.35164 62.802907 
L 135.07236 62.802907 
" clip-path="url(#p984f9d1f48)"/>
    <path d="M 24.19236 78.034738 
L 24.19236 84.871498 
L 25.6338 84.511138 
L 23.832 88.114738 
L 22.0302 84.511138 
L 23.47164 84.871498 
L 23.47164 78.034738 
L 24.19236 78.034738 
" clip-path="url(#p984f9d1f48)"/>
    <path d="M 35.28036 97.05843 
L 35.28036 103.89519 
L 36.7218 103.53483 
L 34.92 107.13843 
L 33.1182 103.53483 
L 34.55964 103.89519 
L 34.55964 97.05843 
L 35.28036 97.05843 
" clip-path="url(#p984f9d1f48)"/>
    <path d="M 46.36836 114.397305 
L 46.36836 121.234065 
L 47.8098 120.873705 
L 46.008 124.477305 
L 44.2062 120.873705 
L 45.64764 121.234065 
L 45.64764 114.397305 
L 46.36836 114.397305 
" clip-path="url(#p984f9d1f48)"/>
    <path d="M 57.45636 128.982737 
L 57.45636 135.819497 
L 58.8978 135.459137 
L 57.096 139.062737 
L 55.2942 135.459137 
L 56.73564 135.819497 
L 56.73564 128.982737 
L 57.45636 128.982737 
" clip-path="url(#p984f9d1f48)"/>
    <path d="M 68.54436 139.130979 
L 68.54436 145.967739 
L 69.9858 145.607379 
L 68.184 149.210979 
L 66.3822 145.607379 
L 67.82364 145.967739 
L 67.82364 139.130979 
L 68.54436 139.130979 
" clip-path="url(#p984f9d1f48)"/>
    <path d="M 79.63236 142.84614 
L 79.63236 149.6829 
L 81.0738 149.32254 
L 79.272 152.92614 
L 77.4702 149.32254 
L 78.91164 149.6829 
L 78.91164 142.84614 
L 79.63236 142.84614 
" clip-path="url(#p984f9d1f48)"/>
    <path d="M 90.72036 139.130979 
L 90.72036 145.967739 
L 92.1618 145.607379 
L 90.36 149.210979 
L 88.5582 145.607379 
L 89.99964 145.967739 
L 89.99964 139.130979 
L 90.72036 139.130979 
" clip-path="url(#p984f9d1f48)"/>
    <path d="M 101.80836 128.982737 
L 101.80836 135.819497 
L 103.2498 135.459137 
L 101.448 139.062737 
L 99.6462 135.459137 
L 101.08764 135.819497 
L 101.08764 128.982737 
L 101.80836 128.982737 
" clip-path="url(#p984f9d1f48)"/>
    <path d="M 112.89636 114.397305 
L 112.89636 121.234065 
L 114.3378 120.873705 
L 112.536 124.477305 
L 110.7342 120.873705 
L 112.17564 121.234065 
L 112.17564 114.397305 
L 112.89636 114.397305 
" clip-path="url(#p984f9d1f48)"/>
    <path d="M 123.98436 97.05843 
L 123.98436 103.89519 
L 125.4258 103.53483 
L 123.624 107.13843 
L 121.8222 103.53483 
L 123.26364 103.89519 
L 123.26364 97.05843 
L 123.98436 97.05843 
" clip-path="url(#p984f9d1f48)"/>
    <path d="M 135.07236 78.034738 
L 135.07236 84.871498 
L 136.5138 84.511138 
L 134.712 88.114738 
L 132.9102 84.511138 
L 134.35164 84.871498 
L 134.35164 78.034738 
L 135.07236 78.034738 
" clip-path="url(#p984f9d1f48)"/>
    <path d="M 24.19236 90.373124 
L 24.19236 97.209884 
L 25.6338 96.849524 
L 23.832 100.453124 
L 22.0302 96.849524 
L 23.47164 97.209884 
L 23.47164 90.373124 
L 24.19236 90.373124 
" clip-path="url(#p984f9d1f48)"/>
    <path d="M 35.28036 107.458121 
L 35.28036 114.294881 
L 36.7218 113.934521 
L 34.92 117.538121 
L 33.1182 113.934521 
L 34.55964 114.294881 
L 34.55964 107.458121 
L 35.28036 107.458121 
" clip-path="url(#p984f9d1f48)"/>
    <path d="M 46.36836 122.496047 
L 46.36836 129.332807 
L 47.8098 128.972447 
L 46.008 132.576047 
L 44.2062 128.972447 
L 45.64764 129.332807 
L 45.64764 122.496047 
L 46.36836 122.496047 
" clip-path="url(#p984f9d1f48)"/>
    <path d="M 57.45636 134.58089 
L 57.45636 141.41765 
L 58.8978 141.05729 
L 57.096 144.66089 
L 55.2942 141.05729 
L 56.73564 141.41765 
L 56.73564 134.58089 
L 57.45636 134.58089 
" clip-path="url(#p984f9d1f48)"/>
    <path d="M 68.54436 142.57154 
L 68.54436 149.4083 
L 69.9858 149.04794 
L 68.184 152.65154 
L 66.3822 149.04794 
L 67.82364 149.4083 
L 67.82364 142.57154 
L 68.54436 142.57154 
" clip-path="url(#p984f9d1f48)"/>
    <path d="M 79.63236 145.389902 
L 79.63236 152.226662 
L 81.0738 151.866302 
L 79.272 155.469902 
L 77.4702 151.866302 
L 78.91164 152.226662 
L 78.91164 145.389902 
L 79.63236 145.389902 
" clip-path="url(#p984f9d1f48)"/>
    <path d="M 90.72036 142.57154 
L 90.72036 149.4083 
L 92.1618 149.04794 
L 90.36 152.65154 
L 88.5582 149.04794 
L 89.99964 149.4083 
L 89.99964 142.57154 
L 90.72036 142.57154 
" clip-path="url(#p984f9d1f48)"/>
    <path d="M 101.80836 134.58089 
L 101.80836 141.41765 
L 103.2498 141.05729 
L 101.448 144.66089 
L 99.6462 141.05729 
L 101.08764 141.41765 
L 101.08764 134.58089 
L 101.80836 134.58089 
" clip-path="url(#p984f9d1f48)"/>
    <path d="M 112.89636 122.496047 
L 112.89636 129.332807 
L 114.3378 128.972447 
L 112.536 132.576047 
L 110.7342 128.972447 
L 112.17564 129.332807 
L 112.17564 122.496047 
L 112.89636 122.496047 
" clip-path="url(#p984f9d1f48)"/>
    <path d="M 123.98436 107.458121 
L 123.98436 114.294881 
L 125.4258 113.934521 
L 123.624 117.538121 
L 121.8222 113.934521 
L 123.26364 114.294881 
L 123.26364 107.458121 
L 123.98436 107.458121 
" clip-path="url(#p984f9d1f48)"/>
    <path d="M 135.07236 90.373124 
L 135.07236 97.209884 
L 136.5138 96.849524 
L 134.712 100.453124 
L 132.9102 96.849524 
L 134.35164 97.209884 
L 134.35164 90.373124 
L 135.07236 90.373124 
" clip-path="url(#p984f9d1f48)"/>
    <path d="M 24.19236 100.518938 
L 24.19236 107.355698 
L 25.6338 106.995338 
L 23.832 110.598938 
L 22.0302 106.995338 
L 23.47164 107.355698 
L 23.47164 100.518938 
L 24.19236 100.518938 
" clip-path="url(#p984f9d1f48)"/>
    <path d="M 35.28036 115.810741 
L 35.28036 122.647501 
L 36.7218 122.287141 
L 34.92 125.890741 
L 33.1182 122.287141 
L 34.55964 122.647501 
L 34.55964 115.810741 
L 35.28036 115.810741 
" clip-path="url(#p984f9d1f48)"/>
    <path d="M 46.36836 128.909971 
L 46.36836 135.746731 
L 47.8098 135.386371 
L 46.008 138.989971 
L 44.2062 135.386371 
L 45.64764 135.746731 
L 45.64764 128.909971 
L 46.36836 128.909971 
" clip-path="url(#p984f9d1f48)"/>
    <path d="M 57.45636 139.115756 
L 57.45636 145.952516 
L 58.8978 145.592156 
L 57.096 149.195756 
L 55.2942 145.592156 
L 56.73564 145.952516 
L 56.73564 139.115756 
L 57.45636 139.115756 
" clip-path="url(#p984f9d1f48)"/>
    <path d="M 68.54436 145.666725 
L 68.54436 152.503485 
L 69.9858 152.143125 
L 68.184 155.746725 
L 66.3822 152.143125 
L 67.82364 152.503485 
L 67.82364 145.666725 
L 68.54436 145.666725 
" clip-path="url(#p984f9d1f48)"/>
    <path d="M 79.63236 147.933664 
L 79.63236 154.770424 
L 81.0738 154.410064 
L 79.272 158.013664 
L 77.4702 154.410064 
L 78.91164 154.770424 
L 78.91164 147.933664 
L 79.63236 147.933664 
" clip-path="url(#p984f9d1f48)"/>
    <path d="M 90.72036 145.666725 
L 90.72036 152.503485 
L 92.1618 152.143125 
L 90.36 155.746725 
L 88.5582 152.143125 
L 89.99964 152.503485 
L 89.99964 145.666725 
L 90.72036 145.666725 
" clip-path="url(#p984f9d1f48)"/>
    <path d="M 101.80836 139.115756 
L 101.80836 145.952516 
L 103.2498 145.592156 
L 101.448 149.195756 
L 99.6462 145.592156 
L 101.08764 145.952516 
L 101.08764 139.115756 
L 101.80836 139.115756 
" clip-path="url(#p984f9d1f48)"/>
    <path d="M 112.89636 128.909971 
L 112.89636 135.746731 
L 114.3378 135.386371 
L 112.536 138.989971 
L 110.7342 135.386371 
L 112.17564 135.746731 
L 112.17564 128.909971 
L 112.89636 128.909971 
" clip-path="url(#p984f9d1f48)"/>
    <path d="M 123.98436 115.810741 
L 123.98436 122.647501 
L 125.4258 122.287141 
L 123.624 125.890741 
L 121.8222 122.287141 
L 123.26364 122.647501 
L 123.26364 115.810741 
L 123.98436 115.810741 
" clip-path="url(#p984f9d1f48)"/>
    <path d="M 135.07236 100.518938 
L 135.07236 107.355698 
L 136.5138 106.995338 
L 134.712 110.598938 
L 132.9102 106.995338 
L 134.35164 107.355698 
L 134.35164 100.518938 
L 135.07236 100.518938 
" clip-path="url(#p984f9d1f48)"/>
   </g>
   <g id="text_1">
    <!-- y' -->
    <g style="fill: #808080" transform="translate(145.8 134.712) scale(0.1 -0.1)">
     <defs>
      <path id="DejaVuSans-79" d="M 2059 -325 
Q 1816 -950 1584 -1140 
Q 1353 -1331 966 -1331 
L 506 -1331 
L 506 -850 
L 844 -850 
Q 1081 -850 1212 -737 
Q 1344 -625 1503 -206 
L 1606 56 
L 191 3500 
L 800 3500 
L 1894 763 
L 2988 3500 
L 3597 3500 
L 2059 -325 
z
" transform="scale(0.015625)"/>
      <path id="DejaVuSans-27" d="M 1147 4666 
L 1147 2931 
L 616 2931 
L 616 4666 
L 1147 4666 
z
" transform="scale(0.015625)"/>
     </defs>
     <use xlink:href="#DejaVuSans-79"/>
     <use xlink:href="#DejaVuSans-27" x="59.179688"/>
    </g>
   </g>
   <g id="text_2">
    <!-- z' -->
    <g style="fill: #808080" transform="translate(84.816 18.288) scale(0.1 -0.1)">
     <defs>
      <path id="DejaVuSans-7a" d="M 353 3500 
L 3084 3500 
L 3084 2975 
L 922 459 
L 3084 459 
L 3084 0 
L 275 0 
L 275 525 
L 2438 3041 
L 353 3041 
L 353 3500 
z
" transform="scale(0.015625)"/>
     </defs>
     <use xlink:href="#DejaVuSans-7a"/>
     <use xlink:href="#DejaVuSans-27" x="52.490234"/>
    </g>
   </g>
  </g>
 </g>
 <defs>
  <clipPath id="p984f9d1f48">
   <rect x="7.2" y="7.2" width="144.144" height="266.112"/>
  </clipPath>
 </defs>
</svg>
