<?xml version="1.0" encoding="utf-8" standalone="no"?>
<!DOCTYPE svg PUBLIC "-//W3C//DTD SVG 1.1//EN"
  "http://www.w3.org/Graphics/SVG/1.1/DTD/svg11.dtd">
<svg xmlns:xlink="http://www.w3.org/1999/xlink" width="201.397622pt" height="280.512pt" viewBox="0 0 201.397622 280.512" xmlns="http://www.w3.org/2000/svg" version="1.1">
 <metadata>
  <rdf:RDF xmlns:dc="http://purl.org/dc/elements/1.1/" xmlns:cc="http://creativecommons.org/ns#" xmlns:rdf="http://www.w3.org/1999/02/22-rdf-syntax-ns#">
   <cc:Work>
    <dc:type rdf:resource="http://purl.org/dc/dcmitype/StillImage"/>
    <dc:date>2025-02-20T01:00:14.813832</dc:date>
    <dc:format>image/svg+xml</dc:format>
    <dc:creator>
     <cc:Agent>
      <dc:title>Matplotlib v3.9.0, https://matplotlib.org/</dc:title>
     </cc:Agent>
    </dc:creator>
   </cc:Work>
  </rdf:RDF>
 </metadata>
 <defs>
  <style type="text/css">*{stroke-linejoin: round; stroke-linecap: butt}</style>
 </defs>
 <g id="figure_1">
  <g id="patch_1">
   <path d="M 0 280.512 
L 201.397622 280.512 
L 201.397622 0 
L 0 0 
L 0 280.512 
z
" style="fill: none"/>
  </g>
  <g id="axes_1">
   <g id="patch_2">
    <path d="M 194.197622 179.813189 
L 187.005405 184.48813 
L 188.683589 179.816785 
L 7.2 179.816785 
L 7.2 179.809593 
L 188.683589 179.809593 
L 187.005405 175.138249 
z
" clip-path="url(#p975e272802)" style="stroke: #000000; stroke-linejoin: miter"/>
   </g>
   <g id="patch_3">
    <path d="M 100.698811 7.2 
L 105.373751 14.392216 
L 100.702407 12.714032 
L 100.702407 273.312 
L 100.695215 273.312 
L 100.695215 12.714032 
L 96.02387 14.392216 
z
" clip-path="url(#p975e272802)" style="stroke: #000000; stroke-linejoin: miter"/>
   </g>
   <g id="patch_4">
    <path d="M 14.392216 151.044324 
L 19.067157 158.236541 
L 14.395812 156.558357 
L 14.395812 179.813189 
L 14.38862 179.813189 
L 14.38862 156.558357 
L 9.717276 158.236541 
z
" clip-path="url(#p975e272802)" style="fill: #808080; stroke: #808080; stroke-linejoin: miter"/>
   </g>
   <g id="patch_5">
    <path d="M 14.392216 158.236541 
L 19.067157 165.428757 
L 14.395812 163.750573 
L 14.395812 179.813189 
L 14.38862 179.813189 
L 14.38862 163.750573 
L 9.717276 165.428757 
z
" clip-path="url(#p975e272802)" style="fill: #808080; stroke: #808080; stroke-linejoin: miter"/>
   </g>
   <g id="line2d_1">
    <defs>
     <path id="m215a2d50b7" d="M 0 0.5 
C 0.132602 0.5 0.25979 0.447317 0.353553 0.353553 
C 0.447317 0.25979 0.5 0.132602 0.5 0 
C 0.5 -0.132602 0.447317 -0.25979 0.353553 -0.353553 
C 0.25979 -0.447317 0.132602 -0.5 0 -0.5 
C -0.132602 -0.5 -0.25979 -0.447317 -0.353553 -0.353553 
C -0.447317 -0.25979 -0.5 -0.132602 -0.5 0 
C -0.5 0.132602 -0.447317 0.25979 -0.353553 0.353553 
C -0.25979 0.447317 -0.132602 0.5 0 0.5 
z
" style="stroke: #000000"/>
    </defs>
    <g clip-path="url(#p975e272802)">
     <use xlink:href="#m215a2d50b7" x="28.776649" y="251.735351" style="stroke: #000000"/>
     <use xlink:href="#m215a2d50b7" x="28.776649" y="237.350919" style="stroke: #000000"/>
     <use xlink:href="#m215a2d50b7" x="28.776649" y="222.966486" style="stroke: #000000"/>
     <use xlink:href="#m215a2d50b7" x="28.776649" y="208.582054" style="stroke: #000000"/>
     <use xlink:href="#m215a2d50b7" x="28.776649" y="194.197622" style="stroke: #000000"/>
     <use xlink:href="#m215a2d50b7" x="28.776649" y="179.813189" style="stroke: #000000"/>
     <use xlink:href="#m215a2d50b7" x="28.776649" y="165.428757" style="stroke: #000000"/>
     <use xlink:href="#m215a2d50b7" x="28.776649" y="151.044324" style="stroke: #000000"/>
     <use xlink:href="#m215a2d50b7" x="28.776649" y="136.659892" style="stroke: #000000"/>
     <use xlink:href="#m215a2d50b7" x="28.776649" y="122.275459" style="stroke: #000000"/>
     <use xlink:href="#m215a2d50b7" x="28.776649" y="107.891027" style="stroke: #000000"/>
    </g>
   </g>
   <g id="line2d_2">
    <g clip-path="url(#p975e272802)">
     <use xlink:href="#m215a2d50b7" x="43.161081" y="251.735351" style="stroke: #000000"/>
     <use xlink:href="#m215a2d50b7" x="43.161081" y="237.350919" style="stroke: #000000"/>
     <use xlink:href="#m215a2d50b7" x="43.161081" y="222.966486" style="stroke: #000000"/>
     <use xlink:href="#m215a2d50b7" x="43.161081" y="208.582054" style="stroke: #000000"/>
     <use xlink:href="#m215a2d50b7" x="43.161081" y="194.197622" style="stroke: #000000"/>
     <use xlink:href="#m215a2d50b7" x="43.161081" y="179.813189" style="stroke: #000000"/>
     <use xlink:href="#m215a2d50b7" x="43.161081" y="165.428757" style="stroke: #000000"/>
     <use xlink:href="#m215a2d50b7" x="43.161081" y="151.044324" style="stroke: #000000"/>
     <use xlink:href="#m215a2d50b7" x="43.161081" y="136.659892" style="stroke: #000000"/>
     <use xlink:href="#m215a2d50b7" x="43.161081" y="122.275459" style="stroke: #000000"/>
     <use xlink:href="#m215a2d50b7" x="43.161081" y="107.891027" style="stroke: #000000"/>
    </g>
   </g>
   <g id="line2d_3">
    <g clip-path="url(#p975e272802)">
     <use xlink:href="#m215a2d50b7" x="57.545514" y="251.735351" style="stroke: #000000"/>
     <use xlink:href="#m215a2d50b7" x="57.545514" y="237.350919" style="stroke: #000000"/>
     <use xlink:href="#m215a2d50b7" x="57.545514" y="222.966486" style="stroke: #000000"/>
     <use xlink:href="#m215a2d50b7" x="57.545514" y="208.582054" style="stroke: #000000"/>
     <use xlink:href="#m215a2d50b7" x="57.545514" y="194.197622" style="stroke: #000000"/>
     <use xlink:href="#m215a2d50b7" x="57.545514" y="179.813189" style="stroke: #000000"/>
     <use xlink:href="#m215a2d50b7" x="57.545514" y="165.428757" style="stroke: #000000"/>
     <use xlink:href="#m215a2d50b7" x="57.545514" y="151.044324" style="stroke: #000000"/>
     <use xlink:href="#m215a2d50b7" x="57.545514" y="136.659892" style="stroke: #000000"/>
     <use xlink:href="#m215a2d50b7" x="57.545514" y="122.275459" style="stroke: #000000"/>
     <use xlink:href="#m215a2d50b7" x="57.545514" y="107.891027" style="stroke: #000000"/>
    </g>
   </g>
   <g id="line2d_4">
    <g clip-path="url(#p975e272802)">
     <use xlink:href="#m215a2d50b7" x="71.929946" y="251.735351" style="stroke: #000000"/>
     <use xlink:href="#m215a2d50b7" x="71.929946" y="237.350919" style="stroke: #000000"/>
     <use xlink:href="#m215a2d50b7" x="71.929946" y="222.966486" style="stroke: #000000"/>
     <use xlink:href="#m215a2d50b7" x="71.929946" y="208.582054" style="stroke: #000000"/>
     <use xlink:href="#m215a2d50b7" x="71.929946" y="194.197622" style="stroke: #000000"/>
     <use xlink:href="#m215a2d50b7" x="71.929946" y="179.813189" style="stroke: #000000"/>
     <use xlink:href="#m215a2d50b7" x="71.929946" y="165.428757" style="stroke: #000000"/>
     <use xlink:href="#m215a2d50b7" x="71.929946" y="151.044324" style="stroke: #000000"/>
     <use xlink:href="#m215a2d50b7" x="71.929946" y="136.659892" style="stroke: #000000"/>
     <use xlink:href="#m215a2d50b7" x="71.929946" y="122.275459" style="stroke: #000000"/>
     <use xlink:href="#m215a2d50b7" x="71.929946" y="107.891027" style="stroke: #000000"/>
    </g>
   </g>
   <g id="line2d_5">
    <g clip-path="url(#p975e272802)">
     <use xlink:href="#m215a2d50b7" x="86.314378" y="251.735351" style="stroke: #000000"/>
     <use xlink:href="#m215a2d50b7" x="86.314378" y="237.350919" style="stroke: #000000"/>
     <use xlink:href="#m215a2d50b7" x="86.314378" y="222.966486" style="stroke: #000000"/>
     <use xlink:href="#m215a2d50b7" x="86.314378" y="208.582054" style="stroke: #000000"/>
     <use xlink:href="#m215a2d50b7" x="86.314378" y="194.197622" style="stroke: #000000"/>
     <use xlink:href="#m215a2d50b7" x="86.314378" y="179.813189" style="stroke: #000000"/>
     <use xlink:href="#m215a2d50b7" x="86.314378" y="165.428757" style="stroke: #000000"/>
     <use xlink:href="#m215a2d50b7" x="86.314378" y="151.044324" style="stroke: #000000"/>
     <use xlink:href="#m215a2d50b7" x="86.314378" y="136.659892" style="stroke: #000000"/>
     <use xlink:href="#m215a2d50b7" x="86.314378" y="122.275459" style="stroke: #000000"/>
     <use xlink:href="#m215a2d50b7" x="86.314378" y="107.891027" style="stroke: #000000"/>
    </g>
   </g>
   <g id="line2d_6">
    <g clip-path="url(#p975e272802)">
     <use xlink:href="#m215a2d50b7" x="100.698811" y="251.735351" style="stroke: #000000"/>
     <use xlink:href="#m215a2d50b7" x="100.698811" y="237.350919" style="stroke: #000000"/>
     <use xlink:href="#m215a2d50b7" x="100.698811" y="222.966486" style="stroke: #000000"/>
     <use xlink:href="#m215a2d50b7" x="100.698811" y="208.582054" style="stroke: #000000"/>
     <use xlink:href="#m215a2d50b7" x="100.698811" y="194.197622" style="stroke: #000000"/>
     <use xlink:href="#m215a2d50b7" x="100.698811" y="179.813189" style="stroke: #000000"/>
     <use xlink:href="#m215a2d50b7" x="100.698811" y="165.428757" style="stroke: #000000"/>
     <use xlink:href="#m215a2d50b7" x="100.698811" y="151.044324" style="stroke: #000000"/>
     <use xlink:href="#m215a2d50b7" x="100.698811" y="136.659892" style="stroke: #000000"/>
     <use xlink:href="#m215a2d50b7" x="100.698811" y="122.275459" style="stroke: #000000"/>
     <use xlink:href="#m215a2d50b7" x="100.698811" y="107.891027" style="stroke: #000000"/>
    </g>
   </g>
   <g id="line2d_7">
    <g clip-path="url(#p975e272802)">
     <use xlink:href="#m215a2d50b7" x="115.083243" y="251.735351" style="stroke: #000000"/>
     <use xlink:href="#m215a2d50b7" x="115.083243" y="237.350919" style="stroke: #000000"/>
     <use xlink:href="#m215a2d50b7" x="115.083243" y="222.966486" style="stroke: #000000"/>
     <use xlink:href="#m215a2d50b7" x="115.083243" y="208.582054" style="stroke: #000000"/>
     <use xlink:href="#m215a2d50b7" x="115.083243" y="194.197622" style="stroke: #000000"/>
     <use xlink:href="#m215a2d50b7" x="115.083243" y="179.813189" style="stroke: #000000"/>
     <use xlink:href="#m215a2d50b7" x="115.083243" y="165.428757" style="stroke: #000000"/>
     <use xlink:href="#m215a2d50b7" x="115.083243" y="151.044324" style="stroke: #000000"/>
     <use xlink:href="#m215a2d50b7" x="115.083243" y="136.659892" style="stroke: #000000"/>
     <use xlink:href="#m215a2d50b7" x="115.083243" y="122.275459" style="stroke: #000000"/>
     <use xlink:href="#m215a2d50b7" x="115.083243" y="107.891027" style="stroke: #000000"/>
    </g>
   </g>
   <g id="line2d_8">
    <g clip-path="url(#p975e272802)">
     <use xlink:href="#m215a2d50b7" x="129.467676" y="251.735351" style="stroke: #000000"/>
     <use xlink:href="#m215a2d50b7" x="129.467676" y="237.350919" style="stroke: #000000"/>
     <use xlink:href="#m215a2d50b7" x="129.467676" y="222.966486" style="stroke: #000000"/>
     <use xlink:href="#m215a2d50b7" x="129.467676" y="208.582054" style="stroke: #000000"/>
     <use xlink:href="#m215a2d50b7" x="129.467676" y="194.197622" style="stroke: #000000"/>
     <use xlink:href="#m215a2d50b7" x="129.467676" y="179.813189" style="stroke: #000000"/>
     <use xlink:href="#m215a2d50b7" x="129.467676" y="165.428757" style="stroke: #000000"/>
     <use xlink:href="#m215a2d50b7" x="129.467676" y="151.044324" style="stroke: #000000"/>
     <use xlink:href="#m215a2d50b7" x="129.467676" y="136.659892" style="stroke: #000000"/>
     <use xlink:href="#m215a2d50b7" x="129.467676" y="122.275459" style="stroke: #000000"/>
     <use xlink:href="#m215a2d50b7" x="129.467676" y="107.891027" style="stroke: #000000"/>
    </g>
   </g>
   <g id="line2d_9">
    <g clip-path="url(#p975e272802)">
     <use xlink:href="#m215a2d50b7" x="143.852108" y="251.735351" style="stroke: #000000"/>
     <use xlink:href="#m215a2d50b7" x="143.852108" y="237.350919" style="stroke: #000000"/>
     <use xlink:href="#m215a2d50b7" x="143.852108" y="222.966486" style="stroke: #000000"/>
     <use xlink:href="#m215a2d50b7" x="143.852108" y="208.582054" style="stroke: #000000"/>
     <use xlink:href="#m215a2d50b7" x="143.852108" y="194.197622" style="stroke: #000000"/>
     <use xlink:href="#m215a2d50b7" x="143.852108" y="179.813189" style="stroke: #000000"/>
     <use xlink:href="#m215a2d50b7" x="143.852108" y="165.428757" style="stroke: #000000"/>
     <use xlink:href="#m215a2d50b7" x="143.852108" y="151.044324" style="stroke: #000000"/>
     <use xlink:href="#m215a2d50b7" x="143.852108" y="136.659892" style="stroke: #000000"/>
     <use xlink:href="#m215a2d50b7" x="143.852108" y="122.275459" style="stroke: #000000"/>
     <use xlink:href="#m215a2d50b7" x="143.852108" y="107.891027" style="stroke: #000000"/>
    </g>
   </g>
   <g id="line2d_10">
    <g clip-path="url(#p975e272802)">
     <use xlink:href="#m215a2d50b7" x="158.236541" y="251.735351" style="stroke: #000000"/>
     <use xlink:href="#m215a2d50b7" x="158.236541" y="237.350919" style="stroke: #000000"/>
     <use xlink:href="#m215a2d50b7" x="158.236541" y="222.966486" style="stroke: #000000"/>
     <use xlink:href="#m215a2d50b7" x="158.236541" y="208.582054" style="stroke: #000000"/>
     <use xlink:href="#m215a2d50b7" x="158.236541" y="194.197622" style="stroke: #000000"/>
     <use xlink:href="#m215a2d50b7" x="158.236541" y="179.813189" style="stroke: #000000"/>
     <use xlink:href="#m215a2d50b7" x="158.236541" y="165.428757" style="stroke: #000000"/>
     <use xlink:href="#m215a2d50b7" x="158.236541" y="151.044324" style="stroke: #000000"/>
     <use xlink:href="#m215a2d50b7" x="158.236541" y="136.659892" style="stroke: #000000"/>
     <use xlink:href="#m215a2d50b7" x="158.236541" y="122.275459" style="stroke: #000000"/>
     <use xlink:href="#m215a2d50b7" x="158.236541" y="107.891027" style="stroke: #000000"/>
    </g>
   </g>
   <g id="line2d_11">
    <g clip-path="url(#p975e272802)">
     <use xlink:href="#m215a2d50b7" x="172.620973" y="251.735351" style="stroke: #000000"/>
     <use xlink:href="#m215a2d50b7" x="172.620973" y="237.350919" style="stroke: #000000"/>
     <use xlink:href="#m215a2d50b7" x="172.620973" y="222.966486" style="stroke: #000000"/>
     <use xlink:href="#m215a2d50b7" x="172.620973" y="208.582054" style="stroke: #000000"/>
     <use xlink:href="#m215a2d50b7" x="172.620973" y="194.197622" style="stroke: #000000"/>
     <use xlink:href="#m215a2d50b7" x="172.620973" y="179.813189" style="stroke: #000000"/>
     <use xlink:href="#m215a2d50b7" x="172.620973" y="165.428757" style="stroke: #000000"/>
     <use xlink:href="#m215a2d50b7" x="172.620973" y="151.044324" style="stroke: #000000"/>
     <use xlink:href="#m215a2d50b7" x="172.620973" y="136.659892" style="stroke: #000000"/>
     <use xlink:href="#m215a2d50b7" x="172.620973" y="122.275459" style="stroke: #000000"/>
     <use xlink:href="#m215a2d50b7" x="172.620973" y="107.891027" style="stroke: #000000"/>
    </g>
   </g>
   <g id="text_1">
    <!-- y -->
    <g transform="translate(187.005405 172.620973) scale(0.1 -0.1)">
     <defs>
      <path id="DejaVuSans-79" d="M 2059 -325 
Q 1816 -950 1584 -1140 
Q 1353 -1331 966 -1331 
L 506 -1331 
L 506 -850 
L 844 -850 
Q 1081 -850 1212 -737 
Q 1344 -625 1503 -206 
L 1606 56 
L 191 3500 
L 800 3500 
L 1894 763 
L 2988 3500 
L 3597 3500 
L 2059 -325 
z
" transform="scale(0.015625)"/>
     </defs>
     <use xlink:href="#DejaVuSans-79"/>
    </g>
   </g>
   <g id="text_2">
    <!-- z -->
    <g transform="translate(107.891027 21.584432) scale(0.1 -0.1)">
     <defs>
      <path id="DejaVuSans-7a" d="M 353 3500 
L 3084 3500 
L 3084 2975 
L 922 459 
L 3084 459 
L 3084 0 
L 275 0 
L 275 525 
L 2438 3041 
L 353 3041 
L 353 3500 
z
" transform="scale(0.015625)"/>
     </defs>
     <use xlink:href="#DejaVuSans-7a"/>
    </g>
   </g>
   <g id="text_3">
    <!-- v -->
    <g style="fill: #808080" transform="translate(7.2 143.852108) scale(0.1 -0.1)">
     <defs>
      <path id="DejaVuSans-76" d="M 191 3500 
L 800 3500 
L 1894 563 
L 2988 3500 
L 3597 3500 
L 2284 0 
L 1503 0 
L 191 3500 
z
" transform="scale(0.015625)"/>
     </defs>
     <use xlink:href="#DejaVuSans-76"/>
    </g>
   </g>
  </g>
 </g>
 <defs>
  <clipPath id="p975e272802">
   <rect x="7.2" y="7.2" width="186.997622" height="266.112"/>
  </clipPath>
 </defs>
</svg>
