<svg xmlns="http://www.w3.org/2000/svg" xmlns:xlink="http://www.w3.org/1999/xlink" width="270.497" height="374.016" viewBox="0 0 202.873 280.512"><defs><style>*{stroke-linejoin:round;stroke-linecap:butt}</style></defs><g id="figure_1"><path id="patch_1" d="M0 280.512h202.873V0H0z" style="fill:none"/><g id="axes_1"><path id="patch_2" d="m194.198 179.813-7.193 4.675 1.679-4.671H7.2v-.007h181.484l-1.679-4.672z" clip-path="url(#pc4314e4456)" style="fill:gray;stroke:gray;stroke-linejoin:miter"/><path id="patch_3" d="m100.699 7.2 4.675 7.192-4.672-1.678v260.598h-.007V12.714l-4.671 1.678z" clip-path="url(#pc4314e4456)" style="fill:gray;stroke:gray;stroke-linejoin:miter"/><g id="Quiver_1"><path d="M29.244 129.762v5.873l1.87-.468-2.337 4.675-2.338-4.675 1.87.468v-5.873zM43.629 149.6v5.873l1.87-.468-2.338 4.675-2.337-4.675 1.87.468V149.6zM58.013 166.594v5.872l1.87-.467-2.337 4.675-2.338-4.675 1.87.467v-5.872zM72.397 179.834v5.872l1.87-.467-2.337 4.675-2.338-4.675 1.87.467v-5.872zM86.782 188.332v5.873l1.87-.468-2.338 4.675-2.337-4.675 1.87.468v-5.873zM101.166 191.273v5.873l1.87-.468-2.337 4.675-2.338-4.675 1.87.468v-5.873zM115.55 188.332v5.873l1.87-.468-2.337 4.675-2.337-4.675 1.87.468v-5.873zM129.935 179.834v5.872l1.87-.467-2.337 4.675-2.338-4.675 1.87.467v-5.872zM144.32 166.594v5.872l1.87-.467-2.338 4.675-2.337-4.675 1.87.467v-5.872zM158.704 149.6v5.873l1.87-.468-2.337 4.675-2.338-4.675 1.87.468V149.6zM173.088 129.762v5.873l1.87-.468-2.337 4.675-2.337-4.675 1.87.468v-5.873zM29.244 116.6v5.873l1.87-.468-2.337 4.675-2.338-4.675 1.87.468V116.6zM43.629 138.764v5.873l1.87-.467-2.338 4.674-2.337-4.674 1.87.467v-5.873z" clip-path="url(#pc4314e4456)"/><path d="M58.013 158.273v5.873l1.87-.468-2.337 4.675-2.338-4.675 1.87.468v-5.873zM72.397 173.95v5.873l1.87-.467-2.337 4.675-2.338-4.675 1.87.467v-5.872zM86.782 184.317v5.873l1.87-.468-2.338 4.675-2.337-4.675 1.87.468v-5.873zM101.166 187.973v5.873l1.87-.468-2.337 4.675-2.338-4.675 1.87.468v-5.873zM115.55 184.317v5.873l1.87-.468-2.337 4.675-2.337-4.675 1.87.468v-5.873zM129.935 173.95v5.873l1.87-.467-2.337 4.675-2.338-4.675 1.87.467v-5.872zM144.32 158.273v5.873l1.87-.468-2.338 4.675-2.337-4.675 1.87.468v-5.873zM158.704 138.764v5.873l1.87-.467-2.337 4.674-2.338-4.674 1.87.467v-5.873zM173.088 116.6v5.873l1.87-.468-2.337 4.675-2.337-4.675 1.87.468V116.6zM29.244 100.594v5.872l1.87-.467-2.337 4.675-2.338-4.675 1.87.467v-5.872zM43.629 125.273v5.873l1.87-.468-2.338 4.675-2.337-4.675 1.87.468v-5.873zM58.013 147.767v5.872l1.87-.467-2.337 4.675-2.338-4.675 1.87.467v-5.872z" clip-path="url(#pc4314e4456)"/><path d="M72.397 166.688v5.873l1.87-.468-2.337 4.675-2.338-4.675 1.87.468v-5.873zM86.782 179.854v5.872l1.87-.467-2.338 4.675-2.337-4.675 1.87.467v-5.872zM101.166 184.673v5.873l1.87-.468-2.337 4.675-2.338-4.675 1.87.468v-5.873zM115.55 179.854v5.872l1.87-.467-2.337 4.675-2.337-4.675 1.87.467v-5.872zM129.935 166.688v5.873l1.87-.468-2.337 4.675-2.338-4.675 1.87.468v-5.873zM144.32 147.767v5.872l1.87-.467-2.338 4.675-2.337-4.675 1.87.467v-5.872zM158.704 125.273v5.873l1.87-.468-2.337 4.675-2.338-4.675 1.87.468v-5.873zM173.088 100.594v5.872l1.87-.467-2.337 4.675-2.337-4.675 1.87.467v-5.872zM29.244 80.833v5.873l1.87-.468-2.337 4.675-2.338-4.675 1.87.468v-5.873zM43.629 107.95v5.873l1.87-.467-2.338 4.674-2.337-4.674 1.87.467v-5.873zM58.013 133.688v5.873l1.87-.468-2.337 4.675-2.338-4.675 1.87.468v-5.873z" clip-path="url(#pc4314e4456)"/><path d="M72.397 156.769v5.872l1.87-.467-2.337 4.675-2.338-4.675 1.87.467v-5.872zM86.782 174.362v5.873l1.87-.468-2.338 4.675-2.337-4.675 1.87.468v-5.873zM101.166 181.373v5.873l1.87-.468-2.337 4.675-2.338-4.675 1.87.468v-5.873zM115.55 174.362v5.873l1.87-.468-2.337 4.675-2.337-4.675 1.87.468v-5.873zM129.935 156.769v5.872l1.87-.467-2.337 4.675-2.338-4.675 1.87.467v-5.872zM144.32 133.688v5.873l1.87-.468-2.338 4.675-2.337-4.675 1.87.468v-5.873zM158.704 107.95v5.873l1.87-.467-2.337 4.674-2.338-4.674 1.87.467v-5.873zM173.088 80.833v5.873l1.87-.468-2.337 4.675-2.337-4.675 1.87.468v-5.873zM29.244 56.332v5.872l1.87-.467-2.337 4.675-2.338-4.675 1.87.467v-5.872zM43.629 85.317v5.872l1.87-.467-2.338 4.675-2.337-4.675 1.87.467v-5.872zM58.013 113.853v5.873l1.87-.468-2.337 4.675-2.338-4.675 1.87.468v-5.873zM72.397 141.362v5.872l1.87-.467-2.337 4.675-2.338-4.675 1.87.467v-5.872z" clip-path="url(#pc4314e4456)"/><path d="M86.782 165.771v5.873l1.87-.468-2.338 4.675-2.337-4.675 1.87.468v-5.873zM101.166 178.073v5.873l1.87-.468-2.337 4.675-2.338-4.675 1.87.468v-5.873zM115.55 165.771v5.873l1.87-.468-2.337 4.675-2.337-4.675 1.87.468v-5.873zM129.935 141.362v5.872l1.87-.467-2.337 4.675-2.338-4.675 1.87.467v-5.872zM144.32 113.853v5.873l1.87-.468-2.338 4.675-2.337-4.675 1.87.468v-5.873zM158.704 85.317v5.872l1.87-.467-2.337 4.675-2.338-4.675 1.87.467v-5.872zM173.088 56.332v5.872l1.87-.467-2.337 4.675-2.337-4.675 1.87.467v-5.872zM29.244 26.273v5.872l1.87-.467-2.337 4.675-2.338-4.675 1.87.467v-5.872zM43.629 55.973v5.872l1.87-.467-2.338 4.675-2.337-4.675 1.87.467v-5.872zM58.013 85.673v5.872l1.87-.467-2.337 4.675-2.338-4.675 1.87.467v-5.872zM72.397 115.373v5.872l1.87-.467-2.337 4.675-2.338-4.675 1.87.467v-5.872zM86.782 145.073v5.873l1.87-.468-2.338 4.675-2.337-4.675 1.87.468v-5.873z" clip-path="url(#pc4314e4456)"/><path d="M101.166 174.773v5.873l1.87-.468-2.337 4.675-2.338-4.675 1.87.468v-5.873zM115.55 145.073v5.873l1.87-.468-2.337 4.675-2.337-4.675 1.87.468v-5.873zM129.935 115.373v5.872l1.87-.467-2.337 4.675-2.338-4.675 1.87.467v-5.872zM144.32 85.673v5.872l1.87-.467-2.338 4.675-2.337-4.675 1.87.467v-5.872zM158.704 55.973v5.872l1.87-.467-2.337 4.675-2.338-4.675 1.87.467v-5.872zM173.088 26.273v5.872l1.87-.467-2.337 4.675-2.337-4.675 1.87.467v-5.872zM29.244-9.669v5.873l1.87-.467L28.777.41l-2.338-4.674 1.87.467v-5.873zM43.629 19.316v5.873l1.87-.468-2.338 4.675-2.337-4.675 1.87.468v-5.873zM58.013 47.853v5.873l1.87-.468-2.337 4.675-2.338-4.675 1.87.468v-5.873zM72.397 75.362v5.872l1.87-.467-2.337 4.675-2.338-4.675 1.87.467v-5.872zM86.782 99.77v5.873l1.87-.467-2.338 4.675-2.337-4.675 1.87.467v-5.872zM101.166 112.073v5.872l1.87-.467-2.337 4.675-2.338-4.675 1.87.467v-5.872zM115.55 99.77v5.873l1.87-.467-2.337 4.675-2.337-4.675 1.87.467v-5.872zM129.935 75.362v5.872l1.87-.467-2.337 4.675-2.338-4.675 1.87.467v-5.872zM144.32 47.853v5.873l1.87-.468-2.338 4.675-2.337-4.675 1.87.468v-5.873zM158.704 19.316v5.873l1.87-.468-2.337 4.675-2.338-4.675 1.87.468v-5.873zM173.088-9.669v5.873l1.87-.467L172.621.41l-2.337-4.674 1.87.467v-5.873zM29.244-51.167v5.872l1.87-.467-2.337 4.675-2.338-4.675 1.87.467v-5.872zM43.629-24.05v5.872l1.87-.467-2.338 4.675-2.337-4.675 1.87.467v-5.872zM58.013 1.688V7.56l1.87-.467-2.337 4.675-2.338-4.675 1.87.467V1.688zM72.397 24.768v5.873l1.87-.468-2.337 4.675-2.338-4.675 1.87.468v-5.873zM86.782 42.361v5.873l1.87-.468-2.338 4.675-2.337-4.675 1.87.468V42.36zM101.166 49.373v5.872l1.87-.467-2.337 4.675-2.338-4.675 1.87.467v-5.872zM115.55 42.361v5.873l1.87-.468-2.337 4.675-2.337-4.675 1.87.468V42.36zM129.935 24.768v5.873l1.87-.468-2.337 4.675-2.338-4.675 1.87.468v-5.873zM144.32 1.688V7.56l1.87-.467-2.338 4.675-2.337-4.675 1.87.467V1.688zM158.704-24.05v5.872l1.87-.467-2.337 4.675-2.338-4.675 1.87.467v-5.872zM173.088-51.167v5.872l1.87-.467-2.337 4.675-2.337-4.675 1.87.467v-5.872zM29.244-97.407v5.872l1.87-.467-2.337 4.675-2.338-4.675 1.87.467v-5.872zM43.629-72.728v5.873l1.87-.468-2.338 4.675-2.337-4.675 1.87.468v-5.873zM58.013-50.234v5.872l1.87-.467-2.337 4.675-2.338-4.675 1.87.467v-5.872zM72.397-31.313v5.873l1.87-.468-2.337 4.675-2.338-4.675 1.87.468v-5.873zM86.782-18.147v5.872l1.87-.467-2.338 4.675-2.337-4.675 1.87.467v-5.872zM101.166-13.328v5.873l1.87-.468-2.337 4.675-2.338-4.675 1.87.468v-5.873zM115.55-18.147v5.872l1.87-.467-2.337 4.675-2.337-4.675 1.87.467v-5.872zM129.935-31.313v5.873l1.87-.468-2.337 4.675-2.338-4.675 1.87.468v-5.873zM144.32-50.234v5.872l1.87-.467-2.338 4.675-2.337-4.675 1.87.467v-5.872zM158.704-72.728v5.873l1.87-.468-2.337 4.675-2.338-4.675 1.87.468v-5.873zM173.088-97.407v5.872l1.87-.467-2.337 4.675-2.337-4.675 1.87.467v-5.872zM29.244-147.401v5.872l1.87-.467-2.337 4.675-2.338-4.675 1.87.467v-5.872zM43.629-125.237v5.873l1.87-.468-2.338 4.675-2.337-4.675 1.87.468v-5.873zM58.013-105.728v5.872l1.87-.467-2.337 4.675-2.338-4.675 1.87.467v-5.872zM72.397-90.05v5.872l1.87-.467-2.337 4.675-2.338-4.675 1.87.467v-5.872zM86.782-79.684v5.872l1.87-.467-2.338 4.675-2.337-4.675 1.87.467v-5.872zM101.166-76.028v5.873l1.87-.468-2.337 4.675-2.338-4.675 1.87.468v-5.873zM115.55-79.684v5.872l1.87-.467-2.337 4.675-2.337-4.675 1.87.467v-5.872zM129.935-90.05v5.872l1.87-.467-2.337 4.675-2.338-4.675 1.87.467v-5.872zM144.32-105.728v5.872l1.87-.467-2.338 4.675-2.337-4.675 1.87.467v-5.872zM158.704-125.237v5.873l1.87-.468-2.337 4.675-2.338-4.675 1.87.468v-5.873zM173.088-147.401v5.872l1.87-.467-2.337 4.675-2.337-4.675 1.87.467v-5.872zM29.244-200.24v5.873l1.87-.467-2.337 4.675-2.338-4.675 1.87.467v-5.872zM43.629-180.401v5.872l1.87-.467-2.338 4.675-2.337-4.675 1.87.467v-5.872zM58.013-163.408v5.873l1.87-.468-2.337 4.675-2.338-4.675 1.87.468v-5.873zM72.397-150.168v5.873l1.87-.468-2.337 4.675-2.338-4.675 1.87.468v-5.873zM86.782-141.67v5.873l1.87-.467-2.338 4.675-2.337-4.675 1.87.467v-5.872zM101.166-138.728v5.872l1.87-.467-2.337 4.675-2.338-4.675 1.87.467v-5.872zM115.55-141.67v5.873l1.87-.467-2.337 4.675-2.337-4.675 1.87.467v-5.872zM129.935-150.168v5.873l1.87-.468-2.337 4.675-2.338-4.675 1.87.468v-5.873zM144.32-163.408v5.873l1.87-.468-2.338 4.675-2.337-4.675 1.87.468v-5.873zM158.704-180.401v5.872l1.87-.467-2.337 4.675-2.338-4.675 1.87.467v-5.872zM173.088-200.24v5.873l1.87-.467-2.337 4.675-2.337-4.675 1.87.467v-5.872z" clip-path="url(#pc4314e4456)"/></g><g id="text_1" style="fill:gray" transform="matrix(.1 0 0 -.1 187.005 172.621)"><defs><path id="DejaVuSans-79" d="M2059-325q-243-625-475-815-231-191-618-191H506v481h338q237 0 368 113 132 112 291 531l103 262L191 3500h609L1894 763l1094 2737h609z" transform="scale(.01563)"/><path id="DejaVuSans-27" d="M1147 4666V2931H616v1735z" transform="scale(.01563)"/></defs><use xlink:href="#DejaVuSans-79"/><use xlink:href="#DejaVuSans-27" x="59.18"/></g><g id="text_2" style="fill:gray" transform="matrix(.1 0 0 -.1 107.891 21.584)"><defs><path id="DejaVuSans-7a" d="M353 3500h2731v-525L922 459h2162V0H275v525l2163 2516H353z" transform="scale(.01563)"/></defs><use xlink:href="#DejaVuSans-7a"/><use xlink:href="#DejaVuSans-27" x="52.49"/></g></g></g><defs><clipPath id="pc4314e4456"><path d="M7.2 7.2h186.998v266.112H7.2z"/></clipPath></defs></svg>