<svg xmlns="http://www.w3.org/2000/svg" xmlns:xlink="http://www.w3.org/1999/xlink" width="274.443" height="374.016" viewBox="0 0 205.832 280.512"><defs><style>*{stroke-linejoin:round;stroke-linecap:butt}</style></defs><g id="figure_1"><path id="patch_1" d="M0 280.512h205.832V0H0z" style="fill:none"/><g id="axes_1"><path id="patch_2" d="m151.344 140.256-5.544 3.604 1.294-3.601H7.2v-.006h139.894l-1.294-3.6z" clip-path="url(#p3188f65587)" style="fill:gray;stroke:gray;stroke-linejoin:miter"/><path id="patch_3" d="m79.272 7.2 3.604 5.544-3.601-1.294v261.862h-.006V11.45l-3.6 1.294z" clip-path="url(#p3188f65587)" style="fill:gray;stroke:gray;stroke-linejoin:miter"/><g id="Quiver_1"><path d="M24.192 100.52v6.837l1.442-.36-1.802 3.603-1.802-3.604 1.442.36v-6.836zM35.28 115.812v6.837l1.442-.36-1.802 3.603-1.802-3.604 1.442.36v-6.836zM46.368 128.911v6.837l1.442-.36-1.802 3.603-1.802-3.603 1.442.36v-6.837zM57.456 139.117v6.837l1.442-.36-1.802 3.603-1.802-3.604 1.442.36v-6.836zM68.544 145.668v6.837l1.442-.36-1.802 3.603-1.802-3.604 1.442.36v-6.836zM79.632 147.935v6.837l1.442-.36-1.802 3.603-1.802-3.604 1.442.36v-6.836zM90.72 145.668v6.837l1.442-.36-1.802 3.603-1.802-3.604 1.442.36v-6.836zM101.808 139.117v6.837l1.442-.36-1.802 3.603-1.802-3.604 1.442.36v-6.836zM112.896 128.911v6.837l1.442-.36-1.802 3.603-1.802-3.603 1.442.36v-6.837zM123.984 115.812v6.837l1.442-.36-1.802 3.603-1.802-3.604 1.442.36v-6.836zM135.072 100.52v6.837l1.442-.36-1.802 3.603-1.802-3.604 1.442.36v-6.836zM24.192 90.374v6.837l1.442-.36-1.802 3.603-1.802-3.603 1.442.36v-6.837z" clip-path="url(#p3188f65587)"/><path d="M35.28 107.46v6.836l1.442-.36-1.802 3.603-1.802-3.603 1.442.36v-6.837zM46.368 122.497v6.837l1.442-.36-1.802 3.603-1.802-3.603 1.442.36v-6.837zM57.456 134.582v6.837l1.442-.36-1.802 3.603-1.802-3.604 1.442.36v-6.836zM68.544 142.573v6.836l1.442-.36-1.802 3.604-1.802-3.604 1.442.36v-6.836zM79.632 145.391v6.837l1.442-.36-1.802 3.603-1.802-3.604 1.442.36v-6.836zM90.72 142.573v6.836l1.442-.36-1.802 3.604-1.802-3.604 1.442.36v-6.836zM101.808 134.582v6.837l1.442-.36-1.802 3.603-1.802-3.604 1.442.36v-6.836zM112.896 122.497v6.837l1.442-.36-1.802 3.603-1.802-3.603 1.442.36v-6.837zM123.984 107.46v6.836l1.442-.36-1.802 3.603-1.802-3.603 1.442.36v-6.837zM135.072 90.374v6.837l1.442-.36-1.802 3.603-1.802-3.603 1.442.36v-6.837zM24.192 78.036v6.837l1.442-.36-1.802 3.603-1.802-3.604 1.442.36v-6.836zM35.28 97.06v6.836l1.442-.36-1.802 3.604-1.802-3.604 1.442.36V97.06z" clip-path="url(#p3188f65587)"/><path d="M46.368 114.398v6.837l1.442-.36-1.802 3.603-1.802-3.603 1.442.36v-6.837zM57.456 128.984v6.837l1.442-.36-1.802 3.603-1.802-3.604 1.442.36v-6.836zM68.544 139.132v6.837l1.442-.36-1.802 3.603-1.802-3.603 1.442.36v-6.837zM79.632 142.847v6.837l1.442-.36-1.802 3.603-1.802-3.603 1.442.36v-6.837zM90.72 139.132v6.837l1.442-.36-1.802 3.603-1.802-3.603 1.442.36v-6.837zM101.808 128.984v6.837l1.442-.36-1.802 3.603-1.802-3.604 1.442.36v-6.836zM112.896 114.398v6.837l1.442-.36-1.802 3.603-1.802-3.603 1.442.36v-6.837zM123.984 97.06v6.836l1.442-.36-1.802 3.604-1.802-3.604 1.442.36V97.06zM135.072 78.036v6.837l1.442-.36-1.802 3.603-1.802-3.604 1.442.36v-6.836zM24.192 62.804v6.837l1.442-.36-1.802 3.603-1.802-3.604 1.442.36v-6.836zM35.28 83.707v6.837l1.442-.36-1.802 3.603-1.802-3.604 1.442.36v-6.836zM46.368 103.546v6.837l1.442-.36-1.802 3.603-1.802-3.603 1.442.36v-6.837z" clip-path="url(#p3188f65587)"/><path d="M57.456 121.338v6.836l1.442-.36-1.802 3.604-1.802-3.604 1.442.36v-6.836zM68.544 134.899v6.837l1.442-.36-1.802 3.603-1.802-3.604 1.442.36V134.9zM79.632 140.304v6.836l1.442-.36-1.802 3.604-1.802-3.604 1.442.36v-6.836zM90.72 134.899v6.837l1.442-.36-1.802 3.603-1.802-3.604 1.442.36V134.9zM101.808 121.338v6.836l1.442-.36-1.802 3.604-1.802-3.604 1.442.36v-6.836zM112.896 103.546v6.837l1.442-.36-1.802 3.603-1.802-3.603 1.442.36v-6.837zM123.984 83.707v6.837l1.442-.36-1.802 3.603-1.802-3.604 1.442.36v-6.836zM135.072 62.804v6.837l1.442-.36-1.802 3.603-1.802-3.604 1.442.36v-6.836zM24.192 43.917v6.837l1.442-.36-1.802 3.603-1.802-3.603 1.442.36v-6.837zM35.28 66.26v6.837l1.442-.36-1.802 3.603-1.802-3.604 1.442.36V66.26zM46.368 88.257v6.837l1.442-.36-1.802 3.603-1.802-3.604 1.442.36v-6.836zM57.456 109.461v6.837l1.442-.36-1.802 3.603-1.802-3.603 1.442.36v-6.837z" clip-path="url(#p3188f65587)"/><path d="M68.544 128.277v6.837l1.442-.36-1.802 3.603-1.802-3.604 1.442.36v-6.836zM79.632 137.76v6.837l1.442-.36-1.802 3.603-1.802-3.604 1.442.36v-6.836zM90.72 128.277v6.837l1.442-.36-1.802 3.603-1.802-3.604 1.442.36v-6.836zM101.808 109.461v6.837l1.442-.36-1.802 3.603-1.802-3.603 1.442.36v-6.837zM112.896 88.257v6.837l1.442-.36-1.802 3.603-1.802-3.604 1.442.36v-6.836zM123.984 66.26v6.837l1.442-.36-1.802 3.603-1.802-3.604 1.442.36V66.26zM135.072 43.917v6.837l1.442-.36-1.802 3.603-1.802-3.603 1.442.36v-6.837zM24.192 20.747v6.836l1.442-.36-1.802 3.604-1.802-3.604 1.442.36v-6.836zM35.28 43.64v6.837l1.442-.36-1.802 3.604-1.802-3.604 1.442.36v-6.836zM46.368 66.534v6.837l1.442-.36-1.802 3.603-1.802-3.603 1.442.36v-6.837zM57.456 89.428v6.837l1.442-.36-1.802 3.603-1.802-3.603 1.442.36v-6.837zM68.544 112.322v6.837l1.442-.36-1.802 3.603-1.802-3.603 1.442.36v-6.837z" clip-path="url(#p3188f65587)"/><path d="M79.632 135.216v6.837l1.442-.36-1.802 3.603-1.802-3.604 1.442.36v-6.836zM90.72 112.322v6.837l1.442-.36-1.802 3.603-1.802-3.603 1.442.36v-6.837zM101.808 89.428v6.837l1.442-.36-1.802 3.603-1.802-3.603 1.442.36v-6.837zM112.896 66.534v6.837l1.442-.36-1.802 3.603-1.802-3.603 1.442.36v-6.837zM123.984 43.64v6.837l1.442-.36-1.802 3.604-1.802-3.604 1.442.36v-6.836zM135.072 20.747v6.836l1.442-.36-1.802 3.604-1.802-3.604 1.442.36v-6.836zM24.192-6.958V-.12l1.442-.36-1.802 3.603L22.03-.48l1.442.36v-6.837zM35.28 15.385v6.836l1.442-.36-1.802 3.604-1.802-3.604 1.442.36v-6.836zM46.368 37.382v6.836l1.442-.36-1.802 3.604-1.802-3.604 1.442.36v-6.836zM57.456 58.586v6.837l1.442-.36-1.802 3.603-1.802-3.603 1.442.36v-6.837zM68.544 77.402v6.836l1.442-.36-1.802 3.604-1.802-3.604 1.442.36v-6.836zM79.632 86.885v6.836l1.442-.36-1.802 3.604-1.802-3.604 1.442.36v-6.836zM90.72 77.402v6.836l1.442-.36-1.802 3.604-1.802-3.604 1.442.36v-6.836zM101.808 58.586v6.837l1.442-.36-1.802 3.603-1.802-3.603 1.442.36v-6.837zM112.896 37.382v6.836l1.442-.36-1.802 3.604-1.802-3.604 1.442.36v-6.836zM123.984 15.385v6.836l1.442-.36-1.802 3.604-1.802-3.604 1.442.36v-6.836zM135.072-6.958V-.12l1.442-.36-1.802 3.603L132.91-.48l1.442.36v-6.837zM24.192-38.946v6.836l1.442-.36-1.802 3.604-1.802-3.604 1.442.36v-6.836zM35.28-18.044v6.837l1.442-.36-1.802 3.603-1.802-3.603 1.442.36v-6.837zM46.368 1.796v6.837l1.442-.36-1.802 3.603-1.802-3.604 1.442.36V1.797zM57.456 19.587v6.837l1.442-.36-1.802 3.603-1.802-3.603 1.442.36v-6.837zM68.544 33.149v6.836l1.442-.36-1.802 3.604-1.802-3.604 1.442.36V33.15zM79.632 38.553v6.837l1.442-.36-1.802 3.603-1.802-3.604 1.442.36v-6.836zM90.72 33.149v6.836l1.442-.36-1.802 3.604-1.802-3.604 1.442.36V33.15zM101.808 19.587v6.837l1.442-.36-1.802 3.603-1.802-3.603 1.442.36v-6.837zM112.896 1.796v6.837l1.442-.36-1.802 3.603-1.802-3.604 1.442.36V1.797zM123.984-18.044v6.837l1.442-.36-1.802 3.603-1.802-3.603 1.442.36v-6.837zM135.072-38.946v6.836l1.442-.36-1.802 3.604-1.802-3.604 1.442.36v-6.836zM24.192-74.59v6.837l1.442-.36-1.802 3.603-1.802-3.603 1.442.36v-6.837zM35.28-55.566v6.837l1.442-.36-1.802 3.603-1.802-3.604 1.442.36v-6.836zM46.368-38.227v6.837l1.442-.36-1.802 3.603-1.802-3.604 1.442.36v-6.836zM57.456-23.642v6.837l1.442-.36-1.802 3.603-1.802-3.603 1.442.36v-6.837zM68.544-13.494v6.837l1.442-.36-1.802 3.603-1.802-3.603 1.442.36v-6.837zM79.632-9.778v6.836l1.442-.36L79.272.302 77.47-3.302l1.442.36v-6.836zM90.72-13.494v6.837l1.442-.36-1.802 3.603-1.802-3.603 1.442.36v-6.837zM101.808-23.642v6.837l1.442-.36-1.802 3.603-1.802-3.603 1.442.36v-6.837zM112.896-38.227v6.837l1.442-.36-1.802 3.603-1.802-3.604 1.442.36v-6.836zM123.984-55.566v6.837l1.442-.36-1.802 3.603-1.802-3.604 1.442.36v-6.836zM135.072-74.59v6.837l1.442-.36-1.802 3.603-1.802-3.603 1.442.36v-6.837zM24.192-113.127v6.837l1.442-.36-1.802 3.603-1.802-3.603 1.442.36v-6.837zM35.28-96.042v6.837l1.442-.36-1.802 3.603-1.802-3.603 1.442.36v-6.837zM46.368-81.004v6.837l1.442-.36-1.802 3.603-1.802-3.603 1.442.36v-6.837zM57.456-68.919v6.837l1.442-.36-1.802 3.603-1.802-3.603 1.442.36v-6.837zM68.544-60.928v6.837l1.442-.36-1.802 3.603-1.802-3.604 1.442.36v-6.836zM79.632-58.11v6.837l1.442-.36-1.802 3.603-1.802-3.603 1.442.36v-6.837zM90.72-60.928v6.837l1.442-.36-1.802 3.603-1.802-3.604 1.442.36v-6.836zM101.808-68.919v6.837l1.442-.36-1.802 3.603-1.802-3.603 1.442.36v-6.837zM112.896-81.004v6.837l1.442-.36-1.802 3.603-1.802-3.603 1.442.36v-6.837zM123.984-96.042v6.837l1.442-.36-1.802 3.603-1.802-3.603 1.442.36v-6.837zM135.072-113.127v6.837l1.442-.36-1.802 3.603-1.802-3.603 1.442.36v-6.837zM24.192-153.856v6.837l1.442-.36-1.802 3.603-1.802-3.604 1.442.36v-6.836zM35.28-138.564v6.836l1.442-.36-1.802 3.604-1.802-3.604 1.442.36v-6.836zM46.368-125.465v6.837l1.442-.36-1.802 3.603-1.802-3.604 1.442.36v-6.836zM57.456-115.26v6.837l1.442-.36-1.802 3.604-1.802-3.604 1.442.36v-6.836zM68.544-108.708v6.836l1.442-.36-1.802 3.604-1.802-3.604 1.442.36v-6.836zM79.632-106.441v6.836l1.442-.36-1.802 3.604-1.802-3.604 1.442.36v-6.836zM90.72-108.708v6.836l1.442-.36-1.802 3.604-1.802-3.604 1.442.36v-6.836zM101.808-115.26v6.837l1.442-.36-1.802 3.604-1.802-3.604 1.442.36v-6.836zM112.896-125.465v6.837l1.442-.36-1.802 3.603-1.802-3.604 1.442.36v-6.836zM123.984-138.564v6.836l1.442-.36-1.802 3.604-1.802-3.604 1.442.36v-6.836zM135.072-153.856v6.837l1.442-.36-1.802 3.603-1.802-3.604 1.442.36v-6.836z" clip-path="url(#p3188f65587)"/></g><g id="text_1" style="fill:gray" transform="matrix(.1 0 0 -.1 145.8 134.712)"><defs><path id="DejaVuSans-79" d="M2059-325q-243-625-475-815-231-191-618-191H506v481h338q237 0 368 113 132 112 291 531l103 262L191 3500h609L1894 763l1094 2737h609z" transform="scale(.01563)"/><path id="DejaVuSans-27" d="M1147 4666V2931H616v1735z" transform="scale(.01563)"/></defs><use xlink:href="#DejaVuSans-79"/><use xlink:href="#DejaVuSans-27" x="59.18"/></g><g id="text_2" style="fill:gray" transform="matrix(.1 0 0 -.1 84.816 18.288)"><defs><path id="DejaVuSans-7a" d="M353 3500h2731v-525L922 459h2162V0H275v525l2163 2516H353z" transform="scale(.01563)"/></defs><use xlink:href="#DejaVuSans-7a"/><use xlink:href="#DejaVuSans-27" x="52.49"/></g><g id="text_3" transform="matrix(.1 0 0 -.1 162.432 112.536)"><defs><path id="DejaVuSans-Oblique-74" d="m2706 3500-87-447H1472l-372-1900q-19-106-28-178t-9-112q0-200 120-291t386-91h581L2053 0h-550Q991 0 739 200 488 400 488 806q0 72 9 158t28 189l372 1900H409l91 447h478l194 994h575l-191-994z" transform="scale(.01563)"/><path id="Cmsy10-30" d="M225 347q-41 12-41 62l782 2907q37 118 127 190 91 72 207 72 150 0 264-99 114-98 114-248 0-65-34-147L488 319q-22-44-60-44-34 0-108 31-73 32-95 41" transform="scale(.01563)"/><path id="DejaVuSans-3d" d="M678 2906h4006v-525H678zm0-1275h4006v-531H678z" transform="scale(.01563)"/><path id="DejaVuSans-Oblique-72" d="M2853 2969q-87 47-200 72-112 25-240 25-460 0-804-349-343-348-456-933L800 0H225l684 3500h575l-109-544q228 303 545 465 318 163 677 163 94 0 184-11 91-10 182-35z" transform="scale(.01563)"/><path id="DejaVuSans-Oblique-65" d="M3078 2063q10 50 14 103 5 53 5 106 0 381-224 603-223 222-607 222-428 0-757-271-328-270-496-767zm500-450H903q-19-119-25-188t-6-119q0-434 267-672 267-237 755-237 375 0 709 84 335 85 622 247l-109-569Q2806 34 2476-28q-329-63-670-63-728 0-1120 348-392 349-392 990 0 547 195 1017t574 839q243 231 579 356t714 125q594 0 945-356 352-356 352-956 0-144-19-308-18-164-56-351" transform="scale(.01563)"/></defs><use xlink:href="#DejaVuSans-Oblique-74" transform="translate(0 .584)"/><use xlink:href="#Cmsy10-30" transform="matrix(.7 0 0 .7 45.85 38.866)"/><use xlink:href="#DejaVuSans-3d" transform="translate(87.31 .584)"/><use xlink:href="#DejaVuSans-Oblique-74" transform="translate(190.581 .584)"/><use xlink:href="#Cmsy10-30" transform="matrix(.7 0 0 .7 236.43 38.866)"/><use xlink:href="#DejaVuSans-Oblique-72" transform="matrix(.7 0 0 .7 259.365 -15.822)"/><use xlink:href="#DejaVuSans-Oblique-65" transform="matrix(.7 0 0 .7 288.144 -15.822)"/><use xlink:href="#DejaVuSans-Oblique-74" transform="matrix(.7 0 0 .7 331.21 -15.822)"/></g></g></g><defs><clipPath id="p3188f65587"><path d="M7.2 7.2h144.144v266.112H7.2z"/></clipPath></defs></svg>