<?xml version="1.0" encoding="utf-8" standalone="no"?>
<!DOCTYPE svg PUBLIC "-//W3C//DTD SVG 1.1//EN"
  "http://www.w3.org/Graphics/SVG/1.1/DTD/svg11.dtd">
<svg xmlns:xlink="http://www.w3.org/1999/xlink" width="202.872593pt" height="280.512pt" viewBox="0 0 202.872593 280.512" xmlns="http://www.w3.org/2000/svg" version="1.1">
 <metadata>
  <rdf:RDF xmlns:dc="http://purl.org/dc/elements/1.1/" xmlns:cc="http://creativecommons.org/ns#" xmlns:rdf="http://www.w3.org/1999/02/22-rdf-syntax-ns#">
   <cc:Work>
    <dc:type rdf:resource="http://purl.org/dc/dcmitype/StillImage"/>
    <dc:date>2025-02-20T01:00:15.250105</dc:date>
    <dc:format>image/svg+xml</dc:format>
    <dc:creator>
     <cc:Agent>
      <dc:title>Matplotlib v3.9.0, https://matplotlib.org/</dc:title>
     </cc:Agent>
    </dc:creator>
   </cc:Work>
  </rdf:RDF>
 </metadata>
 <defs>
  <style type="text/css">*{stroke-linejoin: round; stroke-linecap: butt}</style>
 </defs>
 <g id="figure_1">
  <g id="patch_1">
   <path d="M 0 280.512 
L 202.872593 280.512 
L 202.872593 0 
L 0 0 
L 0 280.512 
z
" style="fill: none"/>
  </g>
  <g id="axes_1">
   <g id="patch_2">
    <path d="M 194.197622 179.813189 
L 187.005405 184.48813 
L 188.683589 179.816785 
L 7.2 179.816785 
L 7.2 179.809593 
L 188.683589 179.809593 
L 187.005405 175.138249 
z
" clip-path="url(#p1758977b5c)" style="fill: #808080; stroke: #808080; stroke-linejoin: miter"/>
   </g>
   <g id="patch_3">
    <path d="M 100.698811 7.2 
L 105.373751 14.392216 
L 100.702407 12.714032 
L 100.702407 273.312 
L 100.695215 273.312 
L 100.695215 12.714032 
L 96.02387 14.392216 
z
" clip-path="url(#p1758977b5c)" style="fill: #808080; stroke: #808080; stroke-linejoin: miter"/>
   </g>
   <g id="Quiver_1">
    <path d="M 29.244143 -200.240728 
L 29.244143 -194.368175 
L 31.114119 -194.835669 
L 28.776649 -190.160728 
L 26.439178 -194.835669 
L 28.309155 -194.368175 
L 28.309155 -200.240728 
L 29.244143 -200.240728 
" clip-path="url(#p1758977b5c)"/>
    <path d="M 43.628575 -180.402713 
L 43.628575 -174.53016 
L 45.498551 -174.997654 
L 43.161081 -170.322713 
L 40.823611 -174.997654 
L 42.693587 -174.53016 
L 42.693587 -180.402713 
L 43.628575 -180.402713 
" clip-path="url(#p1758977b5c)"/>
    <path d="M 58.013008 -163.409117 
L 58.013008 -157.536563 
L 59.882984 -158.004057 
L 57.545514 -153.329117 
L 55.208043 -158.004057 
L 57.078019 -157.536563 
L 57.078019 -163.409117 
L 58.013008 -163.409117 
" clip-path="url(#p1758977b5c)"/>
    <path d="M 72.39744 -150.16918 
L 72.39744 -144.296626 
L 74.267416 -144.76412 
L 71.929946 -140.08918 
L 69.592476 -144.76412 
L 71.462452 -144.296626 
L 71.462452 -150.16918 
L 72.39744 -150.16918 
" clip-path="url(#p1758977b5c)"/>
    <path d="M 86.781872 -141.670626 
L 86.781872 -135.798072 
L 88.651849 -136.265566 
L 86.314378 -131.590626 
L 83.976908 -136.265566 
L 85.846884 -135.798072 
L 85.846884 -141.670626 
L 86.781872 -141.670626 
" clip-path="url(#p1758977b5c)"/>
    <path d="M 101.166305 -138.729732 
L 101.166305 -132.857179 
L 103.036281 -133.324673 
L 100.698811 -128.649732 
L 98.361341 -133.324673 
L 100.231317 -132.857179 
L 100.231317 -138.729732 
L 101.166305 -138.729732 
" clip-path="url(#p1758977b5c)"/>
    <path d="M 115.550737 -141.670626 
L 115.550737 -135.798072 
L 117.420714 -136.265566 
L 115.083243 -131.590626 
L 112.745773 -136.265566 
L 114.615749 -135.798072 
L 114.615749 -141.670626 
L 115.550737 -141.670626 
" clip-path="url(#p1758977b5c)"/>
    <path d="M 129.93517 -150.16918 
L 129.93517 -144.296626 
L 131.805146 -144.76412 
L 129.467676 -140.08918 
L 127.130205 -144.76412 
L 129.000182 -144.296626 
L 129.000182 -150.16918 
L 129.93517 -150.16918 
" clip-path="url(#p1758977b5c)"/>
    <path d="M 144.319602 -163.409117 
L 144.319602 -157.536563 
L 146.189578 -158.004057 
L 143.852108 -153.329117 
L 141.514638 -158.004057 
L 143.384614 -157.536563 
L 143.384614 -163.409117 
L 144.319602 -163.409117 
" clip-path="url(#p1758977b5c)"/>
    <path d="M 158.704035 -180.402713 
L 158.704035 -174.53016 
L 160.574011 -174.997654 
L 158.236541 -170.322713 
L 155.89907 -174.997654 
L 157.769046 -174.53016 
L 157.769046 -180.402713 
L 158.704035 -180.402713 
" clip-path="url(#p1758977b5c)"/>
    <path d="M 173.088467 -200.240728 
L 173.088467 -194.368175 
L 174.958443 -194.835669 
L 172.620973 -190.160728 
L 170.283503 -194.835669 
L 172.153479 -194.368175 
L 172.153479 -200.240728 
L 173.088467 -200.240728 
" clip-path="url(#p1758977b5c)"/>
    <path d="M 29.244143 -147.402562 
L 29.244143 -141.530009 
L 31.114119 -141.997503 
L 28.776649 -137.322562 
L 26.439178 -141.997503 
L 28.309155 -141.530009 
L 28.309155 -147.402562 
L 29.244143 -147.402562 
" clip-path="url(#p1758977b5c)"/>
    <path d="M 43.628575 -125.238242 
L 43.628575 -119.365688 
L 45.498551 -119.833182 
L 43.161081 -115.158242 
L 40.823611 -119.833182 
L 42.693587 -119.365688 
L 42.693587 -125.238242 
L 43.628575 -125.238242 
" clip-path="url(#p1758977b5c)"/>
    <path d="M 58.013008 -105.729581 
L 58.013008 -99.857028 
L 59.882984 -100.324522 
L 57.545514 -95.649581 
L 55.208043 -100.324522 
L 57.078019 -99.857028 
L 57.078019 -105.729581 
L 58.013008 -105.729581 
" clip-path="url(#p1758977b5c)"/>
    <path d="M 72.39744 -90.051947 
L 72.39744 -84.179394 
L 74.267416 -84.646888 
L 71.929946 -79.971947 
L 69.592476 -84.646888 
L 71.462452 -84.179394 
L 71.462452 -90.051947 
L 72.39744 -90.051947 
" clip-path="url(#p1758977b5c)"/>
    <path d="M 86.781872 -79.685699 
L 86.781872 -73.813145 
L 88.651849 -74.28064 
L 86.314378 -69.605699 
L 83.976908 -74.28064 
L 85.846884 -73.813145 
L 85.846884 -79.685699 
L 86.781872 -79.685699 
" clip-path="url(#p1758977b5c)"/>
    <path d="M 101.166305 -76.029445 
L 101.166305 -70.156892 
L 103.036281 -70.624386 
L 100.698811 -65.949445 
L 98.361341 -70.624386 
L 100.231317 -70.156892 
L 100.231317 -76.029445 
L 101.166305 -76.029445 
" clip-path="url(#p1758977b5c)"/>
    <path d="M 115.550737 -79.685699 
L 115.550737 -73.813145 
L 117.420714 -74.28064 
L 115.083243 -69.605699 
L 112.745773 -74.28064 
L 114.615749 -73.813145 
L 114.615749 -79.685699 
L 115.550737 -79.685699 
" clip-path="url(#p1758977b5c)"/>
    <path d="M 129.93517 -90.051947 
L 129.93517 -84.179394 
L 131.805146 -84.646888 
L 129.467676 -79.971947 
L 127.130205 -84.646888 
L 129.000182 -84.179394 
L 129.000182 -90.051947 
L 129.93517 -90.051947 
" clip-path="url(#p1758977b5c)"/>
    <path d="M 144.319602 -105.729581 
L 144.319602 -99.857028 
L 146.189578 -100.324522 
L 143.852108 -95.649581 
L 141.514638 -100.324522 
L 143.384614 -99.857028 
L 143.384614 -105.729581 
L 144.319602 -105.729581 
" clip-path="url(#p1758977b5c)"/>
    <path d="M 158.704035 -125.238242 
L 158.704035 -119.365688 
L 160.574011 -119.833182 
L 158.236541 -115.158242 
L 155.89907 -119.833182 
L 157.769046 -119.365688 
L 157.769046 -125.238242 
L 158.704035 -125.238242 
" clip-path="url(#p1758977b5c)"/>
    <path d="M 173.088467 -147.402562 
L 173.088467 -141.530009 
L 174.958443 -141.997503 
L 172.620973 -137.322562 
L 170.283503 -141.997503 
L 172.153479 -141.530009 
L 172.153479 -147.402562 
L 173.088467 -147.402562 
" clip-path="url(#p1758977b5c)"/>
    <path d="M 29.244143 -97.408814 
L 29.244143 -91.536261 
L 31.114119 -92.003755 
L 28.776649 -87.328814 
L 26.439178 -92.003755 
L 28.309155 -91.536261 
L 28.309155 -97.408814 
L 29.244143 -97.408814 
" clip-path="url(#p1758977b5c)"/>
    <path d="M 43.628575 -72.72943 
L 43.628575 -66.856877 
L 45.498551 -67.324371 
L 43.161081 -62.64943 
L 40.823611 -67.324371 
L 42.693587 -66.856877 
L 42.693587 -72.72943 
L 43.628575 -72.72943 
" clip-path="url(#p1758977b5c)"/>
    <path d="M 58.013008 -50.235755 
L 58.013008 -44.363202 
L 59.882984 -44.830696 
L 57.545514 -40.155755 
L 55.208043 -44.830696 
L 57.078019 -44.363202 
L 57.078019 -50.235755 
L 58.013008 -50.235755 
" clip-path="url(#p1758977b5c)"/>
    <path d="M 72.39744 -31.314113 
L 72.39744 -25.44156 
L 74.267416 -25.909054 
L 71.929946 -21.234113 
L 69.592476 -25.909054 
L 71.462452 -25.44156 
L 71.462452 -31.314113 
L 72.39744 -31.314113 
" clip-path="url(#p1758977b5c)"/>
    <path d="M 86.781872 -18.148826 
L 86.781872 -12.276273 
L 88.651849 -12.743767 
L 86.314378 -8.068826 
L 83.976908 -12.743767 
L 85.846884 -12.276273 
L 85.846884 -18.148826 
L 86.781872 -18.148826 
" clip-path="url(#p1758977b5c)"/>
    <path d="M 101.166305 -13.329158 
L 101.166305 -7.456604 
L 103.036281 -7.924098 
L 100.698811 -3.249158 
L 98.361341 -7.924098 
L 100.231317 -7.456604 
L 100.231317 -13.329158 
L 101.166305 -13.329158 
" clip-path="url(#p1758977b5c)"/>
    <path d="M 115.550737 -18.148826 
L 115.550737 -12.276273 
L 117.420714 -12.743767 
L 115.083243 -8.068826 
L 112.745773 -12.743767 
L 114.615749 -12.276273 
L 114.615749 -18.148826 
L 115.550737 -18.148826 
" clip-path="url(#p1758977b5c)"/>
    <path d="M 129.93517 -31.314113 
L 129.93517 -25.44156 
L 131.805146 -25.909054 
L 129.467676 -21.234113 
L 127.130205 -25.909054 
L 129.000182 -25.44156 
L 129.000182 -31.314113 
L 129.93517 -31.314113 
" clip-path="url(#p1758977b5c)"/>
    <path d="M 144.319602 -50.235755 
L 144.319602 -44.363202 
L 146.189578 -44.830696 
L 143.852108 -40.155755 
L 141.514638 -44.830696 
L 143.384614 -44.363202 
L 143.384614 -50.235755 
L 144.319602 -50.235755 
" clip-path="url(#p1758977b5c)"/>
    <path d="M 158.704035 -72.72943 
L 158.704035 -66.856877 
L 160.574011 -67.324371 
L 158.236541 -62.64943 
L 155.89907 -67.324371 
L 157.769046 -66.856877 
L 157.769046 -72.72943 
L 158.704035 -72.72943 
" clip-path="url(#p1758977b5c)"/>
    <path d="M 173.088467 -97.408814 
L 173.088467 -91.536261 
L 174.958443 -92.003755 
L 172.620973 -87.328814 
L 170.283503 -92.003755 
L 172.153479 -91.536261 
L 172.153479 -97.408814 
L 173.088467 -97.408814 
" clip-path="url(#p1758977b5c)"/>
    <path d="M 29.244143 -51.168726 
L 29.244143 -45.296172 
L 31.114119 -45.763667 
L 28.776649 -41.088726 
L 26.439178 -45.763667 
L 28.309155 -45.296172 
L 28.309155 -51.168726 
L 29.244143 -51.168726 
" clip-path="url(#p1758977b5c)"/>
    <path d="M 43.628575 -24.051645 
L 43.628575 -18.179091 
L 45.498551 -18.646585 
L 43.161081 -13.971645 
L 40.823611 -18.646585 
L 42.693587 -18.179091 
L 42.693587 -24.051645 
L 43.628575 -24.051645 
" clip-path="url(#p1758977b5c)"/>
    <path d="M 58.013008 1.686038 
L 58.013008 7.558592 
L 59.882984 7.091098 
L 57.545514 11.766038 
L 55.208043 7.091098 
L 57.078019 7.558592 
L 57.078019 1.686038 
L 58.013008 1.686038 
" clip-path="url(#p1758977b5c)"/>
    <path d="M 72.39744 24.766731 
L 72.39744 30.639285 
L 74.267416 30.171791 
L 71.929946 34.846731 
L 69.592476 30.171791 
L 71.462452 30.639285 
L 71.462452 24.766731 
L 72.39744 24.766731 
" clip-path="url(#p1758977b5c)"/>
    <path d="M 86.781872 42.359878 
L 86.781872 48.232432 
L 88.651849 47.764938 
L 86.314378 52.439878 
L 83.976908 47.764938 
L 85.846884 48.232432 
L 85.846884 42.359878 
L 86.781872 42.359878 
" clip-path="url(#p1758977b5c)"/>
    <path d="M 101.166305 49.37113 
L 101.166305 55.243683 
L 103.036281 54.776189 
L 100.698811 59.45113 
L 98.361341 54.776189 
L 100.231317 55.243683 
L 100.231317 49.37113 
L 101.166305 49.37113 
" clip-path="url(#p1758977b5c)"/>
    <path d="M 115.550737 42.359878 
L 115.550737 48.232432 
L 117.420714 47.764938 
L 115.083243 52.439878 
L 112.745773 47.764938 
L 114.615749 48.232432 
L 114.615749 42.359878 
L 115.550737 42.359878 
" clip-path="url(#p1758977b5c)"/>
    <path d="M 129.93517 24.766731 
L 129.93517 30.639285 
L 131.805146 30.171791 
L 129.467676 34.846731 
L 127.130205 30.171791 
L 129.000182 30.639285 
L 129.000182 24.766731 
L 129.93517 24.766731 
" clip-path="url(#p1758977b5c)"/>
    <path d="M 144.319602 1.686038 
L 144.319602 7.558592 
L 146.189578 7.091098 
L 143.852108 11.766038 
L 141.514638 7.091098 
L 143.384614 7.558592 
L 143.384614 1.686038 
L 144.319602 1.686038 
" clip-path="url(#p1758977b5c)"/>
    <path d="M 158.704035 -24.051645 
L 158.704035 -18.179091 
L 160.574011 -18.646585 
L 158.236541 -13.971645 
L 155.89907 -18.646585 
L 157.769046 -18.179091 
L 157.769046 -24.051645 
L 158.704035 -24.051645 
" clip-path="url(#p1758977b5c)"/>
    <path d="M 173.088467 -51.168726 
L 173.088467 -45.296172 
L 174.958443 -45.763667 
L 172.620973 -41.088726 
L 170.283503 -45.763667 
L 172.153479 -45.296172 
L 172.153479 -51.168726 
L 173.088467 -51.168726 
" clip-path="url(#p1758977b5c)"/>
    <path d="M 29.244143 -9.670021 
L 29.244143 -3.797467 
L 31.114119 -4.264961 
L 28.776649 0.409979 
L 26.439178 -4.264961 
L 28.309155 -3.797467 
L 28.309155 -9.670021 
L 29.244143 -9.670021 
" clip-path="url(#p1758977b5c)"/>
    <path d="M 43.628575 19.314755 
L 43.628575 25.187308 
L 45.498551 24.719814 
L 43.161081 29.394755 
L 40.823611 24.719814 
L 42.693587 25.187308 
L 42.693587 19.314755 
L 43.628575 19.314755 
" clip-path="url(#p1758977b5c)"/>
    <path d="M 58.013008 47.851476 
L 58.013008 53.72403 
L 59.882984 53.256536 
L 57.545514 57.931476 
L 55.208043 53.256536 
L 57.078019 53.72403 
L 57.078019 47.851476 
L 58.013008 47.851476 
" clip-path="url(#p1758977b5c)"/>
    <path d="M 72.39744 75.36003 
L 72.39744 81.232583 
L 74.267416 80.765089 
L 71.929946 85.44003 
L 69.592476 80.765089 
L 71.462452 81.232583 
L 71.462452 75.36003 
L 72.39744 75.36003 
" clip-path="url(#p1758977b5c)"/>
    <path d="M 86.781872 99.769218 
L 86.781872 105.641771 
L 88.651849 105.174277 
L 86.314378 109.849218 
L 83.976908 105.174277 
L 85.846884 105.641771 
L 85.846884 99.769218 
L 86.781872 99.769218 
" clip-path="url(#p1758977b5c)"/>
    <path d="M 101.166305 112.071417 
L 101.166305 117.94397 
L 103.036281 117.476476 
L 100.698811 122.151417 
L 98.361341 117.476476 
L 100.231317 117.94397 
L 100.231317 112.071417 
L 101.166305 112.071417 
" clip-path="url(#p1758977b5c)"/>
    <path d="M 115.550737 99.769218 
L 115.550737 105.641771 
L 117.420714 105.174277 
L 115.083243 109.849218 
L 112.745773 105.174277 
L 114.615749 105.641771 
L 114.615749 99.769218 
L 115.550737 99.769218 
" clip-path="url(#p1758977b5c)"/>
    <path d="M 129.93517 75.36003 
L 129.93517 81.232583 
L 131.805146 80.765089 
L 129.467676 85.44003 
L 127.130205 80.765089 
L 129.000182 81.232583 
L 129.000182 75.36003 
L 129.93517 75.36003 
" clip-path="url(#p1758977b5c)"/>
    <path d="M 144.319602 47.851476 
L 144.319602 53.72403 
L 146.189578 53.256536 
L 143.852108 57.931476 
L 141.514638 53.256536 
L 143.384614 53.72403 
L 143.384614 47.851476 
L 144.319602 47.851476 
" clip-path="url(#p1758977b5c)"/>
    <path d="M 158.704035 19.314755 
L 158.704035 25.187308 
L 160.574011 24.719814 
L 158.236541 29.394755 
L 155.89907 24.719814 
L 157.769046 25.187308 
L 157.769046 19.314755 
L 158.704035 19.314755 
" clip-path="url(#p1758977b5c)"/>
    <path d="M 173.088467 -9.670021 
L 173.088467 -3.797467 
L 174.958443 -4.264961 
L 172.620973 0.409979 
L 170.283503 -4.264961 
L 172.153479 -3.797467 
L 172.153479 -9.670021 
L 173.088467 -9.670021 
" clip-path="url(#p1758977b5c)"/>
    <path d="M 29.244143 26.271024 
L 29.244143 32.143577 
L 31.114119 31.676083 
L 28.776649 36.351024 
L 26.439178 31.676083 
L 28.309155 32.143577 
L 28.309155 26.271024 
L 29.244143 26.271024 
" clip-path="url(#p1758977b5c)"/>
    <path d="M 43.628575 55.97116 
L 43.628575 61.843713 
L 45.498551 61.376219 
L 43.161081 66.05116 
L 40.823611 61.376219 
L 42.693587 61.843713 
L 42.693587 55.97116 
L 43.628575 55.97116 
" clip-path="url(#p1758977b5c)"/>
    <path d="M 58.013008 85.671296 
L 58.013008 91.543849 
L 59.882984 91.076355 
L 57.545514 95.751296 
L 55.208043 91.076355 
L 57.078019 91.543849 
L 57.078019 85.671296 
L 58.013008 85.671296 
" clip-path="url(#p1758977b5c)"/>
    <path d="M 72.39744 115.371432 
L 72.39744 121.243985 
L 74.267416 120.776491 
L 71.929946 125.451432 
L 69.592476 120.776491 
L 71.462452 121.243985 
L 71.462452 115.371432 
L 72.39744 115.371432 
" clip-path="url(#p1758977b5c)"/>
    <path d="M 86.781872 145.071568 
L 86.781872 150.944122 
L 88.651849 150.476628 
L 86.314378 155.151568 
L 83.976908 150.476628 
L 85.846884 150.944122 
L 85.846884 145.071568 
L 86.781872 145.071568 
" clip-path="url(#p1758977b5c)"/>
    <path d="M 101.166305 174.771704 
L 101.166305 180.644258 
L 103.036281 180.176764 
L 100.698811 184.851704 
L 98.361341 180.176764 
L 100.231317 180.644258 
L 100.231317 174.771704 
L 101.166305 174.771704 
" clip-path="url(#p1758977b5c)"/>
    <path d="M 115.550737 145.071568 
L 115.550737 150.944122 
L 117.420714 150.476628 
L 115.083243 155.151568 
L 112.745773 150.476628 
L 114.615749 150.944122 
L 114.615749 145.071568 
L 115.550737 145.071568 
" clip-path="url(#p1758977b5c)"/>
    <path d="M 129.93517 115.371432 
L 129.93517 121.243985 
L 131.805146 120.776491 
L 129.467676 125.451432 
L 127.130205 120.776491 
L 129.000182 121.243985 
L 129.000182 115.371432 
L 129.93517 115.371432 
" clip-path="url(#p1758977b5c)"/>
    <path d="M 144.319602 85.671296 
L 144.319602 91.543849 
L 146.189578 91.076355 
L 143.852108 95.751296 
L 141.514638 91.076355 
L 143.384614 91.543849 
L 143.384614 85.671296 
L 144.319602 85.671296 
" clip-path="url(#p1758977b5c)"/>
    <path d="M 158.704035 55.97116 
L 158.704035 61.843713 
L 160.574011 61.376219 
L 158.236541 66.05116 
L 155.89907 61.376219 
L 157.769046 61.843713 
L 157.769046 55.97116 
L 158.704035 55.97116 
" clip-path="url(#p1758977b5c)"/>
    <path d="M 173.088467 26.271024 
L 173.088467 32.143577 
L 174.958443 31.676083 
L 172.620973 36.351024 
L 170.283503 31.676083 
L 172.153479 32.143577 
L 172.153479 26.271024 
L 173.088467 26.271024 
" clip-path="url(#p1758977b5c)"/>
    <path d="M 29.244143 56.330282 
L 29.244143 62.202835 
L 31.114119 61.735341 
L 28.776649 66.410282 
L 26.439178 61.735341 
L 28.309155 62.202835 
L 28.309155 56.330282 
L 29.244143 56.330282 
" clip-path="url(#p1758977b5c)"/>
    <path d="M 43.628575 85.315057 
L 43.628575 91.187611 
L 45.498551 90.720117 
L 43.161081 95.395057 
L 40.823611 90.720117 
L 42.693587 91.187611 
L 42.693587 85.315057 
L 43.628575 85.315057 
" clip-path="url(#p1758977b5c)"/>
    <path d="M 58.013008 113.851779 
L 58.013008 119.724332 
L 59.882984 119.256838 
L 57.545514 123.931779 
L 55.208043 119.256838 
L 57.078019 119.724332 
L 57.078019 113.851779 
L 58.013008 113.851779 
" clip-path="url(#p1758977b5c)"/>
    <path d="M 72.39744 141.360332 
L 72.39744 147.232886 
L 74.267416 146.765392 
L 71.929946 151.440332 
L 69.592476 146.765392 
L 71.462452 147.232886 
L 71.462452 141.360332 
L 72.39744 141.360332 
" clip-path="url(#p1758977b5c)"/>
    <path d="M 86.781872 165.76952 
L 86.781872 171.642074 
L 88.651849 171.17458 
L 86.314378 175.84952 
L 83.976908 171.17458 
L 85.846884 171.642074 
L 85.846884 165.76952 
L 86.781872 165.76952 
" clip-path="url(#p1758977b5c)"/>
    <path d="M 101.166305 178.071719 
L 101.166305 183.944273 
L 103.036281 183.476779 
L 100.698811 188.151719 
L 98.361341 183.476779 
L 100.231317 183.944273 
L 100.231317 178.071719 
L 101.166305 178.071719 
" clip-path="url(#p1758977b5c)"/>
    <path d="M 115.550737 165.76952 
L 115.550737 171.642074 
L 117.420714 171.17458 
L 115.083243 175.84952 
L 112.745773 171.17458 
L 114.615749 171.642074 
L 114.615749 165.76952 
L 115.550737 165.76952 
" clip-path="url(#p1758977b5c)"/>
    <path d="M 129.93517 141.360332 
L 129.93517 147.232886 
L 131.805146 146.765392 
L 129.467676 151.440332 
L 127.130205 146.765392 
L 129.000182 147.232886 
L 129.000182 141.360332 
L 129.93517 141.360332 
" clip-path="url(#p1758977b5c)"/>
    <path d="M 144.319602 113.851779 
L 144.319602 119.724332 
L 146.189578 119.256838 
L 143.852108 123.931779 
L 141.514638 119.256838 
L 143.384614 119.724332 
L 143.384614 113.851779 
L 144.319602 113.851779 
" clip-path="url(#p1758977b5c)"/>
    <path d="M 158.704035 85.315057 
L 158.704035 91.187611 
L 160.574011 90.720117 
L 158.236541 95.395057 
L 155.89907 90.720117 
L 157.769046 91.187611 
L 157.769046 85.315057 
L 158.704035 85.315057 
" clip-path="url(#p1758977b5c)"/>
    <path d="M 173.088467 56.330282 
L 173.088467 62.202835 
L 174.958443 61.735341 
L 172.620973 66.410282 
L 170.283503 61.735341 
L 172.153479 62.202835 
L 172.153479 56.330282 
L 173.088467 56.330282 
" clip-path="url(#p1758977b5c)"/>
    <path d="M 29.244143 80.831879 
L 29.244143 86.704432 
L 31.114119 86.236938 
L 28.776649 90.911879 
L 26.439178 86.236938 
L 28.309155 86.704432 
L 28.309155 80.831879 
L 29.244143 80.831879 
" clip-path="url(#p1758977b5c)"/>
    <path d="M 43.628575 107.94896 
L 43.628575 113.821514 
L 45.498551 113.35402 
L 43.161081 118.02896 
L 40.823611 113.35402 
L 42.693587 113.821514 
L 42.693587 107.94896 
L 43.628575 107.94896 
" clip-path="url(#p1758977b5c)"/>
    <path d="M 58.013008 133.686643 
L 58.013008 139.559197 
L 59.882984 139.091702 
L 57.545514 143.766643 
L 55.208043 139.091702 
L 57.078019 139.559197 
L 57.078019 133.686643 
L 58.013008 133.686643 
" clip-path="url(#p1758977b5c)"/>
    <path d="M 72.39744 156.767336 
L 72.39744 162.63989 
L 74.267416 162.172396 
L 71.929946 166.847336 
L 69.592476 162.172396 
L 71.462452 162.63989 
L 71.462452 156.767336 
L 72.39744 156.767336 
" clip-path="url(#p1758977b5c)"/>
    <path d="M 86.781872 174.360483 
L 86.781872 180.233037 
L 88.651849 179.765543 
L 86.314378 184.440483 
L 83.976908 179.765543 
L 85.846884 180.233037 
L 85.846884 174.360483 
L 86.781872 174.360483 
" clip-path="url(#p1758977b5c)"/>
    <path d="M 101.166305 181.371734 
L 101.166305 187.244288 
L 103.036281 186.776794 
L 100.698811 191.451734 
L 98.361341 186.776794 
L 100.231317 187.244288 
L 100.231317 181.371734 
L 101.166305 181.371734 
" clip-path="url(#p1758977b5c)"/>
    <path d="M 115.550737 174.360483 
L 115.550737 180.233037 
L 117.420714 179.765543 
L 115.083243 184.440483 
L 112.745773 179.765543 
L 114.615749 180.233037 
L 114.615749 174.360483 
L 115.550737 174.360483 
" clip-path="url(#p1758977b5c)"/>
    <path d="M 129.93517 156.767336 
L 129.93517 162.63989 
L 131.805146 162.172396 
L 129.467676 166.847336 
L 127.130205 162.172396 
L 129.000182 162.63989 
L 129.000182 156.767336 
L 129.93517 156.767336 
" clip-path="url(#p1758977b5c)"/>
    <path d="M 144.319602 133.686643 
L 144.319602 139.559197 
L 146.189578 139.091702 
L 143.852108 143.766643 
L 141.514638 139.091702 
L 143.384614 139.559197 
L 143.384614 133.686643 
L 144.319602 133.686643 
" clip-path="url(#p1758977b5c)"/>
    <path d="M 158.704035 107.94896 
L 158.704035 113.821514 
L 160.574011 113.35402 
L 158.236541 118.02896 
L 155.89907 113.35402 
L 157.769046 113.821514 
L 157.769046 107.94896 
L 158.704035 107.94896 
" clip-path="url(#p1758977b5c)"/>
    <path d="M 173.088467 80.831879 
L 173.088467 86.704432 
L 174.958443 86.236938 
L 172.620973 90.911879 
L 170.283503 86.236938 
L 172.153479 86.704432 
L 172.153479 80.831879 
L 173.088467 80.831879 
" clip-path="url(#p1758977b5c)"/>
    <path d="M 29.244143 100.592093 
L 29.244143 106.464646 
L 31.114119 105.997152 
L 28.776649 110.672093 
L 26.439178 105.997152 
L 28.309155 106.464646 
L 28.309155 100.592093 
L 29.244143 100.592093 
" clip-path="url(#p1758977b5c)"/>
    <path d="M 43.628575 125.271477 
L 43.628575 131.144031 
L 45.498551 130.676537 
L 43.161081 135.351477 
L 40.823611 130.676537 
L 42.693587 131.144031 
L 42.693587 125.271477 
L 43.628575 125.271477 
" clip-path="url(#p1758977b5c)"/>
    <path d="M 58.013008 147.765152 
L 58.013008 153.637706 
L 59.882984 153.170211 
L 57.545514 157.845152 
L 55.208043 153.170211 
L 57.078019 153.637706 
L 57.078019 147.765152 
L 58.013008 147.765152 
" clip-path="url(#p1758977b5c)"/>
    <path d="M 72.39744 166.686794 
L 72.39744 172.559348 
L 74.267416 172.091854 
L 71.929946 176.766794 
L 69.592476 172.091854 
L 71.462452 172.559348 
L 71.462452 166.686794 
L 72.39744 166.686794 
" clip-path="url(#p1758977b5c)"/>
    <path d="M 86.781872 179.852081 
L 86.781872 185.724634 
L 88.651849 185.25714 
L 86.314378 189.932081 
L 83.976908 185.25714 
L 85.846884 185.724634 
L 85.846884 179.852081 
L 86.781872 179.852081 
" clip-path="url(#p1758977b5c)"/>
    <path d="M 101.166305 184.67175 
L 101.166305 190.544303 
L 103.036281 190.076809 
L 100.698811 194.75175 
L 98.361341 190.076809 
L 100.231317 190.544303 
L 100.231317 184.67175 
L 101.166305 184.67175 
" clip-path="url(#p1758977b5c)"/>
    <path d="M 115.550737 179.852081 
L 115.550737 185.724634 
L 117.420714 185.25714 
L 115.083243 189.932081 
L 112.745773 185.25714 
L 114.615749 185.724634 
L 114.615749 179.852081 
L 115.550737 179.852081 
" clip-path="url(#p1758977b5c)"/>
    <path d="M 129.93517 166.686794 
L 129.93517 172.559348 
L 131.805146 172.091854 
L 129.467676 176.766794 
L 127.130205 172.091854 
L 129.000182 172.559348 
L 129.000182 166.686794 
L 129.93517 166.686794 
" clip-path="url(#p1758977b5c)"/>
    <path d="M 144.319602 147.765152 
L 144.319602 153.637706 
L 146.189578 153.170211 
L 143.852108 157.845152 
L 141.514638 153.170211 
L 143.384614 153.637706 
L 143.384614 147.765152 
L 144.319602 147.765152 
" clip-path="url(#p1758977b5c)"/>
    <path d="M 158.704035 125.271477 
L 158.704035 131.144031 
L 160.574011 130.676537 
L 158.236541 135.351477 
L 155.89907 130.676537 
L 157.769046 131.144031 
L 157.769046 125.271477 
L 158.704035 125.271477 
" clip-path="url(#p1758977b5c)"/>
    <path d="M 173.088467 100.592093 
L 173.088467 106.464646 
L 174.958443 105.997152 
L 172.620973 110.672093 
L 170.283503 105.997152 
L 172.153479 106.464646 
L 172.153479 100.592093 
L 173.088467 100.592093 
" clip-path="url(#p1758977b5c)"/>
    <path d="M 29.244143 116.598648 
L 29.244143 122.471201 
L 31.114119 122.003707 
L 28.776649 126.678648 
L 26.439178 122.003707 
L 28.309155 122.471201 
L 28.309155 116.598648 
L 29.244143 116.598648 
" clip-path="url(#p1758977b5c)"/>
    <path d="M 43.628575 138.762968 
L 43.628575 144.635521 
L 45.498551 144.168027 
L 43.161081 148.842968 
L 40.823611 144.168027 
L 42.693587 144.635521 
L 42.693587 138.762968 
L 43.628575 138.762968 
" clip-path="url(#p1758977b5c)"/>
    <path d="M 58.013008 158.271629 
L 58.013008 164.144182 
L 59.882984 163.676688 
L 57.545514 168.351629 
L 55.208043 163.676688 
L 57.078019 164.144182 
L 57.078019 158.271629 
L 58.013008 158.271629 
" clip-path="url(#p1758977b5c)"/>
    <path d="M 72.39744 173.949263 
L 72.39744 179.821816 
L 74.267416 179.354322 
L 71.929946 184.029263 
L 69.592476 179.354322 
L 71.462452 179.821816 
L 71.462452 173.949263 
L 72.39744 173.949263 
" clip-path="url(#p1758977b5c)"/>
    <path d="M 86.781872 184.315511 
L 86.781872 190.188064 
L 88.651849 189.72057 
L 86.314378 194.395511 
L 83.976908 189.72057 
L 85.846884 190.188064 
L 85.846884 184.315511 
L 86.781872 184.315511 
" clip-path="url(#p1758977b5c)"/>
    <path d="M 101.166305 187.971765 
L 101.166305 193.844318 
L 103.036281 193.376824 
L 100.698811 198.051765 
L 98.361341 193.376824 
L 100.231317 193.844318 
L 100.231317 187.971765 
L 101.166305 187.971765 
" clip-path="url(#p1758977b5c)"/>
    <path d="M 115.550737 184.315511 
L 115.550737 190.188064 
L 117.420714 189.72057 
L 115.083243 194.395511 
L 112.745773 189.72057 
L 114.615749 190.188064 
L 114.615749 184.315511 
L 115.550737 184.315511 
" clip-path="url(#p1758977b5c)"/>
    <path d="M 129.93517 173.949263 
L 129.93517 179.821816 
L 131.805146 179.354322 
L 129.467676 184.029263 
L 127.130205 179.354322 
L 129.000182 179.821816 
L 129.000182 173.949263 
L 129.93517 173.949263 
" clip-path="url(#p1758977b5c)"/>
    <path d="M 144.319602 158.271629 
L 144.319602 164.144182 
L 146.189578 163.676688 
L 143.852108 168.351629 
L 141.514638 163.676688 
L 143.384614 164.144182 
L 143.384614 158.271629 
L 144.319602 158.271629 
" clip-path="url(#p1758977b5c)"/>
    <path d="M 158.704035 138.762968 
L 158.704035 144.635521 
L 160.574011 144.168027 
L 158.236541 148.842968 
L 155.89907 144.168027 
L 157.769046 144.635521 
L 157.769046 138.762968 
L 158.704035 138.762968 
" clip-path="url(#p1758977b5c)"/>
    <path d="M 173.088467 116.598648 
L 173.088467 122.471201 
L 174.958443 122.003707 
L 172.620973 126.678648 
L 170.283503 122.003707 
L 172.153479 122.471201 
L 172.153479 116.598648 
L 173.088467 116.598648 
" clip-path="url(#p1758977b5c)"/>
    <path d="M 29.244143 129.760784 
L 29.244143 135.633337 
L 31.114119 135.165843 
L 28.776649 139.840784 
L 26.439178 135.165843 
L 28.309155 135.633337 
L 28.309155 129.760784 
L 29.244143 129.760784 
" clip-path="url(#p1758977b5c)"/>
    <path d="M 43.628575 149.598799 
L 43.628575 155.471352 
L 45.498551 155.003858 
L 43.161081 159.678799 
L 40.823611 155.003858 
L 42.693587 155.471352 
L 42.693587 149.598799 
L 43.628575 149.598799 
" clip-path="url(#p1758977b5c)"/>
    <path d="M 58.013008 166.592395 
L 58.013008 172.464949 
L 59.882984 171.997455 
L 57.545514 176.672395 
L 55.208043 171.997455 
L 57.078019 172.464949 
L 57.078019 166.592395 
L 58.013008 166.592395 
" clip-path="url(#p1758977b5c)"/>
    <path d="M 72.39744 179.832333 
L 72.39744 185.704886 
L 74.267416 185.237392 
L 71.929946 189.912333 
L 69.592476 185.237392 
L 71.462452 185.704886 
L 71.462452 179.832333 
L 72.39744 179.832333 
" clip-path="url(#p1758977b5c)"/>
    <path d="M 86.781872 188.330887 
L 86.781872 194.20344 
L 88.651849 193.735946 
L 86.314378 198.410887 
L 83.976908 193.735946 
L 85.846884 194.20344 
L 85.846884 188.330887 
L 86.781872 188.330887 
" clip-path="url(#p1758977b5c)"/>
    <path d="M 101.166305 191.27178 
L 101.166305 197.144333 
L 103.036281 196.676839 
L 100.698811 201.35178 
L 98.361341 196.676839 
L 100.231317 197.144333 
L 100.231317 191.27178 
L 101.166305 191.27178 
" clip-path="url(#p1758977b5c)"/>
    <path d="M 115.550737 188.330887 
L 115.550737 194.20344 
L 117.420714 193.735946 
L 115.083243 198.410887 
L 112.745773 193.735946 
L 114.615749 194.20344 
L 114.615749 188.330887 
L 115.550737 188.330887 
" clip-path="url(#p1758977b5c)"/>
    <path d="M 129.93517 179.832333 
L 129.93517 185.704886 
L 131.805146 185.237392 
L 129.467676 189.912333 
L 127.130205 185.237392 
L 129.000182 185.704886 
L 129.000182 179.832333 
L 129.93517 179.832333 
" clip-path="url(#p1758977b5c)"/>
    <path d="M 144.319602 166.592395 
L 144.319602 172.464949 
L 146.189578 171.997455 
L 143.852108 176.672395 
L 141.514638 171.997455 
L 143.384614 172.464949 
L 143.384614 166.592395 
L 144.319602 166.592395 
" clip-path="url(#p1758977b5c)"/>
    <path d="M 158.704035 149.598799 
L 158.704035 155.471352 
L 160.574011 155.003858 
L 158.236541 159.678799 
L 155.89907 155.003858 
L 157.769046 155.471352 
L 157.769046 149.598799 
L 158.704035 149.598799 
" clip-path="url(#p1758977b5c)"/>
    <path d="M 173.088467 129.760784 
L 173.088467 135.633337 
L 174.958443 135.165843 
L 172.620973 139.840784 
L 170.283503 135.165843 
L 172.153479 135.633337 
L 172.153479 129.760784 
L 173.088467 129.760784 
" clip-path="url(#p1758977b5c)"/>
   </g>
   <g id="text_1">
    <!-- y' -->
    <g style="fill: #808080" transform="translate(187.005405 172.620973) scale(0.1 -0.1)">
     <defs>
      <path id="DejaVuSans-79" d="M 2059 -325 
Q 1816 -950 1584 -1140 
Q 1353 -1331 966 -1331 
L 506 -1331 
L 506 -850 
L 844 -850 
Q 1081 -850 1212 -737 
Q 1344 -625 1503 -206 
L 1606 56 
L 191 3500 
L 800 3500 
L 1894 763 
L 2988 3500 
L 3597 3500 
L 2059 -325 
z
" transform="scale(0.015625)"/>
      <path id="DejaVuSans-27" d="M 1147 4666 
L 1147 2931 
L 616 2931 
L 616 4666 
L 1147 4666 
z
" transform="scale(0.015625)"/>
     </defs>
     <use xlink:href="#DejaVuSans-79"/>
     <use xlink:href="#DejaVuSans-27" x="59.179688"/>
    </g>
   </g>
   <g id="text_2">
    <!-- z' -->
    <g style="fill: #808080" transform="translate(107.891027 21.584432) scale(0.1 -0.1)">
     <defs>
      <path id="DejaVuSans-7a" d="M 353 3500 
L 3084 3500 
L 3084 2975 
L 922 459 
L 3084 459 
L 3084 0 
L 275 0 
L 275 525 
L 2438 3041 
L 353 3041 
L 353 3500 
z
" transform="scale(0.015625)"/>
     </defs>
     <use xlink:href="#DejaVuSans-7a"/>
     <use xlink:href="#DejaVuSans-27" x="52.490234"/>
    </g>
   </g>
  </g>
 </g>
 <defs>
  <clipPath id="p1758977b5c">
   <rect x="7.2" y="7.2" width="186.997622" height="266.112"/>
  </clipPath>
 </defs>
</svg>
