<svg xmlns="http://www.w3.org/2000/svg" xmlns:xlink="http://www.w3.org/1999/xlink" width="289.213" height="374.016" viewBox="0 0 216.91 280.512"><defs><style>*{stroke-linejoin:round;stroke-linecap:butt}</style></defs><g id="figure_1"><path id="patch_1" d="M0 280.512h216.91V0H0z" style="fill:none"/><g id="axes_1"><path id="patch_2" d="m151.344 140.256-5.544 3.604 1.294-3.601H7.2v-.006h139.894l-1.294-3.6z" clip-path="url(#pd52c1e15f9)" style="fill:gray;stroke:gray;stroke-linejoin:miter"/><path id="patch_3" d="m79.272 7.2 3.604 5.544-3.601-1.294v261.862h-.006V11.45l-3.6 1.294z" clip-path="url(#pd52c1e15f9)" style="fill:gray;stroke:gray;stroke-linejoin:miter"/><g id="Quiver_1"><path d="M24.192 262.404v6.837l1.442-.36-1.802 3.603-1.802-3.604 1.442.36v-6.836zM35.28 262.404v6.837l1.442-.36-1.802 3.603-1.802-3.604 1.442.36v-6.836zM46.368 262.404v6.837l1.442-.36-1.802 3.603-1.802-3.604 1.442.36v-6.836zM57.456 262.404v6.837l1.442-.36-1.802 3.603-1.802-3.604 1.442.36v-6.836zM68.544 262.404v6.837l1.442-.36-1.802 3.603-1.802-3.604 1.442.36v-6.836zM79.632 262.404v6.837l1.442-.36-1.802 3.603-1.802-3.604 1.442.36v-6.836zM90.72 262.404v6.837l1.442-.36-1.802 3.603-1.802-3.604 1.442.36v-6.836zM101.808 262.404v6.837l1.442-.36-1.802 3.603-1.802-3.604 1.442.36v-6.836zM112.896 262.404v6.837l1.442-.36-1.802 3.603-1.802-3.604 1.442.36v-6.836zM123.984 262.404v6.837l1.442-.36-1.802 3.603-1.802-3.604 1.442.36v-6.836zM135.072 262.404v6.837l1.442-.36-1.802 3.603-1.802-3.604 1.442.36v-6.836z" clip-path="url(#pd52c1e15f9)" style="fill:navy"/><path d="M24.192 236.966v6.837l1.442-.36-1.802 3.603-1.802-3.603 1.442.36v-6.837zM35.28 236.966v6.837l1.442-.36-1.802 3.603-1.802-3.603 1.442.36v-6.837zM46.368 236.966v6.837l1.442-.36-1.802 3.603-1.802-3.603 1.442.36v-6.837zM57.456 236.966v6.837l1.442-.36-1.802 3.603-1.802-3.603 1.442.36v-6.837zM68.544 236.966v6.837l1.442-.36-1.802 3.603-1.802-3.603 1.442.36v-6.837zM79.632 236.966v6.837l1.442-.36-1.802 3.603-1.802-3.603 1.442.36v-6.837zM90.72 236.966v6.837l1.442-.36-1.802 3.603-1.802-3.603 1.442.36v-6.837zM101.808 236.966v6.837l1.442-.36-1.802 3.603-1.802-3.603 1.442.36v-6.837zM112.896 236.966v6.837l1.442-.36-1.802 3.603-1.802-3.603 1.442.36v-6.837zM123.984 236.966v6.837l1.442-.36-1.802 3.603-1.802-3.603 1.442.36v-6.837zM135.072 236.966v6.837l1.442-.36-1.802 3.603-1.802-3.603 1.442.36v-6.837z" clip-path="url(#pd52c1e15f9)" style="fill:#0000f1"/><path d="M24.192 211.529v6.837l1.442-.36-1.802 3.603-1.802-3.604 1.442.36v-6.836zM35.28 211.529v6.837l1.442-.36-1.802 3.603-1.802-3.604 1.442.36v-6.836zM46.368 211.529v6.837l1.442-.36-1.802 3.603-1.802-3.604 1.442.36v-6.836zM57.456 211.529v6.837l1.442-.36-1.802 3.603-1.802-3.604 1.442.36v-6.836zM68.544 211.529v6.837l1.442-.36-1.802 3.603-1.802-3.604 1.442.36v-6.836zM79.632 211.529v6.837l1.442-.36-1.802 3.603-1.802-3.604 1.442.36v-6.836zM90.72 211.529v6.837l1.442-.36-1.802 3.603-1.802-3.604 1.442.36v-6.836zM101.808 211.529v6.837l1.442-.36-1.802 3.603-1.802-3.604 1.442.36v-6.836zM112.896 211.529v6.837l1.442-.36-1.802 3.603-1.802-3.604 1.442.36v-6.836zM123.984 211.529v6.837l1.442-.36-1.802 3.603-1.802-3.604 1.442.36v-6.836zM135.072 211.529v6.837l1.442-.36-1.802 3.603-1.802-3.604 1.442.36v-6.836z" clip-path="url(#pd52c1e15f9)" style="fill:#004cff"/><path d="M24.192 186.091v6.837l1.442-.36-1.802 3.603-1.802-3.603 1.442.36v-6.837zM35.28 186.091v6.837l1.442-.36-1.802 3.603-1.802-3.603 1.442.36v-6.837zM46.368 186.091v6.837l1.442-.36-1.802 3.603-1.802-3.603 1.442.36v-6.837zM57.456 186.091v6.837l1.442-.36-1.802 3.603-1.802-3.603 1.442.36v-6.837zM68.544 186.091v6.837l1.442-.36-1.802 3.603-1.802-3.603 1.442.36v-6.837zM79.632 186.091v6.837l1.442-.36-1.802 3.603-1.802-3.603 1.442.36v-6.837zM90.72 186.091v6.837l1.442-.36-1.802 3.603-1.802-3.603 1.442.36v-6.837zM101.808 186.091v6.837l1.442-.36-1.802 3.603-1.802-3.603 1.442.36v-6.837zM112.896 186.091v6.837l1.442-.36-1.802 3.603-1.802-3.603 1.442.36v-6.837zM123.984 186.091v6.837l1.442-.36-1.802 3.603-1.802-3.603 1.442.36v-6.837zM135.072 186.091v6.837l1.442-.36-1.802 3.603-1.802-3.603 1.442.36v-6.837z" clip-path="url(#pd52c1e15f9)" style="fill:#00b0ff"/><path d="M24.192 160.654v6.836l1.442-.36-1.802 3.604-1.802-3.604 1.442.36v-6.836zM35.28 160.654v6.836l1.442-.36-1.802 3.604-1.802-3.604 1.442.36v-6.836zM46.368 160.654v6.836l1.442-.36-1.802 3.604-1.802-3.604 1.442.36v-6.836zM57.456 160.654v6.836l1.442-.36-1.802 3.604-1.802-3.604 1.442.36v-6.836zM68.544 160.654v6.836l1.442-.36-1.802 3.604-1.802-3.604 1.442.36v-6.836zM79.632 160.654v6.836l1.442-.36-1.802 3.604-1.802-3.604 1.442.36v-6.836zM90.72 160.654v6.836l1.442-.36-1.802 3.604-1.802-3.604 1.442.36v-6.836zM101.808 160.654v6.836l1.442-.36-1.802 3.604-1.802-3.604 1.442.36v-6.836zM112.896 160.654v6.836l1.442-.36-1.802 3.604-1.802-3.604 1.442.36v-6.836zM123.984 160.654v6.836l1.442-.36-1.802 3.604-1.802-3.604 1.442.36v-6.836zM135.072 160.654v6.836l1.442-.36-1.802 3.604-1.802-3.604 1.442.36v-6.836z" clip-path="url(#pd52c1e15f9)" style="fill:#29ffce"/><path d="M24.192 135.216v6.837l1.442-.36-1.802 3.603-1.802-3.604 1.442.36v-6.836zM35.28 135.216v6.837l1.442-.36-1.802 3.603-1.802-3.604 1.442.36v-6.836zM46.368 135.216v6.837l1.442-.36-1.802 3.603-1.802-3.604 1.442.36v-6.836zM57.456 135.216v6.837l1.442-.36-1.802 3.603-1.802-3.604 1.442.36v-6.836zM68.544 135.216v6.837l1.442-.36-1.802 3.603-1.802-3.604 1.442.36v-6.836zM79.632 135.216v6.837l1.442-.36-1.802 3.603-1.802-3.604 1.442.36v-6.836zM90.72 135.216v6.837l1.442-.36-1.802 3.603-1.802-3.604 1.442.36v-6.836zM101.808 135.216v6.837l1.442-.36-1.802 3.603-1.802-3.604 1.442.36v-6.836zM112.896 135.216v6.837l1.442-.36-1.802 3.603-1.802-3.604 1.442.36v-6.836zM123.984 135.216v6.837l1.442-.36-1.802 3.603-1.802-3.604 1.442.36v-6.836zM135.072 135.216v6.837l1.442-.36-1.802 3.603-1.802-3.604 1.442.36v-6.836z" clip-path="url(#pd52c1e15f9)" style="fill:#7dff7a"/><path d="M24.192 109.778v6.837l1.442-.36-1.802 3.603-1.802-3.603 1.442.36v-6.837zM35.28 109.778v6.837l1.442-.36-1.802 3.603-1.802-3.603 1.442.36v-6.837zM46.368 109.778v6.837l1.442-.36-1.802 3.603-1.802-3.603 1.442.36v-6.837zM57.456 109.778v6.837l1.442-.36-1.802 3.603-1.802-3.603 1.442.36v-6.837zM68.544 109.778v6.837l1.442-.36-1.802 3.603-1.802-3.603 1.442.36v-6.837zM79.632 109.778v6.837l1.442-.36-1.802 3.603-1.802-3.603 1.442.36v-6.837zM90.72 109.778v6.837l1.442-.36-1.802 3.603-1.802-3.603 1.442.36v-6.837zM101.808 109.778v6.837l1.442-.36-1.802 3.603-1.802-3.603 1.442.36v-6.837zM112.896 109.778v6.837l1.442-.36-1.802 3.603-1.802-3.603 1.442.36v-6.837zM123.984 109.778v6.837l1.442-.36-1.802 3.603-1.802-3.603 1.442.36v-6.837zM135.072 109.778v6.837l1.442-.36-1.802 3.603-1.802-3.603 1.442.36v-6.837z" clip-path="url(#pd52c1e15f9)" style="fill:#ceff29"/><path d="M24.192 84.34v6.838l1.442-.36-1.802 3.603-1.802-3.604 1.442.36v-6.836zM35.28 84.34v6.838l1.442-.36-1.802 3.603-1.802-3.604 1.442.36v-6.836zM46.368 84.34v6.838l1.442-.36-1.802 3.603-1.802-3.604 1.442.36v-6.836zM57.456 84.34v6.838l1.442-.36-1.802 3.603-1.802-3.604 1.442.36v-6.836zM68.544 84.34v6.838l1.442-.36-1.802 3.603-1.802-3.604 1.442.36v-6.836zM79.632 84.34v6.838l1.442-.36-1.802 3.603-1.802-3.604 1.442.36v-6.836zM90.72 84.34v6.838l1.442-.36-1.802 3.603-1.802-3.604 1.442.36v-6.836zM101.808 84.34v6.838l1.442-.36-1.802 3.603-1.802-3.604 1.442.36v-6.836zM112.896 84.34v6.838l1.442-.36-1.802 3.603-1.802-3.604 1.442.36v-6.836zM123.984 84.34v6.838l1.442-.36-1.802 3.603-1.802-3.604 1.442.36v-6.836zM135.072 84.34v6.838l1.442-.36-1.802 3.603-1.802-3.604 1.442.36v-6.836z" clip-path="url(#pd52c1e15f9)" style="fill:#ffc400"/><path d="M24.192 58.903v6.837l1.442-.36-1.802 3.603-1.802-3.603 1.442.36v-6.837zM35.28 58.903v6.837l1.442-.36-1.802 3.603-1.802-3.603 1.442.36v-6.837zM46.368 58.903v6.837l1.442-.36-1.802 3.603-1.802-3.603 1.442.36v-6.837zM57.456 58.903v6.837l1.442-.36-1.802 3.603-1.802-3.603 1.442.36v-6.837zM68.544 58.903v6.837l1.442-.36-1.802 3.603-1.802-3.603 1.442.36v-6.837zM79.632 58.903v6.837l1.442-.36-1.802 3.603-1.802-3.603 1.442.36v-6.837zM90.72 58.903v6.837l1.442-.36-1.802 3.603-1.802-3.603 1.442.36v-6.837zM101.808 58.903v6.837l1.442-.36-1.802 3.603-1.802-3.603 1.442.36v-6.837zM112.896 58.903v6.837l1.442-.36-1.802 3.603-1.802-3.603 1.442.36v-6.837zM123.984 58.903v6.837l1.442-.36-1.802 3.603-1.802-3.603 1.442.36v-6.837zM135.072 58.903v6.837l1.442-.36-1.802 3.603-1.802-3.603 1.442.36v-6.837z" clip-path="url(#pd52c1e15f9)" style="fill:#ff6800"/><path d="M24.192 33.466v6.836l1.442-.36-1.802 3.604-1.802-3.604 1.442.36v-6.836zM35.28 33.466v6.836l1.442-.36-1.802 3.604-1.802-3.604 1.442.36v-6.836zM46.368 33.466v6.836l1.442-.36-1.802 3.604-1.802-3.604 1.442.36v-6.836zM57.456 33.466v6.836l1.442-.36-1.802 3.604-1.802-3.604 1.442.36v-6.836zM68.544 33.466v6.836l1.442-.36-1.802 3.604-1.802-3.604 1.442.36v-6.836zM79.632 33.466v6.836l1.442-.36-1.802 3.604-1.802-3.604 1.442.36v-6.836zM90.72 33.466v6.836l1.442-.36-1.802 3.604-1.802-3.604 1.442.36v-6.836zM101.808 33.466v6.836l1.442-.36-1.802 3.604-1.802-3.604 1.442.36v-6.836zM112.896 33.466v6.836l1.442-.36-1.802 3.604-1.802-3.604 1.442.36v-6.836zM123.984 33.466v6.836l1.442-.36-1.802 3.604-1.802-3.604 1.442.36v-6.836zM135.072 33.466v6.836l1.442-.36-1.802 3.604-1.802-3.604 1.442.36v-6.836z" clip-path="url(#pd52c1e15f9)" style="fill:#f10800"/><path d="M24.192 8.028v6.837l1.442-.36-1.802 3.603-1.802-3.604 1.442.36V8.029zM35.28 8.028v6.837l1.442-.36-1.802 3.603-1.802-3.604 1.442.36V8.029zM46.368 8.028v6.837l1.442-.36-1.802 3.603-1.802-3.604 1.442.36V8.029zM57.456 8.028v6.837l1.442-.36-1.802 3.603-1.802-3.604 1.442.36V8.029zM68.544 8.028v6.837l1.442-.36-1.802 3.603-1.802-3.604 1.442.36V8.029zM79.632 8.028v6.837l1.442-.36-1.802 3.603-1.802-3.604 1.442.36V8.029zM90.72 8.028v6.837l1.442-.36-1.802 3.603-1.802-3.604 1.442.36V8.029zM101.808 8.028v6.837l1.442-.36-1.802 3.603-1.802-3.604 1.442.36V8.029zM112.896 8.028v6.837l1.442-.36-1.802 3.603-1.802-3.604 1.442.36V8.029zM123.984 8.028v6.837l1.442-.36-1.802 3.603-1.802-3.604 1.442.36V8.029zM135.072 8.028v6.837l1.442-.36-1.802 3.603-1.802-3.604 1.442.36V8.029z" clip-path="url(#pd52c1e15f9)" style="fill:maroon"/></g><g id="text_1" style="fill:gray" transform="matrix(.1 0 0 -.1 145.8 134.712)"><defs><path id="DejaVuSans-79" d="M2059-325q-243-625-475-815-231-191-618-191H506v481h338q237 0 368 113 132 112 291 531l103 262L191 3500h609L1894 763l1094 2737h609z" transform="scale(.01563)"/><path id="DejaVuSans-27" d="M1147 4666V2931H616v1735z" transform="scale(.01563)"/></defs><use xlink:href="#DejaVuSans-79"/><use xlink:href="#DejaVuSans-27" x="59.18"/></g><g id="text_2" style="fill:gray" transform="matrix(.1 0 0 -.1 84.816 18.288)"><defs><path id="DejaVuSans-7a" d="M353 3500h2731v-525L922 459h2162V0H275v525l2163 2516H353z" transform="scale(.01563)"/></defs><use xlink:href="#DejaVuSans-7a"/><use xlink:href="#DejaVuSans-27" x="52.49"/></g><g id="text_3" transform="matrix(.1 0 0 -.1 162.432 269.662)"><defs><path id="DejaVuSans-74" d="M1172 4494v-994h1184v-447H1172V1153q0-428 117-550t477-122h590V0h-590q-666 0-919 248-253 249-253 905v1900H172v447h422v994z" transform="scale(.01563)"/><path id="DejaVuSans-3d" d="M678 2906h4006v-525H678zm0-1275h4006v-531H678z" transform="scale(.01563)"/><path id="DejaVuSans-32" d="M1228 531h2203V0H469v531q359 372 979 998 621 627 780 809 303 340 423 576 121 236 121 464 0 372-261 606-261 235-680 235-297 0-627-103-329-103-704-313v638q381 153 712 231 332 78 607 78 725 0 1156-363 431-362 431-968 0-288-108-546-107-257-392-607-78-91-497-524-418-433-1181-1211" transform="scale(.01563)"/><path id="DejaVuSans-30" d="M2034 4250q-487 0-733-480-245-479-245-1442 0-959 245-1439 246-480 733-480 491 0 736 480 246 480 246 1439 0 963-246 1442-245 480-736 480m0 500q785 0 1199-621 414-620 414-1801 0-1178-414-1799Q2819-91 2034-91q-784 0-1198 620-414 621-414 1799 0 1181 414 1801 414 621 1198 621" transform="scale(.01563)"/><path id="DejaVuSans-2e" d="M684 794h660V0H684z" transform="scale(.01563)"/><path id="DejaVuSans-36" d="M2113 2584q-425 0-674-291-248-290-248-796 0-503 248-796 249-292 674-292t673 292q248 293 248 796 0 506-248 796-248 291-673 291m1253 1979v-575q-238 112-480 171-242 60-480 60-625 0-955-422-329-422-376-1275 184 272 462 417 279 145 613 145 703 0 1111-427 408-426 408-1160 0-719-425-1154Q2819-91 2113-91q-810 0-1238 620-428 621-428 1799 0 1106 525 1764t1409 658q238 0 480-47t505-140" transform="scale(.01563)"/></defs><use xlink:href="#DejaVuSans-74"/><use xlink:href="#DejaVuSans-27" x="39.209"/><use xlink:href="#DejaVuSans-3d" x="98.486"/><use xlink:href="#DejaVuSans-32" x="214.063"/><use xlink:href="#DejaVuSans-30" x="277.686"/><use xlink:href="#DejaVuSans-2e" x="341.309"/><use xlink:href="#DejaVuSans-36" x="373.096"/></g><g id="text_4" transform="matrix(.1 0 0 -.1 162.432 244.224)"><defs><path id="DejaVuSans-31" d="M794 531h1031v3560L703 3866v575l1116 225h631V531h1031V0H794z" transform="scale(.01563)"/><path id="DejaVuSans-35" d="M691 4666h2478v-532H1269V2991q137 47 274 70 138 23 276 23 781 0 1237-428 457-428 457-1159 0-753-469-1171Q2575-91 1722-91q-294 0-599 50Q819 9 494 109v635q281-153 581-228t634-75q541 0 856 284 316 284 316 772 0 487-316 771-315 285-856 285-253 0-505-56-251-56-513-175z" transform="scale(.01563)"/></defs><use xlink:href="#DejaVuSans-74"/><use xlink:href="#DejaVuSans-27" x="39.209"/><use xlink:href="#DejaVuSans-3d" x="98.486"/><use xlink:href="#DejaVuSans-31" x="214.063"/><use xlink:href="#DejaVuSans-36" x="277.686"/><use xlink:href="#DejaVuSans-2e" x="341.309"/><use xlink:href="#DejaVuSans-35" x="373.096"/></g><g id="text_5" transform="matrix(.1 0 0 -.1 162.432 218.786)"><defs><path id="DejaVuSans-34" d="M2419 4116 825 1625h1594zm-166 550h794V1625h666v-525h-666V0h-628v1100H313v609z" transform="scale(.01563)"/></defs><use xlink:href="#DejaVuSans-74"/><use xlink:href="#DejaVuSans-27" x="39.209"/><use xlink:href="#DejaVuSans-3d" x="98.486"/><use xlink:href="#DejaVuSans-31" x="214.063"/><use xlink:href="#DejaVuSans-32" x="277.686"/><use xlink:href="#DejaVuSans-2e" x="341.309"/><use xlink:href="#DejaVuSans-34" x="373.096"/></g><g id="text_6" transform="matrix(.1 0 0 -.1 162.432 193.349)"><defs><path id="DejaVuSans-38" d="M2034 2216q-450 0-708-241-257-241-257-662 0-422 257-663 258-241 708-241t709 242q260 243 260 662 0 421-258 662-257 241-711 241m-631 268q-406 100-633 378-226 279-226 679 0 559 398 884 399 325 1092 325 697 0 1094-325t397-884q0-400-227-679-226-278-629-378 456-106 710-416 255-309 255-755 0-679-414-1042Q2806-91 2034-91q-771 0-1186 362-414 363-414 1042 0 446 256 755 257 310 713 416m-231 997q0-362 226-565 227-203 636-203 407 0 636 203 230 203 230 565 0 363-230 566-229 203-636 203-409 0-636-203-226-203-226-566" transform="scale(.01563)"/><path id="DejaVuSans-33" d="M2597 2516q453-97 707-404 255-306 255-756 0-690-475-1069Q2609-91 1734-91q-293 0-604 58T488 141v609q262-153 574-231 313-78 654-78 593 0 904 234t311 681q0 413-289 645-289 233-804 233h-544v519h569q465 0 712 186t247 536q0 359-255 551-254 193-729 193-260 0-557-57-297-56-653-174v562q360 100 674 150t592 50q719 0 1137-327 419-326 419-882 0-388-222-655t-631-370" transform="scale(.01563)"/></defs><use xlink:href="#DejaVuSans-74"/><use xlink:href="#DejaVuSans-27" x="39.209"/><use xlink:href="#DejaVuSans-3d" x="98.486"/><use xlink:href="#DejaVuSans-38" x="214.063"/><use xlink:href="#DejaVuSans-2e" x="277.686"/><use xlink:href="#DejaVuSans-33" x="309.473"/></g><g id="text_7" transform="matrix(.1 0 0 -.1 162.432 167.911)"><use xlink:href="#DejaVuSans-74"/><use xlink:href="#DejaVuSans-27" x="39.209"/><use xlink:href="#DejaVuSans-3d" x="98.486"/><use xlink:href="#DejaVuSans-34" x="214.063"/><use xlink:href="#DejaVuSans-2e" x="277.686"/><use xlink:href="#DejaVuSans-31" x="309.473"/></g><g id="text_8" transform="matrix(.1 0 0 -.1 162.432 142.474)"><use xlink:href="#DejaVuSans-74"/><use xlink:href="#DejaVuSans-27" x="39.209"/><use xlink:href="#DejaVuSans-3d" x="98.486"/><use xlink:href="#DejaVuSans-30" x="214.063"/><use xlink:href="#DejaVuSans-2e" x="277.686"/><use xlink:href="#DejaVuSans-30" x="309.473"/></g><g id="text_9" transform="matrix(.1 0 0 -.1 162.432 117.036)"><defs><path id="DejaVuSans-2d" d="M313 2009h1684v-512H313z" transform="scale(.01563)"/></defs><use xlink:href="#DejaVuSans-74"/><use xlink:href="#DejaVuSans-27" x="39.209"/><use xlink:href="#DejaVuSans-3d" x="98.486"/><use xlink:href="#DejaVuSans-2d" x="214.063"/><use xlink:href="#DejaVuSans-34" x="250.146"/><use xlink:href="#DejaVuSans-2e" x="313.77"/><use xlink:href="#DejaVuSans-31" x="345.557"/></g><g id="text_10" transform="matrix(.1 0 0 -.1 162.432 91.598)"><use xlink:href="#DejaVuSans-74"/><use xlink:href="#DejaVuSans-27" x="39.209"/><use xlink:href="#DejaVuSans-3d" x="98.486"/><use xlink:href="#DejaVuSans-2d" x="214.063"/><use xlink:href="#DejaVuSans-38" x="250.146"/><use xlink:href="#DejaVuSans-2e" x="313.77"/><use xlink:href="#DejaVuSans-33" x="345.557"/></g><g id="text_11" transform="matrix(.1 0 0 -.1 162.432 66.16)"><use xlink:href="#DejaVuSans-74"/><use xlink:href="#DejaVuSans-27" x="39.209"/><use xlink:href="#DejaVuSans-3d" x="98.486"/><use xlink:href="#DejaVuSans-2d" x="214.063"/><use xlink:href="#DejaVuSans-31" x="250.146"/><use xlink:href="#DejaVuSans-32" x="313.77"/><use xlink:href="#DejaVuSans-2e" x="377.393"/><use xlink:href="#DejaVuSans-34" x="409.18"/></g><g id="text_12" transform="matrix(.1 0 0 -.1 162.432 40.723)"><use xlink:href="#DejaVuSans-74"/><use xlink:href="#DejaVuSans-27" x="39.209"/><use xlink:href="#DejaVuSans-3d" x="98.486"/><use xlink:href="#DejaVuSans-2d" x="214.063"/><use xlink:href="#DejaVuSans-31" x="250.146"/><use xlink:href="#DejaVuSans-36" x="313.77"/><use xlink:href="#DejaVuSans-2e" x="377.393"/><use xlink:href="#DejaVuSans-35" x="409.18"/></g><g id="text_13" transform="matrix(.1 0 0 -.1 162.432 15.286)"><use xlink:href="#DejaVuSans-74"/><use xlink:href="#DejaVuSans-27" x="39.209"/><use xlink:href="#DejaVuSans-3d" x="98.486"/><use xlink:href="#DejaVuSans-2d" x="214.063"/><use xlink:href="#DejaVuSans-32" x="250.146"/><use xlink:href="#DejaVuSans-30" x="313.77"/><use xlink:href="#DejaVuSans-2e" x="377.393"/><use xlink:href="#DejaVuSans-36" x="409.18"/></g></g></g><defs><clipPath id="pd52c1e15f9"><path d="M7.2 7.2h144.144v266.112H7.2z"/></clipPath></defs></svg>