<?xml version="1.0" encoding="utf-8" standalone="no"?>
<!DOCTYPE svg PUBLIC "-//W3C//DTD SVG 1.1//EN"
  "http://www.w3.org/Graphics/SVG/1.1/DTD/svg11.dtd">
<svg xmlns:xlink="http://www.w3.org/1999/xlink" width="161.667187pt" height="280.512pt" viewBox="0 0 161.667187 280.512" xmlns="http://www.w3.org/2000/svg" version="1.1">
 <metadata>
  <rdf:RDF xmlns:dc="http://purl.org/dc/elements/1.1/" xmlns:cc="http://creativecommons.org/ns#" xmlns:rdf="http://www.w3.org/1999/02/22-rdf-syntax-ns#">
   <cc:Work>
    <dc:type rdf:resource="http://purl.org/dc/dcmitype/StillImage"/>
    <dc:date>2024-07-01T20:22:56.368096</dc:date>
    <dc:format>image/svg+xml</dc:format>
    <dc:creator>
     <cc:Agent>
      <dc:title>Matplotlib v3.9.0, https://matplotlib.org/</dc:title>
     </cc:Agent>
    </dc:creator>
   </cc:Work>
  </rdf:RDF>
 </metadata>
 <defs>
  <style type="text/css">*{stroke-linejoin: round; stroke-linecap: butt}</style>
 </defs>
 <g id="figure_1">
  <g id="patch_1">
   <path d="M 0 280.512 
L 161.667187 280.512 
L 161.667187 0 
L 0 0 
L 0 280.512 
z
" style="fill: none"/>
  </g>
  <g id="axes_1">
   <g id="patch_2">
    <path d="M 151.344 140.256 
L 145.8 143.8596 
L 147.0936 140.258772 
L 7.2 140.258772 
L 7.2 140.253228 
L 147.0936 140.253228 
L 145.8 136.6524 
z
" clip-path="url(#p2c6bb38b37)" style="fill: #808080; stroke: #808080; stroke-linejoin: miter"/>
   </g>
   <g id="patch_3">
    <path d="M 79.272 7.2 
L 82.8756 12.744 
L 79.274772 11.4504 
L 79.274772 273.312 
L 79.269228 273.312 
L 79.269228 11.4504 
L 75.6684 12.744 
z
" clip-path="url(#p2c6bb38b37)" style="fill: #808080; stroke: #808080; stroke-linejoin: miter"/>
   </g>
   <g id="Quiver_1">
    <path d="M 24.19236 100.520082 
L 24.19236 107.356842 
L 25.6338 106.996482 
L 23.832 110.600082 
L 22.0302 106.996482 
L 23.47164 107.356842 
L 23.47164 100.520082 
L 24.19236 100.520082 
" clip-path="url(#p2c6bb38b37)"/>
    <path d="M 35.28036 115.811886 
L 35.28036 122.648646 
L 36.7218 122.288286 
L 34.92 125.891886 
L 33.1182 122.288286 
L 34.55964 122.648646 
L 34.55964 115.811886 
L 35.28036 115.811886 
" clip-path="url(#p2c6bb38b37)"/>
    <path d="M 46.36836 128.911116 
L 46.36836 135.747876 
L 47.8098 135.387516 
L 46.008 138.991116 
L 44.2062 135.387516 
L 45.64764 135.747876 
L 45.64764 128.911116 
L 46.36836 128.911116 
" clip-path="url(#p2c6bb38b37)"/>
    <path d="M 57.45636 139.116901 
L 57.45636 145.953661 
L 58.8978 145.593301 
L 57.096 149.196901 
L 55.2942 145.593301 
L 56.73564 145.953661 
L 56.73564 139.116901 
L 57.45636 139.116901 
" clip-path="url(#p2c6bb38b37)"/>
    <path d="M 68.54436 145.66787 
L 68.54436 152.50463 
L 69.9858 152.14427 
L 68.184 155.74787 
L 66.3822 152.14427 
L 67.82364 152.50463 
L 67.82364 145.66787 
L 68.54436 145.66787 
" clip-path="url(#p2c6bb38b37)"/>
    <path d="M 79.63236 147.934808 
L 79.63236 154.771568 
L 81.0738 154.411208 
L 79.272 158.014808 
L 77.4702 154.411208 
L 78.91164 154.771568 
L 78.91164 147.934808 
L 79.63236 147.934808 
" clip-path="url(#p2c6bb38b37)"/>
    <path d="M 90.72036 145.66787 
L 90.72036 152.50463 
L 92.1618 152.14427 
L 90.36 155.74787 
L 88.5582 152.14427 
L 89.99964 152.50463 
L 89.99964 145.66787 
L 90.72036 145.66787 
" clip-path="url(#p2c6bb38b37)"/>
    <path d="M 101.80836 139.116901 
L 101.80836 145.953661 
L 103.2498 145.593301 
L 101.448 149.196901 
L 99.6462 145.593301 
L 101.08764 145.953661 
L 101.08764 139.116901 
L 101.80836 139.116901 
" clip-path="url(#p2c6bb38b37)"/>
    <path d="M 112.89636 128.911116 
L 112.89636 135.747876 
L 114.3378 135.387516 
L 112.536 138.991116 
L 110.7342 135.387516 
L 112.17564 135.747876 
L 112.17564 128.911116 
L 112.89636 128.911116 
" clip-path="url(#p2c6bb38b37)"/>
    <path d="M 123.98436 115.811886 
L 123.98436 122.648646 
L 125.4258 122.288286 
L 123.624 125.891886 
L 121.8222 122.288286 
L 123.26364 122.648646 
L 123.26364 115.811886 
L 123.98436 115.811886 
" clip-path="url(#p2c6bb38b37)"/>
    <path d="M 135.07236 100.520082 
L 135.07236 107.356842 
L 136.5138 106.996482 
L 134.712 110.600082 
L 132.9102 106.996482 
L 134.35164 107.356842 
L 134.35164 100.520082 
L 135.07236 100.520082 
" clip-path="url(#p2c6bb38b37)"/>
    <path d="M 24.19236 90.374269 
L 24.19236 97.211029 
L 25.6338 96.850669 
L 23.832 100.454269 
L 22.0302 96.850669 
L 23.47164 97.211029 
L 23.47164 90.374269 
L 24.19236 90.374269 
" clip-path="url(#p2c6bb38b37)"/>
    <path d="M 35.28036 107.459266 
L 35.28036 114.296026 
L 36.7218 113.935666 
L 34.92 117.539266 
L 33.1182 113.935666 
L 34.55964 114.296026 
L 34.55964 107.459266 
L 35.28036 107.459266 
" clip-path="url(#p2c6bb38b37)"/>
    <path d="M 46.36836 122.497192 
L 46.36836 129.333952 
L 47.8098 128.973592 
L 46.008 132.577192 
L 44.2062 128.973592 
L 45.64764 129.333952 
L 45.64764 122.497192 
L 46.36836 122.497192 
" clip-path="url(#p2c6bb38b37)"/>
    <path d="M 57.45636 134.582035 
L 57.45636 141.418795 
L 58.8978 141.058435 
L 57.096 144.662035 
L 55.2942 141.058435 
L 56.73564 141.418795 
L 56.73564 134.582035 
L 57.45636 134.582035 
" clip-path="url(#p2c6bb38b37)"/>
    <path d="M 68.54436 142.572684 
L 68.54436 149.409444 
L 69.9858 149.049084 
L 68.184 152.652684 
L 66.3822 149.049084 
L 67.82364 149.409444 
L 67.82364 142.572684 
L 68.54436 142.572684 
" clip-path="url(#p2c6bb38b37)"/>
    <path d="M 79.63236 145.391047 
L 79.63236 152.227807 
L 81.0738 151.867447 
L 79.272 155.471047 
L 77.4702 151.867447 
L 78.91164 152.227807 
L 78.91164 145.391047 
L 79.63236 145.391047 
" clip-path="url(#p2c6bb38b37)"/>
    <path d="M 90.72036 142.572684 
L 90.72036 149.409444 
L 92.1618 149.049084 
L 90.36 152.652684 
L 88.5582 149.049084 
L 89.99964 149.409444 
L 89.99964 142.572684 
L 90.72036 142.572684 
" clip-path="url(#p2c6bb38b37)"/>
    <path d="M 101.80836 134.582035 
L 101.80836 141.418795 
L 103.2498 141.058435 
L 101.448 144.662035 
L 99.6462 141.058435 
L 101.08764 141.418795 
L 101.08764 134.582035 
L 101.80836 134.582035 
" clip-path="url(#p2c6bb38b37)"/>
    <path d="M 112.89636 122.497192 
L 112.89636 129.333952 
L 114.3378 128.973592 
L 112.536 132.577192 
L 110.7342 128.973592 
L 112.17564 129.333952 
L 112.17564 122.497192 
L 112.89636 122.497192 
" clip-path="url(#p2c6bb38b37)"/>
    <path d="M 123.98436 107.459266 
L 123.98436 114.296026 
L 125.4258 113.935666 
L 123.624 117.539266 
L 121.8222 113.935666 
L 123.26364 114.296026 
L 123.26364 107.459266 
L 123.98436 107.459266 
" clip-path="url(#p2c6bb38b37)"/>
    <path d="M 135.07236 90.374269 
L 135.07236 97.211029 
L 136.5138 96.850669 
L 134.712 100.454269 
L 132.9102 96.850669 
L 134.35164 97.211029 
L 134.35164 90.374269 
L 135.07236 90.374269 
" clip-path="url(#p2c6bb38b37)"/>
    <path d="M 24.19236 78.035883 
L 24.19236 84.872643 
L 25.6338 84.512283 
L 23.832 88.115883 
L 22.0302 84.512283 
L 23.47164 84.872643 
L 23.47164 78.035883 
L 24.19236 78.035883 
" clip-path="url(#p2c6bb38b37)"/>
    <path d="M 35.28036 97.059575 
L 35.28036 103.896335 
L 36.7218 103.535975 
L 34.92 107.139575 
L 33.1182 103.535975 
L 34.55964 103.896335 
L 34.55964 97.059575 
L 35.28036 97.059575 
" clip-path="url(#p2c6bb38b37)"/>
    <path d="M 46.36836 114.398449 
L 46.36836 121.235209 
L 47.8098 120.874849 
L 46.008 124.478449 
L 44.2062 120.874849 
L 45.64764 121.235209 
L 45.64764 114.398449 
L 46.36836 114.398449 
" clip-path="url(#p2c6bb38b37)"/>
    <path d="M 57.45636 128.983882 
L 57.45636 135.820642 
L 58.8978 135.460282 
L 57.096 139.063882 
L 55.2942 135.460282 
L 56.73564 135.820642 
L 56.73564 128.983882 
L 57.45636 128.983882 
" clip-path="url(#p2c6bb38b37)"/>
    <path d="M 68.54436 139.132124 
L 68.54436 145.968884 
L 69.9858 145.608524 
L 68.184 149.212124 
L 66.3822 145.608524 
L 67.82364 145.968884 
L 67.82364 139.132124 
L 68.54436 139.132124 
" clip-path="url(#p2c6bb38b37)"/>
    <path d="M 79.63236 142.847285 
L 79.63236 149.684045 
L 81.0738 149.323685 
L 79.272 152.927285 
L 77.4702 149.323685 
L 78.91164 149.684045 
L 78.91164 142.847285 
L 79.63236 142.847285 
" clip-path="url(#p2c6bb38b37)"/>
    <path d="M 90.72036 139.132124 
L 90.72036 145.968884 
L 92.1618 145.608524 
L 90.36 149.212124 
L 88.5582 145.608524 
L 89.99964 145.968884 
L 89.99964 139.132124 
L 90.72036 139.132124 
" clip-path="url(#p2c6bb38b37)"/>
    <path d="M 101.80836 128.983882 
L 101.80836 135.820642 
L 103.2498 135.460282 
L 101.448 139.063882 
L 99.6462 135.460282 
L 101.08764 135.820642 
L 101.08764 128.983882 
L 101.80836 128.983882 
" clip-path="url(#p2c6bb38b37)"/>
    <path d="M 112.89636 114.398449 
L 112.89636 121.235209 
L 114.3378 120.874849 
L 112.536 124.478449 
L 110.7342 120.874849 
L 112.17564 121.235209 
L 112.17564 114.398449 
L 112.89636 114.398449 
" clip-path="url(#p2c6bb38b37)"/>
    <path d="M 123.98436 97.059575 
L 123.98436 103.896335 
L 125.4258 103.535975 
L 123.624 107.139575 
L 121.8222 103.535975 
L 123.26364 103.896335 
L 123.26364 97.059575 
L 123.98436 97.059575 
" clip-path="url(#p2c6bb38b37)"/>
    <path d="M 135.07236 78.035883 
L 135.07236 84.872643 
L 136.5138 84.512283 
L 134.712 88.115883 
L 132.9102 84.512283 
L 134.35164 84.872643 
L 134.35164 78.035883 
L 135.07236 78.035883 
" clip-path="url(#p2c6bb38b37)"/>
    <path d="M 24.19236 62.804051 
L 24.19236 69.640811 
L 25.6338 69.280451 
L 23.832 72.884051 
L 22.0302 69.280451 
L 23.47164 69.640811 
L 23.47164 62.804051 
L 24.19236 62.804051 
" clip-path="url(#p2c6bb38b37)"/>
    <path d="M 35.28036 83.706801 
L 35.28036 90.543561 
L 36.7218 90.183201 
L 34.92 93.786801 
L 33.1182 90.183201 
L 34.55964 90.543561 
L 34.55964 83.706801 
L 35.28036 83.706801 
" clip-path="url(#p2c6bb38b37)"/>
    <path d="M 46.36836 103.546265 
L 46.36836 110.383025 
L 47.8098 110.022665 
L 46.008 113.626265 
L 44.2062 110.022665 
L 45.64764 110.383025 
L 45.64764 103.546265 
L 46.36836 103.546265 
" clip-path="url(#p2c6bb38b37)"/>
    <path d="M 57.45636 121.337633 
L 57.45636 128.174393 
L 58.8978 127.814033 
L 57.096 131.417633 
L 55.2942 127.814033 
L 56.73564 128.174393 
L 56.73564 121.337633 
L 57.45636 121.337633 
" clip-path="url(#p2c6bb38b37)"/>
    <path d="M 68.54436 134.899017 
L 68.54436 141.735777 
L 69.9858 141.375417 
L 68.184 144.979017 
L 66.3822 141.375417 
L 67.82364 141.735777 
L 67.82364 134.899017 
L 68.54436 134.899017 
" clip-path="url(#p2c6bb38b37)"/>
    <path d="M 79.63236 140.303523 
L 79.63236 147.140283 
L 81.0738 146.779923 
L 79.272 150.383523 
L 77.4702 146.779923 
L 78.91164 147.140283 
L 78.91164 140.303523 
L 79.63236 140.303523 
" clip-path="url(#p2c6bb38b37)"/>
    <path d="M 90.72036 134.899017 
L 90.72036 141.735777 
L 92.1618 141.375417 
L 90.36 144.979017 
L 88.5582 141.375417 
L 89.99964 141.735777 
L 89.99964 134.899017 
L 90.72036 134.899017 
" clip-path="url(#p2c6bb38b37)"/>
    <path d="M 101.80836 121.337633 
L 101.80836 128.174393 
L 103.2498 127.814033 
L 101.448 131.417633 
L 99.6462 127.814033 
L 101.08764 128.174393 
L 101.08764 121.337633 
L 101.80836 121.337633 
" clip-path="url(#p2c6bb38b37)"/>
    <path d="M 112.89636 103.546265 
L 112.89636 110.383025 
L 114.3378 110.022665 
L 112.536 113.626265 
L 110.7342 110.022665 
L 112.17564 110.383025 
L 112.17564 103.546265 
L 112.89636 103.546265 
" clip-path="url(#p2c6bb38b37)"/>
    <path d="M 123.98436 83.706801 
L 123.98436 90.543561 
L 125.4258 90.183201 
L 123.624 93.786801 
L 121.8222 90.183201 
L 123.26364 90.543561 
L 123.26364 83.706801 
L 123.98436 83.706801 
" clip-path="url(#p2c6bb38b37)"/>
    <path d="M 135.07236 62.804051 
L 135.07236 69.640811 
L 136.5138 69.280451 
L 134.712 72.884051 
L 132.9102 69.280451 
L 134.35164 69.640811 
L 134.35164 62.804051 
L 135.07236 62.804051 
" clip-path="url(#p2c6bb38b37)"/>
    <path d="M 24.19236 43.917404 
L 24.19236 50.754164 
L 25.6338 50.393804 
L 23.832 53.997404 
L 22.0302 50.393804 
L 23.47164 50.754164 
L 23.47164 43.917404 
L 24.19236 43.917404 
" clip-path="url(#p2c6bb38b37)"/>
    <path d="M 35.28036 66.259835 
L 35.28036 73.096595 
L 36.7218 72.736235 
L 34.92 76.339835 
L 33.1182 72.736235 
L 34.55964 73.096595 
L 34.55964 66.259835 
L 35.28036 66.259835 
" clip-path="url(#p2c6bb38b37)"/>
    <path d="M 46.36836 88.256891 
L 46.36836 95.093651 
L 47.8098 94.733291 
L 46.008 98.336891 
L 44.2062 94.733291 
L 45.64764 95.093651 
L 45.64764 88.256891 
L 46.36836 88.256891 
" clip-path="url(#p2c6bb38b37)"/>
    <path d="M 57.45636 109.461401 
L 57.45636 116.298161 
L 58.8978 115.937801 
L 57.096 119.541401 
L 55.2942 115.937801 
L 56.73564 116.298161 
L 56.73564 109.461401 
L 57.45636 109.461401 
" clip-path="url(#p2c6bb38b37)"/>
    <path d="M 68.54436 128.276816 
L 68.54436 135.113576 
L 69.9858 134.753216 
L 68.184 138.356816 
L 66.3822 134.753216 
L 67.82364 135.113576 
L 67.82364 128.276816 
L 68.54436 128.276816 
" clip-path="url(#p2c6bb38b37)"/>
    <path d="M 79.63236 137.759762 
L 79.63236 144.596522 
L 81.0738 144.236162 
L 79.272 147.839762 
L 77.4702 144.236162 
L 78.91164 144.596522 
L 78.91164 137.759762 
L 79.63236 137.759762 
" clip-path="url(#p2c6bb38b37)"/>
    <path d="M 90.72036 128.276816 
L 90.72036 135.113576 
L 92.1618 134.753216 
L 90.36 138.356816 
L 88.5582 134.753216 
L 89.99964 135.113576 
L 89.99964 128.276816 
L 90.72036 128.276816 
" clip-path="url(#p2c6bb38b37)"/>
    <path d="M 101.80836 109.461401 
L 101.80836 116.298161 
L 103.2498 115.937801 
L 101.448 119.541401 
L 99.6462 115.937801 
L 101.08764 116.298161 
L 101.08764 109.461401 
L 101.80836 109.461401 
" clip-path="url(#p2c6bb38b37)"/>
    <path d="M 112.89636 88.256891 
L 112.89636 95.093651 
L 114.3378 94.733291 
L 112.536 98.336891 
L 110.7342 94.733291 
L 112.17564 95.093651 
L 112.17564 88.256891 
L 112.89636 88.256891 
" clip-path="url(#p2c6bb38b37)"/>
    <path d="M 123.98436 66.259835 
L 123.98436 73.096595 
L 125.4258 72.736235 
L 123.624 76.339835 
L 121.8222 72.736235 
L 123.26364 73.096595 
L 123.26364 66.259835 
L 123.98436 66.259835 
" clip-path="url(#p2c6bb38b37)"/>
    <path d="M 135.07236 43.917404 
L 135.07236 50.754164 
L 136.5138 50.393804 
L 134.712 53.997404 
L 132.9102 50.393804 
L 134.35164 50.754164 
L 134.35164 43.917404 
L 135.07236 43.917404 
" clip-path="url(#p2c6bb38b37)"/>
    <path d="M 24.19236 20.746725 
L 24.19236 27.583485 
L 25.6338 27.223125 
L 23.832 30.826725 
L 22.0302 27.223125 
L 23.47164 27.583485 
L 23.47164 20.746725 
L 24.19236 20.746725 
" clip-path="url(#p2c6bb38b37)"/>
    <path d="M 35.28036 43.64058 
L 35.28036 50.47734 
L 36.7218 50.11698 
L 34.92 53.72058 
L 33.1182 50.11698 
L 34.55964 50.47734 
L 34.55964 43.64058 
L 35.28036 43.64058 
" clip-path="url(#p2c6bb38b37)"/>
    <path d="M 46.36836 66.534435 
L 46.36836 73.371195 
L 47.8098 73.010835 
L 46.008 76.614435 
L 44.2062 73.010835 
L 45.64764 73.371195 
L 45.64764 66.534435 
L 46.36836 66.534435 
" clip-path="url(#p2c6bb38b37)"/>
    <path d="M 57.45636 89.42829 
L 57.45636 96.26505 
L 58.8978 95.90469 
L 57.096 99.50829 
L 55.2942 95.90469 
L 56.73564 96.26505 
L 56.73564 89.42829 
L 57.45636 89.42829 
" clip-path="url(#p2c6bb38b37)"/>
    <path d="M 68.54436 112.322145 
L 68.54436 119.158905 
L 69.9858 118.798545 
L 68.184 122.402145 
L 66.3822 118.798545 
L 67.82364 119.158905 
L 67.82364 112.322145 
L 68.54436 112.322145 
" clip-path="url(#p2c6bb38b37)"/>
    <path d="M 79.63236 135.216 
L 79.63236 142.05276 
L 81.0738 141.6924 
L 79.272 145.296 
L 77.4702 141.6924 
L 78.91164 142.05276 
L 78.91164 135.216 
L 79.63236 135.216 
" clip-path="url(#p2c6bb38b37)"/>
    <path d="M 90.72036 112.322145 
L 90.72036 119.158905 
L 92.1618 118.798545 
L 90.36 122.402145 
L 88.5582 118.798545 
L 89.99964 119.158905 
L 89.99964 112.322145 
L 90.72036 112.322145 
" clip-path="url(#p2c6bb38b37)"/>
    <path d="M 101.80836 89.42829 
L 101.80836 96.26505 
L 103.2498 95.90469 
L 101.448 99.50829 
L 99.6462 95.90469 
L 101.08764 96.26505 
L 101.08764 89.42829 
L 101.80836 89.42829 
" clip-path="url(#p2c6bb38b37)"/>
    <path d="M 112.89636 66.534435 
L 112.89636 73.371195 
L 114.3378 73.010835 
L 112.536 76.614435 
L 110.7342 73.010835 
L 112.17564 73.371195 
L 112.17564 66.534435 
L 112.89636 66.534435 
" clip-path="url(#p2c6bb38b37)"/>
    <path d="M 123.98436 43.64058 
L 123.98436 50.47734 
L 125.4258 50.11698 
L 123.624 53.72058 
L 121.8222 50.11698 
L 123.26364 50.47734 
L 123.26364 43.64058 
L 123.98436 43.64058 
" clip-path="url(#p2c6bb38b37)"/>
    <path d="M 135.07236 20.746725 
L 135.07236 27.583485 
L 136.5138 27.223125 
L 134.712 30.826725 
L 132.9102 27.223125 
L 134.35164 27.583485 
L 134.35164 20.746725 
L 135.07236 20.746725 
" clip-path="url(#p2c6bb38b37)"/>
    <path d="M 24.19236 -6.95783 
L 24.19236 -0.12107 
L 25.6338 -0.48143 
L 23.832 3.12217 
L 22.0302 -0.48143 
L 23.47164 -0.12107 
L 23.47164 -6.95783 
L 24.19236 -6.95783 
" clip-path="url(#p2c6bb38b37)"/>
    <path d="M 35.28036 15.384601 
L 35.28036 22.221361 
L 36.7218 21.861001 
L 34.92 25.464601 
L 33.1182 21.861001 
L 34.55964 22.221361 
L 34.55964 15.384601 
L 35.28036 15.384601 
" clip-path="url(#p2c6bb38b37)"/>
    <path d="M 46.36836 37.381657 
L 46.36836 44.218417 
L 47.8098 43.858057 
L 46.008 47.461657 
L 44.2062 43.858057 
L 45.64764 44.218417 
L 45.64764 37.381657 
L 46.36836 37.381657 
" clip-path="url(#p2c6bb38b37)"/>
    <path d="M 57.45636 58.586168 
L 57.45636 65.422928 
L 58.8978 65.062568 
L 57.096 68.666168 
L 55.2942 65.062568 
L 56.73564 65.422928 
L 56.73564 58.586168 
L 57.45636 58.586168 
" clip-path="url(#p2c6bb38b37)"/>
    <path d="M 68.54436 77.401583 
L 68.54436 84.238343 
L 69.9858 83.877983 
L 68.184 87.481583 
L 66.3822 83.877983 
L 67.82364 84.238343 
L 67.82364 77.401583 
L 68.54436 77.401583 
" clip-path="url(#p2c6bb38b37)"/>
    <path d="M 79.63236 86.884529 
L 79.63236 93.721289 
L 81.0738 93.360929 
L 79.272 96.964529 
L 77.4702 93.360929 
L 78.91164 93.721289 
L 78.91164 86.884529 
L 79.63236 86.884529 
" clip-path="url(#p2c6bb38b37)"/>
    <path d="M 90.72036 77.401583 
L 90.72036 84.238343 
L 92.1618 83.877983 
L 90.36 87.481583 
L 88.5582 83.877983 
L 89.99964 84.238343 
L 89.99964 77.401583 
L 90.72036 77.401583 
" clip-path="url(#p2c6bb38b37)"/>
    <path d="M 101.80836 58.586168 
L 101.80836 65.422928 
L 103.2498 65.062568 
L 101.448 68.666168 
L 99.6462 65.062568 
L 101.08764 65.422928 
L 101.08764 58.586168 
L 101.80836 58.586168 
" clip-path="url(#p2c6bb38b37)"/>
    <path d="M 112.89636 37.381657 
L 112.89636 44.218417 
L 114.3378 43.858057 
L 112.536 47.461657 
L 110.7342 43.858057 
L 112.17564 44.218417 
L 112.17564 37.381657 
L 112.89636 37.381657 
" clip-path="url(#p2c6bb38b37)"/>
    <path d="M 123.98436 15.384601 
L 123.98436 22.221361 
L 125.4258 21.861001 
L 123.624 25.464601 
L 121.8222 21.861001 
L 123.26364 22.221361 
L 123.26364 15.384601 
L 123.98436 15.384601 
" clip-path="url(#p2c6bb38b37)"/>
    <path d="M 135.07236 -6.95783 
L 135.07236 -0.12107 
L 136.5138 -0.48143 
L 134.712 3.12217 
L 132.9102 -0.48143 
L 134.35164 -0.12107 
L 134.35164 -6.95783 
L 135.07236 -6.95783 
" clip-path="url(#p2c6bb38b37)"/>
    <path d="M 24.19236 -38.946415 
L 24.19236 -32.109655 
L 25.6338 -32.470015 
L 23.832 -28.866415 
L 22.0302 -32.470015 
L 23.47164 -32.109655 
L 23.47164 -38.946415 
L 24.19236 -38.946415 
" clip-path="url(#p2c6bb38b37)"/>
    <path d="M 35.28036 -18.043665 
L 35.28036 -11.206905 
L 36.7218 -11.567265 
L 34.92 -7.963665 
L 33.1182 -11.567265 
L 34.55964 -11.206905 
L 34.55964 -18.043665 
L 35.28036 -18.043665 
" clip-path="url(#p2c6bb38b37)"/>
    <path d="M 46.36836 1.795799 
L 46.36836 8.632559 
L 47.8098 8.272199 
L 46.008 11.875799 
L 44.2062 8.272199 
L 45.64764 8.632559 
L 45.64764 1.795799 
L 46.36836 1.795799 
" clip-path="url(#p2c6bb38b37)"/>
    <path d="M 57.45636 19.587167 
L 57.45636 26.423927 
L 58.8978 26.063567 
L 57.096 29.667167 
L 55.2942 26.063567 
L 56.73564 26.423927 
L 56.73564 19.587167 
L 57.45636 19.587167 
" clip-path="url(#p2c6bb38b37)"/>
    <path d="M 68.54436 33.148551 
L 68.54436 39.985311 
L 69.9858 39.624951 
L 68.184 43.228551 
L 66.3822 39.624951 
L 67.82364 39.985311 
L 67.82364 33.148551 
L 68.54436 33.148551 
" clip-path="url(#p2c6bb38b37)"/>
    <path d="M 79.63236 38.553057 
L 79.63236 45.389817 
L 81.0738 45.029457 
L 79.272 48.633057 
L 77.4702 45.029457 
L 78.91164 45.389817 
L 78.91164 38.553057 
L 79.63236 38.553057 
" clip-path="url(#p2c6bb38b37)"/>
    <path d="M 90.72036 33.148551 
L 90.72036 39.985311 
L 92.1618 39.624951 
L 90.36 43.228551 
L 88.5582 39.624951 
L 89.99964 39.985311 
L 89.99964 33.148551 
L 90.72036 33.148551 
" clip-path="url(#p2c6bb38b37)"/>
    <path d="M 101.80836 19.587167 
L 101.80836 26.423927 
L 103.2498 26.063567 
L 101.448 29.667167 
L 99.6462 26.063567 
L 101.08764 26.423927 
L 101.08764 19.587167 
L 101.80836 19.587167 
" clip-path="url(#p2c6bb38b37)"/>
    <path d="M 112.89636 1.795799 
L 112.89636 8.632559 
L 114.3378 8.272199 
L 112.536 11.875799 
L 110.7342 8.272199 
L 112.17564 8.632559 
L 112.17564 1.795799 
L 112.89636 1.795799 
" clip-path="url(#p2c6bb38b37)"/>
    <path d="M 123.98436 -18.043665 
L 123.98436 -11.206905 
L 125.4258 -11.567265 
L 123.624 -7.963665 
L 121.8222 -11.567265 
L 123.26364 -11.206905 
L 123.26364 -18.043665 
L 123.98436 -18.043665 
" clip-path="url(#p2c6bb38b37)"/>
    <path d="M 135.07236 -38.946415 
L 135.07236 -32.109655 
L 136.5138 -32.470015 
L 134.712 -28.866415 
L 132.9102 -32.470015 
L 134.35164 -32.109655 
L 134.35164 -38.946415 
L 135.07236 -38.946415 
" clip-path="url(#p2c6bb38b37)"/>
    <path d="M 24.19236 -74.589816 
L 24.19236 -67.753056 
L 25.6338 -68.113416 
L 23.832 -64.509816 
L 22.0302 -68.113416 
L 23.47164 -67.753056 
L 23.47164 -74.589816 
L 24.19236 -74.589816 
" clip-path="url(#p2c6bb38b37)"/>
    <path d="M 35.28036 -55.566124 
L 35.28036 -48.729364 
L 36.7218 -49.089724 
L 34.92 -45.486124 
L 33.1182 -49.089724 
L 34.55964 -48.729364 
L 34.55964 -55.566124 
L 35.28036 -55.566124 
" clip-path="url(#p2c6bb38b37)"/>
    <path d="M 46.36836 -38.22725 
L 46.36836 -31.39049 
L 47.8098 -31.75085 
L 46.008 -28.14725 
L 44.2062 -31.75085 
L 45.64764 -31.39049 
L 45.64764 -38.22725 
L 46.36836 -38.22725 
" clip-path="url(#p2c6bb38b37)"/>
    <path d="M 57.45636 -23.641818 
L 57.45636 -16.805058 
L 58.8978 -17.165418 
L 57.096 -13.561818 
L 55.2942 -17.165418 
L 56.73564 -16.805058 
L 56.73564 -23.641818 
L 57.45636 -23.641818 
" clip-path="url(#p2c6bb38b37)"/>
    <path d="M 68.54436 -13.493576 
L 68.54436 -6.656816 
L 69.9858 -7.017176 
L 68.184 -3.413576 
L 66.3822 -7.017176 
L 67.82364 -6.656816 
L 67.82364 -13.493576 
L 68.54436 -13.493576 
" clip-path="url(#p2c6bb38b37)"/>
    <path d="M 79.63236 -9.778414 
L 79.63236 -2.941654 
L 81.0738 -3.302014 
L 79.272 0.301586 
L 77.4702 -3.302014 
L 78.91164 -2.941654 
L 78.91164 -9.778414 
L 79.63236 -9.778414 
" clip-path="url(#p2c6bb38b37)"/>
    <path d="M 90.72036 -13.493576 
L 90.72036 -6.656816 
L 92.1618 -7.017176 
L 90.36 -3.413576 
L 88.5582 -7.017176 
L 89.99964 -6.656816 
L 89.99964 -13.493576 
L 90.72036 -13.493576 
" clip-path="url(#p2c6bb38b37)"/>
    <path d="M 101.80836 -23.641818 
L 101.80836 -16.805058 
L 103.2498 -17.165418 
L 101.448 -13.561818 
L 99.6462 -17.165418 
L 101.08764 -16.805058 
L 101.08764 -23.641818 
L 101.80836 -23.641818 
" clip-path="url(#p2c6bb38b37)"/>
    <path d="M 112.89636 -38.22725 
L 112.89636 -31.39049 
L 114.3378 -31.75085 
L 112.536 -28.14725 
L 110.7342 -31.75085 
L 112.17564 -31.39049 
L 112.17564 -38.22725 
L 112.89636 -38.22725 
" clip-path="url(#p2c6bb38b37)"/>
    <path d="M 123.98436 -55.566124 
L 123.98436 -48.729364 
L 125.4258 -49.089724 
L 123.624 -45.486124 
L 121.8222 -49.089724 
L 123.26364 -48.729364 
L 123.26364 -55.566124 
L 123.98436 -55.566124 
" clip-path="url(#p2c6bb38b37)"/>
    <path d="M 135.07236 -74.589816 
L 135.07236 -67.753056 
L 136.5138 -68.113416 
L 134.712 -64.509816 
L 132.9102 -68.113416 
L 134.35164 -67.753056 
L 134.35164 -74.589816 
L 135.07236 -74.589816 
" clip-path="url(#p2c6bb38b37)"/>
    <path d="M 24.19236 -113.126664 
L 24.19236 -106.289904 
L 25.6338 -106.650264 
L 23.832 -103.046664 
L 22.0302 -106.650264 
L 23.47164 -106.289904 
L 23.47164 -113.126664 
L 24.19236 -113.126664 
" clip-path="url(#p2c6bb38b37)"/>
    <path d="M 35.28036 -96.041667 
L 35.28036 -89.204907 
L 36.7218 -89.565267 
L 34.92 -85.961667 
L 33.1182 -89.565267 
L 34.55964 -89.204907 
L 34.55964 -96.041667 
L 35.28036 -96.041667 
" clip-path="url(#p2c6bb38b37)"/>
    <path d="M 46.36836 -81.003741 
L 46.36836 -74.166981 
L 47.8098 -74.527341 
L 46.008 -70.923741 
L 44.2062 -74.527341 
L 45.64764 -74.166981 
L 45.64764 -81.003741 
L 46.36836 -81.003741 
" clip-path="url(#p2c6bb38b37)"/>
    <path d="M 57.45636 -68.918898 
L 57.45636 -62.082138 
L 58.8978 -62.442498 
L 57.096 -58.838898 
L 55.2942 -62.442498 
L 56.73564 -62.082138 
L 56.73564 -68.918898 
L 57.45636 -68.918898 
" clip-path="url(#p2c6bb38b37)"/>
    <path d="M 68.54436 -60.928248 
L 68.54436 -54.091488 
L 69.9858 -54.451848 
L 68.184 -50.848248 
L 66.3822 -54.451848 
L 67.82364 -54.091488 
L 67.82364 -60.928248 
L 68.54436 -60.928248 
" clip-path="url(#p2c6bb38b37)"/>
    <path d="M 79.63236 -58.109886 
L 79.63236 -51.273126 
L 81.0738 -51.633486 
L 79.272 -48.029886 
L 77.4702 -51.633486 
L 78.91164 -51.273126 
L 78.91164 -58.109886 
L 79.63236 -58.109886 
" clip-path="url(#p2c6bb38b37)"/>
    <path d="M 90.72036 -60.928248 
L 90.72036 -54.091488 
L 92.1618 -54.451848 
L 90.36 -50.848248 
L 88.5582 -54.451848 
L 89.99964 -54.091488 
L 89.99964 -60.928248 
L 90.72036 -60.928248 
" clip-path="url(#p2c6bb38b37)"/>
    <path d="M 101.80836 -68.918898 
L 101.80836 -62.082138 
L 103.2498 -62.442498 
L 101.448 -58.838898 
L 99.6462 -62.442498 
L 101.08764 -62.082138 
L 101.08764 -68.918898 
L 101.80836 -68.918898 
" clip-path="url(#p2c6bb38b37)"/>
    <path d="M 112.89636 -81.003741 
L 112.89636 -74.166981 
L 114.3378 -74.527341 
L 112.536 -70.923741 
L 110.7342 -74.527341 
L 112.17564 -74.166981 
L 112.17564 -81.003741 
L 112.89636 -81.003741 
" clip-path="url(#p2c6bb38b37)"/>
    <path d="M 123.98436 -96.041667 
L 123.98436 -89.204907 
L 125.4258 -89.565267 
L 123.624 -85.961667 
L 121.8222 -89.565267 
L 123.26364 -89.204907 
L 123.26364 -96.041667 
L 123.98436 -96.041667 
" clip-path="url(#p2c6bb38b37)"/>
    <path d="M 135.07236 -113.126664 
L 135.07236 -106.289904 
L 136.5138 -106.650264 
L 134.712 -103.046664 
L 132.9102 -106.650264 
L 134.35164 -106.289904 
L 134.35164 -113.126664 
L 135.07236 -113.126664 
" clip-path="url(#p2c6bb38b37)"/>
    <path d="M 24.19236 -153.856083 
L 24.19236 -147.019323 
L 25.6338 -147.379683 
L 23.832 -143.776083 
L 22.0302 -147.379683 
L 23.47164 -147.019323 
L 23.47164 -153.856083 
L 24.19236 -153.856083 
" clip-path="url(#p2c6bb38b37)"/>
    <path d="M 35.28036 -138.56428 
L 35.28036 -131.72752 
L 36.7218 -132.08788 
L 34.92 -128.48428 
L 33.1182 -132.08788 
L 34.55964 -131.72752 
L 34.55964 -138.56428 
L 35.28036 -138.56428 
" clip-path="url(#p2c6bb38b37)"/>
    <path d="M 46.36836 -125.46505 
L 46.36836 -118.62829 
L 47.8098 -118.98865 
L 46.008 -115.38505 
L 44.2062 -118.98865 
L 45.64764 -118.62829 
L 45.64764 -125.46505 
L 46.36836 -125.46505 
" clip-path="url(#p2c6bb38b37)"/>
    <path d="M 57.45636 -115.259265 
L 57.45636 -108.422505 
L 58.8978 -108.782865 
L 57.096 -105.179265 
L 55.2942 -108.782865 
L 56.73564 -108.422505 
L 56.73564 -115.259265 
L 57.45636 -115.259265 
" clip-path="url(#p2c6bb38b37)"/>
    <path d="M 68.54436 -108.708296 
L 68.54436 -101.871536 
L 69.9858 -102.231896 
L 68.184 -98.628296 
L 66.3822 -102.231896 
L 67.82364 -101.871536 
L 67.82364 -108.708296 
L 68.54436 -108.708296 
" clip-path="url(#p2c6bb38b37)"/>
    <path d="M 79.63236 -106.441357 
L 79.63236 -99.604597 
L 81.0738 -99.964957 
L 79.272 -96.361357 
L 77.4702 -99.964957 
L 78.91164 -99.604597 
L 78.91164 -106.441357 
L 79.63236 -106.441357 
" clip-path="url(#p2c6bb38b37)"/>
    <path d="M 90.72036 -108.708296 
L 90.72036 -101.871536 
L 92.1618 -102.231896 
L 90.36 -98.628296 
L 88.5582 -102.231896 
L 89.99964 -101.871536 
L 89.99964 -108.708296 
L 90.72036 -108.708296 
" clip-path="url(#p2c6bb38b37)"/>
    <path d="M 101.80836 -115.259265 
L 101.80836 -108.422505 
L 103.2498 -108.782865 
L 101.448 -105.179265 
L 99.6462 -108.782865 
L 101.08764 -108.422505 
L 101.08764 -115.259265 
L 101.80836 -115.259265 
" clip-path="url(#p2c6bb38b37)"/>
    <path d="M 112.89636 -125.46505 
L 112.89636 -118.62829 
L 114.3378 -118.98865 
L 112.536 -115.38505 
L 110.7342 -118.98865 
L 112.17564 -118.62829 
L 112.17564 -125.46505 
L 112.89636 -125.46505 
" clip-path="url(#p2c6bb38b37)"/>
    <path d="M 123.98436 -138.56428 
L 123.98436 -131.72752 
L 125.4258 -132.08788 
L 123.624 -128.48428 
L 121.8222 -132.08788 
L 123.26364 -131.72752 
L 123.26364 -138.56428 
L 123.98436 -138.56428 
" clip-path="url(#p2c6bb38b37)"/>
    <path d="M 135.07236 -153.856083 
L 135.07236 -147.019323 
L 136.5138 -147.379683 
L 134.712 -143.776083 
L 132.9102 -147.379683 
L 134.35164 -147.019323 
L 134.35164 -153.856083 
L 135.07236 -153.856083 
" clip-path="url(#p2c6bb38b37)"/>
   </g>
   <g id="text_1">
    <!-- y' -->
    <g style="fill: #808080" transform="translate(145.8 134.712) scale(0.1 -0.1)">
     <defs>
      <path id="DejaVuSans-79" d="M 2059 -325 
Q 1816 -950 1584 -1140 
Q 1353 -1331 966 -1331 
L 506 -1331 
L 506 -850 
L 844 -850 
Q 1081 -850 1212 -737 
Q 1344 -625 1503 -206 
L 1606 56 
L 191 3500 
L 800 3500 
L 1894 763 
L 2988 3500 
L 3597 3500 
L 2059 -325 
z
" transform="scale(0.015625)"/>
      <path id="DejaVuSans-27" d="M 1147 4666 
L 1147 2931 
L 616 2931 
L 616 4666 
L 1147 4666 
z
" transform="scale(0.015625)"/>
     </defs>
     <use xlink:href="#DejaVuSans-79"/>
     <use xlink:href="#DejaVuSans-27" x="59.179688"/>
    </g>
   </g>
   <g id="text_2">
    <!-- z' -->
    <g style="fill: #808080" transform="translate(84.816 18.288) scale(0.1 -0.1)">
     <defs>
      <path id="DejaVuSans-7a" d="M 353 3500 
L 3084 3500 
L 3084 2975 
L 922 459 
L 3084 459 
L 3084 0 
L 275 0 
L 275 525 
L 2438 3041 
L 353 3041 
L 353 3500 
z
" transform="scale(0.015625)"/>
     </defs>
     <use xlink:href="#DejaVuSans-7a"/>
     <use xlink:href="#DejaVuSans-27" x="52.490234"/>
    </g>
   </g>
  </g>
 </g>
 <defs>
  <clipPath id="p2c6bb38b37">
   <rect x="7.2" y="7.2" width="144.144" height="266.112"/>
  </clipPath>
 </defs>
</svg>
