<?xml version="1.0" encoding="utf-8" standalone="no"?>
<!DOCTYPE svg PUBLIC "-//W3C//DTD SVG 1.1//EN"
  "http://www.w3.org/Graphics/SVG/1.1/DTD/svg11.dtd">
<svg xmlns:xlink="http://www.w3.org/1999/xlink" width="216.910125pt" height="280.512pt" viewBox="0 0 216.910125 280.512" xmlns="http://www.w3.org/2000/svg" version="1.1">
 <metadata>
  <rdf:RDF xmlns:dc="http://purl.org/dc/elements/1.1/" xmlns:cc="http://creativecommons.org/ns#" xmlns:rdf="http://www.w3.org/1999/02/22-rdf-syntax-ns#">
   <cc:Work>
    <dc:type rdf:resource="http://purl.org/dc/dcmitype/StillImage"/>
    <dc:date>2024-06-06T16:05:12.365418</dc:date>
    <dc:format>image/svg+xml</dc:format>
    <dc:creator>
     <cc:Agent>
      <dc:title>Matplotlib v3.9.0, https://matplotlib.org/</dc:title>
     </cc:Agent>
    </dc:creator>
   </cc:Work>
  </rdf:RDF>
 </metadata>
 <defs>
  <style type="text/css">*{stroke-linejoin: round; stroke-linecap: butt}</style>
 </defs>
 <g id="figure_1">
  <g id="patch_1">
   <path d="M 0 280.512 
L 216.910125 280.512 
L 216.910125 0 
L 0 0 
L 0 280.512 
z
" style="fill: none"/>
  </g>
  <g id="axes_1">
   <g id="patch_2">
    <path d="M 151.344 140.256 
L 145.8 143.8596 
L 147.0936 140.258772 
L 7.2 140.258772 
L 7.2 140.253228 
L 147.0936 140.253228 
L 145.8 136.6524 
z
" clip-path="url(#p35f939c192)" style="fill: #808080; stroke: #808080; stroke-linejoin: miter"/>
   </g>
   <g id="patch_3">
    <path d="M 79.272 7.2 
L 82.8756 12.744 
L 79.274772 11.4504 
L 79.274772 273.312 
L 79.269228 273.312 
L 79.269228 11.4504 
L 75.6684 12.744 
z
" clip-path="url(#p35f939c192)" style="fill: #808080; stroke: #808080; stroke-linejoin: miter"/>
   </g>
   <g id="Quiver_1">
    <path d="M 24.19236 262.404083 
L 24.19236 269.240843 
L 25.6338 268.880483 
L 23.832 272.484083 
L 22.0302 268.880483 
L 23.47164 269.240843 
L 23.47164 262.404083 
L 24.19236 262.404083 
" clip-path="url(#p35f939c192)" style="fill: #000080"/>
    <path d="M 35.28036 262.404083 
L 35.28036 269.240843 
L 36.7218 268.880483 
L 34.92 272.484083 
L 33.1182 268.880483 
L 34.55964 269.240843 
L 34.55964 262.404083 
L 35.28036 262.404083 
" clip-path="url(#p35f939c192)" style="fill: #000080"/>
    <path d="M 46.36836 262.404083 
L 46.36836 269.240843 
L 47.8098 268.880483 
L 46.008 272.484083 
L 44.2062 268.880483 
L 45.64764 269.240843 
L 45.64764 262.404083 
L 46.36836 262.404083 
" clip-path="url(#p35f939c192)" style="fill: #000080"/>
    <path d="M 57.45636 262.404083 
L 57.45636 269.240843 
L 58.8978 268.880483 
L 57.096 272.484083 
L 55.2942 268.880483 
L 56.73564 269.240843 
L 56.73564 262.404083 
L 57.45636 262.404083 
" clip-path="url(#p35f939c192)" style="fill: #000080"/>
    <path d="M 68.54436 262.404083 
L 68.54436 269.240843 
L 69.9858 268.880483 
L 68.184 272.484083 
L 66.3822 268.880483 
L 67.82364 269.240843 
L 67.82364 262.404083 
L 68.54436 262.404083 
" clip-path="url(#p35f939c192)" style="fill: #000080"/>
    <path d="M 79.63236 262.404083 
L 79.63236 269.240843 
L 81.0738 268.880483 
L 79.272 272.484083 
L 77.4702 268.880483 
L 78.91164 269.240843 
L 78.91164 262.404083 
L 79.63236 262.404083 
" clip-path="url(#p35f939c192)" style="fill: #000080"/>
    <path d="M 90.72036 262.404083 
L 90.72036 269.240843 
L 92.1618 268.880483 
L 90.36 272.484083 
L 88.5582 268.880483 
L 89.99964 269.240843 
L 89.99964 262.404083 
L 90.72036 262.404083 
" clip-path="url(#p35f939c192)" style="fill: #000080"/>
    <path d="M 101.80836 262.404083 
L 101.80836 269.240843 
L 103.2498 268.880483 
L 101.448 272.484083 
L 99.6462 268.880483 
L 101.08764 269.240843 
L 101.08764 262.404083 
L 101.80836 262.404083 
" clip-path="url(#p35f939c192)" style="fill: #000080"/>
    <path d="M 112.89636 262.404083 
L 112.89636 269.240843 
L 114.3378 268.880483 
L 112.536 272.484083 
L 110.7342 268.880483 
L 112.17564 269.240843 
L 112.17564 262.404083 
L 112.89636 262.404083 
" clip-path="url(#p35f939c192)" style="fill: #000080"/>
    <path d="M 123.98436 262.404083 
L 123.98436 269.240843 
L 125.4258 268.880483 
L 123.624 272.484083 
L 121.8222 268.880483 
L 123.26364 269.240843 
L 123.26364 262.404083 
L 123.98436 262.404083 
" clip-path="url(#p35f939c192)" style="fill: #000080"/>
    <path d="M 135.07236 262.404083 
L 135.07236 269.240843 
L 136.5138 268.880483 
L 134.712 272.484083 
L 132.9102 268.880483 
L 134.35164 269.240843 
L 134.35164 262.404083 
L 135.07236 262.404083 
" clip-path="url(#p35f939c192)" style="fill: #000080"/>
    <path d="M 24.19236 236.966466 
L 24.19236 243.803226 
L 25.6338 243.442866 
L 23.832 247.046466 
L 22.0302 243.442866 
L 23.47164 243.803226 
L 23.47164 236.966466 
L 24.19236 236.966466 
" clip-path="url(#p35f939c192)" style="fill: #0000f1"/>
    <path d="M 35.28036 236.966466 
L 35.28036 243.803226 
L 36.7218 243.442866 
L 34.92 247.046466 
L 33.1182 243.442866 
L 34.55964 243.803226 
L 34.55964 236.966466 
L 35.28036 236.966466 
" clip-path="url(#p35f939c192)" style="fill: #0000f1"/>
    <path d="M 46.36836 236.966466 
L 46.36836 243.803226 
L 47.8098 243.442866 
L 46.008 247.046466 
L 44.2062 243.442866 
L 45.64764 243.803226 
L 45.64764 236.966466 
L 46.36836 236.966466 
" clip-path="url(#p35f939c192)" style="fill: #0000f1"/>
    <path d="M 57.45636 236.966466 
L 57.45636 243.803226 
L 58.8978 243.442866 
L 57.096 247.046466 
L 55.2942 243.442866 
L 56.73564 243.803226 
L 56.73564 236.966466 
L 57.45636 236.966466 
" clip-path="url(#p35f939c192)" style="fill: #0000f1"/>
    <path d="M 68.54436 236.966466 
L 68.54436 243.803226 
L 69.9858 243.442866 
L 68.184 247.046466 
L 66.3822 243.442866 
L 67.82364 243.803226 
L 67.82364 236.966466 
L 68.54436 236.966466 
" clip-path="url(#p35f939c192)" style="fill: #0000f1"/>
    <path d="M 79.63236 236.966466 
L 79.63236 243.803226 
L 81.0738 243.442866 
L 79.272 247.046466 
L 77.4702 243.442866 
L 78.91164 243.803226 
L 78.91164 236.966466 
L 79.63236 236.966466 
" clip-path="url(#p35f939c192)" style="fill: #0000f1"/>
    <path d="M 90.72036 236.966466 
L 90.72036 243.803226 
L 92.1618 243.442866 
L 90.36 247.046466 
L 88.5582 243.442866 
L 89.99964 243.803226 
L 89.99964 236.966466 
L 90.72036 236.966466 
" clip-path="url(#p35f939c192)" style="fill: #0000f1"/>
    <path d="M 101.80836 236.966466 
L 101.80836 243.803226 
L 103.2498 243.442866 
L 101.448 247.046466 
L 99.6462 243.442866 
L 101.08764 243.803226 
L 101.08764 236.966466 
L 101.80836 236.966466 
" clip-path="url(#p35f939c192)" style="fill: #0000f1"/>
    <path d="M 112.89636 236.966466 
L 112.89636 243.803226 
L 114.3378 243.442866 
L 112.536 247.046466 
L 110.7342 243.442866 
L 112.17564 243.803226 
L 112.17564 236.966466 
L 112.89636 236.966466 
" clip-path="url(#p35f939c192)" style="fill: #0000f1"/>
    <path d="M 123.98436 236.966466 
L 123.98436 243.803226 
L 125.4258 243.442866 
L 123.624 247.046466 
L 121.8222 243.442866 
L 123.26364 243.803226 
L 123.26364 236.966466 
L 123.98436 236.966466 
" clip-path="url(#p35f939c192)" style="fill: #0000f1"/>
    <path d="M 135.07236 236.966466 
L 135.07236 243.803226 
L 136.5138 243.442866 
L 134.712 247.046466 
L 132.9102 243.442866 
L 134.35164 243.803226 
L 134.35164 236.966466 
L 135.07236 236.966466 
" clip-path="url(#p35f939c192)" style="fill: #0000f1"/>
    <path d="M 24.19236 211.52885 
L 24.19236 218.36561 
L 25.6338 218.00525 
L 23.832 221.60885 
L 22.0302 218.00525 
L 23.47164 218.36561 
L 23.47164 211.52885 
L 24.19236 211.52885 
" clip-path="url(#p35f939c192)" style="fill: #004cff"/>
    <path d="M 35.28036 211.52885 
L 35.28036 218.36561 
L 36.7218 218.00525 
L 34.92 221.60885 
L 33.1182 218.00525 
L 34.55964 218.36561 
L 34.55964 211.52885 
L 35.28036 211.52885 
" clip-path="url(#p35f939c192)" style="fill: #004cff"/>
    <path d="M 46.36836 211.52885 
L 46.36836 218.36561 
L 47.8098 218.00525 
L 46.008 221.60885 
L 44.2062 218.00525 
L 45.64764 218.36561 
L 45.64764 211.52885 
L 46.36836 211.52885 
" clip-path="url(#p35f939c192)" style="fill: #004cff"/>
    <path d="M 57.45636 211.52885 
L 57.45636 218.36561 
L 58.8978 218.00525 
L 57.096 221.60885 
L 55.2942 218.00525 
L 56.73564 218.36561 
L 56.73564 211.52885 
L 57.45636 211.52885 
" clip-path="url(#p35f939c192)" style="fill: #004cff"/>
    <path d="M 68.54436 211.52885 
L 68.54436 218.36561 
L 69.9858 218.00525 
L 68.184 221.60885 
L 66.3822 218.00525 
L 67.82364 218.36561 
L 67.82364 211.52885 
L 68.54436 211.52885 
" clip-path="url(#p35f939c192)" style="fill: #004cff"/>
    <path d="M 79.63236 211.52885 
L 79.63236 218.36561 
L 81.0738 218.00525 
L 79.272 221.60885 
L 77.4702 218.00525 
L 78.91164 218.36561 
L 78.91164 211.52885 
L 79.63236 211.52885 
" clip-path="url(#p35f939c192)" style="fill: #004cff"/>
    <path d="M 90.72036 211.52885 
L 90.72036 218.36561 
L 92.1618 218.00525 
L 90.36 221.60885 
L 88.5582 218.00525 
L 89.99964 218.36561 
L 89.99964 211.52885 
L 90.72036 211.52885 
" clip-path="url(#p35f939c192)" style="fill: #004cff"/>
    <path d="M 101.80836 211.52885 
L 101.80836 218.36561 
L 103.2498 218.00525 
L 101.448 221.60885 
L 99.6462 218.00525 
L 101.08764 218.36561 
L 101.08764 211.52885 
L 101.80836 211.52885 
" clip-path="url(#p35f939c192)" style="fill: #004cff"/>
    <path d="M 112.89636 211.52885 
L 112.89636 218.36561 
L 114.3378 218.00525 
L 112.536 221.60885 
L 110.7342 218.00525 
L 112.17564 218.36561 
L 112.17564 211.52885 
L 112.89636 211.52885 
" clip-path="url(#p35f939c192)" style="fill: #004cff"/>
    <path d="M 123.98436 211.52885 
L 123.98436 218.36561 
L 125.4258 218.00525 
L 123.624 221.60885 
L 121.8222 218.00525 
L 123.26364 218.36561 
L 123.26364 211.52885 
L 123.98436 211.52885 
" clip-path="url(#p35f939c192)" style="fill: #004cff"/>
    <path d="M 135.07236 211.52885 
L 135.07236 218.36561 
L 136.5138 218.00525 
L 134.712 221.60885 
L 132.9102 218.00525 
L 134.35164 218.36561 
L 134.35164 211.52885 
L 135.07236 211.52885 
" clip-path="url(#p35f939c192)" style="fill: #004cff"/>
    <path d="M 24.19236 186.091233 
L 24.19236 192.927993 
L 25.6338 192.567633 
L 23.832 196.171233 
L 22.0302 192.567633 
L 23.47164 192.927993 
L 23.47164 186.091233 
L 24.19236 186.091233 
" clip-path="url(#p35f939c192)" style="fill: #00b0ff"/>
    <path d="M 35.28036 186.091233 
L 35.28036 192.927993 
L 36.7218 192.567633 
L 34.92 196.171233 
L 33.1182 192.567633 
L 34.55964 192.927993 
L 34.55964 186.091233 
L 35.28036 186.091233 
" clip-path="url(#p35f939c192)" style="fill: #00b0ff"/>
    <path d="M 46.36836 186.091233 
L 46.36836 192.927993 
L 47.8098 192.567633 
L 46.008 196.171233 
L 44.2062 192.567633 
L 45.64764 192.927993 
L 45.64764 186.091233 
L 46.36836 186.091233 
" clip-path="url(#p35f939c192)" style="fill: #00b0ff"/>
    <path d="M 57.45636 186.091233 
L 57.45636 192.927993 
L 58.8978 192.567633 
L 57.096 196.171233 
L 55.2942 192.567633 
L 56.73564 192.927993 
L 56.73564 186.091233 
L 57.45636 186.091233 
" clip-path="url(#p35f939c192)" style="fill: #00b0ff"/>
    <path d="M 68.54436 186.091233 
L 68.54436 192.927993 
L 69.9858 192.567633 
L 68.184 196.171233 
L 66.3822 192.567633 
L 67.82364 192.927993 
L 67.82364 186.091233 
L 68.54436 186.091233 
" clip-path="url(#p35f939c192)" style="fill: #00b0ff"/>
    <path d="M 79.63236 186.091233 
L 79.63236 192.927993 
L 81.0738 192.567633 
L 79.272 196.171233 
L 77.4702 192.567633 
L 78.91164 192.927993 
L 78.91164 186.091233 
L 79.63236 186.091233 
" clip-path="url(#p35f939c192)" style="fill: #00b0ff"/>
    <path d="M 90.72036 186.091233 
L 90.72036 192.927993 
L 92.1618 192.567633 
L 90.36 196.171233 
L 88.5582 192.567633 
L 89.99964 192.927993 
L 89.99964 186.091233 
L 90.72036 186.091233 
" clip-path="url(#p35f939c192)" style="fill: #00b0ff"/>
    <path d="M 101.80836 186.091233 
L 101.80836 192.927993 
L 103.2498 192.567633 
L 101.448 196.171233 
L 99.6462 192.567633 
L 101.08764 192.927993 
L 101.08764 186.091233 
L 101.80836 186.091233 
" clip-path="url(#p35f939c192)" style="fill: #00b0ff"/>
    <path d="M 112.89636 186.091233 
L 112.89636 192.927993 
L 114.3378 192.567633 
L 112.536 196.171233 
L 110.7342 192.567633 
L 112.17564 192.927993 
L 112.17564 186.091233 
L 112.89636 186.091233 
" clip-path="url(#p35f939c192)" style="fill: #00b0ff"/>
    <path d="M 123.98436 186.091233 
L 123.98436 192.927993 
L 125.4258 192.567633 
L 123.624 196.171233 
L 121.8222 192.567633 
L 123.26364 192.927993 
L 123.26364 186.091233 
L 123.98436 186.091233 
" clip-path="url(#p35f939c192)" style="fill: #00b0ff"/>
    <path d="M 135.07236 186.091233 
L 135.07236 192.927993 
L 136.5138 192.567633 
L 134.712 196.171233 
L 132.9102 192.567633 
L 134.35164 192.927993 
L 134.35164 186.091233 
L 135.07236 186.091233 
" clip-path="url(#p35f939c192)" style="fill: #00b0ff"/>
    <path d="M 24.19236 160.653617 
L 24.19236 167.490377 
L 25.6338 167.130017 
L 23.832 170.733617 
L 22.0302 167.130017 
L 23.47164 167.490377 
L 23.47164 160.653617 
L 24.19236 160.653617 
" clip-path="url(#p35f939c192)" style="fill: #29ffce"/>
    <path d="M 35.28036 160.653617 
L 35.28036 167.490377 
L 36.7218 167.130017 
L 34.92 170.733617 
L 33.1182 167.130017 
L 34.55964 167.490377 
L 34.55964 160.653617 
L 35.28036 160.653617 
" clip-path="url(#p35f939c192)" style="fill: #29ffce"/>
    <path d="M 46.36836 160.653617 
L 46.36836 167.490377 
L 47.8098 167.130017 
L 46.008 170.733617 
L 44.2062 167.130017 
L 45.64764 167.490377 
L 45.64764 160.653617 
L 46.36836 160.653617 
" clip-path="url(#p35f939c192)" style="fill: #29ffce"/>
    <path d="M 57.45636 160.653617 
L 57.45636 167.490377 
L 58.8978 167.130017 
L 57.096 170.733617 
L 55.2942 167.130017 
L 56.73564 167.490377 
L 56.73564 160.653617 
L 57.45636 160.653617 
" clip-path="url(#p35f939c192)" style="fill: #29ffce"/>
    <path d="M 68.54436 160.653617 
L 68.54436 167.490377 
L 69.9858 167.130017 
L 68.184 170.733617 
L 66.3822 167.130017 
L 67.82364 167.490377 
L 67.82364 160.653617 
L 68.54436 160.653617 
" clip-path="url(#p35f939c192)" style="fill: #29ffce"/>
    <path d="M 79.63236 160.653617 
L 79.63236 167.490377 
L 81.0738 167.130017 
L 79.272 170.733617 
L 77.4702 167.130017 
L 78.91164 167.490377 
L 78.91164 160.653617 
L 79.63236 160.653617 
" clip-path="url(#p35f939c192)" style="fill: #29ffce"/>
    <path d="M 90.72036 160.653617 
L 90.72036 167.490377 
L 92.1618 167.130017 
L 90.36 170.733617 
L 88.5582 167.130017 
L 89.99964 167.490377 
L 89.99964 160.653617 
L 90.72036 160.653617 
" clip-path="url(#p35f939c192)" style="fill: #29ffce"/>
    <path d="M 101.80836 160.653617 
L 101.80836 167.490377 
L 103.2498 167.130017 
L 101.448 170.733617 
L 99.6462 167.130017 
L 101.08764 167.490377 
L 101.08764 160.653617 
L 101.80836 160.653617 
" clip-path="url(#p35f939c192)" style="fill: #29ffce"/>
    <path d="M 112.89636 160.653617 
L 112.89636 167.490377 
L 114.3378 167.130017 
L 112.536 170.733617 
L 110.7342 167.130017 
L 112.17564 167.490377 
L 112.17564 160.653617 
L 112.89636 160.653617 
" clip-path="url(#p35f939c192)" style="fill: #29ffce"/>
    <path d="M 123.98436 160.653617 
L 123.98436 167.490377 
L 125.4258 167.130017 
L 123.624 170.733617 
L 121.8222 167.130017 
L 123.26364 167.490377 
L 123.26364 160.653617 
L 123.98436 160.653617 
" clip-path="url(#p35f939c192)" style="fill: #29ffce"/>
    <path d="M 135.07236 160.653617 
L 135.07236 167.490377 
L 136.5138 167.130017 
L 134.712 170.733617 
L 132.9102 167.130017 
L 134.35164 167.490377 
L 134.35164 160.653617 
L 135.07236 160.653617 
" clip-path="url(#p35f939c192)" style="fill: #29ffce"/>
    <path d="M 24.19236 135.216 
L 24.19236 142.05276 
L 25.6338 141.6924 
L 23.832 145.296 
L 22.0302 141.6924 
L 23.47164 142.05276 
L 23.47164 135.216 
L 24.19236 135.216 
" clip-path="url(#p35f939c192)" style="fill: #7dff7a"/>
    <path d="M 35.28036 135.216 
L 35.28036 142.05276 
L 36.7218 141.6924 
L 34.92 145.296 
L 33.1182 141.6924 
L 34.55964 142.05276 
L 34.55964 135.216 
L 35.28036 135.216 
" clip-path="url(#p35f939c192)" style="fill: #7dff7a"/>
    <path d="M 46.36836 135.216 
L 46.36836 142.05276 
L 47.8098 141.6924 
L 46.008 145.296 
L 44.2062 141.6924 
L 45.64764 142.05276 
L 45.64764 135.216 
L 46.36836 135.216 
" clip-path="url(#p35f939c192)" style="fill: #7dff7a"/>
    <path d="M 57.45636 135.216 
L 57.45636 142.05276 
L 58.8978 141.6924 
L 57.096 145.296 
L 55.2942 141.6924 
L 56.73564 142.05276 
L 56.73564 135.216 
L 57.45636 135.216 
" clip-path="url(#p35f939c192)" style="fill: #7dff7a"/>
    <path d="M 68.54436 135.216 
L 68.54436 142.05276 
L 69.9858 141.6924 
L 68.184 145.296 
L 66.3822 141.6924 
L 67.82364 142.05276 
L 67.82364 135.216 
L 68.54436 135.216 
" clip-path="url(#p35f939c192)" style="fill: #7dff7a"/>
    <path d="M 79.63236 135.216 
L 79.63236 142.05276 
L 81.0738 141.6924 
L 79.272 145.296 
L 77.4702 141.6924 
L 78.91164 142.05276 
L 78.91164 135.216 
L 79.63236 135.216 
" clip-path="url(#p35f939c192)" style="fill: #7dff7a"/>
    <path d="M 90.72036 135.216 
L 90.72036 142.05276 
L 92.1618 141.6924 
L 90.36 145.296 
L 88.5582 141.6924 
L 89.99964 142.05276 
L 89.99964 135.216 
L 90.72036 135.216 
" clip-path="url(#p35f939c192)" style="fill: #7dff7a"/>
    <path d="M 101.80836 135.216 
L 101.80836 142.05276 
L 103.2498 141.6924 
L 101.448 145.296 
L 99.6462 141.6924 
L 101.08764 142.05276 
L 101.08764 135.216 
L 101.80836 135.216 
" clip-path="url(#p35f939c192)" style="fill: #7dff7a"/>
    <path d="M 112.89636 135.216 
L 112.89636 142.05276 
L 114.3378 141.6924 
L 112.536 145.296 
L 110.7342 141.6924 
L 112.17564 142.05276 
L 112.17564 135.216 
L 112.89636 135.216 
" clip-path="url(#p35f939c192)" style="fill: #7dff7a"/>
    <path d="M 123.98436 135.216 
L 123.98436 142.05276 
L 125.4258 141.6924 
L 123.624 145.296 
L 121.8222 141.6924 
L 123.26364 142.05276 
L 123.26364 135.216 
L 123.98436 135.216 
" clip-path="url(#p35f939c192)" style="fill: #7dff7a"/>
    <path d="M 135.07236 135.216 
L 135.07236 142.05276 
L 136.5138 141.6924 
L 134.712 145.296 
L 132.9102 141.6924 
L 134.35164 142.05276 
L 134.35164 135.216 
L 135.07236 135.216 
" clip-path="url(#p35f939c192)" style="fill: #7dff7a"/>
    <path d="M 24.19236 109.778383 
L 24.19236 116.615143 
L 25.6338 116.254783 
L 23.832 119.858383 
L 22.0302 116.254783 
L 23.47164 116.615143 
L 23.47164 109.778383 
L 24.19236 109.778383 
" clip-path="url(#p35f939c192)" style="fill: #ceff29"/>
    <path d="M 35.28036 109.778383 
L 35.28036 116.615143 
L 36.7218 116.254783 
L 34.92 119.858383 
L 33.1182 116.254783 
L 34.55964 116.615143 
L 34.55964 109.778383 
L 35.28036 109.778383 
" clip-path="url(#p35f939c192)" style="fill: #ceff29"/>
    <path d="M 46.36836 109.778383 
L 46.36836 116.615143 
L 47.8098 116.254783 
L 46.008 119.858383 
L 44.2062 116.254783 
L 45.64764 116.615143 
L 45.64764 109.778383 
L 46.36836 109.778383 
" clip-path="url(#p35f939c192)" style="fill: #ceff29"/>
    <path d="M 57.45636 109.778383 
L 57.45636 116.615143 
L 58.8978 116.254783 
L 57.096 119.858383 
L 55.2942 116.254783 
L 56.73564 116.615143 
L 56.73564 109.778383 
L 57.45636 109.778383 
" clip-path="url(#p35f939c192)" style="fill: #ceff29"/>
    <path d="M 68.54436 109.778383 
L 68.54436 116.615143 
L 69.9858 116.254783 
L 68.184 119.858383 
L 66.3822 116.254783 
L 67.82364 116.615143 
L 67.82364 109.778383 
L 68.54436 109.778383 
" clip-path="url(#p35f939c192)" style="fill: #ceff29"/>
    <path d="M 79.63236 109.778383 
L 79.63236 116.615143 
L 81.0738 116.254783 
L 79.272 119.858383 
L 77.4702 116.254783 
L 78.91164 116.615143 
L 78.91164 109.778383 
L 79.63236 109.778383 
" clip-path="url(#p35f939c192)" style="fill: #ceff29"/>
    <path d="M 90.72036 109.778383 
L 90.72036 116.615143 
L 92.1618 116.254783 
L 90.36 119.858383 
L 88.5582 116.254783 
L 89.99964 116.615143 
L 89.99964 109.778383 
L 90.72036 109.778383 
" clip-path="url(#p35f939c192)" style="fill: #ceff29"/>
    <path d="M 101.80836 109.778383 
L 101.80836 116.615143 
L 103.2498 116.254783 
L 101.448 119.858383 
L 99.6462 116.254783 
L 101.08764 116.615143 
L 101.08764 109.778383 
L 101.80836 109.778383 
" clip-path="url(#p35f939c192)" style="fill: #ceff29"/>
    <path d="M 112.89636 109.778383 
L 112.89636 116.615143 
L 114.3378 116.254783 
L 112.536 119.858383 
L 110.7342 116.254783 
L 112.17564 116.615143 
L 112.17564 109.778383 
L 112.89636 109.778383 
" clip-path="url(#p35f939c192)" style="fill: #ceff29"/>
    <path d="M 123.98436 109.778383 
L 123.98436 116.615143 
L 125.4258 116.254783 
L 123.624 119.858383 
L 121.8222 116.254783 
L 123.26364 116.615143 
L 123.26364 109.778383 
L 123.98436 109.778383 
" clip-path="url(#p35f939c192)" style="fill: #ceff29"/>
    <path d="M 135.07236 109.778383 
L 135.07236 116.615143 
L 136.5138 116.254783 
L 134.712 119.858383 
L 132.9102 116.254783 
L 134.35164 116.615143 
L 134.35164 109.778383 
L 135.07236 109.778383 
" clip-path="url(#p35f939c192)" style="fill: #ceff29"/>
    <path d="M 24.19236 84.340767 
L 24.19236 91.177527 
L 25.6338 90.817167 
L 23.832 94.420767 
L 22.0302 90.817167 
L 23.47164 91.177527 
L 23.47164 84.340767 
L 24.19236 84.340767 
" clip-path="url(#p35f939c192)" style="fill: #ffc400"/>
    <path d="M 35.28036 84.340767 
L 35.28036 91.177527 
L 36.7218 90.817167 
L 34.92 94.420767 
L 33.1182 90.817167 
L 34.55964 91.177527 
L 34.55964 84.340767 
L 35.28036 84.340767 
" clip-path="url(#p35f939c192)" style="fill: #ffc400"/>
    <path d="M 46.36836 84.340767 
L 46.36836 91.177527 
L 47.8098 90.817167 
L 46.008 94.420767 
L 44.2062 90.817167 
L 45.64764 91.177527 
L 45.64764 84.340767 
L 46.36836 84.340767 
" clip-path="url(#p35f939c192)" style="fill: #ffc400"/>
    <path d="M 57.45636 84.340767 
L 57.45636 91.177527 
L 58.8978 90.817167 
L 57.096 94.420767 
L 55.2942 90.817167 
L 56.73564 91.177527 
L 56.73564 84.340767 
L 57.45636 84.340767 
" clip-path="url(#p35f939c192)" style="fill: #ffc400"/>
    <path d="M 68.54436 84.340767 
L 68.54436 91.177527 
L 69.9858 90.817167 
L 68.184 94.420767 
L 66.3822 90.817167 
L 67.82364 91.177527 
L 67.82364 84.340767 
L 68.54436 84.340767 
" clip-path="url(#p35f939c192)" style="fill: #ffc400"/>
    <path d="M 79.63236 84.340767 
L 79.63236 91.177527 
L 81.0738 90.817167 
L 79.272 94.420767 
L 77.4702 90.817167 
L 78.91164 91.177527 
L 78.91164 84.340767 
L 79.63236 84.340767 
" clip-path="url(#p35f939c192)" style="fill: #ffc400"/>
    <path d="M 90.72036 84.340767 
L 90.72036 91.177527 
L 92.1618 90.817167 
L 90.36 94.420767 
L 88.5582 90.817167 
L 89.99964 91.177527 
L 89.99964 84.340767 
L 90.72036 84.340767 
" clip-path="url(#p35f939c192)" style="fill: #ffc400"/>
    <path d="M 101.80836 84.340767 
L 101.80836 91.177527 
L 103.2498 90.817167 
L 101.448 94.420767 
L 99.6462 90.817167 
L 101.08764 91.177527 
L 101.08764 84.340767 
L 101.80836 84.340767 
" clip-path="url(#p35f939c192)" style="fill: #ffc400"/>
    <path d="M 112.89636 84.340767 
L 112.89636 91.177527 
L 114.3378 90.817167 
L 112.536 94.420767 
L 110.7342 90.817167 
L 112.17564 91.177527 
L 112.17564 84.340767 
L 112.89636 84.340767 
" clip-path="url(#p35f939c192)" style="fill: #ffc400"/>
    <path d="M 123.98436 84.340767 
L 123.98436 91.177527 
L 125.4258 90.817167 
L 123.624 94.420767 
L 121.8222 90.817167 
L 123.26364 91.177527 
L 123.26364 84.340767 
L 123.98436 84.340767 
" clip-path="url(#p35f939c192)" style="fill: #ffc400"/>
    <path d="M 135.07236 84.340767 
L 135.07236 91.177527 
L 136.5138 90.817167 
L 134.712 94.420767 
L 132.9102 90.817167 
L 134.35164 91.177527 
L 134.35164 84.340767 
L 135.07236 84.340767 
" clip-path="url(#p35f939c192)" style="fill: #ffc400"/>
    <path d="M 24.19236 58.90315 
L 24.19236 65.73991 
L 25.6338 65.37955 
L 23.832 68.98315 
L 22.0302 65.37955 
L 23.47164 65.73991 
L 23.47164 58.90315 
L 24.19236 58.90315 
" clip-path="url(#p35f939c192)" style="fill: #ff6800"/>
    <path d="M 35.28036 58.90315 
L 35.28036 65.73991 
L 36.7218 65.37955 
L 34.92 68.98315 
L 33.1182 65.37955 
L 34.55964 65.73991 
L 34.55964 58.90315 
L 35.28036 58.90315 
" clip-path="url(#p35f939c192)" style="fill: #ff6800"/>
    <path d="M 46.36836 58.90315 
L 46.36836 65.73991 
L 47.8098 65.37955 
L 46.008 68.98315 
L 44.2062 65.37955 
L 45.64764 65.73991 
L 45.64764 58.90315 
L 46.36836 58.90315 
" clip-path="url(#p35f939c192)" style="fill: #ff6800"/>
    <path d="M 57.45636 58.90315 
L 57.45636 65.73991 
L 58.8978 65.37955 
L 57.096 68.98315 
L 55.2942 65.37955 
L 56.73564 65.73991 
L 56.73564 58.90315 
L 57.45636 58.90315 
" clip-path="url(#p35f939c192)" style="fill: #ff6800"/>
    <path d="M 68.54436 58.90315 
L 68.54436 65.73991 
L 69.9858 65.37955 
L 68.184 68.98315 
L 66.3822 65.37955 
L 67.82364 65.73991 
L 67.82364 58.90315 
L 68.54436 58.90315 
" clip-path="url(#p35f939c192)" style="fill: #ff6800"/>
    <path d="M 79.63236 58.90315 
L 79.63236 65.73991 
L 81.0738 65.37955 
L 79.272 68.98315 
L 77.4702 65.37955 
L 78.91164 65.73991 
L 78.91164 58.90315 
L 79.63236 58.90315 
" clip-path="url(#p35f939c192)" style="fill: #ff6800"/>
    <path d="M 90.72036 58.90315 
L 90.72036 65.73991 
L 92.1618 65.37955 
L 90.36 68.98315 
L 88.5582 65.37955 
L 89.99964 65.73991 
L 89.99964 58.90315 
L 90.72036 58.90315 
" clip-path="url(#p35f939c192)" style="fill: #ff6800"/>
    <path d="M 101.80836 58.90315 
L 101.80836 65.73991 
L 103.2498 65.37955 
L 101.448 68.98315 
L 99.6462 65.37955 
L 101.08764 65.73991 
L 101.08764 58.90315 
L 101.80836 58.90315 
" clip-path="url(#p35f939c192)" style="fill: #ff6800"/>
    <path d="M 112.89636 58.90315 
L 112.89636 65.73991 
L 114.3378 65.37955 
L 112.536 68.98315 
L 110.7342 65.37955 
L 112.17564 65.73991 
L 112.17564 58.90315 
L 112.89636 58.90315 
" clip-path="url(#p35f939c192)" style="fill: #ff6800"/>
    <path d="M 123.98436 58.90315 
L 123.98436 65.73991 
L 125.4258 65.37955 
L 123.624 68.98315 
L 121.8222 65.37955 
L 123.26364 65.73991 
L 123.26364 58.90315 
L 123.98436 58.90315 
" clip-path="url(#p35f939c192)" style="fill: #ff6800"/>
    <path d="M 135.07236 58.90315 
L 135.07236 65.73991 
L 136.5138 65.37955 
L 134.712 68.98315 
L 132.9102 65.37955 
L 134.35164 65.73991 
L 134.35164 58.90315 
L 135.07236 58.90315 
" clip-path="url(#p35f939c192)" style="fill: #ff6800"/>
    <path d="M 24.19236 33.465534 
L 24.19236 40.302294 
L 25.6338 39.941934 
L 23.832 43.545534 
L 22.0302 39.941934 
L 23.47164 40.302294 
L 23.47164 33.465534 
L 24.19236 33.465534 
" clip-path="url(#p35f939c192)" style="fill: #f10800"/>
    <path d="M 35.28036 33.465534 
L 35.28036 40.302294 
L 36.7218 39.941934 
L 34.92 43.545534 
L 33.1182 39.941934 
L 34.55964 40.302294 
L 34.55964 33.465534 
L 35.28036 33.465534 
" clip-path="url(#p35f939c192)" style="fill: #f10800"/>
    <path d="M 46.36836 33.465534 
L 46.36836 40.302294 
L 47.8098 39.941934 
L 46.008 43.545534 
L 44.2062 39.941934 
L 45.64764 40.302294 
L 45.64764 33.465534 
L 46.36836 33.465534 
" clip-path="url(#p35f939c192)" style="fill: #f10800"/>
    <path d="M 57.45636 33.465534 
L 57.45636 40.302294 
L 58.8978 39.941934 
L 57.096 43.545534 
L 55.2942 39.941934 
L 56.73564 40.302294 
L 56.73564 33.465534 
L 57.45636 33.465534 
" clip-path="url(#p35f939c192)" style="fill: #f10800"/>
    <path d="M 68.54436 33.465534 
L 68.54436 40.302294 
L 69.9858 39.941934 
L 68.184 43.545534 
L 66.3822 39.941934 
L 67.82364 40.302294 
L 67.82364 33.465534 
L 68.54436 33.465534 
" clip-path="url(#p35f939c192)" style="fill: #f10800"/>
    <path d="M 79.63236 33.465534 
L 79.63236 40.302294 
L 81.0738 39.941934 
L 79.272 43.545534 
L 77.4702 39.941934 
L 78.91164 40.302294 
L 78.91164 33.465534 
L 79.63236 33.465534 
" clip-path="url(#p35f939c192)" style="fill: #f10800"/>
    <path d="M 90.72036 33.465534 
L 90.72036 40.302294 
L 92.1618 39.941934 
L 90.36 43.545534 
L 88.5582 39.941934 
L 89.99964 40.302294 
L 89.99964 33.465534 
L 90.72036 33.465534 
" clip-path="url(#p35f939c192)" style="fill: #f10800"/>
    <path d="M 101.80836 33.465534 
L 101.80836 40.302294 
L 103.2498 39.941934 
L 101.448 43.545534 
L 99.6462 39.941934 
L 101.08764 40.302294 
L 101.08764 33.465534 
L 101.80836 33.465534 
" clip-path="url(#p35f939c192)" style="fill: #f10800"/>
    <path d="M 112.89636 33.465534 
L 112.89636 40.302294 
L 114.3378 39.941934 
L 112.536 43.545534 
L 110.7342 39.941934 
L 112.17564 40.302294 
L 112.17564 33.465534 
L 112.89636 33.465534 
" clip-path="url(#p35f939c192)" style="fill: #f10800"/>
    <path d="M 123.98436 33.465534 
L 123.98436 40.302294 
L 125.4258 39.941934 
L 123.624 43.545534 
L 121.8222 39.941934 
L 123.26364 40.302294 
L 123.26364 33.465534 
L 123.98436 33.465534 
" clip-path="url(#p35f939c192)" style="fill: #f10800"/>
    <path d="M 135.07236 33.465534 
L 135.07236 40.302294 
L 136.5138 39.941934 
L 134.712 43.545534 
L 132.9102 39.941934 
L 134.35164 40.302294 
L 134.35164 33.465534 
L 135.07236 33.465534 
" clip-path="url(#p35f939c192)" style="fill: #f10800"/>
    <path d="M 24.19236 8.027917 
L 24.19236 14.864677 
L 25.6338 14.504317 
L 23.832 18.107917 
L 22.0302 14.504317 
L 23.47164 14.864677 
L 23.47164 8.027917 
L 24.19236 8.027917 
" clip-path="url(#p35f939c192)" style="fill: #800000"/>
    <path d="M 35.28036 8.027917 
L 35.28036 14.864677 
L 36.7218 14.504317 
L 34.92 18.107917 
L 33.1182 14.504317 
L 34.55964 14.864677 
L 34.55964 8.027917 
L 35.28036 8.027917 
" clip-path="url(#p35f939c192)" style="fill: #800000"/>
    <path d="M 46.36836 8.027917 
L 46.36836 14.864677 
L 47.8098 14.504317 
L 46.008 18.107917 
L 44.2062 14.504317 
L 45.64764 14.864677 
L 45.64764 8.027917 
L 46.36836 8.027917 
" clip-path="url(#p35f939c192)" style="fill: #800000"/>
    <path d="M 57.45636 8.027917 
L 57.45636 14.864677 
L 58.8978 14.504317 
L 57.096 18.107917 
L 55.2942 14.504317 
L 56.73564 14.864677 
L 56.73564 8.027917 
L 57.45636 8.027917 
" clip-path="url(#p35f939c192)" style="fill: #800000"/>
    <path d="M 68.54436 8.027917 
L 68.54436 14.864677 
L 69.9858 14.504317 
L 68.184 18.107917 
L 66.3822 14.504317 
L 67.82364 14.864677 
L 67.82364 8.027917 
L 68.54436 8.027917 
" clip-path="url(#p35f939c192)" style="fill: #800000"/>
    <path d="M 79.63236 8.027917 
L 79.63236 14.864677 
L 81.0738 14.504317 
L 79.272 18.107917 
L 77.4702 14.504317 
L 78.91164 14.864677 
L 78.91164 8.027917 
L 79.63236 8.027917 
" clip-path="url(#p35f939c192)" style="fill: #800000"/>
    <path d="M 90.72036 8.027917 
L 90.72036 14.864677 
L 92.1618 14.504317 
L 90.36 18.107917 
L 88.5582 14.504317 
L 89.99964 14.864677 
L 89.99964 8.027917 
L 90.72036 8.027917 
" clip-path="url(#p35f939c192)" style="fill: #800000"/>
    <path d="M 101.80836 8.027917 
L 101.80836 14.864677 
L 103.2498 14.504317 
L 101.448 18.107917 
L 99.6462 14.504317 
L 101.08764 14.864677 
L 101.08764 8.027917 
L 101.80836 8.027917 
" clip-path="url(#p35f939c192)" style="fill: #800000"/>
    <path d="M 112.89636 8.027917 
L 112.89636 14.864677 
L 114.3378 14.504317 
L 112.536 18.107917 
L 110.7342 14.504317 
L 112.17564 14.864677 
L 112.17564 8.027917 
L 112.89636 8.027917 
" clip-path="url(#p35f939c192)" style="fill: #800000"/>
    <path d="M 123.98436 8.027917 
L 123.98436 14.864677 
L 125.4258 14.504317 
L 123.624 18.107917 
L 121.8222 14.504317 
L 123.26364 14.864677 
L 123.26364 8.027917 
L 123.98436 8.027917 
" clip-path="url(#p35f939c192)" style="fill: #800000"/>
    <path d="M 135.07236 8.027917 
L 135.07236 14.864677 
L 136.5138 14.504317 
L 134.712 18.107917 
L 132.9102 14.504317 
L 134.35164 14.864677 
L 134.35164 8.027917 
L 135.07236 8.027917 
" clip-path="url(#p35f939c192)" style="fill: #800000"/>
   </g>
   <g id="text_1">
    <!-- y' -->
    <g style="fill: #808080" transform="translate(145.8 134.712) scale(0.1 -0.1)">
     <defs>
      <path id="DejaVuSans-79" d="M 2059 -325 
Q 1816 -950 1584 -1140 
Q 1353 -1331 966 -1331 
L 506 -1331 
L 506 -850 
L 844 -850 
Q 1081 -850 1212 -737 
Q 1344 -625 1503 -206 
L 1606 56 
L 191 3500 
L 800 3500 
L 1894 763 
L 2988 3500 
L 3597 3500 
L 2059 -325 
z
" transform="scale(0.015625)"/>
      <path id="DejaVuSans-27" d="M 1147 4666 
L 1147 2931 
L 616 2931 
L 616 4666 
L 1147 4666 
z
" transform="scale(0.015625)"/>
     </defs>
     <use xlink:href="#DejaVuSans-79"/>
     <use xlink:href="#DejaVuSans-27" x="59.179688"/>
    </g>
   </g>
   <g id="text_2">
    <!-- z' -->
    <g style="fill: #808080" transform="translate(84.816 18.288) scale(0.1 -0.1)">
     <defs>
      <path id="DejaVuSans-7a" d="M 353 3500 
L 3084 3500 
L 3084 2975 
L 922 459 
L 3084 459 
L 3084 0 
L 275 0 
L 275 525 
L 2438 3041 
L 353 3041 
L 353 3500 
z
" transform="scale(0.015625)"/>
     </defs>
     <use xlink:href="#DejaVuSans-7a"/>
     <use xlink:href="#DejaVuSans-27" x="52.490234"/>
    </g>
   </g>
   <g id="text_3">
    <!-- t' = 20.6 -->
    <g transform="translate(162.432 269.661683) scale(0.1 -0.1)">
     <defs>
      <path id="DejaVuSans-74" d="M 1172 4494 
L 1172 3500 
L 2356 3500 
L 2356 3053 
L 1172 3053 
L 1172 1153 
Q 1172 725 1289 603 
Q 1406 481 1766 481 
L 2356 481 
L 2356 0 
L 1766 0 
Q 1100 0 847 248 
Q 594 497 594 1153 
L 594 3053 
L 172 3053 
L 172 3500 
L 594 3500 
L 594 4494 
L 1172 4494 
z
" transform="scale(0.015625)"/>
      <path id="DejaVuSans-20" transform="scale(0.015625)"/>
      <path id="DejaVuSans-3d" d="M 678 2906 
L 4684 2906 
L 4684 2381 
L 678 2381 
L 678 2906 
z
M 678 1631 
L 4684 1631 
L 4684 1100 
L 678 1100 
L 678 1631 
z
" transform="scale(0.015625)"/>
      <path id="DejaVuSans-32" d="M 1228 531 
L 3431 531 
L 3431 0 
L 469 0 
L 469 531 
Q 828 903 1448 1529 
Q 2069 2156 2228 2338 
Q 2531 2678 2651 2914 
Q 2772 3150 2772 3378 
Q 2772 3750 2511 3984 
Q 2250 4219 1831 4219 
Q 1534 4219 1204 4116 
Q 875 4013 500 3803 
L 500 4441 
Q 881 4594 1212 4672 
Q 1544 4750 1819 4750 
Q 2544 4750 2975 4387 
Q 3406 4025 3406 3419 
Q 3406 3131 3298 2873 
Q 3191 2616 2906 2266 
Q 2828 2175 2409 1742 
Q 1991 1309 1228 531 
z
" transform="scale(0.015625)"/>
      <path id="DejaVuSans-30" d="M 2034 4250 
Q 1547 4250 1301 3770 
Q 1056 3291 1056 2328 
Q 1056 1369 1301 889 
Q 1547 409 2034 409 
Q 2525 409 2770 889 
Q 3016 1369 3016 2328 
Q 3016 3291 2770 3770 
Q 2525 4250 2034 4250 
z
M 2034 4750 
Q 2819 4750 3233 4129 
Q 3647 3509 3647 2328 
Q 3647 1150 3233 529 
Q 2819 -91 2034 -91 
Q 1250 -91 836 529 
Q 422 1150 422 2328 
Q 422 3509 836 4129 
Q 1250 4750 2034 4750 
z
" transform="scale(0.015625)"/>
      <path id="DejaVuSans-2e" d="M 684 794 
L 1344 794 
L 1344 0 
L 684 0 
L 684 794 
z
" transform="scale(0.015625)"/>
      <path id="DejaVuSans-36" d="M 2113 2584 
Q 1688 2584 1439 2293 
Q 1191 2003 1191 1497 
Q 1191 994 1439 701 
Q 1688 409 2113 409 
Q 2538 409 2786 701 
Q 3034 994 3034 1497 
Q 3034 2003 2786 2293 
Q 2538 2584 2113 2584 
z
M 3366 4563 
L 3366 3988 
Q 3128 4100 2886 4159 
Q 2644 4219 2406 4219 
Q 1781 4219 1451 3797 
Q 1122 3375 1075 2522 
Q 1259 2794 1537 2939 
Q 1816 3084 2150 3084 
Q 2853 3084 3261 2657 
Q 3669 2231 3669 1497 
Q 3669 778 3244 343 
Q 2819 -91 2113 -91 
Q 1303 -91 875 529 
Q 447 1150 447 2328 
Q 447 3434 972 4092 
Q 1497 4750 2381 4750 
Q 2619 4750 2861 4703 
Q 3103 4656 3366 4563 
z
" transform="scale(0.015625)"/>
     </defs>
     <use xlink:href="#DejaVuSans-74"/>
     <use xlink:href="#DejaVuSans-27" x="39.208984"/>
     <use xlink:href="#DejaVuSans-20" x="66.699219"/>
     <use xlink:href="#DejaVuSans-3d" x="98.486328"/>
     <use xlink:href="#DejaVuSans-20" x="182.275391"/>
     <use xlink:href="#DejaVuSans-32" x="214.0625"/>
     <use xlink:href="#DejaVuSans-30" x="277.685547"/>
     <use xlink:href="#DejaVuSans-2e" x="341.308594"/>
     <use xlink:href="#DejaVuSans-36" x="373.095703"/>
    </g>
   </g>
   <g id="text_4">
    <!-- t' = 16.5 -->
    <g transform="translate(162.432 244.224066) scale(0.1 -0.1)">
     <defs>
      <path id="DejaVuSans-31" d="M 794 531 
L 1825 531 
L 1825 4091 
L 703 3866 
L 703 4441 
L 1819 4666 
L 2450 4666 
L 2450 531 
L 3481 531 
L 3481 0 
L 794 0 
L 794 531 
z
" transform="scale(0.015625)"/>
      <path id="DejaVuSans-35" d="M 691 4666 
L 3169 4666 
L 3169 4134 
L 1269 4134 
L 1269 2991 
Q 1406 3038 1543 3061 
Q 1681 3084 1819 3084 
Q 2600 3084 3056 2656 
Q 3513 2228 3513 1497 
Q 3513 744 3044 326 
Q 2575 -91 1722 -91 
Q 1428 -91 1123 -41 
Q 819 9 494 109 
L 494 744 
Q 775 591 1075 516 
Q 1375 441 1709 441 
Q 2250 441 2565 725 
Q 2881 1009 2881 1497 
Q 2881 1984 2565 2268 
Q 2250 2553 1709 2553 
Q 1456 2553 1204 2497 
Q 953 2441 691 2322 
L 691 4666 
z
" transform="scale(0.015625)"/>
     </defs>
     <use xlink:href="#DejaVuSans-74"/>
     <use xlink:href="#DejaVuSans-27" x="39.208984"/>
     <use xlink:href="#DejaVuSans-20" x="66.699219"/>
     <use xlink:href="#DejaVuSans-3d" x="98.486328"/>
     <use xlink:href="#DejaVuSans-20" x="182.275391"/>
     <use xlink:href="#DejaVuSans-31" x="214.0625"/>
     <use xlink:href="#DejaVuSans-36" x="277.685547"/>
     <use xlink:href="#DejaVuSans-2e" x="341.308594"/>
     <use xlink:href="#DejaVuSans-35" x="373.095703"/>
    </g>
   </g>
   <g id="text_5">
    <!-- t' = 12.4 -->
    <g transform="translate(162.432 218.78645) scale(0.1 -0.1)">
     <defs>
      <path id="DejaVuSans-34" d="M 2419 4116 
L 825 1625 
L 2419 1625 
L 2419 4116 
z
M 2253 4666 
L 3047 4666 
L 3047 1625 
L 3713 1625 
L 3713 1100 
L 3047 1100 
L 3047 0 
L 2419 0 
L 2419 1100 
L 313 1100 
L 313 1709 
L 2253 4666 
z
" transform="scale(0.015625)"/>
     </defs>
     <use xlink:href="#DejaVuSans-74"/>
     <use xlink:href="#DejaVuSans-27" x="39.208984"/>
     <use xlink:href="#DejaVuSans-20" x="66.699219"/>
     <use xlink:href="#DejaVuSans-3d" x="98.486328"/>
     <use xlink:href="#DejaVuSans-20" x="182.275391"/>
     <use xlink:href="#DejaVuSans-31" x="214.0625"/>
     <use xlink:href="#DejaVuSans-32" x="277.685547"/>
     <use xlink:href="#DejaVuSans-2e" x="341.308594"/>
     <use xlink:href="#DejaVuSans-34" x="373.095703"/>
    </g>
   </g>
   <g id="text_6">
    <!-- t' = 8.3 -->
    <g transform="translate(162.432 193.348833) scale(0.1 -0.1)">
     <defs>
      <path id="DejaVuSans-38" d="M 2034 2216 
Q 1584 2216 1326 1975 
Q 1069 1734 1069 1313 
Q 1069 891 1326 650 
Q 1584 409 2034 409 
Q 2484 409 2743 651 
Q 3003 894 3003 1313 
Q 3003 1734 2745 1975 
Q 2488 2216 2034 2216 
z
M 1403 2484 
Q 997 2584 770 2862 
Q 544 3141 544 3541 
Q 544 4100 942 4425 
Q 1341 4750 2034 4750 
Q 2731 4750 3128 4425 
Q 3525 4100 3525 3541 
Q 3525 3141 3298 2862 
Q 3072 2584 2669 2484 
Q 3125 2378 3379 2068 
Q 3634 1759 3634 1313 
Q 3634 634 3220 271 
Q 2806 -91 2034 -91 
Q 1263 -91 848 271 
Q 434 634 434 1313 
Q 434 1759 690 2068 
Q 947 2378 1403 2484 
z
M 1172 3481 
Q 1172 3119 1398 2916 
Q 1625 2713 2034 2713 
Q 2441 2713 2670 2916 
Q 2900 3119 2900 3481 
Q 2900 3844 2670 4047 
Q 2441 4250 2034 4250 
Q 1625 4250 1398 4047 
Q 1172 3844 1172 3481 
z
" transform="scale(0.015625)"/>
      <path id="DejaVuSans-33" d="M 2597 2516 
Q 3050 2419 3304 2112 
Q 3559 1806 3559 1356 
Q 3559 666 3084 287 
Q 2609 -91 1734 -91 
Q 1441 -91 1130 -33 
Q 819 25 488 141 
L 488 750 
Q 750 597 1062 519 
Q 1375 441 1716 441 
Q 2309 441 2620 675 
Q 2931 909 2931 1356 
Q 2931 1769 2642 2001 
Q 2353 2234 1838 2234 
L 1294 2234 
L 1294 2753 
L 1863 2753 
Q 2328 2753 2575 2939 
Q 2822 3125 2822 3475 
Q 2822 3834 2567 4026 
Q 2313 4219 1838 4219 
Q 1578 4219 1281 4162 
Q 984 4106 628 3988 
L 628 4550 
Q 988 4650 1302 4700 
Q 1616 4750 1894 4750 
Q 2613 4750 3031 4423 
Q 3450 4097 3450 3541 
Q 3450 3153 3228 2886 
Q 3006 2619 2597 2516 
z
" transform="scale(0.015625)"/>
     </defs>
     <use xlink:href="#DejaVuSans-74"/>
     <use xlink:href="#DejaVuSans-27" x="39.208984"/>
     <use xlink:href="#DejaVuSans-20" x="66.699219"/>
     <use xlink:href="#DejaVuSans-3d" x="98.486328"/>
     <use xlink:href="#DejaVuSans-20" x="182.275391"/>
     <use xlink:href="#DejaVuSans-38" x="214.0625"/>
     <use xlink:href="#DejaVuSans-2e" x="277.685547"/>
     <use xlink:href="#DejaVuSans-33" x="309.472656"/>
    </g>
   </g>
   <g id="text_7">
    <!-- t' = 4.1 -->
    <g transform="translate(162.432 167.911217) scale(0.1 -0.1)">
     <use xlink:href="#DejaVuSans-74"/>
     <use xlink:href="#DejaVuSans-27" x="39.208984"/>
     <use xlink:href="#DejaVuSans-20" x="66.699219"/>
     <use xlink:href="#DejaVuSans-3d" x="98.486328"/>
     <use xlink:href="#DejaVuSans-20" x="182.275391"/>
     <use xlink:href="#DejaVuSans-34" x="214.0625"/>
     <use xlink:href="#DejaVuSans-2e" x="277.685547"/>
     <use xlink:href="#DejaVuSans-31" x="309.472656"/>
    </g>
   </g>
   <g id="text_8">
    <!-- t' = 0.0 -->
    <g transform="translate(162.432 142.4736) scale(0.1 -0.1)">
     <use xlink:href="#DejaVuSans-74"/>
     <use xlink:href="#DejaVuSans-27" x="39.208984"/>
     <use xlink:href="#DejaVuSans-20" x="66.699219"/>
     <use xlink:href="#DejaVuSans-3d" x="98.486328"/>
     <use xlink:href="#DejaVuSans-20" x="182.275391"/>
     <use xlink:href="#DejaVuSans-30" x="214.0625"/>
     <use xlink:href="#DejaVuSans-2e" x="277.685547"/>
     <use xlink:href="#DejaVuSans-30" x="309.472656"/>
    </g>
   </g>
   <g id="text_9">
    <!-- t' = -4.1 -->
    <g transform="translate(162.432 117.035983) scale(0.1 -0.1)">
     <defs>
      <path id="DejaVuSans-2d" d="M 313 2009 
L 1997 2009 
L 1997 1497 
L 313 1497 
L 313 2009 
z
" transform="scale(0.015625)"/>
     </defs>
     <use xlink:href="#DejaVuSans-74"/>
     <use xlink:href="#DejaVuSans-27" x="39.208984"/>
     <use xlink:href="#DejaVuSans-20" x="66.699219"/>
     <use xlink:href="#DejaVuSans-3d" x="98.486328"/>
     <use xlink:href="#DejaVuSans-20" x="182.275391"/>
     <use xlink:href="#DejaVuSans-2d" x="214.0625"/>
     <use xlink:href="#DejaVuSans-34" x="250.146484"/>
     <use xlink:href="#DejaVuSans-2e" x="313.769531"/>
     <use xlink:href="#DejaVuSans-31" x="345.556641"/>
    </g>
   </g>
   <g id="text_10">
    <!-- t' = -8.3 -->
    <g transform="translate(162.432 91.598367) scale(0.1 -0.1)">
     <use xlink:href="#DejaVuSans-74"/>
     <use xlink:href="#DejaVuSans-27" x="39.208984"/>
     <use xlink:href="#DejaVuSans-20" x="66.699219"/>
     <use xlink:href="#DejaVuSans-3d" x="98.486328"/>
     <use xlink:href="#DejaVuSans-20" x="182.275391"/>
     <use xlink:href="#DejaVuSans-2d" x="214.0625"/>
     <use xlink:href="#DejaVuSans-38" x="250.146484"/>
     <use xlink:href="#DejaVuSans-2e" x="313.769531"/>
     <use xlink:href="#DejaVuSans-33" x="345.556641"/>
    </g>
   </g>
   <g id="text_11">
    <!-- t' = -12.4 -->
    <g transform="translate(162.432 66.16075) scale(0.1 -0.1)">
     <use xlink:href="#DejaVuSans-74"/>
     <use xlink:href="#DejaVuSans-27" x="39.208984"/>
     <use xlink:href="#DejaVuSans-20" x="66.699219"/>
     <use xlink:href="#DejaVuSans-3d" x="98.486328"/>
     <use xlink:href="#DejaVuSans-20" x="182.275391"/>
     <use xlink:href="#DejaVuSans-2d" x="214.0625"/>
     <use xlink:href="#DejaVuSans-31" x="250.146484"/>
     <use xlink:href="#DejaVuSans-32" x="313.769531"/>
     <use xlink:href="#DejaVuSans-2e" x="377.392578"/>
     <use xlink:href="#DejaVuSans-34" x="409.179688"/>
    </g>
   </g>
   <g id="text_12">
    <!-- t' = -16.5 -->
    <g transform="translate(162.432 40.723134) scale(0.1 -0.1)">
     <use xlink:href="#DejaVuSans-74"/>
     <use xlink:href="#DejaVuSans-27" x="39.208984"/>
     <use xlink:href="#DejaVuSans-20" x="66.699219"/>
     <use xlink:href="#DejaVuSans-3d" x="98.486328"/>
     <use xlink:href="#DejaVuSans-20" x="182.275391"/>
     <use xlink:href="#DejaVuSans-2d" x="214.0625"/>
     <use xlink:href="#DejaVuSans-31" x="250.146484"/>
     <use xlink:href="#DejaVuSans-36" x="313.769531"/>
     <use xlink:href="#DejaVuSans-2e" x="377.392578"/>
     <use xlink:href="#DejaVuSans-35" x="409.179688"/>
    </g>
   </g>
   <g id="text_13">
    <!-- t' = -20.6 -->
    <g transform="translate(162.432 15.285517) scale(0.1 -0.1)">
     <use xlink:href="#DejaVuSans-74"/>
     <use xlink:href="#DejaVuSans-27" x="39.208984"/>
     <use xlink:href="#DejaVuSans-20" x="66.699219"/>
     <use xlink:href="#DejaVuSans-3d" x="98.486328"/>
     <use xlink:href="#DejaVuSans-20" x="182.275391"/>
     <use xlink:href="#DejaVuSans-2d" x="214.0625"/>
     <use xlink:href="#DejaVuSans-32" x="250.146484"/>
     <use xlink:href="#DejaVuSans-30" x="313.769531"/>
     <use xlink:href="#DejaVuSans-2e" x="377.392578"/>
     <use xlink:href="#DejaVuSans-36" x="409.179688"/>
    </g>
   </g>
  </g>
 </g>
 <defs>
  <clipPath id="p35f939c192">
   <rect x="7.2" y="7.2" width="144.144" height="266.112"/>
  </clipPath>
 </defs>
</svg>
