<svg data-optimized="true" xmlns="http://www.w3.org/2000/svg" xml:space="preserve" width="4153" height="1878" overflow="hidden"><path fill="red" fill-rule="evenodd" stroke="#000" stroke-miterlimit="8" stroke-width="4.583" d="M831.5 938c0-9.11 7.16-16.5 16-16.5s16 7.39 16 16.5-7.16 16.5-16 16.5-16-7.39-16-16.5Z"/><path fill="none" stroke="red" stroke-miterlimit="8" stroke-width="10.313" d="M641 937.5C641 823.45 733.453 731 847.5 731c114.05 0 206.5 92.45 206.5 206.5S961.55 1144 847.5 1144c-114.047 0-206.5-92.45-206.5-206.5Z"/><path fill="none" stroke="red" stroke-miterlimit="8" stroke-width="10.313" d="M435 936c0-229.2 186.026-415 415.5-415 229.47 0 415.5 185.8 415.5 415s-186.03 415-415.5 415C621.026 1351 435 1165.2 435 936Z"/><path fill="none" stroke="red" stroke-miterlimit="8" stroke-width="10.313" d="M225 936c0-343.521 278.479-622 622-622 343.52 0 622 278.479 622 622 0 343.52-278.48 622-622 622-343.521 0-622-278.48-622-622Z"/><path fill="none" stroke="red" stroke-miterlimit="8" stroke-width="10.313" d="M5 935.5C5 470.752 381.976 94 847 94c465.02 0 842 376.752 842 841.5 0 464.75-376.98 841.5-842 841.5-465.024 0-842-376.75-842-841.5Z"/><path fill="red" fill-rule="evenodd" stroke="#000" stroke-miterlimit="8" stroke-width="4.583" d="M834.5 938c0-7.46 5.82-13.5 13-13.5s13 6.04 13 13.5-5.82 13.5-13 13.5-13-6.04-13-13.5Z"/><path fill="none" stroke="red" stroke-miterlimit="8" stroke-width="10.313" d="M728 937.5c0-65.45 53.05-118.5 118.5-118.5S965 872.05 965 937.5 911.95 1056 846.5 1056 728 1002.95 728 937.5Z"/><path fill="none" stroke="red" stroke-miterlimit="8" stroke-width="10.313" d="M534 937.5C534 765.46 673.239 626 845 626c171.76 0 311 139.46 311 311.5S1016.76 1249 845 1249c-171.761 0-311-139.46-311-311.5Z"/><path fill="none" stroke="red" stroke-miterlimit="8" stroke-width="10.313" d="M317 936c0-291.054 235.946-527 527-527 291.05 0 527 235.946 527 527 0 291.05-235.95 527-527 527-291.054 0-527-235.95-527-527Z"/><path fill="none" stroke="red" stroke-miterlimit="8" stroke-width="10.313" d="M107 939c0-407.034 329.966-737 737-737 407.03 0 737 329.966 737 737 0 407.03-329.97 737-737 737-407.034 0-737-329.97-737-737Z"/><path fill="red" fill-opacity=".42" fill-rule="evenodd" stroke="#000" stroke-dasharray="4.58333 4.58333" stroke-miterlimit="8" stroke-opacity=".878" stroke-width="4.583" d="M3448.5 938c0-9.11 7.16-16.5 16-16.5s16 7.39 16 16.5-7.16 16.5-16 16.5-16-7.39-16-16.5Zm-203 0c0-9.11 7.16-16.5 16-16.5s16 7.39 16 16.5-7.16 16.5-16 16.5-16-7.39-16-16.5Zm406 0c0-9.11 7.16-16.5 16-16.5s16 7.39 16 16.5-7.16 16.5-16 16.5-16-7.39-16-16.5Z"/><path fill="none" stroke="red" stroke-miterlimit="8" stroke-width="10.313" d="M3434 939c0-128.68 104.32-233 233-233s233 104.32 233 233-104.32 233-233 233-233-104.32-233-233Z"/><path fill="none" stroke="red" stroke-miterlimit="8" stroke-width="10.313" d="M2996 935.5c0-258.746 209.53-468.5 468-468.5s468 209.754 468 468.5c0 258.75-209.53 468.5-468 468.5s-468-209.75-468-468.5Z"/><path fill="none" stroke="red" stroke-miterlimit="8" stroke-width="10.313" d="M2560 939.5c0-387.428 313.85-701.5 701-701.5s701 314.072 701 701.5c0 387.43-313.85 701.5-701 701.5s-701-314.07-701-701.5Z"/><path fill="none" stroke="red" stroke-miterlimit="8" stroke-width="10.313" d="M2124 939c0-515.834 418.17-934 934-934s934 418.166 934 934c0 515.83-418.17 934-934 934s-934-418.17-934-934Z"/><path fill="red" fill-opacity=".42" fill-rule="evenodd" stroke="#000" stroke-dasharray="4.58333 4.58333" stroke-miterlimit="8" stroke-opacity=".878" stroke-width="4.583" d="M3042.5 938c0-9.11 7.16-16.5 16-16.5s16 7.39 16 16.5-7.16 16.5-16 16.5-16-7.39-16-16.5Z"/><path d="M3903 926.97h117.39v24.06H3903Zm105.36-24.06 72.19 36.09-72.19 36.09Z"/><path fill="red" fill-rule="evenodd" stroke="#000" stroke-miterlimit="8" stroke-opacity=".878" stroke-width="4.583" d="M3854.5 938c0-9.11 7.16-16.5 16-16.5s16 7.39 16 16.5-7.16 16.5-16 16.5-16-7.39-16-16.5Z"/></svg>