<svg data-optimized="true" xmlns="http://www.w3.org/2000/svg" xmlns:xlink="http://www.w3.org/1999/xlink" width="140.637" height="114.448" viewBox="0 0 105.478 85.836"><defs><clipPath id="a"><path d="M0 0h105.477v85.836H0Zm0 0"/></clipPath><clipPath id="g"><path d="M91 42h14.477v2H91Zm0 0"/></clipPath><clipPath id="h"><path d="M79 20h26.477v27H79Zm0 0"/></clipPath><clipPath id="i"><path d="M76 10h29.477v30H76Zm0 0"/></clipPath><clipPath id="j"><path d="M30 56h30v29.836H30Zm0 0"/></clipPath><clipPath id="k"><path d="M40 59h27v26.836H40Zm0 0"/></clipPath><clipPath id="l"><path d="M62 71h1v14.836h-1Zm0 0"/></clipPath><clipPath id="m"><path d="M58 59h27v26.836H58Zm0 0"/></clipPath><clipPath id="n"><path d="M65 56h31v29.836H65Zm0 0"/></clipPath><clipPath id="o"><path d="M76 46h29.477v30H76Zm0 0"/></clipPath><clipPath id="p"><path d="M79 39h26.477v27H79Zm0 0"/></clipPath><symbol id="b" overflow="visible"><path d="M6.61-2.656h-.438C5.859-1.016 5.406-.47 3.859-.47h-.656c-.515 0-.719-.062-.719-.484v-2.531h.204c1.234 0 1.406.5 1.421 1.437h.47v-3.281h-.47c-.046.984-.437 1.375-1.39 1.375h-.235v-2.281c0-.422.094-.5.625-.5h.516c1.656 0 2.078.343 2.36 2.093h.437v-2.562H.297v.469h.172c.812 0 .89.062.89.468v5.329c0 .421-.078.468-.89.468H.297V0h6.11Zm0 0" style="stroke:none"/></symbol><symbol id="c" overflow="visible"><path d="M5.406-.516c0-.062-.047-.109-.093-.109-.141 0-.375.11-.422.11-.282 0-.391-.188-.391-.688v-2c0-1.281-.703-1.594-1.844-1.594-1.125 0-1.953.531-1.953 1.25 0 .375.235.61.578.61.313 0 .547-.204.547-.5 0-.188-.219-.485-.219-.547 0-.203.407-.375.891-.375.656 0 1.063.218 1.063 1.093v.391C1.25-2.485.438-2 .438-1.015.438-.314 1 .155 1.89.155c.687 0 1.297-.281 1.734-.797.156.516.406.704.875.704.438 0 .906-.282.906-.579M3.563-2c0 .61-.032.75-.188 1-.25.375-.719.625-1.14.625a.755.755 0 0 1-.782-.781c0-.703.39-1 2.11-1.297Zm0 0" style="stroke:none"/></symbol><symbol id="d" overflow="visible"><path d="M4.344-4c0-.469-.344-.797-.875-.797-.625 0-1.172.516-1.5 1.39V-4.64l-1.766.11v.422h.422c.36 0 .422.078.422.5v2.78c0 .407-.016.47-.656.47H.25V0h2.656v-.36H2.72c-.64 0-.75-.062-.75-.468v-.5c0-.75.14-1.5.39-2.078.25-.547.579-.86 1-.906-.14.156-.171.25-.171.437 0 .328.218.563.546.563.36 0 .61-.282.61-.688m0 0" style="stroke:none"/></symbol><symbol id="e" overflow="visible"><path d="M3.734-1.578c0-.063 0-.14-.015-.234h-.422c-.031.89-.281 1.359-.781 1.359-.453 0-.578-.25-.578-1.047v-2.719h1.468v-.422H1.937v-1.984h-.406C1.421-5.328.984-4.672.171-4.609v.39H1v2.547c0 .703.016.938.11 1.172.171.422.562.656 1.14.656.984 0 1.484-.797 1.484-1.734m0 0" style="stroke:none"/></symbol><symbol id="f" overflow="visible"><path d="M5.906 0v-.36h-.14c-.625 0-.641-.062-.641-.468v-1.969c0-.719-.031-.89-.203-1.234-.25-.469-.75-.766-1.36-.766-.624 0-1.124.297-1.562.969v-3.516l-1.844.11v.422h.469c.375 0 .438.078.438.5v5.484c0 .406-.016.469-.657.469h-.14V0h2.53v-.36h-.14C2-.36 2-.421 2-.827V-2.25c0-.5.063-.953.172-1.172.203-.453.656-.765 1.094-.765.25 0 .547.156.703.343.14.219.219.531.219 1.016v2c0 .406-.016.469-.657.469h-.14V0Zm0 0" style="stroke:none"/></symbol></defs><g clip-path="url(#a)"><path d="M0 85.836h105.477V0H0Zm0 0" style="stroke:none;fill-rule:nonzero;fill:#ffe4c8;fill-opacity:1"/></g><path d="M28.346 0c0 15.656-12.691 28.348-28.347 28.348-15.653 0-28.344-12.692-28.344-28.348S-15.654-28.348-.001-28.348c15.656 0 28.347 12.692 28.347 28.348Zm0 0" style="fill:none;stroke-width:.3985;stroke-linecap:butt;stroke-linejoin:miter;stroke:#000;stroke-opacity:1;stroke-miterlimit:10" transform="matrix(1 0 0 -1 62.56 42.918)"/><g style="fill:#000;fill-opacity:1"><use xlink:href="#b" x="48.926" y="46.579"/><use xlink:href="#c" x="56.119" y="46.579"/><use xlink:href="#d" x="61.658" y="46.579"/></g><use xlink:href="#e" x="66.281" y="46.579" style="fill:#000;fill-opacity:1"/><use xlink:href="#f" x="70.106" y="46.579" style="fill:#000;fill-opacity:1"/><path d="M-8.505-8.504h11.27" style="fill:none;stroke-width:1.19553;stroke-linecap:butt;stroke-linejoin:miter;stroke:#000;stroke-opacity:1;stroke-miterlimit:10" transform="matrix(1 0 0 -1 62.56 42.918)"/><path d="M71.063 51.422c-1.7-.32-4.461-1.274-6.376-2.39v4.78c1.915-1.113 4.676-2.07 6.376-2.39" style="stroke:none;fill-rule:nonzero;fill:#000;fill-opacity:1"/><g clip-path="url(#g)"><path d="M42.522 0H29.143" style="fill:none;stroke-width:.79701;stroke-linecap:butt;stroke-linejoin:miter;stroke:#000;stroke-opacity:1;stroke-miterlimit:10" transform="matrix(1 0 0 -1 62.56 42.918)"/></g><path d="M-2.55 3.11C-2.085 1.245-1.046.362 0 0c-1.046-.363-2.085-1.246-2.55-3.11" style="fill:none;stroke-width:.79701;stroke-linecap:round;stroke-linejoin:round;stroke:#000;stroke-opacity:1;stroke-miterlimit:10" transform="matrix(-1 0 0 1 91.305 42.918)"/><g clip-path="url(#h)"><path d="M41.073 11.004 28.15 7.543" style="fill:none;stroke-width:.79701;stroke-linecap:butt;stroke-linejoin:miter;stroke:#000;stroke-opacity:1;stroke-miterlimit:10" transform="matrix(1 0 0 -1 62.56 42.918)"/></g><path d="M-2.55 3.112C-2.082 1.244-1.044.363.002-.002c-1.047-.362-2.083-1.241-2.552-3.11" style="fill:none;stroke-width:.79701;stroke-linecap:round;stroke-linejoin:round;stroke:#000;stroke-opacity:1;stroke-miterlimit:10" transform="scale(-1 1)rotate(14.998 -179.92 -325.347)"/><g clip-path="url(#i)"><path d="M36.823 21.262 25.24 14.57" style="fill:none;stroke-width:.79701;stroke-linecap:butt;stroke-linejoin:miter;stroke:#000;stroke-opacity:1;stroke-miterlimit:10" transform="matrix(1 0 0 -1 62.56 42.918)"/></g><path d="M-2.55 3.112C-2.086 1.246-1.049.363.001 0c-1.05-.364-2.086-1.245-2.555-3.113" style="fill:none;stroke-width:.79701;stroke-linecap:round;stroke-linejoin:round;stroke:#000;stroke-opacity:1;stroke-miterlimit:10" transform="matrix(-.86601 .49998 .49998 .86601 87.454 28.545)"/><path d="m30.065 30.066-9.457-9.457" style="fill:none;stroke-width:.79701;stroke-linecap:butt;stroke-linejoin:miter;stroke:#000;stroke-opacity:1;stroke-miterlimit:10" transform="matrix(1 0 0 -1 62.56 42.918)"/><path d="M-2.551 3.112C-2.085 1.242-1.046.364 0 .002c-1.047-.368-2.086-1.246-2.55-3.113" style="fill:none;stroke-width:.79701;stroke-linecap:round;stroke-linejoin:round;stroke:#000;stroke-opacity:1;stroke-miterlimit:10" transform="scale(-1 1)rotate(45 -68.715 -88.757)"/><path d="m21.26 36.824-6.687-11.586" style="fill:none;stroke-width:.79701;stroke-linecap:butt;stroke-linejoin:miter;stroke:#000;stroke-opacity:1;stroke-miterlimit:10" transform="matrix(1 0 0 -1 62.56 42.918)"/><path d="M-2.55 3.112C-2.084 1.242-1.045.363 0 0-1.046-.363-2.085-1.243-2.554-3.11" style="fill:none;stroke-width:.79701;stroke-linecap:round;stroke-linejoin:round;stroke:#000;stroke-opacity:1;stroke-miterlimit:10" transform="matrix(-.49998 .86601 .86601 .49998 76.933 18.024)"/><path d="M11.006 41.07 7.542 28.152" style="fill:none;stroke-width:.79701;stroke-linecap:butt;stroke-linejoin:miter;stroke:#000;stroke-opacity:1;stroke-miterlimit:10" transform="matrix(1 0 0 -1 62.56 42.918)"/><path d="M-2.552 3.11C-2.084 1.245-1.047.363 0 0-1.047-.36-2.084-1.246-2.55-3.11" style="fill:none;stroke-width:.79701;stroke-linecap:round;stroke-linejoin:round;stroke:#000;stroke-opacity:1;stroke-miterlimit:10" transform="scale(-1 1)rotate(75.002 -44.873 -38.035)"/><path d="M-.001 42.52V29.145" style="fill:none;stroke-width:.79701;stroke-linecap:butt;stroke-linejoin:miter;stroke:#000;stroke-opacity:1;stroke-miterlimit:10" transform="matrix(1 0 0 -1 62.56 42.918)"/><path d="M-2.552 3.112C-2.082 1.245-1.048.362 0-.001c-1.047-.364-2.082-1.243-2.55-3.11" style="fill:none;stroke-width:.79701;stroke-linecap:round;stroke-linejoin:round;stroke:#000;stroke-opacity:1;stroke-miterlimit:10" transform="matrix(0 1 1 0 62.56 14.173)"/><path d="m-11.005 41.07 3.46-12.918" style="fill:none;stroke-width:.79701;stroke-linecap:butt;stroke-linejoin:miter;stroke:#000;stroke-opacity:1;stroke-miterlimit:10" transform="matrix(1 0 0 -1 62.56 42.918)"/><path d="M-2.551 3.11C-2.085 1.244-1.047.363 0 0-1.047-.361-2.084-1.243-2.55-3.108" style="fill:none;stroke-width:.79701;stroke-linecap:round;stroke-linejoin:round;stroke:#000;stroke-opacity:1;stroke-miterlimit:10" transform="scale(1 -1)rotate(-75.002 17.687 -43.492)"/><path d="m-21.26 36.824 6.688-11.586" style="fill:none;stroke-width:.79701;stroke-linecap:butt;stroke-linejoin:miter;stroke:#000;stroke-opacity:1;stroke-miterlimit:10" transform="matrix(1 0 0 -1 62.56 42.918)"/><path d="M-2.552 3.111C-2.084 1.244-1.044.364 0 .001c-1.044-.363-2.086-1.246-2.55-3.112" style="fill:none;stroke-width:.79701;stroke-linecap:round;stroke-linejoin:round;stroke:#000;stroke-opacity:1;stroke-miterlimit:10" transform="scale(.99998 -.99998)rotate(-60.001 8.485 -50.744)"/><path d="m-30.068 30.066 9.461-9.457" style="fill:none;stroke-width:.79701;stroke-linecap:butt;stroke-linejoin:miter;stroke:#000;stroke-opacity:1;stroke-miterlimit:10" transform="matrix(1 0 0 -1 62.56 42.918)"/><path d="M-2.55 3.11C-2.085 1.244-1.049.363.001-.002c-1.047-.362-2.089-1.243-2.553-3.11" style="fill:none;stroke-width:.79701;stroke-linecap:round;stroke-linejoin:round;stroke:#000;stroke-opacity:1;stroke-miterlimit:10" transform="scale(1 -1)rotate(-45 -6.154 -62.278)"/><path d="m-36.822 21.262 11.582-6.692" style="fill:none;stroke-width:.79701;stroke-linecap:butt;stroke-linejoin:miter;stroke:#000;stroke-opacity:1;stroke-miterlimit:10" transform="matrix(1 0 0 -1 62.56 42.918)"/><path d="M-2.552 3.112C-2.083 1.245-1.047.364-.001-.002c-1.046-.36-2.083-1.244-2.549-3.11" style="fill:none;stroke-width:.79701;stroke-linecap:round;stroke-linejoin:round;stroke:#000;stroke-opacity:1;stroke-miterlimit:10" transform="matrix(.86601 .49998 .49998 -.86601 37.666 28.545)"/><path d="m-41.072 11.004 12.922-3.461" style="fill:none;stroke-width:.79701;stroke-linecap:butt;stroke-linejoin:miter;stroke:#000;stroke-opacity:1;stroke-miterlimit:10" transform="matrix(1 0 0 -1 62.56 42.918)"/><path d="M-2.55 3.112C-2.085 1.242-1.045.365-.002.002c-1.042-.365-2.084-1.247-2.546-3.114" style="fill:none;stroke-width:.79701;stroke-linecap:round;stroke-linejoin:round;stroke:#000;stroke-opacity:1;stroke-miterlimit:10" transform="scale(1 -1)rotate(-14.998 -117.36 -149.898)"/><path d="M-42.52 0h13.378" style="fill:none;stroke-width:.79701;stroke-linecap:butt;stroke-linejoin:miter;stroke:#000;stroke-opacity:1;stroke-miterlimit:10" transform="matrix(1 0 0 -1 62.56 42.918)"/><path d="M-2.55 3.11C-2.083 1.245-1.044.362.003 0-1.045-.363-2.084-1.246-2.55-3.11" style="fill:none;stroke-width:.79701;stroke-linecap:round;stroke-linejoin:round;stroke:#000;stroke-opacity:1;stroke-miterlimit:10" transform="matrix(1 0 0 -1 33.815 42.918)"/><path d="m-41.072-11.004 12.922 3.461" style="fill:none;stroke-width:.79701;stroke-linecap:butt;stroke-linejoin:miter;stroke:#000;stroke-opacity:1;stroke-miterlimit:10" transform="matrix(1 0 0 -1 62.56 42.918)"/><path d="M-2.548 3.112C-2.086 1.245-1.044.363-.002-.001c-1.043-.364-2.083-1.242-2.548-3.11" style="fill:none;stroke-width:.79701;stroke-linecap:round;stroke-linejoin:round;stroke:#000;stroke-opacity:1;stroke-miterlimit:10" transform="scale(1 -1)rotate(14.998 208.672 106.98)"/><path d="m-36.822-21.262 11.582 6.692" style="fill:none;stroke-width:.79701;stroke-linecap:butt;stroke-linejoin:miter;stroke:#000;stroke-opacity:1;stroke-miterlimit:10" transform="matrix(1 0 0 -1 62.56 42.918)"/><path d="M-2.55 3.111C-2.084 1.246-1.047.363 0 .002c-1.046-.366-2.083-1.247-2.552-3.114" style="fill:none;stroke-width:.79701;stroke-linecap:round;stroke-linejoin:round;stroke:#000;stroke-opacity:1;stroke-miterlimit:10" transform="scale(.99998 -.99998)rotate(29.999 125.744 41.642)"/><path d="m-30.068-30.066 9.461 9.457" style="fill:none;stroke-width:.79701;stroke-linecap:butt;stroke-linejoin:miter;stroke:#000;stroke-opacity:1;stroke-miterlimit:10" transform="matrix(1 0 0 -1 62.56 42.918)"/><path d="M-2.55 3.111C-2.088 1.244-1.046.363.001.001c-1.05-.365-2.086-1.246-2.553-3.11" style="fill:none;stroke-width:.79701;stroke-linecap:round;stroke-linejoin:round;stroke:#000;stroke-opacity:1;stroke-miterlimit:10" transform="scale(1 -1)rotate(45 97.46 19.36)"/><g clip-path="url(#j)"><path d="m-21.26-36.824 6.688 11.586" style="fill:none;stroke-width:.79701;stroke-linecap:butt;stroke-linejoin:miter;stroke:#000;stroke-opacity:1;stroke-miterlimit:10" transform="matrix(1 0 0 -1 62.56 42.918)"/></g><path d="M-2.55 3.11C-2.086 1.246-1.044.363 0 0c-1.044-.364-2.083-1.244-2.552-3.111" style="fill:none;stroke-width:.79701;stroke-linecap:round;stroke-linejoin:round;stroke:#000;stroke-opacity:1;stroke-miterlimit:10" transform="scale(.99998 -.99998)rotate(60.001 82.822 7.825)"/><g clip-path="url(#k)"><path d="m-11.005-41.07 3.46 12.918" style="fill:none;stroke-width:.79701;stroke-linecap:butt;stroke-linejoin:miter;stroke:#000;stroke-opacity:1;stroke-miterlimit:10" transform="matrix(1 0 0 -1 62.56 42.918)"/></g><path d="M-2.551 3.109C-2.084 1.244-1.047.362 0-.001c-1.048-.361-2.086-1.242-2.552-3.11" style="fill:none;stroke-width:.79701;stroke-linecap:round;stroke-linejoin:round;stroke:#000;stroke-opacity:1;stroke-miterlimit:10" transform="scale(1 -1)rotate(75.002 73.617 .574)"/><g clip-path="url(#l)"><path d="M-.001-42.52v13.376" style="fill:none;stroke-width:.79701;stroke-linecap:butt;stroke-linejoin:miter;stroke:#000;stroke-opacity:1;stroke-miterlimit:10" transform="matrix(1 0 0 -1 62.56 42.918)"/></g><path d="M-2.552 3.11C-2.082 1.245-1.048.366 0 .002c-1.047-.363-2.082-1.246-2.55-3.113" style="fill:none;stroke-width:.79701;stroke-linecap:round;stroke-linejoin:round;stroke:#000;stroke-opacity:1;stroke-miterlimit:10" transform="matrix(0 -1 -1 0 62.56 71.663)"/><g clip-path="url(#m)"><path d="M11.006-41.07 7.542-28.152" style="fill:none;stroke-width:.79701;stroke-linecap:butt;stroke-linejoin:miter;stroke:#000;stroke-opacity:1;stroke-miterlimit:10" transform="matrix(1 0 0 -1 62.56 42.918)"/></g><path d="M-2.551 3.11C-2.084 1.246-1.047.36 0 0c-1.047-.363-2.084-1.245-2.552-3.11" style="fill:none;stroke-width:.79701;stroke-linecap:round;stroke-linejoin:round;stroke:#000;stroke-opacity:1;stroke-miterlimit:10" transform="scale(-1 1)rotate(-75.002 11.057 80.954)"/><g clip-path="url(#n)"><path d="m21.26-36.824-6.687 11.586" style="fill:none;stroke-width:.79701;stroke-linecap:butt;stroke-linejoin:miter;stroke:#000;stroke-opacity:1;stroke-miterlimit:10" transform="matrix(1 0 0 -1 62.56 42.918)"/></g><path d="M-2.553 3.11C-2.084 1.243-1.045.363-.001 0c-1.044-.363-2.083-1.242-2.55-3.112" style="fill:none;stroke-width:.79701;stroke-linecap:round;stroke-linejoin:round;stroke:#000;stroke-opacity:1;stroke-miterlimit:10" transform="scale(-.99998 .99998)rotate(-60.001 20.26 100.533)"/><path d="m30.065-30.066-9.457 9.457" style="fill:none;stroke-width:.79701;stroke-linecap:butt;stroke-linejoin:miter;stroke:#000;stroke-opacity:1;stroke-miterlimit:10" transform="matrix(1 0 0 -1 62.56 42.918)"/><path d="M-2.549 3.111C-2.085 1.244-1.046.366.001-.002c-1.047-.362-2.086-1.24-2.552-3.11" style="fill:none;stroke-width:.79701;stroke-linecap:round;stroke-linejoin:round;stroke:#000;stroke-opacity:1;stroke-miterlimit:10" transform="scale(-1 1)rotate(-45 34.9 131.676)"/><g clip-path="url(#o)"><path d="M36.823-21.262 25.24-14.57" style="fill:none;stroke-width:.79701;stroke-linecap:butt;stroke-linejoin:miter;stroke:#000;stroke-opacity:1;stroke-miterlimit:10" transform="matrix(1 0 0 -1 62.56 42.918)"/></g><path d="M-2.553 3.112C-2.083 1.244-1.047.363.002-.001c-1.05-.362-2.087-1.245-2.553-3.11" style="fill:none;stroke-width:.79701;stroke-linecap:round;stroke-linejoin:round;stroke:#000;stroke-opacity:1;stroke-miterlimit:10" transform="scale(-.99998 .99998)rotate(-29.999 63.182 191.845)"/><g clip-path="url(#p)"><path d="M41.073-11.004 28.15-7.543" style="fill:none;stroke-width:.79701;stroke-linecap:butt;stroke-linejoin:miter;stroke:#000;stroke-opacity:1;stroke-miterlimit:10" transform="matrix(1 0 0 -1 62.56 42.918)"/></g><path d="M-2.55 3.112C-2.083 1.243-1.047.364 0 .002c-1.046-.365-2.084-1.246-2.55-3.114" style="fill:none;stroke-width:.79701;stroke-linecap:round;stroke-linejoin:round;stroke:#000;stroke-opacity:1;stroke-miterlimit:10" transform="scale(-1 1)rotate(-14.998 146.112 368.265)"/><path d="M26.647 0c0 15.656-12.691 28.348-28.348 28.348S-30.048 15.656-30.048 0s12.691-28.348 28.347-28.348S26.647-15.656 26.647 0Zm0 0" style="fill:none;stroke-width:.3985;stroke-linecap:butt;stroke-linejoin:miter;stroke:#000;stroke-opacity:.57;stroke-miterlimit:10" transform="matrix(1 0 0 -1 62.56 42.918)"/><path d="M24.944 0c0 15.656-12.691 28.348-28.344 28.348-15.656 0-28.347-12.692-28.347-28.348S-19.057-28.348-3.4-28.348c15.653 0 28.344 12.692 28.344 28.348Zm0 0" style="fill:none;stroke-width:.3985;stroke-linecap:butt;stroke-linejoin:miter;stroke:#000;stroke-opacity:.54001;stroke-miterlimit:10" transform="matrix(1 0 0 -1 62.56 42.918)"/><path d="M23.245 0c0 15.656-12.692 28.348-28.348 28.348S-33.451 15.656-33.451 0s12.692-28.348 28.348-28.348S23.245-15.656 23.245 0Zm0 0" style="fill:none;stroke-width:.3985;stroke-linecap:butt;stroke-linejoin:miter;stroke:#000;stroke-opacity:.51;stroke-miterlimit:10" transform="matrix(1 0 0 -1 62.56 42.918)"/><path d="M21.545 0c0 15.656-12.69 28.348-28.347 28.348C-22.458 28.348-35.15 15.656-35.15 0s12.692-28.348 28.348-28.348S21.545-15.656 21.545 0Zm0 0" style="fill:none;stroke-width:.3985;stroke-linecap:butt;stroke-linejoin:miter;stroke:#000;stroke-opacity:.48;stroke-miterlimit:10" transform="matrix(1 0 0 -1 62.56 42.918)"/><path d="M19.842 0c0 15.656-12.691 28.348-28.347 28.348C-24.158 28.348-36.85 15.656-36.85 0s12.691-28.348 28.344-28.348C7.15-28.348 19.842-15.656 19.842 0Zm0 0" style="fill:none;stroke-width:.3985;stroke-linecap:butt;stroke-linejoin:miter;stroke:#000;stroke-opacity:.45;stroke-miterlimit:10" transform="matrix(1 0 0 -1 62.56 42.918)"/><path d="M18.143 0c0 15.656-12.691 28.348-28.348 28.348S-38.552 15.656-38.552 0s12.691-28.348 28.347-28.348S18.143-15.656 18.143 0Zm0 0" style="fill:none;stroke-width:.3985;stroke-linecap:butt;stroke-linejoin:miter;stroke:#000;stroke-opacity:.42;stroke-miterlimit:10" transform="matrix(1 0 0 -1 62.56 42.918)"/><path d="M16.44 0c0 15.656-12.691 28.348-28.344 28.348C-27.56 28.348-40.25 15.656-40.25 0s12.691-28.348 28.347-28.348C3.75-28.348 16.44-15.656 16.44 0Zm0 0" style="fill:none;stroke-width:.3985;stroke-linecap:butt;stroke-linejoin:miter;stroke:#000;stroke-opacity:.39;stroke-miterlimit:10" transform="matrix(1 0 0 -1 62.56 42.918)"/><path d="M14.74 0c0 15.656-12.69 28.348-28.347 28.348-15.656 0-28.348-12.692-28.348-28.348s12.692-28.348 28.348-28.348S14.741-15.656 14.741 0Zm0 0" style="fill:none;stroke-width:.3985;stroke-linecap:butt;stroke-linejoin:miter;stroke:#000;stroke-opacity:.36;stroke-miterlimit:10" transform="matrix(1 0 0 -1 62.56 42.918)"/><path d="M13.042 0c0 15.656-12.692 28.348-28.348 28.348S-43.654 15.656-43.654 0s12.692-28.348 28.348-28.348S13.042-15.656 13.042 0Zm0 0" style="fill:none;stroke-width:.3985;stroke-linecap:butt;stroke-linejoin:miter;stroke:#000;stroke-opacity:.33;stroke-miterlimit:10" transform="matrix(1 0 0 -1 62.56 42.918)"/><path d="M11.338 0c0 15.656-12.691 28.348-28.347 28.348-15.653 0-28.344-12.692-28.344-28.348s12.691-28.348 28.344-28.348c15.656 0 28.347 12.692 28.347 28.348Zm0 0" style="fill:none;stroke-width:.3985;stroke-linecap:butt;stroke-linejoin:miter;stroke:#000;stroke-opacity:.3;stroke-miterlimit:10" transform="matrix(1 0 0 -1 62.56 42.918)"/><path d="M9.64 0c0 15.656-12.692 28.348-28.348 28.348-15.657 0-28.348-12.692-28.348-28.348s12.691-28.348 28.348-28.348S9.639-15.656 9.639 0Zm0 0" style="fill:none;stroke-width:.3985;stroke-linecap:butt;stroke-linejoin:miter;stroke:#000;stroke-opacity:.27;stroke-miterlimit:10" transform="matrix(1 0 0 -1 62.56 42.918)"/><path d="M7.936 0c0 15.656-12.687 28.348-28.344 28.348-15.656 0-28.347-12.692-28.347-28.348s12.691-28.348 28.347-28.348S7.936-15.656 7.936 0Zm0 0" style="fill:none;stroke-width:.3985;stroke-linecap:butt;stroke-linejoin:miter;stroke:#000;stroke-opacity:.24;stroke-miterlimit:10" transform="matrix(1 0 0 -1 62.56 42.918)"/><path d="M6.237 0c0 15.656-12.692 28.348-28.348 28.348S-50.455 15.656-50.455 0s12.688-28.348 28.344-28.348S6.237-15.656 6.237 0Zm0 0" style="fill:none;stroke-width:.3985;stroke-linecap:butt;stroke-linejoin:miter;stroke:#000;stroke-opacity:.20999;stroke-miterlimit:10" transform="matrix(1 0 0 -1 62.56 42.918)"/><path d="M4.538 0c0 15.656-12.692 28.348-28.348 28.348S-52.158 15.656-52.158 0s12.692-28.348 28.348-28.348S4.538-15.656 4.538 0Zm0 0" style="fill:none;stroke-width:.3985;stroke-linecap:butt;stroke-linejoin:miter;stroke:#000;stroke-opacity:.18;stroke-miterlimit:10" transform="matrix(1 0 0 -1 62.56 42.918)"/><path d="M2.835 0c0 15.656-12.692 28.348-28.344 28.348-15.656 0-28.348-12.692-28.348-28.348s12.692-28.348 28.348-28.348C-9.857-28.348 2.835-15.656 2.835 0Zm0 0" style="fill:none;stroke-width:.3985;stroke-linecap:butt;stroke-linejoin:miter;stroke:#000;stroke-opacity:.15;stroke-miterlimit:10" transform="matrix(1 0 0 -1 62.56 42.918)"/><path d="M1.135 0c0 15.656-12.691 28.348-28.347 28.348S-55.56 15.656-55.56 0s12.691-28.348 28.348-28.348S1.135-15.656 1.135 0Zm0 0" style="fill:none;stroke-width:.3985;stroke-linecap:butt;stroke-linejoin:miter;stroke:#000;stroke-opacity:.12;stroke-miterlimit:10" transform="matrix(1 0 0 -1 62.56 42.918)"/><path d="M-.564 0c0 15.656-12.691 28.348-28.348 28.348S-57.259 15.656-57.259 0s12.691-28.348 28.347-28.348S-.564-15.656-.564 0Zm0 0" style="fill:none;stroke-width:.3985;stroke-linecap:butt;stroke-linejoin:miter;stroke:#000;stroke-opacity:.09;stroke-miterlimit:10" transform="matrix(1 0 0 -1 62.56 42.918)"/><path d="M-2.267 0c0 15.656-12.691 28.348-28.348 28.348S-58.958 15.656-58.958 0s12.687-28.348 28.343-28.348S-2.267-15.656-2.267 0Zm0 0" style="fill:none;stroke-width:.3985;stroke-linecap:butt;stroke-linejoin:miter;stroke:#000;stroke-opacity:.06;stroke-miterlimit:10" transform="matrix(1 0 0 -1 62.56 42.918)"/><path d="M-3.966 0c0 15.656-12.692 28.348-28.348 28.348S-60.662 15.656-60.662 0s12.692-28.348 28.348-28.348S-3.966-15.656-3.966 0Zm0 0" style="fill:none;stroke-width:.3985;stroke-linecap:butt;stroke-linejoin:miter;stroke:#000;stroke-opacity:.03;stroke-miterlimit:10" transform="matrix(1 0 0 -1 62.56 42.918)"/><path d="M28.346 0c0 15.656-12.691 28.348-28.347 28.348-15.653 0-28.344-12.692-28.344-28.348S-15.654-28.348-.001-28.348c15.656 0 28.347 12.692 28.347 28.348Zm0 0" style="fill:none;stroke-width:.3985;stroke-linecap:butt;stroke-linejoin:miter;stroke:#000;stroke-opacity:1;stroke-miterlimit:10" transform="matrix(1 0 0 -1 62.56 42.918)"/></svg>