<svg xmlns="http://www.w3.org/2000/svg" xmlns:xlink="http://www.w3.org/1999/xlink" width="139.84" height="113.39" viewBox="0 0 104.88 85.04"><desc>A figure created by Phy-Hub, for The Handbook of Special Relativity</desc><defs><clipPath id="f"><path d="M92 42h12.88v1H92Zm0 0"/></clipPath><clipPath id="g"><path d="M81 22h23.88v25H81Zm0 0"/></clipPath><clipPath id="h"><path d="M78 14h26.88v26H78Zm0 0"/></clipPath><clipPath id="i"><path d="M73 7h31.88v27H73Zm0 0"/></clipPath><clipPath id="j"><path d="M31 53h26v32.04H31Zm0 0"/></clipPath><clipPath id="k"><path d="M38 58h29v27.04H38Zm0 0"/></clipPath><clipPath id="l"><path d="M45 60h31v25.04H45Zm0 0"/></clipPath><clipPath id="m"><path d="M53 61h32v24.04H53Zm0 0"/></clipPath><clipPath id="n"><path d="M60 59h34v26.04H60Zm0 0"/></clipPath><clipPath id="o"><path d="M73 51h31.88v27H73Zm0 0"/></clipPath><clipPath id="p"><path d="M78 45h26.88v26H78Zm0 0"/></clipPath><clipPath id="q"><path d="M81 38h23.88v25H81Zm0 0"/></clipPath><symbol id="a" overflow="visible"><path d="M6.6-2.66h-.43c-.31 1.64-.76 2.2-2.31 2.2H3.2c-.51 0-.72-.07-.72-.5v-2.52h.2c1.24 0 1.41.5 1.43 1.43h.47v-3.28H4.1c-.05.99-.44 1.38-1.4 1.38h-.23v-2.28c0-.43.1-.5.63-.5h.52c1.65 0 2.07.34 2.35 2.09h.44V-7.2H.3v.47h.17c.81 0 .89.06.89.46v5.33c0 .42-.08.47-.9.47H.3V0h6.1Zm0 0" style="stroke:none"/></symbol><symbol id="b" overflow="visible"><path d="M5.4-.52q0-.1-.09-.1c-.14 0-.37.1-.42.1-.28 0-.39-.18-.39-.68v-2c0-1.28-.7-1.6-1.84-1.6C1.53-4.8.7-4.27.7-3.55c0 .38.24.61.58.61.31 0 .55-.2.55-.5 0-.19-.22-.48-.22-.54 0-.2.4-.38.89-.38.66 0 1.06.22 1.06 1.1v.38C1.25-2.47.44-2 .44-1.01.44-.32 1 .16 1.89.16c.69 0 1.3-.29 1.74-.8.15.52.4.7.87.7.44 0 .9-.28.9-.58M3.57-2c0 .6-.03.75-.19 1-.25.38-.71.63-1.14.63a.76.76 0 0 1-.78-.79c0-.7.4-1 2.11-1.3Zm0 0" style="stroke:none"/></symbol><symbol id="c" overflow="visible"><path d="M4.34-4c0-.47-.34-.8-.87-.8-.63 0-1.17.52-1.5 1.4v-1.24l-1.77.1v.43h.43c.35 0 .42.08.42.5v2.78c0 .4-.02.47-.66.47H.25V0h2.66v-.36h-.2c-.63 0-.74-.06-.74-.47v-.5c0-.75.14-1.5.39-2.08q.37-.83 1-.9c-.14.15-.17.25-.17.43 0 .33.22.57.54.57.36 0 .61-.28.61-.69m0 0" style="stroke:none"/></symbol><symbol id="d" overflow="visible"><path d="m3.73-1.58-.01-.23H3.3Q3.26-.46 2.52-.45c-.46 0-.58-.25-.58-1.05v-2.72H3.4v-.42H1.94v-1.99h-.4Q1.36-4.69.16-4.6v.4H1v2.54c0 .7.02.94.1 1.17q.27.65 1.15.66c.98 0 1.48-.8 1.48-1.74m0 0" style="stroke:none"/></symbol><symbol id="e" overflow="visible"><path d="M5.9 0v-.36h-.13c-.63 0-.64-.06-.64-.47V-2.8c0-.72-.04-.89-.2-1.23a1.5 1.5 0 0 0-1.37-.77q-.91-.02-1.56.97v-3.51l-1.84.1v.43h.47c.37 0 .43.08.43.5v5.48c0 .4-.01.47-.65.47H.27V0H2.8v-.36h-.14C2-.36 2-.42 2-.83v-1.42c0-.5.06-.95.17-1.17.2-.46.66-.77 1.1-.77.25 0 .54.16.7.35q.21.3.22 1.01v2c0 .4-.02.47-.66.47H3.4V0Zm0 0" style="stroke:none"/></symbol></defs><path d="M0 85.04h104.88V0H0Zm0 0" style="stroke:none;fill-rule:nonzero;fill:#ffe4c8;fill-opacity:1"/><path d="M28.35 0a28.34 28.34 0 1 1-56.7 0 28.34 28.34 0 0 1 56.7 0Zm0 0" style="fill:none;stroke-width:.3985;stroke-linecap:butt;stroke-linejoin:miter;stroke:#000;stroke-opacity:1;stroke-miterlimit:10" transform="matrix(1 0 0 -1 62.36 42.52)"/><g style="fill:#000;fill-opacity:1"><use xlink:href="#a" x="48.73" y="46.18"/><use xlink:href="#b" x="55.92" y="46.18"/><use xlink:href="#c" x="61.46" y="46.18"/></g><use xlink:href="#d" x="66.08" y="46.18" style="fill:#000;fill-opacity:1"/><use xlink:href="#e" x="69.91" y="46.18" style="fill:#000;fill-opacity:1"/><g clip-path="url(#f)"><path d="M42.52 0H30.94" style="fill:none;stroke-width:.79701;stroke-linecap:butt;stroke-linejoin:miter;stroke:#000;stroke-opacity:1;stroke-miterlimit:10" transform="matrix(1 0 0 -1 62.36 42.52)"/></g><path d="m90.7 42.52 4.15 2.07-1.55-2.07 1.55-2.07" style="stroke:none;fill-rule:nonzero;fill:#000;fill-opacity:1"/><g clip-path="url(#g)"><path d="M41.5 8.58 29.96 7.56" style="fill:none;stroke-width:.79701;stroke-linecap:butt;stroke-linejoin:miter;stroke:#000;stroke-opacity:1;stroke-miterlimit:10" transform="matrix(1 0 0 -1 62.36 42.52)"/></g><path d="m89.74 35.18 4.31 1.7-1.73-1.92 1.37-2.2" style="stroke:none;fill-rule:nonzero;fill:#000;fill-opacity:1"/><g clip-path="url(#h)"><path d="m38.5 16.68-11.4-2.05" style="fill:none;stroke-width:.79701;stroke-linecap:butt;stroke-linejoin:miter;stroke:#000;stroke-opacity:1;stroke-miterlimit:10" transform="matrix(1 0 0 -1 62.36 42.52)"/></g><path d="m86.91 28.34 4.45 1.31-1.9-1.76 1.16-2.32" style="stroke:none;fill-rule:nonzero;fill:#000;fill-opacity:1"/><g clip-path="url(#i)"><path d="m33.68 23.89-11.14-3.14" style="fill:none;stroke-width:.79701;stroke-linecap:butt;stroke-linejoin:miter;stroke:#000;stroke-opacity:1;stroke-miterlimit:10" transform="matrix(1 0 0 -1 62.36 42.52)"/></g><path d="m82.4 22.48 4.56.87-2.06-1.58.93-2.41" style="stroke:none;fill-rule:nonzero;fill:#000;fill-opacity:1"/><path d="m27.33 29.8-10.75-4.29" style="fill:none;stroke-width:.79701;stroke-linecap:butt;stroke-linejoin:miter;stroke:#000;stroke-opacity:1;stroke-miterlimit:10" transform="matrix(1 0 0 -1 62.36 42.52)"/><path d="m76.54 17.97 4.61.39-2.2-1.35.66-2.5" style="stroke:none;fill-rule:nonzero;fill:#000;fill-opacity:1"/><path d="M19.77 34.19 9.6 28.62" style="fill:none;stroke-width:.79701;stroke-linecap:butt;stroke-linejoin:miter;stroke:#000;stroke-opacity:1;stroke-miterlimit:10" transform="matrix(1 0 0 -1 62.36 42.52)"/><path d="m69.7 15.14 4.63-.18-2.36-1.07.37-2.56" style="stroke:none;fill-rule:nonzero;fill:#000;fill-opacity:1"/><path d="M11.34 36.85 2.07 29.9" style="fill:none;stroke-width:.79701;stroke-linecap:butt;stroke-linejoin:miter;stroke:#000;stroke-opacity:1;stroke-miterlimit:10" transform="matrix(1 0 0 -1 62.36 42.52)"/><path d="m62.36 14.17 4.56-.83-2.49-.72v-2.6" style="stroke:none;fill-rule:nonzero;fill:#000;fill-opacity:1"/><path d="m2.34 37.74-7.9-8.47" style="fill:none;stroke-width:.79701;stroke-linecap:butt;stroke-linejoin:miter;stroke:#000;stroke-opacity:1;stroke-miterlimit:10" transform="matrix(1 0 0 -1 62.36 42.52)"/><path d="m55.02 15.14 4.35-1.62-2.58-.27-.45-2.55" style="stroke:none;fill-rule:nonzero;fill:#000;fill-opacity:1"/><path d="m-7.08 36.82-5.8-10.03" style="fill:none;stroke-width:.79701;stroke-linecap:butt;stroke-linejoin:miter;stroke:#000;stroke-opacity:1;stroke-miterlimit:10" transform="matrix(1 0 0 -1 62.36 42.52)"/><path d="m48.19 17.97 3.86-2.55-2.57.3-1.02-2.38" style="stroke:none;fill-rule:nonzero;fill:#000;fill-opacity:1"/><path d="m-17.01 33.89-2.48-11.32" style="fill:none;stroke-width:.79701;stroke-linecap:butt;stroke-linejoin:miter;stroke:#000;stroke-opacity:1;stroke-miterlimit:10" transform="matrix(1 0 0 -1 62.36 42.52)"/><path d="m42.32 22.48 2.9-3.6-2.35 1.07-1.69-1.97" style="stroke:none;fill-rule:nonzero;fill:#000;fill-opacity:1"/><path d="m-27.6 28.02 2.5-11.32" style="fill:none;stroke-width:.79701;stroke-linecap:butt;stroke-linejoin:miter;stroke:#000;stroke-opacity:1;stroke-miterlimit:10" transform="matrix(1 0 0 -1 62.36 42.52)"/><path d="m37.81 28.34 1.14-4.49-1.7 1.97-2.35-1.08" style="stroke:none;fill-rule:nonzero;fill:#000;fill-opacity:1"/><path d="m-37.73 17.02 8.46-7.92" style="fill:none;stroke-width:.79701;stroke-linecap:butt;stroke-linejoin:miter;stroke:#000;stroke-opacity:1;stroke-miterlimit:10" transform="matrix(1 0 0 -1 62.36 42.52)"/><path d="m34.98 35.18-1.6-4.34-.29 2.57-2.55.45" style="stroke:none;fill-rule:nonzero;fill:#000;fill-opacity:1"/><path d="M-42.52 0h11.58" style="fill:none;stroke-width:.79701;stroke-linecap:butt;stroke-linejoin:miter;stroke:#000;stroke-opacity:1;stroke-miterlimit:10" transform="matrix(1 0 0 -1 62.36 42.52)"/><path d="m34.02 42.52-4.15-2.07 1.56 2.07-1.56 2.07" style="stroke:none;fill-rule:nonzero;fill:#000;fill-opacity:1"/><path d="m-37.73-17.02 8.46 7.91" style="fill:none;stroke-width:.79701;stroke-linecap:butt;stroke-linejoin:miter;stroke:#000;stroke-opacity:1;stroke-miterlimit:10" transform="matrix(1 0 0 -1 62.36 42.52)"/><path d="m34.98 49.86-4.44 1.32 2.55.45.28 2.57" style="stroke:none;fill-rule:nonzero;fill:#000;fill-opacity:1"/><path d="m-27.6-28.02 2.5 11.32" style="fill:none;stroke-width:.79701;stroke-linecap:butt;stroke-linejoin:miter;stroke:#000;stroke-opacity:1;stroke-miterlimit:10" transform="matrix(1 0 0 -1 62.36 42.52)"/><path d="m37.81 56.7-2.91 3.6 2.36-1.08 1.69 1.96" style="stroke:none;fill-rule:nonzero;fill:#000;fill-opacity:1"/><g clip-path="url(#j)"><path d="m-17.01-33.89-2.48 11.32" style="fill:none;stroke-width:.79701;stroke-linecap:butt;stroke-linejoin:miter;stroke:#000;stroke-opacity:1;stroke-miterlimit:10" transform="matrix(1 0 0 -1 62.36 42.52)"/></g><path d="m42.32 62.56-1.14 4.5 1.7-1.97 2.35 1.08" style="stroke:none;fill-rule:nonzero;fill:#000;fill-opacity:1"/><g clip-path="url(#k)"><path d="m-7.08-36.82-5.8 10.03" style="fill:none;stroke-width:.79701;stroke-linecap:butt;stroke-linejoin:miter;stroke:#000;stroke-opacity:1;stroke-miterlimit:10" transform="matrix(1 0 0 -1 62.36 42.52)"/></g><path d="m48.19 67.07.27 4.62 1.02-2.38 2.57.31" style="stroke:none;fill-rule:nonzero;fill:#000;fill-opacity:1"/><g clip-path="url(#l)"><path d="m2.34-37.74-7.9 8.47" style="fill:none;stroke-width:.79701;stroke-linecap:butt;stroke-linejoin:miter;stroke:#000;stroke-opacity:1;stroke-miterlimit:10" transform="matrix(1 0 0 -1 62.36 42.52)"/></g><path d="m55.02 69.9 1.32 4.44.45-2.55 2.58-.27" style="stroke:none;fill-rule:nonzero;fill:#000;fill-opacity:1"/><g clip-path="url(#m)"><path d="M11.34-36.85 2.07-29.9" style="fill:none;stroke-width:.79701;stroke-linecap:butt;stroke-linejoin:miter;stroke:#000;stroke-opacity:1;stroke-miterlimit:10" transform="matrix(1 0 0 -1 62.36 42.52)"/></g><path d="M62.36 70.87 64.43 75v-2.6l2.5-.71" style="stroke:none;fill-rule:nonzero;fill:#000;fill-opacity:1"/><g clip-path="url(#n)"><path d="M19.77-34.18 9.6-28.63" style="fill:none;stroke-width:.79701;stroke-linecap:butt;stroke-linejoin:miter;stroke:#000;stroke-opacity:1;stroke-miterlimit:10" transform="matrix(1 0 0 -1 62.36 42.52)"/></g><path d="m69.7 69.9 2.64 3.8-.37-2.56 2.36-1.07" style="stroke:none;fill-rule:nonzero;fill:#000;fill-opacity:1"/><path d="m27.33-29.8-10.75 4.29" style="fill:none;stroke-width:.79701;stroke-linecap:butt;stroke-linejoin:miter;stroke:#000;stroke-opacity:1;stroke-miterlimit:10" transform="matrix(1 0 0 -1 62.36 42.52)"/><path d="m76.54 67.07 3.07 3.46-.67-2.5 2.21-1.35" style="stroke:none;fill-rule:nonzero;fill:#000;fill-opacity:1"/><g clip-path="url(#o)"><path d="m33.68-23.89-11.14 3.14" style="fill:none;stroke-width:.79701;stroke-linecap:butt;stroke-linejoin:miter;stroke:#000;stroke-opacity:1;stroke-miterlimit:10" transform="matrix(1 0 0 -1 62.36 42.52)"/></g><path d="m82.4 62.56 3.43 3.12-.93-2.41 2.06-1.58" style="stroke:none;fill-rule:nonzero;fill:#000;fill-opacity:1"/><g clip-path="url(#p)"><path d="m38.5-16.68-11.4 2.05" style="fill:none;stroke-width:.79701;stroke-linecap:butt;stroke-linejoin:miter;stroke:#000;stroke-opacity:1;stroke-miterlimit:10" transform="matrix(1 0 0 -1 62.36 42.52)"/></g><path d="m86.91 56.7 3.71 2.76-1.16-2.3 1.9-1.77" style="stroke:none;fill-rule:nonzero;fill:#000;fill-opacity:1"/><g clip-path="url(#q)"><path d="M41.5-8.58 29.96-7.56" style="fill:none;stroke-width:.79701;stroke-linecap:butt;stroke-linejoin:miter;stroke:#000;stroke-opacity:1;stroke-miterlimit:10" transform="matrix(1 0 0 -1 62.36 42.52)"/></g><path d="m89.74 49.86 3.95 2.42-1.37-2.2 1.73-1.93" style="stroke:none;fill-rule:nonzero;fill:#000;fill-opacity:1"/></svg>