<svg xmlns="http://www.w3.org/2000/svg" xmlns:xlink="http://www.w3.org/1999/xlink" width="114.45" height="101.7" viewBox="0 0 85.84 76.28"><defs><clipPath id="a"><path d="M0 0h85.84v76.28H0Zm0 0"/></clipPath><clipPath id="g"><path d="M73 37h12.84v2H73Zm0 0"/></clipPath><clipPath id="h"><path d="M61 18h24.84v24H61Zm0 0"/></clipPath><clipPath id="i"><path d="M58 10h27.84v25H58Zm0 0"/></clipPath><clipPath id="j"><path d="M54 2h31.84v27H54Zm0 0"/></clipPath><clipPath id="k"><path d="M4 43h26v33.28H4Zm0 0"/></clipPath><clipPath id="l"><path d="M12 49h26v27.28H12Zm0 0"/></clipPath><clipPath id="m"><path d="M18 53h30v23.28H18Zm0 0"/></clipPath><clipPath id="n"><path d="M26 56h31v20.28H26Zm0 0"/></clipPath><clipPath id="o"><path d="M33 56h33v20.28H33Zm0 0"/></clipPath><clipPath id="p"><path d="M41 55h33v21.28H41Zm0 0"/></clipPath><clipPath id="q"><path d="M48 52h34v24.28H48Zm0 0"/></clipPath><clipPath id="r"><path d="M54 47h31.84v27H54Zm0 0"/></clipPath><clipPath id="s"><path d="M58 41h27.84v26H58Zm0 0"/></clipPath><clipPath id="t"><path d="M61 34h24.84v24H61Zm0 0"/></clipPath><symbol id="b" overflow="visible"><path d="M6.6-2.66h-.43c-.31 1.64-.76 2.2-2.31 2.2H3.2c-.51 0-.72-.07-.72-.5v-2.52h.2c1.24 0 1.41.5 1.43 1.43h.47v-3.28H4.1c-.05.99-.44 1.38-1.4 1.38h-.23v-2.28c0-.43.1-.5.63-.5h.52c1.65 0 2.07.34 2.35 2.09h.44V-7.2H.3v.47h.17c.81 0 .89.06.89.46v5.33c0 .42-.08.47-.9.47H.3V0h6.1Zm0 0" style="stroke:none"/></symbol><symbol id="c" overflow="visible"><path d="M5.4-.52q0-.1-.09-.1c-.14 0-.37.1-.42.1-.28 0-.39-.18-.39-.68v-2c0-1.28-.7-1.6-1.84-1.6C1.53-4.8.7-4.27.7-3.55c0 .38.24.61.58.61.31 0 .55-.2.55-.5 0-.19-.22-.48-.22-.54 0-.2.4-.38.89-.38.66 0 1.06.22 1.06 1.1v.38C1.25-2.47.44-2 .44-1.01.44-.32 1 .16 1.89.16c.69 0 1.3-.29 1.74-.8.15.52.4.7.87.7.44 0 .9-.28.9-.58M3.57-2c0 .6-.03.75-.19 1-.25.38-.71.63-1.14.63a.76.76 0 0 1-.78-.79c0-.7.4-1 2.11-1.3Zm0 0" style="stroke:none"/></symbol><symbol id="d" overflow="visible"><path d="M4.34-4c0-.47-.34-.8-.87-.8-.63 0-1.17.52-1.5 1.4v-1.24l-1.77.1v.43h.43c.35 0 .42.08.42.5v2.78c0 .4-.02.47-.66.47H.25V0h2.66v-.36h-.2c-.63 0-.74-.06-.74-.47v-.5c0-.75.14-1.5.39-2.08q.37-.83 1-.9c-.14.15-.17.25-.17.43 0 .33.22.57.54.57.36 0 .61-.28.61-.69m0 0" style="stroke:none"/></symbol><symbol id="e" overflow="visible"><path d="m3.73-1.58-.01-.23H3.3Q3.26-.46 2.52-.45c-.46 0-.58-.25-.58-1.05v-2.72H3.4v-.42H1.94v-1.99h-.4Q1.36-4.69.16-4.6v.4H1v2.54c0 .7.02.94.1 1.17q.27.65 1.15.66c.98 0 1.48-.8 1.48-1.74m0 0" style="stroke:none"/></symbol><symbol id="f" overflow="visible"><path d="M5.9 0v-.36h-.13c-.63 0-.64-.06-.64-.47V-2.8c0-.72-.04-.89-.2-1.23a1.5 1.5 0 0 0-1.37-.77q-.91-.02-1.56.97v-3.51l-1.84.1v.43h.47c.37 0 .43.08.43.5v5.48c0 .4-.01.47-.65.47H.27V0H2.8v-.36h-.14C2-.36 2-.42 2-.83v-1.42c0-.5.06-.95.17-1.17.2-.46.66-.77 1.1-.77.25 0 .54.16.7.35q.21.3.22 1.01v2c0 .4-.02.47-.66.47H3.4V0Zm0 0" style="stroke:none"/></symbol></defs><g clip-path="url(#a)"><path d="M0 76.28h85.84V0H0Zm0 0" style="stroke:none;fill-rule:nonzero;fill:#ffe4c8;fill-opacity:1"/></g><path d="M28.35 0a28.35 28.35 0 1 1-56.7 0 28.35 28.35 0 0 1 56.7 0Zm0 0" style="fill:none;stroke-width:.3985;stroke-linecap:butt;stroke-linejoin:miter;stroke:#000;stroke-opacity:1;stroke-miterlimit:10" transform="matrix(1 0 0 -1 42.92 38.14)"/><g style="fill:#000;fill-opacity:1"><use xlink:href="#b" x="29.28" y="41.8"/><use xlink:href="#c" x="36.48" y="41.8"/><use xlink:href="#d" x="42.02" y="41.8"/></g><use xlink:href="#e" x="46.64" y="41.8" style="fill:#000;fill-opacity:1"/><use xlink:href="#f" x="50.46" y="41.8" style="fill:#000;fill-opacity:1"/><g clip-path="url(#g)"><path d="M42.52 0H30.94" style="fill:none;stroke-width:.79701;stroke-linecap:butt;stroke-linejoin:miter;stroke:#000;stroke-opacity:1;stroke-miterlimit:10" transform="matrix(1 0 0 -1 42.92 38.14)"/></g><path d="m71.27 38.14 4.14 2.07-1.55-2.07 1.55-2.07" style="stroke:none;fill-rule:nonzero;fill:#000;fill-opacity:1"/><g clip-path="url(#h)"><path d="M41.5 8.58 29.96 7.56" style="fill:none;stroke-width:.79701;stroke-linecap:butt;stroke-linejoin:miter;stroke:#000;stroke-opacity:1;stroke-miterlimit:10" transform="matrix(1 0 0 -1 42.92 38.14)"/></g><path d="m70.3 30.8 4.3 1.7-1.72-1.93 1.37-2.2" style="stroke:none;fill-rule:nonzero;fill:#000;fill-opacity:1"/><g clip-path="url(#i)"><path d="m38.5 16.69-11.4-2.06" style="fill:none;stroke-width:.79701;stroke-linecap:butt;stroke-linejoin:miter;stroke:#000;stroke-opacity:1;stroke-miterlimit:10" transform="matrix(1 0 0 -1 42.92 38.14)"/></g><path d="m67.47 23.96 4.44 1.31-1.9-1.76 1.17-2.32" style="stroke:none;fill-rule:nonzero;fill:#000;fill-opacity:1"/><g clip-path="url(#j)"><path d="m33.69 23.89-11.15-3.15" style="fill:none;stroke-width:.79701;stroke-linecap:butt;stroke-linejoin:miter;stroke:#000;stroke-opacity:1;stroke-miterlimit:10" transform="matrix(1 0 0 -1 42.92 38.14)"/></g><path d="m62.96 18.1 4.55.86-2.05-1.57.93-2.41" style="stroke:none;fill-rule:nonzero;fill:#000;fill-opacity:1"/><path d="m27.33 29.8-10.75-4.29" style="fill:none;stroke-width:.79701;stroke-linecap:butt;stroke-linejoin:miter;stroke:#000;stroke-opacity:1;stroke-miterlimit:10" transform="matrix(1 0 0 -1 42.92 38.14)"/><path d="m57.09 13.59 4.62.39-2.21-1.35.67-2.5" style="stroke:none;fill-rule:nonzero;fill:#000;fill-opacity:1"/><path d="M19.77 34.19 9.61 28.62" style="fill:none;stroke-width:.79701;stroke-linecap:butt;stroke-linejoin:miter;stroke:#000;stroke-opacity:1;stroke-miterlimit:10" transform="matrix(1 0 0 -1 42.92 38.14)"/><path d="m50.25 10.76 4.64-.17-2.36-1.07.36-2.57" style="stroke:none;fill-rule:nonzero;fill:#000;fill-opacity:1"/><path d="M11.34 36.85 2.07 29.9" style="fill:none;stroke-width:.79701;stroke-linecap:butt;stroke-linejoin:miter;stroke:#000;stroke-opacity:1;stroke-miterlimit:10" transform="matrix(1 0 0 -1 42.92 38.14)"/><path d="m42.92 9.8 4.56-.84-2.5-.72v-2.6" style="stroke:none;fill-rule:nonzero;fill:#000;fill-opacity:1"/><path d="m2.34 37.74-7.91-8.46" style="fill:none;stroke-width:.79701;stroke-linecap:butt;stroke-linejoin:miter;stroke:#000;stroke-opacity:1;stroke-miterlimit:10" transform="matrix(1 0 0 -1 42.92 38.14)"/><path d="m35.58 10.76 4.35-1.62-2.58-.28-.46-2.54" style="stroke:none;fill-rule:nonzero;fill:#000;fill-opacity:1"/><path d="m-7.09 36.82-5.79-10.03" style="fill:none;stroke-width:.79701;stroke-linecap:butt;stroke-linejoin:miter;stroke:#000;stroke-opacity:1;stroke-miterlimit:10" transform="matrix(1 0 0 -1 42.92 38.14)"/><path d="m28.75 13.59 3.86-2.55-2.57.3-1.02-2.38" style="stroke:none;fill-rule:nonzero;fill:#000;fill-opacity:1"/><path d="m-17.01 33.89-2.48-11.32" style="fill:none;stroke-width:.79701;stroke-linecap:butt;stroke-linejoin:miter;stroke:#000;stroke-opacity:1;stroke-miterlimit:10" transform="matrix(1 0 0 -1 42.92 38.14)"/><path d="m22.88 18.1 2.9-3.61-2.35 1.08-1.7-1.97" style="stroke:none;fill-rule:nonzero;fill:#000;fill-opacity:1"/><path d="m-27.6 28.01 2.5-11.3" style="fill:none;stroke-width:.79701;stroke-linecap:butt;stroke-linejoin:miter;stroke:#000;stroke-opacity:1;stroke-miterlimit:10" transform="matrix(1 0 0 -1 42.92 38.14)"/><path d="m18.37 23.96 1.13-4.49-1.69 1.97-2.36-1.08" style="stroke:none;fill-rule:nonzero;fill:#000;fill-opacity:1"/><path d="m-37.73 17.02 8.46-7.91" style="fill:none;stroke-width:.79701;stroke-linecap:butt;stroke-linejoin:miter;stroke:#000;stroke-opacity:1;stroke-miterlimit:10" transform="matrix(1 0 0 -1 42.92 38.14)"/><path d="m15.54 30.8-1.61-4.34-.29 2.57-2.55.45" style="stroke:none;fill-rule:nonzero;fill:#000;fill-opacity:1"/><path d="M-42.52 0h11.58" style="fill:none;stroke-width:.79701;stroke-linecap:butt;stroke-linejoin:miter;stroke:#000;stroke-opacity:1;stroke-miterlimit:10" transform="matrix(1 0 0 -1 42.92 38.14)"/><path d="m14.57 38.14-4.14-2.07 1.55 2.07-1.55 2.07" style="stroke:none;fill-rule:nonzero;fill:#000;fill-opacity:1"/><path d="m-37.73-17.02 8.46 7.91" style="fill:none;stroke-width:.79701;stroke-linecap:butt;stroke-linejoin:miter;stroke:#000;stroke-opacity:1;stroke-miterlimit:10" transform="matrix(1 0 0 -1 42.92 38.14)"/><path d="m15.54 45.48-4.45 1.31 2.55.46.29 2.57" style="stroke:none;fill-rule:nonzero;fill:#000;fill-opacity:1"/><g clip-path="url(#k)"><path d="m-27.6-28.01 2.5 11.3" style="fill:none;stroke-width:.79701;stroke-linecap:butt;stroke-linejoin:miter;stroke:#000;stroke-opacity:1;stroke-miterlimit:10" transform="matrix(1 0 0 -1 42.92 38.14)"/></g><path d="m18.37 52.31-2.92 3.6 2.36-1.07 1.7 1.96" style="stroke:none;fill-rule:nonzero;fill:#000;fill-opacity:1"/><g clip-path="url(#l)"><path d="m-17.01-33.89-2.48 11.31" style="fill:none;stroke-width:.79701;stroke-linecap:butt;stroke-linejoin:miter;stroke:#000;stroke-opacity:1;stroke-miterlimit:10" transform="matrix(1 0 0 -1 42.92 38.14)"/></g><path d="m22.88 58.18-1.15 4.5 1.7-1.97 2.36 1.08" style="stroke:none;fill-rule:nonzero;fill:#000;fill-opacity:1"/><g clip-path="url(#m)"><path d="m-7.09-36.82-5.79 10.03" style="fill:none;stroke-width:.79701;stroke-linecap:butt;stroke-linejoin:miter;stroke:#000;stroke-opacity:1;stroke-miterlimit:10" transform="matrix(1 0 0 -1 42.92 38.14)"/></g><path d="m28.75 62.69.27 4.62 1.02-2.38 2.57.31" style="stroke:none;fill-rule:nonzero;fill:#000;fill-opacity:1"/><g clip-path="url(#n)"><path d="m2.34-37.74-7.91 8.46" style="fill:none;stroke-width:.79701;stroke-linecap:butt;stroke-linejoin:miter;stroke:#000;stroke-opacity:1;stroke-miterlimit:10" transform="matrix(1 0 0 -1 42.92 38.14)"/></g><path d="m35.58 65.52 1.31 4.44.46-2.55 2.58-.28" style="stroke:none;fill-rule:nonzero;fill:#000;fill-opacity:1"/><g clip-path="url(#o)"><path d="M11.34-36.85 2.07-29.9" style="fill:none;stroke-width:.79701;stroke-linecap:butt;stroke-linejoin:miter;stroke:#000;stroke-opacity:1;stroke-miterlimit:10" transform="matrix(1 0 0 -1 42.92 38.14)"/></g><path d="m42.92 66.48 2.07 4.15v-2.6l2.49-.71" style="stroke:none;fill-rule:nonzero;fill:#000;fill-opacity:1"/><g clip-path="url(#p)"><path d="M19.77-34.19 9.61-28.62" style="fill:none;stroke-width:.79701;stroke-linecap:butt;stroke-linejoin:miter;stroke:#000;stroke-opacity:1;stroke-miterlimit:10" transform="matrix(1 0 0 -1 42.92 38.14)"/></g><path d="m50.25 65.52 2.64 3.8-.36-2.56 2.36-1.07" style="stroke:none;fill-rule:nonzero;fill:#000;fill-opacity:1"/><g clip-path="url(#q)"><path d="m27.33-29.81-10.75 4.3" style="fill:none;stroke-width:.79701;stroke-linecap:butt;stroke-linejoin:miter;stroke:#000;stroke-opacity:1;stroke-miterlimit:10" transform="matrix(1 0 0 -1 42.92 38.14)"/></g><path d="m57.09 62.69 3.08 3.46-.67-2.5 2.2-1.35" style="stroke:none;fill-rule:nonzero;fill:#000;fill-opacity:1"/><g clip-path="url(#r)"><path d="m33.69-23.88-11.15 3.13" style="fill:none;stroke-width:.79701;stroke-linecap:butt;stroke-linejoin:miter;stroke:#000;stroke-opacity:1;stroke-miterlimit:10" transform="matrix(1 0 0 -1 42.92 38.14)"/></g><path d="m62.96 58.18 3.43 3.12-.93-2.41 2.05-1.58" style="stroke:none;fill-rule:nonzero;fill:#000;fill-opacity:1"/><g clip-path="url(#s)"><path d="m38.5-16.69-11.4 2.06" style="fill:none;stroke-width:.79701;stroke-linecap:butt;stroke-linejoin:miter;stroke:#000;stroke-opacity:1;stroke-miterlimit:10" transform="matrix(1 0 0 -1 42.92 38.14)"/></g><path d="m67.47 52.31 3.71 2.78-1.16-2.32 1.9-1.76" style="stroke:none;fill-rule:nonzero;fill:#000;fill-opacity:1"/><g clip-path="url(#t)"><path d="M41.5-8.58 29.96-7.56" style="fill:none;stroke-width:.79701;stroke-linecap:butt;stroke-linejoin:miter;stroke:#000;stroke-opacity:1;stroke-miterlimit:10" transform="matrix(1 0 0 -1 42.92 38.14)"/></g><path d="m70.3 45.48 3.95 2.42-1.37-2.2 1.73-1.93" style="stroke:none;fill-rule:nonzero;fill:#000;fill-opacity:1"/></svg>