<svg xmlns="http://www.w3.org/2000/svg" xmlns:xlink="http://www.w3.org/1999/xlink" width="140.64" height="114.45" viewBox="0 0 105.48 85.84"><defs><clipPath id="a"><path d="M0 0h105.48v85.84H0Zm0 0"/></clipPath><clipPath id="g"><path d="M93 42h12.48v2H93Zm0 0"/></clipPath><clipPath id="h"><path d="M81 20h24.48v27H81Zm0 0"/></clipPath><clipPath id="i"><path d="M78 10h27.48v29H78Zm0 0"/></clipPath><clipPath id="j"><path d="M30 58h29v27.84H30Zm0 0"/></clipPath><clipPath id="k"><path d="M40 61h26v24.84H40Zm0 0"/></clipPath><clipPath id="l"><path d="M62 73h1v12.84h-1Zm0 0"/></clipPath><clipPath id="m"><path d="M59 61h26v24.84H59Zm0 0"/></clipPath><clipPath id="n"><path d="M66 58h30v27.84H66Zm0 0"/></clipPath><clipPath id="o"><path d="M78 47h27.48v29H78Zm0 0"/></clipPath><clipPath id="p"><path d="M81 39h24.48v27H81Zm0 0"/></clipPath><symbol id="b" overflow="visible"><path d="M6.6-2.66h-.43c-.31 1.64-.76 2.2-2.31 2.2H3.2c-.51 0-.72-.07-.72-.5v-2.52h.2c1.24 0 1.41.5 1.43 1.43h.47v-3.28H4.1c-.05.99-.44 1.38-1.4 1.38h-.23v-2.28c0-.43.1-.5.63-.5h.52c1.65 0 2.07.34 2.35 2.09h.44V-7.2H.3v.47h.17c.81 0 .89.06.89.46v5.33c0 .42-.08.47-.9.47H.3V0h6.1Zm0 0" style="stroke:none"/></symbol><symbol id="c" overflow="visible"><path d="M5.4-.52q0-.1-.09-.1c-.14 0-.37.1-.42.1-.28 0-.39-.18-.39-.68v-2c0-1.28-.7-1.6-1.84-1.6C1.53-4.8.7-4.27.7-3.55c0 .38.24.61.58.61.31 0 .55-.2.55-.5 0-.19-.22-.48-.22-.54 0-.2.4-.38.89-.38.66 0 1.06.22 1.06 1.1v.38C1.25-2.47.44-2 .44-1.01.44-.32 1 .16 1.89.16c.69 0 1.3-.29 1.74-.8.15.52.4.7.87.7.44 0 .9-.28.9-.58M3.57-2c0 .6-.03.75-.19 1-.25.38-.71.63-1.14.63a.76.76 0 0 1-.78-.79c0-.7.4-1 2.11-1.3Zm0 0" style="stroke:none"/></symbol><symbol id="d" overflow="visible"><path d="M4.34-4c0-.47-.34-.8-.87-.8-.63 0-1.17.52-1.5 1.4v-1.24l-1.77.1v.43h.43c.35 0 .42.08.42.5v2.78c0 .4-.02.47-.66.47H.25V0h2.66v-.36h-.2c-.63 0-.74-.06-.74-.47v-.5c0-.75.14-1.5.39-2.08q.37-.83 1-.9c-.14.15-.17.25-.17.43 0 .33.22.57.54.57.36 0 .61-.28.61-.69m0 0" style="stroke:none"/></symbol><symbol id="e" overflow="visible"><path d="m3.73-1.58-.01-.23H3.3Q3.26-.46 2.52-.45c-.46 0-.58-.25-.58-1.05v-2.72H3.4v-.42H1.94v-1.99h-.4Q1.36-4.69.16-4.6v.4H1v2.54c0 .7.02.94.1 1.17q.27.65 1.15.66c.98 0 1.48-.8 1.48-1.74m0 0" style="stroke:none"/></symbol><symbol id="f" overflow="visible"><path d="M5.9 0v-.36h-.13c-.63 0-.64-.06-.64-.47V-2.8c0-.72-.04-.89-.2-1.23a1.5 1.5 0 0 0-1.37-.77q-.91-.02-1.56.97v-3.51l-1.84.1v.43h.47c.37 0 .43.08.43.5v5.48c0 .4-.01.47-.65.47H.27V0H2.8v-.36h-.14C2-.36 2-.42 2-.83v-1.42c0-.5.06-.95.17-1.17.2-.46.66-.77 1.1-.77.25 0 .54.16.7.35q.21.3.22 1.01v2c0 .4-.02.47-.66.47H3.4V0Zm0 0" style="stroke:none"/></symbol></defs><g clip-path="url(#a)"><path d="M0 85.84h105.48V0H0Zm0 0" style="stroke:none;fill-rule:nonzero;fill:#ffe4c8;fill-opacity:1"/></g><path d="M28.35 0a28.35 28.35 0 1 1-56.7 0 28.35 28.35 0 0 1 56.7 0Zm0 0" style="fill:none;stroke-width:.3985;stroke-linecap:butt;stroke-linejoin:miter;stroke:#000;stroke-opacity:1;stroke-miterlimit:10" transform="matrix(1 0 0 -1 62.56 42.92)"/><g style="fill:#000;fill-opacity:1"><use xlink:href="#b" x="48.93" y="46.58"/><use xlink:href="#c" x="56.12" y="46.58"/><use xlink:href="#d" x="61.66" y="46.58"/></g><use xlink:href="#e" x="66.28" y="46.58" style="fill:#000;fill-opacity:1"/><use xlink:href="#f" x="70.11" y="46.58" style="fill:#000;fill-opacity:1"/><path d="M-8.5-8.5H2.75" style="fill:none;stroke-width:1.19553;stroke-linecap:butt;stroke-linejoin:miter;stroke:#000;stroke-opacity:1;stroke-miterlimit:10" transform="matrix(1 0 0 -1 62.56 42.92)"/><path d="M71.06 51.42a23 23 0 0 1-6.37-2.39v4.78a23 23 0 0 1 6.37-2.39" style="stroke:none;fill-rule:nonzero;fill:#000;fill-opacity:1"/><g clip-path="url(#g)"><path d="M42.52 0H30.94" style="fill:none;stroke-width:.79701;stroke-linecap:butt;stroke-linejoin:miter;stroke:#000;stroke-opacity:1;stroke-miterlimit:10" transform="matrix(1 0 0 -1 62.56 42.92)"/></g><path d="m90.9 42.92 4.15 2.07-1.55-2.07 1.55-2.07" style="stroke:none;fill-rule:nonzero;fill:#000;fill-opacity:1"/><g clip-path="url(#h)"><path d="M41.07 11 29.88 8" style="fill:none;stroke-width:.79701;stroke-linecap:butt;stroke-linejoin:miter;stroke:#000;stroke-opacity:1;stroke-miterlimit:10" transform="matrix(1 0 0 -1 62.56 42.92)"/></g><path d="m89.94 35.58 4.54.93-2.04-1.6.97-2.4" style="stroke:none;fill-rule:nonzero;fill:#000;fill-opacity:1"/><g clip-path="url(#i)"><path d="m36.82 21.26-10.03-5.8" style="fill:none;stroke-width:.79701;stroke-linecap:butt;stroke-linejoin:miter;stroke:#000;stroke-opacity:1;stroke-miterlimit:10" transform="matrix(1 0 0 -1 62.56 42.92)"/></g><path d="m87.1 28.75 4.63-.28-2.38-1.02.31-2.57" style="stroke:none;fill-rule:nonzero;fill:#000;fill-opacity:1"/><path d="m30.07 30.07-8.2-8.2" style="fill:none;stroke-width:.79701;stroke-linecap:butt;stroke-linejoin:miter;stroke:#000;stroke-opacity:1;stroke-miterlimit:10" transform="matrix(1 0 0 -1 62.56 42.92)"/><path d="M82.6 22.88 87 21.4l-2.56-.37-.37-2.56" style="stroke:none;fill-rule:nonzero;fill:#000;fill-opacity:1"/><path d="m21.26 36.82-5.8-10.03" style="fill:none;stroke-width:.79701;stroke-linecap:butt;stroke-linejoin:miter;stroke:#000;stroke-opacity:1;stroke-miterlimit:10" transform="matrix(1 0 0 -1 62.56 42.92)"/><path d="m76.73 18.37 3.87-2.55-2.57.3L77 13.75" style="stroke:none;fill-rule:nonzero;fill:#000;fill-opacity:1"/><path d="M11 41.07 8 29.88" style="fill:none;stroke-width:.79701;stroke-linecap:butt;stroke-linejoin:miter;stroke:#000;stroke-opacity:1;stroke-miterlimit:10" transform="matrix(1 0 0 -1 62.56 42.92)"/><path d="m69.9 15.54 3.07-3.47-2.4.97-1.6-2.04" style="stroke:none;fill-rule:nonzero;fill:#000;fill-opacity:1"/><path d="M0 42.52V30.94" style="fill:none;stroke-width:.79701;stroke-linecap:butt;stroke-linejoin:miter;stroke:#000;stroke-opacity:1;stroke-miterlimit:10" transform="matrix(1 0 0 -1 62.56 42.92)"/><path d="m62.56 14.57 2.07-4.14-2.07 1.55-2.07-1.55" style="stroke:none;fill-rule:nonzero;fill:#000;fill-opacity:1"/><path d="m-11 41.07 3-11.19" style="fill:none;stroke-width:.79701;stroke-linecap:butt;stroke-linejoin:miter;stroke:#000;stroke-opacity:1;stroke-miterlimit:10" transform="matrix(1 0 0 -1 62.56 42.92)"/><path d="m55.22 15.54.93-4.54-1.6 2.04-2.4-.97" style="stroke:none;fill-rule:nonzero;fill:#000;fill-opacity:1"/><path d="m-21.26 36.82 5.79-10.03" style="fill:none;stroke-width:.79701;stroke-linecap:butt;stroke-linejoin:miter;stroke:#000;stroke-opacity:1;stroke-miterlimit:10" transform="matrix(1 0 0 -1 62.56 42.92)"/><path d="m48.39 18.37-.28-4.63-1.02 2.38-2.57-.3" style="stroke:none;fill-rule:nonzero;fill:#000;fill-opacity:1"/><path d="m-30.07 30.07 8.2-8.2" style="fill:none;stroke-width:.79701;stroke-linecap:butt;stroke-linejoin:miter;stroke:#000;stroke-opacity:1;stroke-miterlimit:10" transform="matrix(1 0 0 -1 62.56 42.92)"/><path d="m42.52 22.88-1.47-4.4-.37 2.56-2.56.37" style="stroke:none;fill-rule:nonzero;fill:#000;fill-opacity:1"/><path d="m-36.82 21.26 10.03-5.8" style="fill:none;stroke-width:.79701;stroke-linecap:butt;stroke-linejoin:miter;stroke:#000;stroke-opacity:1;stroke-miterlimit:10" transform="matrix(1 0 0 -1 62.56 42.92)"/><path d="m38.01 28.75-2.55-3.87.31 2.57-2.38 1.02" style="stroke:none;fill-rule:nonzero;fill:#000;fill-opacity:1"/><path d="m-41.07 11 11.19-3" style="fill:none;stroke-width:.79701;stroke-linecap:butt;stroke-linejoin:miter;stroke:#000;stroke-opacity:1;stroke-miterlimit:10" transform="matrix(1 0 0 -1 62.56 42.92)"/><path d="m35.18 35.58-3.47-3.07.97 2.4-2.04 1.6" style="stroke:none;fill-rule:nonzero;fill:#000;fill-opacity:1"/><path d="M-42.52 0h11.58" style="fill:none;stroke-width:.79701;stroke-linecap:butt;stroke-linejoin:miter;stroke:#000;stroke-opacity:1;stroke-miterlimit:10" transform="matrix(1 0 0 -1 62.56 42.92)"/><path d="m34.21 42.92-4.14-2.07 1.55 2.07-1.55 2.07" style="stroke:none;fill-rule:nonzero;fill:#000;fill-opacity:1"/><path d="m-41.07-11 11.19 3" style="fill:none;stroke-width:.79701;stroke-linecap:butt;stroke-linejoin:miter;stroke:#000;stroke-opacity:1;stroke-miterlimit:10" transform="matrix(1 0 0 -1 62.56 42.92)"/><path d="m35.18 50.25-4.54-.93 2.04 1.6-.97 2.4" style="stroke:none;fill-rule:nonzero;fill:#000;fill-opacity:1"/><path d="m-36.82-21.26 10.03 5.8" style="fill:none;stroke-width:.79701;stroke-linecap:butt;stroke-linejoin:miter;stroke:#000;stroke-opacity:1;stroke-miterlimit:10" transform="matrix(1 0 0 -1 62.56 42.92)"/><path d="m38.01 57.09-4.62.28 2.38 1.02-.31 2.57" style="stroke:none;fill-rule:nonzero;fill:#000;fill-opacity:1"/><path d="m-30.07-30.07 8.2 8.2" style="fill:none;stroke-width:.79701;stroke-linecap:butt;stroke-linejoin:miter;stroke:#000;stroke-opacity:1;stroke-miterlimit:10" transform="matrix(1 0 0 -1 62.56 42.92)"/><path d="m42.52 62.96-4.4 1.47 2.56.36.37 2.57" style="stroke:none;fill-rule:nonzero;fill:#000;fill-opacity:1"/><g clip-path="url(#j)"><path d="m-21.26-36.82 5.79 10.03" style="fill:none;stroke-width:.79701;stroke-linecap:butt;stroke-linejoin:miter;stroke:#000;stroke-opacity:1;stroke-miterlimit:10" transform="matrix(1 0 0 -1 62.56 42.92)"/></g><path d="m48.39 67.47-3.87 2.55 2.57-.3 1.02 2.37" style="stroke:none;fill-rule:nonzero;fill:#000;fill-opacity:1"/><g clip-path="url(#k)"><path d="m-11-41.07 3 11.19" style="fill:none;stroke-width:.79701;stroke-linecap:butt;stroke-linejoin:miter;stroke:#000;stroke-opacity:1;stroke-miterlimit:10" transform="matrix(1 0 0 -1 62.56 42.92)"/></g><path d="m55.22 70.3-3.07 3.47 2.4-.97 1.6 2.04" style="stroke:none;fill-rule:nonzero;fill:#000;fill-opacity:1"/><g clip-path="url(#l)"><path d="M0-42.52v11.58" style="fill:none;stroke-width:.79701;stroke-linecap:butt;stroke-linejoin:miter;stroke:#000;stroke-opacity:1;stroke-miterlimit:10" transform="matrix(1 0 0 -1 62.56 42.92)"/></g><path d="m62.56 71.27-2.07 4.14 2.07-1.55 2.07 1.55" style="stroke:none;fill-rule:nonzero;fill:#000;fill-opacity:1"/><g clip-path="url(#m)"><path d="M11-41.07 8-29.88" style="fill:none;stroke-width:.79701;stroke-linecap:butt;stroke-linejoin:miter;stroke:#000;stroke-opacity:1;stroke-miterlimit:10" transform="matrix(1 0 0 -1 62.56 42.92)"/></g><path d="m69.9 70.3-.93 4.54 1.6-2.04 2.4.97" style="stroke:none;fill-rule:nonzero;fill:#000;fill-opacity:1"/><g clip-path="url(#n)"><path d="m21.26-36.82-5.8 10.03" style="fill:none;stroke-width:.79701;stroke-linecap:butt;stroke-linejoin:miter;stroke:#000;stroke-opacity:1;stroke-miterlimit:10" transform="matrix(1 0 0 -1 62.56 42.92)"/></g><path d="m76.73 67.47.28 4.62 1.02-2.38 2.57.31" style="stroke:none;fill-rule:nonzero;fill:#000;fill-opacity:1"/><path d="m30.07-30.07-8.2 8.2" style="fill:none;stroke-width:.79701;stroke-linecap:butt;stroke-linejoin:miter;stroke:#000;stroke-opacity:1;stroke-miterlimit:10" transform="matrix(1 0 0 -1 62.56 42.92)"/><path d="m82.6 62.96 1.47 4.4.37-2.57 2.56-.36" style="stroke:none;fill-rule:nonzero;fill:#000;fill-opacity:1"/><g clip-path="url(#o)"><path d="m36.82-21.26-10.03 5.8" style="fill:none;stroke-width:.79701;stroke-linecap:butt;stroke-linejoin:miter;stroke:#000;stroke-opacity:1;stroke-miterlimit:10" transform="matrix(1 0 0 -1 62.56 42.92)"/></g><path d="m87.1 57.09 2.56 3.87-.3-2.57 2.37-1.02" style="stroke:none;fill-rule:nonzero;fill:#000;fill-opacity:1"/><g clip-path="url(#p)"><path d="M41.07-11 29.88-8" style="fill:none;stroke-width:.79701;stroke-linecap:butt;stroke-linejoin:miter;stroke:#000;stroke-opacity:1;stroke-miterlimit:10" transform="matrix(1 0 0 -1 62.56 42.92)"/></g><path d="m89.94 50.25 3.47 3.08-.97-2.4 2.04-1.6" style="stroke:none;fill-rule:nonzero;fill:#000;fill-opacity:1"/><path d="M26.65 0a28.35 28.35 0 1 1-56.7 0 28.35 28.35 0 0 1 56.7 0Zm0 0" style="fill:none;stroke-width:.3985;stroke-linecap:butt;stroke-linejoin:miter;stroke:#000;stroke-opacity:.57;stroke-miterlimit:10" transform="matrix(1 0 0 -1 62.56 42.92)"/><path d="M24.94 0a28.35 28.35 0 1 1-56.69 0 28.35 28.35 0 0 1 56.7 0Zm0 0" style="fill:none;stroke-width:.3985;stroke-linecap:butt;stroke-linejoin:miter;stroke:#000;stroke-opacity:.54001;stroke-miterlimit:10" transform="matrix(1 0 0 -1 62.56 42.92)"/><path d="M23.24 0a28.35 28.35 0 1 1-56.69 0 28.35 28.35 0 0 1 56.7 0Zm0 0" style="fill:none;stroke-width:.3985;stroke-linecap:butt;stroke-linejoin:miter;stroke:#000;stroke-opacity:.51;stroke-miterlimit:10" transform="matrix(1 0 0 -1 62.56 42.92)"/><path d="M21.55 0a28.35 28.35 0 1 1-56.7 0 28.35 28.35 0 0 1 56.7 0Zm0 0" style="fill:none;stroke-width:.3985;stroke-linecap:butt;stroke-linejoin:miter;stroke:#000;stroke-opacity:.48;stroke-miterlimit:10" transform="matrix(1 0 0 -1 62.56 42.92)"/><path d="M19.84 0a28.35 28.35 0 1 1-56.7 0 28.35 28.35 0 0 1 56.7 0Zm0 0" style="fill:none;stroke-width:.3985;stroke-linecap:butt;stroke-linejoin:miter;stroke:#000;stroke-opacity:.45;stroke-miterlimit:10" transform="matrix(1 0 0 -1 62.56 42.92)"/><path d="M18.14 0a28.35 28.35 0 1 1-56.7 0 28.35 28.35 0 0 1 56.7 0Zm0 0" style="fill:none;stroke-width:.3985;stroke-linecap:butt;stroke-linejoin:miter;stroke:#000;stroke-opacity:.42;stroke-miterlimit:10" transform="matrix(1 0 0 -1 62.56 42.92)"/><path d="M16.44 0a28.35 28.35 0 1 1-56.7 0 28.35 28.35 0 0 1 56.7 0Zm0 0" style="fill:none;stroke-width:.3985;stroke-linecap:butt;stroke-linejoin:miter;stroke:#000;stroke-opacity:.39;stroke-miterlimit:10" transform="matrix(1 0 0 -1 62.56 42.92)"/><path d="M14.74 0a28.35 28.35 0 1 1-56.7 0 28.35 28.35 0 0 1 56.7 0Zm0 0" style="fill:none;stroke-width:.3985;stroke-linecap:butt;stroke-linejoin:miter;stroke:#000;stroke-opacity:.36;stroke-miterlimit:10" transform="matrix(1 0 0 -1 62.56 42.92)"/><path d="M13.04 0a28.35 28.35 0 1 1-56.7 0 28.35 28.35 0 0 1 56.7 0Zm0 0" style="fill:none;stroke-width:.3985;stroke-linecap:butt;stroke-linejoin:miter;stroke:#000;stroke-opacity:.33;stroke-miterlimit:10" transform="matrix(1 0 0 -1 62.56 42.92)"/><path d="M11.34 0a28.35 28.35 0 1 1-56.7 0 28.35 28.35 0 0 1 56.7 0Zm0 0" style="fill:none;stroke-width:.3985;stroke-linecap:butt;stroke-linejoin:miter;stroke:#000;stroke-opacity:.3;stroke-miterlimit:10" transform="matrix(1 0 0 -1 62.56 42.92)"/><path d="M9.64 0a28.35 28.35 0 1 1-56.7 0 28.35 28.35 0 0 1 56.7 0Zm0 0" style="fill:none;stroke-width:.3985;stroke-linecap:butt;stroke-linejoin:miter;stroke:#000;stroke-opacity:.27;stroke-miterlimit:10" transform="matrix(1 0 0 -1 62.56 42.92)"/><path d="M7.94 0a28.34 28.34 0 1 1-56.7 0 28.34 28.34 0 0 1 56.7 0Zm0 0" style="fill:none;stroke-width:.3985;stroke-linecap:butt;stroke-linejoin:miter;stroke:#000;stroke-opacity:.24;stroke-miterlimit:10" transform="matrix(1 0 0 -1 62.56 42.92)"/><path d="M6.24 0a28.35 28.35 0 1 1-56.7 0 28.35 28.35 0 0 1 56.7 0Zm0 0" style="fill:none;stroke-width:.3985;stroke-linecap:butt;stroke-linejoin:miter;stroke:#000;stroke-opacity:.20999;stroke-miterlimit:10" transform="matrix(1 0 0 -1 62.56 42.92)"/><path d="M4.54 0a28.35 28.35 0 1 1-56.7 0 28.35 28.35 0 0 1 56.7 0Zm0 0" style="fill:none;stroke-width:.3985;stroke-linecap:butt;stroke-linejoin:miter;stroke:#000;stroke-opacity:.18;stroke-miterlimit:10" transform="matrix(1 0 0 -1 62.56 42.92)"/><path d="M2.83 0a28.35 28.35 0 1 1-56.69 0 28.35 28.35 0 0 1 56.7 0Zm0 0" style="fill:none;stroke-width:.3985;stroke-linecap:butt;stroke-linejoin:miter;stroke:#000;stroke-opacity:.15;stroke-miterlimit:10" transform="matrix(1 0 0 -1 62.56 42.92)"/><path d="M1.14 0a28.35 28.35 0 1 1-56.7 0 28.35 28.35 0 0 1 56.7 0Zm0 0" style="fill:none;stroke-width:.3985;stroke-linecap:butt;stroke-linejoin:miter;stroke:#000;stroke-opacity:.12;stroke-miterlimit:10" transform="matrix(1 0 0 -1 62.56 42.92)"/><path d="M-.56 0a28.35 28.35 0 1 1-56.7 0A28.35 28.35 0 0 1-.56 0Zm0 0" style="fill:none;stroke-width:.3985;stroke-linecap:butt;stroke-linejoin:miter;stroke:#000;stroke-opacity:.09;stroke-miterlimit:10" transform="matrix(1 0 0 -1 62.56 42.92)"/><path d="M-2.27 0a28.35 28.35 0 1 1-56.7 0 28.35 28.35 0 0 1 56.7 0Zm0 0" style="fill:none;stroke-width:.3985;stroke-linecap:butt;stroke-linejoin:miter;stroke:#000;stroke-opacity:.06;stroke-miterlimit:10" transform="matrix(1 0 0 -1 62.56 42.92)"/><path d="M-3.97 0a28.35 28.35 0 1 1-56.7 0 28.35 28.35 0 0 1 56.7 0Zm0 0" style="fill:none;stroke-width:.3985;stroke-linecap:butt;stroke-linejoin:miter;stroke:#000;stroke-opacity:.03;stroke-miterlimit:10" transform="matrix(1 0 0 -1 62.56 42.92)"/><path d="M28.35 0a28.35 28.35 0 1 1-56.7 0 28.35 28.35 0 0 1 56.7 0Zm0 0" style="fill:none;stroke-width:.3985;stroke-linecap:butt;stroke-linejoin:miter;stroke:#000;stroke-opacity:1;stroke-miterlimit:10" transform="matrix(1 0 0 -1 62.56 42.92)"/></svg>