<svg data-optimized="true" xmlns="http://www.w3.org/2000/svg" xmlns:xlink="http://www.w3.org/1999/xlink" width="114.448" height="101.703" viewBox="0 0 85.836 76.277"><defs><clipPath id="a"><path d="M0 0h85.836v76.277H0Zm0 0"/></clipPath><clipPath id="g"><path d="M71 37h14.836v2H71Zm0 0"/></clipPath><clipPath id="h"><path d="M59 18h26.836v25H59Zm0 0"/></clipPath><clipPath id="i"><path d="M56 10h29.836v26H56Zm0 0"/></clipPath><clipPath id="j"><path d="M52 2h33.836v28H52Zm0 0"/></clipPath><clipPath id="k"><path d="M4 41h26v35.277H4Zm0 0"/></clipPath><clipPath id="l"><path d="M11 47h27v29.277H11Zm0 0"/></clipPath><clipPath id="m"><path d="M17 52h31v24.277H17Zm0 0"/></clipPath><clipPath id="n"><path d="M24 54h33v22.277H24Zm0 0"/></clipPath><clipPath id="o"><path d="M32 55h34v21.277H32Zm0 0"/></clipPath><clipPath id="p"><path d="M39 54h35v22.277H39Zm0 0"/></clipPath><clipPath id="q"><path d="M46 51h36v25.277H46Zm0 0"/></clipPath><clipPath id="r"><path d="M52 47h33.836v27H52Zm0 0"/></clipPath><clipPath id="s"><path d="M56 41h29.836v26H56Zm0 0"/></clipPath><clipPath id="t"><path d="M59 34h26.836v24H59Zm0 0"/></clipPath><symbol id="b" overflow="visible"><path d="M6.61-2.656h-.438C5.859-1.016 5.406-.47 3.859-.47h-.656c-.515 0-.719-.062-.719-.484v-2.531h.204c1.234 0 1.406.5 1.421 1.437h.47v-3.281h-.47c-.046.984-.437 1.375-1.39 1.375h-.235v-2.281c0-.422.094-.5.625-.5h.516c1.656 0 2.078.343 2.36 2.093h.437v-2.562H.297v.469h.172c.812 0 .89.062.89.468v5.329c0 .421-.078.468-.89.468H.297V0h6.11Zm0 0" style="stroke:none"/></symbol><symbol id="c" overflow="visible"><path d="M5.406-.516c0-.062-.047-.109-.093-.109-.141 0-.375.11-.422.11-.282 0-.391-.188-.391-.688v-2c0-1.281-.703-1.594-1.844-1.594-1.125 0-1.953.531-1.953 1.25 0 .375.235.61.578.61.313 0 .547-.204.547-.5 0-.188-.219-.485-.219-.547 0-.203.407-.375.891-.375.656 0 1.063.218 1.063 1.093v.391C1.25-2.485.438-2 .438-1.015.438-.314 1 .155 1.89.155c.687 0 1.297-.281 1.734-.797.156.516.406.704.875.704.438 0 .906-.282.906-.579M3.563-2c0 .61-.032.75-.188 1-.25.375-.719.625-1.14.625a.755.755 0 0 1-.782-.781c0-.703.39-1 2.11-1.297Zm0 0" style="stroke:none"/></symbol><symbol id="d" overflow="visible"><path d="M4.344-4c0-.469-.344-.797-.875-.797-.625 0-1.172.516-1.5 1.39V-4.64l-1.766.11v.422h.422c.36 0 .422.078.422.5v2.78c0 .407-.016.47-.656.47H.25V0h2.656v-.36H2.72c-.64 0-.75-.062-.75-.468v-.5c0-.75.14-1.5.39-2.078.25-.547.579-.86 1-.906-.14.156-.171.25-.171.437 0 .328.218.563.546.563.36 0 .61-.282.61-.688m0 0" style="stroke:none"/></symbol><symbol id="e" overflow="visible"><path d="M3.734-1.578c0-.063 0-.14-.015-.234h-.422c-.031.89-.281 1.359-.781 1.359-.453 0-.578-.25-.578-1.047v-2.719h1.468v-.422H1.937v-1.984h-.406C1.421-5.328.984-4.672.171-4.609v.39H1v2.547c0 .703.016.938.11 1.172.171.422.562.656 1.14.656.984 0 1.484-.797 1.484-1.734m0 0" style="stroke:none"/></symbol><symbol id="f" overflow="visible"><path d="M5.906 0v-.36h-.14c-.625 0-.641-.062-.641-.468v-1.969c0-.719-.031-.89-.203-1.234-.25-.469-.75-.766-1.36-.766-.624 0-1.124.297-1.562.969v-3.516l-1.844.11v.422h.469c.375 0 .438.078.438.5v5.484c0 .406-.016.469-.657.469h-.14V0h2.53v-.36h-.14C2-.36 2-.421 2-.827V-2.25c0-.5.063-.953.172-1.172.203-.453.656-.765 1.094-.765.25 0 .547.156.703.343.14.219.219.531.219 1.016v2c0 .406-.016.469-.657.469h-.14V0Zm0 0" style="stroke:none"/></symbol></defs><g clip-path="url(#a)"><path d="M0 76.277h85.836V0H0Zm0 0" style="stroke:none;fill-rule:nonzero;fill:#ffe4c8;fill-opacity:1"/></g><path d="M28.348-.002c0 15.657-12.692 28.348-28.348 28.348S-28.348 15.655-28.348-.002c0-15.652 12.692-28.343 28.348-28.343S28.348-15.654 28.348-.002Zm0 0" style="fill:none;stroke-width:.3985;stroke-linecap:butt;stroke-linejoin:miter;stroke:#000;stroke-opacity:1;stroke-miterlimit:10" transform="matrix(1 0 0 -1 42.918 38.139)"/><g style="fill:#000;fill-opacity:1"><use xlink:href="#b" x="29.284" y="41.8"/><use xlink:href="#c" x="36.477" y="41.8"/><use xlink:href="#d" x="42.016" y="41.8"/></g><use xlink:href="#e" x="46.639" y="41.8" style="fill:#000;fill-opacity:1"/><use xlink:href="#f" x="50.464" y="41.8" style="fill:#000;fill-opacity:1"/><g clip-path="url(#g)"><path d="M42.52-.002H29.144" style="fill:none;stroke-width:.79701;stroke-linecap:butt;stroke-linejoin:miter;stroke:#000;stroke-opacity:1;stroke-miterlimit:10" transform="matrix(1 0 0 -1 42.918 38.139)"/></g><path d="M-2.552 3.111C-2.082 1.244-1.048.361 0 .001c-1.047-.363-2.082-1.245-2.55-3.113" style="fill:none;stroke-width:.79701;stroke-linecap:round;stroke-linejoin:round;stroke:#000;stroke-opacity:1;stroke-miterlimit:10" transform="matrix(-1 0 0 1 71.663 38.139)"/><g clip-path="url(#h)"><path d="M41.5 8.577 28.176 7.405" style="fill:none;stroke-width:.79701;stroke-linecap:butt;stroke-linejoin:miter;stroke:#000;stroke-opacity:1;stroke-miterlimit:10" transform="matrix(1 0 0 -1 42.918 38.139)"/></g><path d="M-2.55 3.112C-2.086 1.244-1.046.365 0-.002-1.047-.365-2.085-1.246-2.55-3.11" style="fill:none;stroke-width:.79701;stroke-linecap:round;stroke-linejoin:round;stroke:#000;stroke-opacity:1;stroke-miterlimit:10" transform="matrix(-.99614 .08748 .08748 .99614 70.696 30.767)"/><g clip-path="url(#i)"><path d="m38.5 16.686-13.168-2.371" style="fill:none;stroke-width:.79701;stroke-linecap:butt;stroke-linejoin:miter;stroke:#000;stroke-opacity:1;stroke-miterlimit:10" transform="matrix(1 0 0 -1 42.918 38.139)"/></g><path d="M-2.552 3.11C-2.086 1.244-1.046.362 0 0-1.046-.364-2.086-1.244-2.55-3.11" style="fill:none;stroke-width:.79701;stroke-linecap:round;stroke-linejoin:round;stroke:#000;stroke-opacity:1;stroke-miterlimit:10" transform="matrix(-.98415 .17717 .17717 .98415 67.86 23.895)"/><g clip-path="url(#j)"><path d="M33.687 23.885 20.812 20.26" style="fill:none;stroke-width:.79701;stroke-linecap:butt;stroke-linejoin:miter;stroke:#000;stroke-opacity:1;stroke-miterlimit:10" transform="matrix(1 0 0 -1 42.918 38.139)"/></g><path d="M-2.551 3.11C-2.082 1.245-1.045.36-.001.002-1.045-.362-2.086-1.246-2.55-3.112" style="fill:none;stroke-width:.79701;stroke-linecap:round;stroke-linejoin:round;stroke:#000;stroke-opacity:1;stroke-miterlimit:10" transform="matrix(-.96254 .271 .271 .96254 63.346 17.987)"/><path d="m27.332 29.807-12.418-4.961" style="fill:none;stroke-width:.79701;stroke-linecap:butt;stroke-linejoin:miter;stroke:#000;stroke-opacity:1;stroke-miterlimit:10" transform="matrix(1 0 0 -1 42.918 38.139)"/><path d="M-2.551 3.11C-2.085 1.245-1.045.362 0 0c-1.046-.365-2.083-1.246-2.552-3.112" style="fill:none;stroke-width:.79701;stroke-linecap:round;stroke-linejoin:round;stroke:#000;stroke-opacity:1;stroke-miterlimit:10" transform="matrix(-.92854 .3711 .3711 .92854 57.461 13.442)"/><path d="M19.77 34.186 8.035 27.764" style="fill:none;stroke-width:.79701;stroke-linecap:butt;stroke-linejoin:miter;stroke:#000;stroke-opacity:1;stroke-miterlimit:10" transform="matrix(1 0 0 -1 42.918 38.139)"/><path d="M-2.552 3.11C-2.086 1.245-1.045.364-.002 0-1.045-.363-2.085-1.246-2.55-3.11" style="fill:none;stroke-width:.79701;stroke-linecap:round;stroke-linejoin:round;stroke:#000;stroke-opacity:1;stroke-miterlimit:10" transform="matrix(-.87715 .4801 .4801 .87715 50.604 10.567)"/><path d="M11.34 36.85.637 28.826" style="fill:none;stroke-width:.79701;stroke-linecap:butt;stroke-linejoin:miter;stroke:#000;stroke-opacity:1;stroke-miterlimit:10" transform="matrix(1 0 0 -1 42.918 38.139)"/><path d="M-2.551 3.112C-2.086 1.244-1.048.363-.001.002-1.044-.362-2.081-1.244-2.55-3.11" style="fill:none;stroke-width:.79701;stroke-linecap:round;stroke-linejoin:round;stroke:#000;stroke-opacity:1;stroke-miterlimit:10" transform="scale(-.99997 .99997)rotate(36.87 -35.949 -60.08)"/><path d="m2.336 37.74-9.129-9.777" style="fill:none;stroke-width:.79701;stroke-linecap:butt;stroke-linejoin:miter;stroke:#000;stroke-opacity:1;stroke-miterlimit:10" transform="matrix(1 0 0 -1 42.918 38.139)"/><path d="M-2.55 3.111C-2.083 1.243-1.046.362.003.001-1.047-.366-2.085-1.245-2.55-3.11" style="fill:none;stroke-width:.79701;stroke-linecap:round;stroke-linejoin:round;stroke:#000;stroke-opacity:1;stroke-miterlimit:10" transform="matrix(-.6825 .73087 .73087 .6825 35.853 10.467)"/><path d="m-7.086 36.823-6.687-11.582" style="fill:none;stroke-width:.79701;stroke-linecap:butt;stroke-linejoin:miter;stroke:#000;stroke-opacity:1;stroke-miterlimit:10" transform="matrix(1 0 0 -1 42.918 38.139)"/><path d="M-2.552 3.11C-2.083 1.245-1.047.364 0 .003c-1.047-.366-2.086-1.245-2.55-3.114" style="fill:none;stroke-width:.79701;stroke-linecap:round;stroke-linejoin:round;stroke:#000;stroke-opacity:1;stroke-miterlimit:10" transform="matrix(-.5 .86601 .86601 .5 28.944 13.245)"/><path d="m-17.012 33.889-2.863-13.066" style="fill:none;stroke-width:.79701;stroke-linecap:butt;stroke-linejoin:miter;stroke:#000;stroke-opacity:1;stroke-miterlimit:10" transform="matrix(1 0 0 -1 42.918 38.139)"/><path d="M-2.551 3.11C-2.087 1.246-1.046.366.001.003c-1.048-.365-2.086-1.248-2.55-3.113" style="fill:none;stroke-width:.79701;stroke-linecap:round;stroke-linejoin:round;stroke:#000;stroke-opacity:1;stroke-miterlimit:10" transform="matrix(-.21384 .9768 .9768 .21384 22.959 17.706)"/><path d="m-27.594 28.014 2.875-13.062" style="fill:none;stroke-width:.79701;stroke-linecap:butt;stroke-linejoin:miter;stroke:#000;stroke-opacity:1;stroke-miterlimit:10" transform="matrix(1 0 0 -1 42.918 38.139)"/><path d="M-2.55 3.11C-2.084 1.246-1.046.365.002.002-1.046-.364-2.084-1.243-2.55-3.113" style="fill:none;stroke-width:.79701;stroke-linecap:round;stroke-linejoin:round;stroke:#000;stroke-opacity:1;stroke-miterlimit:10" transform="scale(1 -1)rotate(-77.59 -5.523 -23.161)"/><path d="m-37.73 17.022 9.769-9.14" style="fill:none;stroke-width:.79701;stroke-linecap:butt;stroke-linejoin:miter;stroke:#000;stroke-opacity:1;stroke-miterlimit:10" transform="matrix(1 0 0 -1 42.918 38.139)"/><path d="M-2.552 3.11C-2.086 1.246-1.046.363 0 0c-1.046-.364-2.084-1.245-2.552-3.111" style="fill:none;stroke-width:.79701;stroke-linecap:round;stroke-linejoin:round;stroke:#000;stroke-opacity:1;stroke-miterlimit:10" transform="matrix(.7301 .68329 .68329 -.7301 15.246 30.53)"/><path d="M-42.52-.002h13.375" style="fill:none;stroke-width:.79701;stroke-linecap:butt;stroke-linejoin:miter;stroke:#000;stroke-opacity:1;stroke-miterlimit:10" transform="matrix(1 0 0 -1 42.918 38.139)"/><path d="M-2.552 3.112C-2.082 1.244-1.048.362 0-.002-1.048-.36-2.083-1.244-2.55-3.11" style="fill:none;stroke-width:.79701;stroke-linecap:round;stroke-linejoin:round;stroke:#000;stroke-opacity:1;stroke-miterlimit:10" transform="matrix(1 0 0 -1 14.173 38.139)"/><path d="m-37.73-17.021 9.769 9.14" style="fill:none;stroke-width:.79701;stroke-linecap:butt;stroke-linejoin:miter;stroke:#000;stroke-opacity:1;stroke-miterlimit:10" transform="matrix(1 0 0 -1 42.918 38.139)"/><path d="M-2.55 3.112C-2.085 1.242-1.047.362 0 .002-1.045-.363-2.086-1.246-2.552-3.11" style="fill:none;stroke-width:.79701;stroke-linecap:round;stroke-linejoin:round;stroke:#000;stroke-opacity:1;stroke-miterlimit:10" transform="scale(.99997 -.99997)rotate(43.103 65.541 -3.573)"/><g clip-path="url(#k)"><path d="m-27.594-28.013 2.875 13.062" style="fill:none;stroke-width:.79701;stroke-linecap:butt;stroke-linejoin:miter;stroke:#000;stroke-opacity:1;stroke-miterlimit:10" transform="matrix(1 0 0 -1 42.918 38.139)"/></g><path d="M-2.55 3.113c.467-1.87 1.504-2.75 2.549-3.115-1.044-.362-2.083-1.242-2.548-3.109" style="fill:none;stroke-width:.79701;stroke-linecap:round;stroke-linejoin:round;stroke:#000;stroke-opacity:1;stroke-miterlimit:10" transform="scale(1 -1)rotate(77.59 41.923 -14.98)"/><g clip-path="url(#l)"><path d="m-17.012-33.888-2.863 13.066" style="fill:none;stroke-width:.79701;stroke-linecap:butt;stroke-linejoin:miter;stroke:#000;stroke-opacity:1;stroke-miterlimit:10" transform="matrix(1 0 0 -1 42.918 38.139)"/></g><path d="M-2.552 3.112C-2.084 1.246-1.046.363-.002-.002-1.045-.365-2.086-1.245-2.55-3.11" style="fill:none;stroke-width:.79701;stroke-linecap:round;stroke-linejoin:round;stroke:#000;stroke-opacity:1;stroke-miterlimit:10" transform="scale(-.99993 .99993)rotate(-77.652 24.913 43.554)"/><g clip-path="url(#m)"><path d="m-7.086-36.822-6.687 11.582" style="fill:none;stroke-width:.79701;stroke-linecap:butt;stroke-linejoin:miter;stroke:#000;stroke-opacity:1;stroke-miterlimit:10" transform="matrix(1 0 0 -1 42.918 38.139)"/></g><path d="M-2.55 3.112C-2.085 1.243-1.045.363-.001 0c-1.044-.363-2.08-1.244-2.55-3.111" style="fill:none;stroke-width:.79701;stroke-linecap:round;stroke-linejoin:round;stroke:#000;stroke-opacity:1;stroke-miterlimit:10" transform="matrix(-.5 -.86601 -.86601 .5 28.944 63.033)"/><g clip-path="url(#n)"><path d="m2.336-37.74-9.129 9.777" style="fill:none;stroke-width:.79701;stroke-linecap:butt;stroke-linejoin:miter;stroke:#000;stroke-opacity:1;stroke-miterlimit:10" transform="matrix(1 0 0 -1 42.918 38.139)"/></g><path d="M-2.55 3.11C-2.084 1.244-1.045.364 0 .002-1.046-.363-2.082-1.244-2.55-3.11" style="fill:none;stroke-width:.79701;stroke-linecap:round;stroke-linejoin:round;stroke:#000;stroke-opacity:1;stroke-miterlimit:10" transform="scale(-.99999 .99999)rotate(-46.96 57.824 74.174)"/><g clip-path="url(#o)"><path d="M11.34-36.85.637-28.825" style="fill:none;stroke-width:.79701;stroke-linecap:butt;stroke-linejoin:miter;stroke:#000;stroke-opacity:1;stroke-miterlimit:10" transform="matrix(1 0 0 -1 42.918 38.139)"/></g><path d="M-2.55 3.11C-2.083 1.247-1.046.364-.001 0c-1.046-.364-2.084-1.245-2.549-3.112" style="fill:none;stroke-width:.79701;stroke-linecap:round;stroke-linejoin:round;stroke:#000;stroke-opacity:1;stroke-miterlimit:10" transform="scale(-.99997 .99997)rotate(-36.87 78.47 98.22)"/><g clip-path="url(#p)"><path d="M19.77-34.185 8.035-27.763" style="fill:none;stroke-width:.79701;stroke-linecap:butt;stroke-linejoin:miter;stroke:#000;stroke-opacity:1;stroke-miterlimit:10" transform="matrix(1 0 0 -1 42.918 38.139)"/></g><path d="M-2.55 3.11C-2.086 1.246-1.046.363 0 0c-1.045-.363-2.086-1.244-2.551-3.111" style="fill:none;stroke-width:.79701;stroke-linecap:round;stroke-linejoin:round;stroke:#000;stroke-opacity:1;stroke-miterlimit:10" transform="matrix(-.87715 -.4801 -.4801 .87715 50.604 65.711)"/><g clip-path="url(#q)"><path d="m27.332-29.81-12.418 4.965" style="fill:none;stroke-width:.79701;stroke-linecap:butt;stroke-linejoin:miter;stroke:#000;stroke-opacity:1;stroke-miterlimit:10" transform="matrix(1 0 0 -1 42.918 38.139)"/></g><path d="M-2.551 3.111C-2.083 1.246-1.045.365 0 .001-1.045-.364-2.085-1.247-2.55-3.11" style="fill:none;stroke-width:.79701;stroke-linecap:round;stroke-linejoin:round;stroke:#000;stroke-opacity:1;stroke-miterlimit:10" transform="matrix(-.92854 -.3711 -.3711 .92854 57.461 62.836)"/><g clip-path="url(#r)"><path d="M33.687-23.884 20.812-20.26" style="fill:none;stroke-width:.79701;stroke-linecap:butt;stroke-linejoin:miter;stroke:#000;stroke-opacity:1;stroke-miterlimit:10" transform="matrix(1 0 0 -1 42.918 38.139)"/></g><path d="M-2.55 3.11C-2.085 1.246-1.046.366-.002.002-1.045-.36-2.083-1.242-2.552-3.11" style="fill:none;stroke-width:.79701;stroke-linecap:round;stroke-linejoin:round;stroke:#000;stroke-opacity:1;stroke-miterlimit:10" transform="matrix(-.96254 -.271 -.271 .96254 63.346 58.291)"/><g clip-path="url(#s)"><path d="m38.5-16.685-13.168 2.37" style="fill:none;stroke-width:.79701;stroke-linecap:butt;stroke-linejoin:miter;stroke:#000;stroke-opacity:1;stroke-miterlimit:10" transform="matrix(1 0 0 -1 42.918 38.139)"/></g><path d="M-2.55 3.113C-2.085 1.243-1.045.363 0 0c-1.046-.363-2.086-1.245-2.552-3.111" style="fill:none;stroke-width:.79701;stroke-linecap:round;stroke-linejoin:round;stroke:#000;stroke-opacity:1;stroke-miterlimit:10" transform="scale(-.99997 .99997)rotate(-10.205 259.396 406.18)"/><g clip-path="url(#t)"><path d="M41.5-8.576 28.176-7.408" style="fill:none;stroke-width:.79701;stroke-linecap:butt;stroke-linejoin:miter;stroke:#000;stroke-opacity:1;stroke-miterlimit:10" transform="matrix(1 0 0 -1 42.918 38.139)"/></g><path d="M-2.55 3.11C-2.086 1.245-1.048.364 0 .001-1.046-.36-2.086-1.245-2.55-3.113" style="fill:none;stroke-width:.79701;stroke-linecap:round;stroke-linejoin:round;stroke:#000;stroke-opacity:1;stroke-miterlimit:10" transform="scale(-.99997 .99997)rotate(-5.019 483.893 829.345)"/></svg>