<svg xmlns="http://www.w3.org/2000/svg" xml:space="preserve" width="4422" height="1646" overflow="hidden"><defs><linearGradient id="b" x1="2116" x2="2439.56" y1="1268" y2="1268" gradientUnits="userSpaceOnUse" spreadMethod="reflect"><stop offset="0" stop-color="#7F7F7F" stop-opacity="0"/><stop offset=".28" stop-color="#7F7F7F" stop-opacity=".149"/><stop offset=".68" stop-color="#7F7F7F" stop-opacity=".502"/><stop offset="1" stop-color="#7F7F7F"/></linearGradient><linearGradient id="c" x1="2120" x2="2443.56" y1="1280" y2="1280" gradientUnits="userSpaceOnUse" spreadMethod="reflect"><stop offset="0" stop-color="#7F7F7F" stop-opacity="0"/><stop offset=".28" stop-color="#7F7F7F" stop-opacity=".149"/><stop offset=".68" stop-color="#7F7F7F" stop-opacity=".502"/><stop offset="1" stop-color="#7F7F7F"/></linearGradient><linearGradient id="d" x1="2125" x2="2448.56" y1="1292" y2="1292" gradientUnits="userSpaceOnUse" spreadMethod="reflect"><stop offset="0" stop-color="#7F7F7F" stop-opacity="0"/><stop offset=".28" stop-color="#7F7F7F" stop-opacity=".149"/><stop offset=".68" stop-color="#7F7F7F" stop-opacity=".502"/><stop offset="1" stop-color="#7F7F7F"/></linearGradient><linearGradient id="e" x1="2130" x2="2453.56" y1="1305" y2="1305" gradientUnits="userSpaceOnUse" spreadMethod="reflect"><stop offset="0" stop-color="#7F7F7F" stop-opacity="0"/><stop offset=".28" stop-color="#7F7F7F" stop-opacity=".149"/><stop offset=".68" stop-color="#7F7F7F" stop-opacity=".502"/><stop offset="1" stop-color="#7F7F7F"/></linearGradient><linearGradient id="f" x1="2140" x2="2463.56" y1="1317" y2="1317" gradientUnits="userSpaceOnUse" spreadMethod="reflect"><stop offset="0" stop-color="#7F7F7F" stop-opacity="0"/><stop offset=".28" stop-color="#7F7F7F" stop-opacity=".149"/><stop offset=".68" stop-color="#7F7F7F" stop-opacity=".502"/><stop offset="1" stop-color="#7F7F7F"/></linearGradient><linearGradient id="g" x1="2155" x2="2478.56" y1="1329" y2="1329" gradientUnits="userSpaceOnUse" spreadMethod="reflect"><stop offset="0" stop-color="#7F7F7F" stop-opacity="0"/><stop offset=".28" stop-color="#7F7F7F" stop-opacity=".149"/><stop offset=".68" stop-color="#7F7F7F" stop-opacity=".502"/><stop offset="1" stop-color="#7F7F7F"/></linearGradient><linearGradient id="h" x1="0" x2="323.559" y1="0" y2="0" gradientUnits="userSpaceOnUse" spreadMethod="reflect"><stop offset="0" stop-color="#7F7F7F" stop-opacity="0"/><stop offset=".28" stop-color="#7F7F7F" stop-opacity=".149"/><stop offset=".68" stop-color="#7F7F7F" stop-opacity=".502"/><stop offset="1" stop-color="#7F7F7F"/></linearGradient><linearGradient id="i" x1="0" x2="323.559" y1="0" y2="0" gradientUnits="userSpaceOnUse" spreadMethod="reflect"><stop offset="0" stop-color="#7F7F7F" stop-opacity="0"/><stop offset=".28" stop-color="#7F7F7F" stop-opacity=".149"/><stop offset=".68" stop-color="#7F7F7F" stop-opacity=".502"/><stop offset="1" stop-color="#7F7F7F"/></linearGradient><linearGradient id="j" x1="0" x2="323.559" y1="0" y2="0" gradientUnits="userSpaceOnUse" spreadMethod="reflect"><stop offset="0" stop-color="#7F7F7F" stop-opacity="0"/><stop offset=".28" stop-color="#7F7F7F" stop-opacity=".149"/><stop offset=".68" stop-color="#7F7F7F" stop-opacity=".502"/><stop offset="1" stop-color="#7F7F7F"/></linearGradient><linearGradient id="k" x1="0" x2="323.559" y1="0" y2="0" gradientUnits="userSpaceOnUse" spreadMethod="reflect"><stop offset="0" stop-color="#7F7F7F" stop-opacity="0"/><stop offset=".28" stop-color="#7F7F7F" stop-opacity=".149"/><stop offset=".68" stop-color="#7F7F7F" stop-opacity=".502"/><stop offset="1" stop-color="#7F7F7F"/></linearGradient><linearGradient id="l" x1="0" x2="323.559" y1="0" y2="0" gradientUnits="userSpaceOnUse" spreadMethod="reflect"><stop offset="0" stop-color="#7F7F7F" stop-opacity="0"/><stop offset=".28" stop-color="#7F7F7F" stop-opacity=".149"/><stop offset=".68" stop-color="#7F7F7F" stop-opacity=".502"/><stop offset="1" stop-color="#7F7F7F"/></linearGradient><linearGradient id="m" x1="0" x2="323.559" y1="0" y2="0" gradientUnits="userSpaceOnUse" spreadMethod="reflect"><stop offset="0" stop-color="#7F7F7F" stop-opacity="0"/><stop offset=".28" stop-color="#7F7F7F" stop-opacity=".149"/><stop offset=".68" stop-color="#7F7F7F" stop-opacity=".502"/><stop offset="1" stop-color="#7F7F7F"/></linearGradient><linearGradient id="n" x1="1691" x2="2014.56" y1="1266" y2="1266" gradientUnits="userSpaceOnUse" spreadMethod="reflect"><stop offset="0" stop-opacity="0"/><stop offset=".28" stop-opacity=".149"/><stop offset=".68" stop-color="#262626" stop-opacity=".522"/><stop offset="1"/></linearGradient><linearGradient id="o" x1="1694" x2="2017.56" y1="1278" y2="1278" gradientUnits="userSpaceOnUse" spreadMethod="reflect"><stop offset="0" stop-opacity="0"/><stop offset=".28" stop-opacity=".149"/><stop offset=".68" stop-color="#262626" stop-opacity=".522"/><stop offset="1"/></linearGradient><linearGradient id="p" x1="1703" x2="2026.56" y1="1290" y2="1290" gradientUnits="userSpaceOnUse" spreadMethod="reflect"><stop offset="0" stop-opacity="0"/><stop offset=".28" stop-opacity=".149"/><stop offset=".68" stop-color="#262626" stop-opacity=".522"/><stop offset="1"/></linearGradient><linearGradient id="q" x1="1718" x2="2041.56" y1="1303" y2="1303" gradientUnits="userSpaceOnUse" spreadMethod="reflect"><stop offset="0" stop-opacity="0"/><stop offset=".28" stop-opacity=".149"/><stop offset=".68" stop-color="#262626" stop-opacity=".522"/><stop offset="1"/></linearGradient><linearGradient id="r" x1="1741" x2="2064.56" y1="1315" y2="1315" gradientUnits="userSpaceOnUse" spreadMethod="reflect"><stop offset="0" stop-opacity="0"/><stop offset=".28" stop-opacity=".149"/><stop offset=".68" stop-color="#262626" stop-opacity=".522"/><stop offset="1"/></linearGradient><linearGradient id="s" x1="1780" x2="2103.56" y1="1327" y2="1327" gradientUnits="userSpaceOnUse" spreadMethod="reflect"><stop offset="0" stop-opacity="0"/><stop offset=".28" stop-opacity=".149"/><stop offset=".68" stop-color="#262626" stop-opacity=".522"/><stop offset="1"/></linearGradient><linearGradient id="t" x1="0" x2="323.558" y1="0" y2="0" gradientUnits="userSpaceOnUse" spreadMethod="reflect"><stop offset="0" stop-opacity="0"/><stop offset=".28" stop-opacity=".149"/><stop offset=".68" stop-color="#262626" stop-opacity=".522"/><stop offset="1"/></linearGradient><linearGradient id="u" x1="0" x2="323.558" y1="0" y2="0" gradientUnits="userSpaceOnUse" spreadMethod="reflect"><stop offset="0" stop-opacity="0"/><stop offset=".28" stop-opacity=".149"/><stop offset=".68" stop-color="#262626" stop-opacity=".522"/><stop offset="1"/></linearGradient><linearGradient id="v" x1="0" x2="323.558" y1="0" y2="0" gradientUnits="userSpaceOnUse" spreadMethod="reflect"><stop offset="0" stop-opacity="0"/><stop offset=".28" stop-opacity=".149"/><stop offset=".68" stop-color="#262626" stop-opacity=".522"/><stop offset="1"/></linearGradient><linearGradient id="w" x1="0" x2="323.558" y1="0" y2="0" gradientUnits="userSpaceOnUse" spreadMethod="reflect"><stop offset="0" stop-opacity="0"/><stop offset=".28" stop-opacity=".149"/><stop offset=".68" stop-color="#262626" stop-opacity=".522"/><stop offset="1"/></linearGradient><linearGradient id="x" x1="0" x2="323.558" y1="0" y2="0" gradientUnits="userSpaceOnUse" spreadMethod="reflect"><stop offset="0" stop-opacity="0"/><stop offset=".28" stop-opacity=".149"/><stop offset=".68" stop-color="#262626" stop-opacity=".522"/><stop offset="1"/></linearGradient><linearGradient id="y" x1="0" x2="323.558" y1="0" y2="0" gradientUnits="userSpaceOnUse" spreadMethod="reflect"><stop offset="0" stop-opacity="0"/><stop offset=".28" stop-opacity=".149"/><stop offset=".68" stop-color="#262626" stop-opacity=".522"/><stop offset="1"/></linearGradient><linearGradient id="z" x1="2593" x2="2916.56" y1="1267" y2="1267" gradientUnits="userSpaceOnUse" spreadMethod="reflect"><stop offset="0" stop-opacity="0"/><stop offset=".28" stop-opacity=".149"/><stop offset=".68" stop-color="#262626" stop-opacity=".522"/><stop offset="1"/></linearGradient><linearGradient id="A" x1="2596" x2="2919.56" y1="1279" y2="1279" gradientUnits="userSpaceOnUse" spreadMethod="reflect"><stop offset="0" stop-opacity="0"/><stop offset=".28" stop-opacity=".149"/><stop offset=".68" stop-color="#262626" stop-opacity=".522"/><stop offset="1"/></linearGradient><linearGradient id="B" x1="2606" x2="2929.56" y1="1291" y2="1291" gradientUnits="userSpaceOnUse" spreadMethod="reflect"><stop offset="0" stop-opacity="0"/><stop offset=".28" stop-opacity=".149"/><stop offset=".68" stop-color="#262626" stop-opacity=".522"/><stop offset="1"/></linearGradient><linearGradient id="C" x1="2620" x2="2943.56" y1="1304" y2="1304" gradientUnits="userSpaceOnUse" spreadMethod="reflect"><stop offset="0" stop-opacity="0"/><stop offset=".28" stop-opacity=".149"/><stop offset=".68" stop-color="#262626" stop-opacity=".522"/><stop offset="1"/></linearGradient><linearGradient id="D" x1="2644" x2="2967.56" y1="1316" y2="1316" gradientUnits="userSpaceOnUse" spreadMethod="reflect"><stop offset="0" stop-opacity="0"/><stop offset=".28" stop-opacity=".149"/><stop offset=".68" stop-color="#262626" stop-opacity=".522"/><stop offset="1"/></linearGradient><linearGradient id="E" x1="2682" x2="3005.56" y1="1328" y2="1328" gradientUnits="userSpaceOnUse" spreadMethod="reflect"><stop offset="0" stop-opacity="0"/><stop offset=".28" stop-opacity=".149"/><stop offset=".68" stop-color="#262626" stop-opacity=".522"/><stop offset="1"/></linearGradient><linearGradient id="F" x1="0" x2="323.558" y1="0" y2="0" gradientUnits="userSpaceOnUse" spreadMethod="reflect"><stop offset="0" stop-opacity="0"/><stop offset=".28" stop-opacity=".149"/><stop offset=".68" stop-color="#262626" stop-opacity=".522"/><stop offset="1"/></linearGradient><linearGradient id="G" x1="0" x2="323.558" y1="0" y2="0" gradientUnits="userSpaceOnUse" spreadMethod="reflect"><stop offset="0" stop-opacity="0"/><stop offset=".28" stop-opacity=".149"/><stop offset=".68" stop-color="#262626" stop-opacity=".522"/><stop offset="1"/></linearGradient><linearGradient id="H" x1="0" x2="323.558" y1="0" y2="0" gradientUnits="userSpaceOnUse" spreadMethod="reflect"><stop offset="0" stop-opacity="0"/><stop offset=".28" stop-opacity=".149"/><stop offset=".68" stop-color="#262626" stop-opacity=".522"/><stop offset="1"/></linearGradient><linearGradient id="I" x1="0" x2="323.558" y1="0" y2="0" gradientUnits="userSpaceOnUse" spreadMethod="reflect"><stop offset="0" stop-opacity="0"/><stop offset=".28" stop-opacity=".149"/><stop offset=".68" stop-color="#262626" stop-opacity=".522"/><stop offset="1"/></linearGradient><linearGradient id="J" x1="0" x2="323.558" y1="0" y2="0" gradientUnits="userSpaceOnUse" spreadMethod="reflect"><stop offset="0" stop-opacity="0"/><stop offset=".28" stop-opacity=".149"/><stop offset=".68" stop-color="#262626" stop-opacity=".522"/><stop offset="1"/></linearGradient><linearGradient id="K" x1="0" x2="323.558" y1="0" y2="0" gradientUnits="userSpaceOnUse" spreadMethod="reflect"><stop offset="0" stop-opacity="0"/><stop offset=".28" stop-opacity=".149"/><stop offset=".68" stop-color="#262626" stop-opacity=".522"/><stop offset="1"/></linearGradient><linearGradient id="L" x1="2591" x2="2914.56" y1="114" y2="114" gradientUnits="userSpaceOnUse" spreadMethod="reflect"><stop offset="0" stop-color="#7F7F7F" stop-opacity="0"/><stop offset=".28" stop-color="#7F7F7F" stop-opacity=".149"/><stop offset=".68" stop-color="#7F7F7F" stop-opacity=".502"/><stop offset="1" stop-color="#7F7F7F"/></linearGradient><linearGradient id="M" x1="2595" x2="2918.56" y1="127" y2="127" gradientUnits="userSpaceOnUse" spreadMethod="reflect"><stop offset="0" stop-color="#7F7F7F" stop-opacity="0"/><stop offset=".28" stop-color="#7F7F7F" stop-opacity=".149"/><stop offset=".68" stop-color="#7F7F7F" stop-opacity=".502"/><stop offset="1" stop-color="#7F7F7F"/></linearGradient><linearGradient id="N" x1="2604" x2="2927.56" y1="139" y2="139" gradientUnits="userSpaceOnUse" spreadMethod="reflect"><stop offset="0" stop-color="#7F7F7F" stop-opacity="0"/><stop offset=".28" stop-color="#7F7F7F" stop-opacity=".149"/><stop offset=".68" stop-color="#7F7F7F" stop-opacity=".502"/><stop offset="1" stop-color="#7F7F7F"/></linearGradient><linearGradient id="O" x1="2619" x2="2942.56" y1="151" y2="151" gradientUnits="userSpaceOnUse" spreadMethod="reflect"><stop offset="0" stop-color="#7F7F7F" stop-opacity="0"/><stop offset=".28" stop-color="#7F7F7F" stop-opacity=".149"/><stop offset=".68" stop-color="#7F7F7F" stop-opacity=".502"/><stop offset="1" stop-color="#7F7F7F"/></linearGradient><linearGradient id="P" x1="2642" x2="2965.56" y1="164" y2="164" gradientUnits="userSpaceOnUse" spreadMethod="reflect"><stop offset="0" stop-color="#7F7F7F" stop-opacity="0"/><stop offset=".28" stop-color="#7F7F7F" stop-opacity=".149"/><stop offset=".68" stop-color="#7F7F7F" stop-opacity=".502"/><stop offset="1" stop-color="#7F7F7F"/></linearGradient><linearGradient id="Q" x1="2681" x2="3004.56" y1="176" y2="176" gradientUnits="userSpaceOnUse" spreadMethod="reflect"><stop offset="0" stop-color="#7F7F7F" stop-opacity="0"/><stop offset=".28" stop-color="#7F7F7F" stop-opacity=".149"/><stop offset=".68" stop-color="#7F7F7F" stop-opacity=".502"/><stop offset="1" stop-color="#7F7F7F"/></linearGradient><linearGradient id="R" x1="0" x2="323.558" y1="0" y2="0" gradientUnits="userSpaceOnUse" spreadMethod="reflect"><stop offset="0" stop-color="#7F7F7F" stop-opacity="0"/><stop offset=".28" stop-color="#7F7F7F" stop-opacity=".149"/><stop offset=".68" stop-color="#7F7F7F" stop-opacity=".502"/><stop offset="1" stop-color="#7F7F7F"/></linearGradient><linearGradient id="S" x1="0" x2="323.558" y1="0" y2="0" gradientUnits="userSpaceOnUse" spreadMethod="reflect"><stop offset="0" stop-color="#7F7F7F" stop-opacity="0"/><stop offset=".28" stop-color="#7F7F7F" stop-opacity=".149"/><stop offset=".68" stop-color="#7F7F7F" stop-opacity=".502"/><stop offset="1" stop-color="#7F7F7F"/></linearGradient><linearGradient id="T" x1="0" x2="323.558" y1="0" y2="0" gradientUnits="userSpaceOnUse" spreadMethod="reflect"><stop offset="0" stop-color="#7F7F7F" stop-opacity="0"/><stop offset=".28" stop-color="#7F7F7F" stop-opacity=".149"/><stop offset=".68" stop-color="#7F7F7F" stop-opacity=".502"/><stop offset="1" stop-color="#7F7F7F"/></linearGradient><linearGradient id="U" x1="0" x2="323.558" y1="0" y2="0" gradientUnits="userSpaceOnUse" spreadMethod="reflect"><stop offset="0" stop-color="#7F7F7F" stop-opacity="0"/><stop offset=".28" stop-color="#7F7F7F" stop-opacity=".149"/><stop offset=".68" stop-color="#7F7F7F" stop-opacity=".502"/><stop offset="1" stop-color="#7F7F7F"/></linearGradient><linearGradient id="V" x1="0" x2="323.558" y1="0" y2="0" gradientUnits="userSpaceOnUse" spreadMethod="reflect"><stop offset="0" stop-color="#7F7F7F" stop-opacity="0"/><stop offset=".28" stop-color="#7F7F7F" stop-opacity=".149"/><stop offset=".68" stop-color="#7F7F7F" stop-opacity=".502"/><stop offset="1" stop-color="#7F7F7F"/></linearGradient><linearGradient id="W" x1="0" x2="323.558" y1="0" y2="0" gradientUnits="userSpaceOnUse" spreadMethod="reflect"><stop offset="0" stop-color="#7F7F7F" stop-opacity="0"/><stop offset=".28" stop-color="#7F7F7F" stop-opacity=".149"/><stop offset=".68" stop-color="#7F7F7F" stop-opacity=".502"/><stop offset="1" stop-color="#7F7F7F"/></linearGradient><linearGradient id="X" x1="1226" x2="1549.56" y1="105" y2="105" gradientUnits="userSpaceOnUse" spreadMethod="reflect"><stop offset="0" stop-color="#7F7F7F" stop-opacity="0"/><stop offset=".28" stop-color="#7F7F7F" stop-opacity=".149"/><stop offset=".68" stop-color="#7F7F7F" stop-opacity=".502"/><stop offset="1" stop-color="#7F7F7F"/></linearGradient><linearGradient id="Y" x1="1229" x2="1552.56" y1="118" y2="118" gradientUnits="userSpaceOnUse" spreadMethod="reflect"><stop offset="0" stop-color="#7F7F7F" stop-opacity="0"/><stop offset=".28" stop-color="#7F7F7F" stop-opacity=".149"/><stop offset=".68" stop-color="#7F7F7F" stop-opacity=".502"/><stop offset="1" stop-color="#7F7F7F"/></linearGradient><linearGradient id="Z" x1="1235" x2="1558.56" y1="130" y2="130" gradientUnits="userSpaceOnUse" spreadMethod="reflect"><stop offset="0" stop-color="#7F7F7F" stop-opacity="0"/><stop offset=".28" stop-color="#7F7F7F" stop-opacity=".149"/><stop offset=".68" stop-color="#7F7F7F" stop-opacity=".502"/><stop offset="1" stop-color="#7F7F7F"/></linearGradient><linearGradient id="aa" x1="1240" x2="1563.56" y1="142" y2="142" gradientUnits="userSpaceOnUse" spreadMethod="reflect"><stop offset="0" stop-color="#7F7F7F" stop-opacity="0"/><stop offset=".28" stop-color="#7F7F7F" stop-opacity=".149"/><stop offset=".68" stop-color="#7F7F7F" stop-opacity=".502"/><stop offset="1" stop-color="#7F7F7F"/></linearGradient><linearGradient id="ab" x1="1250" x2="1573.56" y1="155" y2="155" gradientUnits="userSpaceOnUse" spreadMethod="reflect"><stop offset="0" stop-color="#7F7F7F" stop-opacity="0"/><stop offset=".28" stop-color="#7F7F7F" stop-opacity=".149"/><stop offset=".68" stop-color="#7F7F7F" stop-opacity=".502"/><stop offset="1" stop-color="#7F7F7F"/></linearGradient><linearGradient id="ac" x1="1265" x2="1588.56" y1="167" y2="167" gradientUnits="userSpaceOnUse" spreadMethod="reflect"><stop offset="0" stop-color="#7F7F7F" stop-opacity="0"/><stop offset=".28" stop-color="#7F7F7F" stop-opacity=".149"/><stop offset=".68" stop-color="#7F7F7F" stop-opacity=".502"/><stop offset="1" stop-color="#7F7F7F"/></linearGradient><linearGradient id="ad" x1="0" x2="323.559" y1="0" y2="0" gradientUnits="userSpaceOnUse" spreadMethod="reflect"><stop offset="0" stop-color="#7F7F7F" stop-opacity="0"/><stop offset=".28" stop-color="#7F7F7F" stop-opacity=".149"/><stop offset=".68" stop-color="#7F7F7F" stop-opacity=".502"/><stop offset="1" stop-color="#7F7F7F"/></linearGradient><linearGradient id="ae" x1="0" x2="323.559" y1="0" y2="0" gradientUnits="userSpaceOnUse" spreadMethod="reflect"><stop offset="0" stop-color="#7F7F7F" stop-opacity="0"/><stop offset=".28" stop-color="#7F7F7F" stop-opacity=".149"/><stop offset=".68" stop-color="#7F7F7F" stop-opacity=".502"/><stop offset="1" stop-color="#7F7F7F"/></linearGradient><linearGradient id="af" x1="0" x2="323.559" y1="0" y2="0" gradientUnits="userSpaceOnUse" spreadMethod="reflect"><stop offset="0" stop-color="#7F7F7F" stop-opacity="0"/><stop offset=".28" stop-color="#7F7F7F" stop-opacity=".149"/><stop offset=".68" stop-color="#7F7F7F" stop-opacity=".502"/><stop offset="1" stop-color="#7F7F7F"/></linearGradient><linearGradient id="ag" x1="0" x2="323.559" y1="0" y2="0" gradientUnits="userSpaceOnUse" spreadMethod="reflect"><stop offset="0" stop-color="#7F7F7F" stop-opacity="0"/><stop offset=".28" stop-color="#7F7F7F" stop-opacity=".149"/><stop offset=".68" stop-color="#7F7F7F" stop-opacity=".502"/><stop offset="1" stop-color="#7F7F7F"/></linearGradient><linearGradient id="ah" x1="0" x2="323.559" y1="0" y2="0" gradientUnits="userSpaceOnUse" spreadMethod="reflect"><stop offset="0" stop-color="#7F7F7F" stop-opacity="0"/><stop offset=".28" stop-color="#7F7F7F" stop-opacity=".149"/><stop offset=".68" stop-color="#7F7F7F" stop-opacity=".502"/><stop offset="1" stop-color="#7F7F7F"/></linearGradient><linearGradient id="ai" x1="0" x2="323.559" y1="0" y2="0" gradientUnits="userSpaceOnUse" spreadMethod="reflect"><stop offset="0" stop-color="#7F7F7F" stop-opacity="0"/><stop offset=".28" stop-color="#7F7F7F" stop-opacity=".149"/><stop offset=".68" stop-color="#7F7F7F" stop-opacity=".502"/><stop offset="1" stop-color="#7F7F7F"/></linearGradient><linearGradient id="aj" x1="3758" x2="4081.56" y1="1269" y2="1269" gradientUnits="userSpaceOnUse" spreadMethod="reflect"><stop offset="0" stop-color="#7F7F7F" stop-opacity="0"/><stop offset=".28" stop-color="#7F7F7F" stop-opacity=".149"/><stop offset=".68" stop-color="#7F7F7F" stop-opacity=".502"/><stop offset="1" stop-color="#7F7F7F"/></linearGradient><linearGradient id="ak" x1="3762" x2="4085.56" y1="1281" y2="1281" gradientUnits="userSpaceOnUse" spreadMethod="reflect"><stop offset="0" stop-color="#7F7F7F" stop-opacity="0"/><stop offset=".28" stop-color="#7F7F7F" stop-opacity=".149"/><stop offset=".68" stop-color="#7F7F7F" stop-opacity=".502"/><stop offset="1" stop-color="#7F7F7F"/></linearGradient><linearGradient id="al" x1="3771" x2="4094.56" y1="1294" y2="1294" gradientUnits="userSpaceOnUse" spreadMethod="reflect"><stop offset="0" stop-color="#7F7F7F" stop-opacity="0"/><stop offset=".28" stop-color="#7F7F7F" stop-opacity=".149"/><stop offset=".68" stop-color="#7F7F7F" stop-opacity=".502"/><stop offset="1" stop-color="#7F7F7F"/></linearGradient><linearGradient id="am" x1="3786" x2="4109.56" y1="1306" y2="1306" gradientUnits="userSpaceOnUse" spreadMethod="reflect"><stop offset="0" stop-color="#7F7F7F" stop-opacity="0"/><stop offset=".28" stop-color="#7F7F7F" stop-opacity=".149"/><stop offset=".68" stop-color="#7F7F7F" stop-opacity=".502"/><stop offset="1" stop-color="#7F7F7F"/></linearGradient><linearGradient id="an" x1="3809" x2="4132.56" y1="1319" y2="1319" gradientUnits="userSpaceOnUse" spreadMethod="reflect"><stop offset="0" stop-color="#7F7F7F" stop-opacity="0"/><stop offset=".28" stop-color="#7F7F7F" stop-opacity=".149"/><stop offset=".68" stop-color="#7F7F7F" stop-opacity=".502"/><stop offset="1" stop-color="#7F7F7F"/></linearGradient><linearGradient id="ao" x1="3847" x2="4170.56" y1="1331" y2="1331" gradientUnits="userSpaceOnUse" spreadMethod="reflect"><stop offset="0" stop-color="#7F7F7F" stop-opacity="0"/><stop offset=".28" stop-color="#7F7F7F" stop-opacity=".149"/><stop offset=".68" stop-color="#7F7F7F" stop-opacity=".502"/><stop offset="1" stop-color="#7F7F7F"/></linearGradient><linearGradient id="ap" x1="0" x2="323.558" y1="0" y2="0" gradientUnits="userSpaceOnUse" spreadMethod="reflect"><stop offset="0" stop-color="#7F7F7F" stop-opacity="0"/><stop offset=".28" stop-color="#7F7F7F" stop-opacity=".149"/><stop offset=".68" stop-color="#7F7F7F" stop-opacity=".502"/><stop offset="1" stop-color="#7F7F7F"/></linearGradient><linearGradient id="aq" x1="0" x2="323.558" y1="0" y2="0" gradientUnits="userSpaceOnUse" spreadMethod="reflect"><stop offset="0" stop-color="#7F7F7F" stop-opacity="0"/><stop offset=".28" stop-color="#7F7F7F" stop-opacity=".149"/><stop offset=".68" stop-color="#7F7F7F" stop-opacity=".502"/><stop offset="1" stop-color="#7F7F7F"/></linearGradient><linearGradient id="ar" x1="0" x2="323.558" y1="0" y2="0" gradientUnits="userSpaceOnUse" spreadMethod="reflect"><stop offset="0" stop-color="#7F7F7F" stop-opacity="0"/><stop offset=".28" stop-color="#7F7F7F" stop-opacity=".149"/><stop offset=".68" stop-color="#7F7F7F" stop-opacity=".502"/><stop offset="1" stop-color="#7F7F7F"/></linearGradient><linearGradient id="as" x1="0" x2="323.558" y1="0" y2="0" gradientUnits="userSpaceOnUse" spreadMethod="reflect"><stop offset="0" stop-color="#7F7F7F" stop-opacity="0"/><stop offset=".28" stop-color="#7F7F7F" stop-opacity=".149"/><stop offset=".68" stop-color="#7F7F7F" stop-opacity=".502"/><stop offset="1" stop-color="#7F7F7F"/></linearGradient><linearGradient id="at" x1="0" x2="323.558" y1="0" y2="0" gradientUnits="userSpaceOnUse" spreadMethod="reflect"><stop offset="0" stop-color="#7F7F7F" stop-opacity="0"/><stop offset=".28" stop-color="#7F7F7F" stop-opacity=".149"/><stop offset=".68" stop-color="#7F7F7F" stop-opacity=".502"/><stop offset="1" stop-color="#7F7F7F"/></linearGradient><linearGradient id="au" x1="0" x2="323.558" y1="0" y2="0" gradientUnits="userSpaceOnUse" spreadMethod="reflect"><stop offset="0" stop-color="#7F7F7F" stop-opacity="0"/><stop offset=".28" stop-color="#7F7F7F" stop-opacity=".149"/><stop offset=".68" stop-color="#7F7F7F" stop-opacity=".502"/><stop offset="1" stop-color="#7F7F7F"/></linearGradient><clipPath id="a"><path d="M-20-27h4422v1646H-20z"/></clipPath><clipPath id="av"><path fill-rule="evenodd" d="m411.838 686.332 190.836 269.224L333.45 1146.39 142.614 877.168Z" clip-rule="evenodd"/></clipPath><clipPath id="aw"><path fill-rule="evenodd" d="m411.838 686.332 190.836 269.224L333.45 1146.39 142.614 877.168Z" clip-rule="evenodd"/></clipPath><clipPath id="ax"><path fill-rule="evenodd" d="m411.838 686.332 190.836 269.224L333.45 1146.39 142.614 877.168Z" clip-rule="evenodd"/></clipPath></defs><g clip-path="url(#a)" transform="translate(20 27)"><path fill="#BFBFBF" d="M-11-27h4413v1641H-11z"/><path fill="none" stroke="#767171" stroke-dasharray="5.72917 5.72917" stroke-miterlimit="8" stroke-width="5.729" d="M4391.67 1530H-5M4391.67 1577H-5M4391.67 1392H-5M4396.47 1439H-9M4399.62 1486H-13M4387.67 397H-9M4387.67 444H-9M4387.67 492H-9M4392.47 539H-13M4395.62 586H-17M4395.62 633H-17M4395.62 681H-17M4395.62 728H-17M4395.62 775H-17M4395.62 822H-17M4395.62 870H-17M4395.62 917H-17M4395.62 964H-17M4395.62 1011H-17M4395.62 1059H-17M4395.62 1106H-17M4395.62 1153H-17M4395.62 1201H-17M4395.62 1248H-17M4395.62 1295H-17M4395.62 1342H-17M4387.67 259H-9M4392.47 306H-13M4395.62 354H-17M4395.62 21H-17M4395.62 68H-17M4395.62 115H-17M4395.62 162H-17M4395.62 210H-17M1545-24v1634.31M1591-24v1634.31M1638-24v1634.31M1685-25v1637.59M1732-27v1640.24M1779-27v1640.24M1826-27v1640.24M1872-27v1640.24M1919-27v1640.24M1966-27v1640.24M2013-27v1640.24M2060-27v1640.24M2106-27v1640.24M2153-27v1640.24M2200-27v1640.24M2247-27v1640.24M2294-27v1640.24M2340-27v1640.24M2387-27v1640.24M2434-27v1640.24M2481-27v1640.24M1404-24v1634.31M1451-25v1637.59M1498-27v1640.24M421-22v1634.31M468-22v1634.31M515-22v1634.31M562-24v1637.59M609-25v1640.24M655-25v1640.24M702-25v1640.24M749-25v1640.24M796-25v1640.24M843-25v1640.24M889-25v1640.24M936-25v1640.24M983-25v1640.24M1030-25v1640.24M1077-25v1640.24M1123-25v1640.24M1170-25v1640.24M1217-25v1640.24M1264-25v1640.24M1311-25v1640.24M1357-25v1640.24M281-22v1634.31M328-24v1637.59M374-25v1640.24M47-25v1640.24M94-25v1640.24M140-25v1640.24M187-25v1640.24M234-25v1640.24M4072-23v1634.31M4119-23v1634.31M4166-23v1634.31M4213-25v1637.59M4260-26v1640.24M4306-26v1640.24M4353-26v1640.24M3932-23v1634.31M3979-25v1637.59M4026-26v1640.24M2949-22v1634.31M2996-22v1634.31M3043-22v1634.31M3089-23v1637.59M3136-25v1640.24M3183-25v1640.24M3230-25v1640.24M3277-25v1640.24M3323-25v1640.24M3370-25v1640.24M3417-25v1640.24M3464-25v1640.24M3511-25v1640.24M3557-25v1640.24M3604-25v1640.24M3651-25v1640.24M3698-25v1640.24M3745-25v1640.24M3791-25v1640.24M3838-25v1640.24M3885-25v1640.24M2809-22v1634.31M2855-23v1637.59M2902-25v1640.24M2528-25v1640.24M2574-25v1640.24M2621-25v1640.24M2668-25v1640.24M2715-25v1640.24M2762-25v1640.24"/><path fill="#C55A11" d="M305.874 1205.606 1526.94 227.084l-10.75-13.412-1221.064 978.522ZM1530.98 245.867l24.12-52.367-56.36 12.131Z"/><path fill="none" stroke="url(#b)" stroke-miterlimit="8" stroke-width="10.313" d="M2116 1268h318.4"/><path fill="none" stroke="url(#c)" stroke-miterlimit="8" stroke-width="10.313" d="M2120 1280h318.4"/><path fill="none" stroke="url(#d)" stroke-miterlimit="8" stroke-width="10.313" d="M2125 1292h318.4"/><path fill="none" stroke="url(#e)" stroke-miterlimit="8" stroke-width="10.313" d="M2130 1305h318.4"/><path fill="none" stroke="url(#f)" stroke-miterlimit="8" stroke-width="10.313" d="M2140 1317h318.4"/><path fill="none" stroke="url(#g)" stroke-miterlimit="8" stroke-width="10.313" d="M2155 1329h318.4"/><path fill="none" stroke="url(#h)" stroke-miterlimit="8" stroke-width="10.313" d="M0 0h318.402" transform="matrix(1 0 0 -1 2117 1255)"/><path fill="none" stroke="url(#i)" stroke-miterlimit="8" stroke-width="10.313" d="M0 0h318.402" transform="matrix(1 0 0 -1 2122 1242)"/><path fill="none" stroke="url(#j)" stroke-miterlimit="8" stroke-width="10.313" d="M0 0h318.402" transform="matrix(1 0 0 -1 2125 1230)"/><path fill="none" stroke="url(#k)" stroke-miterlimit="8" stroke-width="10.313" d="M0 0h318.402" transform="matrix(1 0 0 -1 2132 1217)"/><path fill="none" stroke="url(#l)" stroke-miterlimit="8" stroke-width="10.313" d="M0 0h318.402" transform="matrix(1 0 0 -1 2143 1205)"/><path fill="none" stroke="url(#m)" stroke-miterlimit="8" stroke-width="10.313" d="M0 0h318.402" transform="matrix(1 0 0 -1 2162 1193)"/><path fill="#7F7F7F" fill-opacity=".561" fill-rule="evenodd" stroke="#7F7F7F" stroke-dasharray="27.5 9.16667" stroke-linecap="square" stroke-miterlimit="8" stroke-width="9.167" d="M2436.5 1263c0-43.35 35.15-78.5 78.5-78.5s78.5 35.15 78.5 78.5-35.15 78.5-78.5 78.5-78.5-35.15-78.5-78.5Z"/><path d="m2406.236 1281.907-188.839 1.637.149 17.186 188.838-1.637Zm-180.394-15.625-51.337 26.227 51.784 25.334ZM306.53 1262.444l2056.72-7.202-.06-17.188-2056.72 7.202Zm2048.19 10.015 51.47-25.961-51.65-25.601ZM2907 1404.25h130.81v27.5H2907Zm117.06-27.5 82.5 41.25-82.51 41.25Z"/><path fill="#767171" d="M2907 269.25h130.81v27.5H2907Zm117.06-27.5 82.5 41.25-82.51 41.25ZM4061 1408.25h130.81v27.5H4061Zm117.06-27.5 82.5 41.25-82.5 41.25Z"/><path fill="none" stroke="url(#n)" stroke-miterlimit="8" stroke-width="10.313" d="M1691 1266h318.4"/><path fill="none" stroke="url(#o)" stroke-miterlimit="8" stroke-width="10.313" d="M1694 1278h318.4"/><path fill="none" stroke="url(#p)" stroke-miterlimit="8" stroke-width="10.313" d="M1703 1290h318.4"/><path fill="none" stroke="url(#q)" stroke-miterlimit="8" stroke-width="10.313" d="M1718 1303h318.4"/><path fill="none" stroke="url(#r)" stroke-miterlimit="8" stroke-width="10.313" d="M1741 1315h318.4"/><path fill="none" stroke="url(#s)" stroke-miterlimit="8" stroke-width="10.313" d="M1780 1327h318.4"/><path fill="none" stroke="url(#t)" stroke-miterlimit="8" stroke-width="10.313" d="M0 0h318.402" transform="matrix(1 0 0 -1 1692 1253)"/><path fill="none" stroke="url(#u)" stroke-miterlimit="8" stroke-width="10.313" d="M0 0h318.402" transform="matrix(1 0 0 -1 1696 1240)"/><path fill="none" stroke="url(#v)" stroke-miterlimit="8" stroke-width="10.313" d="M0 0h318.402" transform="matrix(1 0 0 -1 1706 1228)"/><path fill="none" stroke="url(#w)" stroke-miterlimit="8" stroke-width="10.313" d="M0 0h318.402" transform="matrix(1 0 0 -1 1722 1215)"/><path fill="none" stroke="url(#x)" stroke-miterlimit="8" stroke-width="10.313" d="M0 0h318.402" transform="matrix(1 0 0 -1 1745 1203)"/><path fill="none" stroke="url(#y)" stroke-miterlimit="8" stroke-width="10.313" d="M0 0h318.402" transform="matrix(1 0 0 -1 1784 1191)"/><path fill="#3B3838" fill-opacity=".851" fill-rule="evenodd" stroke="#000" stroke-dasharray="27.5 9.16667" stroke-linecap="square" stroke-miterlimit="8" stroke-width="9.167" d="M2006.5 1261c0-43.35 35.15-78.5 78.5-78.5s78.5 35.15 78.5 78.5-35.15 78.5-78.5 78.5-78.5-35.15-78.5-78.5Z"/><path fill="none" stroke="url(#z)" stroke-miterlimit="8" stroke-width="10.313" d="M2593 1267h318.4"/><path fill="none" stroke="url(#A)" stroke-miterlimit="8" stroke-width="10.313" d="M2596 1279h318.4"/><path fill="none" stroke="url(#B)" stroke-miterlimit="8" stroke-width="10.313" d="M2606 1291h318.4"/><path fill="none" stroke="url(#C)" stroke-miterlimit="8" stroke-width="10.313" d="M2620 1304h318.4"/><path fill="none" stroke="url(#D)" stroke-miterlimit="8" stroke-width="10.313" d="M2644 1316h318.4"/><path fill="none" stroke="url(#E)" stroke-miterlimit="8" stroke-width="10.313" d="M2682 1328h318.4"/><path fill="none" stroke="url(#F)" stroke-miterlimit="8" stroke-width="10.313" d="M0 0h318.402" transform="matrix(1 0 0 -1 2594 1253)"/><path fill="none" stroke="url(#G)" stroke-miterlimit="8" stroke-width="10.313" d="M0 0h318.402" transform="matrix(1 0 0 -1 2598 1241)"/><path fill="none" stroke="url(#H)" stroke-miterlimit="8" stroke-width="10.313" d="M0 0h318.402" transform="matrix(1 0 0 -1 2608 1229)"/><path fill="none" stroke="url(#I)" stroke-miterlimit="8" stroke-width="10.313" d="M0 0h318.402" transform="matrix(1 0 0 -1 2624 1216)"/><path fill="none" stroke="url(#J)" stroke-miterlimit="8" stroke-width="10.313" d="M0 0h318.402" transform="matrix(1 0 0 -1 2647 1204)"/><path fill="none" stroke="url(#K)" stroke-miterlimit="8" stroke-width="10.313" d="M0 0h318.402" transform="matrix(1 0 0 -1 2687 1192)"/><path fill-rule="evenodd" d="M2908 1261.5c0-43.35 35.15-78.5 78.5-78.5s78.5 35.15 78.5 78.5-35.15 78.5-78.5 78.5-78.5-35.15-78.5-78.5"/><path fill="none" stroke="url(#L)" stroke-miterlimit="8" stroke-width="10.313" d="M2591 114h318.4"/><path fill="none" stroke="url(#M)" stroke-miterlimit="8" stroke-width="10.313" d="M2595 127h318.4"/><path fill="none" stroke="url(#N)" stroke-miterlimit="8" stroke-width="10.313" d="M2604 139h318.4"/><path fill="none" stroke="url(#O)" stroke-miterlimit="8" stroke-width="10.313" d="M2619 151h318.4"/><path fill="none" stroke="url(#P)" stroke-miterlimit="8" stroke-width="10.313" d="M2642 164h318.4"/><path fill="none" stroke="url(#Q)" stroke-miterlimit="8" stroke-width="10.313" d="M2681 176h318.4"/><path fill="none" stroke="url(#R)" stroke-miterlimit="8" stroke-width="10.313" d="M0 0h318.402" transform="matrix(1 0 0 -1 2592 101)"/><path fill="none" stroke="url(#S)" stroke-miterlimit="8" stroke-width="10.313" d="M0 0h318.402" transform="matrix(1 0 0 -1 2597 89)"/><path fill="none" stroke="url(#T)" stroke-miterlimit="8" stroke-width="10.313" d="M0 0h318.402" transform="matrix(1 0 0 -1 2607 76)"/><path fill="none" stroke="url(#U)" stroke-miterlimit="8" stroke-width="10.313" d="M0 0h318.402" transform="matrix(1 0 0 -1 2622 64)"/><path fill="none" stroke="url(#V)" stroke-miterlimit="8" stroke-width="10.313" d="M0 0h318.402" transform="matrix(1 0 0 -1 2646 52)"/><path fill="none" stroke="url(#W)" stroke-miterlimit="8" stroke-width="10.313" d="M0 0h318.402" transform="matrix(1 0 0 -1 2685 39)"/><path fill="#7F7F7F" fill-rule="evenodd" d="M2907 109c0-43.078 35.15-78 78.5-78s78.5 34.922 78.5 78-35.15 78-78.5 78-78.5-34.922-78.5-78"/><path fill="none" stroke="url(#X)" stroke-miterlimit="8" stroke-width="10.313" d="M1226 105h318.4"/><path fill="none" stroke="url(#Y)" stroke-miterlimit="8" stroke-width="10.313" d="M1229 118h318.4"/><path fill="none" stroke="url(#Z)" stroke-miterlimit="8" stroke-width="10.313" d="M1235 130h318.4"/><path fill="none" stroke="url(#aa)" stroke-miterlimit="8" stroke-width="10.313" d="M1240 142h318.4"/><path fill="none" stroke="url(#ab)" stroke-miterlimit="8" stroke-width="10.313" d="M1250 155h318.4"/><path fill="none" stroke="url(#ac)" stroke-miterlimit="8" stroke-width="10.313" d="M1265 167h318.4"/><path fill="none" stroke="url(#ad)" stroke-miterlimit="8" stroke-width="10.313" d="M0 0h318.402" transform="matrix(1 0 0 -1 1227 92)"/><path fill="none" stroke="url(#ae)" stroke-miterlimit="8" stroke-width="10.313" d="M0 0h318.402" transform="matrix(1 0 0 -1 1231 80)"/><path fill="none" stroke="url(#af)" stroke-miterlimit="8" stroke-width="10.313" d="M0 0h318.402" transform="matrix(1 0 0 -1 1235 67)"/><path fill="none" stroke="url(#ag)" stroke-miterlimit="8" stroke-width="10.313" d="M0 0h318.402" transform="matrix(1 0 0 -1 1242 55)"/><path fill="none" stroke="url(#ah)" stroke-miterlimit="8" stroke-width="10.313" d="M0 0h318.402" transform="matrix(1 0 0 -1 1253 43)"/><path fill="none" stroke="url(#ai)" stroke-miterlimit="8" stroke-width="10.313" d="M0 0h318.402" transform="matrix(1 0 0 -1 1272 30)"/><path fill="#7F7F7F" fill-opacity=".561" fill-rule="evenodd" stroke="#7F7F7F" stroke-dasharray="27.5 9.16667" stroke-linecap="square" stroke-miterlimit="8" stroke-width="9.167" d="M1545.5 100.5c0-43.078 35.15-78 78.5-78s78.5 34.922 78.5 78-35.15 78-78.5 78-78.5-34.922-78.5-78Z"/><path fill="none" stroke="url(#aj)" stroke-miterlimit="8" stroke-width="10.313" d="M3758 1269h318.4"/><path fill="none" stroke="url(#ak)" stroke-miterlimit="8" stroke-width="10.313" d="M3762 1281h318.4"/><path fill="none" stroke="url(#al)" stroke-miterlimit="8" stroke-width="10.313" d="M3771 1294h318.4"/><path fill="none" stroke="url(#am)" stroke-miterlimit="8" stroke-width="10.313" d="M3786 1306h318.4"/><path fill="none" stroke="url(#an)" stroke-miterlimit="8" stroke-width="10.313" d="M3809 1319h318.4"/><path fill="none" stroke="url(#ao)" stroke-miterlimit="8" stroke-width="10.313" d="M3847 1331h318.4"/><path fill="none" stroke="url(#ap)" stroke-miterlimit="8" stroke-width="10.313" d="M0 0h318.402" transform="matrix(1 0 0 -1 3759 1256)"/><path fill="none" stroke="url(#aq)" stroke-miterlimit="8" stroke-width="10.313" d="M0 0h318.402" transform="matrix(1 0 0 -1 3764 1244)"/><path fill="none" stroke="url(#ar)" stroke-miterlimit="8" stroke-width="10.313" d="M0 0h318.402" transform="matrix(1 0 0 -1 3773 1231)"/><path fill="none" stroke="url(#as)" stroke-miterlimit="8" stroke-width="10.313" d="M0 0h318.402" transform="matrix(1 0 0 -1 3789 1219)"/><path fill="none" stroke="url(#at)" stroke-miterlimit="8" stroke-width="10.313" d="M0 0h318.402" transform="matrix(1 0 0 -1 3813 1207)"/><path fill="none" stroke="url(#au)" stroke-miterlimit="8" stroke-width="10.313" d="M0 0h318.402" transform="matrix(1 0 0 -1 3852 1194)"/><path fill="#7F7F7F" fill-rule="evenodd" d="M4074 1263.5c0-43.35 35.15-78.5 78.5-78.5s78.5 35.15 78.5 78.5-35.15 78.5-78.5 78.5-78.5-35.15-78.5-78.5"/><path fill="#C55A11" d="m1719.85 187.775 1200.7 955.285-10.7 13.45-1200.7-955.285Zm1204.68 936.485 24.3 52.27-56.4-11.92Z"/><path fill="#3B3838" d="M493.119 1519.38c5.122-10.32 5.259-22.56 3.437-34a105.8 105.8 0 0 0 20.007-12.45c8.215 9.73 15.606 21.83 15.09 32.9a6.881 6.881 0 0 0 13.75.59v-1.59c0-15.33-9.281-30.11-18.665-41.25a89 89 0 0 0 5.637-6.39c1.365.22 2.744.33 4.125.34 17.188 0 31.694-13.75 37.503-32.75a12.8 12.8 0 0 1 3.438 2.02c4.744 3.78 6.875 11.07 5.981 21.66a6.896 6.896 0 0 0 6.394 7.36c3.797.26 7.09-2.6 7.356-6.4 1.066-15.4-2.681-26.64-11.206-33.41a28.2 28.2 0 0 0-9.591-4.92c0-1.51.172-3.06.172-4.6a66 66 0 0 0-.516-7.87c3.615-1 6.993-2.7 9.935-5.02 8.525-6.88 12.306-18.02 11.206-33.42a6.89 6.89 0 0 0-7.373-6.37 6.885 6.885 0 0 0-6.377 7.37c.791 10.52-1.237 17.84-5.981 21.62a14.1 14.1 0 0 1-4.607 2.38c-6.359-17.54-20.281-29.74-36.506-29.74-1.975.02-3.943.22-5.878.62-1.719-1.99-3.437-3.92-5.431-5.81 9.969-11.52 20.212-27.5 19.491-43.72a6.88 6.88 0 1 0-13.75.58c.481 11.45-7.563 24.06-16.191 34.1a109.4 109.4 0 0 0-19.319-11.59c2.234-11.99 2.406-25.12-3.025-36.02a6.88 6.88 0 0 0-9.117-3.38 6.88 6.88 0 0 0-3.378 9.12c.059.13.122.25.189.38a42.14 42.14 0 0 1 2.269 24.85 124.7 124.7 0 0 0-38.672-5.95 121.8 121.8 0 0 0-55 12.83c-6.875-9.73-15.778-18.7-26.985-22.45-3.607-1.22-7.524.71-8.748 4.31-1.224 3.61.707 7.53 4.314 8.75 7.494 2.48 14.025 8.91 19.422 16.4-24.235 16.19-39.738 41.25-39.738 69.54s15.16 52.46 38.844 68.75a40.1 40.1 0 0 1-17.909 14.33 6.949 6.949 0 0 0 4.434 13.17 54.97 54.97 0 0 0 25.438-20.32c17.3 8.89 36.478 13.5 55.928 13.45 13.543.02 27.001-2.16 39.84-6.47a39.77 39.77 0 0 1-2.543 22.48 6.885 6.885 0 0 0 3.059 9.22c3.408 1.67 7.528.27 9.202-3.14zm-62.15-170.33c0-6.88 6.875-12.38 15.469-12.38s15.468 5.54 15.468 12.38-6.875 12.37-15.468 12.37-15.469-5.53-15.469-12.37m-44.688 30.28c-4.056-5.5-4.022-12.41 0-15.47s10.76-1.06 14.816 4.4c4.056 5.47 4.022 12.41 0 15.47s-10.656 1.1-14.713-4.4Zm95.907-2.27c0-6.64 5.386-12.03 12.031-12.03s12.031 5.39 12.031 12.03c0 6.65-5.386 12.03-12.031 12.03s-12.031-5.38-12.031-12.03m-131.244 37.82c-.275-4.58-.275-9.18 0-13.76h179.369v13.76Zm143.275 14.78c6.645 0 12.031 5.38 12.031 12.03 0 6.64-5.386 12.03-12.031 12.03s-12.031-5.39-12.031-12.03c-.095-6.65 5.214-12.11 11.858-12.2.057-.01.115-.01.173-.01Zm-107.731 25.06c-4.125-3.03-4.16-9.97 0-15.47 4.159-5.5 10.725-7.46 14.815-4.4 4.091 3.06 4.16 9.97 0 15.47-4.159 5.5-10.725 7.28-14.815 4.22Zm44.481 14.64c0-6.88 6.875-12.38 15.469-12.38s15.468 5.54 15.468 12.38-6.875 12.37-15.468 12.37-15.469-5.53-15.469-12.37"/><g clip-path="url(#av)"><g clip-path="url(#aw)"><g clip-path="url(#ax)"><path fill="#C55A11" d="M459.992 990.964c-1.786-11.375-8.75-21.438-16.856-29.723a105.8 105.8 0 0 0 9.125-21.722c12.329 3.186 25.355 8.783 31.336 18.112a6.88 6.88 0 1 0 11.555-7.475l-.914-1.29c-8.866-12.508-24.986-19.199-39.083-22.859.434-2.835.744-5.668.902-8.476a27.5 27.5 0 0 0 3.564-2.105c14.022-9.94 17.905-29.546 11.652-48.414 1.3-.317 2.642-.43 3.977-.333 6.057.341 12.01 5.054 17.404 14.209a6.892 6.892 0 1 0 11.774-7.167c-8.036-13.18-17.594-20.183-28.465-20.778a28 28 0 0 0-10.667 1.536c-.874-1.234-1.629-2.596-2.523-3.858a66 66 0 0 0-4.973-6.123 28 28 0 0 0 5.202-9.84c2.98-10.539-.376-21.812-10.179-33.739a6.89 6.89 0 0 0-9.703-.938 6.893 6.893 0 0 0-.939 9.703c6.728 8.124 9.308 15.27 7.624 21.098a14 14 0 0 1-2.386 4.599c-15.326-10.625-33.741-12.53-46.978-3.147a30.5 30.5 0 0 0-4.438 3.904c-2.555-.633-5.07-1.209-7.79-1.598 1.473-15.16.587-34.124-9.385-46.944a6.882 6.882 0 0 0-10.88 8.428c7.013 9.061 7.746 24.005 6.511 37.183a109.4 109.4 0 0 0-22.46 1.721c-5.114-11.079-12.568-21.892-23.301-27.641a6.875 6.875 0 1 0-6.501 12.109 42.14 42.14 0 0 1 16.223 18.963 124.4 124.4 0 0 0-34.988 17.513 121.8 121.8 0 0 0-37.456 42.266c-11.235-3.961-23.686-6.132-34.996-2.708a6.898 6.898 0 0 0 3.937 13.221c7.544-2.314 16.59-.847 25.327 2.146-10.409 27.223-8.565 56.633 7.795 79.713 16.361 23.08 42.703 34.03 71.448 33.63a40.14 40.14 0 0 1-6.322 22.05 6.94 6.94 0 0 0 1.528 9.7c3.101 2.26 7.446 1.57 9.704-1.53a55 55 0 0 0 9.004-31.28 121.6 121.6 0 0 0 53.4-21.38 124.4 124.4 0 0 0 28.766-28.311 39.77 39.77 0 0 1 10.926 19.812 6.875 6.875 0 0 0 7.823 5.747 6.876 6.876 0 0 0 5.676-7.984M310.788 887.946c-3.975-5.608-1.547-14.071 5.464-19.041s15.82-4.43 19.776 1.15c3.956 5.581 1.548 14.072-5.463 19.042s-15.821 4.43-19.777-1.151m-18.944 50.55c-6.49-2.142-10.457-7.798-8.945-12.62s8.161-7.092 14.631-4.978 10.458 7.798 8.946 12.62-8.058 7.059-14.548 4.918Zm76.931-57.313c-3.842-5.421-2.563-12.93 2.858-16.773s12.931-2.563 16.773 2.858 2.563 12.93-2.858 16.773-12.93 2.563-16.773-2.858m-85.206 106.746a115 115 0 0 1-7.951-11.218l146.334-103.727 7.952 11.217Zm125.436-70.796c5.421-3.843 12.931-2.563 16.773 2.858s2.563 12.93-2.858 16.773c-5.42 3.842-12.93 2.563-16.773-2.858-3.919-5.366-2.747-12.892 2.618-16.812l.141-.101Zm-73.398 82.744c-5.115-.082-9.159-5.727-8.946-12.62s4.436-12.287 9.543-12.157 9.158 5.727 8.945 12.62-4.535 12.147-9.642 12.017Zm44.757-13.776c-3.976-5.609-1.547-14.072 5.464-19.041s15.82-4.431 19.776 1.15 1.547 14.072-5.464 19.041-15.82 4.431-19.776-1.15"/></g></g></g></g></svg>