<svg xmlns="http://www.w3.org/2000/svg" xmlns:xlink="http://www.w3.org/1999/xlink" width="358.05" height="246.58" viewBox="0 0 268.54 184.93"><defs><symbol id="b" overflow="visible"><path d="M4.25-2.87c0-.6-.03-1.38-.34-2.05a1.7 1.7 0 0 0-1.6-1.05c-.54 0-1.23.2-1.62 1.08C.4-4.3.36-3.55.36-2.88c0 .6.02 1.46.4 2.18C1.2.05 1.9.2 2.3.2c.58 0 1.25-.25 1.62-1.07.27-.61.33-1.29.33-2M2.31-.04c-.28 0-.92-.13-1.1-1.14-.08-.52-.08-1.3-.08-1.81 0-.61 0-1.32.1-1.82.2-.8.75-.95 1.07-.95.34 0 .9.19 1.08 1.02.09.48.09 1.18.09 1.75 0 .56 0 1.3-.1 1.84-.18 1.03-.84 1.1-1.06 1.1m0 0" style="stroke:none"/></symbol><symbol id="d" overflow="visible"><path d="M4.14-1.6H3.9c-.02.13-.1.66-.2.8-.06.08-.67.08-.86.08h-1.6l.9-.84c1.46-1.27 2.01-1.75 2.01-2.66 0-1.03-.84-1.75-1.95-1.75-1.03 0-1.74.81-1.74 1.63 0 .45.4.5.47.5.2 0 .47-.14.47-.47a.45.45 0 0 0-.47-.47l-.1.01c.21-.64.79-.92 1.27-.92.91 0 1.22.85 1.22 1.47 0 .9-.68 1.66-1.1 2.13L.55-.33c-.1.11-.1.13-.1.33h3.43Zm0 0" style="stroke:none"/></symbol><symbol id="e" overflow="visible"><path d="M.27-1.77v.29H2.7v.78c0 .32-.01.42-.68.42h-.2V0C2.36-.03 3-.03 3.05-.03c.05 0 .7 0 1.27.03v-.28h-.2c-.68 0-.7-.1-.7-.42v-.78h.91v-.29h-.92v-4.06c0-.19 0-.25-.17-.25-.1 0-.1.02-.19.14Zm.28 0 2.22-3.3v3.3Zm0 0" style="stroke:none"/></symbol><symbol id="f" overflow="visible"><path d="M1.2-2.97c0-.92.1-1.42.35-1.89.17-.37.6-.89 1.28-.89.17 0 .6.03.8.36-.33 0-.49.17-.49.4s.17.43.42.43.42-.17.42-.44c0-.5-.35-.97-1.17-.97C1.66-5.97.4-4.83.4-2.83.4-.4 1.5.2 2.33.2c.98 0 1.89-.84 1.89-2.03 0-1.12-.83-2-1.84-2-.54 0-.93.33-1.18.86M2.31-.05c-.51 0-.81-.42-.9-.68a4 4 0 0 1-.2-1.3c0-.6.29-1.56 1.15-1.56.14 0 .58 0 .87.54.18.35.18.78.18 1.22 0 .42 0 .88-.18 1.2-.28.52-.67.58-.92.58m0 0" style="stroke:none"/></symbol><symbol id="g" overflow="visible"><path d="M1.55-4.08c-.27-.17-.49-.4-.49-.73 0-.6.63-.94 1.22-.94.7 0 1.25.48 1.25 1.1S3-3.58 2.64-3.38Zm1.3.83c.46-.22 1.12-.66 1.12-1.4 0-.83-.85-1.32-1.66-1.32-.93 0-1.67.67-1.67 1.5q.01.51.34.92c.15.17.2.2.72.53-.78.38-1.3.93-1.3 1.66C.4-.4 1.32.2 2.3.2c1.04 0 1.92-.73 1.92-1.7 0-.87-.67-1.31-.9-1.45zm-.9.4 1.13.7c.2.12.65.42.65.96 0 .7-.71 1.14-1.42 1.14C1.53-.05.88-.6.88-1.35c0-.65.43-1.18 1.07-1.5m0 0" style="stroke:none"/></symbol><symbol id="h" overflow="visible"><path d="M2.72-5.73c0-.22 0-.24-.22-.24-.56.56-1.4.56-1.67.56v.29c.17 0 .72 0 1.2-.24v4.64c0 .33-.01.44-.86.44H.9V0c.31-.03 1.13-.03 1.49-.03s1.17 0 1.5.03v-.28h-.29c-.84 0-.87-.11-.87-.44Zm0 0" style="stroke:none"/></symbol><symbol id="i" overflow="visible"><path d="M2.73-3.16c.83-.3 1.24-.96 1.24-1.59 0-.69-.77-1.22-1.7-1.22S.64-5.44.64-4.77c0 .3.19.47.45.47.27 0 .46-.18.46-.45 0-.31-.22-.44-.53-.44.23-.37.78-.56 1.23-.56.73 0 .88.6.88 1.02 0 .26-.05.7-.27 1.04-.28.4-.6.4-.86.44l-.31.02q-.14-.02-.16.1c0 .13.08.13.24.13h.4c.78 0 1.13.63 1.13 1.47 0 1.16-.61 1.48-1.07 1.48C2.06-.05 1.2-.09.8-.77c.3.05.56-.17.56-.48s-.22-.48-.49-.48c-.21 0-.48.14-.48.51C.4-.42 1.22.2 2.27.2c1.1 0 1.95-.8 1.95-1.73 0-.78-.63-1.44-1.49-1.63m0 0" style="stroke:none"/></symbol><symbol id="j" overflow="visible"><path d="M.94-3.1c0 .16 0 .27.12.27q.08 0 .14-.12c.28-.38.7-.6 1.18-.6.96 0 .96 1.4.96 1.7 0 .29 0 .85-.26 1.26-.24.37-.61.54-.97.54-.52 0-1.13-.34-1.34-1l.12.02c.19 0 .45-.11.45-.44 0-.28-.2-.44-.45-.44-.19 0-.44.11-.44.47 0 .82.7 1.64 1.7 1.64 1.07 0 2-.89 2-2 0-1.07-.78-1.97-1.76-1.97-.42 0-.86.15-1.19.47v-1.76q.43.12.83.12c1.11 0 1.75-.8 1.75-.92q-.01-.11-.1-.1l-.12.04q-.64.23-1.2.23-.6 0-1.2-.23l-.11-.05c-.11 0-.11.08-.11.24Zm0 0" style="stroke:none"/></symbol><symbol id="k" overflow="visible"><path d="M4.4-5.47c.07-.1.07-.12.07-.31H2.25c-1.14 0-1.17-.11-1.19-.28H.81L.51-4.2h.26c.03-.2.1-.7.21-.81.07-.06.79-.06.91-.06h1.88L2.9-3.9A6.2 6.2 0 0 0 1.63-.31c0 .1 0 .51.42.51s.42-.4.42-.51v-.44c0-1.33.19-2.36.67-3.02Zm0 0" style="stroke:none"/></symbol><symbol id="c" overflow="visible"><path d="M1.77-.48a.5.5 0 0 0-.49-.49.5.5 0 0 0-.48.49c0 .26.2.48.48.48s.49-.22.49-.48m0 0" style="stroke:none"/></symbol><symbol id="m" overflow="visible"><path d="M4.67-3.7c0-.55-.26-.7-.44-.7-.25 0-.5.26-.5.48 0 .12.05.19.16.3q.34.29.34.8c0 .43-.6 2.71-1.76 2.71-.52 0-.75-.34-.75-.87 0-.55.28-1.29.58-2.11.08-.18.12-.32.12-.5a.8.8 0 0 0-.81-.82C.67-4.4.3-2.95.3-2.87c0 .1.1.1.1.1.12 0 .12-.03.16-.18.3-1 .72-1.24 1.02-1.24.08 0 .25 0 .25.32 0 .25-.11.53-.17.7a6 6 0 0 0-.57 2.05C1.1-.05 1.97.1 2.42.1 4.1.1 4.67-3.2 4.67-3.7m0 0" style="stroke:none"/></symbol><symbol id="n" overflow="visible"><path d="M4.38-7.1q.05-.18.04-.18-.01-.18-.19-.2-.12 0-.17.09L.6 2.1c-.04.14-.04.17-.04.19 0 .1.1.2.2.2.13 0 .16-.08.22-.25Zm0 0" style="stroke:none"/></symbol><symbol id="o" overflow="visible"><path d="M3.95-3.78c-.17 0-.3 0-.43.12a.5.5 0 0 0-.2.4c0 .24.2.35.38.35.28 0 .55-.25.55-.64 0-.48-.47-.86-1.17-.86C1.73-4.4.4-2.98.4-1.58.4-.68.98.11 2.03.11 3.45.1 4.28-.95 4.28-1.06c0-.06-.05-.14-.1-.14-.07 0-.09.03-.15.1-.78 1-1.87 1-1.98 1-.63 0-.9-.5-.9-1.1 0-.4.2-1.38.54-1.99.31-.58.86-1 1.4-1 .33 0 .72.13.86.4m0 0" style="stroke:none"/></symbol><symbol id="p" overflow="visible"><path d="M-2.53-.4A1.7 1.7 0 0 1-3.7-2c0-1.5 1.75-1.6 2.53-1.6.61 0 .78.04.99.12.72.21 1.87.51 2.14.51q.16 0 .17-.12c0-.14-.22-.22-.6-.33-.84-.24-1.4-.33-1.71-.36q-.18-.03-.4-.1A28 28 0 0 1-4.2-5.4c-.1 0-.1.1-.1.11q-.02.06.07.13c.95.51 1.95.92 2.95 1.31-.3.02-1.06.02-2.03.4-.61.26-1.1.65-1.1 1.34 0 1.25 1.52 1.95 1.83 1.95.1 0 .1-.1.1-.2Zm0 0" style="stroke:none"/></symbol><clipPath id="a"><path d="M0 0h268.54v184.93H0Zm0 0"/></clipPath><clipPath id="l"><path d="M26.64 4.04h238.64V148H26.64Zm0 0"/></clipPath></defs><g clip-path="url(#a)"><path d="M0 184.93h268.54V0H0Zm0 0" style="stroke:none;fill-rule:nonzero;fill:#ffe4c8;fill-opacity:1"/></g><path d="M47.25 0v153.6M94.51 0v153.6M141.77 0v153.6M189.02 0v153.6M236.27 0v153.6M0 21.63h238.64M0 43.26h238.64M0 64.9h238.64M0 86.53h238.64M0 108.16h238.64M0 129.8h238.64M0 151.43h238.64" style="fill:none;stroke-width:.3985;stroke-linecap:butt;stroke-linejoin:miter;stroke:#d9d9d9;stroke-opacity:1;stroke-dasharray:2.98883,2.98883;stroke-miterlimit:10" transform="matrix(1 0 0 -1 26.64 157.63)"/><path d="M47.25-2.13v4.26m47.26-4.26v4.26m47.26-4.26v4.26m47.25-4.26v4.26m47.25-4.26v4.26M-2.13 21.63h4.25m-4.25 21.63h4.25M-2.13 64.9h4.25m-4.25 21.63h4.25m-4.25 21.63h4.25m-4.25 21.64h4.25m-4.25 21.63h4.25" style="fill:none;stroke-width:.19925;stroke-linecap:butt;stroke-linejoin:miter;stroke:gray;stroke-opacity:1;stroke-miterlimit:10" transform="matrix(1 0 0 -1 26.64 157.63)"/><path d="M0 0h238.64M0 0v153.6" style="fill:none;stroke-width:.3985;stroke-linecap:butt;stroke-linejoin:miter;stroke:#000;stroke-opacity:1;stroke-miterlimit:10" transform="matrix(1 0 0 -1 26.64 157.63)"/><use xlink:href="#b" x="68.01" y="169.06" style="fill:#000;fill-opacity:1"/><use xlink:href="#c" x="72.61" y="169.06" style="fill:#000;fill-opacity:1"/><use xlink:href="#d" x="75.17" y="169.06" style="fill:#000;fill-opacity:1"/><use xlink:href="#b" x="115.26" y="169.06" style="fill:#000;fill-opacity:1"/><use xlink:href="#c" x="119.87" y="169.06" style="fill:#000;fill-opacity:1"/><use xlink:href="#e" x="122.43" y="169.06" style="fill:#000;fill-opacity:1"/><use xlink:href="#b" x="162.52" y="169.06" style="fill:#000;fill-opacity:1"/><use xlink:href="#c" x="167.12" y="169.06" style="fill:#000;fill-opacity:1"/><use xlink:href="#f" x="169.68" y="169.06" style="fill:#000;fill-opacity:1"/><use xlink:href="#b" x="209.77" y="169.06" style="fill:#000;fill-opacity:1"/><use xlink:href="#c" x="214.38" y="169.06" style="fill:#000;fill-opacity:1"/><use xlink:href="#g" x="216.94" y="169.06" style="fill:#000;fill-opacity:1"/><use xlink:href="#h" x="260.61" y="169.06" style="fill:#000;fill-opacity:1"/><use xlink:href="#h" x="16.39" y="138.89" style="fill:#000;fill-opacity:1"/><use xlink:href="#d" x="16.39" y="117.26" style="fill:#000;fill-opacity:1"/><use xlink:href="#i" x="16.39" y="95.63" style="fill:#000;fill-opacity:1"/><use xlink:href="#e" x="16.39" y="74" style="fill:#000;fill-opacity:1"/><use xlink:href="#j" x="16.39" y="52.36" style="fill:#000;fill-opacity:1"/><use xlink:href="#f" x="16.39" y="30.73" style="fill:#000;fill-opacity:1"/><use xlink:href="#k" x="16.39" y="9.1" style="fill:#000;fill-opacity:1"/><path d="M0-2.13v4.26" style="fill:none;stroke-width:.19925;stroke-linecap:butt;stroke-linejoin:miter;stroke:gray;stroke-opacity:1;stroke-miterlimit:10" transform="matrix(1 0 0 -1 26.64 157.63)"/><use xlink:href="#b" x="24.34" y="169.06" style="fill:#000;fill-opacity:1"/><g clip-path="url(#l)"><path d="M0 21.63h4.73l4.72.02 2.36.01 2.37.01 2.36.02 2.36.02h2.37l2.36.03 2.36.03 2.36.02 9.45.12 4.73.08 2.36.04 7.09.14 7.09.17 2.36.06 4.73.13 2.36.07 4.73.15 2.36.08 2.36.09 2.36.08 2.36.1 2.37.09 2.36.1 2.36.1 4.73.21 2.36.12 2.36.11 2.37.13 2.36.13 2.36.13 2.37.15 2.36.14 2.36.15 2.36.16 2.37.15 4.72.36 2.37.18 2.36.19 2.36.2 2.36.21 2.37.22 2.36.23 2.36.24 2.37.24 2.36.26 2.36.27 2.36.29 2.36.3 2.37.3 2.36.33 2.36.35 2.37.36 2.36.39 2.36.4 2.36.43 2.37.45 2.36.48 2.36.51 2.37.55 2.36.58 2.36.61 2.36.67 2.37.71 2.36.77 2.36.84 2.37.9 2.36 1 2.36 1.08 2.36 1.2 2.36 1.32 2.37 1.48 2.36 1.68 2.36 1.9 2.37 2.18 2.36 2.55 2.36 3.02 2.36 3.65 2.37 4.55 2.36 5.88 2.36 7.98 2.37 11.73 2.36 19.72 2.36 44.64" style="fill:none;stroke-width:.79701;stroke-linecap:butt;stroke-linejoin:miter;stroke:#000;stroke-opacity:1;stroke-miterlimit:10" transform="matrix(1 0 0 -1 26.64 157.63)"/></g><use xlink:href="#m" x="149.48" y="179.12" style="fill:#000;fill-opacity:1"/><g style="fill:#000;fill-opacity:1"><use xlink:href="#n" x="154.66" y="179.12"/><use xlink:href="#o" x="159.65" y="179.12"/></g><use xlink:href="#p" x="7.61" y="83.7" style="fill:#000;fill-opacity:1"/></svg>