<svg xmlns="http://www.w3.org/2000/svg" xmlns:xlink="http://www.w3.org/1999/xlink" width="213.61" height="185.07" viewBox="0 0 160.21 138.8"><desc>A figure created by Phy-Hub, for The Handbook of Special Relativity</desc><defs><symbol id="a" overflow="visible"><path d="M5.88-2.05c0-.6-.2-1.14-.6-1.51-.26-.27-.66-.44-1.45-.64l-1.06-.27c-.9-.22-1.32-.6-1.32-1.22 0-.7.58-1.18 1.43-1.18.68 0 1.26.3 1.65.87.3.4.47.83.61 1.33h.42l-.12-2.58h-.36l-.4.6a2.6 2.6 0 0 0-1.82-.7c-1.3 0-2.19.83-2.19 2.08 0 1.1.55 1.63 2.02 2l.94.25c.73.2.8.2 1.01.36q.46.37.47.96 0 .58-.45 1c-.33.28-.66.39-1.2.39-.74 0-1.27-.22-1.74-.75a3.3 3.3 0 0 1-.78-1.7H.52L.55.07h.39l.45-.67c.66.54 1.22.75 2.1.75 1.45 0 2.38-.86 2.38-2.2m0 0" style="stroke:none"/></symbol><symbol id="b" overflow="visible"><path d="M4.64-2.33c0-1.36-.95-2.47-2.12-2.47C1.3-4.8.34-3.7.34-2.3.34-.95 1.3.16 2.5.16c1.19 0 2.14-1.11 2.14-2.49m-1.05 0C3.6-1 3.2-.28 2.5-.28c-.72 0-1.1-.72-1.1-2.03q0-2.04 1.12-2.05c.68 0 1.07.72 1.07 2.03m0 0" style="stroke:none"/></symbol><symbol id="c" overflow="visible"><path d="M5.92 0v-.42h-.25c-.54 0-.62-.1-.62-.74v-3.48l-1.88.1v.43h.5c.38 0 .44.08.44.5v1.23c0 .57-.06.9-.22 1.22-.2.44-.6.7-1.1.7-.29 0-.56-.1-.68-.3-.14-.2-.16-.3-.16-.85v-3.03l-1.75.1v.43h.4c.35 0 .42.08.42.5v2.16c0 .5.04.73.18.97.27.4.75.64 1.35.64.65 0 1.12-.29 1.56-.91v.81Zm0 0" style="stroke:none"/></symbol><symbol id="d" overflow="visible"><path d="M4.34-4c0-.47-.34-.8-.87-.8-.63 0-1.17.52-1.5 1.4v-1.24l-1.77.1v.43h.43c.35 0 .42.08.42.5v2.78c0 .4-.02.47-.66.47H.25V0h2.66v-.36h-.2c-.63 0-.74-.06-.74-.47v-.5c0-.75.14-1.5.39-2.08q.37-.83 1-.9c-.14.15-.17.25-.17.43 0 .33.22.57.54.57.36 0 .61-.28.61-.69m0 0" style="stroke:none"/></symbol><symbol id="e" overflow="visible"><path d="m4.25-1.31-.4-.16C3.54-.75 3.2-.45 2.7-.45c-.8 0-1.3-.74-1.3-1.9 0-1.21.49-2 1.22-2 .3 0 .56.12.56.29q0 .04-.06.1c-.16.2-.2.3-.2.48 0 .32.25.54.6.54s.6-.26.6-.67c0-.67-.66-1.19-1.55-1.19C1.26-4.8.34-3.73.34-2.25c0 1.42.85 2.4 2.08 2.4.9 0 1.4-.42 1.83-1.46m0 0" style="stroke:none"/></symbol><symbol id="f" overflow="visible"><path d="m4.64-1.27-.36-.18C3.88-.7 3.45-.4 2.8-.4c-.83 0-1.4-.6-1.4-1.86h3.24c0-1.48-.83-2.55-2.06-2.55C1.3-4.8.34-3.69.34-2.19c0 1.4.91 2.35 2.27 2.35q1.41 0 2.03-1.43M3.56-3.05c0 .3-.08.38-.4.38H1.42c0-1.06.53-1.69 1.14-1.69s1 .52 1 1.31m0 0" style="stroke:none"/></symbol><symbol id="g" overflow="visible"><path d="M6.45-4.42 6.31-7.2H.34L.2-4.42h.44q.1-.74.26-1.2.4-1.1 1.4-1.11.5-.02.48.36v5.43c0 .42-.08.47-.9.47h-.26V0h3.42v-.47h-.25c-.8 0-.89-.05-.89-.47v-5.43q-.01-.37.47-.36c.6 0 1.1.34 1.34.93.16.38.25.8.33 1.38Zm0 0" style="stroke:none"/></symbol><symbol id="h" overflow="visible"><path d="M5.4-.52q0-.1-.09-.1c-.14 0-.37.1-.42.1-.28 0-.39-.18-.39-.68v-2c0-1.28-.7-1.6-1.84-1.6C1.53-4.8.7-4.27.7-3.55c0 .38.24.61.58.61.31 0 .55-.2.55-.5 0-.19-.22-.48-.22-.54 0-.2.4-.38.89-.38.66 0 1.06.22 1.06 1.1v.38C1.25-2.47.44-2 .44-1.01.44-.32 1 .16 1.89.16c.69 0 1.3-.29 1.74-.8.15.52.4.7.87.7.44 0 .9-.28.9-.58M3.57-2c0 .6-.03.75-.19 1-.25.38-.71.63-1.14.63a.76.76 0 0 1-.78-.79c0-.7.4-1 2.11-1.3Zm0 0" style="stroke:none"/></symbol><symbol id="i" overflow="visible"><path d="M5.4-4.36c0-.33-.26-.58-.65-.58-.33 0-.5.11-.97.52-.4-.27-.73-.38-1.23-.38-1.2 0-1.96.66-1.96 1.66 0 .6.32 1.1.83 1.34-.67.14-.94.44-.94.99 0 .44.2.7.66.86Q.24.38.24 1c0 .66.76 1.03 2.09 1.03q2.5 0 2.5-1.58c0-.5-.22-.9-.6-1.04-.25-.11-.57-.14-1.26-.14H1.95c-.54 0-.57-.04-.7-.1q-.1-.09-.1-.26c0-.3.26-.43.93-.44.94-.03 1.1-.05 1.42-.19.6-.28.94-.8.94-1.45 0-.4-.1-.64-.38-.97q.24-.27.35-.25c.1 0 .12.51.54.51.25 0 .46-.21.46-.48m-1.88 1.2c0 .79-.38 1.25-1.02 1.25-.6 0-1-.47-1-1.22 0-.8.38-1.23 1.05-1.23.62 0 .97.44.97 1.2M4.14.72c0 .56-.66.89-1.76.89-.85 0-1.32-.25-1.32-.69 0-.33.17-.55.66-.8h.73c.83 0 .9 0 1.03.02.41.03.66.27.66.58m0 0" style="stroke:none"/></symbol><symbol id="j" overflow="visible"><path d="m3.73-1.58-.01-.23H3.3Q3.26-.46 2.52-.45c-.46 0-.58-.25-.58-1.05v-2.72H3.4v-.42H1.94v-1.99h-.4Q1.36-4.69.16-4.6v.4H1v2.54c0 .7.02.94.1 1.17q.27.65 1.15.66c.98 0 1.48-.8 1.48-1.74m0 0" style="stroke:none"/></symbol><symbol id="k" overflow="visible"><path d="M6.36-4.64V-7.2H.3v.47h.17c.81 0 .89.06.89.46v5.33c0 .42-.08.47-.9.47H.3V0h3.4v-.47h-.33c-.8 0-.89-.05-.89-.47v-2.54h.2c1.24 0 1.41.48 1.43 1.43h.47v-3.28H4.1c-.05.99-.44 1.38-1.4 1.38h-.23v-2.28c0-.43.1-.5.63-.5h.45c1.66 0 2.08.39 2.36 2.09Zm0 0" style="stroke:none"/></symbol><symbol id="l" overflow="visible"><path d="M4.31-6.4c0-.58-.5-.94-1.3-.94-1.18 0-1.95.68-1.95 2.39v.3H.2v.43h.87v3.4c0 .4 0 .46-.64.46H.28V0h2.66v-.36h-.17C2.1-.36 2-.42 2-.83v-3.39h1.1v-.42H2v-.58c0-1.25.36-1.73 1.02-1.73q.33 0 .34.17c0 .03-.16.26-.16.45 0 .3.25.53.57.53s.54-.25.54-.6m0 0" style="stroke:none"/></symbol><symbol id="m" overflow="visible"><path d="M8.66 0v-.36h-.14c-.64 0-.66-.06-.66-.48v-2.22c0-.61-.05-.83-.31-1.17q-.46-.56-1.17-.57c-.66 0-1.13.32-1.57 1-.17-.6-.7-1-1.37-1-.6 0-1.05.3-1.44.92v-.76l-1.77.1v.43h.41c.36 0 .42.08.42.5v2.77c0 .42 0 .48-.64.48H.28V0H2.8v-.36h-.14C2.02-.36 2-.42 2-.84v-1.8c0-.9.5-1.55 1.14-1.55.27 0 .53.14.66.33q.2.28.2.9v2.13c0 .4-.02.47-.66.47H3.2V0h2.52v-.36h-.14c-.64 0-.64-.06-.64-.47v-1.72c0-1 .45-1.64 1.14-1.64q.51.02.73.5c.08.22.11.44.11.83v2.03c0 .4 0 .47-.65.47h-.14V0Zm0 0" style="stroke:none"/></symbol><symbol id="n" overflow="visible"><path d="M5.9 0v-.36h-.13c-.63 0-.64-.06-.64-.47V-2.8c0-.72-.04-.89-.2-1.23a1.5 1.5 0 0 0-1.37-.77q-.91-.02-1.56.96v-.8l-1.73.1v.43h.36c.37 0 .43.08.43.5v2.78c0 .4-.01.47-.65.47H.27V0H2.8v-.36h-.14C2-.36 2-.42 2-.83v-1.44c0-.48.06-.93.17-1.15.2-.46.66-.77 1.1-.77.25 0 .54.16.7.35q.21.3.22 1v2.01c0 .4-.02.47-.66.47H3.4V0Zm0 0" style="stroke:none"/></symbol><symbol id="o" overflow="visible"><path d="M5.3-4.28v-.36h-2v.36h.15c.4 0 .55.1.55.36q0 .15-.1.4l-.92 2.25L1.9-3.83q-.05-.14-.06-.2c0-.19.12-.25.47-.25h.2v-.36H.13v.36h.14c.3 0 .46.14.65.53L2.55-.06l-.17.34c-.38.75-.83 1.28-1.16 1.28q-.14 0-.16-.1c0-.07.08-.24.08-.35C1.14.86.92.67.63.67c-.35 0-.6.25-.6.61 0 .44.4.77.9.77q.8.01 1.38-.8c.31-.4.5-.81.96-1.92l1.12-2.81c.25-.61.4-.8.78-.8Zm0 0" style="stroke:none"/></symbol><symbol id="p" overflow="visible"><path d="M4.2-1.4q0-.64-.42-1c-.25-.2-.44-.29-1.05-.41l-.5-.11c-.54-.13-.54-.13-.73-.22a.6.6 0 0 1-.34-.53c0-.4.37-.69.92-.69q.57 0 .97.4c.22.23.33.43.48.88h.36v-1.67h-.36l-.28.36c-.36-.28-.72-.4-1.22-.4-.87 0-1.45.57-1.45 1.45q0 .6.34.9c.24.22.47.31 1.06.46l.54.12c.78.19 1.06.4 1.06.78 0 .47-.4.8-1 .8-.83 0-1.44-.53-1.67-1.53H.5V.06h.35l.34-.4q.61.49 1.38.5C3.55.16 4.2-.45 4.2-1.4m0 0" style="stroke:none"/></symbol></defs><path d="M0 138.8h160.21V0H0Zm0 0" style="stroke:none;fill-rule:nonzero;fill:#ffe4c8;fill-opacity:1"/><path d="M0 0v113.39h85.04V-.01Zm0 0" style="fill:none;stroke-width:.79701;stroke-linecap:butt;stroke-linejoin:miter;stroke:#000;stroke-opacity:1;stroke-miterlimit:10" transform="matrix(1 0 0 -1 38.01 113.78)"/><path d="M1.5 70.87a1.5 1.5 0 1 1-3 0 1.5 1.5 0 0 1 3 0Zm0 0" style="fill-rule:nonzero;fill:#000;fill-opacity:1;stroke-width:.3985;stroke-linecap:butt;stroke-linejoin:miter;stroke:#000;stroke-opacity:1;stroke-miterlimit:10" transform="matrix(1 0 0 -1 38.01 113.78)"/><g style="fill:#000;fill-opacity:1"><use xlink:href="#a" x="3.32" y="46.58"/><use xlink:href="#b" x="9.6" y="46.58"/><use xlink:href="#c" x="14.58" y="46.58"/><use xlink:href="#d" x="20.67" y="46.58"/><use xlink:href="#e" x="25.09" y="46.58"/><use xlink:href="#f" x="29.51" y="46.58"/></g><path d="M86.53 70.87a1.5 1.5 0 1 1-2.98 0 1.5 1.5 0 0 1 2.98 0Zm0 0" style="fill-rule:nonzero;fill:#000;fill-opacity:1;stroke-width:.3985;stroke-linecap:butt;stroke-linejoin:miter;stroke:#000;stroke-opacity:1;stroke-miterlimit:10" transform="matrix(1 0 0 -1 38.01 113.78)"/><use xlink:href="#g" x="126.57" y="45.57" style="fill:#000;fill-opacity:1"/><g style="fill:#000;fill-opacity:1"><use xlink:href="#h" x="133.02" y="45.57"/><use xlink:href="#d" x="138.56" y="45.57"/></g><use xlink:href="#i" x="142.93" y="45.57" style="fill:#000;fill-opacity:1"/><use xlink:href="#f" x="148.23" y="45.57" style="fill:#000;fill-opacity:1"/><use xlink:href="#j" x="153.01" y="45.57" style="fill:#000;fill-opacity:1"/><path d="M0 70.87h84.24" style="fill:none;stroke-width:.79701;stroke-linecap:butt;stroke-linejoin:miter;stroke:red;stroke-opacity:1;stroke-miterlimit:10" transform="matrix(1 0 0 -1 38.01 113.78)"/><path d="M-2.55 3.11C-2.08 1.25-1.05.36 0 0c-1.05-.36-2.08-1.24-2.55-3.11" style="fill:none;stroke-width:.79701;stroke-linecap:round;stroke-linejoin:round;stroke:red;stroke-opacity:1;stroke-miterlimit:10" transform="matrix(1 0 0 -1 122.65 42.92)"/><use xlink:href="#k" x="32.59" y="133.43" style="fill:#000;fill-opacity:1"/><g style="fill:#000;fill-opacity:1"><use xlink:href="#h" x="38.88" y="133.43"/><use xlink:href="#d" x="44.42" y="133.43"/></g><g style="fill:#000;fill-opacity:1"><use xlink:href="#l" x="51.62" y="133.43"/><use xlink:href="#d" x="54.93" y="133.43"/><use xlink:href="#b" x="59.36" y="133.43"/><use xlink:href="#m" x="64.34" y="133.43"/></g><g style="fill:#000;fill-opacity:1"><use xlink:href="#h" x="75.97" y="133.43"/><use xlink:href="#n" x="81.5" y="133.43"/></g><use xlink:href="#o" x="87.14" y="133.43" style="fill:#000;fill-opacity:1"/><g style="fill:#000;fill-opacity:1"><use xlink:href="#m" x="95.26" y="133.43"/><use xlink:href="#h" x="104.12" y="133.43"/><use xlink:href="#p" x="109.66" y="133.43"/><use xlink:href="#p" x="114.27" y="133.43"/><use xlink:href="#f" x="118.88" y="133.43"/><use xlink:href="#p" x="123.87" y="133.43"/></g></svg>