<svg xmlns="http://www.w3.org/2000/svg" xmlns:xlink="http://www.w3.org/1999/xlink" width="243.5" height="192.63" viewBox="0 0 182.63 144.47"><desc>A figure created by Phy-Hub, for The Handbook of Special Relativity</desc><defs><symbol id="d" overflow="visible"><path d="M4.69-3.77q.02-.06.03-.17-.01-.26-.28-.26c-.1 0-.38.06-.4.42-.2-.36-.54-.63-.95-.63C1.97-4.4.73-3 .73-1.58.73-.59 1.33 0 2.05 0c.6 0 1.06-.47 1.15-.58l.02.02Q2.9.74 2.89.75c-.05.1-.37 1.08-1.44 1.08-.18 0-.51-.02-.8-.11.3-.08.41-.34.41-.52 0-.15-.1-.34-.37-.34a.55.55 0 0 0-.53.58c0 .4.36.6 1.3.6 1.26 0 1.98-.77 2.13-1.37ZM3.4-1.28c-.07.26-.3.51-.52.7-.2.17-.52.36-.81.36-.5 0-.64-.51-.64-.92 0-.47.28-1.66.56-2.16.27-.48.69-.89 1.1-.89.67 0 .8.82.8.86q0 .08-.02.14Zm0 0" style="stroke:none"/></symbol><symbol id="e" overflow="visible"><path d="M5.88-2.05c0-.6-.2-1.14-.6-1.51-.26-.27-.66-.44-1.45-.64l-1.06-.27c-.9-.22-1.32-.6-1.32-1.22 0-.7.58-1.18 1.43-1.18.68 0 1.26.3 1.65.87.3.4.47.83.61 1.33h.42l-.12-2.58h-.36l-.4.6a2.6 2.6 0 0 0-1.82-.7c-1.3 0-2.19.83-2.19 2.08 0 1.1.55 1.63 2.02 2l.94.25c.73.2.8.2 1.01.36q.46.37.47.96 0 .58-.45 1c-.33.28-.66.39-1.2.39-.74 0-1.27-.22-1.74-.75a3.3 3.3 0 0 1-.78-1.7H.52L.55.07h.39l.45-.67c.66.54 1.22.75 2.1.75 1.45 0 2.38-.86 2.38-2.2m0 0" style="stroke:none"/></symbol><symbol id="f" overflow="visible"><path d="M4.64-2.33c0-1.36-.95-2.47-2.12-2.47C1.3-4.8.34-3.7.34-2.3.34-.95 1.3.16 2.5.16c1.19 0 2.14-1.11 2.14-2.49m-1.05 0C3.6-1 3.2-.28 2.5-.28c-.72 0-1.1-.72-1.1-2.03q0-2.04 1.12-2.05c.68 0 1.07.72 1.07 2.03m0 0" style="stroke:none"/></symbol><symbol id="g" overflow="visible"><path d="M5.92 0v-.42h-.25c-.54 0-.62-.1-.62-.74v-3.48l-1.88.1v.43h.5c.38 0 .44.08.44.5v1.23c0 .57-.06.9-.22 1.22-.2.44-.6.7-1.1.7-.29 0-.56-.1-.68-.3-.14-.2-.16-.3-.16-.85v-3.03l-1.75.1v.43h.4c.35 0 .42.08.42.5v2.16c0 .5.04.73.18.97.27.4.75.64 1.35.64.65 0 1.12-.29 1.56-.91v.81Zm0 0" style="stroke:none"/></symbol><symbol id="h" overflow="visible"><path d="M4.34-4c0-.47-.34-.8-.87-.8-.63 0-1.17.52-1.5 1.4v-1.24l-1.77.1v.43h.43c.35 0 .42.08.42.5v2.78c0 .4-.02.47-.66.47H.25V0h2.66v-.36h-.2c-.63 0-.74-.06-.74-.47v-.5c0-.75.14-1.5.39-2.08q.37-.83 1-.9c-.14.15-.17.25-.17.43 0 .33.22.57.54.57.36 0 .61-.28.61-.69m0 0" style="stroke:none"/></symbol><symbol id="i" overflow="visible"><path d="m4.25-1.31-.4-.16C3.54-.75 3.2-.45 2.7-.45c-.8 0-1.3-.74-1.3-1.9 0-1.21.49-2 1.22-2 .3 0 .56.12.56.29q0 .04-.06.1c-.16.2-.2.3-.2.48 0 .32.25.54.6.54s.6-.26.6-.67c0-.67-.66-1.19-1.55-1.19C1.26-4.8.34-3.73.34-2.25c0 1.42.85 2.4 2.08 2.4.9 0 1.4-.42 1.83-1.46m0 0" style="stroke:none"/></symbol><symbol id="j" overflow="visible"><path d="m4.64-1.27-.36-.18C3.88-.7 3.45-.4 2.8-.4c-.83 0-1.4-.6-1.4-1.86h3.24c0-1.48-.83-2.55-2.06-2.55C1.3-4.8.34-3.69.34-2.19c0 1.4.91 2.35 2.27 2.35q1.41 0 2.03-1.43M3.56-3.05c0 .3-.08.38-.4.38H1.42c0-1.06.53-1.69 1.14-1.69s1 .52 1 1.31m0 0" style="stroke:none"/></symbol><symbol id="k" overflow="visible"><path d="M6.45-4.42 6.31-7.2H.34L.2-4.42h.44q.1-.74.26-1.2.4-1.1 1.4-1.11.5-.02.48.36v5.43c0 .42-.08.47-.9.47h-.26V0h3.42v-.47h-.25c-.8 0-.89-.05-.89-.47v-5.43q-.01-.37.47-.36c.6 0 1.1.34 1.34.93.16.38.25.8.33 1.38Zm0 0" style="stroke:none"/></symbol><symbol id="l" overflow="visible"><path d="M5.4-.52q0-.1-.09-.1c-.14 0-.37.1-.42.1-.28 0-.39-.18-.39-.68v-2c0-1.28-.7-1.6-1.84-1.6C1.53-4.8.7-4.27.7-3.55c0 .38.24.61.58.61.31 0 .55-.2.55-.5 0-.19-.22-.48-.22-.54 0-.2.4-.38.89-.38.66 0 1.06.22 1.06 1.1v.38C1.25-2.47.44-2 .44-1.01.44-.32 1 .16 1.89.16c.69 0 1.3-.29 1.74-.8.15.52.4.7.87.7.44 0 .9-.28.9-.58M3.57-2c0 .6-.03.75-.19 1-.25.38-.71.63-1.14.63a.76.76 0 0 1-.78-.79c0-.7.4-1 2.11-1.3Zm0 0" style="stroke:none"/></symbol><symbol id="m" overflow="visible"><path d="M5.4-4.36c0-.33-.26-.58-.65-.58-.33 0-.5.11-.97.52-.4-.27-.73-.38-1.23-.38-1.2 0-1.96.66-1.96 1.66 0 .6.32 1.1.83 1.34-.67.14-.94.44-.94.99 0 .44.2.7.66.86Q.24.38.24 1c0 .66.76 1.03 2.09 1.03q2.5 0 2.5-1.58c0-.5-.22-.9-.6-1.04-.25-.11-.57-.14-1.26-.14H1.95c-.54 0-.57-.04-.7-.1q-.1-.09-.1-.26c0-.3.26-.43.93-.44.94-.03 1.1-.05 1.42-.19.6-.28.94-.8.94-1.45 0-.4-.1-.64-.38-.97q.24-.27.35-.25c.1 0 .12.51.54.51.25 0 .46-.21.46-.48m-1.88 1.2c0 .79-.38 1.25-1.02 1.25-.6 0-1-.47-1-1.22 0-.8.38-1.23 1.05-1.23.62 0 .97.44.97 1.2M4.14.72c0 .56-.66.89-1.76.89-.85 0-1.32-.25-1.32-.69 0-.33.17-.55.66-.8h.73c.83 0 .9 0 1.03.02.41.03.66.27.66.58m0 0" style="stroke:none"/></symbol><symbol id="n" overflow="visible"><path d="m3.73-1.58-.01-.23H3.3Q3.26-.46 2.52-.45c-.46 0-.58-.25-.58-1.05v-2.72H3.4v-.42H1.94v-1.99h-.4Q1.36-4.69.16-4.6v.4H1v2.54c0 .7.02.94.1 1.17q.27.65 1.15.66c.98 0 1.48-.8 1.48-1.74m0 0" style="stroke:none"/></symbol><symbol id="o" overflow="visible"><path d="M7.1-1.6H6.7c-.03.7-.16 1-.42 1-.25 0-.33-.18-.5-.87l-.16-.62C5.37-3.02 5-3.42 4.2-3.62c1.45-.2 2.13-.79 2.13-1.79 0-1.14-.95-1.8-2.64-1.8H.27v.48h.17c.81 0 .89.06.89.46v5.33c0 .42-.08.47-.9.47H.28V0h3.26v-.47h-.19c-.8 0-.89-.05-.89-.47v-2.54h.58c.9 0 1.4.36 1.52 1.54l.04.5C4.7-.3 5.1.16 5.88.16Q7.08.17 7.1-1.6m-2-3.8c0 1.06-.55 1.45-1.55 1.45h-1.1v-2.46c0-.3.05-.32.7-.32h.52c1 0 1.44.42 1.44 1.32m0 0" style="stroke:none"/></symbol><symbol id="p" overflow="visible"><path d="M4.2-1.4q0-.64-.42-1c-.25-.2-.44-.29-1.05-.41l-.5-.11c-.54-.13-.54-.13-.73-.22a.6.6 0 0 1-.34-.53c0-.4.37-.69.92-.69q.57 0 .97.4c.22.23.33.43.48.88h.36v-1.67h-.36l-.28.36c-.36-.28-.72-.4-1.22-.4-.87 0-1.45.57-1.45 1.45q0 .6.34.9c.24.22.47.31 1.06.46l.54.12c.78.19 1.06.4 1.06.78 0 .47-.4.8-1 .8-.83 0-1.44-.53-1.67-1.53H.5V.06h.35l.34-.4q.61.49 1.38.5C3.55.16 4.2-.45 4.2-1.4m0 0" style="stroke:none"/></symbol><symbol id="q" overflow="visible"><path d="M2.88 0v-.36h-.11c-.66 0-.72-.06-.72-.47v-3.81l-1.88.1v.43H.7c.37 0 .42.08.42.5v2.78c0 .4-.05.47-.69.47H.3V0Zm-.8-6.08a.5.5 0 0 0-.5-.5.5.5 0 0 0 0 1 .5.5 0 0 0 .5-.5m0 0" style="stroke:none"/></symbol><symbol id="r" overflow="visible"><path d="M5.9 0v-.36h-.13c-.63 0-.64-.06-.64-.47V-2.8c0-.72-.04-.89-.2-1.23a1.5 1.5 0 0 0-1.37-.77q-.91-.02-1.56.96v-.8l-1.73.1v.43h.36c.37 0 .43.08.43.5v2.78c0 .4-.01.47-.65.47H.27V0H2.8v-.36h-.14C2-.36 2-.42 2-.83v-1.44c0-.48.06-.93.17-1.15.2-.46.66-.77 1.1-.77.25 0 .54.16.7.35q.21.3.22 1v2.01c0 .4-.02.47-.66.47H3.4V0Zm0 0" style="stroke:none"/></symbol><symbol id="s" overflow="visible"><path d="M5.27-4.28v-.36h-2v.36h.14q.54-.01.54.34 0 .18-.1.42L2.95-1.2 1.8-3.84q-.04-.12-.05-.22c0-.17.14-.22.55-.22h.14v-.36H.08v.36h.14c.37 0 .45.08.6.42L2.52.16h.35l1.42-3.5c.26-.66.45-.94.83-.94Zm0 0" style="stroke:none"/></symbol><symbol id="t" overflow="visible"><path d="M5.3-4.28v-.36h-2v.36h.15c.4 0 .55.1.55.36q0 .15-.1.4l-.92 2.25L1.9-3.83q-.05-.14-.06-.2c0-.19.12-.25.47-.25h.2v-.36H.13v.36h.14c.3 0 .46.14.65.53L2.55-.06l-.17.34c-.38.75-.83 1.28-1.16 1.28q-.14 0-.16-.1c0-.07.08-.24.08-.35C1.14.86.92.67.63.67c-.35 0-.6.25-.6.61 0 .44.4.77.9.77q.8.01 1.38-.8c.31-.4.5-.81.96-1.92l1.12-2.81c.25-.61.4-.8.78-.8Zm0 0" style="stroke:none"/></symbol><symbol id="u" overflow="visible"><path d="M7.6-4.28v-.36H5.73v.36h.17q.5-.02.49.36c0 .1-.04.25-.08.36l-.85 2.28-.98-2.56q-.03-.1-.03-.22c0-.17.1-.22.42-.22h.23v-.36H2.86v.36h.17c.31 0 .42.08.52.36l.1.26-.88 2.33-.97-2.51q-.04-.12-.05-.22c0-.17.1-.22.4-.22h.2v-.36H.14v.36h.18c.28 0 .37.08.51.48L2.34.16h.35L3.88-3 5.09.16h.32l1.39-3.7c.22-.57.33-.74.68-.74Zm0 0" style="stroke:none"/></symbol><symbol id="v" overflow="visible"><path d="M2.86 0v-.36h-.17c-.64 0-.66-.06-.66-.47v-6.51l-1.84.1v.43h.48c.36 0 .42.08.42.5v5.48c0 .4 0 .47-.64.47H.28V0Zm0 0" style="stroke:none"/></symbol><clipPath id="a"><path d="M0 0h182.63v144.47H0Zm0 0"/></clipPath><clipPath id="b"><path d="M12 113h170.63v7H12Zm0 0"/></clipPath><clipPath id="c"><path d="M11 113h171.63v2H11Zm0 0"/></clipPath></defs><g clip-path="url(#a)"><path d="M0 144.47h182.63V0H0Zm0 0" style="stroke:none;fill-rule:nonzero;fill:#ffe4c8;fill-opacity:1"/></g><g clip-path="url(#b)"><path d="M12.15 119.45v-5.66h170.08v5.66Zm0 0" style="stroke:none;fill-rule:nonzero;fill:#e5e5e5;fill-opacity:1"/></g><g clip-path="url(#c)"><path d="M-42.52 0h170.08" style="fill:none;stroke-width:.79701;stroke-linecap:butt;stroke-linejoin:miter;stroke:#000;stroke-opacity:1;stroke-miterlimit:10" transform="matrix(1 0 0 -1 54.67 113.78)"/></g><path d="M0 0v113.39h85.04V-.01Zm0 0" style="fill:none;stroke-width:.79701;stroke-linecap:butt;stroke-linejoin:miter;stroke:#000;stroke-opacity:1;stroke-miterlimit:10" transform="matrix(1 0 0 -1 54.67 113.78)"/><path d="M-42.52 99.21v-55.9" style="fill:none;stroke-width:.79701;stroke-linecap:butt;stroke-linejoin:miter;stroke:#00f;stroke-opacity:1;stroke-miterlimit:10" transform="matrix(1 0 0 -1 54.67 113.78)"/><path d="M-2.55 3.11C-2.08 1.24-1.05.36 0 .01c-1.04-.37-2.08-1.26-2.55-3.12" style="fill:none;stroke-width:.79701;stroke-linecap:round;stroke-linejoin:round;stroke:#00f;stroke-opacity:1;stroke-miterlimit:10" transform="matrix(0 1 1 0 12.15 70.87)"/><use xlink:href="#d" x="3.32" y="44.09" style="fill:#00f;fill-opacity:1"/><path d="M1.5 70.87a1.5 1.5 0 1 1-3 0 1.5 1.5 0 0 1 3 0Zm0 0" style="fill-rule:nonzero;fill:#000;fill-opacity:1;stroke-width:.3985;stroke-linecap:butt;stroke-linejoin:miter;stroke:#000;stroke-opacity:1;stroke-miterlimit:10" transform="matrix(1 0 0 -1 54.67 113.78)"/><g style="fill:#000;fill-opacity:1"><use xlink:href="#e" x="19.98" y="46.58"/><use xlink:href="#f" x="26.25" y="46.58"/><use xlink:href="#g" x="31.23" y="46.58"/><use xlink:href="#h" x="37.32" y="46.58"/><use xlink:href="#i" x="41.74" y="46.58"/><use xlink:href="#j" x="46.17" y="46.58"/></g><path d="M86.54 70.87a1.5 1.5 0 1 1-3 0 1.5 1.5 0 0 1 3 0Zm0 0" style="fill-rule:nonzero;fill:#000;fill-opacity:1;stroke-width:.3985;stroke-linecap:butt;stroke-linejoin:miter;stroke:#000;stroke-opacity:1;stroke-miterlimit:10" transform="matrix(1 0 0 -1 54.67 113.78)"/><use xlink:href="#k" x="143.23" y="45.57" style="fill:#000;fill-opacity:1"/><g style="fill:#000;fill-opacity:1"><use xlink:href="#l" x="149.67" y="45.57"/><use xlink:href="#h" x="155.21" y="45.57"/></g><use xlink:href="#m" x="159.59" y="45.57" style="fill:#000;fill-opacity:1"/><use xlink:href="#j" x="164.89" y="45.57" style="fill:#000;fill-opacity:1"/><use xlink:href="#n" x="169.67" y="45.57" style="fill:#000;fill-opacity:1"/><path d="M0 70.87c42.52 0 75.47-21.97 84.38-27.9" style="fill:none;stroke-width:.79701;stroke-linecap:butt;stroke-linejoin:miter;stroke:red;stroke-opacity:1;stroke-miterlimit:10" transform="matrix(1 0 0 -1 54.67 113.78)"/><path d="M-2.55 3.11C-2.08 1.24-1.05.36 0 0c-1.05-.36-2.08-1.24-2.55-3.11" style="fill:none;stroke-width:.79701;stroke-linecap:round;stroke-linejoin:round;stroke:red;stroke-opacity:1;stroke-miterlimit:10" transform="rotate(213.69 80.44 14.42)scale(-.99996 .99996)"/><path d="M0 70.87h85.04" style="fill:none;stroke-width:.3985;stroke-linecap:butt;stroke-linejoin:miter;stroke:gray;stroke-opacity:1;stroke-dasharray:2.98883,2.98883;stroke-miterlimit:10" transform="matrix(1 0 0 -1 54.67 113.78)"/><path d="M86.54 42.52a1.5 1.5 0 1 1-3 0 1.5 1.5 0 0 1 3 0Zm0 0" style="fill-rule:nonzero;fill:red;fill-opacity:1;stroke-width:.3985;stroke-linecap:butt;stroke-linejoin:miter;stroke:red;stroke-opacity:1;stroke-miterlimit:10" transform="matrix(1 0 0 -1 54.67 113.78)"/><use xlink:href="#o" x="44.98" y="139.1" style="fill:#000;fill-opacity:1"/><g style="fill:#000;fill-opacity:1"><use xlink:href="#j" x="52.33" y="139.1"/><use xlink:href="#p" x="57.31" y="139.1"/></g><g style="fill:#000;fill-opacity:1"><use xlink:href="#n" x="61.82" y="139.1"/><use xlink:href="#q" x="65.7" y="139.1"/><use xlink:href="#r" x="68.83" y="139.1"/><use xlink:href="#m" x="74.92" y="139.1"/></g><g style="fill:#000;fill-opacity:1"><use xlink:href="#q" x="83.04" y="139.1"/><use xlink:href="#r" x="86.18" y="139.1"/></g><use xlink:href="#m" x="95.04" y="139.1" style="fill:#000;fill-opacity:1"/><use xlink:href="#h" x="100.63" y="139.1" style="fill:#000;fill-opacity:1"/><use xlink:href="#l" x="105.01" y="139.1" style="fill:#000;fill-opacity:1"/><g style="fill:#000;fill-opacity:1"><use xlink:href="#s" x="110.2" y="139.1"/><use xlink:href="#q" x="115.55" y="139.1"/><use xlink:href="#n" x="118.69" y="139.1"/><use xlink:href="#t" x="122.56" y="139.1"/></g><use xlink:href="#u" x="130.68" y="139.1" style="fill:#000;fill-opacity:1"/><g style="fill:#000;fill-opacity:1"><use xlink:href="#j" x="138.13" y="139.1"/><use xlink:href="#v" x="143.11" y="139.1"/><use xlink:href="#v" x="146.25" y="139.1"/></g></svg>