<svg xmlns="http://www.w3.org/2000/svg" xmlns:xlink="http://www.w3.org/1999/xlink" width="284.44" height="204.43" viewBox="0 0 213.33 153.32"><desc>A figure created by Phy-Hub, for The Handbook of Special Relativity</desc><defs><symbol id="b" overflow="visible"><path d="M7.92-6.73v-.47H5.08v.47c.94.04 1.14.32 1.14 1.7v3.12L2.25-7.2H.19v.48h.25c.51 0 .73.07.92.32v4.25C1.36-.8 1.16-.52.2-.46V0h2.85v-.47C2.09-.52 1.89-.8 1.89-2.16v-3.7l4.45 6h.43v-5.17c0-1.38.18-1.66 1.15-1.7m0 0" style="stroke:none"/></symbol><symbol id="c" overflow="visible"><path d="m4.64-1.27-.36-.18C3.88-.7 3.45-.4 2.8-.4c-.83 0-1.4-.6-1.4-1.86h3.24c0-1.48-.83-2.55-2.06-2.55C1.3-4.8.34-3.69.34-2.19c0 1.4.91 2.35 2.27 2.35q1.41 0 2.03-1.43M3.56-3.05c0 .3-.08.38-.4.38H1.42c0-1.06.53-1.69 1.14-1.69s1 .52 1 1.31m0 0" style="stroke:none"/></symbol><symbol id="d" overflow="visible"><path d="M5.52 0v-.42h-.18c-.53 0-.62-.11-.62-.74v-6.18l-1.95.1v.43h.59c.36 0 .42.08.42.5v2.25q-.53-.75-1.37-.74C1.28-4.8.42-3.7.42-2.27.42-.86 1.25.16 2.41.16c.64 0 1.06-.29 1.37-.88v.78ZM3.78-2.3c0 1.16-.47 1.9-1.17 1.9s-1.14-.65-1.14-1.76q0-.86.2-1.37c.16-.44.53-.72.94-.72s.8.3.98.75q.18.46.2 1.2m0 0" style="stroke:none"/></symbol><symbol id="e" overflow="visible"><path d="m6.66-2.47-.47-.08C5.9-1 5.1-.3 3.94-.3c-1.47 0-2.17-1.03-2.17-3.17 0-2.18.67-3.4 2.04-3.4.7 0 1.33.36 1.7 1 .2.33.35.72.57 1.49h.44v-2.88h-.54l-.39.6c-.7-.53-1.09-.67-1.76-.67C2-7.34.45-5.61.45-3.54c0 2.15 1.4 3.7 3.36 3.7 1.6 0 2.63-.94 2.85-2.63m0 0" style="stroke:none"/></symbol><symbol id="f" overflow="visible"><path d="M4.64-2.33c0-1.36-.95-2.47-2.12-2.47C1.3-4.8.34-3.7.34-2.3.34-.95 1.3.16 2.5.16c1.19 0 2.14-1.11 2.14-2.49m-1.05 0C3.6-1 3.2-.28 2.5-.28c-.72 0-1.1-.72-1.1-2.03q0-2.04 1.12-2.05c.68 0 1.07.72 1.07 2.03m0 0" style="stroke:none"/></symbol><symbol id="g" overflow="visible"><path d="M5.9 0v-.36h-.13c-.63 0-.64-.06-.64-.47V-2.8c0-.72-.04-.89-.2-1.23a1.5 1.5 0 0 0-1.37-.77q-.91-.02-1.56.96v-.8l-1.73.1v.43h.36c.37 0 .43.08.43.5v2.78c0 .4-.01.47-.65.47H.27V0H2.8v-.36h-.14C2-.36 2-.42 2-.83v-1.44c0-.48.06-.93.17-1.15.2-.46.66-.77 1.1-.77.25 0 .54.16.7.35q.21.3.22 1v2.01c0 .4-.02.47-.66.47H3.4V0Zm0 0" style="stroke:none"/></symbol><symbol id="h" overflow="visible"><path d="m4.25-1.31-.4-.16C3.54-.75 3.2-.45 2.7-.45c-.8 0-1.3-.74-1.3-1.9 0-1.21.49-2 1.22-2 .3 0 .56.12.56.29q0 .04-.06.1c-.16.2-.2.3-.2.48 0 .32.25.54.6.54s.6-.26.6-.67c0-.67-.66-1.19-1.55-1.19C1.26-4.8.34-3.73.34-2.25c0 1.42.85 2.4 2.08 2.4.9 0 1.4-.42 1.83-1.46m0 0" style="stroke:none"/></symbol><symbol id="i" overflow="visible"><path d="M5.33-2.34c0-1.38-.86-2.46-1.95-2.46-.61 0-1.02.27-1.38.86v-.7l-1.72.1v.43h.36c.36 0 .42.08.42.5v4.8c0 .39 0 .47-.64.47H.28v.36h2.6v-.36h-.15c-.65 0-.73-.08-.73-.47V-.66c.33.58.72.82 1.31.82 1.16 0 2.02-1.08 2.02-2.5m-1.05-.07c0 1.3-.4 2.02-1.1 2.02S2-1.12 2-2.27c0-1.25.44-1.98 1.2-1.98.7 0 1.08.69 1.08 1.84m0 0" style="stroke:none"/></symbol><symbol id="j" overflow="visible"><path d="m3.73-1.58-.01-.23H3.3Q3.26-.46 2.52-.45c-.46 0-.58-.25-.58-1.05v-2.72H3.4v-.42H1.94v-1.99h-.4Q1.36-4.69.16-4.6v.4H1v2.54c0 .7.02.94.1 1.17q.27.65 1.15.66c.98 0 1.48-.8 1.48-1.74m0 0" style="stroke:none"/></symbol><symbol id="k" overflow="visible"><path d="M4.2-1.4q0-.64-.42-1c-.25-.2-.44-.29-1.05-.41l-.5-.11c-.54-.13-.54-.13-.73-.22a.6.6 0 0 1-.34-.53c0-.4.37-.69.92-.69q.57 0 .97.4c.22.23.33.43.48.88h.36v-1.67h-.36l-.28.36c-.36-.28-.72-.4-1.22-.4-.87 0-1.45.57-1.45 1.45q0 .6.34.9c.24.22.47.31 1.06.46l.54.12c.78.19 1.06.4 1.06.78 0 .47-.4.8-1 .8-.83 0-1.44-.53-1.67-1.53H.5V.06h.35l.34-.4q.61.49 1.38.5C3.55.16 4.2-.45 4.2-1.4m0 0" style="stroke:none"/></symbol><symbol id="l" overflow="visible"><path d="M1.98-.48a.63.63 0 0 0-.62-.63.63.63 0 0 0-.63.63.63.63 0 0 0 1.25 0m0 0" style="stroke:none"/></symbol><symbol id="m" overflow="visible"><path d="M7.1-1.6H6.7c-.03.7-.16 1-.42 1-.25 0-.33-.18-.5-.87l-.16-.62C5.37-3.02 5-3.42 4.2-3.62c1.45-.2 2.13-.79 2.13-1.79 0-1.14-.95-1.8-2.64-1.8H.27v.48h.17c.81 0 .89.06.89.46v5.33c0 .42-.08.47-.9.47H.28V0h3.26v-.47h-.19c-.8 0-.89-.05-.89-.47v-2.54h.58c.9 0 1.4.36 1.52 1.54l.04.5C4.7-.3 5.1.16 5.88.16Q7.08.17 7.1-1.6m-2-3.8c0 1.06-.55 1.45-1.55 1.45h-1.1v-2.46c0-.3.05-.32.7-.32h.52c1 0 1.44.42 1.44 1.32m0 0" style="stroke:none"/></symbol><symbol id="n" overflow="visible"><path d="M2.86 0v-.36h-.17c-.64 0-.66-.06-.66-.47v-6.51l-1.84.1v.43h.48c.36 0 .42.08.42.5v5.48c0 .4 0 .47-.64.47H.28V0Zm0 0" style="stroke:none"/></symbol><symbol id="o" overflow="visible"><path d="M5.4-.52q0-.1-.09-.1c-.14 0-.37.1-.42.1-.28 0-.39-.18-.39-.68v-2c0-1.28-.7-1.6-1.84-1.6C1.53-4.8.7-4.27.7-3.55c0 .38.24.61.58.61.31 0 .55-.2.55-.5 0-.19-.22-.48-.22-.54 0-.2.4-.38.89-.38.66 0 1.06.22 1.06 1.1v.38C1.25-2.47.44-2 .44-1.01.44-.32 1 .16 1.89.16c.69 0 1.3-.29 1.74-.8.15.52.4.7.87.7.44 0 .9-.28.9-.58M3.57-2c0 .6-.03.75-.19 1-.25.38-.71.63-1.14.63a.76.76 0 0 1-.78-.79c0-.7.4-1 2.11-1.3Zm0 0" style="stroke:none"/></symbol><symbol id="p" overflow="visible"><path d="M2.88 0v-.36h-.11c-.66 0-.72-.06-.72-.47v-3.81l-1.88.1v.43H.7c.37 0 .42.08.42.5v2.78c0 .4-.05.47-.69.47H.3V0Zm-.8-6.08a.5.5 0 0 0-.5-.5.5.5 0 0 0 0 1 .5.5 0 0 0 .5-.5m0 0" style="stroke:none"/></symbol><symbol id="q" overflow="visible"><path d="M5.27-4.28v-.36h-2v.36h.14q.54-.01.54.34 0 .18-.1.42L2.95-1.2 1.8-3.84q-.04-.12-.05-.22c0-.17.14-.22.55-.22h.14v-.36H.08v.36h.14c.37 0 .45.08.6.42L2.52.16h.35l1.42-3.5c.26-.66.45-.94.83-.94Zm0 0" style="stroke:none"/></symbol><symbol id="r" overflow="visible"><path d="M5.3-4.28v-.36h-2v.36h.15c.4 0 .55.1.55.36q0 .15-.1.4l-.92 2.25L1.9-3.83q-.05-.14-.06-.2c0-.19.12-.25.47-.25h.2v-.36H.13v.36h.14c.3 0 .46.14.65.53L2.55-.06l-.17.34c-.38.75-.83 1.28-1.16 1.28q-.14 0-.16-.1c0-.07.08-.24.08-.35C1.14.86.92.67.63.67c-.35 0-.6.25-.6.61 0 .44.4.77.9.77q.8.01 1.38-.8c.31-.4.5-.81.96-1.92l1.12-2.81c.25-.61.4-.8.78-.8Zm0 0" style="stroke:none"/></symbol><symbol id="t" overflow="visible"><path d="M5.88-2.05c0-.6-.2-1.14-.6-1.51-.26-.27-.66-.44-1.45-.64l-1.06-.27c-.9-.22-1.32-.6-1.32-1.22 0-.7.58-1.18 1.43-1.18.68 0 1.26.3 1.65.87.3.4.47.83.61 1.33h.42l-.12-2.58h-.36l-.4.6a2.6 2.6 0 0 0-1.82-.7c-1.3 0-2.19.83-2.19 2.08 0 1.1.55 1.63 2.02 2l.94.25c.73.2.8.2 1.01.36q.46.37.47.96 0 .58-.45 1c-.33.28-.66.39-1.2.39-.74 0-1.27-.22-1.74-.75a3.3 3.3 0 0 1-.78-1.7H.52L.55.07h.39l.45-.67c.66.54 1.22.75 2.1.75 1.45 0 2.38-.86 2.38-2.2m0 0" style="stroke:none"/></symbol><clipPath id="a"><path d="M0 0h213.33v153.32H0Zm0 0"/></clipPath><clipPath id="s"><path d="M174 85h39.33v16H174Zm0 0"/></clipPath></defs><g clip-path="url(#a)"><path d="M0 153.32h213.33V0H0Zm0 0" style="stroke:none;fill-rule:nonzero;fill:#ffe4c8;fill-opacity:1"/></g><path d="M147.02 0H70.37a4 4 0 0 0-3.99 3.98v7.35c0 2.2 1.79 3.98 4 3.98h76.64c2.2 0 3.99-1.78 3.99-3.98V3.98c0-2.2-1.79-3.98-3.99-3.98m0 0" style="stroke:none;fill-rule:nonzero;fill:#fcc;fill-opacity:1"/><use xlink:href="#b" x="69.37" y="10.31" style="fill:#000;fill-opacity:1"/><g style="fill:#000;fill-opacity:1"><use xlink:href="#c" x="77.19" y="10.31"/><use xlink:href="#c" x="82.17" y="10.31"/><use xlink:href="#d" x="87.16" y="10.31"/><use xlink:href="#c" x="92.87" y="10.31"/><use xlink:href="#d" x="97.86" y="10.31"/></g><g style="fill:#000;fill-opacity:1"><use xlink:href="#e" x="106.34" y="10.31"/><use xlink:href="#f" x="113.54" y="10.31"/><use xlink:href="#g" x="118.52" y="10.31"/><use xlink:href="#h" x="124.61" y="10.31"/><use xlink:href="#c" x="129.03" y="10.31"/><use xlink:href="#i" x="134.01" y="10.31"/></g><g style="fill:#000;fill-opacity:1"><use xlink:href="#j" x="139.53" y="10.31"/><use xlink:href="#k" x="143.41" y="10.31"/></g><path d="M111.86 32.47h-6.32a4 4 0 0 0-3.99 3.98v-.9c0 2.2 1.79 3.99 3.99 3.99h6.32c2.2 0 3.98-1.79 3.98-3.99v.9c0-2.2-1.79-3.98-3.98-3.98m0 0" style="stroke:none;fill-rule:nonzero;fill:#ccf;fill-opacity:1"/><g style="fill:#000;fill-opacity:1"><use xlink:href="#l" x="104.54" y="36.55"/><use xlink:href="#l" x="107.31" y="36.55"/><use xlink:href="#l" x="110.08" y="36.55"/></g><path d="M0-7.86V-24.6" style="fill:none;stroke-width:.3985;stroke-linecap:butt;stroke-linejoin:miter;stroke:#000;stroke-opacity:1;stroke-miterlimit:10" transform="matrix(1 0 0 -1 108.7 7.66)"/><path d="M130.56 56.67H86.83a4 4 0 0 0-3.99 3.99v7.38c0 2.2 1.78 3.99 3.99 3.99h43.73c2.2 0 4-1.79 4-4v-7.37c0-2.2-1.8-3.99-4-3.99m0 0" style="stroke:none;fill-rule:nonzero;fill:#fcc;fill-opacity:1"/><use xlink:href="#m" x="85.83" y="66.98" style="fill:#000;fill-opacity:1"/><g style="fill:#000;fill-opacity:1"><use xlink:href="#c" x="93.17" y="66.98"/><use xlink:href="#n" x="98.15" y="66.98"/><use xlink:href="#o" x="101.29" y="66.98"/><use xlink:href="#j" x="106.83" y="66.98"/><use xlink:href="#p" x="110.71" y="66.98"/><use xlink:href="#q" x="113.85" y="66.98"/><use xlink:href="#p" x="119.2" y="66.98"/><use xlink:href="#j" x="122.33" y="66.98"/><use xlink:href="#r" x="126.21" y="66.98"/></g><path d="M0-32.08v-16.74" style="fill:none;stroke-width:.3985;stroke-linecap:butt;stroke-linejoin:miter;stroke:#000;stroke-opacity:1;stroke-miterlimit:10" transform="matrix(1 0 0 -1 108.7 7.66)"/><path d="M43.33 86.05H3.98A4 4 0 0 0 0 90.03v5.33c0 2.2 1.78 3.99 3.98 3.99h39.35c2.2 0 3.98-1.79 3.98-3.99v-5.33c0-2.2-1.78-3.98-3.98-3.98m0 0" style="stroke:none;fill-rule:nonzero;fill:#fcc;fill-opacity:1"/><g style="fill:#000;fill-opacity:1"><use xlink:href="#e" x="2.99" y="96.36"/><use xlink:href="#n" x="10.18" y="96.36"/><use xlink:href="#o" x="13.32" y="96.36"/><use xlink:href="#k" x="18.86" y="96.36"/><use xlink:href="#k" x="23.47" y="96.36"/><use xlink:href="#p" x="28.08" y="96.36"/><use xlink:href="#h" x="31.22" y="96.36"/><use xlink:href="#o" x="35.65" y="96.36"/><use xlink:href="#n" x="41.19" y="96.36"/></g><path d="M0-64.57C0-92.91-85.04-49.84-85.04-78.2" style="fill:none;stroke-width:.3985;stroke-linecap:butt;stroke-linejoin:miter;stroke:#000;stroke-opacity:1;stroke-miterlimit:10" transform="matrix(1 0 0 -1 108.7 7.66)"/><path d="M26.81 117.5H20.5a4 4 0 0 0-3.99 4v-.9c0 2.2 1.79 3.98 3.99 3.98h6.31c2.2 0 4-1.79 4-3.99v.9c0-2.2-1.8-3.98-4-3.98m0 0" style="stroke:none;fill-rule:nonzero;fill:#ccf;fill-opacity:1"/><g style="fill:#000;fill-opacity:1"><use xlink:href="#l" x="19.5" y="121.59"/><use xlink:href="#l" x="22.27" y="121.59"/><use xlink:href="#l" x="25.04" y="121.59"/></g><path d="M-85.04-91.9v-17.75" style="fill:none;stroke-width:.3985;stroke-linecap:butt;stroke-linejoin:miter;stroke:#000;stroke-opacity:1;stroke-miterlimit:10" transform="matrix(1 0 0 -1 108.7 7.66)"/><path d="M26.81 145.86H20.5a4 4 0 0 0-3.99 3.98v-.9c0 2.2 1.79 3.99 3.99 3.99h6.31c2.2 0 4-1.79 4-4v.91c0-2.2-1.8-3.98-4-3.98m0 0" style="stroke:none;fill-rule:nonzero;fill:#ccf;fill-opacity:1"/><g style="fill:#000;fill-opacity:1"><use xlink:href="#l" x="19.5" y="149.93"/><use xlink:href="#l" x="22.27" y="149.93"/><use xlink:href="#l" x="25.04" y="149.93"/></g><path d="M-85.04-117.12V-138" style="fill:none;stroke-width:.3985;stroke-linecap:butt;stroke-linejoin:miter;stroke:#000;stroke-opacity:1;stroke-miterlimit:10" transform="matrix(1 0 0 -1 108.7 7.66)"/><g clip-path="url(#s)"><path d="M209.35 85.04h-31.22a4 4 0 0 0-3.99 3.98v7.35c0 2.2 1.79 3.98 3.99 3.98h31.22c2.2 0 3.98-1.78 3.98-3.98v-7.35c0-2.2-1.78-3.98-3.98-3.98m0 0" style="stroke:none;fill-rule:nonzero;fill:#fcc;fill-opacity:1"/></g><g style="fill:#000;fill-opacity:1"><use xlink:href="#t" x="177.13" y="95.35"/><use xlink:href="#i" x="183.4" y="95.35"/><use xlink:href="#c" x="189.12" y="95.35"/><use xlink:href="#h" x="194.1" y="95.35"/><use xlink:href="#p" x="198.53" y="95.35"/><use xlink:href="#o" x="201.66" y="95.35"/><use xlink:href="#n" x="207.2" y="95.35"/></g><path d="M0-64.57c0-28.34 85.04 15.73 85.04-12.61" style="fill:none;stroke-width:.3985;stroke-linecap:butt;stroke-linejoin:miter;stroke:#000;stroke-opacity:1;stroke-miterlimit:10" transform="matrix(1 0 0 -1 108.7 7.66)"/><path d="M196.9 117.5h-6.32a4 4 0 0 0-3.99 4v-.9c0 2.2 1.79 3.98 3.99 3.98h6.31c2.2 0 3.99-1.79 3.99-3.99v.9c0-2.2-1.79-3.98-3.99-3.98m0 0" style="stroke:none;fill-rule:nonzero;fill:#ccf;fill-opacity:1"/><g style="fill:#000;fill-opacity:1"><use xlink:href="#l" x="189.58" y="121.59"/><use xlink:href="#l" x="192.35" y="121.59"/><use xlink:href="#l" x="195.12" y="121.59"/></g><path d="M85.04-92.9v-16.75" style="fill:none;stroke-width:.3985;stroke-linecap:butt;stroke-linejoin:miter;stroke:#000;stroke-opacity:1;stroke-miterlimit:10" transform="matrix(1 0 0 -1 108.7 7.66)"/><path d="M196.9 145.86h-6.32a4 4 0 0 0-3.99 3.98v-.9c0 2.2 1.79 3.99 3.99 3.99h6.31c2.2 0 3.99-1.79 3.99-4v.91c0-2.2-1.79-3.98-3.99-3.98m0 0" style="stroke:none;fill-rule:nonzero;fill:#ccf;fill-opacity:1"/><g style="fill:#000;fill-opacity:1"><use xlink:href="#l" x="189.58" y="149.93"/><use xlink:href="#l" x="192.35" y="149.93"/><use xlink:href="#l" x="195.12" y="149.93"/></g><path d="M85.04-117.12V-138" style="fill:none;stroke-width:.3985;stroke-linecap:butt;stroke-linejoin:miter;stroke:#000;stroke-opacity:1;stroke-miterlimit:10" transform="matrix(1 0 0 -1 108.7 7.66)"/></svg>