<svg xmlns="http://www.w3.org/2000/svg" xmlns:xlink="http://www.w3.org/1999/xlink" width="311.79" height="222.58" viewBox="0 0 233.84 166.93"><desc>A figure created by Phy-Hub, for The Handbook of Special Relativity</desc><defs><symbol id="a" overflow="visible"><path d="M5.88-2.05c0-.6-.2-1.14-.6-1.51-.26-.27-.66-.44-1.45-.64l-1.06-.27c-.9-.22-1.32-.6-1.32-1.22 0-.7.58-1.18 1.43-1.18.68 0 1.26.3 1.65.87.3.4.47.83.61 1.33h.42l-.12-2.58h-.36l-.4.6a2.6 2.6 0 0 0-1.82-.7c-1.3 0-2.19.83-2.19 2.08 0 1.1.55 1.63 2.02 2l.94.25c.73.2.8.2 1.01.36q.46.37.47.96 0 .58-.45 1c-.33.28-.66.39-1.2.39-.74 0-1.27-.22-1.74-.75a3.3 3.3 0 0 1-.78-1.7H.52L.55.07h.39l.45-.67c.66.54 1.22.75 2.1.75 1.45 0 2.38-.86 2.38-2.2m0 0" style="stroke:none"/></symbol><symbol id="b" overflow="visible"><path d="M4.64-2.33c0-1.36-.95-2.47-2.12-2.47C1.3-4.8.34-3.7.34-2.3.34-.95 1.3.16 2.5.16c1.19 0 2.14-1.11 2.14-2.49m-1.05 0C3.6-1 3.2-.28 2.5-.28c-.72 0-1.1-.72-1.1-2.03q0-2.04 1.12-2.05c.68 0 1.07.72 1.07 2.03m0 0" style="stroke:none"/></symbol><symbol id="c" overflow="visible"><path d="M5.92 0v-.42h-.25c-.54 0-.62-.1-.62-.74v-3.48l-1.88.1v.43h.5c.38 0 .44.08.44.5v1.23c0 .57-.06.9-.22 1.22-.2.44-.6.7-1.1.7-.29 0-.56-.1-.68-.3-.14-.2-.16-.3-.16-.85v-3.03l-1.75.1v.43h.4c.35 0 .42.08.42.5v2.16c0 .5.04.73.18.97.27.4.75.64 1.35.64.65 0 1.12-.29 1.56-.91v.81Zm0 0" style="stroke:none"/></symbol><symbol id="d" overflow="visible"><path d="M4.34-4c0-.47-.34-.8-.87-.8-.63 0-1.17.52-1.5 1.4v-1.24l-1.77.1v.43h.43c.35 0 .42.08.42.5v2.78c0 .4-.02.47-.66.47H.25V0h2.66v-.36h-.2c-.63 0-.74-.06-.74-.47v-.5c0-.75.14-1.5.39-2.08q.37-.83 1-.9c-.14.15-.17.25-.17.43 0 .33.22.57.54.57.36 0 .61-.28.61-.69m0 0" style="stroke:none"/></symbol><symbol id="e" overflow="visible"><path d="m4.25-1.31-.4-.16C3.54-.75 3.2-.45 2.7-.45c-.8 0-1.3-.74-1.3-1.9 0-1.21.49-2 1.22-2 .3 0 .56.12.56.29q0 .04-.06.1c-.16.2-.2.3-.2.48 0 .32.25.54.6.54s.6-.26.6-.67c0-.67-.66-1.19-1.55-1.19C1.26-4.8.34-3.73.34-2.25c0 1.42.85 2.4 2.08 2.4.9 0 1.4-.42 1.83-1.46m0 0" style="stroke:none"/></symbol><symbol id="f" overflow="visible"><path d="m4.64-1.27-.36-.18C3.88-.7 3.45-.4 2.8-.4c-.83 0-1.4-.6-1.4-1.86h3.24c0-1.48-.83-2.55-2.06-2.55C1.3-4.8.34-3.69.34-2.19c0 1.4.91 2.35 2.27 2.35q1.41 0 2.03-1.43M3.56-3.05c0 .3-.08.38-.4.38H1.42c0-1.06.53-1.69 1.14-1.69s1 .52 1 1.31m0 0" style="stroke:none"/></symbol><symbol id="g" overflow="visible"><path d="M5.4-.52q0-.1-.09-.1c-.14 0-.37.1-.42.1-.28 0-.39-.18-.39-.68v-2c0-1.28-.7-1.6-1.84-1.6C1.53-4.8.7-4.27.7-3.55c0 .38.24.61.58.61.31 0 .55-.2.55-.5 0-.19-.22-.48-.22-.54 0-.2.4-.38.89-.38.66 0 1.06.22 1.06 1.1v.38C1.25-2.47.44-2 .44-1.01.44-.32 1 .16 1.89.16c.69 0 1.3-.29 1.74-.8.15.52.4.7.87.7.44 0 .9-.28.9-.58M3.57-2c0 .6-.03.75-.19 1-.25.38-.71.63-1.14.63a.76.76 0 0 1-.78-.79c0-.7.4-1 2.11-1.3Zm0 0" style="stroke:none"/></symbol><symbol id="h" overflow="visible"><path d="m3.73-1.58-.01-.23H3.3Q3.26-.46 2.52-.45c-.46 0-.58-.25-.58-1.05v-2.72H3.4v-.42H1.94v-1.99h-.4Q1.36-4.69.16-4.6v.4H1v2.54c0 .7.02.94.1 1.17q.27.65 1.15.66c.98 0 1.48-.8 1.48-1.74m0 0" style="stroke:none"/></symbol><symbol id="l" overflow="visible"><path d="M6.45-4.42 6.31-7.2H.34L.2-4.42h.44q.1-.74.26-1.2.4-1.1 1.4-1.11.5-.02.48.36v5.43c0 .42-.08.47-.9.47h-.26V0h3.42v-.47h-.25c-.8 0-.89-.05-.89-.47v-5.43q-.01-.37.47-.36c.6 0 1.1.34 1.34.93.16.38.25.8.33 1.38Zm0 0" style="stroke:none"/></symbol><symbol id="m" overflow="visible"><path d="M5.4-4.36c0-.33-.26-.58-.65-.58-.33 0-.5.11-.97.52-.4-.27-.73-.38-1.23-.38-1.2 0-1.96.66-1.96 1.66 0 .6.32 1.1.83 1.34-.67.14-.94.44-.94.99 0 .44.2.7.66.86Q.24.38.24 1c0 .66.76 1.03 2.09 1.03q2.5 0 2.5-1.58c0-.5-.22-.9-.6-1.04-.25-.11-.57-.14-1.26-.14H1.95c-.54 0-.57-.04-.7-.1q-.1-.09-.1-.26c0-.3.26-.43.93-.44.94-.03 1.1-.05 1.42-.19.6-.28.94-.8.94-1.45 0-.4-.1-.64-.38-.97q.24-.27.35-.25c.1 0 .12.51.54.51.25 0 .46-.21.46-.48m-1.88 1.2c0 .79-.38 1.25-1.02 1.25-.6 0-1-.47-1-1.22 0-.8.38-1.23 1.05-1.23.62 0 .97.44.97 1.2M4.14.72c0 .56-.66.89-1.76.89-.85 0-1.32-.25-1.32-.69 0-.33.17-.55.66-.8h.73c.83 0 .9 0 1.03.02.41.03.66.27.66.58m0 0" style="stroke:none"/></symbol><symbol id="q" overflow="visible"><path d="M7.31-3.6c0-2.12-1.48-3.74-3.39-3.74C1.84-7.34.45-5.62.45-3.6.45-1.47 1.94.16 3.88.16S7.3-1.47 7.3-3.6m-1.33 0c0 2.27-.73 3.29-2.1 3.29S1.77-1.33 1.77-3.62c0-2.25.73-3.25 2.14-3.25 1.3 0 2.07.98 2.07 3.28m0 0" style="stroke:none"/></symbol><symbol id="r" overflow="visible"><path d="M5.19-2.36c0-1.42-.85-2.44-2.03-2.44-.61 0-.99.22-1.36.78v-3.32l-1.72.1v.43h.34c.38 0 .44.08.44.5v3.87C.86-1.09.8-.45.67.14h.4l.48-.78c.4.55.87.8 1.5.8 1.22 0 2.14-1.08 2.14-2.52m-1.05.11C4.14-1 3.74-.28 3-.28c-.78 0-1.25-.72-1.25-1.95 0-1.33.42-2.05 1.22-2.05.75 0 1.17.72 1.17 2.03m0 0" style="stroke:none"/></symbol><symbol id="s" overflow="visible"><path d="M4.2-1.4q0-.64-.42-1c-.25-.2-.44-.29-1.05-.41l-.5-.11c-.54-.13-.54-.13-.73-.22a.6.6 0 0 1-.34-.53c0-.4.37-.69.92-.69q.57 0 .97.4c.22.23.33.43.48.88h.36v-1.67h-.36l-.28.36c-.36-.28-.72-.4-1.22-.4-.87 0-1.45.57-1.45 1.45q0 .6.34.9c.24.22.47.31 1.06.46l.54.12c.78.19 1.06.4 1.06.78 0 .47-.4.8-1 .8-.83 0-1.44-.53-1.67-1.53H.5V.06h.35l.34-.4q.61.49 1.38.5C3.55.16 4.2-.45 4.2-1.4m0 0" style="stroke:none"/></symbol><symbol id="t" overflow="visible"><path d="M5.27-4.28v-.36h-2v.36h.14q.54-.01.54.34 0 .18-.1.42L2.95-1.2 1.8-3.84q-.04-.12-.05-.22c0-.17.14-.22.55-.22h.14v-.36H.08v.36h.14c.37 0 .45.08.6.42L2.52.16h.35l1.42-3.5c.26-.66.45-.94.83-.94Zm0 0" style="stroke:none"/></symbol><symbol id="u" overflow="visible"><path d="M5.9 0v-.36h-.13c-.63 0-.64-.06-.64-.47V-2.8c0-.72-.04-.89-.2-1.23a1.5 1.5 0 0 0-1.37-.77q-.91-.02-1.56.96v-.8l-1.73.1v.43h.36c.37 0 .43.08.43.5v2.78c0 .4-.01.47-.65.47H.27V0H2.8v-.36h-.14C2-.36 2-.42 2-.83v-1.44c0-.48.06-.93.17-1.15.2-.46.66-.77 1.1-.77.25 0 .54.16.7.35q.21.3.22 1v2.01c0 .4-.02.47-.66.47H3.4V0Zm0 0" style="stroke:none"/></symbol><symbol id="v" overflow="visible"><path d="M5.9 0v-.36h-.13c-.63 0-.64-.06-.64-.47V-2.8c0-.72-.04-.89-.2-1.23a1.5 1.5 0 0 0-1.37-.77q-.91-.02-1.56.97v-3.51l-1.84.1v.43h.47c.37 0 .43.08.43.5v5.48c0 .4-.01.47-.65.47H.27V0H2.8v-.36h-.14C2-.36 2-.42 2-.83v-1.42c0-.5.06-.95.17-1.17.2-.46.66-.77 1.1-.77.25 0 .54.16.7.35q.21.3.22 1.01v2c0 .4-.02.47-.66.47H3.4V0Zm0 0" style="stroke:none"/></symbol><symbol id="w" overflow="visible"><path d="M5.52 0v-.42h-.18c-.53 0-.62-.11-.62-.74v-6.18l-1.95.1v.43h.59c.36 0 .42.08.42.5v2.25q-.53-.75-1.37-.74C1.28-4.8.42-3.7.42-2.27.42-.86 1.25.16 2.41.16c.64 0 1.06-.29 1.37-.88v.78ZM3.78-2.3c0 1.16-.47 1.9-1.17 1.9s-1.14-.65-1.14-1.76q0-.86.2-1.37c.16-.44.53-.72.94-.72s.8.3.98.75q.18.46.2 1.2m0 0" style="stroke:none"/></symbol><symbol id="i" overflow="visible"><path d="M2.05-3.98h.93c.2 0 .32 0 .32-.2 0-.12-.11-.12-.28-.12h-.88c.36-1.42.4-1.6.4-1.67q-.02-.26-.29-.26c-.03 0-.31 0-.4.36L1.48-4.3H.53c-.2 0-.3 0-.3.2 0 .12.08.12.29.12h.87C.67-1.16.63-.98.63-.81c0 .54.37.92.92.92 1.01 0 1.58-1.45 1.58-1.53 0-.11-.08-.11-.11-.11-.1 0-.11.03-.16.14C2.44-.34 1.9-.11 1.56-.11c-.2 0-.31-.12-.31-.45 0-.25.03-.31.06-.49Zm0 0" style="stroke:none"/></symbol><symbol id="o" overflow="visible"><path d="M3.72-3.77c-.19-.37-.47-.64-.92-.64C1.64-4.4.4-2.94.4-1.48.4-.55.96.1 1.73.1c.2 0 .7-.05 1.3-.75.07.42.43.75.9.75.36 0 .58-.23.75-.55.16-.36.3-.97.3-.98 0-.11-.1-.11-.13-.11-.09 0-.1.05-.14.19-.17.64-.34 1.23-.75 1.23-.28 0-.3-.26-.3-.45 0-.22.02-.31.13-.75.11-.4.13-.52.22-.9l.36-1.38c.06-.29.06-.3.06-.35q0-.26-.28-.26c-.25 0-.39.22-.42.43m-.64 2.58c-.06.19-.06.2-.2.38-.44.54-.85.7-1.13.7-.5 0-.64-.55-.64-.94 0-.5.31-1.72.55-2.18.3-.58.75-.96 1.15-.96.64 0 .78.82.78.88q0 .1-.03.17Zm0 0" style="stroke:none"/></symbol><symbol id="p" overflow="visible"><path d="M4.69-3.77q.02-.06.03-.17-.01-.26-.28-.26c-.1 0-.38.06-.4.42-.2-.36-.54-.63-.95-.63C1.97-4.4.73-3 .73-1.58.73-.59 1.33 0 2.05 0c.6 0 1.06-.47 1.15-.58l.02.02Q2.9.74 2.89.75c-.05.1-.37 1.08-1.44 1.08-.18 0-.51-.02-.8-.11.3-.08.41-.34.41-.52 0-.15-.1-.34-.37-.34a.55.55 0 0 0-.53.58c0 .4.36.6 1.3.6 1.26 0 1.98-.77 2.13-1.37ZM3.4-1.28c-.07.26-.3.51-.52.7-.2.17-.52.36-.81.36-.5 0-.64-.51-.64-.92 0-.47.28-1.66.56-2.16.27-.48.69-.89 1.1-.89.67 0 .8.82.8.86q0 .08-.02.14Zm0 0" style="stroke:none"/></symbol><symbol id="j" overflow="visible"><path d="M6.84-3.27c.16 0 .35 0 .35-.18 0-.2-.19-.2-.33-.2H.89c-.14 0-.33 0-.33.2 0 .18.19.18.33.18Zm.02 1.94c.14 0 .33 0 .33-.2 0-.19-.19-.19-.35-.19H.9c-.14 0-.33 0-.33.19 0 .2.19.2.33.2Zm0 0" style="stroke:none"/></symbol><symbol id="k" overflow="visible"><path d="M4.58-3.19c0-.8-.05-1.6-.4-2.33a1.86 1.86 0 0 0-3.44.06A5.4 5.4 0 0 0 .4-3.18c0 .75.03 1.64.45 2.4.43.8 1.16 1 1.64 1 .54 0 1.3-.2 1.74-1.15.31-.68.36-1.47.36-2.25M2.48 0C2.1 0 1.5-.25 1.33-1.2c-.11-.6-.11-1.52-.11-2.11 0-.64 0-1.3.08-1.83.18-1.19.93-1.28 1.18-1.28.33 0 .99.19 1.18 1.17.1.56.1 1.31.1 1.94 0 .75 0 1.42-.1 2.06C3.5-.3 2.94 0 2.48 0m0 0" style="stroke:none"/></symbol><symbol id="n" overflow="visible"><path d="M2.94-6.37c0-.25 0-.27-.24-.27C2.08-6 1.2-6 .9-6v.31c.2 0 .77 0 1.29-.26v5.17c0 .36-.03.47-.92.47H.95V0c.35-.03 1.2-.03 1.61-.03.4 0 1.27 0 1.61.03v-.31h-.31c-.9 0-.92-.11-.92-.47Zm0 0" style="stroke:none"/></symbol></defs><path d="M0 166.93h233.84V0H0Zm0 0" style="stroke:none;fill-rule:nonzero;fill:#ffe4c8;fill-opacity:1"/><path d="M0 28.35v113.39h85.04V28.34Zm0 0" style="fill:none;stroke-width:.3985;stroke-linecap:butt;stroke-linejoin:miter;stroke:gray;stroke-opacity:1;stroke-dasharray:2.98883,2.98883;stroke-miterlimit:10" transform="matrix(1 0 0 -1 74.83 141.93)"/><path d="M1.5 99.21a1.5 1.5 0 1 1-3 0 1.5 1.5 0 0 1 3 0Zm0 0" style="fill-rule:nonzero;fill:gray;fill-opacity:1;stroke-width:.3985;stroke-linecap:butt;stroke-linejoin:miter;stroke:gray;stroke-opacity:1;stroke-miterlimit:10" transform="matrix(1 0 0 -1 74.83 141.93)"/><g style="fill:gray;fill-opacity:1"><use xlink:href="#a" x="3.32" y="46.38"/><use xlink:href="#b" x="9.6" y="46.38"/><use xlink:href="#c" x="14.58" y="46.38"/><use xlink:href="#d" x="20.67" y="46.38"/><use xlink:href="#e" x="25.09" y="46.38"/><use xlink:href="#f" x="29.51" y="46.38"/></g><g style="fill:gray;fill-opacity:1"><use xlink:href="#g" x="37.26" y="46.38"/><use xlink:href="#h" x="42.8" y="46.38"/></g><use xlink:href="#i" x="49.45" y="46.38" style="fill:gray;fill-opacity:1"/><use xlink:href="#j" x="55.81" y="46.38" style="fill:gray;fill-opacity:1"/><use xlink:href="#k" x="66.33" y="46.38" style="fill:gray;fill-opacity:1"/><path d="M0 0V113.4h85.04V0Zm0 0" style="fill:none;stroke-width:.79701;stroke-linecap:butt;stroke-linejoin:miter;stroke:#000;stroke-opacity:1;stroke-miterlimit:10" transform="matrix(1 0 0 -1 74.83 141.93)"/><path d="M86.53 70.87a1.5 1.5 0 1 1-2.98 0 1.5 1.5 0 0 1 2.98 0Zm0 0" style="fill-rule:nonzero;fill:#000;fill-opacity:1;stroke-width:.3985;stroke-linecap:butt;stroke-linejoin:miter;stroke:#000;stroke-opacity:1;stroke-miterlimit:10" transform="matrix(1 0 0 -1 74.83 141.93)"/><use xlink:href="#l" x="163.39" y="73.72" style="fill:#000;fill-opacity:1"/><g style="fill:#000;fill-opacity:1"><use xlink:href="#g" x="169.83" y="73.72"/><use xlink:href="#d" x="175.37" y="73.72"/></g><use xlink:href="#m" x="179.75" y="73.72" style="fill:#000;fill-opacity:1"/><use xlink:href="#f" x="185.05" y="73.72" style="fill:#000;fill-opacity:1"/><use xlink:href="#h" x="189.83" y="73.72" style="fill:#000;fill-opacity:1"/><g style="fill:#000;fill-opacity:1"><use xlink:href="#g" x="196.47" y="73.72"/><use xlink:href="#h" x="202.01" y="73.72"/></g><use xlink:href="#i" x="208.66" y="73.72" style="fill:#000;fill-opacity:1"/><use xlink:href="#j" x="215.03" y="73.72" style="fill:#000;fill-opacity:1"/><use xlink:href="#n" x="225.54" y="73.72" style="fill:#000;fill-opacity:1"/><path d="M-42.52 99.21v-55.9" style="fill:none;stroke-width:.79701;stroke-linecap:butt;stroke-linejoin:miter;stroke:#00f;stroke-opacity:1;stroke-miterlimit:10" transform="matrix(1 0 0 -1 74.83 141.93)"/><path d="M-2.55 3.11C-2.08 1.24-1.05.36 0 0c-1.05-.36-2.08-1.24-2.55-3.11" style="fill:none;stroke-width:.79701;stroke-linecap:round;stroke-linejoin:round;stroke:#00f;stroke-opacity:1;stroke-miterlimit:10" transform="matrix(0 1 1 0 32.31 99.01)"/><use xlink:href="#o" x="4.93" y="72.24" style="fill:#00f;fill-opacity:1"/><use xlink:href="#j" x="12.97" y="72.24" style="fill:#00f;fill-opacity:1"/><use xlink:href="#p" x="23.49" y="72.24" style="fill:#00f;fill-opacity:1"/><path d="M0 99.21c42.52 0 75.47-21.97 84.38-27.9" style="fill:none;stroke-width:.79701;stroke-linecap:butt;stroke-linejoin:miter;stroke:red;stroke-opacity:1;stroke-miterlimit:10" transform="matrix(1 0 0 -1 74.83 141.93)"/><path d="M-2.55 3.11C-2.08 1.24-1.05.36 0 0c-1.04-.36-2.09-1.25-2.55-3.11" style="fill:none;stroke-width:.79701;stroke-linecap:round;stroke-linejoin:round;stroke:red;stroke-opacity:1;stroke-miterlimit:10" transform="rotate(213.69 90.5 11.27)scale(-.99996 .99996)"/><g style="fill:#000;fill-opacity:1"><use xlink:href="#q" x="62.73" y="161.59"/><use xlink:href="#r" x="70.48" y="161.59"/><use xlink:href="#s" x="76.02" y="161.59"/><use xlink:href="#f" x="80.64" y="161.59"/><use xlink:href="#d" x="85.62" y="161.59"/></g><use xlink:href="#t" x="90.29" y="161.59" style="fill:#000;fill-opacity:1"/><g style="fill:#000;fill-opacity:1"><use xlink:href="#f" x="95.39" y="161.59"/><use xlink:href="#d" x="100.37" y="161.59"/></g><g style="fill:#000;fill-opacity:1"><use xlink:href="#b" x="107.57" y="161.59"/><use xlink:href="#u" x="112.55" y="161.59"/></g><use xlink:href="#h" x="121.4" y="161.59" style="fill:#000;fill-opacity:1"/><g style="fill:#000;fill-opacity:1"><use xlink:href="#v" x="125.23" y="161.59"/><use xlink:href="#f" x="131.32" y="161.59"/></g><use xlink:href="#m" x="139.07" y="161.59" style="fill:#000;fill-opacity:1"/><g style="fill:#000;fill-opacity:1"><use xlink:href="#d" x="144.67" y="161.59"/><use xlink:href="#b" x="149.09" y="161.59"/><use xlink:href="#c" x="154.07" y="161.59"/><use xlink:href="#u" x="160.16" y="161.59"/><use xlink:href="#w" x="166.25" y="161.59"/></g></svg>