<svg xmlns="http://www.w3.org/2000/svg" xmlns:xlink="http://www.w3.org/1999/xlink" width="358.048" height="246.577" viewBox="0 0 268.536 184.933"><defs><symbol id="b" overflow="visible"><path d="M4.25-2.875c0-.594-.031-1.375-.344-2.047-.406-.844-1.078-1.047-1.594-1.047-.546 0-1.234.203-1.624 1.078-.282.61-.329 1.344-.329 2.016 0 .594.016 1.453.407 2.172.422.75 1.125.906 1.53.906.579 0 1.25-.25 1.626-1.078.265-.61.328-1.281.328-2M2.313-.031c-.282 0-.922-.125-1.094-1.14-.094-.516-.094-1.298-.094-1.813 0-.61 0-1.313.11-1.813.187-.797.75-.953 1.062-.953.344 0 .906.188 1.078 1.016.094.484.094 1.187.094 1.75s0 1.312-.094 1.843C3.188-.109 2.531-.03 2.313-.03m0 0" style="stroke:none"/></symbol><symbol id="d" overflow="visible"><path d="M4.14-1.594h-.25c-.015.125-.093.657-.203.797-.062.078-.671.078-.859.078H1.234l.891-.843c1.469-1.266 2.016-1.75 2.016-2.657 0-1.031-.844-1.75-1.953-1.75-1.032 0-1.735.813-1.735 1.625 0 .453.39.5.469.5.203 0 .469-.14.469-.469a.45.45 0 0 0-.47-.468c-.046 0-.062 0-.109.015.22-.64.797-.921 1.282-.921.906 0 1.219.843 1.219 1.468 0 .907-.688 1.657-1.11 2.125L.563-.328c-.11.11-.11.125-.11.328h3.438Zm0 0" style="stroke:none"/></symbol><symbol id="e" overflow="visible"><path d="M.266-1.766v.282h2.437v.78c0 .329-.015.423-.687.423h-.203V0C2.375-.031 3-.031 3.063-.031c.046 0 .703 0 1.265.031v-.281h-.203c-.672 0-.703-.094-.703-.422v-.781h.922v-.282h-.922v-4.062c0-.188 0-.25-.172-.25-.11 0-.11.016-.187.14Zm.28 0 2.22-3.312v3.312Zm0 0" style="stroke:none"/></symbol><symbol id="f" overflow="visible"><path d="M1.203-2.969c0-.922.094-1.422.344-1.89.172-.375.61-.891 1.281-.891.172 0 .594.031.797.36-.328 0-.484.171-.484.406a.41.41 0 0 0 .422.422c.25 0 .421-.172.421-.438 0-.5-.359-.969-1.171-.969-1.157 0-2.422 1.14-2.422 3.14C.39-.405 1.484.204 2.328.204c.985 0 1.89-.844 1.89-2.031 0-1.125-.827-2-1.843-2-.531 0-.922.328-1.172.86m1.11 2.922c-.516 0-.813-.422-.907-.687-.172-.407-.187-1.157-.187-1.297 0-.594.281-1.563 1.14-1.563.141 0 .579 0 .875.547.172.344.172.781.172 1.219 0 .422 0 .875-.172 1.203-.28.516-.671.578-.921.578m0 0" style="stroke:none"/></symbol><symbol id="g" overflow="visible"><path d="M1.547-4.078c-.266-.172-.484-.406-.484-.734 0-.594.625-.938 1.218-.938.703 0 1.25.484 1.25 1.11 0 .624-.531 1.046-.89 1.25Zm1.312.828c.454-.219 1.11-.656 1.11-1.39 0-.844-.844-1.329-1.656-1.329-.938 0-1.672.672-1.672 1.5 0 .328.125.657.343.922.141.172.204.203.72.531C.921-2.64.39-2.094.39-1.359c0 .953.937 1.562 1.906 1.562C3.344.203 4.219-.53 4.219-1.5c0-.875-.672-1.312-.89-1.453-.095-.063-.36-.235-.47-.297m-.906.39 1.125.704c.203.125.656.422.656.969 0 .703-.718 1.14-1.421 1.14C1.53-.047.875-.609.875-1.359c0-.641.438-1.172 1.078-1.5m0 0" style="stroke:none"/></symbol><symbol id="h" overflow="visible"><path d="M2.719-5.734c0-.22 0-.235-.219-.235-.562.563-1.39.563-1.672.563v.281c.172 0 .719 0 1.203-.234v4.64c0 .328-.015.438-.86.438h-.28V0c.312-.031 1.125-.031 1.484-.031.375 0 1.172 0 1.5.031v-.281h-.281c-.844 0-.875-.11-.875-.438Zm0 0" style="stroke:none"/></symbol><symbol id="i" overflow="visible"><path d="M2.734-3.156C3.563-3.47 3.97-4.125 3.97-4.75c0-.687-.766-1.219-1.703-1.219-.922 0-1.625.532-1.625 1.203 0 .297.187.47.453.47a.435.435 0 0 0 .453-.454c0-.312-.219-.437-.531-.437.234-.375.78-.563 1.234-.563.734 0 .875.594.875 1.016 0 .265-.047.703-.266 1.047-.28.39-.593.406-.859.437-.219.016-.234.016-.312.016-.079 0-.157.015-.157.109 0 .125.078.125.235.125h.406c.781 0 1.125.625 1.125 1.469 0 1.156-.61 1.484-1.063 1.484-.171 0-1.046-.047-1.437-.719a.475.475 0 0 0 .562-.484.47.47 0 0 0-.484-.484c-.219 0-.484.14-.484.515 0 .797.828 1.422 1.875 1.422 1.109 0 1.953-.812 1.953-1.734 0-.782-.625-1.438-1.485-1.625m0 0" style="stroke:none"/></symbol><symbol id="j" overflow="visible"><path d="M.938-3.094c0 .156 0 .266.125.266.062 0 .093-.047.14-.125a1.45 1.45 0 0 1 1.172-.594c.969 0 .969 1.39.969 1.703 0 .282 0 .844-.266 1.25-.234.375-.61.547-.969.547a1.46 1.46 0 0 1-1.343-1c.015 0 .062.016.125.016.187 0 .453-.11.453-.438 0-.281-.203-.437-.453-.437-.188 0-.438.11-.438.468 0 .813.688 1.641 1.688 1.641 1.078 0 2-.89 2-2 0-1.078-.766-1.969-1.75-1.969-.422 0-.86.141-1.188.47v-1.767c.281.079.563.125.828.125 1.11 0 1.75-.796 1.75-.921 0-.079-.047-.11-.094-.11-.015 0-.03 0-.124.047a3.5 3.5 0 0 1-1.204.234c-.39 0-.796-.078-1.203-.234-.093-.047-.11-.047-.11-.047-.109 0-.109.078-.109.235Zm0 0" style="stroke:none"/></symbol><symbol id="k" overflow="visible"><path d="M4.39-5.469c.079-.093.079-.125.079-.312H2.25c-1.14 0-1.172-.11-1.187-.282h-.25L.516-4.187h.25C.796-4.39.875-4.89.984-5c.063-.062.782-.062.907-.062h1.875l-.86 1.171C1.734-2.28 1.625-.812 1.625-.312c0 .109 0 .515.422.515s.422-.406.422-.516V-.75c0-1.328.187-2.36.672-3.016Zm0 0" style="stroke:none"/></symbol><symbol id="c" overflow="visible"><path d="M1.766-.484A.487.487 0 0 0 1.28-.97a.477.477 0 0 0-.484.485C.797-.22 1 0 1.28 0a.487.487 0 0 0 .485-.484m0 0" style="stroke:none"/></symbol><symbol id="m" overflow="visible"><path d="M4.672-3.703c0-.547-.266-.703-.438-.703-.25 0-.5.265-.5.484 0 .125.047.188.157.297.218.203.343.453.343.813 0 .421-.609 2.703-1.765 2.703-.516 0-.75-.344-.75-.875 0-.547.281-1.282.578-2.11.078-.172.125-.312.125-.5 0-.437-.313-.812-.813-.812-.937 0-1.312 1.453-1.312 1.531 0 .11.094.11.11.11.109 0 .109-.032.156-.188.296-1 .718-1.235 1.015-1.235.078 0 .25 0 .25.313 0 .25-.11.531-.172.703-.437 1.156-.562 1.61-.562 2.047 0 1.078.875 1.234 1.328 1.234 1.672 0 2.25-3.296 2.25-3.812m0 0" style="stroke:none"/></symbol><symbol id="n" overflow="visible"><path d="M4.375-7.094c.047-.14.047-.172.047-.187 0-.11-.078-.203-.188-.203-.078 0-.14.03-.171.093l-3.47 9.5c-.046.141-.046.172-.046.188 0 .11.094.203.203.203.125 0 .156-.078.219-.25Zm0 0" style="stroke:none"/></symbol><symbol id="o" overflow="visible"><path d="M3.953-3.781c-.172 0-.297 0-.437.125a.53.53 0 0 0-.188.39c0 .25.188.36.375.36.281 0 .547-.25.547-.64 0-.485-.469-.86-1.172-.86-1.344 0-2.672 1.422-2.672 2.828C.406-.672.984.109 2.031.109c1.422 0 2.25-1.062 2.25-1.171 0-.063-.047-.141-.11-.141-.062 0-.077.031-.14.11-.781.984-1.875.984-1.984.984-.625 0-.906-.485-.906-1.094 0-.406.203-1.375.547-1.984.312-.579.859-1 1.406-1 .328 0 .719.125.86.406m0 0" style="stroke:none"/></symbol><symbol id="p" overflow="visible"><path d="M-2.531-.406C-3.671-.796-3.687-1.891-3.687-2c0-1.5 1.75-1.61 2.53-1.61.61 0 .782.047.985.126.719.218 1.875.515 2.14.515.11 0 .173-.047.173-.125 0-.14-.22-.219-.594-.328C.703-3.656.14-3.75-.172-3.782c-.125-.03-.25-.046-.39-.093-.985-.312-2.47-.953-3.25-1.344-.126-.078-.344-.187-.391-.187-.094 0-.094.093-.094.11 0 .03 0 .093.063.124.953.516 1.953.922 2.953 1.313-.297.015-1.063.015-2.032.406-.609.25-1.093.64-1.093 1.328 0 1.25 1.515 1.953 1.828 1.953.094 0 .094-.094.094-.203Zm0 0" style="stroke:none"/></symbol><clipPath id="a"><path d="M0 0h268.535v184.934H0Zm0 0"/></clipPath><clipPath id="l"><path d="M26.64 4.043h238.637V148H26.641Zm0 0"/></clipPath></defs><g clip-path="url(#a)"><path d="M0 184.934h268.535V0H0Zm0 0" style="stroke:none;fill-rule:nonzero;fill:#ffe4c8;fill-opacity:1"/></g><path d="M47.254-.002v153.594M94.51-.002v153.594M141.765-.002v153.594M189.02-.002v153.594M236.273-.002v153.594M0 21.631h238.636M0 43.264h238.636M0 64.897h238.636M0 86.53h238.636M0 108.162h238.636M0 129.795h238.636M0 151.428h238.636" style="fill:none;stroke-width:.3985;stroke-linecap:butt;stroke-linejoin:miter;stroke:#d9d9d9;stroke-opacity:1;stroke-dasharray:2.98883,2.98883;stroke-miterlimit:10" transform="matrix(1 0 0 -1 26.641 157.635)"/><path d="M47.254-2.127v4.254M94.51-2.127v4.254m47.254-4.254v4.254m47.254-4.254v4.254m47.254-4.254v4.254M-2.125 21.631h4.25m-4.25 21.633h4.25m-4.25 21.633h4.25m-4.25 21.633h4.25m-4.25 21.632h4.25m-4.25 21.633h4.25m-4.25 21.633h4.25" style="fill:none;stroke-width:.19925;stroke-linecap:butt;stroke-linejoin:miter;stroke:gray;stroke-opacity:1;stroke-miterlimit:10" transform="matrix(1 0 0 -1 26.641 157.635)"/><path d="M0-.002h238.636M0-.002v153.594" style="fill:none;stroke-width:.3985;stroke-linecap:butt;stroke-linejoin:miter;stroke:#000;stroke-opacity:1;stroke-miterlimit:10" transform="matrix(1 0 0 -1 26.641 157.635)"/><use xlink:href="#b" x="68.007" y="169.059" style="fill:#000;fill-opacity:1"/><use xlink:href="#c" x="72.615" y="169.059" style="fill:#000;fill-opacity:1"/><use xlink:href="#d" x="75.175" y="169.059" style="fill:#000;fill-opacity:1"/><use xlink:href="#b" x="115.261" y="169.059" style="fill:#000;fill-opacity:1"/><use xlink:href="#c" x="119.869" y="169.059" style="fill:#000;fill-opacity:1"/><use xlink:href="#e" x="122.429" y="169.059" style="fill:#000;fill-opacity:1"/><use xlink:href="#b" x="162.516" y="169.059" style="fill:#000;fill-opacity:1"/><use xlink:href="#c" x="167.123" y="169.059" style="fill:#000;fill-opacity:1"/><use xlink:href="#f" x="169.683" y="169.059" style="fill:#000;fill-opacity:1"/><use xlink:href="#b" x="209.77" y="169.059" style="fill:#000;fill-opacity:1"/><use xlink:href="#c" x="214.377" y="169.059" style="fill:#000;fill-opacity:1"/><use xlink:href="#g" x="216.937" y="169.059" style="fill:#000;fill-opacity:1"/><use xlink:href="#h" x="260.608" y="169.059" style="fill:#000;fill-opacity:1"/><use xlink:href="#h" x="16.387" y="138.892" style="fill:#000;fill-opacity:1"/><use xlink:href="#d" x="16.387" y="117.26" style="fill:#000;fill-opacity:1"/><use xlink:href="#i" x="16.387" y="95.628" style="fill:#000;fill-opacity:1"/><use xlink:href="#e" x="16.387" y="73.996" style="fill:#000;fill-opacity:1"/><use xlink:href="#j" x="16.387" y="52.363" style="fill:#000;fill-opacity:1"/><use xlink:href="#f" x="16.387" y="30.731" style="fill:#000;fill-opacity:1"/><use xlink:href="#k" x="16.387" y="9.099" style="fill:#000;fill-opacity:1"/><path d="M0-2.127v4.254" style="fill:none;stroke-width:.19925;stroke-linecap:butt;stroke-linejoin:miter;stroke:gray;stroke-opacity:1;stroke-miterlimit:10" transform="matrix(1 0 0 -1 26.641 157.635)"/><use xlink:href="#b" x="24.337" y="169.059" style="fill:#000;fill-opacity:1"/><g clip-path="url(#l)"><path d="M0 21.631h2.363l2.363.004 4.727.016 2.36.011 2.362.008 2.364.016 2.363.02 2.363.011 2.364.027 2.363.024 2.36.02 9.452.124 4.727.078 2.36.043 7.09.141 7.089.164 2.36.063 4.726.132 2.363.07 4.727.15 2.363.081 2.36.082 2.363.086 2.363.09 2.363.098 2.363.093 2.364.102 4.726.219 2.36.113 2.363.117 2.363.125 2.364.13 2.363.136 2.363.14 2.363.145 2.36.148 2.363.16 2.363.157 4.727.351 2.363.184 2.363.188 2.36.207 2.363.207 2.363.214 2.364.23 2.363.24 2.363.245 2.364.258 2.359.274 2.363.285 2.363.293 2.364.316 2.363.324 2.363.348 2.364.363 2.359.383 2.363.406 2.364.426 2.363.457 2.363.477 2.363.511 2.364.543 2.363.582 2.36.614 2.363.668 2.363.714 2.363.77 2.363.836 2.364.906 2.363.988 2.36 1.086 2.363 1.196 2.363 1.328 2.363 1.48 2.364 1.672 2.363 1.899 2.363 2.183 2.36 2.551 2.363 3.02 2.363 3.656 2.363 4.55 2.364 5.88 2.363 7.976 2.363 11.727 2.36 19.718 2.363 44.649" style="fill:none;stroke-width:.79701;stroke-linecap:butt;stroke-linejoin:miter;stroke:#000;stroke-opacity:1;stroke-miterlimit:10" transform="matrix(1 0 0 -1 26.641 157.635)"/></g><use xlink:href="#m" x="149.477" y="179.122" style="fill:#000;fill-opacity:1"/><g style="fill:#000;fill-opacity:1"><use xlink:href="#n" x="154.665" y="179.122"/><use xlink:href="#o" x="159.646" y="179.122"/></g><use xlink:href="#p" x="7.61" y="83.697" style="fill:#000;fill-opacity:1"/></svg>