<svg xmlns="http://www.w3.org/2000/svg" xmlns:xlink="http://www.w3.org/1999/xlink" width="376.728" height="337.355" viewBox="0 0 282.546 253.016"><defs><symbol id="b" overflow="visible"><path d="M3.328-3.016c.063-.25.297-1.171.985-1.171.046 0 .296 0 .5.125a.58.58 0 0 0-.47.546c0 .157.11.344.376.344a.546.546 0 0 0 .531-.578c0-.516-.578-.656-.922-.656-.578 0-.922.531-1.047.75-.25-.656-.781-.75-1.078-.75-1.031 0-1.61 1.281-1.61 1.531 0 .11.11.11.126.11.078 0 .11-.032.125-.11.344-1.062 1-1.312 1.344-1.312.187 0 .53.093.53.671 0 .313-.171.97-.53 2.375-.157.61-.516 1.032-.954 1.032-.062 0-.28 0-.5-.125.25-.063.47-.266.47-.547 0-.266-.22-.344-.36-.344-.313 0-.547.25-.547.578 0 .453.484.656.922.656.672 0 1.031-.703 1.047-.75.125.36.484.75 1.078.75 1.031 0 1.594-1.28 1.594-1.53 0-.11-.079-.11-.11-.11-.094 0-.11.047-.14.11-.329 1.077-1 1.312-1.313 1.312-.39 0-.547-.313-.547-.657 0-.218.047-.437.156-.875Zm0 0" style="stroke:none"/></symbol><symbol id="c" overflow="visible"><path d="M4.844-3.797c.047-.14.047-.156.047-.234 0-.172-.141-.266-.297-.266a.46.46 0 0 0-.344.203c-.016.063-.11.36-.14.547-.079.25-.141.531-.204.797L3.453-.953c-.031.14-.469.844-1.125.844-.5 0-.61-.438-.61-.813 0-.453.173-1.078.5-1.953.157-.406.204-.516.204-.719 0-.437-.313-.812-.813-.812-.953 0-1.312 1.453-1.312 1.531 0 .11.094.11.11.11.109 0 .109-.032.156-.188.28-.938.671-1.235 1.015-1.235.078 0 .25 0 .25.313 0 .25-.11.516-.172.703-.406 1.063-.578 1.625-.578 2.094 0 .89.625 1.187 1.219 1.187.39 0 .719-.171 1-.453-.125.516-.25 1.016-.64 1.547-.266.328-.641.625-1.094.625-.141 0-.594-.031-.766-.422.156 0 .297 0 .422-.125a.5.5 0 0 0 .203-.406c0-.312-.266-.344-.36-.344C.829.531.5.687.5 1.171c0 .5.438.876 1.063.876 1.015 0 2.046-.906 2.328-2.031Zm0 0" style="stroke:none"/></symbol><symbol id="d" overflow="visible"><path d="M1.328-.828c.531-.578.828-.828 1.188-1.14 0 0 .609-.532.968-.891.954-.922 1.172-1.407 1.172-1.453 0-.094-.093-.094-.11-.094-.077 0-.093.015-.155.11-.297.484-.5.64-.735.64-.25 0-.36-.156-.515-.328-.188-.22-.36-.422-.688-.422-.75 0-1.203.922-1.203 1.14 0 .047.031.11.11.11.093 0 .109-.047.14-.11.188-.468.766-.468.844-.468.203 0 .39.062.625.14.406.156.515.156.765.156-.359.422-1.187 1.141-1.375 1.297l-.906.844C.781-.625.422-.062.422.016c0 .093.11.093.125.093C.625.11.64.094.703-.016c.235-.359.531-.625.86-.625.218 0 .328.094.578.375.156.22.343.375.625.375 1 0 1.578-1.265 1.578-1.53 0-.048-.047-.11-.125-.11-.094 0-.11.062-.14.14-.235.641-.876.829-1.204.829-.187 0-.375-.063-.578-.125-.344-.125-.5-.172-.703-.172-.016 0-.172 0-.266.03m0 0" style="stroke:none"/></symbol><symbol id="e" overflow="visible"><path d="M.875-.594c-.031.156-.094.39-.094.438 0 .172.14.265.297.265a.41.41 0 0 0 .375-.28c.016-.032.344-1.391.39-1.579.079-.328.266-1.016.313-1.297.047-.125.328-.594.563-.812.078-.063.375-.328.797-.328.265 0 .406.125.422.125-.297.046-.516.28-.516.546 0 .157.11.344.375.344s.547-.234.547-.594c0-.343-.313-.64-.828-.64-.641 0-1.078.484-1.266.765-.094-.453-.453-.765-.922-.765-.453 0-.64.39-.734.562-.172.344-.297.938-.297.969 0 .11.094.11.11.11.109 0 .109-.016.171-.235.172-.703.375-1.187.735-1.187.156 0 .296.078.296.453 0 .218-.03.328-.156.843Zm0 0" style="stroke:none"/></symbol><symbol id="m" overflow="visible"><path d="M4.36-6.672c0-.031.03-.14.03-.14 0-.016 0-.11-.124-.11-.094 0-.11.031-.157.203l-.578 2.297C1.953-4.359.484-3.047.484-1.688c0 .954.704 1.735 1.922 1.813-.078.297-.156.625-.234.938-.125.468-.219.843-.219.875 0 .093.078.109.125.109s.063-.016.094-.047c.015-.016.078-.25.11-.39L2.655.124C4.266.063 5.72-1.281 5.72-2.609c0-.797-.532-1.703-1.922-1.813ZM2.452-.094c-.594-.031-1.312-.39-1.312-1.375 0-1.203.859-2.593 2.343-2.734Zm1.281-4.11c.766.048 1.329.5 1.329 1.376 0 1.187-.86 2.61-2.344 2.734Zm0 0" style="stroke:none"/></symbol><symbol id="o" overflow="visible"><path d="M4.531-4.984c0-.657-.172-2.047-1.187-2.047-1.39 0-2.922 2.812-2.922 5.094C.422-1 .703.108 1.609.108c1.407 0 2.922-2.859 2.922-5.093M1.47-3.625c.172-.625.375-1.422.781-2.14.266-.485.625-1.048 1.078-1.048.485 0 .547.641.547 1.204 0 .5-.078 1-.312 1.984Zm2 .328c-.11.453-.313 1.297-.703 2.016-.344.687-.72 1.172-1.157 1.172-.328 0-.53-.297-.53-1.22 0-.421.062-1 .312-1.968Zm0 0" style="stroke:none"/></symbol><symbol id="f" overflow="visible"><path d="M.719-.781c.015.172 0 .406.015.453.032.172.188.234.344.187.125-.015.266-.14.313-.359 0-.031.015-1.422.015-1.625 0-.344.032-1.031 0-1.328.016-.14.203-.656.375-.922.063-.078.297-.406.703-.5.266-.047.438.047.454.031-.297.125-.454.39-.407.657.047.156.188.296.453.234.25-.047.485-.344.407-.703-.079-.328-.453-.547-.953-.438-.626.157-.938.719-1.063 1.047-.203-.422-.61-.656-1.062-.547-.438.094-.547.532-.594.703-.094.391-.078 1-.063 1.032.016.109.094.078.11.078.109-.016.109-.031.125-.266.015-.734.093-1.25.453-1.328C.5-4.406.64-4.359.719-4c.047.219.047.328.047.86Zm0 0" style="stroke:none"/></symbol><symbol id="j" overflow="visible"><path d="M3.297-5.875c-.14-.64-.625-1.953-1.61-1.719C.329-7.28-.546-4.204-.03-1.984c.219.922.75 1.937 1.625 1.734 1.375-.312 2.203-3.437 1.703-5.625M.625-3.859c.016-.657.031-1.485.266-2.266.156-.531.375-1.156.828-1.266.468-.109.672.5.797 1.047.109.485.156 1 .14 2.016ZM2.641-4c-.016.484-.016 1.344-.235 2.125-.187.75-.437 1.313-.875 1.406C1.22-.39.953-.64.75-1.547.656-1.953.578-2.516.625-3.53Zm0 0" style="stroke:none"/></symbol><symbol id="l" overflow="visible"><path d="M2.75-7.484c-.016-.032 0-.141 0-.141 0-.016-.031-.11-.156-.078-.094.016-.094.047-.11.234l-.046 2.36C.922-4.687-.22-3.08.094-1.75.297-.828 1.172-.219 2.375-.422c-.016.297-.016.656-.031.969 0 .484-.016.875 0 .906.015.094.094.094.14.078.047-.015.047-.031.079-.062.015-.016.015-.266.015-.422L2.625-.47c1.547-.422 2.672-2.062 2.36-3.36-.173-.765-.907-1.546-2.282-1.343ZM2.375-.641C1.781-.547 1-.719.781-1.687c-.265-1.172.266-2.72 1.656-3.188Zm.313-4.296c.765-.125 1.421.187 1.609 1.046.266 1.157-.25 2.72-1.656 3.188Zm0 0" style="stroke:none"/></symbol><symbol id="g" overflow="visible"><path d="M1.594-2.36c.218 0 1.047-.03 1.203.672.125.485-.14.954-.89 1.126C1.077-.36.608-.828.233-1.625c-.062-.11-.062-.14-.171-.125-.125.031-.11.094-.079.25L.281-.203c.047.172.063.234.172.219C.5 0 .5-.016.656-.25c0-.016 0-.031.156-.25.5.297.954.203 1.157.156 1.11-.25 1.406-1.015 1.25-1.719a1.24 1.24 0 0 0-.625-.812c-.406-.25-.797-.234-1.219-.219C.813-3.063.141-3.047 0-3.609c-.078-.36.063-.797.906-1 1.063-.235 1.328.64 1.422.906.016.094.11.078.125.078.14-.031.125-.078.094-.266l-.235-.984c-.03-.156-.046-.234-.156-.219-.047.016-.078.032-.187.172-.016.047-.094.156-.125.203-.422-.203-.813-.11-.969-.078C-.312-4.516-.547-3.78-.422-3.234c.078.343.297.578.625.734.36.172.656.156 1.39.14m0 0" style="stroke:none"/></symbol><symbol id="h" overflow="visible"><path d="m.734-4.687-1.343.421.078.313c.625-.156.734-.125.844.36L.906-.985c.11.437 0 .468-.656.609l.063.297c.312-.078.843-.219 1.078-.266.343-.094.687-.156 1.015-.219l-.062-.296c-.656.156-.703.125-.797-.266ZM.375-6.391a.524.524 0 0 0-.625-.39.51.51 0 0 0-.39.625.52.52 0 0 0 .624.406.534.534 0 0 0 .391-.64m0 0" style="stroke:none"/></symbol><symbol id="i" overflow="visible"><path d="M.297-3.578.89-.984C1-.547.89-.516.234-.36l.063.297c.36-.11.844-.235 1.125-.297.234-.063.734-.157 1.078-.22l-.062-.296c-.657.156-.766.172-.876-.266l-.406-1.796c-.234-1 .344-1.704.953-1.844.625-.14.844.343.985.906l.515 2.266c.11.437 0 .468-.656.609l.063.297c.328-.078.843-.219 1.093-.281.25-.047.766-.157 1.079-.22L5.125-1.5c-.5.125-.734.172-.812-.125l-.422-1.86c-.203-.828-.266-1.124-.657-1.39-.187-.14-.53-.266-1.093-.14-.72.156-1.078.687-1.22 1.359L.688-4.687l-1.359.437.078.313c.688-.172.782-.141.89.359m0 0" style="stroke:none"/></symbol><symbol id="k" overflow="visible"><path d="m3.563-1.375.156.64 1.39-.452-.062-.297c-.656.156-.766.125-.89-.375L2.796-7.75l-1.36.422.063.312c.672-.156.766-.109.89.375l.485 2.094C2.5-4.828 2.031-5 1.515-4.875.376-4.609-.436-3.406-.155-2.156.125-.937 1.313-.187 2.422-.437c.625-.157.969-.594 1.14-.938m-.594-2.61.453 2c.047.173.047.188-.031.36-.188.547-.563.86-.985.953-.437.11-.844-.062-1.156-.39-.344-.329-.5-.875-.594-1.282C.578-2.704.453-3.28.641-3.78c.125-.36.437-.766.968-.89.329-.079.766-.016 1.157.343.156.156.156.172.203.344m0 0" style="stroke:none"/></symbol><symbol id="n" overflow="visible"><path d="M3.781-.547V.11L5.25 0v-.312c-.687 0-.781-.063-.781-.563v-6.047l-1.422.11v.312c.687 0 .765.063.765.563v2.156a1.58 1.58 0 0 0-1.25-.625c-1.171 0-2.218.984-2.218 2.265 0 1.266.969 2.25 2.11 2.25.64 0 1.077-.343 1.327-.656m0-2.672v2.047c0 .172 0 .188-.11.36-.296.484-.733.703-1.171.703-.453 0-.812-.266-1.047-.641-.25-.406-.281-.969-.281-1.39 0-.36.016-.954.297-1.407.218-.312.593-.64 1.14-.64.344 0 .766.156 1.063.593.11.172.11.188.11.375m0 0" style="stroke:none"/></symbol><clipPath id="a"><path d="M0 0h282.547v253.016H0Zm0 0"/></clipPath></defs><g clip-path="url(#a)"><path d="M0 253.016h282.547V0H0Zm0 0" style="stroke:none;fill-rule:nonzero;fill:#ffe4c8;fill-opacity:1"/></g><path d="M0-.001-64.47-60.58" style="fill:none;stroke-width:.79701;stroke-linecap:butt;stroke-linejoin:miter;stroke:#000;stroke-opacity:1;stroke-miterlimit:10" transform="matrix(1 0 0 -1 80.821 173.28)"/><path d="M12.953 237.055c1.184-.758 3.352-1.73 5.106-2.133l-2.66-2.832c-.512 1.726-1.618 3.828-2.446 4.965" style="stroke:none;fill-rule:nonzero;fill:#000;fill-opacity:1"/><use xlink:href="#b" x="3.321" y="245.575" style="fill:#000;fill-opacity:1"/><path d="m0-.001 181.835-22.633" style="fill:none;stroke-width:.79701;stroke-linecap:butt;stroke-linejoin:miter;stroke:#000;stroke-opacity:1;stroke-miterlimit:10" transform="matrix(1 0 0 -1 80.821 173.28)"/><path d="M267.281 196.492c-1.336-.43-3.469-1.476-4.898-2.57l-.48 3.855c1.652-.707 3.976-1.199 5.378-1.285" style="stroke:none;fill-rule:nonzero;fill:#000;fill-opacity:1"/><use xlink:href="#c" x="273.983" y="198.827" style="fill:#000;fill-opacity:1"/><path d="M0-.001v155.164" style="fill:none;stroke-width:.79701;stroke-linecap:butt;stroke-linejoin:miter;stroke:#000;stroke-opacity:1;stroke-miterlimit:10" transform="matrix(1 0 0 -1 80.821 173.28)"/><path d="M80.82 13.457c-.257 1.379-1.035 3.625-1.941 5.18h3.887c-.91-1.555-1.688-3.801-1.946-5.18" style="stroke:none;fill-rule:nonzero;fill:#000;fill-opacity:1"/><use xlink:href="#d" x="78.285" y="7.61" style="fill:#000;fill-opacity:1"/><path d="m0-.001 46.202 88.547" style="fill:none;stroke-width:.79701;stroke-linecap:butt;stroke-linejoin:miter;stroke:#00f;stroke-opacity:1;stroke-miterlimit:10" transform="matrix(1 0 0 -1 80.821 173.28)"/><use xlink:href="#e" x="100.052" y="116.435" style="fill:#00f;fill-opacity:1"/><path d="m0-.001 62.25 34.258M0-.001l104.152 44.293" style="fill:none;stroke-width:.3985;stroke-linecap:butt;stroke-linejoin:miter;stroke:#000;stroke-opacity:1;stroke-miterlimit:10" transform="matrix(1 0 0 -1 80.821 173.28)"/><path d="M0-.001 77.303 95.99" style="fill:none;stroke-width:.3985;stroke-linecap:butt;stroke-linejoin:miter;stroke:#000;stroke-opacity:1;stroke-dasharray:2.98883,2.98883;stroke-miterlimit:10" transform="matrix(1 0 0 -1 80.821 173.28)"/><path d="M0-.001 89.85-65.9M0-.001 150.33-51.415" style="fill:none;stroke-width:.3985;stroke-linecap:butt;stroke-linejoin:miter;stroke:#000;stroke-opacity:1;stroke-miterlimit:10" transform="matrix(1 0 0 -1 80.821 173.28)"/><path d="m77.304 95.99 19.328 24M46.199 88.534c10.847 3.246 21.28 5.742 31.093 7.441M77.304 95.995c10.746-15.653 19.836-33.16 26.848-51.703" style="fill:none;stroke-width:.79701;stroke-linecap:butt;stroke-linejoin:miter;stroke:#000;stroke-opacity:1;stroke-dasharray:2.98883,2.98883;stroke-miterlimit:10" transform="matrix(1 0 0 -1 80.821 173.28)"/><path d="M127.023 84.734c12.067-3.336 18.836-4.957 31.102-7.445 12.523 18.961 18.543 30.547 26.848 51.7-16.555 3.21-25.688 5.398-41.903 10.034-4.773-21.593-8.312-33.566-16.047-54.289m0 0" style="stroke:none;fill-rule:nonzero;fill:gray;fill-opacity:.5"/><path d="M127.023 84.734c12.067-3.336 18.836-4.957 31.102-7.445l19.328-24c-15.363 2.977-23.836 5.008-38.879 9.313-5.113 8.324-7.644 13.175-11.55 22.132M158.125 77.29l19.328-24c15.652 23.702 23.176 38.187 33.559 64.628-10.32 3.969-16.02 6.39-26.04 11.07-8.304-21.152-14.324-32.738-26.847-51.699m0 0" style="stroke:none;fill-rule:nonzero;fill:gray;fill-opacity:.5"/><path d="m138.574 62.602-11.55 22.132c7.734 20.723 11.273 32.696 16.046 54.29l15.563-8.563c-5.969-26.992-10.39-41.961-20.059-67.86m0 0" style="stroke:none;fill-rule:nonzero;fill:#000;fill-opacity:.15"/><path d="M138.574 62.602c9.668 25.898 14.09 40.867 20.059 67.859 20.316-5.621 31.719-8.352 52.379-12.543-10.153-26.531-17.7-41.063-33.559-64.629-15.433 2.574-23.953 4.613-38.879 9.313m0 0" style="stroke:none;fill-rule:nonzero;fill:#000;fill-opacity:.6"/><path d="M158.633 130.46c20.316-5.62 31.719-8.35 52.379-12.542-10.059 4.59-15.754 7.012-26.04 11.07-16.554 3.211-25.687 5.399-41.902 10.035 6.29-2.91 9.739-4.804 15.563-8.562m0 0" style="stroke:none;fill-rule:nonzero;fill:#000;fill-opacity:.4"/><path d="M62.25 34.257c6.308-28.914 9.628-58.926 9.628-86.973M77.812 42.823C85.695 6.678 89.85-30.837 89.85-65.896" style="fill:none;stroke-width:.3985;stroke-linecap:butt;stroke-linejoin:miter;stroke:#000;stroke-opacity:1;stroke-miterlimit:10" transform="matrix(1 0 0 -1 80.821 173.28)"/><path d="M104.152 44.292c10.554-27.899 16.113-57.375 16.113-85.422" style="fill:none;stroke-width:.3985;stroke-linecap:butt;stroke-linejoin:miter;stroke:#000;stroke-opacity:1;stroke-dasharray:2.98883,2.98883;stroke-miterlimit:10" transform="matrix(1 0 0 -1 80.821 173.28)"/><path d="M130.19 55.366c13.192-34.871 20.141-71.719 20.141-106.777M71.878-52.72c17.977 2.867 34.364 6.79 48.387 11.586" style="fill:none;stroke-width:.3985;stroke-linecap:butt;stroke-linejoin:miter;stroke:#000;stroke-opacity:1;stroke-miterlimit:10" transform="matrix(1 0 0 -1 80.821 173.28)"/><use xlink:href="#f" x="187.207" y="247.146" style="fill:#000;fill-opacity:1"/><g style="fill:#000;fill-opacity:1"><use xlink:href="#g" x="193.474" y="245.699"/><use xlink:href="#h" x="197.303" y="244.815"/><use xlink:href="#i" x="199.999" y="244.193"/></g><use xlink:href="#j" x="207.01" y="242.574" style="fill:#000;fill-opacity:1"/><use xlink:href="#k" x="211.837" y="241.46" style="fill:#000;fill-opacity:1"/><use xlink:href="#l" x="217.23" y="240.215" style="fill:#000;fill-opacity:1"/><path d="M89.85-65.9c22.47 3.582 42.95 8.489 60.481 14.485" style="fill:none;stroke-width:.3985;stroke-linecap:butt;stroke-linejoin:miter;stroke:#000;stroke-opacity:1;stroke-miterlimit:10" transform="matrix(1 0 0 -1 80.821 173.28)"/><use xlink:href="#m" x="78.965" y="192.435" style="fill:#000;fill-opacity:1"/><path d="M-8.727-8.2c6.36-.79 13.379-.684 17.543-.02" style="fill:none;stroke-width:.3985;stroke-linecap:butt;stroke-linejoin:miter;stroke:#000;stroke-opacity:1;stroke-miterlimit:10" transform="matrix(1 0 0 -1 80.821 173.28)"/><path d="m91.602 181.188-3.399-1.07 1.434 1.382-.93 1.766" style="stroke:none;fill-rule:nonzero;fill:#000;fill-opacity:1"/><path d="M17.968-13.18c4.496.718 8.594 1.698 10.215 2.253" style="fill:none;stroke-width:.3985;stroke-linecap:butt;stroke-linejoin:miter;stroke:#000;stroke-opacity:1;stroke-miterlimit:10" transform="matrix(1 0 0 -1 80.821 173.28)"/><path d="m110.887 183.563-3.532-.477 1.649 1.121-.617 1.895" style="stroke:none;fill-rule:nonzero;fill:#000;fill-opacity:1"/><use xlink:href="#n" x="112.123" y="194.825" style="fill:#000;fill-opacity:1"/><use xlink:href="#m" x="117.657" y="194.825" style="fill:#000;fill-opacity:1"/><path d="M0 31.964c3.378-2.477 6.652-7.528 8.527-12.395" style="fill:none;stroke-width:.3985;stroke-linecap:butt;stroke-linejoin:miter;stroke:#000;stroke-opacity:1;stroke-miterlimit:10" transform="matrix(1 0 0 -1 80.821 173.28)"/><path d="m90.063 155.57.343-3.547-1.058 1.688-1.918-.543" style="stroke:none;fill-rule:nonzero;fill:#000;fill-opacity:1"/><use xlink:href="#o" x="86.335" y="143.106" style="fill:#000;fill-opacity:1"/><use xlink:href="#n" x="107.283" y="143.781" style="fill:#000;fill-opacity:1"/><use xlink:href="#o" x="112.818" y="143.781" style="fill:#000;fill-opacity:1"/><path d="M19.253 36.893c2.672-6.953 4.938-14.613 6.258-20.672" style="fill:none;stroke-width:.3985;stroke-linecap:butt;stroke-linejoin:miter;stroke:#000;stroke-opacity:1;stroke-miterlimit:10" transform="matrix(1 0 0 -1 80.821 173.28)"/><path d="m106.758 159.008.879-3.457-1.305 1.508-1.809-.829" style="stroke:none;fill-rule:nonzero;fill:#000;fill-opacity:1"/><path d="m46.202 88.546 11.551 22.132" style="fill:none;stroke-width:.79701;stroke-linecap:butt;stroke-linejoin:miter;stroke:#000;stroke-opacity:1;stroke-miterlimit:10" transform="matrix(1 0 0 -1 80.821 173.28)"/><use xlink:href="#n" x="118.773" y="69.95" style="fill:#000;fill-opacity:1"/><use xlink:href="#e" x="124.308" y="69.95" style="fill:#000;fill-opacity:1"/><path d="m62.25 34.257 15.562 8.562M104.152 44.292l26.039 11.07M46.202 88.546c6.422-16.688 11.856-35.07 16.047-54.29M57.753 110.682c8.028-20.859 14.82-43.84 20.059-67.859" style="fill:none;stroke-width:.79701;stroke-linecap:butt;stroke-linejoin:miter;stroke:#000;stroke-opacity:1;stroke-miterlimit:10" transform="matrix(1 0 0 -1 80.821 173.28)"/><use xlink:href="#e" x="199.698" y="80.528" style="fill:#000;fill-opacity:1"/><use xlink:href="#n" x="204.47" y="80.528" style="fill:#000;fill-opacity:1"/><use xlink:href="#o" x="210.004" y="80.528" style="fill:#000;fill-opacity:1"/><path d="M96.632 119.99c13.43-19.565 24.793-41.448 33.559-64.624M57.745 110.667c13.563 4.058 26.606 7.176 38.868 9.304M62.245 34.253c15.157 3.93 29.29 7.312 41.895 10.035M77.804 42.82c18.95 4.905 36.613 9.136 52.371 12.538" style="fill:none;stroke-width:.79701;stroke-linecap:butt;stroke-linejoin:miter;stroke:#000;stroke-opacity:1;stroke-miterlimit:10" transform="matrix(1 0 0 -1 80.821 173.28)"/></svg>