<svg data-optimized="true" xmlns="http://www.w3.org/2000/svg" xmlns:xlink="http://www.w3.org/1999/xlink" width="184.745" height="210.891" viewBox="0 0 138.559 158.168"><defs><symbol id="b" overflow="visible"><path d="M5.36-5.937c-.141.14-.47.421-.47.593 0 .094.094.203.188.203s.14-.078.203-.14c.11-.14.344-.422.782-.64.062-.048.171-.095.171-.204 0-.11-.078-.156-.14-.203a1.03 1.03 0 0 1-.407-.563c-.03-.093-.062-.234-.203-.234-.14 0-.203.14-.203.219 0 .047.078.36.235.578h-3.36c-.156 0-.344 0-.344.203 0 .188.188.188.344.188Zm0 0" style="stroke:none"/></symbol><symbol id="c" overflow="visible"><path d="M3.484-.562c.11.406.47.671.891.671.344 0 .578-.234.734-.546.172-.36.297-.97.297-.985 0-.11-.078-.11-.11-.11-.109 0-.109.048-.14.188-.14.563-.328 1.235-.75 1.235-.203 0-.312-.125-.312-.453 0-.22.125-.688.203-1.047l.281-1.078c.031-.141.125-.516.172-.672.047-.235.14-.61.14-.672 0-.172-.14-.266-.28-.266-.048 0-.313.016-.391.344a419 419 0 0 0-.75 3c-.016.047-.406.844-1.14.844-.517 0-.61-.453-.61-.813 0-.562.281-1.344.531-2.031.125-.313.172-.453.172-.64 0-.438-.313-.813-.813-.813-.953 0-1.312 1.453-1.312 1.531 0 .11.094.11.11.11.109 0 .109-.032.156-.188.25-.86.64-1.235 1.015-1.235.094 0 .25.016.25.329 0 .234-.11.53-.172.672-.375 1-.578 1.609-.578 2.093C1.078-.14 1.766.11 2.297.11c.656 0 1.015-.453 1.187-.671m0 0" style="stroke:none"/></symbol><symbol id="g" overflow="visible"><path d="M3.734-6.125c.063-.234.094-.328.282-.36.093-.015.406-.015.609-.015.703 0 1.813 0 1.813.984 0 .344-.157 1.032-.547 1.422-.266.25-.782.578-1.688.578h-1.11Zm1.438 2.734c1.016-.218 2.187-.921 2.187-1.921 0-.86-.89-1.5-2.203-1.5H2.328c-.203 0-.297 0-.297.203 0 .109.094.109.281.109.016 0 .204 0 .376.016.187.03.265.03.265.172 0 .03 0 .062-.031.187L1.578-.781c-.094.39-.11.469-.906.469-.172 0-.266 0-.266.203C.406 0 .531 0 .546 0c.282 0 .985-.031 1.25-.031.282 0 1 .031 1.282.031.078 0 .188 0 .188-.203 0-.11-.079-.11-.282-.11-.359 0-.64 0-.64-.171 0-.063.015-.11.031-.172l.656-2.64H4.22c.906 0 1.078.562 1.078.905 0 .141-.078.454-.14.688-.063.281-.157.64-.157.844C5 .219 6.203.219 6.328.219c.844 0 1.203-1 1.203-1.14 0-.126-.11-.126-.125-.126-.093 0-.11.063-.125.14-.25.735-.687.907-.906.907-.328 0-.406-.219-.406-.61 0-.312.062-.812.11-1.14a5 5 0 0 0 .03-.469c0-.765-.671-1.078-.937-1.172m0 0" style="stroke:none"/></symbol><symbol id="l" overflow="visible"><path d="M4.844-3.797c.047-.14.047-.156.047-.234 0-.172-.141-.266-.297-.266a.46.46 0 0 0-.344.203c-.016.063-.11.36-.14.547-.079.25-.141.531-.204.797L3.453-.953c-.031.14-.469.844-1.125.844-.5 0-.61-.438-.61-.813 0-.453.173-1.078.5-1.953.157-.406.204-.516.204-.719 0-.437-.313-.812-.813-.812-.953 0-1.312 1.453-1.312 1.531 0 .11.094.11.11.11.109 0 .109-.032.156-.188.28-.938.671-1.235 1.015-1.235.078 0 .25 0 .25.313 0 .25-.11.516-.172.703-.406 1.063-.578 1.625-.578 2.094 0 .89.625 1.187 1.219 1.187.39 0 .719-.171 1-.453-.125.516-.25 1.016-.64 1.547-.266.328-.641.625-1.094.625-.141 0-.594-.031-.766-.422.156 0 .297 0 .422-.125a.5.5 0 0 0 .203-.406c0-.312-.266-.344-.36-.344C.829.531.5.687.5 1.171c0 .5.438.876 1.063.876 1.015 0 2.046-.906 2.328-2.031Zm0 0" style="stroke:none"/></symbol><symbol id="m" overflow="visible"><path d="M1.328-.828c.531-.578.828-.828 1.188-1.14 0 0 .609-.532.968-.891.954-.922 1.172-1.407 1.172-1.453 0-.094-.093-.094-.11-.094-.077 0-.093.015-.155.11-.297.484-.5.64-.735.64-.25 0-.36-.156-.515-.328-.188-.22-.36-.422-.688-.422-.75 0-1.203.922-1.203 1.14 0 .047.031.11.11.11.093 0 .109-.047.14-.11.188-.468.766-.468.844-.468.203 0 .39.062.625.14.406.156.515.156.765.156-.359.422-1.187 1.141-1.375 1.297l-.906.844C.781-.625.422-.062.422.016c0 .093.11.093.125.093C.625.11.64.094.703-.016c.235-.359.531-.625.86-.625.218 0 .328.094.578.375.156.22.343.375.625.375 1 0 1.578-1.265 1.578-1.53 0-.048-.047-.11-.125-.11-.094 0-.11.062-.14.14-.235.641-.876.829-1.204.829-.187 0-.375-.063-.578-.125-.344-.125-.5-.172-.703-.172-.016 0-.172 0-.266.03m0 0" style="stroke:none"/></symbol><symbol id="n" overflow="visible"><path d="M3.328-3.016c.063-.25.297-1.171.985-1.171.046 0 .296 0 .5.125a.58.58 0 0 0-.47.546c0 .157.11.344.376.344a.546.546 0 0 0 .531-.578c0-.516-.578-.656-.922-.656-.578 0-.922.531-1.047.75-.25-.656-.781-.75-1.078-.75-1.031 0-1.61 1.281-1.61 1.531 0 .11.11.11.126.11.078 0 .11-.032.125-.11.344-1.062 1-1.312 1.344-1.312.187 0 .53.093.53.671 0 .313-.171.97-.53 2.375-.157.61-.516 1.032-.954 1.032-.062 0-.28 0-.5-.125.25-.063.47-.266.47-.547 0-.266-.22-.344-.36-.344-.313 0-.547.25-.547.578 0 .453.484.656.922.656.672 0 1.031-.703 1.047-.75.125.36.484.75 1.078.75 1.031 0 1.594-1.28 1.594-1.53 0-.11-.079-.11-.11-.11-.094 0-.11.047-.14.11-.329 1.077-1 1.312-1.313 1.312-.39 0-.547-.313-.547-.657 0-.218.047-.437.156-.875Zm0 0" style="stroke:none"/></symbol><symbol id="o" overflow="visible"><path d="M4.531-4.984c0-.657-.172-2.047-1.187-2.047-1.39 0-2.922 2.812-2.922 5.094C.422-1 .703.108 1.609.108c1.407 0 2.922-2.859 2.922-5.093M1.47-3.625c.172-.625.375-1.422.781-2.14.266-.485.625-1.048 1.078-1.048.485 0 .547.641.547 1.204 0 .5-.078 1-.312 1.984Zm2 .328c-.11.453-.313 1.297-.703 2.016-.344.687-.72 1.172-1.157 1.172-.328 0-.53-.297-.53-1.22 0-.421.062-1 .312-1.968Zm0 0" style="stroke:none"/></symbol><symbol id="d" overflow="visible"><path d="M.516.844c-.047.203-.063.25-.328.25-.094 0-.188 0-.188.156 0 .078.063.11.094.11.172 0 .406-.032.594-.032.234 0 .5.031.734.031.062 0 .14-.03.14-.156 0-.11-.093-.11-.187-.11-.156 0-.344 0-.344-.077 0-.032.063-.22.078-.313.094-.375.188-.75.266-1.047.078.14.297.407.719.407.844 0 1.781-.938 1.781-1.97 0-.812-.562-1.171-1.031-1.171-.438 0-.813.297-1 .5-.11-.406-.5-.5-.719-.5-.266 0-.437.187-.547.375A2.6 2.6 0 0 0 .328-2c0 .078.094.078.125.078.094 0 .094-.016.14-.203.11-.406.25-.75.516-.75.188 0 .235.156.235.344a.7.7 0 0 1-.032.203Zm1.328-3.078c.406-.547.75-.641.968-.641.282 0 .516.203.516.672 0 .281-.156 1-.36 1.406-.187.344-.515.672-.874.672-.5 0-.625-.531-.625-.61 0-.03.015-.078.015-.109Zm0 0" style="stroke:none"/></symbol><symbol id="i" overflow="visible"><path d="M1.64-1.406c0-.047.173-.672.173-.703.015-.063.218-.407.453-.578a.9.9 0 0 1 .562-.188.7.7 0 0 1 .375.094.41.41 0 0 0-.297.39c0 .141.11.25.266.25.172 0 .39-.125.39-.421 0-.36-.374-.516-.734-.516s-.672.156-.984.5c-.125-.422-.547-.5-.719-.5-.25 0-.422.172-.547.36A2.4 2.4 0 0 0 .328-2c0 .078.094.078.125.078.094 0 .094-.016.14-.203.11-.422.25-.75.516-.75.188 0 .235.156.235.344 0 .125-.063.39-.125.578-.047.187-.11.469-.14.625l-.235.89C.828-.343.78-.171.78-.156c0 .156.125.219.235.219s.25-.063.297-.188c.015-.047.093-.36.14-.531Zm0 0" style="stroke:none"/></symbol><symbol id="j" overflow="visible"><path d="M1.563-1.594c.187 0 .75-.015 1.125-.14.515-.188.609-.516.609-.72 0-.39-.39-.624-.86-.624-.843 0-1.968.64-1.968 1.844 0 .703.437 1.297 1.25 1.297 1.187 0 1.734-.688 1.734-.782 0-.047-.062-.125-.125-.125-.031 0-.047.016-.11.078-.546.641-1.359.641-1.484.641-.421 0-.703-.281-.703-.844 0-.094 0-.234.094-.625Zm-.391-.187c.297-1.016 1.062-1.094 1.266-1.094.296 0 .562.156.562.422 0 .672-1.187.672-1.484.672Zm0 0" style="stroke:none"/></symbol><symbol id="k" overflow="visible"><path d="M1.719-2.75h.703c.14 0 .219 0 .219-.156C2.64-3 2.562-3 2.438-3H1.78l.25-1.031a.3.3 0 0 0 .031-.094c0-.14-.109-.234-.25-.234-.171 0-.265.125-.328.297-.046.187.047-.157-.265 1.062H.516c-.125 0-.22 0-.22.156 0 .094.079.094.204.094h.656L.75-1.11c-.047.173-.11.423-.11.516 0 .407.36.657.75.657.782 0 1.22-.97 1.22-1.063 0-.094-.094-.094-.11-.094-.094 0-.094.016-.156.14-.188.438-.547.829-.922.829-.156 0-.25-.094-.25-.344 0-.062.031-.219.047-.281Zm0 0" style="stroke:none"/></symbol><symbol id="q" overflow="visible"><path d="M3.703-1.86c0-.765-.578-1.218-1.265-1.218-1.032 0-2 .969-2 1.922 0 .703.5 1.219 1.265 1.219 1 0 2-.907 2-1.922m-2 1.735c-.344 0-.687-.219-.687-.781 0-.281.125-.969.406-1.36.297-.437.703-.609 1.016-.609.374 0 .687.25.687.766 0 .172-.078.859-.39 1.343-.266.422-.672.641-1.032.641m0 0" style="stroke:none"/></symbol><symbol id="h" overflow="visible"><path d="M2.016-3.297c.062-.11.062-.172.062-.219 0-.218-.187-.375-.406-.375-.266 0-.344.22-.375.329L.375-.547a.3.3 0 0 0-.047.11c0 .078.219.156.281.156.047 0 .047-.016.094-.125Zm0 0" style="stroke:none"/></symbol><clipPath id="a"><path d="M0 0h138.559v158.168H0Zm0 0"/></clipPath><clipPath id="e"><path d="M134 19h4.559v5H134Zm0 0"/></clipPath><clipPath id="f"><path d="M26 138h22v20.168H26Zm0 0"/></clipPath><clipPath id="p"><path d="M26 13h112.559v145.168H26Zm0 0"/></clipPath><clipPath id="r"><path d="M31 15h107.559v41H31Zm0 0"/></clipPath></defs><g clip-path="url(#a)"><path d="M0 158.168h138.559V0H0Zm0 0" style="stroke:none;fill-rule:nonzero;fill:#ffe4c8;fill-opacity:1"/></g><path d="M0 51.025v9.21" style="fill:none;stroke-width:.79701;stroke-linecap:butt;stroke-linejoin:miter;stroke:#00f;stroke-opacity:1;stroke-miterlimit:10" transform="matrix(1 0 0 -1 37.355 148.798)"/><path d="M-1.554 2.074C-1.425 1.296 0 .128.387 0 .001-.13-1.425-1.293-1.554-2.07" style="fill:none;stroke-width:.6376;stroke-linecap:round;stroke-linejoin:round;stroke:#00f;stroke-opacity:1;stroke-miterlimit:10" transform="matrix(0 -1 -1 0 37.355 91.141)"/><path d="M-1.552 2.074C-1.424 1.296-.002.128.388 0c-.39-.13-1.812-1.293-1.94-2.07" style="fill:none;stroke-width:.6376;stroke-linecap:round;stroke-linejoin:round;stroke:#00f;stroke-opacity:1;stroke-miterlimit:10" transform="matrix(0 -1 -1 0 37.355 88.56)"/><use xlink:href="#b" x="40.945" y="94.948" style="fill:#00f;fill-opacity:1"/><use xlink:href="#c" x="41.075" y="94.948" style="fill:#00f;fill-opacity:1"/><use xlink:href="#d" x="46.777" y="96.442" style="fill:#00f;fill-opacity:1"/><path d="M0 99.212v13.469" style="fill:none;stroke-width:.79701;stroke-linecap:butt;stroke-linejoin:miter;stroke:#00f;stroke-opacity:1;stroke-miterlimit:10" transform="matrix(1 0 0 -1 37.355 148.798)"/><path d="M-1.556 2.074C-1.423 1.296 0 .128.39 0c-.391-.13-1.813-1.293-1.946-2.07" style="fill:none;stroke-width:.6376;stroke-linecap:round;stroke-linejoin:round;stroke:#00f;stroke-opacity:1;stroke-miterlimit:10" transform="matrix(0 -1 -1 0 37.355 38.698)"/><path d="M-1.554 2.074C-1.425 1.296 0 .128.387 0 .001-.13-1.425-1.293-1.554-2.07" style="fill:none;stroke-width:.6376;stroke-linecap:round;stroke-linejoin:round;stroke:#00f;stroke-opacity:1;stroke-miterlimit:10" transform="matrix(0 -1 -1 0 37.355 36.118)"/><use xlink:href="#b" x="23.199" y="37.546" style="fill:#00f;fill-opacity:1"/><use xlink:href="#c" x="23.329" y="37.546" style="fill:#00f;fill-opacity:1"/><use xlink:href="#d" x="29.031" y="39.04" style="fill:#00f;fill-opacity:1"/><g clip-path="url(#e)"><path d="M138.563 21.238a1.994 1.994 0 0 0-3.989 0 1.994 1.994 0 0 0 3.988 0m0 0" style="stroke:none;fill-rule:nonzero;fill:#000;fill-opacity:1"/></g><path d="M42.336 49.586a4.98 4.98 0 0 0-4.98-4.984 4.982 4.982 0 0 0 0 9.964 4.98 4.98 0 0 0 4.98-4.98m0 0" style="stroke:none;fill-rule:nonzero;fill:#00f;fill-opacity:1"/><path d="M42.336 148.797a4.981 4.981 0 0 0-9.961 0 4.98 4.98 0 0 0 4.98 4.984c2.75 0 4.98-2.23 4.98-4.984m0 0" style="stroke:none;fill-rule:nonzero;fill:#ccc;fill-opacity:1"/><g clip-path="url(#f)"><path d="M4.98.001a4.981 4.981 0 0 1-9.96 0A4.98 4.98 0 0 1 0-4.983c2.75 0 4.98 2.23 4.98 4.984Zm0 0" style="fill:none;stroke-width:.3985;stroke-linecap:butt;stroke-linejoin:miter;stroke:#ccc;stroke-opacity:1;stroke-miterlimit:10" transform="matrix(1 0 0 -1 37.355 148.798)"/></g><use xlink:href="#b" x="47.792" y="149.866" style="fill:gray;fill-opacity:1"/><use xlink:href="#g" x="46.398" y="152.385" style="fill:gray;fill-opacity:1"/><use xlink:href="#h" x="54.039" y="148.769" style="fill:gray;fill-opacity:1"/><use xlink:href="#i" x="53.962" y="154.847" style="fill:gray;fill-opacity:1"/><g style="fill:gray;fill-opacity:1"><use xlink:href="#j" x="57.877" y="154.847"/><use xlink:href="#k" x="61.657" y="154.847"/></g><path d="M0 99.212h41.813" style="fill:none;stroke-width:.79701;stroke-linecap:butt;stroke-linejoin:miter;stroke:#000;stroke-opacity:1;stroke-miterlimit:10" transform="matrix(1 0 0 -1 37.355 148.798)"/><path d="M-1.555 2.073C-1.426 1.296 0 .128.39-.001 0-.131-1.426-1.294-1.555-2.071" style="fill:none;stroke-width:.6376;stroke-linecap:round;stroke-linejoin:round;stroke:#000;stroke-opacity:1;stroke-miterlimit:10" transform="matrix(1 0 0 -1 79.168 49.585)"/><use xlink:href="#l" x="75.856" y="60.795" style="fill:#000;fill-opacity:1"/><use xlink:href="#h" x="81.098" y="57.179" style="fill:#000;fill-opacity:1"/><path d="M0 99.212v41.816" style="fill:none;stroke-width:.79701;stroke-linecap:butt;stroke-linejoin:miter;stroke:#000;stroke-opacity:1;stroke-miterlimit:10" transform="matrix(1 0 0 -1 37.355 148.798)"/><path d="M-1.553 2.074C-1.424 1.296.002.128.39 0 .002-.13-1.424-1.293-1.553-2.07" style="fill:none;stroke-width:.6376;stroke-linecap:round;stroke-linejoin:round;stroke:#000;stroke-opacity:1;stroke-miterlimit:10" transform="matrix(0 -1 -1 0 37.355 7.771)"/><use xlink:href="#m" x="41.074" y="10.811" style="fill:#000;fill-opacity:1"/><use xlink:href="#h" x="46.145" y="7.195" style="fill:#000;fill-opacity:1"/><path d="m0 99.212-21.328-21.324" style="fill:none;stroke-width:.79701;stroke-linecap:butt;stroke-linejoin:miter;stroke:#000;stroke-opacity:1;stroke-miterlimit:10" transform="matrix(1 0 0 -1 37.355 148.798)"/><path d="M-1.555 2.073C-1.425 1.297.001.13.39 0 0-.129-1.425-1.294-1.555-2.07" style="fill:none;stroke-width:.6376;stroke-linecap:round;stroke-linejoin:round;stroke:#000;stroke-opacity:1;stroke-miterlimit:10" transform="scale(-1 1)rotate(45 -93.612 16.107)"/><use xlink:href="#n" x="3.321" y="67.693" style="fill:#000;fill-opacity:1"/><use xlink:href="#h" x="9.014" y="64.078" style="fill:#000;fill-opacity:1"/><use xlink:href="#o" x="41.984" y="128.449" style="fill:#000;fill-opacity:1"/><use xlink:href="#h" x="46.938" y="124.833" style="fill:#000;fill-opacity:1"/><path d="M0 35.435c8.153 3.222 16.668.383 21.02-6.7" style="fill:none;stroke-width:.3985;stroke-linecap:butt;stroke-linejoin:miter;stroke:#000;stroke-opacity:1;stroke-miterlimit:10" transform="matrix(1 0 0 -1 37.355 148.798)"/><path d="M-1.197 1.594C-1.097.996 0 .102.3 0 0-.1-1.096-.995-1.194-1.595" style="fill:none;stroke-width:.31879;stroke-linecap:round;stroke-linejoin:round;stroke:#000;stroke-opacity:1;stroke-miterlimit:10" transform="matrix(.52344 .85199 .85199 -.52344 58.374 120.061)"/><path d="M0 .001v92.836" style="fill:none;stroke-width:.79701;stroke-linecap:butt;stroke-linejoin:miter;stroke:#00f;stroke-opacity:1;stroke-dasharray:.79701,1.99255;stroke-miterlimit:10" transform="matrix(1 0 0 -1 37.355 148.798)"/><path d="M-1.555 2.074C-1.426 1.296 0 .128.39 0 0-.13-1.426-1.293-1.555-2.07" style="fill:none;stroke-width:.6376;stroke-linecap:round;stroke-linejoin:round;stroke:#00f;stroke-opacity:1;stroke-miterlimit:10" transform="matrix(0 -1 -1 0 37.355 55.96)"/><g clip-path="url(#p)"><path d="m0 .001 95.946 124.164" style="fill:none;stroke-width:.79701;stroke-linecap:butt;stroke-linejoin:miter;stroke:red;stroke-opacity:1;stroke-dasharray:.79701,1.99255;stroke-miterlimit:10" transform="matrix(1 0 0 -1 37.355 148.798)"/></g><path d="M-1.554 2.072C-1.422 1.295.002.13.389 0c-.39-.128-1.815-1.294-1.945-2.07" style="fill:none;stroke-width:.6376;stroke-linecap:round;stroke-linejoin:round;stroke:red;stroke-opacity:1;stroke-miterlimit:10" transform="scale(.99995 -.99995)rotate(52.305 91.736 123.425)"/><use xlink:href="#b" x="90.656" y="86.826" style="fill:red;fill-opacity:1"/><use xlink:href="#g" x="89.262" y="89.344" style="fill:red;fill-opacity:1"/><use xlink:href="#h" x="96.904" y="85.729" style="fill:red;fill-opacity:1"/><g style="fill:red;fill-opacity:1"><use xlink:href="#d" x="96.827" y="91.807"/><use xlink:href="#i" x="100.934" y="91.807"/></g><g style="fill:red;fill-opacity:1"><use xlink:href="#q" x="104.849" y="91.807"/><use xlink:href="#d" x="108.781" y="91.807"/></g><g clip-path="url(#r)"><path d="m0 99.212 95.938 28.219" style="fill:none;stroke-width:.3985;stroke-linecap:butt;stroke-linejoin:miter;stroke:#000;stroke-opacity:1;stroke-miterlimit:10" transform="matrix(1 0 0 -1 37.355 148.798)"/></g><path d="M-1.197 1.594C-1.097.994 0 .098.3-.002c-.302-.099-1.396-.995-1.494-1.593" style="fill:none;stroke-width:.31879;stroke-linecap:round;stroke-linejoin:round;stroke:#000;stroke-opacity:1;stroke-miterlimit:10" transform="scale(.99995 -.99995)rotate(16.389 140.846 452.155)"/><use xlink:href="#b" x="83.379" y="29.375" style="fill:#000;fill-opacity:1"/><use xlink:href="#g" x="81.985" y="31.893" style="fill:#000;fill-opacity:1"/><use xlink:href="#h" x="89.627" y="28.278" style="fill:#000;fill-opacity:1"/></svg>