<svg xmlns="http://www.w3.org/2000/svg" xmlns:xlink="http://www.w3.org/1999/xlink" width="402.827" height="259.716" viewBox="0 0 302.12 194.787"><defs><symbol id="b" overflow="visible"><path d="M2.047-3.984h.937c.204 0 .313 0 .313-.203 0-.11-.11-.11-.281-.11H2.14c.359-1.422.406-1.61.406-1.672 0-.172-.125-.265-.297-.265-.031 0-.312 0-.39.359l-.391 1.578H.53c-.203 0-.297 0-.297.188 0 .125.078.125.282.125h.875C.67-1.156.625-.984.625-.812c0 .546.375.921.922.921 1.016 0 1.578-1.453 1.578-1.53 0-.11-.078-.11-.11-.11-.093 0-.109.031-.156.14C2.438-.344 1.906-.109 1.563-.109c-.204 0-.313-.125-.313-.453 0-.25.031-.313.063-.485Zm0 0" style="stroke:none"/></symbol><symbol id="j" overflow="visible"><path d="M3.328-3.016c.063-.25.297-1.171.985-1.171.046 0 .296 0 .5.125a.58.58 0 0 0-.47.546c0 .157.11.344.376.344a.546.546 0 0 0 .531-.578c0-.516-.578-.656-.922-.656-.578 0-.922.531-1.047.75-.25-.656-.781-.75-1.078-.75-1.031 0-1.61 1.281-1.61 1.531 0 .11.11.11.126.11.078 0 .11-.032.125-.11.344-1.062 1-1.312 1.344-1.312.187 0 .53.093.53.671 0 .313-.171.97-.53 2.375-.157.61-.516 1.032-.954 1.032-.062 0-.28 0-.5-.125.25-.063.47-.266.47-.547 0-.266-.22-.344-.36-.344-.313 0-.547.25-.547.578 0 .453.484.656.922.656.672 0 1.031-.703 1.047-.75.125.36.484.75 1.078.75 1.031 0 1.594-1.28 1.594-1.53 0-.11-.079-.11-.11-.11-.094 0-.11.047-.14.11-.329 1.077-1 1.312-1.313 1.312-.39 0-.547-.313-.547-.657 0-.218.047-.437.156-.875Zm0 0" style="stroke:none"/></symbol><symbol id="k" overflow="visible"><path d="M1.328-.828c.531-.578.828-.828 1.188-1.14 0 0 .609-.532.968-.891.954-.922 1.172-1.407 1.172-1.453 0-.094-.093-.094-.11-.094-.077 0-.093.015-.155.11-.297.484-.5.64-.735.64-.25 0-.36-.156-.515-.328-.188-.22-.36-.422-.688-.422-.75 0-1.203.922-1.203 1.14 0 .047.031.11.11.11.093 0 .109-.047.14-.11.188-.468.766-.468.844-.468.203 0 .39.062.625.14.406.156.515.156.765.156-.359.422-1.187 1.141-1.375 1.297l-.906.844C.781-.625.422-.062.422.016c0 .093.11.093.125.093C.625.11.64.094.703-.016c.235-.359.531-.625.86-.625.218 0 .328.094.578.375.156.22.343.375.625.375 1 0 1.578-1.265 1.578-1.53 0-.048-.047-.11-.125-.11-.094 0-.11.062-.14.14-.235.641-.876.829-1.204.829-.187 0-.375-.063-.578-.125-.344-.125-.5-.172-.703-.172-.016 0-.172 0-.266.03m0 0" style="stroke:none"/></symbol><symbol id="l" overflow="visible"><path d="M4.844-3.797c.047-.14.047-.156.047-.234 0-.172-.141-.266-.297-.266a.46.46 0 0 0-.344.203c-.016.063-.11.36-.14.547-.079.25-.141.531-.204.797L3.453-.953c-.031.14-.469.844-1.125.844-.5 0-.61-.438-.61-.813 0-.453.173-1.078.5-1.953.157-.406.204-.516.204-.719 0-.437-.313-.812-.813-.812-.953 0-1.312 1.453-1.312 1.531 0 .11.094.11.11.11.109 0 .109-.032.156-.188.28-.938.671-1.235 1.015-1.235.078 0 .25 0 .25.313 0 .25-.11.516-.172.703-.406 1.063-.578 1.625-.578 2.094 0 .89.625 1.187 1.219 1.187.39 0 .719-.171 1-.453-.125.516-.25 1.016-.64 1.547-.266.328-.641.625-1.094.625-.141 0-.594-.031-.766-.422.156 0 .297 0 .422-.125a.5.5 0 0 0 .203-.406c0-.312-.266-.344-.36-.344C.829.531.5.687.5 1.171c0 .5.438.876 1.063.876 1.015 0 2.046-.906 2.328-2.031Zm0 0" style="stroke:none"/></symbol><symbol id="n" overflow="visible"><path d="M4.672-3.703c0-.547-.266-.703-.438-.703-.25 0-.5.265-.5.484 0 .125.047.188.157.297.218.203.343.453.343.813 0 .421-.609 2.703-1.765 2.703-.516 0-.75-.344-.75-.875 0-.547.281-1.282.578-2.11.078-.172.125-.312.125-.5 0-.437-.313-.812-.813-.812-.937 0-1.312 1.453-1.312 1.531 0 .11.094.11.11.11.109 0 .109-.032.156-.188.296-1 .718-1.235 1.015-1.235.078 0 .25 0 .25.313 0 .25-.11.531-.172.703-.437 1.156-.562 1.61-.562 2.047 0 1.078.875 1.234 1.328 1.234 1.672 0 2.25-3.296 2.25-3.812m0 0" style="stroke:none"/></symbol><symbol id="o" overflow="visible"><path d="M6.734-2.266c.11-.062.188-.109.188-.234 0-.11-.078-.156-.188-.219l-5.53-2.593c-.126-.079-.141-.079-.173-.079a.207.207 0 0 0-.203.204c0 .093.047.156.188.218L6.25-2.5 1.016-.016C.875.047.828.11.828.204c0 .109.094.202.203.202.032 0 .047 0 .172-.078Zm0 0" style="stroke:none"/></symbol><symbol id="c" overflow="visible"><path d="M2.016-3.297c.062-.11.062-.172.062-.219 0-.218-.187-.375-.406-.375-.266 0-.344.22-.375.329L.375-.547a.3.3 0 0 0-.047.11c0 .078.219.156.281.156.047 0 .047-.016.094-.125Zm0 0" style="stroke:none"/></symbol><symbol id="d" overflow="visible"><path d="M6.844-3.266c.156 0 .343 0 .343-.187 0-.203-.187-.203-.328-.203H.891c-.141 0-.328 0-.328.203 0 .187.187.187.328.187Zm.015 1.938c.141 0 .329 0 .329-.203 0-.188-.188-.188-.344-.188H.89c-.141 0-.328 0-.328.188 0 .203.187.203.328.203Zm0 0" style="stroke:none"/></symbol><symbol id="e" overflow="visible"><path d="M4.578-3.187c0-.797-.047-1.594-.39-2.329C3.734-6.484 2.906-6.64 2.5-6.64c-.61 0-1.328.266-1.75 1.188-.312.687-.36 1.469-.36 2.266 0 .75.032 1.64.454 2.406a1.83 1.83 0 0 0 1.64 1c.532 0 1.297-.203 1.735-1.156.312-.688.36-1.47.36-2.25M2.484 0c-.39 0-.984-.25-1.156-1.203-.11-.594-.11-1.516-.11-2.11 0-.64 0-1.296.079-1.828.187-1.187.937-1.28 1.187-1.28.329 0 .985.187 1.172 1.171.11.563.11 1.313.11 1.938 0 .75 0 1.421-.11 2.062C3.5-.297 2.937 0 2.484 0m0 0" style="stroke:none"/></symbol><symbol id="f" overflow="visible"><path d="M7.875-5.828c.219-.094.234-.172.234-.25a.214.214 0 0 0-.218-.219c-.032 0-.032.016-.203.078l-6.47 2.985c-.218.093-.234.172-.234.25s0 .156.235.265L7.688.25c.156.078.171.078.203.078A.214.214 0 0 0 8.109.11c0-.078-.015-.156-.234-.25L1.719-2.969Zm0 0" style="stroke:none"/></symbol><symbol id="g" overflow="visible"><path d="M7.594-8.312c0-.11-.094-.11-.11-.11-.046 0-.062.016-.203.203-.078.078-.562.703-.578.719-.39-.781-1.187-.922-1.687-.922-1.516 0-2.891 1.39-2.891 2.75 0 .89.547 1.422 1.125 1.625.125.047.844.234 1.203.313.61.172.766.218 1.016.484.047.063.281.328.281.89 0 1.11-1.031 2.266-2.219 2.266-.984 0-2.078-.422-2.078-1.765 0-.22.047-.5.094-.625v-.125c0-.047-.016-.11-.11-.11-.109 0-.125.031-.171.235L.656-.031S.61.125.61.14C.61.25.703.25.734.25.781.25.781.234.938.063l.546-.72c.282.423.907.907 2.016.907 1.547 0 2.953-1.5 2.953-2.984 0-.5-.125-.953-.578-1.391-.25-.25-.453-.312-1.562-.594-.797-.218-.907-.25-1.125-.437-.204-.203-.36-.5-.36-.907 0-1 1.016-2.03 2.156-2.03 1.172 0 1.72.718 1.72 1.859 0 .312-.063.625-.063.672 0 .109.093.109.14.109.11 0 .11-.031.157-.219Zm0 0" style="stroke:none"/></symbol><symbol id="i" overflow="visible"><path d="M7.875-2.719c.234-.11.234-.187.234-.265s-.015-.157-.234-.25L1.406-6.22c-.156-.062-.172-.078-.203-.078-.14 0-.219.11-.219.219 0 .14.094.187.25.25l6.141 2.844L1.219-.141C.984-.03.984.047.984.125a.21.21 0 0 0 .22.203c.03 0 .046 0 .202-.078Zm0 0" style="stroke:none"/></symbol><symbol id="h" overflow="visible"><path d="M2.11-3.781c.046-.094.078-.156.078-.235 0-.265-.25-.437-.47-.437-.312 0-.405.281-.437.39L.266-.624C.234-.531.234-.515.234-.5c0 .063.047.078.125.11.157.062.172.062.188.062.015 0 .062 0 .125-.14Zm0 0" style="stroke:none"/></symbol><symbol id="m" overflow="visible"><path d="M6.563-2.297c.171 0 .359 0 .359-.203 0-.187-.188-.187-.36-.187h-5.39c-.172 0-.344 0-.344.187 0 .203.172.203.344.203Zm0 0" style="stroke:none"/></symbol><clipPath id="a"><path d="M0 0h302.121v194.785H0Zm0 0"/></clipPath></defs><g clip-path="url(#a)"><path d="M0 194.785h302.121V0H0Zm0 0" style="stroke:none;fill-rule:nonzero;fill:#ffe4c8;fill-opacity:1"/></g><use xlink:href="#b" x="76.794" y="11.608" style="fill:#000;fill-opacity:1"/><use xlink:href="#c" x="80.392" y="7.992" style="fill:#000;fill-opacity:1"/><use xlink:href="#d" x="85.954" y="11.608" style="fill:#000;fill-opacity:1"/><use xlink:href="#e" x="96.473" y="11.608" style="fill:#000;fill-opacity:1"/><use xlink:href="#f" x="3.321" y="12.086" style="fill:#000;fill-opacity:1"/><use xlink:href="#g" x="15.75" y="12.086" style="fill:#000;fill-opacity:1"/><use xlink:href="#h" x="23.641" y="7.748" style="fill:#000;fill-opacity:1"/><use xlink:href="#i" x="29.757" y="12.086" style="fill:#000;fill-opacity:1"/><path d="M-17.01 0h84.336" style="fill:none;stroke-width:.79701;stroke-linecap:butt;stroke-linejoin:miter;stroke:#000;stroke-opacity:1;stroke-miterlimit:10" transform="matrix(1 0 0 -1 89.123 92.902)"/><path d="M-1.554 2.074C-1.424 1.297.001.129.388 0 0-.13-1.425-1.293-1.554-2.07" style="fill:none;stroke-width:.6376;stroke-linecap:round;stroke-linejoin:round;stroke:#000;stroke-opacity:1;stroke-miterlimit:10" transform="matrix(1 0 0 -1 156.448 92.902)"/><use xlink:href="#j" x="144.947" y="104.111" style="fill:#000;fill-opacity:1"/><use xlink:href="#c" x="150.641" y="100.495" style="fill:#000;fill-opacity:1"/><path d="M-.002-17.008v84.332" style="fill:none;stroke-width:.79701;stroke-linecap:butt;stroke-linejoin:miter;stroke:#000;stroke-opacity:1;stroke-miterlimit:10" transform="matrix(1 0 0 -1 89.123 92.902)"/><path d="M-1.556 2.072C-1.423 1.295-.001.131.389.002 0-.131-1.423-1.295-1.556-2.072" style="fill:none;stroke-width:.6376;stroke-linecap:round;stroke-linejoin:round;stroke:#000;stroke-opacity:1;stroke-miterlimit:10" transform="matrix(0 -1 -1 0 89.123 25.577)"/><use xlink:href="#k" x="92.842" y="36.079" style="fill:#000;fill-opacity:1"/><use xlink:href="#c" x="97.913" y="32.464" style="fill:#000;fill-opacity:1"/><path d="M-9.822-9.82 32.24 32.241" style="fill:none;stroke-width:.79701;stroke-linecap:butt;stroke-linejoin:miter;stroke:#000;stroke-opacity:1;stroke-miterlimit:10" transform="matrix(1 0 0 -1 89.123 92.902)"/><path d="M-1.556 2.073C-1.424 1.293-.001.13.388 0c-.39-.13-1.814-1.295-1.941-2.074" style="fill:none;stroke-width:.6376;stroke-linecap:round;stroke-linejoin:round;stroke:#000;stroke-opacity:1;stroke-miterlimit:10" transform="scale(1 -1)rotate(45 133.908 116.168)"/><use xlink:href="#l" x="117.844" y="54.506" style="fill:#000;fill-opacity:1"/><use xlink:href="#c" x="123.086" y="50.891" style="fill:#000;fill-opacity:1"/><path d="M-17.01 0h50.317" style="fill:none;stroke-width:.79701;stroke-linecap:butt;stroke-linejoin:miter;stroke:gray;stroke-opacity:1;stroke-dasharray:2.98883,2.98883;stroke-miterlimit:10" transform="matrix(1 0 0 -1 89.123 92.902)"/><path d="M-1.552 2.074C-1.423 1.297-.002.129.389 0c-.39-.13-1.812-1.293-1.941-2.07" style="fill:none;stroke-width:.6376;stroke-linecap:round;stroke-linejoin:round;stroke:gray;stroke-opacity:1;stroke-miterlimit:10" transform="matrix(1 0 0 -1 122.431 92.902)"/><use xlink:href="#j" x="113.725" y="100.91" style="fill:gray;fill-opacity:1"/><path d="M-.002-17.008v50.316" style="fill:none;stroke-width:.79701;stroke-linecap:butt;stroke-linejoin:miter;stroke:gray;stroke-opacity:1;stroke-dasharray:2.98883,2.98883;stroke-miterlimit:10" transform="matrix(1 0 0 -1 89.123 92.902)"/><path d="M-1.555 2.072C-1.425 1.295 0 .131.387.002 0-.131-1.426-1.295-1.555-2.072" style="fill:none;stroke-width:.6376;stroke-linecap:round;stroke-linejoin:round;stroke:gray;stroke-opacity:1;stroke-miterlimit:10" transform="matrix(0 -1 -1 0 89.123 59.594)"/><use xlink:href="#k" x="92.842" y="55.168" style="fill:gray;fill-opacity:1"/><path d="m-9.822-9.82 25.691 25.69" style="fill:none;stroke-width:.79701;stroke-linecap:butt;stroke-linejoin:miter;stroke:gray;stroke-opacity:1;stroke-dasharray:2.98883,2.98883;stroke-miterlimit:10" transform="matrix(1 0 0 -1 89.123 92.902)"/><path d="M-1.552 2.073C-1.425 1.293 0 .128.387 0 0-.13-1.425-1.297-1.555-2.073" style="fill:none;stroke-width:.6376;stroke-linecap:round;stroke-linejoin:round;stroke:gray;stroke-opacity:1;stroke-miterlimit:10" transform="scale(1 -1)rotate(45 145.484 88.222)"/><use xlink:href="#l" x="102.872" y="70.876" style="fill:gray;fill-opacity:1"/><path d="M-12.756 0v-18" style="fill:none;stroke-width:.79701;stroke-linecap:butt;stroke-linejoin:miter;stroke:gray;stroke-opacity:1;stroke-miterlimit:10" transform="matrix(1 0 0 -1 89.123 92.902)"/><path d="M-1.554 2.074C-1.424 1.297.001.129.388 0 0-.13-1.425-1.293-1.554-2.07" style="fill:none;stroke-width:.6376;stroke-linecap:round;stroke-linejoin:round;stroke:gray;stroke-opacity:1;stroke-miterlimit:10" transform="matrix(0 1 1 0 76.367 108.323)"/><path d="M-1.556 2.074C-1.423 1.297 0 .129.39 0 0-.13-1.423-1.293-1.556-2.07" style="fill:none;stroke-width:.6376;stroke-linecap:round;stroke-linejoin:round;stroke:gray;stroke-opacity:1;stroke-miterlimit:10" transform="matrix(0 1 1 0 76.367 110.904)"/><use xlink:href="#m" x="59.713" y="114.101" style="fill:gray;fill-opacity:1"/><use xlink:href="#n" x="67.462" y="114.101" style="fill:gray;fill-opacity:1"/><path d="M146.191 58.887a1.793 1.793 0 1 0-3.586 0 1.793 1.793 0 0 0 3.586 0M290.762 58.887a1.793 1.793 0 1 0-3.586 0 1.793 1.793 0 0 0 3.586 0m0 0" style="stroke:none;fill-rule:nonzero;fill:red;fill-opacity:1"/><use xlink:href="#b" x="221.361" y="11.413" style="fill:#000;fill-opacity:1"/><use xlink:href="#c" x="224.958" y="7.797" style="fill:#000;fill-opacity:1"/><use xlink:href="#o" x="230.521" y="11.413" style="fill:#000;fill-opacity:1"/><use xlink:href="#e" x="241.037" y="11.413" style="fill:#000;fill-opacity:1"/><path d="M127.56 0h84.333" style="fill:none;stroke-width:.79701;stroke-linecap:butt;stroke-linejoin:miter;stroke:#000;stroke-opacity:1;stroke-miterlimit:10" transform="matrix(1 0 0 -1 89.123 92.902)"/><path d="M-1.556 2.074C-1.423 1.297 0 .129.39 0c-.391-.13-1.813-1.293-1.946-2.07" style="fill:none;stroke-width:.6376;stroke-linecap:round;stroke-linejoin:round;stroke:#000;stroke-opacity:1;stroke-miterlimit:10" transform="matrix(1 0 0 -1 301.017 92.902)"/><use xlink:href="#j" x="289.513" y="104.111" style="fill:#000;fill-opacity:1"/><use xlink:href="#c" x="295.207" y="100.495" style="fill:#000;fill-opacity:1"/><path d="M144.568-17.008v84.332" style="fill:none;stroke-width:.79701;stroke-linecap:butt;stroke-linejoin:miter;stroke:#000;stroke-opacity:1;stroke-miterlimit:10" transform="matrix(1 0 0 -1 89.123 92.902)"/><path d="M-1.556 2.07C-1.423 1.297-.001.13.389 0 0-.129-1.423-1.297-1.556-2.07" style="fill:none;stroke-width:.6376;stroke-linecap:round;stroke-linejoin:round;stroke:#000;stroke-opacity:1;stroke-miterlimit:10" transform="matrix(0 -1 -1 0 233.691 25.577)"/><use xlink:href="#k" x="237.409" y="36.079" style="fill:#000;fill-opacity:1"/><use xlink:href="#c" x="242.48" y="32.464" style="fill:#000;fill-opacity:1"/><path d="m134.748-9.82 42.059 42.062" style="fill:none;stroke-width:.79701;stroke-linecap:butt;stroke-linejoin:miter;stroke:#000;stroke-opacity:1;stroke-miterlimit:10" transform="matrix(1 0 0 -1 89.123 92.902)"/><path d="M-1.555 2.071C-1.425 1.295 0 .13.39 0 0-.13-1.425-1.296-1.555-2.072" style="fill:none;stroke-width:.6376;stroke-linecap:round;stroke-linejoin:round;stroke:#000;stroke-opacity:1;stroke-miterlimit:10" transform="scale(1 -1)rotate(45 206.193 290.68)"/><use xlink:href="#l" x="262.411" y="54.506" style="fill:#000;fill-opacity:1"/><use xlink:href="#c" x="267.653" y="50.891" style="fill:#000;fill-opacity:1"/><path d="M127.56-76.535h58.82" style="fill:none;stroke-width:.79701;stroke-linecap:butt;stroke-linejoin:miter;stroke:gray;stroke-opacity:1;stroke-dasharray:2.98883,2.98883;stroke-miterlimit:10" transform="matrix(1 0 0 -1 89.123 92.902)"/><path d="M-1.555 2.07C-1.426 1.294 0 .13.39 0 0-.129-1.426-1.297-1.555-2.074" style="fill:none;stroke-width:.6376;stroke-linecap:round;stroke-linejoin:round;stroke:gray;stroke-opacity:1;stroke-miterlimit:10" transform="matrix(1 0 0 -1 275.504 169.438)"/><use xlink:href="#j" x="266.796" y="177.445" style="fill:gray;fill-opacity:1"/><path d="M144.568-93.543v58.82" style="fill:none;stroke-width:.79701;stroke-linecap:butt;stroke-linejoin:miter;stroke:gray;stroke-opacity:1;stroke-dasharray:2.98883,2.98883;stroke-miterlimit:10" transform="matrix(1 0 0 -1 89.123 92.902)"/><path d="M-1.555 2.07C-1.425 1.297 0 .13.387 0 0-.129-1.426-1.297-1.555-2.07" style="fill:none;stroke-width:.6376;stroke-linecap:round;stroke-linejoin:round;stroke:gray;stroke-opacity:1;stroke-miterlimit:10" transform="matrix(0 -1 -1 0 233.691 127.625)"/><use xlink:href="#k" x="237.409" y="129.062" style="fill:gray;fill-opacity:1"/><path d="m134.748-86.36 35.512 35.516" style="fill:none;stroke-width:.79701;stroke-linecap:butt;stroke-linejoin:miter;stroke:gray;stroke-opacity:1;stroke-dasharray:2.98883,2.98883;stroke-miterlimit:10" transform="matrix(1 0 0 -1 89.123 92.902)"/><path d="M-1.553 2.072C-1.423 1.296 0 .127.387 0c-.385-.13-1.81-1.295-1.94-2.071" style="fill:none;stroke-width:.6376;stroke-linecap:round;stroke-linejoin:round;stroke:gray;stroke-opacity:1;stroke-miterlimit:10" transform="scale(1 -1)rotate(45 303.211 241.233)"/><use xlink:href="#l" x="257.26" y="137.589" style="fill:gray;fill-opacity:1"/><path d="M131.815-76.535V-94.54" style="fill:none;stroke-width:.79701;stroke-linecap:butt;stroke-linejoin:miter;stroke:gray;stroke-opacity:1;stroke-miterlimit:10" transform="matrix(1 0 0 -1 89.123 92.902)"/><path d="M-1.554 2.072C-1.426 1.295 0 .13.387.002 0-.131-1.426-1.295-1.554-2.073" style="fill:none;stroke-width:.6376;stroke-linecap:round;stroke-linejoin:round;stroke:gray;stroke-opacity:1;stroke-miterlimit:10" transform="matrix(0 1 1 0 220.936 184.86)"/><path d="M-1.553 2.072C-1.423 1.295.002.13.39.002.002-.131-1.424-1.295-1.553-2.073" style="fill:none;stroke-width:.6376;stroke-linecap:round;stroke-linejoin:round;stroke:gray;stroke-opacity:1;stroke-miterlimit:10" transform="matrix(0 1 1 0 220.936 187.44)"/><use xlink:href="#m" x="204.28" y="190.636" style="fill:gray;fill-opacity:1"/><use xlink:href="#n" x="212.029" y="190.636" style="fill:gray;fill-opacity:1"/></svg>