<svg xmlns="http://www.w3.org/2000/svg" xmlns:xlink="http://www.w3.org/1999/xlink" width="199.797" height="260.392" viewBox="0 0 149.848 195.294"><defs><clipPath id="a"><path d="M0 0h149.848v195.293H0Zm0 0"/></clipPath><clipPath id="b"><path d="M134 62h15.848v32H134Zm0 0"/></clipPath><clipPath id="c"><path d="M128 56h21.848v44H128Zm0 0"/></clipPath><clipPath id="d"><path d="M40 179h17v16.293H40Zm0 0"/></clipPath><clipPath id="e"><path d="M34 173h28v22.293H34Zm0 0"/></clipPath><clipPath id="f"><path d="M134 117h15.848v32H134Zm0 0"/></clipPath><clipPath id="g"><path d="M128 111h21.848v43H128Zm0 0"/></clipPath><clipPath id="l"><path d="M27 113h122.848v82.293H27Zm0 0"/></clipPath><clipPath id="m"><path d="M30 58h119.848v96H30Zm0 0"/></clipPath><symbol id="h" overflow="visible"><path d="M2.578-6.812s0-.11-.14-.11c-.22 0-.954.078-1.22.11-.077 0-.187.015-.187.203 0 .109.11.109.25.109.485 0 .5.094.5.172l-.031.203L.484-1.141a1 1 0 0 0-.046.329.89.89 0 0 0 .906.921c.328 0 .578-.203.75-.562.172-.375.297-.953.297-.969 0-.11-.094-.11-.125-.11-.094 0-.11.048-.125.188-.172.64-.36 1.235-.766 1.235-.297 0-.297-.313-.297-.453 0-.25.016-.297.063-.485Zm0 0" style="stroke:none"/></symbol><symbol id="o" overflow="visible"><path d="M3.734-6.031c.079-.36.11-.469 1.047-.469.297 0 .375 0 .375-.187 0-.125-.11-.125-.156-.125-.328 0-1.14.03-1.469.03-.297 0-1.031-.03-1.328-.03-.062 0-.187 0-.187.203 0 .109.093.109.28.109.017 0 .204 0 .376.016.172.03.265.03.265.172 0 .03 0 .062-.03.187L1.562-.781c-.094.39-.11.469-.907.469-.172 0-.265 0-.265.203C.39 0 .484 0 .656 0h4.625c.235 0 .235 0 .297-.172l.797-2.156c.031-.11.031-.125.031-.14 0-.032-.031-.11-.11-.11-.093 0-.109.062-.171.219-.344.906-.781 2.047-2.5 2.047H2.468c-.109-.016-.14-.032-.14-.11 0-.031 0-.047.047-.219Zm0 0" style="stroke:none"/></symbol><symbol id="p" overflow="visible"><path d="M3.484-.562c.11.406.47.671.891.671.344 0 .578-.234.734-.546.172-.36.297-.97.297-.985 0-.11-.078-.11-.11-.11-.109 0-.109.048-.14.188-.14.563-.328 1.235-.75 1.235-.203 0-.312-.125-.312-.453 0-.22.125-.688.203-1.047l.281-1.078c.031-.141.125-.516.172-.672.047-.235.14-.61.14-.672 0-.172-.14-.266-.28-.266-.048 0-.313.016-.391.344a419 419 0 0 0-.75 3c-.016.047-.406.844-1.14.844-.517 0-.61-.453-.61-.813 0-.562.281-1.344.531-2.031.125-.313.172-.453.172-.64 0-.438-.313-.813-.813-.813-.953 0-1.312 1.453-1.312 1.531 0 .11.094.11.11.11.109 0 .109-.032.156-.188.25-.86.64-1.235 1.015-1.235.094 0 .25.016.25.329 0 .234-.11.53-.172.672-.375 1-.578 1.609-.578 2.093C1.078-.14 1.766.11 2.297.11c.656 0 1.015-.453 1.187-.671m0 0" style="stroke:none"/></symbol><symbol id="i" overflow="visible"><path d="M2.016-3.297c.062-.11.062-.172.062-.219 0-.218-.187-.375-.406-.375-.266 0-.344.22-.375.329L.375-.547a.3.3 0 0 0-.047.11c0 .078.219.156.281.156.047 0 .047-.016.094-.125Zm0 0" style="stroke:none"/></symbol><symbol id="j" overflow="visible"><path d="M2.328-4.437c0-.188 0-.188-.203-.188-.453.438-1.078.438-1.36.438v.25c.157 0 .626 0 1-.188v3.547c0 .234 0 .328-.687.328H.812V0c.125 0 .985-.031 1.235-.031.219 0 1.094.031 1.25.031v-.25H3.03c-.703 0-.703-.094-.703-.328Zm0 0" style="stroke:none"/></symbol><symbol id="k" overflow="visible"><path d="M3.516-1.266H3.28c-.015.157-.094.563-.187.625-.047.047-.578.047-.688.047H1.125c.734-.64.984-.843 1.39-1.172.516-.406 1-.843 1-1.5 0-.843-.734-1.359-1.624-1.359-.86 0-1.453.61-1.453 1.25 0 .344.296.39.375.39.156 0 .359-.124.359-.374 0-.125-.047-.375-.406-.375.218-.485.687-.641 1.015-.641.703 0 1.063.547 1.063 1.11 0 .609-.438 1.078-.656 1.328L.516-.266C.437-.203.437-.187.437 0h2.876Zm0 0" style="stroke:none"/></symbol><symbol id="n" overflow="visible"><path d="M4.406-6.953c-.062-.14-.093-.188-.265-.188-.157 0-.188.047-.25.188L.516-.203c-.047.094-.047.11-.047.125C.469 0 .53 0 .688 0h6.921c.157 0 .22 0 .22-.078 0-.016 0-.031-.048-.125Zm-.578.812L6.516-.75H1.14Zm0 0" style="stroke:none"/></symbol></defs><g clip-path="url(#a)"><path d="M0 195.293h149.848V0H0Zm0 0" style="stroke:none;fill-rule:nonzero;fill:#ffe4c8;fill-opacity:1"/></g><path d="M7.795 0A7.79 7.79 0 0 1 .002 7.795 7.793 7.793 0 0 1-7.795 0a7.795 7.795 0 1 1 15.59 0Zm0 0" style="fill-rule:nonzero;fill:#ff8000;fill-opacity:1;stroke-width:.3985;stroke-linecap:butt;stroke-linejoin:miter;stroke:#000;stroke-opacity:1;stroke-miterlimit:10" transform="matrix(1 0 0 -1 48.303 78.157)"/><g clip-path="url(#b)"><path d="M149.648 78.156c0-8.61-3.488-15.59-7.793-15.59s-7.796 6.98-7.796 15.59c0 8.614 3.492 15.59 7.796 15.59s7.793-6.976 7.793-15.59m0 0" style="stroke:none;fill-rule:nonzero;fill:gray;fill-opacity:1"/></g><g clip-path="url(#c)"><path d="M101.345 0c0 8.61-3.488 15.59-7.793 15.59S85.756 8.61 85.756 0c0-8.613 3.492-15.59 7.796-15.59s7.793 6.977 7.793 15.59Zm0 0" style="fill:none;stroke-width:.3985;stroke-linecap:butt;stroke-linejoin:miter;stroke:#000;stroke-opacity:1;stroke-miterlimit:10" transform="matrix(1 0 0 -1 48.303 78.157)"/></g><path d="M15.592 70.165c0 4.304-6.98 7.793-15.59 7.793-8.614 0-15.594-3.489-15.594-7.793s6.98-7.797 15.594-7.797c8.61 0 15.59 3.492 15.59 7.797Zm0 0" style="fill-rule:nonzero;fill:gray;fill-opacity:1;stroke-width:.3985;stroke-linecap:butt;stroke-linejoin:miter;stroke:#000;stroke-opacity:1;stroke-miterlimit:10" transform="matrix(1 0 0 -1 48.303 78.157)"/><g clip-path="url(#d)"><path d="M56.098 187.3a7.795 7.795 0 1 0-15.59 0 7.795 7.795 0 1 0 15.59 0m0 0" style="stroke:none;fill-rule:nonzero;fill:#ff8000;fill-opacity:.1"/></g><g clip-path="url(#e)"><path d="M7.795-109.144a7.795 7.795 0 1 1-15.59 0 7.795 7.795 0 1 1 15.59 0Zm0 0" style="fill:none;stroke-width:.3985;stroke-linecap:butt;stroke-linejoin:miter;stroke:gray;stroke-opacity:1;stroke-dasharray:2.98883,2.98883;stroke-miterlimit:10" transform="matrix(1 0 0 -1 48.303 78.157)"/></g><g clip-path="url(#f)"><path d="M149.648 132.73c0-8.613-3.488-15.593-7.793-15.593s-7.796 6.98-7.796 15.593c0 8.61 3.492 15.59 7.796 15.59s7.793-6.98 7.793-15.59m0 0" style="stroke:none;fill-rule:nonzero;fill:gray;fill-opacity:.1"/></g><g clip-path="url(#g)"><path d="M101.345-54.573c0 8.613-3.488 15.593-7.793 15.593s-7.796-6.98-7.796-15.593c0-8.61 3.492-15.59 7.796-15.59s7.793 6.98 7.793 15.59Zm0 0" style="fill:none;stroke-width:.3985;stroke-linecap:butt;stroke-linejoin:miter;stroke:gray;stroke-opacity:1;stroke-dasharray:2.98883,2.98883;stroke-miterlimit:10" transform="matrix(1 0 0 -1 48.303 78.157)"/></g><path d="M15.592 46.774c0 4.309-6.98 7.797-15.59 7.797-8.614 0-15.594-3.488-15.594-7.797 0-4.305 6.98-7.793 15.594-7.793 8.61 0 15.59 3.488 15.59 7.793Zm0 0" style="fill-rule:nonzero;fill:gray;fill-opacity:.1;stroke-width:.3985;stroke-linecap:butt;stroke-linejoin:miter;stroke:gray;stroke-opacity:1;stroke-dasharray:2.98883,2.98883;stroke-miterlimit:10" transform="matrix(1 0 0 -1 48.303 78.157)"/><path d="M-2.338-109.144V43.137" style="fill:none;stroke-width:1.49442;stroke-linecap:butt;stroke-linejoin:miter;stroke:red;stroke-opacity:1;stroke-dasharray:2.98883,2.98883;stroke-miterlimit:10" transform="matrix(1 0 0 -1 48.303 78.157)"/><path d="m45.965 31.383-2.91 5.816 2.91-2.18 2.91 2.18" style="stroke:none;fill-rule:nonzero;fill:red;fill-opacity:1"/><use xlink:href="#h" x="34.455" y="111.849" style="fill:red;fill-opacity:1"/><use xlink:href="#i" x="37.623" y="108.234" style="fill:red;fill-opacity:1"/><use xlink:href="#j" x="37.427" y="114.322" style="fill:red;fill-opacity:1"/><path d="M2.338 46.774V3.637" style="fill:none;stroke-width:1.49442;stroke-linecap:butt;stroke-linejoin:miter;stroke:red;stroke-opacity:1;stroke-dasharray:2.98883,2.98883;stroke-miterlimit:10" transform="matrix(1 0 0 -1 48.303 78.157)"/><path d="m50.64 78.156 2.91-5.816-2.91 2.18-2.91-2.18" style="stroke:none;fill-rule:nonzero;fill:red;fill-opacity:1"/><use xlink:href="#h" x="54.709" y="57.278" style="fill:red;fill-opacity:1"/><use xlink:href="#i" x="57.878" y="53.663" style="fill:red;fill-opacity:1"/><use xlink:href="#k" x="57.682" y="59.751" style="fill:red;fill-opacity:1"/><g clip-path="url(#l)"><path d="m.002-109.144 90.41 52.739" style="fill:none;stroke-width:1.49442;stroke-linecap:butt;stroke-linejoin:miter;stroke:red;stroke-opacity:1;stroke-dasharray:2.98883,2.98883;stroke-miterlimit:10" transform="matrix(1 0 0 -1 48.303 78.157)"/></g><path d="m141.855 132.73-6.492.418 3.352 1.415-.422 3.609" style="stroke:none;fill-rule:nonzero;fill:red;fill-opacity:1"/><g clip-path="url(#m)"><path d="M93.552-54.573 3.142-1.831" style="fill:none;stroke-width:1.49442;stroke-linecap:butt;stroke-linejoin:miter;stroke:red;stroke-opacity:1;stroke-dasharray:2.98883,2.98883;stroke-miterlimit:10" transform="matrix(1 0 0 -1 48.303 78.157)"/></g><path d="m48.305 78.156 3.558 5.446-.418-3.614 3.348-1.414" style="stroke:none;fill-rule:nonzero;fill:red;fill-opacity:1"/><path d="M-23.385.708v68.75" style="fill:none;stroke-width:.79701;stroke-linecap:butt;stroke-linejoin:miter;stroke:#000;stroke-opacity:1;stroke-miterlimit:10" transform="matrix(1 0 0 -1 48.303 78.157)"/><path d="M-1.555 2.072C-1.426 1.294 0 .13.39.002 0-.129-1.426-1.297-1.555-2.074" style="fill:none;stroke-width:.6376;stroke-linecap:round;stroke-linejoin:round;stroke:#000;stroke-opacity:1;stroke-miterlimit:10" transform="matrix(0 1 1 0 24.917 77.45)"/><path d="M-1.553 2.073C-1.424 1.296.002.128.388-.001c-.386-.13-1.812-1.293-1.941-2.07" style="fill:none;stroke-width:.6376;stroke-linecap:round;stroke-linejoin:round;stroke:#000;stroke-opacity:1;stroke-miterlimit:10" transform="matrix(0 -1 -1 0 24.917 8.7)"/><use xlink:href="#n" x="3.321" y="46.821" style="fill:#000;fill-opacity:1"/><use xlink:href="#o" x="11.623" y="46.821" style="fill:#000;fill-opacity:1"/><use xlink:href="#i" x="18.403" y="43.206" style="fill:#000;fill-opacity:1"/><path d="M46.771 62.364v6.652" style="fill:none;stroke-width:1.49442;stroke-linecap:butt;stroke-linejoin:miter;stroke:#000;stroke-opacity:1;stroke-miterlimit:10" transform="matrix(1 0 0 -1 48.303 78.157)"/><path d="M-2.183 2.908C-1.999 1.818.001.18.544 0 0-.182-2-1.819-2.183-2.909" style="fill:none;stroke-width:1.19553;stroke-linecap:round;stroke-linejoin:round;stroke:#000;stroke-opacity:1;stroke-miterlimit:10" transform="matrix(0 -1 -1 0 95.075 9.142)"/><use xlink:href="#p" x="99.143" y="14.042" style="fill:#000;fill-opacity:1"/></svg>