<svg xmlns="http://www.w3.org/2000/svg" xmlns:xlink="http://www.w3.org/1999/xlink" width="200.51" height="291.3" viewBox="0 0 150.38 218.47"><desc>A figure created by Phy-Hub, for The Handbook of Special Relativity</desc><defs><symbol id="c" overflow="visible"><path d="M1.33-.83c.53-.58.83-.83 1.19-1.14 0 0 .6-.53.96-.89.96-.92 1.18-1.4 1.18-1.45 0-.1-.1-.1-.11-.1-.08 0-.1.02-.16.11-.3.49-.5.64-.73.64-.25 0-.36-.15-.52-.32-.19-.22-.36-.43-.69-.43-.75 0-1.2.93-1.2 1.14q0 .1.1.11c.1 0 .12-.04.15-.1.19-.47.77-.47.84-.47q.3.01.63.14c.4.15.51.15.76.15a16 16 0 0 1-1.37 1.3l-.9.84A5 5 0 0 0 .41.02C.42.1.53.1.55.1Q.64.13.7-.02c.24-.35.53-.62.86-.62.22 0 .33.1.58.37.16.22.34.38.63.38 1 0 1.57-1.27 1.57-1.53q0-.1-.12-.11c-.1 0-.11.06-.14.14-.24.64-.88.83-1.2.83Q2.59-.57 2.3-.7c-.35-.12-.5-.17-.7-.17-.02 0-.18 0-.27.03m0 0" style="stroke:none"/></symbol><symbol id="g" overflow="visible"><path d="M7.17-6.56q.03-.07.03-.16c0-.1-.04-.1-.25-.1h-4.2c-.23 0-.25.02-.31.21l-.55 1.8-.03.14s0 .1.12.1c.1 0 .11-.07.13-.1C2.5-5.84 3-6.5 4.56-6.5H6.2L.63-.27l-.05.18c0 .09.06.09.25.09h4.33c.25 0 .25-.02.3-.2l.73-2.2.03-.15q.01-.1-.13-.1c-.09 0-.1.02-.17.24C5.48-1.06 5-.34 3.32-.34H1.6Zm0 0" style="stroke:none"/></symbol><symbol id="d" overflow="visible"><path d="M2.84-2.75h.68c.14 0 .23 0 .23-.16 0-.09-.1-.09-.22-.09H2.9c.16-.9.2-1.2.27-1.4.03-.16.18-.3.36-.3 0 0 .18 0 .32.08-.3.09-.3.34-.3.37 0 .16.12.27.27.27a.4.4 0 0 0 .4-.43c0-.32-.33-.5-.7-.5a1 1 0 0 0-.84.52c-.14.26-.19.58-.34 1.39h-.55c-.14 0-.23 0-.23.16 0 .09.1.09.22.09h.51c0 .05-.44 2.55-.6 3.3-.04.15-.16.67-.5.67 0 0-.16 0-.3-.08.28-.1.3-.34.3-.37C1.19.6 1.07.5.92.5a.4.4 0 0 0-.4.42c0 .31.33.5.68.5.44 0 .75-.45.83-.6.25-.48.42-1.34.43-1.41Zm0 0" style="stroke:none"/></symbol><symbol id="e" overflow="visible"><path d="m1.84-4.62.03-.11q0-.1-.12-.11c-.14 0-.72.06-.9.07-.04 0-.15.02-.15.16 0 .1.11.1.2.1.32 0 .32.06.32.1s-.06.33-.11.49l-.16.64L.5-1.42q-.06.24-.05.34C.45-.38.91.06 1.48.06c.88 0 1.8-.93 1.8-1.97 0-.8-.56-1.17-1.05-1.17-.35 0-.67.2-.87.4Zm-.36 4.5c-.32 0-.53-.3-.53-.72 0-.25.07-.49.27-1.28.03-.13.03-.15.17-.3.27-.3.58-.46.83-.46.26 0 .5.2.5.68 0 .28-.14 1-.36 1.4-.17.35-.52.68-.88.68m0 0" style="stroke:none"/></symbol><symbol id="f" overflow="visible"><path d="M4.4-6.95c-.06-.14-.09-.2-.26-.2-.16 0-.19.06-.25.2L.52-.2l-.05.12c0 .08.06.08.22.08H7.6c.16 0 .22 0 .22-.08q.01 0-.05-.12Zm-.57.8 2.69 5.4H1.14Zm0 0" style="stroke:none"/></symbol><clipPath id="a"><path d="M134 85h16.38v33H134Zm0 0"/></clipPath><clipPath id="b"><path d="M128 80h22.38v43H128Zm0 0"/></clipPath></defs><path d="M0 218.48h150.38V0H0Zm0 0" style="stroke:none;fill-rule:nonzero;fill:#ffe4c8;fill-opacity:1"/><path d="M7.8 0A7.8 7.8 0 1 1-7.8 0 7.8 7.8 0 0 1 7.8 0Zm0 0" style="fill-rule:nonzero;fill:#ff8000;fill-opacity:1;stroke-width:.3985;stroke-linecap:butt;stroke-linejoin:miter;stroke:#000;stroke-opacity:1;stroke-miterlimit:10" transform="matrix(1 0 0 -1 48.84 101.55)"/><g clip-path="url(#a)"><path d="M150.18 101.55c0-8.62-3.48-15.6-7.8-15.6-4.3 0-7.79 6.98-7.79 15.6 0 8.6 3.5 15.59 7.8 15.59s7.8-6.98 7.8-15.6m0 0" style="stroke:none;fill-rule:nonzero;fill:gray;fill-opacity:1"/></g><g clip-path="url(#b)"><path d="M101.35 0c0 8.61-3.5 15.6-7.8 15.6S85.75 8.6 85.75 0s3.5-15.6 7.8-15.6 7.8 6.99 7.8 15.6Zm0 0" style="fill:none;stroke-width:.3985;stroke-linecap:butt;stroke-linejoin:miter;stroke:#000;stroke-opacity:1;stroke-miterlimit:10" transform="matrix(1 0 0 -1 48.84 101.55)"/></g><path d="M15.6 93.55c0 4.3-6.99 7.8-15.6 7.8s-15.6-3.5-15.6-7.8 6.99-7.8 15.6-7.8 15.6 3.5 15.6 7.8Zm0 0" style="fill-rule:nonzero;fill:gray;fill-opacity:1;stroke-width:.3985;stroke-linecap:butt;stroke-linejoin:miter;stroke:#000;stroke-opacity:1;stroke-miterlimit:10" transform="matrix(1 0 0 -1 48.84 101.55)"/><path d="M0-2.34h89.9" style="fill:none;stroke-width:1.49442;stroke-linecap:butt;stroke-linejoin:miter;stroke:red;stroke-opacity:1;stroke-dasharray:2.98883,2.98883;stroke-miterlimit:10" transform="matrix(1 0 0 -1 48.84 101.55)"/><path d="m142.38 103.88-5.82-2.9 2.19 2.9-2.19 2.91" style="stroke:none;fill-rule:nonzero;fill:red;fill-opacity:1"/><path d="M93.55 2.34H3.64" style="fill:none;stroke-width:1.49442;stroke-linecap:butt;stroke-linejoin:miter;stroke:red;stroke-opacity:1;stroke-dasharray:2.98883,2.98883;stroke-miterlimit:10" transform="matrix(1 0 0 -1 48.84 101.55)"/><path d="m48.84 99.2 5.82 2.92-2.19-2.91 2.19-2.91" style="stroke:none;fill-rule:nonzero;fill:red;fill-opacity:1"/><path d="M-2.34 0v89.9" style="fill:none;stroke-width:1.49442;stroke-linecap:butt;stroke-linejoin:miter;stroke:red;stroke-opacity:1;stroke-dasharray:2.98883,2.98883;stroke-miterlimit:10" transform="matrix(1 0 0 -1 48.84 101.55)"/><path d="m46.5 8-2.91 5.82 2.91-2.18 2.9 2.18" style="stroke:none;fill-rule:nonzero;fill:red;fill-opacity:1"/><use xlink:href="#c" x="32.63" y="55.49" style="fill:red;fill-opacity:1"/><use xlink:href="#d" x="37.27" y="56.99" style="fill:red;fill-opacity:1"/><path d="M2.34 93.55V3.63" style="fill:none;stroke-width:1.49442;stroke-linecap:butt;stroke-linejoin:miter;stroke:red;stroke-opacity:1;stroke-dasharray:2.98883,2.98883;stroke-miterlimit:10" transform="matrix(1 0 0 -1 48.84 101.55)"/><path d="m51.18 101.55 2.9-5.82-2.9 2.18-2.91-2.18" style="stroke:none;fill-rule:nonzero;fill:red;fill-opacity:1"/><use xlink:href="#c" x="55.24" y="56.17" style="fill:red;fill-opacity:1"/><use xlink:href="#e" x="59.88" y="57.66" style="fill:red;fill-opacity:1"/><path d="M-23.39.8v91.95" style="fill:none;stroke-width:.79701;stroke-linecap:butt;stroke-linejoin:miter;stroke:#000;stroke-opacity:1;stroke-miterlimit:10" transform="matrix(1 0 0 -1 48.84 101.55)"/><path d="M-2.55 3.11C-2.08 1.24-1.05.36 0 0c-1.04-.36-2.08-1.24-2.55-3.11" style="fill:none;stroke-width:.79701;stroke-linecap:round;stroke-linejoin:round;stroke:#000;stroke-opacity:1;stroke-miterlimit:10" transform="matrix(0 1 1 0 25.45 101.15)"/><path d="M-2.55 3.11C-2.1 1.24-1.05.36 0 .01c-1.05-.37-2.09-1.25-2.55-3.12" style="fill:none;stroke-width:.79701;stroke-linecap:round;stroke-linejoin:round;stroke:#000;stroke-opacity:1;stroke-miterlimit:10" transform="matrix(0 -1 -1 0 25.45 8.4)"/><use xlink:href="#f" x="5.92" y="58.18" style="fill:#000;fill-opacity:1"/><use xlink:href="#g" x="14.22" y="58.18" style="fill:#000;fill-opacity:1"/></svg>