<svg xmlns="http://www.w3.org/2000/svg" xmlns:xlink="http://www.w3.org/1999/xlink" width="197.05" height="291.3" viewBox="0 0 147.79 218.47"><defs><symbol id="d" overflow="visible"><path d="M1.33-.83c.53-.58.83-.83 1.19-1.14 0 0 .6-.53.96-.89.96-.92 1.18-1.4 1.18-1.45 0-.1-.1-.1-.11-.1-.08 0-.1.02-.16.11-.3.49-.5.64-.73.64-.25 0-.36-.15-.52-.32-.19-.22-.36-.43-.69-.43-.75 0-1.2.93-1.2 1.14q0 .1.1.11c.1 0 .12-.04.15-.1.19-.47.77-.47.84-.47q.3.01.63.14c.4.15.51.15.76.15a16 16 0 0 1-1.37 1.3l-.9.84A5 5 0 0 0 .41.02C.42.1.53.1.55.1Q.64.13.7-.02c.24-.35.53-.62.86-.62.22 0 .33.1.58.37.16.22.34.38.63.38 1 0 1.57-1.27 1.57-1.53q0-.1-.12-.11c-.1 0-.11.06-.14.14-.24.64-.88.83-1.2.83Q2.59-.57 2.3-.7c-.35-.12-.5-.17-.7-.17-.02 0-.18 0-.27.03m0 0" style="stroke:none"/></symbol><symbol id="h" overflow="visible"><path d="M7.17-6.56q.03-.07.03-.16c0-.1-.04-.1-.25-.1h-4.2c-.23 0-.25.02-.31.21l-.55 1.8-.03.14s0 .1.12.1c.1 0 .11-.07.13-.1C2.5-5.84 3-6.5 4.56-6.5H6.2L.63-.27l-.05.18c0 .09.06.09.25.09h4.33c.25 0 .25-.02.3-.2l.73-2.2.03-.15q.01-.1-.13-.1c-.09 0-.1.02-.17.24C5.48-1.06 5-.34 3.32-.34H1.6Zm0 0" style="stroke:none"/></symbol><symbol id="e" overflow="visible"><path d="M2.33-4.44c0-.18 0-.18-.2-.18-.46.43-1.08.43-1.36.43v.25c.15 0 .62 0 1-.19v3.55c0 .24 0 .33-.7.33H.82V0l1.24-.03L3.3 0v-.25h-.27c-.7 0-.7-.1-.7-.33Zm0 0" style="stroke:none"/></symbol><symbol id="f" overflow="visible"><path d="M3.52-1.27h-.24c-.01.16-.1.57-.19.63-.04.05-.57.05-.68.05H1.13c.73-.64.98-.85 1.39-1.18.51-.4 1-.84 1-1.5 0-.84-.74-1.35-1.63-1.35-.86 0-1.45.6-1.45 1.25 0 .34.3.39.37.39.16 0 .36-.13.36-.38 0-.12-.04-.37-.4-.37a1.1 1.1 0 0 1 1.01-.64c.7 0 1.06.54 1.06 1.1 0 .61-.43 1.08-.65 1.33L.52-.27C.44-.2.44-.19.44 0H3.3Zm0 0" style="stroke:none"/></symbol><symbol id="g" overflow="visible"><path d="M4.4-6.95c-.06-.14-.09-.2-.26-.2-.16 0-.19.06-.25.2L.52-.2l-.05.12c0 .08.06.08.22.08H7.6c.16 0 .22 0 .22-.08q.01 0-.05-.12Zm-.57.8 2.69 5.4H1.14Zm0 0" style="stroke:none"/></symbol><clipPath id="a"><path d="M0 0h147.79v218.48H0Zm0 0"/></clipPath><clipPath id="b"><path d="M131 85h16.79v33H131Zm0 0"/></clipPath><clipPath id="c"><path d="M126 80h21.79v43H126Zm0 0"/></clipPath></defs><g clip-path="url(#a)"><path d="M0 218.48h147.79V0H0Zm0 0" style="stroke:none;fill-rule:nonzero;fill:#ffe4c8;fill-opacity:1"/></g><path d="M7.8 0A7.8 7.8 0 1 1-7.8 0 7.8 7.8 0 0 1 7.8 0Zm0 0" style="fill-rule:nonzero;fill:#ff8000;fill-opacity:1;stroke-width:.3985;stroke-linecap:butt;stroke-linejoin:miter;stroke:#000;stroke-opacity:1;stroke-miterlimit:10" transform="matrix(1 0 0 -1 46.24 101.55)"/><g clip-path="url(#b)"><path d="M147.59 101.55c0-8.62-3.5-15.6-7.8-15.6s-7.8 6.98-7.8 15.6c0 8.6 3.5 15.59 7.8 15.59s7.8-6.98 7.8-15.6m0 0" style="stroke:none;fill-rule:nonzero;fill:gray;fill-opacity:1"/></g><g clip-path="url(#c)"><path d="M101.34 0c0 8.61-3.48 15.6-7.79 15.6-4.3 0-7.8-6.99-7.8-15.6s3.5-15.6 7.8-15.6 7.8 6.99 7.8 15.6Zm0 0" style="fill:none;stroke-width:.3985;stroke-linecap:butt;stroke-linejoin:miter;stroke:#000;stroke-opacity:1;stroke-miterlimit:10" transform="matrix(1 0 0 -1 46.24 101.55)"/></g><path d="M15.6 93.55c0 4.3-6.99 7.8-15.6 7.8s-15.6-3.5-15.6-7.8 6.99-7.8 15.6-7.8 15.6 3.5 15.6 7.8Zm0 0" style="fill-rule:nonzero;fill:gray;fill-opacity:1;stroke-width:.3985;stroke-linecap:butt;stroke-linejoin:miter;stroke:#000;stroke-opacity:1;stroke-miterlimit:10" transform="matrix(1 0 0 -1 46.24 101.55)"/><path d="M0-2.34h89.9" style="fill:none;stroke-width:1.49442;stroke-linecap:butt;stroke-linejoin:miter;stroke:red;stroke-opacity:1;stroke-dasharray:2.98883,2.98883;stroke-miterlimit:10" transform="matrix(1 0 0 -1 46.24 101.55)"/><path d="m139.79 103.88-5.82-2.9 2.18 2.9-2.18 2.91" style="stroke:none;fill-rule:nonzero;fill:red;fill-opacity:1"/><path d="M93.54 2.34H3.64" style="fill:none;stroke-width:1.49442;stroke-linecap:butt;stroke-linejoin:miter;stroke:red;stroke-opacity:1;stroke-dasharray:2.98883,2.98883;stroke-miterlimit:10" transform="matrix(1 0 0 -1 46.24 101.55)"/><path d="m46.24 99.2 5.82 2.92-2.18-2.91 2.18-2.91" style="stroke:none;fill-rule:nonzero;fill:red;fill-opacity:1"/><path d="M-2.34 0v89.9" style="fill:none;stroke-width:1.49442;stroke-linecap:butt;stroke-linejoin:miter;stroke:red;stroke-opacity:1;stroke-dasharray:2.98883,2.98883;stroke-miterlimit:10" transform="matrix(1 0 0 -1 46.24 101.55)"/><path d="M43.9 8 41 13.82l2.9-2.18 2.91 2.18" style="stroke:none;fill-rule:nonzero;fill:red;fill-opacity:1"/><use xlink:href="#d" x="30.73" y="56.17" style="fill:red;fill-opacity:1"/><use xlink:href="#e" x="35.37" y="57.66" style="fill:red;fill-opacity:1"/><path d="M2.34 93.55V3.63" style="fill:none;stroke-width:1.49442;stroke-linecap:butt;stroke-linejoin:miter;stroke:red;stroke-opacity:1;stroke-dasharray:2.98883,2.98883;stroke-miterlimit:10" transform="matrix(1 0 0 -1 46.24 101.55)"/><path d="m48.58 101.55 2.9-5.82-2.9 2.18-2.9-2.18" style="stroke:none;fill-rule:nonzero;fill:red;fill-opacity:1"/><use xlink:href="#d" x="52.65" y="56.17" style="fill:red;fill-opacity:1"/><use xlink:href="#f" x="57.28" y="57.66" style="fill:red;fill-opacity:1"/><path d="M-23.39.8v91.95" style="fill:none;stroke-width:.79701;stroke-linecap:butt;stroke-linejoin:miter;stroke:#000;stroke-opacity:1;stroke-miterlimit:10" transform="matrix(1 0 0 -1 46.24 101.55)"/><path d="M-2.55 3.11C-2.08 1.24-1.05.36 0 .01c-1.04-.37-2.08-1.26-2.55-3.12" style="fill:none;stroke-width:.79701;stroke-linecap:round;stroke-linejoin:round;stroke:#000;stroke-opacity:1;stroke-miterlimit:10" transform="matrix(0 1 1 0 22.85 101.15)"/><path d="M-2.55 3.11C-2.1 1.25-1.05.36 0 0c-1.05-.36-2.09-1.24-2.55-3.11" style="fill:none;stroke-width:.79701;stroke-linecap:round;stroke-linejoin:round;stroke:#000;stroke-opacity:1;stroke-miterlimit:10" transform="matrix(0 -1 -1 0 22.85 8.4)"/><use xlink:href="#g" x="3.32" y="58.18" style="fill:#000;fill-opacity:1"/><use xlink:href="#h" x="11.62" y="58.18" style="fill:#000;fill-opacity:1"/></svg>