<svg data-optimized="true" xmlns="http://www.w3.org/2000/svg" xmlns:xlink="http://www.w3.org/1999/xlink" width="196.071" height="291.3" viewBox="0 0 147.053 218.475"><defs><symbol id="b" overflow="visible"><path d="M2.578-6.812s0-.11-.14-.11c-.22 0-.954.078-1.22.11-.077 0-.187.015-.187.203 0 .109.11.109.25.109.485 0 .5.094.5.172l-.031.203L.484-1.141a1 1 0 0 0-.046.329.89.89 0 0 0 .906.921c.328 0 .578-.203.75-.562.172-.375.297-.953.297-.969 0-.11-.094-.11-.125-.11-.094 0-.11.048-.125.188-.172.64-.36 1.235-.766 1.235-.297 0-.297-.313-.297-.453 0-.25.016-.297.063-.485Zm0 0" style="stroke:none"/></symbol><symbol id="f" overflow="visible"><path d="M3.734-6.031c.079-.36.11-.469 1.047-.469.297 0 .375 0 .375-.187 0-.125-.11-.125-.156-.125-.328 0-1.14.03-1.469.03-.297 0-1.031-.03-1.328-.03-.062 0-.187 0-.187.203 0 .109.093.109.28.109.017 0 .204 0 .376.016.172.03.265.03.265.172 0 .03 0 .062-.03.187L1.562-.781c-.094.39-.11.469-.907.469-.172 0-.265 0-.265.203C.39 0 .484 0 .656 0h4.625c.235 0 .235 0 .297-.172l.797-2.156c.031-.11.031-.125.031-.14 0-.032-.031-.11-.11-.11-.093 0-.109.062-.171.219-.344.906-.781 2.047-2.5 2.047H2.468c-.109-.016-.14-.032-.14-.11 0-.031 0-.047.047-.219Zm0 0" style="stroke:none"/></symbol><symbol id="c" overflow="visible"><path d="M2.328-4.437c0-.188 0-.188-.203-.188-.453.438-1.078.438-1.36.438v.25c.157 0 .626 0 1-.188v3.547c0 .234 0 .328-.687.328H.812V0c.125 0 .985-.031 1.235-.031.219 0 1.094.031 1.25.031v-.25H3.03c-.703 0-.703-.094-.703-.328Zm0 0" style="stroke:none"/></symbol><symbol id="d" overflow="visible"><path d="M3.516-1.266H3.28c-.015.157-.094.563-.187.625-.047.047-.578.047-.688.047H1.125c.734-.64.984-.843 1.39-1.172.516-.406 1-.843 1-1.5 0-.843-.734-1.359-1.624-1.359-.86 0-1.453.61-1.453 1.25 0 .344.296.39.375.39.156 0 .359-.124.359-.374 0-.125-.047-.375-.406-.375.218-.485.687-.641 1.015-.641.703 0 1.063.547 1.063 1.11 0 .609-.438 1.078-.656 1.328L.516-.266C.437-.203.437-.187.437 0h2.876Zm0 0" style="stroke:none"/></symbol><symbol id="e" overflow="visible"><path d="M4.406-6.953c-.062-.14-.093-.188-.265-.188-.157 0-.188.047-.25.188L.516-.203c-.047.094-.047.11-.047.125C.469 0 .53 0 .688 0h6.921c.157 0 .22 0 .22-.078 0-.016 0-.031-.048-.125Zm-.578.812L6.516-.75H1.14Zm0 0" style="stroke:none"/></symbol><clipPath id="a"><path d="M125 80h22.055v43H125Zm0 0"/></clipPath></defs><path d="M0 218.477h147.055V0H0Zm0 0" style="stroke:none;fill-rule:nonzero;fill:#ffe4c8;fill-opacity:1"/><path d="M7.797-.002A7.796 7.796 0 0 1 0 7.795a7.795 7.795 0 1 1 0-15.59A7.795 7.795 0 0 1 7.797-.002Zm0 0" style="fill-rule:nonzero;fill:#ff8000;fill-opacity:1;stroke-width:.3985;stroke-linecap:butt;stroke-linejoin:miter;stroke:#000;stroke-opacity:1;stroke-miterlimit:10" transform="matrix(1 0 0 -1 45.508 101.545)"/><path d="M146.855 101.547c0-8.613-3.492-15.594-7.796-15.594s-7.793 6.98-7.793 15.594c0 8.61 3.488 15.59 7.793 15.59s7.796-6.98 7.796-15.59m0 0" style="stroke:none;fill-rule:nonzero;fill:gray;fill-opacity:1"/><g clip-path="url(#a)"><path d="M101.347-.002c0 8.613-3.492 15.594-7.796 15.594s-7.793-6.98-7.793-15.594c0-8.61 3.488-15.59 7.793-15.59s7.796 6.98 7.796 15.59Zm0 0" style="fill:none;stroke-width:.3985;stroke-linecap:butt;stroke-linejoin:miter;stroke:#000;stroke-opacity:1;stroke-miterlimit:10" transform="matrix(1 0 0 -1 45.508 101.545)"/></g><path d="M15.59 93.553c0 4.305-6.98 7.793-15.59 7.793s-15.59-3.489-15.59-7.793c0-4.309 6.98-7.797 15.59-7.797s15.59 3.488 15.59 7.797Zm0 0" style="fill-rule:nonzero;fill:gray;fill-opacity:1;stroke-width:.3985;stroke-linecap:butt;stroke-linejoin:miter;stroke:#000;stroke-opacity:1;stroke-miterlimit:10" transform="matrix(1 0 0 -1 45.508 101.545)"/><path d="M0-2.338h89.91" style="fill:none;stroke-width:1.49442;stroke-linecap:butt;stroke-linejoin:miter;stroke:red;stroke-opacity:1;stroke-dasharray:2.98883,2.98883;stroke-miterlimit:10" transform="matrix(1 0 0 -1 45.508 101.545)"/><path d="m139.055 103.883-5.82-2.91 2.183 2.91-2.184 2.91" style="stroke:none;fill-rule:nonzero;fill:red;fill-opacity:1"/><path d="M93.547 2.338H3.637" style="fill:none;stroke-width:1.49442;stroke-linecap:butt;stroke-linejoin:miter;stroke:red;stroke-opacity:1;stroke-dasharray:2.98883,2.98883;stroke-miterlimit:10" transform="matrix(1 0 0 -1 45.508 101.545)"/><path d="m45.508 99.207 5.82 2.91-2.183-2.91 2.183-2.91" style="stroke:none;fill-rule:nonzero;fill:red;fill-opacity:1"/><path d="M-2.34-.002v89.91" style="fill:none;stroke-width:1.49442;stroke-linecap:butt;stroke-linejoin:miter;stroke:red;stroke-opacity:1;stroke-dasharray:2.98883,2.98883;stroke-miterlimit:10" transform="matrix(1 0 0 -1 45.508 101.545)"/><path d="m43.168 8-2.906 5.816 2.906-2.18 2.91 2.18" style="stroke:none;fill-rule:nonzero;fill:red;fill-opacity:1"/><use xlink:href="#b" x="31.66" y="57.485" style="fill:red;fill-opacity:1"/><use xlink:href="#c" x="34.632" y="58.98" style="fill:red;fill-opacity:1"/><path d="M2.34 93.545V3.635" style="fill:none;stroke-width:1.49442;stroke-linecap:butt;stroke-linejoin:miter;stroke:red;stroke-opacity:1;stroke-dasharray:2.98883,2.98883;stroke-miterlimit:10" transform="matrix(1 0 0 -1 45.508 101.545)"/><path d="m47.848 101.547 2.906-5.82-2.906 2.183-2.91-2.183" style="stroke:none;fill-rule:nonzero;fill:red;fill-opacity:1"/><use xlink:href="#b" x="51.914" y="57.485" style="fill:red;fill-opacity:1"/><use xlink:href="#d" x="54.887" y="58.98" style="fill:red;fill-opacity:1"/><path d="M-23.387.799v91.95" style="fill:none;stroke-width:.79701;stroke-linecap:butt;stroke-linejoin:miter;stroke:#000;stroke-opacity:1;stroke-miterlimit:10" transform="matrix(1 0 0 -1 45.508 101.545)"/><path d="M-2.549 3.113C-2.084 1.245-1.045.363.001-.001c-1.046-.363-2.085-1.242-2.55-3.11" style="fill:none;stroke-width:.79701;stroke-linecap:round;stroke-linejoin:round;stroke:#000;stroke-opacity:1;stroke-miterlimit:10" transform="matrix(0 1 1 0 22.122 101.147)"/><path d="M-2.55 3.11C-2.087 1.243-1.048.364 0 0c-1.047-.363-2.086-1.245-2.55-3.113" style="fill:none;stroke-width:.79701;stroke-linecap:round;stroke-linejoin:round;stroke:#000;stroke-opacity:1;stroke-miterlimit:10" transform="matrix(0 -1 -1 0 22.122 8.399)"/><use xlink:href="#e" x="3.321" y="58.177" style="fill:#000;fill-opacity:1"/><use xlink:href="#f" x="11.623" y="58.177" style="fill:#000;fill-opacity:1"/></svg>