<svg xmlns="http://www.w3.org/2000/svg" xmlns:xlink="http://www.w3.org/1999/xlink" width="200.77" height="260.39" viewBox="0 0 150.58 195.29"><defs><clipPath id="a"><path d="M0 0h150.58v195.3H0Zm0 0"/></clipPath><clipPath id="b"><path d="M134 62h16.58v32H134Zm0 0"/></clipPath><clipPath id="c"><path d="M129 56h21.58v44H129Zm0 0"/></clipPath><clipPath id="d"><path d="M41 179h16v16.3H41Zm0 0"/></clipPath><clipPath id="e"><path d="M35 173h28v22.3H35Zm0 0"/></clipPath><clipPath id="f"><path d="M134 117h16.58v32H134Zm0 0"/></clipPath><clipPath id="g"><path d="M129 111h21.58v43H129Zm0 0"/></clipPath><clipPath id="l"><path d="M27 113h123.58v82.3H27Zm0 0"/></clipPath><clipPath id="m"><path d="M31 58h119.58v96H31Zm0 0"/></clipPath><symbol id="h" overflow="visible"><path d="M1.33-.83c.53-.58.83-.83 1.19-1.14 0 0 .6-.53.96-.89.96-.92 1.18-1.4 1.18-1.45 0-.1-.1-.1-.11-.1-.08 0-.1.02-.16.11-.3.49-.5.64-.73.64-.25 0-.36-.15-.52-.32-.19-.22-.36-.43-.69-.43-.75 0-1.2.93-1.2 1.14q0 .1.1.11c.1 0 .12-.04.15-.1.19-.47.77-.47.84-.47q.3.01.63.14c.4.15.51.15.76.15a16 16 0 0 1-1.37 1.3l-.9.84A5 5 0 0 0 .41.02C.42.1.53.1.55.1Q.64.13.7-.02c.24-.35.53-.62.86-.62.22 0 .33.1.58.37.16.22.34.38.63.38 1 0 1.57-1.27 1.57-1.53q0-.1-.12-.11c-.1 0-.11.06-.14.14-.24.64-.88.83-1.2.83Q2.59-.57 2.3-.7c-.35-.12-.5-.17-.7-.17-.02 0-.18 0-.27.03m0 0" style="stroke:none"/></symbol><symbol id="o" overflow="visible"><path d="M7.17-6.56q.03-.07.03-.16c0-.1-.04-.1-.25-.1h-4.2c-.23 0-.25.02-.31.21l-.55 1.8-.03.14s0 .1.12.1c.1 0 .11-.07.13-.1C2.5-5.84 3-6.5 4.56-6.5H6.2L.63-.27l-.05.18c0 .09.06.09.25.09h4.33c.25 0 .25-.02.3-.2l.73-2.2.03-.15q.01-.1-.13-.1c-.09 0-.1.02-.17.24C5.48-1.06 5-.34 3.32-.34H1.6Zm0 0" style="stroke:none"/></symbol><symbol id="p" overflow="visible"><path d="M3.48-.56c.11.4.47.67.9.67.34 0 .57-.23.73-.55a5 5 0 0 0 .3-.98c0-.11-.08-.11-.11-.11-.11 0-.11.05-.14.19-.14.56-.33 1.23-.75 1.23-.2 0-.32-.12-.32-.45 0-.22.13-.69.2-1.05l.29-1.08.17-.67c.05-.23.14-.6.14-.67 0-.17-.14-.27-.28-.27-.05 0-.31.02-.4.35l-.74 3c-.02.04-.4.84-1.14.84-.52 0-.61-.45-.61-.81a7 7 0 0 1 .53-2.03c.13-.32.17-.46.17-.64a.8.8 0 0 0-.81-.82C.66-4.4.3-2.95.3-2.87c0 .1.1.1.1.1.12 0 .12-.03.16-.18.25-.86.64-1.24 1.02-1.24.1 0 .25.02.25.33 0 .23-.11.53-.17.67-.38 1-.58 1.61-.58 2.1 0 .95.69 1.2 1.22 1.2.65 0 1.01-.45 1.18-.67m0 0" style="stroke:none"/></symbol><symbol id="i" overflow="visible"><path d="M2.02-3.3q.07-.15.06-.22c0-.21-.19-.37-.4-.37-.27 0-.35.22-.38.33L.38-.55l-.05.11c0 .08.22.16.28.16.05 0 .05-.02.1-.13Zm0 0" style="stroke:none"/></symbol><symbol id="j" overflow="visible"><path d="M2.33-4.44c0-.18 0-.18-.2-.18-.46.43-1.08.43-1.36.43v.25c.15 0 .62 0 1-.19v3.55c0 .24 0 .33-.7.33H.82V0l1.24-.03L3.3 0v-.25h-.27c-.7 0-.7-.1-.7-.33Zm0 0" style="stroke:none"/></symbol><symbol id="k" overflow="visible"><path d="M3.52-1.27h-.24c-.01.16-.1.57-.19.63-.04.05-.57.05-.68.05H1.13c.73-.64.98-.85 1.39-1.18.51-.4 1-.84 1-1.5 0-.84-.74-1.35-1.63-1.35-.86 0-1.45.6-1.45 1.25 0 .34.3.39.37.39.16 0 .36-.13.36-.38 0-.12-.04-.37-.4-.37a1.1 1.1 0 0 1 1.01-.64c.7 0 1.06.54 1.06 1.1 0 .61-.43 1.08-.65 1.33L.52-.27C.44-.2.44-.19.44 0H3.3Zm0 0" style="stroke:none"/></symbol><symbol id="n" overflow="visible"><path d="M4.4-6.95c-.06-.14-.09-.2-.26-.2-.16 0-.19.06-.25.2L.52-.2l-.05.12c0 .08.06.08.22.08H7.6c.16 0 .22 0 .22-.08q.01 0-.05-.12Zm-.57.8 2.69 5.4H1.14Zm0 0" style="stroke:none"/></symbol></defs><g clip-path="url(#a)"><path d="M0 195.3h150.58V0H0Zm0 0" style="stroke:none;fill-rule:nonzero;fill:#ffe4c8;fill-opacity:1"/></g><path d="M7.8 0A7.8 7.8 0 1 1-7.8 0 7.8 7.8 0 0 1 7.8 0Zm0 0" style="fill-rule:nonzero;fill:#ff8000;fill-opacity:1;stroke-width:.3985;stroke-linecap:butt;stroke-linejoin:miter;stroke:#000;stroke-opacity:1;stroke-miterlimit:10" transform="matrix(1 0 0 -1 49.04 78.16)"/><g clip-path="url(#b)"><path d="M150.38 78.16c0-8.61-3.49-15.6-7.8-15.6s-7.79 6.99-7.79 15.6 3.5 15.59 7.8 15.59 7.8-6.98 7.8-15.6m0 0" style="stroke:none;fill-rule:nonzero;fill:gray;fill-opacity:1"/></g><g clip-path="url(#c)"><path d="M101.35 0c0 8.61-3.5 15.6-7.8 15.6S85.75 8.6 85.75 0s3.5-15.59 7.8-15.59 7.8 6.98 7.8 15.6Zm0 0" style="fill:none;stroke-width:.3985;stroke-linecap:butt;stroke-linejoin:miter;stroke:#000;stroke-opacity:1;stroke-miterlimit:10" transform="matrix(1 0 0 -1 49.04 78.16)"/></g><path d="M15.59 70.16c0 4.31-6.98 7.8-15.6 7.8-8.6 0-15.58-3.49-15.58-7.8s6.98-7.8 15.59-7.8 15.59 3.5 15.59 7.8Zm0 0" style="fill-rule:nonzero;fill:gray;fill-opacity:1;stroke-width:.3985;stroke-linecap:butt;stroke-linejoin:miter;stroke:#000;stroke-opacity:1;stroke-miterlimit:10" transform="matrix(1 0 0 -1 49.04 78.16)"/><g clip-path="url(#d)"><path d="M56.83 187.3a7.8 7.8 0 1 0-15.6 0 7.8 7.8 0 0 0 15.6 0m0 0" style="stroke:none;fill-rule:nonzero;fill:#ff8000;fill-opacity:.1"/></g><g clip-path="url(#e)"><path d="M7.8-109.14a7.8 7.8 0 1 1-15.6 0 7.8 7.8 0 0 1 15.6 0Zm0 0" style="fill:none;stroke-width:.3985;stroke-linecap:butt;stroke-linejoin:miter;stroke:gray;stroke-opacity:1;stroke-dasharray:2.98883,2.98883;stroke-miterlimit:10" transform="matrix(1 0 0 -1 49.04 78.16)"/></g><g clip-path="url(#f)"><path d="M150.38 132.73c0-8.61-3.49-15.6-7.8-15.6s-7.79 6.99-7.79 15.6 3.5 15.59 7.8 15.59 7.8-6.98 7.8-15.59m0 0" style="stroke:none;fill-rule:nonzero;fill:gray;fill-opacity:.1"/></g><g clip-path="url(#g)"><path d="M101.35-54.57c0 8.61-3.5 15.59-7.8 15.59s-7.8-6.98-7.8-15.6c0-8.6 3.5-15.58 7.8-15.58s7.8 6.98 7.8 15.59Zm0 0" style="fill:none;stroke-width:.3985;stroke-linecap:butt;stroke-linejoin:miter;stroke:gray;stroke-opacity:1;stroke-dasharray:2.98883,2.98883;stroke-miterlimit:10" transform="matrix(1 0 0 -1 49.04 78.16)"/></g><path d="M15.59 46.77c0 4.31-6.98 7.8-15.6 7.8-8.6 0-15.58-3.49-15.58-7.8S-8.61 38.98 0 38.98s15.59 3.49 15.59 7.8Zm0 0" style="fill-rule:nonzero;fill:gray;fill-opacity:.1;stroke-width:.3985;stroke-linecap:butt;stroke-linejoin:miter;stroke:gray;stroke-opacity:1;stroke-dasharray:2.98883,2.98883;stroke-miterlimit:10" transform="matrix(1 0 0 -1 49.04 78.16)"/><path d="M-2.34-109.14V43.14" style="fill:none;stroke-width:1.49442;stroke-linecap:butt;stroke-linejoin:miter;stroke:red;stroke-opacity:1;stroke-dasharray:2.98883,2.98883;stroke-miterlimit:10" transform="matrix(1 0 0 -1 49.04 78.16)"/><path d="m46.7 31.38-2.91 5.82 2.9-2.18 2.92 2.18" style="stroke:none;fill-rule:nonzero;fill:red;fill-opacity:1"/><use xlink:href="#h" x="33.53" y="111.85" style="fill:red;fill-opacity:1"/><use xlink:href="#i" x="38.6" y="108.23" style="fill:red;fill-opacity:1"/><use xlink:href="#j" x="38.16" y="114.32" style="fill:red;fill-opacity:1"/><path d="M2.34 46.77V3.64" style="fill:none;stroke-width:1.49442;stroke-linecap:butt;stroke-linejoin:miter;stroke:red;stroke-opacity:1;stroke-dasharray:2.98883,2.98883;stroke-miterlimit:10" transform="matrix(1 0 0 -1 49.04 78.16)"/><path d="m51.38 78.16 2.9-5.82-2.9 2.18-2.92-2.18" style="stroke:none;fill-rule:nonzero;fill:red;fill-opacity:1"/><use xlink:href="#h" x="55.44" y="57.28" style="fill:red;fill-opacity:1"/><use xlink:href="#i" x="60.51" y="53.66" style="fill:red;fill-opacity:1"/><use xlink:href="#k" x="60.08" y="59.75" style="fill:red;fill-opacity:1"/><g clip-path="url(#l)"><path d="m0-109.14 90.4 52.73" style="fill:none;stroke-width:1.49442;stroke-linecap:butt;stroke-linejoin:miter;stroke:red;stroke-opacity:1;stroke-dasharray:2.98883,2.98883;stroke-miterlimit:10" transform="matrix(1 0 0 -1 49.04 78.16)"/></g><path d="m142.59 132.73-6.5.42 3.36 1.41-.42 3.61" style="stroke:none;fill-rule:nonzero;fill:red;fill-opacity:1"/><g clip-path="url(#m)"><path d="M93.55-54.57 3.14-1.83" style="fill:none;stroke-width:1.49442;stroke-linecap:butt;stroke-linejoin:miter;stroke:red;stroke-opacity:1;stroke-dasharray:2.98883,2.98883;stroke-miterlimit:10" transform="matrix(1 0 0 -1 49.04 78.16)"/></g><path d="m49.04 78.16 3.55 5.44-.41-3.61 3.35-1.42" style="stroke:none;fill-rule:nonzero;fill:red;fill-opacity:1"/><path d="M-23.39.8v68.57" style="fill:none;stroke-width:.79701;stroke-linecap:butt;stroke-linejoin:miter;stroke:#000;stroke-opacity:1;stroke-miterlimit:10" transform="matrix(1 0 0 -1 49.04 78.16)"/><path d="M-2.55 3.11C-2.08 1.24-1.05.36 0 0c-1.05-.36-2.08-1.24-2.55-3.11" style="fill:none;stroke-width:.79701;stroke-linecap:round;stroke-linejoin:round;stroke:#000;stroke-opacity:1;stroke-miterlimit:10" transform="matrix(0 1 1 0 25.65 77.76)"/><path d="M-2.55 3.11C-2.08 1.24-1.05.36 0 .01c-1.05-.37-2.08-1.25-2.55-3.12" style="fill:none;stroke-width:.79701;stroke-linecap:round;stroke-linejoin:round;stroke:#000;stroke-opacity:1;stroke-miterlimit:10" transform="matrix(0 -1 -1 0 25.65 8.4)"/><use xlink:href="#n" x="3.32" y="46.82" style="fill:#000;fill-opacity:1"/><use xlink:href="#o" x="11.62" y="46.82" style="fill:#000;fill-opacity:1"/><use xlink:href="#i" x="19.14" y="43.21" style="fill:#000;fill-opacity:1"/><path d="M46.77 62.36v10.4" style="fill:none;stroke-width:1.49442;stroke-linecap:butt;stroke-linejoin:miter;stroke:#000;stroke-opacity:1;stroke-miterlimit:10" transform="matrix(1 0 0 -1 49.04 78.16)"/><path d="m95.8 1.76-2.9 5.82 2.9-2.18 2.92 2.18" style="stroke:none;fill-rule:nonzero;fill:#000;fill-opacity:1"/><use xlink:href="#p" x="99.88" y="10.92" style="fill:#000;fill-opacity:1"/></svg>