<svg xmlns="http://www.w3.org/2000/svg" xml:space="preserve" width="3929" height="2395" overflow="hidden"><defs><clipPath id="a"><path d="M209 46h3929v2395H209z"/></clipPath></defs><g clip-path="url(#a)" transform="translate(-209 -46)"><path fill="#DAE3F3" d="M209 46h2631v2395H209z"/><path fill="#5B9BD5" fill-rule="evenodd" d="M1550 2178c153.54 0 278 41.19 278 92s-124.46 92-278 92-278-41.19-278-92 124.46-92 278-92"/><path fill="#7F7F7F" fill-rule="evenodd" d="M1550 119c153.54 0 278 41.19 278 92s-124.46 92-278 92-278-41.19-278-92 124.46-92 278-92M2563 1248c0-153.54 41.19-278 92-278s92 124.46 92 278-41.19 278-92 278-92-124.46-92-278"/><path fill="#C55A11" d="M1588.09 205.5v938.07h-17.18V205.5Zm17.19 929.47-25.78 51.57-25.78-51.57ZM1517.91 1186.54V248.468h17.18v938.072Zm-17.19-929.478 25.78-51.562 25.78 51.562Z"/><path d="M2658.82 1289.09h-933.35v-17.18h933.35Zm-924.76 17.19-51.56-25.78 51.56-25.78ZM1688.5 1218.91h933.35v17.18H1688.5Zm924.76-17.19 51.56 25.78-51.56 25.78ZM1531.09 1380.5v862.05h-17.18V1380.5Zm17.19 853.46-25.78 51.56-25.78-51.56Z"/><path fill="#C55A11" d="M1594.09 1378.5v862.05h-17.18V1378.5Zm17.19 853.46-25.78 51.56-25.78-51.56ZM657.5 1215.91h728.79v17.18H657.5Zm720.2-17.19 51.56 25.78-51.56 25.78Z"/><path d="M657.5 1280.91h728.79v17.18H657.5Zm720.2-17.19 51.56 25.78-51.56 25.78Z"/><path fill="#BFBFBF" fill-rule="evenodd" d="m3086 2027 158-158v79h894v158h-894v79ZM3086 585.5 3243.5 428v78.751H4138V664.25h-894.5V743Z"/><path fill="#A6A6A6" fill-opacity=".549" fill-rule="evenodd" d="M1501.28 1185.52c108.48-108.48 225.52-167.33 261.41-131.44 35.88 35.89-22.96 152.92-131.44 261.41-108.49 108.48-225.52 167.32-261.41 131.44-35.89-35.89 22.96-152.93 131.44-261.41"/><path fill="#C55A11" fill-rule="evenodd" d="M557 1142h41v110h-41ZM515.638 1169h-201.26c-7.778 0-13.855 6.08-13.855 13.86v27.71c0 7.77 6.077 13.85 13.855 13.85l201.018-.24 27.466 27.46.243-110.11zm-27.466 37.68c-5.834 0-10.452-4.62-10.209-10.21 0-5.84 4.618-10.45 10.209-10.21 5.833 0 10.452 4.62 10.209 10.21.243 5.59-4.375 10.21-10.209 10.21"/><path fill-rule="evenodd" d="M556 1274h41v110h-41ZM514.481 1301.26H313.22c-7.778 0-13.855 6.08-13.855 13.86l.001 27.71c-.001 7.78 6.076 13.85 13.854 13.85l201.018-.24 27.466 27.47.243-110.11zm-27.467 37.68c-5.834 0-10.452-4.62-10.209-10.21 0-5.83 4.619-10.45 10.209-10.21 5.834 0 10.452 4.62 10.209 10.21.243 5.59-4.375 10.21-10.209 10.21"/><text font-family="Calibri,Calibri_MSFontService,sans-serif" font-size="83" font-weight="400" transform="translate(3392.78 2208)">Aether movement </text><text font-family="Calibri,Calibri_MSFontService,sans-serif" font-size="83" font-weight="400" transform="translate(3335.54 2307)">relative to equipment</text><text font-family="Calibri,Calibri_MSFontService,sans-serif" font-size="83" font-weight="400" transform="translate(1888.96 232)">Mirror</text><text font-family="Calibri,Calibri_MSFontService,sans-serif" font-size="83" font-weight="400" transform="translate(1632.05 1432)">half silvered </text><text font-family="Calibri,Calibri_MSFontService,sans-serif" font-size="83" font-weight="400" transform="translate(1712.55 1531)">mirror/ </text><text font-family="Calibri,Calibri_MSFontService,sans-serif" font-size="83" font-weight="400" transform="translate(1739.39 1630)">Beam </text><text font-family="Calibri,Calibri_MSFontService,sans-serif" font-size="83" font-weight="400" transform="translate(1716.93 1729)">splitter</text><text font-family="Calibri,Calibri_MSFontService,sans-serif" font-size="83" font-weight="400" transform="translate(367.825 964)">Light </text><text font-family="Calibri,Calibri_MSFontService,sans-serif" font-size="83" font-weight="400" transform="translate(321.923 1063)">sources</text><text font-family="Calibri,Calibri_MSFontService,sans-serif" font-size="83" font-weight="400" transform="translate(1867.25 2297)">Detector</text><text font-family="Calibri,Calibri_MSFontService,sans-serif" font-size="83" font-weight="400" transform="translate(956.206 1063)">light </text><text font-family="Calibri,Calibri_MSFontService,sans-serif" font-size="83" font-weight="400" transform="translate(924.031 1162)">pulses</text></g></svg>