<svg data-optimized="true" xmlns="http://www.w3.org/2000/svg" xml:space="preserve" width="4284" height="2238" overflow="hidden"><defs><linearGradient id="b" x1="2777" x2="2777" y1="1146" y2="1524.86" gradientUnits="userSpaceOnUse" spreadMethod="reflect"><stop offset="0" stop-color="#FFF"/><stop offset=".37" stop-color="#D0CECE"/><stop offset=".81" stop-color="#262626"/><stop offset="1"/></linearGradient><linearGradient id="c" x1="2763" x2="2763" y1="1150" y2="1528.86" gradientUnits="userSpaceOnUse" spreadMethod="reflect"><stop offset="0" stop-color="#FFF"/><stop offset=".37" stop-color="#D0CECE"/><stop offset=".81" stop-color="#262626"/><stop offset="1"/></linearGradient><linearGradient id="d" x1="2748" x2="2748" y1="1161" y2="1539.86" gradientUnits="userSpaceOnUse" spreadMethod="reflect"><stop offset="0" stop-color="#FFF"/><stop offset=".37" stop-color="#D0CECE"/><stop offset=".81" stop-color="#262626"/><stop offset="1"/></linearGradient><linearGradient id="e" x1="2733" x2="2733" y1="1178" y2="1556.86" gradientUnits="userSpaceOnUse" spreadMethod="reflect"><stop offset="0" stop-color="#FFF"/><stop offset=".37" stop-color="#D0CECE"/><stop offset=".81" stop-color="#262626"/><stop offset="1"/></linearGradient><linearGradient id="f" x1="2719" x2="2719" y1="1205" y2="1583.86" gradientUnits="userSpaceOnUse" spreadMethod="reflect"><stop offset="0" stop-color="#FFF"/><stop offset=".37" stop-color="#D0CECE"/><stop offset=".81" stop-color="#262626"/><stop offset="1"/></linearGradient><linearGradient id="g" x1="2704" x2="2704" y1="1250" y2="1628.86" gradientUnits="userSpaceOnUse" spreadMethod="reflect"><stop offset="0" stop-color="#FFF"/><stop offset=".37" stop-color="#D0CECE"/><stop offset=".81" stop-color="#262626"/><stop offset="1"/></linearGradient><linearGradient id="h" x1="0" x2="378.859" y1="0" y2="0" gradientUnits="userSpaceOnUse" spreadMethod="reflect"><stop offset="0" stop-color="#FFF"/><stop offset=".37" stop-color="#D0CECE"/><stop offset=".81" stop-color="#262626"/><stop offset="1"/></linearGradient><linearGradient id="i" x1="0" x2="378.859" y1="0" y2="0" gradientUnits="userSpaceOnUse" spreadMethod="reflect"><stop offset="0" stop-color="#FFF"/><stop offset=".37" stop-color="#D0CECE"/><stop offset=".81" stop-color="#262626"/><stop offset="1"/></linearGradient><linearGradient id="j" x1="0" x2="378.859" y1="0" y2="0" gradientUnits="userSpaceOnUse" spreadMethod="reflect"><stop offset="0" stop-color="#FFF"/><stop offset=".37" stop-color="#D0CECE"/><stop offset=".81" stop-color="#262626"/><stop offset="1"/></linearGradient><linearGradient id="k" x1="0" x2="378.859" y1="0" y2="0" gradientUnits="userSpaceOnUse" spreadMethod="reflect"><stop offset="0" stop-color="#FFF"/><stop offset=".37" stop-color="#D0CECE"/><stop offset=".81" stop-color="#262626"/><stop offset="1"/></linearGradient><linearGradient id="l" x1="0" x2="378.859" y1="0" y2="0" gradientUnits="userSpaceOnUse" spreadMethod="reflect"><stop offset="0" stop-color="#FFF"/><stop offset=".37" stop-color="#D0CECE"/><stop offset=".81" stop-color="#262626"/><stop offset="1"/></linearGradient><linearGradient id="m" x1="0" x2="378.859" y1="0" y2="0" gradientUnits="userSpaceOnUse" spreadMethod="reflect"><stop offset="0" stop-color="#FFF"/><stop offset=".37" stop-color="#D0CECE"/><stop offset=".81" stop-color="#262626"/><stop offset="1"/></linearGradient><linearGradient id="n" x1="1513" x2="1513" y1="273" y2="376.681" gradientUnits="userSpaceOnUse" spreadMethod="reflect"><stop offset="0" stop-color="#FFF"/><stop offset=".37" stop-color="#D0CECE"/><stop offset=".81" stop-color="#262626"/><stop offset="1"/></linearGradient><linearGradient id="o" x1="1500" x2="1500" y1="274" y2="377.681" gradientUnits="userSpaceOnUse" spreadMethod="reflect"><stop offset="0" stop-color="#FFF"/><stop offset=".37" stop-color="#D0CECE"/><stop offset=".81" stop-color="#262626"/><stop offset="1"/></linearGradient><linearGradient id="p" x1="1488" x2="1488" y1="277" y2="380.682" gradientUnits="userSpaceOnUse" spreadMethod="reflect"><stop offset="0" stop-color="#FFF"/><stop offset=".37" stop-color="#D0CECE"/><stop offset=".81" stop-color="#262626"/><stop offset="1"/></linearGradient><linearGradient id="q" x1="1475" x2="1475" y1="281" y2="384.681" gradientUnits="userSpaceOnUse" spreadMethod="reflect"><stop offset="0" stop-color="#FFF"/><stop offset=".37" stop-color="#D0CECE"/><stop offset=".81" stop-color="#262626"/><stop offset="1"/></linearGradient><linearGradient id="r" x1="1463" x2="1463" y1="289" y2="392.682" gradientUnits="userSpaceOnUse" spreadMethod="reflect"><stop offset="0" stop-color="#FFF"/><stop offset=".37" stop-color="#D0CECE"/><stop offset=".81" stop-color="#262626"/><stop offset="1"/></linearGradient><linearGradient id="s" x1="1450" x2="1450" y1="300" y2="403.682" gradientUnits="userSpaceOnUse" spreadMethod="reflect"><stop offset="0" stop-color="#FFF"/><stop offset=".37" stop-color="#D0CECE"/><stop offset=".81" stop-color="#262626"/><stop offset="1"/></linearGradient><linearGradient id="t" x1="0" x2="103.682" y1="0" y2="0" gradientUnits="userSpaceOnUse" spreadMethod="reflect"><stop offset="0" stop-color="#FFF"/><stop offset=".37" stop-color="#D0CECE"/><stop offset=".81" stop-color="#262626"/><stop offset="1"/></linearGradient><linearGradient id="u" x1="0" x2="103.682" y1="0" y2="0" gradientUnits="userSpaceOnUse" spreadMethod="reflect"><stop offset="0" stop-color="#FFF"/><stop offset=".37" stop-color="#D0CECE"/><stop offset=".81" stop-color="#262626"/><stop offset="1"/></linearGradient><linearGradient id="v" x1="0" x2="103.682" y1="0" y2="0" gradientUnits="userSpaceOnUse" spreadMethod="reflect"><stop offset="0" stop-color="#FFF"/><stop offset=".37" stop-color="#D0CECE"/><stop offset=".81" stop-color="#262626"/><stop offset="1"/></linearGradient><linearGradient id="w" x1="0" x2="103.682" y1="0" y2="0" gradientUnits="userSpaceOnUse" spreadMethod="reflect"><stop offset="0" stop-color="#FFF"/><stop offset=".37" stop-color="#D0CECE"/><stop offset=".81" stop-color="#262626"/><stop offset="1"/></linearGradient><linearGradient id="x" x1="0" x2="103.682" y1="0" y2="0" gradientUnits="userSpaceOnUse" spreadMethod="reflect"><stop offset="0" stop-color="#FFF"/><stop offset=".37" stop-color="#D0CECE"/><stop offset=".81" stop-color="#262626"/><stop offset="1"/></linearGradient><linearGradient id="y" x1="0" x2="103.682" y1="0" y2="0" gradientUnits="userSpaceOnUse" spreadMethod="reflect"><stop offset="0" stop-color="#FFF"/><stop offset=".37" stop-color="#D0CECE"/><stop offset=".81" stop-color="#262626"/><stop offset="1"/></linearGradient><linearGradient id="z" x1="4044" x2="4044" y1="1476" y2="1854.86" gradientUnits="userSpaceOnUse" spreadMethod="reflect"><stop offset="0" stop-color="#FFF"/><stop offset=".37" stop-color="#D0CECE"/><stop offset=".81" stop-color="#262626"/><stop offset="1"/></linearGradient><linearGradient id="A" x1="4029" x2="4029" y1="1480" y2="1858.86" gradientUnits="userSpaceOnUse" spreadMethod="reflect"><stop offset="0" stop-color="#FFF"/><stop offset=".37" stop-color="#D0CECE"/><stop offset=".81" stop-color="#262626"/><stop offset="1"/></linearGradient><linearGradient id="B" x1="4014" x2="4014" y1="1491" y2="1869.86" gradientUnits="userSpaceOnUse" spreadMethod="reflect"><stop offset="0" stop-color="#FFF"/><stop offset=".37" stop-color="#D0CECE"/><stop offset=".81" stop-color="#262626"/><stop offset="1"/></linearGradient><linearGradient id="C" x1="4000" x2="4000" y1="1508" y2="1886.86" gradientUnits="userSpaceOnUse" spreadMethod="reflect"><stop offset="0" stop-color="#FFF"/><stop offset=".37" stop-color="#D0CECE"/><stop offset=".81" stop-color="#262626"/><stop offset="1"/></linearGradient><linearGradient id="D" x1="3985" x2="3985" y1="1535" y2="1913.86" gradientUnits="userSpaceOnUse" spreadMethod="reflect"><stop offset="0" stop-color="#FFF"/><stop offset=".37" stop-color="#D0CECE"/><stop offset=".81" stop-color="#262626"/><stop offset="1"/></linearGradient><linearGradient id="E" x1="3971" x2="3971" y1="1580" y2="1958.86" gradientUnits="userSpaceOnUse" spreadMethod="reflect"><stop offset="0" stop-color="#FFF"/><stop offset=".37" stop-color="#D0CECE"/><stop offset=".81" stop-color="#262626"/><stop offset="1"/></linearGradient><linearGradient id="F" x1="0" x2="378.859" y1="0" y2="0" gradientUnits="userSpaceOnUse" spreadMethod="reflect"><stop offset="0" stop-color="#FFF"/><stop offset=".37" stop-color="#D0CECE"/><stop offset=".81" stop-color="#262626"/><stop offset="1"/></linearGradient><linearGradient id="G" x1="0" x2="378.859" y1="0" y2="0" gradientUnits="userSpaceOnUse" spreadMethod="reflect"><stop offset="0" stop-color="#FFF"/><stop offset=".37" stop-color="#D0CECE"/><stop offset=".81" stop-color="#262626"/><stop offset="1"/></linearGradient><linearGradient id="H" x1="0" x2="378.859" y1="0" y2="0" gradientUnits="userSpaceOnUse" spreadMethod="reflect"><stop offset="0" stop-color="#FFF"/><stop offset=".37" stop-color="#D0CECE"/><stop offset=".81" stop-color="#262626"/><stop offset="1"/></linearGradient><linearGradient id="I" x1="0" x2="378.859" y1="0" y2="0" gradientUnits="userSpaceOnUse" spreadMethod="reflect"><stop offset="0" stop-color="#FFF"/><stop offset=".37" stop-color="#D0CECE"/><stop offset=".81" stop-color="#262626"/><stop offset="1"/></linearGradient><linearGradient id="J" x1="0" x2="378.859" y1="0" y2="0" gradientUnits="userSpaceOnUse" spreadMethod="reflect"><stop offset="0" stop-color="#FFF"/><stop offset=".37" stop-color="#D0CECE"/><stop offset=".81" stop-color="#262626"/><stop offset="1"/></linearGradient><linearGradient id="K" x1="0" x2="378.859" y1="0" y2="0" gradientUnits="userSpaceOnUse" spreadMethod="reflect"><stop offset="0" stop-color="#FFF"/><stop offset=".37" stop-color="#D0CECE"/><stop offset=".81" stop-color="#262626"/><stop offset="1"/></linearGradient><clipPath id="a"><path d="M105 273h4284v2238H105z"/></clipPath></defs><g clip-path="url(#a)" transform="translate(-105 -273)"><path fill="none" stroke="url(#b)" stroke-miterlimit="8" stroke-width="10.313" d="M2777 1146v373.7"/><path fill="none" stroke="url(#c)" stroke-miterlimit="8" stroke-width="10.313" d="M2763 1150v373.7"/><path fill="none" stroke="url(#d)" stroke-miterlimit="8" stroke-width="10.313" d="M2748 1161v373.7"/><path fill="none" stroke="url(#e)" stroke-miterlimit="8" stroke-width="10.313" d="M2733 1178v373.7"/><path fill="none" stroke="url(#f)" stroke-miterlimit="8" stroke-width="10.313" d="M2719 1205v373.7"/><path fill="none" stroke="url(#g)" stroke-miterlimit="8" stroke-width="10.313" d="M2704 1250v373.7"/><path fill="none" stroke="url(#h)" stroke-miterlimit="8" stroke-width="10.313" d="M0 0h373.702" transform="matrix(0 1 1 0 2792 1147)"/><path fill="none" stroke="url(#i)" stroke-miterlimit="8" stroke-width="10.313" d="M0 0h373.702" transform="matrix(0 1 1 0 2807 1152)"/><path fill="none" stroke="url(#j)" stroke-miterlimit="8" stroke-width="10.313" d="M0 0h373.702" transform="matrix(0 1 1 0 2821 1164)"/><path fill="none" stroke="url(#k)" stroke-miterlimit="8" stroke-width="10.313" d="M0 0h373.702" transform="matrix(0 1 1 0 2836 1182)"/><path fill="none" stroke="url(#l)" stroke-miterlimit="8" stroke-width="10.313" d="M0 0h373.702" transform="matrix(0 1 1 0 2850 1210)"/><path fill="none" stroke="url(#m)" stroke-miterlimit="8" stroke-width="10.313" d="M0 0h373.702" transform="matrix(0 1 1 0 2865 1256)"/><path fill="#3B3838" fill-rule="evenodd" d="M2783 1516c50.81 0 92 41.19 92 92s-41.19 92-92 92-92-41.19-92-92 41.19-92 92-92"/><path fill="none" stroke="url(#n)" stroke-miterlimit="8" stroke-width="10.313" d="M1513 273v98.525"/><path fill="none" stroke="url(#o)" stroke-miterlimit="8" stroke-width="10.313" d="M1500 274v98.525"/><path fill="none" stroke="url(#p)" stroke-miterlimit="8" stroke-width="10.313" d="M1488 277v98.525"/><path fill="none" stroke="url(#q)" stroke-miterlimit="8" stroke-width="10.313" d="M1475 281v98.525"/><path fill="none" stroke="url(#r)" stroke-miterlimit="8" stroke-width="10.313" d="M1463 289v98.525"/><path fill="none" stroke="url(#s)" stroke-miterlimit="8" stroke-width="10.313" d="M1450 300v98.525"/><path fill="none" stroke="url(#t)" stroke-miterlimit="8" stroke-width="10.313" d="M0 0h98.525" transform="matrix(0 1 1 0 1526 273)"/><path fill="none" stroke="url(#u)" stroke-miterlimit="8" stroke-width="10.313" d="M0 0h98.525" transform="matrix(0 1 1 0 1538 275)"/><path fill="none" stroke="url(#v)" stroke-miterlimit="8" stroke-width="10.313" d="M0 0h98.525" transform="matrix(0 1 1 0 1551 277)"/><path fill="none" stroke="url(#w)" stroke-miterlimit="8" stroke-width="10.313" d="M0 0h98.525" transform="matrix(0 1 1 0 1563 282)"/><path fill="none" stroke="url(#x)" stroke-miterlimit="8" stroke-width="10.313" d="M0 0h98.525" transform="matrix(0 1 1 0 1576 290)"/><path fill="none" stroke="url(#y)" stroke-miterlimit="8" stroke-width="10.313" d="M0 0h98.525" transform="matrix(0 1 1 0 1588 302)"/><path fill="#3B3838" fill-rule="evenodd" d="M1518 370c43.63 0 79 10.969 79 24.5s-35.37 24.5-79 24.5-79-10.969-79-24.5 35.37-24.5 79-24.5"/><path d="M1558.5 2067.81c0 15.19-12.31 27.5-27.5 27.5s-27.5-12.31-27.5-27.5 12.31-27.5 27.5-27.5 27.5 12.31 27.5 27.5m47.44 141.63-19.25-81.82c-.69-2.74-2.06-5.5-4.13-7.56-8.25-6.87-17.87-11.68-28.87-15.12-7.56-1.38-15.13-2.75-22.69-2.75s-15.12 1.37-22.69 3.43c-11 2.76-20.62 8.26-28.87 15.13-2.06 2.06-3.44 4.81-4.13 7.56l-19.25 81.81c0 .69-.68 2.07-.68 3.44 0 7.56 6.18 13.75 13.75 13.75 6.18 0 11.68-4.81 13.06-10.31l14.44-59.81v192.5h27.5v-123.75h13.75v123.75h27.5V2156.5l14.43 59.81c1.38 5.5 6.88 10.31 13.07 10.31 7.56 0 13.75-6.18 13.75-13.74 0-1.38-.69-2.76-.69-3.44M299.5 2067.81c0 15.19-12.312 27.5-27.5 27.5s-27.5-12.31-27.5-27.5 12.312-27.5 27.5-27.5 27.5 12.31 27.5 27.5m47.437 141.63-19.25-81.82c-.687-2.74-2.062-5.5-4.125-7.56-8.25-6.87-17.875-11.68-28.875-15.12-7.562-1.38-15.125-2.75-22.687-2.75s-15.125 1.37-22.688 3.43c-11 2.76-20.625 8.26-28.875 15.13-2.062 2.06-3.437 4.81-4.125 7.56l-19.25 81.81c0 .69-.687 2.07-.687 3.44 0 7.56 6.187 13.75 13.75 13.75 6.187 0 11.687-4.81 13.062-10.31l14.438-59.81v192.5h27.5v-123.75h13.75v123.75h27.5V2156.5l14.437 59.81c1.375 5.5 6.875 10.31 13.063 10.31 7.562 0 13.75-6.18 13.75-13.74 0-1.38-.688-2.76-.688-3.44"/><path fill="#3B3838" fill-rule="evenodd" d="M211 438c0-50.81 41.19-92 92-92s92 41.19 92 92-41.19 92-92 92-92-41.19-92-92m1217 0c0-50.81 41.19-92 92-92s92 41.19 92 92-41.19 92-92 92-92-41.19-92-92"/><path fill="red" fill-rule="evenodd" d="M2813 2067.5c0 15.19-12.31 27.5-27.5 27.5s-27.5-12.31-27.5-27.5 12.31-27.5 27.5-27.5 27.5 12.31 27.5 27.5"/><path fill-rule="evenodd" d="m2860.31 2209.47-19.21-81.98c-.69-2.76-2.06-5.51-4.12-7.58-8.24-6.89-17.85-11.71-28.83-15.15-7.55-1.38-15.1-2.76-22.65-2.76s-15.1 1.38-22.65 3.44c-10.98 2.76-20.59 8.27-28.83 15.16-2.06 2.07-3.43 4.82-4.12 7.58l-19.21 81.98c0 .68-.69 2.06-.69 3.44 0 7.58 6.18 13.78 13.73 13.78 6.17 0 11.67-4.82 13.04-10.34l14.41-59.93V2350h27.46v-124h13.72v124h27.46v-193.58l14.41 59.94c1.37 5.51 6.87 10.33 13.04 10.33 7.55 0 13.73-6.2 13.73-13.78 0-1.38-.69-2.75-.69-3.44"/><path fill="red" d="M1525.95 518.5v14.896h-14.9V518.5Zm14.89 13.331-22.34 44.688-22.34-44.687Zm1250.11 9.669v14.896h-14.9V541.5Zm0 29.792v14.895h-14.9v-14.895Zm0 29.791v14.896h-14.9v-14.896Zm0 29.792v14.896h-14.9v-14.896Zm0 29.792v14.895h-14.9v-14.895Zm0 29.791v14.896h-14.9v-14.896Zm0 29.792v14.896h-14.9V720.25Zm0 29.792v14.895h-14.9v-14.895Zm0 29.791v14.896h-14.9v-14.896Zm0 29.792v14.896h-14.9v-14.896Zm0 29.792v14.895h-14.9v-14.895Zm0 29.791v14.896h-14.9v-14.896Zm0 29.792v14.896h-14.9V899Zm0 29.792v14.895h-14.9v-14.895Zm0 29.791v14.896h-14.9v-14.896Zm0 29.792v14.895h-14.9v-14.895Zm0 29.795v14.89h-14.9v-14.89Zm0 29.79v14.89h-14.9v-14.89Zm0 29.79v14.9h-14.9v-14.9Zm0 29.79v14.9h-14.9v-14.9Zm0 29.79v14.9h-14.9v-14.9Zm0 29.79v14.9h-14.9v-14.9Zm0 29.8v14.89h-14.9v-14.89Zm0 29.79v14.89h-14.9v-14.89Zm0 29.79v14.9h-14.9v-14.9Zm0 29.79v14.9h-14.9v-14.9Zm0 29.79v14.9h-14.9v-14.9Zm0 29.79v14.9h-14.9v-14.9Zm0 29.8v14.89h-14.9v-14.89Zm0 29.79v14.89h-14.9v-14.89Zm0 29.79v14.9h-14.9v-14.9Zm0 29.79v14.9h-14.9v-14.9Zm0 29.79v14.9h-14.9v-14.9Zm0 29.79v14.9h-14.9v-14.9Zm0 29.8v14.89h-14.9v-14.89Zm0 29.79v14.89h-14.9v-14.89Zm0 29.79v14.9h-14.9V1614Zm0 29.79v14.9h-14.9v-14.9Zm0 29.79v14.9h-14.9v-14.9Zm0 29.79v14.9h-14.9v-14.9Zm0 29.8v14.89h-14.9v-14.89Zm0 29.79v14.89h-14.9v-14.89Zm0 29.79v14.9h-14.9v-14.9Zm0 29.79v14.9h-14.9v-14.9Zm0 29.79v14.9h-14.9v-14.9Zm0 29.79v14.9h-14.9v-14.9Zm0 29.8v14.89h-14.9v-14.89Zm0 29.79v14.89h-14.9v-14.89Zm0 29.79v14.9h-14.9v-14.9Zm14.89 14.86-22.34 44.68-22.34-44.68Z"/><path fill="none" stroke="url(#z)" stroke-miterlimit="8" stroke-width="10.313" d="M4044 1476v373.7"/><path fill="none" stroke="url(#A)" stroke-miterlimit="8" stroke-width="10.313" d="M4029 1480v373.7"/><path fill="none" stroke="url(#B)" stroke-miterlimit="8" stroke-width="10.313" d="M4014 1491v373.7"/><path fill="none" stroke="url(#C)" stroke-miterlimit="8" stroke-width="10.313" d="M4000 1508v373.7"/><path fill="none" stroke="url(#D)" stroke-miterlimit="8" stroke-width="10.313" d="M3985 1535v373.7"/><path fill="none" stroke="url(#E)" stroke-miterlimit="8" stroke-width="10.313" d="M3971 1580v373.7"/><path fill="none" stroke="url(#F)" stroke-miterlimit="8" stroke-width="10.313" d="M0 0h373.702" transform="matrix(0 1 1 0 4059 1477)"/><path fill="none" stroke="url(#G)" stroke-miterlimit="8" stroke-width="10.313" d="M0 0h373.702" transform="matrix(0 1 1 0 4073 1482)"/><path fill="none" stroke="url(#H)" stroke-miterlimit="8" stroke-width="10.313" d="M0 0h373.702" transform="matrix(0 1 1 0 4088 1494)"/><path fill="none" stroke="url(#I)" stroke-miterlimit="8" stroke-width="10.313" d="M0 0h373.702" transform="matrix(0 1 1 0 4102 1512)"/><path fill="none" stroke="url(#J)" stroke-miterlimit="8" stroke-width="10.313" d="M0 0h373.702" transform="matrix(0 1 1 0 4117 1540)"/><path fill="none" stroke="url(#K)" stroke-miterlimit="8" stroke-width="10.313" d="M0 0h373.702" transform="matrix(0 1 1 0 4132 1586)"/><path fill="#3B3838" fill-rule="evenodd" d="M4050 1846c50.81 0 92 41.19 92 92s-41.19 92-92 92-92-41.19-92-92 41.19-92 92-92"/><path fill="red" fill-rule="evenodd" d="M4075 2065.5c0 15.19-12.31 27.5-27.5 27.5s-27.5-12.31-27.5-27.5 12.31-27.5 27.5-27.5 27.5 12.31 27.5 27.5"/><path fill-rule="evenodd" d="m4122.31 2207.03-19.21-81.64c-.69-2.75-2.06-5.49-4.12-7.55-8.24-6.86-17.85-11.66-28.83-15.1-7.55-1.37-15.1-2.74-22.65-2.74s-15.1 1.37-22.65 3.43c-10.98 2.75-20.59 8.23-28.83 15.09-2.06 2.06-3.43 4.81-4.12 7.55l-19.21 81.65c0 .69-.69 2.06-.69 3.43 0 7.55 6.18 13.72 13.73 13.72 6.17 0 11.67-4.8 13.04-10.29l14.41-59.69V2347h27.46v-123.5h13.72V2347h27.46v-192.8l14.41 59.69c1.37 5.49 6.87 10.3 13.04 10.3 7.55 0 13.73-6.18 13.73-13.73 0-1.37-.69-2.74-.69-3.43"/><path d="M443.875 540.453v13.75h-13.75v-13.75Zm0 27.5v13.75h-13.75v-13.75Zm0 27.5v13.75h-13.75v-13.75Zm0 27.5v13.75h-13.75v-13.75Zm0 27.5v13.75h-13.75v-13.75Zm0 27.5v13.75h-13.75v-13.75Zm0 27.5v13.75h-13.75v-13.75Zm0 27.5v13.75h-13.75v-13.75Zm0 27.5v13.75h-13.75v-13.75Zm0 27.5v13.75h-13.75v-13.75Zm0 27.5v13.75h-13.75v-13.75Zm0 27.5v13.75h-13.75v-13.75Zm0 27.5v13.75h-13.75v-13.75Zm0 27.5v13.75h-13.75v-13.75Zm0 27.5v13.75h-13.75v-13.75Zm0 27.5v13.75h-13.75v-13.75Zm0 27.5v13.75h-13.75v-13.75Zm0 27.497v13.75h-13.75v-13.75Zm0 27.5v13.75h-13.75v-13.75Zm0 27.5v13.75h-13.75v-13.75Zm0 27.5v13.75h-13.75v-13.75Zm0 27.5v13.75h-13.75v-13.75Zm0 27.5v13.75h-13.75v-13.75Zm0 27.5v13.75h-13.75v-13.75Zm0 27.5v13.75h-13.75v-13.75Zm0 27.5v13.75h-13.75v-13.75Zm0 27.5v13.75h-13.75v-13.75Zm0 27.5v13.75h-13.75v-13.75Zm0 27.5v13.75h-13.75v-13.75Zm0 27.5v13.75h-13.75v-13.75Zm0 27.5v13.75h-13.75v-13.75Zm0 27.5v13.75h-13.75v-13.75Zm0 27.5v13.75h-13.75v-13.75Zm0 27.5v13.75h-13.75v-13.75Zm0 27.5v13.75h-13.75v-13.75Zm0 27.5v13.75h-13.75v-13.75Zm0 27.5v13.75h-13.75v-13.75Zm0 27.5v13.75h-13.75v-13.75Zm0 27.5v13.75h-13.75v-13.75Zm0 27.5v13.75h-13.75v-13.75Zm0 27.5v13.75h-13.75v-13.75Zm0 27.5v13.75h-13.75v-13.75Zm0 27.5v13.75h-13.75v-13.75Zm0 27.5v13.75h-13.75v-13.75Zm0 27.5v13.75h-13.75v-13.75Zm0 27.5v13.75h-13.75v-13.75Zm0 27.5v13.75h-13.75v-13.75Zm0 27.5v13.75h-13.75v-13.75Zm0 27.5v13.75h-13.75v-13.75Zm0 27.5v13.75h-13.75v-13.75Zm0 27.5v13.75h-13.75v-13.75Zm0 27.5v13.75h-13.75v-13.75Zm0 27.5v13.75h-13.75v-13.75Zm0 27.5v13.75h-13.75v-13.75Zm0 27.5v1.87h-13.75v-1.87ZM407.763 563.423 437 530.01l29.236 33.413a6.875 6.875 0 1 1-10.348 9.054l-24.062-27.5h10.348l-24.063 27.5a6.875 6.875 0 1 1-10.348-9.054m58.474 1440.917L437 2037.75l-29.236-33.41a6.873 6.873 0 1 1 10.348-9.05l24.062 27.5h-10.348l24.063-27.5a6.873 6.873 0 1 1 10.348 9.05M2776.232 528.499l-.002 14.896 14.896.002.002-14.896Zm-.005 29.791-.002 14.896 14.896.003.002-14.896Zm-.004 29.792-.002 14.896 14.895.002.003-14.895Zm-.005 29.792-.002 14.896 14.896.002.002-14.896Zm-.004 29.792-.003 14.895 14.896.003.002-14.896Zm-.005 29.791-.002 14.896 14.895.002.003-14.896Zm-.005 29.792-.002 14.896 14.896.002.002-14.896Zm-.004 29.792-.003 14.895 14.896.003.003-14.896Zm-.005 29.791-.002 14.896 14.896.002.002-14.896Zm-.005 29.792-.002 14.896 14.896.002.002-14.896Zm-.004 29.792-.003 14.895 14.896.003.003-14.896Zm-.005 29.791-.002 14.896 14.896.002.002-14.896Zm-.004 29.792-.003 14.896 14.896.002.002-14.896Zm-.005 29.791-.002 14.896 14.895.003.003-14.896Zm-.005 29.792-.002 14.896 14.896.002.002-14.895Zm-.004 29.792-.003 14.896 14.896.002.002-14.896Zm-.005 29.791-.002 14.896 14.896.003.002-14.896Zm-.005 29.792-.002 14.896 14.896.002.002-14.895Zm-.004 29.792-.003 14.896 14.896.002.003-14.896Zm-.005 29.791-.002 14.896 14.896.003.002-14.896Zm-.005 29.792-.002 14.896 14.896.002.002-14.895Zm-.004 29.792-.002 14.896 14.895.002.003-14.896Zm-.005 29.791-.002 14.896 14.896.003.002-14.896Zm-.004 29.792-.003 14.896 14.896.002.002-14.895Zm-.005 29.792-.002 14.896 14.895.002.003-14.896Zm-.005 29.791-.002 14.896 14.896.003.002-14.896Zm-.004 29.792-.003 14.896 14.896.002.003-14.895Zm-.005 29.792-.002 14.896 14.896.002.002-14.896Zm-.005 29.791-.002 14.896 14.896.003.002-14.896Zm-.004 29.792-.003 14.896 14.896.002.003-14.896Zm-.005 29.792-.002 14.896 14.896.002.002-14.896Zm-.004 29.791-.003 14.896 14.896.003.002-14.896Zm-.005 29.792-.002 14.896 14.895.002.003-14.896Zm-.005 29.792-.002 14.896 14.896.002.002-14.896Zm-.004 29.796-.003 14.89h14.896l.002-14.89Zm-.005 29.79-.002 14.89 14.896.01.002-14.9Zm-.005 29.79-.002 14.89 14.896.01.002-14.9Zm-.004 29.79-.003 14.9h14.896l.003-14.9Zm-.005 29.79v3.13h14.895v-3.13Zm-14.895-4.32 22.337 44.69 22.35-44.68Z"/><text font-family="Calibri,Calibri_MSFontService,sans-serif" font-size="83" font-weight="400" transform="translate(3921.04 2439)">t = 4/3 </text><text font-family="Calibri,Calibri_MSFontService,sans-serif" font-size="83" font-weight="400" transform="translate(4162.23 2439)">y</text><text font-family="Calibri,Calibri_MSFontService,sans-serif" font-size="83" font-weight="400" transform="translate(4198.47 2439)">ears</text><text font-family="Calibri,Calibri_MSFontService,sans-serif" font-size="83" font-weight="400" transform="translate(1460.52 2439)">t = </text><text font-family="Calibri,Calibri_MSFontService,sans-serif" font-size="83" font-weight="400" transform="translate(1567.08 2439)">0</text><text font-family="Calibri,Calibri_MSFontService,sans-serif" font-size="83" font-weight="400" transform="translate(2702.17 2435)">t = 1 </text><text font-family="Calibri,Calibri_MSFontService,sans-serif" font-size="83" font-weight="400" transform="translate(2869.46 2435)">y</text><text font-family="Calibri,Calibri_MSFontService,sans-serif" font-size="83" font-weight="400" transform="translate(2905.69 2435)">ear</text><text font-family="Calibri,Calibri_MSFontService,sans-serif" font-size="83" font-weight="400" transform="translate(2306.4 1659)">3/4 c</text><path d="M2563.89 1610v47.11h-21.78V1610Zm21.77 36.23-32.66 65.31-32.66-65.31Z"/><path d="M2563.89 1559v47.11h-21.78V1559Zm21.77 36.23-32.66 65.31-32.66-65.31Z"/><text font-family="Calibri,Calibri_MSFontService,sans-serif" font-size="83" font-weight="400" transform="translate(502.904 1327)">1 </text><text font-family="Calibri,Calibri_MSFontService,sans-serif" font-size="83" font-weight="400" transform="translate(563.633 1327)">l</text><text font-family="Calibri,Calibri_MSFontService,sans-serif" font-size="83" font-weight="400" transform="translate(582.54 1327)">ight </text><text font-family="Calibri,Calibri_MSFontService,sans-serif" font-size="83" font-weight="400" transform="translate(729.596 1327)">y</text><text font-family="Calibri,Calibri_MSFontService,sans-serif" font-size="83" font-weight="400" transform="translate(765.827 1327)">ear</text><text font-family="Calibri,Calibri_MSFontService,sans-serif" font-size="83" font-weight="400" transform="translate(3581.96 1990)">3/4 c</text><path d="M3838.89 1941v47.11h-21.78V1941Zm21.77 36.23-32.66 65.31-32.66-65.31Z"/><path d="M3838.89 1890v47.11h-21.78V1890Zm21.77 36.23-32.66 65.31-32.66-65.31Z"/><text font-family="Calibri,Calibri_MSFontService,sans-serif" font-size="83" font-weight="400" transform="translate(1084.78 488)">3/4 c</text><path d="M1341.89 438v47.111h-21.78V438Zm21.77 36.226L1331 539.538l-32.66-65.312Z"/><path d="M1341.89 388v47.111l-21.78.001V388Zm21.77 36.226L1331 489.539l-32.66-65.313Z"/><text font-family="Calibri,Calibri_MSFontService,sans-serif" font-size="83" font-weight="400" transform="translate(212.016 2439)">t = </text><text font-family="Calibri,Calibri_MSFontService,sans-serif" font-size="83" font-weight="400" transform="translate(318.578 2439)">0</text></g></svg>