<svg xmlns="http://www.w3.org/2000/svg" xmlns:xlink="http://www.w3.org/1999/xlink" width="248.939" height="374.016" viewBox="0 0 186.704 280.512"><defs><style>*{stroke-linejoin:round;stroke-linecap:butt}</style></defs><g id="figure_1"><g id="axes_1"><path id="patch_1" d="m172.513 101.008-3.495 2.272 2.447-2.27H7.2v-.004h164.265l-2.447-2.27z" clip-path="url(#pdc6026d519)" style="fill:#1f77b4;stroke:#000;stroke-linejoin:miter"/><path id="patch_2" d="m93.352 14.19 2.272 3.496-2.27-2.447v179.577h-.004V15.239l-2.27 2.447z" clip-path="url(#pdc6026d519)" style="fill:#1f77b4;stroke:#000;stroke-linejoin:miter"/><g id="PathCollection_1"><defs><path id="mb99e7dc6dc" d="M0 2.236a2.236 2.236 0 1 0 0-4.472 2.236 2.236 0 0 0 0 4.472z" style="stroke:gray;stroke-opacity:.7"/></defs><g clip-path="url(#pdc6026d519)"><use xlink:href="#mb99e7dc6dc" x="93.352" y="173.178" style="fill:gray;fill-opacity:.7;stroke:gray;stroke-opacity:.7"/></g></g><g id="PathCollection_2"><defs><path id="m04231952a5" d="M0 2.236a2.236 2.236 0 1 0 0-4.472 2.236 2.236 0 0 0 0 4.472z" style="stroke:#000"/></defs><g clip-path="url(#pdc6026d519)"><use xlink:href="#m04231952a5" x="93.352" y="101.008" style="stroke:#000"/></g></g><g id="Quiver_1"><path d="m94.564 98.037.135-6.201-1.732.393 2.248-4.26 2.059 4.354-1.713-.468-.136 6.201z" clip-path="url(#pdc6026d519)" style="fill:#0ca7ef"/><path d="m97.874 98.164.41-6.19-1.748.317 2.433-4.157 1.865 4.44-1.691-.543-.409 6.19z" clip-path="url(#pdc6026d519)" style="fill:#0ca7ef"/><path d="m101.263 98.445.688-6.165-1.76.237 2.619-4.042 1.662 4.52-1.664-.619-.689 6.165z" clip-path="url(#pdc6026d519)" style="fill:#0ca7ef"/><path d="m104.786 98.903.979-6.126-1.77.154 2.807-3.914 1.447 4.593-1.633-.697-.98 6.126z" clip-path="url(#pdc6026d519)" style="fill:#09a9ee"/><path d="m108.507 99.572 1.285-6.069-1.775.064 3-3.767 1.214 4.66-1.596-.778-1.286 6.068zM112.5 100.508l1.615-5.99-1.775-.032 3.2-3.598.959 4.72-1.552-.865-1.615 5.99z" clip-path="url(#pdc6026d519)" style="fill:#09a9ee"/><path d="m116.86 101.799 1.973-5.88-1.77-.14 3.412-3.399.671 4.77-1.496-.958-1.974 5.881zM121.696 103.578l2.373-5.732-1.757-.26 3.637-3.157.343 4.804-1.427-1.057-2.373 5.731z" clip-path="url(#pdc6026d519)" style="fill:#08acee"/><path d="m127.152 106.058 2.822-5.525-1.73-.4 3.877-2.856-.041 4.816-1.339-1.168-2.822 5.525z" clip-path="url(#pdc6026d519)" style="fill:#06aeed"/><path d="m133.396 109.585 3.336-5.23-1.685-.563 4.132-2.474-.5 4.79-1.221-1.29-3.335 5.23z" clip-path="url(#pdc6026d519)" style="fill:#01b3ec"/><path d="m140.608 114.744 3.928-4.8-1.606-.758 4.394-1.97-1.06 4.698-1.061-1.425-3.929 4.8z" clip-path="url(#pdc6026d519)" style="fill:#02b7eb"/><path d="m148.892 122.553 4.608-4.153-1.473-.991 4.642-1.284-1.759 4.484-.833-1.569-4.608 4.153z" clip-path="url(#pdc6026d519)" style="fill:#0ac0e8"/><path d="m157.972 134.813 5.352-3.137-1.243-1.269 4.805-.32-2.627 4.037-.5-1.704-5.352 3.136z" clip-path="url(#pdc6026d519)" style="fill:#18cde4"/><path d="m166.166 154.583 6.019-1.5-.835-1.568 4.7 1.048-3.658 3.132.001-1.776-6.019 1.5z" clip-path="url(#pdc6026d519)" style="fill:#37e6d8"/><path d="m167.45 185.716 6.11 1.07-.127-1.772 3.871 2.865-4.614 1.379.721-1.623-6.11-1.07z" clip-path="url(#pdc6026d519)" style="fill:#88ffaf"/><path d="m146.976 225.829 4.402 4.371.908-1.526 1.539 4.564-4.574-1.508 1.52-.919-4.402-4.37zM93.783 248.328v6.203l1.723-.43-2.154 4.307-2.154-4.308 1.723.431v-6.203zM40.335 226.44l-4.401 4.371 1.52.92-4.575 1.507 1.539-4.564.909 1.526 4.4-4.371z" clip-path="url(#pdc6026d519)" style="fill:red"/><path d="m19.403 186.565-6.11 1.07.721 1.623-4.614-1.379 3.871-2.865-.127 1.772 6.11-1.07z" clip-path="url(#pdc6026d519)" style="fill:#88ffaf"/><path d="m20.33 155.42-6.02-1.501.002 1.776-3.659-3.132 4.701-1.048-.835 1.568 6.02 1.5z" clip-path="url(#pdc6026d519)" style="fill:#37e6d8"/><path d="m28.297 135.556-5.352-3.136-.5 1.704-2.627-4.036 4.805.32-1.242 1.268 5.351 3.137z" clip-path="url(#pdc6026d519)" style="fill:#18cde4"/><path d="m37.236 123.193-4.609-4.153-.833 1.569-1.758-4.484 4.641 1.284-1.473.991 4.608 4.153z" clip-path="url(#pdc6026d519)" style="fill:#0ac0e8"/><path d="m45.43 115.29-3.929-4.8-1.06 1.424-1.061-4.698 4.395 1.97-1.607.758 3.928 4.8z" clip-path="url(#pdc6026d519)" style="fill:#02b7eb"/><path d="m52.582 110.048-3.336-5.23-1.221 1.29-.5-4.79 4.132 2.474-1.684.563 3.335 5.23z" clip-path="url(#pdc6026d519)" style="fill:#01b3ec"/><path d="m58.785 106.45-2.822-5.525-1.338 1.168-.042-4.816 3.878 2.856-1.73.4 2.821 5.525z" clip-path="url(#pdc6026d519)" style="fill:#06aeed"/><path d="m64.212 103.907-2.373-5.731-1.427 1.057.343-4.804 3.637 3.156-1.757.261 2.373 5.732zM69.028 102.073l-1.974-5.88-1.496.956.67-4.769 3.413 3.398-1.77.14 1.974 5.88z" clip-path="url(#pdc6026d519)" style="fill:#08acee"/><path d="m73.372 100.732-1.615-5.989-1.552.865.958-4.72 3.201 3.598-1.775.033 1.615 5.99zM77.355 99.75l-1.286-6.068-1.596.778 1.214-4.66 3 3.767-1.775-.064 1.286 6.069z" clip-path="url(#pdc6026d519)" style="fill:#09a9ee"/><path d="m81.067 99.039-.978-6.126-1.634.697 1.447-4.593 2.807 3.914-1.77-.154.98 6.126z" clip-path="url(#pdc6026d519)" style="fill:#09a9ee"/><path d="m84.585 98.54-.689-6.164-1.664.62 1.662-4.52 2.619 4.041-1.76-.237.688 6.165z" clip-path="url(#pdc6026d519)" style="fill:#0ca7ef"/><path d="m87.97 98.22-.409-6.189-1.69.543 1.865-4.44 2.433 4.157-1.748-.317.409 6.19z" clip-path="url(#pdc6026d519)" style="fill:#0ca7ef"/><path d="m91.28 98.056-.137-6.201-1.713.468 2.06-4.354 2.247 4.26-1.732-.393.135 6.201z" clip-path="url(#pdc6026d519)" style="fill:#0ca7ef"/></g><g id="PathCollection_3" clip-path="url(#pdc6026d519)"><use xlink:href="#mb99e7dc6dc" x="93.352" y="173.178" style="fill:gray;fill-opacity:.7;stroke:gray;stroke-opacity:.7"/></g><g id="PathCollection_4" clip-path="url(#pdc6026d519)"><use xlink:href="#m04231952a5" x="93.352" y="101.008" style="stroke:#000"/></g><g id="Quiver_2"><path d="m94.564 98.037.135-6.201-1.732.393 2.248-4.26 2.059 4.354-1.713-.468-.136 6.201z" clip-path="url(#pdc6026d519)" style="fill:#0ca7ef"/><path d="m97.874 98.164.41-6.19-1.748.317 2.433-4.157 1.865 4.44-1.691-.543-.409 6.19z" clip-path="url(#pdc6026d519)" style="fill:#0ca7ef"/><path d="m101.263 98.445.688-6.165-1.76.237 2.619-4.042 1.662 4.52-1.664-.619-.689 6.165z" clip-path="url(#pdc6026d519)" style="fill:#0ca7ef"/><path d="m104.786 98.903.979-6.126-1.77.154 2.807-3.914 1.447 4.593-1.633-.697-.98 6.126z" clip-path="url(#pdc6026d519)" style="fill:#09a9ee"/><path d="m108.507 99.572 1.285-6.069-1.775.064 3-3.767 1.214 4.66-1.596-.778-1.286 6.068zM112.5 100.508l1.615-5.99-1.775-.032 3.2-3.598.959 4.72-1.552-.865-1.615 5.99z" clip-path="url(#pdc6026d519)" style="fill:#09a9ee"/><path d="m116.86 101.799 1.973-5.88-1.77-.14 3.412-3.399.671 4.77-1.496-.958-1.974 5.881zM121.696 103.578l2.373-5.732-1.757-.26 3.637-3.157.343 4.804-1.427-1.057-2.373 5.731z" clip-path="url(#pdc6026d519)" style="fill:#08acee"/><path d="m127.152 106.058 2.822-5.525-1.73-.4 3.877-2.856-.041 4.816-1.339-1.168-2.822 5.525z" clip-path="url(#pdc6026d519)" style="fill:#06aeed"/><path d="m133.396 109.585 3.336-5.23-1.685-.563 4.132-2.474-.5 4.79-1.221-1.29-3.335 5.23z" clip-path="url(#pdc6026d519)" style="fill:#01b3ec"/><path d="m140.608 114.744 3.928-4.8-1.606-.758 4.394-1.97-1.06 4.698-1.061-1.425-3.929 4.8z" clip-path="url(#pdc6026d519)" style="fill:#02b7eb"/><path d="m148.892 122.553 4.608-4.153-1.473-.991 4.642-1.284-1.759 4.484-.833-1.569-4.608 4.153z" clip-path="url(#pdc6026d519)" style="fill:#0ac0e8"/><path d="m157.972 134.813 5.352-3.137-1.243-1.269 4.805-.32-2.627 4.037-.5-1.704-5.352 3.136z" clip-path="url(#pdc6026d519)" style="fill:#18cde4"/><path d="m166.166 154.583 6.019-1.5-.835-1.568 4.7 1.048-3.658 3.132.001-1.776-6.019 1.5z" clip-path="url(#pdc6026d519)" style="fill:#37e6d8"/><path d="m167.45 185.716 6.11 1.07-.127-1.772 3.871 2.865-4.614 1.379.721-1.623-6.11-1.07z" clip-path="url(#pdc6026d519)" style="fill:#88ffaf"/><path d="m146.976 225.829 4.402 4.371.908-1.526 1.539 4.564-4.574-1.508 1.52-.919-4.402-4.37zM93.783 248.328v6.203l1.723-.43-2.154 4.307-2.154-4.308 1.723.431v-6.203zM40.335 226.44l-4.401 4.371 1.52.92-4.575 1.507 1.539-4.564.909 1.526 4.4-4.371z" clip-path="url(#pdc6026d519)" style="fill:red"/><path d="m19.403 186.565-6.11 1.07.721 1.623-4.614-1.379 3.871-2.865-.127 1.772 6.11-1.07z" clip-path="url(#pdc6026d519)" style="fill:#88ffaf"/><path d="m20.33 155.42-6.02-1.501.002 1.776-3.659-3.132 4.701-1.048-.835 1.568 6.02 1.5z" clip-path="url(#pdc6026d519)" style="fill:#37e6d8"/><path d="m28.297 135.556-5.352-3.136-.5 1.704-2.627-4.036 4.805.32-1.242 1.268 5.351 3.137z" clip-path="url(#pdc6026d519)" style="fill:#18cde4"/><path d="m37.236 123.193-4.609-4.153-.833 1.569-1.758-4.484 4.641 1.284-1.473.991 4.608 4.153z" clip-path="url(#pdc6026d519)" style="fill:#0ac0e8"/><path d="m45.43 115.29-3.929-4.8-1.06 1.424-1.061-4.698 4.395 1.97-1.607.758 3.928 4.8z" clip-path="url(#pdc6026d519)" style="fill:#02b7eb"/><path d="m52.582 110.048-3.336-5.23-1.221 1.29-.5-4.79 4.132 2.474-1.684.563 3.335 5.23z" clip-path="url(#pdc6026d519)" style="fill:#01b3ec"/><path d="m58.785 106.45-2.822-5.525-1.338 1.168-.042-4.816 3.878 2.856-1.73.4 2.821 5.525z" clip-path="url(#pdc6026d519)" style="fill:#06aeed"/><path d="m64.212 103.907-2.373-5.731-1.427 1.057.343-4.804 3.637 3.156-1.757.261 2.373 5.732zM69.028 102.073l-1.974-5.88-1.496.956.67-4.769 3.413 3.398-1.77.14 1.974 5.88z" clip-path="url(#pdc6026d519)" style="fill:#08acee"/><path d="m73.372 100.732-1.615-5.989-1.552.865.958-4.72 3.201 3.598-1.775.033 1.615 5.99zM77.355 99.75l-1.286-6.068-1.596.778 1.214-4.66 3 3.767-1.775-.064 1.286 6.069z" clip-path="url(#pdc6026d519)" style="fill:#09a9ee"/><path d="m81.067 99.039-.978-6.126-1.634.697 1.447-4.593 2.807 3.914-1.77-.154.98 6.126z" clip-path="url(#pdc6026d519)" style="fill:#09a9ee"/><path d="m84.585 98.54-.689-6.164-1.664.62 1.662-4.52 2.619 4.041-1.76-.237.688 6.165z" clip-path="url(#pdc6026d519)" style="fill:#0ca7ef"/><path d="m87.97 98.22-.409-6.189-1.69.543 1.865-4.44 2.433 4.157-1.748-.317.409 6.19z" clip-path="url(#pdc6026d519)" style="fill:#0ca7ef"/><path d="m91.28 98.056-.137-6.201-1.713.468 2.06-4.354 2.247 4.26-1.732-.393.135 6.201z" clip-path="url(#pdc6026d519)" style="fill:#0ca7ef"/></g><g id="text_1" transform="matrix(.1 0 0 -.1 158.532 94.017)"><defs><path id="DejaVuSans-79" d="M2059-325q-243-625-475-815-231-191-618-191H506v481h338q237 0 368 113 132 112 291 531l103 262L191 3500h609L1894 763l1094 2737h609z" transform="scale(.01563)"/><path id="DejaVuSans-27" d="M1147 4666V2931H616v1735z" transform="scale(.01563)"/></defs><use xlink:href="#DejaVuSans-79"/><use xlink:href="#DejaVuSans-27" x="59.18"/></g><g id="text_2" transform="matrix(.1 0 0 -.1 100.343 31.668)"><defs><path id="DejaVuSans-7a" d="M353 3500h2731v-525L922 459h2162V0H275v525l2163 2516H353z" transform="scale(.01563)"/></defs><use xlink:href="#DejaVuSans-7a"/><use xlink:href="#DejaVuSans-27" x="52.49"/></g><g id="text_3" transform="matrix(.1 0 0 -.1 122.07 57.932)"><defs><path id="DejaVuSans-74" d="M1172 4494v-994h1184v-447H1172V1153q0-428 117-550t477-122h590V0h-590q-666 0-919 248-253 249-253 905v1900H172v447h422v994z" transform="scale(.01563)"/><path id="DejaVuSans-3d" d="M678 2906h4006v-525H678zm0-1275h4006v-531H678z" transform="scale(.01563)"/><path id="DejaVuSans-Oblique-3b3" d="m1491 2950 347-2162 1618 2712h610L1972 0l-259-1331h-575L1397 0 988 2613q-63 393-360 393H475l94 494h219q615 0 703-550" transform="scale(.01563)"/></defs><use xlink:href="#DejaVuSans-74" transform="translate(0 .094)"/><use xlink:href="#DejaVuSans-27" transform="translate(39.209 .094)"/><use xlink:href="#DejaVuSans-3d" transform="translate(66.7 .094)"/><use xlink:href="#DejaVuSans-Oblique-3b3" transform="translate(182.275 .094)"/><use xlink:href="#DejaVuSans-74" transform="translate(241.455 .094)"/></g></g></g><defs><clipPath id="pdc6026d519"><path d="M7.2 7.2h172.304v266.112H7.2z"/></clipPath></defs></svg>