<svg data-optimized="true" xmlns="http://www.w3.org/2000/svg" xmlns:xlink="http://www.w3.org/1999/xlink" width="261.679" height="374.016" viewBox="0 0 196.259 280.512"><defs><style>*{stroke-linejoin:round;stroke-linecap:butt}</style></defs><g id="figure_1"><g id="axes_1"><path id="patch_1" d="m181.68 106.21-3.689 2.398 2.583-2.396H7.2v-.004h173.374l-2.583-2.396z" clip-path="url(#pe26f0e85b6)" style="fill:#1f77b4;stroke:gray;stroke-linejoin:miter"/><path id="patch_2" d="m98.13 14.578 2.397 3.69-2.396-2.583V205.22h-.003V15.685l-2.397 2.583z" clip-path="url(#pe26f0e85b6)" style="fill:#1f77b4;stroke:gray;stroke-linejoin:miter"/><g id="PathCollection_1"><defs><path id="m706bb7bc75" d="M0 2.236a2.236 2.236 0 1 0 0-4.472 2.236 2.236 0 0 0 0 4.472z" style="stroke:gray;stroke-opacity:.7"/></defs><g clip-path="url(#pe26f0e85b6)"><use xlink:href="#m706bb7bc75" x="98.129" y="182.383" style="fill:gray;fill-opacity:.7;stroke:gray;stroke-opacity:.7"/></g></g><g id="PathCollection_2"><defs><path id="m0ae24419d9" d="M0 2.236a2.236 2.236 0 1 0 0-4.472 2.236 2.236 0 0 0 0 4.472z" style="stroke:#000"/></defs><g clip-path="url(#pe26f0e85b6)"><use xlink:href="#m0ae24419d9" x="98.129" y="106.21" style="stroke:#000"/></g></g><g id="Quiver_1"><path d="m99.414 102.795.131-5.986-1.828.414 2.372-4.495 2.174 4.595-1.809-.495-.13 5.987z" clip-path="url(#pe26f0e85b6)" style="fill:#0ca7ef"/><path d="m102.921 102.93.395-5.976-1.845.334 2.568-4.387 1.969 4.687-1.785-.574-.395 5.975z" clip-path="url(#pe26f0e85b6)" style="fill:#0ca7ef"/><path d="m106.51 103.227.665-5.95-1.858.25 2.764-4.267 1.754 4.77-1.757-.653-.664 5.951z" clip-path="url(#pe26f0e85b6)" style="fill:#0ca7ef"/><path d="m110.241 103.712.945-5.913-1.867.162 2.962-4.131 1.527 4.848-1.724-.736-.945 5.913z" clip-path="url(#pe26f0e85b6)" style="fill:#09a9ee"/><path d="m114.182 104.42 1.241-5.858-1.873.068 3.166-3.976 1.282 4.919-1.685-.822-1.241 5.858zm4.231.993 1.558-5.782-1.874-.035 3.379-3.797 1.01 4.981-1.637-.912-1.559 5.781z" clip-path="url(#pe26f0e85b6)" style="fill:#09a9ee"/><path d="m123.03 106.78 1.905-5.677-1.869-.148 3.602-3.587.708 5.034-1.58-1.01-1.905 5.677zm5.122 1.884 2.29-5.533-1.854-.275 3.84-3.332.361 5.07-1.506-1.115-2.29 5.533z" clip-path="url(#pe26f0e85b6)" style="fill:#08acee"/><path d="m133.931 111.29 2.724-5.332-1.826-.422 4.092-3.015-.044 5.083-1.412-1.232-2.724 5.332z" clip-path="url(#pe26f0e85b6)" style="fill:#06aeed"/><path d="m140.544 115.027 3.22-5.049-1.778-.594 4.362-2.611-.528 5.055-1.29-1.36-3.219 5.048z" clip-path="url(#pe26f0e85b6)" style="fill:#01b3ec"/><path d="m148.183 120.492 3.792-4.635-1.696-.8 4.639-2.079-1.12 4.959-1.12-1.504-3.792 4.635z" clip-path="url(#pe26f0e85b6)" style="fill:#02b7eb"/><path d="m156.957 128.762 4.448-4.008-1.555-1.047 4.9-1.355-1.856 4.733-.88-1.656-4.449 4.009z" clip-path="url(#pe26f0e85b6)" style="fill:#0ac0e8"/><path d="m166.574 141.748 5.166-3.028-1.312-1.339 5.072-.337-2.773 4.26-.527-1.8-5.167 3.028z" clip-path="url(#pe26f0e85b6)" style="fill:#18cde4"/><path d="m175.252 162.688 5.81-1.448-.88-1.655 4.96 1.106-3.86 3.306v-1.875l-5.81 1.449z" clip-path="url(#pe26f0e85b6)" style="fill:#37e6d8"/><path d="m176.611 195.664 5.899 1.032-.134-1.87 4.086 3.024-4.87 1.455.76-1.713-5.898-1.033z" clip-path="url(#pe26f0e85b6)" style="fill:#88ffaf"/><path d="m154.926 238.15 4.248 4.22.96-1.611 1.623 4.816-4.827-1.59 1.604-.97-4.25-4.22zm-56.342 23.829v5.988l1.819-.455-2.274 4.547-2.273-4.547 1.819.455v-5.988zm-56.61-23.184-4.249 4.22 1.604.97-4.827 1.59 1.624-4.816.959 1.61 4.248-4.22z" clip-path="url(#pe26f0e85b6)" style="fill:red"/><path d="m19.805 196.56-5.899 1.032.762 1.713-4.87-1.455 4.085-3.023-.134 1.87 5.899-1.033z" clip-path="url(#pe26f0e85b6)" style="fill:#88ffaf"/><path d="m20.787 163.57-5.81-1.448v1.875l-3.86-3.306 4.96-1.106-.88 1.655 5.81 1.448z" clip-path="url(#pe26f0e85b6)" style="fill:#37e6d8"/><path d="m29.226 142.532-5.167-3.027-.527 1.799-2.773-4.26 5.072.337-1.312 1.34 5.166 3.027z" clip-path="url(#pe26f0e85b6)" style="fill:#18cde4"/><path d="m38.694 129.438-4.45-4.009-.879 1.656-1.856-4.733 4.9 1.355-1.555 1.047 4.448 4.008z" clip-path="url(#pe26f0e85b6)" style="fill:#0ac0e8"/><path d="m47.373 121.068-3.792-4.635-1.12 1.504-1.12-4.959 4.639 2.08-1.696.8 3.792 4.634z" clip-path="url(#pe26f0e85b6)" style="fill:#02b7eb"/><path d="m54.948 115.516-3.22-5.049-1.289 1.361-.528-5.055 4.362 2.61-1.778.595 3.22 5.05z" clip-path="url(#pe26f0e85b6)" style="fill:#01b3ec"/><path d="m61.518 111.704-2.724-5.332-1.412 1.232-.044-5.083 4.092 3.015-1.826.422 2.724 5.333z" clip-path="url(#pe26f0e85b6)" style="fill:#06aeed"/><path d="m67.267 109.012-2.29-5.533-1.507 1.116.361-5.07 3.84 3.33-1.855.276 2.29 5.533zm5.101-1.942-1.906-5.678-1.58 1.01.709-5.034 3.602 3.587-1.869.148 1.906 5.677z" clip-path="url(#pe26f0e85b6)" style="fill:#08acee"/><path d="m76.968 105.65-1.558-5.782-1.638.912 1.011-4.981 3.379 3.797-1.875.035 1.56 5.782zm4.219-1.041-1.241-5.858-1.685.822 1.282-4.92 3.166 3.977-1.874-.068 1.242 5.858z" clip-path="url(#pe26f0e85b6)" style="fill:#09a9ee"/><path d="m85.12 103.855-.945-5.913-1.724.736 1.527-4.848 2.962 4.13-1.867-.161.944 5.913z" clip-path="url(#pe26f0e85b6)" style="fill:#09a9ee"/><path d="m88.845 103.328-.664-5.95-1.757.653 1.754-4.77 2.764 4.265-1.858-.25.665 5.951z" clip-path="url(#pe26f0e85b6)" style="fill:#0ca7ef"/><path d="m92.43 102.99-.394-5.976-1.785.574L92.22 92.9l2.568 4.387-1.845-.334.395 5.975z" clip-path="url(#pe26f0e85b6)" style="fill:#0ca7ef"/><path d="m95.935 102.815-.13-5.987-1.809.495 2.174-4.595 2.372 4.495-1.828-.414.13 5.986z" clip-path="url(#pe26f0e85b6)" style="fill:#0ca7ef"/></g><g id="PathCollection_3" clip-path="url(#pe26f0e85b6)"><use xlink:href="#m706bb7bc75" x="98.129" y="182.383" style="fill:gray;fill-opacity:.7;stroke:gray;stroke-opacity:.7"/></g><g id="PathCollection_4" clip-path="url(#pe26f0e85b6)"><use xlink:href="#m0ae24419d9" x="98.129" y="106.21" style="stroke:#000"/></g><g id="Quiver_2"><path d="m99.414 102.795.131-5.986-1.828.414 2.372-4.495 2.174 4.595-1.809-.495-.13 5.987z" clip-path="url(#pe26f0e85b6)" style="fill:#0ca7ef"/><path d="m102.921 102.93.395-5.976-1.845.334 2.568-4.387 1.969 4.687-1.785-.574-.395 5.975z" clip-path="url(#pe26f0e85b6)" style="fill:#0ca7ef"/><path d="m106.51 103.227.665-5.95-1.858.25 2.764-4.267 1.754 4.77-1.757-.653-.664 5.951z" clip-path="url(#pe26f0e85b6)" style="fill:#0ca7ef"/><path d="m110.241 103.712.945-5.913-1.867.162 2.962-4.131 1.527 4.848-1.724-.736-.945 5.913z" clip-path="url(#pe26f0e85b6)" style="fill:#09a9ee"/><path d="m114.182 104.42 1.241-5.858-1.873.068 3.166-3.976 1.282 4.919-1.685-.822-1.241 5.858zm4.231.993 1.558-5.782-1.874-.035 3.379-3.797 1.01 4.981-1.637-.912-1.559 5.781z" clip-path="url(#pe26f0e85b6)" style="fill:#09a9ee"/><path d="m123.03 106.78 1.905-5.677-1.869-.148 3.602-3.587.708 5.034-1.58-1.01-1.905 5.677zm5.122 1.884 2.29-5.533-1.854-.275 3.84-3.332.361 5.07-1.506-1.115-2.29 5.533z" clip-path="url(#pe26f0e85b6)" style="fill:#08acee"/><path d="m133.931 111.29 2.724-5.332-1.826-.422 4.092-3.015-.044 5.083-1.412-1.232-2.724 5.332z" clip-path="url(#pe26f0e85b6)" style="fill:#06aeed"/><path d="m140.544 115.027 3.22-5.049-1.778-.594 4.362-2.611-.528 5.055-1.29-1.36-3.219 5.048z" clip-path="url(#pe26f0e85b6)" style="fill:#01b3ec"/><path d="m148.183 120.492 3.792-4.635-1.696-.8 4.639-2.079-1.12 4.959-1.12-1.504-3.792 4.635z" clip-path="url(#pe26f0e85b6)" style="fill:#02b7eb"/><path d="m156.957 128.762 4.448-4.008-1.555-1.047 4.9-1.355-1.856 4.733-.88-1.656-4.449 4.009z" clip-path="url(#pe26f0e85b6)" style="fill:#0ac0e8"/><path d="m166.574 141.748 5.166-3.028-1.312-1.339 5.072-.337-2.773 4.26-.527-1.8-5.167 3.028z" clip-path="url(#pe26f0e85b6)" style="fill:#18cde4"/><path d="m175.252 162.688 5.81-1.448-.88-1.655 4.96 1.106-3.86 3.306v-1.875l-5.81 1.449z" clip-path="url(#pe26f0e85b6)" style="fill:#37e6d8"/><path d="m176.611 195.664 5.899 1.032-.134-1.87 4.086 3.024-4.87 1.455.76-1.713-5.898-1.033z" clip-path="url(#pe26f0e85b6)" style="fill:#88ffaf"/><path d="m154.926 238.15 4.248 4.22.96-1.611 1.623 4.816-4.827-1.59 1.604-.97-4.25-4.22zm-56.342 23.829v5.988l1.819-.455-2.274 4.547-2.273-4.547 1.819.455v-5.988zm-56.61-23.184-4.249 4.22 1.604.97-4.827 1.59 1.624-4.816.959 1.61 4.248-4.22z" clip-path="url(#pe26f0e85b6)" style="fill:red"/><path d="m19.805 196.56-5.899 1.032.762 1.713-4.87-1.455 4.085-3.023-.134 1.87 5.899-1.033z" clip-path="url(#pe26f0e85b6)" style="fill:#88ffaf"/><path d="m20.787 163.57-5.81-1.448v1.875l-3.86-3.306 4.96-1.106-.88 1.655 5.81 1.448z" clip-path="url(#pe26f0e85b6)" style="fill:#37e6d8"/><path d="m29.226 142.532-5.167-3.027-.527 1.799-2.773-4.26 5.072.337-1.312 1.34 5.166 3.027z" clip-path="url(#pe26f0e85b6)" style="fill:#18cde4"/><path d="m38.694 129.438-4.45-4.009-.879 1.656-1.856-4.733 4.9 1.355-1.555 1.047 4.448 4.008z" clip-path="url(#pe26f0e85b6)" style="fill:#0ac0e8"/><path d="m47.373 121.068-3.792-4.635-1.12 1.504-1.12-4.959 4.639 2.08-1.696.8 3.792 4.634z" clip-path="url(#pe26f0e85b6)" style="fill:#02b7eb"/><path d="m54.948 115.516-3.22-5.049-1.289 1.361-.528-5.055 4.362 2.61-1.778.595 3.22 5.05z" clip-path="url(#pe26f0e85b6)" style="fill:#01b3ec"/><path d="m61.518 111.704-2.724-5.332-1.412 1.232-.044-5.083 4.092 3.015-1.826.422 2.724 5.333z" clip-path="url(#pe26f0e85b6)" style="fill:#06aeed"/><path d="m67.267 109.012-2.29-5.533-1.507 1.116.361-5.07 3.84 3.33-1.855.276 2.29 5.533zm5.101-1.942-1.906-5.678-1.58 1.01.709-5.034 3.602 3.587-1.869.148 1.906 5.677z" clip-path="url(#pe26f0e85b6)" style="fill:#08acee"/><path d="m76.968 105.65-1.558-5.782-1.638.912 1.011-4.981 3.379 3.797-1.875.035 1.56 5.782zm4.219-1.041-1.241-5.858-1.685.822 1.282-4.92 3.166 3.977-1.874-.068 1.242 5.858z" clip-path="url(#pe26f0e85b6)" style="fill:#09a9ee"/><path d="m85.12 103.855-.945-5.913-1.724.736 1.527-4.848 2.962 4.13-1.867-.161.944 5.913z" clip-path="url(#pe26f0e85b6)" style="fill:#09a9ee"/><path d="m88.845 103.328-.664-5.95-1.757.653 1.754-4.77 2.764 4.265-1.858-.25.665 5.951z" clip-path="url(#pe26f0e85b6)" style="fill:#0ca7ef"/><path d="m92.43 102.99-.394-5.976-1.785.574L92.22 92.9l2.568 4.387-1.845-.334.395 5.975z" clip-path="url(#pe26f0e85b6)" style="fill:#0ca7ef"/><path d="m95.935 102.815-.13-5.987-1.809.495 2.174-4.595 2.372 4.495-1.828-.414.13 5.986z" clip-path="url(#pe26f0e85b6)" style="fill:#0ca7ef"/></g><g id="text_1" style="fill:gray" transform="matrix(.1 0 0 -.1 166.924 98.831)"><defs><path id="DejaVuSans-79" d="M2059-325q-243-625-475-815-231-191-618-191H506v481h338q237 0 368 113 132 112 291 531l103 262L191 3500h609L1894 763l1094 2737h609z" transform="scale(.01563)"/></defs><use xlink:href="#DejaVuSans-79"/></g><g id="text_2" style="fill:gray" transform="matrix(.1 0 0 -.1 87.062 29.335)"><defs><path id="DejaVuSans-7a" d="M353 3500h2731v-525L922 459h2162V0H275v525l2163 2516H353z" transform="scale(.01563)"/></defs><use xlink:href="#DejaVuSans-7a"/></g><g id="text_3" style="fill:gray" transform="matrix(.1 0 0 -.1 128.44 30.435)"><defs><path id="DejaVuSans-74" d="M1172 4494v-994h1184v-447H1172V1153q0-428 117-550t477-122h590V0h-590q-666 0-919 248-253 249-253 905v1900H172v447h422v994z" transform="scale(.01563)"/><path id="DejaVuSans-3d" d="M678 2906h4006v-525H678zm0-1275h4006v-531H678z" transform="scale(.01563)"/><path id="DejaVuSans-30" d="M2034 4250q-487 0-733-480-245-479-245-1442 0-959 245-1439 246-480 733-480 491 0 736 480 246 480 246 1439 0 963-246 1442-245 480-736 480m0 500q785 0 1199-621 414-620 414-1801 0-1178-414-1799Q2819-91 2034-91q-784 0-1198 620-414 621-414 1799 0 1181 414 1801 414 621 1198 621" transform="scale(.01563)"/></defs><use xlink:href="#DejaVuSans-74"/><use xlink:href="#DejaVuSans-3d" x="39.209"/><use xlink:href="#DejaVuSans-30" x="154.785"/></g></g></g><defs><clipPath id="pe26f0e85b6"><path d="M7.2 7.2h181.859v266.112H7.2z"/></clipPath></defs></svg>