<?xml version="1.0" encoding="utf-8" standalone="no"?>
<!DOCTYPE svg PUBLIC "-//W3C//DTD SVG 1.1//EN"
  "http://www.w3.org/Graphics/SVG/1.1/DTD/svg11.dtd">
<svg xmlns:xlink="http://www.w3.org/1999/xlink" width="196.258967pt" height="280.512pt" viewBox="0 0 196.258967 280.512" xmlns="http://www.w3.org/2000/svg" version="1.1">
 <metadata>
  <rdf:RDF xmlns:dc="http://purl.org/dc/elements/1.1/" xmlns:cc="http://creativecommons.org/ns#" xmlns:rdf="http://www.w3.org/1999/02/22-rdf-syntax-ns#">
   <cc:Work>
    <dc:type rdf:resource="http://purl.org/dc/dcmitype/StillImage"/>
    <dc:date>2024-07-10T12:40:31.647002</dc:date>
    <dc:format>image/svg+xml</dc:format>
    <dc:creator>
     <cc:Agent>
      <dc:title>Matplotlib v3.9.0, https://matplotlib.org/</dc:title>
     </cc:Agent>
    </dc:creator>
   </cc:Work>
  </rdf:RDF>
 </metadata>
 <defs>
  <style type="text/css">*{stroke-linejoin: round; stroke-linecap: butt}</style>
 </defs>
 <g id="figure_1">
  <g id="axes_1">
   <g id="patch_1">
    <path d="M 181.680548 106.209871 
L 177.991338 108.607857 
L 180.573785 106.211716 
L 7.2 106.211716 
L 7.2 106.208027 
L 180.573785 106.208027 
L 177.991338 103.811885 
z
" clip-path="url(#p1958f58317)" style="fill: #1f77b4; stroke: #808080; stroke-linejoin: miter"/>
   </g>
   <g id="patch_2">
    <path d="M 98.129484 14.578419 
L 100.52747 18.267629 
L 98.131328 15.685182 
L 98.131328 205.219742 
L 98.127639 205.219742 
L 98.127639 15.685182 
L 95.731497 18.267629 
z
" clip-path="url(#p1958f58317)" style="fill: #1f77b4; stroke: #808080; stroke-linejoin: miter"/>
   </g>
   <g id="PathCollection_1">
    <defs>
     <path id="m21a2d7538c" d="M 0 2.236068 
C 0.593012 2.236068 1.161816 2.000462 1.581139 1.581139 
C 2.000462 1.161816 2.236068 0.593012 2.236068 0 
C 2.236068 -0.593012 2.000462 -1.161816 1.581139 -1.581139 
C 1.161816 -2.000462 0.593012 -2.236068 0 -2.236068 
C -0.593012 -2.236068 -1.161816 -2.000462 -1.581139 -1.581139 
C -2.000462 -1.161816 -2.236068 -0.593012 -2.236068 0 
C -2.236068 0.593012 -2.000462 1.161816 -1.581139 1.581139 
C -1.161816 2.000462 -0.593012 2.236068 0 2.236068 
z
" style="stroke: #808080; stroke-opacity: 0.7"/>
    </defs>
    <g clip-path="url(#p1958f58317)">
     <use xlink:href="#m21a2d7538c" x="98.129484" y="182.382516" style="fill: #808080; fill-opacity: 0.7; stroke: #808080; stroke-opacity: 0.7"/>
    </g>
   </g>
   <g id="PathCollection_2">
    <defs>
     <path id="mbacf089d49" d="M 0 2.236068 
C 0.593012 2.236068 1.161816 2.000462 1.581139 1.581139 
C 2.000462 1.161816 2.236068 0.593012 2.236068 0 
C 2.236068 -0.593012 2.000462 -1.161816 1.581139 -1.581139 
C 1.161816 -2.000462 0.593012 -2.236068 0 -2.236068 
C -0.593012 -2.236068 -1.161816 -2.000462 -1.581139 -1.581139 
C -2.000462 -1.161816 -2.236068 -0.593012 -2.236068 0 
C -2.236068 0.593012 -2.000462 1.161816 -1.581139 1.581139 
C -1.161816 2.000462 -0.593012 2.236068 0 2.236068 
z
" style="stroke: #000000"/>
    </defs>
    <g clip-path="url(#p1958f58317)">
     <use xlink:href="#mbacf089d49" x="98.129484" y="106.209871" style="stroke: #000000"/>
    </g>
   </g>
   <g id="Quiver_1">
    <path d="M 99.41446 102.795318 
L 99.545327 96.808575 
L 97.717235 97.22337 
L 100.089289 92.727662 
L 102.262624 97.32273 
L 100.454404 96.828447 
L 100.323537 102.81519 
L 99.41446 102.795318 
" clip-path="url(#p1958f58317)" style="fill: #0ca7ef"/>
    <path d="M 102.921084 102.929298 
L 103.315695 96.954141 
L 101.471097 97.287959 
L 104.038998 92.901169 
L 106.007689 97.587564 
L 104.223013 97.014062 
L 103.828402 102.989219 
L 102.921084 102.929298 
" clip-path="url(#p1958f58317)" style="fill: #0ca7ef"/>
    <path d="M 106.51025 103.227377 
L 107.174743 97.276187 
L 105.316934 97.526222 
L 108.080643 93.260082 
L 109.835329 98.030733 
L 108.078422 97.377089 
L 107.413929 103.32828 
L 106.51025 103.227377 
" clip-path="url(#p1958f58317)" style="fill: #0ca7ef"/>
    <path d="M 110.241477 103.711855 
L 111.18646 97.798715 
L 109.318911 97.960678 
L 112.281134 93.829907 
L 113.808416 98.678148 
L 112.084361 97.942209 
L 111.139378 103.85535 
L 110.241477 103.711855 
" clip-path="url(#p1958f58317)" style="fill: #09a9ee"/>
    <path d="M 114.182324 104.420477 
L 115.423469 98.562339 
L 113.550138 98.630182 
L 116.716341 94.653601 
L 117.997884 99.572512 
L 116.313019 98.750805 
L 115.071873 104.608943 
L 114.182324 104.420477 
" clip-path="url(#p1958f58317)" style="fill: #09a9ee"/>
    <path d="M 118.412537 105.412581 
L 119.971493 99.630896 
L 118.097251 99.596416 
L 121.475725 95.798529 
L 122.48695 100.780041 
L 120.849433 99.867621 
L 119.290477 105.649306 
L 118.412537 105.412581 
" clip-path="url(#p1958f58317)" style="fill: #09a9ee"/>
    <path d="M 123.029118 106.779729 
L 124.934788 101.102878 
L 123.06606 100.955142 
L 126.667978 97.368469 
L 127.376165 102.402008 
L 125.796809 101.392251 
L 123.891139 107.069102 
L 123.029118 106.779729 
" clip-path="url(#p1958f58317)" style="fill: #08acee"/>
    <path d="M 128.152245 108.664085 
L 130.442516 103.131195 
L 128.588307 102.855727 
L 132.42758 99.524358 
L 132.789112 104.594597 
L 131.282677 103.478969 
L 128.992406 109.011859 
L 128.152245 108.664085 
" clip-path="url(#p1958f58317)" style="fill: #08acee"/>
    <path d="M 133.931001 111.290853 
L 136.654875 105.958055 
L 134.828513 105.535712 
L 138.921036 102.520867 
L 138.877398 107.603792 
L 137.464652 106.371671 
L 134.740778 111.704469 
L 133.931001 111.290853 
" clip-path="url(#p1958f58317)" style="fill: #06aeed"/>
    <path d="M 140.544427 115.027146 
L 143.76422 109.97827 
L 141.986431 109.383761 
L 146.347694 106.772742 
L 145.819752 111.828363 
L 144.530884 110.46719 
L 141.311091 115.516067 
L 140.544427 115.027146 
" clip-path="url(#p1958f58317)" style="fill: #01b3ec"/>
    <path d="M 148.182562 120.491785 
L 151.974619 115.857292 
L 150.279229 115.057527 
L 154.91767 112.978369 
L 153.797932 117.936616 
L 152.67836 116.43311 
L 148.886303 121.067603 
L 148.182562 120.491785 
" clip-path="url(#p1958f58317)" style="fill: #02b7eb"/>
    <path d="M 156.956756 128.762321 
L 161.405336 124.753786 
L 159.850201 123.707111 
L 164.749475 122.352436 
L 162.89365 127.084661 
L 162.014025 125.429296 
L 157.565446 129.437831 
L 156.956756 128.762321 
" clip-path="url(#p1958f58317)" style="fill: #0ac0e8"/>
    <path d="M 166.573556 141.747774 
L 171.740021 138.720259 
L 170.428314 137.381081 
L 175.500222 137.043762 
L 172.726932 141.30368 
L 172.199745 139.504778 
L 167.033279 142.532294 
L 166.573556 141.747774 
" clip-path="url(#p1958f58317)" style="fill: #18cde4"/>
    <path d="M 175.252215 162.688416 
L 181.062573 161.239981 
L 180.181541 159.585365 
L 185.142866 160.691387 
L 181.281254 163.996834 
L 181.282515 162.122275 
L 175.472158 163.57071 
L 175.252215 162.688416 
" clip-path="url(#p1958f58317)" style="fill: #37e6d8"/>
    <path d="M 176.611238 195.663615 
L 182.509664 196.696467 
L 182.375505 194.826715 
L 186.461747 197.850067 
L 181.591319 199.305049 
L 182.352827 197.592134 
L 176.454401 196.559281 
L 176.611238 195.663615 
" clip-path="url(#p1958f58317)" style="fill: #88ffaf"/>
    <path d="M 154.92566 238.1496 
L 159.174438 242.369328 
L 160.133371 240.758608 
L 161.757325 245.57533 
L 156.929575 243.98446 
L 158.533679 243.014499 
L 154.284901 238.79477 
L 154.92566 238.1496 
" clip-path="url(#p1958f58317)" style="fill: #ff0000"/>
    <path d="M 98.584131 261.978789 
L 98.584131 267.966962 
L 100.402721 267.512315 
L 98.129484 272.058789 
L 95.856246 267.512315 
L 97.674836 267.966962 
L 97.674836 261.978789 
L 98.584131 261.978789 
" clip-path="url(#p1958f58317)" style="fill: #ff0000"/>
    <path d="M 41.974066 238.79477 
L 37.725288 243.014499 
L 39.329392 243.98446 
L 34.501643 245.57533 
L 36.125596 240.758608 
L 37.084529 242.369328 
L 41.333307 238.1496 
L 41.974066 238.79477 
" clip-path="url(#p1958f58317)" style="fill: #ff0000"/>
    <path d="M 19.804567 196.559281 
L 13.90614 197.592134 
L 14.667648 199.305049 
L 9.79722 197.850067 
L 13.883462 194.826715 
L 13.749303 196.696467 
L 19.647729 195.663615 
L 19.804567 196.559281 
" clip-path="url(#p1958f58317)" style="fill: #88ffaf"/>
    <path d="M 20.786809 163.57071 
L 14.976452 162.122275 
L 14.977714 163.996834 
L 11.116101 160.691387 
L 16.077427 159.585365 
L 15.196394 161.239981 
L 21.006752 162.688416 
L 20.786809 163.57071 
" clip-path="url(#p1958f58317)" style="fill: #37e6d8"/>
    <path d="M 29.225688 142.532294 
L 24.059222 139.504778 
L 23.532035 141.30368 
L 20.758745 137.043762 
L 25.830653 137.381081 
L 24.518946 138.720259 
L 29.685411 141.747774 
L 29.225688 142.532294 
" clip-path="url(#p1958f58317)" style="fill: #18cde4"/>
    <path d="M 38.693521 129.437831 
L 34.244942 125.429296 
L 33.365317 127.084661 
L 31.509492 122.352436 
L 36.408766 123.707111 
L 34.853632 124.753786 
L 39.302211 128.762321 
L 38.693521 129.437831 
" clip-path="url(#p1958f58317)" style="fill: #0ac0e8"/>
    <path d="M 47.372664 121.067603 
L 43.580608 116.43311 
L 42.461035 117.936616 
L 41.341297 112.978369 
L 45.979738 115.057527 
L 44.284348 115.857292 
L 48.076405 120.491785 
L 47.372664 121.067603 
" clip-path="url(#p1958f58317)" style="fill: #02b7eb"/>
    <path d="M 54.947876 115.516067 
L 51.728083 110.46719 
L 50.439216 111.828363 
L 49.911273 106.772742 
L 54.272536 109.383761 
L 52.494748 109.97827 
L 55.71454 115.027146 
L 54.947876 115.516067 
" clip-path="url(#p1958f58317)" style="fill: #01b3ec"/>
    <path d="M 61.518189 111.704469 
L 58.794315 106.371671 
L 57.381569 107.603792 
L 57.337931 102.520867 
L 61.430454 105.535712 
L 59.604092 105.958055 
L 62.327966 111.290853 
L 61.518189 111.704469 
" clip-path="url(#p1958f58317)" style="fill: #06aeed"/>
    <path d="M 67.266561 109.011859 
L 64.97629 103.478969 
L 63.469855 104.594597 
L 63.831387 99.524358 
L 67.67066 102.855727 
L 65.816451 103.131195 
L 68.106722 108.664085 
L 67.266561 109.011859 
" clip-path="url(#p1958f58317)" style="fill: #08acee"/>
    <path d="M 72.367829 107.069102 
L 70.462158 101.392251 
L 68.882802 102.402008 
L 69.590989 97.368469 
L 73.192907 100.955142 
L 71.324179 101.102878 
L 73.22985 106.779729 
L 72.367829 107.069102 
" clip-path="url(#p1958f58317)" style="fill: #08acee"/>
    <path d="M 76.96849 105.649306 
L 75.409534 99.867621 
L 73.772017 100.780041 
L 74.783242 95.798529 
L 78.161717 99.596416 
L 76.287474 99.630896 
L 77.84643 105.412581 
L 76.96849 105.649306 
" clip-path="url(#p1958f58317)" style="fill: #09a9ee"/>
    <path d="M 81.187094 104.608943 
L 79.945949 98.750805 
L 78.261083 99.572512 
L 79.542626 94.653601 
L 82.708829 98.630182 
L 80.835498 98.562339 
L 82.076643 104.420477 
L 81.187094 104.608943 
" clip-path="url(#p1958f58317)" style="fill: #09a9ee"/>
    <path d="M 85.119589 103.85535 
L 84.174606 97.942209 
L 82.450551 98.678148 
L 83.977833 93.829907 
L 86.940057 97.960678 
L 85.072507 97.798715 
L 86.01749 103.711855 
L 85.119589 103.85535 
" clip-path="url(#p1958f58317)" style="fill: #09a9ee"/>
    <path d="M 88.845038 103.32828 
L 88.180545 97.377089 
L 86.423638 98.030733 
L 88.178324 93.260082 
L 90.942033 97.526222 
L 89.084224 97.276187 
L 89.748717 103.227377 
L 88.845038 103.32828 
" clip-path="url(#p1958f58317)" style="fill: #0ca7ef"/>
    <path d="M 92.430565 102.989219 
L 92.035954 97.014062 
L 90.251278 97.587564 
L 92.219969 92.901169 
L 94.78787 97.287959 
L 92.943273 96.954141 
L 93.337883 102.929298 
L 92.430565 102.989219 
" clip-path="url(#p1958f58317)" style="fill: #0ca7ef"/>
    <path d="M 95.93543 102.81519 
L 95.804563 96.828447 
L 93.996343 97.32273 
L 96.169678 92.727662 
L 98.541732 97.22337 
L 96.713641 96.808575 
L 96.844507 102.795318 
L 95.93543 102.81519 
" clip-path="url(#p1958f58317)" style="fill: #0ca7ef"/>
   </g>
   <g id="PathCollection_3">
    <g clip-path="url(#p1958f58317)">
     <use xlink:href="#m21a2d7538c" x="98.129484" y="182.382516" style="fill: #808080; fill-opacity: 0.7; stroke: #808080; stroke-opacity: 0.7"/>
    </g>
   </g>
   <g id="PathCollection_4">
    <g clip-path="url(#p1958f58317)">
     <use xlink:href="#mbacf089d49" x="98.129484" y="106.209871" style="stroke: #000000"/>
    </g>
   </g>
   <g id="Quiver_2">
    <path d="M 99.41446 102.795318 
L 99.545327 96.808575 
L 97.717235 97.22337 
L 100.089289 92.727662 
L 102.262624 97.32273 
L 100.454404 96.828447 
L 100.323537 102.81519 
L 99.41446 102.795318 
" clip-path="url(#p1958f58317)" style="fill: #0ca7ef"/>
    <path d="M 102.921084 102.929298 
L 103.315695 96.954141 
L 101.471097 97.287959 
L 104.038998 92.901169 
L 106.007689 97.587564 
L 104.223013 97.014062 
L 103.828402 102.989219 
L 102.921084 102.929298 
" clip-path="url(#p1958f58317)" style="fill: #0ca7ef"/>
    <path d="M 106.51025 103.227377 
L 107.174743 97.276187 
L 105.316934 97.526222 
L 108.080643 93.260082 
L 109.835329 98.030733 
L 108.078422 97.377089 
L 107.413929 103.32828 
L 106.51025 103.227377 
" clip-path="url(#p1958f58317)" style="fill: #0ca7ef"/>
    <path d="M 110.241477 103.711855 
L 111.18646 97.798715 
L 109.318911 97.960678 
L 112.281134 93.829907 
L 113.808416 98.678148 
L 112.084361 97.942209 
L 111.139378 103.85535 
L 110.241477 103.711855 
" clip-path="url(#p1958f58317)" style="fill: #09a9ee"/>
    <path d="M 114.182324 104.420477 
L 115.423469 98.562339 
L 113.550138 98.630182 
L 116.716341 94.653601 
L 117.997884 99.572512 
L 116.313019 98.750805 
L 115.071873 104.608943 
L 114.182324 104.420477 
" clip-path="url(#p1958f58317)" style="fill: #09a9ee"/>
    <path d="M 118.412537 105.412581 
L 119.971493 99.630896 
L 118.097251 99.596416 
L 121.475725 95.798529 
L 122.48695 100.780041 
L 120.849433 99.867621 
L 119.290477 105.649306 
L 118.412537 105.412581 
" clip-path="url(#p1958f58317)" style="fill: #09a9ee"/>
    <path d="M 123.029118 106.779729 
L 124.934788 101.102878 
L 123.06606 100.955142 
L 126.667978 97.368469 
L 127.376165 102.402008 
L 125.796809 101.392251 
L 123.891139 107.069102 
L 123.029118 106.779729 
" clip-path="url(#p1958f58317)" style="fill: #08acee"/>
    <path d="M 128.152245 108.664085 
L 130.442516 103.131195 
L 128.588307 102.855727 
L 132.42758 99.524358 
L 132.789112 104.594597 
L 131.282677 103.478969 
L 128.992406 109.011859 
L 128.152245 108.664085 
" clip-path="url(#p1958f58317)" style="fill: #08acee"/>
    <path d="M 133.931001 111.290853 
L 136.654875 105.958055 
L 134.828513 105.535712 
L 138.921036 102.520867 
L 138.877398 107.603792 
L 137.464652 106.371671 
L 134.740778 111.704469 
L 133.931001 111.290853 
" clip-path="url(#p1958f58317)" style="fill: #06aeed"/>
    <path d="M 140.544427 115.027146 
L 143.76422 109.97827 
L 141.986431 109.383761 
L 146.347694 106.772742 
L 145.819752 111.828363 
L 144.530884 110.46719 
L 141.311091 115.516067 
L 140.544427 115.027146 
" clip-path="url(#p1958f58317)" style="fill: #01b3ec"/>
    <path d="M 148.182562 120.491785 
L 151.974619 115.857292 
L 150.279229 115.057527 
L 154.91767 112.978369 
L 153.797932 117.936616 
L 152.67836 116.43311 
L 148.886303 121.067603 
L 148.182562 120.491785 
" clip-path="url(#p1958f58317)" style="fill: #02b7eb"/>
    <path d="M 156.956756 128.762321 
L 161.405336 124.753786 
L 159.850201 123.707111 
L 164.749475 122.352436 
L 162.89365 127.084661 
L 162.014025 125.429296 
L 157.565446 129.437831 
L 156.956756 128.762321 
" clip-path="url(#p1958f58317)" style="fill: #0ac0e8"/>
    <path d="M 166.573556 141.747774 
L 171.740021 138.720259 
L 170.428314 137.381081 
L 175.500222 137.043762 
L 172.726932 141.30368 
L 172.199745 139.504778 
L 167.033279 142.532294 
L 166.573556 141.747774 
" clip-path="url(#p1958f58317)" style="fill: #18cde4"/>
    <path d="M 175.252215 162.688416 
L 181.062573 161.239981 
L 180.181541 159.585365 
L 185.142866 160.691387 
L 181.281254 163.996834 
L 181.282515 162.122275 
L 175.472158 163.57071 
L 175.252215 162.688416 
" clip-path="url(#p1958f58317)" style="fill: #37e6d8"/>
    <path d="M 176.611238 195.663615 
L 182.509664 196.696467 
L 182.375505 194.826715 
L 186.461747 197.850067 
L 181.591319 199.305049 
L 182.352827 197.592134 
L 176.454401 196.559281 
L 176.611238 195.663615 
" clip-path="url(#p1958f58317)" style="fill: #88ffaf"/>
    <path d="M 154.92566 238.1496 
L 159.174438 242.369328 
L 160.133371 240.758608 
L 161.757325 245.57533 
L 156.929575 243.98446 
L 158.533679 243.014499 
L 154.284901 238.79477 
L 154.92566 238.1496 
" clip-path="url(#p1958f58317)" style="fill: #ff0000"/>
    <path d="M 98.584131 261.978789 
L 98.584131 267.966962 
L 100.402721 267.512315 
L 98.129484 272.058789 
L 95.856246 267.512315 
L 97.674836 267.966962 
L 97.674836 261.978789 
L 98.584131 261.978789 
" clip-path="url(#p1958f58317)" style="fill: #ff0000"/>
    <path d="M 41.974066 238.79477 
L 37.725288 243.014499 
L 39.329392 243.98446 
L 34.501643 245.57533 
L 36.125596 240.758608 
L 37.084529 242.369328 
L 41.333307 238.1496 
L 41.974066 238.79477 
" clip-path="url(#p1958f58317)" style="fill: #ff0000"/>
    <path d="M 19.804567 196.559281 
L 13.90614 197.592134 
L 14.667648 199.305049 
L 9.79722 197.850067 
L 13.883462 194.826715 
L 13.749303 196.696467 
L 19.647729 195.663615 
L 19.804567 196.559281 
" clip-path="url(#p1958f58317)" style="fill: #88ffaf"/>
    <path d="M 20.786809 163.57071 
L 14.976452 162.122275 
L 14.977714 163.996834 
L 11.116101 160.691387 
L 16.077427 159.585365 
L 15.196394 161.239981 
L 21.006752 162.688416 
L 20.786809 163.57071 
" clip-path="url(#p1958f58317)" style="fill: #37e6d8"/>
    <path d="M 29.225688 142.532294 
L 24.059222 139.504778 
L 23.532035 141.30368 
L 20.758745 137.043762 
L 25.830653 137.381081 
L 24.518946 138.720259 
L 29.685411 141.747774 
L 29.225688 142.532294 
" clip-path="url(#p1958f58317)" style="fill: #18cde4"/>
    <path d="M 38.693521 129.437831 
L 34.244942 125.429296 
L 33.365317 127.084661 
L 31.509492 122.352436 
L 36.408766 123.707111 
L 34.853632 124.753786 
L 39.302211 128.762321 
L 38.693521 129.437831 
" clip-path="url(#p1958f58317)" style="fill: #0ac0e8"/>
    <path d="M 47.372664 121.067603 
L 43.580608 116.43311 
L 42.461035 117.936616 
L 41.341297 112.978369 
L 45.979738 115.057527 
L 44.284348 115.857292 
L 48.076405 120.491785 
L 47.372664 121.067603 
" clip-path="url(#p1958f58317)" style="fill: #02b7eb"/>
    <path d="M 54.947876 115.516067 
L 51.728083 110.46719 
L 50.439216 111.828363 
L 49.911273 106.772742 
L 54.272536 109.383761 
L 52.494748 109.97827 
L 55.71454 115.027146 
L 54.947876 115.516067 
" clip-path="url(#p1958f58317)" style="fill: #01b3ec"/>
    <path d="M 61.518189 111.704469 
L 58.794315 106.371671 
L 57.381569 107.603792 
L 57.337931 102.520867 
L 61.430454 105.535712 
L 59.604092 105.958055 
L 62.327966 111.290853 
L 61.518189 111.704469 
" clip-path="url(#p1958f58317)" style="fill: #06aeed"/>
    <path d="M 67.266561 109.011859 
L 64.97629 103.478969 
L 63.469855 104.594597 
L 63.831387 99.524358 
L 67.67066 102.855727 
L 65.816451 103.131195 
L 68.106722 108.664085 
L 67.266561 109.011859 
" clip-path="url(#p1958f58317)" style="fill: #08acee"/>
    <path d="M 72.367829 107.069102 
L 70.462158 101.392251 
L 68.882802 102.402008 
L 69.590989 97.368469 
L 73.192907 100.955142 
L 71.324179 101.102878 
L 73.22985 106.779729 
L 72.367829 107.069102 
" clip-path="url(#p1958f58317)" style="fill: #08acee"/>
    <path d="M 76.96849 105.649306 
L 75.409534 99.867621 
L 73.772017 100.780041 
L 74.783242 95.798529 
L 78.161717 99.596416 
L 76.287474 99.630896 
L 77.84643 105.412581 
L 76.96849 105.649306 
" clip-path="url(#p1958f58317)" style="fill: #09a9ee"/>
    <path d="M 81.187094 104.608943 
L 79.945949 98.750805 
L 78.261083 99.572512 
L 79.542626 94.653601 
L 82.708829 98.630182 
L 80.835498 98.562339 
L 82.076643 104.420477 
L 81.187094 104.608943 
" clip-path="url(#p1958f58317)" style="fill: #09a9ee"/>
    <path d="M 85.119589 103.85535 
L 84.174606 97.942209 
L 82.450551 98.678148 
L 83.977833 93.829907 
L 86.940057 97.960678 
L 85.072507 97.798715 
L 86.01749 103.711855 
L 85.119589 103.85535 
" clip-path="url(#p1958f58317)" style="fill: #09a9ee"/>
    <path d="M 88.845038 103.32828 
L 88.180545 97.377089 
L 86.423638 98.030733 
L 88.178324 93.260082 
L 90.942033 97.526222 
L 89.084224 97.276187 
L 89.748717 103.227377 
L 88.845038 103.32828 
" clip-path="url(#p1958f58317)" style="fill: #0ca7ef"/>
    <path d="M 92.430565 102.989219 
L 92.035954 97.014062 
L 90.251278 97.587564 
L 92.219969 92.901169 
L 94.78787 97.287959 
L 92.943273 96.954141 
L 93.337883 102.929298 
L 92.430565 102.989219 
" clip-path="url(#p1958f58317)" style="fill: #0ca7ef"/>
    <path d="M 95.93543 102.81519 
L 95.804563 96.828447 
L 93.996343 97.32273 
L 96.169678 92.727662 
L 98.541732 97.22337 
L 96.713641 96.808575 
L 96.844507 102.795318 
L 95.93543 102.81519 
" clip-path="url(#p1958f58317)" style="fill: #0ca7ef"/>
   </g>
   <g id="text_1">
    <!-- y' -->
    <g style="fill: #808080" transform="translate(166.92371 98.831452) scale(0.1 -0.1)">
     <defs>
      <path id="DejaVuSans-79" d="M 2059 -325 
Q 1816 -950 1584 -1140 
Q 1353 -1331 966 -1331 
L 506 -1331 
L 506 -850 
L 844 -850 
Q 1081 -850 1212 -737 
Q 1344 -625 1503 -206 
L 1606 56 
L 191 3500 
L 800 3500 
L 1894 763 
L 2988 3500 
L 3597 3500 
L 2059 -325 
z
" transform="scale(0.015625)"/>
      <path id="DejaVuSans-27" d="M 1147 4666 
L 1147 2931 
L 616 2931 
L 616 4666 
L 1147 4666 
z
" transform="scale(0.015625)"/>
     </defs>
     <use xlink:href="#DejaVuSans-79"/>
     <use xlink:href="#DejaVuSans-27" x="59.179688"/>
    </g>
   </g>
   <g id="text_2">
    <!-- z' -->
    <g style="fill: #808080" transform="translate(87.061855 29.335258) scale(0.1 -0.1)">
     <defs>
      <path id="DejaVuSans-7a" d="M 353 3500 
L 3084 3500 
L 3084 2975 
L 922 459 
L 3084 459 
L 3084 0 
L 275 0 
L 275 525 
L 2438 3041 
L 353 3041 
L 353 3500 
z
" transform="scale(0.015625)"/>
     </defs>
     <use xlink:href="#DejaVuSans-7a"/>
     <use xlink:href="#DejaVuSans-27" x="52.490234"/>
    </g>
   </g>
   <g id="text_3">
    <!-- t'= 0 -->
    <g style="fill: #808080" transform="translate(128.439311 30.435302) scale(0.1 -0.1)">
     <defs>
      <path id="DejaVuSans-74" d="M 1172 4494 
L 1172 3500 
L 2356 3500 
L 2356 3053 
L 1172 3053 
L 1172 1153 
Q 1172 725 1289 603 
Q 1406 481 1766 481 
L 2356 481 
L 2356 0 
L 1766 0 
Q 1100 0 847 248 
Q 594 497 594 1153 
L 594 3053 
L 172 3053 
L 172 3500 
L 594 3500 
L 594 4494 
L 1172 4494 
z
" transform="scale(0.015625)"/>
      <path id="DejaVuSans-3d" d="M 678 2906 
L 4684 2906 
L 4684 2381 
L 678 2381 
L 678 2906 
z
M 678 1631 
L 4684 1631 
L 4684 1100 
L 678 1100 
L 678 1631 
z
" transform="scale(0.015625)"/>
      <path id="DejaVuSans-20" transform="scale(0.015625)"/>
      <path id="DejaVuSans-30" d="M 2034 4250 
Q 1547 4250 1301 3770 
Q 1056 3291 1056 2328 
Q 1056 1369 1301 889 
Q 1547 409 2034 409 
Q 2525 409 2770 889 
Q 3016 1369 3016 2328 
Q 3016 3291 2770 3770 
Q 2525 4250 2034 4250 
z
M 2034 4750 
Q 2819 4750 3233 4129 
Q 3647 3509 3647 2328 
Q 3647 1150 3233 529 
Q 2819 -91 2034 -91 
Q 1250 -91 836 529 
Q 422 1150 422 2328 
Q 422 3509 836 4129 
Q 1250 4750 2034 4750 
z
" transform="scale(0.015625)"/>
     </defs>
     <use xlink:href="#DejaVuSans-74"/>
     <use xlink:href="#DejaVuSans-27" x="39.208984"/>
     <use xlink:href="#DejaVuSans-3d" x="66.699219"/>
     <use xlink:href="#DejaVuSans-20" x="150.488281"/>
     <use xlink:href="#DejaVuSans-30" x="182.275391"/>
    </g>
   </g>
  </g>
 </g>
 <defs>
  <clipPath id="p1958f58317">
   <rect x="7.2" y="7.2" width="181.858967" height="266.112"/>
  </clipPath>
 </defs>
</svg>
