<svg xmlns="http://www.w3.org/2000/svg" xmlns:xlink="http://www.w3.org/1999/xlink" width="529.392" height="420.786" shape-rendering="crispEdges" viewBox="0 0 397.044 315.589"><defs><style>*{stroke-linejoin:round;stroke-linecap:butt}</style></defs><g id="figure_1"><path id="patch_1" d="M0 315.59h397.044V0H0z" style="fill:none"/><g id="axes_1"><path id="patch_2" d="M49.905 277.111h266.112V11H49.905z" style="fill:none"/><path id="QuadContourSet_1" d="M52.593 277.111h263.424V11H49.905v266.112zm129.024-112.896-2.688-2.688h-5.376l-2.688-2.688-2.688-2.688-2.688-2.688v-5.376L162.8 145.4v-2.688l2.688-2.688v-5.376l2.688-2.688 2.688-2.688 2.688-2.688h5.376l2.688-2.688h2.688l2.688 2.688h5.376l2.688 2.688 2.688 2.688 2.688 2.688v5.376l2.688 2.688v2.688l-2.688 2.688v5.376l-2.688 2.688-2.688 2.688-2.688 2.688h-5.376l-2.688 2.688z" clip-path="url(#pf6f1e3a9a4)" style="fill:#0070dd"/><path id="patch_3" d="M182.96 164.014a19.96 19.96 0 1 0 0-39.919 19.96 19.96 0 0 0 0 39.919z" clip-path="url(#pf6f1e3a9a4)" style="stroke:#000;stroke-linejoin:miter"/><g id="matplotlib.axis_1"><g id="xtick_1"><g id="line2d_1"><defs><path id="maa354b0c29" d="M0 0v3.5" style="stroke:#000;stroke-width:.8"/></defs><use xlink:href="#maa354b0c29" x="49.905" y="277.111" style="stroke:#000;stroke-width:.8"/></g><g id="text_1" transform="matrix(.1 0 0 -.1 39.352 291.71)"><defs><path id="DejaVuSans-2212" d="M678 2272h4006v-531H678z" transform="scale(.01563)"/><path id="DejaVuSans-31" d="M794 531h1031v3560L703 3866v575l1116 225h631V531h1031V0H794z" transform="scale(.01563)"/><path id="DejaVuSans-30" d="M2034 4250q-487 0-733-480-245-479-245-1442 0-959 245-1439 246-480 733-480 491 0 736 480 246 480 246 1439 0 963-246 1442-245 480-736 480m0 500q785 0 1199-621 414-620 414-1801 0-1178-414-1799Q2819-91 2034-91q-784 0-1198 620-414 621-414 1799 0 1181 414 1801 414 621 1198 621" transform="scale(.01563)"/></defs><use xlink:href="#DejaVuSans-2212"/><use xlink:href="#DejaVuSans-31" x="83.789"/><use xlink:href="#DejaVuSans-30" x="147.412"/></g></g><g id="xtick_2"><use xlink:href="#maa354b0c29" id="line2d_2" x="116.433" y="277.111" style="stroke:#000;stroke-width:.8"/><g id="text_2" transform="matrix(.1 0 0 -.1 109.062 291.71)"><defs><path id="DejaVuSans-35" d="M691 4666h2478v-532H1269V2991q137 47 274 70 138 23 276 23 781 0 1237-428 457-428 457-1159 0-753-469-1171Q2575-91 1722-91q-294 0-599 50Q819 9 494 109v635q281-153 581-228t634-75q541 0 856 284 316 284 316 772 0 487-316 771-315 285-856 285-253 0-505-56-251-56-513-175z" transform="scale(.01563)"/></defs><use xlink:href="#DejaVuSans-2212"/><use xlink:href="#DejaVuSans-35" x="83.789"/></g></g><g id="xtick_3"><use xlink:href="#maa354b0c29" id="line2d_3" x="182.961" y="277.111" style="stroke:#000;stroke-width:.8"/><use xlink:href="#DejaVuSans-30" id="text_3" transform="matrix(.1 0 0 -.1 179.78 291.71)"/></g><g id="xtick_4"><use xlink:href="#maa354b0c29" id="line2d_4" x="249.489" y="277.111" style="stroke:#000;stroke-width:.8"/><use xlink:href="#DejaVuSans-35" id="text_4" transform="matrix(.1 0 0 -.1 246.307 291.71)"/></g><g id="xtick_5"><use xlink:href="#maa354b0c29" id="line2d_5" x="316.017" y="277.111" style="stroke:#000;stroke-width:.8"/><g id="text_5" transform="matrix(.1 0 0 -.1 309.654 291.71)"><use xlink:href="#DejaVuSans-31"/><use xlink:href="#DejaVuSans-30" x="63.623"/></g></g><g id="text_6" transform="matrix(.1 0 0 -.1 179.36 305.59)"><defs><path id="DejaVuSans-Oblique-6c" d="M1172 4863h575L800 0H225z" transform="scale(.01563)"/><path id="Cmsy10-30" d="M225 347q-41 12-41 62l782 2907q37 118 127 190 91 72 207 72 150 0 264-99 114-98 114-248 0-65-34-147L488 319q-22-44-60-44-34 0-108 31-73 32-95 41" transform="scale(.01563)"/><path id="DejaVuSans-Oblique-78" d="M3841 3500 2234 1784 3219 0h-660l-740 1388L531 0h-697l1722 1844-915 1656h659l672-1266 1172 1266z" transform="scale(.01563)"/></defs><use xlink:href="#DejaVuSans-Oblique-6c" transform="translate(0 .584)"/><use xlink:href="#Cmsy10-30" transform="matrix(.7 0 0 .7 35.23 38.866)"/><use xlink:href="#DejaVuSans-Oblique-78" transform="matrix(.7 0 0 .7 27.783 -26.76)"/></g></g><g id="matplotlib.axis_2"><g id="ytick_1"><g id="line2d_6"><defs><path id="m111b91053c" d="M0 0h-3.5" style="stroke:#000;stroke-width:.8"/></defs><use xlink:href="#m111b91053c" x="49.905" y="277.111" style="stroke:#000;stroke-width:.8"/></g><g id="text_7" transform="matrix(.1 0 0 -.1 21.8 280.91)"><use xlink:href="#DejaVuSans-2212"/><use xlink:href="#DejaVuSans-31" x="83.789"/><use xlink:href="#DejaVuSans-30" x="147.412"/></g></g><g id="ytick_2"><use xlink:href="#m111b91053c" id="line2d_7" x="49.905" y="210.583" style="stroke:#000;stroke-width:.8"/><g id="text_8" transform="matrix(.1 0 0 -.1 28.163 214.382)"><use xlink:href="#DejaVuSans-2212"/><use xlink:href="#DejaVuSans-35" x="83.789"/></g></g><g id="ytick_3"><use xlink:href="#m111b91053c" id="line2d_8" x="49.905" y="144.055" style="stroke:#000;stroke-width:.8"/><use xlink:href="#DejaVuSans-30" id="text_9" transform="matrix(.1 0 0 -.1 36.542 147.854)"/></g><g id="ytick_4"><use xlink:href="#m111b91053c" id="line2d_9" x="49.905" y="77.527" style="stroke:#000;stroke-width:.8"/><use xlink:href="#DejaVuSans-35" id="text_10" transform="matrix(.1 0 0 -.1 36.542 81.326)"/></g><g id="ytick_5"><use xlink:href="#m111b91053c" id="line2d_10" x="49.905" y="10.999" style="stroke:#000;stroke-width:.8"/><g id="text_11" transform="matrix(.1 0 0 -.1 30.18 14.798)"><use xlink:href="#DejaVuSans-31"/><use xlink:href="#DejaVuSans-30" x="63.623"/></g></g><g id="text_12" transform="matrix(0 -.1 -.1 0 15 147.455)"><defs><path id="DejaVuSans-Oblique-7a" d="M744 3500h2731l-103-525L738 459h2175L2822 0H-19L84 525l2635 2516H653z" transform="scale(.01563)"/></defs><use xlink:href="#DejaVuSans-Oblique-6c" transform="translate(0 .584)"/><use xlink:href="#Cmsy10-30" transform="matrix(.7 0 0 .7 35.23 38.866)"/><use xlink:href="#DejaVuSans-Oblique-7a" transform="matrix(.7 0 0 .7 27.783 -26.76)"/></g></g><path id="patch_4" d="M49.905 277.111V11" style="fill:none;stroke:#000;stroke-width:.8;stroke-linejoin:miter;stroke-linecap:square"/><path id="patch_5" d="M316.017 277.111V11" style="fill:none;stroke:#000;stroke-width:.8;stroke-linejoin:miter;stroke-linecap:square"/><path id="patch_6" d="M49.905 277.111h266.112" style="fill:none;stroke:#000;stroke-width:.8;stroke-linejoin:miter;stroke-linecap:square"/><path id="patch_7" d="M49.905 11h266.112" style="fill:none;stroke:#000;stroke-width:.8;stroke-linejoin:miter;stroke-linecap:square"/></g><g id="axes_2"><path id="patch_8" d="M343.665 277.111h13.305V11h-13.305z" style="fill:none"/><g id="QuadMesh_1"><path d="M343.665 277.111h13.305V144.055h-13.305z" clip-path="url(#p5a39d32cd0)" style="fill:#0070dd"/><path d="M343.665 144.055h13.305V11h-13.305z" clip-path="url(#p5a39d32cd0)" style="fill:#ffcd00"/></g><g id="matplotlib.axis_4"><g id="ytick_6"><g id="line2d_11"><defs><path id="mfe0d812e55" d="M0 0h3.5" style="stroke:#000;stroke-width:.8"/></defs><use xlink:href="#mfe0d812e55" x="356.97" y="277.111" style="stroke:#000;stroke-width:.8"/></g><g id="text_13" transform="matrix(.1 0 0 -.1 363.97 280.91)"><defs><path id="DejaVuSans-2d" d="M313 2009h1684v-512H313z" transform="scale(.01563)"/><path id="DejaVuSans-2e" d="M684 794h660V0H684z" transform="scale(.01563)"/></defs><use xlink:href="#DejaVuSans-2d"/><use xlink:href="#DejaVuSans-30" x="36.084"/><use xlink:href="#DejaVuSans-2e" x="99.707"/><use xlink:href="#DejaVuSans-30" x="131.494"/><use xlink:href="#DejaVuSans-30" x="195.117"/></g></g><g id="ytick_7"><use xlink:href="#mfe0d812e55" id="line2d_12" x="356.97" y="144.055" style="stroke:#000;stroke-width:.8"/><g id="text_14" transform="matrix(.1 0 0 -.1 363.97 147.854)"><use xlink:href="#DejaVuSans-30"/><use xlink:href="#DejaVuSans-2e" x="63.623"/><use xlink:href="#DejaVuSans-30" x="95.41"/><use xlink:href="#DejaVuSans-30" x="159.033"/></g></g><g id="ytick_8"><use xlink:href="#mfe0d812e55" id="line2d_13" x="356.97" y="10.999" style="stroke:#000;stroke-width:.8"/><g id="text_15" transform="matrix(.1 0 0 -.1 363.97 14.798)"><use xlink:href="#DejaVuSans-30"/><use xlink:href="#DejaVuSans-2e" x="63.623"/><use xlink:href="#DejaVuSans-30" x="95.41"/><use xlink:href="#DejaVuSans-30" x="159.033"/></g></g></g><path id="patch_9" d="M343.665 277.111h13.305V11h-13.305z" style="fill:none;stroke:#000;stroke-width:.8;stroke-linejoin:miter;stroke-linecap:square"/></g></g><defs><clipPath id="pf6f1e3a9a4"><path d="M49.905 10.999h266.112v266.112H49.905z"/></clipPath><clipPath id="p5a39d32cd0"><path d="M343.665 10.999h13.306v266.112h-13.306z"/></clipPath></defs></svg>