<svg xmlns="http://www.w3.org/2000/svg" xml:space="preserve" width="4422" height="1646" overflow="hidden"><defs><linearGradient id="b" x1="2210" x2="2464.75" y1="1271" y2="1271" gradientUnits="userSpaceOnUse" spreadMethod="reflect"><stop offset="0" stop-color="#7F7F7F" stop-opacity="0"/><stop offset=".28" stop-color="#7F7F7F" stop-opacity=".149"/><stop offset=".68" stop-color="#7F7F7F"/><stop offset="1" stop-color="#262626"/></linearGradient><linearGradient id="c" x1="2213" x2="2467.75" y1="1285" y2="1285" gradientUnits="userSpaceOnUse" spreadMethod="reflect"><stop offset="0" stop-color="#7F7F7F" stop-opacity="0"/><stop offset=".28" stop-color="#7F7F7F" stop-opacity=".149"/><stop offset=".68" stop-color="#7F7F7F"/><stop offset="1" stop-color="#262626"/></linearGradient><linearGradient id="d" x1="2209" x2="2463.75" y1="1300" y2="1300" gradientUnits="userSpaceOnUse" spreadMethod="reflect"><stop offset="0" stop-color="#7F7F7F" stop-opacity="0"/><stop offset=".28" stop-color="#7F7F7F" stop-opacity=".149"/><stop offset=".68" stop-color="#7F7F7F"/><stop offset="1" stop-color="#262626"/></linearGradient><linearGradient id="e" x1="2213" x2="2467.75" y1="1314" y2="1314" gradientUnits="userSpaceOnUse" spreadMethod="reflect"><stop offset="0" stop-color="#7F7F7F" stop-opacity="0"/><stop offset=".28" stop-color="#7F7F7F" stop-opacity=".149"/><stop offset=".68" stop-color="#7F7F7F"/><stop offset="1" stop-color="#262626"/></linearGradient><linearGradient id="f" x1="2218" x2="2472.75" y1="1328" y2="1328" gradientUnits="userSpaceOnUse" spreadMethod="reflect"><stop offset="0" stop-color="#7F7F7F" stop-opacity="0"/><stop offset=".28" stop-color="#7F7F7F" stop-opacity=".149"/><stop offset=".68" stop-color="#7F7F7F"/><stop offset="1" stop-color="#262626"/></linearGradient><linearGradient id="g" x1="2224" x2="2478.75" y1="1342" y2="1342" gradientUnits="userSpaceOnUse" spreadMethod="reflect"><stop offset="0" stop-color="#7F7F7F" stop-opacity="0"/><stop offset=".28" stop-color="#7F7F7F" stop-opacity=".149"/><stop offset=".68" stop-color="#7F7F7F"/><stop offset="1" stop-color="#262626"/></linearGradient><linearGradient id="h" x1="0" x2="254.75" y1="0" y2="0" gradientUnits="userSpaceOnUse" spreadMethod="reflect"><stop offset="0" stop-color="#7F7F7F" stop-opacity="0"/><stop offset=".28" stop-color="#7F7F7F" stop-opacity=".149"/><stop offset=".68" stop-color="#7F7F7F"/><stop offset="1" stop-color="#262626"/></linearGradient><linearGradient id="i" x1="0" x2="254.75" y1="0" y2="0" gradientUnits="userSpaceOnUse" spreadMethod="reflect"><stop offset="0" stop-color="#7F7F7F" stop-opacity="0"/><stop offset=".28" stop-color="#7F7F7F" stop-opacity=".149"/><stop offset=".68" stop-color="#7F7F7F"/><stop offset="1" stop-color="#262626"/></linearGradient><linearGradient id="j" x1="0" x2="254.75" y1="0" y2="0" gradientUnits="userSpaceOnUse" spreadMethod="reflect"><stop offset="0" stop-color="#7F7F7F" stop-opacity="0"/><stop offset=".28" stop-color="#7F7F7F" stop-opacity=".149"/><stop offset=".68" stop-color="#7F7F7F"/><stop offset="1" stop-color="#262626"/></linearGradient><linearGradient id="k" x1="0" x2="254.75" y1="0" y2="0" gradientUnits="userSpaceOnUse" spreadMethod="reflect"><stop offset="0" stop-color="#7F7F7F" stop-opacity="0"/><stop offset=".28" stop-color="#7F7F7F" stop-opacity=".149"/><stop offset=".68" stop-color="#7F7F7F"/><stop offset="1" stop-color="#262626"/></linearGradient><linearGradient id="l" x1="0" x2="254.75" y1="0" y2="0" gradientUnits="userSpaceOnUse" spreadMethod="reflect"><stop offset="0" stop-color="#7F7F7F" stop-opacity="0"/><stop offset=".28" stop-color="#7F7F7F" stop-opacity=".149"/><stop offset=".68" stop-color="#7F7F7F"/><stop offset="1" stop-color="#262626"/></linearGradient><linearGradient id="m" x1="0" x2="254.75" y1="0" y2="0" gradientUnits="userSpaceOnUse" spreadMethod="reflect"><stop offset="0" stop-color="#7F7F7F" stop-opacity="0"/><stop offset=".28" stop-color="#7F7F7F" stop-opacity=".149"/><stop offset=".68" stop-color="#7F7F7F"/><stop offset="1" stop-color="#262626"/></linearGradient><linearGradient id="n" x1="3847" x2="4101.75" y1="1269" y2="1269" gradientUnits="userSpaceOnUse" spreadMethod="reflect"><stop offset="0" stop-color="#7F7F7F" stop-opacity="0"/><stop offset=".28" stop-color="#7F7F7F" stop-opacity=".149"/><stop offset=".68" stop-color="#7F7F7F"/><stop offset="1" stop-color="#262626"/></linearGradient><linearGradient id="o" x1="3849" x2="4103.75" y1="1283" y2="1283" gradientUnits="userSpaceOnUse" spreadMethod="reflect"><stop offset="0" stop-color="#7F7F7F" stop-opacity="0"/><stop offset=".28" stop-color="#7F7F7F" stop-opacity=".149"/><stop offset=".68" stop-color="#7F7F7F"/><stop offset="1" stop-color="#262626"/></linearGradient><linearGradient id="p" x1="3857" x2="4111.75" y1="1298" y2="1298" gradientUnits="userSpaceOnUse" spreadMethod="reflect"><stop offset="0" stop-color="#7F7F7F" stop-opacity="0"/><stop offset=".28" stop-color="#7F7F7F" stop-opacity=".149"/><stop offset=".68" stop-color="#7F7F7F"/><stop offset="1" stop-color="#262626"/></linearGradient><linearGradient id="q" x1="3868" x2="4122.75" y1="1312" y2="1312" gradientUnits="userSpaceOnUse" spreadMethod="reflect"><stop offset="0" stop-color="#7F7F7F" stop-opacity="0"/><stop offset=".28" stop-color="#7F7F7F" stop-opacity=".149"/><stop offset=".68" stop-color="#7F7F7F"/><stop offset="1" stop-color="#262626"/></linearGradient><linearGradient id="r" x1="3886" x2="4140.75" y1="1326" y2="1326" gradientUnits="userSpaceOnUse" spreadMethod="reflect"><stop offset="0" stop-color="#7F7F7F" stop-opacity="0"/><stop offset=".28" stop-color="#7F7F7F" stop-opacity=".149"/><stop offset=".68" stop-color="#7F7F7F"/><stop offset="1" stop-color="#262626"/></linearGradient><linearGradient id="s" x1="3916" x2="4170.75" y1="1340" y2="1340" gradientUnits="userSpaceOnUse" spreadMethod="reflect"><stop offset="0" stop-color="#7F7F7F" stop-opacity="0"/><stop offset=".28" stop-color="#7F7F7F" stop-opacity=".149"/><stop offset=".68" stop-color="#7F7F7F"/><stop offset="1" stop-color="#262626"/></linearGradient><linearGradient id="t" x1="0" x2="254.75" y1="0" y2="0" gradientUnits="userSpaceOnUse" spreadMethod="reflect"><stop offset="0" stop-color="#7F7F7F" stop-opacity="0"/><stop offset=".28" stop-color="#7F7F7F" stop-opacity=".149"/><stop offset=".68" stop-color="#7F7F7F"/><stop offset="1" stop-color="#262626"/></linearGradient><linearGradient id="u" x1="0" x2="254.75" y1="0" y2="0" gradientUnits="userSpaceOnUse" spreadMethod="reflect"><stop offset="0" stop-color="#7F7F7F" stop-opacity="0"/><stop offset=".28" stop-color="#7F7F7F" stop-opacity=".149"/><stop offset=".68" stop-color="#7F7F7F"/><stop offset="1" stop-color="#262626"/></linearGradient><linearGradient id="v" x1="0" x2="254.75" y1="0" y2="0" gradientUnits="userSpaceOnUse" spreadMethod="reflect"><stop offset="0" stop-color="#7F7F7F" stop-opacity="0"/><stop offset=".28" stop-color="#7F7F7F" stop-opacity=".149"/><stop offset=".68" stop-color="#7F7F7F"/><stop offset="1" stop-color="#262626"/></linearGradient><linearGradient id="w" x1="0" x2="254.75" y1="0" y2="0" gradientUnits="userSpaceOnUse" spreadMethod="reflect"><stop offset="0" stop-color="#7F7F7F" stop-opacity="0"/><stop offset=".28" stop-color="#7F7F7F" stop-opacity=".149"/><stop offset=".68" stop-color="#7F7F7F"/><stop offset="1" stop-color="#262626"/></linearGradient><linearGradient id="x" x1="0" x2="254.75" y1="0" y2="0" gradientUnits="userSpaceOnUse" spreadMethod="reflect"><stop offset="0" stop-color="#7F7F7F" stop-opacity="0"/><stop offset=".28" stop-color="#7F7F7F" stop-opacity=".149"/><stop offset=".68" stop-color="#7F7F7F"/><stop offset="1" stop-color="#262626"/></linearGradient><linearGradient id="y" x1="0" x2="254.75" y1="0" y2="0" gradientUnits="userSpaceOnUse" spreadMethod="reflect"><stop offset="0" stop-color="#7F7F7F" stop-opacity="0"/><stop offset=".28" stop-color="#7F7F7F" stop-opacity=".149"/><stop offset=".68" stop-color="#7F7F7F"/><stop offset="1" stop-color="#262626"/></linearGradient><linearGradient id="z" x1="2694" x2="2948.75" y1="1274" y2="1274" gradientUnits="userSpaceOnUse" spreadMethod="reflect"><stop offset="0" stop-color="#7F7F7F" stop-opacity="0"/><stop offset=".28" stop-color="#7F7F7F" stop-opacity=".149"/><stop offset=".68" stop-color="#595959"/><stop offset="1" stop-color="#0D0D0D"/></linearGradient><linearGradient id="A" x1="2697" x2="2951.75" y1="1288" y2="1288" gradientUnits="userSpaceOnUse" spreadMethod="reflect"><stop offset="0" stop-color="#7F7F7F" stop-opacity="0"/><stop offset=".28" stop-color="#7F7F7F" stop-opacity=".149"/><stop offset=".68" stop-color="#595959"/><stop offset="1" stop-color="#0D0D0D"/></linearGradient><linearGradient id="B" x1="2704" x2="2958.75" y1="1302" y2="1302" gradientUnits="userSpaceOnUse" spreadMethod="reflect"><stop offset="0" stop-color="#7F7F7F" stop-opacity="0"/><stop offset=".28" stop-color="#7F7F7F" stop-opacity=".149"/><stop offset=".68" stop-color="#595959"/><stop offset="1" stop-color="#0D0D0D"/></linearGradient><linearGradient id="C" x1="2716" x2="2970.75" y1="1316" y2="1316" gradientUnits="userSpaceOnUse" spreadMethod="reflect"><stop offset="0" stop-color="#7F7F7F" stop-opacity="0"/><stop offset=".28" stop-color="#7F7F7F" stop-opacity=".149"/><stop offset=".68" stop-color="#595959"/><stop offset="1" stop-color="#0D0D0D"/></linearGradient><linearGradient id="D" x1="2734" x2="2988.75" y1="1330" y2="1330" gradientUnits="userSpaceOnUse" spreadMethod="reflect"><stop offset="0" stop-color="#7F7F7F" stop-opacity="0"/><stop offset=".28" stop-color="#7F7F7F" stop-opacity=".149"/><stop offset=".68" stop-color="#595959"/><stop offset="1" stop-color="#0D0D0D"/></linearGradient><linearGradient id="E" x1="2764" x2="3018.75" y1="1345" y2="1345" gradientUnits="userSpaceOnUse" spreadMethod="reflect"><stop offset="0" stop-color="#7F7F7F" stop-opacity="0"/><stop offset=".28" stop-color="#7F7F7F" stop-opacity=".149"/><stop offset=".68" stop-color="#595959"/><stop offset="1" stop-color="#0D0D0D"/></linearGradient><linearGradient id="F" x1="0" x2="254.75" y1="0" y2="0" gradientUnits="userSpaceOnUse" spreadMethod="reflect"><stop offset="0" stop-color="#7F7F7F" stop-opacity="0"/><stop offset=".28" stop-color="#7F7F7F" stop-opacity=".149"/><stop offset=".68" stop-color="#595959"/><stop offset="1" stop-color="#0D0D0D"/></linearGradient><linearGradient id="G" x1="0" x2="254.75" y1="0" y2="0" gradientUnits="userSpaceOnUse" spreadMethod="reflect"><stop offset="0" stop-color="#7F7F7F" stop-opacity="0"/><stop offset=".28" stop-color="#7F7F7F" stop-opacity=".149"/><stop offset=".68" stop-color="#595959"/><stop offset="1" stop-color="#0D0D0D"/></linearGradient><linearGradient id="H" x1="0" x2="254.75" y1="0" y2="0" gradientUnits="userSpaceOnUse" spreadMethod="reflect"><stop offset="0" stop-color="#7F7F7F" stop-opacity="0"/><stop offset=".28" stop-color="#7F7F7F" stop-opacity=".149"/><stop offset=".68" stop-color="#595959"/><stop offset="1" stop-color="#0D0D0D"/></linearGradient><linearGradient id="I" x1="0" x2="254.75" y1="0" y2="0" gradientUnits="userSpaceOnUse" spreadMethod="reflect"><stop offset="0" stop-color="#7F7F7F" stop-opacity="0"/><stop offset=".28" stop-color="#7F7F7F" stop-opacity=".149"/><stop offset=".68" stop-color="#595959"/><stop offset="1" stop-color="#0D0D0D"/></linearGradient><linearGradient id="J" x1="0" x2="254.75" y1="0" y2="0" gradientUnits="userSpaceOnUse" spreadMethod="reflect"><stop offset="0" stop-color="#7F7F7F" stop-opacity="0"/><stop offset=".28" stop-color="#7F7F7F" stop-opacity=".149"/><stop offset=".68" stop-color="#595959"/><stop offset="1" stop-color="#0D0D0D"/></linearGradient><linearGradient id="K" x1="0" x2="254.75" y1="0" y2="0" gradientUnits="userSpaceOnUse" spreadMethod="reflect"><stop offset="0" stop-color="#7F7F7F" stop-opacity="0"/><stop offset=".28" stop-color="#7F7F7F" stop-opacity=".149"/><stop offset=".68" stop-color="#595959"/><stop offset="1" stop-color="#0D0D0D"/></linearGradient><linearGradient id="L" x1="2707" x2="2961.75" y1="110" y2="110" gradientUnits="userSpaceOnUse" spreadMethod="reflect"><stop offset="0" stop-color="#7F7F7F" stop-opacity="0"/><stop offset=".28" stop-color="#7F7F7F" stop-opacity=".149"/><stop offset=".68" stop-color="#7F7F7F"/><stop offset="1" stop-color="#262626"/></linearGradient><linearGradient id="M" x1="2709" x2="2963.75" y1="124" y2="124" gradientUnits="userSpaceOnUse" spreadMethod="reflect"><stop offset="0" stop-color="#7F7F7F" stop-opacity="0"/><stop offset=".28" stop-color="#7F7F7F" stop-opacity=".149"/><stop offset=".68" stop-color="#7F7F7F"/><stop offset="1" stop-color="#262626"/></linearGradient><linearGradient id="N" x1="2717" x2="2971.75" y1="139" y2="139" gradientUnits="userSpaceOnUse" spreadMethod="reflect"><stop offset="0" stop-color="#7F7F7F" stop-opacity="0"/><stop offset=".28" stop-color="#7F7F7F" stop-opacity=".149"/><stop offset=".68" stop-color="#7F7F7F"/><stop offset="1" stop-color="#262626"/></linearGradient><linearGradient id="O" x1="2728" x2="2982.75" y1="153" y2="153" gradientUnits="userSpaceOnUse" spreadMethod="reflect"><stop offset="0" stop-color="#7F7F7F" stop-opacity="0"/><stop offset=".28" stop-color="#7F7F7F" stop-opacity=".149"/><stop offset=".68" stop-color="#7F7F7F"/><stop offset="1" stop-color="#262626"/></linearGradient><linearGradient id="P" x1="2746" x2="3000.75" y1="167" y2="167" gradientUnits="userSpaceOnUse" spreadMethod="reflect"><stop offset="0" stop-color="#7F7F7F" stop-opacity="0"/><stop offset=".28" stop-color="#7F7F7F" stop-opacity=".149"/><stop offset=".68" stop-color="#7F7F7F"/><stop offset="1" stop-color="#262626"/></linearGradient><linearGradient id="Q" x1="2776" x2="3030.75" y1="181" y2="181" gradientUnits="userSpaceOnUse" spreadMethod="reflect"><stop offset="0" stop-color="#7F7F7F" stop-opacity="0"/><stop offset=".28" stop-color="#7F7F7F" stop-opacity=".149"/><stop offset=".68" stop-color="#7F7F7F"/><stop offset="1" stop-color="#262626"/></linearGradient><linearGradient id="R" x1="0" x2="254.75" y1="0" y2="0" gradientUnits="userSpaceOnUse" spreadMethod="reflect"><stop offset="0" stop-color="#7F7F7F" stop-opacity="0"/><stop offset=".28" stop-color="#7F7F7F" stop-opacity=".149"/><stop offset=".68" stop-color="#7F7F7F"/><stop offset="1" stop-color="#262626"/></linearGradient><linearGradient id="S" x1="0" x2="254.75" y1="0" y2="0" gradientUnits="userSpaceOnUse" spreadMethod="reflect"><stop offset="0" stop-color="#7F7F7F" stop-opacity="0"/><stop offset=".28" stop-color="#7F7F7F" stop-opacity=".149"/><stop offset=".68" stop-color="#7F7F7F"/><stop offset="1" stop-color="#262626"/></linearGradient><linearGradient id="T" x1="0" x2="254.75" y1="0" y2="0" gradientUnits="userSpaceOnUse" spreadMethod="reflect"><stop offset="0" stop-color="#7F7F7F" stop-opacity="0"/><stop offset=".28" stop-color="#7F7F7F" stop-opacity=".149"/><stop offset=".68" stop-color="#7F7F7F"/><stop offset="1" stop-color="#262626"/></linearGradient><linearGradient id="U" x1="0" x2="254.75" y1="0" y2="0" gradientUnits="userSpaceOnUse" spreadMethod="reflect"><stop offset="0" stop-color="#7F7F7F" stop-opacity="0"/><stop offset=".28" stop-color="#7F7F7F" stop-opacity=".149"/><stop offset=".68" stop-color="#7F7F7F"/><stop offset="1" stop-color="#262626"/></linearGradient><linearGradient id="V" x1="0" x2="254.75" y1="0" y2="0" gradientUnits="userSpaceOnUse" spreadMethod="reflect"><stop offset="0" stop-color="#7F7F7F" stop-opacity="0"/><stop offset=".28" stop-color="#7F7F7F" stop-opacity=".149"/><stop offset=".68" stop-color="#7F7F7F"/><stop offset="1" stop-color="#262626"/></linearGradient><linearGradient id="W" x1="0" x2="254.75" y1="0" y2="0" gradientUnits="userSpaceOnUse" spreadMethod="reflect"><stop offset="0" stop-color="#7F7F7F" stop-opacity="0"/><stop offset=".28" stop-color="#7F7F7F" stop-opacity=".149"/><stop offset=".68" stop-color="#7F7F7F"/><stop offset="1" stop-color="#262626"/></linearGradient><linearGradient id="X" x1="1342" x2="1596.75" y1="104" y2="104" gradientUnits="userSpaceOnUse" spreadMethod="reflect"><stop offset="0" stop-color="#7F7F7F" stop-opacity="0"/><stop offset=".28" stop-color="#7F7F7F" stop-opacity=".149"/><stop offset=".68" stop-color="#7F7F7F"/><stop offset="1" stop-color="#262626"/></linearGradient><linearGradient id="Y" x1="1345" x2="1599.75" y1="118" y2="118" gradientUnits="userSpaceOnUse" spreadMethod="reflect"><stop offset="0" stop-color="#7F7F7F" stop-opacity="0"/><stop offset=".28" stop-color="#7F7F7F" stop-opacity=".149"/><stop offset=".68" stop-color="#7F7F7F"/><stop offset="1" stop-color="#262626"/></linearGradient><linearGradient id="Z" x1="1341" x2="1595.75" y1="133" y2="133" gradientUnits="userSpaceOnUse" spreadMethod="reflect"><stop offset="0" stop-color="#7F7F7F" stop-opacity="0"/><stop offset=".28" stop-color="#7F7F7F" stop-opacity=".149"/><stop offset=".68" stop-color="#7F7F7F"/><stop offset="1" stop-color="#262626"/></linearGradient><linearGradient id="aa" x1="1345" x2="1599.75" y1="147" y2="147" gradientUnits="userSpaceOnUse" spreadMethod="reflect"><stop offset="0" stop-color="#7F7F7F" stop-opacity="0"/><stop offset=".28" stop-color="#7F7F7F" stop-opacity=".149"/><stop offset=".68" stop-color="#7F7F7F"/><stop offset="1" stop-color="#262626"/></linearGradient><linearGradient id="ab" x1="1350" x2="1604.75" y1="161" y2="161" gradientUnits="userSpaceOnUse" spreadMethod="reflect"><stop offset="0" stop-color="#7F7F7F" stop-opacity="0"/><stop offset=".28" stop-color="#7F7F7F" stop-opacity=".149"/><stop offset=".68" stop-color="#7F7F7F"/><stop offset="1" stop-color="#262626"/></linearGradient><linearGradient id="ac" x1="1356" x2="1610.75" y1="175" y2="175" gradientUnits="userSpaceOnUse" spreadMethod="reflect"><stop offset="0" stop-color="#7F7F7F" stop-opacity="0"/><stop offset=".28" stop-color="#7F7F7F" stop-opacity=".149"/><stop offset=".68" stop-color="#7F7F7F"/><stop offset="1" stop-color="#262626"/></linearGradient><linearGradient id="ad" x1="0" x2="254.75" y1="0" y2="0" gradientUnits="userSpaceOnUse" spreadMethod="reflect"><stop offset="0" stop-color="#7F7F7F" stop-opacity="0"/><stop offset=".28" stop-color="#7F7F7F" stop-opacity=".149"/><stop offset=".68" stop-color="#7F7F7F"/><stop offset="1" stop-color="#262626"/></linearGradient><linearGradient id="ae" x1="0" x2="254.75" y1="0" y2="0" gradientUnits="userSpaceOnUse" spreadMethod="reflect"><stop offset="0" stop-color="#7F7F7F" stop-opacity="0"/><stop offset=".28" stop-color="#7F7F7F" stop-opacity=".149"/><stop offset=".68" stop-color="#7F7F7F"/><stop offset="1" stop-color="#262626"/></linearGradient><linearGradient id="af" x1="0" x2="254.75" y1="0" y2="0" gradientUnits="userSpaceOnUse" spreadMethod="reflect"><stop offset="0" stop-color="#7F7F7F" stop-opacity="0"/><stop offset=".28" stop-color="#7F7F7F" stop-opacity=".149"/><stop offset=".68" stop-color="#7F7F7F"/><stop offset="1" stop-color="#262626"/></linearGradient><linearGradient id="ag" x1="0" x2="254.75" y1="0" y2="0" gradientUnits="userSpaceOnUse" spreadMethod="reflect"><stop offset="0" stop-color="#7F7F7F" stop-opacity="0"/><stop offset=".28" stop-color="#7F7F7F" stop-opacity=".149"/><stop offset=".68" stop-color="#7F7F7F"/><stop offset="1" stop-color="#262626"/></linearGradient><linearGradient id="ah" x1="0" x2="254.75" y1="0" y2="0" gradientUnits="userSpaceOnUse" spreadMethod="reflect"><stop offset="0" stop-color="#7F7F7F" stop-opacity="0"/><stop offset=".28" stop-color="#7F7F7F" stop-opacity=".149"/><stop offset=".68" stop-color="#7F7F7F"/><stop offset="1" stop-color="#262626"/></linearGradient><linearGradient id="ai" x1="0" x2="254.75" y1="0" y2="0" gradientUnits="userSpaceOnUse" spreadMethod="reflect"><stop offset="0" stop-color="#7F7F7F" stop-opacity="0"/><stop offset=".28" stop-color="#7F7F7F" stop-opacity=".149"/><stop offset=".68" stop-color="#7F7F7F"/><stop offset="1" stop-color="#262626"/></linearGradient><linearGradient id="aj" x1="1801" x2="2055.75" y1="1262" y2="1262" gradientUnits="userSpaceOnUse" spreadMethod="reflect"><stop offset="0" stop-color="#7F7F7F" stop-opacity="0"/><stop offset=".28" stop-color="#7F7F7F" stop-opacity=".149"/><stop offset=".68" stop-color="#7F7F7F"/><stop offset="1" stop-color="#262626"/></linearGradient><linearGradient id="ak" x1="1804" x2="2058.75" y1="1276" y2="1276" gradientUnits="userSpaceOnUse" spreadMethod="reflect"><stop offset="0" stop-color="#7F7F7F" stop-opacity="0"/><stop offset=".28" stop-color="#7F7F7F" stop-opacity=".149"/><stop offset=".68" stop-color="#7F7F7F"/><stop offset="1" stop-color="#262626"/></linearGradient><linearGradient id="al" x1="1800" x2="2054.75" y1="1291" y2="1291" gradientUnits="userSpaceOnUse" spreadMethod="reflect"><stop offset="0" stop-color="#7F7F7F" stop-opacity="0"/><stop offset=".28" stop-color="#7F7F7F" stop-opacity=".149"/><stop offset=".68" stop-color="#7F7F7F"/><stop offset="1" stop-color="#262626"/></linearGradient><linearGradient id="am" x1="1804" x2="2058.75" y1="1305" y2="1305" gradientUnits="userSpaceOnUse" spreadMethod="reflect"><stop offset="0" stop-color="#7F7F7F" stop-opacity="0"/><stop offset=".28" stop-color="#7F7F7F" stop-opacity=".149"/><stop offset=".68" stop-color="#7F7F7F"/><stop offset="1" stop-color="#262626"/></linearGradient><linearGradient id="an" x1="1809" x2="2063.75" y1="1319" y2="1319" gradientUnits="userSpaceOnUse" spreadMethod="reflect"><stop offset="0" stop-color="#7F7F7F" stop-opacity="0"/><stop offset=".28" stop-color="#7F7F7F" stop-opacity=".149"/><stop offset=".68" stop-color="#7F7F7F"/><stop offset="1" stop-color="#262626"/></linearGradient><linearGradient id="ao" x1="1815" x2="2069.75" y1="1333" y2="1333" gradientUnits="userSpaceOnUse" spreadMethod="reflect"><stop offset="0" stop-color="#7F7F7F" stop-opacity="0"/><stop offset=".28" stop-color="#7F7F7F" stop-opacity=".149"/><stop offset=".68" stop-color="#7F7F7F"/><stop offset="1" stop-color="#262626"/></linearGradient><linearGradient id="ap" x1="0" x2="254.75" y1="0" y2="0" gradientUnits="userSpaceOnUse" spreadMethod="reflect"><stop offset="0" stop-color="#7F7F7F" stop-opacity="0"/><stop offset=".28" stop-color="#7F7F7F" stop-opacity=".149"/><stop offset=".68" stop-color="#7F7F7F"/><stop offset="1" stop-color="#262626"/></linearGradient><linearGradient id="aq" x1="0" x2="254.75" y1="0" y2="0" gradientUnits="userSpaceOnUse" spreadMethod="reflect"><stop offset="0" stop-color="#7F7F7F" stop-opacity="0"/><stop offset=".28" stop-color="#7F7F7F" stop-opacity=".149"/><stop offset=".68" stop-color="#7F7F7F"/><stop offset="1" stop-color="#262626"/></linearGradient><linearGradient id="ar" x1="0" x2="254.75" y1="0" y2="0" gradientUnits="userSpaceOnUse" spreadMethod="reflect"><stop offset="0" stop-color="#7F7F7F" stop-opacity="0"/><stop offset=".28" stop-color="#7F7F7F" stop-opacity=".149"/><stop offset=".68" stop-color="#7F7F7F"/><stop offset="1" stop-color="#262626"/></linearGradient><linearGradient id="as" x1="0" x2="254.75" y1="0" y2="0" gradientUnits="userSpaceOnUse" spreadMethod="reflect"><stop offset="0" stop-color="#7F7F7F" stop-opacity="0"/><stop offset=".28" stop-color="#7F7F7F" stop-opacity=".149"/><stop offset=".68" stop-color="#7F7F7F"/><stop offset="1" stop-color="#262626"/></linearGradient><linearGradient id="at" x1="0" x2="254.75" y1="0" y2="0" gradientUnits="userSpaceOnUse" spreadMethod="reflect"><stop offset="0" stop-color="#7F7F7F" stop-opacity="0"/><stop offset=".28" stop-color="#7F7F7F" stop-opacity=".149"/><stop offset=".68" stop-color="#7F7F7F"/><stop offset="1" stop-color="#262626"/></linearGradient><linearGradient id="au" x1="0" x2="254.75" y1="0" y2="0" gradientUnits="userSpaceOnUse" spreadMethod="reflect"><stop offset="0" stop-color="#7F7F7F" stop-opacity="0"/><stop offset=".28" stop-color="#7F7F7F" stop-opacity=".149"/><stop offset=".68" stop-color="#7F7F7F"/><stop offset="1" stop-color="#262626"/></linearGradient><linearGradient id="av" x1="35" x2="182.232" y1="1259" y2="1259" gradientUnits="userSpaceOnUse" spreadMethod="reflect"><stop offset="0" stop-color="#7F7F7F" stop-opacity="0"/><stop offset=".14" stop-color="#7F7F7F" stop-opacity=".149"/><stop offset=".51" stop-color="#7F7F7F"/><stop offset="1" stop-color="#262626"/></linearGradient><linearGradient id="aw" x1="36" x2="183.232" y1="1274" y2="1274" gradientUnits="userSpaceOnUse" spreadMethod="reflect"><stop offset="0" stop-color="#7F7F7F" stop-opacity="0"/><stop offset=".14" stop-color="#7F7F7F" stop-opacity=".149"/><stop offset=".51" stop-color="#7F7F7F"/><stop offset="1" stop-color="#262626"/></linearGradient><linearGradient id="ax" x1="34" x2="181.232" y1="1288" y2="1288" gradientUnits="userSpaceOnUse" spreadMethod="reflect"><stop offset="0" stop-color="#7F7F7F" stop-opacity="0"/><stop offset=".14" stop-color="#7F7F7F" stop-opacity=".149"/><stop offset=".51" stop-color="#7F7F7F"/><stop offset="1" stop-color="#262626"/></linearGradient><linearGradient id="ay" x1="36" x2="183.233" y1="1302" y2="1302" gradientUnits="userSpaceOnUse" spreadMethod="reflect"><stop offset="0" stop-color="#7F7F7F" stop-opacity="0"/><stop offset=".14" stop-color="#7F7F7F" stop-opacity=".149"/><stop offset=".51" stop-color="#7F7F7F"/><stop offset="1" stop-color="#262626"/></linearGradient><linearGradient id="az" x1="39" x2="186.232" y1="1316" y2="1316" gradientUnits="userSpaceOnUse" spreadMethod="reflect"><stop offset="0" stop-color="#7F7F7F" stop-opacity="0"/><stop offset=".14" stop-color="#7F7F7F" stop-opacity=".149"/><stop offset=".51" stop-color="#7F7F7F"/><stop offset="1" stop-color="#262626"/></linearGradient><linearGradient id="aA" x1="43" x2="190.232" y1="1331" y2="1331" gradientUnits="userSpaceOnUse" spreadMethod="reflect"><stop offset="0" stop-color="#7F7F7F" stop-opacity="0"/><stop offset=".14" stop-color="#7F7F7F" stop-opacity=".149"/><stop offset=".51" stop-color="#7F7F7F"/><stop offset="1" stop-color="#262626"/></linearGradient><linearGradient id="aB" x1="0" x2="147.232" y1="0" y2="0" gradientUnits="userSpaceOnUse" spreadMethod="reflect"><stop offset="0" stop-color="#7F7F7F" stop-opacity="0"/><stop offset=".14" stop-color="#7F7F7F" stop-opacity=".149"/><stop offset=".51" stop-color="#7F7F7F"/><stop offset="1" stop-color="#262626"/></linearGradient><linearGradient id="aC" x1="0" x2="147.232" y1="0" y2="0" gradientUnits="userSpaceOnUse" spreadMethod="reflect"><stop offset="0" stop-color="#7F7F7F" stop-opacity="0"/><stop offset=".14" stop-color="#7F7F7F" stop-opacity=".149"/><stop offset=".51" stop-color="#7F7F7F"/><stop offset="1" stop-color="#262626"/></linearGradient><linearGradient id="aD" x1="0" x2="147.232" y1="0" y2="0" gradientUnits="userSpaceOnUse" spreadMethod="reflect"><stop offset="0" stop-color="#7F7F7F" stop-opacity="0"/><stop offset=".14" stop-color="#7F7F7F" stop-opacity=".149"/><stop offset=".51" stop-color="#7F7F7F"/><stop offset="1" stop-color="#262626"/></linearGradient><linearGradient id="aE" x1="0" x2="147.232" y1="0" y2="0" gradientUnits="userSpaceOnUse" spreadMethod="reflect"><stop offset="0" stop-color="#7F7F7F" stop-opacity="0"/><stop offset=".14" stop-color="#7F7F7F" stop-opacity=".149"/><stop offset=".51" stop-color="#7F7F7F"/><stop offset="1" stop-color="#262626"/></linearGradient><linearGradient id="aF" x1="0" x2="147.232" y1="0" y2="0" gradientUnits="userSpaceOnUse" spreadMethod="reflect"><stop offset="0" stop-color="#7F7F7F" stop-opacity="0"/><stop offset=".14" stop-color="#7F7F7F" stop-opacity=".149"/><stop offset=".51" stop-color="#7F7F7F"/><stop offset="1" stop-color="#262626"/></linearGradient><linearGradient id="aG" x1="0" x2="147.232" y1="0" y2="0" gradientUnits="userSpaceOnUse" spreadMethod="reflect"><stop offset="0" stop-color="#7F7F7F" stop-opacity="0"/><stop offset=".14" stop-color="#7F7F7F" stop-opacity=".149"/><stop offset=".51" stop-color="#7F7F7F"/><stop offset="1" stop-color="#262626"/></linearGradient><clipPath id="a"><path d="M-20-27h4422v1646H-20z"/></clipPath></defs><g clip-path="url(#a)" transform="translate(20 27)"><path fill="#BFBFBF" d="M-11-27h4413v1641H-11z"/><path fill="none" stroke="#767171" stroke-dasharray="5.72917 5.72917" stroke-miterlimit="8" stroke-width="5.729" d="M4391.67 1530H-5M4391.67 1577H-5M4391.67 1392H-5M4396.47 1439H-9M4399.62 1486H-13M4387.67 397H-9M4387.67 444H-9M4387.67 492H-9M4392.47 539H-13M4395.62 586H-17M4395.62 633H-17M4395.62 681H-17M4395.62 728H-17M4395.62 775H-17M4395.62 822H-17M4395.62 870H-17M4395.62 917H-17M4395.62 964H-17M4395.62 1011H-17M4395.62 1059H-17M4395.62 1106H-17M4395.62 1153H-17M4395.62 1201H-17M4395.62 1248H-17M4395.62 1295H-17M4395.62 1342H-17M4387.67 259H-9M4392.47 306H-13M4395.62 354H-17M4395.62 21H-17M4395.62 68H-17M4395.62 115H-17M4395.62 162H-17M4395.62 210H-17M1545-24v1634.31M1591-24v1634.31M1638-24v1634.31M1685-25v1637.59M1732-27v1640.24M1779-27v1640.24M1826-27v1640.24M1872-27v1640.24M1919-27v1640.24M1966-27v1640.24M2013-27v1640.24M2060-27v1640.24M2106-27v1640.24M2153-27v1640.24M2200-27v1640.24M2247-27v1640.24M2294-27v1640.24M2340-27v1640.24M2387-27v1640.24M2434-27v1640.24M2481-27v1640.24M1404-24v1634.31M1451-25v1637.59M1498-27v1640.24M421-22v1634.31M468-22v1634.31M515-22v1634.31M562-24v1637.59M609-25v1640.24M655-25v1640.24M702-25v1640.24M749-25v1640.24M796-25v1640.24M843-25v1640.24M889-25v1640.24M936-25v1640.24M983-25v1640.24M1030-25v1640.24M1077-25v1640.24M1123-25v1640.24M1170-25v1640.24M1217-25v1640.24M1264-25v1640.24M1311-25v1640.24M1357-25v1640.24M281-22v1634.31M328-24v1637.59M374-25v1640.24M47-25v1640.24M94-25v1640.24M140-25v1640.24M187-25v1640.24M234-25v1640.24M4072-23v1634.31M4119-23v1634.31M4166-23v1634.31M4213-25v1637.59M4260-26v1640.24M4306-26v1640.24M4353-26v1640.24M3932-23v1634.31M3979-25v1637.59M4026-26v1640.24M2949-22v1634.31M2996-22v1634.31M3043-22v1634.31M3089-23v1637.59M3136-25v1640.24M3183-25v1640.24M3230-25v1640.24M3277-25v1640.24M3323-25v1640.24M3370-25v1640.24M3417-25v1640.24M3464-25v1640.24M3511-25v1640.24M3557-25v1640.24M3604-25v1640.24M3651-25v1640.24M3698-25v1640.24M3745-25v1640.24M3791-25v1640.24M3838-25v1640.24M3885-25v1640.24M2809-22v1634.31M2855-23v1637.59M2902-25v1640.24M2528-25v1640.24M2574-25v1640.24M2621-25v1640.24M2668-25v1640.24M2715-25v1640.24M2762-25v1640.24"/><path fill="#C55A11" d="M305.874 1205.606 1526.94 227.084l-10.75-13.412-1221.064 978.522ZM1530.98 245.867l24.12-52.367-56.36 12.131Z"/><path fill="none" stroke="url(#b)" stroke-miterlimit="8" stroke-width="10.313" d="M2210 1271h249.59"/><path fill="none" stroke="url(#c)" stroke-miterlimit="8" stroke-width="10.313" d="M2213 1285h249.59"/><path fill="none" stroke="url(#d)" stroke-miterlimit="8" stroke-width="10.313" d="M2209 1300h249.59"/><path fill="none" stroke="url(#e)" stroke-miterlimit="8" stroke-width="10.313" d="M2213 1314h249.59"/><path fill="none" stroke="url(#f)" stroke-miterlimit="8" stroke-width="10.313" d="M2218 1328h249.59"/><path fill="none" stroke="url(#g)" stroke-miterlimit="8" stroke-width="10.313" d="M2224 1342h249.59"/><path fill="none" stroke="url(#h)" stroke-miterlimit="8" stroke-width="10.313" d="M0 0h249.594" transform="matrix(1 0 0 -1 2211 1256)"/><path fill="none" stroke="url(#i)" stroke-miterlimit="8" stroke-width="10.313" d="M0 0h249.594" transform="matrix(1 0 0 -1 2214 1242)"/><path fill="none" stroke="url(#j)" stroke-miterlimit="8" stroke-width="10.313" d="M0 0h249.594" transform="matrix(1 0 0 -1 2215 1228)"/><path fill="none" stroke="url(#k)" stroke-miterlimit="8" stroke-width="10.313" d="M0 0h249.594" transform="matrix(1 0 0 -1 2220 1214)"/><path fill="none" stroke="url(#l)" stroke-miterlimit="8" stroke-width="10.313" d="M0 0h249.594" transform="matrix(1 0 0 -1 2224 1199)"/><path fill="none" stroke="url(#m)" stroke-miterlimit="8" stroke-width="10.313" d="M0 0h249.594" transform="matrix(1 0 0 -1 2239 1185)"/><path fill="none" stroke="#0D0D0D" stroke-dasharray="20.625 6.875" stroke-linecap="square" stroke-miterlimit="8" stroke-width="6.875" d="M2532.9 1181.07c11.68 5.57 32.7 29.37 32.6 54.69-.08 22.11-5.76 63.55-20.92 85.09-15.16 21.55-32.68 34.58-50.64 32.42-14.26-1.73-25.36-10.59-31.6-37.39a184.8 184.8 0 0 1 .72-78.27c4-20.19 8.11-33.57 16.57-43.83 11.23-13.63 35.53-21.18 53.27-12.71Z"/><path d="m2406.236 1281.907-188.839 1.637.149 17.186 188.838-1.637Zm-180.394-15.625-51.337 26.227 51.784 25.334ZM306.53 1262.444l2056.72-7.202-.06-17.188-2056.72 7.202Zm2048.19 10.015 51.47-25.961-51.65-25.601ZM2907 1404.25h130.81v27.5H2907Zm117.06-27.5 82.5 41.25-82.51 41.25Z"/><path fill="#767171" d="M2907 269.25h130.81v27.5H2907Zm117.06-27.5 82.5 41.25-82.51 41.25ZM4061 1408.25h130.81v27.5H4061Zm117.06-27.5 82.5 41.25-82.5 41.25Z"/><path fill="#C55A11" d="m1719.85 187.775 1200.7 955.285-10.7 13.45-1200.7-955.285Zm1204.68 936.485 24.3 52.27-56.4-11.92Z"/><path fill="none" stroke="url(#n)" stroke-miterlimit="8" stroke-width="10.313" d="M3847 1269h249.59"/><path fill="none" stroke="url(#o)" stroke-miterlimit="8" stroke-width="10.313" d="M3849 1283h249.59"/><path fill="none" stroke="url(#p)" stroke-miterlimit="8" stroke-width="10.313" d="M3857 1298h249.59"/><path fill="none" stroke="url(#q)" stroke-miterlimit="8" stroke-width="10.313" d="M3868 1312h249.59"/><path fill="none" stroke="url(#r)" stroke-miterlimit="8" stroke-width="10.313" d="M3886 1326h249.59"/><path fill="none" stroke="url(#s)" stroke-miterlimit="8" stroke-width="10.313" d="M3916 1340h249.59"/><path fill="none" stroke="url(#t)" stroke-miterlimit="8" stroke-width="10.313" d="M0 0h249.594" transform="matrix(1 0 0 -1 3847 1254)"/><path fill="none" stroke="url(#u)" stroke-miterlimit="8" stroke-width="10.313" d="M0 0h249.594" transform="matrix(1 0 0 -1 3851 1240)"/><path fill="none" stroke="url(#v)" stroke-miterlimit="8" stroke-width="10.313" d="M0 0h249.594" transform="matrix(1 0 0 -1 3858 1226)"/><path fill="none" stroke="url(#w)" stroke-miterlimit="8" stroke-width="10.313" d="M0 0h249.594" transform="matrix(1 0 0 -1 3871 1212)"/><path fill="none" stroke="url(#x)" stroke-miterlimit="8" stroke-width="10.313" d="M0 0h249.594" transform="matrix(1 0 0 -1 3889 1197)"/><path fill="none" stroke="url(#y)" stroke-miterlimit="8" stroke-width="10.313" d="M0 0h249.594" transform="matrix(1 0 0 -1 3920 1183)"/><path fill="#939393" fill-rule="evenodd" stroke="#0D0D0D" stroke-miterlimit="8" stroke-width="10.313" d="M4169.1 1178.59c11.78 5.6 33 29.54 32.9 55.01-.09 22.23-5.82 63.9-21.12 85.57s-32.98 34.77-51.11 32.6c-14.39-1.74-25.59-10.65-31.9-37.6-5.4-26.03-5.15-52.78.73-78.71 4.04-20.32 8.19-33.77 16.73-44.09 11.33-13.71 35.86-21.3 53.77-12.78Z"/><path fill="none" stroke="url(#z)" stroke-miterlimit="8" stroke-width="10.313" d="M2694 1274h249.59"/><path fill="none" stroke="url(#A)" stroke-miterlimit="8" stroke-width="10.313" d="M2697 1288h249.59"/><path fill="none" stroke="url(#B)" stroke-miterlimit="8" stroke-width="10.313" d="M2704 1302h249.59"/><path fill="none" stroke="url(#C)" stroke-miterlimit="8" stroke-width="10.313" d="M2716 1316h249.59"/><path fill="none" stroke="url(#D)" stroke-miterlimit="8" stroke-width="10.313" d="M2734 1330h249.59"/><path fill="none" stroke="url(#E)" stroke-miterlimit="8" stroke-width="10.313" d="M2764 1345h249.59"/><path fill="none" stroke="url(#F)" stroke-miterlimit="8" stroke-width="10.313" d="M0 0h249.594" transform="matrix(1 0 0 -1 2695 1259)"/><path fill="none" stroke="url(#G)" stroke-miterlimit="8" stroke-width="10.313" d="M0 0h249.594" transform="matrix(1 0 0 -1 2699 1244)"/><path fill="none" stroke="url(#H)" stroke-miterlimit="8" stroke-width="10.313" d="M0 0h249.594" transform="matrix(1 0 0 -1 2706 1230)"/><path fill="none" stroke="url(#I)" stroke-miterlimit="8" stroke-width="10.313" d="M0 0h249.594" transform="matrix(1 0 0 -1 2719 1216)"/><path fill="none" stroke="url(#J)" stroke-miterlimit="8" stroke-width="10.313" d="M0 0h249.594" transform="matrix(1 0 0 -1 2737 1202)"/><path fill="none" stroke="url(#K)" stroke-miterlimit="8" stroke-width="10.313" d="M0 0h249.594" transform="matrix(1 0 0 -1 2768 1187)"/><path fill="#0D0D0D" fill-rule="evenodd" stroke="#0D0D0D" stroke-miterlimit="8" stroke-width="10.313" d="M3017.1 1182.59c11.78 5.6 33 29.54 32.9 55.01-.09 22.23-5.82 63.9-21.12 85.57s-32.98 34.77-51.11 32.6c-14.39-1.74-25.59-10.65-31.9-37.6-5.4-26.03-5.15-52.78.73-78.71 4.04-20.31 8.19-33.77 16.73-44.09 11.33-13.71 35.86-21.3 53.77-12.78Z"/><path fill="none" stroke="url(#L)" stroke-miterlimit="8" stroke-width="10.313" d="M2707 110h249.59"/><path fill="none" stroke="url(#M)" stroke-miterlimit="8" stroke-width="10.313" d="M2709 124h249.59"/><path fill="none" stroke="url(#N)" stroke-miterlimit="8" stroke-width="10.313" d="M2717 139h249.59"/><path fill="none" stroke="url(#O)" stroke-miterlimit="8" stroke-width="10.313" d="M2728 153h249.59"/><path fill="none" stroke="url(#P)" stroke-miterlimit="8" stroke-width="10.313" d="M2746 167h249.59"/><path fill="none" stroke="url(#Q)" stroke-miterlimit="8" stroke-width="10.313" d="m2776 181 249.59.001"/><path fill="none" stroke="url(#R)" stroke-miterlimit="8" stroke-width="10.313" d="M0 0h249.594" transform="matrix(1 0 0 -1 2707 95)"/><path fill="none" stroke="url(#S)" stroke-miterlimit="8" stroke-width="10.313" d="M0 0h249.594" transform="matrix(1 0 0 -1 2711 81)"/><path fill="none" stroke="url(#T)" stroke-miterlimit="8" stroke-width="10.313" d="M0 0h249.594" transform="matrix(1 0 0 -1 2718 67)"/><path fill="none" stroke="url(#U)" stroke-miterlimit="8" stroke-width="10.313" d="M0 0h249.594" transform="matrix(1 0 0 -1 2731 53)"/><path fill="none" stroke="url(#V)" stroke-miterlimit="8" stroke-width="10.313" d="M0 0h249.594" transform="matrix(1 0 0 -1 2749 38)"/><path fill="none" stroke="url(#W)" stroke-miterlimit="8" stroke-width="10.313" d="M0 0h249.594" transform="matrix(1 0 0 -1 2780 24)"/><path fill="#939393" fill-rule="evenodd" stroke="#0D0D0D" stroke-miterlimit="8" stroke-width="10.313" d="M3029.1 19.59c11.78 5.601 33 29.536 32.9 55.006-.09 22.235-5.82 63.901-21.12 85.571s-32.98 34.774-51.11 32.599c-14.39-1.733-25.59-10.649-31.9-37.6a185.2 185.2 0 0 1 .73-78.71c4.04-20.31 8.19-33.765 16.73-44.088 11.33-13.704 35.86-21.295 53.77-12.779Z"/><path fill="none" stroke="url(#X)" stroke-miterlimit="8" stroke-width="10.313" d="m1342 104 249.59.001"/><path fill="none" stroke="url(#Y)" stroke-miterlimit="8" stroke-width="10.313" d="M1345 118h249.59"/><path fill="none" stroke="url(#Z)" stroke-miterlimit="8" stroke-width="10.313" d="M1341 133h249.59"/><path fill="none" stroke="url(#aa)" stroke-miterlimit="8" stroke-width="10.313" d="m1345 147 249.59.001"/><path fill="none" stroke="url(#ab)" stroke-miterlimit="8" stroke-width="10.313" d="M1350 161h249.59"/><path fill="none" stroke="url(#ac)" stroke-miterlimit="8" stroke-width="10.313" d="M1356 175h249.59"/><path fill="none" stroke="url(#ad)" stroke-miterlimit="8" stroke-width="10.313" d="M0 0h249.594" transform="matrix(1 0 0 -1 1343 89)"/><path fill="none" stroke="url(#ae)" stroke-miterlimit="8" stroke-width="10.313" d="M0 0h249.594" transform="matrix(1 0 0 -1 1346 75)"/><path fill="none" stroke="url(#af)" stroke-miterlimit="8" stroke-width="10.313" d="M0 0h249.594" transform="matrix(1 0 0 -1 1347 61)"/><path fill="none" stroke="url(#ag)" stroke-miterlimit="8" stroke-width="10.313" d="M0 0h249.594" transform="matrix(1 0 0 -1 1352 47)"/><path fill="none" stroke="url(#ah)" stroke-miterlimit="8" stroke-width="10.313" d="M0 0h249.594" transform="matrix(1 0 0 -1 1356 32)"/><path fill="none" stroke="url(#ai)" stroke-miterlimit="8" stroke-width="10.313" d="M0 0h249.594" transform="matrix(1 0 0 -1 1371 18)"/><path fill="none" stroke="#0D0D0D" stroke-dasharray="20.625 6.875" stroke-linecap="square" stroke-miterlimit="8" stroke-width="6.875" d="M1664.9 14.09c11.68 5.601 32.7 29.536 32.6 55.006-.08 22.235-5.76 63.901-20.92 85.571s-32.68 34.774-50.64 32.599c-14.26-1.733-25.36-10.649-31.6-37.6a186.8 186.8 0 0 1 .72-78.71c4-20.31 8.11-33.765 16.57-44.088 11.23-13.704 35.53-21.295 53.27-12.779Z"/><path fill="none" stroke="url(#aj)" stroke-miterlimit="8" stroke-width="10.313" d="M1801 1262h249.59"/><path fill="none" stroke="url(#ak)" stroke-miterlimit="8" stroke-width="10.313" d="M1804 1276h249.59"/><path fill="none" stroke="url(#al)" stroke-miterlimit="8" stroke-width="10.313" d="M1800 1291h249.59"/><path fill="none" stroke="url(#am)" stroke-miterlimit="8" stroke-width="10.313" d="M1804 1305h249.59"/><path fill="none" stroke="url(#an)" stroke-miterlimit="8" stroke-width="10.313" d="M1809 1319h249.59"/><path fill="none" stroke="url(#ao)" stroke-miterlimit="8" stroke-width="10.313" d="M1815 1333h249.59"/><path fill="none" stroke="url(#ap)" stroke-miterlimit="8" stroke-width="10.313" d="M0 0h249.594" transform="matrix(1 0 0 -1 1802 1247)"/><path fill="none" stroke="url(#aq)" stroke-miterlimit="8" stroke-width="10.313" d="M0 0h249.594" transform="matrix(1 0 0 -1 1806 1233)"/><path fill="none" stroke="url(#ar)" stroke-miterlimit="8" stroke-width="10.313" d="M0 0h249.594" transform="matrix(1 0 0 -1 1806 1219)"/><path fill="none" stroke="url(#as)" stroke-miterlimit="8" stroke-width="10.313" d="M0 0h249.594" transform="matrix(1 0 0 -1 1812 1205)"/><path fill="none" stroke="url(#at)" stroke-miterlimit="8" stroke-width="10.313" d="M0 0h249.594" transform="matrix(1 0 0 -1 1816 1190)"/><path fill="none" stroke="url(#au)" stroke-miterlimit="8" stroke-width="10.313" d="M0 0h249.594" transform="matrix(1 0 0 -1 1830 1176)"/><path fill="#0D0D0D" fill-opacity=".6" fill-rule="evenodd" stroke="#0D0D0D" stroke-dasharray="20.625 6.875" stroke-linecap="square" stroke-miterlimit="8" stroke-width="6.875" d="M2124.6 1172.07c11.78 5.57 33 29.37 32.9 54.69-.09 22.11-5.82 63.55-21.12 85.09-15.3 21.55-32.98 34.58-51.11 32.42-14.4-1.73-25.59-10.59-31.9-37.39a183.2 183.2 0 0 1 .73-78.27c4.04-20.19 8.19-33.57 16.73-43.83 11.33-13.63 35.86-21.18 53.77-12.71Z"/><path fill-rule="evenodd" d="m578.327 1325.88-61.795-10.95-18.882-14.7c-2.06-1.37-4.807-.34-5.493 2.05l-4.12 16.42c-14.762-12.32-37.077-20.52-62.139-21.55-35.018-1.02-66.259 24.28-69.349 59.16-1.03 10.6.687 20.52 4.12 29.41-19.225-12.31-31.07-38.53-35.361-52.32s11.902-30.21 9.613-30.44c.057-16.18-19.054-2.45-19.912 23.6-.687 45.82 38.107 83.44 84.111 83.44h36.047c5.836 0 6.809-8.49 10.3-10.26 3.49-1.77 9.097-1.42 10.642-.34s-.343 4.79-1.373 6.84c8.926 2.05 19.569 3.42 32.271 3.42h30.898c5.836 0 10.299-4.45 10.299-10.26s-4.463-10.26-10.299-10.26h-10.299l77.244-41.72c3.09-1.71 4.807-4.79 5.15-7.86 0-6.5-5.15-12.32-11.673-13.68"/><path fill="#C55A11" fill-rule="evenodd" stroke="#0D0D0D" stroke-miterlimit="8" stroke-width="6.875" d="m424.277 917.258-53.5 32.974-23.948 1.552c-2.454.346-3.82 2.946-2.732 5.2l7.904 15.06c-19.268.602-41.435 9.317-60.85 25.249-26.854 22.567-33.269 62.377-12.241 90.597 6.323 8.64 14.241 14.94 22.755 19.32-22.603 3.58-48.995-8.2-61.43-15.69-12.435-7.48-11.317-30.59-13.179-29.24-10.787-12.18-15.879 10.86.907 30.98 30.145 34.83 84.302 37.2 118.68 6.54l26.937-24.02c4.362-3.89-.593-10.91.833-14.56 1.426-3.66 5.845-7.14 7.724-7.35 1.879-.22 2.947 3.82 3.55 6.04 8.043-4.41 16.911-10.47 26.403-18.94l23.09-20.59c4.361-3.89 4.722-10.2.832-14.56-3.889-4.36-10.198-4.72-14.56-.83l-7.696 6.86 29.81-82.776c1.165-3.342.389-6.795-1.414-9.333-4.347-4.874-12.085-5.804-17.875-2.483Z"/><path fill="none" stroke="url(#av)" stroke-miterlimit="8" stroke-width="10.313" d="M35 1259h142.076"/><path fill="none" stroke="url(#aw)" stroke-miterlimit="8" stroke-width="10.313" d="M36 1274h142.076"/><path fill="none" stroke="url(#ax)" stroke-miterlimit="8" stroke-width="10.313" d="M34 1288h142.076"/><path fill="none" stroke="url(#ay)" stroke-miterlimit="8" stroke-width="10.313" d="M36 1302h142.077"/><path fill="none" stroke="url(#az)" stroke-miterlimit="8" stroke-width="10.313" d="M39 1316h142.076"/><path fill="none" stroke="url(#aA)" stroke-miterlimit="8" stroke-width="10.313" d="M43 1331h142.076"/><path fill="none" stroke="url(#aB)" stroke-miterlimit="8" stroke-width="10.313" d="M0 0h142.076" transform="matrix(1 0 0 -1 35 1244)"/><path fill="none" stroke="url(#aC)" stroke-miterlimit="8" stroke-width="10.313" d="M0 0h142.076" transform="matrix(1 0 0 -1 37 1230)"/><path fill="none" stroke="url(#aD)" stroke-miterlimit="8" stroke-width="10.313" d="M0 0h142.076" transform="matrix(1 0 0 -1 38 1216)"/><path fill="none" stroke="url(#aE)" stroke-miterlimit="8" stroke-width="10.313" d="M0 0h142.076" transform="matrix(1 0 0 -1 41 1202)"/><path fill="none" stroke="url(#aF)" stroke-miterlimit="8" stroke-width="10.313" d="M0 0h142.076" transform="matrix(1 0 0 -1 43 1188)"/><path fill="none" stroke="url(#aG)" stroke-miterlimit="8" stroke-width="10.313" d="M0 0h142.076" transform="matrix(1 0 0 -1 59 1173)"/><path fill="#0D0D0D" fill-opacity=".6" fill-rule="evenodd" stroke="#0D0D0D" stroke-dasharray="20.625 6.875" stroke-linecap="square" stroke-miterlimit="8" stroke-width="6.875" d="M240.599 1169.09c11.784 5.6 33.002 29.54 32.901 55.01-.085 22.23-5.817 63.9-21.117 85.57-15.298 21.67-32.981 34.77-51.111 32.6-14.397-1.74-25.595-10.65-31.898-37.6a185.1 185.1 0 0 1 .731-78.71c4.031-20.31 8.184-33.77 16.722-44.09 11.336-13.71 35.861-21.3 53.772-12.78Z"/></g></svg>