<svg xmlns="http://www.w3.org/2000/svg" xml:space="preserve" width="3535" height="1662" data-optimized="true" overflow="hidden"><defs><clipPath id="a"><path d="M358 304h3535v1662H358z"/></clipPath></defs><g clip-path="url(#a)" transform="translate(-358 -304)"><path fill="#bfbfbf" d="M408 309h3485v1640H408z"/><path fill="#7f7f7f" d="M3887.27 1860.77H462.06v11.46h3425.21Zm-3419.48-11.46-57.29 17.19 57.29 17.19Zm3419.48 58.46H462.06v11.46h3425.21Zm-3419.48-11.46-57.29 17.19 57.29 17.19Zm3419.48-173.54H462.06v11.46h3425.21Zm-3419.48-11.46-57.29 17.19 57.29 17.19Zm3415.7 58.46H462.06v11.46h3421.43Zm-3415.7-11.46-57.29 17.19 57.29 17.19Zm3421.33 58.46H462.06v11.46h3427.06Zm-3421.33-11.46-57.29 17.19 57.29 17.19ZM3887.27 741.15l-3425.2-1.9.01-11.45 3425.2 1.9Zm-3419.49 9.57L410.5 733.5l57.3-17.16Zm3419.49 24.05H462.06v11.46h3425.21ZM467.79 763.31 410.5 780.5l57.29 17.19Zm3419.48 59.46H462.06v11.46h3425.21ZM467.79 811.31 410.5 828.5l57.29 17.19Zm3415.7 58.46H462.06v11.46h3421.43Zm-3415.7-11.46L410.5 875.5l57.29 17.19Zm3421.33 58.46H462.06v11.46h3427.06ZM467.79 905.31 410.5 922.5l57.29 17.19Zm3421.33 58.46H462.06v11.46h3427.06ZM467.79 952.31 410.5 969.5l57.29 17.19Zm3421.33 59.46H462.06v11.46h3427.06Zm-3421.33-11.46-57.29 17.19 57.29 17.19Zm3421.33 58.46H462.06v11.46h3427.06Zm-3421.33-11.46-57.29 17.19 57.29 17.19Zm3421.33 58.46H462.06v11.46h3427.06Zm-3421.33-11.46-57.29 17.19 57.29 17.19Zm3421.33 58.46H462.06v11.46h3427.06Zm-3421.33-11.46-57.29 17.19 57.29 17.19Zm3421.33 59.46H462.06v11.46h3427.06Zm-3421.33-11.46-57.29 17.19 57.29 17.19Zm3421.33 58.46H462.06v11.46h3427.06Zm-3421.33-11.46-57.29 17.19 57.29 17.19Zm3421.33 58.46H462.06v11.46h3427.06Zm-3421.33-11.46-57.29 17.19 57.29 17.19Zm3421.33 58.46H462.06v11.46h3427.06Zm-3421.33-11.46-57.29 17.19 57.29 17.19Zm3421.33 59.46H462.06v11.46h3427.06Zm-3421.33-11.46-57.29 17.19 57.29 17.19Zm3421.33 58.46H462.06v11.46h3427.06Zm-3421.33-11.46-57.29 17.19 57.29 17.19Zm3421.33 58.46H462.06v11.46h3427.06Zm-3421.33-11.46-57.29 17.19 57.29 17.19Zm3421.33 58.46H462.06v11.46h3427.06Zm-3421.33-11.46-57.29 17.19 57.29 17.19Zm3421.33 59.46H462.06v11.46h3427.06Zm-3421.33-11.46-57.29 17.19 57.29 17.19Zm3421.33 58.46H462.06v11.46h3427.06Zm-3421.33-11.46-57.29 17.19 57.29 17.19Zm3421.33 58.46H462.06v11.46h3427.06Zm-3421.33-11.46-57.29 17.19 57.29 17.19ZM3887.27 589.77H462.06v11.46h3425.21ZM467.79 578.31 410.5 595.5l57.29 17.19Zm3415.7 58.46H462.06v11.46h3421.43Zm-3415.7-11.46L410.5 642.5l57.29 17.19Zm3421.33 58.46H462.06v11.46h3427.06ZM467.79 672.31 410.5 689.5l57.29 17.19Zm3421.33-321.54H462.06v11.46h3427.06ZM467.79 339.31 410.5 356.5l57.29 17.19Zm3421.33 59.46H462.06v11.46h3427.06ZM467.79 387.31 410.5 404.5l57.29 17.19Zm3421.33 58.46H462.06v11.46h3427.06ZM467.79 434.31 410.5 451.5l57.29 17.19Zm3421.33 58.46H462.06v11.46h3427.06ZM467.79 481.31 410.5 498.5l57.29 17.19Zm3421.33 58.46H462.06v11.46h3427.06ZM467.79 528.31 410.5 545.5l57.29 17.19Z"/><path fill="none" stroke="#7f7f7f" stroke-miterlimit="8" stroke-width="6.88" d="M1964.5 312.5v1634.31m46-1634.31v1634.31m47-1634.31v1634.31m47-1635.31v1637.59m47-1639.59v1640.24m47-1640.24v1640.24m47-1640.24v1640.24m46-1640.24v1640.24m47-1640.24v1640.24m47-1640.24v1640.24m47-1640.24v1640.24m47-1640.24v1640.24m46-1640.24v1640.24m47-1640.24v1640.24m47-1640.24v1640.24m47-1640.24v1640.24m47-1640.24v1640.24m46-1640.24v1640.24m47-1640.24v1640.24m47-1640.24v1640.24m47-1640.24v1640.24M1823.5 312.5v1634.31m47-1635.31v1637.59m47-1639.59v1640.24M840.5 314.5v1634.31m47-1634.31v1634.31m47-1634.31v1634.31m47-1636.31v1637.59m46-1638.59v1640.24m47-1640.24v1640.24m47-1640.24v1640.24m47-1640.24v1640.24m47-1640.24v1640.24m47-1640.24v1640.24m46-1640.24v1640.24m47-1640.24v1640.24m47-1640.24v1640.24m47-1640.24v1640.24m47-1640.24v1640.24m46-1640.24v1640.24m47-1640.24v1640.24m47-1640.24v1640.24m47-1640.24v1640.24m47-1640.24v1640.24m46-1640.24v1640.24M700.5 314.5v1634.31m47-1636.31v1637.59m46-1638.59v1640.24m2575-1637.24v1634.31m47-1634.31v1634.31m47-1634.31v1634.31m46-1635.31v1637.59m47-1639.59v1640.24m47-1640.24v1640.24m47-1640.24v1640.24m47-1640.24v1640.24m46-1640.24v1640.24m47-1640.24v1640.24m47-1640.24v1635.18m-609-1632.18v1634.31m47-1635.31v1637.59m47-1639.59v1640.24m-374-1640.24v1640.24m46-1640.24v1640.24m47-1640.24v1640.24m47-1640.24v1640.24m47-1640.24v1640.24m47-1640.24v1640.24"/><path fill="#767171" fill-rule="evenodd" d="M2668 1090.5 2825.5 933v78.75H3721v157.5h-895.5V1248Z"/><path fill="#c55a11" d="M1073.09 545.5v938.07h-17.18V545.5Zm17.19 929.47-25.78 51.57-25.78-51.57Zm-87.37 51.57V588.47h17.18v938.07Zm-17.2-929.48 25.79-51.56 25.78 51.56Z"/><path d="M2143.82 1609.09h-933.35v-17.18h933.35Zm-924.76 17.19-51.56-25.78 51.56-25.78Zm-45.56 29.63h933.35v17.18H1173.5Zm924.76-17.19 51.56 25.78-51.56 25.78Z"/><path fill-rule="evenodd" d="m1181.33 1785.14-61.8-11.04-18.88-14.83a3.6 3.6 0 0 0-5.49 2.07l-4.12 16.55c-14.77-12.41-37.08-20.69-62.14-21.73-35.02-1.03-66.26 24.49-69.35 59.68a65 65 0 0 0 4.12 29.67c-19.23-12.42-31.07-38.87-35.36-52.78-4.3-13.92 11.9-30.47 9.61-30.7.06-16.33-19.05-2.48-19.91 23.8-.69 46.22 38.1 84.17 84.11 84.17h36.05c5.83 0 6.81-8.57 10.3-10.35s9.09-1.44 10.64-.34c1.54 1.09-.34 4.83-1.37 6.9 8.92 2.07 19.56 3.45 32.27 3.45h30.9c5.83 0 10.29-4.49 10.29-10.35 0-5.87-4.46-10.35-10.29-10.35h-10.3l77.24-42.09a10.3 10.3 0 0 0 5.15-7.93c0-6.56-5.15-12.42-11.67-13.8"/><path fill="#c55a11" fill-rule="evenodd" stroke="#0d0d0d" stroke-miterlimit="8" stroke-width="6.88" d="m821.38 1508.21-10.95 62.03-14.7 18.95a3.63 3.63 0 0 0 2.05 5.51l16.42 4.13c-12.32 14.82-20.52 37.22-21.55 62.37-1.02 35.14 24.28 66.5 59.16 69.6a64 64 0 0 0 29.41-4.14c-12.31 19.3-38.53 31.19-52.32 35.49-13.8 4.31-30.2-11.94-30.43-9.64-16.2-.06-2.46 19.12 23.6 19.98 45.81.69 83.43-38.25 83.43-84.42v-36.17c0-5.86-8.5-6.84-10.26-10.34s-1.42-9.13-.34-10.68 4.79.34 6.84 1.38c2.05-8.96 3.42-19.64 3.42-32.39v-31.01c0-5.86-4.45-10.34-10.26-10.34s-10.26 4.48-10.26 10.34v10.33l-41.72-77.52a10.2 10.2 0 0 0-7.87-5.17c-6.5 0-12.3 5.17-13.67 11.71Z"/><path fill-rule="evenodd" d="M967.59 1601.03c5.6-12.54 29.54-35.14 55.01-35.03 22.23.09 63.9 6.19 85.57 22.49s34.77 35.11 32.6 54.42c-1.74 15.33-10.65 27.25-37.6 33.96a174 174 0 0 1-78.71-.77c-20.31-4.3-33.77-8.72-44.1-17.81-13.7-12.07-21.29-38.18-12.77-57.26"/><path fill="#939393" fill-rule="evenodd" stroke="#0d0d0d" stroke-miterlimit="8" stroke-width="10.31" d="M2286.4 1545.57c11.68 5.57 32.7 29.37 32.6 54.69-.08 22.11-5.76 63.55-20.92 85.09s-32.68 34.58-50.64 32.42c-14.26-1.73-25.36-10.59-31.6-37.39a185 185 0 0 1 .72-78.27c4-20.19 8.11-33.57 16.57-43.83 11.23-13.63 35.53-21.18 53.27-12.71Zm-1224.3-1185c11.78 5.57 33 29.37 32.9 54.7-.09 22.1-5.82 63.54-21.12 85.08s-32.98 34.58-51.11 32.42c-14.4-1.73-25.6-10.6-31.9-37.39a183 183 0 0 1 .74-78.27c4.03-20.2 8.18-33.57 16.72-43.83 11.33-13.63 35.86-21.18 53.77-12.71Z"/></g></svg>