<svg xmlns="http://www.w3.org/2000/svg" xml:space="preserve" width="3543" height="1646" data-optimized="true" overflow="hidden"><defs><linearGradient id="b" x1="3078" x2="3332.75" y1="1721" y2="1721" gradientUnits="userSpaceOnUse" spreadMethod="reflect"><stop offset="0" stop-color="#7f7f7f" stop-opacity="0"/><stop offset=".28" stop-color="#7f7f7f" stop-opacity=".15"/><stop offset=".68" stop-color="#7f7f7f"/><stop offset="1" stop-color="#262626"/></linearGradient><linearGradient id="c" x1="3081" x2="3335.75" y1="1736" y2="1736" gradientUnits="userSpaceOnUse" spreadMethod="reflect"><stop offset="0" stop-color="#7f7f7f" stop-opacity="0"/><stop offset=".28" stop-color="#7f7f7f" stop-opacity=".15"/><stop offset=".68" stop-color="#7f7f7f"/><stop offset="1" stop-color="#262626"/></linearGradient><linearGradient id="d" x1="3077" x2="3331.75" y1="1750" y2="1750" gradientUnits="userSpaceOnUse" spreadMethod="reflect"><stop offset="0" stop-color="#7f7f7f" stop-opacity="0"/><stop offset=".28" stop-color="#7f7f7f" stop-opacity=".15"/><stop offset=".68" stop-color="#7f7f7f"/><stop offset="1" stop-color="#262626"/></linearGradient><linearGradient id="e" x1="3081" x2="3335.75" y1="1764" y2="1764" gradientUnits="userSpaceOnUse" spreadMethod="reflect"><stop offset="0" stop-color="#7f7f7f" stop-opacity="0"/><stop offset=".28" stop-color="#7f7f7f" stop-opacity=".15"/><stop offset=".68" stop-color="#7f7f7f"/><stop offset="1" stop-color="#262626"/></linearGradient><linearGradient id="f" x1="3086" x2="3340.75" y1="1778" y2="1778" gradientUnits="userSpaceOnUse" spreadMethod="reflect"><stop offset="0" stop-color="#7f7f7f" stop-opacity="0"/><stop offset=".28" stop-color="#7f7f7f" stop-opacity=".15"/><stop offset=".68" stop-color="#7f7f7f"/><stop offset="1" stop-color="#262626"/></linearGradient><linearGradient id="g" x1="3092" x2="3346.75" y1="1793" y2="1793" gradientUnits="userSpaceOnUse" spreadMethod="reflect"><stop offset="0" stop-color="#7f7f7f" stop-opacity="0"/><stop offset=".28" stop-color="#7f7f7f" stop-opacity=".15"/><stop offset=".68" stop-color="#7f7f7f"/><stop offset="1" stop-color="#262626"/></linearGradient><linearGradient id="h" x1="0" x2="254.75" y1="0" y2="0" gradientUnits="userSpaceOnUse" spreadMethod="reflect"><stop offset="0" stop-color="#7f7f7f" stop-opacity="0"/><stop offset=".28" stop-color="#7f7f7f" stop-opacity=".15"/><stop offset=".68" stop-color="#7f7f7f"/><stop offset="1" stop-color="#262626"/></linearGradient><linearGradient id="i" x1="0" x2="254.75" y1="0" y2="0" gradientUnits="userSpaceOnUse" spreadMethod="reflect"><stop offset="0" stop-color="#7f7f7f" stop-opacity="0"/><stop offset=".28" stop-color="#7f7f7f" stop-opacity=".15"/><stop offset=".68" stop-color="#7f7f7f"/><stop offset="1" stop-color="#262626"/></linearGradient><linearGradient id="j" x1="0" x2="254.75" y1="0" y2="0" gradientUnits="userSpaceOnUse" spreadMethod="reflect"><stop offset="0" stop-color="#7f7f7f" stop-opacity="0"/><stop offset=".28" stop-color="#7f7f7f" stop-opacity=".15"/><stop offset=".68" stop-color="#7f7f7f"/><stop offset="1" stop-color="#262626"/></linearGradient><linearGradient id="k" x1="0" x2="254.75" y1="0" y2="0" gradientUnits="userSpaceOnUse" spreadMethod="reflect"><stop offset="0" stop-color="#7f7f7f" stop-opacity="0"/><stop offset=".28" stop-color="#7f7f7f" stop-opacity=".15"/><stop offset=".68" stop-color="#7f7f7f"/><stop offset="1" stop-color="#262626"/></linearGradient><linearGradient id="l" x1="0" x2="254.75" y1="0" y2="0" gradientUnits="userSpaceOnUse" spreadMethod="reflect"><stop offset="0" stop-color="#7f7f7f" stop-opacity="0"/><stop offset=".28" stop-color="#7f7f7f" stop-opacity=".15"/><stop offset=".68" stop-color="#7f7f7f"/><stop offset="1" stop-color="#262626"/></linearGradient><linearGradient id="m" x1="0" x2="254.75" y1="0" y2="0" gradientUnits="userSpaceOnUse" spreadMethod="reflect"><stop offset="0" stop-color="#7f7f7f" stop-opacity="0"/><stop offset=".28" stop-color="#7f7f7f" stop-opacity=".15"/><stop offset=".68" stop-color="#7f7f7f"/><stop offset="1" stop-color="#262626"/></linearGradient><linearGradient id="n" x1="2251" x2="2505.75" y1="1719" y2="1719" gradientUnits="userSpaceOnUse" spreadMethod="reflect"><stop offset="0" stop-color="#7f7f7f" stop-opacity="0"/><stop offset=".28" stop-color="#7f7f7f" stop-opacity=".15"/><stop offset=".68" stop-color="#595959"/><stop offset="1" stop-color="#0d0d0d"/></linearGradient><linearGradient id="o" x1="2254" x2="2508.75" y1="1733" y2="1733" gradientUnits="userSpaceOnUse" spreadMethod="reflect"><stop offset="0" stop-color="#7f7f7f" stop-opacity="0"/><stop offset=".28" stop-color="#7f7f7f" stop-opacity=".15"/><stop offset=".68" stop-color="#595959"/><stop offset="1" stop-color="#0d0d0d"/></linearGradient><linearGradient id="p" x1="2262" x2="2516.75" y1="1747" y2="1747" gradientUnits="userSpaceOnUse" spreadMethod="reflect"><stop offset="0" stop-color="#7f7f7f" stop-opacity="0"/><stop offset=".28" stop-color="#7f7f7f" stop-opacity=".15"/><stop offset=".68" stop-color="#595959"/><stop offset="1" stop-color="#0d0d0d"/></linearGradient><linearGradient id="q" x1="2273" x2="2527.75" y1="1762" y2="1762" gradientUnits="userSpaceOnUse" spreadMethod="reflect"><stop offset="0" stop-color="#7f7f7f" stop-opacity="0"/><stop offset=".28" stop-color="#7f7f7f" stop-opacity=".15"/><stop offset=".68" stop-color="#595959"/><stop offset="1" stop-color="#0d0d0d"/></linearGradient><linearGradient id="r" x1="2291" x2="2545.75" y1="1776" y2="1776" gradientUnits="userSpaceOnUse" spreadMethod="reflect"><stop offset="0" stop-color="#7f7f7f" stop-opacity="0"/><stop offset=".28" stop-color="#7f7f7f" stop-opacity=".15"/><stop offset=".68" stop-color="#595959"/><stop offset="1" stop-color="#0d0d0d"/></linearGradient><linearGradient id="s" x1="2321" x2="2575.75" y1="1790" y2="1790" gradientUnits="userSpaceOnUse" spreadMethod="reflect"><stop offset="0" stop-color="#7f7f7f" stop-opacity="0"/><stop offset=".28" stop-color="#7f7f7f" stop-opacity=".15"/><stop offset=".68" stop-color="#595959"/><stop offset="1" stop-color="#0d0d0d"/></linearGradient><linearGradient id="t" x1="0" x2="254.75" y1="0" y2="0" gradientUnits="userSpaceOnUse" spreadMethod="reflect"><stop offset="0" stop-color="#7f7f7f" stop-opacity="0"/><stop offset=".28" stop-color="#7f7f7f" stop-opacity=".15"/><stop offset=".68" stop-color="#595959"/><stop offset="1" stop-color="#0d0d0d"/></linearGradient><linearGradient id="u" x1="0" x2="254.75" y1="0" y2="0" gradientUnits="userSpaceOnUse" spreadMethod="reflect"><stop offset="0" stop-color="#7f7f7f" stop-opacity="0"/><stop offset=".28" stop-color="#7f7f7f" stop-opacity=".15"/><stop offset=".68" stop-color="#595959"/><stop offset="1" stop-color="#0d0d0d"/></linearGradient><linearGradient id="v" x1="0" x2="254.75" y1="0" y2="0" gradientUnits="userSpaceOnUse" spreadMethod="reflect"><stop offset="0" stop-color="#7f7f7f" stop-opacity="0"/><stop offset=".28" stop-color="#7f7f7f" stop-opacity=".15"/><stop offset=".68" stop-color="#595959"/><stop offset="1" stop-color="#0d0d0d"/></linearGradient><linearGradient id="w" x1="0" x2="254.75" y1="0" y2="0" gradientUnits="userSpaceOnUse" spreadMethod="reflect"><stop offset="0" stop-color="#7f7f7f" stop-opacity="0"/><stop offset=".28" stop-color="#7f7f7f" stop-opacity=".15"/><stop offset=".68" stop-color="#595959"/><stop offset="1" stop-color="#0d0d0d"/></linearGradient><linearGradient id="x" x1="0" x2="254.75" y1="0" y2="0" gradientUnits="userSpaceOnUse" spreadMethod="reflect"><stop offset="0" stop-color="#7f7f7f" stop-opacity="0"/><stop offset=".28" stop-color="#7f7f7f" stop-opacity=".15"/><stop offset=".68" stop-color="#595959"/><stop offset="1" stop-color="#0d0d0d"/></linearGradient><linearGradient id="y" x1="0" x2="254.75" y1="0" y2="0" gradientUnits="userSpaceOnUse" spreadMethod="reflect"><stop offset="0" stop-color="#7f7f7f" stop-opacity="0"/><stop offset=".28" stop-color="#7f7f7f" stop-opacity=".15"/><stop offset=".68" stop-color="#595959"/><stop offset="1" stop-color="#0d0d0d"/></linearGradient><linearGradient id="z" x1="3403" x2="3657.75" y1="1715" y2="1715" gradientUnits="userSpaceOnUse" spreadMethod="reflect"><stop offset="0" stop-color="#7f7f7f" stop-opacity="0"/><stop offset=".28" stop-color="#7f7f7f" stop-opacity=".15"/><stop offset=".68" stop-color="#7f7f7f"/><stop offset="1" stop-color="#262626"/></linearGradient><linearGradient id="A" x1="3406" x2="3660.75" y1="1729" y2="1729" gradientUnits="userSpaceOnUse" spreadMethod="reflect"><stop offset="0" stop-color="#7f7f7f" stop-opacity="0"/><stop offset=".28" stop-color="#7f7f7f" stop-opacity=".15"/><stop offset=".68" stop-color="#7f7f7f"/><stop offset="1" stop-color="#262626"/></linearGradient><linearGradient id="B" x1="3413" x2="3667.75" y1="1744" y2="1744" gradientUnits="userSpaceOnUse" spreadMethod="reflect"><stop offset="0" stop-color="#7f7f7f" stop-opacity="0"/><stop offset=".28" stop-color="#7f7f7f" stop-opacity=".15"/><stop offset=".68" stop-color="#7f7f7f"/><stop offset="1" stop-color="#262626"/></linearGradient><linearGradient id="C" x1="3425" x2="3679.75" y1="1758" y2="1758" gradientUnits="userSpaceOnUse" spreadMethod="reflect"><stop offset="0" stop-color="#7f7f7f" stop-opacity="0"/><stop offset=".28" stop-color="#7f7f7f" stop-opacity=".15"/><stop offset=".68" stop-color="#7f7f7f"/><stop offset="1" stop-color="#262626"/></linearGradient><linearGradient id="D" x1="3443" x2="3697.75" y1="1772" y2="1772" gradientUnits="userSpaceOnUse" spreadMethod="reflect"><stop offset="0" stop-color="#7f7f7f" stop-opacity="0"/><stop offset=".28" stop-color="#7f7f7f" stop-opacity=".15"/><stop offset=".68" stop-color="#7f7f7f"/><stop offset="1" stop-color="#262626"/></linearGradient><linearGradient id="E" x1="3473" x2="3727.75" y1="1786" y2="1786" gradientUnits="userSpaceOnUse" spreadMethod="reflect"><stop offset="0" stop-color="#7f7f7f" stop-opacity="0"/><stop offset=".28" stop-color="#7f7f7f" stop-opacity=".15"/><stop offset=".68" stop-color="#7f7f7f"/><stop offset="1" stop-color="#262626"/></linearGradient><linearGradient id="F" x1="0" x2="254.75" y1="0" y2="0" gradientUnits="userSpaceOnUse" spreadMethod="reflect"><stop offset="0" stop-color="#7f7f7f" stop-opacity="0"/><stop offset=".28" stop-color="#7f7f7f" stop-opacity=".15"/><stop offset=".68" stop-color="#7f7f7f"/><stop offset="1" stop-color="#262626"/></linearGradient><linearGradient id="G" x1="0" x2="254.75" y1="0" y2="0" gradientUnits="userSpaceOnUse" spreadMethod="reflect"><stop offset="0" stop-color="#7f7f7f" stop-opacity="0"/><stop offset=".28" stop-color="#7f7f7f" stop-opacity=".15"/><stop offset=".68" stop-color="#7f7f7f"/><stop offset="1" stop-color="#262626"/></linearGradient><linearGradient id="H" x1="0" x2="254.75" y1="0" y2="0" gradientUnits="userSpaceOnUse" spreadMethod="reflect"><stop offset="0" stop-color="#7f7f7f" stop-opacity="0"/><stop offset=".28" stop-color="#7f7f7f" stop-opacity=".15"/><stop offset=".68" stop-color="#7f7f7f"/><stop offset="1" stop-color="#262626"/></linearGradient><linearGradient id="I" x1="0" x2="254.75" y1="0" y2="0" gradientUnits="userSpaceOnUse" spreadMethod="reflect"><stop offset="0" stop-color="#7f7f7f" stop-opacity="0"/><stop offset=".28" stop-color="#7f7f7f" stop-opacity=".15"/><stop offset=".68" stop-color="#7f7f7f"/><stop offset="1" stop-color="#262626"/></linearGradient><linearGradient id="J" x1="0" x2="254.75" y1="0" y2="0" gradientUnits="userSpaceOnUse" spreadMethod="reflect"><stop offset="0" stop-color="#7f7f7f" stop-opacity="0"/><stop offset=".28" stop-color="#7f7f7f" stop-opacity=".15"/><stop offset=".68" stop-color="#7f7f7f"/><stop offset="1" stop-color="#262626"/></linearGradient><linearGradient id="K" x1="0" x2="254.75" y1="0" y2="0" gradientUnits="userSpaceOnUse" spreadMethod="reflect"><stop offset="0" stop-color="#7f7f7f" stop-opacity="0"/><stop offset=".28" stop-color="#7f7f7f" stop-opacity=".15"/><stop offset=".68" stop-color="#7f7f7f"/><stop offset="1" stop-color="#262626"/></linearGradient><linearGradient id="L" x1="2263" x2="2517.75" y1="556" y2="556" gradientUnits="userSpaceOnUse" spreadMethod="reflect"><stop offset="0" stop-color="#7f7f7f" stop-opacity="0"/><stop offset=".28" stop-color="#7f7f7f" stop-opacity=".15"/><stop offset=".68" stop-color="#7f7f7f"/><stop offset="1" stop-color="#262626"/></linearGradient><linearGradient id="M" x1="2266" x2="2520.75" y1="570" y2="570" gradientUnits="userSpaceOnUse" spreadMethod="reflect"><stop offset="0" stop-color="#7f7f7f" stop-opacity="0"/><stop offset=".28" stop-color="#7f7f7f" stop-opacity=".15"/><stop offset=".68" stop-color="#7f7f7f"/><stop offset="1" stop-color="#262626"/></linearGradient><linearGradient id="N" x1="2273" x2="2527.75" y1="585" y2="585" gradientUnits="userSpaceOnUse" spreadMethod="reflect"><stop offset="0" stop-color="#7f7f7f" stop-opacity="0"/><stop offset=".28" stop-color="#7f7f7f" stop-opacity=".15"/><stop offset=".68" stop-color="#7f7f7f"/><stop offset="1" stop-color="#262626"/></linearGradient><linearGradient id="O" x1="2285" x2="2539.75" y1="599" y2="599" gradientUnits="userSpaceOnUse" spreadMethod="reflect"><stop offset="0" stop-color="#7f7f7f" stop-opacity="0"/><stop offset=".28" stop-color="#7f7f7f" stop-opacity=".15"/><stop offset=".68" stop-color="#7f7f7f"/><stop offset="1" stop-color="#262626"/></linearGradient><linearGradient id="P" x1="2303" x2="2557.75" y1="613" y2="613" gradientUnits="userSpaceOnUse" spreadMethod="reflect"><stop offset="0" stop-color="#7f7f7f" stop-opacity="0"/><stop offset=".28" stop-color="#7f7f7f" stop-opacity=".15"/><stop offset=".68" stop-color="#7f7f7f"/><stop offset="1" stop-color="#262626"/></linearGradient><linearGradient id="Q" x1="2333" x2="2587.75" y1="627" y2="627" gradientUnits="userSpaceOnUse" spreadMethod="reflect"><stop offset="0" stop-color="#7f7f7f" stop-opacity="0"/><stop offset=".28" stop-color="#7f7f7f" stop-opacity=".15"/><stop offset=".68" stop-color="#7f7f7f"/><stop offset="1" stop-color="#262626"/></linearGradient><linearGradient id="R" x1="0" x2="254.75" y1="0" y2="0" gradientUnits="userSpaceOnUse" spreadMethod="reflect"><stop offset="0" stop-color="#7f7f7f" stop-opacity="0"/><stop offset=".28" stop-color="#7f7f7f" stop-opacity=".15"/><stop offset=".68" stop-color="#7f7f7f"/><stop offset="1" stop-color="#262626"/></linearGradient><linearGradient id="S" x1="0" x2="254.75" y1="0" y2="0" gradientUnits="userSpaceOnUse" spreadMethod="reflect"><stop offset="0" stop-color="#7f7f7f" stop-opacity="0"/><stop offset=".28" stop-color="#7f7f7f" stop-opacity=".15"/><stop offset=".68" stop-color="#7f7f7f"/><stop offset="1" stop-color="#262626"/></linearGradient><linearGradient id="T" x1="0" x2="254.75" y1="0" y2="0" gradientUnits="userSpaceOnUse" spreadMethod="reflect"><stop offset="0" stop-color="#7f7f7f" stop-opacity="0"/><stop offset=".28" stop-color="#7f7f7f" stop-opacity=".15"/><stop offset=".68" stop-color="#7f7f7f"/><stop offset="1" stop-color="#262626"/></linearGradient><linearGradient id="U" x1="0" x2="254.75" y1="0" y2="0" gradientUnits="userSpaceOnUse" spreadMethod="reflect"><stop offset="0" stop-color="#7f7f7f" stop-opacity="0"/><stop offset=".28" stop-color="#7f7f7f" stop-opacity=".15"/><stop offset=".68" stop-color="#7f7f7f"/><stop offset="1" stop-color="#262626"/></linearGradient><linearGradient id="V" x1="0" x2="254.75" y1="0" y2="0" gradientUnits="userSpaceOnUse" spreadMethod="reflect"><stop offset="0" stop-color="#7f7f7f" stop-opacity="0"/><stop offset=".28" stop-color="#7f7f7f" stop-opacity=".15"/><stop offset=".68" stop-color="#7f7f7f"/><stop offset="1" stop-color="#262626"/></linearGradient><linearGradient id="W" x1="0" x2="254.75" y1="0" y2="0" gradientUnits="userSpaceOnUse" spreadMethod="reflect"><stop offset="0" stop-color="#7f7f7f" stop-opacity="0"/><stop offset=".28" stop-color="#7f7f7f" stop-opacity=".15"/><stop offset=".68" stop-color="#7f7f7f"/><stop offset="1" stop-color="#262626"/></linearGradient><linearGradient id="X" x1="1182" x2="1436.75" y1="547" y2="547" gradientUnits="userSpaceOnUse" spreadMethod="reflect"><stop offset="0" stop-color="#7f7f7f" stop-opacity="0"/><stop offset=".28" stop-color="#7f7f7f" stop-opacity=".15"/><stop offset=".68" stop-color="#7f7f7f"/><stop offset="1" stop-color="#262626"/></linearGradient><linearGradient id="Y" x1="1184" x2="1438.75" y1="562" y2="562" gradientUnits="userSpaceOnUse" spreadMethod="reflect"><stop offset="0" stop-color="#7f7f7f" stop-opacity="0"/><stop offset=".28" stop-color="#7f7f7f" stop-opacity=".15"/><stop offset=".68" stop-color="#7f7f7f"/><stop offset="1" stop-color="#262626"/></linearGradient><linearGradient id="Z" x1="1181" x2="1435.75" y1="576" y2="576" gradientUnits="userSpaceOnUse" spreadMethod="reflect"><stop offset="0" stop-color="#7f7f7f" stop-opacity="0"/><stop offset=".28" stop-color="#7f7f7f" stop-opacity=".15"/><stop offset=".68" stop-color="#7f7f7f"/><stop offset="1" stop-color="#262626"/></linearGradient><linearGradient id="aa" x1="1184" x2="1438.75" y1="590" y2="590" gradientUnits="userSpaceOnUse" spreadMethod="reflect"><stop offset="0" stop-color="#7f7f7f" stop-opacity="0"/><stop offset=".28" stop-color="#7f7f7f" stop-opacity=".15"/><stop offset=".68" stop-color="#7f7f7f"/><stop offset="1" stop-color="#262626"/></linearGradient><linearGradient id="ab" x1="1189" x2="1443.75" y1="604" y2="604" gradientUnits="userSpaceOnUse" spreadMethod="reflect"><stop offset="0" stop-color="#7f7f7f" stop-opacity="0"/><stop offset=".28" stop-color="#7f7f7f" stop-opacity=".15"/><stop offset=".68" stop-color="#7f7f7f"/><stop offset="1" stop-color="#262626"/></linearGradient><linearGradient id="ac" x1="1195" x2="1449.75" y1="618" y2="618" gradientUnits="userSpaceOnUse" spreadMethod="reflect"><stop offset="0" stop-color="#7f7f7f" stop-opacity="0"/><stop offset=".28" stop-color="#7f7f7f" stop-opacity=".15"/><stop offset=".68" stop-color="#7f7f7f"/><stop offset="1" stop-color="#262626"/></linearGradient><linearGradient id="ad" x1="0" x2="254.75" y1="0" y2="0" gradientUnits="userSpaceOnUse" spreadMethod="reflect"><stop offset="0" stop-color="#7f7f7f" stop-opacity="0"/><stop offset=".28" stop-color="#7f7f7f" stop-opacity=".15"/><stop offset=".68" stop-color="#7f7f7f"/><stop offset="1" stop-color="#262626"/></linearGradient><linearGradient id="ae" x1="0" x2="254.75" y1="0" y2="0" gradientUnits="userSpaceOnUse" spreadMethod="reflect"><stop offset="0" stop-color="#7f7f7f" stop-opacity="0"/><stop offset=".28" stop-color="#7f7f7f" stop-opacity=".15"/><stop offset=".68" stop-color="#7f7f7f"/><stop offset="1" stop-color="#262626"/></linearGradient><linearGradient id="af" x1="0" x2="254.75" y1="0" y2="0" gradientUnits="userSpaceOnUse" spreadMethod="reflect"><stop offset="0" stop-color="#7f7f7f" stop-opacity="0"/><stop offset=".28" stop-color="#7f7f7f" stop-opacity=".15"/><stop offset=".68" stop-color="#7f7f7f"/><stop offset="1" stop-color="#262626"/></linearGradient><linearGradient id="ag" x1="0" x2="254.75" y1="0" y2="0" gradientUnits="userSpaceOnUse" spreadMethod="reflect"><stop offset="0" stop-color="#7f7f7f" stop-opacity="0"/><stop offset=".28" stop-color="#7f7f7f" stop-opacity=".15"/><stop offset=".68" stop-color="#7f7f7f"/><stop offset="1" stop-color="#262626"/></linearGradient><linearGradient id="ah" x1="0" x2="254.75" y1="0" y2="0" gradientUnits="userSpaceOnUse" spreadMethod="reflect"><stop offset="0" stop-color="#7f7f7f" stop-opacity="0"/><stop offset=".28" stop-color="#7f7f7f" stop-opacity=".15"/><stop offset=".68" stop-color="#7f7f7f"/><stop offset="1" stop-color="#262626"/></linearGradient><linearGradient id="ai" x1="0" x2="254.75" y1="0" y2="0" gradientUnits="userSpaceOnUse" spreadMethod="reflect"><stop offset="0" stop-color="#7f7f7f" stop-opacity="0"/><stop offset=".28" stop-color="#7f7f7f" stop-opacity=".15"/><stop offset=".68" stop-color="#7f7f7f"/><stop offset="1" stop-color="#262626"/></linearGradient><linearGradient id="aj" x1="1921" x2="2175.75" y1="1716" y2="1716" gradientUnits="userSpaceOnUse" spreadMethod="reflect"><stop offset="0" stop-color="#7f7f7f" stop-opacity="0"/><stop offset=".28" stop-color="#7f7f7f" stop-opacity=".15"/><stop offset=".68" stop-color="#7f7f7f"/><stop offset="1" stop-color="#262626"/></linearGradient><linearGradient id="ak" x1="1924" x2="2178.75" y1="1730" y2="1730" gradientUnits="userSpaceOnUse" spreadMethod="reflect"><stop offset="0" stop-color="#7f7f7f" stop-opacity="0"/><stop offset=".28" stop-color="#7f7f7f" stop-opacity=".15"/><stop offset=".68" stop-color="#7f7f7f"/><stop offset="1" stop-color="#262626"/></linearGradient><linearGradient id="al" x1="1920" x2="2174.75" y1="1744" y2="1744" gradientUnits="userSpaceOnUse" spreadMethod="reflect"><stop offset="0" stop-color="#7f7f7f" stop-opacity="0"/><stop offset=".28" stop-color="#7f7f7f" stop-opacity=".15"/><stop offset=".68" stop-color="#7f7f7f"/><stop offset="1" stop-color="#262626"/></linearGradient><linearGradient id="am" x1="1924" x2="2178.75" y1="1759" y2="1759" gradientUnits="userSpaceOnUse" spreadMethod="reflect"><stop offset="0" stop-color="#7f7f7f" stop-opacity="0"/><stop offset=".28" stop-color="#7f7f7f" stop-opacity=".15"/><stop offset=".68" stop-color="#7f7f7f"/><stop offset="1" stop-color="#262626"/></linearGradient><linearGradient id="an" x1="1929" x2="2183.75" y1="1773" y2="1773" gradientUnits="userSpaceOnUse" spreadMethod="reflect"><stop offset="0" stop-color="#7f7f7f" stop-opacity="0"/><stop offset=".28" stop-color="#7f7f7f" stop-opacity=".15"/><stop offset=".68" stop-color="#7f7f7f"/><stop offset="1" stop-color="#262626"/></linearGradient><linearGradient id="ao" x1="1935" x2="2189.75" y1="1787" y2="1787" gradientUnits="userSpaceOnUse" spreadMethod="reflect"><stop offset="0" stop-color="#7f7f7f" stop-opacity="0"/><stop offset=".28" stop-color="#7f7f7f" stop-opacity=".15"/><stop offset=".68" stop-color="#7f7f7f"/><stop offset="1" stop-color="#262626"/></linearGradient><linearGradient id="ap" x1="0" x2="254.75" y1="0" y2="0" gradientUnits="userSpaceOnUse" spreadMethod="reflect"><stop offset="0" stop-color="#7f7f7f" stop-opacity="0"/><stop offset=".28" stop-color="#7f7f7f" stop-opacity=".15"/><stop offset=".68" stop-color="#7f7f7f"/><stop offset="1" stop-color="#262626"/></linearGradient><linearGradient id="aq" x1="0" x2="254.75" y1="0" y2="0" gradientUnits="userSpaceOnUse" spreadMethod="reflect"><stop offset="0" stop-color="#7f7f7f" stop-opacity="0"/><stop offset=".28" stop-color="#7f7f7f" stop-opacity=".15"/><stop offset=".68" stop-color="#7f7f7f"/><stop offset="1" stop-color="#262626"/></linearGradient><linearGradient id="ar" x1="0" x2="254.75" y1="0" y2="0" gradientUnits="userSpaceOnUse" spreadMethod="reflect"><stop offset="0" stop-color="#7f7f7f" stop-opacity="0"/><stop offset=".28" stop-color="#7f7f7f" stop-opacity=".15"/><stop offset=".68" stop-color="#7f7f7f"/><stop offset="1" stop-color="#262626"/></linearGradient><linearGradient id="as" x1="0" x2="254.75" y1="0" y2="0" gradientUnits="userSpaceOnUse" spreadMethod="reflect"><stop offset="0" stop-color="#7f7f7f" stop-opacity="0"/><stop offset=".28" stop-color="#7f7f7f" stop-opacity=".15"/><stop offset=".68" stop-color="#7f7f7f"/><stop offset="1" stop-color="#262626"/></linearGradient><linearGradient id="at" x1="0" x2="254.75" y1="0" y2="0" gradientUnits="userSpaceOnUse" spreadMethod="reflect"><stop offset="0" stop-color="#7f7f7f" stop-opacity="0"/><stop offset=".28" stop-color="#7f7f7f" stop-opacity=".15"/><stop offset=".68" stop-color="#7f7f7f"/><stop offset="1" stop-color="#262626"/></linearGradient><linearGradient id="au" x1="0" x2="254.75" y1="0" y2="0" gradientUnits="userSpaceOnUse" spreadMethod="reflect"><stop offset="0" stop-color="#7f7f7f" stop-opacity="0"/><stop offset=".28" stop-color="#7f7f7f" stop-opacity=".15"/><stop offset=".68" stop-color="#7f7f7f"/><stop offset="1" stop-color="#262626"/></linearGradient><linearGradient id="av" x1="414" x2="561.23" y1="1702" y2="1702" gradientUnits="userSpaceOnUse" spreadMethod="reflect"><stop offset="0" stop-color="#7f7f7f" stop-opacity="0"/><stop offset=".14" stop-color="#7f7f7f" stop-opacity=".15"/><stop offset=".51" stop-color="#7f7f7f"/><stop offset="1" stop-color="#262626"/></linearGradient><linearGradient id="aw" x1="415" x2="562.23" y1="1717" y2="1717" gradientUnits="userSpaceOnUse" spreadMethod="reflect"><stop offset="0" stop-color="#7f7f7f" stop-opacity="0"/><stop offset=".14" stop-color="#7f7f7f" stop-opacity=".15"/><stop offset=".51" stop-color="#7f7f7f"/><stop offset="1" stop-color="#262626"/></linearGradient><linearGradient id="ax" x1="413" x2="560.23" y1="1731" y2="1731" gradientUnits="userSpaceOnUse" spreadMethod="reflect"><stop offset="0" stop-color="#7f7f7f" stop-opacity="0"/><stop offset=".14" stop-color="#7f7f7f" stop-opacity=".15"/><stop offset=".51" stop-color="#7f7f7f"/><stop offset="1" stop-color="#262626"/></linearGradient><linearGradient id="ay" x1="415" x2="562.23" y1="1745" y2="1745" gradientUnits="userSpaceOnUse" spreadMethod="reflect"><stop offset="0" stop-color="#7f7f7f" stop-opacity="0"/><stop offset=".14" stop-color="#7f7f7f" stop-opacity=".15"/><stop offset=".51" stop-color="#7f7f7f"/><stop offset="1" stop-color="#262626"/></linearGradient><linearGradient id="az" x1="418" x2="565.23" y1="1759" y2="1759" gradientUnits="userSpaceOnUse" spreadMethod="reflect"><stop offset="0" stop-color="#7f7f7f" stop-opacity="0"/><stop offset=".14" stop-color="#7f7f7f" stop-opacity=".15"/><stop offset=".51" stop-color="#7f7f7f"/><stop offset="1" stop-color="#262626"/></linearGradient><linearGradient id="aA" x1="422" x2="569.23" y1="1774" y2="1774" gradientUnits="userSpaceOnUse" spreadMethod="reflect"><stop offset="0" stop-color="#7f7f7f" stop-opacity="0"/><stop offset=".14" stop-color="#7f7f7f" stop-opacity=".15"/><stop offset=".51" stop-color="#7f7f7f"/><stop offset="1" stop-color="#262626"/></linearGradient><linearGradient id="aB" x1="0" x2="147.23" y1="0" y2="0" gradientUnits="userSpaceOnUse" spreadMethod="reflect"><stop offset="0" stop-color="#7f7f7f" stop-opacity="0"/><stop offset=".14" stop-color="#7f7f7f" stop-opacity=".15"/><stop offset=".51" stop-color="#7f7f7f"/><stop offset="1" stop-color="#262626"/></linearGradient><linearGradient id="aC" x1="0" x2="147.23" y1="0" y2="0" gradientUnits="userSpaceOnUse" spreadMethod="reflect"><stop offset="0" stop-color="#7f7f7f" stop-opacity="0"/><stop offset=".14" stop-color="#7f7f7f" stop-opacity=".15"/><stop offset=".51" stop-color="#7f7f7f"/><stop offset="1" stop-color="#262626"/></linearGradient><linearGradient id="aD" x1="0" x2="147.23" y1="0" y2="0" gradientUnits="userSpaceOnUse" spreadMethod="reflect"><stop offset="0" stop-color="#7f7f7f" stop-opacity="0"/><stop offset=".14" stop-color="#7f7f7f" stop-opacity=".15"/><stop offset=".51" stop-color="#7f7f7f"/><stop offset="1" stop-color="#262626"/></linearGradient><linearGradient id="aE" x1="0" x2="147.23" y1="0" y2="0" gradientUnits="userSpaceOnUse" spreadMethod="reflect"><stop offset="0" stop-color="#7f7f7f" stop-opacity="0"/><stop offset=".14" stop-color="#7f7f7f" stop-opacity=".15"/><stop offset=".51" stop-color="#7f7f7f"/><stop offset="1" stop-color="#262626"/></linearGradient><linearGradient id="aF" x1="0" x2="147.23" y1="0" y2="0" gradientUnits="userSpaceOnUse" spreadMethod="reflect"><stop offset="0" stop-color="#7f7f7f" stop-opacity="0"/><stop offset=".14" stop-color="#7f7f7f" stop-opacity=".15"/><stop offset=".51" stop-color="#7f7f7f"/><stop offset="1" stop-color="#262626"/></linearGradient><linearGradient id="aG" x1="0" x2="147.23" y1="0" y2="0" gradientUnits="userSpaceOnUse" spreadMethod="reflect"><stop offset="0" stop-color="#7f7f7f" stop-opacity="0"/><stop offset=".14" stop-color="#7f7f7f" stop-opacity=".15"/><stop offset=".51" stop-color="#7f7f7f"/><stop offset="1" stop-color="#262626"/></linearGradient><clipPath id="a"><path d="M359 416h3543v1646H359z"/></clipPath></defs><g clip-path="url(#a)" transform="translate(-359 -416)"><path fill="#bfbfbf" d="M362 416h3481v1641H362z"/><path fill="none" stroke="#767171" stroke-dasharray="5.72917 5.72917" stroke-miterlimit="8" stroke-width="5.73" d="M3815 418v1640.24M1895 419v1634.31M1942 419v1634.31M1989 419v1634.31M2036 418v1637.59M2083 416v1640.24M2129 416v1640.24M2176 416v1640.24M2223 416v1640.24M2270 416v1640.24M2317 416v1640.24M2363 416v1640.24M2410 416v1640.24M2457 416v1640.24M2504 416v1640.24M2551 416v1640.24M2597 416v1640.24M2644 416v1640.24M2691 416v1640.24M2738 416v1640.24M2785 416v1640.24M2832 416v1640.24M1755 419v1634.31M1802 418v1637.59M1849 416v1640.24M772 421v1634.31M819 421v1634.31M866 421v1634.31M912 419v1637.59M959 418v1640.24M1006 418v1640.24M1053 418v1640.24M1100 418v1640.24M1146 418v1640.24M1193 418v1640.24M1240 418v1640.24M1287 418v1640.24M1334 418v1640.24M1380 418v1640.24M1427 418v1640.24M1474 418v1640.24M1521 418v1640.24M1568 418v1640.24M1615 418v1640.24M1661 418v1640.24M1708 418v1640.24M632 421v1634.31M678 419v1637.59M725 418v1640.24M397 418v1640.24M444 418v1640.24M491 418v1640.24M538 418v1640.24M585 418v1640.24M3300 421v1634.31M3346 421v1634.31M3393 421v1634.31M3440 420v1637.59M3487 418v1640.24M3534 418v1640.24M3580 418v1640.24M3627 418v1640.24M3674 418v1640.24M3721 418v1640.24M3768 418v1640.24M3159 421v1634.31M3206 420v1637.59M3253 418v1640.24M2878 418v1640.24M2925 418v1640.24M2972 418v1640.24M3019 418v1640.24M3066 418v1640.24M3112 418v1640.24m724.79-85.24H372m3464.79 47H372m3464.79-185H372m3467.73 47H368m3475.36 47H366M3832.79 840H368m3464.79 47H368m3464.79 48H368m3468.73 47H365m3474.36 47H362m3477.36 47H362m3477.36 48H362m3477.36 47H362m3477.36 47H362m3477.36 47H362m3477.36 48H362m3477.36 47H362m3477.36 47H362m3477.36 48H362m3477.36 47H362m3477.36 47H362m3477.36 47H362m3477.35 48H362m3477.36 47H362m3477.35 47H362m3477.35 47H362M3832.79 702H368m3468.73 47H365m3474.36 48H362m3477.36-333H362m3477.35 47H362m3477.36 47H362m3477.35 47H362m3477.35 48H362"/><path fill="#c55a11" d="m686.26 1647.26 749.88-954.66-13.52-10.62-749.88 954.66Zm758.08-937.28 11.58-56.48-52.13 24.63Z"/><path fill="none" stroke="url(#b)" stroke-miterlimit="8" stroke-width="10.31" d="M3078 1721h249.59"/><path fill="none" stroke="url(#c)" stroke-miterlimit="8" stroke-width="10.31" d="M3081 1736h249.59"/><path fill="none" stroke="url(#d)" stroke-miterlimit="8" stroke-width="10.31" d="M3077 1750h249.59"/><path fill="none" stroke="url(#e)" stroke-miterlimit="8" stroke-width="10.31" d="M3081 1764h249.59"/><path fill="none" stroke="url(#f)" stroke-miterlimit="8" stroke-width="10.31" d="M3086 1778h249.59"/><path fill="none" stroke="url(#g)" stroke-miterlimit="8" stroke-width="10.31" d="M3092 1793h249.59"/><path fill="none" stroke="url(#h)" stroke-miterlimit="8" stroke-width="10.31" d="M0 0h249.6" transform="matrix(1 0 0 -1 3079 1706)"/><path fill="none" stroke="url(#i)" stroke-miterlimit="8" stroke-width="10.31" d="M0 0h249.6" transform="matrix(1 0 0 -1 3083 1692)"/><path fill="none" stroke="url(#j)" stroke-miterlimit="8" stroke-width="10.31" d="M0 0h249.6" transform="matrix(1 0 0 -1 3083 1678)"/><path fill="none" stroke="url(#k)" stroke-miterlimit="8" stroke-width="10.31" d="M0 0h249.6" transform="matrix(1 0 0 -1 3089 1664)"/><path fill="none" stroke="url(#l)" stroke-miterlimit="8" stroke-width="10.31" d="M0 0h249.6" transform="matrix(1 0 0 -1 3093 1650)"/><path fill="none" stroke="url(#m)" stroke-miterlimit="8" stroke-width="10.31" d="M0 0h249.6" transform="matrix(1 0 0 -1 3107 1635)"/><path fill="none" stroke="#0d0d0d" stroke-dasharray="20.625 6.875" stroke-linecap="square" stroke-miterlimit="8" stroke-width="6.88" d="M3401.6 1631.09c11.78 5.6 33 29.54 32.9 55.01-.09 22.23-5.82 63.9-21.12 85.57s-32.98 34.77-51.11 32.6c-14.39-1.74-25.59-10.65-31.9-37.6a185 185 0 0 1 .73-78.71c4.04-20.31 8.19-33.77 16.73-44.09 11.33-13.71 35.86-21.3 53.77-12.78Z"/><path d="m3292.15 1739.9-622.7 1.19.04 17.19 622.7-1.19Zm-614.14-16.01-51.5 25.87 51.6 25.69ZM685.5 1687.9h2585.48v17.18H685.5Zm2576.87-17.19 51.57 25.78-51.57 25.78Z"/><path fill="#c55a11" d="m1484.34 646.3 701.63 922.06-13.68 10.41-701.63-922.07Zm710.1 904.82 10.71 56.64-51.74-25.42Z"/><path d="M2464 1850.25h130.81v27.5H2464Zm117.06-27.5 82.5 41.25-82.51 41.25Z"/><path fill="none" stroke="url(#n)" stroke-miterlimit="8" stroke-width="10.31" d="M2251 1719h249.59"/><path fill="none" stroke="url(#o)" stroke-miterlimit="8" stroke-width="10.31" d="M2254 1733h249.59"/><path fill="none" stroke="url(#p)" stroke-miterlimit="8" stroke-width="10.31" d="M2262 1747h249.59"/><path fill="none" stroke="url(#q)" stroke-miterlimit="8" stroke-width="10.31" d="M2273 1762h249.59"/><path fill="none" stroke="url(#r)" stroke-miterlimit="8" stroke-width="10.31" d="M2291 1776h249.59"/><path fill="none" stroke="url(#s)" stroke-miterlimit="8" stroke-width="10.31" d="M2321 1790h249.59"/><path fill="none" stroke="url(#t)" stroke-miterlimit="8" stroke-width="10.31" d="M0 0h249.6" transform="matrix(1 0 0 -1 2252 1704)"/><path fill="none" stroke="url(#u)" stroke-miterlimit="8" stroke-width="10.31" d="M0 0h249.6" transform="matrix(1 0 0 -1 2256 1690)"/><path fill="none" stroke="url(#v)" stroke-miterlimit="8" stroke-width="10.31" d="M0 0h249.6" transform="matrix(1 0 0 -1 2263 1676)"/><path fill="none" stroke="url(#w)" stroke-miterlimit="8" stroke-width="10.31" d="M0 0h249.6" transform="matrix(1 0 0 -1 2276 1661)"/><path fill="none" stroke="url(#x)" stroke-miterlimit="8" stroke-width="10.31" d="M0 0h249.6" transform="matrix(1 0 0 -1 2294 1647)"/><path fill="none" stroke="url(#y)" stroke-miterlimit="8" stroke-width="10.31" d="M0 0h249.6" transform="matrix(1 0 0 -1 2325 1633)"/><path fill="#0d0d0d" fill-rule="evenodd" stroke="#0d0d0d" stroke-miterlimit="8" stroke-width="10.31" d="M2574.1 1628.57c11.78 5.57 33 29.37 32.9 54.69-.09 22.11-5.82 63.55-21.12 85.09s-32.98 34.58-51.11 32.42c-14.39-1.73-25.59-10.59-31.9-37.39a183 183 0 0 1 .73-78.27c4.04-20.19 8.19-33.57 16.73-43.83 11.33-13.63 35.86-21.18 53.77-12.71Z"/><path fill="#767171" d="M2464 715.25h130.81v27.5H2464Zm117.06-27.5 82.5 41.25-82.51 41.25ZM3617 1854.25h130.81v27.5H3617Zm117.06-27.5 82.5 41.25-82.51 41.25Z"/><path fill="none" stroke="url(#z)" stroke-miterlimit="8" stroke-width="10.31" d="M3403 1715h249.59"/><path fill="none" stroke="url(#A)" stroke-miterlimit="8" stroke-width="10.31" d="M3406 1729h249.59"/><path fill="none" stroke="url(#B)" stroke-miterlimit="8" stroke-width="10.31" d="M3413 1744h249.59"/><path fill="none" stroke="url(#C)" stroke-miterlimit="8" stroke-width="10.31" d="M3425 1758h249.59"/><path fill="none" stroke="url(#D)" stroke-miterlimit="8" stroke-width="10.31" d="M3443 1772h249.59"/><path fill="none" stroke="url(#E)" stroke-miterlimit="8" stroke-width="10.31" d="M3473 1786h249.59"/><path fill="none" stroke="url(#F)" stroke-miterlimit="8" stroke-width="10.31" d="M0 0h249.6" transform="matrix(1 0 0 -1 3404 1700)"/><path fill="none" stroke="url(#G)" stroke-miterlimit="8" stroke-width="10.31" d="M0 0h249.6" transform="matrix(1 0 0 -1 3407 1686)"/><path fill="none" stroke="url(#H)" stroke-miterlimit="8" stroke-width="10.31" d="M0 0h249.6" transform="matrix(1 0 0 -1 3415 1672)"/><path fill="none" stroke="url(#I)" stroke-miterlimit="8" stroke-width="10.31" d="M0 0h249.6" transform="matrix(1 0 0 -1 3427 1658)"/><path fill="none" stroke="url(#J)" stroke-miterlimit="8" stroke-width="10.31" d="M0 0h249.6" transform="matrix(1 0 0 -1 3446 1643)"/><path fill="none" stroke="url(#K)" stroke-miterlimit="8" stroke-width="10.31" d="M0 0h249.6" transform="matrix(1 0 0 -1 3477 1629)"/><path fill="#939393" fill-rule="evenodd" stroke="#0d0d0d" stroke-miterlimit="8" stroke-width="10.31" d="M3726.1 1624.57c11.78 5.57 33 29.37 32.9 54.69-.09 22.11-5.82 63.55-21.12 85.09s-32.98 34.58-51.11 32.42c-14.39-1.73-25.59-10.59-31.9-37.39a183 183 0 0 1 .73-78.27c4.04-20.19 8.19-33.57 16.73-43.83 11.33-13.63 35.86-21.18 53.77-12.71Z"/><path fill="none" stroke="url(#L)" stroke-miterlimit="8" stroke-width="10.31" d="M2263 556h249.59"/><path fill="none" stroke="url(#M)" stroke-miterlimit="8" stroke-width="10.31" d="M2266 570h249.59"/><path fill="none" stroke="url(#N)" stroke-miterlimit="8" stroke-width="10.31" d="M2273 585h249.59"/><path fill="none" stroke="url(#O)" stroke-miterlimit="8" stroke-width="10.31" d="M2285 599h249.59"/><path fill="none" stroke="url(#P)" stroke-miterlimit="8" stroke-width="10.31" d="M2303 613h249.59"/><path fill="none" stroke="url(#Q)" stroke-miterlimit="8" stroke-width="10.31" d="M2333 627h249.59"/><path fill="none" stroke="url(#R)" stroke-miterlimit="8" stroke-width="10.31" d="M0 0h249.6" transform="matrix(1 0 0 -1 2264 541)"/><path fill="none" stroke="url(#S)" stroke-miterlimit="8" stroke-width="10.31" d="M0 0h249.6" transform="matrix(1 0 0 -1 2268 527)"/><path fill="none" stroke="url(#T)" stroke-miterlimit="8" stroke-width="10.31" d="M0 0h249.6" transform="matrix(1 0 0 -1 2275 513)"/><path fill="none" stroke="url(#U)" stroke-miterlimit="8" stroke-width="10.31" d="M0 0h249.6" transform="matrix(1 0 0 -1 2287 499)"/><path fill="none" stroke="url(#V)" stroke-miterlimit="8" stroke-width="10.31" d="M0 0h249.6" transform="matrix(1 0 0 -1 2306 484)"/><path fill="none" stroke="url(#W)" stroke-miterlimit="8" stroke-width="10.31" d="M0 0h249.6" transform="matrix(1 0 0 -1 2337 470)"/><path fill="#939393" fill-rule="evenodd" stroke="#0d0d0d" stroke-miterlimit="8" stroke-width="10.31" d="M2586.1 465.59c11.78 5.6 33 29.54 32.9 55-.09 22.24-5.82 63.9-21.12 85.58s-32.98 34.77-51.11 32.6c-14.39-1.74-25.59-10.65-31.9-37.6a185 185 0 0 1 .73-78.71c4.04-20.32 8.19-33.77 16.73-44.1 11.33-13.7 35.86-21.29 53.77-12.77Z"/><path fill="none" stroke="url(#X)" stroke-miterlimit="8" stroke-width="10.31" d="M1182 547h249.59"/><path fill="none" stroke="url(#Y)" stroke-miterlimit="8" stroke-width="10.31" d="M1184 562h249.59"/><path fill="none" stroke="url(#Z)" stroke-miterlimit="8" stroke-width="10.31" d="M1181 576h249.59"/><path fill="none" stroke="url(#aa)" stroke-miterlimit="8" stroke-width="10.31" d="M1184 590h249.59"/><path fill="none" stroke="url(#ab)" stroke-miterlimit="8" stroke-width="10.31" d="M1189 604h249.59"/><path fill="none" stroke="url(#ac)" stroke-miterlimit="8" stroke-width="10.31" d="M1195 618h249.59"/><path fill="none" stroke="url(#ad)" stroke-miterlimit="8" stroke-width="10.31" d="M0 0h249.6" transform="matrix(1 0 0 -1 1182 532)"/><path fill="none" stroke="url(#ae)" stroke-miterlimit="8" stroke-width="10.31" d="M0 0h249.6" transform="matrix(1 0 0 -1 1186 518)"/><path fill="none" stroke="url(#af)" stroke-miterlimit="8" stroke-width="10.31" d="M0 0h249.6" transform="matrix(1 0 0 -1 1187 504)"/><path fill="none" stroke="url(#ag)" stroke-miterlimit="8" stroke-width="10.31" d="M0 0h249.6" transform="matrix(1 0 0 -1 1192 490)"/><path fill="none" stroke="url(#ah)" stroke-miterlimit="8" stroke-width="10.31" d="M0 0h249.6" transform="matrix(1 0 0 -1 1196 475)"/><path fill="none" stroke="url(#ai)" stroke-miterlimit="8" stroke-width="10.31" d="M0 0h249.6" transform="matrix(1 0 0 -1 1210 461)"/><path fill="none" stroke="#0d0d0d" stroke-dasharray="20.625 6.875" stroke-linecap="square" stroke-miterlimit="8" stroke-width="6.88" d="M1504.9 457.09c11.68 5.6 32.7 29.54 32.6 55-.08 22.24-5.76 63.9-20.92 85.58s-32.68 34.77-50.64 32.6c-14.26-1.74-25.36-10.65-31.6-37.6a187 187 0 0 1 .72-78.71c4-20.32 8.11-33.77 16.57-44.1 11.23-13.7 35.53-21.29 53.27-12.77Z"/><path fill="none" stroke="url(#aj)" stroke-miterlimit="8" stroke-width="10.31" d="M1921 1716h249.59"/><path fill="none" stroke="url(#ak)" stroke-miterlimit="8" stroke-width="10.31" d="M1924 1730h249.59"/><path fill="none" stroke="url(#al)" stroke-miterlimit="8" stroke-width="10.31" d="M1920 1744h249.59"/><path fill="none" stroke="url(#am)" stroke-miterlimit="8" stroke-width="10.31" d="M1924 1759h249.59"/><path fill="none" stroke="url(#an)" stroke-miterlimit="8" stroke-width="10.31" d="M1929 1773h249.59"/><path fill="none" stroke="url(#ao)" stroke-miterlimit="8" stroke-width="10.31" d="M1935 1787h249.59"/><path fill="none" stroke="url(#ap)" stroke-miterlimit="8" stroke-width="10.31" d="M0 0h249.6" transform="matrix(1 0 0 -1 1922 1701)"/><path fill="none" stroke="url(#aq)" stroke-miterlimit="8" stroke-width="10.31" d="M0 0h249.6" transform="matrix(1 0 0 -1 1926 1687)"/><path fill="none" stroke="url(#ar)" stroke-miterlimit="8" stroke-width="10.31" d="M0 0h249.6" transform="matrix(1 0 0 -1 1926 1672)"/><path fill="none" stroke="url(#as)" stroke-miterlimit="8" stroke-width="10.31" d="M0 0h249.6" transform="matrix(1 0 0 -1 1932 1658)"/><path fill="none" stroke="url(#at)" stroke-miterlimit="8" stroke-width="10.31" d="M0 0h249.6" transform="matrix(1 0 0 -1 1936 1644)"/><path fill="none" stroke="url(#au)" stroke-miterlimit="8" stroke-width="10.31" d="M0 0h249.6" transform="matrix(1 0 0 -1 1950 1630)"/><path fill="#0d0d0d" fill-opacity=".6" fill-rule="evenodd" stroke="#0d0d0d" stroke-dasharray="20.625 6.875" stroke-linecap="square" stroke-miterlimit="8" stroke-width="6.88" d="M2244.6 1626.07c11.78 5.57 33 29.37 32.9 54.69-.09 22.11-5.82 63.55-21.12 85.09s-32.98 34.58-51.11 32.42c-14.4-1.73-25.59-10.59-31.9-37.39a183 183 0 0 1 .73-78.27c4.04-20.19 8.19-33.57 16.73-43.83 11.33-13.63 35.86-21.18 53.77-12.71Z"/><path fill-rule="evenodd" d="m957.33 1769.14-61.8-11.04-18.88-14.83a3.6 3.6 0 0 0-5.5 2.07l-4.11 16.55c-14.77-12.41-37.08-20.69-62.14-21.73-35.02-1.03-66.26 24.49-69.35 59.68a65 65 0 0 0 4.12 29.67c-19.23-12.42-31.07-38.87-35.36-52.78-4.3-13.92 11.9-30.47 9.61-30.7.06-16.33-19.05-2.48-19.91 23.8-.69 46.22 38.1 84.17 84.11 84.17h36.05c5.83 0 6.8-8.57 10.3-10.35 3.49-1.78 9.1-1.44 10.64-.34s-.34 4.83-1.37 6.9c8.92 2.07 19.56 3.45 32.27 3.45h30.9c5.83 0 10.3-4.49 10.3-10.35 0-5.87-4.47-10.35-10.3-10.35h-10.3l77.24-42.09a10.3 10.3 0 0 0 5.15-7.93c0-6.56-5.15-12.42-11.67-13.8"/><path fill="#c55a11" fill-rule="evenodd" stroke="#0d0d0d" stroke-miterlimit="8" stroke-width="6.88" d="m766.76 1334.5-46.9 41.83-23.3 5.72a3.6 3.6 0 0 0-1.78 5.6l10.42 13.44c-18.87 3.97-39.17 16.44-55.49 35.52-22.49 26.92-21.83 67.24 3.82 91.35a64.6 64.6 0 0 0 25.79 15.03c-21.63 7.48-49.68.51-63.23-4.69-13.56-5.19-16.5-28.13-18.1-26.47-12.75-10.11-13.73 13.47 6.32 30.33 35.78 29.02 89.52 21.86 117.99-14.35l22.31-28.37c3.62-4.59-2.5-10.63-1.73-14.48s4.5-8.04 6.32-8.59c1.81-.54 3.57 3.25 4.55 5.33a143 143 0 0 0 22.68-23.27l19.13-24.32a10.13 10.13 0 0 0-1.73-14.48 10.13 10.13 0 0 0-14.49 1.73l-6.37 8.11 14.85-86.72c.56-3.49-.8-6.76-3.03-8.94-5.13-4.04-12.91-3.6-18.03.69Z"/><path fill="none" stroke="url(#av)" stroke-miterlimit="8" stroke-width="10.31" d="M414 1702h142.08"/><path fill="none" stroke="url(#aw)" stroke-miterlimit="8" stroke-width="10.31" d="M415 1717h142.08"/><path fill="none" stroke="url(#ax)" stroke-miterlimit="8" stroke-width="10.31" d="M413 1731h142.08"/><path fill="none" stroke="url(#ay)" stroke-miterlimit="8" stroke-width="10.31" d="M415 1745h142.08"/><path fill="none" stroke="url(#az)" stroke-miterlimit="8" stroke-width="10.31" d="M418 1759h142.08"/><path fill="none" stroke="url(#aA)" stroke-miterlimit="8" stroke-width="10.31" d="M422 1774h142.08"/><path fill="none" stroke="url(#aB)" stroke-miterlimit="8" stroke-width="10.31" d="M0 0h142.08" transform="matrix(1 0 0 -1 414 1688)"/><path fill="none" stroke="url(#aC)" stroke-miterlimit="8" stroke-width="10.31" d="M0 0h142.08" transform="matrix(1 0 0 -1 416 1673)"/><path fill="none" stroke="url(#aD)" stroke-miterlimit="8" stroke-width="10.31" d="M0 0h142.08" transform="matrix(1 0 0 -1 417 1659)"/><path fill="none" stroke="url(#aE)" stroke-miterlimit="8" stroke-width="10.31" d="M0 0h142.08" transform="matrix(1 0 0 -1 420 1645)"/><path fill="none" stroke="url(#aF)" stroke-miterlimit="8" stroke-width="10.31" d="M0 0h142.08" transform="matrix(1 0 0 -1 422 1631)"/><path fill="none" stroke="url(#aG)" stroke-miterlimit="8" stroke-width="10.31" d="M0 0h142.08" transform="matrix(1 0 0 -1 438 1616)"/><path fill="#0d0d0d" fill-opacity=".6" fill-rule="evenodd" stroke="#0d0d0d" stroke-dasharray="20.625 6.875" stroke-linecap="square" stroke-miterlimit="8" stroke-width="6.88" d="M619.9 1612.09c11.68 5.6 32.7 29.54 32.6 55.01-.08 22.23-5.76 63.9-20.92 85.57s-32.68 34.77-50.64 32.6c-14.26-1.74-25.36-10.65-31.6-37.6a187 187 0 0 1 .72-78.71c4-20.31 8.11-33.77 16.57-44.09 11.23-13.71 35.53-21.3 53.27-12.78Z"/></g></svg>