<svg xmlns="http://www.w3.org/2000/svg" xml:space="preserve" width="3487" height="1649" data-optimized="true" overflow="hidden"><defs><clipPath id="a"><path d="M302 28h3487v1649H302z"/></clipPath></defs><g clip-path="url(#a)" transform="translate(-302 -28)"><path fill="#bfbfbf" d="M305 28h3483v1640H305z"/><path fill="none" stroke="#7f7f7f" stroke-miterlimit="8" stroke-width="11.46" d="M3786.16 1584.5H307.5m3478.66 48H307.5m3478.66-186H307.5m3474.87 47H307.5m3480.5 48H307.5M3786.16 454.42 307.5 452.5m3478.66 47H307.5m3478.66 47H307.5m3474.87 47H307.5m3480.5 48H307.5m3480.5 47H307.5m3480.5 47H307.5m3480.5 47H307.5m3480.5 48H307.5m3480.5 47H307.5m3480.5 47H307.5m3480.5 47H307.5m3480.5 48H307.5m3480.5 47H307.5m3480.5 47H307.5m3480.5 47H307.5m3480.5 48H307.5m3480.5 47H307.5m3480.5 47H307.5m3480.5 47H307.5m3480.5 48H307.5m3478.66-1084H307.5m3474.87 48H307.5m3480.5 47H307.5M3788 75.5H307.5m3480.5 47H307.5m3480.5 47H307.5m3480.5 48H307.5m3480.5 47H307.5"/><path fill="none" stroke="#7f7f7f" stroke-miterlimit="8" stroke-width="6.88" d="M1860.5 31.5v1634.31m47-1634.31v1634.31m47-1634.31v1634.31m47-1636.31v1637.59m47-1638.59v1640.24m46-1640.24v1640.24m47-1640.24v1640.24m47-1640.24v1640.24m47-1640.24v1640.24m47-1640.24v1640.24m46-1640.24v1640.24m47-1640.24v1640.24m47-1640.24v1640.24m47-1640.24v1640.24m47-1640.24v1640.24m46-1640.24v1640.24m47-1640.24v1640.24m47-1640.24v1640.24m47-1640.24v1640.24m47-1640.24v1640.24m46-1640.24v1640.24M1720.5 31.5v1634.31m47-1636.31v1637.59m46-1638.59v1640.24M737.5 32.5v1634.31m47-1634.31v1634.31m47-1634.31v1634.31m46-1635.31v1637.59m47-1639.59v1640.24m47-1640.24v1640.24m47-1640.24v1640.24m47-1640.24v1640.24m46-1640.24v1640.24m47-1640.24v1640.24m47-1640.24v1640.24m47-1640.24v1640.24m47-1640.24v1640.24m46-1640.24v1640.24m47-1640.24v1640.24m47-1640.24v1640.24m47-1640.24v1640.24m47-1640.24v1640.24m46-1640.24v1640.24m47-1640.24v1640.24m47-1640.24v1640.24M596.5 32.5v1634.31m47-1635.31v1637.59m47-1639.59v1640.24M3265.5 33.5v1634.31m46-1634.31v1634.31m47-1634.31v1634.31m47-1636.31v1637.59m47-1638.59v1640.24m47-1640.24v1640.24m46-1640.24v1640.24m47-1640.24v1640.24m47-1640.24v1640.24m47-1640.24v1640.24m47-1640.24v1640.24M3124.5 33.5v1634.31m47-1636.31v1637.59m47-1638.59v1640.24M2843.5 30.5v1640.24m47-1640.24v1640.24m47-1640.24v1640.24m47-1640.24v1640.24m47-1640.24v1640.24m46-1640.24v1640.24M366.5 35.5v1634.31m46-1634.31v1634.31m47-1634.31v1634.31m47-1636.31v1637.59m47-1638.59v1640.24"/><path fill="#c55a11" d="M985.1 253.5v938.07h-17.2V253.5Zm17.18 929.47-25.78 51.57-25.78-51.57Zm-88.37 51.57V296.47h17.18v938.07Zm-17.2-929.48 25.8-51.56 25.77 51.56Z"/><path d="M2055.82 1316.09h-933.35v-17.18h933.35Zm-924.76 17.19-51.56-25.78 51.56-25.78Zm-46.56 29.63h933.35v17.18H1084.5Zm924.76-17.19 51.56 25.78-51.56 25.78Z"/><path fill-rule="evenodd" d="m1093.33 1492.88-61.8-10.95-18.88-14.7a3.6 3.6 0 0 0-5.49 2.05l-4.12 16.42c-14.76-12.31-37.08-20.52-62.14-21.55-35.02-1.02-66.26 24.28-69.35 59.16a64 64 0 0 0 4.12 29.41c-19.23-12.31-31.07-38.53-35.36-52.32s11.9-30.21 9.61-30.44c.06-16.18-19.05-2.45-19.91 23.6-.69 45.82 38.1 83.44 84.11 83.44h36.05c5.83 0 6.8-8.49 10.3-10.26s9.1-1.42 10.64-.34-.34 4.79-1.37 6.84a144 144 0 0 0 32.27 3.42h30.9c5.83 0 10.29-4.45 10.29-10.26s-4.46-10.26-10.29-10.26h-10.3l77.24-41.72a10.2 10.2 0 0 0 5.15-7.86c0-6.5-5.15-12.32-11.67-13.68"/><path fill="#c55a11" fill-rule="evenodd" stroke="#0d0d0d" stroke-miterlimit="8" stroke-width="6.88" d="m732.64 1216.17-11.04 61.8-14.83 18.88a3.6 3.6 0 0 0 2.07 5.49l16.56 4.12c-12.42 14.77-20.7 37.08-21.74 62.14-1.03 35.02 24.5 66.26 59.68 69.35a65 65 0 0 0 29.67-4.12c-12.42 19.23-38.87 31.07-52.78 35.36s-30.47-11.9-30.7-9.61c-16.33-.06-2.48 19.05 23.8 19.91 46.22.69 84.17-38.11 84.17-84.11v-36.05c0-5.83-8.57-6.81-10.35-10.3s-1.44-9.09-.34-10.64c1.09-1.54 4.83.34 6.9 1.37 2.07-8.92 3.45-19.56 3.45-32.27v-30.89c0-5.84-4.49-10.3-10.35-10.3s-10.35 4.46-10.35 10.3v10.29l-42.09-77.24a10.3 10.3 0 0 0-7.93-5.15c-6.56 0-12.42 5.15-13.8 11.67Z"/><path fill-rule="evenodd" d="M879.57 1308.03c5.57-12.54 29.37-35.14 54.7-35.03 22.1.09 63.54 6.19 85.08 22.49 21.55 16.29 34.58 35.11 32.42 54.42-1.73 15.33-10.59 27.25-37.39 33.96a172 172 0 0 1-78.26-.77c-20.2-4.3-33.58-8.72-43.84-17.81-13.63-12.07-21.18-38.18-12.71-57.26"/><path fill="#939393" fill-rule="evenodd" stroke="#0d0d0d" stroke-miterlimit="8" stroke-width="10.31" d="M2198.4 1252.59c11.68 5.6 32.7 29.54 32.6 55.01-.08 22.23-5.76 63.9-20.92 85.57s-32.68 34.77-50.64 32.6c-14.26-1.74-25.36-10.65-31.6-37.6a187 187 0 0 1 .72-78.71c4-20.31 8.11-33.77 16.57-44.09 11.23-13.71 35.53-21.3 53.27-12.78Zm-1225-1185c11.68 5.6 32.7 29.53 32.6 55-.08 22.24-5.76 63.9-20.92 85.58s-32.68 34.77-50.64 32.6c-14.26-1.74-25.36-10.65-31.6-37.6a187 187 0 0 1 .72-78.71c4-20.32 8.11-33.77 16.57-44.1 11.23-13.7 35.53-21.29 53.27-12.77Z"/></g></svg>