<svg xmlns="http://www.w3.org/2000/svg" xml:space="preserve" width="4405" height="2478" overflow="hidden"><defs><linearGradient id="b" x1="2199" x2="2199" y1="0" y2="2475" gradientUnits="userSpaceOnUse" spreadMethod="reflect"><stop offset="0" stop-color="#D9D9D9"/><stop offset=".22" stop-color="#A6A6A6"/><stop offset=".92" stop-color="#BFBFBF"/><stop offset="1" stop-color="#0D0D0D"/></linearGradient><linearGradient id="c" x1="1090" x2="1577.2" y1="1131" y2="1131" gradientUnits="userSpaceOnUse" spreadMethod="reflect"><stop offset="0" stop-color="#A6A6A6" stop-opacity="0"/><stop offset=".28" stop-color="#767171"/><stop offset=".81" stop-color="#262626"/><stop offset="1"/></linearGradient><linearGradient id="d" x1="1095" x2="1582.2" y1="1151" y2="1151" gradientUnits="userSpaceOnUse" spreadMethod="reflect"><stop offset="0" stop-color="#A6A6A6" stop-opacity="0"/><stop offset=".28" stop-color="#767171"/><stop offset=".81" stop-color="#262626"/><stop offset="1"/></linearGradient><linearGradient id="e" x1="1109" x2="1596.2" y1="1171" y2="1171" gradientUnits="userSpaceOnUse" spreadMethod="reflect"><stop offset="0" stop-color="#A6A6A6" stop-opacity="0"/><stop offset=".28" stop-color="#767171"/><stop offset=".81" stop-color="#262626"/><stop offset="1"/></linearGradient><linearGradient id="f" x1="1131" x2="1618.2" y1="1192" y2="1192" gradientUnits="userSpaceOnUse" spreadMethod="reflect"><stop offset="0" stop-color="#A6A6A6" stop-opacity="0"/><stop offset=".28" stop-color="#767171"/><stop offset=".81" stop-color="#262626"/><stop offset="1"/></linearGradient><linearGradient id="g" x1="1167" x2="1654.2" y1="1212" y2="1212" gradientUnits="userSpaceOnUse" spreadMethod="reflect"><stop offset="0" stop-color="#A6A6A6" stop-opacity="0"/><stop offset=".28" stop-color="#767171"/><stop offset=".81" stop-color="#262626"/><stop offset="1"/></linearGradient><linearGradient id="h" x1="1225" x2="1712.21" y1="1232" y2="1232" gradientUnits="userSpaceOnUse" spreadMethod="reflect"><stop offset="0" stop-color="#A6A6A6" stop-opacity="0"/><stop offset=".28" stop-color="#767171"/><stop offset=".81" stop-color="#262626"/><stop offset="1"/></linearGradient><linearGradient id="i" x1="0" x2="487.205" y1="0" y2="0" gradientUnits="userSpaceOnUse" spreadMethod="reflect"><stop offset="0" stop-color="#A6A6A6" stop-opacity="0"/><stop offset=".28" stop-color="#767171"/><stop offset=".81" stop-color="#262626"/><stop offset="1"/></linearGradient><linearGradient id="j" x1="0" x2="487.205" y1="0" y2="0" gradientUnits="userSpaceOnUse" spreadMethod="reflect"><stop offset="0" stop-color="#A6A6A6" stop-opacity="0"/><stop offset=".28" stop-color="#767171"/><stop offset=".81" stop-color="#262626"/><stop offset="1"/></linearGradient><linearGradient id="k" x1="0" x2="487.205" y1="0" y2="0" gradientUnits="userSpaceOnUse" spreadMethod="reflect"><stop offset="0" stop-color="#A6A6A6" stop-opacity="0"/><stop offset=".28" stop-color="#767171"/><stop offset=".81" stop-color="#262626"/><stop offset="1"/></linearGradient><linearGradient id="l" x1="0" x2="487.205" y1="0" y2="0" gradientUnits="userSpaceOnUse" spreadMethod="reflect"><stop offset="0" stop-color="#A6A6A6" stop-opacity="0"/><stop offset=".28" stop-color="#767171"/><stop offset=".81" stop-color="#262626"/><stop offset="1"/></linearGradient><linearGradient id="m" x1="0" x2="487.205" y1="0" y2="0" gradientUnits="userSpaceOnUse" spreadMethod="reflect"><stop offset="0" stop-color="#A6A6A6" stop-opacity="0"/><stop offset=".28" stop-color="#767171"/><stop offset=".81" stop-color="#262626"/><stop offset="1"/></linearGradient><linearGradient id="n" x1="0" x2="487.205" y1="0" y2="0" gradientUnits="userSpaceOnUse" spreadMethod="reflect"><stop offset="0" stop-color="#A6A6A6" stop-opacity="0"/><stop offset=".28" stop-color="#767171"/><stop offset=".81" stop-color="#262626"/><stop offset="1"/></linearGradient><linearGradient id="o" x1="1075" x2="1562.2" y1="1353" y2="1353" gradientUnits="userSpaceOnUse" spreadMethod="reflect"><stop offset="0" stop-color="#A6A6A6" stop-opacity="0"/><stop offset=".55" stop-color="#767171"/><stop offset=".81" stop-color="#262626"/><stop offset="1"/></linearGradient><linearGradient id="p" x1="1080" x2="1567.2" y1="1369" y2="1369" gradientUnits="userSpaceOnUse" spreadMethod="reflect"><stop offset="0" stop-color="#A6A6A6" stop-opacity="0"/><stop offset=".55" stop-color="#767171"/><stop offset=".81" stop-color="#262626"/><stop offset="1"/></linearGradient><linearGradient id="q" x1="1094" x2="1581.2" y1="1385" y2="1385" gradientUnits="userSpaceOnUse" spreadMethod="reflect"><stop offset="0" stop-color="#A6A6A6" stop-opacity="0"/><stop offset=".55" stop-color="#767171"/><stop offset=".81" stop-color="#262626"/><stop offset="1"/></linearGradient><linearGradient id="r" x1="1116" x2="1603.2" y1="1401" y2="1401" gradientUnits="userSpaceOnUse" spreadMethod="reflect"><stop offset="0" stop-color="#A6A6A6" stop-opacity="0"/><stop offset=".55" stop-color="#767171"/><stop offset=".81" stop-color="#262626"/><stop offset="1"/></linearGradient><linearGradient id="s" x1="0" x2="487.205" y1="0" y2="0" gradientUnits="userSpaceOnUse" spreadMethod="reflect"><stop offset="0" stop-color="#A6A6A6" stop-opacity="0"/><stop offset=".55" stop-color="#767171"/><stop offset=".81" stop-color="#262626"/><stop offset="1"/></linearGradient><linearGradient id="t" x1="0" x2="487.205" y1="0" y2="0" gradientUnits="userSpaceOnUse" spreadMethod="reflect"><stop offset="0" stop-color="#A6A6A6" stop-opacity="0"/><stop offset=".55" stop-color="#767171"/><stop offset=".81" stop-color="#262626"/><stop offset="1"/></linearGradient><linearGradient id="u" x1="0" x2="487.205" y1="0" y2="0" gradientUnits="userSpaceOnUse" spreadMethod="reflect"><stop offset="0" stop-color="#A6A6A6" stop-opacity="0"/><stop offset=".55" stop-color="#767171"/><stop offset=".81" stop-color="#262626"/><stop offset="1"/></linearGradient><linearGradient id="v" x1="0" x2="487.205" y1="0" y2="0" gradientUnits="userSpaceOnUse" spreadMethod="reflect"><stop offset="0" stop-color="#A6A6A6" stop-opacity="0"/><stop offset=".55" stop-color="#767171"/><stop offset=".81" stop-color="#262626"/><stop offset="1"/></linearGradient><linearGradient id="w" x1="0" x2="138.422" y1="0" y2="0" gradientUnits="userSpaceOnUse" spreadMethod="reflect"><stop offset="0" stop-color="#AFABAB" stop-opacity="0"/><stop offset=".48" stop-color="#595959"/><stop offset=".64" stop-color="#3E3E3F"/><stop offset="1"/></linearGradient><linearGradient id="x" x1="0" x2="138.422" y1="0" y2="0" gradientUnits="userSpaceOnUse" spreadMethod="reflect"><stop offset="0" stop-color="#AFABAB" stop-opacity="0"/><stop offset=".48" stop-color="#595959"/><stop offset=".64" stop-color="#3E3E3F"/><stop offset="1"/></linearGradient><linearGradient id="y" x1="0" x2="138.422" y1="0" y2="0" gradientUnits="userSpaceOnUse" spreadMethod="reflect"><stop offset="0" stop-color="#AFABAB" stop-opacity="0"/><stop offset=".48" stop-color="#595959"/><stop offset=".64" stop-color="#3E3E3F"/><stop offset="1"/></linearGradient><linearGradient id="z" x1="0" x2="138.422" y1="0" y2="0" gradientUnits="userSpaceOnUse" spreadMethod="reflect"><stop offset="0" stop-color="#AFABAB" stop-opacity="0"/><stop offset=".48" stop-color="#595959"/><stop offset=".64" stop-color="#3E3E3F"/><stop offset="1"/></linearGradient><linearGradient id="A" x1="0" x2="138.422" y1="0" y2="0" gradientUnits="userSpaceOnUse" spreadMethod="reflect"><stop offset="0" stop-color="#AFABAB" stop-opacity="0"/><stop offset=".48" stop-color="#595959"/><stop offset=".64" stop-color="#3E3E3F"/><stop offset="1"/></linearGradient><linearGradient id="B" x1="0" x2="138.422" y1="0" y2="0" gradientUnits="userSpaceOnUse" spreadMethod="reflect"><stop offset="0" stop-color="#AFABAB" stop-opacity="0"/><stop offset=".48" stop-color="#595959"/><stop offset=".64" stop-color="#3E3E3F"/><stop offset="1"/></linearGradient><linearGradient id="C" x1="0" x2="138.422" y1="0" y2="0" gradientUnits="userSpaceOnUse" spreadMethod="reflect"><stop offset="0" stop-color="#AFABAB" stop-opacity="0"/><stop offset=".48" stop-color="#595959"/><stop offset=".64" stop-color="#3E3E3F"/><stop offset="1"/></linearGradient><linearGradient id="D" x1="0" x2="138.422" y1="0" y2="0" gradientUnits="userSpaceOnUse" spreadMethod="reflect"><stop offset="0" stop-color="#AFABAB" stop-opacity="0"/><stop offset=".48" stop-color="#595959"/><stop offset=".64" stop-color="#3E3E3F"/><stop offset="1"/></linearGradient><linearGradient id="E" x1="0" x2="138.422" y1="0" y2="0" gradientUnits="userSpaceOnUse" spreadMethod="reflect"><stop offset="0" stop-color="#AFABAB" stop-opacity="0"/><stop offset=".48" stop-color="#595959"/><stop offset=".64" stop-color="#3E3E3F"/><stop offset="1"/></linearGradient><linearGradient id="F" x1="0" x2="138.422" y1="0" y2="0" gradientUnits="userSpaceOnUse" spreadMethod="reflect"><stop offset="0" stop-color="#AFABAB" stop-opacity="0"/><stop offset=".48" stop-color="#595959"/><stop offset=".64" stop-color="#3E3E3F"/><stop offset="1"/></linearGradient><linearGradient id="G" x1="0" x2="138.422" y1="0" y2="0" gradientUnits="userSpaceOnUse" spreadMethod="reflect"><stop offset="0" stop-color="#AFABAB" stop-opacity="0"/><stop offset=".48" stop-color="#595959"/><stop offset=".64" stop-color="#3E3E3F"/><stop offset="1"/></linearGradient><linearGradient id="H" x1="0" x2="138.422" y1="0" y2="0" gradientUnits="userSpaceOnUse" spreadMethod="reflect"><stop offset="0" stop-color="#AFABAB" stop-opacity="0"/><stop offset=".48" stop-color="#595959"/><stop offset=".64" stop-color="#3E3E3F"/><stop offset="1"/></linearGradient><linearGradient id="I" x1="0" x2="138.422" y1="0" y2="0" gradientUnits="userSpaceOnUse" spreadMethod="reflect"><stop offset="0" stop-color="#AFABAB" stop-opacity="0"/><stop offset=".48" stop-color="#595959"/><stop offset=".64" stop-color="#3E3E3F"/><stop offset="1"/></linearGradient><linearGradient id="J" x1="0" x2="138.422" y1="0" y2="0" gradientUnits="userSpaceOnUse" spreadMethod="reflect"><stop offset="0" stop-color="#AFABAB" stop-opacity="0"/><stop offset=".48" stop-color="#595959"/><stop offset=".64" stop-color="#3E3E3F"/><stop offset="1"/></linearGradient><linearGradient id="K" x1="0" x2="138.422" y1="0" y2="0" gradientUnits="userSpaceOnUse" spreadMethod="reflect"><stop offset="0" stop-color="#AFABAB" stop-opacity="0"/><stop offset=".48" stop-color="#595959"/><stop offset=".64" stop-color="#3E3E3F"/><stop offset="1"/></linearGradient><linearGradient id="L" x1="0" x2="138.422" y1="0" y2="0" gradientUnits="userSpaceOnUse" spreadMethod="reflect"><stop offset="0" stop-color="#AFABAB" stop-opacity="0"/><stop offset=".48" stop-color="#595959"/><stop offset=".64" stop-color="#3E3E3F"/><stop offset="1"/></linearGradient><linearGradient id="M" x1="0" x2="138.422" y1="0" y2="0" gradientUnits="userSpaceOnUse" spreadMethod="reflect"><stop offset="0" stop-color="#AFABAB" stop-opacity="0"/><stop offset=".48" stop-color="#595959"/><stop offset=".64" stop-color="#3E3E3F"/><stop offset="1"/></linearGradient><linearGradient id="N" x1="0" x2="138.422" y1="0" y2="0" gradientUnits="userSpaceOnUse" spreadMethod="reflect"><stop offset="0" stop-color="#AFABAB" stop-opacity="0"/><stop offset=".48" stop-color="#595959"/><stop offset=".64" stop-color="#3E3E3F"/><stop offset="1"/></linearGradient><linearGradient id="O" x1="0" x2="138.422" y1="0" y2="0" gradientUnits="userSpaceOnUse" spreadMethod="reflect"><stop offset="0" stop-color="#AFABAB" stop-opacity="0"/><stop offset=".48" stop-color="#595959"/><stop offset=".64" stop-color="#3E3E3F"/><stop offset="1"/></linearGradient><linearGradient id="P" x1="0" x2="138.422" y1="0" y2="0" gradientUnits="userSpaceOnUse" spreadMethod="reflect"><stop offset="0" stop-color="#AFABAB" stop-opacity="0"/><stop offset=".48" stop-color="#595959"/><stop offset=".64" stop-color="#3E3E3F"/><stop offset="1"/></linearGradient><linearGradient id="Q" x1="0" x2="138.422" y1="0" y2="0" gradientUnits="userSpaceOnUse" spreadMethod="reflect"><stop offset="0" stop-color="#AFABAB" stop-opacity="0"/><stop offset=".48" stop-color="#595959"/><stop offset=".64" stop-color="#3E3E3F"/><stop offset="1"/></linearGradient><linearGradient id="R" x1="0" x2="138.422" y1="0" y2="0" gradientUnits="userSpaceOnUse" spreadMethod="reflect"><stop offset="0" stop-color="#AFABAB" stop-opacity="0"/><stop offset=".48" stop-color="#595959"/><stop offset=".64" stop-color="#3E3E3F"/><stop offset="1"/></linearGradient><linearGradient id="S" x1="0" x2="138.422" y1="0" y2="0" gradientUnits="userSpaceOnUse" spreadMethod="reflect"><stop offset="0" stop-color="#AFABAB" stop-opacity="0"/><stop offset=".48" stop-color="#595959"/><stop offset=".64" stop-color="#3E3E3F"/><stop offset="1"/></linearGradient><linearGradient id="T" x1="0" x2="138.422" y1="0" y2="0" gradientUnits="userSpaceOnUse" spreadMethod="reflect"><stop offset="0" stop-color="#AFABAB" stop-opacity="0"/><stop offset=".48" stop-color="#595959"/><stop offset=".64" stop-color="#3E3E3F"/><stop offset="1"/></linearGradient><linearGradient id="U" x1="0" x2="138.422" y1="0" y2="0" gradientUnits="userSpaceOnUse" spreadMethod="reflect"><stop offset="0" stop-color="#AFABAB" stop-opacity="0"/><stop offset=".48" stop-color="#595959"/><stop offset=".64" stop-color="#3E3E3F"/><stop offset="1"/></linearGradient><linearGradient id="V" x1="0" x2="138.422" y1="0" y2="0" gradientUnits="userSpaceOnUse" spreadMethod="reflect"><stop offset="0" stop-color="#AFABAB" stop-opacity="0"/><stop offset=".48" stop-color="#595959"/><stop offset=".64" stop-color="#3E3E3F"/><stop offset="1"/></linearGradient><linearGradient id="W" x1="0" x2="138.422" y1="0" y2="0" gradientUnits="userSpaceOnUse" spreadMethod="reflect"><stop offset="0" stop-color="#AFABAB" stop-opacity="0"/><stop offset=".48" stop-color="#595959"/><stop offset=".64" stop-color="#3E3E3F"/><stop offset="1"/></linearGradient><clipPath id="a"><path d="M-1-3h4405v2478H-1z"/></clipPath></defs><g clip-path="url(#a)" transform="translate(1 3)"><path fill="url(#b)" d="M-1 0h4400v2475H-1z"/><path fill="none" stroke="#7F7F7F" stroke-dasharray="5.72917 5.72917" stroke-miterlimit="8" stroke-width="5.729" d="m5.72 2402.71 4393.402-32.078M6 2307.08l4393.4-32.078M6 2212.08l4393.4-32.078M6 2117.08l4393.4-32.078M6 2022.08l4393.4-32.078M6 1926.08l4393.4-32.078M6 1831.08l4393.4-32.078M6 1736.08l4393.4-32.078M6 1641.08l4393.4-32.078M6 1545.08l4393.4-32.078M6 1450.08l4393.4-32.078M6 1355.08l4393.4-32.078M6 1260.08l4393.4-32.078M6 1165.08l4393.4-32.078M6 1069.08l4393.4-32.078M6 974.078 4399.4 942M6 879.078 4399.4 847M6 783.219l4394.28-20.22M6 688.012 4399.4 676M6 592.832 4400.28 571M6 498h4394.28M6 403h4394.28M6 307h4394.28M6 212h4393.4M6 116.643 4400.28 113M2270 2456.62V9m-166 2447.62V9m-167 2446.62V8m-170 2451.53V7m-169 2455.5V6m-167 2456.5V6m-167 2456.5V6m-167 2455.5V5M924 2465.5 924.001 9M757 2465.5V9M584 2468.5 584.001 12M417 2468.5 417.001 12M249 2468.5V12M82 2468.5V12m2540 2442.62V7m-167 2447.62V7m355 2447.62V7m999 2443.62V3m-167 2447.62V3m-166 2446.62V2m-170 2451.53V1m-169 2455.5V0m-167 2456.5V0m1191 2448.62V1m-167 2447.62V1m318 2447.62V1"/><path fill="none" stroke="url(#c)" stroke-miterlimit="8" stroke-width="10.313" d="M1090 1131h482.05"/><path fill="none" stroke="url(#d)" stroke-miterlimit="8" stroke-width="10.313" d="M1095 1151h482.05"/><path fill="none" stroke="url(#e)" stroke-miterlimit="8" stroke-width="10.313" d="M1109 1171h482.05"/><path fill="none" stroke="url(#f)" stroke-miterlimit="8" stroke-width="10.313" d="M1131 1192h482.05"/><path fill="none" stroke="url(#g)" stroke-miterlimit="8" stroke-width="10.313" d="M1167 1212h482.05"/><path fill="none" stroke="url(#h)" stroke-miterlimit="8" stroke-width="10.313" d="M1225 1232h482.05"/><path fill="none" stroke="url(#i)" stroke-miterlimit="8" stroke-width="10.313" d="M0 0h482.049" transform="matrix(1 0 0 -1 1091 1109)"/><path fill="none" stroke="url(#j)" stroke-miterlimit="8" stroke-width="10.313" d="M0 0h482.049" transform="matrix(1 0 0 -1 1098 1089)"/><path fill="none" stroke="url(#k)" stroke-miterlimit="8" stroke-width="10.313" d="M0 0h482.049" transform="matrix(1 0 0 -1 1113 1068)"/><path fill="none" stroke="url(#l)" stroke-miterlimit="8" stroke-width="10.313" d="M0 0h482.049" transform="matrix(1 0 0 -1 1137 1048)"/><path fill="none" stroke="url(#m)" stroke-miterlimit="8" stroke-width="10.313" d="M0 0h482.049" transform="matrix(1 0 0 -1 1172 1028)"/><path fill="none" stroke="url(#n)" stroke-miterlimit="8" stroke-width="10.313" d="M0 0h482.049" transform="matrix(1 0 0 -1 1232 1007)"/><path fill="#3B3838" fill-rule="evenodd" d="M1567 1122c0-71.24 53.28-129 119-129s119 57.76 119 129-53.28 129-119 129-119-57.76-119-129"/><path fill="none" stroke="url(#o)" stroke-miterlimit="8" stroke-width="10.313" d="M1075 1353h482.05"/><path fill="none" stroke="url(#p)" stroke-miterlimit="8" stroke-width="10.313" d="M1080 1369h482.05"/><path fill="none" stroke="url(#q)" stroke-miterlimit="8" stroke-width="10.313" d="M1094 1385h482.05"/><path fill="none" stroke="url(#r)" stroke-miterlimit="8" stroke-width="10.313" d="M1116 1401h482.05"/><path fill="none" stroke="url(#s)" stroke-miterlimit="8" stroke-width="10.313" d="M0 0h482.048" transform="matrix(1 0 0 -1 1076 1337)"/><path fill="none" stroke="url(#t)" stroke-miterlimit="8" stroke-width="10.313" d="M0 0h482.048" transform="matrix(1 0 0 -1 1083 1321)"/><path fill="none" stroke="url(#u)" stroke-miterlimit="8" stroke-width="10.313" d="M0 0h482.048" transform="matrix(1 0 0 -1 1098 1305)"/><path fill="none" stroke="url(#v)" stroke-miterlimit="8" stroke-width="10.313" d="M0 0h482.048" transform="matrix(1 0 0 -1 1122 1289)"/><path fill-rule="evenodd" d="M1814 1427c0 43.08-34.92 78-78 78s-78-34.92-78-78 34.92-78 78-78 78 34.92 78 78m804-2c0 43.08-34.92 78-78 78s-78-34.92-78-78 34.92-78 78-78 78 34.92 78 78"/><path fill-rule="evenodd" stroke="#0D0D0D" stroke-miterlimit="8" stroke-width="10.313" d="M1560 990h793v267h-793Z"/><path fill-rule="evenodd" d="M2421.43 1044.33h71.14c21.34 0 40.32 14.2 45.06 34.32l23.71 81.65c0 1.18 1.19 1.18 1.19 2.37h-141.1zm71.14-47.33H2374v426h47.43c0-65.08 53.36-118.33 118.57-118.33s118.57 53.25 118.57 118.33c26.09 0 47.43-21.3 47.43-47.33v-118.34c0-15.38-7.11-28.4-18.97-37.86l-62.84-47.34c-8.3-5.91-14.23-15.38-16.6-24.85l-23.72-81.65c-11.86-40.23-49.8-68.63-91.3-68.63M2182 1423h-333.21c0-60.89-49.99-110.71-111.08-110.71s-111.07 49.82-111.07 110.71H1560v-155h622z"/><path fill-rule="evenodd" d="M2357 1423h-225.54c0-60.89-33.83-110.71-75.17-110.71-41.35 0-75.18 49.82-75.18 110.71H1936v-155h421z"/><path d="m1492.07 1865.445 1382.524-10.095-.042-5.73-1382.523 10.095Zm1378.013.823 27.399-13.95-27.6-13.549Zm-1378.013-54.003 1382.524-10.095-.042-5.73-1382.523 10.095Zm1378.013.823 27.399-13.95-27.6-13.549Zm-1378.013-54.003 1382.524-10.095-.042-5.73-1382.523 10.095Zm1378.013.823 27.399-13.95-27.6-13.549Zm-1378.013-54.003 1382.524-10.095-.042-5.73-1382.523 10.095Zm1378.013.823 27.399-13.95-27.6-13.549Zm-1378.013-54.003 1382.524-10.095-.042-5.73-1382.523 10.095Zm1378.013.823 27.399-13.95-27.6-13.549Zm-1378.013-54.003 1382.524-10.095-.042-5.73-1382.523 10.095Zm1378.013.823 27.399-13.95-27.6-13.549Zm-1378.013-54.003 1382.524-10.095-.042-5.73-1382.523 10.095Zm1378.013.823 27.399-13.95-27.6-13.549Zm-1378.013-54.003 1382.524-10.095-.042-5.73-1382.523 10.095Zm1378.013.823 27.399-13.95-27.6-13.549Zm-1378.013-54.003 1382.524-10.095-.042-5.73-1382.523 10.095Zm1378.013.823 27.399-13.95-27.6-13.549Zm-1378.013-54.003 1382.524-10.095-.042-5.73-1382.523 10.095Zm1378.013.823 27.399-13.95-27.6-13.549Zm-1378.013-54.003 1382.524-10.095-.042-5.73-1382.523 10.095Zm1378.013.823 27.399-13.95-27.6-13.549Zm-1378.013-54.003 1382.524-10.095-.042-5.73-1382.523 10.095Zm1378.013.823 27.399-13.95-27.6-13.549Zm-1378.013-54.003 1382.524-10.095-.042-5.73-1382.523 10.095Zm1378.013.823 27.399-13.95-27.6-13.549Zm-1378.013-54.003 1382.524-10.095-.042-5.73-1382.523 10.095Zm1378.013.823 27.399-13.95-27.6-13.549Zm-1378.013-54.003 1382.524-10.095-.042-5.73-1382.523 10.095Zm1378.013.823 27.399-13.95-27.6-13.549Zm-1378.013-54.003 1382.524-10.095-.042-5.73-1382.523 10.095Zm1378.013.823 27.399-13.95-27.6-13.549Zm-1378.013-54.003 1382.524-10.095-.042-5.73-1382.523 10.095Zm1378.013.823 27.399-13.95-27.6-13.549ZM1492.07 961.382l1382.524-10.095-.042-5.73-1382.523 10.095Zm1378.013.823 27.399-13.95-27.6-13.549ZM1492.07 908.2l1382.524-10.094-.042-5.73-1382.523 10.095Zm1378.013.824 27.399-13.95-27.6-13.549ZM1492.07 855.02l1382.524-10.094-.042-5.73-1382.523 10.095Zm1378.013.824 27.399-13.95-27.6-13.549ZM1492.07 801.84l1382.524-10.094-.042-5.73-1382.523 10.095Zm1378.013.824 27.399-13.95-27.6-13.549ZM1492.07 748.66l1382.524-10.095-.042-5.73-1382.523 10.095Zm1378.013.823 27.399-13.95-27.6-13.549ZM1492.07 695.48l1382.524-10.095-.042-5.73-1382.523 10.095Zm1378.013.823 27.399-13.95-27.6-13.549ZM1492.07 642.299l1382.524-10.095-.042-5.73-1382.523 10.095Zm1378.013.823 27.399-13.95-27.6-13.549ZM1492.07 589.119l1382.524-10.095-.042-5.73-1382.523 10.095Zm1378.013.823 27.399-13.95-27.6-13.549Z"/><path fill="none" stroke="#000" stroke-miterlimit="8" stroke-width="5.729" d="M2149 1887.87V550m-50 1337.87V550m-50 1336.87V549m-51 1340.55V549m-51 1341.72V548m-50 1342.72V548m-50 1342.72V548m-50 1342.72V548m-52 1344.72V550m-51 1342.72V550m-52 1344.72V552m-50 1342.72V552m-50 1341.72V551m713 1335.87V549m-50 1337.87V549m107 1337.87V549m300 1335.87V547m-50 1337.87V547m-50 1336.87V546m-51 1340.55V546m-51 1341.72V545m-50 1342.72V545m358 1338.87V546m-50 1337.87V546m106 1337.87V546"/><path fill="none" stroke="url(#w)" stroke-miterlimit="8" stroke-width="5.729" d="M0 0h135.558" transform="scale(1 -1)rotate(.418 81107.714 185713.657)"/><path fill="none" stroke="url(#x)" stroke-miterlimit="8" stroke-width="5.729" d="M0 0h135.558" transform="scale(1 -1)rotate(.418 88405.491 185554.161)"/><path fill="none" stroke="url(#y)" stroke-miterlimit="8" stroke-width="5.729" d="M0 0h135.558" transform="scale(1 -1)rotate(.418 95593.704 185584.075)"/><path fill="none" stroke="url(#z)" stroke-miterlimit="8" stroke-width="5.729" d="M0 0h135.558" transform="scale(1 -1)rotate(.418 102891.481 185424.578)"/><path fill="none" stroke="url(#A)" stroke-miterlimit="8" stroke-width="5.729" d="M0 0h135.558" transform="scale(1 -1)rotate(.418 110266.59 185551.053)"/><path fill="none" stroke="url(#B)" stroke-miterlimit="8" stroke-width="5.729" d="M0 0h135.558" transform="scale(1 -1)rotate(.418 117564.368 185391.557)"/><path fill="none" stroke="url(#C)" stroke-miterlimit="8" stroke-width="5.729" d="M0 0h135.558" transform="scale(1 -1)rotate(.418 124752.581 185421.47)"/><path fill="none" stroke="url(#D)" stroke-miterlimit="8" stroke-width="5.729" d="M0 0h135.558" transform="scale(1 -1)rotate(.418 132050.495 185261.974)"/><path fill="none" stroke="url(#E)" stroke-miterlimit="8" stroke-width="5.729" d="M0 0h135.558" transform="scale(1 -1)rotate(.418 139504.514 185505.949)"/><path fill="none" stroke="url(#F)" stroke-miterlimit="8" stroke-width="5.729" d="M0 0h135.558" transform="scale(1 -1)rotate(.418 146801.332 185346.456)"/><path fill="none" stroke="url(#G)" stroke-miterlimit="8" stroke-width="5.729" d="M0 0h135.558" transform="scale(1 -1)rotate(.418 153990.64 185376.365)"/><path fill="none" stroke="url(#H)" stroke-miterlimit="8" stroke-width="5.729" d="M0 0h135.558" transform="scale(1 -1)rotate(.418 161287.459 185216.873)"/><path fill="none" stroke="url(#I)" stroke-miterlimit="8" stroke-width="5.729" d="M0 0h135.558" transform="scale(1 -1)rotate(.418 168663.39 185343.345)"/><path fill="none" stroke="url(#J)" stroke-miterlimit="8" stroke-width="5.729" d="M0 0h135.558" transform="scale(1 -1)rotate(.418 175960.209 185183.852)"/><path fill="none" stroke="url(#K)" stroke-miterlimit="8" stroke-width="5.729" d="M0 0h135.558" transform="scale(1 -1)rotate(.418 183149.517 185213.761)"/><path fill="none" stroke="url(#L)" stroke-miterlimit="8" stroke-width="5.729" d="M0 0h135.558" transform="scale(1 -1)rotate(.418 190446.336 185054.269)"/><path fill="none" stroke="url(#M)" stroke-miterlimit="8" stroke-width="5.729" d="M0 0h135.558" transform="scale(1 -1)rotate(.418 183098.927 185612.509)"/><path fill="none" stroke="url(#N)" stroke-miterlimit="8" stroke-width="5.729" d="M0 0h135.558" transform="scale(1 -1)rotate(.418 190397.115 185453.011)"/><path fill="none" stroke="url(#O)" stroke-miterlimit="8" stroke-width="5.729" d="M0 0h135.558" transform="scale(1 -1)rotate(.418 197585.05 185481.556)"/><path fill="none" stroke="url(#P)" stroke-miterlimit="8" stroke-width="5.729" d="M0 0h135.558" transform="scale(1 -1)rotate(.418 204883.237 185322.058)"/><path fill="none" stroke="url(#Q)" stroke-miterlimit="8" stroke-width="5.729" d="M0 0h135.558" transform="scale(1 -1)rotate(.418 212257.804 185449.905)"/><path fill="none" stroke="url(#R)" stroke-miterlimit="8" stroke-width="5.729" d="M0 0h135.558" transform="scale(1 -1)rotate(.418 219555.992 185290.407)"/><path fill="none" stroke="url(#S)" stroke-miterlimit="8" stroke-width="5.729" d="M0 0h135.558" transform="scale(1 -1)rotate(.418 226743.926 185318.952)"/><path fill="none" stroke="url(#T)" stroke-miterlimit="8" stroke-width="5.729" d="M0 0h135.558" transform="scale(1 -1)rotate(.418 234042.114 185159.454)"/><path fill="none" stroke="url(#U)" stroke-miterlimit="8" stroke-width="5.729" d="M0 0h135.558" transform="scale(1 -1)rotate(.418 241495.179 185404.802)"/><path fill="none" stroke="url(#V)" stroke-miterlimit="8" stroke-width="5.729" d="M0 0h135.558" transform="scale(1 -1)rotate(.418 248793.367 185245.305)"/><path fill="none" stroke="url(#W)" stroke-miterlimit="8" stroke-width="5.729" d="M0 0h135.558" transform="scale(1 -1)rotate(.418 255981.3 185273.85)"/></g></svg>