<svg xmlns="http://www.w3.org/2000/svg" xml:space="preserve" width="2462" height="2465" overflow="hidden"><path d="m543.863 1566.4-3.948-1429.602 10.312-.028 3.948 1429.6ZM529.617 141.98 545 111l15.554 30.895Z"/><path d="M549 1557.84h1436.37v10.32H549Zm1431.22-10.31 30.93 15.47-30.93 15.47Z"/><path d="M971.156 1668V252.78h-10.312V1668ZM981.47 257.94 966 227l-15.468 30.94Z"/><path d="M966 1659.84h1371.22v10.32H966Zm1366.06-10.31L2363 1665l-30.94 15.47Z"/><path d="M962.298 1657.012 476.736 2340l8.405 5.975 485.561-682.987Zm-490.979 672.81L466 2364l30.533-16.252ZM966 900.25h496.72v27.5H966Zm482.97-27.5 82.5 41.25-82.5 41.25ZM544.298 1562.012 58.736 2245l8.405 5.975 485.561-682.987Zm-490.979 672.81L48 2269l30.533-16.252Z"/><path fill-rule="evenodd" d="M1306.42 999.211c2.58 0 4.44.672 5.59 2.015 1.14 1.342 1.72 3.142 1.72 5.398 0 1.718-.31 3.688-.92 5.908s-1.46 4.565-2.57 7.036-2.44 5.004-3.98 7.6a81 81 0 0 1-5.1 7.573 74 74 0 0 1-5.96 6.929c-2.12 2.166-4.31 4.055-6.58 5.666q-3.42 2.418-6.93 3.841c-2.35.949-4.68 1.423-7.01 1.423q-1.56 0-2.61-.779c-.69-.519-1.26-1.253-1.69-2.202s-.73-2.068-.91-3.357a31 31 0 0 1-.27-4.243c0-2.041.13-4.225.38-6.553q.375-3.49.96-7.036l2.26-14.878c.14-.859.26-1.674.35-2.444.09-.769.13-1.333.13-1.691q0-1.665-.54-2.74c-.35-.716-.96-1.074-1.82-1.074-.68 0-1.42.206-2.2.618-.79.412-1.59.94-2.39 1.584q-1.215.967-2.34 2.068c-.75.734-1.45 1.423-2.09 2.068l-2.58-3.008a73 73 0 0 1 3.54-3.41 33 33 0 0 1 3.98-3.062 21 21 0 0 1 4.4-2.202c1.54-.555 3.12-.833 4.73-.833q2.04 0 3.33.672 1.29.67 2.01 1.772c.49.734.82 1.54 1 2.417.17.877.26 1.746.26 2.605 0 .501-.01.985-.05 1.45-.04.466-.09.896-.16 1.289l-3.01 19.444c-.32 2.041-.59 4.037-.8 5.989q-.33 2.927-.33 5.183t.27 3.652 1.02 1.396c1.18 0 2.67-.474 4.46-1.423q2.685-1.424 5.64-3.921t5.91-5.908a51.7 51.7 0 0 0 5.32-7.385 44 44 0 0 0 3.84-8.379q1.47-4.404 1.47-8.862c0-1.289-.27-2.283-.83-2.981-.55-.699-1.42-1.048-2.6-1.048q-2.265 0-4.17 1.746c-1.27 1.164-2.58 2.694-3.94 4.592l-3.07-2.739a25 25 0 0 1 3.04-3.706c1.16-1.182 2.4-2.22 3.7-3.115a19.6 19.6 0 0 1 4.06-2.149q2.1-.806 4.08-.806"/><text x="1635.32" y="934.927" fill-opacity="0" font-family="Arial,Arial_MSFontService,sans-serif" font-size="53.389" transform="translate(-376 111)">𝑣</text><path fill-rule="evenodd" d="M540.797 55.079h28.815l.77 2.026-19.332 22.209q-5.633 6.444-9.767 10.942l.243.284h9.159q2.431 0 3.729-.264 1.297-.263 2.269-.992.974-.73 2.007-2.21 1.032-1.478 2.573-4.64h3.607l-2.472 11.389h-29.342l-.77-1.986 22.168-25.533q4.702-5.39 6.89-7.66l-.243-.283h-9.484q-2.106 0-3.08.284-.972.284-1.945.993-.972.71-2.087 2.107t-2.492 3.992h-3.607Z"/><text x="908.286" y="-22.02" fill-opacity="0" font-family="Arial,Arial_MSFontService,sans-serif" font-size="38.744" transform="translate(-376 111)">𝑧</text><path fill-rule="evenodd" d="M959.27 170.926h28.82l.77 2.026-19.33 22.209a646 646 0 0 1-9.77 10.942l.24.284h9.16c1.62 0 2.87-.088 3.73-.263s1.62-.507 2.27-.993q.975-.73 2.01-2.209c.68-.986 1.54-2.533 2.57-4.64h3.61l-2.48 11.388h-29.34l-.77-1.986 22.17-25.532c3.13-3.594 5.43-6.147 6.89-7.66l-.24-.284h-9.49c-1.4 0-2.43.095-3.08.284-.65.19-1.29.52-1.94.993s-1.35 1.175-2.09 2.107q-1.11 1.398-2.49 3.992h-3.61Zm40.49-24.803h7.58v2.31l-9.77 23.506-3.44-1.013Z"/><text x="1326.76" y="90.726" fill-opacity="0" font-family="Arial,Arial_MSFontService,sans-serif" font-size="63.547" transform="translate(-376 111)">𝑧′</text><path fill-rule="evenodd" d="M25.953 2288.31c.838 0 1.574.09 2.209.28q.952.285 1.682.87c.486.4.918.9 1.297 1.52s.743 1.47 1.094 2.54c.351 1.06.682 2.39.993 3.97q.465 2.37.831 4.92h.405c2.594-3.65 4.559-6.31 5.897-8 1.337-1.69 2.465-2.95 3.384-3.77.918-.82 1.803-1.41 2.654-1.74q1.276-.51 3.384-.51c1.27 0 2.31.16 3.121.49l-1.621 7.33h-2.837c-.162-1.13-.635-1.7-1.419-1.7q-.365 0-.77.12c-.27.08-.601.26-.993.53-.391.27-.966.8-1.722 1.58a50 50 0 0 0-2.553 2.88c-.946 1.13-1.919 2.32-2.918 3.56l-2.756 3.45q.73 3.885 1.378 6.72c.432 1.9.817 3.47 1.155 4.73.338 1.25.635 2.25.891 2.97q.385 1.095.831 1.65c.297.36.601.62.912.77.311.14.669.22 1.074.22.73 0 1.439-.28 2.128-.85s1.682-1.85 2.979-3.85l2.634 1.74q-2.837 4.215-5.127 5.94c-1.526 1.15-3.343 1.72-5.451 1.72q-1.743 0-2.958-.63c-.811-.42-1.513-1.09-2.108-2-.594-.92-1.121-2.35-1.58-4.3-.838-3.46-1.351-6.11-1.54-7.94h-.406q-4.296 6.03-6.383 8.67c-1.391 1.76-2.539 3.05-3.444 3.89-.906.84-1.784 1.43-2.635 1.76q-1.276.51-3.384.51c-1.27 0-2.31-.16-3.12-.49l1.621-7.33h2.837c.162 1.13.635 1.7 1.418 1.7q.567 0 1.196-.3c.418-.21 1.02-.69 1.803-1.46q1.175-1.155 3.242-3.63c1.378-1.65 3.378-4.12 5.998-7.42-.405-2.13-.824-4.18-1.256-6.16a119 119 0 0 0-1.337-5.51c-.46-1.7-.838-2.81-1.135-3.34s-.615-.89-.953-1.1q-.506-.3-1.276-.3-.852 0-1.54.39c-.46.25-.959.7-1.5 1.33-.54.64-1.256 1.63-2.148 2.98l-2.634-1.74q2.553-3.855 4.904-5.76c1.567-1.27 3.418-1.9 5.552-1.9"/><text x="387.161" y="2212.38" fill-opacity="0" font-family="Arial,Arial_MSFontService,sans-serif" font-size="40.081" transform="translate(-376 111)">𝑥</text><path fill-rule="evenodd" d="M448.727 2402.47c.837 0 1.574.09 2.208.28q.953.285 1.682.87c.487.39.919.9 1.297 1.52s.743 1.47 1.094 2.53c.352 1.07.683 2.4.993 3.98q.466 2.37.831 4.92h.405c2.594-3.65 4.56-6.32 5.897-8 1.338-1.69 2.466-2.95 3.384-3.77.919-.83 1.804-1.41 2.655-1.75.851-.33 1.979-.5 3.384-.5q1.905 0 3.12.48l-1.621 7.34h-2.837c-.162-1.14-.635-1.7-1.418-1.7q-.365 0-.77.12c-.27.08-.601.26-.993.53s-.966.79-1.722 1.58a54 54 0 0 0-2.554 2.87q-1.418 1.71-2.918 3.57l-2.755 3.44c.486 2.6.945 4.84 1.377 6.73s.818 3.47 1.156 4.72c.337 1.26.634 2.25.891 2.98s.534 1.28.831 1.64c.297.37.601.63.912.77.311.15.668.23 1.074.23.729 0 1.438-.29 2.127-.85.689-.57 1.682-1.86 2.979-3.85l2.634 1.74q-2.837 4.215-5.126 5.94c-1.527 1.14-3.344 1.72-5.451 1.72q-1.743 0-2.959-.63t-2.107-2.01-1.581-4.29q-1.256-5.19-1.54-7.95h-.405c-2.864 4.03-4.992 6.92-6.383 8.68-1.391 1.75-2.54 3.05-3.445 3.89s-1.783 1.42-2.634 1.76q-1.276.51-3.384.51c-1.27 0-2.31-.16-3.121-.49l1.621-7.33h2.837c.162 1.13.635 1.7 1.419 1.7.378 0 .777-.1 1.195-.31.419-.2 1.02-.69 1.804-1.46.783-.77 1.864-1.97 3.242-3.62s3.377-4.12 5.998-7.42c-.405-2.13-.824-4.19-1.256-6.16s-.878-3.81-1.338-5.51c-.459-1.7-.837-2.82-1.135-3.34-.297-.53-.614-.9-.952-1.1q-.506-.3-1.277-.3c-.567 0-1.08.13-1.54.38-.459.26-.959.7-1.499 1.34-.54.63-1.256 1.63-2.148 2.98l-2.634-1.74q2.553-3.855 4.903-5.76c1.568-1.27 3.418-1.9 5.553-1.9m38.002-24.12h7.578v2.31l-9.767 23.51-3.445-1.01Z"/><text x="809.934" y="2323.52" fill-opacity="0" font-family="Arial,Arial_MSFontService,sans-serif" font-size="64.195" transform="translate(-376 111)">𝑥′</text><path fill-rule="evenodd" d="M2045.38 1550.02c1.1 0 2.05.15 2.83.45.54.22 1.08.57 1.62 1.07s1.02 1.2 1.44 2.09.79 1.89 1.1 3 .65 2.7 1.03 4.78c.65 3.49 1.28 7.16 1.88 11.01q.915 5.775 1.56 10.71c2.63-3.78 4.85-7.48 6.67-11.1 1.83-3.62 3.14-6.77 3.93-9.44.8-2.68 1.2-4.85 1.2-6.53 0-1.27-.27-2.13-.81-2.59q-.81-.69-2.76-.81l.41-1.99h10.66l1.09 2.03c-2.05 5.62-4.84 11.63-8.35 18.03-3.46 6.27-7.41 12.51-11.87 18.73-4.27 5.91-7.82 10.2-10.66 12.84-1.97 1.81-3.88 3.11-5.72 3.89-1.45.6-3.01.9-4.66.9-.56 0-1.22-.05-1.96-.15-.75-.09-1.32-.22-1.72-.38l1.74-7.86h3.2c0 1.73.59 2.59 1.78 2.59 1.57 0 3.39-.98 5.47-2.94s4.53-4.91 7.34-8.85c-.78-4.73-1.85-10.43-3.2-17.1-1.43-7.14-2.38-11.56-2.84-13.26-.57-2.05-1.16-3.36-1.78-3.93-.38-.35-.85-.53-1.42-.53-.87 0-1.68.36-2.43 1.06-.76.7-1.69 1.92-2.8 3.65l-2.63-1.75c1.86-2.78 3.6-4.75 5.23-5.89a9.17 9.17 0 0 1 5.43-1.73"/><text x="2408.29" y="1488.95" fill-opacity="0" font-family="Arial,Arial_MSFontService,sans-serif" font-size="57.063" transform="translate(-376 111)">𝑦</text><path fill-rule="evenodd" d="M2397.51 1655.12c1.11 0 2.06.15 2.84.45.54.22 1.08.57 1.62 1.07s1.02 1.2 1.44 2.09.78 1.89 1.09 3c.32 1.11.66 2.7 1.04 4.78.65 3.49 1.27 7.16 1.88 11.01q.915 5.775 1.56 10.71c2.62-3.78 4.85-7.48 6.67-11.1s3.13-6.77 3.93-9.44c.8-2.68 1.2-4.85 1.2-6.53 0-1.27-.27-2.13-.81-2.59q-.81-.69-2.76-.81l.4-1.99h10.66l1.1 2.03c-2.06 5.62-4.84 11.63-8.35 18.03-3.46 6.27-7.42 12.51-11.88 18.73-4.26 5.91-7.82 10.2-10.65 12.84-1.98 1.81-3.88 3.11-5.72 3.89-1.46.6-3.01.9-4.66.9-.57 0-1.22-.05-1.96-.15-.75-.09-1.32-.22-1.73-.38l1.75-7.86h3.2c0 1.73.59 2.59 1.78 2.59 1.57 0 3.39-.98 5.47-2.94s4.53-4.91 7.34-8.85c-.79-4.73-1.85-10.43-3.2-17.11-1.44-7.13-2.38-11.55-2.84-13.25-.57-2.05-1.16-3.36-1.78-3.93-.38-.35-.86-.53-1.42-.53-.87 0-1.68.36-2.43 1.06-.76.7-1.69 1.92-2.8 3.65l-2.64-1.75c1.87-2.78 3.61-4.75 5.23-5.89a9.17 9.17 0 0 1 5.43-1.73m42.64-24.15h7.58v2.31l-9.77 23.51-3.44-1.02Z"/><text x="2760.42" y="1591.03" fill-opacity="0" font-family="Arial,Arial_MSFontService,sans-serif" font-size="81.217" transform="translate(-376 111)">𝑦′</text></svg>