<svg xmlns="http://www.w3.org/2000/svg" xmlns:xlink="http://www.w3.org/1999/xlink" width="465.6" height="309.12" viewBox="0 0 349.2 231.84"><defs><style>*{stroke-linejoin:round;stroke-linecap:butt}</style></defs><g id="figure_1"><g id="axes_1"><path id="patch_1" d="m174.6 64.03-2.47-7.412h2.465v-29.65h.01v29.65h2.466z" clip-path="url(#p05304e1dde)" style="stroke:#000;stroke-width:1.5;stroke-linejoin:miter"/><path id="patch_2" d="M174.6 115.92h-.005V26.967h.01v88.953z" clip-path="url(#p05304e1dde)" style="stroke:#000;stroke-width:1.5;stroke-linejoin:miter"/><path id="patch_3" d="m179.186 64.234-1.806-7.602 2.456.218 2.62-29.535h.01l-2.62 29.536 2.456.218z" clip-path="url(#p05304e1dde)" style="stroke:#000;stroke-width:1.5;stroke-linejoin:miter"/><path id="patch_4" d="M174.6 115.92h-.005l7.862-88.605h.01l-7.862 88.605z" clip-path="url(#p05304e1dde)" style="stroke:#000;stroke-width:1.5;stroke-linejoin:miter"/><path id="patch_5" d="m183.736 64.842-1.127-7.732 2.427.434 5.221-29.188.01.002-5.22 29.187 2.427.435z" clip-path="url(#p05304e1dde)" style="stroke:#000;stroke-width:1.5;stroke-linejoin:miter"/><path id="patch_6" d="M174.6 115.92h-.005l15.662-87.564.01.002-15.662 87.563z" clip-path="url(#p05304e1dde)" style="stroke:#000;stroke-width:1.5;stroke-linejoin:miter"/><path id="patch_7" d="m188.215 65.849-.44-7.801 2.38.647 7.78-28.612.01.002-7.78 28.612 2.379.647z" clip-path="url(#p05304e1dde)" style="stroke:#000;stroke-width:1.5;stroke-linejoin:miter"/><path id="patch_8" d="m174.6 115.92-.005-.001 23.34-85.836.01.002-23.34 85.836z" clip-path="url(#p05304e1dde)" style="stroke:#000;stroke-width:1.5;stroke-linejoin:miter"/><path id="patch_9" d="m192.587 67.248.252-7.81 2.313.855 10.278-27.812.01.003-10.279 27.813 2.313.854z" clip-path="url(#p05304e1dde)" style="stroke:#000;stroke-width:1.5;stroke-linejoin:miter"/><path id="patch_10" d="m174.6 115.92-.005-.002 30.835-83.437.01.003-30.835 83.438z" clip-path="url(#p05304e1dde)" style="stroke:#000;stroke-width:1.5;stroke-linejoin:miter"/><path id="patch_11" d="m196.818 69.028.941-7.757 2.229 1.056 12.696-26.795.009.004-12.696 26.796 2.228 1.055z" clip-path="url(#p05304e1dde)" style="stroke:#000;stroke-width:1.5;stroke-linejoin:miter"/><path id="patch_12" d="m174.6 115.92-.004-.002 38.088-80.386.009.004-38.089 80.386z" clip-path="url(#p05304e1dde)" style="stroke:#000;stroke-width:1.5;stroke-linejoin:miter"/><path id="patch_13" d="m200.875 71.175 1.623-7.643 2.127 1.249 15.014-25.569.009.005-15.015 25.569 2.127 1.249z" clip-path="url(#p05304e1dde)" style="stroke:#000;stroke-width:1.5;stroke-linejoin:miter"/><path id="patch_14" d="m174.6 115.92-.004-.003 45.043-76.705.009.005-45.044 76.706z" clip-path="url(#p05304e1dde)" style="stroke:#000;stroke-width:1.5;stroke-linejoin:miter"/><path id="patch_15" d="m204.727 73.673 2.292-7.47 2.008 1.432 17.216-24.142.008.006-17.216 24.141 2.008 1.432z" clip-path="url(#p05304e1dde)" style="stroke:#000;stroke-width:1.5;stroke-linejoin:miter"/><path id="patch_16" d="m174.6 115.92-.004-.003 51.647-72.424.008.006-51.647 72.424z" clip-path="url(#p05304e1dde)" style="stroke:#000;stroke-width:1.5;stroke-linejoin:miter"/><path id="patch_17" d="m208.343 76.5 2.943-7.237 1.874 1.603 19.282-22.525.007.006-19.282 22.526 1.874 1.603z" clip-path="url(#p05304e1dde)" style="stroke:#000;stroke-width:1.5;stroke-linejoin:miter"/><path id="patch_18" d="m174.6 115.92-.004-.003 57.846-67.576.007.006-57.845 67.576z" clip-path="url(#p05304e1dde)" style="stroke:#000;stroke-width:1.5;stroke-linejoin:miter"/><path id="patch_19" d="m211.695 79.637 3.572-6.95 1.724 1.763 21.197-20.733.007.008-21.197 20.733 1.724 1.762z" clip-path="url(#p05304e1dde)" style="stroke:#000;stroke-width:1.5;stroke-linejoin:miter"/><path id="patch_20" d="m174.6 115.92-.003-.004 63.591-62.199.007.008-63.592 62.199z" clip-path="url(#p05304e1dde)" style="stroke:#000;stroke-width:1.5;stroke-linejoin:miter"/><path id="patch_21" d="m214.757 83.058 4.171-6.607 1.562 1.908 22.947-18.778.006.007-22.947 18.779 1.562 1.908z" clip-path="url(#p05304e1dde)" style="stroke:#000;stroke-width:1.5;stroke-linejoin:miter"/><path id="patch_22" d="m174.6 115.92-.003-.004 68.84-56.335.006.007-68.84 56.336z" clip-path="url(#p05304e1dde)" style="stroke:#000;stroke-width:1.5;stroke-linejoin:miter"/><path id="patch_23" d="m217.504 86.735 4.74-6.212 1.386 2.04 24.517-16.678.005.008-24.516 16.677 1.387 2.04z" clip-path="url(#p05304e1dde)" style="stroke:#000;stroke-width:1.5;stroke-linejoin:miter"/><path id="patch_24" d="m174.6 115.92-.003-.004 73.55-50.03.005.007-73.55 50.031z" clip-path="url(#p05304e1dde)" style="stroke:#000;stroke-width:1.5;stroke-linejoin:miter"/><path id="patch_25" d="m219.915 90.641 5.27-5.769 1.201 2.154 25.895-14.445.005.009-25.895 14.445 1.202 2.153z" clip-path="url(#p05304e1dde)" style="stroke:#000;stroke-width:1.5;stroke-linejoin:miter"/><path id="patch_26" d="m174.6 115.92-.002-.004L252.28 72.58l.005.009-77.684 43.334z" clip-path="url(#p05304e1dde)" style="stroke:#000;stroke-width:1.5;stroke-linejoin:miter"/><path id="patch_27" d="m221.972 94.745 5.76-5.28 1.005 2.25 27.07-12.099.004.01-27.07 12.099 1.007 2.251z" clip-path="url(#p05304e1dde)" style="stroke:#000;stroke-width:1.5;stroke-linejoin:miter"/><path id="patch_28" d="m174.6 115.92-.002-.005 81.21-36.299.003.01-81.209 36.299z" clip-path="url(#p05304e1dde)" style="stroke:#000;stroke-width:1.5;stroke-linejoin:miter"/><path id="patch_29" d="m223.658 99.015 6.203-4.751.804 2.331 28.033-9.66.003.01-28.033 9.66.803 2.331z" clip-path="url(#p05304e1dde)" style="stroke:#000;stroke-width:1.5;stroke-linejoin:miter"/><path id="patch_30" d="m174.6 115.92-.002-.005 84.1-28.98.003.01-84.1 28.98z" clip-path="url(#p05304e1dde)" style="stroke:#000;stroke-width:1.5;stroke-linejoin:miter"/><path id="patch_31" d="m224.96 103.417 6.6-4.184.593 2.393 28.778-7.145.002.01-28.777 7.145.594 2.393z" clip-path="url(#p05304e1dde)" style="stroke:#000;stroke-width:1.5;stroke-linejoin:miter"/><path id="patch_32" d="m174.6 115.92-.001-.005 86.332-21.434.002.01-86.332 21.434z" clip-path="url(#p05304e1dde)" style="stroke:#000;stroke-width:1.5;stroke-linejoin:miter"/><path id="patch_33" d="m225.868 107.917 6.943-3.585.38 2.436 29.297-4.573.001.01-29.296 4.573.38 2.437z" clip-path="url(#p05304e1dde)" style="stroke:#000;stroke-width:1.5;stroke-linejoin:miter"/><path id="patch_34" d="M174.6 115.92v-.005l87.888-13.72.001.01-87.888 13.72z" clip-path="url(#p05304e1dde)" style="stroke:#000;stroke-width:1.5;stroke-linejoin:miter"/><path id="patch_35" d="m226.375 112.48 7.232-2.958.164 2.46 29.586-1.966v.01l-29.585 1.966.163 2.461z" clip-path="url(#p05304e1dde)" style="stroke:#000;stroke-width:1.5;stroke-linejoin:miter"/><path id="patch_36" d="M174.6 115.92v-.005l88.757-5.899v.01l-88.757 5.899z" clip-path="url(#p05304e1dde)" style="stroke:#000;stroke-width:1.5;stroke-linejoin:miter"/><path id="patch_37" d="m226.476 117.068 7.466-2.306-.055 2.466 29.644.656v.01l-29.644-.657-.054 2.466z" clip-path="url(#p05304e1dde)" style="stroke:#000;stroke-width:1.5;stroke-linejoin:miter"/><path id="patch_38" d="M174.6 115.92v-.005l88.931 1.969v.01l-88.931-1.97z" clip-path="url(#p05304e1dde)" style="stroke:#000;stroke-width:1.5;stroke-linejoin:miter"/><path id="patch_39" d="m226.172 121.649 7.64-1.638-.272 2.451 29.47 3.274-.002.01-29.47-3.274-.272 2.451z" clip-path="url(#p05304e1dde)" style="stroke:#000;stroke-width:1.5;stroke-linejoin:miter"/><path id="patch_40" d="M174.6 115.92v-.005l88.41 9.82-.002.01-88.409-9.82z" clip-path="url(#p05304e1dde)" style="stroke:#000;stroke-width:1.5;stroke-linejoin:miter"/><path id="patch_41" d="m225.464 126.184 7.755-.956-.488 2.418 29.065 5.865-.002.01-29.065-5.866-.488 2.418z" clip-path="url(#p05304e1dde)" style="stroke:#000;stroke-width:1.5;stroke-linejoin:miter"/><path id="patch_42" d="m174.6 115.92.001-.005 87.195 17.596-.002.01-87.195-17.596z" clip-path="url(#p05304e1dde)" style="stroke:#000;stroke-width:1.5;stroke-linejoin:miter"/><path id="patch_43" d="m224.358 130.64 7.809-.267-.7 2.364 28.433 8.412-.003.009-28.433-8.411-.7 2.365z" clip-path="url(#p05304e1dde)" style="stroke:#000;stroke-width:1.5;stroke-linejoin:miter"/><path id="patch_44" d="m174.6 115.92.001-.005 85.3 25.234-.004.009-85.298-25.233z" clip-path="url(#p05304e1dde)" style="stroke:#000;stroke-width:1.5;stroke-linejoin:miter"/><path id="patch_45" d="m222.862 134.98 7.802.424-.906 2.294 27.579 10.89-.004.01-27.578-10.891-.906 2.293z" clip-path="url(#p05304e1dde)" style="stroke:#000;stroke-width:1.5;stroke-linejoin:miter"/><path id="patch_46" d="m174.6 115.92.002-.005 82.735 32.674-.004.009-82.735-32.673z" clip-path="url(#p05304e1dde)" style="stroke:#000;stroke-width:1.5;stroke-linejoin:miter"/><path id="patch_47" d="m220.989 139.17 7.734 1.113-1.105 2.204 26.508 13.286-.005.009-26.508-13.286-1.105 2.205z" clip-path="url(#p05304e1dde)" style="stroke:#000;stroke-width:1.5;stroke-linejoin:miter"/><path id="patch_48" d="m174.6 115.92.002-.004 79.524 39.857-.005.009-79.523-39.858z" clip-path="url(#p05304e1dde)" style="stroke:#000;stroke-width:1.5;stroke-linejoin:miter"/><path id="patch_49" d="m218.752 143.179 7.606 1.792-1.296 2.098 25.23 15.577-.005.008-25.23-15.577-1.295 2.099z" clip-path="url(#p05304e1dde)" style="stroke:#000;stroke-width:1.5;stroke-linejoin:miter"/><path id="patch_50" d="m174.6 115.92.003-.004 75.69 46.73-.006.008-75.69-46.73z" clip-path="url(#p05304e1dde)" style="stroke:#000;stroke-width:1.5;stroke-linejoin:miter"/><path id="patch_51" d="m216.17 146.975 7.418 2.456-1.476 1.976 23.754 17.745-.005.008-23.755-17.745-1.476 1.975z" clip-path="url(#p05304e1dde)" style="stroke:#000;stroke-width:1.5;stroke-linejoin:miter"/><path id="patch_52" d="m174.6 115.92.003-.004 71.263 53.236-.005.008-71.264-53.236z" clip-path="url(#p05304e1dde)" style="stroke:#000;stroke-width:1.5;stroke-linejoin:miter"/><path id="patch_53" d="m213.263 150.527 7.171 3.103-1.644 1.837 22.093 19.776-.007.007-22.093-19.775-1.645 1.837z" clip-path="url(#p05304e1dde)" style="stroke:#000;stroke-width:1.5;stroke-linejoin:miter"/><path id="patch_54" d="m174.6 115.92.003-.004 66.28 59.327-.007.007-66.28-59.326z" clip-path="url(#p05304e1dde)" style="stroke:#000;stroke-width:1.5;stroke-linejoin:miter"/><path id="patch_55" d="m210.053 153.809 6.87 3.724-1.801 1.685 20.259 21.65-.008.007-20.259-21.65-1.8 1.684z" clip-path="url(#p05304e1dde)" style="stroke:#000;stroke-width:1.5;stroke-linejoin:miter"/><path id="patch_56" d="m174.6 115.92.004-.003 60.777 64.951-.008.007-60.777-64.952z" clip-path="url(#p05304e1dde)" style="stroke:#000;stroke-width:1.5;stroke-linejoin:miter"/><path id="patch_57" d="m206.566 156.794 6.513 4.317-1.943 1.519 18.267 23.356-.008.006-18.266-23.356-1.943 1.519z" clip-path="url(#p05304e1dde)" style="stroke:#000;stroke-width:1.5;stroke-linejoin:miter"/><path id="patch_58" d="m174.6 115.92.004-.003 54.799 70.07-.008.005-54.799-70.069z" clip-path="url(#p05304e1dde)" style="stroke:#000;stroke-width:1.5;stroke-linejoin:miter"/><path id="patch_59" d="m202.828 159.459 6.106 4.875-2.069 1.342 16.13 24.88-.007.005-16.131-24.88-2.07 1.342z" clip-path="url(#p05304e1dde)" style="stroke:#000;stroke-width:1.5;stroke-linejoin:miter"/><path id="patch_60" d="m174.6 115.92.004-.003 48.392 74.638-.008.006-48.392-74.638z" clip-path="url(#p05304e1dde)" style="stroke:#000;stroke-width:1.5;stroke-linejoin:miter"/><path id="patch_61" d="m198.87 161.783 5.651 5.396-2.18 1.154 13.87 26.207-.01.005-13.868-26.208-2.18 1.154z" clip-path="url(#p05304e1dde)" style="stroke:#000;stroke-width:1.5;stroke-linejoin:miter"/><path id="patch_62" d="m174.6 115.92.004-.002 41.606 78.622-.008.005-41.606-78.623z" clip-path="url(#p05304e1dde)" style="stroke:#000;stroke-width:1.5;stroke-linejoin:miter"/><path id="patch_63" d="m194.722 163.749 5.152 5.874-2.273.957 11.498 27.33-.01.004-11.497-27.33-2.273.956z" clip-path="url(#p05304e1dde)" style="stroke:#000;stroke-width:1.5;stroke-linejoin:miter"/><path id="patch_64" d="m174.6 115.92.005-.002 34.494 81.992-.01.004-34.494-81.992z" clip-path="url(#p05304e1dde)" style="stroke:#000;stroke-width:1.5;stroke-linejoin:miter"/><path id="patch_65" d="m190.416 165.34 4.613 6.307-2.349.751 9.038 28.24-.01.003-9.037-28.24-2.349.752z" clip-path="url(#p05304e1dde)" style="stroke:#000;stroke-width:1.5;stroke-linejoin:miter"/><path id="patch_66" d="m174.6 115.92.005-.002 27.113 84.72-.01.003-27.113-84.72z" clip-path="url(#p05304e1dde)" style="stroke:#000;stroke-width:1.5;stroke-linejoin:miter"/><path id="patch_67" d="m185.986 166.544 4.038 6.69-2.406.541 6.506 28.929-.01.002-6.506-28.928-2.406.54z" clip-path="url(#p05304e1dde)" style="stroke:#000;stroke-width:1.5;stroke-linejoin:miter"/><path id="patch_68" d="m174.6 115.92.005-.001 19.52 86.785-.01.002-19.52-86.785z" clip-path="url(#p05304e1dde)" style="stroke:#000;stroke-width:1.5;stroke-linejoin:miter"/><path id="patch_69" d="m181.468 167.353 3.43 7.02-2.444.326 3.924 29.39-.01.002-3.924-29.39-2.444.326z" clip-path="url(#p05304e1dde)" style="stroke:#000;stroke-width:1.5;stroke-linejoin:miter"/><path id="patch_70" d="M174.6 115.92h.005l11.773 88.17h-.01l-11.773-88.17z" clip-path="url(#p05304e1dde)" style="stroke:#000;stroke-width:1.5;stroke-linejoin:miter"/><path id="patch_71" d="m176.895 167.758 2.797 7.296-2.464.11 1.312 29.621h-.01l-1.312-29.621-2.463.11z" clip-path="url(#p05304e1dde)" style="stroke:#000;stroke-width:1.5;stroke-linejoin:miter"/><path id="patch_72" d="M174.6 115.92h.005l3.935 88.865h-.01l-3.935-88.865z" clip-path="url(#p05304e1dde)" style="stroke:#000;stroke-width:1.5;stroke-linejoin:miter"/><path id="patch_73" d="m172.305 167.758 2.14 7.515-2.463-.109-1.312 29.622h-.01l1.312-29.622-2.464-.11z" clip-path="url(#p05304e1dde)" style="stroke:#000;stroke-width:1.5;stroke-linejoin:miter"/><path id="patch_74" d="M174.6 115.92h.005l-3.935 88.866h-.01l3.935-88.866z" clip-path="url(#p05304e1dde)" style="stroke:#000;stroke-width:1.5;stroke-linejoin:miter"/><path id="patch_75" d="m167.732 167.353 1.468 7.674-2.444-.326-3.924 29.39-.01-.001 3.924-29.39-2.444-.327z" clip-path="url(#p05304e1dde)" style="stroke:#000;stroke-width:1.5;stroke-linejoin:miter"/><path id="patch_76" d="M174.6 115.92h.005l-11.773 88.17h-.01l11.773-88.17z" clip-path="url(#p05304e1dde)" style="stroke:#000;stroke-width:1.5;stroke-linejoin:miter"/><path id="patch_77" d="m163.214 166.544.784 7.775-2.406-.541-6.507 28.928-.01-.002 6.507-28.929-2.406-.54z" clip-path="url(#p05304e1dde)" style="stroke:#000;stroke-width:1.5;stroke-linejoin:miter"/><path id="patch_78" d="m174.6 115.92.005.001-19.52 86.785-.01-.002 19.52-86.785z" clip-path="url(#p05304e1dde)" style="stroke:#000;stroke-width:1.5;stroke-linejoin:miter"/><path id="patch_79" d="m158.784 165.34.094 7.813-2.349-.752-9.037 28.24-.01-.003 9.038-28.24-2.349-.751z" clip-path="url(#p05304e1dde)" style="stroke:#000;stroke-width:1.5;stroke-linejoin:miter"/><path id="patch_80" d="m174.6 115.92.005.002-27.113 84.72-.01-.004 27.113-84.72z" clip-path="url(#p05304e1dde)" style="stroke:#000;stroke-width:1.5;stroke-linejoin:miter"/><path id="patch_81" d="m154.478 163.749-.597 7.79-2.273-.956-11.498 27.331-.009-.004 11.498-27.33-2.273-.957z" clip-path="url(#p05304e1dde)" style="stroke:#000;stroke-width:1.5;stroke-linejoin:miter"/><path id="patch_82" d="m174.6 115.92.005.002-34.495 81.992-.009-.004 34.494-81.992z" clip-path="url(#p05304e1dde)" style="stroke:#000;stroke-width:1.5;stroke-linejoin:miter"/><path id="patch_83" d="m150.33 161.783-1.283 7.708-2.18-1.154-13.869 26.208-.008-.005 13.868-26.207-2.18-1.154z" clip-path="url(#p05304e1dde)" style="stroke:#000;stroke-width:1.5;stroke-linejoin:miter"/><path id="patch_84" d="m174.6 115.92.004.002-41.606 78.623-.008-.005 41.606-78.622z" clip-path="url(#p05304e1dde)" style="stroke:#000;stroke-width:1.5;stroke-linejoin:miter"/><path id="patch_85" d="m146.372 159.459-1.96 7.564-2.069-1.342-16.13 24.88-.009-.006 16.13-24.879-2.068-1.342z" clip-path="url(#p05304e1dde)" style="stroke:#000;stroke-width:1.5;stroke-linejoin:miter"/><path id="patch_86" d="m174.6 115.92.004.003-48.392 74.638-.008-.006 48.392-74.638z" clip-path="url(#p05304e1dde)" style="stroke:#000;stroke-width:1.5;stroke-linejoin:miter"/><path id="patch_87" d="m142.634 156.794-2.62 7.36-1.943-1.518-18.266 23.356-.008-.006 18.267-23.356-1.943-1.52z" clip-path="url(#p05304e1dde)" style="stroke:#000;stroke-width:1.5;stroke-linejoin:miter"/><path id="patch_88" d="m174.6 115.92.004.003-54.799 70.07-.008-.007 54.8-70.069z" clip-path="url(#p05304e1dde)" style="stroke:#000;stroke-width:1.5;stroke-linejoin:miter"/><path id="patch_89" d="m139.147 153.809-3.26 7.1-1.801-1.684-20.26 21.65-.007-.007 20.26-21.65-1.801-1.685z" clip-path="url(#p05304e1dde)" style="stroke:#000;stroke-width:1.5;stroke-linejoin:miter"/><path id="patch_90" d="m174.6 115.92.004.003-60.777 64.952-.008-.007 60.777-64.951z" clip-path="url(#p05304e1dde)" style="stroke:#000;stroke-width:1.5;stroke-linejoin:miter"/><path id="patch_91" d="m135.937 150.527-3.875 6.785-1.645-1.837-22.093 19.775-.007-.007 22.093-19.776-1.644-1.837z" clip-path="url(#p05304e1dde)" style="stroke:#000;stroke-width:1.5;stroke-linejoin:miter"/><path id="patch_92" d="m174.6 115.92.003.004-66.28 59.326-.006-.007 66.28-59.327z" clip-path="url(#p05304e1dde)" style="stroke:#000;stroke-width:1.5;stroke-linejoin:miter"/><path id="patch_93" d="m133.03 146.975-4.46 6.415-1.476-1.975-23.755 17.745-.005-.008 23.754-17.745-1.476-1.976z" clip-path="url(#p05304e1dde)" style="stroke:#000;stroke-width:1.5;stroke-linejoin:miter"/><path id="patch_94" d="m174.6 115.92.003.004-71.264 53.236-.005-.008 71.263-53.236z" clip-path="url(#p05304e1dde)" style="stroke:#000;stroke-width:1.5;stroke-linejoin:miter"/><path id="patch_95" d="m130.448 143.179-5.01 5.997-1.295-2.099-25.23 15.577-.005-.008 25.23-15.577-1.296-2.098z" clip-path="url(#p05304e1dde)" style="stroke:#000;stroke-width:1.5;stroke-linejoin:miter"/><path id="patch_96" d="m174.6 115.92.003.004-75.69 46.73-.005-.008 75.69-46.73z" clip-path="url(#p05304e1dde)" style="stroke:#000;stroke-width:1.5;stroke-linejoin:miter"/><path id="patch_97" d="m128.211 139.17-5.52 5.53-1.104-2.204-26.508 13.286-.005-.009 26.508-13.286-1.105-2.204z" clip-path="url(#p05304e1dde)" style="stroke:#000;stroke-width:1.5;stroke-linejoin:miter"/><path id="patch_98" d="m174.6 115.92.002.004-79.523 39.858-.005-.009 79.524-39.857z" clip-path="url(#p05304e1dde)" style="stroke:#000;stroke-width:1.5;stroke-linejoin:miter"/><path id="patch_99" d="m126.338 134.98-5.987 5.02-.906-2.293-27.578 10.89-.004-.008 27.579-10.891-.906-2.294z" clip-path="url(#p05304e1dde)" style="stroke:#000;stroke-width:1.5;stroke-linejoin:miter"/><path id="patch_100" d="m174.6 115.92.002.005-82.735 32.673-.004-.01 82.735-32.673z" clip-path="url(#p05304e1dde)" style="stroke:#000;stroke-width:1.5;stroke-linejoin:miter"/><path id="patch_101" d="m124.842 130.64-6.407 4.472-.7-2.365-28.432 8.411-.003-.01 28.433-8.41-.7-2.365z" clip-path="url(#p05304e1dde)" style="stroke:#000;stroke-width:1.5;stroke-linejoin:miter"/><path id="patch_102" d="m174.6 115.92.001.005-85.298 25.233-.003-.01 85.299-25.233z" clip-path="url(#p05304e1dde)" style="stroke:#000;stroke-width:1.5;stroke-linejoin:miter"/><path id="patch_103" d="m123.736 126.184-6.777 3.889-.488-2.418-29.065 5.866-.002-.01 29.065-5.865-.488-2.418z" clip-path="url(#p05304e1dde)" style="stroke:#000;stroke-width:1.5;stroke-linejoin:miter"/><path id="patch_104" d="m174.6 115.92.001.005-87.195 17.596-.002-.01 87.195-17.596z" clip-path="url(#p05304e1dde)" style="stroke:#000;stroke-width:1.5;stroke-linejoin:miter"/><path id="patch_105" d="m123.028 121.649-7.094 3.274-.273-2.45-29.47 3.273v-.01l29.47-3.274-.273-2.45z" clip-path="url(#p05304e1dde)" style="stroke:#000;stroke-width:1.5;stroke-linejoin:miter"/><path id="patch_106" d="M174.6 115.92v.005l-88.408 9.82-.001-.01 88.408-9.82z" clip-path="url(#p05304e1dde)" style="stroke:#000;stroke-width:1.5;stroke-linejoin:miter"/><path id="patch_107" d="m122.724 117.068-7.357 2.635-.054-2.466-29.644.657v-.01l29.644-.656-.055-2.466z" clip-path="url(#p05304e1dde)" style="stroke:#000;stroke-width:1.5;stroke-linejoin:miter"/><path id="patch_108" d="M174.6 115.92v.005l-88.93 1.969-.001-.01 88.93-1.969z" clip-path="url(#p05304e1dde)" style="stroke:#000;stroke-width:1.5;stroke-linejoin:miter"/><path id="patch_109" d="m122.825 112.48-7.56 1.973.163-2.46-29.585-1.967v-.01l29.586 1.967.164-2.461z" clip-path="url(#p05304e1dde)" style="stroke:#000;stroke-width:1.5;stroke-linejoin:miter"/><path id="patch_110" d="M174.6 115.92v.005l-88.757-5.899v-.01l88.757 5.9z" clip-path="url(#p05304e1dde)" style="stroke:#000;stroke-width:1.5;stroke-linejoin:miter"/><path id="patch_111" d="m123.332 107.917-7.705 1.298.38-2.437-29.296-4.573.001-.01 29.297 4.573.38-2.436z" clip-path="url(#p05304e1dde)" style="stroke:#000;stroke-width:1.5;stroke-linejoin:miter"/><path id="patch_112" d="M174.6 115.92v.005l-87.889-13.72.001-.01 87.889 13.72z" clip-path="url(#p05304e1dde)" style="stroke:#000;stroke-width:1.5;stroke-linejoin:miter"/><path id="patch_113" d="m124.24 103.417-7.79.612.594-2.393-28.777-7.145.002-.01 28.778 7.145.594-2.393z" clip-path="url(#p05304e1dde)" style="stroke:#000;stroke-width:1.5;stroke-linejoin:miter"/><path id="patch_114" d="m174.6 115.92-.001.005L88.267 94.49l.002-.01 86.332 21.434z" clip-path="url(#p05304e1dde)" style="stroke:#000;stroke-width:1.5;stroke-linejoin:miter"/><path id="patch_115" d="m125.542 99.015-7.813-.079.803-2.331-28.033-9.66.003-.01 28.033 9.66.804-2.331z" clip-path="url(#p05304e1dde)" style="stroke:#000;stroke-width:1.5;stroke-linejoin:miter"/><path id="patch_116" d="m174.6 115.92-.002.005-84.1-28.98.004-.01 84.1 28.98z" clip-path="url(#p05304e1dde)" style="stroke:#000;stroke-width:1.5;stroke-linejoin:miter"/><path id="patch_117" d="m127.228 94.745-7.776-.769 1.006-2.251-27.07-12.1.005-.009 27.07 12.1 1.006-2.251z" clip-path="url(#p05304e1dde)" style="stroke:#000;stroke-width:1.5;stroke-linejoin:miter"/><path id="patch_118" d="m174.6 115.92-.002.005-81.21-36.3.005-.009 81.209 36.3z" clip-path="url(#p05304e1dde)" style="stroke:#000;stroke-width:1.5;stroke-linejoin:miter"/><path id="patch_119" d="m129.285 90.641-7.678-1.453 1.202-2.153L96.914 72.59l.005-.009 25.895 14.445 1.2-2.154z" clip-path="url(#p05304e1dde)" style="stroke:#000;stroke-width:1.5;stroke-linejoin:miter"/><path id="patch_120" d="m174.6 115.92-.002.004L96.914 72.59l.005-.009 77.683 43.335z" clip-path="url(#p05304e1dde)" style="stroke:#000;stroke-width:1.5;stroke-linejoin:miter"/><path id="patch_121" d="m131.696 86.735-7.519-2.126 1.387-2.039-24.516-16.677.005-.008 24.517 16.677 1.387-2.039z" clip-path="url(#p05304e1dde)" style="stroke:#000;stroke-width:1.5;stroke-linejoin:miter"/><path id="patch_122" d="m174.6 115.92-.003.004-73.55-50.03.006-.009 73.55 50.03z" clip-path="url(#p05304e1dde)" style="stroke:#000;stroke-width:1.5;stroke-linejoin:miter"/><path id="patch_123" d="m134.443 83.058-7.301-2.783 1.562-1.908-22.947-18.779.006-.007 22.947 18.778 1.562-1.908z" clip-path="url(#p05304e1dde)" style="stroke:#000;stroke-width:1.5;stroke-linejoin:miter"/><path id="patch_124" d="m174.6 115.92-.003.004-68.84-56.336.006-.007 68.84 56.335z" clip-path="url(#p05304e1dde)" style="stroke:#000;stroke-width:1.5;stroke-linejoin:miter"/><path id="patch_125" d="m137.505 79.637-7.027-3.417 1.724-1.762-21.197-20.733.007-.008 21.197 20.733 1.724-1.762z" clip-path="url(#p05304e1dde)" style="stroke:#000;stroke-width:1.5;stroke-linejoin:miter"/><path id="patch_126" d="m174.6 115.92-.003.004-63.592-62.2.007-.007 63.591 62.2z" clip-path="url(#p05304e1dde)" style="stroke:#000;stroke-width:1.5;stroke-linejoin:miter"/><path id="patch_127" d="m140.857 76.5-6.698-4.024 1.874-1.603-19.282-22.526.007-.006 19.282 22.525 1.874-1.603z" clip-path="url(#p05304e1dde)" style="stroke:#000;stroke-width:1.5;stroke-linejoin:miter"/><path id="patch_128" d="m174.6 115.92-.004.003-57.845-67.576.007-.006 57.846 67.576z" clip-path="url(#p05304e1dde)" style="stroke:#000;stroke-width:1.5;stroke-linejoin:miter"/><path id="patch_129" d="m144.473 73.673-6.316-4.6 2.008-1.433-17.216-24.14.008-.006 17.216 24.142 2.008-1.432z" clip-path="url(#p05304e1dde)" style="stroke:#000;stroke-width:1.5;stroke-linejoin:miter"/><path id="patch_130" d="m174.6 115.92-.004.003-51.647-72.424.008-.006 51.647 72.424z" clip-path="url(#p05304e1dde)" style="stroke:#000;stroke-width:1.5;stroke-linejoin:miter"/><path id="patch_131" d="m148.325 71.175-5.885-5.14 2.127-1.25-15.015-25.568.009-.005 15.014 25.569 2.127-1.249z" clip-path="url(#p05304e1dde)" style="stroke:#000;stroke-width:1.5;stroke-linejoin:miter"/><path id="patch_132" d="m174.6 115.92-.004.003-45.044-76.706.009-.005 45.043 76.705z" clip-path="url(#p05304e1dde)" style="stroke:#000;stroke-width:1.5;stroke-linejoin:miter"/><path id="patch_133" d="m152.382 69.028-5.407-5.64 2.228-1.056-12.696-26.796.01-.004 12.695 26.795 2.229-1.056z" clip-path="url(#p05304e1dde)" style="stroke:#000;stroke-width:1.5;stroke-linejoin:miter"/><path id="patch_134" d="m174.6 115.92-.004.002-38.089-80.386.01-.004 38.087 80.386z" clip-path="url(#p05304e1dde)" style="stroke:#000;stroke-width:1.5;stroke-linejoin:miter"/><path id="patch_135" d="m156.613 67.248-4.887-6.097 2.313-.854-10.278-27.813.01-.003 10.277 27.812 2.313-.855z" clip-path="url(#p05304e1dde)" style="stroke:#000;stroke-width:1.5;stroke-linejoin:miter"/><path id="patch_136" d="m174.6 115.92-.005.002-30.834-83.438.01-.003 30.834 83.437z" clip-path="url(#p05304e1dde)" style="stroke:#000;stroke-width:1.5;stroke-linejoin:miter"/><path id="patch_137" d="m160.985 65.849-4.329-6.505 2.38-.647-7.78-28.612.01-.002 7.78 28.612 2.379-.647z" clip-path="url(#p05304e1dde)" style="stroke:#000;stroke-width:1.5;stroke-linejoin:miter"/><path id="patch_138" d="m174.6 115.92-.005.001-23.34-85.836.01-.002 23.34 85.836z" clip-path="url(#p05304e1dde)" style="stroke:#000;stroke-width:1.5;stroke-linejoin:miter"/><path id="patch_139" d="m165.464 64.842-3.738-6.862 2.428-.435-5.22-29.187.009-.002 5.22 29.188 2.428-.434z" clip-path="url(#p05304e1dde)" style="stroke:#000;stroke-width:1.5;stroke-linejoin:miter"/><path id="patch_140" d="M174.6 115.92h-.005l-15.662-87.562.01-.002 15.662 87.563z" clip-path="url(#p05304e1dde)" style="stroke:#000;stroke-width:1.5;stroke-linejoin:miter"/><path id="patch_141" d="m170.014 64.234-3.116-7.165 2.456-.218-2.62-29.535.01-.001 2.62 29.535 2.456-.218z" clip-path="url(#p05304e1dde)" style="stroke:#000;stroke-width:1.5;stroke-linejoin:miter"/><path id="patch_142" d="M174.6 115.92h-.005l-7.862-88.604.01-.001 7.862 88.605z" clip-path="url(#p05304e1dde)" style="stroke:#000;stroke-width:1.5;stroke-linejoin:miter"/><g id="PathCollection_1"><defs><path id="mbea65566e4" d="M0 2.739A2.739 2.739 0 1 0 0-2.74a2.739 2.739 0 0 0 0 5.48z" style="stroke:#000"/></defs><g clip-path="url(#p05304e1dde)"><use xlink:href="#mbea65566e4" x="174.6" y="115.92" style="stroke:#000"/></g></g></g></g><defs><clipPath id="p05304e1dde"><path d="M7.2 7.2H342v217.44H7.2z"/></clipPath></defs></svg>