<svg xmlns="http://www.w3.org/2000/svg" xmlns:xlink="http://www.w3.org/1999/xlink" width="261.679" height="374.016" viewBox="0 0 196.259 280.512"><defs><style>*{stroke-linejoin:round;stroke-linecap:butt}</style></defs><g id="figure_1"><g id="axes_1"><path id="patch_1" d="m181.68 106.21-3.689 2.398 2.583-2.396H7.2v-.004h173.374l-2.583-2.396z" clip-path="url(#p0b8faebb63)" style="fill:#1f77b4;stroke:#000;stroke-linejoin:miter"/><path id="patch_2" d="m98.13 14.578 2.397 3.69-2.396-2.583V205.22h-.003V15.685l-2.397 2.583z" clip-path="url(#p0b8faebb63)" style="fill:#1f77b4;stroke:#000;stroke-linejoin:miter"/><g id="PathCollection_1"><defs><path id="m22c20d7f73" d="M0 1.581A1.581 1.581 0 1 0 0-1.58 1.581 1.581 0 0 0 0 1.58z" style="stroke:#000"/></defs><g clip-path="url(#p0b8faebb63)"><use xlink:href="#m22c20d7f73" x="98.129" y="106.21" style="stroke:#000"/></g></g><g id="Quiver_1"><path d="m100.705 74.459.569-5.961-2.759.193 3.6-4.223 2.736 4.828-2.672-.712-.57 5.961zM106.667 75.52l1.687-5.746-2.745-.332 4.334-3.466 1.773 5.26-2.49-1.206-1.687 5.746zM112.32 77.69l2.745-5.322-2.633-.846 4.912-2.583.745 5.5-2.216-1.655-2.744 5.323zM117.462 80.891l3.701-4.707-2.425-1.329 5.312-1.606-.309 5.541-1.863-2.044-3.701 4.707zM121.904 85.008l4.526-3.922-2.13-1.764 5.52-.572-1.352 5.383-1.443-2.36-4.526 3.922zM125.487 89.89l5.186-2.994-1.758-2.135 5.529.483-2.346 5.03-.97-2.59-5.186 2.994zM128.081 95.362l5.659-1.958-1.322-2.43 5.337 1.521-3.255 4.495-.463-2.727-5.659 1.959zM129.593 101.227l5.927-.852-.838-2.636 4.953 2.503-4.048 3.797.062-2.764-5.927.852zM129.967 107.271l5.982.285-.325-2.746 4.39 3.395-4.693 2.963.584-2.703-5.981-.285zM129.19 113.277l5.82 1.412.202-2.758 3.668 4.165-5.169 2.02 1.085-2.543-5.82-1.412zM127.292 119.028l5.447 2.488.72-2.67 2.813 4.783-5.457 1.006 1.546-2.292-5.447-2.488zM124.34 124.316l4.877 3.473 1.212-2.486 1.857 5.23-5.55-.045 1.954-1.958-4.878-3.474zM120.439 128.949l4.132 4.333 1.66-2.211.835 5.487-5.44-1.095 2.287-1.553-4.132-4.334zM115.733 132.76l3.237 5.037 2.049-1.857-.22 5.545-5.135-2.104 2.541-1.092-3.237-5.038zM110.39 135.611l2.225 5.56 2.364-1.436-1.265 5.403-4.644-3.038 2.701-.591-2.225-5.56zM104.604 137.4l1.133 5.88 2.593-.962-2.265 5.066-3.985-3.862 2.764-.07-1.133-5.88zM98.584 138.062v5.988l2.728-.455-3.183 4.547-3.182-4.547 2.728.455v-5.988zM92.548 137.572l-1.133 5.88 2.764.07-3.985 3.862-2.265-5.066 2.593.962 1.133-5.88zM86.713 135.95l-2.225 5.559 2.701.591-4.644 3.038-1.265-5.403 2.364 1.436 2.225-5.56zM81.291 133.251l-3.237 5.038 2.54 1.092-5.135 2.104-.219-5.545 2.049 1.857 3.237-5.037zM76.478 129.576l-4.132 4.334 2.288 1.553-5.441 1.095.834-5.487 1.66 2.211 4.133-4.333zM72.447 125.056l-4.878 3.474 1.953 1.958-5.55.045 1.858-5.23 1.212 2.486 4.878-3.473zM69.345 119.855l-5.447 2.488 1.546 2.292-5.457-1.006 2.813-4.784.72 2.67 5.447-2.487zM67.282 114.161l-5.819 1.412 1.085 2.544-5.169-2.021 3.668-4.165.202 2.758 5.82-1.412zM66.335 108.18l-5.981.285.584 2.703-4.693-2.963 4.39-3.395-.325 2.746 5.982-.285zM66.537 102.127l-5.927-.852.061 2.764-4.047-3.797 4.953-2.503-.838 2.636 5.927.852zM67.88 96.222l-5.658-1.959-.463 2.727-3.255-4.495 5.337-1.52-1.322 2.429 5.659 1.958zM70.317 90.678l-5.185-2.995-.97 2.59-2.347-5.03 5.529-.482-1.758 2.135 5.186 2.994zM73.76 85.695l-4.526-3.922-1.443 2.36-1.352-5.383 5.52.572-2.13 1.764 4.526 3.922zM78.082 81.453l-3.701-4.707-1.863 2.044-.31-5.541 5.313 1.606-2.425 1.33 3.701 4.706zM83.13 78.107l-2.744-5.323-2.216 1.655.745-5.5 4.912 2.583-2.633.846 2.744 5.322zM88.72 75.776l-1.688-5.746-2.489 1.205 1.773-5.259 4.334 3.466-2.745.332 1.687 5.746zM94.65 74.545l-.57-5.96-2.672.711 2.736-4.828 3.6 4.223-2.759-.193.57 5.96z" clip-path="url(#p0b8faebb63)" style="fill:red"/></g><g id="PathCollection_2" clip-path="url(#p0b8faebb63)"><use xlink:href="#m22c20d7f73" x="98.129" y="106.21" style="stroke:#000"/></g><g id="Quiver_2"><path d="m100.705 74.459.569-5.961-2.759.193 3.6-4.223 2.736 4.828-2.672-.712-.57 5.961zM106.667 75.52l1.687-5.746-2.745-.332 4.334-3.466 1.773 5.26-2.49-1.206-1.687 5.746zM112.32 77.69l2.745-5.322-2.633-.846 4.912-2.583.745 5.5-2.216-1.655-2.744 5.323zM117.462 80.891l3.701-4.707-2.425-1.329 5.312-1.606-.309 5.541-1.863-2.044-3.701 4.707zM121.904 85.008l4.526-3.922-2.13-1.764 5.52-.572-1.352 5.383-1.443-2.36-4.526 3.922zM125.487 89.89l5.186-2.994-1.758-2.135 5.529.483-2.346 5.03-.97-2.59-5.186 2.994zM128.081 95.362l5.659-1.958-1.322-2.43 5.337 1.521-3.255 4.495-.463-2.727-5.659 1.959zM129.593 101.227l5.927-.852-.838-2.636 4.953 2.503-4.048 3.797.062-2.764-5.927.852zM129.967 107.271l5.982.285-.325-2.746 4.39 3.395-4.693 2.963.584-2.703-5.981-.285zM129.19 113.277l5.82 1.412.202-2.758 3.668 4.165-5.169 2.02 1.085-2.543-5.82-1.412zM127.292 119.028l5.447 2.488.72-2.67 2.813 4.783-5.457 1.006 1.546-2.292-5.447-2.488zM124.34 124.316l4.877 3.473 1.212-2.486 1.857 5.23-5.55-.045 1.954-1.958-4.878-3.474zM120.439 128.949l4.132 4.333 1.66-2.211.835 5.487-5.44-1.095 2.287-1.553-4.132-4.334zM115.733 132.76l3.237 5.037 2.049-1.857-.22 5.545-5.135-2.104 2.541-1.092-3.237-5.038zM110.39 135.611l2.225 5.56 2.364-1.436-1.265 5.403-4.644-3.038 2.701-.591-2.225-5.56zM104.604 137.4l1.133 5.88 2.593-.962-2.265 5.066-3.985-3.862 2.764-.07-1.133-5.88zM98.584 138.062v5.988l2.728-.455-3.183 4.547-3.182-4.547 2.728.455v-5.988zM92.548 137.572l-1.133 5.88 2.764.07-3.985 3.862-2.265-5.066 2.593.962 1.133-5.88zM86.713 135.95l-2.225 5.559 2.701.591-4.644 3.038-1.265-5.403 2.364 1.436 2.225-5.56zM81.291 133.251l-3.237 5.038 2.54 1.092-5.135 2.104-.219-5.545 2.049 1.857 3.237-5.037zM76.478 129.576l-4.132 4.334 2.288 1.553-5.441 1.095.834-5.487 1.66 2.211 4.133-4.333zM72.447 125.056l-4.878 3.474 1.953 1.958-5.55.045 1.858-5.23 1.212 2.486 4.878-3.473zM69.345 119.855l-5.447 2.488 1.546 2.292-5.457-1.006 2.813-4.784.72 2.67 5.447-2.487zM67.282 114.161l-5.819 1.412 1.085 2.544-5.169-2.021 3.668-4.165.202 2.758 5.82-1.412zM66.335 108.18l-5.981.285.584 2.703-4.693-2.963 4.39-3.395-.325 2.746 5.982-.285zM66.537 102.127l-5.927-.852.061 2.764-4.047-3.797 4.953-2.503-.838 2.636 5.927.852zM67.88 96.222l-5.658-1.959-.463 2.727-3.255-4.495 5.337-1.52-1.322 2.429 5.659 1.958zM70.317 90.678l-5.185-2.995-.97 2.59-2.347-5.03 5.529-.482-1.758 2.135 5.186 2.994zM73.76 85.695l-4.526-3.922-1.443 2.36-1.352-5.383 5.52.572-2.13 1.764 4.526 3.922zM78.082 81.453l-3.701-4.707-1.863 2.044-.31-5.541 5.313 1.606-2.425 1.33 3.701 4.706zM83.13 78.107l-2.744-5.323-2.216 1.655.745-5.5 4.912 2.583-2.633.846 2.744 5.322zM88.72 75.776l-1.688-5.746-2.489 1.205 1.773-5.259 4.334 3.466-2.745.332 1.687 5.746zM94.65 74.545l-.57-5.96-2.672.711 2.736-4.828 3.6 4.223-2.759-.193.57 5.96z" clip-path="url(#p0b8faebb63)" style="fill:red"/></g><g id="text_1" transform="matrix(.1 0 0 -.1 166.924 98.831)"><defs><path id="DejaVuSans-79" d="M2059-325q-243-625-475-815-231-191-618-191H506v481h338q237 0 368 113 132 112 291 531l103 262L191 3500h609L1894 763l1094 2737h609z" transform="scale(.01563)"/></defs><use xlink:href="#DejaVuSans-79"/></g><g id="text_2" transform="matrix(.1 0 0 -.1 87.062 29.335)"><defs><path id="DejaVuSans-7a" d="M353 3500h2731v-525L922 459h2162V0H275v525l2163 2516H353z" transform="scale(.01563)"/></defs><use xlink:href="#DejaVuSans-7a"/></g><g id="text_3" transform="matrix(.1 0 0 -.1 128.44 30.435)"><defs><path id="DejaVuSans-74" d="M1172 4494v-994h1184v-447H1172V1153q0-428 117-550t477-122h590V0h-590q-666 0-919 248-253 249-253 905v1900H172v447h422v994z" transform="scale(.01563)"/><path id="DejaVuSans-3d" d="M678 2906h4006v-525H678zm0-1275h4006v-531H678z" transform="scale(.01563)"/><path id="DejaVuSans-30" d="M2034 4250q-487 0-733-480-245-479-245-1442 0-959 245-1439 246-480 733-480 491 0 736 480 246 480 246 1439 0 963-246 1442-245 480-736 480m0 500q785 0 1199-621 414-620 414-1801 0-1178-414-1799Q2819-91 2034-91q-784 0-1198 620-414 621-414 1799 0 1181 414 1801 414 621 1198 621" transform="scale(.01563)"/></defs><use xlink:href="#DejaVuSans-74"/><use xlink:href="#DejaVuSans-3d" x="70.996"/><use xlink:href="#DejaVuSans-30" x="186.572"/></g></g></g><defs><clipPath id="p0b8faebb63"><path d="M7.2 7.2h181.859v266.112H7.2z"/></clipPath></defs></svg>