<svg data-optimized="true" xmlns="http://www.w3.org/2000/svg" xmlns:xlink="http://www.w3.org/1999/xlink" width="363.029" height="246.577" viewBox="0 0 272.272 184.933"><defs><symbol id="a" overflow="visible"><path d="M4.25-2.875c0-.594-.031-1.375-.344-2.047-.406-.844-1.078-1.047-1.594-1.047-.546 0-1.234.203-1.624 1.078-.282.61-.329 1.344-.329 2.016 0 .594.016 1.453.407 2.172.422.75 1.125.906 1.53.906.579 0 1.25-.25 1.626-1.078.265-.61.328-1.281.328-2M2.313-.031c-.282 0-.922-.125-1.094-1.14-.094-.516-.094-1.298-.094-1.813 0-.61 0-1.313.11-1.813.187-.797.75-.953 1.062-.953.344 0 .906.188 1.078 1.016.094.484.094 1.187.094 1.75s0 1.312-.094 1.843C3.188-.109 2.531-.03 2.313-.03m0 0" style="stroke:none"/></symbol><symbol id="c" overflow="visible"><path d="M4.14-1.594h-.25c-.015.125-.093.657-.203.797-.062.078-.671.078-.859.078H1.234l.891-.843c1.469-1.266 2.016-1.75 2.016-2.657 0-1.031-.844-1.75-1.953-1.75-1.032 0-1.735.813-1.735 1.625 0 .453.39.5.469.5.203 0 .469-.14.469-.469a.45.45 0 0 0-.47-.468c-.046 0-.062 0-.109.015.22-.64.797-.921 1.282-.921.906 0 1.219.843 1.219 1.468 0 .907-.688 1.657-1.11 2.125L.563-.328c-.11.11-.11.125-.11.328h3.438Zm0 0" style="stroke:none"/></symbol><symbol id="d" overflow="visible"><path d="M.266-1.766v.282h2.437v.78c0 .329-.015.423-.687.423h-.203V0C2.375-.031 3-.031 3.063-.031c.046 0 .703 0 1.265.031v-.281h-.203c-.672 0-.703-.094-.703-.422v-.781h.922v-.282h-.922v-4.062c0-.188 0-.25-.172-.25-.11 0-.11.016-.187.14Zm.28 0 2.22-3.312v3.312Zm0 0" style="stroke:none"/></symbol><symbol id="e" overflow="visible"><path d="M1.203-2.969c0-.922.094-1.422.344-1.89.172-.375.61-.891 1.281-.891.172 0 .594.031.797.36-.328 0-.484.171-.484.406a.41.41 0 0 0 .422.422c.25 0 .421-.172.421-.438 0-.5-.359-.969-1.171-.969-1.157 0-2.422 1.14-2.422 3.14C.39-.405 1.484.204 2.328.204c.985 0 1.89-.844 1.89-2.031 0-1.125-.827-2-1.843-2-.531 0-.922.328-1.172.86m1.11 2.922c-.516 0-.813-.422-.907-.687-.172-.407-.187-1.157-.187-1.297 0-.594.281-1.563 1.14-1.563.141 0 .579 0 .875.547.172.344.172.781.172 1.219 0 .422 0 .875-.172 1.203-.28.516-.671.578-.921.578m0 0" style="stroke:none"/></symbol><symbol id="f" overflow="visible"><path d="M1.547-4.078c-.266-.172-.484-.406-.484-.734 0-.594.625-.938 1.218-.938.703 0 1.25.484 1.25 1.11 0 .624-.531 1.046-.89 1.25Zm1.312.828c.454-.219 1.11-.656 1.11-1.39 0-.844-.844-1.329-1.656-1.329-.938 0-1.672.672-1.672 1.5 0 .328.125.657.343.922.141.172.204.203.72.531C.921-2.64.39-2.094.39-1.359c0 .953.937 1.562 1.906 1.562C3.344.203 4.219-.53 4.219-1.5c0-.875-.672-1.312-.89-1.453-.095-.063-.36-.235-.47-.297m-.906.39 1.125.704c.203.125.656.422.656.969 0 .703-.718 1.14-1.421 1.14C1.53-.047.875-.609.875-1.359c0-.641.438-1.172 1.078-1.5m0 0" style="stroke:none"/></symbol><symbol id="g" overflow="visible"><path d="M2.719-5.734c0-.22 0-.235-.219-.235-.562.563-1.39.563-1.672.563v.281c.172 0 .719 0 1.203-.234v4.64c0 .328-.015.438-.86.438h-.28V0c.312-.031 1.125-.031 1.484-.031.375 0 1.172 0 1.5.031v-.281h-.281c-.844 0-.875-.11-.875-.438Zm0 0" style="stroke:none"/></symbol><symbol id="h" overflow="visible"><path d="M2.734-3.156C3.563-3.47 3.97-4.125 3.97-4.75c0-.687-.766-1.219-1.703-1.219-.922 0-1.625.532-1.625 1.203 0 .297.187.47.453.47a.435.435 0 0 0 .453-.454c0-.312-.219-.437-.531-.437.234-.375.78-.563 1.234-.563.734 0 .875.594.875 1.016 0 .265-.047.703-.266 1.047-.28.39-.593.406-.859.437-.219.016-.234.016-.312.016-.079 0-.157.015-.157.109 0 .125.078.125.235.125h.406c.781 0 1.125.625 1.125 1.469 0 1.156-.61 1.484-1.063 1.484-.171 0-1.046-.047-1.437-.719a.475.475 0 0 0 .562-.484.47.47 0 0 0-.484-.484c-.219 0-.484.14-.484.515 0 .797.828 1.422 1.875 1.422 1.109 0 1.953-.812 1.953-1.734 0-.782-.625-1.438-1.485-1.625m0 0" style="stroke:none"/></symbol><symbol id="i" overflow="visible"><path d="M.938-3.094c0 .156 0 .266.125.266.062 0 .093-.047.14-.125a1.45 1.45 0 0 1 1.172-.594c.969 0 .969 1.39.969 1.703 0 .282 0 .844-.266 1.25-.234.375-.61.547-.969.547a1.46 1.46 0 0 1-1.343-1c.015 0 .062.016.125.016.187 0 .453-.11.453-.438 0-.281-.203-.437-.453-.437-.188 0-.438.11-.438.468 0 .813.688 1.641 1.688 1.641 1.078 0 2-.89 2-2 0-1.078-.766-1.969-1.75-1.969-.422 0-.86.141-1.188.47v-1.767c.281.079.563.125.828.125 1.11 0 1.75-.796 1.75-.921 0-.079-.047-.11-.094-.11-.015 0-.03 0-.124.047a3.5 3.5 0 0 1-1.204.234c-.39 0-.796-.078-1.203-.234-.093-.047-.11-.047-.11-.047-.109 0-.109.078-.109.235Zm0 0" style="stroke:none"/></symbol><symbol id="j" overflow="visible"><path d="M4.39-5.469c.079-.093.079-.125.079-.312H2.25c-1.14 0-1.172-.11-1.187-.282h-.25L.516-4.187h.25C.796-4.39.875-4.89.984-5c.063-.062.782-.062.907-.062h1.875l-.86 1.171C1.734-2.28 1.625-.812 1.625-.312c0 .109 0 .515.422.515s.422-.406.422-.516V-.75c0-1.328.187-2.36.672-3.016Zm0 0" style="stroke:none"/></symbol><symbol id="b" overflow="visible"><path d="M1.766-.484A.487.487 0 0 0 1.28-.97a.477.477 0 0 0-.484.485C.797-.22 1 0 1.28 0a.487.487 0 0 0 .485-.484m0 0" style="stroke:none"/></symbol><symbol id="l" overflow="visible"><path d="M4.36-.719v.782L6.124 0v-.469c-.61 0-.687 0-.687-.39v-3.625l-1.813.078v.468c.61 0 .688 0 .688.391v1.906c0 .813-.516 1.344-1.235 1.344-.781 0-.812-.25-.812-.797v-3.39l-1.813.078v.468c.61 0 .688 0 .688.391v2.328c0 1.063.797 1.282 1.797 1.282.25 0 .968 0 1.421-.782m0 0" style="stroke:none"/></symbol><symbol id="n" overflow="visible"><path d="M2.86-6.922 1.296-5.656l.281.375 1.281-.813 1.282.813.28-.375Zm0 0" style="stroke:none"/></symbol><symbol id="o" overflow="visible"><path d="M2.031-3.36v-1.124l-1.656.078v.468c.61 0 .688 0 .688.391v3.078H.375V0c.344-.016.797-.031 1.25-.031C2-.031 2.641-.031 3 0v-.469h-.86v-1.75c0-.687.235-1.906 1.235-1.906 0 .016-.187.172-.187.453 0 .406.328.61.609.61.297 0 .61-.204.61-.61 0-.531-.532-.812-1.063-.812-.688 0-1.094.5-1.313 1.125m0 0" style="stroke:none"/></symbol><symbol id="m" overflow="visible"><path d="M1.906-2.5a.524.524 0 1 0-1.047.016.524.524 0 0 0 1.047-.016m0 0" style="stroke:none"/></symbol><symbol id="p" overflow="visible"><path d="M4.375-7.094c.047-.14.047-.172.047-.187 0-.11-.078-.203-.188-.203-.078 0-.14.03-.171.093l-3.47 9.5c-.046.141-.046.172-.046.188 0 .11.094.203.203.203.125 0 .156-.078.219-.25Zm0 0" style="stroke:none"/></symbol><symbol id="q" overflow="visible"><path d="M3.953-3.781c-.172 0-.297 0-.437.125a.53.53 0 0 0-.188.39c0 .25.188.36.375.36.281 0 .547-.25.547-.64 0-.485-.469-.86-1.172-.86-1.344 0-2.672 1.422-2.672 2.828C.406-.672.984.109 2.031.109c1.422 0 2.25-1.062 2.25-1.171 0-.063-.047-.141-.11-.141-.062 0-.077.031-.14.11-.781.984-1.875.984-1.984.984-.625 0-.906-.485-.906-1.094 0-.406.203-1.375.547-1.984.312-.579.859-1 1.406-1 .328 0 .719.125.86.406m0 0" style="stroke:none"/></symbol><symbol id="r" overflow="visible"><path d="M-7.14-1.719c-.157 0-.344 0-.344.203s.234.204.375.204h9.234c.156 0 .375 0 .375-.204s-.187-.203-.344-.203Zm.03-1.937c-.156 0-.374 0-.374.203 0 .187.187.187.343.187h9.297c.156 0 .344 0 .344-.187 0-.203-.234-.203-.375-.203Zm0 0" style="stroke:none"/></symbol><symbol id="s" overflow="visible"><path d="M-.719-4.36h.782L0-6.124h-.469c0 .61 0 .688-.39.688h-3.625l.078 1.812h.468c0-.61 0-.687.391-.687h1.906c.813 0 1.344.515 1.344 1.234 0 .781-.25.812-.797.812h-3.39l.078 1.813h.468c0-.61 0-.688.391-.688h2.328c1.063 0 1.282-.796 1.282-1.796 0-.25 0-.97-.782-1.422m0 0" style="stroke:none"/></symbol><symbol id="t" overflow="visible"><path d="M-1.406-1.64c-.047 0-.672-.173-.703-.173a1.65 1.65 0 0 1-.578-.453c-.047-.062-.188-.25-.188-.562 0-.063 0-.235.094-.375a.41.41 0 0 0 .39.297c.141 0 .25-.11.25-.266 0-.172-.125-.39-.421-.39-.36 0-.516.374-.516.734s.156.672.5.984c-.422.125-.5.547-.5.719 0 .25.172.422.36.547A2.4 2.4 0 0 0-2-.328c.078 0 .078-.094.078-.125 0-.094-.016-.094-.203-.14-.422-.11-.75-.25-.75-.516 0-.188.156-.235.344-.235.125 0 .39.063.578.125.187.047.469.11.625.14l.89.235c.094.016.266.063.282.063.156 0 .219-.125.219-.235S0-1.266-.125-1.312c-.047-.016-.36-.094-.531-.141Zm0 0" style="stroke:none"/></symbol><symbol id="u" overflow="visible"><path d="M-1.594-1.562c0-.188-.015-.75-.14-1.125-.188-.516-.516-.61-.72-.61-.39 0-.624.39-.624.86 0 .843.64 1.968 1.844 1.968.703 0 1.297-.437 1.297-1.25 0-1.187-.688-1.734-.782-1.734-.047 0-.125.062-.125.125 0 .031.016.047.078.11.641.546.641 1.359.641 1.484 0 .422-.281.703-.844.703-.094 0-.234 0-.625-.094Zm-.187.39c-1.016-.297-1.094-1.062-1.094-1.265 0-.297.156-.563.422-.563.672 0 .672 1.188.672 1.484Zm0 0" style="stroke:none"/></symbol><symbol id="v" overflow="visible"><path d="M-2.75-1.719v-.703c0-.14 0-.219-.156-.219C-3-2.64-3-2.562-3-2.437v.656l-1.031-.25a.3.3 0 0 0-.094-.031c-.14 0-.234.109-.234.25 0 .171.125.265.297.328.187.046-.157-.047 1.062.265v.703c0 .125 0 .22.156.22.094 0 .094-.079.094-.204v-.656l1.64.406c.173.047.423.11.516.11.407 0 .657-.36.657-.75 0-.782-.97-1.22-1.063-1.22-.094 0-.094.094-.094.11 0 .094.016.094.14.156.438.188.829.547.829.922 0 .156-.094.25-.344.25-.062 0-.219-.031-.281-.047Zm0 0" style="stroke:none"/></symbol><clipPath id="k"><path d="M30.379 74h238.637v83.637H30.379Zm0 0"/></clipPath></defs><path d="M0 184.934h272.273V0H0Zm0 0" style="stroke:none;fill-rule:nonzero;fill:#ffe4c8;fill-opacity:1"/><path d="M212.646-.002v153.594M259.9-.002v153.594M307.158-.002v153.594M354.41-.002v153.594M401.665-.002v153.594M165.392 21.631h238.637M165.392 43.264h238.637M165.392 64.897h238.637M165.392 86.53h238.637m-238.637 21.632h238.637m-238.637 21.633h238.637m-238.637 21.633h238.637" style="fill:none;stroke-width:.3985;stroke-linecap:butt;stroke-linejoin:miter;stroke:#d9d9d9;stroke-opacity:1;stroke-dasharray:2.98883,2.98883;stroke-miterlimit:10" transform="matrix(1 0 0 -1 -135.013 157.635)"/><path d="M212.646-2.127v4.254M259.9-2.127v4.254m47.258-4.254v4.254m47.253-4.254v4.254m47.254-4.254v4.254M163.267 21.631h4.25m-4.25 21.633h4.25m-4.25 21.633h4.25m-4.25 21.633h4.25m-4.25 21.632h4.25m-4.25 21.633h4.25m-4.25 21.633h4.25" style="fill:none;stroke-width:.19925;stroke-linecap:butt;stroke-linejoin:miter;stroke:gray;stroke-opacity:1;stroke-miterlimit:10" transform="matrix(1 0 0 -1 -135.013 157.635)"/><path d="M165.392-.002h238.637M165.392-.002v153.594" style="fill:none;stroke-width:.3985;stroke-linecap:butt;stroke-linejoin:miter;stroke:#000;stroke-opacity:1;stroke-miterlimit:10" transform="matrix(1 0 0 -1 -135.013 157.635)"/><use xlink:href="#a" x="71.743" y="169.059" style="fill:#000;fill-opacity:1"/><use xlink:href="#b" x="76.351" y="169.059" style="fill:#000;fill-opacity:1"/><use xlink:href="#c" x="78.911" y="169.059" style="fill:#000;fill-opacity:1"/><use xlink:href="#a" x="118.997" y="169.059" style="fill:#000;fill-opacity:1"/><use xlink:href="#b" x="123.605" y="169.059" style="fill:#000;fill-opacity:1"/><use xlink:href="#d" x="126.165" y="169.059" style="fill:#000;fill-opacity:1"/><use xlink:href="#a" x="166.252" y="169.059" style="fill:#000;fill-opacity:1"/><use xlink:href="#b" x="170.859" y="169.059" style="fill:#000;fill-opacity:1"/><use xlink:href="#e" x="173.419" y="169.059" style="fill:#000;fill-opacity:1"/><use xlink:href="#a" x="213.506" y="169.059" style="fill:#000;fill-opacity:1"/><use xlink:href="#b" x="218.113" y="169.059" style="fill:#000;fill-opacity:1"/><use xlink:href="#f" x="220.673" y="169.059" style="fill:#000;fill-opacity:1"/><use xlink:href="#g" x="264.344" y="169.059" style="fill:#000;fill-opacity:1"/><use xlink:href="#g" x="20.123" y="138.892" style="fill:#000;fill-opacity:1"/><use xlink:href="#c" x="20.123" y="117.26" style="fill:#000;fill-opacity:1"/><use xlink:href="#h" x="20.123" y="95.628" style="fill:#000;fill-opacity:1"/><use xlink:href="#d" x="20.123" y="73.996" style="fill:#000;fill-opacity:1"/><use xlink:href="#i" x="20.123" y="52.363" style="fill:#000;fill-opacity:1"/><use xlink:href="#e" x="20.123" y="30.731" style="fill:#000;fill-opacity:1"/><use xlink:href="#j" x="20.123" y="9.099" style="fill:#000;fill-opacity:1"/><path d="M165.392-2.127v4.254" style="fill:none;stroke-width:.19925;stroke-linecap:butt;stroke-linejoin:miter;stroke:gray;stroke-opacity:1;stroke-miterlimit:10" transform="matrix(1 0 0 -1 -135.013 157.635)"/><use xlink:href="#a" x="28.073" y="169.059" style="fill:#000;fill-opacity:1"/><g clip-path="url(#k)"><path d="m.001 72.108 4.032-3.883 4.035-3.485 4.03-3.148 4.036-2.855 4.031-2.602 4.036-2.379 4.03-2.187 4.036-2.016 4.031-1.867 4.035-1.727 4.032-1.61 4.035-1.5 4.031-1.401 4.035-1.313 4.031-1.23 4.036-1.16 4.03-1.094 4.036-1.028 4.031-.976 4.035-.918 4.032-.875 4.035-.832 4.031-.79 4.035-.753 4.031-.711 4.036-.684 4.03-.656 4.036-.621 4.031-.598 4.035-.57 4.032-.55 4.035-.528 4.031-.504 4.035-.484 4.031-.47 4.036-.448 4.03-.434 4.036-.418 4.031-.402 4.035-.391 4.032-.379 4.035-.36 4.031-.35 4.035-.34 4.031-.329 4.036-.32 4.03-.309 4.036-.297 4.031-.293 4.035-.28 4.032-.274 4.03-.266 4.036-.258 4.031-.25 4.036-.242 4.03-.238 4.036-.23 4.031-.227 4.035-.219 4.032-.215 4.035-.207 4.031-.203 4.035-.195 4.031-.196 4.036-.187 4.03-.184 4.036-.18 4.031-.171 4.035-.172 4.032-.168 4.035-.164 4.031-.16 4.035-.157 4.031-.152 4.036-.148 4.03-.149 4.036-.14 4.031-.141 4.035-.137 4.032-.136 4.035-.13 4.031-.128 4.035-.13 4.031-.124 4.036-.121 4.03-.117 4.036-.118 4.031-.117 4.035-.11 4.032-.112 4.035-.11 4.031-.105 4.035-.106 4.031-.101 4.036-.102 4.03-.098 4.036-.097 4.031-.098 4.035-.094" style="fill:none;stroke-width:.79701;stroke-linecap:butt;stroke-linejoin:miter;stroke:#000;stroke-opacity:1;stroke-miterlimit:10" transform="matrix(1 0 0 -1 -135.013 157.635)"/></g><use xlink:href="#l" x="153.213" y="179.122" style="fill:#000;fill-opacity:1"/><use xlink:href="#m" x="161.792" y="179.122" style="fill:#000;fill-opacity:1"/><use xlink:href="#n" x="166.268" y="179.122" style="fill:#000;fill-opacity:1"/><use xlink:href="#o" x="166.776" y="179.122" style="fill:#000;fill-opacity:1"/><g style="fill:#000;fill-opacity:1"><use xlink:href="#p" x="171.492" y="179.122"/><use xlink:href="#q" x="176.473" y="179.122"/></g><use xlink:href="#r" x="10.792" y="94.605" style="fill:#000;fill-opacity:1"/><use xlink:href="#s" x="10.792" y="89.623" style="fill:#000;fill-opacity:1"/><use xlink:href="#t" x="12.287" y="83.258" style="fill:#000;fill-opacity:1"/><g style="fill:#000;fill-opacity:1"><use xlink:href="#u" x="12.287" y="79.343"/><use xlink:href="#v" x="12.287" y="75.563"/></g><use xlink:href="#r" x="10.792" y="72.057" style="fill:#000;fill-opacity:1"/></svg>