<svg xmlns="http://www.w3.org/2000/svg" xmlns:xlink="http://www.w3.org/1999/xlink" width="336.367" height="242.852" viewBox="0 0 252.275 182.139"><defs><symbol id="b" overflow="visible"><path d="M6.047-2.047c.172 0 .344 0 .344-.203 0-.187-.188-.187-.344-.187H1.109c-.156 0-.343 0-.343.187 0 .203.172.203.343.203Zm0 0" style="stroke:none"/></symbol><symbol id="c" overflow="visible"><path d="M2.719-5.734c0-.22 0-.235-.219-.235-.562.563-1.39.563-1.672.563v.281c.172 0 .719 0 1.203-.234v4.64c0 .328-.015.438-.86.438h-.28V0c.312-.031 1.125-.031 1.484-.031.375 0 1.172 0 1.5.031v-.281h-.281c-.844 0-.875-.11-.875-.438Zm0 0" style="stroke:none"/></symbol><symbol id="d" overflow="visible"><path d="M4.25-2.875c0-.594-.031-1.375-.344-2.047-.406-.844-1.078-1.047-1.594-1.047-.546 0-1.234.203-1.624 1.078-.282.61-.329 1.344-.329 2.016 0 .594.016 1.453.407 2.172.422.75 1.125.906 1.53.906.579 0 1.25-.25 1.626-1.078.265-.61.328-1.281.328-2M2.313-.031c-.282 0-.922-.125-1.094-1.14-.094-.516-.094-1.298-.094-1.813 0-.61 0-1.313.11-1.813.187-.797.75-.953 1.062-.953.344 0 .906.188 1.078 1.016.094.484.094 1.187.094 1.75s0 1.312-.094 1.843C3.188-.109 2.531-.03 2.313-.03m0 0" style="stroke:none"/></symbol><symbol id="f" overflow="visible"><path d="M.938-3.094c0 .156 0 .266.125.266.062 0 .093-.047.14-.125a1.45 1.45 0 0 1 1.172-.594c.969 0 .969 1.39.969 1.703 0 .282 0 .844-.266 1.25-.234.375-.61.547-.969.547a1.46 1.46 0 0 1-1.343-1c.015 0 .062.016.125.016.187 0 .453-.11.453-.438 0-.281-.203-.437-.453-.437-.188 0-.438.11-.438.468 0 .813.688 1.641 1.688 1.641 1.078 0 2-.89 2-2 0-1.078-.766-1.969-1.75-1.969-.422 0-.86.141-1.188.47v-1.767c.281.079.563.125.828.125 1.11 0 1.75-.796 1.75-.921 0-.079-.047-.11-.094-.11-.015 0-.03 0-.124.047a3.5 3.5 0 0 1-1.204.234c-.39 0-.796-.078-1.203-.234-.093-.047-.11-.047-.11-.047-.109 0-.109.078-.109.235Zm0 0" style="stroke:none"/></symbol><symbol id="g" overflow="visible"><path d="M4.14-1.594h-.25c-.015.125-.093.657-.203.797-.062.078-.671.078-.859.078H1.234l.891-.843c1.469-1.266 2.016-1.75 2.016-2.657 0-1.031-.844-1.75-1.953-1.75-1.032 0-1.735.813-1.735 1.625 0 .453.39.5.469.5.203 0 .469-.14.469-.469a.45.45 0 0 0-.47-.468c-.046 0-.062 0-.109.015.22-.64.797-.921 1.282-.921.906 0 1.219.843 1.219 1.468 0 .907-.688 1.657-1.11 2.125L.563-.328c-.11.11-.11.125-.11.328h3.438Zm0 0" style="stroke:none"/></symbol><symbol id="h" overflow="visible"><path d="M2.734-3.156C3.563-3.47 3.97-4.125 3.97-4.75c0-.687-.766-1.219-1.703-1.219-.922 0-1.625.532-1.625 1.203 0 .297.187.47.453.47a.435.435 0 0 0 .453-.454c0-.312-.219-.437-.531-.437.234-.375.78-.563 1.234-.563.734 0 .875.594.875 1.016 0 .265-.047.703-.266 1.047-.28.39-.593.406-.859.437-.219.016-.234.016-.312.016-.079 0-.157.015-.157.109 0 .125.078.125.235.125h.406c.781 0 1.125.625 1.125 1.469 0 1.156-.61 1.484-1.063 1.484-.171 0-1.046-.047-1.437-.719a.475.475 0 0 0 .562-.484.47.47 0 0 0-.484-.484c-.219 0-.484.14-.484.515 0 .797.828 1.422 1.875 1.422 1.109 0 1.953-.812 1.953-1.734 0-.782-.625-1.438-1.485-1.625m0 0" style="stroke:none"/></symbol><symbol id="e" overflow="visible"><path d="M1.766-.484A.487.487 0 0 0 1.28-.97a.477.477 0 0 0-.484.485C.797-.22 1 0 1.28 0a.487.487 0 0 0 .485-.484m0 0" style="stroke:none"/></symbol><symbol id="j" overflow="visible"><path d="M3.594-4.062a.62.62 0 0 0-.203.468c0 .438.343.625.609.625.313 0 .64-.219.64-.625 0-.86-1.156-.922-1.734-.922C1.11-4.516.375-3.375.375-2.219.375-.89 1.313.063 2.844.063c1.625 0 1.922-1.157 1.922-1.235 0-.14-.141-.14-.235-.14-.187 0-.187.03-.25.156-.25.625-.734.812-1.234.812-1.39 0-1.39-1.453-1.39-1.922 0-.562 0-1.843 1.28-1.843.36 0 .516.015.657.046m0 0" style="stroke:none"/></symbol><symbol id="l" overflow="visible"><path d="M2.86-6.922 1.296-5.656l.281.375 1.281-.813 1.282.813.28-.375Zm0 0" style="stroke:none"/></symbol><symbol id="m" overflow="visible"><path d="M2.031-3.36v-1.124l-1.656.078v.468c.61 0 .688 0 .688.391v3.078H.375V0c.344-.016.797-.031 1.25-.031C2-.031 2.641-.031 3 0v-.469h-.86v-1.75c0-.687.235-1.906 1.235-1.906 0 .016-.187.172-.187.453 0 .406.328.61.609.61.297 0 .61-.204.61-.61 0-.531-.532-.812-1.063-.812-.688 0-1.094.5-1.313 1.125m0 0" style="stroke:none"/></symbol><symbol id="k" overflow="visible"><path d="M1.906-2.5a.524.524 0 1 0-1.047.016.524.524 0 0 0 1.047-.016m0 0" style="stroke:none"/></symbol><symbol id="n" overflow="visible"><path d="M-7.14-1.719c-.157 0-.344 0-.344.203s.234.204.375.204h9.234c.156 0 .375 0 .375-.204s-.187-.203-.344-.203Zm.03-1.937c-.156 0-.374 0-.374.203 0 .187.187.187.343.187h9.297c.156 0 .344 0 .344-.187 0-.203-.234-.203-.375-.203Zm0 0" style="stroke:none"/></symbol><symbol id="o" overflow="visible"><path d="M-4.062-3.594a.62.62 0 0 0 .468.203A.6.6 0 0 0-2.969-4c0-.312-.219-.64-.625-.64-.86 0-.922 1.156-.922 1.734 0 1.797 1.141 2.531 2.297 2.531C-.89-.375.063-1.312.063-2.844c0-1.625-1.157-1.922-1.235-1.922-.14 0-.14.141-.14.235 0 .187.03.187.156.25.625.25.812.734.812 1.234 0 1.39-1.453 1.39-1.922 1.39-.562 0-1.843 0-1.843-1.28 0-.36.015-.516.046-.657m0 0" style="stroke:none"/></symbol><symbol id="p" overflow="visible"><path d="M-1.406-1.64c-.047 0-.672-.173-.703-.173a1.65 1.65 0 0 1-.578-.453c-.047-.062-.188-.25-.188-.562 0-.063 0-.235.094-.375a.41.41 0 0 0 .39.297c.141 0 .25-.11.25-.266 0-.172-.125-.39-.421-.39-.36 0-.516.374-.516.734s.156.672.5.984c-.422.125-.5.547-.5.719 0 .25.172.422.36.547A2.4 2.4 0 0 0-2-.328c.078 0 .078-.094.078-.125 0-.094-.016-.094-.203-.14-.422-.11-.75-.25-.75-.516 0-.188.156-.235.344-.235.125 0 .39.063.578.125.187.047.469.11.625.14l.89.235c.094.016.266.063.282.063.156 0 .219-.125.219-.235S0-1.266-.125-1.312c-.047-.016-.36-.094-.531-.141Zm0 0" style="stroke:none"/></symbol><symbol id="q" overflow="visible"><path d="M-1.594-1.562c0-.188-.015-.75-.14-1.125-.188-.516-.516-.61-.72-.61-.39 0-.624.39-.624.86 0 .843.64 1.968 1.844 1.968.703 0 1.297-.437 1.297-1.25 0-1.187-.688-1.734-.782-1.734-.047 0-.125.062-.125.125 0 .031.016.047.078.11.641.546.641 1.359.641 1.484 0 .422-.281.703-.844.703-.094 0-.234 0-.625-.094Zm-.187.39c-1.016-.297-1.094-1.062-1.094-1.265 0-.297.156-.563.422-.563.672 0 .672 1.188.672 1.484Zm0 0" style="stroke:none"/></symbol><symbol id="r" overflow="visible"><path d="M-2.75-1.719v-.703c0-.14 0-.219-.156-.219C-3-2.64-3-2.562-3-2.437v.656l-1.031-.25a.3.3 0 0 0-.094-.031c-.14 0-.234.109-.234.25 0 .171.125.265.297.328.187.046-.157-.047 1.062.265v.703c0 .125 0 .22.156.22.094 0 .094-.079.094-.204v-.656l1.64.406c.173.047.423.11.516.11.407 0 .657-.36.657-.75 0-.782-.97-1.22-1.063-1.22-.094 0-.094.094-.094.11 0 .094.016.094.14.156.438.188.829.547.829.922 0 .156-.094.25-.344.25-.062 0-.219-.031-.281-.047Zm0 0" style="stroke:none"/></symbol><clipPath id="a"><path d="M0 0h252.273v182.14H0Zm0 0"/></clipPath><clipPath id="i"><path d="M21 1.941h226.84V146H21Zm0 0"/></clipPath></defs><g clip-path="url(#a)"><path d="M0 182.14h252.273V0H0Zm0 0" style="stroke:none;fill-rule:nonzero;fill:#ffe4c8;fill-opacity:1"/></g><path d="M-.001.002v153.59M59.362.002v153.59M178.085.002v153.59M237.445.002v153.59M-.001 21.334h238.633M-.001 42.666h238.633M-.001 63.998h238.633M-.001 85.33h238.633M-.001 106.662h238.633M-.001 127.994h238.633M-.001 149.326h238.633" style="fill:none;stroke-width:.3985;stroke-linecap:butt;stroke-linejoin:miter;stroke:#d9d9d9;stroke-opacity:1;stroke-dasharray:2.98883,2.98883;stroke-miterlimit:10" transform="matrix(1 0 0 -1 9.208 155.533)"/><path d="M-.001-2.127v4.254m59.363-4.254v4.254m118.723-4.254v4.254m59.36-4.254v4.254M116.597 21.334h4.254m-4.254 21.332h4.254m-4.254 21.332h4.254m-4.254 21.332h4.254m-4.254 21.332h4.254m-4.254 21.332h4.254m-4.254 21.332h4.254" style="fill:none;stroke-width:.19925;stroke-linecap:butt;stroke-linejoin:miter;stroke:gray;stroke-opacity:1;stroke-miterlimit:10" transform="matrix(1 0 0 -1 9.208 155.533)"/><path d="M-.001.002h238.633M118.722.002v153.59" style="fill:none;stroke-width:.3985;stroke-linecap:butt;stroke-linejoin:miter;stroke:#000;stroke-opacity:1;stroke-miterlimit:10" transform="matrix(1 0 0 -1 9.208 155.533)"/><use xlink:href="#b" x="3.321" y="166.957" style="fill:#000;fill-opacity:1"/><use xlink:href="#c" x="10.488" y="166.957" style="fill:#000;fill-opacity:1"/><use xlink:href="#b" x="59.097" y="166.957" style="fill:#000;fill-opacity:1"/><use xlink:href="#d" x="66.265" y="166.957" style="fill:#000;fill-opacity:1"/><use xlink:href="#e" x="70.873" y="166.957" style="fill:#000;fill-opacity:1"/><use xlink:href="#f" x="73.432" y="166.957" style="fill:#000;fill-opacity:1"/><use xlink:href="#d" x="181.403" y="166.957" style="fill:#000;fill-opacity:1"/><use xlink:href="#e" x="186.01" y="166.957" style="fill:#000;fill-opacity:1"/><use xlink:href="#f" x="188.57" y="166.957" style="fill:#000;fill-opacity:1"/><use xlink:href="#c" x="244.347" y="166.957" style="fill:#000;fill-opacity:1"/><use xlink:href="#d" x="110.508" y="137.09" style="fill:#000;fill-opacity:1"/><use xlink:href="#e" x="115.116" y="137.09" style="fill:#000;fill-opacity:1"/><use xlink:href="#f" x="117.676" y="137.09" style="fill:#000;fill-opacity:1"/><use xlink:href="#c" x="117.676" y="115.758" style="fill:#000;fill-opacity:1"/><use xlink:href="#c" x="110.508" y="94.426" style="fill:#000;fill-opacity:1"/><use xlink:href="#e" x="115.116" y="94.426" style="fill:#000;fill-opacity:1"/><use xlink:href="#f" x="117.676" y="94.426" style="fill:#000;fill-opacity:1"/><use xlink:href="#g" x="117.676" y="73.094" style="fill:#000;fill-opacity:1"/><use xlink:href="#g" x="110.508" y="51.762" style="fill:#000;fill-opacity:1"/><use xlink:href="#e" x="115.116" y="51.762" style="fill:#000;fill-opacity:1"/><use xlink:href="#f" x="117.676" y="51.762" style="fill:#000;fill-opacity:1"/><use xlink:href="#h" x="117.676" y="30.43" style="fill:#000;fill-opacity:1"/><use xlink:href="#h" x="110.508" y="9.099" style="fill:#000;fill-opacity:1"/><use xlink:href="#e" x="115.116" y="9.099" style="fill:#000;fill-opacity:1"/><use xlink:href="#f" x="117.676" y="9.099" style="fill:#000;fill-opacity:1"/><path d="M118.722-2.127v4.254" style="fill:none;stroke-width:.19925;stroke-linecap:butt;stroke-linejoin:miter;stroke:gray;stroke-opacity:1;stroke-miterlimit:10" transform="matrix(1 0 0 -1 9.208 155.533)"/><use xlink:href="#d" x="125.626" y="166.957" style="fill:#000;fill-opacity:1"/><g clip-path="url(#i)"><path d="m23.745 213.322 2.145-17.687 2.148-14.98 2.145-12.845 2.148-11.136 2.145-9.758 2.148-8.61 2.145-7.656 2.148-6.855 2.145-6.168 2.148-5.59 2.145-5.078 2.148-4.64 2.144-4.25 2.149-3.915 2.144-3.613 2.149-3.344 2.144-3.102 2.149-2.898 2.144-2.7 2.149-2.534 2.144-2.367 2.149-2.22 2.144-2.097 2.149-1.976 2.148-1.864 2.145-1.77 2.148-1.675 2.145-1.582 2.148-1.508 2.145-1.434 2.148-1.367 2.145-1.3 2.148-1.247 2.145-1.191 2.148-1.137 2.145-1.09 2.148-1.039 2.145-1.003 2.148-.958 2.145-.925 2.148-.89 2.144-.852 2.149-.82 2.144-.794 2.149-.765 2.144-.739 2.149-.71 2.144-.688 2.149-.668 2.144-.64 2.149-.626 2.144-.601 2.149-.586 2.144-.563 2.149-.55 2.144-.532 2.149-.52 2.144-.5 2.149-.488 2.144-.472 2.149-.465 2.144-.445 2.149-.438 2.144-.426 2.149-.41 2.144-.402 2.149-.395 2.144-.383 2.149-.37 2.144-.364 2.148-.355 2.145-.344 2.148-.34 2.145-.332 2.148-.32 2.145-.317 2.148-.308 2.145-.301 2.148-.293 2.145-.29 2.148-.28 2.145-.274 2.148-.27 2.145-.265 2.148-.258 2.145-.254 2.148-.246 2.145-.242 2.148-.238 2.145-.235 2.148-.23 2.145-.223 2.148-.218 2.145-.22 2.148-.21 2.145-.207 2.148-.203 2.145-.2 2.148-.199" style="fill:none;stroke-width:.79701;stroke-linecap:butt;stroke-linejoin:miter;stroke:#000;stroke-opacity:1;stroke-miterlimit:10" transform="matrix(1 0 0 -1 9.208 155.533)"/></g><use xlink:href="#j" x="132.043" y="178.818" style="fill:#000;fill-opacity:1"/><use xlink:href="#k" x="139.349" y="178.818" style="fill:#000;fill-opacity:1"/><use xlink:href="#l" x="143.825" y="178.818" style="fill:#000;fill-opacity:1"/><use xlink:href="#m" x="144.333" y="178.818" style="fill:#000;fill-opacity:1"/><use xlink:href="#n" x="101.178" y="91.866" style="fill:#000;fill-opacity:1"/><use xlink:href="#o" x="101.178" y="86.885" style="fill:#000;fill-opacity:1"/><use xlink:href="#p" x="102.672" y="81.793" style="fill:#000;fill-opacity:1"/><g style="fill:#000;fill-opacity:1"><use xlink:href="#q" x="102.672" y="77.878"/><use xlink:href="#r" x="102.672" y="74.098"/></g><use xlink:href="#n" x="101.178" y="70.592" style="fill:#000;fill-opacity:1"/></svg>