<svg xmlns="http://www.w3.org/2000/svg" xmlns:xlink="http://www.w3.org/1999/xlink" width="336.37" height="244.18" viewBox="0 0 252.28 183.13"><defs><symbol id="b" overflow="visible"><path d="M6.05-2.05c.17 0 .34 0 .34-.2 0-.19-.19-.19-.34-.19H1.1c-.16 0-.34 0-.34.19 0 .2.17.2.34.2Zm0 0" style="stroke:none"/></symbol><symbol id="c" overflow="visible"><path d="M2.72-5.73c0-.22 0-.24-.22-.24-.56.56-1.4.56-1.67.56v.29c.17 0 .72 0 1.2-.24v4.64c0 .33-.01.44-.86.44H.9V0c.31-.03 1.13-.03 1.49-.03s1.17 0 1.5.03v-.28h-.29c-.84 0-.87-.11-.87-.44Zm0 0" style="stroke:none"/></symbol><symbol id="d" overflow="visible"><path d="M4.25-2.87c0-.6-.03-1.38-.34-2.05a1.7 1.7 0 0 0-1.6-1.05c-.54 0-1.23.2-1.62 1.08C.4-4.3.36-3.55.36-2.88c0 .6.02 1.46.4 2.18C1.2.05 1.9.2 2.3.2c.58 0 1.25-.25 1.62-1.07.27-.61.33-1.29.33-2M2.31-.04c-.28 0-.92-.13-1.1-1.14-.08-.52-.08-1.3-.08-1.81 0-.61 0-1.32.1-1.82.2-.8.75-.95 1.07-.95.34 0 .9.19 1.08 1.02.09.48.09 1.18.09 1.75 0 .56 0 1.3-.1 1.84-.18 1.03-.84 1.1-1.06 1.1m0 0" style="stroke:none"/></symbol><symbol id="f" overflow="visible"><path d="M.94-3.1c0 .16 0 .27.12.27q.08 0 .14-.12c.28-.38.7-.6 1.18-.6.96 0 .96 1.4.96 1.7 0 .29 0 .85-.26 1.26-.24.37-.61.54-.97.54-.52 0-1.13-.34-1.34-1l.12.02c.19 0 .45-.11.45-.44 0-.28-.2-.44-.45-.44-.19 0-.44.11-.44.47 0 .82.7 1.64 1.7 1.64 1.07 0 2-.89 2-2 0-1.07-.78-1.97-1.76-1.97-.42 0-.86.15-1.19.47v-1.76q.43.12.83.12c1.11 0 1.75-.8 1.75-.92q-.01-.11-.1-.1l-.12.04q-.64.23-1.2.23-.6 0-1.2-.23l-.11-.05c-.11 0-.11.08-.11.24Zm0 0" style="stroke:none"/></symbol><symbol id="g" overflow="visible"><path d="M4.14-1.6H3.9c-.02.13-.1.66-.2.8-.06.08-.67.08-.86.08h-1.6l.9-.84c1.46-1.27 2.01-1.75 2.01-2.66 0-1.03-.84-1.75-1.95-1.75-1.03 0-1.74.81-1.74 1.63 0 .45.4.5.47.5.2 0 .47-.14.47-.47a.45.45 0 0 0-.47-.47l-.1.01c.21-.64.79-.92 1.27-.92.91 0 1.22.85 1.22 1.47 0 .9-.68 1.66-1.1 2.13L.55-.33c-.1.11-.1.13-.1.33h3.43Zm0 0" style="stroke:none"/></symbol><symbol id="h" overflow="visible"><path d="M2.73-3.16c.83-.3 1.24-.96 1.24-1.59 0-.69-.77-1.22-1.7-1.22S.64-5.44.64-4.77c0 .3.19.47.45.47.27 0 .46-.18.46-.45 0-.31-.22-.44-.53-.44.23-.37.78-.56 1.23-.56.73 0 .88.6.88 1.02 0 .26-.05.7-.27 1.04-.28.4-.6.4-.86.44l-.31.02q-.14-.02-.16.1c0 .13.08.13.24.13h.4c.78 0 1.13.63 1.13 1.47 0 1.16-.61 1.48-1.07 1.48C2.06-.05 1.2-.09.8-.77c.3.05.56-.17.56-.48s-.22-.48-.49-.48c-.21 0-.48.14-.48.51C.4-.42 1.22.2 2.27.2c1.1 0 1.95-.8 1.95-1.73 0-.78-.63-1.44-1.49-1.63m0 0" style="stroke:none"/></symbol><symbol id="e" overflow="visible"><path d="M1.77-.48a.5.5 0 0 0-.49-.49.5.5 0 0 0-.48.49c0 .26.2.48.48.48s.49-.22.49-.48m0 0" style="stroke:none"/></symbol><symbol id="j" overflow="visible"><path d="M3.95-3.78c-.17 0-.3 0-.43.12a.5.5 0 0 0-.2.4c0 .24.2.35.38.35.28 0 .55-.25.55-.64 0-.48-.47-.86-1.17-.86C1.73-4.4.4-2.98.4-1.58.4-.68.98.11 2.03.11 3.45.1 4.28-.95 4.28-1.06c0-.06-.05-.14-.1-.14-.07 0-.09.03-.15.1-.78 1-1.87 1-1.98 1-.63 0-.9-.5-.9-1.1 0-.4.2-1.38.54-1.99.31-.58.86-1 1.4-1 .33 0 .72.13.86.4m0 0" style="stroke:none"/></symbol><symbol id="m" overflow="visible"><path d="m.88-.6-.1.44c0 .18.14.27.3.27.12 0 .3-.08.37-.28.02-.03.35-1.4.4-1.58.07-.33.26-1.02.3-1.3.05-.12.33-.6.57-.8.08-.07.37-.34.8-.34.26 0 .4.13.42.13-.3.04-.52.28-.52.54 0 .16.11.35.38.35.26 0 .54-.24.54-.6 0-.34-.3-.64-.82-.64-.64 0-1.08.49-1.27.77a.9.9 0 0 0-.92-.77c-.46 0-.64.4-.74.57-.17.34-.3.93-.3.96 0 .11.1.11.12.11.1 0 .1-.01.17-.23.17-.7.37-1.19.73-1.19.16 0 .3.08.3.46 0 .21-.03.32-.16.84Zm0 0" style="stroke:none"/></symbol><symbol id="k" overflow="visible"><path d="M1.9-2.5a.52.52 0 1 0-1.05.02.52.52 0 0 0 1.06-.02m0 0" style="stroke:none"/></symbol><symbol id="l" overflow="visible"><path d="M2.5-6.92 1.16-5.56l.17.17L2.5-6.41l1.14 1.02.17-.17Zm0 0" style="stroke:none"/></symbol><symbol id="n" overflow="visible"><path d="M-7.14-1.72c-.16 0-.34 0-.34.2s.23.2.37.2h9.24c.15 0 .37 0 .37-.2s-.19-.2-.34-.2Zm.03-1.94c-.16 0-.37 0-.37.2s.18.2.34.2h9.3c.15 0 .34 0 .34-.2s-.23-.2-.37-.2Zm0 0" style="stroke:none"/></symbol><symbol id="o" overflow="visible"><path d="M-3.78-3.95c0 .17 0 .3.12.43.16.18.33.2.4.2.24 0 .35-.2.35-.38 0-.28-.25-.55-.64-.55-.48 0-.86.47-.86 1.17C-4.4-1.73-2.98-.4-1.58-.4-.68-.4.11-.98.11-2.03c0-1.42-1.06-2.25-1.17-2.25-.06 0-.14.05-.14.1 0 .07.03.09.1.15 1 .78 1 1.87 1 1.98 0 .63-.5.9-1.1.9-.4 0-1.38-.2-1.99-.54-.58-.31-1-.86-1-1.4 0-.33.13-.72.4-.86m0 0" style="stroke:none"/></symbol><symbol id="p" overflow="visible"><path d="M-1.4-1.64c-.05 0-.68-.17-.7-.17-.07-.02-.42-.22-.59-.46-.04-.06-.19-.25-.19-.56 0-.06 0-.23.1-.37.06.22.26.3.39.3.14 0 .25-.12.25-.27 0-.17-.13-.4-.42-.4-.36 0-.52.38-.52.74q0 .52.5.99c-.42.12-.5.54-.5.72 0 .25.17.42.36.54.27.16.67.25.72.25.08 0 .08-.1.08-.12 0-.1-.02-.1-.2-.14-.43-.11-.75-.25-.75-.52 0-.19.15-.23.34-.23.12 0 .39.06.58.12l.62.14.9.24.27.06c.16 0 .22-.13.22-.24s-.06-.25-.18-.3c-.05 0-.36-.09-.54-.13Zm0 0" style="stroke:none"/></symbol><symbol id="q" overflow="visible"><path d="M-1.6-1.56c0-.19 0-.75-.13-1.13-.2-.51-.52-.6-.72-.6-.4 0-.63.38-.63.85 0 .85.64 1.97 1.85 1.97.7 0 1.3-.44 1.3-1.25 0-1.19-.7-1.73-.79-1.73-.05 0-.12.06-.12.12q-.01.03.07.11c.65.55.65 1.36.65 1.49 0 .42-.29.7-.85.7-.1 0-.23 0-.62-.1Zm-.18.39c-1.02-.3-1.1-1.06-1.1-1.27 0-.3.16-.56.43-.56.67 0 .67 1.19.67 1.48Zm0 0" style="stroke:none"/></symbol><symbol id="r" overflow="visible"><path d="M-2.75-1.72v-.7c0-.14 0-.22-.16-.22-.09 0-.09.08-.09.2v.66l-1.03-.25-.1-.03q-.22.01-.23.25c0 .17.13.26.3.33.18.04-.16-.05 1.06.26v.7c0 .13 0 .22.16.22.09 0 .09-.08.09-.2v-.66l1.64.41c.17.05.42.1.52.1.4 0 .65-.35.65-.74C.06-2.17-.9-2.61-1-2.61s-.1.1-.1.11c0 .1.02.1.15.16.43.18.83.54.83.92q.01.24-.35.25c-.06 0-.22-.03-.28-.05Zm0 0" style="stroke:none"/></symbol><clipPath id="a"><path d="M0 0h252.27v183.14H0Zm0 0"/></clipPath><clipPath id="i"><path d="M21 1.94h226.84V146H21Zm0 0"/></clipPath></defs><g clip-path="url(#a)"><path d="M0 183.14h252.27V0H0Zm0 0" style="stroke:none;fill-rule:nonzero;fill:#ffe4c8;fill-opacity:1"/></g><path d="M0 0v153.6M59.36 0v153.6M178.08 0v153.6M237.44 0v153.6M0 21.33h238.63M0 42.67h238.63M0 64h238.63M0 85.33h238.63M0 106.66h238.63M0 128h238.63M0 149.33h238.63" style="fill:none;stroke-width:.3985;stroke-linecap:butt;stroke-linejoin:miter;stroke:#d9d9d9;stroke-opacity:1;stroke-dasharray:2.98883,2.98883;stroke-miterlimit:10" transform="matrix(1 0 0 -1 9.2 155.53)"/><path d="M0-2.13v4.26m59.36-4.26v4.26m118.72-4.26v4.26m59.36-4.26v4.26M116.6 21.33h4.25m-4.25 21.34h4.25M116.6 64h4.25m-4.25 21.33h4.25m-4.25 21.33h4.25M116.6 128h4.25m-4.25 21.34h4.25" style="fill:none;stroke-width:.19925;stroke-linecap:butt;stroke-linejoin:miter;stroke:gray;stroke-opacity:1;stroke-miterlimit:10" transform="matrix(1 0 0 -1 9.2 155.53)"/><path d="M0 0h238.63M118.72 0v153.6" style="fill:none;stroke-width:.3985;stroke-linecap:butt;stroke-linejoin:miter;stroke:#000;stroke-opacity:1;stroke-miterlimit:10" transform="matrix(1 0 0 -1 9.2 155.53)"/><use xlink:href="#b" x="3.32" y="166.96" style="fill:#000;fill-opacity:1"/><use xlink:href="#c" x="10.49" y="166.96" style="fill:#000;fill-opacity:1"/><use xlink:href="#b" x="59.1" y="166.96" style="fill:#000;fill-opacity:1"/><use xlink:href="#d" x="66.26" y="166.96" style="fill:#000;fill-opacity:1"/><use xlink:href="#e" x="70.87" y="166.96" style="fill:#000;fill-opacity:1"/><use xlink:href="#f" x="73.43" y="166.96" style="fill:#000;fill-opacity:1"/><use xlink:href="#d" x="181.4" y="166.96" style="fill:#000;fill-opacity:1"/><use xlink:href="#e" x="186.01" y="166.96" style="fill:#000;fill-opacity:1"/><use xlink:href="#f" x="188.57" y="166.96" style="fill:#000;fill-opacity:1"/><use xlink:href="#c" x="244.35" y="166.96" style="fill:#000;fill-opacity:1"/><use xlink:href="#d" x="110.51" y="137.09" style="fill:#000;fill-opacity:1"/><use xlink:href="#e" x="115.12" y="137.09" style="fill:#000;fill-opacity:1"/><use xlink:href="#f" x="117.68" y="137.09" style="fill:#000;fill-opacity:1"/><use xlink:href="#c" x="117.68" y="115.76" style="fill:#000;fill-opacity:1"/><use xlink:href="#c" x="110.51" y="94.43" style="fill:#000;fill-opacity:1"/><use xlink:href="#e" x="115.12" y="94.43" style="fill:#000;fill-opacity:1"/><use xlink:href="#f" x="117.68" y="94.43" style="fill:#000;fill-opacity:1"/><use xlink:href="#g" x="117.68" y="73.09" style="fill:#000;fill-opacity:1"/><use xlink:href="#g" x="110.51" y="51.76" style="fill:#000;fill-opacity:1"/><use xlink:href="#e" x="115.12" y="51.76" style="fill:#000;fill-opacity:1"/><use xlink:href="#f" x="117.68" y="51.76" style="fill:#000;fill-opacity:1"/><use xlink:href="#h" x="117.68" y="30.43" style="fill:#000;fill-opacity:1"/><use xlink:href="#h" x="110.51" y="9.1" style="fill:#000;fill-opacity:1"/><use xlink:href="#e" x="115.12" y="9.1" style="fill:#000;fill-opacity:1"/><use xlink:href="#f" x="117.68" y="9.1" style="fill:#000;fill-opacity:1"/><path d="M118.72-2.13v4.26" style="fill:none;stroke-width:.19925;stroke-linecap:butt;stroke-linejoin:miter;stroke:gray;stroke-opacity:1;stroke-miterlimit:10" transform="matrix(1 0 0 -1 9.2 155.53)"/><use xlink:href="#d" x="125.63" y="166.96" style="fill:#000;fill-opacity:1"/><g clip-path="url(#i)"><path d="m23.75 213.32 2.14-17.69 2.15-14.98 2.14-12.84 2.15-11.14 2.15-9.75 2.14-8.61 2.15-7.66 2.15-6.86 2.14-6.16 2.15-5.6 2.14-5.07 2.15-4.64 2.15-4.25 2.15-3.92 2.14-3.6 2.15-3.35 2.14-3.1 2.15-2.9 2.15-2.7 2.14-2.54 2.15-2.36 2.15-2.22 2.14-2.1 2.15-1.98 2.15-1.86 2.14-1.77 2.15-1.68 2.15-1.58 2.15-1.5 2.14-1.44 2.15-1.37 2.14-1.3 2.15-1.24 2.15-1.2 2.14-1.13 2.15-1.1 2.15-1.03 2.14-1 2.15-.96 2.14-.93 2.15-.89 2.15-.85 2.15-.82 2.14-.8 2.15-.76 2.14-.74 2.15-.7 2.15-.7 2.14-.66 2.15-.64 2.15-.63 2.14-.6 2.15-.59 2.15-.56 2.14-.55 2.15-.53 2.15-.52 2.14-.5 2.15-.49 2.14-.47 2.15-.47 2.15-.44 2.15-.44 2.14-.42 2.15-.41 2.14-.4 2.15-.4 2.15-.38 2.14-.38 2.15-.36 2.15-.35 2.14-.35 2.15-.34 2.14-.33 2.15-.32 2.15-.32 2.15-.3 2.14-.3 2.15-.3 2.14-.29 2.15-.28 2.15-.27 2.15-.27 2.14-.27 2.15-.26 2.14-.25 2.15-.25 2.15-.24 2.14-.24 2.15-.23 2.15-.23 2.14-.22 2.15-.22 2.14-.22 2.15-.21 2.15-.2 2.15-.21 2.14-.2 2.15-.2" style="fill:none;stroke-width:.79701;stroke-linecap:butt;stroke-linejoin:miter;stroke:#000;stroke-opacity:1;stroke-miterlimit:10" transform="matrix(1 0 0 -1 9.2 155.53)"/></g><use xlink:href="#j" x="132.04" y="177.82" style="fill:#000;fill-opacity:1"/><path d="M0 0h4.31" style="fill:none;stroke-width:.398;stroke-linecap:butt;stroke-linejoin:miter;stroke:#000;stroke-opacity:1;stroke-miterlimit:10" transform="matrix(1 0 0 -1 132.04 179.22)"/><use xlink:href="#k" x="138.57" y="177.82" style="fill:#000;fill-opacity:1"/><use xlink:href="#l" x="144" y="177.82" style="fill:#000;fill-opacity:1"/><use xlink:href="#m" x="143.55" y="177.82" style="fill:#000;fill-opacity:1"/><path d="M0 0h4.77" style="fill:none;stroke-width:.398;stroke-linecap:butt;stroke-linejoin:miter;stroke:#000;stroke-opacity:1;stroke-miterlimit:10" transform="matrix(1 0 0 -1 143.55 179.22)"/><use xlink:href="#n" x="101.18" y="91.47" style="fill:#000;fill-opacity:1"/><use xlink:href="#o" x="101.18" y="86.49" style="fill:#000;fill-opacity:1"/><path d="M0 0h4.31" style="fill:none;stroke-width:.398;stroke-linecap:butt;stroke-linejoin:miter;stroke:#000;stroke-opacity:1;stroke-miterlimit:10" transform="matrix(0 -1 -1 0 102.57 86.5)"/><use xlink:href="#p" x="103.67" y="82.18" style="fill:#000;fill-opacity:1"/><g style="fill:#000;fill-opacity:1"><use xlink:href="#q" x="103.67" y="78.27"/><use xlink:href="#r" x="103.67" y="74.49"/></g><use xlink:href="#n" x="101.18" y="70.98" style="fill:#000;fill-opacity:1"/></svg>