<svg xmlns="http://www.w3.org/2000/svg" xmlns:xlink="http://www.w3.org/1999/xlink" width="232.85" height="134.67" viewBox="0 0 174.64 101"><desc>A figure created by Phy-Hub, for The Handbook of Special Relativity</desc><defs><symbol id="b" overflow="visible"><path d="M4.84-3.8c.05-.14.05-.15.05-.23 0-.17-.14-.27-.3-.27-.09 0-.25.07-.34.2l-.14.55q-.12.38-.2.8l-.46 1.8c-.03.14-.47.84-1.12.84-.5 0-.61-.44-.61-.81q0-.66.5-1.95c.15-.41.2-.52.2-.72a.8.8 0 0 0-.81-.82C.66-4.4.3-2.95.3-2.87c0 .1.1.1.1.1.12 0 .12-.03.16-.18.28-.94.67-1.24 1.02-1.24.08 0 .25 0 .25.32 0 .25-.11.51-.17.7a6 6 0 0 0-.58 2.1C1.08-.2 1.7.1 2.3.1q.58-.02 1-.45a4 4 0 0 1-.64 1.54c-.27.33-.64.63-1.1.63-.14 0-.6-.03-.76-.42.15 0 .3 0 .42-.13a.5.5 0 0 0 .2-.4c0-.32-.26-.35-.36-.35C.83.53.5.7.5 1.17c0 .5.44.88 1.06.88 1.02 0 2.05-.9 2.33-2.03Zm0 0" style="stroke:none"/></symbol><symbol id="c" overflow="visible"><path d="M1.33-.83c.53-.58.83-.83 1.19-1.14 0 0 .6-.53.96-.89.96-.92 1.18-1.4 1.18-1.45 0-.1-.1-.1-.11-.1-.08 0-.1.02-.16.11-.3.49-.5.64-.73.64-.25 0-.36-.15-.52-.32-.19-.22-.36-.43-.69-.43-.75 0-1.2.93-1.2 1.14q0 .1.1.11c.1 0 .12-.04.15-.1.19-.47.77-.47.84-.47q.3.01.63.14c.4.15.51.15.76.15a16 16 0 0 1-1.37 1.3l-.9.84A5 5 0 0 0 .41.02C.42.1.53.1.55.1Q.64.13.7-.02c.24-.35.53-.62.86-.62.22 0 .33.1.58.37.16.22.34.38.63.38 1 0 1.57-1.27 1.57-1.53q0-.1-.12-.11c-.1 0-.11.06-.14.14-.24.64-.88.83-1.2.83Q2.59-.57 2.3-.7c-.35-.12-.5-.17-.7-.17-.02 0-.18 0-.27.03m0 0" style="stroke:none"/></symbol><symbol id="e" overflow="visible"><path d="M3.33-3.02c.06-.25.3-1.17.98-1.17a1 1 0 0 1 .5.13.6.6 0 0 0-.47.54c0 .16.11.35.38.35.22 0 .53-.17.53-.58 0-.52-.58-.66-.92-.66-.58 0-.92.54-1.05.75A1.1 1.1 0 0 0 2.2-4.4C1.17-4.4.6-3.12.6-2.87c0 .1.1.1.12.1q.1 0 .12-.1c.35-1.07 1-1.32 1.35-1.32.19 0 .53.1.53.67 0 .32-.17.97-.53 2.38-.16.6-.52 1.03-.96 1.03-.06 0-.28 0-.5-.12.25-.07.47-.27.47-.55 0-.27-.22-.34-.36-.34-.3 0-.54.25-.54.57 0 .46.48.66.92.66.67 0 1.03-.7 1.05-.75.12.36.48.75 1.07.75 1.04 0 1.6-1.28 1.6-1.53 0-.11-.08-.11-.11-.11-.1 0-.11.05-.14.1C4.36-.33 3.69-.1 3.37-.1c-.39 0-.54-.31-.54-.66 0-.21.04-.43.15-.87Zm0 0" style="stroke:none"/></symbol><symbol id="f" overflow="visible"><path d="m.88-.6-.1.44c0 .18.14.27.3.27.12 0 .3-.08.37-.28.02-.03.35-1.4.4-1.58.07-.33.26-1.02.3-1.3.05-.12.33-.6.57-.8.08-.07.37-.34.8-.34.26 0 .4.13.42.13-.3.04-.52.28-.52.54 0 .16.11.35.38.35.26 0 .54-.24.54-.6 0-.34-.3-.64-.82-.64-.64 0-1.08.49-1.27.77a.9.9 0 0 0-.92-.77c-.46 0-.64.4-.74.57-.17.34-.3.93-.3.96 0 .11.1.11.12.11.1 0 .1-.01.17-.23.17-.7.37-1.19.73-1.19.16 0 .3.08.3.46 0 .21-.03.32-.16.84Zm0 0" style="stroke:none"/></symbol><symbol id="k" overflow="visible"><path d="M3.48-.56c.11.4.47.67.9.67.34 0 .57-.23.73-.55a5 5 0 0 0 .3-.98c0-.11-.08-.11-.11-.11-.11 0-.11.05-.14.19-.14.56-.33 1.23-.75 1.23-.2 0-.32-.12-.32-.45 0-.22.13-.69.2-1.05l.29-1.08.17-.67c.05-.23.14-.6.14-.67 0-.17-.14-.27-.28-.27-.05 0-.31.02-.4.35l-.74 3c-.02.04-.4.84-1.14.84-.52 0-.61-.45-.61-.81a7 7 0 0 1 .53-2.03c.13-.32.17-.46.17-.64a.8.8 0 0 0-.81-.82C.66-4.4.3-2.95.3-2.87c0 .1.1.1.1.1.12 0 .12-.03.16-.18.25-.86.64-1.24 1.02-1.24.1 0 .25.02.25.33 0 .23-.11.53-.17.67-.38 1-.58 1.61-.58 2.1 0 .95.69 1.2 1.22 1.2.65 0 1.01-.45 1.18-.67m0 0" style="stroke:none"/></symbol><symbol id="m" overflow="visible"><path d="M2.05-3.98h.93c.2 0 .32 0 .32-.2 0-.12-.11-.12-.28-.12h-.88c.36-1.42.4-1.6.4-1.67q-.02-.26-.29-.26c-.03 0-.31 0-.4.36L1.48-4.3H.53c-.2 0-.3 0-.3.2 0 .12.08.12.29.12h.87C.67-1.16.63-.98.63-.81c0 .54.37.92.92.92 1.01 0 1.58-1.45 1.58-1.53 0-.11-.08-.11-.11-.11-.1 0-.11.03-.16.14C2.44-.34 1.9-.11 1.56-.11c-.2 0-.31-.12-.31-.45 0-.25.03-.31.06-.49Zm0 0" style="stroke:none"/></symbol><symbol id="g" overflow="visible"><path d="M1.64-1.4c0-.05.17-.68.17-.7.02-.07.22-.42.46-.59.06-.04.25-.19.56-.19.06 0 .23 0 .37.1a.4.4 0 0 0-.3.39c0 .14.12.25.27.25.17 0 .4-.13.4-.42 0-.36-.38-.52-.74-.52q-.52 0-.99.5c-.12-.42-.54-.5-.72-.5-.25 0-.42.17-.54.36A2 2 0 0 0 .33-2c0 .08.1.08.12.08.1 0 .1-.02.14-.2.11-.43.25-.75.52-.75.19 0 .23.15.23.34 0 .12-.06.39-.12.58l-.14.62-.24.9-.06.27c0 .16.13.22.24.22s.25-.06.3-.18c0-.05.09-.36.13-.54Zm0 0" style="stroke:none"/></symbol><symbol id="h" overflow="visible"><path d="M1.56-1.6c.19 0 .75 0 1.13-.13.51-.2.6-.52.6-.72 0-.4-.38-.63-.85-.63-.85 0-1.97.64-1.97 1.85 0 .7.44 1.3 1.25 1.3 1.19 0 1.73-.7 1.73-.79 0-.05-.06-.12-.12-.12q-.03-.01-.11.07c-.55.65-1.36.65-1.49.65-.42 0-.7-.29-.7-.85 0-.1 0-.23.1-.62Zm-.39-.18c.3-1.02 1.06-1.1 1.27-1.1.3 0 .56.16.56.43 0 .67-1.19.67-1.48.67Zm0 0" style="stroke:none"/></symbol><symbol id="i" overflow="visible"><path d="M1.72-2.75h.7c.14 0 .22 0 .22-.16 0-.09-.08-.09-.2-.09h-.66l.25-1.03.03-.1q-.01-.22-.25-.23c-.17 0-.26.13-.33.3-.04.18.05-.16-.26 1.06h-.7C.39-3 .3-3 .3-2.84c0 .09.08.09.2.09h.66L.75-1.11c-.05.17-.1.42-.1.52 0 .4.35.65.74.65C2.17.06 2.61-.9 2.61-1s-.1-.1-.11-.1c-.1 0-.1.02-.16.15-.18.43-.54.83-.92.83q-.24.01-.25-.35c0-.06.03-.22.05-.28Zm0 0" style="stroke:none"/></symbol><symbol id="j" overflow="visible"><path d="M4.08-2.3h2.78c.14 0 .33 0 .33-.2 0-.19-.19-.19-.33-.19H4.08v-2.8c0-.13 0-.32-.2-.32s-.2.18-.2.33v2.8H.88c-.14 0-.33 0-.33.18 0 .2.19.2.33.2h2.78V.5c0 .14 0 .33.2.33s.2-.19.2-.33Zm0 0" style="stroke:none"/></symbol><symbol id="l" overflow="visible"><path d="M3.78-.55v.66L5.25 0v-.31c-.69 0-.78-.06-.78-.56v-6.05l-1.42.1v.32c.68 0 .76.06.76.56v2.16a1.6 1.6 0 0 0-1.25-.63C1.4-4.4.34-3.42.34-2.14.34-.87 1.31.1 2.45.1c.64 0 1.08-.34 1.33-.66m0-2.67v2.05c0 .17 0 .19-.1.36-.3.48-.74.7-1.18.7-.45 0-.81-.26-1.05-.64-.25-.4-.28-.97-.28-1.4 0-.35.02-.94.3-1.4.22-.3.6-.64 1.14-.64.34 0 .77.16 1.06.6.11.17.11.18.11.37m0 0" style="stroke:none"/></symbol><clipPath id="a"><path d="M0 0h174.64v101H0Zm0 0"/></clipPath><clipPath id="d"><path d="M2 59h53v42H2Zm0 0"/></clipPath></defs><g clip-path="url(#a)"><path d="M0 101h174.64V0H0Zm0 0" style="stroke:none;fill-rule:nonzero;fill:#ffe4c8;fill-opacity:1"/></g><path d="M0 0h55.9" style="fill:none;stroke-width:.79701;stroke-linecap:butt;stroke-linejoin:miter;stroke:#000;stroke-opacity:1;stroke-miterlimit:10" transform="matrix(1 0 0 -1 42.74 70.31)"/><path d="M-2.55 3.11C-2.1 1.25-1.05.36 0 0c-1.05-.36-2.09-1.24-2.55-3.11" style="fill:none;stroke-width:.79701;stroke-linecap:round;stroke-linejoin:round;stroke:#000;stroke-opacity:1;stroke-miterlimit:10" transform="matrix(1 0 0 -1 99.04 70.31)"/><use xlink:href="#b" x="90.48" y="78.32" style="fill:#000;fill-opacity:1"/><path d="M0 0v55.9" style="fill:none;stroke-width:.79701;stroke-linecap:butt;stroke-linejoin:miter;stroke:#000;stroke-opacity:1;stroke-miterlimit:10" transform="matrix(1 0 0 -1 42.74 70.31)"/><path d="M-2.55 3.11C-2.08 1.25-1.05.36 0 0c-1.04-.36-2.08-1.24-2.55-3.11" style="fill:none;stroke-width:.79701;stroke-linecap:round;stroke-linejoin:round;stroke:#000;stroke-opacity:1;stroke-miterlimit:10" transform="matrix(0 -1 -1 0 42.74 14.02)"/><use xlink:href="#c" x="33.95" y="21.63" style="fill:#000;fill-opacity:1"/><g clip-path="url(#d)"><path d="m0 0-29.45-29.45" style="fill:none;stroke-width:.79701;stroke-linecap:butt;stroke-linejoin:miter;stroke:#000;stroke-opacity:1;stroke-miterlimit:10" transform="matrix(1 0 0 -1 42.74 70.31)"/></g><path d="M-2.55 3.11C-2.08 1.24-1.05.36 0 .01c-1.04-.37-2.09-1.25-2.55-3.12" style="fill:none;stroke-width:.79701;stroke-linecap:round;stroke-linejoin:round;stroke:#000;stroke-opacity:1;stroke-miterlimit:10" transform="rotate(135 -14.21 52.72)scale(1 -1)"/><use xlink:href="#e" x="3.32" y="96.61" style="fill:#000;fill-opacity:1"/><path d="M.56.56 56.7 56.7" style="fill:none;stroke-width:.79701;stroke-linecap:butt;stroke-linejoin:miter;stroke:red;stroke-opacity:1;stroke-dasharray:.79701,1.99255;stroke-miterlimit:10" transform="matrix(1 0 0 -1 42.74 70.31)"/><path d="M-2.55 3.11C-2.08 1.24-1.05.36 0 .01c-1.05-.37-2.09-1.25-2.55-3.12" style="fill:none;stroke-width:.79701;stroke-linecap:round;stroke-linejoin:round;stroke:red;stroke-opacity:1;stroke-miterlimit:10" transform="rotate(135 7.01 43.93)scale(1 -1)"/><path d="m.68.41 70.19 42.1" style="fill:none;stroke-width:.79701;stroke-linecap:butt;stroke-linejoin:miter;stroke:red;stroke-opacity:1;stroke-dasharray:.79701,1.99255;stroke-miterlimit:10" transform="matrix(1 0 0 -1 42.74 70.31)"/><path d="M-2.55 3.11C-2.1 1.25-1.05.36 0 0c-1.05-.36-2.08-1.24-2.55-3.11" style="fill:none;stroke-width:.79701;stroke-linecap:round;stroke-linejoin:round;stroke:red;stroke-opacity:1;stroke-miterlimit:10" transform="matrix(-.85747 .5145 .5145 .85747 43.09 70.1)"/><path d="m56.7 56.7 12.19-12.2" style="fill:none;stroke-width:.79701;stroke-linecap:butt;stroke-linejoin:miter;stroke:#00f;stroke-opacity:1;stroke-miterlimit:10" transform="matrix(1 0 0 -1 42.74 70.31)"/><path d="M-2.55 3.11C-2.08 1.25-1.05.36 0 0c-1.05-.36-2.08-1.25-2.55-3.11" style="fill:none;stroke-width:.79701;stroke-linecap:round;stroke-linejoin:round;stroke:#00f;stroke-opacity:1;stroke-miterlimit:10" transform="rotate(45 24.46 148.15)scale(.99997 -.99997)"/><path d="M101.43 13.62a2 2 0 1 0-3.99 0 2 2 0 0 0 3.99 0m0 0" style="stroke:none;fill-rule:nonzero;fill:#00f;fill-opacity:1"/><use xlink:href="#f" x="91.45" y="7.61" style="fill:#00f;fill-opacity:1"/><path d="M0 0h4.77" style="fill:none;stroke-width:.398;stroke-linecap:butt;stroke-linejoin:miter;stroke:#00f;stroke-opacity:1;stroke-miterlimit:10" transform="matrix(1 0 0 -1 91.45 9)"/><use xlink:href="#g" x="96.22" y="10.1" style="fill:#00f;fill-opacity:1"/><g style="fill:#00f;fill-opacity:1"><use xlink:href="#h" x="100.14" y="10.1"/><use xlink:href="#i" x="103.92" y="10.1"/></g><path d="M115.6 27.8a2 2 0 1 0-3.98 0 2 2 0 0 0 3.99 0m0 0" style="stroke:none;fill-rule:nonzero;fill:#00f;fill-opacity:1"/><use xlink:href="#f" x="117.13" y="30.01" style="fill:#00f;fill-opacity:1"/><path d="M0 0h4.77" style="fill:none;stroke-width:.398;stroke-linecap:butt;stroke-linejoin:miter;stroke:#00f;stroke-opacity:1;stroke-miterlimit:10" transform="matrix(1 0 0 -1 117.13 31.4)"/><use xlink:href="#g" x="121.9" y="32.5" style="fill:#00f;fill-opacity:1"/><g style="fill:#00f;fill-opacity:1"><use xlink:href="#h" x="125.82" y="32.5"/><use xlink:href="#i" x="129.6" y="32.5"/></g><use xlink:href="#j" x="135.32" y="30.01" style="fill:#00f;fill-opacity:1"/><use xlink:href="#k" x="145.28" y="30.01" style="fill:#00f;fill-opacity:1"/><path d="M0 0h5.7" style="fill:none;stroke-width:.398;stroke-linecap:butt;stroke-linejoin:miter;stroke:#00f;stroke-opacity:1;stroke-miterlimit:10" transform="matrix(1 0 0 -1 145.28 31.4)"/><use xlink:href="#g" x="150.98" y="32.5" style="fill:#00f;fill-opacity:1"/><g style="fill:#00f;fill-opacity:1"><use xlink:href="#h" x="154.9" y="32.5"/><use xlink:href="#i" x="158.68" y="32.5"/></g><use xlink:href="#l" x="162.18" y="30.01" style="fill:#00f;fill-opacity:1"/><use xlink:href="#m" x="167.72" y="30.01" style="fill:#00f;fill-opacity:1"/></svg>