<svg data-optimized="true" xmlns="http://www.w3.org/2000/svg" xmlns:xlink="http://www.w3.org/1999/xlink" width="82.083" height="53.853" viewBox="0 0 61.562 40.39"><defs><symbol id="a" overflow="visible"><path d="M4.75-2.36c0-1.562-.922-2.046-1.656-2.046-1.375 0-2.688 1.422-2.688 2.828C.406-.641 1 .109 2.031.109c.625 0 1.344-.234 2.094-.843.125.53.453.843.906.843.532 0 .844-.546.844-.703 0-.078-.062-.11-.125-.11-.062 0-.094.032-.125.11-.187.485-.547.485-.562.485-.313 0-.313-.782-.313-1.016 0-.203 0-.234.11-.344C5.796-2.656 6-3.812 6-3.812c0-.032-.016-.11-.125-.11-.094 0-.094.031-.14.219-.188.625-.516 1.375-.985 1.969ZM4.094-.983c-.89.765-1.657.875-2.047.875-.594 0-.906-.453-.906-1.094 0-.484.265-1.563.578-2.063.468-.734 1.015-.921 1.36-.921.983 0 .983 1.312.983 2.078 0 .375 0 .953.032 1.125m0 0" style="stroke:none"/></symbol><symbol id="b" overflow="visible"><path d="M3.953-3.781c-.172 0-.297 0-.437.125a.53.53 0 0 0-.188.39c0 .25.188.36.375.36.281 0 .547-.25.547-.64 0-.485-.469-.86-1.172-.86-1.344 0-2.672 1.422-2.672 2.828C.406-.672.984.109 2.031.109c1.422 0 2.25-1.062 2.25-1.171 0-.063-.047-.141-.11-.141-.062 0-.077.031-.14.11-.781.984-1.875.984-1.984.984-.625 0-.906-.485-.906-1.094 0-.406.203-1.375.547-1.984.312-.579.859-1 1.406-1 .328 0 .719.125.86.406m0 0" style="stroke:none"/></symbol><symbol id="c" overflow="visible"><path d="M3.484-.562c.11.406.47.671.891.671.344 0 .578-.234.734-.546.172-.36.297-.97.297-.985 0-.11-.078-.11-.11-.11-.109 0-.109.048-.14.188-.14.563-.328 1.235-.75 1.235-.203 0-.312-.125-.312-.453 0-.22.125-.688.203-1.047l.281-1.078c.031-.141.125-.516.172-.672.047-.235.14-.61.14-.672 0-.172-.14-.266-.28-.266-.048 0-.313.016-.391.344a419 419 0 0 0-.75 3c-.016.047-.406.844-1.14.844-.517 0-.61-.453-.61-.813 0-.562.281-1.344.531-2.031.125-.313.172-.453.172-.64 0-.438-.313-.813-.813-.813-.953 0-1.312 1.453-1.312 1.531 0 .11.094.11.11.11.109 0 .109-.032.156-.188.25-.86.64-1.235 1.015-1.235.094 0 .25.016.25.329 0 .234-.11.53-.172.672-.375 1-.578 1.609-.578 2.093C1.078-.14 1.766.11 2.297.11c.656 0 1.015-.453 1.187-.671m0 0" style="stroke:none"/></symbol><clipPath id="d"><path d="M7 29h12v11.39H7Zm0 0"/></clipPath></defs><path d="M0 40.39h61.563V0H0Zm0 0" style="stroke:none;fill-rule:nonzero;fill:#ffe4c8;fill-opacity:1"/><path d="M0 15.877A10.745 10.745 0 0 0 13.605 9.07" style="fill:none;stroke-width:.3985;stroke-linecap:butt;stroke-linejoin:miter;stroke:#000;stroke-opacity:1;stroke-miterlimit:10" transform="matrix(1 0 0 -1 13.141 34.811)"/><use xlink:href="#a" x="21.275" y="15.412" style="fill:#000;fill-opacity:1"/><path d="m0-.001 46.27 28.644" style="fill:none;stroke-width:1.59404;stroke-linecap:butt;stroke-linejoin:miter;stroke:#00adef;stroke-opacity:1;stroke-miterlimit:10" transform="matrix(1 0 0 -1 13.141 34.811)"/><path d="M-3.507 4.55C-2.867 1.82-1.437.53-.002 0c-1.436-.531-2.863-1.82-3.506-4.551" style="fill:none;stroke-width:1.59404;stroke-linecap:round;stroke-linejoin:round;stroke:#00adef;stroke-opacity:1;stroke-miterlimit:10" transform="scale(.99996 -.99996)rotate(31.76 40.15 102.74)"/><use xlink:href="#b" x="34.797" y="28.477" style="fill:#00adef;fill-opacity:1"/><path d="M0 0h4.312" style="fill:none;stroke-width:.398;stroke-linecap:butt;stroke-linejoin:miter;stroke:#00adef;stroke-opacity:1;stroke-miterlimit:10" transform="matrix(1 0 0 -1 34.797 29.872)"/><path d="M0-.001V32.42" style="fill:none;stroke-width:1.59404;stroke-linecap:butt;stroke-linejoin:miter;stroke:#000;stroke-opacity:1;stroke-miterlimit:10" transform="matrix(1 0 0 -1 13.141 34.811)"/><path d="M-3.508 4.551c.64-2.73 2.07-4.02 3.508-4.55-1.438-.532-2.868-1.82-3.508-4.551" style="fill:none;stroke-width:1.59404;stroke-linecap:round;stroke-linejoin:round;stroke:#000;stroke-opacity:1;stroke-miterlimit:10" transform="matrix(0 -1 -1 0 13.141 1.593)"/><use xlink:href="#c" x="3.32" y="18.952" style="fill:#000;fill-opacity:1"/><path d="M0 0h5.703" style="fill:none;stroke-width:.398;stroke-linecap:butt;stroke-linejoin:miter;stroke:#000;stroke-opacity:1;stroke-miterlimit:10" transform="matrix(1 0 0 -1 3.32 20.347)"/><g clip-path="url(#d)"><path d="M18.719 34.813a5.58 5.58 0 0 0-5.578-5.583 5.58 5.58 0 0 0 0 11.16c3.082 0 5.578-2.5 5.578-5.578m0 0" style="stroke:none;fill-rule:nonzero;fill:#000;fill-opacity:1"/></g></svg>