<svg xmlns="http://www.w3.org/2000/svg" xmlns:xlink="http://www.w3.org/1999/xlink" width="198.55" height="219.14" viewBox="0 0 148.91 164.36"><defs><symbol id="b" overflow="visible"><path d="M3.9-3.73c-.27.01-.48.23-.48.45 0 .14.1.3.31.3.22 0 .46-.18.46-.57C4.19-4 3.77-4.4 3-4.4c-1.31 0-1.69 1.02-1.69 1.46 0 .78.74.92 1.03.98.52.11 1.04.22 1.04.77 0 .25-.22 1.1-1.43 1.1-.14 0-.9 0-1.14-.54.4.05.64-.25.64-.53 0-.22-.17-.35-.37-.35-.27 0-.56.2-.56.66 0 .56.57.97 1.42.97 1.62 0 2.01-1.2 2.01-1.66 0-.36-.18-.6-.3-.72-.27-.28-.57-.34-1-.42-.37-.08-.76-.15-.76-.6 0-.29.24-.9 1.11-.9.25 0 .75.08.9.46m0 0" style="stroke:none"/></symbol><symbol id="f" overflow="visible"><path d="M4.84-3.8c.05-.14.05-.15.05-.23 0-.17-.14-.27-.3-.27-.09 0-.25.07-.34.2l-.14.55q-.12.38-.2.8l-.46 1.8c-.03.14-.47.84-1.12.84-.5 0-.61-.44-.61-.81q0-.66.5-1.95c.15-.41.2-.52.2-.72a.8.8 0 0 0-.81-.82C.66-4.4.3-2.95.3-2.87c0 .1.1.1.1.1.12 0 .12-.03.16-.18.28-.94.67-1.24 1.02-1.24.08 0 .25 0 .25.32 0 .25-.11.51-.17.7a6 6 0 0 0-.58 2.1C1.08-.2 1.7.1 2.3.1q.58-.02 1-.45a4 4 0 0 1-.64 1.54c-.27.33-.64.63-1.1.63-.14 0-.6-.03-.76-.42.15 0 .3 0 .42-.13a.5.5 0 0 0 .2-.4c0-.32-.26-.35-.36-.35C.83.53.5.7.5 1.17c0 .5.44.88 1.06.88 1.02 0 2.05-.9 2.33-2.03Zm0 0" style="stroke:none"/></symbol><symbol id="i" overflow="visible"><path d="M1.33-.83c.53-.58.83-.83 1.19-1.14 0 0 .6-.53.96-.89.96-.92 1.18-1.4 1.18-1.45 0-.1-.1-.1-.11-.1-.08 0-.1.02-.16.11-.3.49-.5.64-.73.64-.25 0-.36-.15-.52-.32-.19-.22-.36-.43-.69-.43-.75 0-1.2.93-1.2 1.14q0 .1.1.11c.1 0 .12-.04.15-.1.19-.47.77-.47.84-.47q.3.01.63.14c.4.15.51.15.76.15a16 16 0 0 1-1.37 1.3l-.9.84A5 5 0 0 0 .41.02C.42.1.53.1.55.1Q.64.13.7-.02c.24-.35.53-.62.86-.62.22 0 .33.1.58.37.16.22.34.38.63.38 1 0 1.57-1.27 1.57-1.53q0-.1-.12-.11c-.1 0-.11.06-.14.14-.24.64-.88.83-1.2.83Q2.59-.57 2.3-.7c-.35-.12-.5-.17-.7-.17-.02 0-.18 0-.27.03m0 0" style="stroke:none"/></symbol><symbol id="j" overflow="visible"><path d="M3.33-3.02c.06-.25.3-1.17.98-1.17a1 1 0 0 1 .5.13.6.6 0 0 0-.47.54c0 .16.11.35.38.35.22 0 .53-.17.53-.58 0-.52-.58-.66-.92-.66-.58 0-.92.54-1.05.75A1.1 1.1 0 0 0 2.2-4.4C1.17-4.4.6-3.12.6-2.87c0 .1.1.1.12.1q.1 0 .12-.1c.35-1.07 1-1.32 1.35-1.32.19 0 .53.1.53.67 0 .32-.17.97-.53 2.38-.16.6-.52 1.03-.96 1.03-.06 0-.28 0-.5-.12.25-.07.47-.27.47-.55 0-.27-.22-.34-.36-.34-.3 0-.54.25-.54.57 0 .46.48.66.92.66.67 0 1.03-.7 1.05-.75.12.36.48.75 1.07.75 1.04 0 1.6-1.28 1.6-1.53 0-.11-.08-.11-.11-.11-.1 0-.11.05-.14.1C4.36-.33 3.69-.1 3.37-.1c-.39 0-.54-.31-.54-.66 0-.21.04-.43.15-.87Zm0 0" style="stroke:none"/></symbol><symbol id="o" overflow="visible"><path d="m.88-.6-.1.44c0 .18.14.27.3.27.12 0 .3-.08.37-.28.02-.03.35-1.4.4-1.58.07-.33.26-1.02.3-1.3.05-.12.33-.6.57-.8.08-.07.37-.34.8-.34.26 0 .4.13.42.13-.3.04-.52.28-.52.54 0 .16.11.35.38.35.26 0 .54-.24.54-.6 0-.34-.3-.64-.82-.64-.64 0-1.08.49-1.27.77a.9.9 0 0 0-.92-.77c-.46 0-.64.4-.74.57-.17.34-.3.93-.3.96 0 .11.1.11.12.11.1 0 .1-.01.17-.23.17-.7.37-1.19.73-1.19.16 0 .3.08.3.46 0 .21-.03.32-.16.84Zm0 0" style="stroke:none"/></symbol><symbol id="p" overflow="visible"><path d="M2.58-6.81s0-.11-.14-.11c-.22 0-.96.08-1.22.1-.08 0-.19.02-.19.21 0 .11.11.11.25.11.49 0 .5.1.5.17l-.03.2L.48-1.13a1 1 0 0 0-.04.33c0 .58.44.92.9.92q.5-.01.75-.56c.18-.38.3-.96.3-.97 0-.11-.1-.11-.12-.11-.1 0-.11.05-.13.19-.17.64-.36 1.23-.77 1.23-.3 0-.3-.31-.3-.45 0-.25.02-.3.07-.49Zm0 0" style="stroke:none"/></symbol><symbol id="q" overflow="visible"><path d="M3.48-.56c.11.4.47.67.9.67.34 0 .57-.23.73-.55a5 5 0 0 0 .3-.98c0-.11-.08-.11-.11-.11-.11 0-.11.05-.14.19-.14.56-.33 1.23-.75 1.23-.2 0-.32-.12-.32-.45 0-.22.13-.69.2-1.05l.29-1.08.17-.67c.05-.23.14-.6.14-.67 0-.17-.14-.27-.28-.27-.05 0-.31.02-.4.35l-.74 3c-.02.04-.4.84-1.14.84-.52 0-.61-.45-.61-.81a7 7 0 0 1 .53-2.03c.13-.32.17-.46.17-.64a.8.8 0 0 0-.81-.82C.66-4.4.3-2.95.3-2.87c0 .1.1.1.1.1.12 0 .12-.03.16-.18.25-.86.64-1.24 1.02-1.24.1 0 .25.02.25.33 0 .23-.11.53-.17.67-.38 1-.58 1.61-.58 2.1 0 .95.69 1.2 1.22 1.2.65 0 1.01-.45 1.18-.67m0 0" style="stroke:none"/></symbol><symbol id="c" overflow="visible"><path d="M1.64-1.4c0-.05.17-.68.17-.7.02-.07.22-.42.46-.59.06-.04.25-.19.56-.19.06 0 .23 0 .37.1a.4.4 0 0 0-.3.39c0 .14.12.25.27.25.17 0 .4-.13.4-.42 0-.36-.38-.52-.74-.52q-.52 0-.99.5c-.12-.42-.54-.5-.72-.5-.25 0-.42.17-.54.36A2 2 0 0 0 .33-2c0 .08.1.08.12.08.1 0 .1-.02.14-.2.11-.43.25-.75.52-.75.19 0 .23.15.23.34 0 .12-.06.39-.12.58l-.14.62-.24.9-.06.27c0 .16.13.22.24.22s.25-.06.3-.18c0-.05.09-.36.13-.54Zm0 0" style="stroke:none"/></symbol><symbol id="d" overflow="visible"><path d="M1.56-1.6c.19 0 .75 0 1.13-.13.51-.2.6-.52.6-.72 0-.4-.38-.63-.85-.63-.85 0-1.97.64-1.97 1.85 0 .7.44 1.3 1.25 1.3 1.19 0 1.73-.7 1.73-.79 0-.05-.06-.12-.12-.12q-.03-.01-.11.07c-.55.65-1.36.65-1.49.65-.42 0-.7-.29-.7-.85 0-.1 0-.23.1-.62Zm-.39-.18c.3-1.02 1.06-1.1 1.27-1.1.3 0 .56.16.56.43 0 .67-1.19.67-1.48.67Zm0 0" style="stroke:none"/></symbol><symbol id="e" overflow="visible"><path d="M1.72-2.75h.7c.14 0 .22 0 .22-.16 0-.09-.08-.09-.2-.09h-.66l.25-1.03.03-.1q-.01-.22-.25-.23c-.17 0-.26.13-.33.3-.04.18.05-.16-.26 1.06h-.7C.39-3 .3-3 .3-2.84c0 .09.08.09.2.09h.66L.75-1.11c-.05.17-.1.42-.1.52 0 .4.35.65.74.65C2.17.06 2.61-.9 2.61-1s-.1-.1-.11-.1c-.1 0-.1.02-.16.15-.18.43-.54.83-.92.83q-.24.01-.25-.35c0-.06.03-.22.05-.28Zm0 0" style="stroke:none"/></symbol><symbol id="g" overflow="visible"><path d="M3.6-2.22c0-.76-.1-1.33-.41-1.81-.22-.31-.66-.6-1.2-.6C.35-4.62.35-2.71.35-2.21S.36.14 1.98.14C3.6.14 3.6-1.72 3.6-2.22M1.97-.06c-.32 0-.75-.19-.89-.75C1-1.21 1-1.8 1-2.31c0-.52 0-1.05.1-1.42.15-.55.59-.7.88-.7a.9.9 0 0 1 .86.63q.15.57.13 1.49c0 .51 0 1.03-.1 1.47-.14.64-.6.78-.89.78m0 0" style="stroke:none"/></symbol><symbol id="h" overflow="visible"><path d="M2.17-.1c0-.59-.33-.98-.81-.98-.38 0-.66.27-.66.6 0 .36.28.59.7.59.02 0 .13 0 .15-.02h.03q.06 0 .06.1 0 .64-1 1.36l.24.28C1.75 1.22 2.17.6 2.17-.1m0 0" style="stroke:none"/></symbol><clipPath id="a"><path d="M0 0h148.91v164.36H0Zm0 0"/></clipPath><clipPath id="k"><path d="M25 139h31v25.36H25Zm0 0"/></clipPath><clipPath id="l"><path d="M30 160h5v4.36h-5Zm0 0"/></clipPath><clipPath id="m"><path d="M119 12h29.91v41H119Zm0 0"/></clipPath><clipPath id="n"><path d="M44 14h104.91v40H44Zm0 0"/></clipPath><clipPath id="r"><path d="M145 18h3.91v5H145Zm0 0"/></clipPath></defs><g clip-path="url(#a)"><path d="M0 164.36h148.91V0H0Zm0 0" style="stroke:none;fill-rule:nonzero;fill:#ffe4c8;fill-opacity:1"/></g><use xlink:href="#b" x="52.91" y="155" style="fill:gray;fill-opacity:1"/><use xlink:href="#c" x="57.58" y="156.5" style="fill:gray;fill-opacity:1"/><g style="fill:gray;fill-opacity:1"><use xlink:href="#d" x="61.49" y="156.5"/><use xlink:href="#e" x="65.27" y="156.5"/></g><path d="M4.88 0a4.88 4.88 0 1 1-9.77 0 4.88 4.88 0 0 1 9.77 0Zm0 0" style="fill-rule:nonzero;fill:#ccc;fill-opacity:1;stroke-width:.3985;stroke-linecap:butt;stroke-linejoin:miter;stroke:#ccc;stroke-opacity:1;stroke-miterlimit:10" transform="matrix(1 0 0 -1 49.73 145.27)"/><path d="M135.08 39.02a1.95 1.95 0 1 0-3.9 0 1.95 1.95 0 0 0 3.9 0m0 0" style="stroke:none;fill-rule:nonzero;fill:#f99;fill-opacity:1"/><path d="M0 97.23h39.48" style="fill:none;stroke-width:.79701;stroke-linecap:butt;stroke-linejoin:miter;stroke:#000;stroke-opacity:1;stroke-miterlimit:10" transform="matrix(1 0 0 -1 49.73 145.27)"/><path d="M-2.55 3.11C-2.08 1.24-1.05.36 0 0c-1.04-.36-2.08-1.24-2.55-3.11" style="fill:none;stroke-width:.79701;stroke-linecap:round;stroke-linejoin:round;stroke:#000;stroke-opacity:1;stroke-miterlimit:10" transform="matrix(1 0 0 -1 89.61 48.05)"/><use xlink:href="#f" x="68.92" y="56.05" style="fill:#00f;fill-opacity:1"/><use xlink:href="#g" x="73.81" y="57.55" style="fill:#00f;fill-opacity:1"/><use xlink:href="#h" x="78.28" y="56.05" style="fill:#000;fill-opacity:1"/><use xlink:href="#f" x="81.05" y="56.05" style="fill:#000;fill-opacity:1"/><path d="M0 97.23v40.87" style="fill:none;stroke-width:.79701;stroke-linecap:butt;stroke-linejoin:miter;stroke:#000;stroke-opacity:1;stroke-miterlimit:10" transform="matrix(1 0 0 -1 49.73 145.27)"/><path d="M-2.55 3.11C-2.1 1.25-1.05.36 0 0c-1.05-.36-2.09-1.24-2.55-3.11" style="fill:none;stroke-width:.79701;stroke-linecap:round;stroke-linejoin:round;stroke:#000;stroke-opacity:1;stroke-miterlimit:10" transform="matrix(0 -1 -1 0 49.73 6.77)"/><use xlink:href="#i" x="29.07" y="7.61" style="fill:#00f;fill-opacity:1"/><use xlink:href="#g" x="33.7" y="9.1" style="fill:#00f;fill-opacity:1"/><use xlink:href="#h" x="38.17" y="7.61" style="fill:#000;fill-opacity:1"/><use xlink:href="#i" x="40.94" y="7.61" style="fill:#000;fill-opacity:1"/><path d="m0 97.23-23.5-23.5" style="fill:none;stroke-width:.79701;stroke-linecap:butt;stroke-linejoin:miter;stroke:#000;stroke-opacity:1;stroke-miterlimit:10" transform="matrix(1 0 0 -1 49.73 145.27)"/><path d="M-2.55 3.11C-2.08 1.24-1.05.36 0 .01c-1.04-.37-2.09-1.25-2.55-3.12" style="fill:none;stroke-width:.79701;stroke-linecap:round;stroke-linejoin:round;stroke:#000;stroke-opacity:1;stroke-miterlimit:10" transform="rotate(-45 99.68 4.6)scale(-1 1)"/><use xlink:href="#j" x="3.32" y="66.57" style="fill:#00f;fill-opacity:1"/><use xlink:href="#g" x="9.01" y="68.06" style="fill:#00f;fill-opacity:1"/><use xlink:href="#h" x="13.48" y="66.57" style="fill:#000;fill-opacity:1"/><use xlink:href="#j" x="16.25" y="66.57" style="fill:#000;fill-opacity:1"/><path d="M0 0h34.32" style="fill:none;stroke-width:.3985;stroke-linecap:butt;stroke-linejoin:miter;stroke:gray;stroke-opacity:1;stroke-dasharray:2.98883,2.98883;stroke-miterlimit:10" transform="matrix(1 0 0 -1 49.73 145.27)"/><path d="M-2.07 2.4C-1.7.95-.85.27 0 0c-.85-.28-1.7-.96-2.07-2.39" style="fill:none;stroke-width:.3985;stroke-linecap:round;stroke-linejoin:round;stroke:gray;stroke-opacity:1;stroke-miterlimit:10" transform="matrix(1 0 0 -1 84.26 145.27)"/><use xlink:href="#f" x="71.58" y="139.82" style="fill:gray;fill-opacity:1"/><use xlink:href="#g" x="76.47" y="141.31" style="fill:gray;fill-opacity:1"/><path d="M0 0v27.38" style="fill:none;stroke-width:.3985;stroke-linecap:butt;stroke-linejoin:miter;stroke:gray;stroke-opacity:1;stroke-dasharray:2.98883,2.98883;stroke-miterlimit:10" transform="matrix(1 0 0 -1 49.73 145.27)"/><path d="M-2.07 2.39C-1.7.96-.85.29 0 0c-.85-.28-1.7-.96-2.07-2.4" style="fill:none;stroke-width:.3985;stroke-linecap:round;stroke-linejoin:round;stroke:gray;stroke-opacity:1;stroke-miterlimit:10" transform="matrix(0 -1 -1 0 49.73 117.7)"/><use xlink:href="#i" x="37.11" y="125.3" style="fill:gray;fill-opacity:1"/><use xlink:href="#g" x="41.74" y="126.8" style="fill:gray;fill-opacity:1"/><g clip-path="url(#k)"><path d="m0 0-18.43-18.43" style="fill:none;stroke-width:.3985;stroke-linecap:butt;stroke-linejoin:miter;stroke:gray;stroke-opacity:1;stroke-dasharray:2.98883,2.98883;stroke-miterlimit:10" transform="matrix(1 0 0 -1 49.73 145.27)"/></g><g clip-path="url(#l)"><path d="M-2.07 2.39C-1.7.96-.85.28 0 0c-.85-.28-1.7-.96-2.07-2.39" style="fill:none;stroke-width:.3985;stroke-linecap:round;stroke-linejoin:round;stroke:gray;stroke-opacity:1;stroke-miterlimit:10" transform="rotate(135 -18.36 88.38)scale(1 -1)"/></g><use xlink:href="#j" x="17.33" y="158.98" style="fill:gray;fill-opacity:1"/><use xlink:href="#g" x="23.02" y="160.47" style="fill:gray;fill-opacity:1"/><path d="m0 0 80.97 103.27" style="fill:none;stroke-width:.79701;stroke-linecap:butt;stroke-linejoin:miter;stroke:red;stroke-opacity:1;stroke-dasharray:.79701,1.99255;stroke-miterlimit:10" transform="matrix(1 0 0 -1 49.73 145.27)"/><path d="M-2.55 3.11C-2.08 1.24-1.05.36 0 0c-1.05-.36-2.08-1.24-2.55-3.11" style="fill:none;stroke-width:.79701;stroke-linecap:round;stroke-linejoin:round;stroke:red;stroke-opacity:1;stroke-miterlimit:10" transform="rotate(128.1 55.33 52.7)scale(-.99996 .99996)"/><g clip-path="url(#m)"><path d="m81.47 103.9 13.88 17.7" style="fill:none;stroke-width:.79701;stroke-linecap:butt;stroke-linejoin:miter;stroke:red;stroke-opacity:1;stroke-dasharray:.79701,1.99255;stroke-miterlimit:10" transform="matrix(1 0 0 -1 49.73 145.27)"/></g><path d="M-2.55 3.11C-2.08 1.25-1.05.36 0 .01c-1.05-.37-2.08-1.26-2.55-3.12" style="fill:none;stroke-width:.79701;stroke-linecap:round;stroke-linejoin:round;stroke:red;stroke-opacity:1;stroke-miterlimit:10" transform="rotate(128.1 66.98 47.04)scale(-.99997 .99997)"/><g clip-path="url(#n)"><path d="m0 97.23 94.07 27.67" style="fill:none;stroke-width:.3985;stroke-linecap:butt;stroke-linejoin:miter;stroke:#000;stroke-opacity:1;stroke-miterlimit:10" transform="matrix(1 0 0 -1 49.73 145.27)"/></g><path d="M-2.07 2.39C-1.7.96-.85.28 0 0c-.85-.28-1.7-.96-2.07-2.39" style="fill:none;stroke-width:.3985;stroke-linecap:round;stroke-linejoin:round;stroke:#000;stroke-opacity:1;stroke-miterlimit:10" transform="rotate(163.61 70.53 20.53)scale(-.99995 .99995)"/><use xlink:href="#o" x="94.57" y="28.64" style="fill:#000;fill-opacity:1"/><path d="M0 0h4.77" style="fill:none;stroke-width:.398;stroke-linecap:butt;stroke-linejoin:miter;stroke:#000;stroke-opacity:1;stroke-miterlimit:10" transform="matrix(1 0 0 -1 94.57 30.04)"/><path d="m0 97.23 79.89 8.98" style="fill:none;stroke-width:.3985;stroke-linecap:butt;stroke-linejoin:miter;stroke:red;stroke-opacity:1;stroke-miterlimit:10" transform="matrix(1 0 0 -1 49.73 145.27)"/><path d="M-2.07 2.4C-1.7.95-.85.27 0 0c-.85-.28-1.7-.96-2.07-2.39" style="fill:none;stroke-width:.3985;stroke-linecap:round;stroke-linejoin:round;stroke:red;stroke-opacity:1;stroke-miterlimit:10" transform="rotate(173.59 63.81 23.16)scale(-.99994 .99994)"/><use xlink:href="#p" x="103.7" y="53.29" style="fill:red;fill-opacity:1"/><path d="M0 0h3.17" style="fill:none;stroke-width:.398;stroke-linecap:butt;stroke-linejoin:miter;stroke:red;stroke-opacity:1;stroke-miterlimit:10" transform="matrix(1 0 0 -1 103.7 54.68)"/><path d="M4.88 97.23a4.88 4.88 0 1 1-9.76 0 4.88 4.88 0 0 1 9.76 0Zm0 0" style="fill-rule:nonzero;fill:#00f;fill-opacity:1;stroke-width:.3985;stroke-linecap:butt;stroke-linejoin:miter;stroke:#00f;stroke-opacity:1;stroke-miterlimit:10" transform="matrix(1 0 0 -1 49.73 145.27)"/><use xlink:href="#b" x="53.25" y="55.86" style="fill:#00f;fill-opacity:1"/><path d="M0 0v90.88" style="fill:none;stroke-width:.79701;stroke-linecap:butt;stroke-linejoin:miter;stroke:#00f;stroke-opacity:1;stroke-dasharray:.79701,1.99255;stroke-miterlimit:10" transform="matrix(1 0 0 -1 49.73 145.27)"/><path d="M-2.55 3.11C-2.08 1.25-1.05.36 0 0c-1.04-.36-2.08-1.24-2.55-3.11" style="fill:none;stroke-width:.79701;stroke-linecap:round;stroke-linejoin:round;stroke:#00f;stroke-opacity:1;stroke-miterlimit:10" transform="matrix(0 -1 -1 0 49.73 54)"/><path d="M0 48.61v6.15" style="fill:none;stroke-width:.79701;stroke-linecap:butt;stroke-linejoin:miter;stroke:#00f;stroke-opacity:1;stroke-miterlimit:10" transform="matrix(1 0 0 -1 49.73 145.27)"/><path d="M-2.55 3.11C-2.1 1.25-1.05.36 0 0c-1.05-.36-2.09-1.24-2.55-3.11" style="fill:none;stroke-width:.79701;stroke-linecap:round;stroke-linejoin:round;stroke:#00f;stroke-opacity:1;stroke-miterlimit:10" transform="matrix(0 -1 -1 0 49.73 93.46)"/><path d="M-2.55 3.11C-2.09 1.25-1.05.36 0 0c-1.05-.36-2.09-1.24-2.55-3.11" style="fill:none;stroke-width:.79701;stroke-linecap:round;stroke-linejoin:round;stroke:#00f;stroke-opacity:1;stroke-miterlimit:10" transform="matrix(0 -1 -1 0 49.73 90.11)"/><use xlink:href="#q" x="40.31" y="90.86" style="fill:#00f;fill-opacity:1"/><path d="M0 0h5.7" style="fill:none;stroke-width:.398;stroke-linecap:butt;stroke-linejoin:miter;stroke:#00f;stroke-opacity:1;stroke-miterlimit:10" transform="matrix(1 0 0 -1 40.3 92.26)"/><g clip-path="url(#r)"><path d="M148.91 20.27a1.95 1.95 0 1 0-3.9 0 1.95 1.95 0 0 0 3.9 0m0 0" style="stroke:none;fill-rule:nonzero;fill:#000;fill-opacity:1"/></g></svg>