<svg xmlns="http://www.w3.org/2000/svg" xmlns:xlink="http://www.w3.org/1999/xlink" width="90.71" height="75.59" viewBox="0 0 68.03 56.69"><desc>A figure created by Phy-Hub, for The Handbook of Special Relativity</desc><defs><clipPath id="a"><path d="M0 0h68.03v56.7H0Zm0 0"/></clipPath><clipPath id="b"><path d="M0 16h68.03v40.7H0Zm0 0"/></clipPath><symbol id="c" overflow="visible"><path d="M3.95-3.78c-.17 0-.3 0-.43.12a.5.5 0 0 0-.2.4c0 .24.2.35.38.35.28 0 .55-.25.55-.64 0-.48-.47-.86-1.17-.86C1.73-4.4.4-2.98.4-1.58.4-.68.98.11 2.03.11 3.45.1 4.28-.95 4.28-1.06c0-.06-.05-.14-.1-.14-.07 0-.09.03-.15.1-.78 1-1.87 1-1.98 1-.63 0-.9-.5-.9-1.1 0-.4.2-1.38.54-1.99.31-.58.86-1 1.4-1 .33 0 .72.13.86.4m0 0" style="stroke:none"/></symbol><symbol id="d" overflow="visible"><path d="M3.6-2.22c0-.76-.1-1.33-.41-1.81-.22-.31-.66-.6-1.2-.6C.35-4.62.35-2.71.35-2.21S.36.14 1.98.14C3.6.14 3.6-1.72 3.6-2.22M1.97-.06c-.32 0-.75-.19-.89-.75C1-1.21 1-1.8 1-2.31c0-.52 0-1.05.1-1.42.15-.55.59-.7.88-.7a.9.9 0 0 1 .86.63q.15.57.13 1.49c0 .51 0 1.03-.1 1.47-.14.64-.6.78-.89.78m0 0" style="stroke:none"/></symbol></defs><g clip-path="url(#a)"><path d="M0 56.7h68.03V0H0Zm0 0" style="stroke:none;fill-rule:nonzero;fill:#ffe4c8;fill-opacity:1"/></g><g clip-path="url(#b)"><path d="m0 0 51.73-11" style="fill:none;stroke-width:1.59404;stroke-linecap:butt;stroke-linejoin:miter;stroke:red;stroke-opacity:1;stroke-miterlimit:10" transform="matrix(1 0 0 -1 11.34 38.55)"/></g><path d="M-3.5 4.55C-2.88 1.82-1.45.53 0 0c-1.44-.53-2.87-1.82-3.5-4.55" style="fill:none;stroke-width:1.59404;stroke-linecap:round;stroke-linejoin:round;stroke:red;stroke-opacity:1;stroke-miterlimit:10" transform="rotate(192.01 34.54 21.5)scale(-.99998 .99998)"/><use xlink:href="#c" x="33.59" y="52.63" style="fill:red;fill-opacity:1"/><path d="M0 0h4.31" style="fill:none;stroke-width:.398;stroke-linecap:butt;stroke-linejoin:miter;stroke:red;stroke-opacity:1;stroke-miterlimit:10" transform="matrix(1 0 0 -1 33.6 54.02)"/><use xlink:href="#d" x="37.91" y="55.12" style="fill:red;fill-opacity:1"/><path d="M16.92 38.55a5.58 5.58 0 1 0-11.15 0 5.58 5.58 0 0 0 11.15 0m0 0" style="stroke:none;fill-rule:nonzero;fill:#000;fill-opacity:1"/></svg>