<svg xmlns="http://www.w3.org/2000/svg" xmlns:xlink="http://www.w3.org/1999/xlink" width="198.68" height="164.02" viewBox="0 0 149.01 123.01"><defs><symbol id="b" overflow="visible"><path d="M4.84-3.8c.05-.14.05-.15.05-.23 0-.17-.14-.27-.3-.27-.09 0-.25.07-.34.2l-.14.55q-.12.38-.2.8l-.46 1.8c-.03.14-.47.84-1.12.84-.5 0-.61-.44-.61-.81q0-.66.5-1.95c.15-.41.2-.52.2-.72a.8.8 0 0 0-.81-.82C.66-4.4.3-2.95.3-2.87c0 .1.1.1.1.1.12 0 .12-.03.16-.18.28-.94.67-1.24 1.02-1.24.08 0 .25 0 .25.32 0 .25-.11.51-.17.7a6 6 0 0 0-.58 2.1C1.08-.2 1.7.1 2.3.1q.58-.02 1-.45a4 4 0 0 1-.64 1.54c-.27.33-.64.63-1.1.63-.14 0-.6-.03-.76-.42.15 0 .3 0 .42-.13a.5.5 0 0 0 .2-.4c0-.32-.26-.35-.36-.35C.83.53.5.7.5 1.17c0 .5.44.88 1.06.88 1.02 0 2.05-.9 2.33-2.03Zm0 0" style="stroke:none"/></symbol><symbol id="c" overflow="visible"><path d="M1.33-.83c.53-.58.83-.83 1.19-1.14 0 0 .6-.53.96-.89.96-.92 1.18-1.4 1.18-1.45 0-.1-.1-.1-.11-.1-.08 0-.1.02-.16.11-.3.49-.5.64-.73.64-.25 0-.36-.15-.52-.32-.19-.22-.36-.43-.69-.43-.75 0-1.2.93-1.2 1.14q0 .1.1.11c.1 0 .12-.04.15-.1.19-.47.77-.47.84-.47q.3.01.63.14c.4.15.51.15.76.15a16 16 0 0 1-1.37 1.3l-.9.84A5 5 0 0 0 .41.02C.42.1.53.1.55.1Q.64.13.7-.02c.24-.35.53-.62.86-.62.22 0 .33.1.58.37.16.22.34.38.63.38 1 0 1.57-1.27 1.57-1.53q0-.1-.12-.11c-.1 0-.11.06-.14.14-.24.64-.88.83-1.2.83Q2.59-.57 2.3-.7c-.35-.12-.5-.17-.7-.17-.02 0-.18 0-.27.03m0 0" style="stroke:none"/></symbol><symbol id="e" overflow="visible"><path d="M3.33-3.02c.06-.25.3-1.17.98-1.17a1 1 0 0 1 .5.13.6.6 0 0 0-.47.54c0 .16.11.35.38.35.22 0 .53-.17.53-.58 0-.52-.58-.66-.92-.66-.58 0-.92.54-1.05.75A1.1 1.1 0 0 0 2.2-4.4C1.17-4.4.6-3.12.6-2.87c0 .1.1.1.12.1q.1 0 .12-.1c.35-1.07 1-1.32 1.35-1.32.19 0 .53.1.53.67 0 .32-.17.97-.53 2.38-.16.6-.52 1.03-.96 1.03-.06 0-.28 0-.5-.12.25-.07.47-.27.47-.55 0-.27-.22-.34-.36-.34-.3 0-.54.25-.54.57 0 .46.48.66.92.66.67 0 1.03-.7 1.05-.75.12.36.48.75 1.07.75 1.04 0 1.6-1.28 1.6-1.53 0-.11-.08-.11-.11-.11-.1 0-.11.05-.14.1C4.36-.33 3.69-.1 3.37-.1c-.39 0-.54-.31-.54-.66 0-.21.04-.43.15-.87Zm0 0" style="stroke:none"/></symbol><symbol id="g" overflow="visible"><path d="M4.67-3.7c0-.55-.26-.7-.44-.7-.25 0-.5.26-.5.48 0 .12.05.19.16.3q.34.29.34.8c0 .43-.6 2.71-1.76 2.71-.52 0-.75-.34-.75-.87 0-.55.28-1.29.58-2.11.08-.18.12-.32.12-.5a.8.8 0 0 0-.81-.82C.67-4.4.3-2.95.3-2.87c0 .1.1.1.1.1.12 0 .12-.03.16-.18.3-1 .72-1.24 1.02-1.24.08 0 .25 0 .25.32 0 .25-.11.53-.17.7a6 6 0 0 0-.57 2.05C1.1-.05 1.97.1 2.42.1 4.1.1 4.67-3.2 4.67-3.7m0 0" style="stroke:none"/></symbol><symbol id="h" overflow="visible"><path d="M4.53-4.98c0-.66-.17-2.05-1.19-2.05-1.39 0-2.92 2.81-2.92 5.1C.42-1 .7.1 1.61.1 3 .1 4.53-2.75 4.53-5M1.47-3.62c.17-.63.37-1.43.78-2.15.27-.48.63-1.04 1.08-1.04.48 0 .54.64.54 1.2 0 .5-.07 1-.3 1.99Zm2 .32c-.11.46-.31 1.3-.7 2.02C2.42-.6 2.05-.11 1.6-.11c-.33 0-.53-.3-.53-1.22 0-.42.06-1 .31-1.97Zm0 0" style="stroke:none"/></symbol><symbol id="l" overflow="visible"><path d="m.88-.6-.1.44c0 .18.14.27.3.27.12 0 .3-.08.37-.28.02-.03.35-1.4.4-1.58.07-.33.26-1.02.3-1.3.05-.12.33-.6.57-.8.08-.07.37-.34.8-.34.26 0 .4.13.42.13-.3.04-.52.28-.52.54 0 .16.11.35.38.35.26 0 .54-.24.54-.6 0-.34-.3-.64-.82-.64-.64 0-1.08.49-1.27.77a.9.9 0 0 0-.92-.77c-.46 0-.64.4-.74.57-.17.34-.3.93-.3.96 0 .11.1.11.12.11.1 0 .1-.01.17-.23.17-.7.37-1.19.73-1.19.16 0 .3.08.3.46 0 .21-.03.32-.16.84Zm0 0" style="stroke:none"/></symbol><symbol id="m" overflow="visible"><path d="M4.75-2.36c0-1.56-.92-2.05-1.66-2.05C1.72-4.4.41-2.98.41-1.58.4-.64 1 .11 2.03.11c.63 0 1.35-.23 2.1-.84.12.53.45.84.9.84.53 0 .84-.55.84-.7Q5.87-.7 5.76-.7q-.09 0-.12.1c-.2.5-.55.5-.57.5-.31 0-.31-.8-.31-1.02 0-.2 0-.24.1-.35C5.8-2.66 6-3.8 6-3.8c0-.03-.02-.11-.12-.11s-.1.03-.15.22a6 6 0 0 1-.98 1.97ZM4.09-.98c-.89.76-1.65.87-2.04.87-.6 0-.9-.45-.9-1.1 0-.48.26-1.56.57-2.06.47-.73 1.01-.92 1.36-.92.98 0 .98 1.32.98 2.08 0 .38 0 .95.03 1.13m0 0" style="stroke:none"/></symbol><symbol id="f" overflow="visible"><path d="M2.02-3.3q.07-.15.06-.22c0-.21-.19-.37-.4-.37-.27 0-.35.22-.38.33L.38-.55l-.05.11c0 .08.22.16.28.16.05 0 .05-.02.1-.13Zm0 0" style="stroke:none"/></symbol><symbol id="i" overflow="visible"><path d="M1.64-1.4c0-.05.17-.68.17-.7.02-.07.22-.42.46-.59.06-.04.25-.19.56-.19.06 0 .23 0 .37.1a.4.4 0 0 0-.3.39c0 .14.12.25.27.25.17 0 .4-.13.4-.42 0-.36-.38-.52-.74-.52q-.52 0-.99.5c-.12-.42-.54-.5-.72-.5-.25 0-.42.17-.54.36A2 2 0 0 0 .33-2c0 .08.1.08.12.08.1 0 .1-.02.14-.2.11-.43.25-.75.52-.75.19 0 .23.15.23.34 0 .12-.06.39-.12.58l-.14.62-.24.9-.06.27c0 .16.13.22.24.22s.25-.06.3-.18c0-.05.09-.36.13-.54Zm0 0" style="stroke:none"/></symbol><symbol id="j" overflow="visible"><path d="M1.56-1.6c.19 0 .75 0 1.13-.13.51-.2.6-.52.6-.72 0-.4-.38-.63-.85-.63-.85 0-1.97.64-1.97 1.85 0 .7.44 1.3 1.25 1.3 1.19 0 1.73-.7 1.73-.79 0-.05-.06-.12-.12-.12q-.03-.01-.11.07c-.55.65-1.36.65-1.49.65-.42 0-.7-.29-.7-.85 0-.1 0-.23.1-.62Zm-.39-.18c.3-1.02 1.06-1.1 1.27-1.1.3 0 .56.16.56.43 0 .67-1.19.67-1.48.67Zm0 0" style="stroke:none"/></symbol><symbol id="k" overflow="visible"><path d="M1.72-2.75h.7c.14 0 .22 0 .22-.16 0-.09-.08-.09-.2-.09h-.66l.25-1.03.03-.1q-.01-.22-.25-.23c-.17 0-.26.13-.33.3-.04.18.05-.16-.26 1.06h-.7C.39-3 .3-3 .3-2.84c0 .09.08.09.2.09h.66L.75-1.11c-.05.17-.1.42-.1.52 0 .4.35.65.74.65C2.17.06 2.61-.9 2.61-1s-.1-.1-.11-.1c-.1 0-.1.02-.16.15-.18.43-.54.83-.92.83q-.24.01-.25-.35c0-.06.03-.22.05-.28Zm0 0" style="stroke:none"/></symbol><clipPath id="a"><path d="M0 0h149.01v123.02H0Zm0 0"/></clipPath><clipPath id="d"><path d="M2 81h53v42.02H2Zm0 0"/></clipPath></defs><g clip-path="url(#a)"><path d="M0 123.02h149.01V0H0Zm0 0" style="stroke:none;fill-rule:nonzero;fill:#ffe4c8;fill-opacity:1"/></g><path d="M3.54 0a3.54 3.54 0 1 1-7.08 0 3.54 3.54 0 0 1 7.08 0ZM0 0h55.9" style="fill:none;stroke-width:.79701;stroke-linecap:butt;stroke-linejoin:miter;stroke:#000;stroke-opacity:1;stroke-miterlimit:10" transform="matrix(1 0 0 -1 42.74 92.32)"/><path d="M-2.55 3.1C-2.1 1.26-1.05.37 0 0c-1.05-.36-2.09-1.24-2.55-3.11" style="fill:none;stroke-width:.79701;stroke-linecap:round;stroke-linejoin:round;stroke:#000;stroke-opacity:1;stroke-miterlimit:10" transform="matrix(1 0 0 -1 99.04 92.32)"/><use xlink:href="#b" x="90.48" y="100.33" style="fill:#000;fill-opacity:1"/><path d="M0 0v55.9" style="fill:none;stroke-width:.79701;stroke-linecap:butt;stroke-linejoin:miter;stroke:#000;stroke-opacity:1;stroke-miterlimit:10" transform="matrix(1 0 0 -1 42.74 92.32)"/><path d="M-2.55 3.11C-2.08 1.25-1.05.36 0 0c-1.04-.36-2.08-1.24-2.55-3.11" style="fill:none;stroke-width:.79701;stroke-linecap:round;stroke-linejoin:round;stroke:#000;stroke-opacity:1;stroke-miterlimit:10" transform="matrix(0 -1 -1 0 42.74 36.03)"/><use xlink:href="#c" x="33.95" y="43.64" style="fill:#000;fill-opacity:1"/><g clip-path="url(#d)"><path d="m0 0-29.45-29.45" style="fill:none;stroke-width:.79701;stroke-linecap:butt;stroke-linejoin:miter;stroke:#000;stroke-opacity:1;stroke-miterlimit:10" transform="matrix(1 0 0 -1 42.74 92.32)"/></g><path d="M-2.55 3.11C-2.08 1.24-1.05.36 0 .01c-1.04-.37-2.09-1.25-2.55-3.12" style="fill:none;stroke-width:.79701;stroke-linecap:round;stroke-linejoin:round;stroke:#000;stroke-opacity:1;stroke-miterlimit:10" transform="rotate(135 -18.77 63.72)scale(1 -1)"/><use xlink:href="#e" x="3.32" y="118.62" style="fill:#000;fill-opacity:1"/><path d="M0 0h27.55" style="fill:none;stroke-width:.79701;stroke-linecap:butt;stroke-linejoin:miter;stroke:gray;stroke-opacity:1;stroke-dasharray:2.98883,2.98883;stroke-miterlimit:10" transform="matrix(1 0 0 -1 42.74 92.32)"/><path d="M-2.55 3.1C-2.08 1.26-1.05.37 0 0c-1.04-.36-2.08-1.24-2.55-3.11" style="fill:none;stroke-width:.79701;stroke-linecap:round;stroke-linejoin:round;stroke:gray;stroke-opacity:1;stroke-miterlimit:10" transform="matrix(1 0 0 -1 70.7 92.32)"/><use xlink:href="#b" x="59.34" y="103.53" style="fill:gray;fill-opacity:1"/><use xlink:href="#f" x="64.58" y="99.92" style="fill:gray;fill-opacity:1"/><path d="M0 0v27.55" style="fill:none;stroke-width:.79701;stroke-linecap:butt;stroke-linejoin:miter;stroke:gray;stroke-opacity:1;stroke-dasharray:2.98883,2.98883;stroke-miterlimit:10" transform="matrix(1 0 0 -1 42.74 92.32)"/><path d="M-2.55 3.11C-2.08 1.25-1.05.36 0 0c-1.05-.36-2.08-1.24-2.55-3.11" style="fill:none;stroke-width:.79701;stroke-linecap:round;stroke-linejoin:round;stroke:gray;stroke-opacity:1;stroke-miterlimit:10" transform="matrix(0 -1 -1 0 42.74 64.38)"/><use xlink:href="#c" x="31.16" y="75.19" style="fill:gray;fill-opacity:1"/><use xlink:href="#f" x="36.23" y="71.57" style="fill:gray;fill-opacity:1"/><path d="m0 0-18.53-18.54" style="fill:none;stroke-width:.79701;stroke-linecap:butt;stroke-linejoin:miter;stroke:gray;stroke-opacity:1;stroke-dasharray:2.98883,2.98883;stroke-miterlimit:10" transform="matrix(1 0 0 -1 42.74 92.32)"/><path d="M-2.55 3.11C-2.08 1.24-1.05.36 0 .01-1.05-.37-2.1-1.25-2.55-3.12" style="fill:none;stroke-width:.79701;stroke-linecap:round;stroke-linejoin:round;stroke:gray;stroke-opacity:1;stroke-miterlimit:10" transform="rotate(135 -11.05 60.53)scale(1 -1)"/><use xlink:href="#e" x="19.4" y="107.7" style="fill:gray;fill-opacity:1"/><use xlink:href="#f" x="25.1" y="104.09" style="fill:gray;fill-opacity:1"/><path d="M-21.26 0v13.38" style="fill:none;stroke-width:.79701;stroke-linecap:butt;stroke-linejoin:miter;stroke:gray;stroke-opacity:1;stroke-miterlimit:10" transform="matrix(1 0 0 -1 42.74 92.32)"/><path d="M-2.55 3.11C-2.08 1.24-1.05.36 0 .01c-1.05-.37-2.08-1.25-2.55-3.12" style="fill:none;stroke-width:.79701;stroke-linecap:round;stroke-linejoin:round;stroke:gray;stroke-opacity:1;stroke-miterlimit:10" transform="matrix(0 -1 -1 0 21.49 81.9)"/><path d="M-2.55 3.11C-2.08 1.24-1.05.36 0 .01c-1.05-.37-2.08-1.25-2.55-3.12" style="fill:none;stroke-width:.79701;stroke-linecap:round;stroke-linejoin:round;stroke:gray;stroke-opacity:1;stroke-miterlimit:10" transform="matrix(0 -1 -1 0 21.49 78.55)"/><use xlink:href="#g" x="12.58" y="86.16" style="fill:gray;fill-opacity:1"/><path d="M0 17.72c5.08 2.34 11.12.12 13.3-4.6" style="fill:none;stroke-width:.3985;stroke-linecap:butt;stroke-linejoin:miter;stroke:#000;stroke-opacity:1;stroke-miterlimit:10" transform="matrix(1 0 0 -1 42.74 92.32)"/><path d="M-2.07 2.4C-1.7.95-.85.27 0 0c-.85-.28-1.7-.96-2.07-2.4" style="fill:none;stroke-width:.3985;stroke-linecap:round;stroke-linejoin:round;stroke:#000;stroke-opacity:1;stroke-miterlimit:10" transform="rotate(65.22 -33.98 83.55)scale(.99995 -.99995)"/><use xlink:href="#h" x="46.15" y="70.94" style="fill:#000;fill-opacity:1"/><use xlink:href="#i" x="50.82" y="72.44" style="fill:#000;fill-opacity:1"/><g style="fill:#000;fill-opacity:1"><use xlink:href="#j" x="54.74" y="72.44"/><use xlink:href="#k" x="58.52" y="72.44"/></g><path d="m3.4 3.4 63.21 61.8" style="fill:none;stroke-width:.79701;stroke-linecap:butt;stroke-linejoin:miter;stroke:red;stroke-opacity:1;stroke-dasharray:.79701,1.99255;stroke-miterlimit:10" transform="matrix(1 0 0 -1 42.74 92.32)"/><path d="M-2.55 3.11C-2.08 1.25-1.05.36 0 0c-1.05-.36-2.08-1.25-2.55-3.11" style="fill:none;stroke-width:.79701;stroke-linecap:round;stroke-linejoin:round;stroke:red;stroke-opacity:1;stroke-miterlimit:10" transform="rotate(135.64 4.75 53.95)scale(.99995 -.99995)"/><path d="M114.19 24.3a2 2 0 1 0-3.98-.01 2 2 0 0 0 3.98 0m0 0" style="stroke:none;fill-rule:nonzero;fill:#00f;fill-opacity:1"/><use xlink:href="#l" x="129.72" y="25.19" style="fill:#00f;fill-opacity:1"/><path d="M0 0h4.77" style="fill:none;stroke-width:.398;stroke-linecap:butt;stroke-linejoin:miter;stroke:#00f;stroke-opacity:1;stroke-miterlimit:10" transform="matrix(1 0 0 -1 129.72 26.59)"/><use xlink:href="#i" x="134.49" y="27.68" style="fill:#00f;fill-opacity:1"/><g style="fill:#00f;fill-opacity:1"><use xlink:href="#j" x="138.41" y="27.68"/><use xlink:href="#k" x="142.18" y="27.68"/></g><path d="M69.45 68.03v24.1" style="fill:none;stroke-width:.3985;stroke-linecap:butt;stroke-linejoin:miter;stroke:gray;stroke-opacity:1;stroke-dasharray:2.98883,2.98883;stroke-miterlimit:10" transform="matrix(1 0 0 -1 42.74 92.32)"/><path d="M69.45 82.2a14.18 14.18 0 0 0 0-28.34c-3.76 0-7.36 1.5-9.74 3.87" style="fill:none;stroke-width:.3985;stroke-linecap:butt;stroke-linejoin:miter;stroke:red;stroke-opacity:1;stroke-miterlimit:10" transform="matrix(1 0 0 -1 42.74 92.32)"/><path d="M-2.07 2.4C-1.7.94-.85.27 0 0c-.85-.28-1.7-.96-2.07-2.39" style="fill:none;stroke-width:.3985;stroke-linecap:round;stroke-linejoin:round;stroke:red;stroke-opacity:1;stroke-miterlimit:10" transform="rotate(45 9.56 140.73)scale(-1 1)"/><use xlink:href="#m" x="116.07" y="27.86" style="fill:red;fill-opacity:1"/></svg>