<svg xmlns="http://www.w3.org/2000/svg" xmlns:xlink="http://www.w3.org/1999/xlink" width="196.25" height="147.17" viewBox="0 0 147.19 110.38"><defs><symbol id="b" overflow="visible"><path d="M3.9-3.73c-.27.01-.48.23-.48.45 0 .14.1.3.31.3.22 0 .46-.18.46-.57C4.19-4 3.77-4.4 3-4.4c-1.31 0-1.69 1.02-1.69 1.46 0 .78.74.92 1.03.98.52.11 1.04.22 1.04.77 0 .25-.22 1.1-1.43 1.1-.14 0-.9 0-1.14-.54.4.05.64-.25.64-.53 0-.22-.17-.35-.37-.35-.27 0-.56.2-.56.66 0 .56.57.97 1.42.97 1.62 0 2.01-1.2 2.01-1.66 0-.36-.18-.6-.3-.72-.27-.28-.57-.34-1-.42-.37-.08-.76-.15-.76-.6 0-.29.24-.9 1.11-.9.25 0 .75.08.9.46m0 0" style="stroke:none"/></symbol><symbol id="d" overflow="visible"><path d="M4.84-3.8c.05-.14.05-.15.05-.23 0-.17-.14-.27-.3-.27-.09 0-.25.07-.34.2l-.14.55q-.12.38-.2.8l-.46 1.8c-.03.14-.47.84-1.12.84-.5 0-.61-.44-.61-.81q0-.66.5-1.95c.15-.41.2-.52.2-.72a.8.8 0 0 0-.81-.82C.66-4.4.3-2.95.3-2.87c0 .1.1.1.1.1.12 0 .12-.03.16-.18.28-.94.67-1.24 1.02-1.24.08 0 .25 0 .25.32 0 .25-.11.51-.17.7a6 6 0 0 0-.58 2.1C1.08-.2 1.7.1 2.3.1q.58-.02 1-.45a4 4 0 0 1-.64 1.54c-.27.33-.64.63-1.1.63-.14 0-.6-.03-.76-.42.15 0 .3 0 .42-.13a.5.5 0 0 0 .2-.4c0-.32-.26-.35-.36-.35C.83.53.5.7.5 1.17c0 .5.44.88 1.06.88 1.02 0 2.05-.9 2.33-2.03Zm0 0" style="stroke:none"/></symbol><symbol id="e" overflow="visible"><path d="M1.33-.83c.53-.58.83-.83 1.19-1.14 0 0 .6-.53.96-.89.96-.92 1.18-1.4 1.18-1.45 0-.1-.1-.1-.11-.1-.08 0-.1.02-.16.11-.3.49-.5.64-.73.64-.25 0-.36-.15-.52-.32-.19-.22-.36-.43-.69-.43-.75 0-1.2.93-1.2 1.14q0 .1.1.11c.1 0 .12-.04.15-.1.19-.47.77-.47.84-.47q.3.01.63.14c.4.15.51.15.76.15a16 16 0 0 1-1.37 1.3l-.9.84A5 5 0 0 0 .41.02C.42.1.53.1.55.1Q.64.13.7-.02c.24-.35.53-.62.86-.62.22 0 .33.1.58.37.16.22.34.38.63.38 1 0 1.57-1.27 1.57-1.53q0-.1-.12-.11c-.1 0-.11.06-.14.14-.24.64-.88.83-1.2.83Q2.59-.57 2.3-.7c-.35-.12-.5-.17-.7-.17-.02 0-.18 0-.27.03m0 0" style="stroke:none"/></symbol><symbol id="h" overflow="visible"><path d="M3.33-3.02c.06-.25.3-1.17.98-1.17a1 1 0 0 1 .5.13.6.6 0 0 0-.47.54c0 .16.11.35.38.35.22 0 .53-.17.53-.58 0-.52-.58-.66-.92-.66-.58 0-.92.54-1.05.75A1.1 1.1 0 0 0 2.2-4.4C1.17-4.4.6-3.12.6-2.87c0 .1.1.1.12.1q.1 0 .12-.1c.35-1.07 1-1.32 1.35-1.32.19 0 .53.1.53.67 0 .32-.17.97-.53 2.38-.16.6-.52 1.03-.96 1.03-.06 0-.28 0-.5-.12.25-.07.47-.27.47-.55 0-.27-.22-.34-.36-.34-.3 0-.54.25-.54.57 0 .46.48.66.92.66.67 0 1.03-.7 1.05-.75.12.36.48.75 1.07.75 1.04 0 1.6-1.28 1.6-1.53 0-.11-.08-.11-.11-.11-.1 0-.11.05-.14.1C4.36-.33 3.69-.1 3.37-.1c-.39 0-.54-.31-.54-.66 0-.21.04-.43.15-.87Zm0 0" style="stroke:none"/></symbol><symbol id="k" overflow="visible"><path d="m.88-.6-.1.44c0 .18.14.27.3.27.12 0 .3-.08.37-.28.02-.03.35-1.4.4-1.58.07-.33.26-1.02.3-1.3.05-.12.33-.6.57-.8.08-.07.37-.34.8-.34.26 0 .4.13.42.13-.3.04-.52.28-.52.54 0 .16.11.35.38.35.26 0 .54-.24.54-.6 0-.34-.3-.64-.82-.64-.64 0-1.08.49-1.27.77a.9.9 0 0 0-.92-.77c-.46 0-.64.4-.74.57-.17.34-.3.93-.3.96 0 .11.1.11.12.11.1 0 .1-.01.17-.23.17-.7.37-1.19.73-1.19.16 0 .3.08.3.46 0 .21-.03.32-.16.84Zm0 0" style="stroke:none"/></symbol><symbol id="c" overflow="visible"><path d="M3.6-2.22c0-.76-.1-1.33-.41-1.81-.22-.31-.66-.6-1.2-.6C.35-4.62.35-2.71.35-2.21S.36.14 1.98.14C3.6.14 3.6-1.72 3.6-2.22M1.97-.06c-.32 0-.75-.19-.89-.75C1-1.21 1-1.8 1-2.31c0-.52 0-1.05.1-1.42.15-.55.59-.7.88-.7a.9.9 0 0 1 .86.63q.15.57.13 1.49c0 .51 0 1.03-.1 1.47-.14.64-.6.78-.89.78m0 0" style="stroke:none"/></symbol><clipPath id="a"><path d="M0 0h147.18v110.38H0Zm0 0"/></clipPath><clipPath id="f"><path d="M6 69h52v41.38H6Zm0 0"/></clipPath><clipPath id="g"><path d="M16 105h6v5.38h-6Zm0 0"/></clipPath><clipPath id="i"><path d="M35 5h112.18v87H35Zm0 0"/></clipPath><clipPath id="j"><path d="M143 11h4.18v5H143Zm0 0"/></clipPath></defs><g clip-path="url(#a)"><path d="M0 110.38h147.18V0H0Zm0 0" style="stroke:none;fill-rule:nonzero;fill:#ffe4c8;fill-opacity:1"/></g><use xlink:href="#b" x="50.38" y="90.02" style="fill:#00f;fill-opacity:1"/><use xlink:href="#c" x="55.05" y="91.52" style="fill:#00f;fill-opacity:1"/><path d="M0 0h54.76" style="fill:none;stroke-width:.79701;stroke-linecap:butt;stroke-linejoin:miter;stroke:#00f;stroke-opacity:1;stroke-miterlimit:10" transform="matrix(1 0 0 -1 46.61 80.3)"/><path d="M-2.55 3.11C-2.08 1.24-1.05.36 0 .01c-1.05-.37-2.08-1.25-2.55-3.12" style="fill:none;stroke-width:.79701;stroke-linecap:round;stroke-linejoin:round;stroke:#00f;stroke-opacity:1;stroke-miterlimit:10" transform="matrix(1 0 0 -1 101.77 80.3)"/><use xlink:href="#d" x="89.1" y="88.3" style="fill:#00f;fill-opacity:1"/><use xlink:href="#c" x="93.98" y="89.79" style="fill:#00f;fill-opacity:1"/><path d="M0 0v54.76" style="fill:none;stroke-width:.79701;stroke-linecap:butt;stroke-linejoin:miter;stroke:#00f;stroke-opacity:1;stroke-miterlimit:10" transform="matrix(1 0 0 -1 46.61 80.3)"/><path d="M-2.55 3.11C-2.08 1.24-1.05.36 0 .01c-1.05-.37-2.08-1.26-2.55-3.12" style="fill:none;stroke-width:.79701;stroke-linecap:round;stroke-linejoin:round;stroke:#00f;stroke-opacity:1;stroke-miterlimit:10" transform="matrix(0 -1 -1 0 46.61 25.13)"/><use xlink:href="#e" x="33.79" y="32.74" style="fill:#00f;fill-opacity:1"/><use xlink:href="#c" x="38.43" y="34.23" style="fill:#00f;fill-opacity:1"/><g clip-path="url(#f)"><path d="m0 0-28.85-28.85" style="fill:none;stroke-width:.79701;stroke-linecap:butt;stroke-linejoin:miter;stroke:#00f;stroke-opacity:1;stroke-miterlimit:10" transform="matrix(1 0 0 -1 46.61 80.3)"/></g><g clip-path="url(#g)"><path d="M-2.55 3.11C-2.08 1.25-1.05.36 0 .01c-1.05-.37-2.08-1.25-2.55-3.12" style="fill:none;stroke-width:.79701;stroke-linecap:round;stroke-linejoin:round;stroke:#00f;stroke-opacity:1;stroke-miterlimit:10" transform="rotate(-45 140.82 33.6)scale(-1 1)"/></g><use xlink:href="#h" x="3.32" y="104.49" style="fill:#00f;fill-opacity:1"/><use xlink:href="#c" x="9.01" y="105.98" style="fill:#00f;fill-opacity:1"/><g clip-path="url(#i)"><path d="m0 0 95.18 63.45" style="fill:none;stroke-width:.79701;stroke-linecap:butt;stroke-linejoin:miter;stroke:red;stroke-opacity:1;stroke-dasharray:.79701,1.99255;stroke-miterlimit:10" transform="matrix(1 0 0 -1 46.61 80.3)"/></g><path d="M-2.55 3.1C-2.08 1.25-1.05.37 0 0c-1.05-.36-2.09-1.24-2.55-3.11" style="fill:none;stroke-width:.79701;stroke-linecap:round;stroke-linejoin:round;stroke:red;stroke-opacity:1;stroke-miterlimit:10" transform="rotate(-33.69 98.5 -226.4)scale(.99996 -.99996)"/><path d="M51.5 80.29a4.88 4.88 0 1 0-9.77 0 4.88 4.88 0 0 0 9.77 0m0 0" style="stroke:none;fill-rule:nonzero;fill:#00f;fill-opacity:1"/><g clip-path="url(#j)"><path d="M147.19 13.62a1.95 1.95 0 1 0-3.91 0 1.95 1.95 0 0 0 3.9 0m0 0" style="stroke:none;fill-rule:nonzero;fill:#000;fill-opacity:1"/></g><use xlink:href="#k" x="132.47" y="7.61" style="fill:#000;fill-opacity:1"/><path d="M0 0h4.77" style="fill:none;stroke-width:.398;stroke-linecap:butt;stroke-linejoin:miter;stroke:#000;stroke-opacity:1;stroke-miterlimit:10" transform="matrix(1 0 0 -1 132.47 9)"/><use xlink:href="#c" x="137.24" y="10.1" style="fill:#000;fill-opacity:1"/></svg>