<svg xmlns="http://www.w3.org/2000/svg" xmlns:xlink="http://www.w3.org/1999/xlink" width="79.556" height="35.284" viewBox="0 0 59.667 26.463"><defs><symbol id="a" overflow="visible"><path d="M3.953-3.781c-.172 0-.297 0-.437.125a.53.53 0 0 0-.188.39c0 .25.188.36.375.36.281 0 .547-.25.547-.64 0-.485-.469-.86-1.172-.86-1.344 0-2.672 1.422-2.672 2.828C.406-.672.984.109 2.031.109c1.422 0 2.25-1.062 2.25-1.171 0-.063-.047-.141-.11-.141-.062 0-.077.031-.14.11-.781.984-1.875.984-1.984.984-.625 0-.906-.485-.906-1.094 0-.406.203-1.375.547-1.984.312-.579.859-1 1.406-1 .328 0 .719.125.86.406m0 0" style="stroke:none"/></symbol><symbol id="b" overflow="visible"><path d="M3.594-2.219c0-.765-.094-1.328-.406-1.812-.22-.313-.657-.594-1.204-.594C.36-4.625.36-2.719.36-2.219s0 2.36 1.625 2.36c1.61 0 1.61-1.86 1.61-2.36M1.984-.062c-.328 0-.75-.188-.89-.75C1-1.22 1-1.797 1-2.312c0-.516 0-1.047.094-1.422.156-.547.593-.703.89-.703.375 0 .735.234.86.64.11.375.125.875.125 1.485 0 .515 0 1.03-.094 1.468-.14.64-.61.782-.89.782m0 0" style="stroke:none"/></symbol></defs><path d="M0 26.465h59.668V0H0Zm0 0" style="stroke:none;fill-rule:nonzero;fill:#ffe4c8;fill-opacity:1"/><path d="m0 0 52.112-11.089" style="fill:none;stroke-width:1.59404;stroke-linecap:butt;stroke-linejoin:miter;stroke:red;stroke-opacity:1;stroke-miterlimit:10" transform="matrix(1 0 0 -1 5.579 5.579)"/><path d="M-2.27 3.03C-2.08 1.894-.002.19.566 0 0-.188-2.082-1.893-2.272-3.028" style="fill:none;stroke-width:1.27522;stroke-linecap:round;stroke-linejoin:round;stroke:red;stroke-opacity:1;stroke-miterlimit:10" transform="matrix(.97809 .20811 .20811 -.97809 57.692 16.667)"/><use xlink:href="#a" x="27.834" y="19.656" style="fill:red;fill-opacity:1"/><use xlink:href="#b" x="32.146" y="21.15" style="fill:red;fill-opacity:1"/><path d="M.002-.002h8.777" style="fill:none;stroke-width:.398;stroke-linecap:butt;stroke-linejoin:miter;stroke:red;stroke-opacity:1;stroke-miterlimit:10" transform="matrix(1 0 0 -1 27.834 22.545)"/><path d="M11.156 5.578A5.576 5.576 0 0 0 5.578 0 5.576 5.576 0 0 0 0 5.578a5.576 5.576 0 0 0 5.578 5.578 5.576 5.576 0 0 0 5.578-5.578m0 0" style="stroke:none;fill-rule:nonzero;fill:#000;fill-opacity:1"/></svg>