<svg xmlns="http://www.w3.org/2000/svg" xmlns:xlink="http://www.w3.org/1999/xlink" width="186.5" height="168.69" viewBox="0 0 139.88 126.52"><defs><symbol id="a" overflow="visible"><path d="M3.33-3.02c.06-.25.3-1.17.98-1.17a1 1 0 0 1 .5.13.6.6 0 0 0-.47.54c0 .16.11.35.38.35.22 0 .53-.17.53-.58 0-.52-.58-.66-.92-.66-.58 0-.92.54-1.05.75A1.1 1.1 0 0 0 2.2-4.4C1.17-4.4.6-3.12.6-2.87c0 .1.1.1.12.1q.1 0 .12-.1c.35-1.07 1-1.32 1.35-1.32.19 0 .53.1.53.67 0 .32-.17.97-.53 2.38-.16.6-.52 1.03-.96 1.03-.06 0-.28 0-.5-.12.25-.07.47-.27.47-.55 0-.27-.22-.34-.36-.34-.3 0-.54.25-.54.57 0 .46.48.66.92.66.67 0 1.03-.7 1.05-.75.12.36.48.75 1.07.75 1.04 0 1.6-1.28 1.6-1.53 0-.11-.08-.11-.11-.11-.1 0-.11.05-.14.1C4.36-.33 3.69-.1 3.37-.1c-.39 0-.54-.31-.54-.66 0-.21.04-.43.15-.87Zm0 0" style="stroke:none"/></symbol><symbol id="c" overflow="visible"><path d="M1.33-.83c.53-.58.83-.83 1.19-1.14 0 0 .6-.53.96-.89.96-.92 1.18-1.4 1.18-1.45 0-.1-.1-.1-.11-.1-.08 0-.1.02-.16.11-.3.49-.5.64-.73.64-.25 0-.36-.15-.52-.32-.19-.22-.36-.43-.69-.43-.75 0-1.2.93-1.2 1.14q0 .1.1.11c.1 0 .12-.04.15-.1.19-.47.77-.47.84-.47q.3.01.63.14c.4.15.51.15.76.15a16 16 0 0 1-1.37 1.3l-.9.84A5 5 0 0 0 .41.02C.42.1.53.1.55.1Q.64.13.7-.02c.24-.35.53-.62.86-.62.22 0 .33.1.58.37.16.22.34.38.63.38 1 0 1.57-1.27 1.57-1.53q0-.1-.12-.11c-.1 0-.11.06-.14.14-.24.64-.88.83-1.2.83Q2.59-.57 2.3-.7c-.35-.12-.5-.17-.7-.17-.02 0-.18 0-.27.03m0 0" style="stroke:none"/></symbol><symbol id="e" overflow="visible"><path d="M4.84-3.8c.05-.14.05-.15.05-.23 0-.17-.14-.27-.3-.27-.09 0-.25.07-.34.2l-.14.55q-.12.38-.2.8l-.46 1.8c-.03.14-.47.84-1.12.84-.5 0-.61-.44-.61-.81q0-.66.5-1.95c.15-.41.2-.52.2-.72a.8.8 0 0 0-.81-.82C.66-4.4.3-2.95.3-2.87c0 .1.1.1.1.1.12 0 .12-.03.16-.18.28-.94.67-1.24 1.02-1.24.08 0 .25 0 .25.32 0 .25-.11.51-.17.7a6 6 0 0 0-.58 2.1C1.08-.2 1.7.1 2.3.1q.58-.02 1-.45a4 4 0 0 1-.64 1.54c-.27.33-.64.63-1.1.63-.14 0-.6-.03-.76-.42.15 0 .3 0 .42-.13a.5.5 0 0 0 .2-.4c0-.32-.26-.35-.36-.35C.83.53.5.7.5 1.17c0 .5.44.88 1.06.88 1.02 0 2.05-.9 2.33-2.03Zm0 0" style="stroke:none"/></symbol><symbol id="g" overflow="visible"><path d="M4.67-3.7c0-.55-.26-.7-.44-.7-.25 0-.5.26-.5.48 0 .12.05.19.16.3q.34.29.34.8c0 .43-.6 2.71-1.76 2.71-.52 0-.75-.34-.75-.87 0-.55.28-1.29.58-2.11.08-.18.12-.32.12-.5a.8.8 0 0 0-.81-.82C.67-4.4.3-2.95.3-2.87c0 .1.1.1.1.1.12 0 .12-.03.16-.18.3-1 .72-1.24 1.02-1.24.08 0 .25 0 .25.32 0 .25-.11.53-.17.7a6 6 0 0 0-.57 2.05C1.1-.05 1.97.1 2.42.1 4.1.1 4.67-3.2 4.67-3.7m0 0" style="stroke:none"/></symbol><symbol id="j" overflow="visible"><path d="m.88-.6-.1.44c0 .18.14.27.3.27.12 0 .3-.08.37-.28.02-.03.35-1.4.4-1.58.07-.33.26-1.02.3-1.3.05-.12.33-.6.57-.8.08-.07.37-.34.8-.34.26 0 .4.13.42.13-.3.04-.52.28-.52.54 0 .16.11.35.38.35.26 0 .54-.24.54-.6 0-.34-.3-.64-.82-.64-.64 0-1.08.49-1.27.77a.9.9 0 0 0-.92-.77c-.46 0-.64.4-.74.57-.17.34-.3.93-.3.96 0 .11.1.11.12.11.1 0 .1-.01.17-.23.17-.7.37-1.19.73-1.19.16 0 .3.08.3.46 0 .21-.03.32-.16.84Zm0 0" style="stroke:none"/></symbol><symbol id="k" overflow="visible"><path d="M5.36-5.94c-.14.14-.47.42-.47.6 0 .09.1.2.19.2.1 0 .14-.08.2-.14.11-.14.34-.42.78-.64.07-.05.17-.1.17-.2q-.02-.15-.14-.2a1 1 0 0 1-.4-.57c-.03-.1-.07-.24-.2-.24-.15 0-.2.15-.2.22 0 .05.07.36.23.58H2.16c-.16 0-.35 0-.35.2s.19.2.35.2Zm0 0" style="stroke:none"/></symbol><symbol id="l" overflow="visible"><path d="M4.67-2.72c0-1.05-.69-1.69-1.6-1.69C1.76-4.4.42-2.98.42-1.58.4-.59 1.08.11 2 .11c1.33 0 2.67-1.38 2.67-2.83M2.02-.1c-.44 0-.88-.31-.88-1.1 0-.48.27-1.56.58-2.06.5-.76 1.08-.92 1.36-.92.58 0 .87.49.87 1.08 0 .4-.2 1.44-.58 2.08-.35.58-.9.92-1.35.92m0 0" style="stroke:none"/></symbol><symbol id="n" overflow="visible"><path d="M1.86-2.3c.3 0 1.03-.03 1.53-.23.7-.3.75-.9.75-1.03 0-.44-.37-.85-1.06-.85-1.11 0-2.63.97-2.63 2.72 0 1.02.6 1.8 1.58 1.8C3.45.1 4.28-.95 4.28-1.06c0-.06-.05-.14-.1-.14-.07 0-.09.03-.15.1-.78 1-1.87 1-1.98 1-.78 0-.88-.85-.88-1.17 0-.12.02-.42.16-1.03Zm-.47-.22c.4-1.51 1.42-1.67 1.69-1.67.45 0 .73.3.73.63 0 1.04-1.6 1.04-2.01 1.04Zm0 0" style="stroke:none"/></symbol><symbol id="f" overflow="visible"><path d="M2.02-3.3q.07-.15.06-.22c0-.21-.19-.37-.4-.37-.27 0-.35.22-.38.33L.38-.55l-.05.11c0 .08.22.16.28.16.05 0 .05-.02.1-.13Zm0 0" style="stroke:none"/></symbol><clipPath id="b"><path d="M24 71h2v55.52h-2Zm0 0"/></clipPath><clipPath id="d"><path d="M3 75h56v51.52H3Zm0 0"/></clipPath><clipPath id="h"><path d="M136 30h3.88v5H136Zm0 0"/></clipPath><clipPath id="i"><path d="M13 24h126.88v97H13Zm0 0"/></clipPath><clipPath id="m"><path d="M13 21h126.88v40H13Zm0 0"/></clipPath></defs><path d="M0 126.52h139.88V0H0Zm0 0" style="stroke:none;fill-rule:nonzero;fill:#ffe4c8;fill-opacity:1"/><path d="M127.56 0h50.23" style="fill:none;stroke-width:.79701;stroke-linecap:butt;stroke-linejoin:miter;stroke:#000;stroke-opacity:1;stroke-miterlimit:10" transform="matrix(1 0 0 -1 -119.58 109.11)"/><path d="M-2.55 3.11C-2.1 1.24-1.05.36 0 0c-1.05-.36-2.09-1.24-2.55-3.11" style="fill:none;stroke-width:.79701;stroke-linecap:round;stroke-linejoin:round;stroke:#000;stroke-opacity:1;stroke-miterlimit:10" transform="matrix(1 0 0 -1 58.6 109.11)"/><use xlink:href="#a" x="49.59" y="117.12" style="fill:#000;fill-opacity:1"/><g clip-path="url(#b)"><path d="M144.57-17v54.47" style="fill:none;stroke-width:.79701;stroke-linecap:butt;stroke-linejoin:miter;stroke:#000;stroke-opacity:1;stroke-miterlimit:10" transform="matrix(1 0 0 -1 -119.58 109.11)"/></g><path d="M-2.55 3.11C-2.09 1.25-1.05.36 0 0c-1.05-.36-2.09-1.24-2.55-3.11" style="fill:none;stroke-width:.79701;stroke-linecap:round;stroke-linejoin:round;stroke:#000;stroke-opacity:1;stroke-miterlimit:10" transform="matrix(0 -1 -1 0 24.98 71.24)"/><use xlink:href="#c" x="28.7" y="72.99" style="fill:#000;fill-opacity:1"/><g clip-path="url(#d)"><path d="m134.75-9.82 32.17 32.17" style="fill:none;stroke-width:.79701;stroke-linecap:butt;stroke-linejoin:miter;stroke:#000;stroke-opacity:1;stroke-miterlimit:10" transform="matrix(1 0 0 -1 -119.58 109.11)"/></g><path d="M-2.55 3.11C-2.08 1.24-1.05.36 0 0c-1.05-.36-2.08-1.24-2.55-3.11" style="fill:none;stroke-width:.79701;stroke-linecap:round;stroke-linejoin:round;stroke:#000;stroke-opacity:1;stroke-miterlimit:10" transform="rotate(135 5.9 53.1)scale(-1 1)"/><use xlink:href="#e" x="45.28" y="80.54" style="fill:#000;fill-opacity:1"/><path d="M127.56 59.53h50.23" style="fill:none;stroke-width:.79701;stroke-linecap:butt;stroke-linejoin:miter;stroke:gray;stroke-opacity:1;stroke-dasharray:2.98883,2.98883;stroke-miterlimit:10" transform="matrix(1 0 0 -1 -119.58 109.11)"/><path d="M-2.55 3.11C-2.1 1.24-1.05.36 0 0c-1.05-.36-2.09-1.24-2.55-3.11" style="fill:none;stroke-width:.79701;stroke-linecap:round;stroke-linejoin:round;stroke:gray;stroke-opacity:1;stroke-miterlimit:10" transform="matrix(1 0 0 -1 58.6 49.58)"/><use xlink:href="#a" x="46.79" y="60.79" style="fill:gray;fill-opacity:1"/><use xlink:href="#f" x="52.48" y="57.18" style="fill:gray;fill-opacity:1"/><path d="M144.57 42.52v58.73" style="fill:none;stroke-width:.79701;stroke-linecap:butt;stroke-linejoin:miter;stroke:gray;stroke-opacity:1;stroke-dasharray:2.98883,2.98883;stroke-miterlimit:10" transform="matrix(1 0 0 -1 -119.58 109.11)"/><path d="M-2.55 3.11C-2.08 1.25-1.05.36 0 0c-1.05-.36-2.08-1.24-2.55-3.11" style="fill:none;stroke-width:.79701;stroke-linecap:round;stroke-linejoin:round;stroke:gray;stroke-opacity:1;stroke-miterlimit:10" transform="matrix(0 -1 -1 0 24.98 7.46)"/><use xlink:href="#c" x="28.7" y="10.81" style="fill:gray;fill-opacity:1"/><use xlink:href="#f" x="33.77" y="7.19" style="fill:gray;fill-opacity:1"/><path d="m134.75 49.7 35.45 35.45" style="fill:none;stroke-width:.79701;stroke-linecap:butt;stroke-linejoin:miter;stroke:gray;stroke-opacity:1;stroke-dasharray:2.98883,2.98883;stroke-miterlimit:10" transform="matrix(1 0 0 -1 -119.58 109.11)"/><path d="M-2.55 3.11C-2.09 1.24-1.05.36 0 .01c-1.05-.37-2.08-1.26-2.55-3.12" style="fill:none;stroke-width:.79701;stroke-linecap:round;stroke-linejoin:round;stroke:gray;stroke-opacity:1;stroke-miterlimit:10" transform="rotate(-45 54.02 -49.6)scale(1 -1)"/><use xlink:href="#e" x="47.16" y="17.74" style="fill:gray;fill-opacity:1"/><use xlink:href="#f" x="52.4" y="14.12" style="fill:gray;fill-opacity:1"/><path d="M131.81 59.53v17.91" style="fill:none;stroke-width:.79701;stroke-linecap:butt;stroke-linejoin:miter;stroke:gray;stroke-opacity:1;stroke-miterlimit:10" transform="matrix(1 0 0 -1 -119.58 109.11)"/><path d="M-2.55 3.11C-2.1 1.24-1.05.36 0 .01c-1.05-.37-2.09-1.25-2.55-3.12" style="fill:none;stroke-width:.79701;stroke-linecap:round;stroke-linejoin:round;stroke:gray;stroke-opacity:1;stroke-miterlimit:10" transform="matrix(0 -1 -1 0 12.23 34.62)"/><path d="M-2.55 3.11C-2.1 1.24-1.05.36 0 .01c-1.05-.37-2.09-1.25-2.55-3.12" style="fill:none;stroke-width:.79701;stroke-linecap:round;stroke-linejoin:round;stroke:gray;stroke-opacity:1;stroke-miterlimit:10" transform="matrix(0 -1 -1 0 12.23 31.27)"/><use xlink:href="#g" x="3.32" y="33.02" style="fill:gray;fill-opacity:1"/><g clip-path="url(#h)"><path d="M139.88 32.57a1.8 1.8 0 1 0-3.59 0 1.8 1.8 0 0 0 3.59 0m0 0" style="stroke:none;fill-rule:nonzero;fill:red;fill-opacity:1"/></g><g clip-path="url(#i)"><path d="m144.57 0 111.59 73.55" style="fill:none;stroke-width:.79701;stroke-linecap:butt;stroke-linejoin:miter;stroke:red;stroke-opacity:1;stroke-miterlimit:10" transform="matrix(1 0 0 -1 -119.58 109.11)"/></g><path d="M-2.55 3.11C-2.08 1.25-1.05.36 0 0c-1.05-.36-2.08-1.24-2.55-3.11" style="fill:none;stroke-width:.79701;stroke-linecap:round;stroke-linejoin:round;stroke:red;stroke-opacity:1;stroke-miterlimit:10" transform="rotate(146.61 63.15 38.2)scale(-.99995 .99995)"/><use xlink:href="#j" x="78.72" y="80.13" style="fill:red;fill-opacity:1"/><path d="M0 0h4.77" style="fill:none;stroke-width:.398;stroke-linecap:butt;stroke-linejoin:miter;stroke:red;stroke-opacity:1;stroke-miterlimit:10" transform="matrix(1 0 0 -1 78.72 81.52)"/><path d="M144.57 0v58.73" style="fill:none;stroke-width:.79701;stroke-linecap:butt;stroke-linejoin:miter;stroke:red;stroke-opacity:1;stroke-miterlimit:10" transform="matrix(1 0 0 -1 -119.58 109.11)"/><path d="M-2.55 3.11C-2.08 1.25-1.05.36 0 0c-1.04-.36-2.08-1.24-2.55-3.11" style="fill:none;stroke-width:.79701;stroke-linecap:round;stroke-linejoin:round;stroke:red;stroke-opacity:1;stroke-miterlimit:10" transform="matrix(0 -1 -1 0 24.98 49.98)"/><use xlink:href="#k" x="11.78" y="81.68" style="fill:red;fill-opacity:1"/><g style="fill:red;fill-opacity:1"><use xlink:href="#l" x="8.81" y="84.14"/><use xlink:href="#l" x="13.64" y="84.14"/></g><use xlink:href="#f" x="18.47" y="81.26" style="fill:red;fill-opacity:1"/><g clip-path="url(#m)"><path d="M144.57 59.53 254.34 76.4" style="fill:none;stroke-width:.79701;stroke-linecap:butt;stroke-linejoin:miter;stroke:red;stroke-opacity:1;stroke-miterlimit:10" transform="matrix(1 0 0 -1 -119.58 109.11)"/></g><path d="M-2.55 3.11C-2.08 1.25-1.05.36 0 0-1.05-.36-2.1-1.24-2.55-3.1" style="fill:none;stroke-width:.79701;stroke-linecap:round;stroke-linejoin:round;stroke:red;stroke-opacity:1;stroke-miterlimit:10" transform="rotate(-8.74 281 -867.45)scale(.99995 -.99995)"/><use xlink:href="#k" x="77" y="34.9" style="fill:red;fill-opacity:1"/><use xlink:href="#l" x="74.13" y="37.36" style="fill:red;fill-opacity:1"/><use xlink:href="#f" x="78.95" y="34.48" style="fill:red;fill-opacity:1"/><use xlink:href="#n" x="81.75" y="37.36" style="fill:red;fill-opacity:1"/></svg>