<svg xmlns="http://www.w3.org/2000/svg" xmlns:xlink="http://www.w3.org/1999/xlink" width="187.309" height="168.691" viewBox="0 0 140.482 126.518"><defs><symbol id="b" overflow="visible"><path d="M3.328-3.016c.063-.25.297-1.171.985-1.171.046 0 .296 0 .5.125a.58.58 0 0 0-.47.546c0 .157.11.344.376.344a.546.546 0 0 0 .531-.578c0-.516-.578-.656-.922-.656-.578 0-.922.531-1.047.75-.25-.656-.781-.75-1.078-.75-1.031 0-1.61 1.281-1.61 1.531 0 .11.11.11.126.11.078 0 .11-.032.125-.11.344-1.062 1-1.312 1.344-1.312.187 0 .53.093.53.671 0 .313-.171.97-.53 2.375-.157.61-.516 1.032-.954 1.032-.062 0-.28 0-.5-.125.25-.063.47-.266.47-.547 0-.266-.22-.344-.36-.344-.313 0-.547.25-.547.578 0 .453.484.656.922.656.672 0 1.031-.703 1.047-.75.125.36.484.75 1.078.75 1.031 0 1.594-1.28 1.594-1.53 0-.11-.079-.11-.11-.11-.094 0-.11.047-.14.11-.329 1.077-1 1.312-1.313 1.312-.39 0-.547-.313-.547-.657 0-.218.047-.437.156-.875Zm0 0" style="stroke:none"/></symbol><symbol id="d" overflow="visible"><path d="M1.328-.828c.531-.578.828-.828 1.188-1.14 0 0 .609-.532.968-.891.954-.922 1.172-1.407 1.172-1.453 0-.094-.093-.094-.11-.094-.077 0-.093.015-.155.11-.297.484-.5.64-.735.64-.25 0-.36-.156-.515-.328-.188-.22-.36-.422-.688-.422-.75 0-1.203.922-1.203 1.14 0 .047.031.11.11.11.093 0 .109-.047.14-.11.188-.468.766-.468.844-.468.203 0 .39.062.625.14.406.156.515.156.765.156-.359.422-1.187 1.141-1.375 1.297l-.906.844C.781-.625.422-.062.422.016c0 .093.11.093.125.093C.625.11.64.094.703-.016c.235-.359.531-.625.86-.625.218 0 .328.094.578.375.156.22.343.375.625.375 1 0 1.578-1.265 1.578-1.53 0-.048-.047-.11-.125-.11-.094 0-.11.062-.14.14-.235.641-.876.829-1.204.829-.187 0-.375-.063-.578-.125-.344-.125-.5-.172-.703-.172-.016 0-.172 0-.266.03m0 0" style="stroke:none"/></symbol><symbol id="f" overflow="visible"><path d="M4.844-3.797c.047-.14.047-.156.047-.234 0-.172-.141-.266-.297-.266a.46.46 0 0 0-.344.203c-.016.063-.11.36-.14.547-.079.25-.141.531-.204.797L3.453-.953c-.031.14-.469.844-1.125.844-.5 0-.61-.438-.61-.813 0-.453.173-1.078.5-1.953.157-.406.204-.516.204-.719 0-.437-.313-.812-.813-.812-.953 0-1.312 1.453-1.312 1.531 0 .11.094.11.11.11.109 0 .109-.032.156-.188.28-.938.671-1.235 1.015-1.235.078 0 .25 0 .25.313 0 .25-.11.516-.172.703-.406 1.063-.578 1.625-.578 2.094 0 .89.625 1.187 1.219 1.187.39 0 .719-.171 1-.453-.125.516-.25 1.016-.64 1.547-.266.328-.641.625-1.094.625-.141 0-.594-.031-.766-.422.156 0 .297 0 .422-.125a.5.5 0 0 0 .203-.406c0-.312-.266-.344-.36-.344C.829.531.5.687.5 1.171c0 .5.438.876 1.063.876 1.015 0 2.046-.906 2.328-2.031Zm0 0" style="stroke:none"/></symbol><symbol id="h" overflow="visible"><path d="M4.672-3.703c0-.547-.266-.703-.438-.703-.25 0-.5.265-.5.484 0 .125.047.188.157.297.218.203.343.453.343.813 0 .421-.609 2.703-1.765 2.703-.516 0-.75-.344-.75-.875 0-.547.281-1.282.578-2.11.078-.172.125-.312.125-.5 0-.437-.313-.812-.813-.812-.937 0-1.312 1.453-1.312 1.531 0 .11.094.11.11.11.109 0 .109-.032.156-.188.296-1 .718-1.235 1.015-1.235.078 0 .25 0 .25.313 0 .25-.11.531-.172.703-.437 1.156-.562 1.61-.562 2.047 0 1.078.875 1.234 1.328 1.234 1.672 0 2.25-3.296 2.25-3.812m0 0" style="stroke:none"/></symbol><symbol id="k" overflow="visible"><path d="M.875-.594c-.031.156-.094.39-.094.438 0 .172.14.265.297.265a.41.41 0 0 0 .375-.28c.016-.032.344-1.391.39-1.579.079-.328.266-1.016.313-1.297.047-.125.328-.594.563-.812.078-.063.375-.328.797-.328.265 0 .406.125.422.125-.297.046-.516.28-.516.546 0 .157.11.344.375.344s.547-.234.547-.594c0-.343-.313-.64-.828-.64-.641 0-1.078.484-1.266.765-.094-.453-.453-.765-.922-.765-.453 0-.64.39-.734.562-.172.344-.297.938-.297.969 0 .11.094.11.11.11.109 0 .109-.016.171-.235.172-.703.375-1.187.735-1.187.156 0 .296.078.296.453 0 .218-.03.328-.156.843Zm0 0" style="stroke:none"/></symbol><symbol id="l" overflow="visible"><path d="M5.36-5.937c-.141.14-.47.421-.47.593 0 .094.094.203.188.203s.14-.078.203-.14c.11-.14.344-.422.782-.64.062-.048.171-.095.171-.204 0-.11-.078-.156-.14-.203a1.03 1.03 0 0 1-.407-.563c-.03-.093-.062-.234-.203-.234-.14 0-.203.14-.203.219 0 .047.078.36.235.578h-3.36c-.156 0-.344 0-.344.203 0 .188.188.188.344.188Zm0 0" style="stroke:none"/></symbol><symbol id="m" overflow="visible"><path d="M7.375-4.344c0-1.61-1.062-2.687-2.547-2.687-2.14 0-4.344 2.265-4.344 4.594C.484-.782 1.61.219 3.047.219c2.11 0 4.328-2.188 4.328-4.563M3.094-.047c-.985 0-1.672-.797-1.672-2.11 0-.452.14-1.905.906-3.062.688-1.047 1.656-1.562 2.453-1.562.813 0 1.703.562 1.703 2.047 0 .718-.265 2.265-1.25 3.5-.484.609-1.296 1.187-2.14 1.187m0 0" style="stroke:none"/></symbol><symbol id="o" overflow="visible"><path d="M7.063-2.328c.015-.047.046-.11.046-.14 0 0 0-.11-.125-.11-.093 0-.109.062-.125.125-.656 1.469-1.015 2.14-2.718 2.14H2.468c-.109-.015-.14-.03-.14-.109 0-.031 0-.047.047-.219l.688-2.734h.984c.844 0 .844.219.844.469 0 .062 0 .187-.063.484-.016.047-.031.078-.031.11 0 .046.031.109.125.109.078 0 .11-.047.156-.203l.563-2.328c0-.063-.047-.11-.125-.11-.079 0-.11.063-.125.172-.22.766-.391 1-1.313 1h-.937l.593-2.406c.094-.36.11-.39.547-.39h1.407c1.203 0 1.515.28 1.515 1.109 0 .234 0 .25-.047.53 0 .048-.015.126-.015.173s.03.125.125.125c.109 0 .125-.063.14-.25l.203-1.735c.032-.265-.015-.265-.265-.265H2.297c-.188 0-.297 0-.297.203 0 .11.094.11.281.11.375 0 .656 0 .656.171 0 .047 0 .063-.062.25L1.563-.78c-.094.39-.11.469-.907.469-.172 0-.281 0-.281.187C.375 0 .469 0 .656 0h5.172c.234 0 .25-.016.313-.172Zm0 0" style="stroke:none"/></symbol><symbol id="g" overflow="visible"><path d="M2.016-3.297c.062-.11.062-.172.062-.219 0-.218-.187-.375-.406-.375-.266 0-.344.22-.375.329L.375-.547a.3.3 0 0 0-.047.11c0 .078.219.156.281.156.047 0 .047-.016.094-.125Zm0 0" style="stroke:none"/></symbol><clipPath id="a"><path d="M0 0h140.48v126.52H0Zm0 0"/></clipPath><clipPath id="c"><path d="M25 71h1v55.52h-1Zm0 0"/></clipPath><clipPath id="e"><path d="M4 75h56v51.52H4Zm0 0"/></clipPath><clipPath id="i"><path d="M136 30h4.48v5H136Zm0 0"/></clipPath><clipPath id="j"><path d="M14 24h126.48v97H14Zm0 0"/></clipPath><clipPath id="n"><path d="M14 21h126.48v40H14Zm0 0"/></clipPath></defs><g clip-path="url(#a)"><path d="M0 126.52h140.48V0H0Zm0 0" style="stroke:none;fill-rule:nonzero;fill:#ffe4c8;fill-opacity:1"/></g><path d="M127.562-.001h50.316" style="fill:none;stroke-width:.79701;stroke-linecap:butt;stroke-linejoin:miter;stroke:#000;stroke-opacity:1;stroke-miterlimit:10" transform="matrix(1 0 0 -1 -118.98 109.112)"/><path d="M-1.554 2.073C-1.425 1.296 0 .128.387-.001 0-.131-1.425-1.294-1.554-2.071" style="fill:none;stroke-width:.6376;stroke-linecap:round;stroke-linejoin:round;stroke:#000;stroke-opacity:1;stroke-miterlimit:10" transform="matrix(1 0 0 -1 58.898 109.112)"/><use xlink:href="#b" x="50.19" y="117.12" style="fill:#000;fill-opacity:1"/><g clip-path="url(#c)"><path d="M144.57-17.01v54.571" style="fill:none;stroke-width:.79701;stroke-linecap:butt;stroke-linejoin:miter;stroke:#000;stroke-opacity:1;stroke-miterlimit:10" transform="matrix(1 0 0 -1 -118.98 109.112)"/></g><path d="M-1.554 2.073C-1.425 1.295.001.13.387-.001c-.386-.13-1.812-1.293-1.941-2.07" style="fill:none;stroke-width:.6376;stroke-linecap:round;stroke-linejoin:round;stroke:#000;stroke-opacity:1;stroke-miterlimit:10" transform="matrix(0 -1 -1 0 25.588 71.551)"/><use xlink:href="#d" x="29.306" y="72.989" style="fill:#000;fill-opacity:1"/><g clip-path="url(#e)"><path d="m134.746-9.822 32.242 32.239" style="fill:none;stroke-width:.79701;stroke-linecap:butt;stroke-linejoin:miter;stroke:#000;stroke-opacity:1;stroke-miterlimit:10" transform="matrix(1 0 0 -1 -118.98 109.112)"/></g><path d="M-1.555 2.072C-1.425 1.296 0 .131.39.001 0-.13-1.425-1.295-1.555-2.071" style="fill:none;stroke-width:.6376;stroke-linecap:round;stroke-linejoin:round;stroke:#000;stroke-opacity:1;stroke-miterlimit:10" transform="scale(1 -1)rotate(45 128.654 14.602)"/><use xlink:href="#f" x="45.883" y="80.538" style="fill:#000;fill-opacity:1"/><path d="M127.562 59.526h50.316" style="fill:none;stroke-width:.79701;stroke-linecap:butt;stroke-linejoin:miter;stroke:gray;stroke-opacity:1;stroke-dasharray:2.98883,2.98883;stroke-miterlimit:10" transform="matrix(1 0 0 -1 -118.98 109.112)"/><path d="M-1.554 2.072C-1.425 1.295 0 .131.387-.002 0-.13-1.425-1.295-1.554-2.072" style="fill:none;stroke-width:.6376;stroke-linecap:round;stroke-linejoin:round;stroke:gray;stroke-opacity:1;stroke-miterlimit:10" transform="matrix(1 0 0 -1 58.898 49.584)"/><use xlink:href="#b" x="47.395" y="60.793" style="fill:gray;fill-opacity:1"/><use xlink:href="#g" x="53.089" y="57.178" style="fill:gray;fill-opacity:1"/><path d="M144.57 42.518v58.824" style="fill:none;stroke-width:.79701;stroke-linecap:butt;stroke-linejoin:miter;stroke:gray;stroke-opacity:1;stroke-dasharray:2.98883,2.98883;stroke-miterlimit:10" transform="matrix(1 0 0 -1 -118.98 109.112)"/><path d="M-1.553 2.073C-1.424 1.295.002.13.388-.001c-.386-.13-1.812-1.293-1.941-2.07" style="fill:none;stroke-width:.6376;stroke-linecap:round;stroke-linejoin:round;stroke:gray;stroke-opacity:1;stroke-miterlimit:10" transform="matrix(0 -1 -1 0 25.588 7.771)"/><use xlink:href="#d" x="29.306" y="10.81" style="fill:gray;fill-opacity:1"/><use xlink:href="#g" x="34.377" y="7.194" style="fill:gray;fill-opacity:1"/><path d="M134.746 49.706 170.26 85.22" style="fill:none;stroke-width:.79701;stroke-linecap:butt;stroke-linejoin:miter;stroke:gray;stroke-opacity:1;stroke-dasharray:2.98883,2.98883;stroke-miterlimit:10" transform="matrix(1 0 0 -1 -118.98 109.112)"/><path d="M-1.556 2.072C-1.426 1.296-.001.13.388 0c-.39-.13-1.814-1.295-1.941-2.074" style="fill:none;stroke-width:.6376;stroke-linecap:round;stroke-linejoin:round;stroke:gray;stroke-opacity:1;stroke-miterlimit:10" transform="scale(1 -1)rotate(45 54.481 49.955)"/><use xlink:href="#f" x="47.76" y="17.737" style="fill:gray;fill-opacity:1"/><use xlink:href="#g" x="53.002" y="14.121" style="fill:gray;fill-opacity:1"/><path d="M131.812 59.526V77.53" style="fill:none;stroke-width:.79701;stroke-linecap:butt;stroke-linejoin:miter;stroke:gray;stroke-opacity:1;stroke-miterlimit:10" transform="matrix(1 0 0 -1 -118.98 109.112)"/><path d="M-1.556 2.071C-1.423 1.294-.001.13.389.001 0-.128-1.423-1.296-1.556-2.073" style="fill:none;stroke-width:.6376;stroke-linecap:round;stroke-linejoin:round;stroke:gray;stroke-opacity:1;stroke-miterlimit:10" transform="matrix(0 -1 -1 0 12.833 34.163)"/><path d="M-1.554 2.071C-1.425 1.294 0 .13.387.001 0-.128-1.425-1.296-1.554-2.073" style="fill:none;stroke-width:.6376;stroke-linecap:round;stroke-linejoin:round;stroke:gray;stroke-opacity:1;stroke-miterlimit:10" transform="matrix(0 -1 -1 0 12.833 31.582)"/><use xlink:href="#h" x="3.926" y="33.021" style="fill:gray;fill-opacity:1"/><g clip-path="url(#i)"><path d="M140.484 32.574a1.793 1.793 0 1 0-3.586 0 1.794 1.794 0 1 0 3.586 0m0 0" style="stroke:none;fill-rule:nonzero;fill:red;fill-opacity:1"/></g><g clip-path="url(#j)"><path d="m144.57-.001 111.66 73.597" style="fill:none;stroke-width:.79701;stroke-linecap:butt;stroke-linejoin:miter;stroke:red;stroke-opacity:1;stroke-miterlimit:10" transform="matrix(1 0 0 -1 -118.98 109.112)"/></g><path d="M-1.555 2.074C-1.423 1.294-.002.129.39-.003.001-.13-1.427-1.295-1.555-2.072" style="fill:none;stroke-width:.6376;stroke-linecap:round;stroke-linejoin:round;stroke:red;stroke-opacity:1;stroke-miterlimit:10" transform="scale(.99995 -.99995)rotate(33.388 127.846 211.08)"/><use xlink:href="#k" x="79.327" y="80.129" style="fill:red;fill-opacity:1"/><path d="M.001 0h4.77" style="fill:none;stroke-width:.398;stroke-linecap:butt;stroke-linejoin:miter;stroke:red;stroke-opacity:1;stroke-miterlimit:10" transform="matrix(1 0 0 -1 79.327 81.523)"/><path d="M144.57-.001v58.82" style="fill:none;stroke-width:.79701;stroke-linecap:butt;stroke-linejoin:miter;stroke:red;stroke-opacity:1;stroke-miterlimit:10" transform="matrix(1 0 0 -1 -118.98 109.112)"/><path d="M-1.552 2.073C-1.423 1.295-.002.13.389-.001c-.39-.13-1.812-1.293-1.941-2.07" style="fill:none;stroke-width:.6376;stroke-linecap:round;stroke-linejoin:round;stroke:red;stroke-opacity:1;stroke-miterlimit:10" transform="matrix(0 -1 -1 0 25.588 50.291)"/><use xlink:href="#l" x="9.337" y="81.648" style="fill:red;fill-opacity:1"/><use xlink:href="#m" x="3.32" y="84.166" style="fill:red;fill-opacity:1"/><use xlink:href="#m" x="11.198" y="84.166" style="fill:red;fill-opacity:1"/><use xlink:href="#g" x="19.072" y="81.288" style="fill:red;fill-opacity:1"/><g clip-path="url(#n)"><path d="M144.57 59.526 254.42 76.428" style="fill:none;stroke-width:.79701;stroke-linecap:butt;stroke-linejoin:miter;stroke:red;stroke-opacity:1;stroke-miterlimit:10" transform="matrix(1 0 0 -1 -118.98 109.112)"/></g><path d="M-1.555 2.073C-1.426 1.295 0 .131.387 0c-.388-.13-1.812-1.294-1.94-2.073" style="fill:none;stroke-width:.6376;stroke-linecap:round;stroke-linejoin:round;stroke:red;stroke-opacity:1;stroke-miterlimit:10" transform="scale(.99995 -.99995)rotate(8.744 281.47 869.429)"/><use xlink:href="#l" x="77.605" y="34.844" style="fill:red;fill-opacity:1"/><use xlink:href="#m" x="71.562" y="37.362" style="fill:red;fill-opacity:1"/><use xlink:href="#g" x="79.438" y="34.484" style="fill:red;fill-opacity:1"/><use xlink:href="#o" x="82.234" y="37.362" style="fill:red;fill-opacity:1"/></svg>