<svg xmlns="http://www.w3.org/2000/svg" xmlns:xlink="http://www.w3.org/1999/xlink" width="196.94" height="134.01" viewBox="0 0 147.71 100.5"><defs><symbol id="b" overflow="visible"><path d="M4.84-3.8c.05-.14.05-.15.05-.23 0-.17-.14-.27-.3-.27-.09 0-.25.07-.34.2l-.14.55q-.12.38-.2.8l-.46 1.8c-.03.14-.47.84-1.12.84-.5 0-.61-.44-.61-.81q0-.66.5-1.95c.15-.41.2-.52.2-.72a.8.8 0 0 0-.81-.82C.66-4.4.3-2.95.3-2.87c0 .1.1.1.1.1.12 0 .12-.03.16-.18.28-.94.67-1.24 1.02-1.24.08 0 .25 0 .25.32 0 .25-.11.51-.17.7a6 6 0 0 0-.58 2.1C1.08-.2 1.7.1 2.3.1q.58-.02 1-.45a4 4 0 0 1-.64 1.54c-.27.33-.64.63-1.1.63-.14 0-.6-.03-.76-.42.15 0 .3 0 .42-.13a.5.5 0 0 0 .2-.4c0-.32-.26-.35-.36-.35C.83.53.5.7.5 1.17c0 .5.44.88 1.06.88 1.02 0 2.05-.9 2.33-2.03Zm0 0" style="stroke:none"/></symbol><symbol id="c" overflow="visible"><path d="M1.33-.83c.53-.58.83-.83 1.19-1.14 0 0 .6-.53.96-.89.96-.92 1.18-1.4 1.18-1.45 0-.1-.1-.1-.11-.1-.08 0-.1.02-.16.11-.3.49-.5.64-.73.64-.25 0-.36-.15-.52-.32-.19-.22-.36-.43-.69-.43-.75 0-1.2.93-1.2 1.14q0 .1.1.11c.1 0 .12-.04.15-.1.19-.47.77-.47.84-.47q.3.01.63.14c.4.15.51.15.76.15a16 16 0 0 1-1.37 1.3l-.9.84A5 5 0 0 0 .41.02C.42.1.53.1.55.1Q.64.13.7-.02c.24-.35.53-.62.86-.62.22 0 .33.1.58.37.16.22.34.38.63.38 1 0 1.57-1.27 1.57-1.53q0-.1-.12-.11c-.1 0-.11.06-.14.14-.24.64-.88.83-1.2.83Q2.59-.57 2.3-.7c-.35-.12-.5-.17-.7-.17-.02 0-.18 0-.27.03m0 0" style="stroke:none"/></symbol><symbol id="f" overflow="visible"><path d="M3.33-3.02c.06-.25.3-1.17.98-1.17a1 1 0 0 1 .5.13.6.6 0 0 0-.47.54c0 .16.11.35.38.35.22 0 .53-.17.53-.58 0-.52-.58-.66-.92-.66-.58 0-.92.54-1.05.75A1.1 1.1 0 0 0 2.2-4.4C1.17-4.4.6-3.12.6-2.87c0 .1.1.1.12.1q.1 0 .12-.1c.35-1.07 1-1.32 1.35-1.32.19 0 .53.1.53.67 0 .32-.17.97-.53 2.38-.16.6-.52 1.03-.96 1.03-.06 0-.28 0-.5-.12.25-.07.47-.27.47-.55 0-.27-.22-.34-.36-.34-.3 0-.54.25-.54.57 0 .46.48.66.92.66.67 0 1.03-.7 1.05-.75.12.36.48.75 1.07.75 1.04 0 1.6-1.28 1.6-1.53 0-.11-.08-.11-.11-.11-.1 0-.11.05-.14.1C4.36-.33 3.69-.1 3.37-.1c-.39 0-.54-.31-.54-.66 0-.21.04-.43.15-.87Zm0 0" style="stroke:none"/></symbol><symbol id="g" overflow="visible"><path d="m.88-.6-.1.44c0 .18.14.27.3.27.12 0 .3-.08.37-.28.02-.03.35-1.4.4-1.58.07-.33.26-1.02.3-1.3.05-.12.33-.6.57-.8.08-.07.37-.34.8-.34.26 0 .4.13.42.13-.3.04-.52.28-.52.54 0 .16.11.35.38.35.26 0 .54-.24.54-.6 0-.34-.3-.64-.82-.64-.64 0-1.08.49-1.27.77a.9.9 0 0 0-.92-.77c-.46 0-.64.4-.74.57-.17.34-.3.93-.3.96 0 .11.1.11.12.11.1 0 .1-.01.17-.23.17-.7.37-1.19.73-1.19.16 0 .3.08.3.46 0 .21-.03.32-.16.84Zm0 0" style="stroke:none"/></symbol><symbol id="h" overflow="visible"><path d="M4.08-2.3h2.78c.14 0 .33 0 .33-.2 0-.19-.19-.19-.33-.19H4.08v-2.8c0-.13 0-.32-.2-.32s-.2.18-.2.33v2.8H.88c-.14 0-.33 0-.33.18 0 .2.19.2.33.2h2.78V.5c0 .14 0 .33.2.33s.2-.19.2-.33Zm0 0" style="stroke:none"/></symbol><symbol id="i" overflow="visible"><path d="M3.78-.55v.66L5.25 0v-.31c-.69 0-.78-.06-.78-.56v-6.05l-1.42.1v.32c.68 0 .76.06.76.56v2.16a1.6 1.6 0 0 0-1.25-.63C1.4-4.4.34-3.42.34-2.14.34-.87 1.31.1 2.45.1c.64 0 1.08-.34 1.33-.66m0-2.67v2.05c0 .17 0 .19-.1.36-.3.48-.74.7-1.18.7-.45 0-.81-.26-1.05-.64-.25-.4-.28-.97-.28-1.4 0-.35.02-.94.3-1.4.22-.3.6-.64 1.14-.64.34 0 .77.16 1.06.6.11.17.11.18.11.37m0 0" style="stroke:none"/></symbol><clipPath id="a"><path d="M0 0h147.7v100.5H0Zm0 0"/></clipPath><clipPath id="d"><path d="M2 58h53v42.5H2Zm0 0"/></clipPath><clipPath id="e"><path d="M12 95h6v5.5h-6Zm0 0"/></clipPath></defs><g clip-path="url(#a)"><path d="M0 100.5h147.7V0H0Zm0 0" style="stroke:none;fill-rule:nonzero;fill:#ffe4c8;fill-opacity:1"/></g><path d="M0 0h55.9" style="fill:none;stroke-width:.79701;stroke-linecap:butt;stroke-linejoin:miter;stroke:#000;stroke-opacity:1;stroke-miterlimit:10" transform="matrix(1 0 0 -1 42.74 69.81)"/><path d="M-2.55 3.11C-2.1 1.24-1.05.36 0 .01c-1.05-.37-2.09-1.25-2.55-3.12" style="fill:none;stroke-width:.79701;stroke-linecap:round;stroke-linejoin:round;stroke:#000;stroke-opacity:1;stroke-miterlimit:10" transform="matrix(1 0 0 -1 99.04 69.81)"/><use xlink:href="#b" x="90.48" y="77.82" style="fill:#000;fill-opacity:1"/><path d="M0 0v55.9" style="fill:none;stroke-width:.79701;stroke-linecap:butt;stroke-linejoin:miter;stroke:#000;stroke-opacity:1;stroke-miterlimit:10" transform="matrix(1 0 0 -1 42.74 69.81)"/><path d="M-2.55 3.11C-2.1 1.25-1.05.36 0 0c-1.05-.36-2.09-1.24-2.55-3.11" style="fill:none;stroke-width:.79701;stroke-linecap:round;stroke-linejoin:round;stroke:#000;stroke-opacity:1;stroke-miterlimit:10" transform="matrix(0 -1 -1 0 42.74 13.52)"/><use xlink:href="#c" x="33.95" y="21.13" style="fill:#000;fill-opacity:1"/><g clip-path="url(#d)"><path d="m0 0-29.45-29.45" style="fill:none;stroke-width:.79701;stroke-linecap:butt;stroke-linejoin:miter;stroke:#000;stroke-opacity:1;stroke-miterlimit:10" transform="matrix(1 0 0 -1 42.74 69.81)"/></g><g clip-path="url(#e)"><path d="M-2.55 3.11C-2.08 1.24-1.05.36 0 0c-1.05-.36-2.08-1.24-2.55-3.11" style="fill:none;stroke-width:.79701;stroke-linecap:round;stroke-linejoin:round;stroke:#000;stroke-opacity:1;stroke-miterlimit:10" transform="rotate(135 -14.1 52.47)scale(1 -1)"/></g><use xlink:href="#f" x="3.32" y="96.11" style="fill:#000;fill-opacity:1"/><path d="M.56.56 56.7 56.7" style="fill:none;stroke-width:.79701;stroke-linecap:butt;stroke-linejoin:miter;stroke:red;stroke-opacity:1;stroke-dasharray:.79701,1.99255;stroke-miterlimit:10" transform="matrix(1 0 0 -1 42.74 69.81)"/><path d="M-2.55 3.11C-2.08 1.24-1.05.36 0 0c-1.05-.36-2.08-1.24-2.55-3.11" style="fill:none;stroke-width:.79701;stroke-linecap:round;stroke-linejoin:round;stroke:red;stroke-opacity:1;stroke-miterlimit:10" transform="rotate(135 7.11 43.68)scale(1 -1)"/><path d="m.68.41 70.19 42.11" style="fill:none;stroke-width:.79701;stroke-linecap:butt;stroke-linejoin:miter;stroke:red;stroke-opacity:1;stroke-dasharray:.79701,1.99255;stroke-miterlimit:10" transform="matrix(1 0 0 -1 42.74 69.81)"/><path d="M-2.55 3.11C-2.1 1.24-1.05.36 0 0c-1.05-.36-2.09-1.24-2.55-3.11" style="fill:none;stroke-width:.79701;stroke-linecap:round;stroke-linejoin:round;stroke:red;stroke-opacity:1;stroke-miterlimit:10" transform="matrix(-.85747 .5145 .5145 .85747 43.09 69.6)"/><path d="m56.7 56.7 12.19-12.2" style="fill:none;stroke-width:.79701;stroke-linecap:butt;stroke-linejoin:miter;stroke:#00f;stroke-opacity:1;stroke-miterlimit:10" transform="matrix(1 0 0 -1 42.74 69.81)"/><path d="M-2.55 3.1C-2.08 1.25-1.05.37 0 0-1.04-.36-2.1-1.24-2.55-3.1" style="fill:none;stroke-width:.79701;stroke-linecap:round;stroke-linejoin:round;stroke:#00f;stroke-opacity:1;stroke-miterlimit:10" transform="rotate(45 25.06 147.9)scale(.99997 -.99997)"/><path d="M101.43 13.12a2 2 0 1 0-3.98 0 2 2 0 0 0 3.98 0m0 0" style="stroke:none;fill-rule:nonzero;fill:#00f;fill-opacity:1"/><use xlink:href="#g" x="97.05" y="7.61" style="fill:#00f;fill-opacity:1"/><path d="M0 0h4.77" style="fill:none;stroke-width:.398;stroke-linecap:butt;stroke-linejoin:miter;stroke:#00f;stroke-opacity:1;stroke-miterlimit:10" transform="matrix(1 0 0 -1 97.05 9)"/><path d="M115.6 27.3a2 2 0 1 0-3.98 0 2 2 0 0 0 3.99 0m0 0" style="stroke:none;fill-rule:nonzero;fill:#00f;fill-opacity:1"/><use xlink:href="#g" x="117.13" y="29.76" style="fill:#00f;fill-opacity:1"/><path d="M0 0h4.77" style="fill:none;stroke-width:.398;stroke-linecap:butt;stroke-linejoin:miter;stroke:#00f;stroke-opacity:1;stroke-miterlimit:10" transform="matrix(1 0 0 -1 117.13 31.15)"/><use xlink:href="#h" x="124.12" y="29.76" style="fill:#00f;fill-opacity:1"/><use xlink:href="#i" x="134.08" y="29.76" style="fill:#00f;fill-opacity:1"/><use xlink:href="#g" x="139.61" y="29.76" style="fill:#00f;fill-opacity:1"/><path d="M0 0h4.77" style="fill:none;stroke-width:.398;stroke-linecap:butt;stroke-linejoin:miter;stroke:#00f;stroke-opacity:1;stroke-miterlimit:10" transform="matrix(1 0 0 -1 139.61 31.15)"/></svg>