<svg xmlns="http://www.w3.org/2000/svg" xmlns:xlink="http://www.w3.org/1999/xlink" width="79.56" height="33.96" viewBox="0 0 59.67 25.47"><defs><symbol id="a" overflow="visible"><path d="M3.95-3.78c-.17 0-.3 0-.43.12a.5.5 0 0 0-.2.4c0 .24.2.35.38.35.28 0 .55-.25.55-.64 0-.48-.47-.86-1.17-.86C1.73-4.4.4-2.98.4-1.58.4-.68.98.11 2.03.11 3.45.1 4.28-.95 4.28-1.06c0-.06-.05-.14-.1-.14-.07 0-.09.03-.15.1-.78 1-1.87 1-1.98 1-.63 0-.9-.5-.9-1.1 0-.4.2-1.38.54-1.99.31-.58.86-1 1.4-1 .33 0 .72.13.86.4m0 0" style="stroke:none"/></symbol><symbol id="b" overflow="visible"><path d="M3.6-2.22c0-.76-.1-1.33-.41-1.81-.22-.31-.66-.6-1.2-.6C.35-4.62.35-2.71.35-2.21S.36.14 1.98.14C3.6.14 3.6-1.72 3.6-2.22M1.97-.06c-.32 0-.75-.19-.89-.75C1-1.21 1-1.8 1-2.31c0-.52 0-1.05.1-1.42.15-.55.59-.7.88-.7a.9.9 0 0 1 .86.63q.15.57.13 1.49c0 .51 0 1.03-.1 1.47-.14.64-.6.78-.89.78m0 0" style="stroke:none"/></symbol></defs><path d="M0 25.47h59.67V0H0Zm0 0" style="stroke:none;fill-rule:nonzero;fill:#ffe4c8;fill-opacity:1"/><path d="m0 0 51.73-11" style="fill:none;stroke-width:1.59404;stroke-linecap:butt;stroke-linejoin:miter;stroke:red;stroke-opacity:1;stroke-miterlimit:10" transform="matrix(1 0 0 -1 5.58 5.58)"/><path d="M-3.5 4.55C-2.88 1.82-1.45.53 0 0c-1.44-.53-2.87-1.82-3.5-4.55" style="fill:none;stroke-width:1.59404;stroke-linecap:round;stroke-linejoin:round;stroke:red;stroke-opacity:1;stroke-miterlimit:10" transform="rotate(192.01 29.93 5.32)scale(-.99998 .99998)"/><use xlink:href="#a" x="27.83" y="19.66" style="fill:red;fill-opacity:1"/><path d="M0 0h4.31" style="fill:none;stroke-width:.398;stroke-linecap:butt;stroke-linejoin:miter;stroke:red;stroke-opacity:1;stroke-miterlimit:10" transform="matrix(1 0 0 -1 27.83 21.05)"/><use xlink:href="#b" x="32.15" y="22.15" style="fill:red;fill-opacity:1"/><path d="M11.16 5.58A5.58 5.58 0 1 0 0 5.58a5.58 5.58 0 0 0 11.16 0m0 0" style="stroke:none;fill-rule:nonzero;fill:#000;fill-opacity:1"/></svg>