<svg data-optimized="true" xmlns="http://www.w3.org/2000/svg" xmlns:xlink="http://www.w3.org/1999/xlink" width="196.247" height="148.501" viewBox="0 0 147.185 111.376"><defs><symbol id="b" overflow="visible"><path d="M3.89-3.734c-.265.015-.468.234-.468.453 0 .14.094.297.312.297.22 0 .454-.172.454-.563 0-.453-.422-.86-1.188-.86-1.312 0-1.687 1.016-1.687 1.454 0 .781.734.922 1.03.984.516.11 1.032.219 1.032.766 0 .25-.219 1.094-1.422 1.094-.14 0-.906 0-1.14-.532.39.047.64-.25.64-.53 0-.22-.172-.345-.375-.345-.266 0-.562.204-.562.657 0 .562.578.968 1.422.968 1.625 0 2.015-1.203 2.015-1.656a.97.97 0 0 0-.312-.719c-.266-.28-.563-.343-1-.421-.36-.079-.75-.157-.75-.61 0-.281.234-.89 1.109-.89.25 0 .75.078.89.453m0 0" style="stroke:none"/></symbol><symbol id="d" overflow="visible"><path d="M4.844-3.797c.047-.14.047-.156.047-.234 0-.172-.141-.266-.297-.266a.46.46 0 0 0-.344.203c-.016.063-.11.36-.14.547-.079.25-.141.531-.204.797L3.453-.953c-.031.14-.469.844-1.125.844-.5 0-.61-.438-.61-.813 0-.453.173-1.078.5-1.953.157-.406.204-.516.204-.719 0-.437-.313-.812-.813-.812-.953 0-1.312 1.453-1.312 1.531 0 .11.094.11.11.11.109 0 .109-.032.156-.188.28-.938.671-1.235 1.015-1.235.078 0 .25 0 .25.313 0 .25-.11.516-.172.703-.406 1.063-.578 1.625-.578 2.094 0 .89.625 1.187 1.219 1.187.39 0 .719-.171 1-.453-.125.516-.25 1.016-.64 1.547-.266.328-.641.625-1.094.625-.141 0-.594-.031-.766-.422.156 0 .297 0 .422-.125a.5.5 0 0 0 .203-.406c0-.312-.266-.344-.36-.344C.829.531.5.687.5 1.171c0 .5.438.876 1.063.876 1.015 0 2.046-.906 2.328-2.031Zm0 0" style="stroke:none"/></symbol><symbol id="e" overflow="visible"><path d="M1.328-.828c.531-.578.828-.828 1.188-1.14 0 0 .609-.532.968-.891.954-.922 1.172-1.407 1.172-1.453 0-.094-.093-.094-.11-.094-.077 0-.093.015-.155.11-.297.484-.5.64-.735.64-.25 0-.36-.156-.515-.328-.188-.22-.36-.422-.688-.422-.75 0-1.203.922-1.203 1.14 0 .047.031.11.11.11.093 0 .109-.047.14-.11.188-.468.766-.468.844-.468.203 0 .39.062.625.14.406.156.515.156.765.156-.359.422-1.187 1.141-1.375 1.297l-.906.844C.781-.625.422-.062.422.016c0 .093.11.093.125.093C.625.11.64.094.703-.016c.235-.359.531-.625.86-.625.218 0 .328.094.578.375.156.22.343.375.625.375 1 0 1.578-1.265 1.578-1.53 0-.048-.047-.11-.125-.11-.094 0-.11.062-.14.14-.235.641-.876.829-1.204.829-.187 0-.375-.063-.578-.125-.344-.125-.5-.172-.703-.172-.016 0-.172 0-.266.03m0 0" style="stroke:none"/></symbol><symbol id="h" overflow="visible"><path d="M3.328-3.016c.063-.25.297-1.171.985-1.171.046 0 .296 0 .5.125a.58.58 0 0 0-.47.546c0 .157.11.344.376.344a.546.546 0 0 0 .531-.578c0-.516-.578-.656-.922-.656-.578 0-.922.531-1.047.75-.25-.656-.781-.75-1.078-.75-1.031 0-1.61 1.281-1.61 1.531 0 .11.11.11.126.11.078 0 .11-.032.125-.11.344-1.062 1-1.312 1.344-1.312.187 0 .53.093.53.671 0 .313-.171.97-.53 2.375-.157.61-.516 1.032-.954 1.032-.062 0-.28 0-.5-.125.25-.063.47-.266.47-.547 0-.266-.22-.344-.36-.344-.313 0-.547.25-.547.578 0 .453.484.656.922.656.672 0 1.031-.703 1.047-.75.125.36.484.75 1.078.75 1.031 0 1.594-1.28 1.594-1.53 0-.11-.079-.11-.11-.11-.094 0-.11.047-.14.11-.329 1.077-1 1.312-1.313 1.312-.39 0-.547-.313-.547-.657 0-.218.047-.437.156-.875Zm0 0" style="stroke:none"/></symbol><symbol id="k" overflow="visible"><path d="M.875-.594c-.031.156-.094.39-.094.438 0 .172.14.265.297.265a.41.41 0 0 0 .375-.28c.016-.032.344-1.391.39-1.579.079-.328.266-1.016.313-1.297.047-.125.328-.594.563-.812.078-.063.375-.328.797-.328.265 0 .406.125.422.125-.297.046-.516.28-.516.546 0 .157.11.344.375.344s.547-.234.547-.594c0-.343-.313-.64-.828-.64-.641 0-1.078.484-1.266.765-.094-.453-.453-.765-.922-.765-.453 0-.64.39-.734.562-.172.344-.297.938-.297.969 0 .11.094.11.11.11.109 0 .109-.016.171-.235.172-.703.375-1.187.735-1.187.156 0 .296.078.296.453 0 .218-.03.328-.156.843Zm0 0" style="stroke:none"/></symbol><symbol id="c" overflow="visible"><path d="M3.594-2.219c0-.765-.094-1.328-.406-1.812-.22-.313-.657-.594-1.204-.594C.36-4.625.36-2.719.36-2.219s0 2.36 1.625 2.36c1.61 0 1.61-1.86 1.61-2.36M1.984-.062c-.328 0-.75-.188-.89-.75C1-1.22 1-1.797 1-2.312c0-.516 0-1.047.094-1.422.156-.547.593-.703.89-.703.375 0 .735.234.86.64.11.375.125.875.125 1.485 0 .515 0 1.03-.094 1.468-.14.64-.61.782-.89.782m0 0" style="stroke:none"/></symbol><clipPath id="a"><path d="M0 0h147.184v111.375H0Zm0 0"/></clipPath><clipPath id="f"><path d="M6 70h52v41.375H6Zm0 0"/></clipPath><clipPath id="g"><path d="M16 106h6v5.375h-6Zm0 0"/></clipPath><clipPath id="i"><path d="M35 6h112.184v87H35Zm0 0"/></clipPath><clipPath id="j"><path d="M143 12h4.184v5H143Zm0 0"/></clipPath></defs><g clip-path="url(#a)"><path d="M0 111.375h147.184V0H0Zm0 0" style="stroke:none;fill-rule:nonzero;fill:#ffe4c8;fill-opacity:1"/></g><use xlink:href="#b" x="50.378" y="91.018" style="fill:#00f;fill-opacity:1"/><use xlink:href="#c" x="55.048" y="92.512" style="fill:#00f;fill-opacity:1"/><path d="M0 .002H54.76" style="fill:none;stroke-width:.79701;stroke-linecap:butt;stroke-linejoin:miter;stroke:#00f;stroke-opacity:1;stroke-miterlimit:10" transform="matrix(1 0 0 -1 46.614 81.287)"/><path d="M-2.552 3.111C-2.082 1.244-1.048.361 0 .001-1.048-.36-2.083-1.243-2.55-3.11" style="fill:none;stroke-width:.79701;stroke-linecap:round;stroke-linejoin:round;stroke:#00f;stroke-opacity:1;stroke-miterlimit:10" transform="matrix(1 0 0 -1 101.774 81.287)"/><use xlink:href="#d" x="89.099" y="89.295" style="fill:#00f;fill-opacity:1"/><use xlink:href="#c" x="93.984" y="90.79" style="fill:#00f;fill-opacity:1"/><path d="M0 .002v54.762" style="fill:none;stroke-width:.79701;stroke-linecap:butt;stroke-linejoin:miter;stroke:#00f;stroke-opacity:1;stroke-miterlimit:10" transform="matrix(1 0 0 -1 46.614 81.287)"/><path d="M-2.55 3.11C-2.083 1.243-1.044.364.003 0-1.045-.362-2.084-1.244-2.55-3.112" style="fill:none;stroke-width:.79701;stroke-linecap:round;stroke-linejoin:round;stroke:#00f;stroke-opacity:1;stroke-miterlimit:10" transform="matrix(0 -1 -1 0 46.614 26.127)"/><use xlink:href="#e" x="33.793" y="33.737" style="fill:#00f;fill-opacity:1"/><use xlink:href="#c" x="38.426" y="35.231" style="fill:#00f;fill-opacity:1"/><g clip-path="url(#f)"><path d="M0 .002-28.849-28.85" style="fill:none;stroke-width:.79701;stroke-linecap:butt;stroke-linejoin:miter;stroke:#00f;stroke-opacity:1;stroke-miterlimit:10" transform="matrix(1 0 0 -1 46.614 81.287)"/></g><g clip-path="url(#g)"><path d="M-2.552 3.111C-2.085 1.247-1.046.363.001.001c-1.047-.362-2.086-1.246-2.55-3.113" style="fill:none;stroke-width:.79701;stroke-linecap:round;stroke-linejoin:round;stroke:#00f;stroke-opacity:1;stroke-miterlimit:10" transform="scale(-1 1)rotate(45 -142.028 34.103)"/></g><use xlink:href="#h" x="3.321" y="105.485" style="fill:#00f;fill-opacity:1"/><use xlink:href="#c" x="9.014" y="106.979" style="fill:#00f;fill-opacity:1"/><g clip-path="url(#i)"><path d="m0 .002 95.179 63.45" style="fill:none;stroke-width:.79701;stroke-linecap:butt;stroke-linejoin:miter;stroke:red;stroke-opacity:1;stroke-dasharray:.79701,1.99255;stroke-miterlimit:10" transform="matrix(1 0 0 -1 46.614 81.287)"/></g><path d="M-2.55 3.109C-2.084 1.244-1.046.364.002-.001c-1.05-.362-2.087-1.243-2.553-3.11" style="fill:none;stroke-width:.79701;stroke-linecap:round;stroke-linejoin:round;stroke:red;stroke-opacity:1;stroke-miterlimit:10" transform="scale(.99996 -.99996)rotate(33.69 100.153 225.907)"/><path d="M51.496 81.285a4.88 4.88 0 0 0-4.883-4.879 4.881 4.881 0 1 0 0 9.762 4.88 4.88 0 0 0 4.883-4.883m0 0" style="stroke:none;fill-rule:nonzero;fill:#00f;fill-opacity:1"/><g clip-path="url(#j)"><path d="M147.188 14.617a1.954 1.954 0 1 0-3.908.002 1.954 1.954 0 0 0 3.907-.002m0 0" style="stroke:none;fill-rule:nonzero;fill:#000;fill-opacity:1"/></g><use xlink:href="#k" x="132.748" y="7.61" style="fill:#000;fill-opacity:1"/><use xlink:href="#c" x="137.243" y="9.104" style="fill:#000;fill-opacity:1"/><path d="M-.002-.001h8.965" style="fill:none;stroke-width:.398;stroke-linecap:butt;stroke-linejoin:miter;stroke:#000;stroke-opacity:1;stroke-miterlimit:10" transform="matrix(1 0 0 -1 132.748 10.499)"/></svg>