<svg data-optimized="true" xmlns="http://www.w3.org/2000/svg" xmlns:xlink="http://www.w3.org/1999/xlink" width="198.547" height="219.143" viewBox="0 0 148.91 164.357"><defs><symbol id="b" overflow="visible"><path d="M3.89-3.734c-.265.015-.468.234-.468.453 0 .14.094.297.312.297.22 0 .454-.172.454-.563 0-.453-.422-.86-1.188-.86-1.312 0-1.687 1.016-1.687 1.454 0 .781.734.922 1.03.984.516.11 1.032.219 1.032.766 0 .25-.219 1.094-1.422 1.094-.14 0-.906 0-1.14-.532.39.047.64-.25.64-.53 0-.22-.172-.345-.375-.345-.266 0-.562.204-.562.657 0 .562.578.968 1.422.968 1.625 0 2.015-1.203 2.015-1.656a.97.97 0 0 0-.312-.719c-.266-.28-.563-.343-1-.421-.36-.079-.75-.157-.75-.61 0-.281.234-.89 1.109-.89.25 0 .75.078.89.453m0 0" style="stroke:none"/></symbol><symbol id="f" overflow="visible"><path d="M4.844-3.797c.047-.14.047-.156.047-.234 0-.172-.141-.266-.297-.266a.46.46 0 0 0-.344.203c-.016.063-.11.36-.14.547-.079.25-.141.531-.204.797L3.453-.953c-.031.14-.469.844-1.125.844-.5 0-.61-.438-.61-.813 0-.453.173-1.078.5-1.953.157-.406.204-.516.204-.719 0-.437-.313-.812-.813-.812-.953 0-1.312 1.453-1.312 1.531 0 .11.094.11.11.11.109 0 .109-.032.156-.188.28-.938.671-1.235 1.015-1.235.078 0 .25 0 .25.313 0 .25-.11.516-.172.703-.406 1.063-.578 1.625-.578 2.094 0 .89.625 1.187 1.219 1.187.39 0 .719-.171 1-.453-.125.516-.25 1.016-.64 1.547-.266.328-.641.625-1.094.625-.141 0-.594-.031-.766-.422.156 0 .297 0 .422-.125a.5.5 0 0 0 .203-.406c0-.312-.266-.344-.36-.344C.829.531.5.687.5 1.171c0 .5.438.876 1.063.876 1.015 0 2.046-.906 2.328-2.031Zm0 0" style="stroke:none"/></symbol><symbol id="i" overflow="visible"><path d="M1.328-.828c.531-.578.828-.828 1.188-1.14 0 0 .609-.532.968-.891.954-.922 1.172-1.407 1.172-1.453 0-.094-.093-.094-.11-.094-.077 0-.093.015-.155.11-.297.484-.5.64-.735.64-.25 0-.36-.156-.515-.328-.188-.22-.36-.422-.688-.422-.75 0-1.203.922-1.203 1.14 0 .047.031.11.11.11.093 0 .109-.047.14-.11.188-.468.766-.468.844-.468.203 0 .39.062.625.14.406.156.515.156.765.156-.359.422-1.187 1.141-1.375 1.297l-.906.844C.781-.625.422-.062.422.016c0 .093.11.093.125.093C.625.11.64.094.703-.016c.235-.359.531-.625.86-.625.218 0 .328.094.578.375.156.22.343.375.625.375 1 0 1.578-1.265 1.578-1.53 0-.048-.047-.11-.125-.11-.094 0-.11.062-.14.14-.235.641-.876.829-1.204.829-.187 0-.375-.063-.578-.125-.344-.125-.5-.172-.703-.172-.016 0-.172 0-.266.03m0 0" style="stroke:none"/></symbol><symbol id="j" overflow="visible"><path d="M3.328-3.016c.063-.25.297-1.171.985-1.171.046 0 .296 0 .5.125a.58.58 0 0 0-.47.546c0 .157.11.344.376.344a.546.546 0 0 0 .531-.578c0-.516-.578-.656-.922-.656-.578 0-.922.531-1.047.75-.25-.656-.781-.75-1.078-.75-1.031 0-1.61 1.281-1.61 1.531 0 .11.11.11.126.11.078 0 .11-.032.125-.11.344-1.062 1-1.312 1.344-1.312.187 0 .53.093.53.671 0 .313-.171.97-.53 2.375-.157.61-.516 1.032-.954 1.032-.062 0-.28 0-.5-.125.25-.063.47-.266.47-.547 0-.266-.22-.344-.36-.344-.313 0-.547.25-.547.578 0 .453.484.656.922.656.672 0 1.031-.703 1.047-.75.125.36.484.75 1.078.75 1.031 0 1.594-1.28 1.594-1.53 0-.11-.079-.11-.11-.11-.094 0-.11.047-.14.11-.329 1.077-1 1.312-1.313 1.312-.39 0-.547-.313-.547-.657 0-.218.047-.437.156-.875Zm0 0" style="stroke:none"/></symbol><symbol id="o" overflow="visible"><path d="M.875-.594c-.031.156-.094.39-.094.438 0 .172.14.265.297.265a.41.41 0 0 0 .375-.28c.016-.032.344-1.391.39-1.579.079-.328.266-1.016.313-1.297.047-.125.328-.594.563-.812.078-.063.375-.328.797-.328.265 0 .406.125.422.125-.297.046-.516.28-.516.546 0 .157.11.344.375.344s.547-.234.547-.594c0-.343-.313-.64-.828-.64-.641 0-1.078.484-1.266.765-.094-.453-.453-.765-.922-.765-.453 0-.64.39-.734.562-.172.344-.297.938-.297.969 0 .11.094.11.11.11.109 0 .109-.016.171-.235.172-.703.375-1.187.735-1.187.156 0 .296.078.296.453 0 .218-.03.328-.156.843Zm0 0" style="stroke:none"/></symbol><symbol id="p" overflow="visible"><path d="M2.578-6.812s0-.11-.14-.11c-.22 0-.954.078-1.22.11-.077 0-.187.015-.187.203 0 .109.11.109.25.109.485 0 .5.094.5.172l-.031.203L.484-1.141a1 1 0 0 0-.046.329.89.89 0 0 0 .906.921c.328 0 .578-.203.75-.562.172-.375.297-.953.297-.969 0-.11-.094-.11-.125-.11-.094 0-.11.048-.125.188-.172.64-.36 1.235-.766 1.235-.297 0-.297-.313-.297-.453 0-.25.016-.297.063-.485Zm0 0" style="stroke:none"/></symbol><symbol id="q" overflow="visible"><path d="M3.484-.562c.11.406.47.671.891.671.344 0 .578-.234.734-.546.172-.36.297-.97.297-.985 0-.11-.078-.11-.11-.11-.109 0-.109.048-.14.188-.14.563-.328 1.235-.75 1.235-.203 0-.312-.125-.312-.453 0-.22.125-.688.203-1.047l.281-1.078c.031-.141.125-.516.172-.672.047-.235.14-.61.14-.672 0-.172-.14-.266-.28-.266-.048 0-.313.016-.391.344a419 419 0 0 0-.75 3c-.016.047-.406.844-1.14.844-.517 0-.61-.453-.61-.813 0-.562.281-1.344.531-2.031.125-.313.172-.453.172-.64 0-.438-.313-.813-.813-.813-.953 0-1.312 1.453-1.312 1.531 0 .11.094.11.11.11.109 0 .109-.032.156-.188.25-.86.64-1.235 1.015-1.235.094 0 .25.016.25.329 0 .234-.11.53-.172.672-.375 1-.578 1.609-.578 2.093C1.078-.14 1.766.11 2.297.11c.656 0 1.015-.453 1.187-.671m0 0" style="stroke:none"/></symbol><symbol id="c" overflow="visible"><path d="M1.64-1.406c0-.047.173-.672.173-.703.015-.063.218-.407.453-.578.062-.047.25-.188.562-.188a.7.7 0 0 1 .375.094.41.41 0 0 0-.297.39c0 .141.11.25.266.25.172 0 .39-.125.39-.421 0-.36-.374-.516-.734-.516s-.672.156-.984.5c-.125-.422-.547-.5-.719-.5-.25 0-.422.172-.547.36A2.4 2.4 0 0 0 .328-2c0 .078.094.078.125.078.094 0 .094-.016.14-.203.11-.422.25-.75.516-.75.188 0 .235.156.235.344 0 .125-.063.39-.125.578-.047.187-.11.469-.14.625l-.235.89C.828-.343.78-.171.78-.156c0 .156.125.219.235.219s.25-.063.297-.188c.015-.047.093-.36.14-.531Zm0 0" style="stroke:none"/></symbol><symbol id="d" overflow="visible"><path d="M1.563-1.594c.187 0 .75-.015 1.125-.14.515-.188.609-.516.609-.72 0-.39-.39-.624-.86-.624-.843 0-1.968.64-1.968 1.844 0 .703.437 1.297 1.25 1.297 1.187 0 1.734-.688 1.734-.782 0-.047-.062-.125-.125-.125-.031 0-.047.016-.11.078-.546.641-1.359.641-1.484.641-.421 0-.703-.281-.703-.844 0-.094 0-.234.094-.625Zm-.391-.187c.297-1.016 1.062-1.094 1.266-1.094.296 0 .562.156.562.422 0 .672-1.187.672-1.484.672Zm0 0" style="stroke:none"/></symbol><symbol id="e" overflow="visible"><path d="M1.719-2.75h.703c.14 0 .219 0 .219-.156C2.64-3 2.562-3 2.438-3H1.78l.25-1.031a.3.3 0 0 0 .031-.094c0-.14-.109-.234-.25-.234-.171 0-.265.125-.328.297-.046.187.047-.157-.265 1.062H.516c-.125 0-.22 0-.22.156 0 .094.079.094.204.094h.656L.75-1.11c-.047.173-.11.423-.11.516 0 .407.36.657.75.657.782 0 1.22-.97 1.22-1.063 0-.094-.094-.094-.11-.094-.094 0-.094.016-.156.14-.188.438-.547.829-.922.829-.156 0-.25-.094-.25-.344 0-.062.031-.219.047-.281Zm0 0" style="stroke:none"/></symbol><symbol id="g" overflow="visible"><path d="M3.594-2.219c0-.765-.094-1.328-.406-1.812-.22-.313-.657-.594-1.204-.594C.36-4.625.36-2.719.36-2.219s0 2.36 1.625 2.36c1.61 0 1.61-1.86 1.61-2.36M1.984-.062c-.328 0-.75-.188-.89-.75C1-1.22 1-1.797 1-2.312c0-.516 0-1.047.094-1.422.156-.547.593-.703.89-.703.375 0 .735.234.86.64.11.375.125.875.125 1.485 0 .515 0 1.03-.094 1.468-.14.64-.61.782-.89.782m0 0" style="stroke:none"/></symbol><symbol id="h" overflow="visible"><path d="M2.172-.094c0-.593-.328-.984-.813-.984-.375 0-.656.266-.656.594 0 .359.281.593.688.593.03 0 .14 0 .156-.015h.031c.047 0 .063.031.063.094 0 .421-.328.89-1 1.359l.234.281C1.75 1.218 2.172.61 2.172-.094m0 0" style="stroke:none"/></symbol><clipPath id="a"><path d="M0 0h148.91v164.355H0Zm0 0"/></clipPath><clipPath id="k"><path d="M25 139h31v25.355H25Zm0 0"/></clipPath><clipPath id="l"><path d="M30 160h5v4.355h-5Zm0 0"/></clipPath><clipPath id="m"><path d="M119 12h29.91v41H119Zm0 0"/></clipPath><clipPath id="n"><path d="M44 14h104.91v40H44Zm0 0"/></clipPath><clipPath id="r"><path d="M145 18h3.91v5H145Zm0 0"/></clipPath></defs><g clip-path="url(#a)"><path d="M0 164.355h148.91V0H0Zm0 0" style="stroke:none;fill-rule:nonzero;fill:#ffe4c8;fill-opacity:1"/></g><use xlink:href="#b" x="52.906" y="155.005" style="fill:gray;fill-opacity:1"/><use xlink:href="#c" x="57.576" y="156.5" style="fill:gray;fill-opacity:1"/><g style="fill:gray;fill-opacity:1"><use xlink:href="#d" x="61.491" y="156.5"/><use xlink:href="#e" x="65.271" y="156.5"/></g><path d="M4.883 0A4.885 4.885 0 0 1 0 4.884 4.885 4.885 0 0 1-4.882.001 4.885 4.885 0 0 1 0-4.882 4.885 4.885 0 0 1 4.883 0Zm0 0" style="fill-rule:nonzero;fill:#ccc;fill-opacity:1;stroke-width:.3985;stroke-linecap:butt;stroke-linejoin:miter;stroke:#ccc;stroke-opacity:1;stroke-miterlimit:10" transform="matrix(1 0 0 -1 49.73 145.274)"/><path d="M135.082 39.016a1.954 1.954 0 1 0-3.908.001 1.954 1.954 0 0 0 3.908-.001m0 0" style="stroke:none;fill-rule:nonzero;fill:#f99;fill-opacity:1"/><path d="M0 97.227h39.48" style="fill:none;stroke-width:.79701;stroke-linecap:butt;stroke-linejoin:miter;stroke:#000;stroke-opacity:1;stroke-miterlimit:10" transform="matrix(1 0 0 -1 49.73 145.274)"/><path d="M-2.549 3.111C-2.084 1.244-1.045.361-.002-.002c-1.043-.36-2.082-1.242-2.547-3.11" style="fill:none;stroke-width:.79701;stroke-linecap:round;stroke-linejoin:round;stroke:#000;stroke-opacity:1;stroke-miterlimit:10" transform="matrix(1 0 0 -1 89.611 48.045)"/><use xlink:href="#f" x="68.925" y="56.055" style="fill:#00f;fill-opacity:1"/><use xlink:href="#g" x="73.809" y="57.549" style="fill:#00f;fill-opacity:1"/><use xlink:href="#h" x="78.278" y="56.055" style="fill:#000;fill-opacity:1"/><use xlink:href="#f" x="81.048" y="56.055" style="fill:#000;fill-opacity:1"/><path d="M0 97.227v40.875" style="fill:none;stroke-width:.79701;stroke-linecap:butt;stroke-linejoin:miter;stroke:#000;stroke-opacity:1;stroke-miterlimit:10" transform="matrix(1 0 0 -1 49.73 145.274)"/><path d="M-2.55 3.113C-2.087 1.246-1.048.363 0 0c-1.047-.364-2.086-1.243-2.55-3.11" style="fill:none;stroke-width:.79701;stroke-linecap:round;stroke-linejoin:round;stroke:#000;stroke-opacity:1;stroke-miterlimit:10" transform="matrix(0 -1 -1 0 49.73 6.773)"/><use xlink:href="#i" x="29.067" y="7.61" style="fill:#00f;fill-opacity:1"/><use xlink:href="#g" x="33.7" y="9.104" style="fill:#00f;fill-opacity:1"/><use xlink:href="#h" x="38.17" y="7.61" style="fill:#000;fill-opacity:1"/><use xlink:href="#i" x="40.939" y="7.61" style="fill:#000;fill-opacity:1"/><path d="m0 97.227-23.5-23.5" style="fill:none;stroke-width:.79701;stroke-linecap:butt;stroke-linejoin:miter;stroke:#000;stroke-opacity:1;stroke-miterlimit:10" transform="matrix(1 0 0 -1 49.73 145.274)"/><path d="M-2.552 3.112C-2.082 1.245-1.047.363 0 .002c-1.044-.365-2.085-1.246-2.55-3.113" style="fill:none;stroke-width:.79701;stroke-linecap:round;stroke-linejoin:round;stroke:#000;stroke-opacity:1;stroke-miterlimit:10" transform="scale(-1 1)rotate(45 -99.678 4.591)"/><use xlink:href="#j" x="3.321" y="66.568" style="fill:#00f;fill-opacity:1"/><use xlink:href="#g" x="9.014" y="68.062" style="fill:#00f;fill-opacity:1"/><use xlink:href="#h" x="13.484" y="66.568" style="fill:#000;fill-opacity:1"/><use xlink:href="#j" x="16.253" y="66.568" style="fill:#000;fill-opacity:1"/><path d="M0 0h34.325" style="fill:none;stroke-width:.3985;stroke-linecap:butt;stroke-linejoin:miter;stroke:gray;stroke-opacity:1;stroke-dasharray:2.98883,2.98883;stroke-miterlimit:10" transform="matrix(1 0 0 -1 49.73 145.274)"/><path d="M-2.072 2.391C-1.693.958-.849.278-.002.001c-.847-.282-1.691-.957-2.07-2.391" style="fill:none;stroke-width:.3985;stroke-linecap:round;stroke-linejoin:round;stroke:gray;stroke-opacity:1;stroke-miterlimit:10" transform="matrix(1 0 0 -1 84.255 145.274)"/><use xlink:href="#f" x="71.58" y="139.817" style="fill:gray;fill-opacity:1"/><use xlink:href="#g" x="76.465" y="141.312" style="fill:gray;fill-opacity:1"/><path d="M0 0v27.38" style="fill:none;stroke-width:.3985;stroke-linecap:butt;stroke-linejoin:miter;stroke:gray;stroke-opacity:1;stroke-dasharray:2.98883,2.98883;stroke-miterlimit:10" transform="matrix(1 0 0 -1 49.73 145.274)"/><path d="M-2.072 2.39C-1.692.957-.849.28-.002 0c-.847-.278-1.69-.957-2.07-2.391" style="fill:none;stroke-width:.3985;stroke-linecap:round;stroke-linejoin:round;stroke:gray;stroke-opacity:1;stroke-miterlimit:10" transform="matrix(0 -1 -1 0 49.73 117.694)"/><use xlink:href="#i" x="37.107" y="125.304" style="fill:gray;fill-opacity:1"/><use xlink:href="#g" x="41.741" y="126.799" style="fill:gray;fill-opacity:1"/><g clip-path="url(#k)"><path d="m0 0-18.433-18.433" style="fill:none;stroke-width:.3985;stroke-linecap:butt;stroke-linejoin:miter;stroke:gray;stroke-opacity:1;stroke-dasharray:2.98883,2.98883;stroke-miterlimit:10" transform="matrix(1 0 0 -1 49.73 145.274)"/></g><g clip-path="url(#l)"><path d="M-2.072 2.39C-1.693.955-.85.278.003 0-.851-.28-1.693-.956-2.072-2.39" style="fill:none;stroke-width:.3985;stroke-linecap:round;stroke-linejoin:round;stroke:gray;stroke-opacity:1;stroke-miterlimit:10" transform="scale(-1 1)rotate(45 -213.363 44.319)"/></g><use xlink:href="#j" x="17.33" y="158.977" style="fill:gray;fill-opacity:1"/><use xlink:href="#g" x="23.024" y="160.471" style="fill:gray;fill-opacity:1"/><path d="m0 0 80.973 103.27" style="fill:none;stroke-width:.79701;stroke-linecap:butt;stroke-linejoin:miter;stroke:red;stroke-opacity:1;stroke-dasharray:.79701,1.99255;stroke-miterlimit:10" transform="matrix(1 0 0 -1 49.73 145.274)"/><path d="M-2.55 3.113C-2.084 1.245-1.044.363 0-.001c-1.046-.363-2.084-1.242-2.55-3.11" style="fill:none;stroke-width:.79701;stroke-linecap:round;stroke-linejoin:round;stroke:red;stroke-opacity:1;stroke-miterlimit:10" transform="matrix(.617 -.78691 -.78691 -.617 130.949 41.69)"/><g clip-path="url(#m)"><path d="m81.465 103.895 13.883 17.711" style="fill:none;stroke-width:.79701;stroke-linecap:butt;stroke-linejoin:miter;stroke:red;stroke-opacity:1;stroke-dasharray:.79701,1.99255;stroke-miterlimit:10" transform="matrix(1 0 0 -1 49.73 145.274)"/></g><path d="M-2.548 3.11C-2.084 1.247-1.044.365 0 0c-1.046-.362-2.085-1.247-2.55-3.11" style="fill:none;stroke-width:.79701;stroke-linecap:round;stroke-linejoin:round;stroke:red;stroke-opacity:1;stroke-miterlimit:10" transform="scale(.99997 -.99997)rotate(51.901 96.66 137.632)"/><g clip-path="url(#n)"><path d="m0 97.227 94.067 27.668" style="fill:none;stroke-width:.3985;stroke-linecap:butt;stroke-linejoin:miter;stroke:#000;stroke-opacity:1;stroke-miterlimit:10" transform="matrix(1 0 0 -1 49.73 145.274)"/></g><path d="M-2.071 2.39C-1.695.956-.851.28-.001.002c-.847-.28-1.695-.96-2.071-2.392" style="fill:none;stroke-width:.3985;stroke-linecap:round;stroke-linejoin:round;stroke:#000;stroke-opacity:1;stroke-miterlimit:10" transform="scale(.99995 -.99995)rotate(16.389 142.563 489.817)"/><use xlink:href="#o" x="95.953" y="28.645" style="fill:#000;fill-opacity:1"/><path d="M0 0h4.77" style="fill:none;stroke-width:.398;stroke-linecap:butt;stroke-linejoin:miter;stroke:#000;stroke-opacity:1;stroke-miterlimit:10" transform="matrix(1 0 0 -1 95.953 30.039)"/><path d="m0 97.227 79.887 8.984" style="fill:none;stroke-width:.3985;stroke-linecap:butt;stroke-linejoin:miter;stroke:red;stroke-opacity:1;stroke-miterlimit:10" transform="matrix(1 0 0 -1 49.73 145.274)"/><path d="M-2.072 2.39C-1.694.957-.85.28-.002 0-.85-.278-1.693-.958-2.07-2.39" style="fill:none;stroke-width:.3985;stroke-linecap:round;stroke-linejoin:round;stroke:red;stroke-opacity:1;stroke-miterlimit:10" transform="scale(.99994 -.99994)rotate(6.415 413.249 1138.8)"/><use xlink:href="#p" x="105.088" y="53.288" style="fill:red;fill-opacity:1"/><path d="M.002 0H3.17" style="fill:none;stroke-width:.398;stroke-linecap:butt;stroke-linejoin:miter;stroke:red;stroke-opacity:1;stroke-miterlimit:10" transform="matrix(1 0 0 -1 105.088 54.683)"/><path d="M4.883 97.227c0 2.7-2.187 4.883-4.883 4.883a4.882 4.882 0 1 1 4.883-4.883Zm0 0" style="fill-rule:nonzero;fill:#00f;fill-opacity:1;stroke-width:.3985;stroke-linecap:butt;stroke-linejoin:miter;stroke:#00f;stroke-opacity:1;stroke-miterlimit:10" transform="matrix(1 0 0 -1 49.73 145.274)"/><use xlink:href="#b" x="53.25" y="55.856" style="fill:#00f;fill-opacity:1"/><path d="M0 0v90.876" style="fill:none;stroke-width:.79701;stroke-linecap:butt;stroke-linejoin:miter;stroke:#00f;stroke-opacity:1;stroke-dasharray:.79701,1.99255;stroke-miterlimit:10" transform="matrix(1 0 0 -1 49.73 145.274)"/><path d="M-2.552 3.113C-2.083 1.246-1.044.363-.002 0c-1.042-.364-2.081-1.243-2.55-3.11" style="fill:none;stroke-width:.79701;stroke-linecap:round;stroke-linejoin:round;stroke:#00f;stroke-opacity:1;stroke-miterlimit:10" transform="matrix(0 -1 -1 0 49.73 53.999)"/><path d="M0 48.614v6.148" style="fill:none;stroke-width:.79701;stroke-linecap:butt;stroke-linejoin:miter;stroke:#00f;stroke-opacity:1;stroke-miterlimit:10" transform="matrix(1 0 0 -1 49.73 145.274)"/><path d="M-2.55 3.113C-2.087 1.246-1.048.363 0 0c-1.047-.364-2.086-1.243-2.55-3.11" style="fill:none;stroke-width:.79701;stroke-linecap:round;stroke-linejoin:round;stroke:#00f;stroke-opacity:1;stroke-miterlimit:10" transform="matrix(0 -1 -1 0 49.73 93.461)"/><path d="M-2.55 3.113C-2.086 1.246-1.046.363 0 0c-1.046-.364-2.086-1.243-2.55-3.11" style="fill:none;stroke-width:.79701;stroke-linecap:round;stroke-linejoin:round;stroke:#00f;stroke-opacity:1;stroke-miterlimit:10" transform="matrix(0 -1 -1 0 49.73 90.114)"/><use xlink:href="#q" x="40.308" y="90.865" style="fill:#00f;fill-opacity:1"/><path d="M0 .001h5.704" style="fill:none;stroke-width:.398;stroke-linecap:butt;stroke-linejoin:miter;stroke:#00f;stroke-opacity:1;stroke-miterlimit:10" transform="matrix(1 0 0 -1 40.308 92.259)"/><g clip-path="url(#r)"><path d="M148.91 20.266a1.951 1.951 0 1 0-3.902 0 1.95 1.95 0 1 0 3.902 0m0 0" style="stroke:none;fill-rule:nonzero;fill:#000;fill-opacity:1"/></g></svg>