<svg xmlns="http://www.w3.org/2000/svg" xmlns:xlink="http://www.w3.org/1999/xlink" width="181.3" height="199.26" viewBox="0 0 135.98 149.44"><defs><symbol id="d" overflow="visible"><path d="M4.84-3.8c.05-.14.05-.15.05-.23 0-.17-.14-.27-.3-.27-.09 0-.25.07-.34.2l-.14.55q-.12.38-.2.8l-.46 1.8c-.03.14-.47.84-1.12.84-.5 0-.61-.44-.61-.81q0-.66.5-1.95c.15-.41.2-.52.2-.72a.8.8 0 0 0-.81-.82C.66-4.4.3-2.95.3-2.87c0 .1.1.1.1.1.12 0 .12-.03.16-.18.28-.94.67-1.24 1.02-1.24.08 0 .25 0 .25.32 0 .25-.11.51-.17.7a6 6 0 0 0-.58 2.1C1.08-.2 1.7.1 2.3.1q.58-.02 1-.45a4 4 0 0 1-.64 1.54c-.27.33-.64.63-1.1.63-.14 0-.6-.03-.76-.42.15 0 .3 0 .42-.13a.5.5 0 0 0 .2-.4c0-.32-.26-.35-.36-.35C.83.53.5.7.5 1.17c0 .5.44.88 1.06.88 1.02 0 2.05-.9 2.33-2.03Zm0 0" style="stroke:none"/></symbol><symbol id="e" overflow="visible"><path d="M1.33-.83c.53-.58.83-.83 1.19-1.14 0 0 .6-.53.96-.89.96-.92 1.18-1.4 1.18-1.45 0-.1-.1-.1-.11-.1-.08 0-.1.02-.16.11-.3.49-.5.64-.73.64-.25 0-.36-.15-.52-.32-.19-.22-.36-.43-.69-.43-.75 0-1.2.93-1.2 1.14q0 .1.1.11c.1 0 .12-.04.15-.1.19-.47.77-.47.84-.47q.3.01.63.14c.4.15.51.15.76.15a16 16 0 0 1-1.37 1.3l-.9.84A5 5 0 0 0 .41.02C.42.1.53.1.55.1Q.64.13.7-.02c.24-.35.53-.62.86-.62.22 0 .33.1.58.37.16.22.34.38.63.38 1 0 1.57-1.27 1.57-1.53q0-.1-.12-.11c-.1 0-.11.06-.14.14-.24.64-.88.83-1.2.83Q2.59-.57 2.3-.7c-.35-.12-.5-.17-.7-.17-.02 0-.18 0-.27.03m0 0" style="stroke:none"/></symbol><symbol id="f" overflow="visible"><path d="M3.33-3.02c.06-.25.3-1.17.98-1.17a1 1 0 0 1 .5.13.6.6 0 0 0-.47.54c0 .16.11.35.38.35.22 0 .53-.17.53-.58 0-.52-.58-.66-.92-.66-.58 0-.92.54-1.05.75A1.1 1.1 0 0 0 2.2-4.4C1.17-4.4.6-3.12.6-2.87c0 .1.1.1.12.1q.1 0 .12-.1c.35-1.07 1-1.32 1.35-1.32.19 0 .53.1.53.67 0 .32-.17.97-.53 2.38-.16.6-.52 1.03-.96 1.03-.06 0-.28 0-.5-.12.25-.07.47-.27.47-.55 0-.27-.22-.34-.36-.34-.3 0-.54.25-.54.57 0 .46.48.66.92.66.67 0 1.03-.7 1.05-.75.12.36.48.75 1.07.75 1.04 0 1.6-1.28 1.6-1.53 0-.11-.08-.11-.11-.11-.1 0-.11.05-.14.1C4.36-.33 3.69-.1 3.37-.1c-.39 0-.54-.31-.54-.66 0-.21.04-.43.15-.87Zm0 0" style="stroke:none"/></symbol><symbol id="h" overflow="visible"><path d="M3.95-3.78c-.17 0-.3 0-.43.12a.5.5 0 0 0-.2.4c0 .24.2.35.38.35.28 0 .55-.25.55-.64 0-.48-.47-.86-1.17-.86C1.73-4.4.4-2.98.4-1.58.4-.68.98.11 2.03.11 3.45.1 4.28-.95 4.28-1.06c0-.06-.05-.14-.1-.14-.07 0-.09.03-.15.1-.78 1-1.87 1-1.98 1-.63 0-.9-.5-.9-1.1 0-.4.2-1.38.54-1.99.31-.58.86-1 1.4-1 .33 0 .72.13.86.4m0 0" style="stroke:none"/></symbol><symbol id="i" overflow="visible"><path d="M4.25-6.05c.08-.28.1-.34.23-.37.1-.02.43-.02.63-.02 1.01 0 1.45.03 1.45.82 0 .15-.03.54-.08.8l-.03.18c0 .06.03.14.13.14s.12-.08.15-.23L7-6.47c.02-.05.02-.14.02-.17 0-.11-.1-.11-.27-.11H1.22c-.24 0-.25.02-.33.2L.3-4.8c0 .02-.06.16-.06.2q.02.08.13.1c.1 0 .1-.06.17-.22.53-1.55.8-1.72 2.27-1.72h.39c.28 0 .28.03.28.13 0 .04-.03.17-.05.2L2.1-.78C2-.42 1.97-.31.91-.31c-.36 0-.43 0-.43.19C.48 0 .6 0 .66 0l.8-.02.87-.01.83.01.86.02c.09 0 .21 0 .21-.2 0-.11-.07-.11-.34-.11-.23 0-.37 0-.62-.02-.3-.03-.38-.06-.38-.22q-.01 0 .05-.2Zm0 0" style="stroke:none"/></symbol><symbol id="l" overflow="visible"><path d="M2.58-6.81s0-.11-.14-.11c-.22 0-.96.08-1.22.1-.08 0-.19.02-.19.21 0 .11.11.11.25.11.49 0 .5.1.5.17l-.03.2L.48-1.13a1 1 0 0 0-.04.33c0 .58.44.92.9.92q.5-.01.75-.56c.18-.38.3-.96.3-.97 0-.11-.1-.11-.12-.11-.1 0-.11.05-.13.19-.17.64-.36 1.23-.77 1.23-.3 0-.3-.31-.3-.45 0-.25.02-.3.07-.49Zm0 0" style="stroke:none"/></symbol><symbol id="m" overflow="visible"><path d="M3.48-.56c.11.4.47.67.9.67.34 0 .57-.23.73-.55a5 5 0 0 0 .3-.98c0-.11-.08-.11-.11-.11-.11 0-.11.05-.14.19-.14.56-.33 1.23-.75 1.23-.2 0-.32-.12-.32-.45 0-.22.13-.69.2-1.05l.29-1.08.17-.67c.05-.23.14-.6.14-.67 0-.17-.14-.27-.28-.27-.05 0-.31.02-.4.35l-.74 3c-.02.04-.4.84-1.14.84-.52 0-.61-.45-.61-.81a7 7 0 0 1 .53-2.03c.13-.32.17-.46.17-.64a.8.8 0 0 0-.81-.82C.66-4.4.3-2.95.3-2.87c0 .1.1.1.1.1.12 0 .12-.03.16-.18.25-.86.64-1.24 1.02-1.24.1 0 .25.02.25.33 0 .23-.11.53-.17.67-.38 1-.58 1.61-.58 2.1 0 .95.69 1.2 1.22 1.2.65 0 1.01-.45 1.18-.67m0 0" style="stroke:none"/></symbol><symbol id="j" overflow="visible"><path d="M.52.84c-.05.2-.07.25-.33.25-.1 0-.19 0-.19.16q.02.11.1.1l.59-.02.73.03c.06 0 .14-.03.14-.16 0-.1-.1-.1-.19-.1-.15 0-.34 0-.34-.08L1.11.7l.26-1.04c.08.14.3.4.72.4.85 0 1.79-.93 1.79-1.97 0-.8-.57-1.17-1.04-1.17-.43 0-.8.3-1 .5-.1-.4-.5-.5-.72-.5-.26 0-.43.19-.54.38-.14.23-.25.65-.25.7 0 .08.1.08.12.08.1 0 .1-.02.14-.2.11-.41.25-.75.52-.75.19 0 .23.15.23.34l-.03.2Zm1.32-3.07c.41-.55.75-.64.97-.64.28 0 .52.2.52.67 0 .28-.16 1-.36 1.4-.19.35-.52.68-.88.68-.5 0-.62-.54-.62-.61l.01-.11Zm0 0" style="stroke:none"/></symbol><clipPath id="a"><path d="M0 0h135.98v149.45H0Zm0 0"/></clipPath><clipPath id="b"><path d="M31 139h11v10.45H31Zm0 0"/></clipPath><clipPath id="c"><path d="M26 133h22v16.45H26Zm0 0"/></clipPath><clipPath id="g"><path d="M25 11h110.98v138.45H25Zm0 0"/></clipPath><clipPath id="k"><path d="M31 13h104.98v40H31Zm0 0"/></clipPath><clipPath id="n"><path d="M132 17h3.98v5H132Zm0 0"/></clipPath></defs><g clip-path="url(#a)"><path d="M0 149.45h135.98V0H0Zm0 0" style="stroke:none;fill-rule:nonzero;fill:#ffe4c8;fill-opacity:1"/></g><g clip-path="url(#b)"><path d="M41.68 144.36a4.88 4.88 0 1 0-9.77 0 4.88 4.88 0 0 0 9.77 0m0 0" style="stroke:none;fill-rule:nonzero;fill:#ccc;fill-opacity:1"/></g><g clip-path="url(#c)"><path d="M4.88 0a4.88 4.88 0 1 1-9.77 0 4.88 4.88 0 0 1 9.77 0Zm0 0" style="fill:none;stroke-width:.3985;stroke-linecap:butt;stroke-linejoin:miter;stroke:#ccc;stroke-opacity:1;stroke-miterlimit:10" transform="matrix(1 0 0 -1 36.8 144.36)"/></g><path d="M0 97.23h39.48" style="fill:none;stroke-width:.79701;stroke-linecap:butt;stroke-linejoin:miter;stroke:#000;stroke-opacity:1;stroke-miterlimit:10" transform="matrix(1 0 0 -1 36.8 144.36)"/><path d="M-2.55 3.11C-2.08 1.24-1.05.36 0 .01c-1.05-.37-2.08-1.25-2.55-3.12" style="fill:none;stroke-width:.79701;stroke-linecap:round;stroke-linejoin:round;stroke:#000;stroke-opacity:1;stroke-miterlimit:10" transform="matrix(1 0 0 -1 76.68 47.13)"/><use xlink:href="#d" x="74.45" y="55.14" style="fill:#000;fill-opacity:1"/><path d="M0 97.23v40.87" style="fill:none;stroke-width:.79701;stroke-linecap:butt;stroke-linejoin:miter;stroke:#000;stroke-opacity:1;stroke-miterlimit:10" transform="matrix(1 0 0 -1 36.8 144.36)"/><path d="M-2.55 3.11C-2.08 1.25-1.05.36 0 0c-1.05-.36-2.08-1.25-2.55-3.1" style="fill:none;stroke-width:.79701;stroke-linecap:round;stroke-linejoin:round;stroke:#000;stroke-opacity:1;stroke-miterlimit:10" transform="matrix(0 -1 -1 0 36.8 5.86)"/><use xlink:href="#e" x="40.52" y="7.61" style="fill:#000;fill-opacity:1"/><path d="m0 97.23-23.5-23.5" style="fill:none;stroke-width:.79701;stroke-linecap:butt;stroke-linejoin:miter;stroke:#000;stroke-opacity:1;stroke-miterlimit:10" transform="matrix(1 0 0 -1 36.8 144.36)"/><path d="M-2.55 3.11C-2.08 1.24-1.05.36 0 0c-1.05-.36-2.08-1.24-2.55-3.11" style="fill:none;stroke-width:.79701;stroke-linecap:round;stroke-linejoin:round;stroke:#000;stroke-opacity:1;stroke-miterlimit:10" transform="rotate(135 -8.18 38.15)scale(1 -1)"/><use xlink:href="#f" x="3.32" y="67.48" style="fill:#000;fill-opacity:1"/><g clip-path="url(#g)"><path d="m0 0 93.96 121.6" style="fill:none;stroke-width:.79701;stroke-linecap:butt;stroke-linejoin:miter;stroke:red;stroke-opacity:1;stroke-dasharray:.79701,1.99255;stroke-miterlimit:10" transform="matrix(1 0 0 -1 36.8 144.36)"/></g><path d="M-2.55 3.11C-2.08 1.24-1.05.36 0 .01c-1.05-.37-2.08-1.25-2.55-3.12" style="fill:none;stroke-width:.79701;stroke-linecap:round;stroke-linejoin:round;stroke:red;stroke-opacity:1;stroke-miterlimit:10" transform="rotate(127.7 60 43.39)scale(-.99995 .99995)"/><use xlink:href="#h" x="87.74" y="85.23" style="fill:red;fill-opacity:1"/><path d="M0 0h4.31" style="fill:none;stroke-width:.398;stroke-linecap:butt;stroke-linejoin:miter;stroke:red;stroke-opacity:1;stroke-miterlimit:10" transform="matrix(1 0 0 -1 87.74 86.62)"/><use xlink:href="#i" x="92.05" y="85.23" style="fill:red;fill-opacity:1"/><use xlink:href="#j" x="97.87" y="86.72" style="fill:red;fill-opacity:1"/><g clip-path="url(#k)"><path d="m0 97.23 94.07 27.66" style="fill:none;stroke-width:.3985;stroke-linecap:butt;stroke-linejoin:miter;stroke:red;stroke-opacity:1;stroke-miterlimit:10" transform="matrix(1 0 0 -1 36.8 144.36)"/></g><path d="M-2.07 2.39C-1.7.96-.85.28 0 0c-.85-.28-1.7-.96-2.07-2.4" style="fill:none;stroke-width:.3985;stroke-linecap:round;stroke-linejoin:round;stroke:red;stroke-opacity:1;stroke-miterlimit:10" transform="rotate(163.61 64.13 19.14)scale(-.99995 .99995)"/><use xlink:href="#l" x="82.44" y="27.73" style="fill:red;fill-opacity:1"/><path d="M0 0h3.17" style="fill:none;stroke-width:.398;stroke-linecap:butt;stroke-linejoin:miter;stroke:red;stroke-opacity:1;stroke-miterlimit:10" transform="matrix(1 0 0 -1 82.44 29.13)"/><path d="M4.88 97.23a4.88 4.88 0 1 1-9.76 0 4.88 4.88 0 0 1 9.76 0Zm0 0" style="fill-rule:nonzero;fill:#00f;fill-opacity:1;stroke-width:.3985;stroke-linecap:butt;stroke-linejoin:miter;stroke:#00f;stroke-opacity:1;stroke-miterlimit:10" transform="matrix(1 0 0 -1 36.8 144.36)"/><path d="M0 0v90.88" style="fill:none;stroke-width:.79701;stroke-linecap:butt;stroke-linejoin:miter;stroke:#00f;stroke-opacity:1;stroke-dasharray:.79701,1.99255;stroke-miterlimit:10" transform="matrix(1 0 0 -1 36.8 144.36)"/><path d="M-2.55 3.11C-2.08 1.25-1.05.36 0 0c-1.05-.36-2.08-1.25-2.55-3.1" style="fill:none;stroke-width:.79701;stroke-linecap:round;stroke-linejoin:round;stroke:#00f;stroke-opacity:1;stroke-miterlimit:10" transform="matrix(0 -1 -1 0 36.8 53.09)"/><path d="M0 97.23v13.1" style="fill:none;stroke-width:.79701;stroke-linecap:butt;stroke-linejoin:miter;stroke:#00f;stroke-opacity:1;stroke-miterlimit:10" transform="matrix(1 0 0 -1 36.8 144.36)"/><path d="M-2.55 3.11C-2.08 1.25-1.05.36 0 0c-1.05-.36-2.08-1.25-2.55-3.1" style="fill:none;stroke-width:.79701;stroke-linecap:round;stroke-linejoin:round;stroke:#00f;stroke-opacity:1;stroke-miterlimit:10" transform="matrix(0 -1 -1 0 36.8 36.99)"/><path d="M-2.55 3.11C-2.08 1.25-1.05.36 0 0c-1.05-.36-2.08-1.25-2.55-3.1" style="fill:none;stroke-width:.79701;stroke-linecap:round;stroke-linejoin:round;stroke:#00f;stroke-opacity:1;stroke-miterlimit:10" transform="matrix(0 -1 -1 0 36.8 33.64)"/><use xlink:href="#m" x="27.38" y="34.39" style="fill:#00f;fill-opacity:1"/><path d="M0 0h5.7" style="fill:none;stroke-width:.398;stroke-linecap:butt;stroke-linejoin:miter;stroke:#00f;stroke-opacity:1;stroke-miterlimit:10" transform="matrix(1 0 0 -1 27.38 35.79)"/><g clip-path="url(#n)"><path d="M135.98 19.36a1.95 1.95 0 1 0-3.9 0 1.95 1.95 0 0 0 3.9 0m0 0" style="stroke:none;fill-rule:nonzero;fill:red;fill-opacity:1"/></g><use xlink:href="#m" x="40.32" y="90.78" style="fill:#00f;fill-opacity:1"/><path d="M0 0h5.7" style="fill:none;stroke-width:.398;stroke-linecap:butt;stroke-linejoin:miter;stroke:#00f;stroke-opacity:1;stroke-miterlimit:10" transform="matrix(1 0 0 -1 40.32 92.18)"/><use xlink:href="#i" x="46.02" y="90.78" style="fill:#00f;fill-opacity:1"/><use xlink:href="#j" x="51.84" y="92.28" style="fill:#00f;fill-opacity:1"/></svg>