<svg xmlns="http://www.w3.org/2000/svg" xmlns:xlink="http://www.w3.org/1999/xlink" width="181.303" height="199.259" viewBox="0 0 135.977 149.444"><defs><symbol id="d" overflow="visible"><path d="M4.844-3.797c.047-.14.047-.156.047-.234 0-.172-.141-.266-.297-.266a.46.46 0 0 0-.344.203c-.016.063-.11.36-.14.547-.079.25-.141.531-.204.797L3.453-.953c-.031.14-.469.844-1.125.844-.5 0-.61-.438-.61-.813 0-.453.173-1.078.5-1.953.157-.406.204-.516.204-.719 0-.437-.313-.812-.813-.812-.953 0-1.312 1.453-1.312 1.531 0 .11.094.11.11.11.109 0 .109-.032.156-.188.28-.938.671-1.235 1.015-1.235.078 0 .25 0 .25.313 0 .25-.11.516-.172.703-.406 1.063-.578 1.625-.578 2.094 0 .89.625 1.187 1.219 1.187.39 0 .719-.171 1-.453-.125.516-.25 1.016-.64 1.547-.266.328-.641.625-1.094.625-.141 0-.594-.031-.766-.422.156 0 .297 0 .422-.125a.5.5 0 0 0 .203-.406c0-.312-.266-.344-.36-.344C.829.531.5.687.5 1.171c0 .5.438.876 1.063.876 1.015 0 2.046-.906 2.328-2.031Zm0 0" style="stroke:none"/></symbol><symbol id="e" overflow="visible"><path d="M1.328-.828c.531-.578.828-.828 1.188-1.14 0 0 .609-.532.968-.891.954-.922 1.172-1.407 1.172-1.453 0-.094-.093-.094-.11-.094-.077 0-.093.015-.155.11-.297.484-.5.64-.735.64-.25 0-.36-.156-.515-.328-.188-.22-.36-.422-.688-.422-.75 0-1.203.922-1.203 1.14 0 .047.031.11.11.11.093 0 .109-.047.14-.11.188-.468.766-.468.844-.468.203 0 .39.062.625.14.406.156.515.156.765.156-.359.422-1.187 1.141-1.375 1.297l-.906.844C.781-.625.422-.062.422.016c0 .093.11.093.125.093C.625.11.64.094.703-.016c.235-.359.531-.625.86-.625.218 0 .328.094.578.375.156.22.343.375.625.375 1 0 1.578-1.265 1.578-1.53 0-.048-.047-.11-.125-.11-.094 0-.11.062-.14.14-.235.641-.876.829-1.204.829-.187 0-.375-.063-.578-.125-.344-.125-.5-.172-.703-.172-.016 0-.172 0-.266.03m0 0" style="stroke:none"/></symbol><symbol id="f" overflow="visible"><path d="M3.328-3.016c.063-.25.297-1.171.985-1.171.046 0 .296 0 .5.125a.58.58 0 0 0-.47.546c0 .157.11.344.376.344a.546.546 0 0 0 .531-.578c0-.516-.578-.656-.922-.656-.578 0-.922.531-1.047.75-.25-.656-.781-.75-1.078-.75-1.031 0-1.61 1.281-1.61 1.531 0 .11.11.11.126.11.078 0 .11-.032.125-.11.344-1.062 1-1.312 1.344-1.312.187 0 .53.093.53.671 0 .313-.171.97-.53 2.375-.157.61-.516 1.032-.954 1.032-.062 0-.28 0-.5-.125.25-.063.47-.266.47-.547 0-.266-.22-.344-.36-.344-.313 0-.547.25-.547.578 0 .453.484.656.922.656.672 0 1.031-.703 1.047-.75.125.36.484.75 1.078.75 1.031 0 1.594-1.28 1.594-1.53 0-.11-.079-.11-.11-.11-.094 0-.11.047-.14.11-.329 1.077-1 1.312-1.313 1.312-.39 0-.547-.313-.547-.657 0-.218.047-.437.156-.875Zm0 0" style="stroke:none"/></symbol><symbol id="h" overflow="visible"><path d="M3.953-3.781c-.172 0-.297 0-.437.125a.53.53 0 0 0-.188.39c0 .25.188.36.375.36.281 0 .547-.25.547-.64 0-.485-.469-.86-1.172-.86-1.344 0-2.672 1.422-2.672 2.828C.406-.672.984.109 2.031.109c1.422 0 2.25-1.062 2.25-1.171 0-.063-.047-.141-.11-.141-.062 0-.077.031-.14.11-.781.984-1.875.984-1.984.984-.625 0-.906-.485-.906-1.094 0-.406.203-1.375.547-1.984.312-.579.859-1 1.406-1 .328 0 .719.125.86.406m0 0" style="stroke:none"/></symbol><symbol id="i" overflow="visible"><path d="M4.25-6.047c.078-.281.11-.344.234-.375.094-.016.422-.016.625-.016 1.016 0 1.454.032 1.454.813 0 .156-.032.547-.079.797 0 .047-.03.156-.03.187 0 .063.03.141.124.141.11 0 .125-.078.156-.234L7-6.47c.016-.047.016-.14.016-.172 0-.109-.094-.109-.266-.109H1.219c-.235 0-.25.016-.328.203l-.594 1.75c0 .016-.063.156-.063.188 0 .046.063.109.125.109.094 0 .11-.062.172-.219.532-1.547.797-1.718 2.266-1.718h.39c.282 0 .282.03.282.125a.8.8 0 0 1-.047.203L2.094-.781C2-.421 1.969-.312.906-.312c-.36 0-.422 0-.422.187C.484 0 .594 0 .656 0c.266 0 .547-.016.813-.016.281 0 .578-.015.86-.015.28 0 .546.015.827.015s.578.016.86.016c.093 0 .218 0 .218-.203 0-.11-.078-.11-.343-.11-.235 0-.375 0-.625-.015-.297-.031-.375-.063-.375-.219 0-.015 0-.062.046-.203Zm0 0" style="stroke:none"/></symbol><symbol id="l" overflow="visible"><path d="M2.578-6.812s0-.11-.14-.11c-.22 0-.954.078-1.22.11-.077 0-.187.015-.187.203 0 .109.11.109.25.109.485 0 .5.094.5.172l-.031.203L.484-1.141a1 1 0 0 0-.046.329.89.89 0 0 0 .906.921c.328 0 .578-.203.75-.562.172-.375.297-.953.297-.969 0-.11-.094-.11-.125-.11-.094 0-.11.048-.125.188-.172.64-.36 1.235-.766 1.235-.297 0-.297-.313-.297-.453 0-.25.016-.297.063-.485Zm0 0" style="stroke:none"/></symbol><symbol id="m" overflow="visible"><path d="M3.484-.562c.11.406.47.671.891.671.344 0 .578-.234.734-.546.172-.36.297-.97.297-.985 0-.11-.078-.11-.11-.11-.109 0-.109.048-.14.188-.14.563-.328 1.235-.75 1.235-.203 0-.312-.125-.312-.453 0-.22.125-.688.203-1.047l.281-1.078c.031-.141.125-.516.172-.672.047-.235.14-.61.14-.672 0-.172-.14-.266-.28-.266-.048 0-.313.016-.391.344a419 419 0 0 0-.75 3c-.016.047-.406.844-1.14.844-.517 0-.61-.453-.61-.813 0-.562.281-1.344.531-2.031.125-.313.172-.453.172-.64 0-.438-.313-.813-.813-.813-.953 0-1.312 1.453-1.312 1.531 0 .11.094.11.11.11.109 0 .109-.032.156-.188.25-.86.64-1.235 1.015-1.235.094 0 .25.016.25.329 0 .234-.11.53-.172.672-.375 1-.578 1.609-.578 2.093C1.078-.14 1.766.11 2.297.11c.656 0 1.015-.453 1.187-.671m0 0" style="stroke:none"/></symbol><symbol id="j" overflow="visible"><path d="M.516.844c-.047.203-.063.25-.328.25-.094 0-.188 0-.188.156 0 .078.063.11.094.11.172 0 .406-.032.594-.032.234 0 .5.031.734.031.062 0 .14-.03.14-.156 0-.11-.093-.11-.187-.11-.156 0-.344 0-.344-.077 0-.032.063-.22.078-.313.094-.375.188-.75.266-1.047.078.14.297.407.719.407.844 0 1.781-.938 1.781-1.97 0-.812-.562-1.171-1.031-1.171-.438 0-.813.297-1 .5-.11-.406-.5-.5-.719-.5-.266 0-.437.187-.547.375-.14.234-.25.656-.25.703 0 .078.094.078.125.078.094 0 .094-.016.14-.203.11-.406.25-.75.516-.75.188 0 .235.156.235.344a.7.7 0 0 1-.032.203Zm1.328-3.078c.406-.547.75-.641.968-.641.282 0 .516.203.516.672 0 .281-.156 1-.36 1.406-.187.344-.515.672-.874.672-.5 0-.625-.531-.625-.61 0-.03.015-.078.015-.109Zm0 0" style="stroke:none"/></symbol><clipPath id="a"><path d="M0 0h135.977v149.445H0Zm0 0"/></clipPath><clipPath id="b"><path d="M31 139h11v10.445H31Zm0 0"/></clipPath><clipPath id="c"><path d="M26 133h22v16.445H26Zm0 0"/></clipPath><clipPath id="g"><path d="M25 11h110.977v138.445H25Zm0 0"/></clipPath><clipPath id="k"><path d="M31 13h104.977v40H31Zm0 0"/></clipPath><clipPath id="n"><path d="M132 17h3.977v5H132Zm0 0"/></clipPath></defs><g clip-path="url(#a)"><path d="M0 149.445h135.977V0H0Zm0 0" style="stroke:none;fill-rule:nonzero;fill:#ffe4c8;fill-opacity:1"/></g><g clip-path="url(#b)"><path d="M41.68 144.363a4.885 4.885 0 0 0-4.883-4.883 4.885 4.885 0 0 0-4.883 4.883 4.885 4.885 0 0 0 4.883 4.883 4.885 4.885 0 0 0 4.883-4.883m0 0" style="stroke:none;fill-rule:nonzero;fill:#ccc;fill-opacity:1"/></g><g clip-path="url(#c)"><path d="M4.883 0A4.885 4.885 0 0 1 0 4.883 4.885 4.885 0 0 1-4.883 0 4.885 4.885 0 0 1 0-4.883 4.885 4.885 0 0 1 4.883 0Zm0 0" style="fill:none;stroke-width:.3985;stroke-linecap:butt;stroke-linejoin:miter;stroke:#ccc;stroke-opacity:1;stroke-miterlimit:10" transform="matrix(1 0 0 -1 36.797 144.363)"/></g><path d="M0 97.23h39.574" style="fill:none;stroke-width:.79701;stroke-linecap:butt;stroke-linejoin:miter;stroke:#000;stroke-opacity:1;stroke-miterlimit:10" transform="matrix(1 0 0 -1 36.797 144.363)"/><path d="M-1.553 2.072C-1.424 1.294.002.13.388.002c-.386-.13-1.812-1.298-1.941-2.075" style="fill:none;stroke-width:.6376;stroke-linecap:round;stroke-linejoin:round;stroke:#000;stroke-opacity:1;stroke-miterlimit:10" transform="matrix(1 0 0 -1 76.37 47.134)"/><use xlink:href="#d" x="74.455" y="55.144" style="fill:#000;fill-opacity:1"/><path d="M0 97.23v40.961" style="fill:none;stroke-width:.79701;stroke-linecap:butt;stroke-linejoin:miter;stroke:#000;stroke-opacity:1;stroke-miterlimit:10" transform="matrix(1 0 0 -1 36.797 144.363)"/><path d="M-1.555 2.07C-1.426 1.297-.001.13.39 0 0-.129-1.426-1.297-1.555-2.074" style="fill:none;stroke-width:.6376;stroke-linecap:round;stroke-linejoin:round;stroke:#000;stroke-opacity:1;stroke-miterlimit:10" transform="matrix(0 -1 -1 0 36.797 6.171)"/><use xlink:href="#e" x="40.516" y="7.61" style="fill:#000;fill-opacity:1"/><path d="m0 97.23-23.563-23.566" style="fill:none;stroke-width:.79701;stroke-linecap:butt;stroke-linejoin:miter;stroke:#000;stroke-opacity:1;stroke-miterlimit:10" transform="matrix(1 0 0 -1 36.797 144.363)"/><path d="M-1.555 2.07C-1.425 1.295.001.13.39 0 0-.131-1.425-1.296-1.555-2.073" style="fill:none;stroke-width:.6376;stroke-linecap:round;stroke-linejoin:round;stroke:#000;stroke-opacity:1;stroke-miterlimit:10" transform="scale(-1 1)rotate(45 -91.957 19.375)"/><use xlink:href="#f" x="3.321" y="67.48" style="fill:#000;fill-opacity:1"/><g clip-path="url(#g)"><path d="m0 0 94.02 121.672" style="fill:none;stroke-width:.79701;stroke-linecap:butt;stroke-linejoin:miter;stroke:red;stroke-opacity:1;stroke-dasharray:.79701,1.99255;stroke-miterlimit:10" transform="matrix(1 0 0 -1 36.797 144.363)"/></g><path d="M-1.552 2.072C-1.426 1.295-.002.13.388.002 0-.13-1.424-1.295-1.554-2.072" style="fill:none;stroke-width:.6376;stroke-linecap:round;stroke-linejoin:round;stroke:red;stroke-opacity:1;stroke-miterlimit:10" transform="scale(.99995 -.99995)rotate(52.305 88.517 121.864)"/><use xlink:href="#h" x="87.741" y="85.227" style="fill:red;fill-opacity:1"/><path d="M.001 0H4.31" style="fill:none;stroke-width:.398;stroke-linecap:butt;stroke-linejoin:miter;stroke:red;stroke-opacity:1;stroke-miterlimit:10" transform="matrix(1 0 0 -1 87.741 86.621)"/><use xlink:href="#i" x="92.052" y="85.227" style="fill:red;fill-opacity:1"/><use xlink:href="#j" x="97.874" y="86.721" style="fill:red;fill-opacity:1"/><g clip-path="url(#k)"><path d="m0 97.23 94.012 27.649" style="fill:none;stroke-width:.3985;stroke-linecap:butt;stroke-linejoin:miter;stroke:red;stroke-opacity:1;stroke-miterlimit:10" transform="matrix(1 0 0 -1 36.797 144.363)"/></g><path d="M-1.196 1.593C-1.094.997.002.101.298.001 0-.099-1.095-.998-1.197-1.595" style="fill:none;stroke-width:.31879;stroke-linecap:round;stroke-linejoin:round;stroke:red;stroke-opacity:1;stroke-miterlimit:10" transform="scale(.99995 -.99995)rotate(16.389 133.062 444.466)"/><use xlink:href="#l" x="83.822" y="27.734" style="fill:red;fill-opacity:1"/><path d="M-.002 0H3.17" style="fill:none;stroke-width:.398;stroke-linecap:butt;stroke-linejoin:miter;stroke:red;stroke-opacity:1;stroke-miterlimit:10" transform="matrix(1 0 0 -1 83.822 29.128)"/><path d="M4.883 97.23A4.88 4.88 0 0 1 0 102.11a4.881 4.881 0 1 1 0-9.763 4.88 4.88 0 0 1 4.883 4.883Zm0 0" style="fill-rule:nonzero;fill:#00f;fill-opacity:1;stroke-width:.3985;stroke-linecap:butt;stroke-linejoin:miter;stroke:#00f;stroke-opacity:1;stroke-miterlimit:10" transform="matrix(1 0 0 -1 36.797 144.363)"/><path d="M0 0v90.968" style="fill:none;stroke-width:.79701;stroke-linecap:butt;stroke-linejoin:miter;stroke:#00f;stroke-opacity:1;stroke-dasharray:.79701,1.99255;stroke-miterlimit:10" transform="matrix(1 0 0 -1 36.797 144.363)"/><path d="M-1.553 2.07C-1.423 1.297.002.13.39 0 .002-.129-1.424-1.297-1.553-2.074" style="fill:none;stroke-width:.6376;stroke-linecap:round;stroke-linejoin:round;stroke:#00f;stroke-opacity:1;stroke-miterlimit:10" transform="matrix(0 -1 -1 0 36.797 53.396)"/><path d="M0 97.23v13.184" style="fill:none;stroke-width:.79701;stroke-linecap:butt;stroke-linejoin:miter;stroke:#00f;stroke-opacity:1;stroke-miterlimit:10" transform="matrix(1 0 0 -1 36.797 144.363)"/><path d="M-1.555 2.07C-1.426 1.297 0 .13.39 0 0-.129-1.426-1.297-1.555-2.074" style="fill:none;stroke-width:.6376;stroke-linecap:round;stroke-linejoin:round;stroke:#00f;stroke-opacity:1;stroke-miterlimit:10" transform="matrix(0 -1 -1 0 36.797 36.531)"/><path d="M-1.553 2.07C-1.424 1.297 0 .13.388 0 .001-.129-1.424-1.297-1.553-2.074" style="fill:none;stroke-width:.6376;stroke-linecap:round;stroke-linejoin:round;stroke:#00f;stroke-opacity:1;stroke-miterlimit:10" transform="matrix(0 -1 -1 0 36.797 33.95)"/><use xlink:href="#m" x="27.375" y="34.393" style="fill:#00f;fill-opacity:1"/><path d="M0-.001h5.703" style="fill:none;stroke-width:.398;stroke-linecap:butt;stroke-linejoin:miter;stroke:#00f;stroke-opacity:1;stroke-miterlimit:10" transform="matrix(1 0 0 -1 27.375 35.788)"/><g clip-path="url(#n)"><path d="M135.98 19.355a1.954 1.954 0 1 0-3.907.002 1.954 1.954 0 0 0 3.907-.002m0 0" style="stroke:none;fill-rule:nonzero;fill:red;fill-opacity:1"/></g><use xlink:href="#m" x="40.317" y="90.784" style="fill:#00f;fill-opacity:1"/><path d="M0-.002h5.703" style="fill:none;stroke-width:.398;stroke-linecap:butt;stroke-linejoin:miter;stroke:#00f;stroke-opacity:1;stroke-miterlimit:10" transform="matrix(1 0 0 -1 40.317 92.178)"/><use xlink:href="#i" x="46.02" y="90.784" style="fill:#00f;fill-opacity:1"/><use xlink:href="#j" x="51.842" y="92.278" style="fill:#00f;fill-opacity:1"/></svg>