<svg xmlns="http://www.w3.org/2000/svg" xmlns:xlink="http://www.w3.org/1999/xlink" width="82.08" height="53.85" viewBox="0 0 61.56 40.39"><defs><symbol id="a" overflow="visible"><path d="M4.75-2.36c0-1.56-.92-2.05-1.66-2.05C1.72-4.4.41-2.98.41-1.58.4-.64 1 .11 2.03.11c.63 0 1.35-.23 2.1-.84.12.53.45.84.9.84.53 0 .84-.55.84-.7Q5.87-.7 5.76-.7q-.09 0-.12.1c-.2.5-.55.5-.57.5-.31 0-.31-.8-.31-1.02 0-.2 0-.24.1-.35C5.8-2.66 6-3.8 6-3.8c0-.03-.02-.11-.12-.11s-.1.03-.15.22a6 6 0 0 1-.98 1.97ZM4.09-.98c-.89.76-1.65.87-2.04.87-.6 0-.9-.45-.9-1.1 0-.48.26-1.56.57-2.06.47-.73 1.01-.92 1.36-.92.98 0 .98 1.32.98 2.08 0 .38 0 .95.03 1.13m0 0" style="stroke:none"/></symbol><symbol id="b" overflow="visible"><path d="M3.95-3.78c-.17 0-.3 0-.43.12a.5.5 0 0 0-.2.4c0 .24.2.35.38.35.28 0 .55-.25.55-.64 0-.48-.47-.86-1.17-.86C1.73-4.4.4-2.98.4-1.58.4-.68.98.11 2.03.11 3.45.1 4.28-.95 4.28-1.06c0-.06-.05-.14-.1-.14-.07 0-.09.03-.15.1-.78 1-1.87 1-1.98 1-.63 0-.9-.5-.9-1.1 0-.4.2-1.38.54-1.99.31-.58.86-1 1.4-1 .33 0 .72.13.86.4m0 0" style="stroke:none"/></symbol><symbol id="c" overflow="visible"><path d="M3.48-.56c.11.4.47.67.9.67.34 0 .57-.23.73-.55a5 5 0 0 0 .3-.98c0-.11-.08-.11-.11-.11-.11 0-.11.05-.14.19-.14.56-.33 1.23-.75 1.23-.2 0-.32-.12-.32-.45 0-.22.13-.69.2-1.05l.29-1.08.17-.67c.05-.23.14-.6.14-.67 0-.17-.14-.27-.28-.27-.05 0-.31.02-.4.35l-.74 3c-.02.04-.4.84-1.14.84-.52 0-.61-.45-.61-.81a7 7 0 0 1 .53-2.03c.13-.32.17-.46.17-.64a.8.8 0 0 0-.81-.82C.66-4.4.3-2.95.3-2.87c0 .1.1.1.1.1.12 0 .12-.03.16-.18.25-.86.64-1.24 1.02-1.24.1 0 .25.02.25.33 0 .23-.11.53-.17.67-.38 1-.58 1.61-.58 2.1 0 .95.69 1.2 1.22 1.2.65 0 1.01-.45 1.18-.67m0 0" style="stroke:none"/></symbol><clipPath id="d"><path d="M7 29h12v11.4H7Zm0 0"/></clipPath></defs><path d="M0 40.4h61.56V0H0Zm0 0" style="stroke:none;fill-rule:nonzero;fill:#ffe4c8;fill-opacity:1"/><path d="M0 15.88a10.75 10.75 0 0 0 13.6-6.81" style="fill:none;stroke-width:.3985;stroke-linecap:butt;stroke-linejoin:miter;stroke:#000;stroke-opacity:1;stroke-miterlimit:10" transform="matrix(1 0 0 -1 13.14 34.81)"/><use xlink:href="#a" x="21.27" y="15.41" style="fill:#000;fill-opacity:1"/><path d="m0 0 46.27 28.64" style="fill:none;stroke-width:1.59404;stroke-linecap:butt;stroke-linejoin:miter;stroke:#00adef;stroke-opacity:1;stroke-miterlimit:10" transform="matrix(1 0 0 -1 13.14 34.81)"/><path d="M-3.5 4.55C-2.88 1.82-1.45.53 0 0c-1.44-.53-2.87-1.82-3.5-4.55" style="fill:none;stroke-width:1.59404;stroke-linecap:round;stroke-linejoin:round;stroke:#00adef;stroke-opacity:1;stroke-miterlimit:10" transform="rotate(148.24 29.23 11.42)scale(-.99996 .99996)"/><use xlink:href="#b" x="34.8" y="28.48" style="fill:#00adef;fill-opacity:1"/><path d="M0 0h4.31" style="fill:none;stroke-width:.398;stroke-linecap:butt;stroke-linejoin:miter;stroke:#00adef;stroke-opacity:1;stroke-miterlimit:10" transform="matrix(1 0 0 -1 34.8 29.87)"/><path d="M0 0v32.42" style="fill:none;stroke-width:1.59404;stroke-linecap:butt;stroke-linejoin:miter;stroke:#000;stroke-opacity:1;stroke-miterlimit:10" transform="matrix(1 0 0 -1 13.14 34.81)"/><path d="M-3.5 4.55C-2.88 1.82-1.45.53 0 0c-1.44-.53-2.87-1.82-3.5-4.55" style="fill:none;stroke-width:1.59404;stroke-linecap:round;stroke-linejoin:round;stroke:#000;stroke-opacity:1;stroke-miterlimit:10" transform="matrix(0 -1 -1 0 13.14 1.6)"/><use xlink:href="#c" x="3.32" y="18.95" style="fill:#000;fill-opacity:1"/><path d="M0 0h5.7" style="fill:none;stroke-width:.398;stroke-linecap:butt;stroke-linejoin:miter;stroke:#000;stroke-opacity:1;stroke-miterlimit:10" transform="matrix(1 0 0 -1 3.32 20.35)"/><g clip-path="url(#d)"><path d="M18.72 34.81a5.58 5.58 0 1 0-11.16 0 5.58 5.58 0 0 0 11.16 0m0 0" style="stroke:none;fill-rule:nonzero;fill:#000;fill-opacity:1"/></g></svg>