<svg xmlns="http://www.w3.org/2000/svg" xmlns:xlink="http://www.w3.org/1999/xlink" width="172.5" height="207.71" viewBox="0 0 129.38 155.78"><defs><symbol id="c" overflow="visible"><path d="M2.33-4.44c0-.18 0-.18-.2-.18-.46.43-1.08.43-1.36.43v.25c.15 0 .62 0 1-.19v3.55c0 .24 0 .33-.7.33H.82V0l1.24-.03L3.3 0v-.25h-.27c-.7 0-.7-.1-.7-.33Zm0 0" style="stroke:none"/></symbol><symbol id="d" overflow="visible"><path d="M3.52-1.27h-.24c-.01.16-.1.57-.19.63-.04.05-.57.05-.68.05H1.13c.73-.64.98-.85 1.39-1.18.51-.4 1-.84 1-1.5 0-.84-.74-1.35-1.63-1.35-.86 0-1.45.6-1.45 1.25 0 .34.3.39.37.39.16 0 .36-.13.36-.38 0-.12-.04-.37-.4-.37a1.1 1.1 0 0 1 1.01-.64c.7 0 1.06.54 1.06 1.1 0 .61-.43 1.08-.65 1.33L.52-.27C.44-.2.44-.19.44 0H3.3Zm0 0" style="stroke:none"/></symbol><symbol id="e" overflow="visible"><path d="M3.95-3.78c-.17 0-.3 0-.43.12a.5.5 0 0 0-.2.4c0 .24.2.35.38.35.28 0 .55-.25.55-.64 0-.48-.47-.86-1.17-.86C1.73-4.4.4-2.98.4-1.58.4-.68.98.11 2.03.11 3.45.1 4.28-.95 4.28-1.06c0-.06-.05-.14-.1-.14-.07 0-.09.03-.15.1-.78 1-1.87 1-1.98 1-.63 0-.9-.5-.9-1.1 0-.4.2-1.38.54-1.99.31-.58.86-1 1.4-1 .33 0 .72.13.86.4m0 0" style="stroke:none"/></symbol><symbol id="g" overflow="visible"><path d="M2.05-3.98h.93c.2 0 .32 0 .32-.2 0-.12-.11-.12-.28-.12h-.88c.36-1.42.4-1.6.4-1.67q-.02-.26-.29-.26c-.03 0-.31 0-.4.36L1.48-4.3H.53c-.2 0-.3 0-.3.2 0 .12.08.12.29.12h.87C.67-1.16.63-.98.63-.81c0 .54.37.92.92.92 1.01 0 1.58-1.45 1.58-1.53 0-.11-.08-.11-.11-.11-.1 0-.11.03-.16.14C2.44-.34 1.9-.11 1.56-.11c-.2 0-.31-.12-.31-.45 0-.25.03-.31.06-.49Zm0 0" style="stroke:none"/></symbol><symbol id="h" overflow="visible"><path d="M3.73-6.03c.08-.36.11-.47 1.05-.47.3 0 .38 0 .38-.19 0-.12-.11-.12-.16-.12l-1.47.03-1.33-.03c-.06 0-.18 0-.18.2 0 .11.09.11.28.11.01 0 .2 0 .37.02s.27.03.27.17l-.03.18L1.56-.78c-.1.39-.1.47-.9.47-.18 0-.27 0-.27.2C.4 0 .5 0 .66 0h4.62c.24 0 .24 0 .3-.17l.8-2.16.03-.14c0-.03-.04-.1-.11-.1-.1 0-.11.05-.17.21-.35.9-.79 2.05-2.5 2.05H2.47q-.15-.01-.14-.11l.04-.22Zm0 0" style="stroke:none"/></symbol><symbol id="f" overflow="visible"><path d="M4.4-6.95c-.06-.14-.09-.2-.26-.2-.16 0-.19.06-.25.2L.52-.2l-.05.12c0 .08.06.08.22.08H7.6c.16 0 .22 0 .22-.08q.01 0-.05-.12Zm-.57.8 2.69 5.4H1.14Zm0 0" style="stroke:none"/></symbol><clipPath id="a"><path d="M110 3h19.38v38H110Zm0 0"/></clipPath><clipPath id="b"><path d="M105 0h24.38v47H105Zm0 0"/></clipPath></defs><path d="M0 155.79h129.38V0H0Zm0 0" style="stroke:none;fill-rule:nonzero;fill:#ffe4c8;fill-opacity:1"/><path d="M9.21 110.56c0 10.17-4.12 18.42-9.21 18.42s-9.21-8.25-9.21-18.42 4.12-18.43 9.2-18.43c5.1 0 9.22 8.25 9.22 18.43Zm0 0" style="fill-rule:nonzero;fill:gray;fill-opacity:1;stroke-width:.3985;stroke-linecap:butt;stroke-linejoin:miter;stroke:#000;stroke-opacity:1;stroke-miterlimit:10" transform="matrix(1 0 0 -1 9.41 132.56)"/><g clip-path="url(#a)"><path d="M129.18 22c0-10.18-4.13-18.43-9.21-18.43-5.1 0-9.22 8.25-9.22 18.43s4.13 18.43 9.22 18.43c5.08 0 9.21-8.25 9.21-18.43m0 0" style="stroke:none;fill-rule:nonzero;fill:gray;fill-opacity:1"/></g><g clip-path="url(#b)"><path d="M119.77 110.56c0 10.17-4.13 18.42-9.21 18.42-5.1 0-9.22-8.25-9.22-18.42s4.13-18.43 9.22-18.43c5.08 0 9.2 8.25 9.2 18.43Zm0 0" style="fill:none;stroke-width:.3985;stroke-linecap:butt;stroke-linejoin:miter;stroke:#000;stroke-opacity:1;stroke-miterlimit:10" transform="matrix(1 0 0 -1 9.41 132.56)"/></g><path d="M0 107.79h106.92" style="fill:none;stroke-width:1.49442;stroke-linecap:butt;stroke-linejoin:miter;stroke:red;stroke-opacity:1;stroke-dasharray:2.98883,2.98883;stroke-miterlimit:10" transform="matrix(1 0 0 -1 9.41 132.56)"/><path d="m119.96 24.77-5.82-2.91 2.19 2.9-2.19 2.92" style="stroke:none;fill-rule:nonzero;fill:red;fill-opacity:1"/><path d="M110.55 113.32H3.63" style="fill:none;stroke-width:1.49442;stroke-linecap:butt;stroke-linejoin:miter;stroke:red;stroke-opacity:1;stroke-dasharray:2.98883,2.98883;stroke-miterlimit:10" transform="matrix(1 0 0 -1 9.41 132.56)"/><path d="m9.41 19.24 5.82 2.9-2.18-2.9 2.18-2.9" style="stroke:none;fill-rule:nonzero;fill:red;fill-opacity:1"/><use xlink:href="#c" x="54.6" y="7.82" style="fill:red;fill-opacity:1"/><path d="M0 0h3.97" style="fill:none;stroke-width:.398;stroke-linecap:butt;stroke-linejoin:miter;stroke:red;stroke-opacity:1;stroke-miterlimit:10" transform="matrix(1 0 0 -1 54.6 9.25)"/><use xlink:href="#d" x="54.6" y="15.17" style="fill:red;fill-opacity:1"/><use xlink:href="#e" x="59.76" y="11.74" style="fill:red;fill-opacity:1"/><use xlink:href="#f" x="64.07" y="11.74" style="fill:red;fill-opacity:1"/><use xlink:href="#g" x="72.38" y="11.74" style="fill:red;fill-opacity:1"/><path d="M.8 86.6h108.96" style="fill:none;stroke-width:.79701;stroke-linecap:butt;stroke-linejoin:miter;stroke:#000;stroke-opacity:1;stroke-miterlimit:10" transform="matrix(1 0 0 -1 9.41 132.56)"/><path d="M-2.55 3.11C-2.08 1.24-1.05.36 0 .01c-1.04-.37-2.08-1.26-2.55-3.12" style="fill:none;stroke-width:.79701;stroke-linecap:round;stroke-linejoin:round;stroke:#000;stroke-opacity:1;stroke-miterlimit:10" transform="matrix(-1 0 0 1 9.81 45.96)"/><path d="M-2.55 3.11C-2.08 1.25-1.05.36 0 0c-1.05-.36-2.08-1.24-2.55-3.11" style="fill:none;stroke-width:.79701;stroke-linecap:round;stroke-linejoin:round;stroke:#000;stroke-opacity:1;stroke-miterlimit:10" transform="matrix(1 0 0 -1 119.56 45.96)"/><use xlink:href="#h" x="61.3" y="42.24" style="fill:#000;fill-opacity:1"/></svg>