<svg xmlns="http://www.w3.org/2000/svg" xmlns:xlink="http://www.w3.org/1999/xlink" width="172.503" height="207.713" viewBox="0 0 129.377 155.785"><defs><symbol id="c" overflow="visible"><path d="M2.328-4.437c0-.188 0-.188-.203-.188-.453.438-1.078.438-1.36.438v.25c.157 0 .626 0 1-.188v3.547c0 .234 0 .328-.687.328H.812V0c.125 0 .985-.031 1.235-.031.219 0 1.094.031 1.25.031v-.25H3.03c-.703 0-.703-.094-.703-.328Zm0 0" style="stroke:none"/></symbol><symbol id="d" overflow="visible"><path d="M3.516-1.266H3.28c-.015.157-.094.563-.187.625-.047.047-.578.047-.688.047H1.125c.734-.64.984-.843 1.39-1.172.516-.406 1-.843 1-1.5 0-.843-.734-1.359-1.624-1.359-.86 0-1.453.61-1.453 1.25 0 .344.296.39.375.39.156 0 .359-.124.359-.374 0-.125-.047-.375-.406-.375.218-.485.687-.641 1.015-.641.703 0 1.063.547 1.063 1.11 0 .609-.438 1.078-.656 1.328L.516-.266C.437-.203.437-.187.437 0h2.876Zm0 0" style="stroke:none"/></symbol><symbol id="e" overflow="visible"><path d="M3.953-3.781c-.172 0-.297 0-.437.125a.53.53 0 0 0-.188.39c0 .25.188.36.375.36.281 0 .547-.25.547-.64 0-.485-.469-.86-1.172-.86-1.344 0-2.672 1.422-2.672 2.828C.406-.672.984.109 2.031.109c1.422 0 2.25-1.062 2.25-1.171 0-.063-.047-.141-.11-.141-.062 0-.077.031-.14.11-.781.984-1.875.984-1.984.984-.625 0-.906-.485-.906-1.094 0-.406.203-1.375.547-1.984.312-.579.859-1 1.406-1 .328 0 .719.125.86.406m0 0" style="stroke:none"/></symbol><symbol id="g" overflow="visible"><path d="M2.047-3.984h.937c.204 0 .313 0 .313-.203 0-.11-.11-.11-.281-.11H2.14c.359-1.422.406-1.61.406-1.672 0-.172-.125-.265-.297-.265-.031 0-.312 0-.39.359l-.391 1.578H.53c-.203 0-.297 0-.297.188 0 .125.078.125.282.125h.875C.67-1.156.625-.984.625-.812c0 .546.375.921.922.921 1.016 0 1.578-1.453 1.578-1.53 0-.11-.078-.11-.11-.11-.093 0-.109.031-.156.14C2.438-.344 1.906-.109 1.563-.109c-.204 0-.313-.125-.313-.453 0-.25.031-.313.063-.485Zm0 0" style="stroke:none"/></symbol><symbol id="h" overflow="visible"><path d="M3.734-6.031c.079-.36.11-.469 1.047-.469.297 0 .375 0 .375-.187 0-.125-.11-.125-.156-.125-.328 0-1.14.03-1.469.03-.297 0-1.031-.03-1.328-.03-.062 0-.187 0-.187.203 0 .109.093.109.28.109.017 0 .204 0 .376.016.172.03.265.03.265.172 0 .03 0 .062-.03.187L1.562-.781c-.094.39-.11.469-.907.469-.172 0-.265 0-.265.203C.39 0 .484 0 .656 0h4.625c.235 0 .235 0 .297-.172l.797-2.156c.031-.11.031-.125.031-.14 0-.032-.031-.11-.11-.11-.093 0-.109.062-.171.219-.344.906-.781 2.047-2.5 2.047H2.468c-.109-.016-.14-.032-.14-.11 0-.031 0-.047.047-.219Zm0 0" style="stroke:none"/></symbol><symbol id="f" overflow="visible"><path d="M4.406-6.953c-.062-.14-.093-.188-.265-.188-.157 0-.188.047-.25.188L.516-.203c-.047.094-.047.11-.047.125C.469 0 .53 0 .688 0h6.921c.157 0 .22 0 .22-.078 0-.016 0-.031-.048-.125Zm-.578.812L6.516-.75H1.14Zm0 0" style="stroke:none"/></symbol><clipPath id="a"><path d="M110 3h19.379v38H110Zm0 0"/></clipPath><clipPath id="b"><path d="M105 0h24.379v47H105Zm0 0"/></clipPath></defs><path d="M0 155.785h129.379V0H0Zm0 0" style="stroke:none;fill-rule:nonzero;fill:#ffe4c8;fill-opacity:1"/><path d="M9.213 110.555c0 10.176-4.125 18.426-9.215 18.426-5.086 0-9.21-8.25-9.21-18.426s4.124-18.426 9.21-18.426c5.09 0 9.215 8.25 9.215 18.426Zm0 0" style="fill-rule:nonzero;fill:gray;fill-opacity:1;stroke-width:.3985;stroke-linecap:butt;stroke-linejoin:miter;stroke:#000;stroke-opacity:1;stroke-miterlimit:10" transform="matrix(1 0 0 -1 9.412 132.555)"/><g clip-path="url(#a)"><path d="M129.18 22c0-10.176-4.125-18.426-9.211-18.426-5.09 0-9.215 8.25-9.215 18.426s4.125 18.426 9.215 18.426c5.086 0 9.21-8.25 9.21-18.426m0 0" style="stroke:none;fill-rule:nonzero;fill:gray;fill-opacity:1"/></g><g clip-path="url(#b)"><path d="M119.768 110.555c0 10.176-4.125 18.426-9.211 18.426-5.09 0-9.215-8.25-9.215-18.426s4.125-18.426 9.215-18.426c5.086 0 9.21 8.25 9.21 18.426Zm0 0" style="fill:none;stroke-width:.3985;stroke-linecap:butt;stroke-linejoin:miter;stroke:#000;stroke-opacity:1;stroke-miterlimit:10" transform="matrix(1 0 0 -1 9.412 132.555)"/></g><path d="M-.002 107.79h106.918" style="fill:none;stroke-width:1.49442;stroke-linecap:butt;stroke-linejoin:miter;stroke:red;stroke-opacity:1;stroke-dasharray:2.98883,2.98883;stroke-miterlimit:10" transform="matrix(1 0 0 -1 9.412 132.555)"/><path d="m119.965 24.766-5.82-2.907 2.183 2.907-2.183 2.91" style="stroke:none;fill-rule:nonzero;fill:red;fill-opacity:1"/><path d="M110.553 113.317H3.635" style="fill:none;stroke-width:1.49442;stroke-linecap:butt;stroke-linejoin:miter;stroke:red;stroke-opacity:1;stroke-dasharray:2.98883,2.98883;stroke-miterlimit:10" transform="matrix(1 0 0 -1 9.412 132.555)"/><path d="m9.41 19.238 5.82 2.91-2.183-2.91 2.183-2.906" style="stroke:none;fill-rule:nonzero;fill:red;fill-opacity:1"/><use xlink:href="#c" x="54.596" y="7.815" style="fill:red;fill-opacity:1"/><path d="M.002 0H3.97" style="fill:none;stroke-width:.398;stroke-linecap:butt;stroke-linejoin:miter;stroke:red;stroke-opacity:1;stroke-miterlimit:10" transform="matrix(1 0 0 -1 54.596 9.247)"/><use xlink:href="#d" x="54.596" y="15.173" style="fill:red;fill-opacity:1"/><use xlink:href="#e" x="59.762" y="11.738" style="fill:red;fill-opacity:1"/><use xlink:href="#f" x="64.074" y="11.738" style="fill:red;fill-opacity:1"/><use xlink:href="#g" x="72.376" y="11.738" style="fill:red;fill-opacity:1"/><path d="M.71 86.598h109.136" style="fill:none;stroke-width:.79701;stroke-linecap:butt;stroke-linejoin:miter;stroke:#000;stroke-opacity:1;stroke-miterlimit:10" transform="matrix(1 0 0 -1 9.412 132.555)"/><path d="M-1.553 2.07C-1.423 1.295-.002.13.39 0c-.39-.128-1.813-1.296-1.942-2.074" style="fill:none;stroke-width:.6376;stroke-linecap:round;stroke-linejoin:round;stroke:#000;stroke-opacity:1;stroke-miterlimit:10" transform="matrix(-1 0 0 1 10.12 45.956)"/><path d="M-1.553 2.074C-1.424 1.296.002.128.388-.001.002-.13-1.424-1.294-1.553-2.07" style="fill:none;stroke-width:.6376;stroke-linecap:round;stroke-linejoin:round;stroke:#000;stroke-opacity:1;stroke-miterlimit:10" transform="matrix(1 0 0 -1 119.256 45.956)"/><use xlink:href="#h" x="61.297" y="42.238" style="fill:#000;fill-opacity:1"/></svg>