<svg xmlns="http://www.w3.org/2000/svg" xmlns:xlink="http://www.w3.org/1999/xlink" width="176.88" height="201.45" viewBox="0 0 132.66 151.09"><desc>A figure created by Phy-Hub, for The Handbook of Special Relativity</desc><defs><symbol id="b" overflow="visible"><path d="M2.33-4.44c0-.18 0-.18-.2-.18-.46.43-1.08.43-1.36.43v.25c.15 0 .62 0 1-.19v3.55c0 .24 0 .33-.7.33H.82V0l1.24-.03L3.3 0v-.25h-.27c-.7 0-.7-.1-.7-.33Zm0 0" style="stroke:none"/></symbol><symbol id="c" overflow="visible"><path d="M3.52-1.27h-.24c-.01.16-.1.57-.19.63-.04.05-.57.05-.68.05H1.13c.73-.64.98-.85 1.39-1.18.51-.4 1-.84 1-1.5 0-.84-.74-1.35-1.63-1.35-.86 0-1.45.6-1.45 1.25 0 .34.3.39.37.39.16 0 .36-.13.36-.38 0-.12-.04-.37-.4-.37a1.1 1.1 0 0 1 1.01-.64c.7 0 1.06.54 1.06 1.1 0 .61-.43 1.08-.65 1.33L.52-.27C.44-.2.44-.19.44 0H3.3Zm0 0" style="stroke:none"/></symbol><symbol id="d" overflow="visible"><path d="M3.95-3.78c-.17 0-.3 0-.43.12a.5.5 0 0 0-.2.4c0 .24.2.35.38.35.28 0 .55-.25.55-.64 0-.48-.47-.86-1.17-.86C1.73-4.4.4-2.98.4-1.58.4-.68.98.11 2.03.11 3.45.1 4.28-.95 4.28-1.06c0-.06-.05-.14-.1-.14-.07 0-.09.03-.15.1-.78 1-1.87 1-1.98 1-.63 0-.9-.5-.9-1.1 0-.4.2-1.38.54-1.99.31-.58.86-1 1.4-1 .33 0 .72.13.86.4m0 0" style="stroke:none"/></symbol><symbol id="f" overflow="visible"><path d="M2.05-3.98h.93c.2 0 .32 0 .32-.2 0-.12-.11-.12-.28-.12h-.88c.36-1.42.4-1.6.4-1.67q-.02-.26-.29-.26c-.03 0-.31 0-.4.36L1.48-4.3H.53c-.2 0-.3 0-.3.2 0 .12.08.12.29.12h.87C.67-1.16.63-.98.63-.81c0 .54.37.92.92.92 1.01 0 1.58-1.45 1.58-1.53 0-.11-.08-.11-.11-.11-.1 0-.11.03-.16.14C2.44-.34 1.9-.11 1.56-.11c-.2 0-.31-.12-.31-.45 0-.25.03-.31.06-.49Zm0 0" style="stroke:none"/></symbol><symbol id="g" overflow="visible"><path d="M5.14-6.81s0-.11-.12-.11c-.16 0-1.1.1-1.27.1q-.13.02-.14.2c0 .12.1.12.23.12.49 0 .5.06.5.17l-.03.2-.6 2.36c-.18-.37-.46-.64-.91-.64C1.64-4.4.4-2.94.4-1.48.4-.55.96.1 1.73.1c.2 0 .7-.05 1.3-.75.07.42.43.75.9.75.36 0 .58-.23.75-.55.16-.36.3-.97.3-.98 0-.11-.1-.11-.13-.11-.09 0-.1.05-.14.19-.17.64-.34 1.23-.75 1.23-.28 0-.3-.26-.3-.45 0-.25.02-.31.05-.49ZM3.08-1.2c-.06.19-.06.2-.2.38-.44.54-.85.7-1.13.7-.5 0-.64-.55-.64-.94 0-.5.31-1.72.55-2.18.3-.58.75-.96 1.15-.96.64 0 .78.82.78.88q0 .1-.03.17Zm0 0" style="stroke:none"/></symbol><symbol id="e" overflow="visible"><path d="M4.4-6.95c-.06-.14-.09-.2-.26-.2-.16 0-.19.06-.25.2L.52-.2l-.05.12c0 .08.06.08.22.08H7.6c.16 0 .22 0 .22-.08q.01 0-.05-.12Zm-.57.8 2.69 5.4H1.14Zm0 0" style="stroke:none"/></symbol><symbol id="h" overflow="visible"><path d="M3.03-.56c-.05.14-.1.37-.1.4 0 .16.12.22.23.22.14 0 .25-.08.28-.14s.1-.3.12-.44l.16-.62q.06-.23.1-.47c.09-.3.09-.31.23-.53.22-.34.58-.73 1.1-.73.4 0 .43.3.43.48 0 .42-.3 1.19-.42 1.48-.07.2-.1.27-.1.38 0 .37.3.6.66.6.7 0 1-.96 1-1.07 0-.1-.08-.1-.11-.1-.1 0-.1.05-.13.13-.15.56-.46.85-.73.85-.16 0-.19-.1-.19-.25 0-.16.05-.25.17-.57.08-.22.36-.95.36-1.34 0-.11 0-.4-.25-.61a1 1 0 0 0-.65-.19c-.63 0-1 .42-1.24.7-.04-.59-.54-.7-.9-.7-.58 0-.97.36-1.17.64-.05-.48-.46-.64-.75-.64-.3 0-.46.22-.55.38-.16.26-.25.65-.25.7 0 .08.1.08.12.08.1 0 .1-.02.14-.2.11-.41.25-.75.52-.75.19 0 .23.15.23.34 0 .12-.06.39-.12.58l-.14.62-.24.9-.06.27c0 .16.13.22.24.22.12 0 .23-.08.28-.14.03-.06.07-.3.12-.44l.14-.62q.08-.23.13-.47c.08-.28.1-.34.3-.62.18-.29.51-.64 1.04-.64.4 0 .4.35.4.48 0 .17 0 .27-.12.66Zm0 0" style="stroke:none"/></symbol><clipPath id="a"><path d="M106 0h26.66v45H106Zm0 0"/></clipPath></defs><path d="M0 151.09h132.66V0H0Zm0 0" style="stroke:none;fill-rule:nonzero;fill:#ffe4c8;fill-opacity:1"/><path d="M9.21 110.56c0 10.17-4.12 18.42-9.21 18.42s-9.21-8.25-9.21-18.42S-5.1 92.13 0 92.13s9.21 8.25 9.21 18.43Zm0 0" style="fill-rule:nonzero;fill:gray;fill-opacity:1;stroke-width:.3985;stroke-linecap:butt;stroke-linejoin:miter;stroke:#000;stroke-opacity:1;stroke-miterlimit:10" transform="matrix(1 0 0 -1 11.05 130.82)"/><path d="M130.82 20.26c0-10.17-4.12-18.42-9.21-18.42s-9.21 8.25-9.21 18.42 4.12 18.43 9.2 18.43c5.1 0 9.22-8.25 9.22-18.43m0 0" style="stroke:none;fill-rule:nonzero;fill:gray;fill-opacity:1"/><g clip-path="url(#a)"><path d="M119.77 110.56c0 10.17-4.13 18.42-9.22 18.42-5.08 0-9.2-8.25-9.2-18.42s4.12-18.43 9.2-18.43c5.1 0 9.22 8.25 9.22 18.43Zm0 0" style="fill:none;stroke-width:.3985;stroke-linecap:butt;stroke-linejoin:miter;stroke:#000;stroke-opacity:1;stroke-miterlimit:10" transform="matrix(1 0 0 -1 11.05 130.82)"/></g><path d="M0 107.79h106.91" style="fill:none;stroke-width:1.49442;stroke-linecap:butt;stroke-linejoin:miter;stroke:red;stroke-opacity:1;stroke-dasharray:2.98883,2.98883;stroke-miterlimit:10" transform="matrix(1 0 0 -1 11.05 130.82)"/><path d="m121.6 23.03-5.81-2.9 2.18 2.9-2.18 2.9" style="stroke:none;fill-rule:nonzero;fill:red;fill-opacity:1"/><path d="M110.55 113.32H3.64" style="fill:none;stroke-width:1.49442;stroke-linecap:butt;stroke-linejoin:miter;stroke:red;stroke-opacity:1;stroke-dasharray:2.98883,2.98883;stroke-miterlimit:10" transform="matrix(1 0 0 -1 11.05 130.82)"/><path d="m11.05 17.5 5.82 2.91-2.18-2.91 2.19-2.9" style="stroke:none;fill-rule:nonzero;fill:red;fill-opacity:1"/><use xlink:href="#b" x="56.24" y="6.08" style="fill:red;fill-opacity:1"/><path d="M0 0h3.97" style="fill:none;stroke-width:.398;stroke-linecap:butt;stroke-linejoin:miter;stroke:red;stroke-opacity:1;stroke-miterlimit:10" transform="matrix(1 0 0 -1 56.24 7.51)"/><use xlink:href="#c" x="56.24" y="13.44" style="fill:red;fill-opacity:1"/><use xlink:href="#d" x="61.41" y="10" style="fill:red;fill-opacity:1"/><use xlink:href="#e" x="65.72" y="10" style="fill:red;fill-opacity:1"/><use xlink:href="#f" x="74.02" y="10" style="fill:red;fill-opacity:1"/><path d="M.8 86.6h108.95" style="fill:none;stroke-width:.79701;stroke-linecap:butt;stroke-linejoin:miter;stroke:#000;stroke-opacity:1;stroke-miterlimit:10" transform="matrix(1 0 0 -1 11.05 130.82)"/><path d="M-2.55 3.11C-2.09 1.24-1.05.36 0 0c-1.05-.36-2.09-1.25-2.55-3.1" style="fill:none;stroke-width:.79701;stroke-linecap:round;stroke-linejoin:round;stroke:#000;stroke-opacity:1;stroke-miterlimit:10" transform="matrix(-1 0 0 1 11.45 44.22)"/><path d="M-2.55 3.1C-2.08 1.26-1.05.37 0 0c-1.05-.36-2.08-1.24-2.55-3.11" style="fill:none;stroke-width:.79701;stroke-linecap:round;stroke-linejoin:round;stroke:#000;stroke-opacity:1;stroke-miterlimit:10" transform="matrix(1 0 0 -1 121.2 44.22)"/><use xlink:href="#g" x="59.95" y="39.01" style="fill:#000;fill-opacity:1"/><use xlink:href="#h" x="65.14" y="40.5" style="fill:#000;fill-opacity:1"/></svg>