<svg xmlns="http://www.w3.org/2000/svg" xmlns:xlink="http://www.w3.org/1999/xlink" width="221.1" height="208.85" viewBox="0 0 165.83 156.64"><defs><clipPath id="a"><path d="M147 0h18.83v38H147Zm0 0"/></clipPath><clipPath id="b"><path d="M141 0h24.83v43H141Zm0 0"/></clipPath><clipPath id="c"><path d="M147 55h18.83v38H147Zm0 0"/></clipPath><clipPath id="d"><path d="M141 49h24.83v49H141Zm0 0"/></clipPath><clipPath id="e"><path d="M147 110h18.83v38H147Zm0 0"/></clipPath><clipPath id="f"><path d="M141 105h24.83v49H141Zm0 0"/></clipPath><clipPath id="g"><path d="M24 55h141.83v96H24Zm0 0"/></clipPath><clipPath id="n"><path d="M27 0h138.83v96H27Zm0 0"/></clipPath><clipPath id="p"><path d="M45 149h5v7.64h-5Zm0 0"/></clipPath><clipPath id="q"><path d="M153 149h4v7.64h-4Zm0 0"/></clipPath><symbol id="h" overflow="visible"><path d="M2.33-4.44c0-.18 0-.18-.2-.18-.46.43-1.08.43-1.36.43v.25c.15 0 .62 0 1-.19v3.55c0 .24 0 .33-.7.33H.82V0l1.24-.03L3.3 0v-.25h-.27c-.7 0-.7-.1-.7-.33Zm0 0" style="stroke:none"/></symbol><symbol id="i" overflow="visible"><path d="M3.52-1.27h-.24c-.01.16-.1.57-.19.63-.04.05-.57.05-.68.05H1.13c.73-.64.98-.85 1.39-1.18.51-.4 1-.84 1-1.5 0-.84-.74-1.35-1.63-1.35-.86 0-1.45.6-1.45 1.25 0 .34.3.39.37.39.16 0 .36-.13.36-.38 0-.12-.04-.37-.4-.37a1.1 1.1 0 0 1 1.01-.64c.7 0 1.06.54 1.06 1.1 0 .61-.43 1.08-.65 1.33L.52-.27C.44-.2.44-.19.44 0H3.3Zm0 0" style="stroke:none"/></symbol><symbol id="j" overflow="visible"><path d="M3.95-3.78c-.17 0-.3 0-.43.12a.5.5 0 0 0-.2.4c0 .24.2.35.38.35.28 0 .55-.25.55-.64 0-.48-.47-.86-1.17-.86C1.73-4.4.4-2.98.4-1.58.4-.68.98.11 2.03.11 3.45.1 4.28-.95 4.28-1.06c0-.06-.05-.14-.1-.14-.07 0-.09.03-.15.1-.78 1-1.87 1-1.98 1-.63 0-.9-.5-.9-1.1 0-.4.2-1.38.54-1.99.31-.58.86-1 1.4-1 .33 0 .72.13.86.4m0 0" style="stroke:none"/></symbol><symbol id="l" overflow="visible"><path d="M2.05-3.98h.93c.2 0 .32 0 .32-.2 0-.12-.11-.12-.28-.12h-.88c.36-1.42.4-1.6.4-1.67q-.02-.26-.29-.26c-.03 0-.31 0-.4.36L1.48-4.3H.53c-.2 0-.3 0-.3.2 0 .12.08.12.29.12h.87C.67-1.16.63-.98.63-.81c0 .54.37.92.92.92 1.01 0 1.58-1.45 1.58-1.53 0-.11-.08-.11-.11-.11-.1 0-.11.03-.16.14C2.44-.34 1.9-.11 1.56-.11c-.2 0-.31-.12-.31-.45 0-.25.03-.31.06-.49Zm0 0" style="stroke:none"/></symbol><symbol id="o" overflow="visible"><path d="M3.48-.56c.11.4.47.67.9.67.34 0 .57-.23.73-.55a5 5 0 0 0 .3-.98c0-.11-.08-.11-.11-.11-.11 0-.11.05-.14.19-.14.56-.33 1.23-.75 1.23-.2 0-.32-.12-.32-.45 0-.22.13-.69.2-1.05l.29-1.08.17-.67c.05-.23.14-.6.14-.67 0-.17-.14-.27-.28-.27-.05 0-.31.02-.4.35l-.74 3c-.02.04-.4.84-1.14.84-.52 0-.61-.45-.61-.81a7 7 0 0 1 .53-2.03c.13-.32.17-.46.17-.64a.8.8 0 0 0-.81-.82C.66-4.4.3-2.95.3-2.87c0 .1.1.1.1.1.12 0 .12-.03.16-.18.25-.86.64-1.24 1.02-1.24.1 0 .25.02.25.33 0 .23-.11.53-.17.67-.38 1-.58 1.61-.58 2.1 0 .95.69 1.2 1.22 1.2.65 0 1.01-.45 1.18-.67m0 0" style="stroke:none"/></symbol><symbol id="r" overflow="visible"><path d="M3.73-6.03c.08-.36.11-.47 1.05-.47.3 0 .38 0 .38-.19 0-.12-.11-.12-.16-.12l-1.47.03-1.33-.03c-.06 0-.18 0-.18.2 0 .11.09.11.28.11.01 0 .2 0 .37.02s.27.03.27.17l-.03.18L1.56-.78c-.1.39-.1.47-.9.47-.18 0-.27 0-.27.2C.4 0 .5 0 .66 0h4.62c.24 0 .24 0 .3-.17l.8-2.16.03-.14c0-.03-.04-.1-.11-.1-.1 0-.11.05-.17.21-.35.9-.79 2.05-2.5 2.05H2.47q-.15-.01-.14-.11l.04-.22Zm0 0" style="stroke:none"/></symbol><symbol id="k" overflow="visible"><path d="M4.4-6.95c-.06-.14-.09-.2-.26-.2-.16 0-.19.06-.25.2L.52-.2l-.05.12c0 .08.06.08.22.08H7.6c.16 0 .22 0 .22-.08q.01 0-.05-.12Zm-.57.8 2.69 5.4H1.14Zm0 0" style="stroke:none"/></symbol><symbol id="m" overflow="visible"><path d="M2.02-3.3q.07-.15.06-.22c0-.21-.19-.37-.4-.37-.27 0-.35.22-.38.33L.38-.55l-.05.11c0 .08.22.16.28.16.05 0 .05-.02.1-.13Zm0 0" style="stroke:none"/></symbol></defs><path d="M0 156.64h165.83V0H0Zm0 0" style="stroke:none;fill-rule:nonzero;fill:#ffe4c8;fill-opacity:1"/><path d="M9.21 110.56c0 10.17-4.12 18.42-9.21 18.42s-9.21-8.25-9.21-18.42S-5.1 92.13 0 92.13s9.21 8.25 9.21 18.43Zm0 0" style="fill-rule:nonzero;fill:gray;fill-opacity:1;stroke-width:.3985;stroke-linecap:butt;stroke-linejoin:miter;stroke:#000;stroke-opacity:1;stroke-miterlimit:10" transform="matrix(1 0 0 -1 45.86 129.18)"/><path d="M9.21 55.28C9.21 65.46 5.1 73.7 0 73.7s-9.21-8.24-9.21-18.42S-5.1 36.85 0 36.85s9.21 8.25 9.21 18.43Zm0 0" style="fill-rule:nonzero;fill:gray;fill-opacity:.2;stroke-width:.3985;stroke-linecap:butt;stroke-linejoin:miter;stroke:gray;stroke-opacity:1;stroke-dasharray:2.98883,2.98883;stroke-miterlimit:10" transform="matrix(1 0 0 -1 45.86 129.18)"/><path d="M9.21 0C9.21 10.18 5.1 18.42 0 18.42S-9.21 10.18-9.21 0-5.1-18.42 0-18.42 9.21-10.18 9.21 0Zm0 0" style="fill-rule:nonzero;fill:gray;fill-opacity:.1;stroke-width:.3985;stroke-linecap:butt;stroke-linejoin:miter;stroke:gray;stroke-opacity:1;stroke-dasharray:2.98883,2.98883;stroke-miterlimit:10" transform="matrix(1 0 0 -1 45.86 129.18)"/><g clip-path="url(#a)"><path d="M165.63 18.62c0-10.17-4.12-18.42-9.21-18.42s-9.21 8.25-9.21 18.42 4.12 18.43 9.2 18.43c5.1 0 9.22-8.25 9.22-18.43m0 0" style="stroke:none;fill-rule:nonzero;fill:gray;fill-opacity:1"/></g><g clip-path="url(#b)"><path d="M119.77 110.56c0 10.17-4.13 18.42-9.22 18.42-5.08 0-9.2-8.25-9.2-18.42s4.12-18.43 9.2-18.43c5.1 0 9.22 8.25 9.22 18.43Zm0 0" style="fill:none;stroke-width:.3985;stroke-linecap:butt;stroke-linejoin:miter;stroke:#000;stroke-opacity:1;stroke-miterlimit:10" transform="matrix(1 0 0 -1 45.86 129.18)"/></g><g clip-path="url(#c)"><path d="M165.63 73.9c0-10.18-4.12-18.42-9.21-18.42s-9.21 8.24-9.21 18.42 4.12 18.42 9.2 18.42c5.1 0 9.22-8.24 9.22-18.42m0 0" style="stroke:none;fill-rule:nonzero;fill:gray;fill-opacity:.2"/></g><g clip-path="url(#d)"><path d="M119.77 55.28c0 10.18-4.13 18.42-9.22 18.42-5.08 0-9.2-8.24-9.2-18.42s4.12-18.43 9.2-18.43c5.1 0 9.22 8.25 9.22 18.43Zm0 0" style="fill:none;stroke-width:.3985;stroke-linecap:butt;stroke-linejoin:miter;stroke:gray;stroke-opacity:1;stroke-dasharray:2.98883,2.98883;stroke-miterlimit:10" transform="matrix(1 0 0 -1 45.86 129.18)"/></g><g clip-path="url(#e)"><path d="M165.63 129.18c0-10.18-4.12-18.43-9.21-18.43s-9.21 8.25-9.21 18.43 4.12 18.42 9.2 18.42c5.1 0 9.22-8.24 9.22-18.42m0 0" style="stroke:none;fill-rule:nonzero;fill:gray;fill-opacity:.1"/></g><g clip-path="url(#f)"><path d="M119.77 0c0 10.18-4.13 18.42-9.22 18.42-5.08 0-9.2-8.24-9.2-18.42s4.12-18.42 9.2-18.42c5.1 0 9.22 8.24 9.22 18.42Zm0 0" style="fill:none;stroke-width:.3985;stroke-linecap:butt;stroke-linejoin:miter;stroke:gray;stroke-opacity:1;stroke-dasharray:2.98883,2.98883;stroke-miterlimit:10" transform="matrix(1 0 0 -1 45.86 129.18)"/></g><g clip-path="url(#g)"><path d="m0 0 105.09 52.55" style="fill:none;stroke-width:1.49442;stroke-linecap:butt;stroke-linejoin:miter;stroke:red;stroke-opacity:1;stroke-dasharray:2.98883,2.98883;stroke-miterlimit:10" transform="matrix(1 0 0 -1 45.86 129.18)"/></g><path d="M154.2 75h-6.5l3.25 1.63-.65 3.58" style="stroke:none;fill-rule:nonzero;fill:red;fill-opacity:1"/><use xlink:href="#h" x="88.55" y="110.65" style="fill:red;fill-opacity:1"/><path d="M0 0h3.97" style="fill:none;stroke-width:.398;stroke-linecap:butt;stroke-linejoin:miter;stroke:red;stroke-opacity:1;stroke-miterlimit:10" transform="matrix(1 0 0 -1 88.55 112.09)"/><use xlink:href="#i" x="88.55" y="118.01" style="fill:red;fill-opacity:1"/><use xlink:href="#j" x="93.71" y="114.58" style="fill:red;fill-opacity:1"/><use xlink:href="#k" x="98.02" y="114.58" style="fill:red;fill-opacity:1"/><use xlink:href="#l" x="106.33" y="114.58" style="fill:red;fill-opacity:1"/><use xlink:href="#m" x="109.92" y="110.96" style="fill:red;fill-opacity:1"/><g clip-path="url(#n)"><path d="M110.55 55.28 3.25 108.93" style="fill:none;stroke-width:1.49442;stroke-linecap:butt;stroke-linejoin:miter;stroke:red;stroke-opacity:1;stroke-dasharray:2.98883,2.98883;stroke-miterlimit:10" transform="matrix(1 0 0 -1 45.86 129.18)"/></g><path d="m45.86 18.62 3.9 5.2-.64-3.57 3.25-1.63" style="stroke:none;fill-rule:nonzero;fill:red;fill-opacity:1"/><use xlink:href="#h" x="89.65" y="54.83" style="fill:red;fill-opacity:1"/><path d="M0 0h3.97" style="fill:none;stroke-width:.398;stroke-linecap:butt;stroke-linejoin:miter;stroke:red;stroke-opacity:1;stroke-miterlimit:10" transform="matrix(1 0 0 -1 89.65 56.26)"/><use xlink:href="#i" x="89.65" y="62.18" style="fill:red;fill-opacity:1"/><use xlink:href="#j" x="94.82" y="58.75" style="fill:red;fill-opacity:1"/><use xlink:href="#k" x="99.13" y="58.75" style="fill:red;fill-opacity:1"/><use xlink:href="#l" x="107.43" y="58.75" style="fill:red;fill-opacity:1"/><use xlink:href="#m" x="111.03" y="55.13" style="fill:red;fill-opacity:1"/><path d="M55.28 110.55v7.72" style="fill:none;stroke-width:1.49442;stroke-linecap:butt;stroke-linejoin:miter;stroke:#000;stroke-opacity:1;stroke-miterlimit:10" transform="matrix(1 0 0 -1 45.86 129.18)"/><path d="M-3.39 4.37C-2.77 1.75-1.39.5.01 0c-1.4-.51-2.78-1.75-3.4-4.37" style="fill:none;stroke-width:1.49442;stroke-linecap:round;stroke-linejoin:round;stroke:#000;stroke-opacity:1;stroke-miterlimit:10" transform="matrix(0 -1 -1 0 101.14 10.16)"/><use xlink:href="#o" x="105.2" y="16.17" style="fill:#000;fill-opacity:1"/><path d="M.8-23.95h108.95" style="fill:none;stroke-width:.79701;stroke-linecap:butt;stroke-linejoin:miter;stroke:#000;stroke-opacity:1;stroke-miterlimit:10" transform="matrix(1 0 0 -1 45.86 129.18)"/><g clip-path="url(#p)"><path d="M-2.55 3.11C-2.1 1.24-1.05.36 0 .01c-1.05-.37-2.09-1.25-2.55-3.12" style="fill:none;stroke-width:.79701;stroke-linecap:round;stroke-linejoin:round;stroke:#000;stroke-opacity:1;stroke-miterlimit:10" transform="matrix(-1 0 0 1 46.26 153.13)"/></g><g clip-path="url(#q)"><path d="M-2.55 3.11C-2.1 1.24-1.05.36 0 0c-1.05-.36-2.09-1.24-2.55-3.11" style="fill:none;stroke-width:.79701;stroke-linecap:round;stroke-linejoin:round;stroke:#000;stroke-opacity:1;stroke-miterlimit:10" transform="matrix(1 0 0 -1 156.02 153.13)"/></g><use xlink:href="#r" x="97.75" y="149.41" style="fill:#000;fill-opacity:1"/><path d="M-18.43 0v109.76" style="fill:none;stroke-width:.79701;stroke-linecap:butt;stroke-linejoin:miter;stroke:#000;stroke-opacity:1;stroke-miterlimit:10" transform="matrix(1 0 0 -1 45.86 129.18)"/><path d="M-2.55 3.11C-2.08 1.24-1.05.36 0 0c-1.05-.36-2.08-1.25-2.55-3.1" style="fill:none;stroke-width:.79701;stroke-linecap:round;stroke-linejoin:round;stroke:#000;stroke-opacity:1;stroke-miterlimit:10" transform="matrix(0 -1 -1 0 27.44 19.02)"/><use xlink:href="#o" x="3.32" y="77.65" style="fill:#000;fill-opacity:1"/><use xlink:href="#k" x="9.02" y="77.65" style="fill:#000;fill-opacity:1"/><use xlink:href="#l" x="17.33" y="77.65" style="fill:#000;fill-opacity:1"/><use xlink:href="#m" x="20.92" y="74.03" style="fill:#000;fill-opacity:1"/></svg>