<svg data-optimized="true" xmlns="http://www.w3.org/2000/svg" xmlns:xlink="http://www.w3.org/1999/xlink" width="221.104" height="208.853" viewBox="0 0 165.828 156.64"><defs><clipPath id="a"><path d="M147 0h18.828v38H147Zm0 0"/></clipPath><clipPath id="b"><path d="M141 0h24.828v43H141Zm0 0"/></clipPath><clipPath id="c"><path d="M147 55h18.828v38H147Zm0 0"/></clipPath><clipPath id="d"><path d="M141 49h24.828v49H141Zm0 0"/></clipPath><clipPath id="e"><path d="M147 110h18.828v38H147Zm0 0"/></clipPath><clipPath id="f"><path d="M141 105h24.828v49H141Zm0 0"/></clipPath><clipPath id="g"><path d="M24 55h141.828v96H24Zm0 0"/></clipPath><clipPath id="n"><path d="M27 0h138.828v96H27Zm0 0"/></clipPath><clipPath id="p"><path d="M45 149h5v7.64h-5Zm0 0"/></clipPath><clipPath id="q"><path d="M153 149h4v7.64h-4Zm0 0"/></clipPath><symbol id="h" overflow="visible"><path d="M2.328-4.437c0-.188 0-.188-.203-.188-.453.438-1.078.438-1.36.438v.25c.157 0 .626 0 1-.188v3.547c0 .234 0 .328-.687.328H.812V0c.125 0 .985-.031 1.235-.031.219 0 1.094.031 1.25.031v-.25H3.03c-.703 0-.703-.094-.703-.328Zm0 0" style="stroke:none"/></symbol><symbol id="i" overflow="visible"><path d="M3.516-1.266H3.28c-.015.157-.094.563-.187.625-.047.047-.578.047-.688.047H1.125c.734-.64.984-.843 1.39-1.172.516-.406 1-.843 1-1.5 0-.843-.734-1.359-1.624-1.359-.86 0-1.453.61-1.453 1.25 0 .344.296.39.375.39.156 0 .359-.124.359-.374 0-.125-.047-.375-.406-.375.218-.485.687-.641 1.015-.641.703 0 1.063.547 1.063 1.11 0 .609-.438 1.078-.656 1.328L.516-.266C.437-.203.437-.187.437 0h2.876Zm0 0" style="stroke:none"/></symbol><symbol id="j" overflow="visible"><path d="M3.953-3.781c-.172 0-.297 0-.437.125a.53.53 0 0 0-.188.39c0 .25.188.36.375.36.281 0 .547-.25.547-.64 0-.485-.469-.86-1.172-.86-1.344 0-2.672 1.422-2.672 2.828C.406-.672.984.109 2.031.109c1.422 0 2.25-1.062 2.25-1.171 0-.063-.047-.141-.11-.141-.062 0-.077.031-.14.11-.781.984-1.875.984-1.984.984-.625 0-.906-.485-.906-1.094 0-.406.203-1.375.547-1.984.312-.579.859-1 1.406-1 .328 0 .719.125.86.406m0 0" style="stroke:none"/></symbol><symbol id="l" overflow="visible"><path d="M2.047-3.984h.937c.204 0 .313 0 .313-.203 0-.11-.11-.11-.281-.11H2.14c.359-1.422.406-1.61.406-1.672 0-.172-.125-.265-.297-.265-.031 0-.312 0-.39.359l-.391 1.578H.53c-.203 0-.297 0-.297.188 0 .125.078.125.282.125h.875C.67-1.156.625-.984.625-.812c0 .546.375.921.922.921 1.016 0 1.578-1.453 1.578-1.53 0-.11-.078-.11-.11-.11-.093 0-.109.031-.156.14C2.438-.344 1.906-.109 1.563-.109c-.204 0-.313-.125-.313-.453 0-.25.031-.313.063-.485Zm0 0" style="stroke:none"/></symbol><symbol id="o" overflow="visible"><path d="M3.484-.562c.11.406.47.671.891.671.344 0 .578-.234.734-.546.172-.36.297-.97.297-.985 0-.11-.078-.11-.11-.11-.109 0-.109.048-.14.188-.14.563-.328 1.235-.75 1.235-.203 0-.312-.125-.312-.453 0-.22.125-.688.203-1.047l.281-1.078c.031-.141.125-.516.172-.672.047-.235.14-.61.14-.672 0-.172-.14-.266-.28-.266-.048 0-.313.016-.391.344a419 419 0 0 0-.75 3c-.016.047-.406.844-1.14.844-.517 0-.61-.453-.61-.813 0-.562.281-1.344.531-2.031.125-.313.172-.453.172-.64 0-.438-.313-.813-.813-.813-.953 0-1.312 1.453-1.312 1.531 0 .11.094.11.11.11.109 0 .109-.032.156-.188.25-.86.64-1.235 1.015-1.235.094 0 .25.016.25.329 0 .234-.11.53-.172.672-.375 1-.578 1.609-.578 2.093C1.078-.14 1.766.11 2.297.11c.656 0 1.015-.453 1.187-.671m0 0" style="stroke:none"/></symbol><symbol id="r" overflow="visible"><path d="M3.734-6.031c.079-.36.11-.469 1.047-.469.297 0 .375 0 .375-.187 0-.125-.11-.125-.156-.125-.328 0-1.14.03-1.469.03-.297 0-1.031-.03-1.328-.03-.062 0-.187 0-.187.203 0 .109.093.109.28.109.017 0 .204 0 .376.016.172.03.265.03.265.172 0 .03 0 .062-.03.187L1.562-.781c-.094.39-.11.469-.907.469-.172 0-.265 0-.265.203C.39 0 .484 0 .656 0h4.625c.235 0 .235 0 .297-.172l.797-2.156c.031-.11.031-.125.031-.14 0-.032-.031-.11-.11-.11-.093 0-.109.062-.171.219-.344.906-.781 2.047-2.5 2.047H2.468c-.109-.016-.14-.032-.14-.11 0-.031 0-.047.047-.219Zm0 0" style="stroke:none"/></symbol><symbol id="k" overflow="visible"><path d="M4.406-6.953c-.062-.14-.093-.188-.265-.188-.157 0-.188.047-.25.188L.516-.203c-.047.094-.047.11-.047.125C.469 0 .53 0 .688 0h6.921c.157 0 .22 0 .22-.078 0-.016 0-.031-.048-.125Zm-.578.812L6.516-.75H1.14Zm0 0" style="stroke:none"/></symbol><symbol id="m" overflow="visible"><path d="M2.016-3.297c.062-.11.062-.172.062-.219 0-.218-.187-.375-.406-.375-.266 0-.344.22-.375.329L.375-.547a.3.3 0 0 0-.047.11c0 .078.219.156.281.156.047 0 .047-.016.094-.125Zm0 0" style="stroke:none"/></symbol></defs><path d="M0 156.64h165.828V0H0Zm0 0" style="stroke:none;fill-rule:nonzero;fill:#ffe4c8;fill-opacity:1"/><path d="M9.211 110.557c0 10.176-4.125 18.422-9.21 18.422-5.09 0-9.212-8.246-9.212-18.422C-9.21 100.377-5.09 92.13 0 92.13c5.086 0 9.211 8.246 9.211 18.426Zm0 0" style="fill-rule:nonzero;fill:gray;fill-opacity:1;stroke-width:.3985;stroke-linecap:butt;stroke-linejoin:miter;stroke:#000;stroke-opacity:1;stroke-miterlimit:10" transform="matrix(1 0 0 -1 45.863 129.178)"/><path d="M9.211 55.276c0 10.18-4.125 18.425-9.21 18.425-5.09 0-9.212-8.246-9.212-18.425C-9.21 45.1-5.09 36.854 0 36.854c5.086 0 9.211 8.246 9.211 18.422Zm0 0" style="fill-rule:nonzero;fill:gray;fill-opacity:.2;stroke-width:.3985;stroke-linecap:butt;stroke-linejoin:miter;stroke:gray;stroke-opacity:1;stroke-dasharray:2.98883,2.98883;stroke-miterlimit:10" transform="matrix(1 0 0 -1 45.863 129.178)"/><path d="M9.211-.002c0 10.18-4.125 18.426-9.21 18.426-5.09 0-9.212-8.246-9.212-18.426C-9.21-10.177-5.09-18.424 0-18.424c5.086 0 9.211 8.247 9.211 18.422Zm0 0" style="fill-rule:nonzero;fill:gray;fill-opacity:.1;stroke-width:.3985;stroke-linecap:butt;stroke-linejoin:miter;stroke:gray;stroke-opacity:1;stroke-dasharray:2.98883,2.98883;stroke-miterlimit:10" transform="matrix(1 0 0 -1 45.863 129.178)"/><g clip-path="url(#a)"><path d="M165.633 18.621C165.633 8.445 161.508.2 156.418.2c-5.086 0-9.211 8.246-9.211 18.422 0 10.18 4.125 18.426 9.211 18.426 5.09 0 9.215-8.246 9.215-18.426m0 0" style="stroke:none;fill-rule:nonzero;fill:gray;fill-opacity:1"/></g><g clip-path="url(#b)"><path d="M119.77 110.557c0 10.176-4.125 18.422-9.215 18.422-5.086 0-9.211-8.246-9.211-18.422 0-10.18 4.125-18.426 9.211-18.426 5.09 0 9.215 8.246 9.215 18.426Zm0 0" style="fill:none;stroke-width:.3985;stroke-linecap:butt;stroke-linejoin:miter;stroke:#000;stroke-opacity:1;stroke-miterlimit:10" transform="matrix(1 0 0 -1 45.863 129.178)"/></g><g clip-path="url(#c)"><path d="M165.633 73.902c0-10.18-4.125-18.425-9.215-18.425-5.086 0-9.211 8.246-9.211 18.425 0 10.176 4.125 18.422 9.211 18.422 5.09 0 9.215-8.246 9.215-18.422m0 0" style="stroke:none;fill-rule:nonzero;fill:gray;fill-opacity:.2"/></g><g clip-path="url(#d)"><path d="M119.77 55.276c0 10.18-4.125 18.425-9.215 18.425-5.086 0-9.211-8.246-9.211-18.425 0-10.176 4.125-18.422 9.211-18.422 5.09 0 9.215 8.246 9.215 18.422Zm0 0" style="fill:none;stroke-width:.3985;stroke-linecap:butt;stroke-linejoin:miter;stroke:gray;stroke-opacity:1;stroke-dasharray:2.98883,2.98883;stroke-miterlimit:10" transform="matrix(1 0 0 -1 45.863 129.178)"/></g><g clip-path="url(#e)"><path d="M165.633 129.18c0-10.18-4.125-18.426-9.215-18.426-5.086 0-9.211 8.246-9.211 18.426 0 10.175 4.125 18.422 9.211 18.422 5.09 0 9.215-8.247 9.215-18.422m0 0" style="stroke:none;fill-rule:nonzero;fill:gray;fill-opacity:.1"/></g><g clip-path="url(#f)"><path d="M119.77-.002c0 10.18-4.125 18.426-9.215 18.426-5.086 0-9.211-8.246-9.211-18.426 0-10.175 4.125-18.422 9.211-18.422 5.09 0 9.215 8.247 9.215 18.422Zm0 0" style="fill:none;stroke-width:.3985;stroke-linecap:butt;stroke-linejoin:miter;stroke:gray;stroke-opacity:1;stroke-dasharray:2.98883,2.98883;stroke-miterlimit:10" transform="matrix(1 0 0 -1 45.863 129.178)"/></g><g clip-path="url(#g)"><path d="m0-.002 105.09 52.547" style="fill:none;stroke-width:1.49442;stroke-linecap:butt;stroke-linejoin:miter;stroke:red;stroke-opacity:1;stroke-dasharray:2.98883,2.98883;stroke-miterlimit:10" transform="matrix(1 0 0 -1 45.863 129.178)"/></g><path d="M154.207 75.008h-6.504l3.25 1.625-.648 3.578" style="stroke:none;fill-rule:nonzero;fill:red;fill-opacity:1"/><use xlink:href="#h" x="88.545" y="110.654" style="fill:red;fill-opacity:1"/><path d="M.002 0H3.97" style="fill:none;stroke-width:.398;stroke-linecap:butt;stroke-linejoin:miter;stroke:red;stroke-opacity:1;stroke-miterlimit:10" transform="matrix(1 0 0 -1 88.545 112.086)"/><use xlink:href="#i" x="88.545" y="118.013" style="fill:red;fill-opacity:1"/><use xlink:href="#j" x="93.712" y="114.577" style="fill:red;fill-opacity:1"/><use xlink:href="#k" x="98.023" y="114.577" style="fill:red;fill-opacity:1"/><use xlink:href="#l" x="106.325" y="114.577" style="fill:red;fill-opacity:1"/><use xlink:href="#m" x="109.923" y="110.962" style="fill:red;fill-opacity:1"/><g clip-path="url(#n)"><path d="m110.555 55.276-107.3 53.652" style="fill:none;stroke-width:1.49442;stroke-linecap:butt;stroke-linejoin:miter;stroke:red;stroke-opacity:1;stroke-dasharray:2.98883,2.98883;stroke-miterlimit:10" transform="matrix(1 0 0 -1 45.863 129.178)"/></g><path d="m45.863 18.621 3.903 5.207-.649-3.578 3.25-1.629" style="stroke:none;fill-rule:nonzero;fill:red;fill-opacity:1"/><use xlink:href="#h" x="89.651" y="54.825" style="fill:red;fill-opacity:1"/><path d="M.001 0h3.97" style="fill:none;stroke-width:.398;stroke-linecap:butt;stroke-linejoin:miter;stroke:red;stroke-opacity:1;stroke-miterlimit:10" transform="matrix(1 0 0 -1 89.651 56.257)"/><use xlink:href="#i" x="89.651" y="62.183" style="fill:red;fill-opacity:1"/><use xlink:href="#j" x="94.818" y="58.747" style="fill:red;fill-opacity:1"/><use xlink:href="#k" x="99.129" y="58.747" style="fill:red;fill-opacity:1"/><use xlink:href="#l" x="107.431" y="58.747" style="fill:red;fill-opacity:1"/><use xlink:href="#m" x="111.029" y="55.132" style="fill:red;fill-opacity:1"/><path d="M55.278 110.553v7.715" style="fill:none;stroke-width:1.49442;stroke-linecap:butt;stroke-linejoin:miter;stroke:#000;stroke-opacity:1;stroke-miterlimit:10" transform="matrix(1 0 0 -1 45.863 129.178)"/><path d="M-3.386 4.37C-2.769 1.747-1.39.51.001-.003-1.39-.51-2.77-1.748-3.386-4.369" style="fill:none;stroke-width:1.49442;stroke-linecap:round;stroke-linejoin:round;stroke:#000;stroke-opacity:1;stroke-miterlimit:10" transform="matrix(0 -1 -1 0 101.139 10.161)"/><use xlink:href="#o" x="105.205" y="16.166" style="fill:#000;fill-opacity:1"/><path d="M.797-23.955h108.957" style="fill:none;stroke-width:.79701;stroke-linecap:butt;stroke-linejoin:miter;stroke:#000;stroke-opacity:1;stroke-miterlimit:10" transform="matrix(1 0 0 -1 45.863 129.178)"/><g clip-path="url(#p)"><path d="M-2.551 3.111c.465-1.867 1.504-2.75 2.55-3.11C-1.046-.36-2.085-1.243-2.55-3.11" style="fill:none;stroke-width:.79701;stroke-linecap:round;stroke-linejoin:round;stroke:#000;stroke-opacity:1;stroke-miterlimit:10" transform="matrix(-1 0 0 1 46.261 153.13)"/></g><g clip-path="url(#q)"><path d="M-2.551 3.111c.465-1.867 1.504-2.75 2.55-3.113-1.046-.36-2.085-1.242-2.55-3.11" style="fill:none;stroke-width:.79701;stroke-linecap:round;stroke-linejoin:round;stroke:#000;stroke-opacity:1;stroke-miterlimit:10" transform="matrix(1 0 0 -1 156.016 153.13)"/></g><use xlink:href="#r" x="97.748" y="149.412" style="fill:#000;fill-opacity:1"/><path d="M-18.425-.002v109.758" style="fill:none;stroke-width:.79701;stroke-linecap:butt;stroke-linejoin:miter;stroke:#000;stroke-opacity:1;stroke-miterlimit:10" transform="matrix(1 0 0 -1 45.863 129.178)"/><path d="M-2.55 3.11C-2.083 1.242-1.044.364.003 0-1.045-.363-2.084-1.246-2.55-3.11" style="fill:none;stroke-width:.79701;stroke-linecap:round;stroke-linejoin:round;stroke:#000;stroke-opacity:1;stroke-miterlimit:10" transform="matrix(0 -1 -1 0 27.438 19.025)"/><use xlink:href="#o" x="3.321" y="77.648" style="fill:#000;fill-opacity:1"/><use xlink:href="#k" x="9.024" y="77.648" style="fill:#000;fill-opacity:1"/><use xlink:href="#l" x="17.326" y="77.648" style="fill:#000;fill-opacity:1"/><use xlink:href="#m" x="20.924" y="74.032" style="fill:#000;fill-opacity:1"/></svg>