<?xml version="1.0" encoding="utf-8" standalone="no"?>
<!DOCTYPE svg PUBLIC "-//W3C//DTD SVG 1.1//EN"
  "http://www.w3.org/Graphics/SVG/1.1/DTD/svg11.dtd">
<svg xmlns:xlink="http://www.w3.org/1999/xlink" width="371.52pt" height="280.512pt" viewBox="0 0 371.52 280.512" xmlns="http://www.w3.org/2000/svg" version="1.1">
 <metadata>
  <rdf:RDF xmlns:dc="http://purl.org/dc/elements/1.1/" xmlns:cc="http://creativecommons.org/ns#" xmlns:rdf="http://www.w3.org/1999/02/22-rdf-syntax-ns#">
   <cc:Work>
    <dc:type rdf:resource="http://purl.org/dc/dcmitype/StillImage"/>
    <dc:date>2024-02-27T15:40:32.681354</dc:date>
    <dc:format>image/svg+xml</dc:format>
    <dc:creator>
     <cc:Agent>
      <dc:title>Matplotlib v3.8.2, https://matplotlib.org/</dc:title>
     </cc:Agent>
    </dc:creator>
   </cc:Work>
  </rdf:RDF>
 </metadata>
 <defs>
  <style type="text/css">*{stroke-linejoin: round; stroke-linecap: butt}</style>
 </defs>
 <g id="figure_1">
  <g id="axes_1">
   <g id="Quiver_1">
    <path d="M 186.365096 19.296 
L 186.365096 86.46167 
L 190.600769 84.646382 
L 185.76 91.907535 
L 180.919231 84.646382 
L 185.154904 86.46167 
L 185.154904 19.296 
L 186.365096 19.296 
" clip-path="url(#p0a0b05f6a1)"/>
    <path d="M 197.05842 19.823048 
L 191.122311 86.725887 
L 195.501844 85.292051 
L 190.038277 92.096963 
L 185.858192 84.436396 
L 189.916855 86.61893 
L 195.852964 19.716091 
L 197.05842 19.823048 
" clip-path="url(#p0a0b05f6a1)"/>
    <path d="M 207.663319 21.293111 
L 195.837559 87.409513 
L 200.326677 86.368352 
L 194.28307 92.663764 
L 190.796385 84.663738 
L 194.646272 87.196436 
L 206.472032 21.080034 
L 207.663319 21.293111 
" clip-path="url(#p0a0b05f6a1)"/>
    <path d="M 218.096794 23.694683 
L 200.473936 88.507198 
L 205.037505 87.86686 
L 198.461159 93.603503 
L 195.695161 85.326628 
L 199.306143 88.189669 
L 216.929001 23.377154 
L 218.096794 23.694683 
" clip-path="url(#p0a0b05f6a1)"/>
    <path d="M 228.27719 27.00897 
L 204.995156 90.010352 
L 209.597461 89.775848 
L 202.539844 94.908824 
L 200.51618 86.419879 
L 203.859996 89.590856 
L 227.14203 26.589473 
L 228.27719 27.00897 
" clip-path="url(#p0a0b05f6a1)"/>
    <path d="M 238.124831 31.210031 
L 209.365836 91.907209 
L 213.970856 92.080375 
L 206.487204 96.569511 
L 205.221713 87.934934 
L 208.272193 91.389029 
L 237.031188 30.691851 
L 238.124831 31.210031 
" clip-path="url(#p0a0b05f6a1)"/>
    <path d="M 247.562647 36.264988 
L 213.551768 94.182924 
L 218.123463 94.762405 
L 210.272345 98.572569 
L 209.774932 89.859936 
L 212.508201 93.570115 
L 246.51908 35.652179 
L 247.562647 36.264988 
" clip-path="url(#p0a0b05f6a1)"/>
    <path d="M 256.516773 42.13428 
L 217.520191 96.819687 
L 222.022782 97.800947 
L 213.865645 100.902319 
L 214.140201 92.179818 
L 216.534868 96.117046 
L 255.53145 41.431638 
L 256.516773 42.13428 
" clip-path="url(#p0a0b05f6a1)"/>
    <path d="M 264.917131 48.77197 
L 221.240048 99.796862 
L 225.638296 101.172222 
L 217.238979 103.540528 
L 218.283356 94.876426 
L 220.320681 99.009888 
L 263.997764 47.984996 
L 264.917131 48.77197 
" clip-path="url(#p0a0b05f6a1)"/>
    <path d="M 272.697978 56.126111 
L 224.682225 103.091148 
L 228.941708 104.849843 
L 220.365948 106.46655 
L 222.171972 97.928654 
L 223.836008 102.225999 
L 271.851761 55.260962 
L 272.697978 56.126111 
" clip-path="url(#p0a0b05f6a1)"/>
    <path d="M 279.798417 64.139145 
L 227.819784 106.676763 
L 231.907164 108.805029 
L 223.222078 109.657483 
L 225.775616 101.312614 
L 227.05334 105.740211 
L 279.031973 63.202593 
L 279.798417 64.139145 
" clip-path="url(#p0a0b05f6a1)"/>
    <path d="M 286.162878 72.748361 
L 230.628167 110.525644 
L 234.511456 113.006825 
L 225.785017 113.088354 
L 229.066082 105.001822 
L 229.947495 109.525019 
L 285.482206 71.747735 
L 286.162878 72.748361 
" clip-path="url(#p0a0b05f6a1)"/>
    <path d="M 291.74155 81.886379 
L 233.085396 114.607669 
L 236.734202 117.422347 
L 228.034705 116.732313 
L 232.01762 108.967406 
L 232.495823 113.550802 
L 291.151977 80.829511 
L 291.74155 81.886379 
" clip-path="url(#p0a0b05f6a1)"/>
    <path d="M 296.490773 91.481682 
L 235.17224 118.890891 
L 238.558006 122.017036 
L 229.953537 120.56084 
L 234.607129 113.178329 
L 234.67838 117.786053 
L 295.996913 90.376843 
L 296.490773 91.481682 
" clip-path="url(#p0a0b05f6a1)"/>
    <path d="M 300.373377 101.459173 
L 236.872366 123.341787 
L 239.968594 126.754934 
L 231.526495 124.543972 
L 236.814344 117.601635 
L 236.478085 122.197625 
L 299.979096 100.315011 
L 300.373377 101.459173 
" clip-path="url(#p0a0b05f6a1)"/>
    <path d="M 303.358977 111.740766 
L 238.172468 127.925524 
L 240.954926 131.598959 
L 232.741267 128.650535 
L 238.621988 122.202705 
L 237.880851 126.750992 
L 303.067359 110.566235 
L 303.358977 111.740766 
" clip-path="url(#p0a0b05f6a1)"/>
    <path d="M 305.424205 122.245993 
L 239.062372 132.606226 
L 241.509283 136.5112 
L 233.588348 132.848391 
L 240.015916 126.945531 
L 238.875701 131.410517 
L 305.237534 121.050285 
L 305.424205 122.245993 
" clip-path="url(#p0a0b05f6a1)"/>
    <path d="M 306.552898 132.892636 
L 239.535113 137.347262 
L 241.627327 141.453214 
L 234.061106 137.104684 
L 240.985218 131.792992 
L 239.454849 136.139734 
L 306.472634 131.685109 
L 306.552898 132.892636 
" clip-path="url(#p0a0b05f6a1)"/>
    <path d="M 306.736223 143.597371 
L 239.58699 142.111526 
L 241.308132 146.386321 
L 234.155844 141.386104 
L 241.522308 136.707152 
L 239.613762 140.90163 
L 306.762995 142.387475 
L 306.736223 143.597371 
" clip-path="url(#p0a0b05f6a1)"/>
    <path d="M 305.972745 154.276419 
L 239.217598 146.861732 
L 240.554198 151.271913 
L 233.871818 145.659144 
L 241.622982 141.64955 
L 239.351196 145.658937 
L 306.106343 153.073623 
L 305.972745 154.276419 
" clip-path="url(#p0a0b05f6a1)"/>
    <path d="M 304.26844 164.846201 
L 238.429828 151.560703 
L 239.371426 156.071755 
L 233.211251 149.890359 
L 241.286453 146.581504 
L 238.669206 150.374421 
L 304.507818 163.65992 
L 304.26844 164.846201 
" clip-path="url(#p0a0b05f6a1)"/>
    <path d="M 301.636645 175.223995 
L 237.229845 156.171662 
L 237.769071 160.74828 
L 232.179315 154.046637 
L 240.515353 151.464417 
L 237.573131 155.011179 
L 301.97993 174.063512 
L 301.636645 175.223995 
" clip-path="url(#p0a0b05f6a1)"/>
    <path d="M 298.097958 185.328581 
L 235.627041 160.658523 
L 235.759675 165.264889 
L 230.784084 158.095447 
L 239.315719 156.260072 
L 236.071547 159.532921 
L 298.542464 184.202979 
L 298.097958 185.328581 
" clip-path="url(#p0a0b05f6a1)"/>
    <path d="M 293.680074 195.080876 
L 233.63396 164.98617 
L 233.358963 169.586233 
L 229.036479 162.005103 
L 237.696939 160.930937 
L 234.176207 163.904259 
L 294.222321 193.998964 
L 293.680074 195.080876 
" clip-path="url(#p0a0b05f6a1)"/>
    <path d="M 288.41757 204.404556 
L 231.2662 169.120734 
L 230.585725 173.678492 
L 226.950177 165.745007 
L 235.671682 165.440456 
L 231.901944 168.09098 
L 289.053315 203.374802 
L 288.41757 204.404556 
" clip-path="url(#p0a0b05f6a1)"/>
    <path d="M 282.351631 213.22665 
L 228.542292 173.029856 
L 227.461665 177.509637 
L 224.541506 169.285888 
L 233.255798 169.753336 
L 229.266558 172.060318 
L 283.075898 212.257112 
L 282.351631 213.22665 
" clip-path="url(#p0a0b05f6a1)"/>
    <path d="M 275.529731 221.478113 
L 225.483555 176.682941 
L 224.011233 181.049687 
L 221.829317 172.600034 
L 230.468195 173.835823 
L 226.290675 175.781208 
L 276.336852 220.57638 
L 275.529731 221.478113 
" clip-path="url(#p0a0b05f6a1)"/>
    <path d="M 268.005262 229.094366 
L 222.113927 180.0514 
L 220.261433 184.270933 
L 218.834836 175.661507 
L 227.33069 177.655966 
L 222.997584 179.224529 
L 268.888919 228.267495 
L 268.005262 229.094366 
" clip-path="url(#p0a0b05f6a1)"/>
    <path d="M 259.837112 236.015803 
L 218.45978 183.108869 
L 216.241613 187.148167 
L 215.5815 178.446349 
L 223.867838 181.183867 
L 219.413058 182.363331 
L 260.79039 235.270265 
L 259.837112 236.015803 
" clip-path="url(#p0a0b05f6a1)"/>
    <path d="M 251.089208 242.188252 
L 214.549713 185.83142 
L 211.983233 189.65887 
L 212.094771 180.932762 
L 220.10674 184.391916 
L 215.565152 185.17305 
L 252.104646 241.529883 
L 251.089208 242.188252 
" clip-path="url(#p0a0b05f6a1)"/>
    <path d="M 241.830014 247.563407 
L 210.414328 188.197745 
L 207.51962 191.783391 
L 208.401936 183.101288 
L 216.076833 187.255004 
L 211.48398 187.631696 
L 242.899666 246.997359 
L 241.830014 247.563407 
" clip-path="url(#p0a0b05f6a1)"/>
    <path d="M 232.131997 252.0992 
L 206.085989 190.189324 
L 202.885709 193.505105 
L 204.531897 184.934955 
L 211.809655 189.750725 
L 207.201482 189.720026 
L 233.24749 251.629902 
L 232.131997 252.0992 
" clip-path="url(#p0a0b05f6a1)"/>
    <path d="M 222.071056 255.760131 
L 201.598572 191.790571 
L 198.117766 194.810535 
L 200.514943 186.419413 
L 207.338603 191.859547 
L 202.751177 191.421697 
L 223.22366 255.391257 
L 222.071056 255.760131 
" clip-path="url(#p0a0b05f6a1)"/>
    <path d="M 211.725931 258.517549 
L 196.987196 192.988953 
L 193.253107 195.689466 
L 196.382512 187.543042 
L 202.69867 193.564964 
L 198.167892 192.72339 
L 212.906627 258.251987 
L 211.725931 258.517549 
" clip-path="url(#p0a0b05f6a1)"/>
    <path d="M 201.177588 260.349874 
L 192.287953 193.775092 
L 188.329804 196.135018 
L 192.166944 188.29705 
L 197.926169 194.853629 
L 193.487498 193.614919 
L 202.377134 260.189701 
L 201.177588 260.349874 
" clip-path="url(#p0a0b05f6a1)"/>
    <path d="M 190.508581 261.242765 
L 187.537619 194.142835 
L 183.386388 196.143705 
L 187.901234 188.675535 
L 193.05845 195.715458 
L 188.746627 194.089305 
L 191.717589 261.189235 
L 190.508581 261.242765 
" clip-path="url(#p0a0b05f6a1)"/>
    <path d="M 179.802411 261.189235 
L 182.773373 194.089305 
L 178.46155 195.715458 
L 183.618766 188.675535 
L 188.133612 196.143705 
L 183.982381 194.142835 
L 181.011419 261.242765 
L 179.802411 261.189235 
" clip-path="url(#p0a0b05f6a1)"/>
    <path d="M 169.142866 260.189701 
L 178.032502 193.614919 
L 173.593831 194.853629 
L 179.353056 188.29705 
L 183.190196 196.135018 
L 179.232047 193.775092 
L 170.342412 260.349874 
L 169.142866 260.189701 
" clip-path="url(#p0a0b05f6a1)"/>
    <path d="M 158.613373 258.251987 
L 173.352108 192.72339 
L 168.82133 193.564964 
L 175.137488 187.543042 
L 178.266893 195.689466 
L 174.532804 192.988953 
L 159.794069 258.517549 
L 158.613373 258.251987 
" clip-path="url(#p0a0b05f6a1)"/>
    <path d="M 148.29634 255.391257 
L 168.768823 191.421697 
L 164.181397 191.859547 
L 171.005057 186.419413 
L 173.402234 194.810535 
L 169.921428 191.790571 
L 149.448944 255.760131 
L 148.29634 255.391257 
" clip-path="url(#p0a0b05f6a1)"/>
    <path d="M 138.27251 251.629902 
L 164.318518 189.720026 
L 159.710345 189.750725 
L 166.988103 184.934955 
L 168.634291 193.505105 
L 165.434011 190.189324 
L 139.388003 252.0992 
L 138.27251 251.629902 
" clip-path="url(#p0a0b05f6a1)"/>
    <path d="M 128.620334 246.997359 
L 160.03602 187.631696 
L 155.443167 187.255004 
L 163.118064 183.101288 
L 164.00038 191.783391 
L 161.105672 188.197745 
L 129.689986 247.563407 
L 128.620334 246.997359 
" clip-path="url(#p0a0b05f6a1)"/>
    <path d="M 119.415354 241.529883 
L 155.954848 185.17305 
L 151.41326 184.391916 
L 159.425229 180.932762 
L 159.536767 189.65887 
L 156.970287 185.83142 
L 120.430792 242.188252 
L 119.415354 241.529883 
" clip-path="url(#p0a0b05f6a1)"/>
    <path d="M 110.72961 235.270265 
L 152.106942 182.363331 
L 147.652162 181.183867 
L 155.9385 178.446349 
L 155.278387 187.148167 
L 153.06022 183.108869 
L 111.682888 236.015803 
L 110.72961 235.270265 
" clip-path="url(#p0a0b05f6a1)"/>
    <path d="M 102.631081 228.267495 
L 148.522416 179.224529 
L 144.18931 177.655966 
L 152.685164 175.661507 
L 151.258567 184.270933 
L 149.406073 180.0514 
L 103.514738 229.094366 
L 102.631081 228.267495 
" clip-path="url(#p0a0b05f6a1)"/>
    <path d="M 95.183148 220.57638 
L 145.229325 175.781208 
L 141.051805 173.835823 
L 149.690683 172.600034 
L 147.508767 181.049687 
L 146.036445 176.682941 
L 95.990269 221.478113 
L 95.183148 220.57638 
" clip-path="url(#p0a0b05f6a1)"/>
    <path d="M 88.444102 212.257112 
L 142.253442 172.060318 
L 138.264202 169.753336 
L 146.978494 169.285888 
L 144.058335 177.509637 
L 142.977708 173.029856 
L 89.168369 213.22665 
L 88.444102 212.257112 
" clip-path="url(#p0a0b05f6a1)"/>
    <path d="M 82.466685 203.374802 
L 139.618056 168.09098 
L 135.848318 165.440456 
L 144.569823 165.745007 
L 140.934275 173.678492 
L 140.2538 169.120734 
L 83.10243 204.404556 
L 82.466685 203.374802 
" clip-path="url(#p0a0b05f6a1)"/>
    <path d="M 77.297679 193.998964 
L 137.343793 163.904259 
L 133.823061 160.930937 
L 142.483521 162.005103 
L 138.161037 169.586233 
L 137.88604 164.98617 
L 77.839926 195.080876 
L 77.297679 193.998964 
" clip-path="url(#p0a0b05f6a1)"/>
    <path d="M 72.977536 184.202979 
L 135.448453 159.532921 
L 132.204281 156.260072 
L 140.735916 158.095447 
L 135.760325 165.264889 
L 135.892959 160.658523 
L 73.422042 185.328581 
L 72.977536 184.202979 
" clip-path="url(#p0a0b05f6a1)"/>
    <path d="M 69.54007 174.063512 
L 133.946869 155.011179 
L 131.004647 151.464417 
L 139.340685 154.046637 
L 133.750929 160.74828 
L 134.290155 156.171662 
L 69.883355 175.223995 
L 69.54007 174.063512 
" clip-path="url(#p0a0b05f6a1)"/>
    <path d="M 67.012182 163.65992 
L 132.850794 150.374421 
L 130.233547 146.581504 
L 138.308749 149.890359 
L 132.148574 156.071755 
L 133.090172 151.560703 
L 67.25156 164.846201 
L 67.012182 163.65992 
" clip-path="url(#p0a0b05f6a1)"/>
    <path d="M 65.413657 153.073623 
L 132.168804 145.658937 
L 129.897018 141.64955 
L 137.648182 145.659144 
L 130.965802 151.271913 
L 132.302402 146.861732 
L 65.547255 154.276419 
L 65.413657 153.073623 
" clip-path="url(#p0a0b05f6a1)"/>
    <path d="M 64.757005 142.387475 
L 131.906238 140.90163 
L 129.997692 136.707152 
L 137.364156 141.386104 
L 130.211868 146.386321 
L 131.93301 142.111526 
L 64.783777 143.597371 
L 64.757005 142.387475 
" clip-path="url(#p0a0b05f6a1)"/>
    <path d="M 65.047366 131.685109 
L 132.065151 136.139734 
L 130.534782 131.792992 
L 137.458894 137.104684 
L 129.892673 141.453214 
L 131.984887 137.347262 
L 64.967102 132.892636 
L 65.047366 131.685109 
" clip-path="url(#p0a0b05f6a1)"/>
    <path d="M 66.282466 121.050285 
L 132.644299 131.410517 
L 131.504084 126.945531 
L 137.931652 132.848391 
L 130.010717 136.5112 
L 132.457628 132.606226 
L 66.095795 122.245993 
L 66.282466 121.050285 
" clip-path="url(#p0a0b05f6a1)"/>
    <path d="M 68.452641 110.566235 
L 133.639149 126.750992 
L 132.898012 122.202705 
L 138.778733 128.650535 
L 130.565074 131.598959 
L 133.347532 127.925524 
L 68.161023 111.740766 
L 68.452641 110.566235 
" clip-path="url(#p0a0b05f6a1)"/>
    <path d="M 71.540904 100.315011 
L 135.041915 122.197625 
L 134.705656 117.601635 
L 139.993505 124.543972 
L 131.551406 126.754934 
L 134.647634 123.341787 
L 71.146623 101.459173 
L 71.540904 100.315011 
" clip-path="url(#p0a0b05f6a1)"/>
    <path d="M 75.523087 90.376843 
L 136.84162 117.786053 
L 136.912871 113.178329 
L 141.566463 120.56084 
L 132.961994 122.017036 
L 136.34776 118.890891 
L 75.029227 91.481682 
L 75.523087 90.376843 
" clip-path="url(#p0a0b05f6a1)"/>
    <path d="M 80.368023 80.829511 
L 139.024177 113.550802 
L 139.50238 108.967406 
L 143.485295 116.732313 
L 134.785798 117.422347 
L 138.434604 114.607669 
L 79.77845 81.886379 
L 80.368023 80.829511 
" clip-path="url(#p0a0b05f6a1)"/>
    <path d="M 86.037794 71.747735 
L 141.572505 109.525019 
L 142.453918 105.001822 
L 145.734983 113.088354 
L 137.008544 113.006825 
L 140.891833 110.525644 
L 85.357122 72.748361 
L 86.037794 71.747735 
" clip-path="url(#p0a0b05f6a1)"/>
    <path d="M 92.488027 63.202593 
L 144.46666 105.740211 
L 145.744384 101.312614 
L 148.297922 109.657483 
L 139.612836 108.805029 
L 143.700216 106.676763 
L 91.721583 64.139145 
L 92.488027 63.202593 
" clip-path="url(#p0a0b05f6a1)"/>
    <path d="M 99.668239 55.260962 
L 147.683992 102.225999 
L 149.348028 97.928654 
L 151.154052 106.46655 
L 142.578292 104.849843 
L 146.837775 103.091148 
L 98.822022 56.126111 
L 99.668239 55.260962 
" clip-path="url(#p0a0b05f6a1)"/>
    <path d="M 107.522236 47.984996 
L 151.199319 99.009888 
L 153.236644 94.876426 
L 154.281021 103.540528 
L 145.881704 101.172222 
L 150.279952 99.796862 
L 106.602869 48.77197 
L 107.522236 47.984996 
" clip-path="url(#p0a0b05f6a1)"/>
    <path d="M 115.98855 41.431638 
L 154.985132 96.117046 
L 157.379799 92.179818 
L 157.654355 100.902319 
L 149.497218 97.800947 
L 153.999809 96.819687 
L 115.003227 42.13428 
L 115.98855 41.431638 
" clip-path="url(#p0a0b05f6a1)"/>
    <path d="M 125.00092 35.652179 
L 159.011799 93.570115 
L 161.745068 89.859936 
L 161.247655 98.572569 
L 153.396537 94.762405 
L 157.968232 94.182924 
L 123.957353 36.264988 
L 125.00092 35.652179 
" clip-path="url(#p0a0b05f6a1)"/>
    <path d="M 134.488812 30.691851 
L 163.247807 91.389029 
L 166.298287 87.934934 
L 165.032796 96.569511 
L 157.549144 92.080375 
L 162.154164 91.907209 
L 133.395169 31.210031 
L 134.488812 30.691851 
" clip-path="url(#p0a0b05f6a1)"/>
    <path d="M 144.37797 26.589473 
L 167.660004 89.590856 
L 171.00382 86.419879 
L 168.980156 94.908824 
L 161.922539 89.775848 
L 166.524844 90.010352 
L 143.24281 27.00897 
L 144.37797 26.589473 
" clip-path="url(#p0a0b05f6a1)"/>
    <path d="M 154.590999 23.377154 
L 172.213857 88.189669 
L 175.824839 85.326628 
L 173.058841 93.603503 
L 166.482495 87.86686 
L 171.046064 88.507198 
L 153.423206 23.694683 
L 154.590999 23.377154 
" clip-path="url(#p0a0b05f6a1)"/>
    <path d="M 165.047968 21.080034 
L 176.873728 87.196436 
L 180.723615 84.663738 
L 177.23693 92.663764 
L 171.193323 86.368352 
L 175.682441 87.409513 
L 163.856681 21.293111 
L 165.047968 21.080034 
" clip-path="url(#p0a0b05f6a1)"/>
    <path d="M 175.667036 19.716091 
L 181.603145 86.61893 
L 185.661808 84.436396 
L 181.481723 92.096963 
L 176.018156 85.292051 
L 180.397689 86.725887 
L 174.46158 19.823048 
L 175.667036 19.716091 
" clip-path="url(#p0a0b05f6a1)"/>
   </g>
   <g id="Quiver_2">
    <path d="M 187.5456 140.315225 
L 186.6528 138.76885 
L 184.8672 138.76885 
L 183.9744 140.315225 
L 184.8672 141.8616 
L 186.6528 141.8616 
L 187.5456 140.315225 
L 186.6528 138.76885 
" clip-path="url(#p0a0b05f6a1)" style="fill: #ff0000"/>
   </g>
   <g id="line2d_1">
    <defs>
     <path id="mea646ffb87" d="M 0 1.5 
C 0.397805 1.5 0.77937 1.341951 1.06066 1.06066 
C 1.341951 0.77937 1.5 0.397805 1.5 0 
C 1.5 -0.397805 1.341951 -0.77937 1.06066 -1.06066 
C 0.77937 -1.341951 0.397805 -1.5 0 -1.5 
C -0.397805 -1.5 -0.77937 -1.341951 -1.06066 -1.06066 
C -1.341951 -0.77937 -1.5 -0.397805 -1.5 0 
C -1.5 0.397805 -1.341951 0.77937 -1.06066 1.06066 
C -0.77937 1.341951 -0.397805 1.5 0 1.5 
z
" style="stroke: #1f77b4; stroke-opacity: 0"/>
    </defs>
    <g clip-path="url(#p0a0b05f6a1)">
     <use xlink:href="#mea646ffb87" x="185.76" y="19.296" style="fill: #1f77b4; fill-opacity: 0; stroke: #1f77b4; stroke-opacity: 0"/>
     <use xlink:href="#mea646ffb87" x="196.455692" y="19.76957" style="fill: #1f77b4; fill-opacity: 0; stroke: #1f77b4; stroke-opacity: 0"/>
     <use xlink:href="#mea646ffb87" x="207.067675" y="21.186573" style="fill: #1f77b4; fill-opacity: 0; stroke: #1f77b4; stroke-opacity: 0"/>
     <use xlink:href="#mea646ffb87" x="217.512897" y="23.535919" style="fill: #1f77b4; fill-opacity: 0; stroke: #1f77b4; stroke-opacity: 0"/>
     <use xlink:href="#mea646ffb87" x="227.70961" y="26.799221" style="fill: #1f77b4; fill-opacity: 0; stroke: #1f77b4; stroke-opacity: 0"/>
     <use xlink:href="#mea646ffb87" x="237.57801" y="30.950941" style="fill: #1f77b4; fill-opacity: 0; stroke: #1f77b4; stroke-opacity: 0"/>
     <use xlink:href="#mea646ffb87" x="247.040864" y="35.958584" style="fill: #1f77b4; fill-opacity: 0; stroke: #1f77b4; stroke-opacity: 0"/>
     <use xlink:href="#mea646ffb87" x="256.024112" y="41.782959" style="fill: #1f77b4; fill-opacity: 0; stroke: #1f77b4; stroke-opacity: 0"/>
     <use xlink:href="#mea646ffb87" x="264.457448" y="48.378483" style="fill: #1f77b4; fill-opacity: 0; stroke: #1f77b4; stroke-opacity: 0"/>
     <use xlink:href="#mea646ffb87" x="272.274869" y="55.693536" style="fill: #1f77b4; fill-opacity: 0; stroke: #1f77b4; stroke-opacity: 0"/>
     <use xlink:href="#mea646ffb87" x="279.415195" y="63.670869" style="fill: #1f77b4; fill-opacity: 0; stroke: #1f77b4; stroke-opacity: 0"/>
     <use xlink:href="#mea646ffb87" x="285.822542" y="72.248048" style="fill: #1f77b4; fill-opacity: 0; stroke: #1f77b4; stroke-opacity: 0"/>
     <use xlink:href="#mea646ffb87" x="291.446764" y="81.357945" style="fill: #1f77b4; fill-opacity: 0; stroke: #1f77b4; stroke-opacity: 0"/>
     <use xlink:href="#mea646ffb87" x="296.243843" y="90.929263" style="fill: #1f77b4; fill-opacity: 0; stroke: #1f77b4; stroke-opacity: 0"/>
     <use xlink:href="#mea646ffb87" x="300.176237" y="100.887092" style="fill: #1f77b4; fill-opacity: 0; stroke: #1f77b4; stroke-opacity: 0"/>
     <use xlink:href="#mea646ffb87" x="303.213168" y="111.153501" style="fill: #1f77b4; fill-opacity: 0; stroke: #1f77b4; stroke-opacity: 0"/>
     <use xlink:href="#mea646ffb87" x="305.330869" y="121.648139" style="fill: #1f77b4; fill-opacity: 0; stroke: #1f77b4; stroke-opacity: 0"/>
     <use xlink:href="#mea646ffb87" x="306.512766" y="132.288872" style="fill: #1f77b4; fill-opacity: 0; stroke: #1f77b4; stroke-opacity: 0"/>
     <use xlink:href="#mea646ffb87" x="306.749609" y="142.992423" style="fill: #1f77b4; fill-opacity: 0; stroke: #1f77b4; stroke-opacity: 0"/>
     <use xlink:href="#mea646ffb87" x="306.039544" y="153.675021" style="fill: #1f77b4; fill-opacity: 0; stroke: #1f77b4; stroke-opacity: 0"/>
     <use xlink:href="#mea646ffb87" x="304.388129" y="164.25306" style="fill: #1f77b4; fill-opacity: 0; stroke: #1f77b4; stroke-opacity: 0"/>
     <use xlink:href="#mea646ffb87" x="301.808287" y="174.643754" style="fill: #1f77b4; fill-opacity: 0; stroke: #1f77b4; stroke-opacity: 0"/>
     <use xlink:href="#mea646ffb87" x="298.320211" y="184.76578" style="fill: #1f77b4; fill-opacity: 0; stroke: #1f77b4; stroke-opacity: 0"/>
     <use xlink:href="#mea646ffb87" x="293.951198" y="194.53992" style="fill: #1f77b4; fill-opacity: 0; stroke: #1f77b4; stroke-opacity: 0"/>
     <use xlink:href="#mea646ffb87" x="288.735442" y="203.889679" style="fill: #1f77b4; fill-opacity: 0; stroke: #1f77b4; stroke-opacity: 0"/>
     <use xlink:href="#mea646ffb87" x="282.713764" y="212.741881" style="fill: #1f77b4; fill-opacity: 0; stroke: #1f77b4; stroke-opacity: 0"/>
     <use xlink:href="#mea646ffb87" x="275.933292" y="221.027246" style="fill: #1f77b4; fill-opacity: 0; stroke: #1f77b4; stroke-opacity: 0"/>
     <use xlink:href="#mea646ffb87" x="268.447091" y="228.680931" style="fill: #1f77b4; fill-opacity: 0; stroke: #1f77b4; stroke-opacity: 0"/>
     <use xlink:href="#mea646ffb87" x="260.313751" y="235.643034" style="fill: #1f77b4; fill-opacity: 0; stroke: #1f77b4; stroke-opacity: 0"/>
     <use xlink:href="#mea646ffb87" x="251.596927" y="241.859067" style="fill: #1f77b4; fill-opacity: 0; stroke: #1f77b4; stroke-opacity: 0"/>
     <use xlink:href="#mea646ffb87" x="242.36484" y="247.280383" style="fill: #1f77b4; fill-opacity: 0; stroke: #1f77b4; stroke-opacity: 0"/>
     <use xlink:href="#mea646ffb87" x="232.689743" y="251.864551" style="fill: #1f77b4; fill-opacity: 0; stroke: #1f77b4; stroke-opacity: 0"/>
     <use xlink:href="#mea646ffb87" x="222.647358" y="255.575694" style="fill: #1f77b4; fill-opacity: 0; stroke: #1f77b4; stroke-opacity: 0"/>
     <use xlink:href="#mea646ffb87" x="212.316279" y="258.384768" style="fill: #1f77b4; fill-opacity: 0; stroke: #1f77b4; stroke-opacity: 0"/>
     <use xlink:href="#mea646ffb87" x="201.777361" y="260.269788" style="fill: #1f77b4; fill-opacity: 0; stroke: #1f77b4; stroke-opacity: 0"/>
     <use xlink:href="#mea646ffb87" x="191.113085" y="261.216" style="fill: #1f77b4; fill-opacity: 0; stroke: #1f77b4; stroke-opacity: 0"/>
     <use xlink:href="#mea646ffb87" x="180.406915" y="261.216" style="fill: #1f77b4; fill-opacity: 0; stroke: #1f77b4; stroke-opacity: 0"/>
     <use xlink:href="#mea646ffb87" x="169.742639" y="260.269788" style="fill: #1f77b4; fill-opacity: 0; stroke: #1f77b4; stroke-opacity: 0"/>
     <use xlink:href="#mea646ffb87" x="159.203721" y="258.384768" style="fill: #1f77b4; fill-opacity: 0; stroke: #1f77b4; stroke-opacity: 0"/>
     <use xlink:href="#mea646ffb87" x="148.872642" y="255.575694" style="fill: #1f77b4; fill-opacity: 0; stroke: #1f77b4; stroke-opacity: 0"/>
     <use xlink:href="#mea646ffb87" x="138.830257" y="251.864551" style="fill: #1f77b4; fill-opacity: 0; stroke: #1f77b4; stroke-opacity: 0"/>
     <use xlink:href="#mea646ffb87" x="129.15516" y="247.280383" style="fill: #1f77b4; fill-opacity: 0; stroke: #1f77b4; stroke-opacity: 0"/>
     <use xlink:href="#mea646ffb87" x="119.923073" y="241.859067" style="fill: #1f77b4; fill-opacity: 0; stroke: #1f77b4; stroke-opacity: 0"/>
     <use xlink:href="#mea646ffb87" x="111.206249" y="235.643034" style="fill: #1f77b4; fill-opacity: 0; stroke: #1f77b4; stroke-opacity: 0"/>
     <use xlink:href="#mea646ffb87" x="103.072909" y="228.680931" style="fill: #1f77b4; fill-opacity: 0; stroke: #1f77b4; stroke-opacity: 0"/>
     <use xlink:href="#mea646ffb87" x="95.586708" y="221.027246" style="fill: #1f77b4; fill-opacity: 0; stroke: #1f77b4; stroke-opacity: 0"/>
     <use xlink:href="#mea646ffb87" x="88.806236" y="212.741881" style="fill: #1f77b4; fill-opacity: 0; stroke: #1f77b4; stroke-opacity: 0"/>
     <use xlink:href="#mea646ffb87" x="82.784558" y="203.889679" style="fill: #1f77b4; fill-opacity: 0; stroke: #1f77b4; stroke-opacity: 0"/>
     <use xlink:href="#mea646ffb87" x="77.568802" y="194.53992" style="fill: #1f77b4; fill-opacity: 0; stroke: #1f77b4; stroke-opacity: 0"/>
     <use xlink:href="#mea646ffb87" x="73.199789" y="184.76578" style="fill: #1f77b4; fill-opacity: 0; stroke: #1f77b4; stroke-opacity: 0"/>
     <use xlink:href="#mea646ffb87" x="69.711713" y="174.643754" style="fill: #1f77b4; fill-opacity: 0; stroke: #1f77b4; stroke-opacity: 0"/>
     <use xlink:href="#mea646ffb87" x="67.131871" y="164.25306" style="fill: #1f77b4; fill-opacity: 0; stroke: #1f77b4; stroke-opacity: 0"/>
     <use xlink:href="#mea646ffb87" x="65.480456" y="153.675021" style="fill: #1f77b4; fill-opacity: 0; stroke: #1f77b4; stroke-opacity: 0"/>
     <use xlink:href="#mea646ffb87" x="64.770391" y="142.992423" style="fill: #1f77b4; fill-opacity: 0; stroke: #1f77b4; stroke-opacity: 0"/>
     <use xlink:href="#mea646ffb87" x="65.007234" y="132.288872" style="fill: #1f77b4; fill-opacity: 0; stroke: #1f77b4; stroke-opacity: 0"/>
     <use xlink:href="#mea646ffb87" x="66.189131" y="121.648139" style="fill: #1f77b4; fill-opacity: 0; stroke: #1f77b4; stroke-opacity: 0"/>
     <use xlink:href="#mea646ffb87" x="68.306832" y="111.153501" style="fill: #1f77b4; fill-opacity: 0; stroke: #1f77b4; stroke-opacity: 0"/>
     <use xlink:href="#mea646ffb87" x="71.343763" y="100.887092" style="fill: #1f77b4; fill-opacity: 0; stroke: #1f77b4; stroke-opacity: 0"/>
     <use xlink:href="#mea646ffb87" x="75.276157" y="90.929263" style="fill: #1f77b4; fill-opacity: 0; stroke: #1f77b4; stroke-opacity: 0"/>
     <use xlink:href="#mea646ffb87" x="80.073236" y="81.357945" style="fill: #1f77b4; fill-opacity: 0; stroke: #1f77b4; stroke-opacity: 0"/>
     <use xlink:href="#mea646ffb87" x="85.697458" y="72.248048" style="fill: #1f77b4; fill-opacity: 0; stroke: #1f77b4; stroke-opacity: 0"/>
     <use xlink:href="#mea646ffb87" x="92.104805" y="63.670869" style="fill: #1f77b4; fill-opacity: 0; stroke: #1f77b4; stroke-opacity: 0"/>
     <use xlink:href="#mea646ffb87" x="99.245131" y="55.693536" style="fill: #1f77b4; fill-opacity: 0; stroke: #1f77b4; stroke-opacity: 0"/>
     <use xlink:href="#mea646ffb87" x="107.062552" y="48.378483" style="fill: #1f77b4; fill-opacity: 0; stroke: #1f77b4; stroke-opacity: 0"/>
     <use xlink:href="#mea646ffb87" x="115.495888" y="41.782959" style="fill: #1f77b4; fill-opacity: 0; stroke: #1f77b4; stroke-opacity: 0"/>
     <use xlink:href="#mea646ffb87" x="124.479136" y="35.958584" style="fill: #1f77b4; fill-opacity: 0; stroke: #1f77b4; stroke-opacity: 0"/>
     <use xlink:href="#mea646ffb87" x="133.94199" y="30.950941" style="fill: #1f77b4; fill-opacity: 0; stroke: #1f77b4; stroke-opacity: 0"/>
     <use xlink:href="#mea646ffb87" x="143.81039" y="26.799221" style="fill: #1f77b4; fill-opacity: 0; stroke: #1f77b4; stroke-opacity: 0"/>
     <use xlink:href="#mea646ffb87" x="154.007103" y="23.535919" style="fill: #1f77b4; fill-opacity: 0; stroke: #1f77b4; stroke-opacity: 0"/>
     <use xlink:href="#mea646ffb87" x="164.452325" y="21.186573" style="fill: #1f77b4; fill-opacity: 0; stroke: #1f77b4; stroke-opacity: 0"/>
     <use xlink:href="#mea646ffb87" x="175.064308" y="19.76957" style="fill: #1f77b4; fill-opacity: 0; stroke: #1f77b4; stroke-opacity: 0"/>
    </g>
   </g>
  </g>
 </g>
 <defs>
  <clipPath id="p0a0b05f6a1">
   <rect x="7.2" y="7.2" width="357.12" height="266.112"/>
  </clipPath>
 </defs>
</svg>
