<?xml version="1.0" encoding="utf-8" standalone="no"?>
<!DOCTYPE svg PUBLIC "-//W3C//DTD SVG 1.1//EN"
  "http://www.w3.org/Graphics/SVG/1.1/DTD/svg11.dtd">
<svg xmlns:xlink="http://www.w3.org/1999/xlink" width="460.8pt" height="345.6pt" viewBox="0 0 460.8 345.6" xmlns="http://www.w3.org/2000/svg" version="1.1">
 <metadata>
  <rdf:RDF xmlns:dc="http://purl.org/dc/elements/1.1/" xmlns:cc="http://creativecommons.org/ns#" xmlns:rdf="http://www.w3.org/1999/02/22-rdf-syntax-ns#">
   <cc:Work>
    <dc:type rdf:resource="http://purl.org/dc/dcmitype/StillImage"/>
    <dc:date>2024-02-27T15:40:32.044384</dc:date>
    <dc:format>image/svg+xml</dc:format>
    <dc:creator>
     <cc:Agent>
      <dc:title>Matplotlib v3.8.2, https://matplotlib.org/</dc:title>
     </cc:Agent>
    </dc:creator>
   </cc:Work>
  </rdf:RDF>
 </metadata>
 <defs>
  <style type="text/css">*{stroke-linejoin: round; stroke-linecap: butt}</style>
 </defs>
 <g id="figure_1">
  <g id="axes_1">
   <g id="Quiver_1">
    <path d="M 229.536 172.8 
L 229.536 10.368 
L 225.216 10.368 
L 230.4 0 
L 235.584 10.368 
L 231.264 10.368 
L 231.264 172.8 
L 229.536 172.8 
" clip-path="url(#pd3295eea7c)"/>
    <path d="M 229.539381 172.72364 
L 243.895138 10.927265 
L 239.592043 10.545463 
L 245.672082 0.676197 
L 249.919471 11.461788 
L 245.616376 11.079986 
L 231.260619 172.87636 
L 229.539381 172.72364 
" clip-path="url(#pd3295eea7c)"/>
    <path d="M 229.549497 172.647877 
L 258.148659 12.753403 
L 253.896146 11.992787 
L 260.824639 2.699496 
L 264.102176 13.818266 
L 259.849664 13.05765 
L 231.250503 172.952123 
L 229.549497 172.647877 
" clip-path="url(#pd3295eea7c)"/>
    <path d="M 229.56627 172.573305 
L 272.185008 15.832124 
L 268.01636 14.698647 
L 275.739083 6.054063 
L 278.021116 17.418991 
L 273.852467 16.285514 
L 231.23373 173.026695 
L 229.56627 172.573305 
" clip-path="url(#pd3295eea7c)"/>
    <path d="M 229.589568 172.500507 
L 285.894333 20.13933 
L 281.842174 18.641863 
L 290.298686 10.713642 
L 291.567356 22.235784 
L 287.515197 20.738317 
L 231.210432 173.099493 
L 229.589568 172.500507 
" clip-path="url(#pd3295eea7c)"/>
    <path d="M 229.619209 172.430052 
L 299.16934 25.641314 
L 295.265384 23.791576 
L 304.389501 16.641767 
L 304.634878 28.230946 
L 300.730922 26.381209 
L 231.180791 173.169948 
L 229.619209 172.430052 
" clip-path="url(#pd3295eea7c)"/>
    <path d="M 229.65496 172.362494 
L 311.906133 32.295013 
L 308.180934 30.107482 
L 317.901248 23.792042 
L 317.121412 35.357557 
L 313.396213 33.170026 
L 231.14504 173.237506 
L 229.65496 172.362494 
" clip-path="url(#pd3295eea7c)"/>
    <path d="M 229.696543 172.298359 
L 324.005031 40.048355 
L 320.487743 37.54015 
L 330.728179 32.108506 
L 328.929233 43.559841 
L 325.411946 41.051637 
L 231.103457 173.301641 
L 229.696543 172.298359 
" clip-path="url(#pd3295eea7c)"/>
    <path d="M 229.74363 172.23815 
L 335.371342 48.840658 
L 332.089494 46.03141 
L 342.769906 41.526072 
L 339.965929 52.773605 
L 336.684081 49.964357 
L 231.05637 173.36185 
L 229.74363 172.23815 
" clip-path="url(#pd3295eea7c)"/>
    <path d="M 229.795855 172.182339 
L 345.91611 58.603111 
L 342.895386 55.514806 
L 353.932186 51.971034 
L 350.145124 62.926738 
L 347.1244 59.838433 
L 231.004145 173.417661 
L 229.795855 172.182339 
" clip-path="url(#pd3295eea7c)"/>
    <path d="M 229.852808 172.131362 
L 355.556808 69.25931 
L 352.820849 65.916118 
L 364.127659 63.361647 
L 359.38715 73.939778 
L 356.651191 70.596586 
L 230.947192 173.468638 
L 229.852808 172.131362 
" clip-path="url(#pd3295eea7c)"/>
    <path d="M 229.914044 172.085617 
L 364.217984 80.725855 
L 361.788203 77.153941 
L 373.276532 75.608763 
L 367.619677 85.726533 
L 365.189897 82.15462 
L 230.885956 173.514383 
L 229.914044 172.085617 
" clip-path="url(#pd3295eea7c)"/>
    <path d="M 229.979083 172.045464 
L 371.831853 92.913005 
L 369.727266 89.140325 
L 381.307203 88.616533 
L 374.778275 98.194757 
L 372.673688 94.422077 
L 230.820917 173.554536 
L 229.979083 172.045464 
" clip-path="url(#pd3295eea7c)"/>
    <path d="M 230.047416 172.011216 
L 378.338826 105.725379 
L 376.575905 101.781458 
L 388.15682 102.283152 
L 380.806916 111.246867 
L 379.043995 107.302947 
L 230.752584 173.588784 
L 230.047416 172.011216 
" clip-path="url(#pd3295eea7c)"/>
    <path d="M 230.118508 171.983141 
L 383.687977 119.062702 
L 382.280519 114.978408 
L 393.771775 116.501661 
L 385.658419 124.780715 
L 384.250961 120.69642 
L 230.681492 173.616859 
L 230.118508 171.983141 
" clip-path="url(#pd3295eea7c)"/>
    <path d="M 230.191804 171.961459 
L 387.837442 132.820594 
L 386.796462 128.62789 
L 398.108126 131.160781 
L 389.294815 138.690378 
L 388.253834 134.497675 
L 230.608196 173.638541 
L 230.191804 171.961459 
" clip-path="url(#pd3295eea7c)"/>
    <path d="M 230.266729 171.94634 
L 390.754746 146.891378 
L 390.08839 142.623079 
L 401.131933 146.145784 
L 391.687643 152.866995 
L 391.021288 148.598697 
L 230.533271 173.65366 
L 230.266729 171.94634 
" clip-path="url(#pd3295eea7c)"/>
    <path d="M 230.342697 171.937902 
L 392.417056 161.164932 
L 392.13054 156.854444 
L 402.81953 161.339393 
L 392.818177 167.199615 
L 392.531662 162.889127 
L 230.457303 173.662098 
L 230.342697 171.937902 
" clip-path="url(#pd3295eea7c)"/>
    <path d="M 230.419113 171.936211 
L 392.811363 175.529546 
L 392.90693 171.210604 
L 403.157712 176.622697 
L 392.677568 181.576066 
L 392.773136 177.257123 
L 230.380887 173.663789 
L 230.419113 171.936211 
" clip-path="url(#pd3295eea7c)"/>
    <path d="M 230.49538 171.941281 
L 391.93458 189.872798 
L 392.411482 185.579203 
L 402.14383 191.876082 
L 391.266918 195.883832 
L 391.74382 191.590237 
L 230.30462 173.658719 
L 230.49538 171.941281 
" clip-path="url(#pd3295eea7c)"/>
    <path d="M 230.570901 171.953071 
L 389.793571 204.082433 
L 390.648075 199.847787 
L 399.785819 206.980172 
L 388.597265 210.010936 
L 389.451769 205.776291 
L 230.229099 173.646929 
L 230.570901 171.953071 
" clip-path="url(#pd3295eea7c)"/>
    <path d="M 230.645084 171.971489 
L 386.405091 218.047239 
L 387.63051 213.904686 
L 396.102135 221.816755 
L 384.689505 223.846814 
L 385.914924 219.704261 
L 230.154916 173.628511 
L 230.645084 171.971489 
" clip-path="url(#pd3295eea7c)"/>
    <path d="M 230.717349 171.996392 
L 381.79566 231.657925 
L 383.382403 227.639885 
L 391.121608 236.269716 
L 379.57422 237.283181 
L 381.160963 233.265141 
L 230.082651 173.603608 
L 230.717349 171.996392 
" clip-path="url(#pd3295eea7c)"/>
    <path d="M 230.78713 172.027584 
L 376.001352 244.807968 
L 377.937 240.945887 
L 384.883215 250.22594 
L 373.291444 250.21488 
L 375.227093 246.3528 
L 230.01287 173.572416 
L 230.78713 172.027584 
" clip-path="url(#pd3295eea7c)"/>
    <path d="M 230.853881 172.064821 
L 369.067516 257.394451 
L 371.336921 253.718556 
L 377.435782 263.576202 
L 365.890349 262.540703 
L 368.159754 258.864808 
L 229.946119 173.535179 
L 230.853881 172.064821 
" clip-path="url(#pd3295eea7c)"/>
    <path d="M 230.91708 172.107812 
L 361.048419 269.318867 
L 363.63382 265.857927 
L 368.837595 276.216016 
L 357.428859 274.164183 
L 360.014259 270.703243 
L 229.88292 173.492188 
L 230.91708 172.107812 
" clip-path="url(#pd3295eea7c)"/>
    <path d="M 230.976232 172.15622 
L 352.006821 280.487892 
L 354.887983 277.268994 
L 359.155946 288.04646 
L 347.973195 284.994351 
L 350.854357 281.775452 
L 229.823768 173.44378 
L 230.976232 172.15622 
" clip-path="url(#pd3295eea7c)"/>
    <path d="M 231.030875 172.209667 
L 342.013485 290.814114 
L 345.167858 287.862449 
L 348.466606 298.974944 
L 337.597362 294.946445 
L 340.751735 291.99478 
L 229.769125 173.390333 
L 231.030875 172.209667 
" clip-path="url(#pd3295eea7c)"/>
    <path d="M 231.08058 172.267734 
L 331.146622 300.216715 
L 334.54952 297.555384 
L 336.853236 308.915938 
L 326.382564 303.942579 
L 329.785462 301.281248 
L 229.71942 173.332266 
L 231.08058 172.267734 
" clip-path="url(#pd3295eea7c)"/>
    <path d="M 231.124958 172.329966 
L 319.49128 308.622108 
L 323.116071 306.27194 
L 324.406725 317.79164 
L 314.416572 311.912343 
L 318.041363 309.562175 
L 229.675042 173.270034 
L 231.124958 172.329966 
" clip-path="url(#pd3295eea7c)"/>
    <path d="M 231.163663 172.395878 
L 307.138677 315.964509 
L 310.956992 313.943896 
L 311.224483 325.532586 
L 301.793037 318.793365 
L 305.611352 316.772753 
L 229.636337 173.204122 
L 231.163663 172.395878 
" clip-path="url(#pd3295eea7c)"/>
    <path d="M 231.196391 172.464952 
L 294.185491 322.186453 
L 298.167446 320.511211 
L 297.409681 332.078193 
L 288.610754 324.531792 
L 292.592709 322.85655 
L 229.603609 173.135048 
L 231.196391 172.464952 
" clip-path="url(#pd3295eea7c)"/>
    <path d="M 231.222886 172.536648 
L 280.733097 327.239245 
L 284.847528 325.922484 
L 283.070437 337.377231 
L 274.972894 329.082711 
L 279.087324 327.76595 
L 229.577114 173.063352 
L 231.222886 172.536648 
" clip-path="url(#pd3295eea7c)"/>
    <path d="M 231.242941 172.610405 
L 266.886778 331.083341 
L 271.101484 330.135367 
L 268.318975 341.38823 
L 260.98619 332.410506 
L 265.200895 331.462531 
L 229.557059 172.989595 
L 231.242941 172.610405 
" clip-path="url(#pd3295eea7c)"/>
    <path d="M 231.256399 172.685646 
L 252.7549 333.688656 
L 257.036895 333.116887 
L 253.270746 344.079797 
L 246.760107 334.489132 
L 251.042102 333.917363 
L 229.543601 172.914354 
L 231.256399 172.685646 
" clip-path="url(#pd3295eea7c)"/>
    <path d="M 231.263154 172.761782 
L 238.448065 335.034798 
L 242.763837 334.84371 
L 238.043522 345.430868 
L 232.405985 335.302322 
L 236.721757 335.111233 
L 229.536846 172.838218 
L 231.263154 172.761782 
" clip-path="url(#pd3295eea7c)"/>
    <path d="M 231.263154 172.838218 
L 224.078243 335.111233 
L 228.394015 335.302322 
L 222.756478 345.430868 
L 218.036163 334.84371 
L 222.351935 335.034798 
L 229.536846 172.761782 
L 231.263154 172.838218 
" clip-path="url(#pd3295eea7c)"/>
    <path d="M 231.256399 172.914354 
L 209.757898 333.917363 
L 214.039893 334.489132 
L 207.529254 344.079797 
L 203.763105 333.116887 
L 208.0451 333.688656 
L 229.543601 172.685646 
L 231.256399 172.914354 
" clip-path="url(#pd3295eea7c)"/>
    <path d="M 231.242941 172.989595 
L 195.599105 331.462531 
L 199.81381 332.410506 
L 192.481025 341.38823 
L 189.698516 330.135367 
L 193.913222 331.083341 
L 229.557059 172.610405 
L 231.242941 172.989595 
" clip-path="url(#pd3295eea7c)"/>
    <path d="M 231.222886 173.063352 
L 181.712676 327.76595 
L 185.827106 329.082711 
L 177.729563 337.377231 
L 175.952472 325.922484 
L 180.066903 327.239245 
L 229.577114 172.536648 
L 231.222886 173.063352 
" clip-path="url(#pd3295eea7c)"/>
    <path d="M 231.196391 173.135048 
L 168.207291 322.85655 
L 172.189246 324.531792 
L 163.390319 332.078193 
L 162.632554 320.511211 
L 166.614509 322.186453 
L 229.603609 172.464952 
L 231.196391 173.135048 
" clip-path="url(#pd3295eea7c)"/>
    <path d="M 231.163663 173.204122 
L 155.188648 316.772753 
L 159.006963 318.793365 
L 149.575517 325.532586 
L 149.843008 313.943896 
L 153.661323 315.964509 
L 229.636337 172.395878 
L 231.163663 173.204122 
" clip-path="url(#pd3295eea7c)"/>
    <path d="M 231.124958 173.270034 
L 142.758637 309.562175 
L 146.383428 311.912343 
L 136.393275 317.79164 
L 137.683929 306.27194 
L 141.30872 308.622108 
L 229.675042 172.329966 
L 231.124958 173.270034 
" clip-path="url(#pd3295eea7c)"/>
    <path d="M 231.08058 173.332266 
L 131.014538 301.281248 
L 134.417436 303.942579 
L 123.946764 308.915938 
L 126.25048 297.555384 
L 129.653378 300.216715 
L 229.71942 172.267734 
L 231.08058 173.332266 
" clip-path="url(#pd3295eea7c)"/>
    <path d="M 231.030875 173.390333 
L 120.048265 291.99478 
L 123.202638 294.946445 
L 112.333394 298.974944 
L 115.632142 287.862449 
L 118.786515 290.814114 
L 229.769125 172.209667 
L 231.030875 173.390333 
" clip-path="url(#pd3295eea7c)"/>
    <path d="M 230.976232 173.44378 
L 109.945643 281.775452 
L 112.826805 284.994351 
L 101.644054 288.04646 
L 105.912017 277.268994 
L 108.793179 280.487892 
L 229.823768 172.15622 
L 230.976232 173.44378 
" clip-path="url(#pd3295eea7c)"/>
    <path d="M 230.91708 173.492188 
L 100.785741 270.703243 
L 103.371141 274.164183 
L 91.962405 276.216016 
L 97.16618 265.857927 
L 99.751581 269.318867 
L 229.88292 172.107812 
L 230.91708 173.492188 
" clip-path="url(#pd3295eea7c)"/>
    <path d="M 230.853881 173.535179 
L 92.640246 258.864808 
L 94.909651 262.540703 
L 83.364218 263.576202 
L 89.463079 253.718556 
L 91.732484 257.394451 
L 229.946119 172.064821 
L 230.853881 173.535179 
" clip-path="url(#pd3295eea7c)"/>
    <path d="M 230.78713 173.572416 
L 85.572907 246.3528 
L 87.508556 250.21488 
L 75.916785 250.22594 
L 82.863 240.945887 
L 84.798648 244.807968 
L 230.01287 172.027584 
L 230.78713 173.572416 
" clip-path="url(#pd3295eea7c)"/>
    <path d="M 230.717349 173.603608 
L 79.639037 233.265141 
L 81.22578 237.283181 
L 69.678392 236.269716 
L 77.417597 227.639885 
L 79.00434 231.657925 
L 230.082651 171.996392 
L 230.717349 173.603608 
" clip-path="url(#pd3295eea7c)"/>
    <path d="M 230.645084 173.628511 
L 74.885076 219.704261 
L 76.110495 223.846814 
L 64.697865 221.816755 
L 73.16949 213.904686 
L 74.394909 218.047239 
L 230.154916 171.971489 
L 230.645084 173.628511 
" clip-path="url(#pd3295eea7c)"/>
    <path d="M 230.570901 173.646929 
L 71.348231 205.776291 
L 72.202735 210.010936 
L 61.014181 206.980172 
L 70.151925 199.847787 
L 71.006429 204.082433 
L 230.229099 171.953071 
L 230.570901 173.646929 
" clip-path="url(#pd3295eea7c)"/>
    <path d="M 230.49538 173.658719 
L 69.05618 191.590237 
L 69.533082 195.883832 
L 58.65617 191.876082 
L 68.388518 185.579203 
L 68.86542 189.872798 
L 230.30462 171.941281 
L 230.49538 173.658719 
" clip-path="url(#pd3295eea7c)"/>
    <path d="M 230.419113 173.663789 
L 68.026864 177.257123 
L 68.122432 181.576066 
L 57.642288 176.622697 
L 67.89307 171.210604 
L 67.988637 175.529546 
L 230.380887 171.936211 
L 230.419113 173.663789 
" clip-path="url(#pd3295eea7c)"/>
    <path d="M 230.342697 173.662098 
L 68.268338 162.889127 
L 67.981823 167.199615 
L 57.98047 161.339393 
L 68.66946 156.854444 
L 68.382944 161.164932 
L 230.457303 171.937902 
L 230.342697 173.662098 
" clip-path="url(#pd3295eea7c)"/>
    <path d="M 230.266729 173.65366 
L 69.778712 148.598697 
L 69.112357 152.866995 
L 59.668067 146.145784 
L 70.71161 142.623079 
L 70.045254 146.891378 
L 230.533271 171.94634 
L 230.266729 173.65366 
" clip-path="url(#pd3295eea7c)"/>
    <path d="M 230.191804 173.638541 
L 72.546166 134.497675 
L 71.505185 138.690378 
L 62.691874 131.160781 
L 74.003538 128.62789 
L 72.962558 132.820594 
L 230.608196 171.961459 
L 230.191804 173.638541 
" clip-path="url(#pd3295eea7c)"/>
    <path d="M 230.118508 173.616859 
L 76.549039 120.69642 
L 75.141581 124.780715 
L 67.028225 116.501661 
L 78.519481 114.978408 
L 77.112023 119.062702 
L 230.681492 171.983141 
L 230.118508 173.616859 
" clip-path="url(#pd3295eea7c)"/>
    <path d="M 230.047416 173.588784 
L 81.756005 107.302947 
L 79.993084 111.246867 
L 72.64318 102.283152 
L 84.224095 101.781458 
L 82.461174 105.725379 
L 230.752584 172.011216 
L 230.047416 173.588784 
" clip-path="url(#pd3295eea7c)"/>
    <path d="M 229.979083 173.554536 
L 88.126312 94.422077 
L 86.021725 98.194757 
L 79.492797 88.616533 
L 91.072734 89.140325 
L 88.968147 92.913005 
L 230.820917 172.045464 
L 229.979083 173.554536 
" clip-path="url(#pd3295eea7c)"/>
    <path d="M 229.914044 173.514383 
L 95.610103 82.15462 
L 93.180323 85.726533 
L 87.523468 75.608763 
L 99.011797 77.153941 
L 96.582016 80.725855 
L 230.885956 172.085617 
L 229.914044 173.514383 
" clip-path="url(#pd3295eea7c)"/>
    <path d="M 229.852808 173.468638 
L 104.148809 70.596586 
L 101.41285 73.939778 
L 96.672341 63.361647 
L 107.979151 65.916118 
L 105.243192 69.25931 
L 230.947192 172.131362 
L 229.852808 173.468638 
" clip-path="url(#pd3295eea7c)"/>
    <path d="M 229.795855 173.417661 
L 113.6756 59.838433 
L 110.654876 62.926738 
L 106.867814 51.971034 
L 117.904614 55.514806 
L 114.88389 58.603111 
L 231.004145 172.182339 
L 229.795855 173.417661 
" clip-path="url(#pd3295eea7c)"/>
    <path d="M 229.74363 173.36185 
L 124.115919 49.964357 
L 120.834071 52.773605 
L 118.030094 41.526072 
L 128.710506 46.03141 
L 125.428658 48.840658 
L 231.05637 172.23815 
L 229.74363 173.36185 
" clip-path="url(#pd3295eea7c)"/>
    <path d="M 229.696543 173.301641 
L 135.388054 41.051637 
L 131.870767 43.559841 
L 130.071821 32.108506 
L 140.312257 37.54015 
L 136.794969 40.048355 
L 231.103457 172.298359 
L 229.696543 173.301641 
" clip-path="url(#pd3295eea7c)"/>
    <path d="M 229.65496 173.237506 
L 147.403787 33.170026 
L 143.678588 35.357557 
L 142.898752 23.792042 
L 152.619066 30.107482 
L 148.893867 32.295013 
L 231.14504 172.362494 
L 229.65496 173.237506 
" clip-path="url(#pd3295eea7c)"/>
    <path d="M 229.619209 173.169948 
L 160.069078 26.381209 
L 156.165122 28.230946 
L 156.410499 16.641767 
L 165.534616 23.791576 
L 161.63066 25.641314 
L 231.180791 172.430052 
L 229.619209 173.169948 
" clip-path="url(#pd3295eea7c)"/>
    <path d="M 229.589568 173.099493 
L 173.284803 20.738317 
L 169.232644 22.235784 
L 170.501314 10.713642 
L 178.957826 18.641863 
L 174.905667 20.13933 
L 231.210432 172.500507 
L 229.589568 173.099493 
" clip-path="url(#pd3295eea7c)"/>
    <path d="M 229.56627 173.026695 
L 186.947533 16.285514 
L 182.778884 17.418991 
L 185.060917 6.054063 
L 192.78364 14.698647 
L 188.614992 15.832124 
L 231.23373 172.573305 
L 229.56627 173.026695 
" clip-path="url(#pd3295eea7c)"/>
    <path d="M 229.549497 172.952123 
L 200.950336 13.05765 
L 196.697824 13.818266 
L 199.975361 2.699496 
L 206.903854 11.992787 
L 202.651341 12.753403 
L 231.250503 172.647877 
L 229.549497 172.952123 
" clip-path="url(#pd3295eea7c)"/>
    <path d="M 229.539381 172.87636 
L 215.183624 11.079986 
L 210.880529 11.461788 
L 215.127918 0.676197 
L 221.207957 10.545463 
L 216.904862 10.927265 
L 231.260619 172.72364 
L 229.539381 172.87636 
" clip-path="url(#pd3295eea7c)"/>
   </g>
   <g id="PathCollection_1">
    <defs>
     <path id="mf7b57cda3c" d="M 0 2.738613 
C 0.726289 2.738613 1.422928 2.450055 1.936492 1.936492 
C 2.450055 1.422928 2.738613 0.726289 2.738613 0 
C 2.738613 -0.726289 2.450055 -1.422928 1.936492 -1.936492 
C 1.422928 -2.450055 0.726289 -2.738613 0 -2.738613 
C -0.726289 -2.738613 -1.422928 -2.450055 -1.936492 -1.936492 
C -2.450055 -1.422928 -2.738613 -0.726289 -2.738613 0 
C -2.738613 0.726289 -2.450055 1.422928 -1.936492 1.936492 
C -1.422928 2.450055 -0.726289 2.738613 0 2.738613 
z
" style="stroke: #ff0000"/>
    </defs>
    <g clip-path="url(#pd3295eea7c)">
     <use xlink:href="#mf7b57cda3c" x="230.4" y="172.8" style="fill: #ff0000; stroke: #ff0000"/>
    </g>
   </g>
   <g id="line2d_1">
    <defs>
     <path id="mcd15b9b21f" d="M 0 1.5 
C 0.397805 1.5 0.77937 1.341951 1.06066 1.06066 
C 1.341951 0.77937 1.5 0.397805 1.5 0 
C 1.5 -0.397805 1.341951 -0.77937 1.06066 -1.06066 
C 0.77937 -1.341951 0.397805 -1.5 0 -1.5 
C -0.397805 -1.5 -0.77937 -1.341951 -1.06066 -1.06066 
C -1.341951 -0.77937 -1.5 -0.397805 -1.5 0 
C -1.5 0.397805 -1.341951 0.77937 -1.06066 1.06066 
C -0.77937 1.341951 -0.397805 1.5 0 1.5 
z
" style="stroke: #1f77b4; stroke-opacity: 0"/>
    </defs>
    <g clip-path="url(#pd3295eea7c)">
     <use xlink:href="#mcd15b9b21f" x="230.4" y="0" style="fill: #1f77b4; fill-opacity: 0; stroke: #1f77b4; stroke-opacity: 0"/>
     <use xlink:href="#mcd15b9b21f" x="245.672082" y="0.676197" style="fill: #1f77b4; fill-opacity: 0; stroke: #1f77b4; stroke-opacity: 0"/>
     <use xlink:href="#mcd15b9b21f" x="260.824639" y="2.699496" style="fill: #1f77b4; fill-opacity: 0; stroke: #1f77b4; stroke-opacity: 0"/>
     <use xlink:href="#mcd15b9b21f" x="275.739083" y="6.054063" style="fill: #1f77b4; fill-opacity: 0; stroke: #1f77b4; stroke-opacity: 0"/>
     <use xlink:href="#mcd15b9b21f" x="290.298686" y="10.713642" style="fill: #1f77b4; fill-opacity: 0; stroke: #1f77b4; stroke-opacity: 0"/>
     <use xlink:href="#mcd15b9b21f" x="304.389501" y="16.641767" style="fill: #1f77b4; fill-opacity: 0; stroke: #1f77b4; stroke-opacity: 0"/>
     <use xlink:href="#mcd15b9b21f" x="317.901248" y="23.792042" style="fill: #1f77b4; fill-opacity: 0; stroke: #1f77b4; stroke-opacity: 0"/>
     <use xlink:href="#mcd15b9b21f" x="330.728179" y="32.108506" style="fill: #1f77b4; fill-opacity: 0; stroke: #1f77b4; stroke-opacity: 0"/>
     <use xlink:href="#mcd15b9b21f" x="342.769906" y="41.526072" style="fill: #1f77b4; fill-opacity: 0; stroke: #1f77b4; stroke-opacity: 0"/>
     <use xlink:href="#mcd15b9b21f" x="353.932186" y="51.971034" style="fill: #1f77b4; fill-opacity: 0; stroke: #1f77b4; stroke-opacity: 0"/>
     <use xlink:href="#mcd15b9b21f" x="364.127659" y="63.361647" style="fill: #1f77b4; fill-opacity: 0; stroke: #1f77b4; stroke-opacity: 0"/>
     <use xlink:href="#mcd15b9b21f" x="373.276532" y="75.608763" style="fill: #1f77b4; fill-opacity: 0; stroke: #1f77b4; stroke-opacity: 0"/>
     <use xlink:href="#mcd15b9b21f" x="381.307203" y="88.616533" style="fill: #1f77b4; fill-opacity: 0; stroke: #1f77b4; stroke-opacity: 0"/>
     <use xlink:href="#mcd15b9b21f" x="388.15682" y="102.283152" style="fill: #1f77b4; fill-opacity: 0; stroke: #1f77b4; stroke-opacity: 0"/>
     <use xlink:href="#mcd15b9b21f" x="393.771775" y="116.501661" style="fill: #1f77b4; fill-opacity: 0; stroke: #1f77b4; stroke-opacity: 0"/>
     <use xlink:href="#mcd15b9b21f" x="398.108126" y="131.160781" style="fill: #1f77b4; fill-opacity: 0; stroke: #1f77b4; stroke-opacity: 0"/>
     <use xlink:href="#mcd15b9b21f" x="401.131933" y="146.145784" style="fill: #1f77b4; fill-opacity: 0; stroke: #1f77b4; stroke-opacity: 0"/>
     <use xlink:href="#mcd15b9b21f" x="402.81953" y="161.339393" style="fill: #1f77b4; fill-opacity: 0; stroke: #1f77b4; stroke-opacity: 0"/>
     <use xlink:href="#mcd15b9b21f" x="403.157712" y="176.622697" style="fill: #1f77b4; fill-opacity: 0; stroke: #1f77b4; stroke-opacity: 0"/>
     <use xlink:href="#mcd15b9b21f" x="402.14383" y="191.876082" style="fill: #1f77b4; fill-opacity: 0; stroke: #1f77b4; stroke-opacity: 0"/>
     <use xlink:href="#mcd15b9b21f" x="399.785819" y="206.980172" style="fill: #1f77b4; fill-opacity: 0; stroke: #1f77b4; stroke-opacity: 0"/>
     <use xlink:href="#mcd15b9b21f" x="396.102135" y="221.816755" style="fill: #1f77b4; fill-opacity: 0; stroke: #1f77b4; stroke-opacity: 0"/>
     <use xlink:href="#mcd15b9b21f" x="391.121608" y="236.269716" style="fill: #1f77b4; fill-opacity: 0; stroke: #1f77b4; stroke-opacity: 0"/>
     <use xlink:href="#mcd15b9b21f" x="384.883215" y="250.22594" style="fill: #1f77b4; fill-opacity: 0; stroke: #1f77b4; stroke-opacity: 0"/>
     <use xlink:href="#mcd15b9b21f" x="377.435782" y="263.576202" style="fill: #1f77b4; fill-opacity: 0; stroke: #1f77b4; stroke-opacity: 0"/>
     <use xlink:href="#mcd15b9b21f" x="368.837595" y="276.216016" style="fill: #1f77b4; fill-opacity: 0; stroke: #1f77b4; stroke-opacity: 0"/>
     <use xlink:href="#mcd15b9b21f" x="359.155946" y="288.04646" style="fill: #1f77b4; fill-opacity: 0; stroke: #1f77b4; stroke-opacity: 0"/>
     <use xlink:href="#mcd15b9b21f" x="348.466606" y="298.974944" style="fill: #1f77b4; fill-opacity: 0; stroke: #1f77b4; stroke-opacity: 0"/>
     <use xlink:href="#mcd15b9b21f" x="336.853236" y="308.915938" style="fill: #1f77b4; fill-opacity: 0; stroke: #1f77b4; stroke-opacity: 0"/>
     <use xlink:href="#mcd15b9b21f" x="324.406725" y="317.79164" style="fill: #1f77b4; fill-opacity: 0; stroke: #1f77b4; stroke-opacity: 0"/>
     <use xlink:href="#mcd15b9b21f" x="311.224483" y="325.532586" style="fill: #1f77b4; fill-opacity: 0; stroke: #1f77b4; stroke-opacity: 0"/>
     <use xlink:href="#mcd15b9b21f" x="297.409681" y="332.078193" style="fill: #1f77b4; fill-opacity: 0; stroke: #1f77b4; stroke-opacity: 0"/>
     <use xlink:href="#mcd15b9b21f" x="283.070437" y="337.377231" style="fill: #1f77b4; fill-opacity: 0; stroke: #1f77b4; stroke-opacity: 0"/>
     <use xlink:href="#mcd15b9b21f" x="268.318975" y="341.38823" style="fill: #1f77b4; fill-opacity: 0; stroke: #1f77b4; stroke-opacity: 0"/>
     <use xlink:href="#mcd15b9b21f" x="253.270746" y="344.079797" style="fill: #1f77b4; fill-opacity: 0; stroke: #1f77b4; stroke-opacity: 0"/>
     <use xlink:href="#mcd15b9b21f" x="238.043522" y="345.430868" style="fill: #1f77b4; fill-opacity: 0; stroke: #1f77b4; stroke-opacity: 0"/>
     <use xlink:href="#mcd15b9b21f" x="222.756478" y="345.430868" style="fill: #1f77b4; fill-opacity: 0; stroke: #1f77b4; stroke-opacity: 0"/>
     <use xlink:href="#mcd15b9b21f" x="207.529254" y="344.079797" style="fill: #1f77b4; fill-opacity: 0; stroke: #1f77b4; stroke-opacity: 0"/>
     <use xlink:href="#mcd15b9b21f" x="192.481025" y="341.38823" style="fill: #1f77b4; fill-opacity: 0; stroke: #1f77b4; stroke-opacity: 0"/>
     <use xlink:href="#mcd15b9b21f" x="177.729563" y="337.377231" style="fill: #1f77b4; fill-opacity: 0; stroke: #1f77b4; stroke-opacity: 0"/>
     <use xlink:href="#mcd15b9b21f" x="163.390319" y="332.078193" style="fill: #1f77b4; fill-opacity: 0; stroke: #1f77b4; stroke-opacity: 0"/>
     <use xlink:href="#mcd15b9b21f" x="149.575517" y="325.532586" style="fill: #1f77b4; fill-opacity: 0; stroke: #1f77b4; stroke-opacity: 0"/>
     <use xlink:href="#mcd15b9b21f" x="136.393275" y="317.79164" style="fill: #1f77b4; fill-opacity: 0; stroke: #1f77b4; stroke-opacity: 0"/>
     <use xlink:href="#mcd15b9b21f" x="123.946764" y="308.915938" style="fill: #1f77b4; fill-opacity: 0; stroke: #1f77b4; stroke-opacity: 0"/>
     <use xlink:href="#mcd15b9b21f" x="112.333394" y="298.974944" style="fill: #1f77b4; fill-opacity: 0; stroke: #1f77b4; stroke-opacity: 0"/>
     <use xlink:href="#mcd15b9b21f" x="101.644054" y="288.04646" style="fill: #1f77b4; fill-opacity: 0; stroke: #1f77b4; stroke-opacity: 0"/>
     <use xlink:href="#mcd15b9b21f" x="91.962405" y="276.216016" style="fill: #1f77b4; fill-opacity: 0; stroke: #1f77b4; stroke-opacity: 0"/>
     <use xlink:href="#mcd15b9b21f" x="83.364218" y="263.576202" style="fill: #1f77b4; fill-opacity: 0; stroke: #1f77b4; stroke-opacity: 0"/>
     <use xlink:href="#mcd15b9b21f" x="75.916785" y="250.22594" style="fill: #1f77b4; fill-opacity: 0; stroke: #1f77b4; stroke-opacity: 0"/>
     <use xlink:href="#mcd15b9b21f" x="69.678392" y="236.269716" style="fill: #1f77b4; fill-opacity: 0; stroke: #1f77b4; stroke-opacity: 0"/>
     <use xlink:href="#mcd15b9b21f" x="64.697865" y="221.816755" style="fill: #1f77b4; fill-opacity: 0; stroke: #1f77b4; stroke-opacity: 0"/>
     <use xlink:href="#mcd15b9b21f" x="61.014181" y="206.980172" style="fill: #1f77b4; fill-opacity: 0; stroke: #1f77b4; stroke-opacity: 0"/>
     <use xlink:href="#mcd15b9b21f" x="58.65617" y="191.876082" style="fill: #1f77b4; fill-opacity: 0; stroke: #1f77b4; stroke-opacity: 0"/>
     <use xlink:href="#mcd15b9b21f" x="57.642288" y="176.622697" style="fill: #1f77b4; fill-opacity: 0; stroke: #1f77b4; stroke-opacity: 0"/>
     <use xlink:href="#mcd15b9b21f" x="57.98047" y="161.339393" style="fill: #1f77b4; fill-opacity: 0; stroke: #1f77b4; stroke-opacity: 0"/>
     <use xlink:href="#mcd15b9b21f" x="59.668067" y="146.145784" style="fill: #1f77b4; fill-opacity: 0; stroke: #1f77b4; stroke-opacity: 0"/>
     <use xlink:href="#mcd15b9b21f" x="62.691874" y="131.160781" style="fill: #1f77b4; fill-opacity: 0; stroke: #1f77b4; stroke-opacity: 0"/>
     <use xlink:href="#mcd15b9b21f" x="67.028225" y="116.501661" style="fill: #1f77b4; fill-opacity: 0; stroke: #1f77b4; stroke-opacity: 0"/>
     <use xlink:href="#mcd15b9b21f" x="72.64318" y="102.283152" style="fill: #1f77b4; fill-opacity: 0; stroke: #1f77b4; stroke-opacity: 0"/>
     <use xlink:href="#mcd15b9b21f" x="79.492797" y="88.616533" style="fill: #1f77b4; fill-opacity: 0; stroke: #1f77b4; stroke-opacity: 0"/>
     <use xlink:href="#mcd15b9b21f" x="87.523468" y="75.608763" style="fill: #1f77b4; fill-opacity: 0; stroke: #1f77b4; stroke-opacity: 0"/>
     <use xlink:href="#mcd15b9b21f" x="96.672341" y="63.361647" style="fill: #1f77b4; fill-opacity: 0; stroke: #1f77b4; stroke-opacity: 0"/>
     <use xlink:href="#mcd15b9b21f" x="106.867814" y="51.971034" style="fill: #1f77b4; fill-opacity: 0; stroke: #1f77b4; stroke-opacity: 0"/>
     <use xlink:href="#mcd15b9b21f" x="118.030094" y="41.526072" style="fill: #1f77b4; fill-opacity: 0; stroke: #1f77b4; stroke-opacity: 0"/>
     <use xlink:href="#mcd15b9b21f" x="130.071821" y="32.108506" style="fill: #1f77b4; fill-opacity: 0; stroke: #1f77b4; stroke-opacity: 0"/>
     <use xlink:href="#mcd15b9b21f" x="142.898752" y="23.792042" style="fill: #1f77b4; fill-opacity: 0; stroke: #1f77b4; stroke-opacity: 0"/>
     <use xlink:href="#mcd15b9b21f" x="156.410499" y="16.641767" style="fill: #1f77b4; fill-opacity: 0; stroke: #1f77b4; stroke-opacity: 0"/>
     <use xlink:href="#mcd15b9b21f" x="170.501314" y="10.713642" style="fill: #1f77b4; fill-opacity: 0; stroke: #1f77b4; stroke-opacity: 0"/>
     <use xlink:href="#mcd15b9b21f" x="185.060917" y="6.054063" style="fill: #1f77b4; fill-opacity: 0; stroke: #1f77b4; stroke-opacity: 0"/>
     <use xlink:href="#mcd15b9b21f" x="199.975361" y="2.699496" style="fill: #1f77b4; fill-opacity: 0; stroke: #1f77b4; stroke-opacity: 0"/>
     <use xlink:href="#mcd15b9b21f" x="215.127918" y="0.676197" style="fill: #1f77b4; fill-opacity: 0; stroke: #1f77b4; stroke-opacity: 0"/>
    </g>
   </g>
  </g>
 </g>
 <defs>
  <clipPath id="pd3295eea7c">
   <rect x="0" y="0" width="460.8" height="345.6"/>
  </clipPath>
 </defs>
</svg>
