<?xml version="1.0" encoding="utf-8" standalone="no"?>
<!DOCTYPE svg PUBLIC "-//W3C//DTD SVG 1.1//EN"
  "http://www.w3.org/Graphics/SVG/1.1/DTD/svg11.dtd">
<svg xmlns:xlink="http://www.w3.org/1999/xlink" width="460.8pt" height="345.6pt" viewBox="0 0 460.8 345.6" xmlns="http://www.w3.org/2000/svg" version="1.1">
 <metadata>
  <rdf:RDF xmlns:dc="http://purl.org/dc/elements/1.1/" xmlns:cc="http://creativecommons.org/ns#" xmlns:rdf="http://www.w3.org/1999/02/22-rdf-syntax-ns#">
   <cc:Work>
    <dc:type rdf:resource="http://purl.org/dc/dcmitype/StillImage"/>
    <dc:date>2024-02-27T15:40:31.638518</dc:date>
    <dc:format>image/svg+xml</dc:format>
    <dc:creator>
     <cc:Agent>
      <dc:title>Matplotlib v3.8.2, https://matplotlib.org/</dc:title>
     </cc:Agent>
    </dc:creator>
   </cc:Work>
  </rdf:RDF>
 </metadata>
 <defs>
  <style type="text/css">*{stroke-linejoin: round; stroke-linecap: butt}</style>
 </defs>
 <g id="figure_1">
  <g id="patch_1">
   <path d="M 0 345.6 
L 460.8 345.6 
L 460.8 0 
L 0 0 
z
" style="fill: #ffffff"/>
  </g>
  <g id="axes_1">
   <g id="patch_2">
    <path d="M 57.6 307.584 
L 414.72 307.584 
L 414.72 41.472 
L 57.6 41.472 
z
" style="fill: #ffffff"/>
   </g>
   <g id="Quiver_1">
    <path d="M 235.554904 174.587225 
L 235.554904 59.013865 
L 231.319231 60.829154 
L 236.16 53.568 
L 241.000769 60.829154 
L 236.765096 59.013865 
L 236.765096 174.587225 
L 235.554904 174.587225 
" clip-path="url(#p7e18d840c3)"/>
    <path d="M 235.557272 174.533747 
L 245.771657 59.412646 
L 241.392124 60.846481 
L 246.855692 54.04157 
L 251.035776 61.702137 
L 246.977114 59.519603 
L 236.762728 174.640704 
L 235.557272 174.533747 
" clip-path="url(#p7e18d840c3)"/>
    <path d="M 235.564357 174.480687 
L 255.913187 60.712824 
L 251.424069 61.753985 
L 257.467675 55.458573 
L 260.954361 63.458599 
L 257.104473 60.9259 
L 236.755643 174.693764 
L 235.564357 174.480687 
" clip-path="url(#p7e18d840c3)"/>
    <path d="M 235.576103 174.428461 
L 265.90012 62.904223 
L 261.336551 63.544561 
L 267.912897 57.807919 
L 270.678896 66.084793 
L 267.067913 63.221752 
L 236.743897 174.74599 
L 235.576103 174.428461 
" clip-path="url(#p7e18d840c3)"/>
    <path d="M 235.59242 174.377477 
L 275.654297 65.969694 
L 271.051993 66.204197 
L 278.10961 61.071221 
L 280.133273 69.560166 
L 276.789457 66.38919 
L 236.72758 174.796973 
L 235.59242 174.377477 
" clip-path="url(#p7e18d840c3)"/>
    <path d="M 235.613179 174.328135 
L 285.099378 69.885243 
L 280.494358 69.712077 
L 287.97801 65.222941 
L 289.243501 73.857518 
L 286.193021 70.403424 
L 236.706821 174.846315 
L 235.613179 174.328135 
" clip-path="url(#p7e18d840c3)"/>
    <path d="M 235.638217 174.280821 
L 294.161442 74.620228 
L 289.589746 74.040748 
L 297.440864 70.230584 
L 297.938278 78.943217 
L 295.205008 75.233037 
L 236.681783 174.89363 
L 235.638217 174.280821 
" clip-path="url(#p7e18d840c3)"/>
    <path d="M 235.667339 174.235905 
L 302.769565 80.13759 
L 298.266974 79.156331 
L 306.424112 76.054959 
L 306.149556 84.777459 
L 303.754888 80.840232 
L 236.652661 174.938546 
L 235.667339 174.235905 
" clip-path="url(#p7e18d840c3)"/>
    <path d="M 235.700316 174.193738 
L 310.856379 86.394149 
L 306.458131 85.018789 
L 314.857448 82.650483 
L 313.813071 91.314585 
L 311.775746 87.181123 
L 236.619684 174.980712 
L 235.700316 174.193738 
" clip-path="url(#p7e18d840c3)"/>
    <path d="M 235.736892 174.154651 
L 318.358592 93.340938 
L 314.09911 91.582243 
L 322.674869 89.965536 
L 320.868845 98.503432 
L 319.204809 94.206087 
L 236.583108 175.0198 
L 235.736892 174.154651 
" clip-path="url(#p7e18d840c3)"/>
    <path d="M 235.776778 174.118949 
L 325.21749 100.923589 
L 321.130109 98.795323 
L 329.815195 97.942869 
L 327.261658 106.287738 
L 325.983933 101.860141 
L 236.543222 175.055501 
L 235.776778 174.118949 
" clip-path="url(#p7e18d840c3)"/>
    <path d="M 235.819664 174.086912 
L 331.379392 109.082758 
L 327.496102 106.601577 
L 336.222542 106.520048 
L 332.941476 114.60658 
L 332.060063 110.083384 
L 236.500336 175.087538 
L 235.819664 174.086912 
" clip-path="url(#p7e18d840c3)"/>
    <path d="M 235.865214 174.058791 
L 336.796073 117.754589 
L 333.147267 114.939911 
L 341.846764 115.629945 
L 337.863849 123.394852 
L 337.385646 118.811457 
L 236.454786 175.115659 
L 235.865214 174.058791 
" clip-path="url(#p7e18d840c3)"/>
    <path d="M 235.91307 174.034806 
L 341.42514 126.871212 
L 338.039374 123.745067 
L 346.643843 125.201263 
L 341.990251 132.583774 
L 341.919 127.97605 
L 236.40693 175.139644 
L 235.91307 174.034806 
" clip-path="url(#p7e18d840c3)"/>
    <path d="M 235.962859 174.015144 
L 345.230365 136.361277 
L 342.134137 132.948131 
L 350.576237 135.159092 
L 345.288388 142.10143 
L 345.624647 137.505439 
L 236.357141 175.159306 
L 235.962859 174.015144 
" clip-path="url(#p7e18d840c3)"/>
    <path d="M 236.014191 173.999959 
L 348.181967 146.150512 
L 345.399509 142.477077 
L 353.613168 145.425501 
L 347.732447 151.873331 
L 348.473584 147.325044 
L 236.305809 175.174491 
L 236.014191 173.999959 
" clip-path="url(#p7e18d840c3)"/>
    <path d="M 236.066665 173.989371 
L 350.256845 156.162303 
L 347.809934 152.257329 
L 355.730869 155.920139 
L 349.3033 161.822999 
L 350.443515 157.358012 
L 236.253335 175.18508 
L 236.066665 173.989371 
" clip-path="url(#p7e18d840c3)"/>
    <path d="M 236.119868 173.983461 
L 351.43876 166.318294 
L 349.346546 162.212343 
L 356.912766 166.560872 
L 349.988654 171.872564 
L 351.519023 167.525822 
L 236.200132 175.190989 
L 236.119868 173.983461 
" clip-path="url(#p7e18d840c3)"/>
    <path d="M 236.173386 173.982277 
L 351.718463 176.539001 
L 349.99732 172.264207 
L 357.149609 177.264423 
L 349.783145 181.943376 
L 351.691691 177.748897 
L 236.146614 175.192173 
L 236.173386 173.982277 
" clip-path="url(#p7e18d840c3)"/>
    <path d="M 236.226799 173.985827 
L 351.093764 186.744432 
L 349.757163 182.334251 
L 356.439544 187.947021 
L 348.68838 191.956615 
L 350.960166 187.947228 
L 236.093201 175.188623 
L 236.226799 173.985827 
" clip-path="url(#p7e18d840c3)"/>
    <path d="M 236.279689 173.994085 
L 349.569552 196.854717 
L 348.627954 192.343665 
L 354.788129 198.52506 
L 346.712928 201.833915 
L 349.330174 198.040998 
L 236.040311 175.180366 
L 236.279689 173.994085 
" clip-path="url(#p7e18d840c3)"/>
    <path d="M 236.331643 174.006984 
L 347.157757 206.790729 
L 346.618531 202.214111 
L 352.208287 208.915754 
L 343.872249 211.497974 
L 346.814472 207.951211 
L 235.988357 175.167467 
L 236.331643 174.006984 
" clip-path="url(#p7e18d840c3)"/>
    <path d="M 236.382253 174.024424 
L 343.877254 216.474704 
L 343.74462 211.868338 
L 348.720211 219.03778 
L 340.188576 220.873155 
L 343.432749 217.600306 
L 235.937747 175.150026 
L 236.382253 174.024424 
" clip-path="url(#p7e18d840c3)"/>
    <path d="M 236.431123 174.046269 
L 339.753718 225.830853 
L 340.028714 221.230791 
L 344.351198 228.81192 
L 335.690738 229.886086 
L 339.211471 226.912765 
L 235.888877 175.128181 
L 236.431123 174.046269 
" clip-path="url(#p7e18d840c3)"/>
    <path d="M 236.477872 174.072348 
L 334.81942 234.785951 
L 335.499894 230.228194 
L 339.135442 238.161679 
L 330.413938 238.466229 
L 334.183675 235.815706 
L 235.842128 175.102102 
L 236.477872 174.072348 
" clip-path="url(#p7e18d840c3)"/>
    <path d="M 236.522133 174.102456 
L 329.112978 243.269913 
L 330.193605 238.790131 
L 333.113764 247.013881 
L 324.399472 246.546432 
L 328.388712 244.23945 
L 235.797867 175.071994 
L 236.522133 174.102456 
" clip-path="url(#p7e18d840c3)"/>
    <path d="M 236.56356 174.136359 
L 322.679054 251.216339 
L 324.151375 246.849593 
L 326.333292 255.299246 
L 317.694413 254.063457 
L 321.871933 252.118072 
L 235.75644 175.038092 
L 236.56356 174.136359 
" clip-path="url(#p7e18d840c3)"/>
    <path d="M 236.601829 174.17379 
L 315.568 258.563039 
L 317.420493 254.343505 
L 318.847091 262.952931 
L 310.351237 260.958472 
L 314.684343 259.38991 
L 235.718171 175.000661 
L 236.601829 174.17379 
" clip-path="url(#p7e18d840c3)"/>
    <path d="M 236.636639 174.214456 
L 307.835471 265.252514 
L 310.053638 261.213215 
L 310.713751 269.915034 
L 302.427414 267.177515 
L 306.882193 265.998051 
L 235.683361 174.959994 
L 236.636639 174.214456 
" clip-path="url(#p7e18d840c3)"/>
    <path d="M 236.667719 174.258041 
L 299.541985 271.23241 
L 302.108465 267.40496 
L 301.996927 276.131067 
L 293.984958 272.671914 
L 298.526546 271.890779 
L 235.652281 174.91641 
L 236.667719 174.258041 
" clip-path="url(#p7e18d840c3)"/>
    <path d="M 236.694826 174.304201 
L 290.752448 276.455927 
L 293.647156 272.87028 
L 292.76484 281.552383 
L 285.089943 277.398667 
L 289.682797 277.021975 
L 235.625174 174.870249 
L 236.694826 174.304201 
" clip-path="url(#p7e18d840c3)"/>
    <path d="M 236.717747 174.352576 
L 281.535652 280.882182 
L 284.735932 277.566402 
L 283.089743 286.136551 
L 275.811986 281.320781 
L 280.420158 281.35148 
L 235.602253 174.821874 
L 236.717747 174.352576 
" clip-path="url(#p7e18d840c3)"/>
    <path d="M 236.736302 174.402788 
L 271.963729 284.476536 
L 275.444535 281.456572 
L 273.047358 289.847694 
L 266.223698 284.40756 
L 270.811125 284.84541 
L 235.583698 174.771662 
L 236.736302 174.402788 
" clip-path="url(#p7e18d840c3)"/>
    <path d="M 236.750348 174.454444 
L 262.111594 287.210857 
L 265.845684 284.510344 
L 262.716279 292.656768 
L 256.40012 286.634847 
L 260.930899 287.47642 
L 235.569652 174.720007 
L 236.750348 174.454444 
" clip-path="url(#p7e18d840c3)"/>
    <path d="M 236.759773 174.507138 
L 252.056352 289.063745 
L 256.014502 286.703819 
L 252.177361 294.541788 
L 246.418137 287.985208 
L 250.856807 289.223919 
L 235.560227 174.667312 
L 236.759773 174.507138 
" clip-path="url(#p7e18d840c3)"/>
    <path d="M 236.764504 174.56046 
L 241.8767 290.0207 
L 246.027931 288.01983 
L 241.513085 295.488 
L 236.355869 288.448077 
L 240.667693 290.074231 
L 235.555496 174.613991 
L 236.764504 174.56046 
" clip-path="url(#p7e18d840c3)"/>
    <path d="M 236.764504 174.613991 
L 231.652307 290.074231 
L 235.964131 288.448077 
L 230.806915 295.488 
L 226.292069 288.01983 
L 230.4433 290.0207 
L 235.555496 174.56046 
L 236.764504 174.613991 
" clip-path="url(#p7e18d840c3)"/>
    <path d="M 236.759773 174.667312 
L 221.463193 289.223919 
L 225.901863 287.985208 
L 220.142639 294.541788 
L 216.305498 286.703819 
L 220.263648 289.063745 
L 235.560227 174.507138 
L 236.759773 174.667312 
" clip-path="url(#p7e18d840c3)"/>
    <path d="M 236.750348 174.720007 
L 211.389101 287.47642 
L 215.91988 286.634847 
L 209.603721 292.656768 
L 206.474316 284.510344 
L 210.208406 287.210857 
L 235.569652 174.454444 
L 236.750348 174.720007 
" clip-path="url(#p7e18d840c3)"/>
    <path d="M 236.736302 174.771662 
L 201.508875 284.84541 
L 206.096302 284.40756 
L 199.272642 289.847694 
L 196.875465 281.456572 
L 200.356271 284.476536 
L 235.583698 174.402788 
L 236.736302 174.771662 
" clip-path="url(#p7e18d840c3)"/>
    <path d="M 236.717747 174.821874 
L 191.899842 281.35148 
L 196.508014 281.320781 
L 189.230257 286.136551 
L 187.584068 277.566402 
L 190.784348 280.882182 
L 235.602253 174.352576 
L 236.717747 174.821874 
" clip-path="url(#p7e18d840c3)"/>
    <path d="M 236.694826 174.870249 
L 182.637203 277.021975 
L 187.230057 277.398667 
L 179.55516 281.552383 
L 178.672844 272.87028 
L 181.567552 276.455927 
L 235.625174 174.304201 
L 236.694826 174.870249 
" clip-path="url(#p7e18d840c3)"/>
    <path d="M 236.667719 174.91641 
L 173.793454 271.890779 
L 178.335042 272.671914 
L 170.323073 276.131067 
L 170.211535 267.40496 
L 172.778015 271.23241 
L 235.652281 174.258041 
L 236.667719 174.91641 
" clip-path="url(#p7e18d840c3)"/>
    <path d="M 236.636639 174.959994 
L 165.437807 265.998051 
L 169.892586 267.177515 
L 161.606249 269.915034 
L 162.266362 261.213215 
L 164.484529 265.252514 
L 235.683361 174.214456 
L 236.636639 174.959994 
" clip-path="url(#p7e18d840c3)"/>
    <path d="M 236.601829 175.000661 
L 157.635657 259.38991 
L 161.968763 260.958472 
L 153.472909 262.952931 
L 154.899507 254.343505 
L 156.752 258.563039 
L 235.718171 174.17379 
L 236.601829 175.000661 
" clip-path="url(#p7e18d840c3)"/>
    <path d="M 236.56356 175.038092 
L 150.448067 252.118072 
L 154.625587 254.063457 
L 145.986708 255.299246 
L 148.168625 246.849593 
L 149.640946 251.216339 
L 235.75644 174.136359 
L 236.56356 175.038092 
" clip-path="url(#p7e18d840c3)"/>
    <path d="M 236.522133 175.071994 
L 143.931288 244.23945 
L 147.920528 246.546432 
L 139.206236 247.013881 
L 142.126395 238.790131 
L 143.207022 243.269913 
L 235.797867 174.102456 
L 236.522133 175.071994 
" clip-path="url(#p7e18d840c3)"/>
    <path d="M 236.477872 175.102102 
L 138.136325 235.815706 
L 141.906062 238.466229 
L 133.184558 238.161679 
L 136.820106 230.228194 
L 137.50058 234.785951 
L 235.842128 174.072348 
L 236.477872 175.102102 
" clip-path="url(#p7e18d840c3)"/>
    <path d="M 236.431123 175.128181 
L 133.108529 226.912765 
L 136.629262 229.886086 
L 127.968802 228.81192 
L 132.291286 221.230791 
L 132.566282 225.830853 
L 235.888877 174.046269 
L 236.431123 175.128181 
" clip-path="url(#p7e18d840c3)"/>
    <path d="M 236.382253 175.150026 
L 128.887251 217.600306 
L 132.131424 220.873155 
L 123.599789 219.03778 
L 128.57538 211.868338 
L 128.442746 216.474704 
L 235.937747 174.024424 
L 236.382253 175.150026 
" clip-path="url(#p7e18d840c3)"/>
    <path d="M 236.331643 175.167467 
L 125.505528 207.951211 
L 128.447751 211.497974 
L 120.111713 208.915754 
L 125.701469 202.214111 
L 125.162243 206.790729 
L 235.988357 174.006984 
L 236.331643 175.167467 
" clip-path="url(#p7e18d840c3)"/>
    <path d="M 236.279689 175.180366 
L 122.989826 198.040998 
L 125.607072 201.833915 
L 117.531871 198.52506 
L 123.692046 192.343665 
L 122.750448 196.854717 
L 236.040311 173.994085 
L 236.279689 175.180366 
" clip-path="url(#p7e18d840c3)"/>
    <path d="M 236.226799 175.188623 
L 121.359834 187.947228 
L 123.63162 191.956615 
L 115.880456 187.947021 
L 122.562837 182.334251 
L 121.226236 186.744432 
L 236.093201 173.985827 
L 236.226799 175.188623 
" clip-path="url(#p7e18d840c3)"/>
    <path d="M 236.173386 175.192173 
L 120.628309 177.748897 
L 122.536855 181.943376 
L 115.170391 177.264423 
L 122.32268 172.264207 
L 120.601537 176.539001 
L 236.146614 173.982277 
L 236.173386 175.192173 
" clip-path="url(#p7e18d840c3)"/>
    <path d="M 236.119868 175.190989 
L 120.800977 167.525822 
L 122.331346 171.872564 
L 115.407234 166.560872 
L 122.973454 162.212343 
L 120.88124 166.318294 
L 236.200132 173.983461 
L 236.119868 175.190989 
" clip-path="url(#p7e18d840c3)"/>
    <path d="M 236.066665 175.18508 
L 121.876485 157.358012 
L 123.0167 161.822999 
L 116.589131 155.920139 
L 124.510066 152.257329 
L 122.063155 156.162303 
L 236.253335 173.989371 
L 236.066665 175.18508 
" clip-path="url(#p7e18d840c3)"/>
    <path d="M 236.014191 175.174491 
L 123.846416 147.325044 
L 124.587553 151.873331 
L 118.706832 145.425501 
L 126.920491 142.477077 
L 124.138033 146.150512 
L 236.305809 173.999959 
L 236.014191 175.174491 
" clip-path="url(#p7e18d840c3)"/>
    <path d="M 235.962859 175.159306 
L 126.695353 137.505439 
L 127.031612 142.10143 
L 121.743763 135.159092 
L 130.185863 132.948131 
L 127.089635 136.361277 
L 236.357141 174.015144 
L 235.962859 175.159306 
" clip-path="url(#p7e18d840c3)"/>
    <path d="M 235.91307 175.139644 
L 130.401 127.97605 
L 130.329749 132.583774 
L 125.676157 125.201263 
L 134.280626 123.745067 
L 130.89486 126.871212 
L 236.40693 174.034806 
L 235.91307 175.139644 
" clip-path="url(#p7e18d840c3)"/>
    <path d="M 235.865214 175.115659 
L 134.934354 118.811457 
L 134.456151 123.394852 
L 130.473236 115.629945 
L 139.172733 114.939911 
L 135.523927 117.754589 
L 236.454786 174.058791 
L 235.865214 175.115659 
" clip-path="url(#p7e18d840c3)"/>
    <path d="M 235.819664 175.087538 
L 140.259937 110.083384 
L 139.378524 114.60658 
L 136.097458 106.520048 
L 144.823898 106.601577 
L 140.940608 109.082758 
L 236.500336 174.086912 
L 235.819664 175.087538 
" clip-path="url(#p7e18d840c3)"/>
    <path d="M 235.776778 175.055501 
L 146.336067 101.860141 
L 145.058342 106.287738 
L 142.504805 97.942869 
L 151.189891 98.795323 
L 147.10251 100.923589 
L 236.543222 174.118949 
L 235.776778 175.055501 
" clip-path="url(#p7e18d840c3)"/>
    <path d="M 235.736892 175.0198 
L 153.115191 94.206087 
L 151.451155 98.503432 
L 149.645131 89.965536 
L 158.22089 91.582243 
L 153.961408 93.340938 
L 236.583108 174.154651 
L 235.736892 175.0198 
" clip-path="url(#p7e18d840c3)"/>
    <path d="M 235.700316 174.980712 
L 160.544254 87.181123 
L 158.506929 91.314585 
L 157.462552 82.650483 
L 165.861869 85.018789 
L 161.463621 86.394149 
L 236.619684 174.193738 
L 235.700316 174.980712 
" clip-path="url(#p7e18d840c3)"/>
    <path d="M 235.667339 174.938546 
L 168.565112 80.840232 
L 166.170444 84.777459 
L 165.895888 76.054959 
L 174.053026 79.156331 
L 169.550435 80.13759 
L 236.652661 174.235905 
L 235.667339 174.938546 
" clip-path="url(#p7e18d840c3)"/>
    <path d="M 235.638217 174.89363 
L 177.114992 75.233037 
L 174.381722 78.943217 
L 174.879136 70.230584 
L 182.730254 74.040748 
L 178.158558 74.620228 
L 236.681783 174.280821 
L 235.638217 174.89363 
" clip-path="url(#p7e18d840c3)"/>
    <path d="M 235.613179 174.846315 
L 186.126979 70.403424 
L 183.076499 73.857518 
L 184.34199 65.222941 
L 191.825642 69.712077 
L 187.220622 69.885243 
L 236.706821 174.328135 
L 235.613179 174.846315 
" clip-path="url(#p7e18d840c3)"/>
    <path d="M 235.59242 174.796973 
L 195.530543 66.38919 
L 192.186727 69.560166 
L 194.21039 61.071221 
L 201.268007 66.204197 
L 196.665703 65.969694 
L 236.72758 174.377477 
L 235.59242 174.796973 
" clip-path="url(#p7e18d840c3)"/>
    <path d="M 235.576103 174.74599 
L 205.252087 63.221752 
L 201.641104 66.084793 
L 204.407103 57.807919 
L 210.983449 63.544561 
L 206.41988 62.904223 
L 236.743897 174.428461 
L 235.576103 174.74599 
" clip-path="url(#p7e18d840c3)"/>
    <path d="M 235.564357 174.693764 
L 215.215527 60.9259 
L 211.365639 63.458599 
L 214.852325 55.458573 
L 220.895931 61.753985 
L 216.406813 60.712824 
L 236.755643 174.480687 
L 235.564357 174.693764 
" clip-path="url(#p7e18d840c3)"/>
    <path d="M 235.557272 174.640704 
L 225.342886 59.519603 
L 221.284224 61.702137 
L 225.464308 54.04157 
L 230.927876 60.846481 
L 226.548343 59.412646 
L 236.762728 174.533747 
L 235.557272 174.640704 
" clip-path="url(#p7e18d840c3)"/>
   </g>
   <g id="Quiver_2">
    <path d="M 237.9456 174.587225 
L 237.0528 173.04085 
L 235.2672 173.04085 
L 234.3744 174.587225 
L 235.2672 176.1336 
L 237.0528 176.1336 
L 237.9456 174.587225 
L 237.0528 173.04085 
" clip-path="url(#p7e18d840c3)" style="fill: #ff0000"/>
   </g>
   <g id="matplotlib.axis_1">
    <g id="xtick_1">
     <g id="line2d_1">
      <defs>
       <path id="mbfc924eea5" d="M 0 0 
L 0 3.5 
" style="stroke: #000000; stroke-width: 0.8"/>
      </defs>
      <g>
       <use xlink:href="#mbfc924eea5" x="115.140775" y="307.584" style="stroke: #000000; stroke-width: 0.8"/>
      </g>
     </g>
     <g id="text_1">
      <!-- −1.0 -->
      <g transform="translate(102.999369 322.182437) scale(0.1 -0.1)">
       <defs>
        <path id="DejaVuSans-2212" d="M 678 2272 
L 4684 2272 
L 4684 1741 
L 678 1741 
L 678 2272 
z
" transform="scale(0.015625)"/>
        <path id="DejaVuSans-31" d="M 794 531 
L 1825 531 
L 1825 4091 
L 703 3866 
L 703 4441 
L 1819 4666 
L 2450 4666 
L 2450 531 
L 3481 531 
L 3481 0 
L 794 0 
L 794 531 
z
" transform="scale(0.015625)"/>
        <path id="DejaVuSans-2e" d="M 684 794 
L 1344 794 
L 1344 0 
L 684 0 
L 684 794 
z
" transform="scale(0.015625)"/>
        <path id="DejaVuSans-30" d="M 2034 4250 
Q 1547 4250 1301 3770 
Q 1056 3291 1056 2328 
Q 1056 1369 1301 889 
Q 1547 409 2034 409 
Q 2525 409 2770 889 
Q 3016 1369 3016 2328 
Q 3016 3291 2770 3770 
Q 2525 4250 2034 4250 
z
M 2034 4750 
Q 2819 4750 3233 4129 
Q 3647 3509 3647 2328 
Q 3647 1150 3233 529 
Q 2819 -91 2034 -91 
Q 1250 -91 836 529 
Q 422 1150 422 2328 
Q 422 3509 836 4129 
Q 1250 4750 2034 4750 
z
" transform="scale(0.015625)"/>
       </defs>
       <use xlink:href="#DejaVuSans-2212"/>
       <use xlink:href="#DejaVuSans-31" x="83.789062"/>
       <use xlink:href="#DejaVuSans-2e" x="147.412109"/>
       <use xlink:href="#DejaVuSans-30" x="179.199219"/>
      </g>
     </g>
    </g>
    <g id="xtick_2">
     <g id="line2d_2">
      <g>
       <use xlink:href="#mbfc924eea5" x="175.650387" y="307.584" style="stroke: #000000; stroke-width: 0.8"/>
      </g>
     </g>
     <g id="text_2">
      <!-- −0.5 -->
      <g transform="translate(163.508981 322.182437) scale(0.1 -0.1)">
       <defs>
        <path id="DejaVuSans-35" d="M 691 4666 
L 3169 4666 
L 3169 4134 
L 1269 4134 
L 1269 2991 
Q 1406 3038 1543 3061 
Q 1681 3084 1819 3084 
Q 2600 3084 3056 2656 
Q 3513 2228 3513 1497 
Q 3513 744 3044 326 
Q 2575 -91 1722 -91 
Q 1428 -91 1123 -41 
Q 819 9 494 109 
L 494 744 
Q 775 591 1075 516 
Q 1375 441 1709 441 
Q 2250 441 2565 725 
Q 2881 1009 2881 1497 
Q 2881 1984 2565 2268 
Q 2250 2553 1709 2553 
Q 1456 2553 1204 2497 
Q 953 2441 691 2322 
L 691 4666 
z
" transform="scale(0.015625)"/>
       </defs>
       <use xlink:href="#DejaVuSans-2212"/>
       <use xlink:href="#DejaVuSans-30" x="83.789062"/>
       <use xlink:href="#DejaVuSans-2e" x="147.412109"/>
       <use xlink:href="#DejaVuSans-35" x="179.199219"/>
      </g>
     </g>
    </g>
    <g id="xtick_3">
     <g id="line2d_3">
      <g>
       <use xlink:href="#mbfc924eea5" x="236.16" y="307.584" style="stroke: #000000; stroke-width: 0.8"/>
      </g>
     </g>
     <g id="text_3">
      <!-- 0.0 -->
      <g transform="translate(228.208438 322.182437) scale(0.1 -0.1)">
       <use xlink:href="#DejaVuSans-30"/>
       <use xlink:href="#DejaVuSans-2e" x="63.623047"/>
       <use xlink:href="#DejaVuSans-30" x="95.410156"/>
      </g>
     </g>
    </g>
    <g id="xtick_4">
     <g id="line2d_4">
      <g>
       <use xlink:href="#mbfc924eea5" x="296.669613" y="307.584" style="stroke: #000000; stroke-width: 0.8"/>
      </g>
     </g>
     <g id="text_4">
      <!-- 0.5 -->
      <g transform="translate(288.71805 322.182437) scale(0.1 -0.1)">
       <use xlink:href="#DejaVuSans-30"/>
       <use xlink:href="#DejaVuSans-2e" x="63.623047"/>
       <use xlink:href="#DejaVuSans-35" x="95.410156"/>
      </g>
     </g>
    </g>
    <g id="xtick_5">
     <g id="line2d_5">
      <g>
       <use xlink:href="#mbfc924eea5" x="357.179225" y="307.584" style="stroke: #000000; stroke-width: 0.8"/>
      </g>
     </g>
     <g id="text_5">
      <!-- 1.0 -->
      <g transform="translate(349.227663 322.182437) scale(0.1 -0.1)">
       <use xlink:href="#DejaVuSans-31"/>
       <use xlink:href="#DejaVuSans-2e" x="63.623047"/>
       <use xlink:href="#DejaVuSans-30" x="95.410156"/>
      </g>
     </g>
    </g>
    <g id="text_6">
     <!-- $U_{Y}$ -->
     <g transform="translate(230.21 335.860562) scale(0.1 -0.1)">
      <defs>
       <path id="DejaVuSans-Oblique-55" d="M 991 4666 
L 1625 4666 
L 1075 1831 
Q 1041 1641 1027 1517 
Q 1013 1394 1013 1300 
Q 1013 869 1253 645 
Q 1494 422 1959 422 
Q 2563 422 2898 753 
Q 3234 1084 3378 1831 
L 3928 4666 
L 4563 4666 
L 4000 1753 
Q 3816 809 3300 359 
Q 2784 -91 1888 -91 
Q 1188 -91 780 261 
Q 372 613 372 1216 
Q 372 1325 387 1461 
Q 403 1597 434 1753 
L 991 4666 
z
" transform="scale(0.015625)"/>
       <path id="DejaVuSans-Oblique-59" d="M 403 4666 
L 1081 4666 
L 1953 2747 
L 3616 4666 
L 4325 4666 
L 2209 2222 
L 1778 0 
L 1147 0 
L 1575 2222 
L 403 4666 
z
" transform="scale(0.015625)"/>
      </defs>
      <use xlink:href="#DejaVuSans-Oblique-55" transform="translate(0 0.09375)"/>
      <use xlink:href="#DejaVuSans-Oblique-59" transform="translate(73.193359 -16.3125) scale(0.7)"/>
     </g>
    </g>
   </g>
   <g id="matplotlib.axis_2">
    <g id="ytick_1">
     <g id="line2d_6">
      <defs>
       <path id="m47ba3c0a20" d="M 0 0 
L -3.5 0 
" style="stroke: #000000; stroke-width: 0.8"/>
      </defs>
      <g>
       <use xlink:href="#m47ba3c0a20" x="57.6" y="295.60645" style="stroke: #000000; stroke-width: 0.8"/>
      </g>
     </g>
     <g id="text_7">
      <!-- −1.0 -->
      <g transform="translate(26.317187 299.405669) scale(0.1 -0.1)">
       <use xlink:href="#DejaVuSans-2212"/>
       <use xlink:href="#DejaVuSans-31" x="83.789062"/>
       <use xlink:href="#DejaVuSans-2e" x="147.412109"/>
       <use xlink:href="#DejaVuSans-30" x="179.199219"/>
      </g>
     </g>
    </g>
    <g id="ytick_2">
     <g id="line2d_7">
      <g>
       <use xlink:href="#m47ba3c0a20" x="57.6" y="235.096838" style="stroke: #000000; stroke-width: 0.8"/>
      </g>
     </g>
     <g id="text_8">
      <!-- −0.5 -->
      <g transform="translate(26.317187 238.896057) scale(0.1 -0.1)">
       <use xlink:href="#DejaVuSans-2212"/>
       <use xlink:href="#DejaVuSans-30" x="83.789062"/>
       <use xlink:href="#DejaVuSans-2e" x="147.412109"/>
       <use xlink:href="#DejaVuSans-35" x="179.199219"/>
      </g>
     </g>
    </g>
    <g id="ytick_3">
     <g id="line2d_8">
      <g>
       <use xlink:href="#m47ba3c0a20" x="57.6" y="174.587225" style="stroke: #000000; stroke-width: 0.8"/>
      </g>
     </g>
     <g id="text_9">
      <!-- 0.0 -->
      <g transform="translate(34.696875 178.386444) scale(0.1 -0.1)">
       <use xlink:href="#DejaVuSans-30"/>
       <use xlink:href="#DejaVuSans-2e" x="63.623047"/>
       <use xlink:href="#DejaVuSans-30" x="95.410156"/>
      </g>
     </g>
    </g>
    <g id="ytick_4">
     <g id="line2d_9">
      <g>
       <use xlink:href="#m47ba3c0a20" x="57.6" y="114.077613" style="stroke: #000000; stroke-width: 0.8"/>
      </g>
     </g>
     <g id="text_10">
      <!-- 0.5 -->
      <g transform="translate(34.696875 117.876831) scale(0.1 -0.1)">
       <use xlink:href="#DejaVuSans-30"/>
       <use xlink:href="#DejaVuSans-2e" x="63.623047"/>
       <use xlink:href="#DejaVuSans-35" x="95.410156"/>
      </g>
     </g>
    </g>
    <g id="ytick_5">
     <g id="line2d_10">
      <g>
       <use xlink:href="#m47ba3c0a20" x="57.6" y="53.568" style="stroke: #000000; stroke-width: 0.8"/>
      </g>
     </g>
     <g id="text_11">
      <!-- 1.0 -->
      <g transform="translate(34.696875 57.367219) scale(0.1 -0.1)">
       <use xlink:href="#DejaVuSans-31"/>
       <use xlink:href="#DejaVuSans-2e" x="63.623047"/>
       <use xlink:href="#DejaVuSans-30" x="95.410156"/>
      </g>
     </g>
    </g>
    <g id="text_12">
     <!-- $U_{Z}$ -->
     <g transform="translate(20.2375 180.728) rotate(-90) scale(0.1 -0.1)">
      <defs>
       <path id="DejaVuSans-Oblique-5a" d="M 838 4666 
L 4500 4666 
L 4409 4184 
L 794 531 
L 3769 531 
L 3669 0 
L -141 0 
L -50 481 
L 3566 4134 
L 738 4134 
L 838 4666 
z
" transform="scale(0.015625)"/>
      </defs>
      <use xlink:href="#DejaVuSans-Oblique-55" transform="translate(0 0.09375)"/>
      <use xlink:href="#DejaVuSans-Oblique-5a" transform="translate(73.193359 -16.3125) scale(0.7)"/>
     </g>
    </g>
   </g>
   <g id="line2d_11">
    <defs>
     <path id="m79c7e4839a" d="M 0 1.5 
C 0.397805 1.5 0.77937 1.341951 1.06066 1.06066 
C 1.341951 0.77937 1.5 0.397805 1.5 0 
C 1.5 -0.397805 1.341951 -0.77937 1.06066 -1.06066 
C 0.77937 -1.341951 0.397805 -1.5 0 -1.5 
C -0.397805 -1.5 -0.77937 -1.341951 -1.06066 -1.06066 
C -1.341951 -0.77937 -1.5 -0.397805 -1.5 0 
C -1.5 0.397805 -1.341951 0.77937 -1.06066 1.06066 
C -0.77937 1.341951 -0.397805 1.5 0 1.5 
z
" style="stroke: #1f77b4; stroke-opacity: 0"/>
    </defs>
    <g clip-path="url(#p7e18d840c3)">
     <use xlink:href="#m79c7e4839a" x="236.16" y="53.568" style="fill: #1f77b4; fill-opacity: 0; stroke: #1f77b4; stroke-opacity: 0"/>
     <use xlink:href="#m79c7e4839a" x="246.855692" y="54.04157" style="fill: #1f77b4; fill-opacity: 0; stroke: #1f77b4; stroke-opacity: 0"/>
     <use xlink:href="#m79c7e4839a" x="257.467675" y="55.458573" style="fill: #1f77b4; fill-opacity: 0; stroke: #1f77b4; stroke-opacity: 0"/>
     <use xlink:href="#m79c7e4839a" x="267.912897" y="57.807919" style="fill: #1f77b4; fill-opacity: 0; stroke: #1f77b4; stroke-opacity: 0"/>
     <use xlink:href="#m79c7e4839a" x="278.10961" y="61.071221" style="fill: #1f77b4; fill-opacity: 0; stroke: #1f77b4; stroke-opacity: 0"/>
     <use xlink:href="#m79c7e4839a" x="287.97801" y="65.222941" style="fill: #1f77b4; fill-opacity: 0; stroke: #1f77b4; stroke-opacity: 0"/>
     <use xlink:href="#m79c7e4839a" x="297.440864" y="70.230584" style="fill: #1f77b4; fill-opacity: 0; stroke: #1f77b4; stroke-opacity: 0"/>
     <use xlink:href="#m79c7e4839a" x="306.424112" y="76.054959" style="fill: #1f77b4; fill-opacity: 0; stroke: #1f77b4; stroke-opacity: 0"/>
     <use xlink:href="#m79c7e4839a" x="314.857448" y="82.650483" style="fill: #1f77b4; fill-opacity: 0; stroke: #1f77b4; stroke-opacity: 0"/>
     <use xlink:href="#m79c7e4839a" x="322.674869" y="89.965536" style="fill: #1f77b4; fill-opacity: 0; stroke: #1f77b4; stroke-opacity: 0"/>
     <use xlink:href="#m79c7e4839a" x="329.815195" y="97.942869" style="fill: #1f77b4; fill-opacity: 0; stroke: #1f77b4; stroke-opacity: 0"/>
     <use xlink:href="#m79c7e4839a" x="336.222542" y="106.520048" style="fill: #1f77b4; fill-opacity: 0; stroke: #1f77b4; stroke-opacity: 0"/>
     <use xlink:href="#m79c7e4839a" x="341.846764" y="115.629945" style="fill: #1f77b4; fill-opacity: 0; stroke: #1f77b4; stroke-opacity: 0"/>
     <use xlink:href="#m79c7e4839a" x="346.643843" y="125.201263" style="fill: #1f77b4; fill-opacity: 0; stroke: #1f77b4; stroke-opacity: 0"/>
     <use xlink:href="#m79c7e4839a" x="350.576237" y="135.159092" style="fill: #1f77b4; fill-opacity: 0; stroke: #1f77b4; stroke-opacity: 0"/>
     <use xlink:href="#m79c7e4839a" x="353.613168" y="145.425501" style="fill: #1f77b4; fill-opacity: 0; stroke: #1f77b4; stroke-opacity: 0"/>
     <use xlink:href="#m79c7e4839a" x="355.730869" y="155.920139" style="fill: #1f77b4; fill-opacity: 0; stroke: #1f77b4; stroke-opacity: 0"/>
     <use xlink:href="#m79c7e4839a" x="356.912766" y="166.560872" style="fill: #1f77b4; fill-opacity: 0; stroke: #1f77b4; stroke-opacity: 0"/>
     <use xlink:href="#m79c7e4839a" x="357.149609" y="177.264423" style="fill: #1f77b4; fill-opacity: 0; stroke: #1f77b4; stroke-opacity: 0"/>
     <use xlink:href="#m79c7e4839a" x="356.439544" y="187.947021" style="fill: #1f77b4; fill-opacity: 0; stroke: #1f77b4; stroke-opacity: 0"/>
     <use xlink:href="#m79c7e4839a" x="354.788129" y="198.52506" style="fill: #1f77b4; fill-opacity: 0; stroke: #1f77b4; stroke-opacity: 0"/>
     <use xlink:href="#m79c7e4839a" x="352.208287" y="208.915754" style="fill: #1f77b4; fill-opacity: 0; stroke: #1f77b4; stroke-opacity: 0"/>
     <use xlink:href="#m79c7e4839a" x="348.720211" y="219.03778" style="fill: #1f77b4; fill-opacity: 0; stroke: #1f77b4; stroke-opacity: 0"/>
     <use xlink:href="#m79c7e4839a" x="344.351198" y="228.81192" style="fill: #1f77b4; fill-opacity: 0; stroke: #1f77b4; stroke-opacity: 0"/>
     <use xlink:href="#m79c7e4839a" x="339.135442" y="238.161679" style="fill: #1f77b4; fill-opacity: 0; stroke: #1f77b4; stroke-opacity: 0"/>
     <use xlink:href="#m79c7e4839a" x="333.113764" y="247.013881" style="fill: #1f77b4; fill-opacity: 0; stroke: #1f77b4; stroke-opacity: 0"/>
     <use xlink:href="#m79c7e4839a" x="326.333292" y="255.299246" style="fill: #1f77b4; fill-opacity: 0; stroke: #1f77b4; stroke-opacity: 0"/>
     <use xlink:href="#m79c7e4839a" x="318.847091" y="262.952931" style="fill: #1f77b4; fill-opacity: 0; stroke: #1f77b4; stroke-opacity: 0"/>
     <use xlink:href="#m79c7e4839a" x="310.713751" y="269.915034" style="fill: #1f77b4; fill-opacity: 0; stroke: #1f77b4; stroke-opacity: 0"/>
     <use xlink:href="#m79c7e4839a" x="301.996927" y="276.131067" style="fill: #1f77b4; fill-opacity: 0; stroke: #1f77b4; stroke-opacity: 0"/>
     <use xlink:href="#m79c7e4839a" x="292.76484" y="281.552383" style="fill: #1f77b4; fill-opacity: 0; stroke: #1f77b4; stroke-opacity: 0"/>
     <use xlink:href="#m79c7e4839a" x="283.089743" y="286.136551" style="fill: #1f77b4; fill-opacity: 0; stroke: #1f77b4; stroke-opacity: 0"/>
     <use xlink:href="#m79c7e4839a" x="273.047358" y="289.847694" style="fill: #1f77b4; fill-opacity: 0; stroke: #1f77b4; stroke-opacity: 0"/>
     <use xlink:href="#m79c7e4839a" x="262.716279" y="292.656768" style="fill: #1f77b4; fill-opacity: 0; stroke: #1f77b4; stroke-opacity: 0"/>
     <use xlink:href="#m79c7e4839a" x="252.177361" y="294.541788" style="fill: #1f77b4; fill-opacity: 0; stroke: #1f77b4; stroke-opacity: 0"/>
     <use xlink:href="#m79c7e4839a" x="241.513085" y="295.488" style="fill: #1f77b4; fill-opacity: 0; stroke: #1f77b4; stroke-opacity: 0"/>
     <use xlink:href="#m79c7e4839a" x="230.806915" y="295.488" style="fill: #1f77b4; fill-opacity: 0; stroke: #1f77b4; stroke-opacity: 0"/>
     <use xlink:href="#m79c7e4839a" x="220.142639" y="294.541788" style="fill: #1f77b4; fill-opacity: 0; stroke: #1f77b4; stroke-opacity: 0"/>
     <use xlink:href="#m79c7e4839a" x="209.603721" y="292.656768" style="fill: #1f77b4; fill-opacity: 0; stroke: #1f77b4; stroke-opacity: 0"/>
     <use xlink:href="#m79c7e4839a" x="199.272642" y="289.847694" style="fill: #1f77b4; fill-opacity: 0; stroke: #1f77b4; stroke-opacity: 0"/>
     <use xlink:href="#m79c7e4839a" x="189.230257" y="286.136551" style="fill: #1f77b4; fill-opacity: 0; stroke: #1f77b4; stroke-opacity: 0"/>
     <use xlink:href="#m79c7e4839a" x="179.55516" y="281.552383" style="fill: #1f77b4; fill-opacity: 0; stroke: #1f77b4; stroke-opacity: 0"/>
     <use xlink:href="#m79c7e4839a" x="170.323073" y="276.131067" style="fill: #1f77b4; fill-opacity: 0; stroke: #1f77b4; stroke-opacity: 0"/>
     <use xlink:href="#m79c7e4839a" x="161.606249" y="269.915034" style="fill: #1f77b4; fill-opacity: 0; stroke: #1f77b4; stroke-opacity: 0"/>
     <use xlink:href="#m79c7e4839a" x="153.472909" y="262.952931" style="fill: #1f77b4; fill-opacity: 0; stroke: #1f77b4; stroke-opacity: 0"/>
     <use xlink:href="#m79c7e4839a" x="145.986708" y="255.299246" style="fill: #1f77b4; fill-opacity: 0; stroke: #1f77b4; stroke-opacity: 0"/>
     <use xlink:href="#m79c7e4839a" x="139.206236" y="247.013881" style="fill: #1f77b4; fill-opacity: 0; stroke: #1f77b4; stroke-opacity: 0"/>
     <use xlink:href="#m79c7e4839a" x="133.184558" y="238.161679" style="fill: #1f77b4; fill-opacity: 0; stroke: #1f77b4; stroke-opacity: 0"/>
     <use xlink:href="#m79c7e4839a" x="127.968802" y="228.81192" style="fill: #1f77b4; fill-opacity: 0; stroke: #1f77b4; stroke-opacity: 0"/>
     <use xlink:href="#m79c7e4839a" x="123.599789" y="219.03778" style="fill: #1f77b4; fill-opacity: 0; stroke: #1f77b4; stroke-opacity: 0"/>
     <use xlink:href="#m79c7e4839a" x="120.111713" y="208.915754" style="fill: #1f77b4; fill-opacity: 0; stroke: #1f77b4; stroke-opacity: 0"/>
     <use xlink:href="#m79c7e4839a" x="117.531871" y="198.52506" style="fill: #1f77b4; fill-opacity: 0; stroke: #1f77b4; stroke-opacity: 0"/>
     <use xlink:href="#m79c7e4839a" x="115.880456" y="187.947021" style="fill: #1f77b4; fill-opacity: 0; stroke: #1f77b4; stroke-opacity: 0"/>
     <use xlink:href="#m79c7e4839a" x="115.170391" y="177.264423" style="fill: #1f77b4; fill-opacity: 0; stroke: #1f77b4; stroke-opacity: 0"/>
     <use xlink:href="#m79c7e4839a" x="115.407234" y="166.560872" style="fill: #1f77b4; fill-opacity: 0; stroke: #1f77b4; stroke-opacity: 0"/>
     <use xlink:href="#m79c7e4839a" x="116.589131" y="155.920139" style="fill: #1f77b4; fill-opacity: 0; stroke: #1f77b4; stroke-opacity: 0"/>
     <use xlink:href="#m79c7e4839a" x="118.706832" y="145.425501" style="fill: #1f77b4; fill-opacity: 0; stroke: #1f77b4; stroke-opacity: 0"/>
     <use xlink:href="#m79c7e4839a" x="121.743763" y="135.159092" style="fill: #1f77b4; fill-opacity: 0; stroke: #1f77b4; stroke-opacity: 0"/>
     <use xlink:href="#m79c7e4839a" x="125.676157" y="125.201263" style="fill: #1f77b4; fill-opacity: 0; stroke: #1f77b4; stroke-opacity: 0"/>
     <use xlink:href="#m79c7e4839a" x="130.473236" y="115.629945" style="fill: #1f77b4; fill-opacity: 0; stroke: #1f77b4; stroke-opacity: 0"/>
     <use xlink:href="#m79c7e4839a" x="136.097458" y="106.520048" style="fill: #1f77b4; fill-opacity: 0; stroke: #1f77b4; stroke-opacity: 0"/>
     <use xlink:href="#m79c7e4839a" x="142.504805" y="97.942869" style="fill: #1f77b4; fill-opacity: 0; stroke: #1f77b4; stroke-opacity: 0"/>
     <use xlink:href="#m79c7e4839a" x="149.645131" y="89.965536" style="fill: #1f77b4; fill-opacity: 0; stroke: #1f77b4; stroke-opacity: 0"/>
     <use xlink:href="#m79c7e4839a" x="157.462552" y="82.650483" style="fill: #1f77b4; fill-opacity: 0; stroke: #1f77b4; stroke-opacity: 0"/>
     <use xlink:href="#m79c7e4839a" x="165.895888" y="76.054959" style="fill: #1f77b4; fill-opacity: 0; stroke: #1f77b4; stroke-opacity: 0"/>
     <use xlink:href="#m79c7e4839a" x="174.879136" y="70.230584" style="fill: #1f77b4; fill-opacity: 0; stroke: #1f77b4; stroke-opacity: 0"/>
     <use xlink:href="#m79c7e4839a" x="184.34199" y="65.222941" style="fill: #1f77b4; fill-opacity: 0; stroke: #1f77b4; stroke-opacity: 0"/>
     <use xlink:href="#m79c7e4839a" x="194.21039" y="61.071221" style="fill: #1f77b4; fill-opacity: 0; stroke: #1f77b4; stroke-opacity: 0"/>
     <use xlink:href="#m79c7e4839a" x="204.407103" y="57.807919" style="fill: #1f77b4; fill-opacity: 0; stroke: #1f77b4; stroke-opacity: 0"/>
     <use xlink:href="#m79c7e4839a" x="214.852325" y="55.458573" style="fill: #1f77b4; fill-opacity: 0; stroke: #1f77b4; stroke-opacity: 0"/>
     <use xlink:href="#m79c7e4839a" x="225.464308" y="54.04157" style="fill: #1f77b4; fill-opacity: 0; stroke: #1f77b4; stroke-opacity: 0"/>
    </g>
   </g>
   <g id="patch_3">
    <path d="M 57.6 307.584 
L 57.6 41.472 
" style="fill: none; stroke: #000000; stroke-width: 0.8; stroke-linejoin: miter; stroke-linecap: square"/>
   </g>
   <g id="patch_4">
    <path d="M 414.72 307.584 
L 414.72 41.472 
" style="fill: none; stroke: #000000; stroke-width: 0.8; stroke-linejoin: miter; stroke-linecap: square"/>
   </g>
   <g id="patch_5">
    <path d="M 57.6 307.584 
L 414.72 307.584 
" style="fill: none; stroke: #000000; stroke-width: 0.8; stroke-linejoin: miter; stroke-linecap: square"/>
   </g>
   <g id="patch_6">
    <path d="M 57.6 41.472 
L 414.72 41.472 
" style="fill: none; stroke: #000000; stroke-width: 0.8; stroke-linejoin: miter; stroke-linecap: square"/>
   </g>
   <g id="text_13">
    <!-- &lt;Proper&gt; -->
    <g style="fill: #ff0000" transform="translate(54.631162 65.669923) scale(0.1 -0.1)">
     <defs>
      <path id="DejaVuSans-Bold-3c" d="M 4684 3041 
L 1672 2003 
L 4684 972 
L 4684 191 
L 678 1638 
L 678 2375 
L 4684 3822 
L 4684 3041 
z
" transform="scale(0.015625)"/>
      <path id="DejaVuSans-Bold-50" d="M 588 4666 
L 2584 4666 
Q 3475 4666 3951 4270 
Q 4428 3875 4428 3144 
Q 4428 2409 3951 2014 
Q 3475 1619 2584 1619 
L 1791 1619 
L 1791 0 
L 588 0 
L 588 4666 
z
M 1791 3794 
L 1791 2491 
L 2456 2491 
Q 2806 2491 2997 2661 
Q 3188 2831 3188 3144 
Q 3188 3456 2997 3625 
Q 2806 3794 2456 3794 
L 1791 3794 
z
" transform="scale(0.015625)"/>
      <path id="DejaVuSans-Bold-72" d="M 3138 2547 
Q 2991 2616 2845 2648 
Q 2700 2681 2553 2681 
Q 2122 2681 1889 2404 
Q 1656 2128 1656 1613 
L 1656 0 
L 538 0 
L 538 3500 
L 1656 3500 
L 1656 2925 
Q 1872 3269 2151 3426 
Q 2431 3584 2822 3584 
Q 2878 3584 2943 3579 
Q 3009 3575 3134 3559 
L 3138 2547 
z
" transform="scale(0.015625)"/>
      <path id="DejaVuSans-Bold-6f" d="M 2203 2784 
Q 1831 2784 1636 2517 
Q 1441 2250 1441 1747 
Q 1441 1244 1636 976 
Q 1831 709 2203 709 
Q 2569 709 2762 976 
Q 2956 1244 2956 1747 
Q 2956 2250 2762 2517 
Q 2569 2784 2203 2784 
z
M 2203 3584 
Q 3106 3584 3614 3096 
Q 4122 2609 4122 1747 
Q 4122 884 3614 396 
Q 3106 -91 2203 -91 
Q 1297 -91 786 396 
Q 275 884 275 1747 
Q 275 2609 786 3096 
Q 1297 3584 2203 3584 
z
" transform="scale(0.015625)"/>
      <path id="DejaVuSans-Bold-70" d="M 1656 506 
L 1656 -1331 
L 538 -1331 
L 538 3500 
L 1656 3500 
L 1656 2988 
Q 1888 3294 2169 3439 
Q 2450 3584 2816 3584 
Q 3463 3584 3878 3070 
Q 4294 2556 4294 1747 
Q 4294 938 3878 423 
Q 3463 -91 2816 -91 
Q 2450 -91 2169 54 
Q 1888 200 1656 506 
z
M 2400 2772 
Q 2041 2772 1848 2508 
Q 1656 2244 1656 1747 
Q 1656 1250 1848 986 
Q 2041 722 2400 722 
Q 2759 722 2948 984 
Q 3138 1247 3138 1747 
Q 3138 2247 2948 2509 
Q 2759 2772 2400 2772 
z
" transform="scale(0.015625)"/>
      <path id="DejaVuSans-Bold-65" d="M 4031 1759 
L 4031 1441 
L 1416 1441 
Q 1456 1047 1700 850 
Q 1944 653 2381 653 
Q 2734 653 3104 758 
Q 3475 863 3866 1075 
L 3866 213 
Q 3469 63 3072 -14 
Q 2675 -91 2278 -91 
Q 1328 -91 801 392 
Q 275 875 275 1747 
Q 275 2603 792 3093 
Q 1309 3584 2216 3584 
Q 3041 3584 3536 3087 
Q 4031 2591 4031 1759 
z
M 2881 2131 
Q 2881 2450 2695 2645 
Q 2509 2841 2209 2841 
Q 1884 2841 1681 2658 
Q 1478 2475 1428 2131 
L 2881 2131 
z
" transform="scale(0.015625)"/>
      <path id="DejaVuSans-Bold-3e" d="M 678 3041 
L 678 3822 
L 4684 2375 
L 4684 1638 
L 678 191 
L 678 972 
L 3694 2003 
L 678 3041 
z
" transform="scale(0.015625)"/>
     </defs>
     <use xlink:href="#DejaVuSans-Bold-3c"/>
     <use xlink:href="#DejaVuSans-Bold-50" x="83.789062"/>
     <use xlink:href="#DejaVuSans-Bold-72" x="157.080078"/>
     <use xlink:href="#DejaVuSans-Bold-6f" x="206.396484"/>
     <use xlink:href="#DejaVuSans-Bold-70" x="275.097656"/>
     <use xlink:href="#DejaVuSans-Bold-65" x="346.679688"/>
     <use xlink:href="#DejaVuSans-Bold-72" x="414.501953"/>
     <use xlink:href="#DejaVuSans-Bold-3e" x="463.818359"/>
    </g>
   </g>
   <g id="text_14">
    <!-- Field Propagation Velocities in particle's Proper Frame -->
    <g transform="translate(75.36375 35.472) scale(0.12 -0.12)">
     <defs>
      <path id="DejaVuSans-46" d="M 628 4666 
L 3309 4666 
L 3309 4134 
L 1259 4134 
L 1259 2759 
L 3109 2759 
L 3109 2228 
L 1259 2228 
L 1259 0 
L 628 0 
L 628 4666 
z
" transform="scale(0.015625)"/>
      <path id="DejaVuSans-69" d="M 603 3500 
L 1178 3500 
L 1178 0 
L 603 0 
L 603 3500 
z
M 603 4863 
L 1178 4863 
L 1178 4134 
L 603 4134 
L 603 4863 
z
" transform="scale(0.015625)"/>
      <path id="DejaVuSans-65" d="M 3597 1894 
L 3597 1613 
L 953 1613 
Q 991 1019 1311 708 
Q 1631 397 2203 397 
Q 2534 397 2845 478 
Q 3156 559 3463 722 
L 3463 178 
Q 3153 47 2828 -22 
Q 2503 -91 2169 -91 
Q 1331 -91 842 396 
Q 353 884 353 1716 
Q 353 2575 817 3079 
Q 1281 3584 2069 3584 
Q 2775 3584 3186 3129 
Q 3597 2675 3597 1894 
z
M 3022 2063 
Q 3016 2534 2758 2815 
Q 2500 3097 2075 3097 
Q 1594 3097 1305 2825 
Q 1016 2553 972 2059 
L 3022 2063 
z
" transform="scale(0.015625)"/>
      <path id="DejaVuSans-6c" d="M 603 4863 
L 1178 4863 
L 1178 0 
L 603 0 
L 603 4863 
z
" transform="scale(0.015625)"/>
      <path id="DejaVuSans-64" d="M 2906 2969 
L 2906 4863 
L 3481 4863 
L 3481 0 
L 2906 0 
L 2906 525 
Q 2725 213 2448 61 
Q 2172 -91 1784 -91 
Q 1150 -91 751 415 
Q 353 922 353 1747 
Q 353 2572 751 3078 
Q 1150 3584 1784 3584 
Q 2172 3584 2448 3432 
Q 2725 3281 2906 2969 
z
M 947 1747 
Q 947 1113 1208 752 
Q 1469 391 1925 391 
Q 2381 391 2643 752 
Q 2906 1113 2906 1747 
Q 2906 2381 2643 2742 
Q 2381 3103 1925 3103 
Q 1469 3103 1208 2742 
Q 947 2381 947 1747 
z
" transform="scale(0.015625)"/>
      <path id="DejaVuSans-20" transform="scale(0.015625)"/>
      <path id="DejaVuSans-50" d="M 1259 4147 
L 1259 2394 
L 2053 2394 
Q 2494 2394 2734 2622 
Q 2975 2850 2975 3272 
Q 2975 3691 2734 3919 
Q 2494 4147 2053 4147 
L 1259 4147 
z
M 628 4666 
L 2053 4666 
Q 2838 4666 3239 4311 
Q 3641 3956 3641 3272 
Q 3641 2581 3239 2228 
Q 2838 1875 2053 1875 
L 1259 1875 
L 1259 0 
L 628 0 
L 628 4666 
z
" transform="scale(0.015625)"/>
      <path id="DejaVuSans-72" d="M 2631 2963 
Q 2534 3019 2420 3045 
Q 2306 3072 2169 3072 
Q 1681 3072 1420 2755 
Q 1159 2438 1159 1844 
L 1159 0 
L 581 0 
L 581 3500 
L 1159 3500 
L 1159 2956 
Q 1341 3275 1631 3429 
Q 1922 3584 2338 3584 
Q 2397 3584 2469 3576 
Q 2541 3569 2628 3553 
L 2631 2963 
z
" transform="scale(0.015625)"/>
      <path id="DejaVuSans-6f" d="M 1959 3097 
Q 1497 3097 1228 2736 
Q 959 2375 959 1747 
Q 959 1119 1226 758 
Q 1494 397 1959 397 
Q 2419 397 2687 759 
Q 2956 1122 2956 1747 
Q 2956 2369 2687 2733 
Q 2419 3097 1959 3097 
z
M 1959 3584 
Q 2709 3584 3137 3096 
Q 3566 2609 3566 1747 
Q 3566 888 3137 398 
Q 2709 -91 1959 -91 
Q 1206 -91 779 398 
Q 353 888 353 1747 
Q 353 2609 779 3096 
Q 1206 3584 1959 3584 
z
" transform="scale(0.015625)"/>
      <path id="DejaVuSans-70" d="M 1159 525 
L 1159 -1331 
L 581 -1331 
L 581 3500 
L 1159 3500 
L 1159 2969 
Q 1341 3281 1617 3432 
Q 1894 3584 2278 3584 
Q 2916 3584 3314 3078 
Q 3713 2572 3713 1747 
Q 3713 922 3314 415 
Q 2916 -91 2278 -91 
Q 1894 -91 1617 61 
Q 1341 213 1159 525 
z
M 3116 1747 
Q 3116 2381 2855 2742 
Q 2594 3103 2138 3103 
Q 1681 3103 1420 2742 
Q 1159 2381 1159 1747 
Q 1159 1113 1420 752 
Q 1681 391 2138 391 
Q 2594 391 2855 752 
Q 3116 1113 3116 1747 
z
" transform="scale(0.015625)"/>
      <path id="DejaVuSans-61" d="M 2194 1759 
Q 1497 1759 1228 1600 
Q 959 1441 959 1056 
Q 959 750 1161 570 
Q 1363 391 1709 391 
Q 2188 391 2477 730 
Q 2766 1069 2766 1631 
L 2766 1759 
L 2194 1759 
z
M 3341 1997 
L 3341 0 
L 2766 0 
L 2766 531 
Q 2569 213 2275 61 
Q 1981 -91 1556 -91 
Q 1019 -91 701 211 
Q 384 513 384 1019 
Q 384 1609 779 1909 
Q 1175 2209 1959 2209 
L 2766 2209 
L 2766 2266 
Q 2766 2663 2505 2880 
Q 2244 3097 1772 3097 
Q 1472 3097 1187 3025 
Q 903 2953 641 2809 
L 641 3341 
Q 956 3463 1253 3523 
Q 1550 3584 1831 3584 
Q 2591 3584 2966 3190 
Q 3341 2797 3341 1997 
z
" transform="scale(0.015625)"/>
      <path id="DejaVuSans-67" d="M 2906 1791 
Q 2906 2416 2648 2759 
Q 2391 3103 1925 3103 
Q 1463 3103 1205 2759 
Q 947 2416 947 1791 
Q 947 1169 1205 825 
Q 1463 481 1925 481 
Q 2391 481 2648 825 
Q 2906 1169 2906 1791 
z
M 3481 434 
Q 3481 -459 3084 -895 
Q 2688 -1331 1869 -1331 
Q 1566 -1331 1297 -1286 
Q 1028 -1241 775 -1147 
L 775 -588 
Q 1028 -725 1275 -790 
Q 1522 -856 1778 -856 
Q 2344 -856 2625 -561 
Q 2906 -266 2906 331 
L 2906 616 
Q 2728 306 2450 153 
Q 2172 0 1784 0 
Q 1141 0 747 490 
Q 353 981 353 1791 
Q 353 2603 747 3093 
Q 1141 3584 1784 3584 
Q 2172 3584 2450 3431 
Q 2728 3278 2906 2969 
L 2906 3500 
L 3481 3500 
L 3481 434 
z
" transform="scale(0.015625)"/>
      <path id="DejaVuSans-74" d="M 1172 4494 
L 1172 3500 
L 2356 3500 
L 2356 3053 
L 1172 3053 
L 1172 1153 
Q 1172 725 1289 603 
Q 1406 481 1766 481 
L 2356 481 
L 2356 0 
L 1766 0 
Q 1100 0 847 248 
Q 594 497 594 1153 
L 594 3053 
L 172 3053 
L 172 3500 
L 594 3500 
L 594 4494 
L 1172 4494 
z
" transform="scale(0.015625)"/>
      <path id="DejaVuSans-6e" d="M 3513 2113 
L 3513 0 
L 2938 0 
L 2938 2094 
Q 2938 2591 2744 2837 
Q 2550 3084 2163 3084 
Q 1697 3084 1428 2787 
Q 1159 2491 1159 1978 
L 1159 0 
L 581 0 
L 581 3500 
L 1159 3500 
L 1159 2956 
Q 1366 3272 1645 3428 
Q 1925 3584 2291 3584 
Q 2894 3584 3203 3211 
Q 3513 2838 3513 2113 
z
" transform="scale(0.015625)"/>
      <path id="DejaVuSans-56" d="M 1831 0 
L 50 4666 
L 709 4666 
L 2188 738 
L 3669 4666 
L 4325 4666 
L 2547 0 
L 1831 0 
z
" transform="scale(0.015625)"/>
      <path id="DejaVuSans-63" d="M 3122 3366 
L 3122 2828 
Q 2878 2963 2633 3030 
Q 2388 3097 2138 3097 
Q 1578 3097 1268 2742 
Q 959 2388 959 1747 
Q 959 1106 1268 751 
Q 1578 397 2138 397 
Q 2388 397 2633 464 
Q 2878 531 3122 666 
L 3122 134 
Q 2881 22 2623 -34 
Q 2366 -91 2075 -91 
Q 1284 -91 818 406 
Q 353 903 353 1747 
Q 353 2603 823 3093 
Q 1294 3584 2113 3584 
Q 2378 3584 2631 3529 
Q 2884 3475 3122 3366 
z
" transform="scale(0.015625)"/>
      <path id="DejaVuSans-73" d="M 2834 3397 
L 2834 2853 
Q 2591 2978 2328 3040 
Q 2066 3103 1784 3103 
Q 1356 3103 1142 2972 
Q 928 2841 928 2578 
Q 928 2378 1081 2264 
Q 1234 2150 1697 2047 
L 1894 2003 
Q 2506 1872 2764 1633 
Q 3022 1394 3022 966 
Q 3022 478 2636 193 
Q 2250 -91 1575 -91 
Q 1294 -91 989 -36 
Q 684 19 347 128 
L 347 722 
Q 666 556 975 473 
Q 1284 391 1588 391 
Q 1994 391 2212 530 
Q 2431 669 2431 922 
Q 2431 1156 2273 1281 
Q 2116 1406 1581 1522 
L 1381 1569 
Q 847 1681 609 1914 
Q 372 2147 372 2553 
Q 372 3047 722 3315 
Q 1072 3584 1716 3584 
Q 2034 3584 2315 3537 
Q 2597 3491 2834 3397 
z
" transform="scale(0.015625)"/>
      <path id="DejaVuSans-27" d="M 1147 4666 
L 1147 2931 
L 616 2931 
L 616 4666 
L 1147 4666 
z
" transform="scale(0.015625)"/>
      <path id="DejaVuSans-6d" d="M 3328 2828 
Q 3544 3216 3844 3400 
Q 4144 3584 4550 3584 
Q 5097 3584 5394 3201 
Q 5691 2819 5691 2113 
L 5691 0 
L 5113 0 
L 5113 2094 
Q 5113 2597 4934 2840 
Q 4756 3084 4391 3084 
Q 3944 3084 3684 2787 
Q 3425 2491 3425 1978 
L 3425 0 
L 2847 0 
L 2847 2094 
Q 2847 2600 2669 2842 
Q 2491 3084 2119 3084 
Q 1678 3084 1418 2786 
Q 1159 2488 1159 1978 
L 1159 0 
L 581 0 
L 581 3500 
L 1159 3500 
L 1159 2956 
Q 1356 3278 1631 3431 
Q 1906 3584 2284 3584 
Q 2666 3584 2933 3390 
Q 3200 3197 3328 2828 
z
" transform="scale(0.015625)"/>
     </defs>
     <use xlink:href="#DejaVuSans-46"/>
     <use xlink:href="#DejaVuSans-69" x="50.269531"/>
     <use xlink:href="#DejaVuSans-65" x="78.052734"/>
     <use xlink:href="#DejaVuSans-6c" x="139.576172"/>
     <use xlink:href="#DejaVuSans-64" x="167.359375"/>
     <use xlink:href="#DejaVuSans-20" x="230.835938"/>
     <use xlink:href="#DejaVuSans-50" x="262.623047"/>
     <use xlink:href="#DejaVuSans-72" x="321.175781"/>
     <use xlink:href="#DejaVuSans-6f" x="360.039062"/>
     <use xlink:href="#DejaVuSans-70" x="421.220703"/>
     <use xlink:href="#DejaVuSans-61" x="484.697266"/>
     <use xlink:href="#DejaVuSans-67" x="545.976562"/>
     <use xlink:href="#DejaVuSans-61" x="609.453125"/>
     <use xlink:href="#DejaVuSans-74" x="670.732422"/>
     <use xlink:href="#DejaVuSans-69" x="709.941406"/>
     <use xlink:href="#DejaVuSans-6f" x="737.724609"/>
     <use xlink:href="#DejaVuSans-6e" x="798.90625"/>
     <use xlink:href="#DejaVuSans-20" x="862.285156"/>
     <use xlink:href="#DejaVuSans-56" x="894.072266"/>
     <use xlink:href="#DejaVuSans-65" x="954.730469"/>
     <use xlink:href="#DejaVuSans-6c" x="1016.253906"/>
     <use xlink:href="#DejaVuSans-6f" x="1044.037109"/>
     <use xlink:href="#DejaVuSans-63" x="1105.21875"/>
     <use xlink:href="#DejaVuSans-69" x="1160.199219"/>
     <use xlink:href="#DejaVuSans-74" x="1187.982422"/>
     <use xlink:href="#DejaVuSans-69" x="1227.191406"/>
     <use xlink:href="#DejaVuSans-65" x="1254.974609"/>
     <use xlink:href="#DejaVuSans-73" x="1316.498047"/>
     <use xlink:href="#DejaVuSans-20" x="1368.597656"/>
     <use xlink:href="#DejaVuSans-69" x="1400.384766"/>
     <use xlink:href="#DejaVuSans-6e" x="1428.167969"/>
     <use xlink:href="#DejaVuSans-20" x="1491.546875"/>
     <use xlink:href="#DejaVuSans-70" x="1523.333984"/>
     <use xlink:href="#DejaVuSans-61" x="1586.810547"/>
     <use xlink:href="#DejaVuSans-72" x="1648.089844"/>
     <use xlink:href="#DejaVuSans-74" x="1689.203125"/>
     <use xlink:href="#DejaVuSans-69" x="1728.412109"/>
     <use xlink:href="#DejaVuSans-63" x="1756.195312"/>
     <use xlink:href="#DejaVuSans-6c" x="1811.175781"/>
     <use xlink:href="#DejaVuSans-65" x="1838.958984"/>
     <use xlink:href="#DejaVuSans-27" x="1900.482422"/>
     <use xlink:href="#DejaVuSans-73" x="1927.972656"/>
     <use xlink:href="#DejaVuSans-20" x="1980.072266"/>
     <use xlink:href="#DejaVuSans-50" x="2011.859375"/>
     <use xlink:href="#DejaVuSans-72" x="2070.412109"/>
     <use xlink:href="#DejaVuSans-6f" x="2109.275391"/>
     <use xlink:href="#DejaVuSans-70" x="2170.457031"/>
     <use xlink:href="#DejaVuSans-65" x="2233.933594"/>
     <use xlink:href="#DejaVuSans-72" x="2295.457031"/>
     <use xlink:href="#DejaVuSans-20" x="2336.570312"/>
     <use xlink:href="#DejaVuSans-46" x="2368.357422"/>
     <use xlink:href="#DejaVuSans-72" x="2418.626953"/>
     <use xlink:href="#DejaVuSans-61" x="2459.740234"/>
     <use xlink:href="#DejaVuSans-6d" x="2521.019531"/>
     <use xlink:href="#DejaVuSans-65" x="2618.431641"/>
    </g>
   </g>
  </g>
 </g>
 <defs>
  <clipPath id="p7e18d840c3">
   <rect x="57.6" y="41.472" width="357.12" height="266.112"/>
  </clipPath>
 </defs>
</svg>
