<?xml version="1.0" encoding="utf-8" standalone="no"?>
<!DOCTYPE svg PUBLIC "-//W3C//DTD SVG 1.1//EN"
  "http://www.w3.org/Graphics/SVG/1.1/DTD/svg11.dtd">
<svg xmlns:xlink="http://www.w3.org/1999/xlink" width="432pt" height="288pt" viewBox="0 0 432 288" xmlns="http://www.w3.org/2000/svg" version="1.1">
 <metadata>
  <rdf:RDF xmlns:dc="http://purl.org/dc/elements/1.1/" xmlns:cc="http://creativecommons.org/ns#" xmlns:rdf="http://www.w3.org/1999/02/22-rdf-syntax-ns#">
   <cc:Work>
    <dc:type rdf:resource="http://purl.org/dc/dcmitype/StillImage"/>
    <dc:date>2022-09-30T23:33:36.945729</dc:date>
    <dc:format>image/svg+xml</dc:format>
    <dc:creator>
     <cc:Agent>
      <dc:title>Matplotlib v3.5.1, https://matplotlib.org/</dc:title>
     </cc:Agent>
    </dc:creator>
   </cc:Work>
  </rdf:RDF>
 </metadata>
 <defs>
  <style type="text/css">*{stroke-linejoin: round; stroke-linecap: butt}</style>
 </defs>
 <g id="figure_1">
  <g id="axes_1">
   <g id="patch_1">
    <path d="M 221.4 42.1704 
L 222.4872 45.432 
L 221.405436 45.432 
L 221.405436 143.28 
L 221.394564 143.28 
L 221.394564 45.432 
L 220.3128 45.432 
z
" clip-path="url(#pbb14ffdbdf)" style="fill: #3079f7; stroke: #3079f7; stroke-linejoin: miter"/>
   </g>
   <g id="patch_2">
    <path d="M 222.833651 42.180565 
L 223.874495 45.457252 
L 222.792839 45.441914 
L 221.405435 143.280077 
L 221.394565 143.279923 
L 222.781968 45.44176 
L 221.700313 45.426421 
z
" clip-path="url(#pbb14ffdbdf)" style="fill: #3079f7; stroke: #3079f7; stroke-linejoin: miter"/>
   </g>
   <g id="patch_3">
    <path d="M 224.272498 42.211212 
L 225.266598 45.502382 
L 224.185271 45.47165 
L 221.405434 143.280154 
L 221.394566 143.279846 
L 224.174403 45.471341 
L 223.093076 45.440608 
z
" clip-path="url(#pbb14ffdbdf)" style="fill: #2e7bf7; stroke: #2e7bf7; stroke-linejoin: miter"/>
   </g>
   <g id="patch_4">
    <path d="M 225.721811 42.262808 
L 226.668604 45.567898 
L 225.587829 45.521659 
L 221.405431 143.280232 
L 221.394569 143.279768 
L 225.576967 45.521194 
L 224.496191 45.474956 
z
" clip-path="url(#pbb14ffdbdf)" style="fill: #2e7bf7; stroke: #2e7bf7; stroke-linejoin: miter"/>
   </g>
   <g id="patch_5">
    <path d="M 227.187004 42.336145 
L 228.085745 45.654625 
L 227.005754 45.59271 
L 221.405427 143.280311 
L 221.394573 143.279689 
L 226.9949 45.592088 
L 225.914909 45.530173 
z
" clip-path="url(#pbb14ffdbdf)" style="fill: #2e7bf7; stroke: #2e7bf7; stroke-linejoin: miter"/>
   </g>
   <g id="patch_6">
    <path d="M 228.673718 42.432371 
L 229.523465 45.763732 
L 228.444504 45.685912 
L 221.405422 143.280391 
L 221.394578 143.279609 
L 228.43366 45.685129 
L 227.354698 45.607308 
z
" clip-path="url(#pbb14ffdbdf)" style="fill: #2e7bf7; stroke: #2e7bf7; stroke-linejoin: miter"/>
   </g>
   <g id="patch_7">
    <path d="M 230.187899 42.553022 
L 230.987504 45.896773 
L 229.909833 45.802752 
L 221.405415 143.280472 
L 221.394585 143.279528 
L 229.899003 45.801807 
L 228.821332 45.707786 
z
" clip-path="url(#pbb14ffdbdf)" style="fill: #2e7bf7; stroke: #2e7bf7; stroke-linejoin: miter"/>
   </g>
   <g id="patch_8">
    <path d="M 231.735898 42.700079 
L 232.483986 46.055732 
L 231.407889 45.945149 
L 221.405408 143.280556 
L 221.394592 143.279444 
L 231.397074 45.944037 
L 230.320977 45.833454 
z
" clip-path="url(#pbb14ffdbdf)" style="fill: #2e7bf7; stroke: #2e7bf7; stroke-linejoin: miter"/>
   </g>
   <g id="patch_9">
    <path d="M 233.324572 42.876037 
L 234.019521 46.243096 
L 232.945307 46.115516 
L 221.405398 143.280641 
L 221.394602 143.279359 
L 232.934511 46.114233 
L 231.860296 45.986653 
z
" clip-path="url(#pbb14ffdbdf)" style="fill: #2e7bf7; stroke: #2e7bf7; stroke-linejoin: miter"/>
   </g>
   <g id="patch_10">
    <path d="M 234.961408 43.083995 
L 235.60132 46.461946 
L 234.52933 46.316853 
L 221.405387 143.280729 
L 221.394613 143.279271 
L 234.518557 46.315395 
L 233.446567 46.170303 
z
" clip-path="url(#pbb14ffdbdf)" style="fill: #2e7bf7; stroke: #2e7bf7; stroke-linejoin: miter"/>
   </g>
   <g id="patch_11">
    <path d="M 236.65466 43.327779 
L 237.237329 46.716072 
L 236.167948 46.552864 
L 221.405374 143.28082 
L 221.394626 143.27918 
L 236.1572 46.551224 
L 235.087819 46.388015 
z
" clip-path="url(#pbb14ffdbdf)" style="fill: #2e7bf7; stroke: #2e7bf7; stroke-linejoin: miter"/>
   </g>
   <g id="patch_12">
    <path d="M 238.413513 43.612093 
L 238.936387 47.010128 
L 237.870048 46.828102 
L 221.405358 143.280915 
L 221.394642 143.279085 
L 237.859331 46.826272 
L 236.792992 46.644246 
z
" clip-path="url(#pbb14ffdbdf)" style="fill: #2e7bf7; stroke: #2e7bf7; stroke-linejoin: miter"/>
   </g>
   <g id="patch_13">
    <path d="M 240.248282 43.942729 
L 240.708415 47.349826 
L 239.645613 47.14817 
L 221.405341 143.281013 
L 221.394659 143.278987 
L 239.634932 47.146143 
L 238.57213 46.944487 
z
" clip-path="url(#pbb14ffdbdf)" style="fill: #2e7bf7; stroke: #2e7bf7; stroke-linejoin: miter"/>
   </g>
   <g id="patch_14">
    <path d="M 242.170644 44.326821 
L 242.564635 47.7422 
L 241.505943 47.519976 
L 221.40532 143.281117 
L 221.39468 143.278883 
L 241.495303 47.517743 
L 240.43661 47.295519 
z
" clip-path="url(#pbb14ffdbdf)" style="fill: #2e7bf7; stroke: #2e7bf7; stroke-linejoin: miter"/>
   </g>
   <g id="patch_15">
    <path d="M 244.193918 44.773206 
L 244.517844 48.19594 
L 243.463927 47.95207 
L 221.405296 143.281225 
L 221.394704 143.278775 
L 243.453335 47.949619 
L 242.399418 47.705748 
z
" clip-path="url(#pbb14ffdbdf)" style="fill: #2e7bf7; stroke: #2e7bf7; stroke-linejoin: miter"/>
   </g>
   <g id="patch_16">
    <path d="M 246.333411 45.292877 
L 246.582732 48.721853 
L 245.534376 48.455093 
L 221.405268 143.281341 
L 221.394732 143.278659 
L 245.523839 48.452412 
L 244.475482 48.185651 
z
" clip-path="url(#pbb14ffdbdf)" style="fill: #2e7bf7; stroke: #2e7bf7; stroke-linejoin: miter"/>
   </g>
   <g id="patch_17">
    <path d="M 248.606823 45.899612 
L 248.776285 49.333461 
L 247.734419 49.042378 
L 221.405236 143.281463 
L 221.394764 143.278537 
L 247.723948 49.039452 
L 246.682083 48.748368 
z
" clip-path="url(#pbb14ffdbdf)" style="fill: #2e7bf7; stroke: #2e7bf7; stroke-linejoin: miter"/>
   </g>
   <g id="patch_18">
    <path d="M 251.034757 46.61081 
L 251.118251 50.047824 
L 250.083995 49.730764 
L 221.405197 143.281593 
L 221.394803 143.278407 
L 250.0736 49.727577 
L 249.039344 49.410517 
z
" clip-path="url(#pbb14ffdbdf)" style="fill: #2e7bf7; stroke: #2e7bf7; stroke-linejoin: miter"/>
   </g>
   <g id="patch_19">
    <path d="M 253.641319 47.448645 
L 253.631721 50.88666 
L 252.606429 50.541713 
L 221.405152 143.281733 
L 221.394848 143.278267 
L 252.596124 50.538246 
L 251.570832 50.193298 
z
" clip-path="url(#pbb14ffdbdf)" style="fill: #2c7ef7; stroke: #2c7ef7; stroke-linejoin: miter"/>
   </g>
   <g id="patch_20">
    <path d="M 256.454847 48.44167 
L 256.343813 51.877904 
L 255.329144 51.502855 
L 221.405099 143.281885 
L 221.394901 143.278115 
L 255.318947 51.499086 
L 254.304279 51.124037 
z
" clip-path="url(#pbb14ffdbdf)" style="fill: #2c7ef7; stroke: #2c7ef7; stroke-linejoin: miter"/>
   </g>
   <g id="patch_21">
    <path d="M 259.508761 49.627058 
L 259.286467 53.057892 
L 258.284481 52.650169 
L 221.405035 143.282049 
L 221.394965 143.277951 
L 258.274411 52.646072 
L 257.272425 52.238349 
z
" clip-path="url(#pbb14ffdbdf)" style="fill: #2c7ef7; stroke: #2c7ef7; stroke-linejoin: miter"/>
   </g>
   <g id="patch_22">
    <path d="M 262.842522 51.053818 
L 262.497346 54.474475 
L 261.510625 54.031085 
L 221.404958 143.282228 
L 221.395042 143.277772 
L 261.500708 54.026628 
L 260.513987 53.583238 
z
" clip-path="url(#pbb14ffdbdf)" style="fill: #2c7ef7; stroke: #2c7ef7; stroke-linejoin: miter"/>
   </g>
   <g id="patch_23">
    <path d="M 266.502633 52.787438 
L 266.020747 56.191528 
L 265.052574 55.708978 
L 221.404865 143.282425 
L 221.395135 143.277575 
L 265.042844 55.704128 
L 264.074671 55.221579 
z
" clip-path="url(#pbb14ffdbdf)" style="fill: #2981f6; stroke: #2981f6; stroke-linejoin: miter"/>
   </g>
   <g id="patch_24">
    <path d="M 270.543468 54.916712 
L 269.908338 58.295565 
L 268.962946 57.769782 
L 221.404751 143.282642 
L 221.395249 143.277358 
L 268.953444 57.764498 
L 268.008052 57.238716 
z
" clip-path="url(#pbb14ffdbdf)" style="fill: #2981f6; stroke: #2981f6; stroke-linejoin: miter"/>
   </g>
   <g id="patch_25">
    <path d="M 275.027481 57.563931 
L 274.219241 60.905605 
L 273.302171 60.331849 
L 221.404608 143.282883 
L 221.395392 143.277117 
L 273.292954 60.326082 
L 272.375884 59.752326 
z
" clip-path="url(#pbb14ffdbdf)" style="fill: #2884f6; stroke: #2884f6; stroke-linejoin: miter"/>
   </g>
   <g id="patch_26">
    <path d="M 280.0237 60.900312 
L 279.018416 64.188083 
L 278.137042 63.560873 
L 221.404429 143.283152 
L 221.395571 143.276848 
L 278.128184 63.554569 
L 277.24681 62.927359 
z
" clip-path="url(#pbb14ffdbdf)" style="fill: #2686f5; stroke: #2686f5; stroke-linejoin: miter"/>
   </g>
   <g id="patch_27">
    <path d="M 285.602133 65.169583 
L 284.370994 68.379619 
L 283.535296 67.692725 
L 221.404199 143.283452 
L 221.395801 143.276548 
L 283.526897 67.685822 
L 282.6912 66.998928 
z
" clip-path="url(#pbb14ffdbdf)" style="fill: #2489f5; stroke: #2489f5; stroke-linejoin: miter"/>
   </g>
   <g id="patch_28">
    <path d="M 291.81881 70.724212 
L 290.327405 73.821912 
L 289.551136 73.068507 
L 221.403901 143.283786 
L 221.396099 143.276214 
L 289.543334 73.060935 
L 288.767066 72.307529 
z
" clip-path="url(#pbb14ffdbdf)" style="fill: #218cf4; stroke: #218cf4; stroke-linejoin: miter"/>
   </g>
   <g id="patch_29">
    <path d="M 298.679725 78.080343 
L 296.887902 81.014522 
L 296.190336 80.187712 
L 221.403505 143.284155 
L 221.396495 143.275845 
L 296.183325 80.179403 
L 295.485759 79.352593 
z
" clip-path="url(#pbb14ffdbdf)" style="fill: #1e91f3; stroke: #1e91f3; stroke-linejoin: miter"/>
   </g>
   <g id="patch_30">
    <path d="M 306.057844 87.997086 
L 303.921386 90.690705 
L 303.329918 89.784957 
L 221.402972 143.284551 
L 221.397028 143.275449 
L 303.323974 89.775854 
L 302.732506 88.870106 
z
" clip-path="url(#pbb14ffdbdf)" style="fill: #1898f2; stroke: #1898f2; stroke-linejoin: miter"/>
   </g>
   <g id="patch_31">
    <path d="M 313.507391 101.574129 
L 310.984635 103.909882 
L 310.538427 102.924432 
L 221.402242 143.284952 
L 221.397758 143.275048 
L 310.533943 102.914528 
L 310.087735 101.929078 
z
" clip-path="url(#pbb14ffdbdf)" style="fill: #0ea5ef; stroke: #0ea5ef; stroke-linejoin: miter"/>
   </g>
   <g id="patch_32">
    <path d="M 319.865117 120.306711 
L 316.935847 122.106549 
L 316.690058 121.053079 
L 221.401235 143.285294 
L 221.398765 143.274706 
L 316.687587 121.042491 
L 316.441798 119.98902 
z
" clip-path="url(#pbb14ffdbdf)" style="fill: #02b7eb; stroke: #02b7eb; stroke-linejoin: miter"/>
   </g>
   <g id="patch_33">
    <path d="M 322.477079 145.84425 
L 319.188955 146.848383 
L 319.21639 145.766967 
L 221.399862 143.285434 
L 221.400138 143.274566 
L 319.216666 145.756098 
L 319.2441 144.674682 
z
" clip-path="url(#pbb14ffdbdf)" style="fill: #22d6e0; stroke: #22d6e0; stroke-linejoin: miter"/>
   </g>
   <g id="patch_34">
    <path d="M 316.102976 178.698887 
L 312.667193 178.574654 
L 313.046137 177.561434 
L 221.398096 143.285092 
L 221.401904 143.274908 
L 313.049946 177.55125 
L 313.42889 176.53803 
z
" clip-path="url(#pbb14ffdbdf)" style="fill: #6efebe; stroke: #6efebe; stroke-linejoin: miter"/>
   </g>
   <g id="patch_35">
    <path d="M 293.003442 214.666961 
L 289.926052 213.134086 
L 290.689816 212.368006 
L 221.396162 143.28385 
L 221.403838 143.27615 
L 290.697492 212.360306 
L 291.461256 211.594227 
z
" clip-path="url(#pbb14ffdbdf)" style="fill: #ff2914; stroke: #ff2914; stroke-linejoin: miter"/>
   </g>
   <g id="patch_36">
    <path d="M 248.820302 240.600492 
L 246.889319 237.755964 
L 247.930544 237.462596 
L 221.394768 143.281474 
L 221.405232 143.278526 
L 247.941008 237.459648 
L 248.982233 237.16628 
z
" clip-path="url(#pbb14ffdbdf)" style="fill: #ff0000; stroke: #ff0000; stroke-linejoin: miter"/>
   </g>
   <g id="patch_37">
    <path d="M 193.979698 240.600492 
L 193.817767 237.16628 
L 194.858992 237.459648 
L 221.394768 143.278526 
L 221.405232 143.281474 
L 194.869456 237.462596 
L 195.910681 237.755964 
z
" clip-path="url(#pbb14ffdbdf)" style="fill: #ff0000; stroke: #ff0000; stroke-linejoin: miter"/>
   </g>
   <g id="patch_38">
    <path d="M 149.796558 214.666961 
L 151.338744 211.594227 
L 152.102508 212.360306 
L 221.396162 143.27615 
L 221.403838 143.28385 
L 152.110184 212.368006 
L 152.873948 213.134086 
z
" clip-path="url(#pbb14ffdbdf)" style="fill: #ff2914; stroke: #ff2914; stroke-linejoin: miter"/>
   </g>
   <g id="patch_39">
    <path d="M 126.697024 178.698887 
L 129.37111 176.53803 
L 129.750054 177.55125 
L 221.398096 143.274908 
L 221.401904 143.285092 
L 129.753863 177.561434 
L 130.132807 178.574654 
z
" clip-path="url(#pbb14ffdbdf)" style="fill: #6efebe; stroke: #6efebe; stroke-linejoin: miter"/>
   </g>
   <g id="patch_40">
    <path d="M 120.322921 145.84425 
L 123.5559 144.674682 
L 123.583334 145.756098 
L 221.399862 143.274566 
L 221.400138 143.285434 
L 123.58361 145.766967 
L 123.611045 146.848383 
z
" clip-path="url(#pbb14ffdbdf)" style="fill: #22d6e0; stroke: #22d6e0; stroke-linejoin: miter"/>
   </g>
   <g id="patch_41">
    <path d="M 122.934883 120.306711 
L 126.358202 119.98902 
L 126.112413 121.042491 
L 221.401235 143.274706 
L 221.398765 143.285294 
L 126.109942 121.053079 
L 125.864153 122.106549 
z
" clip-path="url(#pbb14ffdbdf)" style="fill: #02b7eb; stroke: #02b7eb; stroke-linejoin: miter"/>
   </g>
   <g id="patch_42">
    <path d="M 129.292609 101.574129 
L 132.712265 101.929078 
L 132.266057 102.914528 
L 221.402242 143.275048 
L 221.397758 143.284952 
L 132.261573 102.924432 
L 131.815365 103.909882 
z
" clip-path="url(#pbb14ffdbdf)" style="fill: #0ea5ef; stroke: #0ea5ef; stroke-linejoin: miter"/>
   </g>
   <g id="patch_43">
    <path d="M 136.742156 87.997086 
L 140.067494 88.870106 
L 139.476026 89.775854 
L 221.402972 143.275449 
L 221.397028 143.284551 
L 139.470082 89.784957 
L 138.878614 90.690705 
z
" clip-path="url(#pbb14ffdbdf)" style="fill: #1898f2; stroke: #1898f2; stroke-linejoin: miter"/>
   </g>
   <g id="patch_44">
    <path d="M 144.120275 78.080343 
L 147.314241 79.352593 
L 146.616675 80.179403 
L 221.403505 143.275845 
L 221.396495 143.284155 
L 146.609664 80.187712 
L 145.912098 81.014522 
z
" clip-path="url(#pbb14ffdbdf)" style="fill: #1e91f3; stroke: #1e91f3; stroke-linejoin: miter"/>
   </g>
   <g id="patch_45">
    <path d="M 150.98119 70.724212 
L 154.032934 72.307529 
L 153.256666 73.060935 
L 221.403901 143.276214 
L 221.396099 143.283786 
L 153.248864 73.068507 
L 152.472595 73.821912 
z
" clip-path="url(#pbb14ffdbdf)" style="fill: #218cf4; stroke: #218cf4; stroke-linejoin: miter"/>
   </g>
   <g id="patch_46">
    <path d="M 157.197867 65.169583 
L 160.1088 66.998928 
L 159.273103 67.685822 
L 221.404199 143.276548 
L 221.395801 143.283452 
L 159.264704 67.692725 
L 158.429006 68.379619 
z
" clip-path="url(#pbb14ffdbdf)" style="fill: #2489f5; stroke: #2489f5; stroke-linejoin: miter"/>
   </g>
   <g id="patch_47">
    <path d="M 162.7763 60.900312 
L 165.55319 62.927359 
L 164.671816 63.554569 
L 221.404429 143.276848 
L 221.395571 143.283152 
L 164.662958 63.560873 
L 163.781584 64.188083 
z
" clip-path="url(#pbb14ffdbdf)" style="fill: #2686f5; stroke: #2686f5; stroke-linejoin: miter"/>
   </g>
   <g id="patch_48">
    <path d="M 167.772519 57.563931 
L 170.424116 59.752326 
L 169.507046 60.326082 
L 221.404608 143.277117 
L 221.395392 143.282883 
L 169.497829 60.331849 
L 168.580759 60.905605 
z
" clip-path="url(#pbb14ffdbdf)" style="fill: #2884f6; stroke: #2884f6; stroke-linejoin: miter"/>
   </g>
   <g id="patch_49">
    <path d="M 172.256532 54.916712 
L 174.791948 57.238716 
L 173.846556 57.764498 
L 221.404751 143.277358 
L 221.395249 143.282642 
L 173.837054 57.769782 
L 172.891662 58.295565 
z
" clip-path="url(#pbb14ffdbdf)" style="fill: #2981f6; stroke: #2981f6; stroke-linejoin: miter"/>
   </g>
   <g id="patch_50">
    <path d="M 176.297367 52.787438 
L 178.725329 55.221579 
L 177.757156 55.704128 
L 221.404865 143.277575 
L 221.395135 143.282425 
L 177.747426 55.708978 
L 176.779253 56.191528 
z
" clip-path="url(#pbb14ffdbdf)" style="fill: #2981f6; stroke: #2981f6; stroke-linejoin: miter"/>
   </g>
   <g id="patch_51">
    <path d="M 179.957478 51.053818 
L 182.286013 53.583238 
L 181.299292 54.026628 
L 221.404958 143.277772 
L 221.395042 143.282228 
L 181.289375 54.031085 
L 180.302654 54.474475 
z
" clip-path="url(#pbb14ffdbdf)" style="fill: #2c7ef7; stroke: #2c7ef7; stroke-linejoin: miter"/>
   </g>
   <g id="patch_52">
    <path d="M 183.291239 49.627058 
L 185.527575 52.238349 
L 184.525589 52.646072 
L 221.405035 143.277951 
L 221.394965 143.282049 
L 184.515519 52.650169 
L 183.513533 53.057892 
z
" clip-path="url(#pbb14ffdbdf)" style="fill: #2c7ef7; stroke: #2c7ef7; stroke-linejoin: miter"/>
   </g>
   <g id="patch_53">
    <path d="M 186.345153 48.44167 
L 188.495721 51.124037 
L 187.481053 51.499086 
L 221.405099 143.278115 
L 221.394901 143.281885 
L 187.470856 51.502855 
L 186.456187 51.877904 
z
" clip-path="url(#pbb14ffdbdf)" style="fill: #2c7ef7; stroke: #2c7ef7; stroke-linejoin: miter"/>
   </g>
   <g id="patch_54">
    <path d="M 189.158681 47.448645 
L 191.229168 50.193298 
L 190.203876 50.538246 
L 221.405152 143.278267 
L 221.394848 143.281733 
L 190.193571 50.541713 
L 189.168279 50.88666 
z
" clip-path="url(#pbb14ffdbdf)" style="fill: #2c7ef7; stroke: #2c7ef7; stroke-linejoin: miter"/>
   </g>
   <g id="patch_55">
    <path d="M 191.765243 46.61081 
L 193.760656 49.410517 
L 192.7264 49.727577 
L 221.405197 143.278407 
L 221.394803 143.281593 
L 192.716005 49.730764 
L 191.681749 50.047824 
z
" clip-path="url(#pbb14ffdbdf)" style="fill: #2e7bf7; stroke: #2e7bf7; stroke-linejoin: miter"/>
   </g>
   <g id="patch_56">
    <path d="M 194.193177 45.899612 
L 196.117917 48.748368 
L 195.076052 49.039452 
L 221.405236 143.278537 
L 221.394764 143.281463 
L 195.065581 49.042378 
L 194.023715 49.333461 
z
" clip-path="url(#pbb14ffdbdf)" style="fill: #2e7bf7; stroke: #2e7bf7; stroke-linejoin: miter"/>
   </g>
   <g id="patch_57">
    <path d="M 196.466589 45.292877 
L 198.324518 48.185651 
L 197.276161 48.452412 
L 221.405268 143.278659 
L 221.394732 143.281341 
L 197.265624 48.455093 
L 196.217268 48.721853 
z
" clip-path="url(#pbb14ffdbdf)" style="fill: #2e7bf7; stroke: #2e7bf7; stroke-linejoin: miter"/>
   </g>
   <g id="patch_58">
    <path d="M 198.606082 44.773206 
L 200.400582 47.705748 
L 199.346665 47.949619 
L 221.405296 143.278775 
L 221.394704 143.281225 
L 199.336073 47.95207 
L 198.282156 48.19594 
z
" clip-path="url(#pbb14ffdbdf)" style="fill: #2e7bf7; stroke: #2e7bf7; stroke-linejoin: miter"/>
   </g>
   <g id="patch_59">
    <path d="M 200.629356 44.326821 
L 202.36339 47.295519 
L 201.304697 47.517743 
L 221.40532 143.278883 
L 221.39468 143.281117 
L 201.294057 47.519976 
L 200.235365 47.7422 
z
" clip-path="url(#pbb14ffdbdf)" style="fill: #2e7bf7; stroke: #2e7bf7; stroke-linejoin: miter"/>
   </g>
   <g id="patch_60">
    <path d="M 202.551718 43.942729 
L 204.22787 46.944487 
L 203.165068 47.146143 
L 221.405341 143.278987 
L 221.394659 143.281013 
L 203.154387 47.14817 
L 202.091585 47.349826 
z
" clip-path="url(#pbb14ffdbdf)" style="fill: #2e7bf7; stroke: #2e7bf7; stroke-linejoin: miter"/>
   </g>
   <g id="patch_61">
    <path d="M 204.386487 43.612093 
L 206.007008 46.644246 
L 204.940669 46.826272 
L 221.405358 143.279085 
L 221.394642 143.280915 
L 204.929952 46.828102 
L 203.863613 47.010128 
z
" clip-path="url(#pbb14ffdbdf)" style="fill: #2e7bf7; stroke: #2e7bf7; stroke-linejoin: miter"/>
   </g>
   <g id="patch_62">
    <path d="M 206.14534 43.327779 
L 207.712181 46.388015 
L 206.6428 46.551224 
L 221.405374 143.27918 
L 221.394626 143.28082 
L 206.632052 46.552864 
L 205.562671 46.716072 
z
" clip-path="url(#pbb14ffdbdf)" style="fill: #2e7bf7; stroke: #2e7bf7; stroke-linejoin: miter"/>
   </g>
   <g id="patch_63">
    <path d="M 207.838592 43.083995 
L 209.353433 46.170303 
L 208.281443 46.315395 
L 221.405387 143.279271 
L 221.394613 143.280729 
L 208.27067 46.316853 
L 207.19868 46.461946 
z
" clip-path="url(#pbb14ffdbdf)" style="fill: #2e7bf7; stroke: #2e7bf7; stroke-linejoin: miter"/>
   </g>
   <g id="patch_64">
    <path d="M 209.475428 42.876037 
L 210.939704 45.986653 
L 209.865489 46.114233 
L 221.405398 143.279359 
L 221.394602 143.280641 
L 209.854693 46.115516 
L 208.780479 46.243096 
z
" clip-path="url(#pbb14ffdbdf)" style="fill: #2e7bf7; stroke: #2e7bf7; stroke-linejoin: miter"/>
   </g>
   <g id="patch_65">
    <path d="M 211.064102 42.700079 
L 212.479023 45.833454 
L 211.402926 45.944037 
L 221.405408 143.279444 
L 221.394592 143.280556 
L 211.392111 45.945149 
L 210.316014 46.055732 
z
" clip-path="url(#pbb14ffdbdf)" style="fill: #2e7bf7; stroke: #2e7bf7; stroke-linejoin: miter"/>
   </g>
   <g id="patch_66">
    <path d="M 212.612101 42.553022 
L 213.978668 45.707786 
L 212.900997 45.801807 
L 221.405415 143.279528 
L 221.394585 143.280472 
L 212.890167 45.802752 
L 211.812496 45.896773 
z
" clip-path="url(#pbb14ffdbdf)" style="fill: #2e7bf7; stroke: #2e7bf7; stroke-linejoin: miter"/>
   </g>
   <g id="patch_67">
    <path d="M 214.126282 42.432371 
L 215.445302 45.607308 
L 214.36634 45.685129 
L 221.405422 143.279609 
L 221.394578 143.280391 
L 214.355496 45.685912 
L 213.276535 45.763732 
z
" clip-path="url(#pbb14ffdbdf)" style="fill: #2e7bf7; stroke: #2e7bf7; stroke-linejoin: miter"/>
   </g>
   <g id="patch_68">
    <path d="M 215.612996 42.336145 
L 216.885091 45.530173 
L 215.8051 45.592088 
L 221.405427 143.279689 
L 221.394573 143.280311 
L 215.794246 45.59271 
L 214.714255 45.654625 
z
" clip-path="url(#pbb14ffdbdf)" style="fill: #2e7bf7; stroke: #2e7bf7; stroke-linejoin: miter"/>
   </g>
   <g id="patch_69">
    <path d="M 217.078189 42.262808 
L 218.303809 45.474956 
L 217.223033 45.521194 
L 221.405431 143.279768 
L 221.394569 143.280232 
L 217.212171 45.521659 
L 216.131396 45.567898 
z
" clip-path="url(#pbb14ffdbdf)" style="fill: #2e7bf7; stroke: #2e7bf7; stroke-linejoin: miter"/>
   </g>
   <g id="patch_70">
    <path d="M 218.527502 42.211212 
L 219.706924 45.440608 
L 218.625597 45.471341 
L 221.405434 143.279846 
L 221.394566 143.280154 
L 218.614729 45.47165 
L 217.533402 45.502382 
z
" clip-path="url(#pbb14ffdbdf)" style="fill: #2e7bf7; stroke: #2e7bf7; stroke-linejoin: miter"/>
   </g>
   <g id="patch_71">
    <path d="M 219.966349 42.180565 
L 221.099687 45.426421 
L 220.018032 45.44176 
L 221.405435 143.279923 
L 221.394565 143.280077 
L 220.007161 45.441914 
L 218.925505 45.457252 
z
" clip-path="url(#pbb14ffdbdf)" style="fill: #3079f7; stroke: #3079f7; stroke-linejoin: miter"/>
   </g>
   <g id="PathCollection_1">
    <defs>
     <path id="me9ac8ba5d5" d="M 0 2.738613 
C 0.726289 2.738613 1.422928 2.450055 1.936492 1.936492 
C 2.450055 1.422928 2.738613 0.726289 2.738613 0 
C 2.738613 -0.726289 2.450055 -1.422928 1.936492 -1.936492 
C 1.422928 -2.450055 0.726289 -2.738613 0 -2.738613 
C -0.726289 -2.738613 -1.422928 -2.450055 -1.936492 -1.936492 
C -2.450055 -1.422928 -2.738613 -0.726289 -2.738613 0 
C -2.738613 0.726289 -2.450055 1.422928 -1.936492 1.936492 
C -1.422928 2.450055 -0.726289 2.738613 0 2.738613 
z
" style="stroke: #000000"/>
    </defs>
    <g clip-path="url(#pbb14ffdbdf)">
     <use xlink:href="#me9ac8ba5d5" x="221.4" y="143.28" style="stroke: #000000"/>
    </g>
   </g>
   <g id="Quiver_1">
    <path d="M 219.726 143.28 
L 219.726 65.3904 
L 213.03 63.7164 
L 221.4 50.3244 
L 229.77 63.7164 
L 223.074 65.3904 
L 223.074 143.28 
L 219.726 143.28 
" clip-path="url(#pbb14ffdbdf)"/>
   </g>
   <g id="text_1">
    <!-- Particle velocity = 0.95 c -->
    <g transform="translate(275.76 252)scale(0.1 -0.1)">
     <defs>
      <path id="DejaVuSans-Bold-50" d="M 588 4666 
L 2584 4666 
Q 3475 4666 3951 4270 
Q 4428 3875 4428 3144 
Q 4428 2409 3951 2014 
Q 3475 1619 2584 1619 
L 1791 1619 
L 1791 0 
L 588 0 
L 588 4666 
z
M 1791 3794 
L 1791 2491 
L 2456 2491 
Q 2806 2491 2997 2661 
Q 3188 2831 3188 3144 
Q 3188 3456 2997 3625 
Q 2806 3794 2456 3794 
L 1791 3794 
z
" transform="scale(0.015625)"/>
      <path id="DejaVuSans-Bold-61" d="M 2106 1575 
Q 1756 1575 1579 1456 
Q 1403 1338 1403 1106 
Q 1403 894 1545 773 
Q 1688 653 1941 653 
Q 2256 653 2472 879 
Q 2688 1106 2688 1447 
L 2688 1575 
L 2106 1575 
z
M 3816 1997 
L 3816 0 
L 2688 0 
L 2688 519 
Q 2463 200 2181 54 
Q 1900 -91 1497 -91 
Q 953 -91 614 226 
Q 275 544 275 1050 
Q 275 1666 698 1953 
Q 1122 2241 2028 2241 
L 2688 2241 
L 2688 2328 
Q 2688 2594 2478 2717 
Q 2269 2841 1825 2841 
Q 1466 2841 1156 2769 
Q 847 2697 581 2553 
L 581 3406 
Q 941 3494 1303 3539 
Q 1666 3584 2028 3584 
Q 2975 3584 3395 3211 
Q 3816 2838 3816 1997 
z
" transform="scale(0.015625)"/>
      <path id="DejaVuSans-Bold-72" d="M 3138 2547 
Q 2991 2616 2845 2648 
Q 2700 2681 2553 2681 
Q 2122 2681 1889 2404 
Q 1656 2128 1656 1613 
L 1656 0 
L 538 0 
L 538 3500 
L 1656 3500 
L 1656 2925 
Q 1872 3269 2151 3426 
Q 2431 3584 2822 3584 
Q 2878 3584 2943 3579 
Q 3009 3575 3134 3559 
L 3138 2547 
z
" transform="scale(0.015625)"/>
      <path id="DejaVuSans-Bold-74" d="M 1759 4494 
L 1759 3500 
L 2913 3500 
L 2913 2700 
L 1759 2700 
L 1759 1216 
Q 1759 972 1856 886 
Q 1953 800 2241 800 
L 2816 800 
L 2816 0 
L 1856 0 
Q 1194 0 917 276 
Q 641 553 641 1216 
L 641 2700 
L 84 2700 
L 84 3500 
L 641 3500 
L 641 4494 
L 1759 4494 
z
" transform="scale(0.015625)"/>
      <path id="DejaVuSans-Bold-69" d="M 538 3500 
L 1656 3500 
L 1656 0 
L 538 0 
L 538 3500 
z
M 538 4863 
L 1656 4863 
L 1656 3950 
L 538 3950 
L 538 4863 
z
" transform="scale(0.015625)"/>
      <path id="DejaVuSans-Bold-63" d="M 3366 3391 
L 3366 2478 
Q 3138 2634 2908 2709 
Q 2678 2784 2431 2784 
Q 1963 2784 1702 2511 
Q 1441 2238 1441 1747 
Q 1441 1256 1702 982 
Q 1963 709 2431 709 
Q 2694 709 2930 787 
Q 3166 866 3366 1019 
L 3366 103 
Q 3103 6 2833 -42 
Q 2563 -91 2291 -91 
Q 1344 -91 809 395 
Q 275 881 275 1747 
Q 275 2613 809 3098 
Q 1344 3584 2291 3584 
Q 2566 3584 2833 3536 
Q 3100 3488 3366 3391 
z
" transform="scale(0.015625)"/>
      <path id="DejaVuSans-Bold-6c" d="M 538 4863 
L 1656 4863 
L 1656 0 
L 538 0 
L 538 4863 
z
" transform="scale(0.015625)"/>
      <path id="DejaVuSans-Bold-65" d="M 4031 1759 
L 4031 1441 
L 1416 1441 
Q 1456 1047 1700 850 
Q 1944 653 2381 653 
Q 2734 653 3104 758 
Q 3475 863 3866 1075 
L 3866 213 
Q 3469 63 3072 -14 
Q 2675 -91 2278 -91 
Q 1328 -91 801 392 
Q 275 875 275 1747 
Q 275 2603 792 3093 
Q 1309 3584 2216 3584 
Q 3041 3584 3536 3087 
Q 4031 2591 4031 1759 
z
M 2881 2131 
Q 2881 2450 2695 2645 
Q 2509 2841 2209 2841 
Q 1884 2841 1681 2658 
Q 1478 2475 1428 2131 
L 2881 2131 
z
" transform="scale(0.015625)"/>
      <path id="DejaVuSans-Bold-20" transform="scale(0.015625)"/>
      <path id="DejaVuSans-Bold-76" d="M 97 3500 
L 1216 3500 
L 2088 1081 
L 2956 3500 
L 4078 3500 
L 2700 0 
L 1472 0 
L 97 3500 
z
" transform="scale(0.015625)"/>
      <path id="DejaVuSans-Bold-6f" d="M 2203 2784 
Q 1831 2784 1636 2517 
Q 1441 2250 1441 1747 
Q 1441 1244 1636 976 
Q 1831 709 2203 709 
Q 2569 709 2762 976 
Q 2956 1244 2956 1747 
Q 2956 2250 2762 2517 
Q 2569 2784 2203 2784 
z
M 2203 3584 
Q 3106 3584 3614 3096 
Q 4122 2609 4122 1747 
Q 4122 884 3614 396 
Q 3106 -91 2203 -91 
Q 1297 -91 786 396 
Q 275 884 275 1747 
Q 275 2609 786 3096 
Q 1297 3584 2203 3584 
z
" transform="scale(0.015625)"/>
      <path id="DejaVuSans-Bold-79" d="M 78 3500 
L 1197 3500 
L 2138 1125 
L 2938 3500 
L 4056 3500 
L 2584 -331 
Q 2363 -916 2067 -1148 
Q 1772 -1381 1288 -1381 
L 641 -1381 
L 641 -647 
L 991 -647 
Q 1275 -647 1404 -556 
Q 1534 -466 1606 -231 
L 1638 -134 
L 78 3500 
z
" transform="scale(0.015625)"/>
      <path id="DejaVuSans-Bold-3d" d="M 678 3084 
L 4684 3084 
L 4684 2350 
L 678 2350 
L 678 3084 
z
M 678 1663 
L 4684 1663 
L 4684 922 
L 678 922 
L 678 1663 
z
" transform="scale(0.015625)"/>
      <path id="DejaVuSans-Bold-30" d="M 2944 2338 
Q 2944 3213 2780 3570 
Q 2616 3928 2228 3928 
Q 1841 3928 1675 3570 
Q 1509 3213 1509 2338 
Q 1509 1453 1675 1090 
Q 1841 728 2228 728 
Q 2613 728 2778 1090 
Q 2944 1453 2944 2338 
z
M 4147 2328 
Q 4147 1169 3647 539 
Q 3147 -91 2228 -91 
Q 1306 -91 806 539 
Q 306 1169 306 2328 
Q 306 3491 806 4120 
Q 1306 4750 2228 4750 
Q 3147 4750 3647 4120 
Q 4147 3491 4147 2328 
z
" transform="scale(0.015625)"/>
      <path id="DejaVuSans-Bold-2e" d="M 653 1209 
L 1778 1209 
L 1778 0 
L 653 0 
L 653 1209 
z
" transform="scale(0.015625)"/>
      <path id="DejaVuSans-Bold-39" d="M 641 103 
L 641 966 
Q 928 831 1190 764 
Q 1453 697 1709 697 
Q 2247 697 2547 995 
Q 2847 1294 2900 1881 
Q 2688 1725 2447 1647 
Q 2206 1569 1925 1569 
Q 1209 1569 770 1986 
Q 331 2403 331 3084 
Q 331 3838 820 4291 
Q 1309 4744 2131 4744 
Q 3044 4744 3544 4128 
Q 4044 3513 4044 2388 
Q 4044 1231 3459 570 
Q 2875 -91 1856 -91 
Q 1528 -91 1228 -42 
Q 928 6 641 103 
z
M 2125 2350 
Q 2441 2350 2600 2554 
Q 2759 2759 2759 3169 
Q 2759 3575 2600 3781 
Q 2441 3988 2125 3988 
Q 1809 3988 1650 3781 
Q 1491 3575 1491 3169 
Q 1491 2759 1650 2554 
Q 1809 2350 2125 2350 
z
" transform="scale(0.015625)"/>
      <path id="DejaVuSans-Bold-35" d="M 678 4666 
L 3669 4666 
L 3669 3781 
L 1638 3781 
L 1638 3059 
Q 1775 3097 1914 3117 
Q 2053 3138 2203 3138 
Q 3056 3138 3531 2711 
Q 4006 2284 4006 1522 
Q 4006 766 3489 337 
Q 2972 -91 2053 -91 
Q 1656 -91 1267 -14 
Q 878 63 494 219 
L 494 1166 
Q 875 947 1217 837 
Q 1559 728 1863 728 
Q 2300 728 2551 942 
Q 2803 1156 2803 1522 
Q 2803 1891 2551 2103 
Q 2300 2316 1863 2316 
Q 1603 2316 1309 2248 
Q 1016 2181 678 2041 
L 678 4666 
z
" transform="scale(0.015625)"/>
     </defs>
     <use xlink:href="#DejaVuSans-Bold-50"/>
     <use xlink:href="#DejaVuSans-Bold-61" x="70.666016"/>
     <use xlink:href="#DejaVuSans-Bold-72" x="138.146484"/>
     <use xlink:href="#DejaVuSans-Bold-74" x="187.462891"/>
     <use xlink:href="#DejaVuSans-Bold-69" x="235.265625"/>
     <use xlink:href="#DejaVuSans-Bold-63" x="269.542969"/>
     <use xlink:href="#DejaVuSans-Bold-6c" x="328.820312"/>
     <use xlink:href="#DejaVuSans-Bold-65" x="363.097656"/>
     <use xlink:href="#DejaVuSans-Bold-20" x="430.919922"/>
     <use xlink:href="#DejaVuSans-Bold-76" x="465.734375"/>
     <use xlink:href="#DejaVuSans-Bold-65" x="530.919922"/>
     <use xlink:href="#DejaVuSans-Bold-6c" x="598.742188"/>
     <use xlink:href="#DejaVuSans-Bold-6f" x="633.019531"/>
     <use xlink:href="#DejaVuSans-Bold-63" x="701.720703"/>
     <use xlink:href="#DejaVuSans-Bold-69" x="760.998047"/>
     <use xlink:href="#DejaVuSans-Bold-74" x="795.275391"/>
     <use xlink:href="#DejaVuSans-Bold-79" x="843.078125"/>
     <use xlink:href="#DejaVuSans-Bold-20" x="908.263672"/>
     <use xlink:href="#DejaVuSans-Bold-3d" x="943.078125"/>
     <use xlink:href="#DejaVuSans-Bold-20" x="1026.867188"/>
     <use xlink:href="#DejaVuSans-Bold-30" x="1061.681641"/>
     <use xlink:href="#DejaVuSans-Bold-2e" x="1131.261719"/>
     <use xlink:href="#DejaVuSans-Bold-39" x="1169.25"/>
     <use xlink:href="#DejaVuSans-Bold-35" x="1238.830078"/>
     <use xlink:href="#DejaVuSans-Bold-20" x="1308.410156"/>
     <use xlink:href="#DejaVuSans-Bold-63" x="1343.224609"/>
    </g>
   </g>
  </g>
 </g>
 <defs>
  <clipPath id="pbb14ffdbdf">
   <rect x="54" y="34.56" width="334.8" height="217.44"/>
  </clipPath>
 </defs>
</svg>
