<?xml version="1.0" encoding="utf-8" standalone="no"?>
<!DOCTYPE svg PUBLIC "-//W3C//DTD SVG 1.1//EN"
  "http://www.w3.org/Graphics/SVG/1.1/DTD/svg11.dtd">
<svg xmlns:xlink="http://www.w3.org/1999/xlink" width="371.471307pt" height="231.84pt" viewBox="0 0 371.471307 231.84" xmlns="http://www.w3.org/2000/svg" version="1.1">
 <metadata>
  <rdf:RDF xmlns:dc="http://purl.org/dc/elements/1.1/" xmlns:cc="http://creativecommons.org/ns#" xmlns:rdf="http://www.w3.org/1999/02/22-rdf-syntax-ns#">
   <cc:Work>
    <dc:type rdf:resource="http://purl.org/dc/dcmitype/StillImage"/>
    <dc:date>2023-10-11T17:03:44.528337</dc:date>
    <dc:format>image/svg+xml</dc:format>
    <dc:creator>
     <cc:Agent>
      <dc:title>Matplotlib v3.7.2, https://matplotlib.org/</dc:title>
     </cc:Agent>
    </dc:creator>
   </cc:Work>
  </rdf:RDF>
 </metadata>
 <defs>
  <style type="text/css">*{stroke-linejoin: round; stroke-linecap: butt}</style>
 </defs>
 <g id="figure_1">
  <g id="axes_1">
   <g id="patch_1">
    <path d="M 174.6 24.002182 
L 175.588364 26.967273 
L 174.604942 26.967273 
L 174.604942 115.92 
L 174.595058 115.92 
L 174.595058 26.967273 
L 173.611636 26.967273 
z
" clip-path="url(#p866a81c2a5)" style="fill: #3079f7; stroke: #3079f7; stroke-linejoin: miter"/>
   </g>
   <g id="patch_2">
    <path d="M 175.903319 24.011422 
L 176.849541 26.990229 
L 175.866218 26.976285 
L 174.604941 115.92007 
L 174.595059 115.91993 
L 175.856335 26.976145 
L 174.873012 26.962201 
z
" clip-path="url(#p866a81c2a5)" style="fill: #3079f7; stroke: #3079f7; stroke-linejoin: miter"/>
   </g>
   <g id="patch_3">
    <path d="M 177.211362 24.039283 
L 178.115089 27.031257 
L 177.132064 27.003318 
L 174.60494 115.92014 
L 174.59506 115.91986 
L 177.122185 27.003037 
L 176.13916 26.975098 
z
" clip-path="url(#p866a81c2a5)" style="fill: #2e7bf7; stroke: #2e7bf7; stroke-linejoin: miter"/>
   </g>
   <g id="patch_4">
    <path d="M 178.528919 24.086189 
L 179.38964 27.090816 
L 178.407117 27.048781 
L 174.604937 115.920211 
L 174.595063 115.919789 
L 178.397242 27.048358 
L 177.414719 27.006323 
z
" clip-path="url(#p866a81c2a5)" style="fill: #2e7bf7; stroke: #2e7bf7; stroke-linejoin: miter"/>
   </g>
   <g id="patch_5">
    <path d="M 179.860913 24.152859 
L 180.67795 27.169659 
L 179.69614 27.113373 
L 174.604934 115.920283 
L 174.595066 115.919717 
L 179.686273 27.112807 
L 178.704463 27.056521 
z
" clip-path="url(#p866a81c2a5)" style="fill: #2e7bf7; stroke: #2e7bf7; stroke-linejoin: miter"/>
   </g>
   <g id="patch_6">
    <path d="M 181.212471 24.240337 
L 181.984968 27.268848 
L 181.004094 27.198101 
L 174.604929 115.920356 
L 174.595071 115.919644 
L 180.994236 27.19739 
L 180.013362 27.126644 
z
" clip-path="url(#p866a81c2a5)" style="fill: #2e7bf7; stroke: #2e7bf7; stroke-linejoin: miter"/>
   </g>
   <g id="patch_7">
    <path d="M 182.588999 24.35002 
L 183.315913 27.389794 
L 182.336212 27.30432 
L 174.604923 115.92043 
L 174.595077 115.91957 
L 182.326366 27.303461 
L 181.346666 27.217987 
z
" clip-path="url(#p866a81c2a5)" style="fill: #2e7bf7; stroke: #2e7bf7; stroke-linejoin: miter"/>
   </g>
   <g id="patch_8">
    <path d="M 183.996271 24.483709 
L 184.676351 27.534301 
L 183.698081 27.433771 
L 174.604916 115.920505 
L 174.595084 115.919495 
L 183.688249 27.432761 
L 182.709979 27.332231 
z
" clip-path="url(#p866a81c2a5)" style="fill: #2e7bf7; stroke: #2e7bf7; stroke-linejoin: miter"/>
   </g>
   <g id="patch_9">
    <path d="M 185.44052 24.64367 
L 186.072292 27.704632 
L 185.095733 27.588651 
L 174.604907 115.920583 
L 174.595093 115.919417 
L 185.085919 27.587485 
L 184.10936 27.471503 
z
" clip-path="url(#p866a81c2a5)" style="fill: #2e7bf7; stroke: #2e7bf7; stroke-linejoin: miter"/>
   </g>
   <g id="patch_10">
    <path d="M 186.928553 24.832723 
L 187.510291 27.903587 
L 186.535755 27.771685 
L 174.604897 115.920663 
L 174.595103 115.919337 
L 186.525961 27.770359 
L 185.551425 27.638457 
z
" clip-path="url(#p866a81c2a5)" style="fill: #2e7bf7; stroke: #2e7bf7; stroke-linejoin: miter"/>
   </g>
   <g id="patch_11">
    <path d="M 188.467872 25.054344 
L 188.997572 28.134611 
L 188.025407 27.98624 
L 174.604885 115.920746 
L 174.595115 115.919254 
L 188.015636 27.984749 
L 187.043472 27.836377 
z
" clip-path="url(#p866a81c2a5)" style="fill: #2e7bf7; stroke: #2e7bf7; stroke-linejoin: miter"/>
   </g>
   <g id="patch_12">
    <path d="M 190.06683 25.312812 
L 190.54217 28.401935 
L 189.572771 28.236456 
L 174.604871 115.920832 
L 174.595129 115.919168 
L 189.563028 28.234793 
L 188.593629 28.069315 
z
" clip-path="url(#p866a81c2a5)" style="fill: #2e7bf7; stroke: #2e7bf7; stroke-linejoin: miter"/>
   </g>
   <g id="patch_13">
    <path d="M 191.734801 25.61339 
L 192.153105 28.710751 
L 191.186921 28.527427 
L 174.604855 115.920921 
L 174.595145 115.919079 
L 191.177211 28.525585 
L 190.211027 28.342261 
z
" clip-path="url(#p866a81c2a5)" style="fill: #2e7bf7; stroke: #2e7bf7; stroke-linejoin: miter"/>
   </g>
   <g id="patch_14">
    <path d="M 193.482403 25.962565 
L 193.840578 29.067454 
L 192.87813 28.865433 
L 174.604836 115.921015 
L 174.595164 115.918985 
L 192.868457 28.863402 
L 191.906009 28.661381 
z
" clip-path="url(#p866a81c2a5)" style="fill: #2e7bf7; stroke: #2e7bf7; stroke-linejoin: miter"/>
   </g>
   <g id="patch_15">
    <path d="M 195.321744 26.368369 
L 195.616221 29.479946 
L 194.658115 29.258245 
L 174.604815 115.921114 
L 174.595185 115.918886 
L 194.648486 29.256017 
L 193.69038 29.034317 
z
" clip-path="url(#p866a81c2a5)" style="fill: #2e7bf7; stroke: #2e7bf7; stroke-linejoin: miter"/>
   </g>
   <g id="patch_16">
    <path d="M 197.266737 26.840797 
L 197.493393 29.958049 
L 196.540341 29.715539 
L 174.604789 115.921219 
L 174.595211 115.918781 
L 196.530763 29.713102 
L 195.577711 29.470592 
z
" clip-path="url(#p866a81c2a5)" style="fill: #2e7bf7; stroke: #2e7bf7; stroke-linejoin: miter"/>
   </g>
   <g id="patch_17">
    <path d="M 199.333476 27.392375 
L 199.487532 30.514056 
L 198.540381 30.249434 
L 174.60476 115.92133 
L 174.59524 115.91867 
L 198.530862 30.246775 
L 197.583712 29.982153 
z
" clip-path="url(#p866a81c2a5)" style="fill: #2e7bf7; stroke: #2e7bf7; stroke-linejoin: miter"/>
   </g>
   <g id="patch_18">
    <path d="M 201.540688 28.038918 
L 201.616592 31.163476 
L 200.676359 30.87524 
L 174.604725 115.921448 
L 174.595275 115.918552 
L 200.666909 30.872343 
L 199.726676 30.584107 
z
" clip-path="url(#p866a81c2a5)" style="fill: #2e7bf7; stroke: #2e7bf7; stroke-linejoin: miter"/>
   </g>
   <g id="patch_19">
    <path d="M 203.91029 28.800587 
L 203.901565 31.926055 
L 202.969481 31.612466 
L 174.604684 115.921576 
L 174.595316 115.918424 
L 202.960113 31.609314 
L 202.028029 31.295726 
z
" clip-path="url(#p866a81c2a5)" style="fill: #2c7ef7; stroke: #2c7ef7; stroke-linejoin: miter"/>
   </g>
   <g id="patch_20">
    <path d="M 206.468043 29.703336 
L 206.367102 32.827186 
L 205.444677 32.486232 
L 174.604635 115.921713 
L 174.595365 115.918287 
L 205.435406 32.482805 
L 204.512981 32.141852 
z
" clip-path="url(#p866a81c2a5)" style="fill: #2c7ef7; stroke: #2c7ef7; stroke-linejoin: miter"/>
   </g>
   <g id="patch_21">
    <path d="M 209.244328 30.780962 
L 209.042242 33.899902 
L 208.131346 33.529245 
L 174.604577 115.921863 
L 174.595423 115.918137 
L 208.122192 33.52552 
L 207.211295 33.154863 
z
" clip-path="url(#p866a81c2a5)" style="fill: #2c7ef7; stroke: #2c7ef7; stroke-linejoin: miter"/>
   </g>
   <g id="patch_22">
    <path d="M 212.27502 32.078017 
L 211.961224 35.187705 
L 211.064204 34.784622 
L 174.604508 115.922026 
L 174.595492 115.917974 
L 211.055189 34.780571 
L 210.15817 34.377489 
z
" clip-path="url(#p866a81c2a5)" style="fill: #2c7ef7; stroke: #2c7ef7; stroke-linejoin: miter"/>
   </g>
   <g id="patch_23">
    <path d="M 215.602393 33.654035 
L 215.164316 36.748662 
L 214.284158 36.30998 
L 174.604423 115.922204 
L 174.595577 115.917796 
L 214.275313 36.305571 
L 213.395155 35.86689 
z
" clip-path="url(#p866a81c2a5)" style="fill: #2981f6; stroke: #2981f6; stroke-linejoin: miter"/>
   </g>
   <g id="patch_24">
    <path d="M 219.27588 35.589738 
L 218.698489 38.661422 
L 217.839042 38.183438 
L 174.604319 115.922402 
L 174.595681 115.917598 
L 217.830404 38.178635 
L 216.970956 37.700651 
z
" clip-path="url(#p866a81c2a5)" style="fill: #2981f6; stroke: #2981f6; stroke-linejoin: miter"/>
   </g>
   <g id="patch_25">
    <path d="M 223.352256 37.996301 
L 222.617492 41.034187 
L 221.783792 40.51259 
L 174.604189 115.922621 
L 174.595811 115.917379 
L 221.775413 40.507348 
L 220.941713 39.985751 
z
" clip-path="url(#p866a81c2a5)" style="fill: #2884f6; stroke: #2884f6; stroke-linejoin: miter"/>
   </g>
   <g id="patch_26">
    <path d="M 227.894273 41.029374 
L 226.980378 44.018258 
L 226.179129 43.448066 
L 174.604026 115.922865 
L 174.595974 115.917135 
L 226.171076 43.442336 
L 225.369827 42.872144 
z
" clip-path="url(#p866a81c2a5)" style="fill: #2686f5; stroke: #2686f5; stroke-linejoin: miter"/>
   </g>
   <g id="patch_27">
    <path d="M 232.965576 44.91053 
L 231.846358 47.828745 
L 231.086633 47.204296 
L 174.603818 115.923138 
L 174.596182 115.916862 
L 231.078998 47.19802 
L 230.319273 46.573571 
z
" clip-path="url(#p866a81c2a5)" style="fill: #2489f5; stroke: #2489f5; stroke-linejoin: miter"/>
   </g>
   <g id="patch_28">
    <path d="M 238.6171 49.960192 
L 237.261277 52.776284 
L 236.555578 52.09137 
L 174.603546 115.923442 
L 174.596454 115.916558 
L 236.548486 52.084486 
L 235.842787 51.399572 
z
" clip-path="url(#p866a81c2a5)" style="fill: #218cf4; stroke: #218cf4; stroke-linejoin: miter"/>
   </g>
   <g id="patch_29">
    <path d="M 244.854295 56.647584 
L 243.225366 59.31502 
L 242.591215 58.563375 
L 174.603187 115.923777 
L 174.596813 115.916223 
L 242.584841 58.555821 
L 241.95069 57.804175 
z
" clip-path="url(#p866a81c2a5)" style="fill: #1e91f3; stroke: #1e91f3; stroke-linejoin: miter"/>
   </g>
   <g id="patch_30">
    <path d="M 251.561677 65.662805 
L 249.619442 68.11155 
L 249.081744 67.288143 
L 174.602702 115.924138 
L 174.597298 115.915862 
L 249.07634 67.279867 
L 248.538642 66.45646 
z
" clip-path="url(#p866a81c2a5)" style="fill: #1898f2; stroke: #1898f2; stroke-linejoin: miter"/>
   </g>
   <g id="patch_31">
    <path d="M 258.333992 78.005572 
L 256.040578 80.128984 
L 255.634934 79.23312 
L 174.602038 115.924502 
L 174.597962 115.915498 
L 255.630857 79.224116 
L 255.225214 78.328253 
z
" clip-path="url(#p866a81c2a5)" style="fill: #0ea5ef; stroke: #0ea5ef; stroke-linejoin: miter"/>
   </g>
   <g id="patch_32">
    <path d="M 264.113742 95.035192 
L 261.45077 96.671409 
L 261.227325 95.713708 
L 174.601123 115.924813 
L 174.598877 115.915187 
L 261.22508 95.704083 
L 261.001635 94.746382 
z
" clip-path="url(#p866a81c2a5)" style="fill: #02b7eb; stroke: #02b7eb; stroke-linejoin: miter"/>
   </g>
   <g id="patch_33">
    <path d="M 266.488253 118.251137 
L 263.49905 119.163984 
L 263.523991 118.180879 
L 174.599875 115.92494 
L 174.600125 115.91506 
L 263.524241 118.170998 
L 263.549182 117.187893 
z
" clip-path="url(#p866a81c2a5)" style="fill: #22d6e0; stroke: #22d6e0; stroke-linejoin: miter"/>
   </g>
   <g id="patch_34">
    <path d="M 260.693615 148.118988 
L 257.570176 148.006049 
L 257.91467 147.08494 
L 174.598269 115.924629 
L 174.601731 115.915371 
L 257.918132 147.075682 
L 258.262627 146.154573 
z
" clip-path="url(#p866a81c2a5)" style="fill: #6efebe; stroke: #6efebe; stroke-linejoin: miter"/>
   </g>
   <g id="patch_35">
    <path d="M 239.694039 180.817237 
L 236.896411 179.423714 
L 237.590742 178.727278 
L 174.596511 115.9235 
L 174.603489 115.9165 
L 237.59772 178.720279 
L 238.292051 178.023842 
z
" clip-path="url(#p866a81c2a5)" style="fill: #ff2914; stroke: #ff2914; stroke-linejoin: miter"/>
   </g>
   <g id="patch_36">
    <path d="M 199.527547 204.393175 
L 197.772108 201.80724 
L 198.718676 201.540542 
L 174.595243 115.92134 
L 174.604757 115.91866 
L 198.728189 201.537861 
L 199.674757 201.271163 
z
" clip-path="url(#p866a81c2a5)" style="fill: #ff0000; stroke: #ff0000; stroke-linejoin: miter"/>
   </g>
   <g id="patch_37">
    <path d="M 149.672453 204.393175 
L 149.525243 201.271163 
L 150.471811 201.537861 
L 174.595243 115.91866 
L 174.604757 115.92134 
L 150.481324 201.540542 
L 151.427892 201.80724 
z
" clip-path="url(#p866a81c2a5)" style="fill: #ff0000; stroke: #ff0000; stroke-linejoin: miter"/>
   </g>
   <g id="patch_38">
    <path d="M 109.505961 180.817237 
L 110.907949 178.023842 
L 111.60228 178.720279 
L 174.596511 115.9165 
L 174.603489 115.9235 
L 111.609258 178.727278 
L 112.303589 179.423714 
z
" clip-path="url(#p866a81c2a5)" style="fill: #ff2914; stroke: #ff2914; stroke-linejoin: miter"/>
   </g>
   <g id="patch_39">
    <path d="M 88.506385 148.118988 
L 90.937373 146.154573 
L 91.281868 147.075682 
L 174.598269 115.915371 
L 174.601731 115.924629 
L 91.28533 147.08494 
L 91.629824 148.006049 
z
" clip-path="url(#p866a81c2a5)" style="fill: #6efebe; stroke: #6efebe; stroke-linejoin: miter"/>
   </g>
   <g id="patch_40">
    <path d="M 82.711747 118.251137 
L 85.650818 117.187893 
L 85.675759 118.170998 
L 174.599875 115.91506 
L 174.600125 115.92494 
L 85.676009 118.180879 
L 85.70095 119.163984 
z
" clip-path="url(#p866a81c2a5)" style="fill: #22d6e0; stroke: #22d6e0; stroke-linejoin: miter"/>
   </g>
   <g id="patch_41">
    <path d="M 85.086258 95.035192 
L 88.198365 94.746382 
L 87.97492 95.704083 
L 174.601123 115.915187 
L 174.598877 115.924813 
L 87.972675 95.713708 
L 87.74923 96.671409 
z
" clip-path="url(#p866a81c2a5)" style="fill: #02b7eb; stroke: #02b7eb; stroke-linejoin: miter"/>
   </g>
   <g id="patch_42">
    <path d="M 90.866008 78.005572 
L 93.974786 78.328253 
L 93.569143 79.224116 
L 174.602038 115.915498 
L 174.597962 115.924502 
L 93.565066 79.23312 
L 93.159422 80.128984 
z
" clip-path="url(#p866a81c2a5)" style="fill: #0ea5ef; stroke: #0ea5ef; stroke-linejoin: miter"/>
   </g>
   <g id="patch_43">
    <path d="M 97.638323 65.662805 
L 100.661358 66.45646 
L 100.12366 67.279867 
L 174.602702 115.915862 
L 174.597298 115.924138 
L 100.118256 67.288143 
L 99.580558 68.11155 
z
" clip-path="url(#p866a81c2a5)" style="fill: #1898f2; stroke: #1898f2; stroke-linejoin: miter"/>
   </g>
   <g id="patch_44">
    <path d="M 104.345705 56.647584 
L 107.24931 57.804175 
L 106.615159 58.555821 
L 174.603187 115.916223 
L 174.596813 115.923777 
L 106.608785 58.563375 
L 105.974634 59.31502 
z
" clip-path="url(#p866a81c2a5)" style="fill: #1e91f3; stroke: #1e91f3; stroke-linejoin: miter"/>
   </g>
   <g id="patch_45">
    <path d="M 110.5829 49.960192 
L 113.357213 51.399572 
L 112.651514 52.084486 
L 174.603546 115.916558 
L 174.596454 115.923442 
L 112.644422 52.09137 
L 111.938723 52.776284 
z
" clip-path="url(#p866a81c2a5)" style="fill: #218cf4; stroke: #218cf4; stroke-linejoin: miter"/>
   </g>
   <g id="patch_46">
    <path d="M 116.234424 44.91053 
L 118.880727 46.573571 
L 118.121002 47.19802 
L 174.603818 115.916862 
L 174.596182 115.923138 
L 118.113367 47.204296 
L 117.353642 47.828745 
z
" clip-path="url(#p866a81c2a5)" style="fill: #2489f5; stroke: #2489f5; stroke-linejoin: miter"/>
   </g>
   <g id="patch_47">
    <path d="M 121.305727 41.029374 
L 123.830173 42.872144 
L 123.028924 43.442336 
L 174.604026 115.917135 
L 174.595974 115.922865 
L 123.020871 43.448066 
L 122.219622 44.018258 
z
" clip-path="url(#p866a81c2a5)" style="fill: #2686f5; stroke: #2686f5; stroke-linejoin: miter"/>
   </g>
   <g id="patch_48">
    <path d="M 125.847744 37.996301 
L 128.258287 39.985751 
L 127.424587 40.507348 
L 174.604189 115.917379 
L 174.595811 115.922621 
L 127.416208 40.51259 
L 126.582508 41.034187 
z
" clip-path="url(#p866a81c2a5)" style="fill: #2884f6; stroke: #2884f6; stroke-linejoin: miter"/>
   </g>
   <g id="patch_49">
    <path d="M 129.92412 35.589738 
L 132.229044 37.700651 
L 131.369596 38.178635 
L 174.604319 115.917598 
L 174.595681 115.922402 
L 131.360958 38.183438 
L 130.501511 38.661422 
z
" clip-path="url(#p866a81c2a5)" style="fill: #2981f6; stroke: #2981f6; stroke-linejoin: miter"/>
   </g>
   <g id="patch_50">
    <path d="M 133.597607 33.654035 
L 135.804845 35.86689 
L 134.924687 36.305571 
L 174.604423 115.917796 
L 174.595577 115.922204 
L 134.915842 36.30998 
L 134.035684 36.748662 
z
" clip-path="url(#p866a81c2a5)" style="fill: #2981f6; stroke: #2981f6; stroke-linejoin: miter"/>
   </g>
   <g id="patch_51">
    <path d="M 136.92498 32.078017 
L 139.04183 34.377489 
L 138.144811 34.780571 
L 174.604508 115.917974 
L 174.595492 115.922026 
L 138.135796 34.784622 
L 137.238776 35.187705 
z
" clip-path="url(#p866a81c2a5)" style="fill: #2c7ef7; stroke: #2c7ef7; stroke-linejoin: miter"/>
   </g>
   <g id="patch_52">
    <path d="M 139.955672 30.780962 
L 141.988705 33.154863 
L 141.077808 33.52552 
L 174.604577 115.918137 
L 174.595423 115.921863 
L 141.068654 33.529245 
L 140.157758 33.899902 
z
" clip-path="url(#p866a81c2a5)" style="fill: #2c7ef7; stroke: #2c7ef7; stroke-linejoin: miter"/>
   </g>
   <g id="patch_53">
    <path d="M 142.731957 29.703336 
L 144.687019 32.141852 
L 143.764594 32.482805 
L 174.604635 115.918287 
L 174.595365 115.921713 
L 143.755323 32.486232 
L 142.832898 32.827186 
z
" clip-path="url(#p866a81c2a5)" style="fill: #2c7ef7; stroke: #2c7ef7; stroke-linejoin: miter"/>
   </g>
   <g id="patch_54">
    <path d="M 145.28971 28.800587 
L 147.171971 31.295726 
L 146.239887 31.609314 
L 174.604684 115.918424 
L 174.595316 115.921576 
L 146.230519 31.612466 
L 145.298435 31.926055 
z
" clip-path="url(#p866a81c2a5)" style="fill: #2c7ef7; stroke: #2c7ef7; stroke-linejoin: miter"/>
   </g>
   <g id="patch_55">
    <path d="M 147.659312 28.038918 
L 149.473324 30.584107 
L 148.533091 30.872343 
L 174.604725 115.918552 
L 174.595275 115.921448 
L 148.523641 30.87524 
L 147.583408 31.163476 
z
" clip-path="url(#p866a81c2a5)" style="fill: #2e7bf7; stroke: #2e7bf7; stroke-linejoin: miter"/>
   </g>
   <g id="patch_56">
    <path d="M 149.866524 27.392375 
L 151.616288 29.982153 
L 150.669138 30.246775 
L 174.60476 115.91867 
L 174.59524 115.92133 
L 150.659619 30.249434 
L 149.712468 30.514056 
z
" clip-path="url(#p866a81c2a5)" style="fill: #2e7bf7; stroke: #2e7bf7; stroke-linejoin: miter"/>
   </g>
   <g id="patch_57">
    <path d="M 151.933263 26.840797 
L 153.622289 29.470592 
L 152.669237 29.713102 
L 174.604789 115.918781 
L 174.595211 115.921219 
L 152.659659 29.715539 
L 151.706607 29.958049 
z
" clip-path="url(#p866a81c2a5)" style="fill: #2e7bf7; stroke: #2e7bf7; stroke-linejoin: miter"/>
   </g>
   <g id="patch_58">
    <path d="M 153.878256 26.368369 
L 155.50962 29.034317 
L 154.551514 29.256017 
L 174.604815 115.918886 
L 174.595185 115.921114 
L 154.541885 29.258245 
L 153.583779 29.479946 
z
" clip-path="url(#p866a81c2a5)" style="fill: #2e7bf7; stroke: #2e7bf7; stroke-linejoin: miter"/>
   </g>
   <g id="patch_59">
    <path d="M 155.717597 25.962565 
L 157.293991 28.661381 
L 156.331543 28.863402 
L 174.604836 115.918985 
L 174.595164 115.921015 
L 156.32187 28.865433 
L 155.359422 29.067454 
z
" clip-path="url(#p866a81c2a5)" style="fill: #2e7bf7; stroke: #2e7bf7; stroke-linejoin: miter"/>
   </g>
   <g id="patch_60">
    <path d="M 157.465199 25.61339 
L 158.988973 28.342261 
L 158.022789 28.525585 
L 174.604855 115.919079 
L 174.595145 115.920921 
L 158.013079 28.527427 
L 157.046895 28.710751 
z
" clip-path="url(#p866a81c2a5)" style="fill: #2e7bf7; stroke: #2e7bf7; stroke-linejoin: miter"/>
   </g>
   <g id="patch_61">
    <path d="M 159.13317 25.312812 
L 160.606371 28.069315 
L 159.636972 28.234793 
L 174.604871 115.919168 
L 174.595129 115.920832 
L 159.627229 28.236456 
L 158.65783 28.401935 
z
" clip-path="url(#p866a81c2a5)" style="fill: #2e7bf7; stroke: #2e7bf7; stroke-linejoin: miter"/>
   </g>
   <g id="patch_62">
    <path d="M 160.732128 25.054344 
L 162.156528 27.836377 
L 161.184364 27.984749 
L 174.604885 115.919254 
L 174.595115 115.920746 
L 161.174593 27.98624 
L 160.202428 28.134611 
z
" clip-path="url(#p866a81c2a5)" style="fill: #2e7bf7; stroke: #2e7bf7; stroke-linejoin: miter"/>
   </g>
   <g id="patch_63">
    <path d="M 162.271447 24.832723 
L 163.648575 27.638457 
L 162.674039 27.770359 
L 174.604897 115.919337 
L 174.595103 115.920663 
L 162.664245 27.771685 
L 161.689709 27.903587 
z
" clip-path="url(#p866a81c2a5)" style="fill: #2e7bf7; stroke: #2e7bf7; stroke-linejoin: miter"/>
   </g>
   <g id="patch_64">
    <path d="M 163.75948 24.64367 
L 165.09064 27.471503 
L 164.114081 27.587485 
L 174.604907 115.919417 
L 174.595093 115.920583 
L 164.104267 27.588651 
L 163.127708 27.704632 
z
" clip-path="url(#p866a81c2a5)" style="fill: #2e7bf7; stroke: #2e7bf7; stroke-linejoin: miter"/>
   </g>
   <g id="patch_65">
    <path d="M 165.203729 24.483709 
L 166.490021 27.332231 
L 165.511751 27.432761 
L 174.604916 115.919495 
L 174.595084 115.920505 
L 165.501919 27.433771 
L 164.523649 27.534301 
z
" clip-path="url(#p866a81c2a5)" style="fill: #2e7bf7; stroke: #2e7bf7; stroke-linejoin: miter"/>
   </g>
   <g id="patch_66">
    <path d="M 166.611001 24.35002 
L 167.853334 27.217987 
L 166.873634 27.303461 
L 174.604923 115.91957 
L 174.595077 115.92043 
L 166.863788 27.30432 
L 165.884087 27.389794 
z
" clip-path="url(#p866a81c2a5)" style="fill: #2e7bf7; stroke: #2e7bf7; stroke-linejoin: miter"/>
   </g>
   <g id="patch_67">
    <path d="M 167.987529 24.240337 
L 169.186638 27.126644 
L 168.205764 27.19739 
L 174.604929 115.919644 
L 174.595071 115.920356 
L 168.195906 27.198101 
L 167.215032 27.268848 
z
" clip-path="url(#p866a81c2a5)" style="fill: #2e7bf7; stroke: #2e7bf7; stroke-linejoin: miter"/>
   </g>
   <g id="patch_68">
    <path d="M 169.339087 24.152859 
L 170.495537 27.056521 
L 169.513727 27.112807 
L 174.604934 115.919717 
L 174.595066 115.920283 
L 169.50386 27.113373 
L 168.52205 27.169659 
z
" clip-path="url(#p866a81c2a5)" style="fill: #2e7bf7; stroke: #2e7bf7; stroke-linejoin: miter"/>
   </g>
   <g id="patch_69">
    <path d="M 170.671081 24.086189 
L 171.785281 27.006323 
L 170.802758 27.048358 
L 174.604937 115.919789 
L 174.595063 115.920211 
L 170.792883 27.048781 
L 169.81036 27.090816 
z
" clip-path="url(#p866a81c2a5)" style="fill: #2e7bf7; stroke: #2e7bf7; stroke-linejoin: miter"/>
   </g>
   <g id="patch_70">
    <path d="M 171.988638 24.039283 
L 173.06084 26.975098 
L 172.077815 27.003037 
L 174.60494 115.91986 
L 174.59506 115.92014 
L 172.067936 27.003318 
L 171.084911 27.031257 
z
" clip-path="url(#p866a81c2a5)" style="fill: #2e7bf7; stroke: #2e7bf7; stroke-linejoin: miter"/>
   </g>
   <g id="patch_71">
    <path d="M 173.296681 24.011422 
L 174.326988 26.962201 
L 173.343665 26.976145 
L 174.604941 115.91993 
L 174.595059 115.92007 
L 173.333782 26.976285 
L 172.350459 26.990229 
z
" clip-path="url(#p866a81c2a5)" style="fill: #3079f7; stroke: #3079f7; stroke-linejoin: miter"/>
   </g>
   <g id="PathCollection_1">
    <defs>
     <path id="m6e19dd8cba" d="M 0 2.738613 
C 0.726289 2.738613 1.422928 2.450055 1.936492 1.936492 
C 2.450055 1.422928 2.738613 0.726289 2.738613 0 
C 2.738613 -0.726289 2.450055 -1.422928 1.936492 -1.936492 
C 1.422928 -2.450055 0.726289 -2.738613 0 -2.738613 
C -0.726289 -2.738613 -1.422928 -2.450055 -1.936492 -1.936492 
C -2.450055 -1.422928 -2.738613 -0.726289 -2.738613 0 
C -2.738613 0.726289 -2.450055 1.422928 -1.936492 1.936492 
C -1.422928 2.450055 -0.726289 2.738613 0 2.738613 
z
" style="stroke: #000000"/>
    </defs>
    <g clip-path="url(#p866a81c2a5)">
     <use xlink:href="#m6e19dd8cba" x="174.6" y="115.92" style="stroke: #000000"/>
    </g>
   </g>
   <g id="Quiver_1">
    <path d="M 172.926 115.92 
L 172.926 46.480909 
L 166.23 44.806909 
L 174.6 31.414909 
L 182.97 44.806909 
L 176.274 46.480909 
L 176.274 115.92 
L 172.926 115.92 
" clip-path="url(#p866a81c2a5)"/>
   </g>
   <g id="text_1">
    <!-- Particle velocity = 0.95 c -->
    <g transform="translate(224.018182 214.756364) scale(0.1 -0.1)">
     <defs>
      <path id="DejaVuSans-Bold-50" d="M 588 4666 
L 2584 4666 
Q 3475 4666 3951 4270 
Q 4428 3875 4428 3144 
Q 4428 2409 3951 2014 
Q 3475 1619 2584 1619 
L 1791 1619 
L 1791 0 
L 588 0 
L 588 4666 
z
M 1791 3794 
L 1791 2491 
L 2456 2491 
Q 2806 2491 2997 2661 
Q 3188 2831 3188 3144 
Q 3188 3456 2997 3625 
Q 2806 3794 2456 3794 
L 1791 3794 
z
" transform="scale(0.015625)"/>
      <path id="DejaVuSans-Bold-61" d="M 2106 1575 
Q 1756 1575 1579 1456 
Q 1403 1338 1403 1106 
Q 1403 894 1545 773 
Q 1688 653 1941 653 
Q 2256 653 2472 879 
Q 2688 1106 2688 1447 
L 2688 1575 
L 2106 1575 
z
M 3816 1997 
L 3816 0 
L 2688 0 
L 2688 519 
Q 2463 200 2181 54 
Q 1900 -91 1497 -91 
Q 953 -91 614 226 
Q 275 544 275 1050 
Q 275 1666 698 1953 
Q 1122 2241 2028 2241 
L 2688 2241 
L 2688 2328 
Q 2688 2594 2478 2717 
Q 2269 2841 1825 2841 
Q 1466 2841 1156 2769 
Q 847 2697 581 2553 
L 581 3406 
Q 941 3494 1303 3539 
Q 1666 3584 2028 3584 
Q 2975 3584 3395 3211 
Q 3816 2838 3816 1997 
z
" transform="scale(0.015625)"/>
      <path id="DejaVuSans-Bold-72" d="M 3138 2547 
Q 2991 2616 2845 2648 
Q 2700 2681 2553 2681 
Q 2122 2681 1889 2404 
Q 1656 2128 1656 1613 
L 1656 0 
L 538 0 
L 538 3500 
L 1656 3500 
L 1656 2925 
Q 1872 3269 2151 3426 
Q 2431 3584 2822 3584 
Q 2878 3584 2943 3579 
Q 3009 3575 3134 3559 
L 3138 2547 
z
" transform="scale(0.015625)"/>
      <path id="DejaVuSans-Bold-74" d="M 1759 4494 
L 1759 3500 
L 2913 3500 
L 2913 2700 
L 1759 2700 
L 1759 1216 
Q 1759 972 1856 886 
Q 1953 800 2241 800 
L 2816 800 
L 2816 0 
L 1856 0 
Q 1194 0 917 276 
Q 641 553 641 1216 
L 641 2700 
L 84 2700 
L 84 3500 
L 641 3500 
L 641 4494 
L 1759 4494 
z
" transform="scale(0.015625)"/>
      <path id="DejaVuSans-Bold-69" d="M 538 3500 
L 1656 3500 
L 1656 0 
L 538 0 
L 538 3500 
z
M 538 4863 
L 1656 4863 
L 1656 3950 
L 538 3950 
L 538 4863 
z
" transform="scale(0.015625)"/>
      <path id="DejaVuSans-Bold-63" d="M 3366 3391 
L 3366 2478 
Q 3138 2634 2908 2709 
Q 2678 2784 2431 2784 
Q 1963 2784 1702 2511 
Q 1441 2238 1441 1747 
Q 1441 1256 1702 982 
Q 1963 709 2431 709 
Q 2694 709 2930 787 
Q 3166 866 3366 1019 
L 3366 103 
Q 3103 6 2833 -42 
Q 2563 -91 2291 -91 
Q 1344 -91 809 395 
Q 275 881 275 1747 
Q 275 2613 809 3098 
Q 1344 3584 2291 3584 
Q 2566 3584 2833 3536 
Q 3100 3488 3366 3391 
z
" transform="scale(0.015625)"/>
      <path id="DejaVuSans-Bold-6c" d="M 538 4863 
L 1656 4863 
L 1656 0 
L 538 0 
L 538 4863 
z
" transform="scale(0.015625)"/>
      <path id="DejaVuSans-Bold-65" d="M 4031 1759 
L 4031 1441 
L 1416 1441 
Q 1456 1047 1700 850 
Q 1944 653 2381 653 
Q 2734 653 3104 758 
Q 3475 863 3866 1075 
L 3866 213 
Q 3469 63 3072 -14 
Q 2675 -91 2278 -91 
Q 1328 -91 801 392 
Q 275 875 275 1747 
Q 275 2603 792 3093 
Q 1309 3584 2216 3584 
Q 3041 3584 3536 3087 
Q 4031 2591 4031 1759 
z
M 2881 2131 
Q 2881 2450 2695 2645 
Q 2509 2841 2209 2841 
Q 1884 2841 1681 2658 
Q 1478 2475 1428 2131 
L 2881 2131 
z
" transform="scale(0.015625)"/>
      <path id="DejaVuSans-Bold-20" transform="scale(0.015625)"/>
      <path id="DejaVuSans-Bold-76" d="M 97 3500 
L 1216 3500 
L 2088 1081 
L 2956 3500 
L 4078 3500 
L 2700 0 
L 1472 0 
L 97 3500 
z
" transform="scale(0.015625)"/>
      <path id="DejaVuSans-Bold-6f" d="M 2203 2784 
Q 1831 2784 1636 2517 
Q 1441 2250 1441 1747 
Q 1441 1244 1636 976 
Q 1831 709 2203 709 
Q 2569 709 2762 976 
Q 2956 1244 2956 1747 
Q 2956 2250 2762 2517 
Q 2569 2784 2203 2784 
z
M 2203 3584 
Q 3106 3584 3614 3096 
Q 4122 2609 4122 1747 
Q 4122 884 3614 396 
Q 3106 -91 2203 -91 
Q 1297 -91 786 396 
Q 275 884 275 1747 
Q 275 2609 786 3096 
Q 1297 3584 2203 3584 
z
" transform="scale(0.015625)"/>
      <path id="DejaVuSans-Bold-79" d="M 78 3500 
L 1197 3500 
L 2138 1125 
L 2938 3500 
L 4056 3500 
L 2584 -331 
Q 2363 -916 2067 -1148 
Q 1772 -1381 1288 -1381 
L 641 -1381 
L 641 -647 
L 991 -647 
Q 1275 -647 1404 -556 
Q 1534 -466 1606 -231 
L 1638 -134 
L 78 3500 
z
" transform="scale(0.015625)"/>
      <path id="DejaVuSans-Bold-3d" d="M 678 3084 
L 4684 3084 
L 4684 2350 
L 678 2350 
L 678 3084 
z
M 678 1663 
L 4684 1663 
L 4684 922 
L 678 922 
L 678 1663 
z
" transform="scale(0.015625)"/>
      <path id="DejaVuSans-Bold-30" d="M 2944 2338 
Q 2944 3213 2780 3570 
Q 2616 3928 2228 3928 
Q 1841 3928 1675 3570 
Q 1509 3213 1509 2338 
Q 1509 1453 1675 1090 
Q 1841 728 2228 728 
Q 2613 728 2778 1090 
Q 2944 1453 2944 2338 
z
M 4147 2328 
Q 4147 1169 3647 539 
Q 3147 -91 2228 -91 
Q 1306 -91 806 539 
Q 306 1169 306 2328 
Q 306 3491 806 4120 
Q 1306 4750 2228 4750 
Q 3147 4750 3647 4120 
Q 4147 3491 4147 2328 
z
" transform="scale(0.015625)"/>
      <path id="DejaVuSans-Bold-2e" d="M 653 1209 
L 1778 1209 
L 1778 0 
L 653 0 
L 653 1209 
z
" transform="scale(0.015625)"/>
      <path id="DejaVuSans-Bold-39" d="M 641 103 
L 641 966 
Q 928 831 1190 764 
Q 1453 697 1709 697 
Q 2247 697 2547 995 
Q 2847 1294 2900 1881 
Q 2688 1725 2447 1647 
Q 2206 1569 1925 1569 
Q 1209 1569 770 1986 
Q 331 2403 331 3084 
Q 331 3838 820 4291 
Q 1309 4744 2131 4744 
Q 3044 4744 3544 4128 
Q 4044 3513 4044 2388 
Q 4044 1231 3459 570 
Q 2875 -91 1856 -91 
Q 1528 -91 1228 -42 
Q 928 6 641 103 
z
M 2125 2350 
Q 2441 2350 2600 2554 
Q 2759 2759 2759 3169 
Q 2759 3575 2600 3781 
Q 2441 3988 2125 3988 
Q 1809 3988 1650 3781 
Q 1491 3575 1491 3169 
Q 1491 2759 1650 2554 
Q 1809 2350 2125 2350 
z
" transform="scale(0.015625)"/>
      <path id="DejaVuSans-Bold-35" d="M 678 4666 
L 3669 4666 
L 3669 3781 
L 1638 3781 
L 1638 3059 
Q 1775 3097 1914 3117 
Q 2053 3138 2203 3138 
Q 3056 3138 3531 2711 
Q 4006 2284 4006 1522 
Q 4006 766 3489 337 
Q 2972 -91 2053 -91 
Q 1656 -91 1267 -14 
Q 878 63 494 219 
L 494 1166 
Q 875 947 1217 837 
Q 1559 728 1863 728 
Q 2300 728 2551 942 
Q 2803 1156 2803 1522 
Q 2803 1891 2551 2103 
Q 2300 2316 1863 2316 
Q 1603 2316 1309 2248 
Q 1016 2181 678 2041 
L 678 4666 
z
" transform="scale(0.015625)"/>
     </defs>
     <use xlink:href="#DejaVuSans-Bold-50"/>
     <use xlink:href="#DejaVuSans-Bold-61" x="70.666016"/>
     <use xlink:href="#DejaVuSans-Bold-72" x="138.146484"/>
     <use xlink:href="#DejaVuSans-Bold-74" x="187.462891"/>
     <use xlink:href="#DejaVuSans-Bold-69" x="235.265625"/>
     <use xlink:href="#DejaVuSans-Bold-63" x="269.542969"/>
     <use xlink:href="#DejaVuSans-Bold-6c" x="328.820312"/>
     <use xlink:href="#DejaVuSans-Bold-65" x="363.097656"/>
     <use xlink:href="#DejaVuSans-Bold-20" x="430.919922"/>
     <use xlink:href="#DejaVuSans-Bold-76" x="465.734375"/>
     <use xlink:href="#DejaVuSans-Bold-65" x="530.919922"/>
     <use xlink:href="#DejaVuSans-Bold-6c" x="598.742188"/>
     <use xlink:href="#DejaVuSans-Bold-6f" x="633.019531"/>
     <use xlink:href="#DejaVuSans-Bold-63" x="701.720703"/>
     <use xlink:href="#DejaVuSans-Bold-69" x="760.998047"/>
     <use xlink:href="#DejaVuSans-Bold-74" x="795.275391"/>
     <use xlink:href="#DejaVuSans-Bold-79" x="843.078125"/>
     <use xlink:href="#DejaVuSans-Bold-20" x="908.263672"/>
     <use xlink:href="#DejaVuSans-Bold-3d" x="943.078125"/>
     <use xlink:href="#DejaVuSans-Bold-20" x="1026.867188"/>
     <use xlink:href="#DejaVuSans-Bold-30" x="1061.681641"/>
     <use xlink:href="#DejaVuSans-Bold-2e" x="1131.261719"/>
     <use xlink:href="#DejaVuSans-Bold-39" x="1169.25"/>
     <use xlink:href="#DejaVuSans-Bold-35" x="1238.830078"/>
     <use xlink:href="#DejaVuSans-Bold-20" x="1308.410156"/>
     <use xlink:href="#DejaVuSans-Bold-63" x="1343.224609"/>
    </g>
   </g>
  </g>
 </g>
 <defs>
  <clipPath id="p866a81c2a5">
   <rect x="7.2" y="7.2" width="334.8" height="217.44"/>
  </clipPath>
 </defs>
</svg>
