<svg width="4419" height="1649" xmlns="http://www.w3.org/2000/svg" xmlns:xlink="http://www.w3.org/1999/xlink" xml:space="preserve" overflow="hidden"><g transform="translate(18 0)"><rect x="-15.0001" y="0" width="4413" height="1640" fill="#BFBFBF"/><path d="M0 0 4410.27 0.000360892" stroke="#7F7F7F" stroke-width="11.4583" stroke-miterlimit="8" fill="none" fill-rule="evenodd" transform="matrix(-1 0 0 1 4397.77 1557.5)"/><path d="M0 0 4410.27 0.000360892" stroke="#7F7F7F" stroke-width="11.4583" stroke-miterlimit="8" fill="none" fill-rule="evenodd" transform="matrix(-1 0 0 1 4397.77 1604.5)"/><path d="M0 0 4410.27 0.000360892" stroke="#7F7F7F" stroke-width="11.4583" stroke-miterlimit="8" fill="none" fill-rule="evenodd" transform="matrix(-1 0 0 1 4397.77 1418.5)"/><path d="M0 0 4405.47 0.000360892" stroke="#7F7F7F" stroke-width="11.4583" stroke-miterlimit="8" fill="none" fill-rule="evenodd" transform="matrix(-1 0 0 1 4392.97 1466.5)"/><path d="M0 0 4412.62 0.000360892" stroke="#7F7F7F" stroke-width="11.4583" stroke-miterlimit="8" fill="none" fill-rule="evenodd" transform="matrix(-1 0 0 1 4400.12 1513.5)"/><path d="M4397.77 426.423-12.5 424.5" stroke="#7F7F7F" stroke-width="11.4583" stroke-miterlimit="8" fill="none" fill-rule="evenodd"/><path d="M0 0 4410.27 0.000360892" stroke="#7F7F7F" stroke-width="11.4583" stroke-miterlimit="8" fill="none" fill-rule="evenodd" transform="matrix(-1 0 0 1 4397.77 471.5)"/><path d="M0 0 4410.27 0.000360892" stroke="#7F7F7F" stroke-width="11.4583" stroke-miterlimit="8" fill="none" fill-rule="evenodd" transform="matrix(-1 0 0 1 4397.77 518.5)"/><path d="M0 0 4405.47 0.000360892" stroke="#7F7F7F" stroke-width="11.4583" stroke-miterlimit="8" fill="none" fill-rule="evenodd" transform="matrix(-1 0 0 1 4392.97 566.5)"/><path d="M0 0 4412.62 0.000360892" stroke="#7F7F7F" stroke-width="11.4583" stroke-miterlimit="8" fill="none" fill-rule="evenodd" transform="matrix(-1 0 0 1 4400.12 613.5)"/><path d="M0 0 4412.62 0.000360892" stroke="#7F7F7F" stroke-width="11.4583" stroke-miterlimit="8" fill="none" fill-rule="evenodd" transform="matrix(-1 0 0 1 4400.12 660.5)"/><path d="M0 0 4412.62 0.000360892" stroke="#7F7F7F" stroke-width="11.4583" stroke-miterlimit="8" fill="none" fill-rule="evenodd" transform="matrix(-1 0 0 1 4400.12 707.5)"/><path d="M0 0 4412.62 0.000360892" stroke="#7F7F7F" stroke-width="11.4583" stroke-miterlimit="8" fill="none" fill-rule="evenodd" transform="matrix(-1 0 0 1 4400.12 755.5)"/><path d="M0 0 4412.62 0.000360892" stroke="#7F7F7F" stroke-width="11.4583" stroke-miterlimit="8" fill="none" fill-rule="evenodd" transform="matrix(-1 0 0 1 4400.12 802.5)"/><path d="M0 0 4412.62 0.000360892" stroke="#7F7F7F" stroke-width="11.4583" stroke-miterlimit="8" fill="none" fill-rule="evenodd" transform="matrix(-1 0 0 1 4400.12 849.5)"/><path d="M0 0 4412.62 0.000360892" stroke="#7F7F7F" stroke-width="11.4583" stroke-miterlimit="8" fill="none" fill-rule="evenodd" transform="matrix(-1 0 0 1 4400.12 896.5)"/><path d="M0 0 4412.62 0.000360892" stroke="#7F7F7F" stroke-width="11.4583" stroke-miterlimit="8" fill="none" fill-rule="evenodd" transform="matrix(-1 0 0 1 4400.12 944.5)"/><path d="M0 0 4412.62 0.000360892" stroke="#7F7F7F" stroke-width="11.4583" stroke-miterlimit="8" fill="none" fill-rule="evenodd" transform="matrix(-1 0 0 1 4400.12 991.5)"/><path d="M0 0 4412.62 0.000360892" stroke="#7F7F7F" stroke-width="11.4583" stroke-miterlimit="8" fill="none" fill-rule="evenodd" transform="matrix(-1 0 0 1 4400.12 1038.5)"/><path d="M0 0 4412.62 0.000360892" stroke="#7F7F7F" stroke-width="11.4583" stroke-miterlimit="8" fill="none" fill-rule="evenodd" transform="matrix(-1 0 0 1 4400.12 1085.5)"/><path d="M0 0 4412.62 0.000360892" stroke="#7F7F7F" stroke-width="11.4583" stroke-miterlimit="8" fill="none" fill-rule="evenodd" transform="matrix(-1 0 0 1 4400.12 1133.5)"/><path d="M0 0 4412.62 0.000360892" stroke="#7F7F7F" stroke-width="11.4583" stroke-miterlimit="8" fill="none" fill-rule="evenodd" transform="matrix(-1 0 0 1 4400.12 1180.5)"/><path d="M0 0 4412.62 0.000360892" stroke="#7F7F7F" stroke-width="11.4583" stroke-miterlimit="8" fill="none" fill-rule="evenodd" transform="matrix(-1 0 0 1 4400.12 1227.5)"/><path d="M0 0 4412.62 0.000360892" stroke="#7F7F7F" stroke-width="11.4583" stroke-miterlimit="8" fill="none" fill-rule="evenodd" transform="matrix(-1 0 0 1 4400.12 1274.5)"/><path d="M0 0 4412.62 0.000360892" stroke="#7F7F7F" stroke-width="11.4583" stroke-miterlimit="8" fill="none" fill-rule="evenodd" transform="matrix(-1 0 0 1 4400.12 1322.5)"/><path d="M0 0 4412.62 0.000360892" stroke="#7F7F7F" stroke-width="11.4583" stroke-miterlimit="8" fill="none" fill-rule="evenodd" transform="matrix(-1 0 0 1 4400.12 1369.5)"/><path d="M0 0 4410.27 0.000360892" stroke="#7F7F7F" stroke-width="11.4583" stroke-miterlimit="8" fill="none" fill-rule="evenodd" transform="matrix(-1 0 0 1 4397.77 286.5)"/><path d="M0 0 4405.47 0.000360892" stroke="#7F7F7F" stroke-width="11.4583" stroke-miterlimit="8" fill="none" fill-rule="evenodd" transform="matrix(-1 0 0 1 4392.97 333.5)"/><path d="M0 0 4412.62 0.000360892" stroke="#7F7F7F" stroke-width="11.4583" stroke-miterlimit="8" fill="none" fill-rule="evenodd" transform="matrix(-1 0 0 1 4400.12 380.5)"/><path d="M0 0 4412.62 0.000360892" stroke="#7F7F7F" stroke-width="11.4583" stroke-miterlimit="8" fill="none" fill-rule="evenodd" transform="matrix(-1 0 0 1 4400.12 47.4999)"/><path d="M0 0 4412.62 0.000360892" stroke="#7F7F7F" stroke-width="11.4583" stroke-miterlimit="8" fill="none" fill-rule="evenodd" transform="matrix(-1 0 0 1 4400.12 95.5001)"/><path d="M0 0 4412.62 0.000360892" stroke="#7F7F7F" stroke-width="11.4583" stroke-miterlimit="8" fill="none" fill-rule="evenodd" transform="matrix(-1 0 0 1 4400.12 142.5)"/><path d="M0 0 4412.62 0.000360892" stroke="#7F7F7F" stroke-width="11.4583" stroke-miterlimit="8" fill="none" fill-rule="evenodd" transform="matrix(-1 0 0 1 4400.12 189.5)"/><path d="M0 0 4412.62 0.000360892" stroke="#7F7F7F" stroke-width="11.4583" stroke-miterlimit="8" fill="none" fill-rule="evenodd" transform="matrix(-1 0 0 1 4400.12 236.5)"/><path d="M0 0 1634.31 0.000360892" stroke="#7F7F7F" stroke-width="6.875" stroke-miterlimit="8" fill="none" fill-rule="evenodd" transform="matrix(1.83697e-16 1 1 -1.83697e-16 1541.5 3.49993)"/><path d="M0 0 1634.31 0.000360892" stroke="#7F7F7F" stroke-width="6.875" stroke-miterlimit="8" fill="none" fill-rule="evenodd" transform="matrix(1.83697e-16 1 1 -1.83697e-16 1587.5 3.49993)"/><path d="M0 0 1634.31 0.000360892" stroke="#7F7F7F" stroke-width="6.875" stroke-miterlimit="8" fill="none" fill-rule="evenodd" transform="matrix(1.83697e-16 1 1 -1.83697e-16 1634.5 3.49993)"/><path d="M0 0 1637.59 0.000360892" stroke="#7F7F7F" stroke-width="6.875" stroke-miterlimit="8" fill="none" fill-rule="evenodd" transform="matrix(1.83697e-16 1 1 -1.83697e-16 1681.5 1.49987)"/><path d="M0 0 1640.24 0.000360892" stroke="#7F7F7F" stroke-width="6.875" stroke-miterlimit="8" fill="none" fill-rule="evenodd" transform="matrix(1.83697e-16 1 1 -1.83697e-16 1728.5 0.499656)"/><path d="M0 0 1640.24 0.000360892" stroke="#7F7F7F" stroke-width="6.875" stroke-miterlimit="8" fill="none" fill-rule="evenodd" transform="matrix(1.83697e-16 1 1 -1.83697e-16 1775.5 0.499656)"/><path d="M0 0 1640.24 0.000360892" stroke="#7F7F7F" stroke-width="6.875" stroke-miterlimit="8" fill="none" fill-rule="evenodd" transform="matrix(1.83697e-16 1 1 -1.83697e-16 1821.5 0.499656)"/><path d="M0 0 1640.24 0.000360892" stroke="#7F7F7F" stroke-width="6.875" stroke-miterlimit="8" fill="none" fill-rule="evenodd" transform="matrix(1.83697e-16 1 1 -1.83697e-16 1868.5 0.499656)"/><path d="M0 0 1640.24 0.000360892" stroke="#7F7F7F" stroke-width="6.875" stroke-miterlimit="8" fill="none" fill-rule="evenodd" transform="matrix(1.83697e-16 1 1 -1.83697e-16 1915.5 0.499656)"/><path d="M0 0 1640.24 0.000360892" stroke="#7F7F7F" stroke-width="6.875" stroke-miterlimit="8" fill="none" fill-rule="evenodd" transform="matrix(1.83697e-16 1 1 -1.83697e-16 1962.5 0.499656)"/><path d="M0 0 1640.24 0.000360892" stroke="#7F7F7F" stroke-width="6.875" stroke-miterlimit="8" fill="none" fill-rule="evenodd" transform="matrix(1.83697e-16 1 1 -1.83697e-16 2009.5 0.499656)"/><path d="M0 0 1640.24 0.000360892" stroke="#7F7F7F" stroke-width="6.875" stroke-miterlimit="8" fill="none" fill-rule="evenodd" transform="matrix(1.83697e-16 1 1 -1.83697e-16 2056.5 0.499656)"/><path d="M0 0 1640.24 0.000360892" stroke="#7F7F7F" stroke-width="6.875" stroke-miterlimit="8" fill="none" fill-rule="evenodd" transform="matrix(1.83697e-16 1 1 -1.83697e-16 2102.5 0.499656)"/><path d="M0 0 1640.24 0.000360892" stroke="#7F7F7F" stroke-width="6.875" stroke-miterlimit="8" fill="none" fill-rule="evenodd" transform="matrix(1.83697e-16 1 1 -1.83697e-16 2149.5 0.499656)"/><path d="M0 0 1640.24 0.000360892" stroke="#7F7F7F" stroke-width="6.875" stroke-miterlimit="8" fill="none" fill-rule="evenodd" transform="matrix(1.83697e-16 1 1 -1.83697e-16 2196.5 0.499656)"/><path d="M0 0 1640.24 0.000360892" stroke="#7F7F7F" stroke-width="6.875" stroke-miterlimit="8" fill="none" fill-rule="evenodd" transform="matrix(1.83697e-16 1 1 -1.83697e-16 2243.5 0.499656)"/><path d="M0 0 1640.24 0.000360892" stroke="#7F7F7F" stroke-width="6.875" stroke-miterlimit="8" fill="none" fill-rule="evenodd" transform="matrix(1.83697e-16 1 1 -1.83697e-16 2290.5 0.499656)"/><path d="M0 0 1640.24 0.000360892" stroke="#7F7F7F" stroke-width="6.875" stroke-miterlimit="8" fill="none" fill-rule="evenodd" transform="matrix(1.83697e-16 1 1 -1.83697e-16 2336.5 0.499836)"/><path d="M0 0 1640.24 0.000360892" stroke="#7F7F7F" stroke-width="6.875" stroke-miterlimit="8" fill="none" fill-rule="evenodd" transform="matrix(1.83697e-16 1 1 -1.83697e-16 2383.5 0.499656)"/><path d="M0 0 1640.24 0.000360892" stroke="#7F7F7F" stroke-width="6.875" stroke-miterlimit="8" fill="none" fill-rule="evenodd" transform="matrix(1.83697e-16 1 1 -1.83697e-16 2430.5 0.499836)"/><path d="M0 0 1640.24 0.000360892" stroke="#7F7F7F" stroke-width="6.875" stroke-miterlimit="8" fill="none" fill-rule="evenodd" transform="matrix(1.83697e-16 1 1 -1.83697e-16 2477.5 0.499836)"/><path d="M0 0 1634.31 0.000360892" stroke="#7F7F7F" stroke-width="6.875" stroke-miterlimit="8" fill="none" fill-rule="evenodd" transform="matrix(1.83697e-16 1 1 -1.83697e-16 1400.5 3.49993)"/><path d="M0 0 1637.59 0.000360892" stroke="#7F7F7F" stroke-width="6.875" stroke-miterlimit="8" fill="none" fill-rule="evenodd" transform="matrix(1.83697e-16 1 1 -1.83697e-16 1447.5 1.49987)"/><path d="M0 0 1640.24 0.000360892" stroke="#7F7F7F" stroke-width="6.875" stroke-miterlimit="8" fill="none" fill-rule="evenodd" transform="matrix(1.83697e-16 1 1 -1.83697e-16 1494.5 0.499656)"/><path d="M0 0 1634.31 0.000360892" stroke="#7F7F7F" stroke-width="6.875" stroke-miterlimit="8" fill="none" fill-rule="evenodd" transform="matrix(1.83697e-16 1 1 -1.83697e-16 417.5 5.5)"/><path d="M0 0 1634.31 0.000360892" stroke="#7F7F7F" stroke-width="6.875" stroke-miterlimit="8" fill="none" fill-rule="evenodd" transform="matrix(1.83697e-16 1 1 -1.83697e-16 464.5 5.5)"/><path d="M0 0 1634.31 0.000360892" stroke="#7F7F7F" stroke-width="6.875" stroke-miterlimit="8" fill="none" fill-rule="evenodd" transform="matrix(1.83697e-16 1 1 -1.83697e-16 511.5 5.5)"/><path d="M0 0 1637.59 0.000360892" stroke="#7F7F7F" stroke-width="6.875" stroke-miterlimit="8" fill="none" fill-rule="evenodd" transform="matrix(1.83697e-16 1 1 -1.83697e-16 558.5 3.49993)"/><path d="M0 0 1640.24 0.000360892" stroke="#7F7F7F" stroke-width="6.875" stroke-miterlimit="8" fill="none" fill-rule="evenodd" transform="matrix(1.83697e-16 1 1 -1.83697e-16 604.5 2.49972)"/><path d="M0 0 1640.24 0.000360892" stroke="#7F7F7F" stroke-width="6.875" stroke-miterlimit="8" fill="none" fill-rule="evenodd" transform="matrix(1.83697e-16 1 1 -1.83697e-16 651.5 2.49972)"/><path d="M0 0 1640.24 0.000360892" stroke="#7F7F7F" stroke-width="6.875" stroke-miterlimit="8" fill="none" fill-rule="evenodd" transform="matrix(1.83697e-16 1 1 -1.83697e-16 698.5 2.49972)"/><path d="M0 0 1640.24 0.000360892" stroke="#7F7F7F" stroke-width="6.875" stroke-miterlimit="8" fill="none" fill-rule="evenodd" transform="matrix(1.83697e-16 1 1 -1.83697e-16 745.5 2.49972)"/><path d="M0 0 1640.24 0.000360892" stroke="#7F7F7F" stroke-width="6.875" stroke-miterlimit="8" fill="none" fill-rule="evenodd" transform="matrix(1.83697e-16 1 1 -1.83697e-16 792.5 2.49972)"/><path d="M0 0 1640.24 0.000360892" stroke="#7F7F7F" stroke-width="6.875" stroke-miterlimit="8" fill="none" fill-rule="evenodd" transform="matrix(1.83697e-16 1 1 -1.83697e-16 838.5 2.49972)"/><path d="M0 0 1640.24 0.000360892" stroke="#7F7F7F" stroke-width="6.875" stroke-miterlimit="8" fill="none" fill-rule="evenodd" transform="matrix(1.83697e-16 1 1 -1.83697e-16 885.5 2.49972)"/><path d="M0 0 1640.24 0.000360892" stroke="#7F7F7F" stroke-width="6.875" stroke-miterlimit="8" fill="none" fill-rule="evenodd" transform="matrix(1.83697e-16 1 1 -1.83697e-16 932.5 2.49972)"/><path d="M0 0 1640.24 0.000360892" stroke="#7F7F7F" stroke-width="6.875" stroke-miterlimit="8" fill="none" fill-rule="evenodd" transform="matrix(1.83697e-16 1 1 -1.83697e-16 979.5 2.49972)"/><path d="M0 0 1640.24 0.000360892" stroke="#7F7F7F" stroke-width="6.875" stroke-miterlimit="8" fill="none" fill-rule="evenodd" transform="matrix(1.83697e-16 1 1 -1.83697e-16 1026.5 2.49972)"/><path d="M0 0 1640.24 0.000360892" stroke="#7F7F7F" stroke-width="6.875" stroke-miterlimit="8" fill="none" fill-rule="evenodd" transform="matrix(1.83697e-16 1 1 -1.83697e-16 1073.5 2.49972)"/><path d="M0 0 1640.24 0.000360892" stroke="#7F7F7F" stroke-width="6.875" stroke-miterlimit="8" fill="none" fill-rule="evenodd" transform="matrix(1.83697e-16 1 1 -1.83697e-16 1119.5 2.49972)"/><path d="M0 0 1640.24 0.000360892" stroke="#7F7F7F" stroke-width="6.875" stroke-miterlimit="8" fill="none" fill-rule="evenodd" transform="matrix(1.83697e-16 1 1 -1.83697e-16 1166.5 2.49972)"/><path d="M0 0 1640.24 0.000360892" stroke="#7F7F7F" stroke-width="6.875" stroke-miterlimit="8" fill="none" fill-rule="evenodd" transform="matrix(1.83697e-16 1 1 -1.83697e-16 1213.5 2.4999)"/><path d="M0 0 1640.24 0.000360892" stroke="#7F7F7F" stroke-width="6.875" stroke-miterlimit="8" fill="none" fill-rule="evenodd" transform="matrix(1.83697e-16 1 1 -1.83697e-16 1260.5 2.49972)"/><path d="M0 0 1640.24 0.000360892" stroke="#7F7F7F" stroke-width="6.875" stroke-miterlimit="8" fill="none" fill-rule="evenodd" transform="matrix(1.83697e-16 1 1 -1.83697e-16 1307.5 2.4999)"/><path d="M0 0 1640.24 0.000360892" stroke="#7F7F7F" stroke-width="6.875" stroke-miterlimit="8" fill="none" fill-rule="evenodd" transform="matrix(1.83697e-16 1 1 -1.83697e-16 1353.5 2.4999)"/><path d="M0 0 1634.31 0.000360892" stroke="#7F7F7F" stroke-width="6.875" stroke-miterlimit="8" fill="none" fill-rule="evenodd" transform="matrix(1.83697e-16 1 1 -1.83697e-16 277.5 5.5)"/><path d="M0 0 1637.59 0.000360892" stroke="#7F7F7F" stroke-width="6.875" stroke-miterlimit="8" fill="none" fill-rule="evenodd" transform="matrix(1.83697e-16 1 1 -1.83697e-16 324.5 3.49993)"/><path d="M0 0 1640.24 0.000360892" stroke="#7F7F7F" stroke-width="6.875" stroke-miterlimit="8" fill="none" fill-rule="evenodd" transform="matrix(1.83697e-16 1 1 -1.83697e-16 370.5 2.49972)"/><path d="M0 0 1634.31 0.000360892" stroke="#7F7F7F" stroke-width="6.875" stroke-miterlimit="8" fill="none" fill-rule="evenodd" transform="matrix(1.83697e-16 1 1 -1.83697e-16 4068.5 3.49993)"/><path d="M0 0 1634.31 0.000360892" stroke="#7F7F7F" stroke-width="6.875" stroke-miterlimit="8" fill="none" fill-rule="evenodd" transform="matrix(1.83697e-16 1 1 -1.83697e-16 4115.5 3.49993)"/><path d="M0 0 1634.31 0.000360892" stroke="#7F7F7F" stroke-width="6.875" stroke-miterlimit="8" fill="none" fill-rule="evenodd" transform="matrix(1.83697e-16 1 1 -1.83697e-16 4162.5 3.49993)"/><path d="M0 0 1637.59 0.000360892" stroke="#7F7F7F" stroke-width="6.875" stroke-miterlimit="8" fill="none" fill-rule="evenodd" transform="matrix(1.83697e-16 1 1 -1.83697e-16 4209.5 2.4999)"/><path d="M0 0 1640.24 0.000360892" stroke="#7F7F7F" stroke-width="6.875" stroke-miterlimit="8" fill="none" fill-rule="evenodd" transform="matrix(1.83697e-16 1 1 -1.83697e-16 4256.5 0.499656)"/><path d="M0 0 1640.24 0.000360892" stroke="#7F7F7F" stroke-width="6.875" stroke-miterlimit="8" fill="none" fill-rule="evenodd" transform="matrix(1.83697e-16 1 1 -1.83697e-16 4302.5 0.499656)"/><path d="M0 0 1640.24 0.000360892" stroke="#7F7F7F" stroke-width="6.875" stroke-miterlimit="8" fill="none" fill-rule="evenodd" transform="matrix(1.83697e-16 1 1 -1.83697e-16 4349.5 0.499656)"/><path d="M0 0 1634.31 0.000360892" stroke="#7F7F7F" stroke-width="6.875" stroke-miterlimit="8" fill="none" fill-rule="evenodd" transform="matrix(1.83697e-16 1 1 -1.83697e-16 3928.5 3.49993)"/><path d="M0 0 1637.59 0.000360892" stroke="#7F7F7F" stroke-width="6.875" stroke-miterlimit="8" fill="none" fill-rule="evenodd" transform="matrix(1.83697e-16 1 1 -1.83697e-16 3975.5 2.4999)"/><path d="M0 0 1640.24 0.000360892" stroke="#7F7F7F" stroke-width="6.875" stroke-miterlimit="8" fill="none" fill-rule="evenodd" transform="matrix(1.83697e-16 1 1 -1.83697e-16 4021.5 0.499656)"/><path d="M0 0 1634.31 0.000360892" stroke="#7F7F7F" stroke-width="6.875" stroke-miterlimit="8" fill="none" fill-rule="evenodd" transform="matrix(1.83697e-16 1 1 -1.83697e-16 2945.5 5.5)"/><path d="M0 0 1634.31 0.000360892" stroke="#7F7F7F" stroke-width="6.875" stroke-miterlimit="8" fill="none" fill-rule="evenodd" transform="matrix(1.83697e-16 1 1 -1.83697e-16 2992.5 5.5)"/><path d="M0 0 1634.31 0.000360892" stroke="#7F7F7F" stroke-width="6.875" stroke-miterlimit="8" fill="none" fill-rule="evenodd" transform="matrix(1.83697e-16 1 1 -1.83697e-16 3038.5 5.5)"/><path d="M0 0 1637.59 0.000360892" stroke="#7F7F7F" stroke-width="6.875" stroke-miterlimit="8" fill="none" fill-rule="evenodd" transform="matrix(1.83697e-16 1 1 -1.83697e-16 3085.5 3.49993)"/><path d="M0 0 1640.24 0.000360892" stroke="#7F7F7F" stroke-width="6.875" stroke-miterlimit="8" fill="none" fill-rule="evenodd" transform="matrix(1.83697e-16 1 1 -1.83697e-16 3132.5 2.49972)"/><path d="M0 0 1640.24 0.000360892" stroke="#7F7F7F" stroke-width="6.875" stroke-miterlimit="8" fill="none" fill-rule="evenodd" transform="matrix(1.83697e-16 1 1 -1.83697e-16 3179.5 2.49972)"/><path d="M0 0 1640.24 0.000360892" stroke="#7F7F7F" stroke-width="6.875" stroke-miterlimit="8" fill="none" fill-rule="evenodd" transform="matrix(1.83697e-16 1 1 -1.83697e-16 3226.5 2.49972)"/><path d="M0 0 1640.24 0.000360892" stroke="#7F7F7F" stroke-width="6.875" stroke-miterlimit="8" fill="none" fill-rule="evenodd" transform="matrix(1.83697e-16 1 1 -1.83697e-16 3273.5 2.49972)"/><path d="M0 0 1640.24 0.000360892" stroke="#7F7F7F" stroke-width="6.875" stroke-miterlimit="8" fill="none" fill-rule="evenodd" transform="matrix(1.83697e-16 1 1 -1.83697e-16 3319.5 2.49972)"/><path d="M0 0 1640.24 0.000360892" stroke="#7F7F7F" stroke-width="6.875" stroke-miterlimit="8" fill="none" fill-rule="evenodd" transform="matrix(1.83697e-16 1 1 -1.83697e-16 3366.5 2.49972)"/><path d="M0 0 1640.24 0.000360892" stroke="#7F7F7F" stroke-width="6.875" stroke-miterlimit="8" fill="none" fill-rule="evenodd" transform="matrix(1.83697e-16 1 1 -1.83697e-16 3413.5 2.49972)"/><path d="M0 0 1640.24 0.000360892" stroke="#7F7F7F" stroke-width="6.875" stroke-miterlimit="8" fill="none" fill-rule="evenodd" transform="matrix(1.83697e-16 1 1 -1.83697e-16 3460.5 2.49972)"/><path d="M0 0 1640.24 0.000360892" stroke="#7F7F7F" stroke-width="6.875" stroke-miterlimit="8" fill="none" fill-rule="evenodd" transform="matrix(1.83697e-16 1 1 -1.83697e-16 3507.5 2.49972)"/><path d="M0 0 1640.24 0.000360892" stroke="#7F7F7F" stroke-width="6.875" stroke-miterlimit="8" fill="none" fill-rule="evenodd" transform="matrix(1.83697e-16 1 1 -1.83697e-16 3553.5 2.49972)"/><path d="M0 0 1640.24 0.000360892" stroke="#7F7F7F" stroke-width="6.875" stroke-miterlimit="8" fill="none" fill-rule="evenodd" transform="matrix(1.83697e-16 1 1 -1.83697e-16 3600.5 2.49972)"/><path d="M0 0 1640.24 0.000360892" stroke="#7F7F7F" stroke-width="6.875" stroke-miterlimit="8" fill="none" fill-rule="evenodd" transform="matrix(1.83697e-16 1 1 -1.83697e-16 3647.5 2.49972)"/><path d="M0 0 1640.24 0.000360892" stroke="#7F7F7F" stroke-width="6.875" stroke-miterlimit="8" fill="none" fill-rule="evenodd" transform="matrix(1.83697e-16 1 1 -1.83697e-16 3694.5 2.49972)"/><path d="M0 0 1640.24 0.000360892" stroke="#7F7F7F" stroke-width="6.875" stroke-miterlimit="8" fill="none" fill-rule="evenodd" transform="matrix(1.83697e-16 1 1 -1.83697e-16 3741.5 2.4999)"/><path d="M0 0 1640.24 0.000360892" stroke="#7F7F7F" stroke-width="6.875" stroke-miterlimit="8" fill="none" fill-rule="evenodd" transform="matrix(1.83697e-16 1 1 -1.83697e-16 3787.5 2.49972)"/><path d="M0 0 1640.24 0.000360892" stroke="#7F7F7F" stroke-width="6.875" stroke-miterlimit="8" fill="none" fill-rule="evenodd" transform="matrix(1.83697e-16 1 1 -1.83697e-16 3834.5 2.4999)"/><path d="M0 0 1640.24 0.000360892" stroke="#7F7F7F" stroke-width="6.875" stroke-miterlimit="8" fill="none" fill-rule="evenodd" transform="matrix(1.83697e-16 1 1 -1.83697e-16 3881.5 2.4999)"/><path d="M0 0 1634.31 0.000360892" stroke="#7F7F7F" stroke-width="6.875" stroke-miterlimit="8" fill="none" fill-rule="evenodd" transform="matrix(1.83697e-16 1 1 -1.83697e-16 2804.5 5.5)"/><path d="M0 0 1637.59 0.000360892" stroke="#7F7F7F" stroke-width="6.875" stroke-miterlimit="8" fill="none" fill-rule="evenodd" transform="matrix(1.83697e-16 1 1 -1.83697e-16 2851.5 3.49993)"/><path d="M0 0 1640.24 0.000360892" stroke="#7F7F7F" stroke-width="6.875" stroke-miterlimit="8" fill="none" fill-rule="evenodd" transform="matrix(1.83697e-16 1 1 -1.83697e-16 2898.5 2.49972)"/><path d="M0 0 1640.24 0.000360892" stroke="#7F7F7F" stroke-width="6.875" stroke-miterlimit="8" fill="none" fill-rule="evenodd" transform="matrix(1.83697e-16 1 1 -1.83697e-16 2524.5 2.49972)"/><path d="M0 0 1640.24 0.000360892" stroke="#7F7F7F" stroke-width="6.875" stroke-miterlimit="8" fill="none" fill-rule="evenodd" transform="matrix(1.83697e-16 1 1 -1.83697e-16 2570.5 2.49972)"/><path d="M0 0 1640.24 0.000360892" stroke="#7F7F7F" stroke-width="6.875" stroke-miterlimit="8" fill="none" fill-rule="evenodd" transform="matrix(1.83697e-16 1 1 -1.83697e-16 2617.5 2.4999)"/><path d="M0 0 1640.24 0.000360892" stroke="#7F7F7F" stroke-width="6.875" stroke-miterlimit="8" fill="none" fill-rule="evenodd" transform="matrix(1.83697e-16 1 1 -1.83697e-16 2664.5 2.49972)"/><path d="M0 0 1640.24 0.000360892" stroke="#7F7F7F" stroke-width="6.875" stroke-miterlimit="8" fill="none" fill-rule="evenodd" transform="matrix(1.83697e-16 1 1 -1.83697e-16 2711.5 2.4999)"/><path d="M0 0 1640.24 0.000360892" stroke="#7F7F7F" stroke-width="6.875" stroke-miterlimit="8" fill="none" fill-rule="evenodd" transform="matrix(1.83697e-16 1 1 -1.83697e-16 2758.5 2.4999)"/><path d="M0 0 1634.31 0.000360892" stroke="#7F7F7F" stroke-width="6.875" stroke-miterlimit="8" fill="none" fill-rule="evenodd" transform="matrix(1.83697e-16 1 1 -1.83697e-16 46.4999 7.50007)"/><path d="M0 0 1634.31 0.000360892" stroke="#7F7F7F" stroke-width="6.875" stroke-miterlimit="8" fill="none" fill-rule="evenodd" transform="matrix(1.83697e-16 1 1 -1.83697e-16 93.5 7.50007)"/><path d="M0 0 1634.31 0.000360892" stroke="#7F7F7F" stroke-width="6.875" stroke-miterlimit="8" fill="none" fill-rule="evenodd" transform="matrix(1.83697e-16 1 1 -1.83697e-16 140.5 7.50007)"/><path d="M0 0 1637.59 0.000360892" stroke="#7F7F7F" stroke-width="6.875" stroke-miterlimit="8" fill="none" fill-rule="evenodd" transform="matrix(1.83697e-16 1 1 -1.83697e-16 186.5 6.50003)"/><path d="M0 0 1640.24 0.000360892" stroke="#7F7F7F" stroke-width="6.875" stroke-miterlimit="8" fill="none" fill-rule="evenodd" transform="matrix(1.83697e-16 1 1 -1.83697e-16 233.5 4.49979)"/><path d="M988.5 1232.91 1983.2 1232.91 1983.2 1250.09 988.5 1250.09ZM1974.6 1215.72 2026.17 1241.5 1974.6 1267.28Z" fill="#C55A11"/><path d="M2185.09 192.5 2185.09 1130.57 2167.91 1130.57 2167.91 192.5ZM2202.28 1121.97 2176.5 1173.54 2150.72 1121.97Z" fill="#C55A11"/><path d="M2114.91 1173.54 2114.91 235.468 2132.09 235.468 2132.09 1173.54ZM2097.72 244.062 2123.5 192.5 2149.28 244.062Z" fill="#C55A11"/><path d="M3255.82 1256.09 2322.47 1256.09 2322.47 1238.91 3255.82 1238.91ZM2331.06 1273.28 2279.5 1247.5 2331.06 1221.72Z"/><path d="M2285.5 1302.91 3218.85 1302.91 3218.85 1320.09 2285.5 1320.09ZM3210.26 1285.72 3261.82 1311.5 3210.26 1337.28Z"/><path d="M988.5 1297.91 1983.2 1297.91 1983.2 1315.09 988.5 1315.09ZM1974.6 1280.72 2026.17 1306.5 1974.6 1332.28Z"/><path d="M2069 1277.5C2069 1235.25 2105.71 1201 2151 1201 2196.29 1201 2233 1235.25 2233 1277.5 2233 1319.75 2196.29 1354 2151 1354 2105.71 1354 2069 1319.75 2069 1277.5Z" fill-rule="evenodd"/><path d="M2069 90.5001C2069 48.2503 2105.49 14.0001 2150.5 14.0001 2195.51 14.0001 2232 48.2503 2232 90.5001 2232 132.75 2195.51 167 2150.5 167 2105.49 167 2069 132.75 2069 90.5001Z" fill="#7F7F7F" fill-rule="evenodd"/><path d="M3297 1277.5C3297 1235.25 3333.49 1201 3378.5 1201 3423.51 1201 3460 1235.25 3460 1277.5 3460 1319.75 3423.51 1354 3378.5 1354 3333.49 1354 3297 1319.75 3297 1277.5Z" fill="#7F7F7F" fill-rule="evenodd"/><g><g><g><path d="M880.119 1503.37C885.241 1493.06 885.378 1480.82 883.556 1469.38 890.668 1465.99 897.378 1461.81 903.563 1456.93 911.778 1466.66 919.169 1478.76 918.653 1489.83 918.492 1493.63 921.439 1496.84 925.236 1497 929.033 1497.16 932.242 1494.21 932.403 1490.42L932.403 1488.83C932.403 1473.5 923.122 1458.72 913.738 1447.58 915.731 1445.52 917.622 1443.39 919.375 1441.19 920.74 1441.41 922.119 1441.52 923.5 1441.53 940.688 1441.53 955.194 1427.78 961.003 1408.77 962.248 1409.27 963.407 1409.95 964.441 1410.8 969.185 1414.58 971.316 1421.87 970.422 1432.46 970.156 1436.26 973.019 1439.55 976.816 1439.82 980.613 1440.08 983.906 1437.22 984.172 1433.42 985.238 1418.02 981.491 1406.78 972.966 1400.01 970.117 1397.76 966.86 1396.1 963.375 1395.09 963.375 1393.58 963.547 1392.03 963.547 1390.49 963.533 1387.86 963.36 1385.23 963.031 1382.62 966.646 1381.62 970.024 1379.92 972.966 1377.6 981.491 1370.72 985.272 1359.58 984.172 1344.18 983.897 1340.39 980.596 1337.53 976.799 1337.81 973.002 1338.08 970.147 1341.38 970.422 1345.18 971.213 1355.7 969.185 1363.02 964.441 1366.8 963.067 1367.87 961.505 1368.68 959.835 1369.17 953.475 1351.64 939.553 1339.44 923.328 1339.44 921.353 1339.46 919.385 1339.66 917.45 1340.06 915.731 1338.07 914.013 1336.14 912.019 1334.25 921.988 1322.73 932.231 1306.75 931.51 1290.52 931.348 1286.73 928.139 1283.78 924.342 1283.94 920.545 1284.1 917.598 1287.31 917.76 1291.11 918.241 1302.56 910.197 1315.17 901.569 1325.21 895.545 1320.69 889.071 1316.81 882.25 1313.62 884.485 1301.63 884.656 1288.5 879.225 1277.6 877.641 1274.15 873.558 1272.64 870.108 1274.22 866.658 1275.81 865.146 1279.89 866.73 1283.34 866.789 1283.47 866.852 1283.59 866.919 1283.72 870.167 1291.58 870.958 1300.25 869.188 1308.57 856.691 1304.56 843.64 1302.56 830.516 1302.62 811.431 1302.53 792.592 1306.92 775.516 1315.45 768.641 1305.72 759.738 1296.75 748.531 1293 744.924 1291.78 741.007 1293.71 739.783 1297.31 738.559 1300.92 740.49 1304.84 744.097 1306.06 751.591 1308.54 758.122 1314.97 763.519 1322.46 739.285 1338.65 723.781 1363.71 723.781 1392 723.781 1420.29 738.941 1444.46 762.625 1460.75 758.178 1467.17 751.953 1472.15 744.716 1475.08 741.08 1476.31 739.126 1480.25 740.35 1483.88 741.575 1487.52 745.515 1489.47 749.15 1488.25 759.485 1484.2 768.353 1477.12 774.588 1467.93 791.888 1476.82 811.066 1481.43 830.516 1481.37 844.059 1481.4 857.517 1479.22 870.356 1474.91 871.703 1482.49 870.819 1490.3 867.813 1497.39 866.12 1500.78 867.488 1504.9 870.872 1506.61 874.28 1508.28 878.4 1506.88 880.074 1503.47 880.089 1503.44 880.104 1503.41 880.119 1503.37ZM817.969 1333.05C817.969 1326.17 824.844 1320.67 833.438 1320.67 842.031 1320.67 848.906 1326.21 848.906 1333.05 848.906 1339.89 842.031 1345.42 833.438 1345.42 824.844 1345.42 817.969 1339.89 817.969 1333.05ZM773.281 1363.33C769.225 1357.83 769.26 1350.92 773.281 1347.86 777.303 1344.8 784.041 1346.8 788.097 1352.26 792.153 1357.73 792.119 1364.67 788.097 1367.73 784.075 1370.79 777.441 1368.83 773.385 1363.33ZM869.188 1361.06C869.188 1354.42 874.574 1349.03 881.219 1349.03 887.864 1349.03 893.25 1354.42 893.25 1361.06 893.25 1367.71 887.864 1373.09 881.219 1373.09 874.574 1373.09 869.188 1367.71 869.188 1361.06ZM737.944 1398.87C737.669 1394.3 737.669 1389.7 737.944 1385.12L917.313 1385.12 917.313 1398.87ZM881.219 1413.66C887.864 1413.66 893.25 1419.04 893.25 1425.69 893.25 1432.33 887.864 1437.72 881.219 1437.72 874.574 1437.72 869.188 1432.33 869.188 1425.69 869.093 1419.04 874.402 1413.58 881.046 1413.49 881.103 1413.48 881.161 1413.48 881.219 1413.48ZM773.488 1438.72C769.363 1435.69 769.328 1428.75 773.488 1423.25 777.647 1417.75 784.213 1415.79 788.303 1418.85 792.394 1421.91 792.463 1428.82 788.303 1434.32 784.144 1439.82 777.578 1441.6 773.488 1438.54ZM817.969 1453.36C817.969 1446.48 824.844 1440.98 833.438 1440.98 842.031 1440.98 848.906 1446.52 848.906 1453.36 848.906 1460.2 842.031 1465.73 833.438 1465.73 824.844 1465.73 817.969 1460.2 817.969 1453.36Z" fill="#3B3838"/></g></g></g><g><g><g><path d="M876.119 1258.38C881.241 1248.06 881.378 1235.83 879.556 1224.38 886.667 1220.99 893.378 1216.81 899.563 1211.93 907.778 1221.66 915.169 1233.76 914.653 1244.83 914.492 1248.63 917.439 1251.84 921.236 1252 925.033 1252.16 928.242 1249.21 928.403 1245.42L928.403 1243.83C928.403 1228.5 919.122 1213.72 909.738 1202.58 911.731 1200.52 913.622 1198.39 915.375 1196.19 916.739 1196.41 918.119 1196.52 919.5 1196.53 936.688 1196.53 951.194 1182.78 957.003 1163.78 958.248 1164.27 959.407 1164.95 960.441 1165.8 965.184 1169.58 967.316 1176.87 966.422 1187.46 966.156 1191.26 969.019 1194.55 972.816 1194.82 976.613 1195.08 979.906 1192.22 980.172 1188.42 981.238 1173.02 977.491 1161.78 968.966 1155.01 966.117 1152.77 962.86 1151.1 959.375 1150.09 959.375 1148.58 959.547 1147.03 959.547 1145.49 959.532 1142.86 959.36 1140.23 959.031 1137.62 962.646 1136.62 966.024 1134.92 968.966 1132.6 977.491 1125.72 981.272 1114.58 980.172 1099.18 979.897 1095.39 976.596 1092.53 972.799 1092.81 969.001 1093.08 966.147 1096.38 966.422 1100.18 967.213 1110.7 965.184 1118.02 960.441 1121.8 959.067 1122.87 957.504 1123.68 955.834 1124.18 949.475 1106.64 935.553 1094.44 919.328 1094.44 917.353 1094.46 915.385 1094.66 913.45 1095.06 911.731 1093.07 910.013 1091.14 908.019 1089.25 917.988 1077.73 928.231 1061.75 927.509 1045.53 927.348 1041.73 924.139 1038.78 920.342 1038.94 916.545 1039.1 913.598 1042.31 913.759 1046.11 914.241 1057.56 906.197 1070.17 897.569 1080.21 891.545 1075.69 885.071 1071.81 878.25 1068.63 880.484 1056.63 880.656 1043.5 875.225 1032.6 873.64 1029.15 869.558 1027.64 866.108 1029.22 862.658 1030.81 861.145 1034.89 862.73 1038.34 862.789 1038.47 862.852 1038.59 862.919 1038.72 866.167 1046.58 866.958 1055.25 865.188 1063.57 852.691 1059.56 839.639 1057.56 826.516 1057.63 807.431 1057.53 788.591 1061.92 771.516 1070.45 764.641 1060.72 755.738 1051.75 744.531 1048 740.924 1046.78 737.007 1048.71 735.783 1052.31 734.558 1055.92 736.49 1059.84 740.097 1061.06 747.591 1063.54 754.122 1069.97 759.519 1077.46 735.284 1093.65 719.781 1118.71 719.781 1147 719.781 1175.29 734.941 1199.46 758.625 1215.75 754.178 1222.17 747.953 1227.15 740.716 1230.08 737.08 1231.31 735.126 1235.25 736.35 1238.88 737.574 1242.52 741.515 1244.47 745.15 1243.25 755.485 1239.2 764.353 1232.12 770.588 1222.93 787.887 1231.82 807.066 1236.43 826.516 1236.38 840.059 1236.4 853.517 1234.22 866.356 1229.91 867.703 1237.49 866.819 1245.3 863.813 1252.39 862.12 1255.78 863.488 1259.9 866.872 1261.61 870.28 1263.28 874.4 1261.88 876.074 1258.47 876.089 1258.44 876.104 1258.41 876.119 1258.38ZM813.969 1088.05C813.969 1081.17 820.844 1075.67 829.438 1075.67 838.031 1075.67 844.906 1081.21 844.906 1088.05 844.906 1094.89 838.031 1100.42 829.438 1100.42 820.844 1100.42 813.969 1094.89 813.969 1088.05ZM769.281 1118.33C765.225 1112.83 765.259 1105.92 769.281 1102.86 773.303 1099.8 780.041 1101.8 784.097 1107.26 788.153 1112.73 788.119 1119.67 784.097 1122.73 780.075 1125.79 773.441 1123.83 769.384 1118.33ZM865.188 1116.06C865.188 1109.42 870.574 1104.03 877.219 1104.03 883.864 1104.03 889.25 1109.42 889.25 1116.06 889.25 1122.71 883.864 1128.09 877.219 1128.09 870.574 1128.09 865.188 1122.71 865.188 1116.06ZM733.944 1153.88C733.669 1149.3 733.669 1144.7 733.944 1140.13L913.313 1140.13 913.313 1153.88ZM877.219 1168.66C883.864 1168.66 889.25 1174.04 889.25 1180.69 889.25 1187.33 883.864 1192.72 877.219 1192.72 870.574 1192.72 865.188 1187.33 865.188 1180.69 865.093 1174.04 870.402 1168.58 877.046 1168.49 877.103 1168.48 877.161 1168.48 877.219 1168.48ZM769.488 1193.72C765.363 1190.69 765.328 1183.75 769.488 1178.25 773.647 1172.75 780.213 1170.79 784.303 1173.85 788.394 1176.91 788.463 1183.82 784.303 1189.32 780.144 1194.82 773.578 1196.6 769.488 1193.54ZM813.969 1208.36C813.969 1201.48 820.844 1195.98 829.438 1195.98 838.031 1195.98 844.906 1201.52 844.906 1208.36 844.906 1215.2 838.031 1220.73 829.438 1220.73 820.844 1220.73 813.969 1215.2 813.969 1208.36Z" fill="#C55A11"/></g></g></g></g></svg>