<svg width="4466" height="1662" xmlns="http://www.w3.org/2000/svg" xmlns:xlink="http://www.w3.org/1999/xlink" xml:space="preserve" overflow="hidden"><g transform="translate(50 5)"><rect x="0" y="0" width="4413" height="1640" fill="#BFBFBF"/><path d="M4.68817e-07-5.72917 4358.73-5.72881 4358.73 5.72952-4.68817e-07 5.72917ZM4352.98-17.1871 4410.27 0.000360892 4352.98 17.1879Z" fill="#7F7F7F" transform="matrix(-1 0 0 1 4412.77 1557.5)"/><path d="M4.68817e-07-5.72917 4358.73-5.72881 4358.73 5.72952-4.68817e-07 5.72917ZM4352.98-17.1871 4410.27 0.000360892 4352.98 17.1879Z" fill="#7F7F7F" transform="matrix(-1 0 0 1 4412.77 1604.5)"/><path d="M4.68817e-07-5.72917 4358.73-5.72881 4358.73 5.72952-4.68817e-07 5.72917ZM4352.98-17.1871 4410.27 0.000360892 4352.98 17.1879Z" fill="#7F7F7F" transform="matrix(-1 0 0 1 4412.77 1418.5)"/><path d="M4.69328e-07-5.72917 4353.91-5.72881 4353.91 5.72952-4.69328e-07 5.72917ZM4348.18-17.1871 4405.47 0.000360892 4348.18 17.1879Z" fill="#7F7F7F" transform="matrix(-1 0 0 1 4407.97 1466.5)"/><path d="M4.68568e-07-5.72917 4361.06-5.72881 4361.06 5.72952-4.68568e-07 5.72917ZM4355.33-17.1871 4412.62 0.000360892 4355.33 17.1879Z" fill="#7F7F7F" transform="matrix(-1 0 0 1 4415.12 1513.5)"/><path d="M4412.77 432.152 54.0405 430.252 54.0454 418.793 4412.78 420.694ZM59.7842 441.713 2.5 424.5 59.7993 407.338Z" fill="#7F7F7F"/><path d="M4.68817e-07-5.72917 4358.73-5.72881 4358.73 5.72952-4.68817e-07 5.72917ZM4352.98-17.1871 4410.27 0.000360892 4352.98 17.1879Z" fill="#7F7F7F" transform="matrix(-1 0 0 1 4412.77 471.5)"/><path d="M4.68817e-07-5.72917 4358.73-5.72881 4358.73 5.72952-4.68817e-07 5.72917ZM4352.98-17.1871 4410.27 0.000360892 4352.98 17.1879Z" fill="#7F7F7F" transform="matrix(-1 0 0 1 4412.77 518.5)"/><path d="M4.69328e-07-5.72917 4353.91-5.72881 4353.91 5.72952-4.69328e-07 5.72917ZM4348.18-17.1871 4405.47 0.000360892 4348.18 17.1879Z" fill="#7F7F7F" transform="matrix(-1 0 0 1 4407.97 566.5)"/><path d="M4.68568e-07-5.72917 4361.06-5.72881 4361.06 5.72952-4.68568e-07 5.72917ZM4355.33-17.1871 4412.62 0.000360892 4355.33 17.1879Z" fill="#7F7F7F" transform="matrix(-1 0 0 1 4415.12 613.5)"/><path d="M4.68568e-07-5.72917 4361.06-5.72881 4361.06 5.72952-4.68568e-07 5.72917ZM4355.33-17.1871 4412.62 0.000360892 4355.33 17.1879Z" fill="#7F7F7F" transform="matrix(-1 0 0 1 4415.12 660.5)"/><path d="M4.68568e-07-5.72917 4361.06-5.72881 4361.06 5.72952-4.68568e-07 5.72917ZM4355.33-17.1871 4412.62 0.000360892 4355.33 17.1879Z" fill="#7F7F7F" transform="matrix(-1 0 0 1 4415.12 707.5)"/><path d="M4.68568e-07-5.72917 4361.06-5.72881 4361.06 5.72952-4.68568e-07 5.72917ZM4355.33-17.1871 4412.62 0.000360892 4355.33 17.1879Z" fill="#7F7F7F" transform="matrix(-1 0 0 1 4415.12 755.5)"/><path d="M4.68568e-07-5.72917 4361.06-5.72881 4361.06 5.72952-4.68568e-07 5.72917ZM4355.33-17.1871 4412.62 0.000360892 4355.33 17.1879Z" fill="#7F7F7F" transform="matrix(-1 0 0 1 4415.12 802.5)"/><path d="M4.68568e-07-5.72917 4361.06-5.72881 4361.06 5.72952-4.68568e-07 5.72917ZM4355.33-17.1871 4412.62 0.000360892 4355.33 17.1879Z" fill="#7F7F7F" transform="matrix(-1 0 0 1 4415.12 849.5)"/><path d="M4.68568e-07-5.72917 4361.06-5.72881 4361.06 5.72952-4.68568e-07 5.72917ZM4355.33-17.1871 4412.62 0.000360892 4355.33 17.1879Z" fill="#7F7F7F" transform="matrix(-1 0 0 1 4415.12 896.5)"/><path d="M4.68568e-07-5.72917 4361.06-5.72881 4361.06 5.72952-4.68568e-07 5.72917ZM4355.33-17.1871 4412.62 0.000360892 4355.33 17.1879Z" fill="#7F7F7F" transform="matrix(-1 0 0 1 4415.12 944.5)"/><path d="M4.68568e-07-5.72917 4361.06-5.72881 4361.06 5.72952-4.68568e-07 5.72917ZM4355.33-17.1871 4412.62 0.000360892 4355.33 17.1879Z" fill="#7F7F7F" transform="matrix(-1 0 0 1 4415.12 991.5)"/><path d="M4.68568e-07-5.72917 4361.06-5.72881 4361.06 5.72952-4.68568e-07 5.72917ZM4355.33-17.1871 4412.62 0.000360892 4355.33 17.1879Z" fill="#7F7F7F" transform="matrix(-1 0 0 1 4415.12 1038.5)"/><path d="M4.68568e-07-5.72917 4361.06-5.72881 4361.06 5.72952-4.68568e-07 5.72917ZM4355.33-17.1871 4412.62 0.000360892 4355.33 17.1879Z" fill="#7F7F7F" transform="matrix(-1 0 0 1 4415.12 1085.5)"/><path d="M4.68568e-07-5.72917 4361.06-5.72881 4361.06 5.72952-4.68568e-07 5.72917ZM4355.33-17.1871 4412.62 0.000360892 4355.33 17.1879Z" fill="#7F7F7F" transform="matrix(-1 0 0 1 4415.12 1133.5)"/><path d="M4.68568e-07-5.72917 4361.06-5.72881 4361.06 5.72952-4.68568e-07 5.72917ZM4355.33-17.1871 4412.62 0.000360892 4355.33 17.1879Z" fill="#7F7F7F" transform="matrix(-1 0 0 1 4415.12 1180.5)"/><path d="M4.68568e-07-5.72917 4361.06-5.72881 4361.06 5.72952-4.68568e-07 5.72917ZM4355.33-17.1871 4412.62 0.000360892 4355.33 17.1879Z" fill="#7F7F7F" transform="matrix(-1 0 0 1 4415.12 1227.5)"/><path d="M4.68568e-07-5.72917 4361.06-5.72881 4361.06 5.72952-4.68568e-07 5.72917ZM4355.33-17.1871 4412.62 0.000360892 4355.33 17.1879Z" fill="#7F7F7F" transform="matrix(-1 0 0 1 4415.12 1274.5)"/><path d="M4.68568e-07-5.72917 4361.06-5.72881 4361.06 5.72952-4.68568e-07 5.72917ZM4355.33-17.1871 4412.62 0.000360892 4355.33 17.1879Z" fill="#7F7F7F" transform="matrix(-1 0 0 1 4415.12 1322.5)"/><path d="M4.68568e-07-5.72917 4361.06-5.72881 4361.06 5.72952-4.68568e-07 5.72917ZM4355.33-17.1871 4412.62 0.000360892 4355.33 17.1879Z" fill="#7F7F7F" transform="matrix(-1 0 0 1 4415.12 1369.5)"/><path d="M4.68817e-07-5.72917 4358.73-5.72881 4358.73 5.72952-4.68817e-07 5.72917ZM4352.98-17.1871 4410.27 0.000360892 4352.98 17.1879Z" fill="#7F7F7F" transform="matrix(-1 0 0 1 4412.77 286.5)"/><path d="M4.69328e-07-5.72917 4353.91-5.72881 4353.91 5.72952-4.69328e-07 5.72917ZM4348.18-17.1871 4405.47 0.000360892 4348.18 17.1879Z" fill="#7F7F7F" transform="matrix(-1 0 0 1 4407.97 333.5)"/><path d="M4.68568e-07-5.72917 4361.06-5.72881 4361.06 5.72952-4.68568e-07 5.72917ZM4355.33-17.1871 4412.62 0.000360892 4355.33 17.1879Z" fill="#7F7F7F" transform="matrix(-1 0 0 1 4415.12 380.5)"/><path d="M4.68568e-07-5.72917 4361.06-5.72881 4361.06 5.72952-4.68568e-07 5.72917ZM4355.33-17.1871 4412.62 0.000360892 4355.33 17.1879Z" fill="#7F7F7F" transform="matrix(-1 0 0 1 4415.12 47.4999)"/><path d="M4.68568e-07-5.72917 4361.06-5.72881 4361.06 5.72952-4.68568e-07 5.72917ZM4355.33-17.1871 4412.62 0.000360892 4355.33 17.1879Z" fill="#7F7F7F" transform="matrix(-1 0 0 1 4415.12 95.5001)"/><path d="M4.68568e-07-5.72917 4361.06-5.72881 4361.06 5.72952-4.68568e-07 5.72917ZM4355.33-17.1871 4412.62 0.000360892 4355.33 17.1879Z" fill="#7F7F7F" transform="matrix(-1 0 0 1 4415.12 142.5)"/><path d="M4.68568e-07-5.72917 4361.06-5.72881 4361.06 5.72952-4.68568e-07 5.72917ZM4355.33-17.1871 4412.62 0.000360892 4355.33 17.1879Z" fill="#7F7F7F" transform="matrix(-1 0 0 1 4415.12 189.5)"/><path d="M4.68568e-07-5.72917 4361.06-5.72881 4361.06 5.72952-4.68568e-07 5.72917ZM4355.33-17.1871 4412.62 0.000360892 4355.33 17.1879Z" fill="#7F7F7F" transform="matrix(-1 0 0 1 4415.12 236.5)"/><path d="M0 0 1634.31 0.000360892" stroke="#7F7F7F" stroke-width="6.875" stroke-miterlimit="8" fill="none" fill-rule="evenodd" transform="matrix(1.83697e-16 1 1 -1.83697e-16 1556.5 3.49993)"/><path d="M0 0 1634.31 0.000360892" stroke="#7F7F7F" stroke-width="6.875" stroke-miterlimit="8" fill="none" fill-rule="evenodd" transform="matrix(1.83697e-16 1 1 -1.83697e-16 1602.5 3.49993)"/><path d="M0 0 1634.31 0.000360892" stroke="#7F7F7F" stroke-width="6.875" stroke-miterlimit="8" fill="none" fill-rule="evenodd" transform="matrix(1.83697e-16 1 1 -1.83697e-16 1649.5 3.49993)"/><path d="M0 0 1637.59 0.000360892" stroke="#7F7F7F" stroke-width="6.875" stroke-miterlimit="8" fill="none" fill-rule="evenodd" transform="matrix(1.83697e-16 1 1 -1.83697e-16 1696.5 1.49987)"/><path d="M0 0 1640.24 0.000360892" stroke="#7F7F7F" stroke-width="6.875" stroke-miterlimit="8" fill="none" fill-rule="evenodd" transform="matrix(1.83697e-16 1 1 -1.83697e-16 1743.5 0.499656)"/><path d="M0 0 1640.24 0.000360892" stroke="#7F7F7F" stroke-width="6.875" stroke-miterlimit="8" fill="none" fill-rule="evenodd" transform="matrix(1.83697e-16 1 1 -1.83697e-16 1790.5 0.499656)"/><path d="M0 0 1640.24 0.000360892" stroke="#7F7F7F" stroke-width="6.875" stroke-miterlimit="8" fill="none" fill-rule="evenodd" transform="matrix(1.83697e-16 1 1 -1.83697e-16 1836.5 0.499656)"/><path d="M0 0 1640.24 0.000360892" stroke="#7F7F7F" stroke-width="6.875" stroke-miterlimit="8" fill="none" fill-rule="evenodd" transform="matrix(1.83697e-16 1 1 -1.83697e-16 1883.5 0.499656)"/><path d="M0 0 1640.24 0.000360892" stroke="#7F7F7F" stroke-width="6.875" stroke-miterlimit="8" fill="none" fill-rule="evenodd" transform="matrix(1.83697e-16 1 1 -1.83697e-16 1930.5 0.499656)"/><path d="M0 0 1640.24 0.000360892" stroke="#7F7F7F" stroke-width="6.875" stroke-miterlimit="8" fill="none" fill-rule="evenodd" transform="matrix(1.83697e-16 1 1 -1.83697e-16 1977.5 0.499656)"/><path d="M0 0 1640.24 0.000360892" stroke="#7F7F7F" stroke-width="6.875" stroke-miterlimit="8" fill="none" fill-rule="evenodd" transform="matrix(1.83697e-16 1 1 -1.83697e-16 2024.5 0.499656)"/><path d="M0 0 1640.24 0.000360892" stroke="#7F7F7F" stroke-width="6.875" stroke-miterlimit="8" fill="none" fill-rule="evenodd" transform="matrix(1.83697e-16 1 1 -1.83697e-16 2070.5 0.499656)"/><path d="M0 0 1640.24 0.000360892" stroke="#7F7F7F" stroke-width="6.875" stroke-miterlimit="8" fill="none" fill-rule="evenodd" transform="matrix(1.83697e-16 1 1 -1.83697e-16 2117.5 0.499656)"/><path d="M0 0 1640.24 0.000360892" stroke="#7F7F7F" stroke-width="6.875" stroke-miterlimit="8" fill="none" fill-rule="evenodd" transform="matrix(1.83697e-16 1 1 -1.83697e-16 2164.5 0.499656)"/><path d="M0 0 1640.24 0.000360892" stroke="#7F7F7F" stroke-width="6.875" stroke-miterlimit="8" fill="none" fill-rule="evenodd" transform="matrix(1.83697e-16 1 1 -1.83697e-16 2211.5 0.499656)"/><path d="M0 0 1640.24 0.000360892" stroke="#7F7F7F" stroke-width="6.875" stroke-miterlimit="8" fill="none" fill-rule="evenodd" transform="matrix(1.83697e-16 1 1 -1.83697e-16 2258.5 0.499656)"/><path d="M0 0 1640.24 0.000360892" stroke="#7F7F7F" stroke-width="6.875" stroke-miterlimit="8" fill="none" fill-rule="evenodd" transform="matrix(1.83697e-16 1 1 -1.83697e-16 2305.5 0.499656)"/><path d="M0 0 1640.24 0.000360892" stroke="#7F7F7F" stroke-width="6.875" stroke-miterlimit="8" fill="none" fill-rule="evenodd" transform="matrix(1.83697e-16 1 1 -1.83697e-16 2351.5 0.499836)"/><path d="M0 0 1640.24 0.000360892" stroke="#7F7F7F" stroke-width="6.875" stroke-miterlimit="8" fill="none" fill-rule="evenodd" transform="matrix(1.83697e-16 1 1 -1.83697e-16 2398.5 0.499656)"/><path d="M0 0 1640.24 0.000360892" stroke="#7F7F7F" stroke-width="6.875" stroke-miterlimit="8" fill="none" fill-rule="evenodd" transform="matrix(1.83697e-16 1 1 -1.83697e-16 2445.5 0.499836)"/><path d="M0 0 1640.24 0.000360892" stroke="#7F7F7F" stroke-width="6.875" stroke-miterlimit="8" fill="none" fill-rule="evenodd" transform="matrix(1.83697e-16 1 1 -1.83697e-16 2492.5 0.499836)"/><path d="M0 0 1634.31 0.000360892" stroke="#7F7F7F" stroke-width="6.875" stroke-miterlimit="8" fill="none" fill-rule="evenodd" transform="matrix(1.83697e-16 1 1 -1.83697e-16 1415.5 3.49993)"/><path d="M0 0 1637.59 0.000360892" stroke="#7F7F7F" stroke-width="6.875" stroke-miterlimit="8" fill="none" fill-rule="evenodd" transform="matrix(1.83697e-16 1 1 -1.83697e-16 1462.5 1.49987)"/><path d="M0 0 1640.24 0.000360892" stroke="#7F7F7F" stroke-width="6.875" stroke-miterlimit="8" fill="none" fill-rule="evenodd" transform="matrix(1.83697e-16 1 1 -1.83697e-16 1509.5 0.499656)"/><path d="M0 0 1634.31 0.000360892" stroke="#7F7F7F" stroke-width="6.875" stroke-miterlimit="8" fill="none" fill-rule="evenodd" transform="matrix(1.83697e-16 1 1 -1.83697e-16 432.5 5.5)"/><path d="M0 0 1634.31 0.000360892" stroke="#7F7F7F" stroke-width="6.875" stroke-miterlimit="8" fill="none" fill-rule="evenodd" transform="matrix(1.83697e-16 1 1 -1.83697e-16 479.5 5.5)"/><path d="M0 0 1634.31 0.000360892" stroke="#7F7F7F" stroke-width="6.875" stroke-miterlimit="8" fill="none" fill-rule="evenodd" transform="matrix(1.83697e-16 1 1 -1.83697e-16 526.5 5.5)"/><path d="M0 0 1637.59 0.000360892" stroke="#7F7F7F" stroke-width="6.875" stroke-miterlimit="8" fill="none" fill-rule="evenodd" transform="matrix(1.83697e-16 1 1 -1.83697e-16 573.5 3.49993)"/><path d="M0 0 1640.24 0.000360892" stroke="#7F7F7F" stroke-width="6.875" stroke-miterlimit="8" fill="none" fill-rule="evenodd" transform="matrix(1.83697e-16 1 1 -1.83697e-16 619.5 2.49972)"/><path d="M0 0 1640.24 0.000360892" stroke="#7F7F7F" stroke-width="6.875" stroke-miterlimit="8" fill="none" fill-rule="evenodd" transform="matrix(1.83697e-16 1 1 -1.83697e-16 666.5 2.49972)"/><path d="M0 0 1640.24 0.000360892" stroke="#7F7F7F" stroke-width="6.875" stroke-miterlimit="8" fill="none" fill-rule="evenodd" transform="matrix(1.83697e-16 1 1 -1.83697e-16 713.5 2.49972)"/><path d="M0 0 1640.24 0.000360892" stroke="#7F7F7F" stroke-width="6.875" stroke-miterlimit="8" fill="none" fill-rule="evenodd" transform="matrix(1.83697e-16 1 1 -1.83697e-16 760.5 2.49972)"/><path d="M0 0 1640.24 0.000360892" stroke="#7F7F7F" stroke-width="6.875" stroke-miterlimit="8" fill="none" fill-rule="evenodd" transform="matrix(1.83697e-16 1 1 -1.83697e-16 807.5 2.49972)"/><path d="M0 0 1640.24 0.000360892" stroke="#7F7F7F" stroke-width="6.875" stroke-miterlimit="8" fill="none" fill-rule="evenodd" transform="matrix(1.83697e-16 1 1 -1.83697e-16 853.5 2.49972)"/><path d="M0 0 1640.24 0.000360892" stroke="#7F7F7F" stroke-width="6.875" stroke-miterlimit="8" fill="none" fill-rule="evenodd" transform="matrix(1.83697e-16 1 1 -1.83697e-16 900.5 2.49972)"/><path d="M0 0 1640.24 0.000360892" stroke="#7F7F7F" stroke-width="6.875" stroke-miterlimit="8" fill="none" fill-rule="evenodd" transform="matrix(1.83697e-16 1 1 -1.83697e-16 947.5 2.49972)"/><path d="M0 0 1640.24 0.000360892" stroke="#7F7F7F" stroke-width="6.875" stroke-miterlimit="8" fill="none" fill-rule="evenodd" transform="matrix(1.83697e-16 1 1 -1.83697e-16 994.5 2.49972)"/><path d="M0 0 1640.24 0.000360892" stroke="#7F7F7F" stroke-width="6.875" stroke-miterlimit="8" fill="none" fill-rule="evenodd" transform="matrix(1.83697e-16 1 1 -1.83697e-16 1041.5 2.49972)"/><path d="M0 0 1640.24 0.000360892" stroke="#7F7F7F" stroke-width="6.875" stroke-miterlimit="8" fill="none" fill-rule="evenodd" transform="matrix(1.83697e-16 1 1 -1.83697e-16 1088.5 2.49972)"/><path d="M0 0 1640.24 0.000360892" stroke="#7F7F7F" stroke-width="6.875" stroke-miterlimit="8" fill="none" fill-rule="evenodd" transform="matrix(1.83697e-16 1 1 -1.83697e-16 1134.5 2.49972)"/><path d="M0 0 1640.24 0.000360892" stroke="#7F7F7F" stroke-width="6.875" stroke-miterlimit="8" fill="none" fill-rule="evenodd" transform="matrix(1.83697e-16 1 1 -1.83697e-16 1181.5 2.49972)"/><path d="M0 0 1640.24 0.000360892" stroke="#7F7F7F" stroke-width="6.875" stroke-miterlimit="8" fill="none" fill-rule="evenodd" transform="matrix(1.83697e-16 1 1 -1.83697e-16 1228.5 2.4999)"/><path d="M0 0 1640.24 0.000360892" stroke="#7F7F7F" stroke-width="6.875" stroke-miterlimit="8" fill="none" fill-rule="evenodd" transform="matrix(1.83697e-16 1 1 -1.83697e-16 1275.5 2.49972)"/><path d="M0 0 1640.24 0.000360892" stroke="#7F7F7F" stroke-width="6.875" stroke-miterlimit="8" fill="none" fill-rule="evenodd" transform="matrix(1.83697e-16 1 1 -1.83697e-16 1322.5 2.4999)"/><path d="M0 0 1640.24 0.000360892" stroke="#7F7F7F" stroke-width="6.875" stroke-miterlimit="8" fill="none" fill-rule="evenodd" transform="matrix(1.83697e-16 1 1 -1.83697e-16 1368.5 2.4999)"/><path d="M0 0 1634.31 0.000360892" stroke="#7F7F7F" stroke-width="6.875" stroke-miterlimit="8" fill="none" fill-rule="evenodd" transform="matrix(1.83697e-16 1 1 -1.83697e-16 292.5 5.5)"/><path d="M0 0 1637.59 0.000360892" stroke="#7F7F7F" stroke-width="6.875" stroke-miterlimit="8" fill="none" fill-rule="evenodd" transform="matrix(1.83697e-16 1 1 -1.83697e-16 339.5 3.49993)"/><path d="M0 0 1640.24 0.000360892" stroke="#7F7F7F" stroke-width="6.875" stroke-miterlimit="8" fill="none" fill-rule="evenodd" transform="matrix(1.83697e-16 1 1 -1.83697e-16 385.5 2.49972)"/><path d="M0 0 1634.31 0.000360892" stroke="#7F7F7F" stroke-width="6.875" stroke-miterlimit="8" fill="none" fill-rule="evenodd" transform="matrix(1.83697e-16 1 1 -1.83697e-16 4083.5 3.49993)"/><path d="M0 0 1634.31 0.000360892" stroke="#7F7F7F" stroke-width="6.875" stroke-miterlimit="8" fill="none" fill-rule="evenodd" transform="matrix(1.83697e-16 1 1 -1.83697e-16 4130.5 3.49993)"/><path d="M0 0 1634.31 0.000360892" stroke="#7F7F7F" stroke-width="6.875" stroke-miterlimit="8" fill="none" fill-rule="evenodd" transform="matrix(1.83697e-16 1 1 -1.83697e-16 4177.5 3.49993)"/><path d="M0 0 1637.59 0.000360892" stroke="#7F7F7F" stroke-width="6.875" stroke-miterlimit="8" fill="none" fill-rule="evenodd" transform="matrix(1.83697e-16 1 1 -1.83697e-16 4224.5 2.4999)"/><path d="M0 0 1640.24 0.000360892" stroke="#7F7F7F" stroke-width="6.875" stroke-miterlimit="8" fill="none" fill-rule="evenodd" transform="matrix(1.83697e-16 1 1 -1.83697e-16 4270.5 0.499656)"/><path d="M0 0 1640.24 0.000360892" stroke="#7F7F7F" stroke-width="6.875" stroke-miterlimit="8" fill="none" fill-rule="evenodd" transform="matrix(1.83697e-16 1 1 -1.83697e-16 4317.5 0.499656)"/><path d="M0 0 1640.24 0.000360892" stroke="#7F7F7F" stroke-width="6.875" stroke-miterlimit="8" fill="none" fill-rule="evenodd" transform="matrix(1.83697e-16 1 1 -1.83697e-16 4364.5 0.499656)"/><path d="M0 0 1634.31 0.000360892" stroke="#7F7F7F" stroke-width="6.875" stroke-miterlimit="8" fill="none" fill-rule="evenodd" transform="matrix(1.83697e-16 1 1 -1.83697e-16 3943.5 3.49993)"/><path d="M0 0 1637.59 0.000360892" stroke="#7F7F7F" stroke-width="6.875" stroke-miterlimit="8" fill="none" fill-rule="evenodd" transform="matrix(1.83697e-16 1 1 -1.83697e-16 3990.5 2.4999)"/><path d="M0 0 1640.24 0.000360892" stroke="#7F7F7F" stroke-width="6.875" stroke-miterlimit="8" fill="none" fill-rule="evenodd" transform="matrix(1.83697e-16 1 1 -1.83697e-16 4036.5 0.499656)"/><path d="M0 0 1634.31 0.000360892" stroke="#7F7F7F" stroke-width="6.875" stroke-miterlimit="8" fill="none" fill-rule="evenodd" transform="matrix(1.83697e-16 1 1 -1.83697e-16 2960.5 5.5)"/><path d="M0 0 1634.31 0.000360892" stroke="#7F7F7F" stroke-width="6.875" stroke-miterlimit="8" fill="none" fill-rule="evenodd" transform="matrix(1.83697e-16 1 1 -1.83697e-16 3007.5 5.5)"/><path d="M0 0 1634.31 0.000360892" stroke="#7F7F7F" stroke-width="6.875" stroke-miterlimit="8" fill="none" fill-rule="evenodd" transform="matrix(1.83697e-16 1 1 -1.83697e-16 3053.5 5.5)"/><path d="M0 0 1637.59 0.000360892" stroke="#7F7F7F" stroke-width="6.875" stroke-miterlimit="8" fill="none" fill-rule="evenodd" transform="matrix(1.83697e-16 1 1 -1.83697e-16 3100.5 3.49993)"/><path d="M0 0 1640.24 0.000360892" stroke="#7F7F7F" stroke-width="6.875" stroke-miterlimit="8" fill="none" fill-rule="evenodd" transform="matrix(1.83697e-16 1 1 -1.83697e-16 3147.5 2.49972)"/><path d="M0 0 1640.24 0.000360892" stroke="#7F7F7F" stroke-width="6.875" stroke-miterlimit="8" fill="none" fill-rule="evenodd" transform="matrix(1.83697e-16 1 1 -1.83697e-16 3194.5 2.49972)"/><path d="M0 0 1640.24 0.000360892" stroke="#7F7F7F" stroke-width="6.875" stroke-miterlimit="8" fill="none" fill-rule="evenodd" transform="matrix(1.83697e-16 1 1 -1.83697e-16 3241.5 2.49972)"/><path d="M0 0 1640.24 0.000360892" stroke="#7F7F7F" stroke-width="6.875" stroke-miterlimit="8" fill="none" fill-rule="evenodd" transform="matrix(1.83697e-16 1 1 -1.83697e-16 3287.5 2.49972)"/><path d="M0 0 1640.24 0.000360892" stroke="#7F7F7F" stroke-width="6.875" stroke-miterlimit="8" fill="none" fill-rule="evenodd" transform="matrix(1.83697e-16 1 1 -1.83697e-16 3334.5 2.49972)"/><path d="M0 0 1640.24 0.000360892" stroke="#7F7F7F" stroke-width="6.875" stroke-miterlimit="8" fill="none" fill-rule="evenodd" transform="matrix(1.83697e-16 1 1 -1.83697e-16 3381.5 2.49972)"/><path d="M0 0 1640.24 0.000360892" stroke="#7F7F7F" stroke-width="6.875" stroke-miterlimit="8" fill="none" fill-rule="evenodd" transform="matrix(1.83697e-16 1 1 -1.83697e-16 3428.5 2.49972)"/><path d="M0 0 1640.24 0.000360892" stroke="#7F7F7F" stroke-width="6.875" stroke-miterlimit="8" fill="none" fill-rule="evenodd" transform="matrix(1.83697e-16 1 1 -1.83697e-16 3475.5 2.49972)"/><path d="M0 0 1640.24 0.000360892" stroke="#7F7F7F" stroke-width="6.875" stroke-miterlimit="8" fill="none" fill-rule="evenodd" transform="matrix(1.83697e-16 1 1 -1.83697e-16 3522.5 2.49972)"/><path d="M0 0 1640.24 0.000360892" stroke="#7F7F7F" stroke-width="6.875" stroke-miterlimit="8" fill="none" fill-rule="evenodd" transform="matrix(1.83697e-16 1 1 -1.83697e-16 3568.5 2.49972)"/><path d="M0 0 1640.24 0.000360892" stroke="#7F7F7F" stroke-width="6.875" stroke-miterlimit="8" fill="none" fill-rule="evenodd" transform="matrix(1.83697e-16 1 1 -1.83697e-16 3615.5 2.49972)"/><path d="M0 0 1640.24 0.000360892" stroke="#7F7F7F" stroke-width="6.875" stroke-miterlimit="8" fill="none" fill-rule="evenodd" transform="matrix(1.83697e-16 1 1 -1.83697e-16 3662.5 2.49972)"/><path d="M0 0 1640.24 0.000360892" stroke="#7F7F7F" stroke-width="6.875" stroke-miterlimit="8" fill="none" fill-rule="evenodd" transform="matrix(1.83697e-16 1 1 -1.83697e-16 3709.5 2.49972)"/><path d="M0 0 1640.24 0.000360892" stroke="#7F7F7F" stroke-width="6.875" stroke-miterlimit="8" fill="none" fill-rule="evenodd" transform="matrix(1.83697e-16 1 1 -1.83697e-16 3756.5 2.4999)"/><path d="M0 0 1640.24 0.000360892" stroke="#7F7F7F" stroke-width="6.875" stroke-miterlimit="8" fill="none" fill-rule="evenodd" transform="matrix(1.83697e-16 1 1 -1.83697e-16 3802.5 2.49972)"/><path d="M0 0 1640.24 0.000360892" stroke="#7F7F7F" stroke-width="6.875" stroke-miterlimit="8" fill="none" fill-rule="evenodd" transform="matrix(1.83697e-16 1 1 -1.83697e-16 3849.5 2.4999)"/><path d="M0 0 1640.24 0.000360892" stroke="#7F7F7F" stroke-width="6.875" stroke-miterlimit="8" fill="none" fill-rule="evenodd" transform="matrix(1.83697e-16 1 1 -1.83697e-16 3896.5 2.4999)"/><path d="M0 0 1634.31 0.000360892" stroke="#7F7F7F" stroke-width="6.875" stroke-miterlimit="8" fill="none" fill-rule="evenodd" transform="matrix(1.83697e-16 1 1 -1.83697e-16 2819.5 5.5)"/><path d="M0 0 1637.59 0.000360892" stroke="#7F7F7F" stroke-width="6.875" stroke-miterlimit="8" fill="none" fill-rule="evenodd" transform="matrix(1.83697e-16 1 1 -1.83697e-16 2866.5 3.49993)"/><path d="M0 0 1640.24 0.000360892" stroke="#7F7F7F" stroke-width="6.875" stroke-miterlimit="8" fill="none" fill-rule="evenodd" transform="matrix(1.83697e-16 1 1 -1.83697e-16 2913.5 2.49972)"/><path d="M0 0 1640.24 0.000360892" stroke="#7F7F7F" stroke-width="6.875" stroke-miterlimit="8" fill="none" fill-rule="evenodd" transform="matrix(1.83697e-16 1 1 -1.83697e-16 2539.5 2.49972)"/><path d="M0 0 1640.24 0.000360892" stroke="#7F7F7F" stroke-width="6.875" stroke-miterlimit="8" fill="none" fill-rule="evenodd" transform="matrix(1.83697e-16 1 1 -1.83697e-16 2585.5 2.49972)"/><path d="M0 0 1640.24 0.000360892" stroke="#7F7F7F" stroke-width="6.875" stroke-miterlimit="8" fill="none" fill-rule="evenodd" transform="matrix(1.83697e-16 1 1 -1.83697e-16 2632.5 2.4999)"/><path d="M0 0 1640.24 0.000360892" stroke="#7F7F7F" stroke-width="6.875" stroke-miterlimit="8" fill="none" fill-rule="evenodd" transform="matrix(1.83697e-16 1 1 -1.83697e-16 2679.5 2.49972)"/><path d="M0 0 1640.24 0.000360892" stroke="#7F7F7F" stroke-width="6.875" stroke-miterlimit="8" fill="none" fill-rule="evenodd" transform="matrix(1.83697e-16 1 1 -1.83697e-16 2726.5 2.4999)"/><path d="M0 0 1640.24 0.000360892" stroke="#7F7F7F" stroke-width="6.875" stroke-miterlimit="8" fill="none" fill-rule="evenodd" transform="matrix(1.83697e-16 1 1 -1.83697e-16 2773.5 2.4999)"/><path d="M1003.5 1232.91 1998.2 1232.91 1998.2 1250.09 1003.5 1250.09ZM1989.6 1215.72 2041.17 1241.5 1989.6 1267.28Z" fill="#C55A11"/><path d="M2200.09 192.5 2200.09 1130.57 2182.91 1130.57 2182.91 192.5ZM2217.28 1121.97 2191.5 1173.54 2165.72 1121.97Z" fill="#C55A11"/><path d="M2129.91 1173.54 2129.91 235.468 2147.09 235.468 2147.09 1173.54ZM2112.72 244.062 2138.5 192.5 2164.28 244.062Z" fill="#C55A11"/><path d="M3270.82 1256.09 2337.47 1256.09 2337.47 1238.91 3270.82 1238.91ZM2346.06 1273.28 2294.5 1247.5 2346.06 1221.72Z"/><path d="M2300.5 1302.91 3233.85 1302.91 3233.85 1320.09 2300.5 1320.09ZM3225.26 1285.72 3276.82 1311.5 3225.26 1337.28Z"/><path d="M1003.5 1297.91 1998.2 1297.91 1998.2 1315.09 1003.5 1315.09ZM1989.6 1280.72 2041.17 1306.5 1989.6 1332.28Z"/><path d="M2084 1277.5C2084 1235.25 2120.49 1201 2165.5 1201 2210.51 1201 2247 1235.25 2247 1277.5 2247 1319.75 2210.51 1354 2165.5 1354 2120.49 1354 2084 1319.75 2084 1277.5Z" fill-rule="evenodd"/><path d="M2084 90.5001C2084 48.2503 2120.49 14.0001 2165.5 14.0001 2210.51 14.0001 2247 48.2503 2247 90.5001 2247 132.75 2210.51 167 2165.5 167 2120.49 167 2084 132.75 2084 90.5001Z" fill="#7F7F7F" fill-rule="evenodd"/><path d="M3312 1277.5C3312 1235.25 3348.49 1201 3393.5 1201 3438.51 1201 3475 1235.25 3475 1277.5 3475 1319.75 3438.51 1354 3393.5 1354 3348.49 1354 3312 1319.75 3312 1277.5Z" fill="#7F7F7F" fill-rule="evenodd"/><path d="M3088 585.5 3245.5 428 3245.5 506.751 4141 506.751 4141 664.25 3245.5 664.25 3245.5 743Z" fill="#767171" fill-rule="evenodd"/><g><g><g><path d="M880.119 1505.37C885.241 1495.06 885.378 1482.82 883.556 1471.38 890.668 1467.99 897.378 1463.81 903.563 1458.93 911.778 1468.66 919.169 1480.76 918.653 1491.83 918.492 1495.63 921.439 1498.84 925.236 1499 929.033 1499.16 932.242 1496.21 932.403 1492.42L932.403 1490.83C932.403 1475.5 923.122 1460.72 913.738 1449.58 915.731 1447.52 917.622 1445.39 919.375 1443.19 920.74 1443.41 922.119 1443.52 923.5 1443.53 940.688 1443.53 955.194 1429.78 961.003 1410.77 962.248 1411.27 963.407 1411.95 964.441 1412.8 969.185 1416.58 971.316 1423.87 970.422 1434.46 970.156 1438.26 973.019 1441.55 976.816 1441.82 980.613 1442.08 983.906 1439.22 984.172 1435.42 985.238 1420.02 981.491 1408.78 972.966 1402.01 970.117 1399.76 966.86 1398.1 963.375 1397.09 963.375 1395.58 963.547 1394.03 963.547 1392.49 963.533 1389.86 963.36 1387.23 963.031 1384.62 966.646 1383.62 970.024 1381.92 972.966 1379.6 981.491 1372.72 985.272 1361.58 984.172 1346.18 983.897 1342.39 980.596 1339.53 976.799 1339.81 973.002 1340.08 970.147 1343.38 970.422 1347.18 971.213 1357.7 969.185 1365.02 964.441 1368.8 963.067 1369.87 961.505 1370.68 959.835 1371.17 953.475 1353.64 939.553 1341.44 923.328 1341.44 921.353 1341.46 919.385 1341.66 917.45 1342.06 915.731 1340.07 914.013 1338.14 912.019 1336.25 921.988 1324.73 932.231 1308.75 931.51 1292.52 931.348 1288.73 928.139 1285.78 924.342 1285.94 920.545 1286.1 917.598 1289.31 917.76 1293.11 918.241 1304.56 910.197 1317.17 901.569 1327.21 895.545 1322.69 889.071 1318.81 882.25 1315.62 884.485 1303.63 884.656 1290.5 879.225 1279.6 877.641 1276.15 873.558 1274.64 870.108 1276.22 866.658 1277.81 865.146 1281.89 866.73 1285.34 866.789 1285.47 866.852 1285.59 866.919 1285.72 870.167 1293.58 870.958 1302.25 869.188 1310.57 856.691 1306.56 843.64 1304.56 830.516 1304.62 811.431 1304.53 792.592 1308.92 775.516 1317.45 768.641 1307.72 759.738 1298.75 748.531 1295 744.924 1293.78 741.007 1295.71 739.783 1299.31 738.559 1302.92 740.49 1306.84 744.097 1308.06 751.591 1310.54 758.122 1316.97 763.519 1324.46 739.285 1340.65 723.781 1365.71 723.781 1394 723.781 1422.29 738.941 1446.46 762.625 1462.75 758.178 1469.17 751.953 1474.15 744.716 1477.08 741.08 1478.31 739.126 1482.25 740.35 1485.88 741.575 1489.52 745.515 1491.47 749.15 1490.25 759.485 1486.2 768.353 1479.12 774.588 1469.93 791.888 1478.82 811.066 1483.43 830.516 1483.37 844.059 1483.4 857.517 1481.22 870.356 1476.91 871.703 1484.49 870.819 1492.3 867.813 1499.39 866.12 1502.78 867.488 1506.9 870.872 1508.61 874.28 1510.28 878.4 1508.88 880.074 1505.47 880.089 1505.44 880.104 1505.41 880.119 1505.37ZM817.969 1335.05C817.969 1328.17 824.844 1322.67 833.438 1322.67 842.031 1322.67 848.906 1328.21 848.906 1335.05 848.906 1341.89 842.031 1347.42 833.438 1347.42 824.844 1347.42 817.969 1341.89 817.969 1335.05ZM773.281 1365.33C769.225 1359.83 769.26 1352.92 773.281 1349.86 777.303 1346.8 784.041 1348.8 788.097 1354.26 792.153 1359.73 792.119 1366.67 788.097 1369.73 784.075 1372.79 777.441 1370.83 773.385 1365.33ZM869.188 1363.06C869.188 1356.42 874.574 1351.03 881.219 1351.03 887.864 1351.03 893.25 1356.42 893.25 1363.06 893.25 1369.71 887.864 1375.09 881.219 1375.09 874.574 1375.09 869.188 1369.71 869.188 1363.06ZM737.944 1400.87C737.669 1396.3 737.669 1391.7 737.944 1387.12L917.313 1387.12 917.313 1400.87ZM881.219 1415.66C887.864 1415.66 893.25 1421.04 893.25 1427.69 893.25 1434.33 887.864 1439.72 881.219 1439.72 874.574 1439.72 869.188 1434.33 869.188 1427.69 869.093 1421.04 874.402 1415.58 881.046 1415.49 881.103 1415.48 881.161 1415.48 881.219 1415.48ZM773.488 1440.72C769.363 1437.69 769.328 1430.75 773.488 1425.25 777.647 1419.75 784.213 1417.79 788.303 1420.85 792.394 1423.91 792.463 1430.82 788.303 1436.32 784.144 1441.82 777.578 1443.6 773.488 1440.54ZM817.969 1455.36C817.969 1448.48 824.844 1442.98 833.438 1442.98 842.031 1442.98 848.906 1448.52 848.906 1455.36 848.906 1462.2 842.031 1467.73 833.438 1467.73 824.844 1467.73 817.969 1462.2 817.969 1455.36Z" fill="#3B3838"/></g></g></g><g><g><g><path d="M876.119 1260.38C881.241 1250.06 881.378 1237.83 879.556 1226.38 886.667 1222.99 893.378 1218.81 899.563 1213.93 907.778 1223.66 915.169 1235.76 914.653 1246.83 914.492 1250.63 917.439 1253.84 921.236 1254 925.033 1254.16 928.242 1251.21 928.403 1247.42L928.403 1245.83C928.403 1230.5 919.122 1215.72 909.738 1204.58 911.731 1202.52 913.622 1200.39 915.375 1198.19 916.739 1198.41 918.119 1198.52 919.5 1198.53 936.688 1198.53 951.194 1184.78 957.003 1165.78 958.248 1166.27 959.407 1166.95 960.441 1167.8 965.184 1171.58 967.316 1178.87 966.422 1189.46 966.156 1193.26 969.019 1196.55 972.816 1196.82 976.613 1197.08 979.906 1194.22 980.172 1190.42 981.238 1175.02 977.491 1163.78 968.966 1157.01 966.117 1154.77 962.86 1153.1 959.375 1152.09 959.375 1150.58 959.547 1149.03 959.547 1147.49 959.532 1144.86 959.36 1142.23 959.031 1139.62 962.646 1138.63 966.024 1136.92 968.966 1134.6 977.491 1127.72 981.272 1116.58 980.172 1101.18 979.897 1097.39 976.596 1094.53 972.799 1094.81 969.001 1095.08 966.147 1098.38 966.422 1102.18 967.213 1112.7 965.184 1120.02 960.441 1123.8 959.067 1124.87 957.504 1125.68 955.834 1126.18 949.475 1108.64 935.553 1096.44 919.328 1096.44 917.353 1096.46 915.385 1096.66 913.45 1097.06 911.731 1095.07 910.013 1093.14 908.019 1091.25 917.988 1079.73 928.231 1063.75 927.509 1047.53 927.348 1043.73 924.139 1040.78 920.342 1040.94 916.545 1041.1 913.598 1044.31 913.759 1048.11 914.241 1059.56 906.197 1072.17 897.569 1082.21 891.545 1077.69 885.071 1073.81 878.25 1070.63 880.484 1058.63 880.656 1045.5 875.225 1034.6 873.64 1031.15 869.558 1029.64 866.108 1031.22 862.658 1032.81 861.145 1036.89 862.73 1040.34 862.789 1040.47 862.852 1040.59 862.919 1040.72 866.167 1048.58 866.958 1057.25 865.188 1065.57 852.691 1061.56 839.639 1059.56 826.516 1059.63 807.431 1059.53 788.591 1063.92 771.516 1072.45 764.641 1062.72 755.738 1053.75 744.531 1050 740.924 1048.78 737.007 1050.71 735.783 1054.31 734.558 1057.92 736.49 1061.84 740.097 1063.06 747.591 1065.54 754.122 1071.97 759.519 1079.46 735.284 1095.65 719.781 1120.71 719.781 1149 719.781 1177.29 734.941 1201.46 758.625 1217.75 754.178 1224.17 747.953 1229.15 740.716 1232.08 737.08 1233.31 735.126 1237.25 736.35 1240.88 737.574 1244.52 741.515 1246.47 745.15 1245.25 755.485 1241.2 764.353 1234.12 770.588 1224.93 787.887 1233.82 807.066 1238.43 826.516 1238.38 840.059 1238.4 853.517 1236.22 866.356 1231.91 867.703 1239.49 866.819 1247.3 863.813 1254.39 862.12 1257.78 863.488 1261.9 866.872 1263.61 870.28 1265.28 874.4 1263.88 876.074 1260.47 876.089 1260.44 876.104 1260.41 876.119 1260.38ZM813.969 1090.05C813.969 1083.17 820.844 1077.67 829.438 1077.67 838.031 1077.67 844.906 1083.21 844.906 1090.05 844.906 1096.89 838.031 1102.42 829.438 1102.42 820.844 1102.42 813.969 1096.89 813.969 1090.05ZM769.281 1120.33C765.225 1114.83 765.259 1107.92 769.281 1104.86 773.303 1101.8 780.041 1103.8 784.097 1109.26 788.153 1114.73 788.119 1121.67 784.097 1124.73 780.075 1127.79 773.441 1125.83 769.384 1120.33ZM865.188 1118.06C865.188 1111.42 870.574 1106.03 877.219 1106.03 883.864 1106.03 889.25 1111.42 889.25 1118.06 889.25 1124.71 883.864 1130.09 877.219 1130.09 870.574 1130.09 865.188 1124.71 865.188 1118.06ZM733.944 1155.88C733.669 1151.3 733.669 1146.7 733.944 1142.13L913.313 1142.13 913.313 1155.88ZM877.219 1170.66C883.864 1170.66 889.25 1176.04 889.25 1182.69 889.25 1189.33 883.864 1194.72 877.219 1194.72 870.574 1194.72 865.188 1189.33 865.188 1182.69 865.093 1176.04 870.402 1170.58 877.046 1170.49 877.103 1170.48 877.161 1170.48 877.219 1170.48ZM769.488 1195.72C765.363 1192.69 765.328 1185.75 769.488 1180.25 773.647 1174.75 780.213 1172.79 784.303 1175.85 788.394 1178.91 788.463 1185.82 784.303 1191.32 780.144 1196.82 773.578 1198.6 769.488 1195.54ZM813.969 1210.36C813.969 1203.48 820.844 1197.98 829.438 1197.98 838.031 1197.98 844.906 1203.52 844.906 1210.36 844.906 1217.2 838.031 1222.73 829.438 1222.73 820.844 1222.73 813.969 1217.2 813.969 1210.36Z" fill="#C55A11"/></g></g></g></g></svg>