<svg width="4466" height="1662" xmlns="http://www.w3.org/2000/svg" xmlns:xlink="http://www.w3.org/1999/xlink" xml:space="preserve" overflow="hidden"><g transform="translate(50 5)"><rect x="0" y="0" width="4413" height="1640" fill="#BFBFBF"/><path d="M4.68817e-07-5.72917 4358.73-5.72881 4358.73 5.72952-4.68817e-07 5.72917ZM4352.98-17.1871 4410.27 0.000360892 4352.98 17.1879Z" fill="#7F7F7F" transform="matrix(-1 0 0 1 4412.77 1557.5)"/><path d="M4.68817e-07-5.72917 4358.73-5.72881 4358.73 5.72952-4.68817e-07 5.72917ZM4352.98-17.1871 4410.27 0.000360892 4352.98 17.1879Z" fill="#7F7F7F" transform="matrix(-1 0 0 1 4412.77 1604.5)"/><path d="M4.68817e-07-5.72917 4358.73-5.72881 4358.73 5.72952-4.68817e-07 5.72917ZM4352.98-17.1871 4410.27 0.000360892 4352.98 17.1879Z" fill="#7F7F7F" transform="matrix(-1 0 0 1 4412.77 1418.5)"/><path d="M4.69328e-07-5.72917 4353.91-5.72881 4353.91 5.72952-4.69328e-07 5.72917ZM4348.18-17.1871 4405.47 0.000360892 4348.18 17.1879Z" fill="#7F7F7F" transform="matrix(-1 0 0 1 4407.97 1466.5)"/><path d="M4.68568e-07-5.72917 4361.06-5.72881 4361.06 5.72952-4.68568e-07 5.72917ZM4355.33-17.1871 4412.62 0.000360892 4355.33 17.1879Z" fill="#7F7F7F" transform="matrix(-1 0 0 1 4415.12 1513.5)"/><path d="M4412.77 432.152 54.0405 430.252 54.0454 418.793 4412.78 420.694ZM59.7842 441.713 2.5 424.5 59.7993 407.338Z" fill="#7F7F7F"/><path d="M4.68817e-07-5.72917 4358.73-5.72881 4358.73 5.72952-4.68817e-07 5.72917ZM4352.98-17.1871 4410.27 0.000360892 4352.98 17.1879Z" fill="#7F7F7F" transform="matrix(-1 0 0 1 4412.77 471.5)"/><path d="M4.68817e-07-5.72917 4358.73-5.72881 4358.73 5.72952-4.68817e-07 5.72917ZM4352.98-17.1871 4410.27 0.000360892 4352.98 17.1879Z" fill="#7F7F7F" transform="matrix(-1 0 0 1 4412.77 518.5)"/><path d="M4.69328e-07-5.72917 4353.91-5.72881 4353.91 5.72952-4.69328e-07 5.72917ZM4348.18-17.1871 4405.47 0.000360892 4348.18 17.1879Z" fill="#7F7F7F" transform="matrix(-1 0 0 1 4407.97 566.5)"/><path d="M4.68568e-07-5.72917 4361.06-5.72881 4361.06 5.72952-4.68568e-07 5.72917ZM4355.33-17.1871 4412.62 0.000360892 4355.33 17.1879Z" fill="#7F7F7F" transform="matrix(-1 0 0 1 4415.12 613.5)"/><path d="M4.68568e-07-5.72917 4361.06-5.72881 4361.06 5.72952-4.68568e-07 5.72917ZM4355.33-17.1871 4412.62 0.000360892 4355.33 17.1879Z" fill="#7F7F7F" transform="matrix(-1 0 0 1 4415.12 660.5)"/><path d="M4.68568e-07-5.72917 4361.06-5.72881 4361.06 5.72952-4.68568e-07 5.72917ZM4355.33-17.1871 4412.62 0.000360892 4355.33 17.1879Z" fill="#7F7F7F" transform="matrix(-1 0 0 1 4415.12 707.5)"/><path d="M4.68568e-07-5.72917 4361.06-5.72881 4361.06 5.72952-4.68568e-07 5.72917ZM4355.33-17.1871 4412.62 0.000360892 4355.33 17.1879Z" fill="#7F7F7F" transform="matrix(-1 0 0 1 4415.12 755.5)"/><path d="M4.68568e-07-5.72917 4361.06-5.72881 4361.06 5.72952-4.68568e-07 5.72917ZM4355.33-17.1871 4412.62 0.000360892 4355.33 17.1879Z" fill="#7F7F7F" transform="matrix(-1 0 0 1 4415.12 802.5)"/><path d="M4.68568e-07-5.72917 4361.06-5.72881 4361.06 5.72952-4.68568e-07 5.72917ZM4355.33-17.1871 4412.62 0.000360892 4355.33 17.1879Z" fill="#7F7F7F" transform="matrix(-1 0 0 1 4415.12 849.5)"/><path d="M4.68568e-07-5.72917 4361.06-5.72881 4361.06 5.72952-4.68568e-07 5.72917ZM4355.33-17.1871 4412.62 0.000360892 4355.33 17.1879Z" fill="#7F7F7F" transform="matrix(-1 0 0 1 4415.12 896.5)"/><path d="M4.68568e-07-5.72917 4361.06-5.72881 4361.06 5.72952-4.68568e-07 5.72917ZM4355.33-17.1871 4412.62 0.000360892 4355.33 17.1879Z" fill="#7F7F7F" transform="matrix(-1 0 0 1 4415.12 944.5)"/><path d="M4.68568e-07-5.72917 4361.06-5.72881 4361.06 5.72952-4.68568e-07 5.72917ZM4355.33-17.1871 4412.62 0.000360892 4355.33 17.1879Z" fill="#7F7F7F" transform="matrix(-1 0 0 1 4415.12 991.5)"/><path d="M4.68568e-07-5.72917 4361.06-5.72881 4361.06 5.72952-4.68568e-07 5.72917ZM4355.33-17.1871 4412.62 0.000360892 4355.33 17.1879Z" fill="#7F7F7F" transform="matrix(-1 0 0 1 4415.12 1038.5)"/><path d="M4.68568e-07-5.72917 4361.06-5.72881 4361.06 5.72952-4.68568e-07 5.72917ZM4355.33-17.1871 4412.62 0.000360892 4355.33 17.1879Z" fill="#7F7F7F" transform="matrix(-1 0 0 1 4415.12 1085.5)"/><path d="M4.68568e-07-5.72917 4361.06-5.72881 4361.06 5.72952-4.68568e-07 5.72917ZM4355.33-17.1871 4412.62 0.000360892 4355.33 17.1879Z" fill="#7F7F7F" transform="matrix(-1 0 0 1 4415.12 1133.5)"/><path d="M4.68568e-07-5.72917 4361.06-5.72881 4361.06 5.72952-4.68568e-07 5.72917ZM4355.33-17.1871 4412.62 0.000360892 4355.33 17.1879Z" fill="#7F7F7F" transform="matrix(-1 0 0 1 4415.12 1180.5)"/><path d="M4.68568e-07-5.72917 4361.06-5.72881 4361.06 5.72952-4.68568e-07 5.72917ZM4355.33-17.1871 4412.62 0.000360892 4355.33 17.1879Z" fill="#7F7F7F" transform="matrix(-1 0 0 1 4415.12 1227.5)"/><path d="M4.68568e-07-5.72917 4361.06-5.72881 4361.06 5.72952-4.68568e-07 5.72917ZM4355.33-17.1871 4412.62 0.000360892 4355.33 17.1879Z" fill="#7F7F7F" transform="matrix(-1 0 0 1 4415.12 1274.5)"/><path d="M4.68568e-07-5.72917 4361.06-5.72881 4361.06 5.72952-4.68568e-07 5.72917ZM4355.33-17.1871 4412.62 0.000360892 4355.33 17.1879Z" fill="#7F7F7F" transform="matrix(-1 0 0 1 4415.12 1322.5)"/><path d="M4.68568e-07-5.72917 4361.06-5.72881 4361.06 5.72952-4.68568e-07 5.72917ZM4355.33-17.1871 4412.62 0.000360892 4355.33 17.1879Z" fill="#7F7F7F" transform="matrix(-1 0 0 1 4415.12 1369.5)"/><path d="M4.68817e-07-5.72917 4358.73-5.72881 4358.73 5.72952-4.68817e-07 5.72917ZM4352.98-17.1871 4410.27 0.000360892 4352.98 17.1879Z" fill="#7F7F7F" transform="matrix(-1 0 0 1 4412.77 286.5)"/><path d="M4.69328e-07-5.72917 4353.91-5.72881 4353.91 5.72952-4.69328e-07 5.72917ZM4348.18-17.1871 4405.47 0.000360892 4348.18 17.1879Z" fill="#7F7F7F" transform="matrix(-1 0 0 1 4407.97 333.5)"/><path d="M4.68568e-07-5.72917 4361.06-5.72881 4361.06 5.72952-4.68568e-07 5.72917ZM4355.33-17.1871 4412.62 0.000360892 4355.33 17.1879Z" fill="#7F7F7F" transform="matrix(-1 0 0 1 4415.12 380.5)"/><path d="M4.68568e-07-5.72917 4361.06-5.72881 4361.06 5.72952-4.68568e-07 5.72917ZM4355.33-17.1871 4412.62 0.000360892 4355.33 17.1879Z" fill="#7F7F7F" transform="matrix(-1 0 0 1 4415.12 47.4999)"/><path d="M4.68568e-07-5.72917 4361.06-5.72881 4361.06 5.72952-4.68568e-07 5.72917ZM4355.33-17.1871 4412.62 0.000360892 4355.33 17.1879Z" fill="#7F7F7F" transform="matrix(-1 0 0 1 4415.12 95.5001)"/><path d="M4.68568e-07-5.72917 4361.06-5.72881 4361.06 5.72952-4.68568e-07 5.72917ZM4355.33-17.1871 4412.62 0.000360892 4355.33 17.1879Z" fill="#7F7F7F" transform="matrix(-1 0 0 1 4415.12 142.5)"/><path d="M4.68568e-07-5.72917 4361.06-5.72881 4361.06 5.72952-4.68568e-07 5.72917ZM4355.33-17.1871 4412.62 0.000360892 4355.33 17.1879Z" fill="#7F7F7F" transform="matrix(-1 0 0 1 4415.12 189.5)"/><path d="M4.68568e-07-5.72917 4361.06-5.72881 4361.06 5.72952-4.68568e-07 5.72917ZM4355.33-17.1871 4412.62 0.000360892 4355.33 17.1879Z" fill="#7F7F7F" transform="matrix(-1 0 0 1 4415.12 236.5)"/><path d="M0 0 1634.31 0.000360892" stroke="#7F7F7F" stroke-width="6.875" stroke-miterlimit="8" fill="none" fill-rule="evenodd" transform="matrix(1.83697e-16 1 1 -1.83697e-16 1556.5 3.49993)"/><path d="M0 0 1634.31 0.000360892" stroke="#7F7F7F" stroke-width="6.875" stroke-miterlimit="8" fill="none" fill-rule="evenodd" transform="matrix(1.83697e-16 1 1 -1.83697e-16 1602.5 3.49993)"/><path d="M0 0 1634.31 0.000360892" stroke="#7F7F7F" stroke-width="6.875" stroke-miterlimit="8" fill="none" fill-rule="evenodd" transform="matrix(1.83697e-16 1 1 -1.83697e-16 1649.5 3.49993)"/><path d="M0 0 1637.59 0.000360892" stroke="#7F7F7F" stroke-width="6.875" stroke-miterlimit="8" fill="none" fill-rule="evenodd" transform="matrix(1.83697e-16 1 1 -1.83697e-16 1696.5 1.49987)"/><path d="M0 0 1640.24 0.000360892" stroke="#7F7F7F" stroke-width="6.875" stroke-miterlimit="8" fill="none" fill-rule="evenodd" transform="matrix(1.83697e-16 1 1 -1.83697e-16 1743.5 0.499656)"/><path d="M0 0 1640.24 0.000360892" stroke="#7F7F7F" stroke-width="6.875" stroke-miterlimit="8" fill="none" fill-rule="evenodd" transform="matrix(1.83697e-16 1 1 -1.83697e-16 1790.5 0.499656)"/><path d="M0 0 1640.24 0.000360892" stroke="#7F7F7F" stroke-width="6.875" stroke-miterlimit="8" fill="none" fill-rule="evenodd" transform="matrix(1.83697e-16 1 1 -1.83697e-16 1836.5 0.499656)"/><path d="M0 0 1640.24 0.000360892" stroke="#7F7F7F" stroke-width="6.875" stroke-miterlimit="8" fill="none" fill-rule="evenodd" transform="matrix(1.83697e-16 1 1 -1.83697e-16 1883.5 0.499656)"/><path d="M0 0 1640.24 0.000360892" stroke="#7F7F7F" stroke-width="6.875" stroke-miterlimit="8" fill="none" fill-rule="evenodd" transform="matrix(1.83697e-16 1 1 -1.83697e-16 1930.5 0.499656)"/><path d="M0 0 1640.24 0.000360892" stroke="#7F7F7F" stroke-width="6.875" stroke-miterlimit="8" fill="none" fill-rule="evenodd" transform="matrix(1.83697e-16 1 1 -1.83697e-16 1977.5 0.499656)"/><path d="M0 0 1640.24 0.000360892" stroke="#7F7F7F" stroke-width="6.875" stroke-miterlimit="8" fill="none" fill-rule="evenodd" transform="matrix(1.83697e-16 1 1 -1.83697e-16 2024.5 0.499656)"/><path d="M0 0 1640.24 0.000360892" stroke="#7F7F7F" stroke-width="6.875" stroke-miterlimit="8" fill="none" fill-rule="evenodd" transform="matrix(1.83697e-16 1 1 -1.83697e-16 2070.5 0.499656)"/><path d="M0 0 1640.24 0.000360892" stroke="#7F7F7F" stroke-width="6.875" stroke-miterlimit="8" fill="none" fill-rule="evenodd" transform="matrix(1.83697e-16 1 1 -1.83697e-16 2117.5 0.499656)"/><path d="M0 0 1640.24 0.000360892" stroke="#7F7F7F" stroke-width="6.875" stroke-miterlimit="8" fill="none" fill-rule="evenodd" transform="matrix(1.83697e-16 1 1 -1.83697e-16 2164.5 0.499656)"/><path d="M0 0 1640.24 0.000360892" stroke="#7F7F7F" stroke-width="6.875" stroke-miterlimit="8" fill="none" fill-rule="evenodd" transform="matrix(1.83697e-16 1 1 -1.83697e-16 2211.5 0.499656)"/><path d="M0 0 1640.24 0.000360892" stroke="#7F7F7F" stroke-width="6.875" stroke-miterlimit="8" fill="none" fill-rule="evenodd" transform="matrix(1.83697e-16 1 1 -1.83697e-16 2258.5 0.499656)"/><path d="M0 0 1640.24 0.000360892" stroke="#7F7F7F" stroke-width="6.875" stroke-miterlimit="8" fill="none" fill-rule="evenodd" transform="matrix(1.83697e-16 1 1 -1.83697e-16 2305.5 0.499656)"/><path d="M0 0 1640.24 0.000360892" stroke="#7F7F7F" stroke-width="6.875" stroke-miterlimit="8" fill="none" fill-rule="evenodd" transform="matrix(1.83697e-16 1 1 -1.83697e-16 2351.5 0.499836)"/><path d="M0 0 1640.24 0.000360892" stroke="#7F7F7F" stroke-width="6.875" stroke-miterlimit="8" fill="none" fill-rule="evenodd" transform="matrix(1.83697e-16 1 1 -1.83697e-16 2398.5 0.499656)"/><path d="M0 0 1640.24 0.000360892" stroke="#7F7F7F" stroke-width="6.875" stroke-miterlimit="8" fill="none" fill-rule="evenodd" transform="matrix(1.83697e-16 1 1 -1.83697e-16 2445.5 0.499836)"/><path d="M0 0 1640.24 0.000360892" stroke="#7F7F7F" stroke-width="6.875" stroke-miterlimit="8" fill="none" fill-rule="evenodd" transform="matrix(1.83697e-16 1 1 -1.83697e-16 2492.5 0.499836)"/><path d="M0 0 1634.31 0.000360892" stroke="#7F7F7F" stroke-width="6.875" stroke-miterlimit="8" fill="none" fill-rule="evenodd" transform="matrix(1.83697e-16 1 1 -1.83697e-16 1415.5 3.49993)"/><path d="M0 0 1637.59 0.000360892" stroke="#7F7F7F" stroke-width="6.875" stroke-miterlimit="8" fill="none" fill-rule="evenodd" transform="matrix(1.83697e-16 1 1 -1.83697e-16 1462.5 1.49987)"/><path d="M0 0 1640.24 0.000360892" stroke="#7F7F7F" stroke-width="6.875" stroke-miterlimit="8" fill="none" fill-rule="evenodd" transform="matrix(1.83697e-16 1 1 -1.83697e-16 1509.5 0.499656)"/><path d="M0 0 1634.31 0.000360892" stroke="#7F7F7F" stroke-width="6.875" stroke-miterlimit="8" fill="none" fill-rule="evenodd" transform="matrix(1.83697e-16 1 1 -1.83697e-16 432.5 5.5)"/><path d="M0 0 1634.31 0.000360892" stroke="#7F7F7F" stroke-width="6.875" stroke-miterlimit="8" fill="none" fill-rule="evenodd" transform="matrix(1.83697e-16 1 1 -1.83697e-16 479.5 5.5)"/><path d="M0 0 1634.31 0.000360892" stroke="#7F7F7F" stroke-width="6.875" stroke-miterlimit="8" fill="none" fill-rule="evenodd" transform="matrix(1.83697e-16 1 1 -1.83697e-16 526.5 5.5)"/><path d="M0 0 1637.59 0.000360892" stroke="#7F7F7F" stroke-width="6.875" stroke-miterlimit="8" fill="none" fill-rule="evenodd" transform="matrix(1.83697e-16 1 1 -1.83697e-16 573.5 3.49993)"/><path d="M0 0 1640.24 0.000360892" stroke="#7F7F7F" stroke-width="6.875" stroke-miterlimit="8" fill="none" fill-rule="evenodd" transform="matrix(1.83697e-16 1 1 -1.83697e-16 619.5 2.49972)"/><path d="M0 0 1640.24 0.000360892" stroke="#7F7F7F" stroke-width="6.875" stroke-miterlimit="8" fill="none" fill-rule="evenodd" transform="matrix(1.83697e-16 1 1 -1.83697e-16 666.5 2.49972)"/><path d="M0 0 1640.24 0.000360892" stroke="#7F7F7F" stroke-width="6.875" stroke-miterlimit="8" fill="none" fill-rule="evenodd" transform="matrix(1.83697e-16 1 1 -1.83697e-16 713.5 2.49972)"/><path d="M0 0 1640.24 0.000360892" stroke="#7F7F7F" stroke-width="6.875" stroke-miterlimit="8" fill="none" fill-rule="evenodd" transform="matrix(1.83697e-16 1 1 -1.83697e-16 760.5 2.49972)"/><path d="M0 0 1640.24 0.000360892" stroke="#7F7F7F" stroke-width="6.875" stroke-miterlimit="8" fill="none" fill-rule="evenodd" transform="matrix(1.83697e-16 1 1 -1.83697e-16 807.5 2.49972)"/><path d="M0 0 1640.24 0.000360892" stroke="#7F7F7F" stroke-width="6.875" stroke-miterlimit="8" fill="none" fill-rule="evenodd" transform="matrix(1.83697e-16 1 1 -1.83697e-16 853.5 2.49972)"/><path d="M0 0 1640.24 0.000360892" stroke="#7F7F7F" stroke-width="6.875" stroke-miterlimit="8" fill="none" fill-rule="evenodd" transform="matrix(1.83697e-16 1 1 -1.83697e-16 900.5 2.49972)"/><path d="M0 0 1640.24 0.000360892" stroke="#7F7F7F" stroke-width="6.875" stroke-miterlimit="8" fill="none" fill-rule="evenodd" transform="matrix(1.83697e-16 1 1 -1.83697e-16 947.5 2.49972)"/><path d="M0 0 1640.24 0.000360892" stroke="#7F7F7F" stroke-width="6.875" stroke-miterlimit="8" fill="none" fill-rule="evenodd" transform="matrix(1.83697e-16 1 1 -1.83697e-16 994.5 2.49972)"/><path d="M0 0 1640.24 0.000360892" stroke="#7F7F7F" stroke-width="6.875" stroke-miterlimit="8" fill="none" fill-rule="evenodd" transform="matrix(1.83697e-16 1 1 -1.83697e-16 1041.5 2.49972)"/><path d="M0 0 1640.24 0.000360892" stroke="#7F7F7F" stroke-width="6.875" stroke-miterlimit="8" fill="none" fill-rule="evenodd" transform="matrix(1.83697e-16 1 1 -1.83697e-16 1088.5 2.49972)"/><path d="M0 0 1640.24 0.000360892" stroke="#7F7F7F" stroke-width="6.875" stroke-miterlimit="8" fill="none" fill-rule="evenodd" transform="matrix(1.83697e-16 1 1 -1.83697e-16 1134.5 2.49972)"/><path d="M0 0 1640.24 0.000360892" stroke="#7F7F7F" stroke-width="6.875" stroke-miterlimit="8" fill="none" fill-rule="evenodd" transform="matrix(1.83697e-16 1 1 -1.83697e-16 1181.5 2.49972)"/><path d="M0 0 1640.24 0.000360892" stroke="#7F7F7F" stroke-width="6.875" stroke-miterlimit="8" fill="none" fill-rule="evenodd" transform="matrix(1.83697e-16 1 1 -1.83697e-16 1228.5 2.4999)"/><path d="M0 0 1640.24 0.000360892" stroke="#7F7F7F" stroke-width="6.875" stroke-miterlimit="8" fill="none" fill-rule="evenodd" transform="matrix(1.83697e-16 1 1 -1.83697e-16 1275.5 2.49972)"/><path d="M0 0 1640.24 0.000360892" stroke="#7F7F7F" stroke-width="6.875" stroke-miterlimit="8" fill="none" fill-rule="evenodd" transform="matrix(1.83697e-16 1 1 -1.83697e-16 1322.5 2.4999)"/><path d="M0 0 1640.24 0.000360892" stroke="#7F7F7F" stroke-width="6.875" stroke-miterlimit="8" fill="none" fill-rule="evenodd" transform="matrix(1.83697e-16 1 1 -1.83697e-16 1368.5 2.4999)"/><path d="M0 0 1634.31 0.000360892" stroke="#7F7F7F" stroke-width="6.875" stroke-miterlimit="8" fill="none" fill-rule="evenodd" transform="matrix(1.83697e-16 1 1 -1.83697e-16 292.5 5.5)"/><path d="M0 0 1637.59 0.000360892" stroke="#7F7F7F" stroke-width="6.875" stroke-miterlimit="8" fill="none" fill-rule="evenodd" transform="matrix(1.83697e-16 1 1 -1.83697e-16 339.5 3.49993)"/><path d="M0 0 1640.24 0.000360892" stroke="#7F7F7F" stroke-width="6.875" stroke-miterlimit="8" fill="none" fill-rule="evenodd" transform="matrix(1.83697e-16 1 1 -1.83697e-16 385.5 2.49972)"/><path d="M0 0 1634.31 0.000360892" stroke="#7F7F7F" stroke-width="6.875" stroke-miterlimit="8" fill="none" fill-rule="evenodd" transform="matrix(1.83697e-16 1 1 -1.83697e-16 4083.5 3.49993)"/><path d="M0 0 1634.31 0.000360892" stroke="#7F7F7F" stroke-width="6.875" stroke-miterlimit="8" fill="none" fill-rule="evenodd" transform="matrix(1.83697e-16 1 1 -1.83697e-16 4130.5 3.49993)"/><path d="M0 0 1634.31 0.000360892" stroke="#7F7F7F" stroke-width="6.875" stroke-miterlimit="8" fill="none" fill-rule="evenodd" transform="matrix(1.83697e-16 1 1 -1.83697e-16 4177.5 3.49993)"/><path d="M0 0 1637.59 0.000360892" stroke="#7F7F7F" stroke-width="6.875" stroke-miterlimit="8" fill="none" fill-rule="evenodd" transform="matrix(1.83697e-16 1 1 -1.83697e-16 4224.5 2.4999)"/><path d="M0 0 1640.24 0.000360892" stroke="#7F7F7F" stroke-width="6.875" stroke-miterlimit="8" fill="none" fill-rule="evenodd" transform="matrix(1.83697e-16 1 1 -1.83697e-16 4270.5 0.499656)"/><path d="M0 0 1640.24 0.000360892" stroke="#7F7F7F" stroke-width="6.875" stroke-miterlimit="8" fill="none" fill-rule="evenodd" transform="matrix(1.83697e-16 1 1 -1.83697e-16 4317.5 0.499656)"/><path d="M0 0 1640.24 0.000360892" stroke="#7F7F7F" stroke-width="6.875" stroke-miterlimit="8" fill="none" fill-rule="evenodd" transform="matrix(1.83697e-16 1 1 -1.83697e-16 4364.5 0.499656)"/><path d="M0 0 1634.31 0.000360892" stroke="#7F7F7F" stroke-width="6.875" stroke-miterlimit="8" fill="none" fill-rule="evenodd" transform="matrix(1.83697e-16 1 1 -1.83697e-16 3943.5 3.49993)"/><path d="M0 0 1637.59 0.000360892" stroke="#7F7F7F" stroke-width="6.875" stroke-miterlimit="8" fill="none" fill-rule="evenodd" transform="matrix(1.83697e-16 1 1 -1.83697e-16 3990.5 2.4999)"/><path d="M0 0 1640.24 0.000360892" stroke="#7F7F7F" stroke-width="6.875" stroke-miterlimit="8" fill="none" fill-rule="evenodd" transform="matrix(1.83697e-16 1 1 -1.83697e-16 4036.5 0.499656)"/><path d="M0 0 1634.31 0.000360892" stroke="#7F7F7F" stroke-width="6.875" stroke-miterlimit="8" fill="none" fill-rule="evenodd" transform="matrix(1.83697e-16 1 1 -1.83697e-16 2960.5 5.5)"/><path d="M0 0 1634.31 0.000360892" stroke="#7F7F7F" stroke-width="6.875" stroke-miterlimit="8" fill="none" fill-rule="evenodd" transform="matrix(1.83697e-16 1 1 -1.83697e-16 3007.5 5.5)"/><path d="M0 0 1634.31 0.000360892" stroke="#7F7F7F" stroke-width="6.875" stroke-miterlimit="8" fill="none" fill-rule="evenodd" transform="matrix(1.83697e-16 1 1 -1.83697e-16 3053.5 5.5)"/><path d="M0 0 1637.59 0.000360892" stroke="#7F7F7F" stroke-width="6.875" stroke-miterlimit="8" fill="none" fill-rule="evenodd" transform="matrix(1.83697e-16 1 1 -1.83697e-16 3100.5 3.49993)"/><path d="M0 0 1640.24 0.000360892" stroke="#7F7F7F" stroke-width="6.875" stroke-miterlimit="8" fill="none" fill-rule="evenodd" transform="matrix(1.83697e-16 1 1 -1.83697e-16 3147.5 2.49972)"/><path d="M0 0 1640.24 0.000360892" stroke="#7F7F7F" stroke-width="6.875" stroke-miterlimit="8" fill="none" fill-rule="evenodd" transform="matrix(1.83697e-16 1 1 -1.83697e-16 3194.5 2.49972)"/><path d="M0 0 1640.24 0.000360892" stroke="#7F7F7F" stroke-width="6.875" stroke-miterlimit="8" fill="none" fill-rule="evenodd" transform="matrix(1.83697e-16 1 1 -1.83697e-16 3241.5 2.49972)"/><path d="M0 0 1640.24 0.000360892" stroke="#7F7F7F" stroke-width="6.875" stroke-miterlimit="8" fill="none" fill-rule="evenodd" transform="matrix(1.83697e-16 1 1 -1.83697e-16 3287.5 2.49972)"/><path d="M0 0 1640.24 0.000360892" stroke="#7F7F7F" stroke-width="6.875" stroke-miterlimit="8" fill="none" fill-rule="evenodd" transform="matrix(1.83697e-16 1 1 -1.83697e-16 3334.5 2.49972)"/><path d="M0 0 1640.24 0.000360892" stroke="#7F7F7F" stroke-width="6.875" stroke-miterlimit="8" fill="none" fill-rule="evenodd" transform="matrix(1.83697e-16 1 1 -1.83697e-16 3381.5 2.49972)"/><path d="M0 0 1640.24 0.000360892" stroke="#7F7F7F" stroke-width="6.875" stroke-miterlimit="8" fill="none" fill-rule="evenodd" transform="matrix(1.83697e-16 1 1 -1.83697e-16 3428.5 2.49972)"/><path d="M0 0 1640.24 0.000360892" stroke="#7F7F7F" stroke-width="6.875" stroke-miterlimit="8" fill="none" fill-rule="evenodd" transform="matrix(1.83697e-16 1 1 -1.83697e-16 3475.5 2.49972)"/><path d="M0 0 1640.24 0.000360892" stroke="#7F7F7F" stroke-width="6.875" stroke-miterlimit="8" fill="none" fill-rule="evenodd" transform="matrix(1.83697e-16 1 1 -1.83697e-16 3522.5 2.49972)"/><path d="M0 0 1640.24 0.000360892" stroke="#7F7F7F" stroke-width="6.875" stroke-miterlimit="8" fill="none" fill-rule="evenodd" transform="matrix(1.83697e-16 1 1 -1.83697e-16 3568.5 2.49972)"/><path d="M0 0 1640.24 0.000360892" stroke="#7F7F7F" stroke-width="6.875" stroke-miterlimit="8" fill="none" fill-rule="evenodd" transform="matrix(1.83697e-16 1 1 -1.83697e-16 3615.5 2.49972)"/><path d="M0 0 1640.24 0.000360892" stroke="#7F7F7F" stroke-width="6.875" stroke-miterlimit="8" fill="none" fill-rule="evenodd" transform="matrix(1.83697e-16 1 1 -1.83697e-16 3662.5 2.49972)"/><path d="M0 0 1640.24 0.000360892" stroke="#7F7F7F" stroke-width="6.875" stroke-miterlimit="8" fill="none" fill-rule="evenodd" transform="matrix(1.83697e-16 1 1 -1.83697e-16 3709.5 2.49972)"/><path d="M0 0 1640.24 0.000360892" stroke="#7F7F7F" stroke-width="6.875" stroke-miterlimit="8" fill="none" fill-rule="evenodd" transform="matrix(1.83697e-16 1 1 -1.83697e-16 3756.5 2.4999)"/><path d="M0 0 1640.24 0.000360892" stroke="#7F7F7F" stroke-width="6.875" stroke-miterlimit="8" fill="none" fill-rule="evenodd" transform="matrix(1.83697e-16 1 1 -1.83697e-16 3802.5 2.49972)"/><path d="M0 0 1640.24 0.000360892" stroke="#7F7F7F" stroke-width="6.875" stroke-miterlimit="8" fill="none" fill-rule="evenodd" transform="matrix(1.83697e-16 1 1 -1.83697e-16 3849.5 2.4999)"/><path d="M0 0 1640.24 0.000360892" stroke="#7F7F7F" stroke-width="6.875" stroke-miterlimit="8" fill="none" fill-rule="evenodd" transform="matrix(1.83697e-16 1 1 -1.83697e-16 3896.5 2.4999)"/><path d="M0 0 1634.31 0.000360892" stroke="#7F7F7F" stroke-width="6.875" stroke-miterlimit="8" fill="none" fill-rule="evenodd" transform="matrix(1.83697e-16 1 1 -1.83697e-16 2819.5 5.5)"/><path d="M0 0 1637.59 0.000360892" stroke="#7F7F7F" stroke-width="6.875" stroke-miterlimit="8" fill="none" fill-rule="evenodd" transform="matrix(1.83697e-16 1 1 -1.83697e-16 2866.5 3.49993)"/><path d="M0 0 1640.24 0.000360892" stroke="#7F7F7F" stroke-width="6.875" stroke-miterlimit="8" fill="none" fill-rule="evenodd" transform="matrix(1.83697e-16 1 1 -1.83697e-16 2913.5 2.49972)"/><path d="M0 0 1640.24 0.000360892" stroke="#7F7F7F" stroke-width="6.875" stroke-miterlimit="8" fill="none" fill-rule="evenodd" transform="matrix(1.83697e-16 1 1 -1.83697e-16 2539.5 2.49972)"/><path d="M0 0 1640.24 0.000360892" stroke="#7F7F7F" stroke-width="6.875" stroke-miterlimit="8" fill="none" fill-rule="evenodd" transform="matrix(1.83697e-16 1 1 -1.83697e-16 2585.5 2.49972)"/><path d="M0 0 1640.24 0.000360892" stroke="#7F7F7F" stroke-width="6.875" stroke-miterlimit="8" fill="none" fill-rule="evenodd" transform="matrix(1.83697e-16 1 1 -1.83697e-16 2632.5 2.4999)"/><path d="M0 0 1640.24 0.000360892" stroke="#7F7F7F" stroke-width="6.875" stroke-miterlimit="8" fill="none" fill-rule="evenodd" transform="matrix(1.83697e-16 1 1 -1.83697e-16 2679.5 2.49972)"/><path d="M0 0 1640.24 0.000360892" stroke="#7F7F7F" stroke-width="6.875" stroke-miterlimit="8" fill="none" fill-rule="evenodd" transform="matrix(1.83697e-16 1 1 -1.83697e-16 2726.5 2.4999)"/><path d="M0 0 1640.24 0.000360892" stroke="#7F7F7F" stroke-width="6.875" stroke-miterlimit="8" fill="none" fill-rule="evenodd" transform="matrix(1.83697e-16 1 1 -1.83697e-16 2773.5 2.4999)"/><path d="M2809 781.5 2966.5 624 2966.5 702.75 3862 702.75 3862 860.251 2966.5 860.251 2966.5 939Z" fill="#767171" fill-rule="evenodd"/><path d="M665.094 236.5 665.094 1174.57 647.906 1174.57 647.906 236.5ZM682.281 1165.97 656.5 1217.54 630.719 1165.97Z" fill="#C55A11"/><path d="M594.907 1217.54 594.907 279.468 612.094 279.468 612.094 1217.54ZM577.719 288.062 603.501 236.5 629.282 288.062Z" fill="#C55A11"/><path d="M1735.82 1300.09 802.468 1300.09 802.468 1282.91 1735.82 1282.91ZM811.062 1317.28 759.5 1291.5 811.062 1265.72Z"/><path d="M764.5 1345.91 1697.85 1345.91 1697.85 1363.09 764.5 1363.09ZM1689.26 1328.72 1740.82 1354.5 1689.26 1380.28Z"/><path d="M773.328 1476.14 711.532 1465.1 692.65 1450.27C690.59 1448.89 687.844 1449.92 687.157 1452.34L683.037 1468.89C668.275 1456.48 645.96 1448.2 620.898 1447.16 585.88 1446.13 554.639 1471.65 551.549 1506.84 550.52 1517.53 552.236 1527.54 555.669 1536.51 536.444 1524.09 524.6 1497.64 520.308 1483.73 516.017 1469.81 532.21 1453.26 529.921 1453.03 529.978 1436.7 510.867 1450.55 510.009 1476.83 509.323 1523.05 548.116 1561 594.12 1561L630.168 1561C636.004 1561 636.976 1552.43 640.467 1550.65 643.957 1548.87 649.564 1549.21 651.109 1550.31 652.654 1551.4 650.766 1555.14 649.736 1557.21 658.662 1559.28 669.305 1560.66 682.007 1560.66L712.905 1560.66C718.742 1560.66 723.204 1556.17 723.204 1550.31 723.204 1544.44 718.742 1539.96 712.905 1539.96L702.606 1539.96 779.851 1497.87C782.94 1496.15 784.657 1493.04 785 1489.94 785 1483.38 779.851 1477.52 773.328 1476.14Z" fill-rule="evenodd"/><path d="M413.377 1199.17 402.434 1260.97 387.73 1279.85C386.362 1281.91 387.388 1284.66 389.782 1285.34L406.196 1289.46C393.885 1304.23 385.678 1326.54 384.652 1351.6 383.626 1386.62 408.931 1417.86 443.812 1420.95 454.413 1421.98 464.33 1420.26 473.221 1416.83 460.91 1436.06 434.693 1447.9 420.9 1452.19 407.107 1456.48 390.693 1440.29 390.465 1442.58 374.279 1442.52 388.015 1461.63 414.061 1462.49 459.884 1463.18 497.5 1424.38 497.5 1378.38L497.5 1342.33C497.5 1336.5 489.008 1335.52 487.241 1332.03 485.474 1328.54 485.817 1322.94 486.899 1321.39 487.982 1319.85 491.687 1321.73 493.739 1322.76 495.79 1313.84 497.158 1303.2 497.158 1290.49L497.158 1259.6C497.158 1253.76 492.713 1249.3 486.899 1249.3 481.086 1249.3 476.64 1253.76 476.64 1259.6L476.64 1269.89 434.921 1192.65C433.211 1189.56 430.133 1187.84 427.056 1187.5 420.558 1187.5 414.745 1192.65 413.377 1199.17Z" stroke="#0D0D0D" stroke-width="6.875" stroke-miterlimit="8" fill="#C55A11" fill-rule="evenodd"/><path d="M559.589 1291.34C565.191 1278.68 589.125 1255.89 614.596 1256 636.831 1256.09 678.497 1262.25 700.167 1278.68 721.837 1295.11 734.942 1314.1 732.766 1333.58 731.033 1349.04 722.118 1361.07 695.166 1367.84 669.143 1373.64 642.39 1373.37 616.456 1367.05 596.145 1362.72 582.691 1358.26 572.368 1349.09 558.664 1336.92 551.072 1310.58 559.589 1291.34Z" fill-rule="evenodd"/><path d="M1878.4 1236.57C1890.08 1242.14 1911.1 1265.94 1911 1291.26 1910.92 1313.37 1905.24 1354.81 1890.08 1376.35 1874.92 1397.9 1857.4 1410.93 1839.44 1408.77 1825.18 1407.04 1814.08 1398.18 1807.84 1371.38 1802.49 1345.5 1802.73 1318.9 1808.56 1293.11 1812.56 1272.92 1816.67 1259.54 1825.13 1249.28 1836.36 1235.65 1860.66 1228.1 1878.4 1236.57Z" stroke="#0D0D0D" stroke-width="10.3125" stroke-miterlimit="8" fill="#939393" fill-rule="evenodd"/><path d="M654.099 50.5894C665.883 56.1913 687.101 80.1258 687 105.596 686.915 127.832 681.182 169.498 665.883 191.167 650.585 212.837 632.902 225.942 614.772 223.766 600.375 222.033 589.177 213.118 582.874 186.166 577.473 160.144 577.721 133.39 583.604 107.456 587.636 87.1452 591.789 73.6914 600.327 63.3684 611.663 49.6638 636.187 42.0727 654.099 50.5894Z" stroke="#0D0D0D" stroke-width="10.3125" stroke-miterlimit="8" fill="#939393" fill-rule="evenodd"/></g></svg>