<svg width="2462" height="2465" xmlns="http://www.w3.org/2000/svg" xmlns:xlink="http://www.w3.org/1999/xlink" xml:space="preserve" overflow="hidden"><g transform="translate(-376 111)"><path d="M919.863 1455.4 915.915 25.7983 926.227 25.7699 930.175 1455.37ZM905.617 30.98 921 0 936.554 30.8947Z"/><path d="M925 1446.84 2361.37 1446.84 2361.37 1457.16 925 1457.16ZM2356.22 1436.53 2387.15 1452 2356.22 1467.47Z"/><path d="M5.15625-1.29136e-06 5.1566 1415.22-5.1559 1415.22-5.15625 1.29136e-06ZM15.4691 1410.06 0.000360892 1441-15.4684 1410.06Z" transform="matrix(1 0 0 -1 1342 1557)"/><path d="M1342 1548.84 2713.22 1548.84 2713.22 1559.16 1342 1559.16ZM2708.06 1538.53 2739 1554 2708.06 1569.47Z"/><path d="M4.20246-2.98768 489.764 680 481.359 685.975-4.20246 2.98768ZM495.181 669.822 500.5 704 469.967 687.748Z" transform="matrix(-1 0 0 1 1342.5 1549)"/><path d="M1342 789.25 1838.72 789.25 1838.72 816.75 1342 816.75ZM1824.97 761.75 1907.47 803 1824.97 844.25Z"/><path d="M4.20246-2.98768 489.764 680 481.359 685.975-4.20246 2.98768ZM495.181 669.822 500.5 704 469.967 687.748Z" transform="matrix(-1 0 0 1 924.5 1454)"/><path d="M1682.42 888.211C1685 888.211 1686.86 888.883 1688.01 890.226 1689.15 891.568 1689.73 893.368 1689.73 895.624 1689.73 897.342 1689.42 899.312 1688.81 901.532 1688.2 903.752 1687.35 906.097 1686.24 908.568 1685.13 911.039 1683.8 913.572 1682.26 916.168 1680.72 918.764 1679.02 921.288 1677.16 923.741 1675.3 926.194 1673.31 928.504 1671.2 930.67 1669.08 932.836 1666.89 934.725 1664.62 936.336 1662.34 937.948 1660.03 939.228 1657.69 940.177 1655.34 941.126 1653.01 941.6 1650.68 941.6 1649.64 941.6 1648.77 941.341 1648.07 940.821 1647.38 940.302 1646.81 939.568 1646.38 938.619 1645.95 937.67 1645.65 936.551 1645.47 935.262 1645.29 933.973 1645.2 932.559 1645.2 931.019 1645.2 928.978 1645.33 926.794 1645.58 924.466 1645.83 922.139 1646.15 919.794 1646.54 917.43L1648.8 902.552C1648.94 901.693 1649.06 900.878 1649.15 900.108 1649.24 899.339 1649.28 898.775 1649.28 898.417 1649.28 897.307 1649.1 896.393 1648.74 895.677 1648.39 894.961 1647.78 894.603 1646.92 894.603 1646.24 894.603 1645.5 894.809 1644.72 895.221 1643.93 895.633 1643.13 896.161 1642.33 896.805 1641.52 897.45 1640.74 898.139 1639.99 898.873 1639.24 899.607 1638.54 900.296 1637.9 900.941L1635.32 897.933C1636.43 896.787 1637.61 895.65 1638.86 894.523 1640.12 893.395 1641.44 892.374 1642.84 891.461 1644.23 890.548 1645.7 889.814 1647.24 889.259 1648.78 888.704 1650.36 888.426 1651.97 888.426 1653.33 888.426 1654.44 888.65 1655.3 889.098 1656.16 889.545 1656.83 890.136 1657.31 890.87 1657.8 891.604 1658.13 892.41 1658.31 893.287 1658.48 894.164 1658.57 895.033 1658.57 895.892 1658.57 896.393 1658.56 896.877 1658.52 897.342 1658.48 897.808 1658.43 898.238 1658.36 898.631L1655.35 918.075C1655.03 920.116 1654.76 922.112 1654.55 924.064 1654.33 926.015 1654.22 927.743 1654.22 929.247 1654.22 930.751 1654.31 931.968 1654.49 932.899 1654.67 933.83 1655.01 934.295 1655.51 934.295 1656.69 934.295 1658.18 933.821 1659.97 932.872 1661.76 931.923 1663.64 930.616 1665.61 928.951 1667.58 927.286 1669.55 925.317 1671.52 923.043 1673.49 920.769 1675.26 918.307 1676.84 915.658 1678.41 913.008 1679.69 910.215 1680.68 907.279 1681.66 904.343 1682.15 901.389 1682.15 898.417 1682.15 897.128 1681.88 896.134 1681.32 895.436 1680.77 894.737 1679.9 894.388 1678.72 894.388 1677.21 894.388 1675.82 894.97 1674.55 896.134 1673.28 897.298 1671.97 898.828 1670.61 900.726L1667.54 897.987C1668.4 896.698 1669.41 895.462 1670.58 894.281 1671.74 893.099 1672.98 892.061 1674.28 891.166 1675.59 890.27 1676.94 889.554 1678.34 889.017 1679.74 888.48 1681.1 888.211 1682.42 888.211Z" fill-rule="evenodd"/><text fill="#000000" fill-opacity="0" font-family="Arial,Arial_MSFontService,sans-serif" font-size="53.3887" x="1635.32" y="934.927">𝑣</text><path d="M916.797-55.9215 945.612-55.9215 946.382-53.8952 927.05-31.6862C923.295-27.3903 920.039-23.7428 917.283-20.7438L917.526-20.4601 926.685-20.4601C928.306-20.4601 929.549-20.5479 930.414-20.7235 931.278-20.8992 932.035-21.2301 932.683-21.7165 933.332-22.2028 934.001-22.939 934.69-23.9252 935.378-24.9114 936.236-26.4582 937.263-28.5656L940.87-28.5656 938.398-17.1774 909.056-17.1774 908.286-19.1632 930.454-44.6955C933.589-48.2889 935.885-50.8421 937.344-52.3551L937.101-52.6388 927.617-52.6388C926.213-52.6388 925.186-52.5443 924.537-52.3551 923.889-52.166 923.241-51.835 922.592-51.3622 921.944-50.8894 921.248-50.1869 920.505-49.2548 919.762-48.3227 918.931-46.992 918.013-45.2628L914.406-45.2628Z" fill-rule="evenodd"/><text fill="#000000" fill-opacity="0" font-family="Arial,Arial_MSFontService,sans-serif" font-size="38.7441" x="908.286" y="-22.0204">𝑧</text><path d="M1335.27 59.9256 1364.09 59.9256 1364.86 61.952 1345.53 84.161C1341.77 88.4569 1338.51 92.1043 1335.76 95.1034L1336 95.3871 1345.16 95.3871C1346.78 95.3871 1348.03 95.2993 1348.89 95.1236 1349.75 94.948 1350.51 94.617 1351.16 94.1307 1351.81 93.6444 1352.48 92.9081 1353.17 91.922 1353.85 90.9358 1354.71 89.389 1355.74 87.2816L1359.35 87.2816 1356.87 98.6698 1327.53 98.6698 1326.76 96.6839 1348.93 71.1517C1352.06 67.5583 1354.36 65.0051 1355.82 63.492L1355.58 63.2084 1346.09 63.2084C1344.69 63.2084 1343.66 63.3029 1343.01 63.492 1342.36 63.6812 1341.72 64.0121 1341.07 64.485 1340.42 64.9578 1339.72 65.6603 1338.98 66.5924 1338.24 67.5245 1337.41 68.8552 1336.49 70.5843L1332.88 70.5843ZM1375.76 35.1229 1383.34 35.1229 1383.34 37.433 1373.57 60.9388 1370.13 59.9256Z" fill-rule="evenodd"/><text fill="#000000" fill-opacity="0" font-family="Arial,Arial_MSFontService,sans-serif" font-size="63.5469" x="1326.76" y="90.7264">𝑧′</text><path d="M401.953 2177.31C402.791 2177.31 403.527 2177.4 404.162 2177.59 404.797 2177.78 405.357 2178.07 405.844 2178.46 406.33 2178.86 406.762 2179.36 407.141 2179.98 407.519 2180.6 407.884 2181.45 408.235 2182.52 408.586 2183.58 408.917 2184.91 409.228 2186.49 409.538 2188.07 409.815 2189.71 410.059 2191.41L410.464 2191.41C413.058 2187.76 415.023 2185.1 416.361 2183.41 417.698 2181.72 418.826 2180.46 419.745 2179.64 420.663 2178.82 421.548 2178.23 422.399 2177.9 423.25 2177.56 424.378 2177.39 425.783 2177.39 427.053 2177.39 428.093 2177.55 428.904 2177.88L427.283 2185.21 424.446 2185.21C424.284 2184.08 423.811 2183.51 423.027 2183.51 422.784 2183.51 422.527 2183.55 422.257 2183.63 421.987 2183.71 421.656 2183.89 421.264 2184.16 420.873 2184.43 420.298 2184.96 419.542 2185.74 418.785 2186.52 417.934 2187.48 416.989 2188.62 416.043 2189.75 415.07 2190.94 414.071 2192.18L411.315 2195.63C411.801 2198.22 412.261 2200.46 412.693 2202.35 413.125 2204.25 413.51 2205.82 413.848 2207.08 414.186 2208.33 414.483 2209.33 414.739 2210.05 414.996 2210.78 415.273 2211.33 415.57 2211.7 415.867 2212.06 416.171 2212.32 416.482 2212.47 416.793 2212.61 417.151 2212.69 417.556 2212.69 418.286 2212.69 418.995 2212.41 419.684 2211.84 420.373 2211.27 421.366 2209.99 422.663 2207.99L425.297 2209.73C423.406 2212.54 421.697 2214.52 420.17 2215.67 418.644 2216.82 416.827 2217.39 414.719 2217.39 413.557 2217.39 412.571 2217.18 411.761 2216.76 410.95 2216.34 410.248 2215.67 409.653 2214.76 409.059 2213.84 408.532 2212.41 408.073 2210.46 407.235 2207 406.722 2204.35 406.533 2202.52L406.127 2202.52C403.263 2206.54 401.136 2209.43 399.744 2211.19 398.353 2212.95 397.205 2214.24 396.3 2215.08 395.394 2215.92 394.516 2216.51 393.665 2216.84 392.814 2217.18 391.686 2217.35 390.281 2217.35 389.011 2217.35 387.971 2217.19 387.161 2216.86L388.782 2209.53 391.619 2209.53C391.781 2210.66 392.254 2211.23 393.037 2211.23 393.415 2211.23 393.814 2211.13 394.233 2210.93 394.651 2210.72 395.253 2210.24 396.036 2209.47 396.82 2208.7 397.9 2207.49 399.278 2205.84 400.656 2204.19 402.656 2201.72 405.276 2198.42 404.871 2196.29 404.452 2194.24 404.02 2192.26 403.588 2190.29 403.142 2188.45 402.683 2186.75 402.223 2185.05 401.845 2183.94 401.548 2183.41 401.251 2182.88 400.933 2182.52 400.595 2182.31 400.258 2182.11 399.832 2182.01 399.319 2182.01 398.751 2182.01 398.238 2182.14 397.779 2182.4 397.319 2182.65 396.82 2183.1 396.279 2183.73 395.739 2184.37 395.023 2185.36 394.131 2186.71L391.497 2184.97C393.199 2182.4 394.834 2180.48 396.401 2179.21 397.968 2177.94 399.819 2177.31 401.953 2177.31Z" fill-rule="evenodd"/><text fill="#000000" fill-opacity="0" font-family="Arial,Arial_MSFontService,sans-serif" font-size="40.0815" x="387.161" y="2212.38">𝑥</text><path d="M824.727 2291.47C825.564 2291.47 826.301 2291.56 826.935 2291.75 827.57 2291.94 828.131 2292.23 828.617 2292.62 829.104 2293.01 829.536 2293.52 829.914 2294.14 830.292 2294.76 830.657 2295.61 831.008 2296.67 831.36 2297.74 831.691 2299.07 832.001 2300.65 832.312 2302.23 832.589 2303.87 832.832 2305.57L833.237 2305.57C835.831 2301.92 837.797 2299.25 839.134 2297.57 840.472 2295.88 841.6 2294.62 842.518 2293.8 843.437 2292.97 844.322 2292.39 845.173 2292.05 846.024 2291.72 847.152 2291.55 848.557 2291.55 849.827 2291.55 850.867 2291.71 851.677 2292.03L850.056 2299.37 847.219 2299.37C847.057 2298.23 846.584 2297.67 845.801 2297.67 845.558 2297.67 845.301 2297.71 845.031 2297.79 844.761 2297.87 844.43 2298.05 844.038 2298.32 843.646 2298.59 843.072 2299.11 842.316 2299.9 841.559 2300.68 840.708 2301.64 839.762 2302.77 838.817 2303.91 837.844 2305.1 836.844 2306.34L834.089 2309.78C834.575 2312.38 835.034 2314.62 835.466 2316.51 835.899 2318.4 836.284 2319.98 836.622 2321.23 836.959 2322.49 837.256 2323.48 837.513 2324.21 837.77 2324.94 838.047 2325.49 838.344 2325.85 838.641 2326.22 838.945 2326.48 839.256 2326.62 839.567 2326.77 839.924 2326.85 840.33 2326.85 841.059 2326.85 841.768 2326.56 842.457 2326 843.146 2325.43 844.139 2324.14 845.436 2322.15L848.07 2323.89C846.179 2326.7 844.47 2328.68 842.944 2329.83 841.417 2330.97 839.6 2331.55 837.493 2331.55 836.331 2331.55 835.345 2331.34 834.534 2330.92 833.724 2330.5 833.021 2329.83 832.427 2328.91 831.833 2327.99 831.306 2326.56 830.846 2324.62 830.009 2321.16 829.495 2318.51 829.306 2316.67L828.901 2316.67C826.037 2320.7 823.909 2323.59 822.518 2325.35 821.127 2327.1 819.978 2328.4 819.073 2329.24 818.168 2330.08 817.29 2330.66 816.439 2331 815.588 2331.34 814.46 2331.51 813.055 2331.51 811.785 2331.51 810.745 2331.35 809.934 2331.02L811.555 2323.69 814.392 2323.69C814.554 2324.82 815.027 2325.39 815.811 2325.39 816.189 2325.39 816.588 2325.29 817.006 2325.08 817.425 2324.88 818.026 2324.39 818.81 2323.62 819.593 2322.85 820.674 2321.65 822.052 2320 823.43 2318.35 825.429 2315.88 828.05 2312.58 827.645 2310.45 827.226 2308.39 826.794 2306.42 826.361 2304.45 825.916 2302.61 825.456 2300.91 824.997 2299.21 824.619 2298.09 824.321 2297.57 824.024 2297.04 823.707 2296.67 823.369 2296.47 823.031 2296.27 822.606 2296.17 822.092 2296.17 821.525 2296.17 821.012 2296.3 820.552 2296.55 820.093 2296.81 819.593 2297.25 819.053 2297.89 818.513 2298.52 817.797 2299.52 816.905 2300.87L814.271 2299.13C815.973 2296.56 817.607 2294.64 819.174 2293.37 820.742 2292.1 822.592 2291.47 824.727 2291.47ZM862.729 2267.35 870.307 2267.35 870.307 2269.66 860.54 2293.17 857.095 2292.16Z" fill-rule="evenodd"/><text fill="#000000" fill-opacity="0" font-family="Arial,Arial_MSFontService,sans-serif" font-size="64.1953" x="809.934" y="2323.52">𝑥′</text><path d="M2421.38 1439.02C2422.48 1439.02 2423.43 1439.17 2424.21 1439.47 2424.75 1439.69 2425.29 1440.04 2425.83 1440.54 2426.37 1441.04 2426.85 1441.74 2427.27 1442.63 2427.69 1443.52 2428.06 1444.52 2428.37 1445.63 2428.68 1446.74 2429.02 1448.33 2429.4 1450.41 2430.05 1453.9 2430.68 1457.57 2431.28 1461.42 2431.89 1465.27 2432.41 1468.84 2432.84 1472.13 2435.47 1468.35 2437.69 1464.65 2439.51 1461.03 2441.34 1457.41 2442.65 1454.26 2443.44 1451.59 2444.24 1448.91 2444.64 1446.74 2444.64 1445.06 2444.64 1443.79 2444.37 1442.93 2443.83 1442.47 2443.29 1442.01 2442.37 1441.74 2441.07 1441.66L2441.48 1439.67 2452.14 1439.67 2453.23 1441.7C2451.18 1447.32 2448.39 1453.33 2444.88 1459.73 2441.42 1466 2437.47 1472.24 2433.01 1478.46 2428.74 1484.37 2425.19 1488.66 2422.35 1491.3 2420.38 1493.11 2418.47 1494.41 2416.63 1495.19 2415.18 1495.79 2413.62 1496.09 2411.97 1496.09 2411.41 1496.09 2410.75 1496.04 2410.01 1495.94 2409.26 1495.85 2408.69 1495.72 2408.29 1495.56L2410.03 1487.7 2413.23 1487.7C2413.23 1489.43 2413.82 1490.29 2415.01 1490.29 2416.58 1490.29 2418.4 1489.31 2420.48 1487.35 2422.56 1485.39 2425.01 1482.44 2427.82 1478.5 2427.04 1473.77 2425.97 1468.07 2424.62 1461.4 2423.19 1454.26 2422.24 1449.84 2421.78 1448.14 2421.21 1446.09 2420.62 1444.78 2420 1444.21 2419.62 1443.86 2419.15 1443.68 2418.58 1443.68 2417.71 1443.68 2416.9 1444.04 2416.15 1444.74 2415.39 1445.44 2414.46 1446.66 2413.35 1448.39L2410.72 1446.64C2412.58 1443.86 2414.32 1441.89 2415.95 1440.75 2417.57 1439.6 2419.38 1439.02 2421.38 1439.02Z" fill-rule="evenodd"/><text fill="#000000" fill-opacity="0" font-family="Arial,Arial_MSFontService,sans-serif" font-size="57.0625" x="2408.29" y="1488.95">𝑦</text><path d="M2773.51 1544.12C2774.62 1544.12 2775.57 1544.27 2776.35 1544.57 2776.89 1544.79 2777.43 1545.14 2777.97 1545.64 2778.51 1546.14 2778.99 1546.84 2779.41 1547.73 2779.83 1548.62 2780.19 1549.62 2780.5 1550.73 2780.82 1551.84 2781.16 1553.43 2781.54 1555.51 2782.19 1559 2782.81 1562.67 2783.42 1566.52 2784.03 1570.37 2784.55 1573.94 2784.98 1577.23 2787.6 1573.45 2789.83 1569.75 2791.65 1566.13 2793.47 1562.51 2794.78 1559.36 2795.58 1556.69 2796.38 1554.01 2796.78 1551.84 2796.78 1550.16 2796.78 1548.89 2796.51 1548.03 2795.97 1547.57 2795.43 1547.11 2794.51 1546.84 2793.21 1546.76L2793.61 1544.77 2804.27 1544.77 2805.37 1546.8C2803.31 1552.42 2800.53 1558.43 2797.02 1564.83 2793.56 1571.1 2789.6 1577.34 2785.14 1583.56 2780.88 1589.47 2777.32 1593.76 2774.49 1596.4 2772.51 1598.21 2770.61 1599.51 2768.77 1600.29 2767.31 1600.89 2765.76 1601.19 2764.11 1601.19 2763.54 1601.19 2762.89 1601.14 2762.15 1601.04 2761.4 1600.95 2760.83 1600.82 2760.42 1600.66L2762.17 1592.8 2765.37 1592.8C2765.37 1594.53 2765.96 1595.39 2767.15 1595.39 2768.72 1595.39 2770.54 1594.41 2772.62 1592.45 2774.7 1590.49 2777.15 1587.54 2779.96 1583.6 2779.17 1578.87 2778.11 1573.17 2776.76 1566.49 2775.32 1559.36 2774.38 1554.94 2773.92 1553.24 2773.35 1551.19 2772.76 1549.88 2772.14 1549.31 2771.76 1548.96 2771.28 1548.78 2770.72 1548.78 2769.85 1548.78 2769.04 1549.14 2768.29 1549.84 2767.53 1550.54 2766.6 1551.76 2765.49 1553.49L2762.85 1551.74C2764.72 1548.96 2766.46 1546.99 2768.08 1545.85 2769.7 1544.7 2771.51 1544.12 2773.51 1544.12ZM2816.15 1519.97 2823.73 1519.97 2823.73 1522.28 2813.96 1545.79 2810.52 1544.77Z" fill-rule="evenodd"/><text fill="#000000" fill-opacity="0" font-family="Arial,Arial_MSFontService,sans-serif" font-size="81.2168" x="2760.42" y="1591.03">𝑦′</text></g></svg>