<?xml version="1.0" encoding="utf-8" standalone="no"?>
<!DOCTYPE svg PUBLIC "-//W3C//DTD SVG 1.1//EN"
  "http://www.w3.org/Graphics/SVG/1.1/DTD/svg11.dtd">
<svg xmlns:xlink="http://www.w3.org/1999/xlink" width="371.52pt" height="280.512pt" viewBox="0 0 371.52 280.512" xmlns="http://www.w3.org/2000/svg" version="1.1">
 <metadata>
  <rdf:RDF xmlns:dc="http://purl.org/dc/elements/1.1/" xmlns:cc="http://creativecommons.org/ns#" xmlns:rdf="http://www.w3.org/1999/02/22-rdf-syntax-ns#">
   <cc:Work>
    <dc:type rdf:resource="http://purl.org/dc/dcmitype/StillImage"/>
    <dc:date>2024-02-27T23:53:30.153857</dc:date>
    <dc:format>image/svg+xml</dc:format>
    <dc:creator>
     <cc:Agent>
      <dc:title>Matplotlib v3.8.2, https://matplotlib.org/</dc:title>
     </cc:Agent>
    </dc:creator>
   </cc:Work>
  </rdf:RDF>
 </metadata>
 <defs>
  <style type="text/css">*{stroke-linejoin: round; stroke-linecap: butt}</style>
 </defs>
 <g id="figure_1">
  <g id="axes_1">
   <g id="patch_1">
    <path d="M 185.76 18.6912 
L 189.9936 31.392 
L 185.766048 31.392 
L 185.766048 140.256 
L 185.753952 140.256 
L 185.753952 31.392 
L 181.5264 31.392 
z
" clip-path="url(#p1bc967dabe)" style="stroke: #000000; stroke-width: 1.5; stroke-linejoin: miter"/>
   </g>
   <g id="patch_2">
    <path d="M 196.50391 19.166905 
L 199.598445 32.19217 
L 195.387436 31.818539 
L 185.766024 140.256535 
L 185.753976 140.255465 
L 195.375387 31.81747 
L 191.164379 31.443838 
z
" clip-path="url(#p1bc967dabe)" style="stroke: #000000; stroke-width: 1.5; stroke-linejoin: miter"/>
   </g>
   <g id="patch_3">
    <path d="M 207.163734 20.590296 
L 209.094985 33.838086 
L 204.933476 33.093748 
L 185.765954 140.257065 
L 185.754046 140.254935 
L 204.921569 33.091618 
L 200.76006 32.347279 
z
" clip-path="url(#p1bc967dabe)" style="stroke: #000000; stroke-width: 1.5; stroke-linejoin: miter"/>
   </g>
   <g id="patch_4">
    <path d="M 217.656045 22.950233 
L 218.408898 36.316867 
L 214.329458 35.207646 
L 185.765836 140.257587 
L 185.754164 140.254413 
L 214.317786 35.204473 
L 210.238347 34.095252 
z
" clip-path="url(#p1bc967dabe)" style="stroke: #000000; stroke-width: 1.5; stroke-linejoin: miter"/>
   </g>
   <g id="patch_5">
    <path d="M 227.898726 26.228247 
L 227.467288 39.609112 
L 223.501845 38.143691 
L 185.765673 140.258096 
L 185.754327 140.253904 
L 223.490499 38.139498 
L 219.525057 36.674077 
z
" clip-path="url(#p1bc967dabe)" style="stroke: #000000; stroke-width: 1.5; stroke-linejoin: miter"/>
   </g>
   <g id="patch_6">
    <path d="M 237.811614 30.398683 
L 236.199262 43.689056 
L 232.378851 41.878903 
L 185.765466 140.25859 
L 185.754534 140.25341 
L 232.36792 41.873724 
L 228.547509 40.06357 
z
" clip-path="url(#p1bc967dabe)" style="stroke: #000000; stroke-width: 1.5; stroke-linejoin: miter"/>
   </g>
   <g id="patch_7">
    <path d="M 247.317128 35.428901 
L 244.536481 48.524767 
L 240.891002 46.384049 
L 185.765215 140.259063 
L 185.754785 140.252937 
L 240.880571 46.377924 
L 237.235091 44.237206 
z
" clip-path="url(#p1bc967dabe)" style="stroke: #000000; stroke-width: 1.5; stroke-linejoin: miter"/>
   </g>
   <g id="patch_8">
    <path d="M 256.340874 41.279534 
L 252.413694 54.078399 
L 248.971677 51.62387 
L 185.764924 140.259511 
L 185.755076 140.252489 
L 248.961829 51.616847 
L 245.519811 49.162318 
z
" clip-path="url(#p1bc967dabe)" style="stroke: #000000; stroke-width: 1.5; stroke-linejoin: miter"/>
   </g>
   <g id="patch_9">
    <path d="M 264.812229 47.904792 
L 259.769252 60.306488 
L 256.557635 57.557358 
L 185.764595 140.259933 
L 185.755405 140.252067 
L 256.548446 57.549492 
L 253.33683 54.800363 
z
" clip-path="url(#p1bc967dabe)" style="stroke: #000000; stroke-width: 1.5; stroke-linejoin: miter"/>
   </g>
   <g id="patch_10">
    <path d="M 272.664893 55.252822 
L 266.545587 67.16029 
L 263.589506 64.138075 
L 185.764229 140.260324 
L 185.755771 140.251676 
L 263.581048 64.129428 
L 260.624968 61.107213 
z
" clip-path="url(#p1bc967dabe)" style="stroke: #000000; stroke-width: 1.5; stroke-linejoin: miter"/>
   </g>
   <g id="patch_11">
    <path d="M 279.837408 63.266119 
L 272.689665 74.586165 
L 270.012256 71.314518 
L 185.76383 140.26068 
L 185.75617 140.25132 
L 270.004595 71.305157 
L 267.327186 68.03351 
z
" clip-path="url(#p1bc967dabe)" style="stroke: #000000; stroke-width: 1.5; stroke-linejoin: miter"/>
   </g>
   <g id="patch_12">
    <path d="M 286.27364 71.881965 
L 278.153401 82.525996 
L 275.775617 79.030521 
L 185.763402 140.261001 
L 185.756598 140.250999 
L 275.768814 79.02052 
L 273.39103 75.525046 
z
" clip-path="url(#p1bc967dabe)" style="stroke: #000000; stroke-width: 1.5; stroke-linejoin: miter"/>
   </g>
   <g id="patch_13">
    <path d="M 291.923217 81.032931 
L 282.894033 90.917642 
L 280.834484 87.225697 
L 185.762946 140.261282 
L 185.757054 140.250718 
L 280.828591 87.215134 
L 278.769043 83.523189 
z
" clip-path="url(#p1bc967dabe)" style="stroke: #000000; stroke-width: 1.5; stroke-linejoin: miter"/>
   </g>
   <g id="patch_14">
    <path d="M 296.741923 90.647397 
L 286.874459 99.695428 
L 285.149264 95.835907 
L 185.762468 140.261521 
L 185.757532 140.250479 
L 285.144328 95.824864 
L 283.419134 91.965344 
z
" clip-path="url(#p1bc967dabe)" style="stroke: #000000; stroke-width: 1.5; stroke-linejoin: miter"/>
   </g>
   <g id="patch_15">
    <path d="M 300.692044 100.650119 
L 290.063528 108.790655 
L 288.686189 104.793764 
L 185.76197 140.261718 
L 185.75803 140.250282 
L 288.682248 104.782328 
L 287.304909 100.785438 
z
" clip-path="url(#p1bc967dabe)" style="stroke: #000000; stroke-width: 1.5; stroke-linejoin: miter"/>
   </g>
   <g id="patch_16">
    <path d="M 303.742666 110.962809 
L 292.43628 118.132141 
L 291.417577 114.029162 
L 185.761457 140.26187 
L 185.758543 140.25013 
L 291.414662 114.017422 
L 290.395958 109.914443 
z
" clip-path="url(#p1bc967dabe)" style="stroke: #000000; stroke-width: 1.5; stroke-linejoin: miter"/>
   </g>
   <g id="patch_17">
    <path d="M 305.869915 121.504759 
L 293.974146 127.646777 
L 293.32205 123.46982 
L 185.760933 140.261976 
L 185.759067 140.250024 
L 293.320185 123.457869 
L 292.668089 119.280912 
z
" clip-path="url(#p1bc967dabe)" style="stroke: #000000; stroke-width: 1.5; stroke-linejoin: miter"/>
   </g>
   <g id="patch_18">
    <path d="M 307.05714 132.193463 
L 294.665089 137.260096 
L 294.384705 133.041852 
L 185.760401 140.262035 
L 185.759599 140.249965 
L 294.383903 133.029783 
L 294.103519 128.811539 
z
" clip-path="url(#p1bc967dabe)" style="stroke: #000000; stroke-width: 1.5; stroke-linejoin: miter"/>
   </g>
   <g id="patch_19">
    <path d="M 307.29505 142.945267 
L 294.503702 146.896863 
L 294.597225 142.670345 
L 185.759866 140.262047 
L 185.760134 140.249953 
L 294.597492 142.658252 
L 294.691015 138.431735 
z
" clip-path="url(#p1bc967dabe)" style="stroke: #000000; stroke-width: 1.5; stroke-linejoin: miter"/>
   </g>
   <g id="patch_20">
    <path d="M 306.581784 153.676024 
L 293.491249 156.481656 
L 293.957945 152.279943 
L 185.759332 140.262011 
L 185.760668 140.249989 
L 293.95928 152.267921 
L 294.425977 148.066208 
z
" clip-path="url(#p1bc967dabe)" style="stroke: #000000; stroke-width: 1.5; stroke-linejoin: miter"/>
   </g>
   <g id="patch_21">
    <path d="M 304.922924 164.301751 
L 291.635652 165.939461 
L 292.47187 161.795437 
L 185.758804 140.261929 
L 185.761196 140.250071 
L 292.474263 161.78358 
L 293.31048 157.639556 
z
" clip-path="url(#p1bc967dabe)" style="stroke: #000000; stroke-width: 1.5; stroke-linejoin: miter"/>
   </g>
   <g id="patch_22">
    <path d="M 302.331452 174.739287 
L 288.951435 175.196258 
L 290.15063 171.142355 
L 185.758284 140.2618 
L 185.761716 140.2502 
L 290.154061 171.130756 
L 291.353256 167.076854 
z
" clip-path="url(#p1bc967dabe)" style="stroke: #000000; stroke-width: 1.5; stroke-linejoin: miter"/>
   </g>
   <g id="patch_23">
    <path d="M 298.827651 184.906945 
L 285.459605 184.179601 
L 287.012391 180.247546 
L 185.757779 140.261625 
L 185.762221 140.250375 
L 287.016834 180.236296 
L 288.569621 176.304242 
z
" clip-path="url(#p1bc967dabe)" style="stroke: #000000; stroke-width: 1.5; stroke-linejoin: miter"/>
   </g>
   <g id="patch_24">
    <path d="M 294.438942 194.725149 
L 281.18749 192.819181 
L 283.081716 189.039749 
L 185.75729 140.261407 
L 185.76271 140.250593 
L 283.087135 189.028935 
L 284.981361 185.249504 
z
" clip-path="url(#p1bc967dabe)" style="stroke: #000000; stroke-width: 1.5; stroke-linejoin: miter"/>
   </g>
   <g id="patch_25">
    <path d="M 289.199673 204.117058 
L 276.168526 201.047384 
L 278.389366 197.450153 
L 185.756823 140.261146 
L 185.763177 140.250854 
L 278.39572 197.439861 
L 280.61656 193.84263 
z
" clip-path="url(#p1bc967dabe)" style="stroke: #000000; stroke-width: 1.5; stroke-linejoin: miter"/>
   </g>
   <g id="patch_26">
    <path d="M 283.150848 213.009167 
L 270.441992 208.799811 
L 272.972065 205.412935 
L 185.75638 140.260845 
L 185.76362 140.251155 
L 272.979304 205.403245 
L 275.509377 202.016369 
z
" clip-path="url(#p1bc967dabe)" style="stroke: #000000; stroke-width: 1.5; stroke-linejoin: miter"/>
   </g>
   <g id="patch_27">
    <path d="M 276.339808 221.331884 
L 264.052707 216.01579 
L 266.872212 212.865776 
L 185.755966 140.260506 
L 185.764034 140.251494 
L 266.880279 212.856763 
L 269.699784 209.706749 
z
" clip-path="url(#p1bc967dabe)" style="stroke: #000000; stroke-width: 1.5; stroke-linejoin: miter"/>
   </g>
   <g id="patch_28">
    <path d="M 268.819858 229.020073 
L 257.050676 222.638846 
L 260.137546 219.750347 
L 185.755584 140.260132 
L 185.764416 140.251868 
L 260.146378 219.742082 
L 263.233248 216.853583 
z
" clip-path="url(#p1bc967dabe)" style="stroke: #000000; stroke-width: 1.5; stroke-linejoin: miter"/>
   </g>
   <g id="patch_29">
    <path d="M 260.649852 236.013562 
L 249.490698 228.617145 
L 252.820775 226.012767 
L 185.755236 140.259726 
L 185.764764 140.252274 
L 252.830303 226.005315 
L 256.160379 223.400937 
z
" clip-path="url(#p1bc967dabe)" style="stroke: #000000; stroke-width: 1.5; stroke-linejoin: miter"/>
   </g>
   <g id="patch_30">
    <path d="M 251.893731 242.257619 
L 241.431941 233.903898 
L 244.979162 231.604023 
L 185.754925 140.25929 
L 185.765075 140.25271 
L 244.989311 231.597443 
L 248.536532 229.297568 
z
" clip-path="url(#p1bc967dabe)" style="stroke: #000000; stroke-width: 1.5; stroke-linejoin: miter"/>
   </g>
   <g id="patch_31">
    <path d="M 242.620024 247.703374 
L 232.937476 238.457729 
L 236.674079 236.480358 
L 185.754654 140.258829 
L 185.765346 140.253171 
L 236.68477 236.4747 
L 240.421373 234.497329 
z
" clip-path="url(#p1bc967dabe)" style="stroke: #000000; stroke-width: 1.5; stroke-linejoin: miter"/>
   </g>
   <g id="patch_32">
    <path d="M 232.901311 252.308209 
L 224.073783 242.242999 
L 227.970524 240.603607 
L 185.754425 140.258345 
L 185.765575 140.253655 
L 227.981674 240.598916 
L 231.878415 238.959524 
z
" clip-path="url(#p1bc967dabe)" style="stroke: #000000; stroke-width: 1.5; stroke-linejoin: miter"/>
   </g>
   <g id="patch_33">
    <path d="M 222.813652 256.036082 
L 214.910233 245.230081 
L 218.936615 243.941499 
L 185.75424 140.257843 
L 185.76576 140.254157 
L 218.948135 243.937812 
L 222.974517 242.64923 
z
" clip-path="url(#p1bc967dabe)" style="stroke: #000000; stroke-width: 1.5; stroke-linejoin: miter"/>
   </g>
   <g id="patch_34">
    <path d="M 212.435999 258.85782 
L 205.518543 247.3956 
L 209.643054 246.467912 
L 185.754099 140.257327 
L 185.765901 140.254673 
L 209.654855 246.465258 
L 213.779366 245.53757 
z
" clip-path="url(#p1bc967dabe)" style="stroke: #000000; stroke-width: 1.5; stroke-linejoin: miter"/>
   </g>
   <g id="patch_35">
    <path d="M 201.84957 260.751337 
L 195.972215 248.722606 
L 200.162575 248.163073 
L 185.754005 140.2568 
L 185.765995 140.2552 
L 200.174565 248.161472 
L 204.364925 247.601939 
z
" clip-path="url(#p1bc967dabe)" style="stroke: #000000; stroke-width: 1.5; stroke-linejoin: miter"/>
   </g>
   <g id="patch_36">
    <path d="M 191.137218 261.701816 
L 186.345963 249.200713 
L 190.569377 249.013714 
L 185.753958 140.256268 
L 185.766042 140.255732 
L 190.581461 249.013179 
L 194.804875 248.826181 
z
" clip-path="url(#p1bc967dabe)" style="stroke: #000000; stroke-width: 1.5; stroke-linejoin: miter"/>
   </g>
   <g id="patch_37">
    <path d="M 180.382782 261.701816 
L 176.715125 248.826181 
L 180.938539 249.013179 
L 185.753958 140.255732 
L 185.766042 140.256268 
L 180.950623 249.013714 
L 185.174037 249.200713 
z
" clip-path="url(#p1bc967dabe)" style="stroke: #000000; stroke-width: 1.5; stroke-linejoin: miter"/>
   </g>
   <g id="patch_38">
    <path d="M 169.67043 260.751337 
L 167.155075 247.601939 
L 171.345435 248.161472 
L 185.754005 140.2552 
L 185.765995 140.2568 
L 171.357425 248.163073 
L 175.547785 248.722606 
z
" clip-path="url(#p1bc967dabe)" style="stroke: #000000; stroke-width: 1.5; stroke-linejoin: miter"/>
   </g>
   <g id="patch_39">
    <path d="M 159.084001 258.85782 
L 157.740634 245.53757 
L 161.865145 246.465258 
L 185.754099 140.254673 
L 185.765901 140.257327 
L 161.876946 246.467912 
L 166.001457 247.3956 
z
" clip-path="url(#p1bc967dabe)" style="stroke: #000000; stroke-width: 1.5; stroke-linejoin: miter"/>
   </g>
   <g id="patch_40">
    <path d="M 148.706348 256.036082 
L 148.545483 242.64923 
L 152.571865 243.937812 
L 185.75424 140.254157 
L 185.76576 140.257843 
L 152.583385 243.941499 
L 156.609767 245.230081 
z
" clip-path="url(#p1bc967dabe)" style="stroke: #000000; stroke-width: 1.5; stroke-linejoin: miter"/>
   </g>
   <g id="patch_41">
    <path d="M 138.618689 252.308209 
L 139.641585 238.959524 
L 143.538326 240.598916 
L 185.754425 140.253655 
L 185.765575 140.258345 
L 143.549476 240.603607 
L 147.446217 242.242999 
z
" clip-path="url(#p1bc967dabe)" style="stroke: #000000; stroke-width: 1.5; stroke-linejoin: miter"/>
   </g>
   <g id="patch_42">
    <path d="M 128.899976 247.703374 
L 131.098627 234.497329 
L 134.83523 236.4747 
L 185.754654 140.253171 
L 185.765346 140.258829 
L 134.845921 236.480358 
L 138.582524 238.457729 
z
" clip-path="url(#p1bc967dabe)" style="stroke: #000000; stroke-width: 1.5; stroke-linejoin: miter"/>
   </g>
   <g id="patch_43">
    <path d="M 119.626269 242.257619 
L 122.983468 229.297568 
L 126.530689 231.597443 
L 185.754925 140.25271 
L 185.765075 140.25929 
L 126.540838 231.604023 
L 130.088059 233.903898 
z
" clip-path="url(#p1bc967dabe)" style="stroke: #000000; stroke-width: 1.5; stroke-linejoin: miter"/>
   </g>
   <g id="patch_44">
    <path d="M 110.870148 236.013562 
L 115.359621 223.400937 
L 118.689697 226.005315 
L 185.755236 140.252274 
L 185.764764 140.259726 
L 118.699225 226.012767 
L 122.029302 228.617145 
z
" clip-path="url(#p1bc967dabe)" style="stroke: #000000; stroke-width: 1.5; stroke-linejoin: miter"/>
   </g>
   <g id="patch_45">
    <path d="M 102.700142 229.020073 
L 108.286752 216.853583 
L 111.373622 219.742082 
L 185.755584 140.251868 
L 185.764416 140.260132 
L 111.382454 219.750347 
L 114.469324 222.638846 
z
" clip-path="url(#p1bc967dabe)" style="stroke: #000000; stroke-width: 1.5; stroke-linejoin: miter"/>
   </g>
   <g id="patch_46">
    <path d="M 95.180192 221.331884 
L 101.820216 209.706749 
L 104.639721 212.856763 
L 185.755966 140.251494 
L 185.764034 140.260506 
L 104.647788 212.865776 
L 107.467293 216.01579 
z
" clip-path="url(#p1bc967dabe)" style="stroke: #000000; stroke-width: 1.5; stroke-linejoin: miter"/>
   </g>
   <g id="patch_47">
    <path d="M 88.369152 213.009167 
L 96.010623 202.016369 
L 98.540696 205.403245 
L 185.75638 140.251155 
L 185.76362 140.260845 
L 98.547935 205.412935 
L 101.078008 208.799811 
z
" clip-path="url(#p1bc967dabe)" style="stroke: #000000; stroke-width: 1.5; stroke-linejoin: miter"/>
   </g>
   <g id="patch_48">
    <path d="M 82.320327 204.117058 
L 90.90344 193.84263 
L 93.12428 197.439861 
L 185.756823 140.250854 
L 185.763177 140.261146 
L 93.130634 197.450153 
L 95.351474 201.047384 
z
" clip-path="url(#p1bc967dabe)" style="stroke: #000000; stroke-width: 1.5; stroke-linejoin: miter"/>
   </g>
   <g id="patch_49">
    <path d="M 77.081058 194.725149 
L 86.538639 185.249504 
L 88.432865 189.028935 
L 185.75729 140.250593 
L 185.76271 140.261407 
L 88.438284 189.039749 
L 90.33251 192.819181 
z
" clip-path="url(#p1bc967dabe)" style="stroke: #000000; stroke-width: 1.5; stroke-linejoin: miter"/>
   </g>
   <g id="patch_50">
    <path d="M 72.692349 184.906945 
L 82.950379 176.304242 
L 84.503166 180.236296 
L 185.757779 140.250375 
L 185.762221 140.261625 
L 84.507609 180.247546 
L 86.060395 184.179601 
z
" clip-path="url(#p1bc967dabe)" style="stroke: #000000; stroke-width: 1.5; stroke-linejoin: miter"/>
   </g>
   <g id="patch_51">
    <path d="M 69.188548 174.739287 
L 80.166744 167.076854 
L 81.365939 171.130756 
L 185.758284 140.2502 
L 185.761716 140.2618 
L 81.36937 171.142355 
L 82.568565 175.196258 
z
" clip-path="url(#p1bc967dabe)" style="stroke: #000000; stroke-width: 1.5; stroke-linejoin: miter"/>
   </g>
   <g id="patch_52">
    <path d="M 66.597076 164.301751 
L 78.20952 157.639556 
L 79.045737 161.78358 
L 185.758804 140.250071 
L 185.761196 140.261929 
L 79.04813 161.795437 
L 79.884348 165.939461 
z
" clip-path="url(#p1bc967dabe)" style="stroke: #000000; stroke-width: 1.5; stroke-linejoin: miter"/>
   </g>
   <g id="patch_53">
    <path d="M 64.938216 153.676024 
L 77.094023 148.066208 
L 77.56072 152.267921 
L 185.759332 140.249989 
L 185.760668 140.262011 
L 77.562055 152.279943 
L 78.028751 156.481656 
z
" clip-path="url(#p1bc967dabe)" style="stroke: #000000; stroke-width: 1.5; stroke-linejoin: miter"/>
   </g>
   <g id="patch_54">
    <path d="M 64.22495 142.945267 
L 76.828985 138.431735 
L 76.922508 142.658252 
L 185.759866 140.249953 
L 185.760134 140.262047 
L 76.922775 142.670345 
L 77.016298 146.896863 
z
" clip-path="url(#p1bc967dabe)" style="stroke: #000000; stroke-width: 1.5; stroke-linejoin: miter"/>
   </g>
   <g id="patch_55">
    <path d="M 64.46286 132.193463 
L 77.416481 128.811539 
L 77.136097 133.029783 
L 185.760401 140.249965 
L 185.759599 140.262035 
L 77.135295 133.041852 
L 76.854911 137.260096 
z
" clip-path="url(#p1bc967dabe)" style="stroke: #000000; stroke-width: 1.5; stroke-linejoin: miter"/>
   </g>
   <g id="patch_56">
    <path d="M 65.650085 121.504759 
L 78.851911 119.280912 
L 78.199815 123.457869 
L 185.760933 140.250024 
L 185.759067 140.261976 
L 78.19795 123.46982 
L 77.545854 127.646777 
z
" clip-path="url(#p1bc967dabe)" style="stroke: #000000; stroke-width: 1.5; stroke-linejoin: miter"/>
   </g>
   <g id="patch_57">
    <path d="M 67.777334 110.962809 
L 81.124042 109.914443 
L 80.105338 114.017422 
L 185.761457 140.25013 
L 185.758543 140.26187 
L 80.102423 114.029162 
L 79.08372 118.132141 
z
" clip-path="url(#p1bc967dabe)" style="stroke: #000000; stroke-width: 1.5; stroke-linejoin: miter"/>
   </g>
   <g id="patch_58">
    <path d="M 70.827956 100.650119 
L 84.215091 100.785438 
L 82.837752 104.782328 
L 185.76197 140.250282 
L 185.75803 140.261718 
L 82.833811 104.793764 
L 81.456472 108.790655 
z
" clip-path="url(#p1bc967dabe)" style="stroke: #000000; stroke-width: 1.5; stroke-linejoin: miter"/>
   </g>
   <g id="patch_59">
    <path d="M 74.778077 90.647397 
L 88.100866 91.965344 
L 86.375672 95.824864 
L 185.762468 140.250479 
L 185.757532 140.261521 
L 86.370736 95.835907 
L 84.645541 99.695428 
z
" clip-path="url(#p1bc967dabe)" style="stroke: #000000; stroke-width: 1.5; stroke-linejoin: miter"/>
   </g>
   <g id="patch_60">
    <path d="M 79.596783 81.032931 
L 92.750957 83.523189 
L 90.691409 87.215134 
L 185.762946 140.250718 
L 185.757054 140.261282 
L 90.685516 87.225697 
L 88.625967 90.917642 
z
" clip-path="url(#p1bc967dabe)" style="stroke: #000000; stroke-width: 1.5; stroke-linejoin: miter"/>
   </g>
   <g id="patch_61">
    <path d="M 85.24636 71.881965 
L 98.12897 75.525046 
L 95.751186 79.02052 
L 185.763402 140.250999 
L 185.756598 140.261001 
L 95.744383 79.030521 
L 93.366599 82.525996 
z
" clip-path="url(#p1bc967dabe)" style="stroke: #000000; stroke-width: 1.5; stroke-linejoin: miter"/>
   </g>
   <g id="patch_62">
    <path d="M 91.682592 63.266119 
L 104.192814 68.03351 
L 101.515405 71.305157 
L 185.76383 140.25132 
L 185.75617 140.26068 
L 101.507744 71.314518 
L 98.830335 74.586165 
z
" clip-path="url(#p1bc967dabe)" style="stroke: #000000; stroke-width: 1.5; stroke-linejoin: miter"/>
   </g>
   <g id="patch_63">
    <path d="M 98.855107 55.252822 
L 110.895032 61.107213 
L 107.938952 64.129428 
L 185.764229 140.251676 
L 185.755771 140.260324 
L 107.930494 64.138075 
L 104.974413 67.16029 
z
" clip-path="url(#p1bc967dabe)" style="stroke: #000000; stroke-width: 1.5; stroke-linejoin: miter"/>
   </g>
   <g id="patch_64">
    <path d="M 106.707771 47.904792 
L 118.18317 54.800363 
L 114.971554 57.549492 
L 185.764595 140.252067 
L 185.755405 140.259933 
L 114.962365 57.557358 
L 111.750748 60.306488 
z
" clip-path="url(#p1bc967dabe)" style="stroke: #000000; stroke-width: 1.5; stroke-linejoin: miter"/>
   </g>
   <g id="patch_65">
    <path d="M 115.179126 41.279534 
L 126.000189 49.162318 
L 122.558171 51.616847 
L 185.764924 140.252489 
L 185.755076 140.259511 
L 122.548323 51.62387 
L 119.106306 54.078399 
z
" clip-path="url(#p1bc967dabe)" style="stroke: #000000; stroke-width: 1.5; stroke-linejoin: miter"/>
   </g>
   <g id="patch_66">
    <path d="M 124.202872 35.428901 
L 134.284909 44.237206 
L 130.639429 46.377924 
L 185.765215 140.252937 
L 185.754785 140.259063 
L 130.628998 46.384049 
L 126.983519 48.524767 
z
" clip-path="url(#p1bc967dabe)" style="stroke: #000000; stroke-width: 1.5; stroke-linejoin: miter"/>
   </g>
   <g id="patch_67">
    <path d="M 133.708386 30.398683 
L 142.972491 40.06357 
L 139.15208 41.873724 
L 185.765466 140.25341 
L 185.754534 140.25859 
L 139.141149 41.878903 
L 135.320738 43.689056 
z
" clip-path="url(#p1bc967dabe)" style="stroke: #000000; stroke-width: 1.5; stroke-linejoin: miter"/>
   </g>
   <g id="patch_68">
    <path d="M 143.621274 26.228247 
L 151.994943 36.674077 
L 148.029501 38.139498 
L 185.765673 140.253904 
L 185.754327 140.258096 
L 148.018155 38.143691 
L 144.052712 39.609112 
z
" clip-path="url(#p1bc967dabe)" style="stroke: #000000; stroke-width: 1.5; stroke-linejoin: miter"/>
   </g>
   <g id="patch_69">
    <path d="M 153.863955 22.950233 
L 161.281653 34.095252 
L 157.202214 35.204473 
L 185.765836 140.254413 
L 185.754164 140.257587 
L 157.190542 35.207646 
L 153.111102 36.316867 
z
" clip-path="url(#p1bc967dabe)" style="stroke: #000000; stroke-width: 1.5; stroke-linejoin: miter"/>
   </g>
   <g id="patch_70">
    <path d="M 164.356266 20.590296 
L 170.75994 32.347279 
L 166.598431 33.091618 
L 185.765954 140.254935 
L 185.754046 140.257065 
L 166.586524 33.093748 
L 162.425015 33.838086 
z
" clip-path="url(#p1bc967dabe)" style="stroke: #000000; stroke-width: 1.5; stroke-linejoin: miter"/>
   </g>
   <g id="patch_71">
    <path d="M 175.01609 19.166905 
L 180.355621 31.443838 
L 176.144613 31.81747 
L 185.766024 140.255465 
L 185.753976 140.256535 
L 176.132564 31.818539 
L 171.921555 32.19217 
z
" clip-path="url(#p1bc967dabe)" style="stroke: #000000; stroke-width: 1.5; stroke-linejoin: miter"/>
   </g>
   <g id="PathCollection_1">
    <defs>
     <path id="mbde514d2ce" d="M 0 2.738613 
C 0.726289 2.738613 1.422928 2.450055 1.936492 1.936492 
C 2.450055 1.422928 2.738613 0.726289 2.738613 0 
C 2.738613 -0.726289 2.450055 -1.422928 1.936492 -1.936492 
C 1.422928 -2.450055 0.726289 -2.738613 0 -2.738613 
C -0.726289 -2.738613 -1.422928 -2.450055 -1.936492 -1.936492 
C -2.450055 -1.422928 -2.738613 -0.726289 -2.738613 0 
C -2.738613 0.726289 -2.450055 1.422928 -1.936492 1.936492 
C -1.422928 2.450055 -0.726289 2.738613 0 2.738613 
z
" style="stroke: #000000"/>
    </defs>
    <g clip-path="url(#p1bc967dabe)">
     <use xlink:href="#mbde514d2ce" x="185.76" y="140.256" style="stroke: #000000"/>
    </g>
   </g>
   <g id="text_1">
    <!-- Source velocity = 0 -->
    <g transform="translate(246.24 261.216) scale(0.1 -0.1)">
     <defs>
      <path id="DejaVuSans-Bold-53" d="M 3834 4519 
L 3834 3531 
Q 3450 3703 3084 3790 
Q 2719 3878 2394 3878 
Q 1963 3878 1756 3759 
Q 1550 3641 1550 3391 
Q 1550 3203 1689 3098 
Q 1828 2994 2194 2919 
L 2706 2816 
Q 3484 2659 3812 2340 
Q 4141 2022 4141 1434 
Q 4141 663 3683 286 
Q 3225 -91 2284 -91 
Q 1841 -91 1394 -6 
Q 947 78 500 244 
L 500 1259 
Q 947 1022 1364 901 
Q 1781 781 2169 781 
Q 2563 781 2772 912 
Q 2981 1044 2981 1288 
Q 2981 1506 2839 1625 
Q 2697 1744 2272 1838 
L 1806 1941 
Q 1106 2091 782 2419 
Q 459 2747 459 3303 
Q 459 4000 909 4375 
Q 1359 4750 2203 4750 
Q 2588 4750 2994 4692 
Q 3400 4634 3834 4519 
z
" transform="scale(0.015625)"/>
      <path id="DejaVuSans-Bold-6f" d="M 2203 2784 
Q 1831 2784 1636 2517 
Q 1441 2250 1441 1747 
Q 1441 1244 1636 976 
Q 1831 709 2203 709 
Q 2569 709 2762 976 
Q 2956 1244 2956 1747 
Q 2956 2250 2762 2517 
Q 2569 2784 2203 2784 
z
M 2203 3584 
Q 3106 3584 3614 3096 
Q 4122 2609 4122 1747 
Q 4122 884 3614 396 
Q 3106 -91 2203 -91 
Q 1297 -91 786 396 
Q 275 884 275 1747 
Q 275 2609 786 3096 
Q 1297 3584 2203 3584 
z
" transform="scale(0.015625)"/>
      <path id="DejaVuSans-Bold-75" d="M 500 1363 
L 500 3500 
L 1625 3500 
L 1625 3150 
Q 1625 2866 1622 2436 
Q 1619 2006 1619 1863 
Q 1619 1441 1641 1255 
Q 1663 1069 1716 984 
Q 1784 875 1895 815 
Q 2006 756 2150 756 
Q 2500 756 2700 1025 
Q 2900 1294 2900 1772 
L 2900 3500 
L 4019 3500 
L 4019 0 
L 2900 0 
L 2900 506 
Q 2647 200 2364 54 
Q 2081 -91 1741 -91 
Q 1134 -91 817 281 
Q 500 653 500 1363 
z
" transform="scale(0.015625)"/>
      <path id="DejaVuSans-Bold-72" d="M 3138 2547 
Q 2991 2616 2845 2648 
Q 2700 2681 2553 2681 
Q 2122 2681 1889 2404 
Q 1656 2128 1656 1613 
L 1656 0 
L 538 0 
L 538 3500 
L 1656 3500 
L 1656 2925 
Q 1872 3269 2151 3426 
Q 2431 3584 2822 3584 
Q 2878 3584 2943 3579 
Q 3009 3575 3134 3559 
L 3138 2547 
z
" transform="scale(0.015625)"/>
      <path id="DejaVuSans-Bold-63" d="M 3366 3391 
L 3366 2478 
Q 3138 2634 2908 2709 
Q 2678 2784 2431 2784 
Q 1963 2784 1702 2511 
Q 1441 2238 1441 1747 
Q 1441 1256 1702 982 
Q 1963 709 2431 709 
Q 2694 709 2930 787 
Q 3166 866 3366 1019 
L 3366 103 
Q 3103 6 2833 -42 
Q 2563 -91 2291 -91 
Q 1344 -91 809 395 
Q 275 881 275 1747 
Q 275 2613 809 3098 
Q 1344 3584 2291 3584 
Q 2566 3584 2833 3536 
Q 3100 3488 3366 3391 
z
" transform="scale(0.015625)"/>
      <path id="DejaVuSans-Bold-65" d="M 4031 1759 
L 4031 1441 
L 1416 1441 
Q 1456 1047 1700 850 
Q 1944 653 2381 653 
Q 2734 653 3104 758 
Q 3475 863 3866 1075 
L 3866 213 
Q 3469 63 3072 -14 
Q 2675 -91 2278 -91 
Q 1328 -91 801 392 
Q 275 875 275 1747 
Q 275 2603 792 3093 
Q 1309 3584 2216 3584 
Q 3041 3584 3536 3087 
Q 4031 2591 4031 1759 
z
M 2881 2131 
Q 2881 2450 2695 2645 
Q 2509 2841 2209 2841 
Q 1884 2841 1681 2658 
Q 1478 2475 1428 2131 
L 2881 2131 
z
" transform="scale(0.015625)"/>
      <path id="DejaVuSans-Bold-20" transform="scale(0.015625)"/>
      <path id="DejaVuSans-Bold-76" d="M 97 3500 
L 1216 3500 
L 2088 1081 
L 2956 3500 
L 4078 3500 
L 2700 0 
L 1472 0 
L 97 3500 
z
" transform="scale(0.015625)"/>
      <path id="DejaVuSans-Bold-6c" d="M 538 4863 
L 1656 4863 
L 1656 0 
L 538 0 
L 538 4863 
z
" transform="scale(0.015625)"/>
      <path id="DejaVuSans-Bold-69" d="M 538 3500 
L 1656 3500 
L 1656 0 
L 538 0 
L 538 3500 
z
M 538 4863 
L 1656 4863 
L 1656 3950 
L 538 3950 
L 538 4863 
z
" transform="scale(0.015625)"/>
      <path id="DejaVuSans-Bold-74" d="M 1759 4494 
L 1759 3500 
L 2913 3500 
L 2913 2700 
L 1759 2700 
L 1759 1216 
Q 1759 972 1856 886 
Q 1953 800 2241 800 
L 2816 800 
L 2816 0 
L 1856 0 
Q 1194 0 917 276 
Q 641 553 641 1216 
L 641 2700 
L 84 2700 
L 84 3500 
L 641 3500 
L 641 4494 
L 1759 4494 
z
" transform="scale(0.015625)"/>
      <path id="DejaVuSans-Bold-79" d="M 78 3500 
L 1197 3500 
L 2138 1125 
L 2938 3500 
L 4056 3500 
L 2584 -331 
Q 2363 -916 2067 -1148 
Q 1772 -1381 1288 -1381 
L 641 -1381 
L 641 -647 
L 991 -647 
Q 1275 -647 1404 -556 
Q 1534 -466 1606 -231 
L 1638 -134 
L 78 3500 
z
" transform="scale(0.015625)"/>
      <path id="DejaVuSans-Bold-3d" d="M 678 3084 
L 4684 3084 
L 4684 2350 
L 678 2350 
L 678 3084 
z
M 678 1663 
L 4684 1663 
L 4684 922 
L 678 922 
L 678 1663 
z
" transform="scale(0.015625)"/>
      <path id="DejaVuSans-Bold-30" d="M 2944 2338 
Q 2944 3213 2780 3570 
Q 2616 3928 2228 3928 
Q 1841 3928 1675 3570 
Q 1509 3213 1509 2338 
Q 1509 1453 1675 1090 
Q 1841 728 2228 728 
Q 2613 728 2778 1090 
Q 2944 1453 2944 2338 
z
M 4147 2328 
Q 4147 1169 3647 539 
Q 3147 -91 2228 -91 
Q 1306 -91 806 539 
Q 306 1169 306 2328 
Q 306 3491 806 4120 
Q 1306 4750 2228 4750 
Q 3147 4750 3647 4120 
Q 4147 3491 4147 2328 
z
" transform="scale(0.015625)"/>
     </defs>
     <use xlink:href="#DejaVuSans-Bold-53"/>
     <use xlink:href="#DejaVuSans-Bold-6f" x="72.021484"/>
     <use xlink:href="#DejaVuSans-Bold-75" x="140.722656"/>
     <use xlink:href="#DejaVuSans-Bold-72" x="211.914062"/>
     <use xlink:href="#DejaVuSans-Bold-63" x="261.230469"/>
     <use xlink:href="#DejaVuSans-Bold-65" x="320.507812"/>
     <use xlink:href="#DejaVuSans-Bold-20" x="388.330078"/>
     <use xlink:href="#DejaVuSans-Bold-76" x="423.144531"/>
     <use xlink:href="#DejaVuSans-Bold-65" x="488.330078"/>
     <use xlink:href="#DejaVuSans-Bold-6c" x="556.152344"/>
     <use xlink:href="#DejaVuSans-Bold-6f" x="590.429688"/>
     <use xlink:href="#DejaVuSans-Bold-63" x="659.130859"/>
     <use xlink:href="#DejaVuSans-Bold-69" x="718.408203"/>
     <use xlink:href="#DejaVuSans-Bold-74" x="752.685547"/>
     <use xlink:href="#DejaVuSans-Bold-79" x="800.488281"/>
     <use xlink:href="#DejaVuSans-Bold-20" x="865.673828"/>
     <use xlink:href="#DejaVuSans-Bold-3d" x="900.488281"/>
     <use xlink:href="#DejaVuSans-Bold-20" x="984.277344"/>
     <use xlink:href="#DejaVuSans-Bold-30" x="1019.091797"/>
    </g>
   </g>
  </g>
 </g>
 <defs>
  <clipPath id="p1bc967dabe">
   <rect x="7.2" y="7.2" width="357.12" height="266.112"/>
  </clipPath>
 </defs>
</svg>
