<?xml version="1.0" encoding="utf-8" standalone="no"?>
<!DOCTYPE svg PUBLIC "-//W3C//DTD SVG 1.1//EN"
  "http://www.w3.org/Graphics/SVG/1.1/DTD/svg11.dtd">
<svg xmlns:xlink="http://www.w3.org/1999/xlink" width="389.432187pt" height="280.512pt" viewBox="0 0 389.432187 280.512" xmlns="http://www.w3.org/2000/svg" version="1.1">
 <metadata>
  <rdf:RDF xmlns:dc="http://purl.org/dc/elements/1.1/" xmlns:cc="http://creativecommons.org/ns#" xmlns:rdf="http://www.w3.org/1999/02/22-rdf-syntax-ns#">
   <cc:Work>
    <dc:type rdf:resource="http://purl.org/dc/dcmitype/StillImage"/>
    <dc:date>2024-02-27T23:53:31.510757</dc:date>
    <dc:format>image/svg+xml</dc:format>
    <dc:creator>
     <cc:Agent>
      <dc:title>Matplotlib v3.8.2, https://matplotlib.org/</dc:title>
     </cc:Agent>
    </dc:creator>
   </cc:Work>
  </rdf:RDF>
 </metadata>
 <defs>
  <style type="text/css">*{stroke-linejoin: round; stroke-linecap: butt}</style>
 </defs>
 <g id="figure_1">
  <g id="axes_1">
   <g id="patch_1">
    <path d="M 185.76 200.1312 
L 189.9936 212.832 
L 185.766048 212.832 
L 185.766048 249.12 
L 185.753952 249.12 
L 185.753952 212.832 
L 181.5264 212.832 
z
" clip-path="url(#p5e161511d5)" style="fill: #3079f7; stroke: #3079f7; stroke-width: 1.5; stroke-linejoin: miter"/>
   </g>
   <g id="patch_2">
    <path d="M 185.76 140.256 
L 185.76 140.256 
L 185.766048 140.256 
L 185.766048 249.12 
L 185.753952 249.12 
L 185.753952 140.256 
L 185.76 140.256 
z
" clip-path="url(#p5e161511d5)" style="fill: #3079f7; stroke: #3079f7; stroke-width: 1.5; stroke-linejoin: miter"/>
   </g>
   <g id="patch_3">
    <path d="M 186.608981 200.125181 
L 191.022242 212.764675 
L 186.795115 212.824618 
L 187.309649 249.10897 
L 187.297554 249.109142 
L 186.78302 212.82479 
L 182.555893 212.884733 
z
" clip-path="url(#p5e161511d5)" style="fill: #3079f7; stroke: #3079f7; stroke-width: 1.5; stroke-linejoin: miter"/>
   </g>
   <g id="patch_4">
    <path d="M 185.76 140.256 
L 185.76 140.256 
L 185.766047 140.255914 
L 187.309649 249.10897 
L 187.297554 249.109142 
L 185.753953 140.256086 
L 185.76 140.256 
z
" clip-path="url(#p5e161511d5)" style="fill: #3079f7; stroke: #3079f7; stroke-width: 1.5; stroke-linejoin: miter"/>
   </g>
   <g id="patch_5">
    <path d="M 187.461039 200.107032 
L 192.053757 212.68243 
L 187.827911 212.802534 
L 188.858844 249.075886 
L 188.846753 249.07623 
L 187.81582 212.802877 
L 183.589975 212.922981 
z
" clip-path="url(#p5e161511d5)" style="fill: #2e7bf7; stroke: #2e7bf7; stroke-width: 1.5; stroke-linejoin: miter"/>
   </g>
   <g id="patch_6">
    <path d="M 185.76 140.256 
L 185.76 140.256 
L 185.766046 140.255828 
L 188.858844 249.075886 
L 188.846753 249.07623 
L 185.753954 140.256172 
L 185.76 140.256 
z
" clip-path="url(#p5e161511d5)" style="fill: #2e7bf7; stroke: #2e7bf7; stroke-width: 1.5; stroke-linejoin: miter"/>
   </g>
   <g id="patch_7">
    <path d="M 188.319295 200.076478 
L 193.091907 212.58471 
L 188.868218 212.765412 
L 190.419306 249.020247 
L 190.407221 249.020764 
L 188.856133 212.765929 
L 184.632445 212.946631 
z
" clip-path="url(#p5e161511d5)" style="fill: #2e7bf7; stroke: #2e7bf7; stroke-width: 1.5; stroke-linejoin: miter"/>
   </g>
   <g id="patch_8">
    <path d="M 185.76 140.256 
L 185.76 140.256 
L 185.766042 140.255741 
L 190.419306 249.020247 
L 190.407221 249.020764 
L 185.753958 140.256259 
L 185.76 140.256 
z
" clip-path="url(#p5e161511d5)" style="fill: #2e7bf7; stroke: #2e7bf7; stroke-width: 1.5; stroke-linejoin: miter"/>
   </g>
   <g id="patch_9">
    <path d="M 189.186955 200.033049 
L 194.140545 212.470719 
L 189.919923 212.712683 
L 191.996865 248.941197 
L 191.984789 248.941889 
L 189.907847 212.713375 
L 185.687225 212.955339 
z
" clip-path="url(#p5e161511d5)" style="fill: #2e7bf7; stroke: #2e7bf7; stroke-width: 1.5; stroke-linejoin: miter"/>
   </g>
   <g id="patch_10">
    <path d="M 185.76 140.256 
L 185.76 140.256 
L 185.766038 140.255654 
L 191.996865 248.941197 
L 191.984789 248.941889 
L 185.753962 140.256346 
L 185.76 140.256 
z
" clip-path="url(#p5e161511d5)" style="fill: #2e7bf7; stroke: #2e7bf7; stroke-width: 1.5; stroke-linejoin: miter"/>
   </g>
   <g id="patch_11">
    <path d="M 190.067359 199.976066 
L 195.203672 212.339398 
L 190.987073 212.643523 
L 193.597593 248.837502 
L 193.585529 248.838373 
L 190.975008 212.644393 
L 186.75841 212.948519 
z
" clip-path="url(#p5e161511d5)" style="fill: #2e7bf7; stroke: #2e7bf7; stroke-width: 1.5; stroke-linejoin: miter"/>
   </g>
   <g id="patch_12">
    <path d="M 185.76 140.256 
L 185.76 140.256 
L 185.766032 140.255565 
L 193.597593 248.837502 
L 193.585529 248.838373 
L 185.753968 140.256435 
L 185.76 140.256 
z
" clip-path="url(#p5e161511d5)" style="fill: #2e7bf7; stroke: #2e7bf7; stroke-width: 1.5; stroke-linejoin: miter"/>
   </g>
   <g id="patch_13">
    <path d="M 190.964028 199.904618 
L 196.285492 212.189394 
L 192.073938 212.55683 
L 195.227894 248.707508 
L 195.215844 248.708559 
L 192.061888 212.557881 
L 187.850334 212.925317 
z
" clip-path="url(#p5e161511d5)" style="fill: #2e7bf7; stroke: #2e7bf7; stroke-width: 1.5; stroke-linejoin: miter"/>
   </g>
   <g id="patch_14">
    <path d="M 185.76 140.256 
L 185.76 140.256 
L 185.766025 140.255474 
L 195.227894 248.707508 
L 195.215844 248.708559 
L 185.753975 140.256526 
L 185.76 140.256 
z
" clip-path="url(#p5e161511d5)" style="fill: #2e7bf7; stroke: #2e7bf7; stroke-width: 1.5; stroke-linejoin: miter"/>
   </g>
   <g id="patch_15">
    <path d="M 191.880724 199.817534 
L 197.390481 212.01902 
L 193.185075 212.45118 
L 196.894605 248.54908 
L 196.882572 248.550316 
L 193.173043 212.452417 
L 188.967638 212.884577 
z
" clip-path="url(#p5e161511d5)" style="fill: #2e7bf7; stroke: #2e7bf7; stroke-width: 1.5; stroke-linejoin: miter"/>
   </g>
   <g id="patch_16">
    <path d="M 185.76 140.256 
L 185.76 140.256 
L 185.766016 140.255382 
L 196.894605 248.54908 
L 196.882572 248.550316 
L 185.753984 140.256618 
L 185.76 140.256 
z
" clip-path="url(#p5e161511d5)" style="fill: #2e7bf7; stroke: #2e7bf7; stroke-width: 1.5; stroke-linejoin: miter"/>
   </g>
   <g id="patch_17">
    <path d="M 192.821507 199.713335 
L 198.523456 211.826199 
L 194.325408 212.324784 
L 198.605109 248.359532 
L 198.593098 248.360959 
L 194.313397 212.32621 
L 190.115348 212.824796 
z
" clip-path="url(#p5e161511d5)" style="fill: #2e7bf7; stroke: #2e7bf7; stroke-width: 1.5; stroke-linejoin: miter"/>
   </g>
   <g id="patch_18">
    <path d="M 185.76 140.256 
L 185.76 140.256 
L 185.766006 140.255287 
L 198.605109 248.359532 
L 198.593098 248.360959 
L 185.753994 140.256713 
L 185.76 140.256 
z
" clip-path="url(#p5e161511d5)" style="fill: #2e7bf7; stroke: #2e7bf7; stroke-width: 1.5; stroke-linejoin: miter"/>
   </g>
   <g id="patch_19">
    <path d="M 193.790811 199.590186 
L 199.689662 211.608391 
L 195.500309 212.175415 
L 200.367467 248.135527 
L 200.35548 248.13715 
L 195.488322 212.177037 
L 191.298969 212.744061 
z
" clip-path="url(#p5e161511d5)" style="fill: #2e7bf7; stroke: #2e7bf7; stroke-width: 1.5; stroke-linejoin: miter"/>
   </g>
   <g id="patch_20">
    <path d="M 185.76 140.256 
L 185.76 140.256 
L 185.765993 140.255189 
L 200.367467 248.135527 
L 200.35548 248.13715 
L 185.754007 140.256811 
L 185.76 140.256 
z
" clip-path="url(#p5e161511d5)" style="fill: #2e7bf7; stroke: #2e7bf7; stroke-width: 1.5; stroke-linejoin: miter"/>
   </g>
   <g id="patch_21">
    <path d="M 194.793522 199.445822 
L 200.894863 211.362505 
L 196.715702 212.000327 
L 202.190564 247.872946 
L 202.178607 247.874771 
L 196.703745 212.002152 
L 192.524585 212.639973 
z
" clip-path="url(#p5e161511d5)" style="fill: #2e7bf7; stroke: #2e7bf7; stroke-width: 1.5; stroke-linejoin: miter"/>
   </g>
   <g id="patch_22">
    <path d="M 185.76 140.256 
L 185.76 140.256 
L 185.765979 140.255088 
L 202.190564 247.872946 
L 202.178607 247.874771 
L 185.754021 140.256912 
L 185.76 140.256 
z
" clip-path="url(#p5e161511d5)" style="fill: #2e7bf7; stroke: #2e7bf7; stroke-width: 1.5; stroke-linejoin: miter"/>
   </g>
   <g id="patch_23">
    <path d="M 195.835082 199.277456 
L 202.145454 211.08478 
L 197.978182 211.796141 
L 204.084292 247.566721 
L 204.072368 247.568756 
L 197.966258 211.798177 
L 193.798986 212.509539 
z
" clip-path="url(#p5e161511d5)" style="fill: #2e7bf7; stroke: #2e7bf7; stroke-width: 1.5; stroke-linejoin: miter"/>
   </g>
   <g id="patch_24">
    <path d="M 185.76 140.256 
L 185.76 140.256 
L 185.765962 140.254982 
L 204.084292 247.566721 
L 204.072368 247.568756 
L 185.754038 140.257018 
L 185.76 140.256 
z
" clip-path="url(#p5e161511d5)" style="fill: #2e7bf7; stroke: #2e7bf7; stroke-width: 1.5; stroke-linejoin: miter"/>
   </g>
   <g id="patch_25">
    <path d="M 196.921597 199.08166 
L 203.448599 210.770627 
L 199.295151 211.558703 
L 206.059755 247.210619 
L 206.047871 247.212874 
L 199.283267 211.560958 
L 195.129819 212.349035 
z
" clip-path="url(#p5e161511d5)" style="fill: #2e7bf7; stroke: #2e7bf7; stroke-width: 1.5; stroke-linejoin: miter"/>
   </g>
   <g id="patch_26">
    <path d="M 185.76 140.256 
L 185.76 140.256 
L 185.765942 140.254873 
L 206.059755 247.210619 
L 206.047871 247.212874 
L 185.754058 140.257127 
L 185.76 140.256 
z
" clip-path="url(#p5e161511d5)" style="fill: #2e7bf7; stroke: #2e7bf7; stroke-width: 1.5; stroke-linejoin: miter"/>
   </g>
   <g id="patch_27">
    <path d="M 198.059984 198.854208 
L 204.812379 210.414435 
L 200.67499 211.282888 
L 208.129526 246.796954 
L 208.117688 246.799439 
L 200.663152 211.285373 
L 196.525764 212.153827 
z
" clip-path="url(#p5e161511d5)" style="fill: #2e7bf7; stroke: #2e7bf7; stroke-width: 1.5; stroke-linejoin: miter"/>
   </g>
   <g id="patch_28">
    <path d="M 185.76 140.256 
L 185.76 140.256 
L 185.765919 140.254758 
L 208.129526 246.796954 
L 208.117688 246.799439 
L 185.754081 140.257242 
L 185.76 140.256 
z
" clip-path="url(#p5e161511d5)" style="fill: #2e7bf7; stroke: #2e7bf7; stroke-width: 1.5; stroke-linejoin: miter"/>
   </g>
   <g id="patch_29">
    <path d="M 199.258129 198.589867 
L 206.245985 210.009305 
L 202.127261 210.962355 
L 210.307945 246.316214 
L 210.296161 246.318941 
L 202.115476 210.965082 
L 197.996752 211.918131 
z
" clip-path="url(#p5e161511d5)" style="fill: #2e7bf7; stroke: #2e7bf7; stroke-width: 1.5; stroke-linejoin: miter"/>
   </g>
   <g id="patch_30">
    <path d="M 185.76 140.256 
L 185.76 140.256 
L 185.765892 140.254637 
L 210.307945 246.316214 
L 210.296161 246.318941 
L 185.754108 140.257363 
L 185.76 140.256 
z
" clip-path="url(#p5e161511d5)" style="fill: #2e7bf7; stroke: #2e7bf7; stroke-width: 1.5; stroke-linejoin: miter"/>
   </g>
   <g id="patch_31">
    <path d="M 200.525096 198.282128 
L 207.759944 209.546704 
L 203.662948 210.589209 
L 212.611491 245.756559 
L 212.599768 245.759542 
L 203.651225 210.592192 
L 199.554229 211.634697 
z
" clip-path="url(#p5e161511d5)" style="fill: #2e7bf7; stroke: #2e7bf7; stroke-width: 1.5; stroke-linejoin: miter"/>
   </g>
   <g id="patch_32">
    <path d="M 185.76 140.256 
L 185.76 140.256 
L 185.765861 140.254509 
L 212.611491 245.756559 
L 212.599768 245.759542 
L 185.754139 140.257491 
L 185.76 140.256 
z
" clip-path="url(#p5e161511d5)" style="fill: #2e7bf7; stroke: #2e7bf7; stroke-width: 1.5; stroke-linejoin: miter"/>
   </g>
   <g id="patch_33">
    <path d="M 201.871368 197.922831 
L 209.366384 209.016001 
L 205.294756 210.153562 
L 215.059222 245.103156 
L 215.047572 245.106411 
L 205.283106 210.156816 
L 201.211478 211.294377 
z
" clip-path="url(#p5e161511d5)" style="fill: #2e7bf7; stroke: #2e7bf7; stroke-width: 1.5; stroke-linejoin: miter"/>
   </g>
   <g id="patch_34">
    <path d="M 185.76 140.256 
L 185.76 140.256 
L 185.765825 140.254373 
L 215.059222 245.103156 
L 215.047572 245.106411 
L 185.754175 140.257627 
L 185.76 140.256 
z
" clip-path="url(#p5e161511d5)" style="fill: #2e7bf7; stroke: #2e7bf7; stroke-width: 1.5; stroke-linejoin: miter"/>
   </g>
   <g id="patch_35">
    <path d="M 203.309145 197.501673 
L 211.079365 208.403846 
L 207.037473 209.642922 
L 217.673318 244.337269 
L 217.661754 244.340815 
L 207.025908 209.646467 
L 202.984017 210.885543 
z
" clip-path="url(#p5e161511d5)" style="fill: #2e7bf7; stroke: #2e7bf7; stroke-width: 1.5; stroke-linejoin: miter"/>
   </g>
   <g id="patch_36">
    <path d="M 185.76 140.256 
L 185.76 140.256 
L 185.765782 140.254227 
L 217.673318 244.337269 
L 217.661754 244.340815 
L 185.754218 140.257773 
L 185.76 140.256 
z
" clip-path="url(#p5e161511d5)" style="fill: #2e7bf7; stroke: #2e7bf7; stroke-width: 1.5; stroke-linejoin: miter"/>
   </g>
   <g id="patch_37">
    <path d="M 204.852702 197.005523 
L 212.915261 207.693311 
L 208.908401 209.041372 
L 220.479735 243.435022 
L 220.468271 243.438879 
L 208.896937 209.045229 
L 204.890076 210.393289 
z
" clip-path="url(#p5e161511d5)" style="fill: #2c7ef7; stroke: #2c7ef7; stroke-width: 1.5; stroke-linejoin: miter"/>
   </g>
   <g id="patch_38">
    <path d="M 185.76 140.256 
L 185.76 140.256 
L 185.765732 140.254071 
L 220.479735 243.435022 
L 220.468271 243.438879 
L 185.754268 140.257929 
L 185.76 140.256 
z
" clip-path="url(#p5e161511d5)" style="fill: #2c7ef7; stroke: #2c7ef7; stroke-width: 1.5; stroke-linejoin: miter"/>
   </g>
   <g id="patch_39">
    <path d="M 206.51882 196.417472 
L 214.893219 206.862717 
L 210.927879 208.328415 
L 223.508982 242.365671 
L 223.497636 242.369865 
L 210.916533 208.332609 
L 206.951193 209.798307 
z
" clip-path="url(#p5e161511d5)" style="fill: #2c7ef7; stroke: #2c7ef7; stroke-width: 1.5; stroke-linejoin: miter"/>
   </g>
   <g id="patch_40">
    <path d="M 185.76 140.256 
L 185.76 140.256 
L 185.765673 140.253903 
L 223.508982 242.365671 
L 223.497636 242.369865 
L 185.754327 140.258097 
L 185.76 140.256 
z
" clip-path="url(#p5e161511d5)" style="fill: #2c7ef7; stroke: #2c7ef7; stroke-width: 1.5; stroke-linejoin: miter"/>
   </g>
   <g id="patch_41">
    <path d="M 208.32729 195.715508 
L 217.03567 205.883979 
L 213.119893 207.477366 
L 226.797038 241.089189 
L 226.785834 241.093748 
L 213.108689 207.481925 
L 209.192912 209.075313 
z
" clip-path="url(#p5e161511d5)" style="fill: #2c7ef7; stroke: #2c7ef7; stroke-width: 1.5; stroke-linejoin: miter"/>
   </g>
   <g id="patch_42">
    <path d="M 185.76 140.256 
L 185.76 140.256 
L 185.765602 140.25372 
L 226.797038 241.089189 
L 226.785834 241.093748 
L 185.754398 140.25828 
L 185.76 140.256 
z
" clip-path="url(#p5e161511d5)" style="fill: #2c7ef7; stroke: #2c7ef7; stroke-width: 1.5; stroke-linejoin: miter"/>
   </g>
   <g id="patch_43">
    <path d="M 210.301481 194.870607 
L 219.368888 204.720267 
L 215.512766 206.453045 
L 230.386391 239.552807 
L 230.375357 239.557764 
L 215.501733 206.458003 
L 211.64561 208.19078 
z
" clip-path="url(#p5e161511d5)" style="fill: #2c7ef7; stroke: #2c7ef7; stroke-width: 1.5; stroke-linejoin: miter"/>
   </g>
   <g id="patch_44">
    <path d="M 185.76 140.256 
L 185.76 140.256 
L 185.765517 140.253521 
L 230.386391 239.552807 
L 230.375357 239.557764 
L 185.754483 140.258479 
L 185.76 140.256 
z
" clip-path="url(#p5e161511d5)" style="fill: #2c7ef7; stroke: #2c7ef7; stroke-width: 1.5; stroke-linejoin: miter"/>
   </g>
   <g id="patch_45">
    <path d="M 212.468929 193.84399 
L 221.92351 203.322629 
L 218.139873 205.208442 
L 234.327102 237.686011 
L 234.316277 237.691407 
L 218.129047 205.213837 
L 214.34541 207.09965 
z
" clip-path="url(#p5e161511d5)" style="fill: #2981f6; stroke: #2981f6; stroke-width: 1.5; stroke-linejoin: miter"/>
   </g>
   <g id="patch_46">
    <path d="M 185.76 140.256 
L 185.76 140.256 
L 185.765413 140.253302 
L 234.327102 237.686011 
L 234.316277 237.691407 
L 185.754587 140.258698 
L 185.76 140.256 
z
" clip-path="url(#p5e161511d5)" style="fill: #2981f6; stroke: #2981f6; stroke-width: 1.5; stroke-linejoin: miter"/>
   </g>
   <g id="patch_47">
    <path d="M 214.861836 192.583074 
L 224.734847 201.625051 
L 221.040238 203.679817 
L 238.677714 235.393196 
L 238.667143 235.399075 
L 221.029667 203.685697 
L 217.335058 205.740463 
z
" clip-path="url(#p5e161511d5)" style="fill: #2981f6; stroke: #2981f6; stroke-width: 1.5; stroke-linejoin: miter"/>
   </g>
   <g id="patch_48">
    <path d="M 185.76 140.256 
L 185.76 140.256 
L 185.765286 140.25306 
L 238.677714 235.393196 
L 238.667143 235.399075 
L 185.754714 140.25894 
L 185.76 140.256 
z
" clip-path="url(#p5e161511d5)" style="fill: #2981f6; stroke: #2981f6; stroke-width: 1.5; stroke-linejoin: miter"/>
   </g>
   <g id="patch_49">
    <path d="M 217.517184 191.015441 
L 227.842608 199.537138 
L 224.258684 201.779387 
L 243.505462 232.542685 
L 243.495207 232.5491 
L 224.248429 201.785803 
L 220.664505 204.028052 
z
" clip-path="url(#p5e161511d5)" style="fill: #2884f6; stroke: #2884f6; stroke-width: 1.5; stroke-linejoin: miter"/>
   </g>
   <g id="patch_50">
    <path d="M 185.76 140.256 
L 185.76 140.256 
L 185.765127 140.252792 
L 243.505462 232.542685 
L 243.495207 232.5491 
L 185.754873 140.259208 
L 185.76 140.256 
z
" clip-path="url(#p5e161511d5)" style="fill: #2884f6; stroke: #2884f6; stroke-width: 1.5; stroke-linejoin: miter"/>
   </g>
   <g id="patch_51">
    <path d="M 220.47585 189.039699 
L 231.289171 196.9331 
L 227.844746 199.38425 
L 248.884656 228.950128 
L 248.8748 228.957141 
L 227.834891 199.391263 
L 224.390466 201.842413 
z
" clip-path="url(#p5e161511d5)" style="fill: #2686f5; stroke: #2686f5; stroke-width: 1.5; stroke-linejoin: miter"/>
   </g>
   <g id="patch_52">
    <path d="M 185.76 140.256 
L 185.76 140.256 
L 185.764928 140.252493 
L 248.884656 228.950128 
L 248.8748 228.957141 
L 185.755072 140.259507 
L 185.76 140.256 
z
" clip-path="url(#p5e161511d5)" style="fill: #2686f5; stroke: #2686f5; stroke-width: 1.5; stroke-linejoin: miter"/>
   </g>
   <g id="patch_53">
    <path d="M 223.779294 186.511517 
L 235.114585 193.635061 
L 231.848665 196.319453 
L 254.890661 224.3531 
L 254.881316 224.360781 
L 231.83932 196.327134 
L 228.5734 199.011527 
z
" clip-path="url(#p5e161511d5)" style="fill: #2489f5; stroke: #2489f5; stroke-width: 1.5; stroke-linejoin: miter"/>
   </g>
   <g id="patch_54">
    <path d="M 185.76 140.256 
L 185.76 140.256 
L 185.764672 140.25216 
L 254.890661 224.3531 
L 254.881316 224.360781 
L 185.755328 140.25984 
L 185.76 140.256 
z
" clip-path="url(#p5e161511d5)" style="fill: #2489f5; stroke: #2489f5; stroke-width: 1.5; stroke-linejoin: miter"/>
   </g>
   <g id="patch_55">
    <path d="M 227.460692 183.222171 
L 239.344306 189.387673 
L 236.310634 192.331995 
L 261.583781 218.372098 
L 261.575101 218.380523 
L 236.301954 192.340419 
L 233.268282 195.284741 
z
" clip-path="url(#p5e161511d5)" style="fill: #218cf4; stroke: #218cf4; stroke-width: 1.5; stroke-linejoin: miter"/>
   </g>
   <g id="patch_56">
    <path d="M 185.76 140.256 
L 185.76 140.256 
L 185.76434 140.251788 
L 261.583781 218.372098 
L 261.575101 218.380523 
L 185.75566 140.260212 
L 185.76 140.256 
z
" clip-path="url(#p5e161511d5)" style="fill: #218cf4; stroke: #218cf4; stroke-width: 1.5; stroke-linejoin: miter"/>
   </g>
   <g id="patch_57">
    <path d="M 231.523597 178.866009 
L 243.961027 183.820201 
L 241.234927 187.051388 
L 268.97044 210.451393 
L 268.96264 210.460638 
L 241.227127 187.060633 
L 238.501026 190.29182 
z
" clip-path="url(#p5e161511d5)" style="fill: #1e91f3; stroke: #1e91f3; stroke-width: 1.5; stroke-linejoin: miter"/>
   </g>
   <g id="patch_58">
    <path d="M 185.76 140.256 
L 185.76 140.256 
L 185.7639 140.251377 
L 268.97044 210.451393 
L 268.96264 210.460638 
L 185.7561 140.260623 
L 185.76 140.256 
z
" clip-path="url(#p5e161511d5)" style="fill: #1e91f3; stroke: #1e91f3; stroke-width: 1.5; stroke-linejoin: miter"/>
   </g>
   <g id="patch_59">
    <path d="M 235.89278 172.9935 
L 248.841779 176.393077 
L 246.530313 179.932755 
L 276.913816 199.773664 
L 276.907203 199.783792 
L 246.523699 179.942882 
L 244.212234 183.482561 
z
" clip-path="url(#p5e161511d5)" style="fill: #1898f2; stroke: #1898f2; stroke-width: 1.5; stroke-linejoin: miter"/>
   </g>
   <g id="patch_60">
    <path d="M 185.76 140.256 
L 185.76 140.256 
L 185.763307 140.250936 
L 276.913816 199.773664 
L 276.907203 199.783792 
L 185.756693 140.261064 
L 185.76 140.256 
z
" clip-path="url(#p5e161511d5)" style="fill: #1898f2; stroke: #1898f2; stroke-width: 1.5; stroke-linejoin: miter"/>
   </g>
   <g id="patch_61">
    <path d="M 240.304262 164.953431 
L 253.62054 166.335615 
L 251.876751 170.18677 
L 284.93388 185.15491 
L 284.92889 185.165929 
L 251.871762 170.197789 
L 250.127974 174.048945 
z
" clip-path="url(#p5e161511d5)" style="fill: #0ea5ef; stroke: #0ea5ef; stroke-width: 1.5; stroke-linejoin: miter"/>
   </g>
   <g id="patch_62">
    <path d="M 185.76 140.256 
L 185.76 140.256 
L 185.762495 140.25049 
L 284.93388 185.15491 
L 284.92889 185.165929 
L 185.757505 140.26151 
L 185.76 140.256 
z
" clip-path="url(#p5e161511d5)" style="fill: #0ea5ef; stroke: #0ea5ef; stroke-width: 1.5; stroke-linejoin: miter"/>
   </g>
   <g id="patch_63">
    <path d="M 244.069187 153.860349 
L 257.399726 152.623248 
L 256.439176 156.74023 
L 291.778077 164.98529 
L 291.775329 164.99707 
L 256.436428 156.75201 
L 255.475879 160.868992 
z
" clip-path="url(#p5e161511d5)" style="fill: #02b7eb; stroke: #02b7eb; stroke-width: 1.5; stroke-linejoin: miter"/>
   </g>
   <g id="patch_64">
    <path d="M 185.76 140.256 
L 185.76 140.256 
L 185.761374 140.25011 
L 291.778077 164.98529 
L 291.775329 164.99707 
L 185.758626 140.26189 
L 185.76 140.256 
z
" clip-path="url(#p5e161511d5)" style="fill: #02b7eb; stroke: #02b7eb; stroke-width: 1.5; stroke-linejoin: miter"/>
   </g>
   <g id="patch_65">
    <path d="M 245.615941 138.737499 
L 258.205288 134.183155 
L 258.312503 138.409347 
L 294.588831 137.489044 
L 294.589138 137.501136 
L 258.31281 138.421439 
L 258.420025 142.647631 
z
" clip-path="url(#p5e161511d5)" style="fill: #22d6e0; stroke: #22d6e0; stroke-width: 1.5; stroke-linejoin: miter"/>
   </g>
   <g id="patch_66">
    <path d="M 185.76 140.256 
L 185.76 140.256 
L 185.759847 140.249954 
L 294.588831 137.489044 
L 294.589138 137.501136 
L 185.760153 140.262046 
L 185.76 140.256 
z
" clip-path="url(#p5e161511d5)" style="fill: #22d6e0; stroke: #22d6e0; stroke-width: 1.5; stroke-linejoin: miter"/>
   </g>
   <g id="patch_67">
    <path d="M 241.841318 119.281603 
L 252.254317 110.867142 
L 253.735237 114.826823 
L 287.723914 102.115067 
L 287.728151 102.126397 
L 253.739474 114.838153 
L 255.220393 118.797834 
z
" clip-path="url(#p5e161511d5)" style="fill: #6efebe; stroke: #6efebe; stroke-width: 1.5; stroke-linejoin: miter"/>
   </g>
   <g id="patch_68">
    <path d="M 185.76 140.256 
L 185.76 140.256 
L 185.757881 140.250335 
L 287.723914 102.115067 
L 287.728151 102.126397 
L 185.762119 140.261665 
L 185.76 140.256 
z
" clip-path="url(#p5e161511d5)" style="fill: #6efebe; stroke: #6efebe; stroke-width: 1.5; stroke-linejoin: miter"/>
   </g>
   <g id="patch_69">
    <path d="M 228.162209 97.981987 
L 234.167546 86.016636 
L 237.152347 89.010489 
L 262.850656 63.389874 
L 262.859196 63.398441 
L 237.160888 89.019055 
L 240.145689 92.012908 
z
" clip-path="url(#p5e161511d5)" style="fill: #ff2914; stroke: #ff2914; stroke-width: 1.5; stroke-linejoin: miter"/>
   </g>
   <g id="patch_70">
    <path d="M 185.76 140.256 
L 185.76 140.256 
L 185.75573 140.251717 
L 262.850656 63.389874 
L 262.859196 63.398441 
L 185.76427 140.260283 
L 185.76 140.256 
z
" clip-path="url(#p5e161511d5)" style="fill: #ff2914; stroke: #ff2914; stroke-width: 1.5; stroke-linejoin: miter"/>
   </g>
   <g id="patch_71">
    <path d="M 201.997786 82.624638 
L 201.36722 69.251677 
L 205.436344 70.398164 
L 215.277426 35.470065 
L 215.289069 35.473346 
L 205.447986 70.401444 
L 209.51711 71.54793 
z
" clip-path="url(#p5e161511d5)" style="fill: #ff0000; stroke: #ff0000; stroke-width: 1.5; stroke-linejoin: miter"/>
   </g>
   <g id="patch_72">
    <path d="M 185.76 140.256 
L 185.76 140.256 
L 185.754179 140.25436 
L 215.277426 35.470065 
L 215.289069 35.473346 
L 185.765821 140.25764 
L 185.76 140.256 
z
" clip-path="url(#p5e161511d5)" style="fill: #ff0000; stroke: #ff0000; stroke-width: 1.5; stroke-linejoin: miter"/>
   </g>
   <g id="patch_73">
    <path d="M 169.522214 82.624638 
L 162.00289 71.54793 
L 166.072014 70.401444 
L 156.230931 35.473346 
L 156.242574 35.470065 
L 166.083656 70.398164 
L 170.15278 69.251677 
z
" clip-path="url(#p5e161511d5)" style="fill: #ff0000; stroke: #ff0000; stroke-width: 1.5; stroke-linejoin: miter"/>
   </g>
   <g id="patch_74">
    <path d="M 185.76 140.256 
L 185.76 140.256 
L 185.754179 140.25764 
L 156.230931 35.473346 
L 156.242574 35.470065 
L 185.765821 140.25436 
L 185.76 140.256 
z
" clip-path="url(#p5e161511d5)" style="fill: #ff0000; stroke: #ff0000; stroke-width: 1.5; stroke-linejoin: miter"/>
   </g>
   <g id="patch_75">
    <path d="M 143.357791 97.981987 
L 131.374311 92.012908 
L 134.359112 89.019055 
L 108.660804 63.398441 
L 108.669344 63.389874 
L 134.367653 89.010489 
L 137.352454 86.016636 
z
" clip-path="url(#p5e161511d5)" style="fill: #ff2914; stroke: #ff2914; stroke-width: 1.5; stroke-linejoin: miter"/>
   </g>
   <g id="patch_76">
    <path d="M 185.76 140.256 
L 185.76 140.256 
L 185.75573 140.260283 
L 108.660804 63.398441 
L 108.669344 63.389874 
L 185.76427 140.251717 
L 185.76 140.256 
z
" clip-path="url(#p5e161511d5)" style="fill: #ff2914; stroke: #ff2914; stroke-width: 1.5; stroke-linejoin: miter"/>
   </g>
   <g id="patch_77">
    <path d="M 129.678682 119.281603 
L 116.299607 118.797834 
L 117.780526 114.838153 
L 83.791849 102.126397 
L 83.796086 102.115067 
L 117.784763 114.826823 
L 119.265683 110.867142 
z
" clip-path="url(#p5e161511d5)" style="fill: #6efebe; stroke: #6efebe; stroke-width: 1.5; stroke-linejoin: miter"/>
   </g>
   <g id="patch_78">
    <path d="M 185.76 140.256 
L 185.76 140.256 
L 185.757881 140.261665 
L 83.791849 102.126397 
L 83.796086 102.115067 
L 185.762119 140.250335 
L 185.76 140.256 
z
" clip-path="url(#p5e161511d5)" style="fill: #6efebe; stroke: #6efebe; stroke-width: 1.5; stroke-linejoin: miter"/>
   </g>
   <g id="patch_79">
    <path d="M 125.904059 138.737499 
L 113.099975 142.647631 
L 113.20719 138.421439 
L 76.930862 137.501136 
L 76.931169 137.489044 
L 113.207497 138.409347 
L 113.314712 134.183155 
z
" clip-path="url(#p5e161511d5)" style="fill: #22d6e0; stroke: #22d6e0; stroke-width: 1.5; stroke-linejoin: miter"/>
   </g>
   <g id="patch_80">
    <path d="M 185.76 140.256 
L 185.76 140.256 
L 185.759847 140.262046 
L 76.930862 137.501136 
L 76.931169 137.489044 
L 185.760153 140.249954 
L 185.76 140.256 
z
" clip-path="url(#p5e161511d5)" style="fill: #22d6e0; stroke: #22d6e0; stroke-width: 1.5; stroke-linejoin: miter"/>
   </g>
   <g id="patch_81">
    <path d="M 127.450813 153.860349 
L 116.044121 160.868992 
L 115.083572 156.75201 
L 79.744671 164.99707 
L 79.741923 164.98529 
L 115.080824 156.74023 
L 114.120274 152.623248 
z
" clip-path="url(#p5e161511d5)" style="fill: #02b7eb; stroke: #02b7eb; stroke-width: 1.5; stroke-linejoin: miter"/>
   </g>
   <g id="patch_82">
    <path d="M 185.76 140.256 
L 185.76 140.256 
L 185.761374 140.26189 
L 79.744671 164.99707 
L 79.741923 164.98529 
L 185.758626 140.25011 
L 185.76 140.256 
z
" clip-path="url(#p5e161511d5)" style="fill: #02b7eb; stroke: #02b7eb; stroke-width: 1.5; stroke-linejoin: miter"/>
   </g>
   <g id="patch_83">
    <path d="M 131.215738 164.953431 
L 121.392026 174.048945 
L 119.648238 170.197789 
L 86.59111 185.165929 
L 86.58612 185.15491 
L 119.643249 170.18677 
L 117.89946 166.335615 
z
" clip-path="url(#p5e161511d5)" style="fill: #0ea5ef; stroke: #0ea5ef; stroke-width: 1.5; stroke-linejoin: miter"/>
   </g>
   <g id="patch_84">
    <path d="M 185.76 140.256 
L 185.76 140.256 
L 185.762495 140.26151 
L 86.59111 185.165929 
L 86.58612 185.15491 
L 185.757505 140.25049 
L 185.76 140.256 
z
" clip-path="url(#p5e161511d5)" style="fill: #0ea5ef; stroke: #0ea5ef; stroke-width: 1.5; stroke-linejoin: miter"/>
   </g>
   <g id="patch_85">
    <path d="M 135.62722 172.9935 
L 127.307766 183.482561 
L 124.996301 179.942882 
L 94.612797 199.783792 
L 94.606184 199.773664 
L 124.989687 179.932755 
L 122.678221 176.393077 
z
" clip-path="url(#p5e161511d5)" style="fill: #1898f2; stroke: #1898f2; stroke-width: 1.5; stroke-linejoin: miter"/>
   </g>
   <g id="patch_86">
    <path d="M 185.76 140.256 
L 185.76 140.256 
L 185.763307 140.261064 
L 94.612797 199.783792 
L 94.606184 199.773664 
L 185.756693 140.250936 
L 185.76 140.256 
z
" clip-path="url(#p5e161511d5)" style="fill: #1898f2; stroke: #1898f2; stroke-width: 1.5; stroke-linejoin: miter"/>
   </g>
   <g id="patch_87">
    <path d="M 139.996403 178.866009 
L 133.018974 190.29182 
L 130.292873 187.060633 
L 102.55736 210.460638 
L 102.54956 210.451393 
L 130.285073 187.051388 
L 127.558973 183.820201 
z
" clip-path="url(#p5e161511d5)" style="fill: #1e91f3; stroke: #1e91f3; stroke-width: 1.5; stroke-linejoin: miter"/>
   </g>
   <g id="patch_88">
    <path d="M 185.76 140.256 
L 185.76 140.256 
L 185.7639 140.260623 
L 102.55736 210.460638 
L 102.54956 210.451393 
L 185.7561 140.251377 
L 185.76 140.256 
z
" clip-path="url(#p5e161511d5)" style="fill: #1e91f3; stroke: #1e91f3; stroke-width: 1.5; stroke-linejoin: miter"/>
   </g>
   <g id="patch_89">
    <path d="M 144.059308 183.222171 
L 138.251718 195.284741 
L 135.218046 192.340419 
L 109.944899 218.380523 
L 109.936219 218.372098 
L 135.209366 192.331995 
L 132.175694 189.387673 
z
" clip-path="url(#p5e161511d5)" style="fill: #218cf4; stroke: #218cf4; stroke-width: 1.5; stroke-linejoin: miter"/>
   </g>
   <g id="patch_90">
    <path d="M 185.76 140.256 
L 185.76 140.256 
L 185.76434 140.260212 
L 109.944899 218.380523 
L 109.936219 218.372098 
L 185.75566 140.251788 
L 185.76 140.256 
z
" clip-path="url(#p5e161511d5)" style="fill: #218cf4; stroke: #218cf4; stroke-width: 1.5; stroke-linejoin: miter"/>
   </g>
   <g id="patch_91">
    <path d="M 147.740706 186.511517 
L 142.9466 199.011527 
L 139.68068 196.327134 
L 116.638684 224.360781 
L 116.629339 224.3531 
L 139.671335 196.319453 
L 136.405415 193.635061 
z
" clip-path="url(#p5e161511d5)" style="fill: #2489f5; stroke: #2489f5; stroke-width: 1.5; stroke-linejoin: miter"/>
   </g>
   <g id="patch_92">
    <path d="M 185.76 140.256 
L 185.76 140.256 
L 185.764672 140.25984 
L 116.638684 224.360781 
L 116.629339 224.3531 
L 185.755328 140.25216 
L 185.76 140.256 
z
" clip-path="url(#p5e161511d5)" style="fill: #2489f5; stroke: #2489f5; stroke-width: 1.5; stroke-linejoin: miter"/>
   </g>
   <g id="patch_93">
    <path d="M 151.04415 189.039699 
L 147.129534 201.842413 
L 143.685109 199.391263 
L 122.6452 228.957141 
L 122.635344 228.950128 
L 143.675254 199.38425 
L 140.230829 196.9331 
z
" clip-path="url(#p5e161511d5)" style="fill: #2686f5; stroke: #2686f5; stroke-width: 1.5; stroke-linejoin: miter"/>
   </g>
   <g id="patch_94">
    <path d="M 185.76 140.256 
L 185.76 140.256 
L 185.764928 140.259507 
L 122.6452 228.957141 
L 122.635344 228.950128 
L 185.755072 140.252493 
L 185.76 140.256 
z
" clip-path="url(#p5e161511d5)" style="fill: #2686f5; stroke: #2686f5; stroke-width: 1.5; stroke-linejoin: miter"/>
   </g>
   <g id="patch_95">
    <path d="M 154.002816 191.015441 
L 150.855495 204.028052 
L 147.271571 201.785803 
L 128.024793 232.5491 
L 128.014538 232.542685 
L 147.261316 201.779387 
L 143.677392 199.537138 
z
" clip-path="url(#p5e161511d5)" style="fill: #2884f6; stroke: #2884f6; stroke-width: 1.5; stroke-linejoin: miter"/>
   </g>
   <g id="patch_96">
    <path d="M 185.76 140.256 
L 185.76 140.256 
L 185.765127 140.259208 
L 128.024793 232.5491 
L 128.014538 232.542685 
L 185.754873 140.252792 
L 185.76 140.256 
z
" clip-path="url(#p5e161511d5)" style="fill: #2884f6; stroke: #2884f6; stroke-width: 1.5; stroke-linejoin: miter"/>
   </g>
   <g id="patch_97">
    <path d="M 156.658164 192.583074 
L 154.184942 205.740463 
L 150.490333 203.685697 
L 132.852857 235.399075 
L 132.842286 235.393196 
L 150.479762 203.679817 
L 146.785153 201.625051 
z
" clip-path="url(#p5e161511d5)" style="fill: #2981f6; stroke: #2981f6; stroke-width: 1.5; stroke-linejoin: miter"/>
   </g>
   <g id="patch_98">
    <path d="M 185.76 140.256 
L 185.76 140.256 
L 185.765286 140.25894 
L 132.852857 235.399075 
L 132.842286 235.393196 
L 185.754714 140.25306 
L 185.76 140.256 
z
" clip-path="url(#p5e161511d5)" style="fill: #2981f6; stroke: #2981f6; stroke-width: 1.5; stroke-linejoin: miter"/>
   </g>
   <g id="patch_99">
    <path d="M 159.051071 193.84399 
L 157.17459 207.09965 
L 153.390953 205.213837 
L 137.203723 237.691407 
L 137.192898 237.686011 
L 153.380127 205.208442 
L 149.59649 203.322629 
z
" clip-path="url(#p5e161511d5)" style="fill: #2981f6; stroke: #2981f6; stroke-width: 1.5; stroke-linejoin: miter"/>
   </g>
   <g id="patch_100">
    <path d="M 185.76 140.256 
L 185.76 140.256 
L 185.765413 140.258698 
L 137.203723 237.691407 
L 137.192898 237.686011 
L 185.754587 140.253302 
L 185.76 140.256 
z
" clip-path="url(#p5e161511d5)" style="fill: #2981f6; stroke: #2981f6; stroke-width: 1.5; stroke-linejoin: miter"/>
   </g>
   <g id="patch_101">
    <path d="M 161.218519 194.870607 
L 159.87439 208.19078 
L 156.018267 206.458003 
L 141.144643 239.557764 
L 141.133609 239.552807 
L 156.007234 206.453045 
L 152.151112 204.720267 
z
" clip-path="url(#p5e161511d5)" style="fill: #2c7ef7; stroke: #2c7ef7; stroke-width: 1.5; stroke-linejoin: miter"/>
   </g>
   <g id="patch_102">
    <path d="M 185.76 140.256 
L 185.76 140.256 
L 185.765517 140.258479 
L 141.144643 239.557764 
L 141.133609 239.552807 
L 185.754483 140.253521 
L 185.76 140.256 
z
" clip-path="url(#p5e161511d5)" style="fill: #2c7ef7; stroke: #2c7ef7; stroke-width: 1.5; stroke-linejoin: miter"/>
   </g>
   <g id="patch_103">
    <path d="M 163.19271 195.715508 
L 162.327088 209.075313 
L 158.411311 207.481925 
L 144.734166 241.093748 
L 144.722962 241.089189 
L 158.400107 207.477366 
L 154.48433 205.883979 
z
" clip-path="url(#p5e161511d5)" style="fill: #2c7ef7; stroke: #2c7ef7; stroke-width: 1.5; stroke-linejoin: miter"/>
   </g>
   <g id="patch_104">
    <path d="M 185.76 140.256 
L 185.76 140.256 
L 185.765602 140.25828 
L 144.734166 241.093748 
L 144.722962 241.089189 
L 185.754398 140.25372 
L 185.76 140.256 
z
" clip-path="url(#p5e161511d5)" style="fill: #2c7ef7; stroke: #2c7ef7; stroke-width: 1.5; stroke-linejoin: miter"/>
   </g>
   <g id="patch_105">
    <path d="M 165.00118 196.417472 
L 164.568807 209.798307 
L 160.603467 208.332609 
L 148.022364 242.369865 
L 148.011018 242.365671 
L 160.592121 208.328415 
L 156.626781 206.862717 
z
" clip-path="url(#p5e161511d5)" style="fill: #2c7ef7; stroke: #2c7ef7; stroke-width: 1.5; stroke-linejoin: miter"/>
   </g>
   <g id="patch_106">
    <path d="M 185.76 140.256 
L 185.76 140.256 
L 185.765673 140.258097 
L 148.022364 242.369865 
L 148.011018 242.365671 
L 185.754327 140.253903 
L 185.76 140.256 
z
" clip-path="url(#p5e161511d5)" style="fill: #2c7ef7; stroke: #2c7ef7; stroke-width: 1.5; stroke-linejoin: miter"/>
   </g>
   <g id="patch_107">
    <path d="M 166.667298 197.005523 
L 166.629924 210.393289 
L 162.623063 209.045229 
L 151.051729 243.438879 
L 151.040265 243.435022 
L 162.611599 209.041372 
L 158.604739 207.693311 
z
" clip-path="url(#p5e161511d5)" style="fill: #2c7ef7; stroke: #2c7ef7; stroke-width: 1.5; stroke-linejoin: miter"/>
   </g>
   <g id="patch_108">
    <path d="M 185.76 140.256 
L 185.76 140.256 
L 185.765732 140.257929 
L 151.051729 243.438879 
L 151.040265 243.435022 
L 185.754268 140.254071 
L 185.76 140.256 
z
" clip-path="url(#p5e161511d5)" style="fill: #2c7ef7; stroke: #2c7ef7; stroke-width: 1.5; stroke-linejoin: miter"/>
   </g>
   <g id="patch_109">
    <path d="M 168.210855 197.501673 
L 168.535983 210.885543 
L 164.494092 209.646467 
L 153.858246 244.340815 
L 153.846682 244.337269 
L 164.482527 209.642922 
L 160.440635 208.403846 
z
" clip-path="url(#p5e161511d5)" style="fill: #2e7bf7; stroke: #2e7bf7; stroke-width: 1.5; stroke-linejoin: miter"/>
   </g>
   <g id="patch_110">
    <path d="M 185.76 140.256 
L 185.76 140.256 
L 185.765782 140.257773 
L 153.858246 244.340815 
L 153.846682 244.337269 
L 185.754218 140.254227 
L 185.76 140.256 
z
" clip-path="url(#p5e161511d5)" style="fill: #2e7bf7; stroke: #2e7bf7; stroke-width: 1.5; stroke-linejoin: miter"/>
   </g>
   <g id="patch_111">
    <path d="M 169.648632 197.922831 
L 170.308522 211.294377 
L 166.236894 210.156816 
L 156.472428 245.106411 
L 156.460778 245.103156 
L 166.225244 210.153562 
L 162.153616 209.016001 
z
" clip-path="url(#p5e161511d5)" style="fill: #2e7bf7; stroke: #2e7bf7; stroke-width: 1.5; stroke-linejoin: miter"/>
   </g>
   <g id="patch_112">
    <path d="M 185.76 140.256 
L 185.76 140.256 
L 185.765825 140.257627 
L 156.472428 245.106411 
L 156.460778 245.103156 
L 185.754175 140.254373 
L 185.76 140.256 
z
" clip-path="url(#p5e161511d5)" style="fill: #2e7bf7; stroke: #2e7bf7; stroke-width: 1.5; stroke-linejoin: miter"/>
   </g>
   <g id="patch_113">
    <path d="M 170.994904 198.282128 
L 171.965771 211.634697 
L 167.868775 210.592192 
L 158.920232 245.759542 
L 158.908509 245.756559 
L 167.857052 210.589209 
L 163.760056 209.546704 
z
" clip-path="url(#p5e161511d5)" style="fill: #2e7bf7; stroke: #2e7bf7; stroke-width: 1.5; stroke-linejoin: miter"/>
   </g>
   <g id="patch_114">
    <path d="M 185.76 140.256 
L 185.76 140.256 
L 185.765861 140.257491 
L 158.920232 245.759542 
L 158.908509 245.756559 
L 185.754139 140.254509 
L 185.76 140.256 
z
" clip-path="url(#p5e161511d5)" style="fill: #2e7bf7; stroke: #2e7bf7; stroke-width: 1.5; stroke-linejoin: miter"/>
   </g>
   <g id="patch_115">
    <path d="M 172.261871 198.589867 
L 173.523248 211.918131 
L 169.404524 210.965082 
L 161.223839 246.318941 
L 161.212055 246.316214 
L 169.392739 210.962355 
L 165.274015 210.009305 
z
" clip-path="url(#p5e161511d5)" style="fill: #2e7bf7; stroke: #2e7bf7; stroke-width: 1.5; stroke-linejoin: miter"/>
   </g>
   <g id="patch_116">
    <path d="M 185.76 140.256 
L 185.76 140.256 
L 185.765892 140.257363 
L 161.223839 246.318941 
L 161.212055 246.316214 
L 185.754108 140.254637 
L 185.76 140.256 
z
" clip-path="url(#p5e161511d5)" style="fill: #2e7bf7; stroke: #2e7bf7; stroke-width: 1.5; stroke-linejoin: miter"/>
   </g>
   <g id="patch_117">
    <path d="M 173.460016 198.854208 
L 174.994236 212.153827 
L 170.856848 211.285373 
L 163.402312 246.799439 
L 163.390474 246.796954 
L 170.84501 211.282888 
L 166.707621 210.414435 
z
" clip-path="url(#p5e161511d5)" style="fill: #2e7bf7; stroke: #2e7bf7; stroke-width: 1.5; stroke-linejoin: miter"/>
   </g>
   <g id="patch_118">
    <path d="M 185.76 140.256 
L 185.76 140.256 
L 185.765919 140.257242 
L 163.402312 246.799439 
L 163.390474 246.796954 
L 185.754081 140.254758 
L 185.76 140.256 
z
" clip-path="url(#p5e161511d5)" style="fill: #2e7bf7; stroke: #2e7bf7; stroke-width: 1.5; stroke-linejoin: miter"/>
   </g>
   <g id="patch_119">
    <path d="M 174.598403 199.08166 
L 176.390181 212.349035 
L 172.236733 211.560958 
L 165.472129 247.212874 
L 165.460245 247.210619 
L 172.224849 211.558703 
L 168.071401 210.770627 
z
" clip-path="url(#p5e161511d5)" style="fill: #2e7bf7; stroke: #2e7bf7; stroke-width: 1.5; stroke-linejoin: miter"/>
   </g>
   <g id="patch_120">
    <path d="M 185.76 140.256 
L 185.76 140.256 
L 185.765942 140.257127 
L 165.472129 247.212874 
L 165.460245 247.210619 
L 185.754058 140.254873 
L 185.76 140.256 
z
" clip-path="url(#p5e161511d5)" style="fill: #2e7bf7; stroke: #2e7bf7; stroke-width: 1.5; stroke-linejoin: miter"/>
   </g>
   <g id="patch_121">
    <path d="M 175.684918 199.277456 
L 177.721014 212.509539 
L 173.553742 211.798177 
L 167.447632 247.568756 
L 167.435708 247.566721 
L 173.541818 211.796141 
L 169.374546 211.08478 
z
" clip-path="url(#p5e161511d5)" style="fill: #2e7bf7; stroke: #2e7bf7; stroke-width: 1.5; stroke-linejoin: miter"/>
   </g>
   <g id="patch_122">
    <path d="M 185.76 140.256 
L 185.76 140.256 
L 185.765962 140.257018 
L 167.447632 247.568756 
L 167.435708 247.566721 
L 185.754038 140.254982 
L 185.76 140.256 
z
" clip-path="url(#p5e161511d5)" style="fill: #2e7bf7; stroke: #2e7bf7; stroke-width: 1.5; stroke-linejoin: miter"/>
   </g>
   <g id="patch_123">
    <path d="M 176.726478 199.445822 
L 178.995415 212.639973 
L 174.816255 212.002152 
L 169.341393 247.874771 
L 169.329436 247.872946 
L 174.804298 212.000327 
L 170.625137 211.362505 
z
" clip-path="url(#p5e161511d5)" style="fill: #2e7bf7; stroke: #2e7bf7; stroke-width: 1.5; stroke-linejoin: miter"/>
   </g>
   <g id="patch_124">
    <path d="M 185.76 140.256 
L 185.76 140.256 
L 185.765979 140.256912 
L 169.341393 247.874771 
L 169.329436 247.872946 
L 185.754021 140.255088 
L 185.76 140.256 
z
" clip-path="url(#p5e161511d5)" style="fill: #2e7bf7; stroke: #2e7bf7; stroke-width: 1.5; stroke-linejoin: miter"/>
   </g>
   <g id="patch_125">
    <path d="M 177.729189 199.590186 
L 180.221031 212.744061 
L 176.031678 212.177037 
L 171.16452 248.13715 
L 171.152533 248.135527 
L 176.019691 212.175415 
L 171.830338 211.608391 
z
" clip-path="url(#p5e161511d5)" style="fill: #2e7bf7; stroke: #2e7bf7; stroke-width: 1.5; stroke-linejoin: miter"/>
   </g>
   <g id="patch_126">
    <path d="M 185.76 140.256 
L 185.76 140.256 
L 185.765993 140.256811 
L 171.16452 248.13715 
L 171.152533 248.135527 
L 185.754007 140.255189 
L 185.76 140.256 
z
" clip-path="url(#p5e161511d5)" style="fill: #2e7bf7; stroke: #2e7bf7; stroke-width: 1.5; stroke-linejoin: miter"/>
   </g>
   <g id="patch_127">
    <path d="M 178.698493 199.713335 
L 181.404652 212.824796 
L 177.206603 212.32621 
L 172.926902 248.360959 
L 172.914891 248.359532 
L 177.194592 212.324784 
L 172.996544 211.826199 
z
" clip-path="url(#p5e161511d5)" style="fill: #2e7bf7; stroke: #2e7bf7; stroke-width: 1.5; stroke-linejoin: miter"/>
   </g>
   <g id="patch_128">
    <path d="M 185.76 140.256 
L 185.76 140.256 
L 185.766006 140.256713 
L 172.926902 248.360959 
L 172.914891 248.359532 
L 185.753994 140.255287 
L 185.76 140.256 
z
" clip-path="url(#p5e161511d5)" style="fill: #2e7bf7; stroke: #2e7bf7; stroke-width: 1.5; stroke-linejoin: miter"/>
   </g>
   <g id="patch_129">
    <path d="M 179.639276 199.817534 
L 182.552362 212.884577 
L 178.346957 212.452417 
L 174.637428 248.550316 
L 174.625395 248.54908 
L 178.334925 212.45118 
L 174.129519 212.01902 
z
" clip-path="url(#p5e161511d5)" style="fill: #2e7bf7; stroke: #2e7bf7; stroke-width: 1.5; stroke-linejoin: miter"/>
   </g>
   <g id="patch_130">
    <path d="M 185.76 140.256 
L 185.76 140.256 
L 185.766016 140.256618 
L 174.637428 248.550316 
L 174.625395 248.54908 
L 185.753984 140.255382 
L 185.76 140.256 
z
" clip-path="url(#p5e161511d5)" style="fill: #2e7bf7; stroke: #2e7bf7; stroke-width: 1.5; stroke-linejoin: miter"/>
   </g>
   <g id="patch_131">
    <path d="M 180.555972 199.904618 
L 183.669666 212.925317 
L 179.458112 212.557881 
L 176.304156 248.708559 
L 176.292106 248.707508 
L 179.446062 212.55683 
L 175.234508 212.189394 
z
" clip-path="url(#p5e161511d5)" style="fill: #2e7bf7; stroke: #2e7bf7; stroke-width: 1.5; stroke-linejoin: miter"/>
   </g>
   <g id="patch_132">
    <path d="M 185.76 140.256 
L 185.76 140.256 
L 185.766025 140.256526 
L 176.304156 248.708559 
L 176.292106 248.707508 
L 185.753975 140.255474 
L 185.76 140.256 
z
" clip-path="url(#p5e161511d5)" style="fill: #2e7bf7; stroke: #2e7bf7; stroke-width: 1.5; stroke-linejoin: miter"/>
   </g>
   <g id="patch_133">
    <path d="M 181.452641 199.976066 
L 184.76159 212.948519 
L 180.544992 212.644393 
L 177.934471 248.838373 
L 177.922407 248.837502 
L 180.532927 212.643523 
L 176.316328 212.339398 
z
" clip-path="url(#p5e161511d5)" style="fill: #2e7bf7; stroke: #2e7bf7; stroke-width: 1.5; stroke-linejoin: miter"/>
   </g>
   <g id="patch_134">
    <path d="M 185.76 140.256 
L 185.76 140.256 
L 185.766032 140.256435 
L 177.934471 248.838373 
L 177.922407 248.837502 
L 185.753968 140.255565 
L 185.76 140.256 
z
" clip-path="url(#p5e161511d5)" style="fill: #2e7bf7; stroke: #2e7bf7; stroke-width: 1.5; stroke-linejoin: miter"/>
   </g>
   <g id="patch_135">
    <path d="M 182.333045 200.033049 
L 185.832775 212.955339 
L 181.612153 212.713375 
L 179.535211 248.941889 
L 179.523135 248.941197 
L 181.600077 212.712683 
L 177.379455 212.470719 
z
" clip-path="url(#p5e161511d5)" style="fill: #2e7bf7; stroke: #2e7bf7; stroke-width: 1.5; stroke-linejoin: miter"/>
   </g>
   <g id="patch_136">
    <path d="M 185.76 140.256 
L 185.76 140.256 
L 185.766038 140.256346 
L 179.535211 248.941889 
L 179.523135 248.941197 
L 185.753962 140.255654 
L 185.76 140.256 
z
" clip-path="url(#p5e161511d5)" style="fill: #2e7bf7; stroke: #2e7bf7; stroke-width: 1.5; stroke-linejoin: miter"/>
   </g>
   <g id="patch_137">
    <path d="M 183.200705 200.076478 
L 186.887555 212.946631 
L 182.663867 212.765929 
L 181.112779 249.020764 
L 181.100694 249.020247 
L 182.651782 212.765412 
L 178.428093 212.58471 
z
" clip-path="url(#p5e161511d5)" style="fill: #2e7bf7; stroke: #2e7bf7; stroke-width: 1.5; stroke-linejoin: miter"/>
   </g>
   <g id="patch_138">
    <path d="M 185.76 140.256 
L 185.76 140.256 
L 185.766042 140.256259 
L 181.112779 249.020764 
L 181.100694 249.020247 
L 185.753958 140.255741 
L 185.76 140.256 
z
" clip-path="url(#p5e161511d5)" style="fill: #2e7bf7; stroke: #2e7bf7; stroke-width: 1.5; stroke-linejoin: miter"/>
   </g>
   <g id="patch_139">
    <path d="M 184.058961 200.107032 
L 187.930025 212.922981 
L 183.70418 212.802877 
L 182.673247 249.07623 
L 182.661156 249.075886 
L 183.692089 212.802534 
L 179.466243 212.68243 
z
" clip-path="url(#p5e161511d5)" style="fill: #2e7bf7; stroke: #2e7bf7; stroke-width: 1.5; stroke-linejoin: miter"/>
   </g>
   <g id="patch_140">
    <path d="M 185.76 140.256 
L 185.76 140.256 
L 185.766046 140.256172 
L 182.673247 249.07623 
L 182.661156 249.075886 
L 185.753954 140.255828 
L 185.76 140.256 
z
" clip-path="url(#p5e161511d5)" style="fill: #2e7bf7; stroke: #2e7bf7; stroke-width: 1.5; stroke-linejoin: miter"/>
   </g>
   <g id="patch_141">
    <path d="M 184.911019 200.125181 
L 188.964107 212.884733 
L 184.73698 212.82479 
L 184.222446 249.109142 
L 184.210351 249.10897 
L 184.724885 212.824618 
L 180.497758 212.764675 
z
" clip-path="url(#p5e161511d5)" style="fill: #3079f7; stroke: #3079f7; stroke-width: 1.5; stroke-linejoin: miter"/>
   </g>
   <g id="patch_142">
    <path d="M 185.76 140.256 
L 185.76 140.256 
L 185.766047 140.256086 
L 184.222446 249.109142 
L 184.210351 249.10897 
L 185.753953 140.255914 
L 185.76 140.256 
z
" clip-path="url(#p5e161511d5)" style="fill: #3079f7; stroke: #3079f7; stroke-width: 1.5; stroke-linejoin: miter"/>
   </g>
   <g id="PathCollection_1">
    <defs>
     <path id="m4af8d7fa33" d="M 0 5 
C 1.326016 5 2.597899 4.473168 3.535534 3.535534 
C 4.473168 2.597899 5 1.326016 5 0 
C 5 -1.326016 4.473168 -2.597899 3.535534 -3.535534 
C 2.597899 -4.473168 1.326016 -5 0 -5 
C -1.326016 -5 -2.597899 -4.473168 -3.535534 -3.535534 
C -4.473168 -2.597899 -5 -1.326016 -5 0 
C -5 1.326016 -4.473168 2.597899 -3.535534 3.535534 
C -2.597899 4.473168 -1.326016 5 0 5 
z
" style="stroke: #000000"/>
    </defs>
    <g clip-path="url(#p5e161511d5)">
     <use xlink:href="#m4af8d7fa33" x="185.76" y="140.256" style="stroke: #000000"/>
    </g>
   </g>
   <g id="Quiver_1">
    <path d="M 183.61728 140.256 
L 183.61728 56.11968 
L 177.18912 56.11968 
L 185.76 36.8352 
L 194.33088 56.11968 
L 187.90272 56.11968 
L 187.90272 140.256 
L 183.61728 140.256 
" clip-path="url(#p5e161511d5)"/>
   </g>
   <g id="text_1">
    <!-- Source velocity = 0.95 c -->
    <g transform="translate(246.24 261.216) scale(0.1 -0.1)">
     <defs>
      <path id="DejaVuSans-Bold-53" d="M 3834 4519 
L 3834 3531 
Q 3450 3703 3084 3790 
Q 2719 3878 2394 3878 
Q 1963 3878 1756 3759 
Q 1550 3641 1550 3391 
Q 1550 3203 1689 3098 
Q 1828 2994 2194 2919 
L 2706 2816 
Q 3484 2659 3812 2340 
Q 4141 2022 4141 1434 
Q 4141 663 3683 286 
Q 3225 -91 2284 -91 
Q 1841 -91 1394 -6 
Q 947 78 500 244 
L 500 1259 
Q 947 1022 1364 901 
Q 1781 781 2169 781 
Q 2563 781 2772 912 
Q 2981 1044 2981 1288 
Q 2981 1506 2839 1625 
Q 2697 1744 2272 1838 
L 1806 1941 
Q 1106 2091 782 2419 
Q 459 2747 459 3303 
Q 459 4000 909 4375 
Q 1359 4750 2203 4750 
Q 2588 4750 2994 4692 
Q 3400 4634 3834 4519 
z
" transform="scale(0.015625)"/>
      <path id="DejaVuSans-Bold-6f" d="M 2203 2784 
Q 1831 2784 1636 2517 
Q 1441 2250 1441 1747 
Q 1441 1244 1636 976 
Q 1831 709 2203 709 
Q 2569 709 2762 976 
Q 2956 1244 2956 1747 
Q 2956 2250 2762 2517 
Q 2569 2784 2203 2784 
z
M 2203 3584 
Q 3106 3584 3614 3096 
Q 4122 2609 4122 1747 
Q 4122 884 3614 396 
Q 3106 -91 2203 -91 
Q 1297 -91 786 396 
Q 275 884 275 1747 
Q 275 2609 786 3096 
Q 1297 3584 2203 3584 
z
" transform="scale(0.015625)"/>
      <path id="DejaVuSans-Bold-75" d="M 500 1363 
L 500 3500 
L 1625 3500 
L 1625 3150 
Q 1625 2866 1622 2436 
Q 1619 2006 1619 1863 
Q 1619 1441 1641 1255 
Q 1663 1069 1716 984 
Q 1784 875 1895 815 
Q 2006 756 2150 756 
Q 2500 756 2700 1025 
Q 2900 1294 2900 1772 
L 2900 3500 
L 4019 3500 
L 4019 0 
L 2900 0 
L 2900 506 
Q 2647 200 2364 54 
Q 2081 -91 1741 -91 
Q 1134 -91 817 281 
Q 500 653 500 1363 
z
" transform="scale(0.015625)"/>
      <path id="DejaVuSans-Bold-72" d="M 3138 2547 
Q 2991 2616 2845 2648 
Q 2700 2681 2553 2681 
Q 2122 2681 1889 2404 
Q 1656 2128 1656 1613 
L 1656 0 
L 538 0 
L 538 3500 
L 1656 3500 
L 1656 2925 
Q 1872 3269 2151 3426 
Q 2431 3584 2822 3584 
Q 2878 3584 2943 3579 
Q 3009 3575 3134 3559 
L 3138 2547 
z
" transform="scale(0.015625)"/>
      <path id="DejaVuSans-Bold-63" d="M 3366 3391 
L 3366 2478 
Q 3138 2634 2908 2709 
Q 2678 2784 2431 2784 
Q 1963 2784 1702 2511 
Q 1441 2238 1441 1747 
Q 1441 1256 1702 982 
Q 1963 709 2431 709 
Q 2694 709 2930 787 
Q 3166 866 3366 1019 
L 3366 103 
Q 3103 6 2833 -42 
Q 2563 -91 2291 -91 
Q 1344 -91 809 395 
Q 275 881 275 1747 
Q 275 2613 809 3098 
Q 1344 3584 2291 3584 
Q 2566 3584 2833 3536 
Q 3100 3488 3366 3391 
z
" transform="scale(0.015625)"/>
      <path id="DejaVuSans-Bold-65" d="M 4031 1759 
L 4031 1441 
L 1416 1441 
Q 1456 1047 1700 850 
Q 1944 653 2381 653 
Q 2734 653 3104 758 
Q 3475 863 3866 1075 
L 3866 213 
Q 3469 63 3072 -14 
Q 2675 -91 2278 -91 
Q 1328 -91 801 392 
Q 275 875 275 1747 
Q 275 2603 792 3093 
Q 1309 3584 2216 3584 
Q 3041 3584 3536 3087 
Q 4031 2591 4031 1759 
z
M 2881 2131 
Q 2881 2450 2695 2645 
Q 2509 2841 2209 2841 
Q 1884 2841 1681 2658 
Q 1478 2475 1428 2131 
L 2881 2131 
z
" transform="scale(0.015625)"/>
      <path id="DejaVuSans-Bold-20" transform="scale(0.015625)"/>
      <path id="DejaVuSans-Bold-76" d="M 97 3500 
L 1216 3500 
L 2088 1081 
L 2956 3500 
L 4078 3500 
L 2700 0 
L 1472 0 
L 97 3500 
z
" transform="scale(0.015625)"/>
      <path id="DejaVuSans-Bold-6c" d="M 538 4863 
L 1656 4863 
L 1656 0 
L 538 0 
L 538 4863 
z
" transform="scale(0.015625)"/>
      <path id="DejaVuSans-Bold-69" d="M 538 3500 
L 1656 3500 
L 1656 0 
L 538 0 
L 538 3500 
z
M 538 4863 
L 1656 4863 
L 1656 3950 
L 538 3950 
L 538 4863 
z
" transform="scale(0.015625)"/>
      <path id="DejaVuSans-Bold-74" d="M 1759 4494 
L 1759 3500 
L 2913 3500 
L 2913 2700 
L 1759 2700 
L 1759 1216 
Q 1759 972 1856 886 
Q 1953 800 2241 800 
L 2816 800 
L 2816 0 
L 1856 0 
Q 1194 0 917 276 
Q 641 553 641 1216 
L 641 2700 
L 84 2700 
L 84 3500 
L 641 3500 
L 641 4494 
L 1759 4494 
z
" transform="scale(0.015625)"/>
      <path id="DejaVuSans-Bold-79" d="M 78 3500 
L 1197 3500 
L 2138 1125 
L 2938 3500 
L 4056 3500 
L 2584 -331 
Q 2363 -916 2067 -1148 
Q 1772 -1381 1288 -1381 
L 641 -1381 
L 641 -647 
L 991 -647 
Q 1275 -647 1404 -556 
Q 1534 -466 1606 -231 
L 1638 -134 
L 78 3500 
z
" transform="scale(0.015625)"/>
      <path id="DejaVuSans-Bold-3d" d="M 678 3084 
L 4684 3084 
L 4684 2350 
L 678 2350 
L 678 3084 
z
M 678 1663 
L 4684 1663 
L 4684 922 
L 678 922 
L 678 1663 
z
" transform="scale(0.015625)"/>
      <path id="DejaVuSans-Bold-30" d="M 2944 2338 
Q 2944 3213 2780 3570 
Q 2616 3928 2228 3928 
Q 1841 3928 1675 3570 
Q 1509 3213 1509 2338 
Q 1509 1453 1675 1090 
Q 1841 728 2228 728 
Q 2613 728 2778 1090 
Q 2944 1453 2944 2338 
z
M 4147 2328 
Q 4147 1169 3647 539 
Q 3147 -91 2228 -91 
Q 1306 -91 806 539 
Q 306 1169 306 2328 
Q 306 3491 806 4120 
Q 1306 4750 2228 4750 
Q 3147 4750 3647 4120 
Q 4147 3491 4147 2328 
z
" transform="scale(0.015625)"/>
      <path id="DejaVuSans-Bold-2e" d="M 653 1209 
L 1778 1209 
L 1778 0 
L 653 0 
L 653 1209 
z
" transform="scale(0.015625)"/>
      <path id="DejaVuSans-Bold-39" d="M 641 103 
L 641 966 
Q 928 831 1190 764 
Q 1453 697 1709 697 
Q 2247 697 2547 995 
Q 2847 1294 2900 1881 
Q 2688 1725 2447 1647 
Q 2206 1569 1925 1569 
Q 1209 1569 770 1986 
Q 331 2403 331 3084 
Q 331 3838 820 4291 
Q 1309 4744 2131 4744 
Q 3044 4744 3544 4128 
Q 4044 3513 4044 2388 
Q 4044 1231 3459 570 
Q 2875 -91 1856 -91 
Q 1528 -91 1228 -42 
Q 928 6 641 103 
z
M 2125 2350 
Q 2441 2350 2600 2554 
Q 2759 2759 2759 3169 
Q 2759 3575 2600 3781 
Q 2441 3988 2125 3988 
Q 1809 3988 1650 3781 
Q 1491 3575 1491 3169 
Q 1491 2759 1650 2554 
Q 1809 2350 2125 2350 
z
" transform="scale(0.015625)"/>
      <path id="DejaVuSans-Bold-35" d="M 678 4666 
L 3669 4666 
L 3669 3781 
L 1638 3781 
L 1638 3059 
Q 1775 3097 1914 3117 
Q 2053 3138 2203 3138 
Q 3056 3138 3531 2711 
Q 4006 2284 4006 1522 
Q 4006 766 3489 337 
Q 2972 -91 2053 -91 
Q 1656 -91 1267 -14 
Q 878 63 494 219 
L 494 1166 
Q 875 947 1217 837 
Q 1559 728 1863 728 
Q 2300 728 2551 942 
Q 2803 1156 2803 1522 
Q 2803 1891 2551 2103 
Q 2300 2316 1863 2316 
Q 1603 2316 1309 2248 
Q 1016 2181 678 2041 
L 678 4666 
z
" transform="scale(0.015625)"/>
     </defs>
     <use xlink:href="#DejaVuSans-Bold-53"/>
     <use xlink:href="#DejaVuSans-Bold-6f" x="72.021484"/>
     <use xlink:href="#DejaVuSans-Bold-75" x="140.722656"/>
     <use xlink:href="#DejaVuSans-Bold-72" x="211.914062"/>
     <use xlink:href="#DejaVuSans-Bold-63" x="261.230469"/>
     <use xlink:href="#DejaVuSans-Bold-65" x="320.507812"/>
     <use xlink:href="#DejaVuSans-Bold-20" x="388.330078"/>
     <use xlink:href="#DejaVuSans-Bold-76" x="423.144531"/>
     <use xlink:href="#DejaVuSans-Bold-65" x="488.330078"/>
     <use xlink:href="#DejaVuSans-Bold-6c" x="556.152344"/>
     <use xlink:href="#DejaVuSans-Bold-6f" x="590.429688"/>
     <use xlink:href="#DejaVuSans-Bold-63" x="659.130859"/>
     <use xlink:href="#DejaVuSans-Bold-69" x="718.408203"/>
     <use xlink:href="#DejaVuSans-Bold-74" x="752.685547"/>
     <use xlink:href="#DejaVuSans-Bold-79" x="800.488281"/>
     <use xlink:href="#DejaVuSans-Bold-20" x="865.673828"/>
     <use xlink:href="#DejaVuSans-Bold-3d" x="900.488281"/>
     <use xlink:href="#DejaVuSans-Bold-20" x="984.277344"/>
     <use xlink:href="#DejaVuSans-Bold-30" x="1019.091797"/>
     <use xlink:href="#DejaVuSans-Bold-2e" x="1088.671875"/>
     <use xlink:href="#DejaVuSans-Bold-39" x="1126.660156"/>
     <use xlink:href="#DejaVuSans-Bold-35" x="1196.240234"/>
     <use xlink:href="#DejaVuSans-Bold-20" x="1265.820312"/>
     <use xlink:href="#DejaVuSans-Bold-63" x="1300.634766"/>
    </g>
   </g>
  </g>
 </g>
 <defs>
  <clipPath id="p5e161511d5">
   <rect x="7.2" y="7.2" width="357.12" height="266.112"/>
  </clipPath>
 </defs>
</svg>
