<svg width="4147" height="981" xmlns="http://www.w3.org/2000/svg" xmlns:xlink="http://www.w3.org/1999/xlink" xml:space="preserve" overflow="hidden"><defs><linearGradient x1="-7.62632e-06" y1="0.000180446" x2="138.422" y2="0.000180446" gradientUnits="userSpaceOnUse" spreadMethod="reflect" id="stroke0"><stop offset="0" stop-color="#F6F8FC"/><stop offset="0.42" stop-color="#D9D9D9"/><stop offset="0.71" stop-color="#7F7F7F"/><stop offset="1" stop-color="#7F7F7F"/></linearGradient><linearGradient x1="-7.62632e-06" y1="0.000180446" x2="138.422" y2="0.000180446" gradientUnits="userSpaceOnUse" spreadMethod="reflect" id="stroke1"><stop offset="0" stop-color="#F6F8FC"/><stop offset="0.42" stop-color="#D9D9D9"/><stop offset="0.71" stop-color="#7F7F7F"/><stop offset="1" stop-color="#7F7F7F"/></linearGradient><linearGradient x1="-7.62632e-06" y1="0.000180446" x2="138.422" y2="0.000180446" gradientUnits="userSpaceOnUse" spreadMethod="reflect" id="stroke2"><stop offset="0" stop-color="#F6F8FC"/><stop offset="0.42" stop-color="#D9D9D9"/><stop offset="0.71" stop-color="#7F7F7F"/><stop offset="1" stop-color="#7F7F7F"/></linearGradient><linearGradient x1="-7.62632e-06" y1="0.000180446" x2="138.422" y2="0.000180446" gradientUnits="userSpaceOnUse" spreadMethod="reflect" id="stroke3"><stop offset="0" stop-color="#F6F8FC"/><stop offset="0.42" stop-color="#D9D9D9"/><stop offset="0.71" stop-color="#7F7F7F"/><stop offset="1" stop-color="#7F7F7F"/></linearGradient><linearGradient x1="-7.62632e-06" y1="0.000180446" x2="138.422" y2="0.000180446" gradientUnits="userSpaceOnUse" spreadMethod="reflect" id="stroke4"><stop offset="0" stop-color="#F6F8FC"/><stop offset="0.42" stop-color="#D9D9D9"/><stop offset="0.71" stop-color="#7F7F7F"/><stop offset="1" stop-color="#7F7F7F"/></linearGradient><linearGradient x1="-7.62632e-06" y1="0.000180446" x2="138.422" y2="0.000180446" gradientUnits="userSpaceOnUse" spreadMethod="reflect" id="stroke5"><stop offset="0" stop-color="#F6F8FC"/><stop offset="0.42" stop-color="#D9D9D9"/><stop offset="0.71" stop-color="#7F7F7F"/><stop offset="1" stop-color="#7F7F7F"/></linearGradient><linearGradient x1="-7.62632e-06" y1="0.000180446" x2="138.422" y2="0.000180446" gradientUnits="userSpaceOnUse" spreadMethod="reflect" id="stroke6"><stop offset="0" stop-color="#F6F8FC"/><stop offset="0.42" stop-color="#D9D9D9"/><stop offset="0.71" stop-color="#7F7F7F"/><stop offset="1" stop-color="#7F7F7F"/></linearGradient><linearGradient x1="-7.62632e-06" y1="0.000180446" x2="138.422" y2="0.000180446" gradientUnits="userSpaceOnUse" spreadMethod="reflect" id="stroke7"><stop offset="0" stop-color="#F6F8FC"/><stop offset="0.42" stop-color="#D9D9D9"/><stop offset="0.71" stop-color="#7F7F7F"/><stop offset="1" stop-color="#7F7F7F"/></linearGradient><linearGradient x1="-7.62632e-06" y1="0.000180446" x2="138.422" y2="0.000180446" gradientUnits="userSpaceOnUse" spreadMethod="reflect" id="stroke8"><stop offset="0" stop-color="#F6F8FC"/><stop offset="0.42" stop-color="#D9D9D9"/><stop offset="0.71" stop-color="#7F7F7F"/><stop offset="1" stop-color="#7F7F7F"/></linearGradient><linearGradient x1="-7.62632e-06" y1="0.000180446" x2="138.422" y2="0.000180446" gradientUnits="userSpaceOnUse" spreadMethod="reflect" id="stroke9"><stop offset="0" stop-color="#F6F8FC"/><stop offset="0.42" stop-color="#D9D9D9"/><stop offset="0.71" stop-color="#7F7F7F"/><stop offset="1" stop-color="#7F7F7F"/></linearGradient><linearGradient x1="-7.62632e-06" y1="0.000180446" x2="138.422" y2="0.000180446" gradientUnits="userSpaceOnUse" spreadMethod="reflect" id="stroke10"><stop offset="0" stop-color="#F6F8FC"/><stop offset="0.42" stop-color="#D9D9D9"/><stop offset="0.71" stop-color="#7F7F7F"/><stop offset="1" stop-color="#7F7F7F"/></linearGradient><linearGradient x1="-7.62632e-06" y1="0.000180446" x2="138.422" y2="0.000180446" gradientUnits="userSpaceOnUse" spreadMethod="reflect" id="stroke11"><stop offset="0" stop-color="#F6F8FC"/><stop offset="0.42" stop-color="#D9D9D9"/><stop offset="0.71" stop-color="#7F7F7F"/><stop offset="1" stop-color="#7F7F7F"/></linearGradient><linearGradient x1="-7.62632e-06" y1="0.000180446" x2="138.422" y2="0.000180446" gradientUnits="userSpaceOnUse" spreadMethod="reflect" id="stroke12"><stop offset="0" stop-color="#F6F8FC"/><stop offset="0.42" stop-color="#D9D9D9"/><stop offset="0.71" stop-color="#7F7F7F"/><stop offset="1" stop-color="#7F7F7F"/></linearGradient><linearGradient x1="-7.62632e-06" y1="0.000180446" x2="138.422" y2="0.000180446" gradientUnits="userSpaceOnUse" spreadMethod="reflect" id="stroke13"><stop offset="0" stop-color="#F6F8FC"/><stop offset="0.42" stop-color="#D9D9D9"/><stop offset="0.71" stop-color="#7F7F7F"/><stop offset="1" stop-color="#7F7F7F"/></linearGradient><linearGradient x1="-7.62632e-06" y1="0.000180446" x2="138.422" y2="0.000180446" gradientUnits="userSpaceOnUse" spreadMethod="reflect" id="stroke14"><stop offset="0" stop-color="#F6F8FC"/><stop offset="0.42" stop-color="#D9D9D9"/><stop offset="0.71" stop-color="#7F7F7F"/><stop offset="1" stop-color="#7F7F7F"/></linearGradient><linearGradient x1="-7.62632e-06" y1="0.000180446" x2="138.422" y2="0.000180446" gradientUnits="userSpaceOnUse" spreadMethod="reflect" id="stroke15"><stop offset="0" stop-color="#F6F8FC"/><stop offset="0.42" stop-color="#D9D9D9"/><stop offset="0.71" stop-color="#7F7F7F"/><stop offset="1" stop-color="#7F7F7F"/></linearGradient><linearGradient x1="-7.62632e-06" y1="0.000180446" x2="138.422" y2="0.000180446" gradientUnits="userSpaceOnUse" spreadMethod="reflect" id="stroke16"><stop offset="0" stop-color="#F6F8FC"/><stop offset="0.42" stop-color="#D9D9D9"/><stop offset="0.71" stop-color="#7F7F7F"/><stop offset="1" stop-color="#7F7F7F"/></linearGradient><linearGradient x1="-7.62632e-06" y1="0.000180446" x2="138.422" y2="0.000180446" gradientUnits="userSpaceOnUse" spreadMethod="reflect" id="stroke17"><stop offset="0" stop-color="#F6F8FC"/><stop offset="0.42" stop-color="#D9D9D9"/><stop offset="0.71" stop-color="#7F7F7F"/><stop offset="1" stop-color="#7F7F7F"/></linearGradient><linearGradient x1="-7.62632e-06" y1="0.000180446" x2="138.422" y2="0.000180446" gradientUnits="userSpaceOnUse" spreadMethod="reflect" id="stroke18"><stop offset="0" stop-color="#F6F8FC"/><stop offset="0.42" stop-color="#D9D9D9"/><stop offset="0.71" stop-color="#7F7F7F"/><stop offset="1" stop-color="#7F7F7F"/></linearGradient><linearGradient x1="-7.62632e-06" y1="0.000180446" x2="138.422" y2="0.000180446" gradientUnits="userSpaceOnUse" spreadMethod="reflect" id="stroke19"><stop offset="0" stop-color="#F6F8FC"/><stop offset="0.42" stop-color="#D9D9D9"/><stop offset="0.71" stop-color="#7F7F7F"/><stop offset="1" stop-color="#7F7F7F"/></linearGradient><linearGradient x1="-7.62632e-06" y1="0.000180446" x2="138.422" y2="0.000180446" gradientUnits="userSpaceOnUse" spreadMethod="reflect" id="stroke20"><stop offset="0" stop-color="#F6F8FC"/><stop offset="0.42" stop-color="#D9D9D9"/><stop offset="0.71" stop-color="#7F7F7F"/><stop offset="1" stop-color="#7F7F7F"/></linearGradient><linearGradient x1="-7.62632e-06" y1="0.000180446" x2="138.422" y2="0.000180446" gradientUnits="userSpaceOnUse" spreadMethod="reflect" id="stroke21"><stop offset="0" stop-color="#F6F8FC"/><stop offset="0.42" stop-color="#D9D9D9"/><stop offset="0.71" stop-color="#7F7F7F"/><stop offset="1" stop-color="#7F7F7F"/></linearGradient><linearGradient x1="-7.62632e-06" y1="0.000180446" x2="138.422" y2="0.000180446" gradientUnits="userSpaceOnUse" spreadMethod="reflect" id="stroke22"><stop offset="0" stop-color="#F6F8FC"/><stop offset="0.42" stop-color="#D9D9D9"/><stop offset="0.71" stop-color="#7F7F7F"/><stop offset="1" stop-color="#7F7F7F"/></linearGradient><linearGradient x1="-7.62632e-06" y1="0.000180446" x2="138.422" y2="0.000180446" gradientUnits="userSpaceOnUse" spreadMethod="reflect" id="stroke23"><stop offset="0" stop-color="#F6F8FC"/><stop offset="0.42" stop-color="#D9D9D9"/><stop offset="0.71" stop-color="#7F7F7F"/><stop offset="1" stop-color="#7F7F7F"/></linearGradient><linearGradient x1="-7.62632e-06" y1="0.000180446" x2="138.422" y2="0.000180446" gradientUnits="userSpaceOnUse" spreadMethod="reflect" id="stroke24"><stop offset="0" stop-color="#F6F8FC"/><stop offset="0.42" stop-color="#D9D9D9"/><stop offset="0.71" stop-color="#7F7F7F"/><stop offset="1" stop-color="#7F7F7F"/></linearGradient><linearGradient x1="-5.00898e-06" y1="0.000180446" x2="502.212" y2="0.000180446" gradientUnits="userSpaceOnUse" spreadMethod="reflect" id="stroke25"><stop offset="0" stop-color="#FFFFFF"/><stop offset="0.37" stop-color="#9EBFDD"/><stop offset="0.81" stop-color="#2F5597"/><stop offset="1" stop-color="#1F4E79"/></linearGradient><linearGradient x1="-5.00898e-06" y1="0.000180446" x2="502.212" y2="0.000180446" gradientUnits="userSpaceOnUse" spreadMethod="reflect" id="stroke26"><stop offset="0" stop-color="#FFFFFF"/><stop offset="0.37" stop-color="#9EBFDD"/><stop offset="0.81" stop-color="#2F5597"/><stop offset="1" stop-color="#1F4E79"/></linearGradient><linearGradient x1="-5.00898e-06" y1="0.000180446" x2="502.212" y2="0.000180446" gradientUnits="userSpaceOnUse" spreadMethod="reflect" id="stroke27"><stop offset="0" stop-color="#FFFFFF"/><stop offset="0.37" stop-color="#9EBFDD"/><stop offset="0.81" stop-color="#2F5597"/><stop offset="1" stop-color="#1F4E79"/></linearGradient><linearGradient x1="-5.00898e-06" y1="0.000180446" x2="502.212" y2="0.000180446" gradientUnits="userSpaceOnUse" spreadMethod="reflect" id="stroke28"><stop offset="0" stop-color="#FFFFFF"/><stop offset="0.37" stop-color="#9EBFDD"/><stop offset="0.81" stop-color="#2F5597"/><stop offset="1" stop-color="#1F4E79"/></linearGradient><linearGradient x1="-5.00898e-06" y1="0.000180446" x2="502.212" y2="0.000180446" gradientUnits="userSpaceOnUse" spreadMethod="reflect" id="stroke29"><stop offset="0" stop-color="#FFFFFF"/><stop offset="0.37" stop-color="#9EBFDD"/><stop offset="0.81" stop-color="#2F5597"/><stop offset="1" stop-color="#1F4E79"/></linearGradient><linearGradient x1="-5.00898e-06" y1="0.000180446" x2="502.212" y2="0.000180446" gradientUnits="userSpaceOnUse" spreadMethod="reflect" id="stroke30"><stop offset="0" stop-color="#FFFFFF"/><stop offset="0.37" stop-color="#9EBFDD"/><stop offset="0.81" stop-color="#2F5597"/><stop offset="1" stop-color="#1F4E79"/></linearGradient><linearGradient x1="3935.34" y1="1268" x2="3433.12" y2="1268" gradientUnits="userSpaceOnUse" spreadMethod="reflect" id="stroke31"><stop offset="0" stop-color="#FFFFFF"/><stop offset="0.37" stop-color="#9EBFDD"/><stop offset="0.81" stop-color="#2F5597"/><stop offset="1" stop-color="#1F4E79"/></linearGradient><linearGradient x1="3928.34" y1="1230" x2="3426.12" y2="1230" gradientUnits="userSpaceOnUse" spreadMethod="reflect" id="stroke32"><stop offset="0" stop-color="#FFFFFF"/><stop offset="0.37" stop-color="#9EBFDD"/><stop offset="0.81" stop-color="#2F5597"/><stop offset="1" stop-color="#1F4E79"/></linearGradient><linearGradient x1="3913.34" y1="1191" x2="3411.12" y2="1191" gradientUnits="userSpaceOnUse" spreadMethod="reflect" id="stroke33"><stop offset="0" stop-color="#FFFFFF"/><stop offset="0.37" stop-color="#9EBFDD"/><stop offset="0.81" stop-color="#2F5597"/><stop offset="1" stop-color="#1F4E79"/></linearGradient><linearGradient x1="3888.34" y1="1153" x2="3386.12" y2="1153" gradientUnits="userSpaceOnUse" spreadMethod="reflect" id="stroke34"><stop offset="0" stop-color="#FFFFFF"/><stop offset="0.37" stop-color="#9EBFDD"/><stop offset="0.81" stop-color="#2F5597"/><stop offset="1" stop-color="#1F4E79"/></linearGradient><linearGradient x1="3852.34" y1="1115" x2="3350.12" y2="1115" gradientUnits="userSpaceOnUse" spreadMethod="reflect" id="stroke35"><stop offset="0" stop-color="#FFFFFF"/><stop offset="0.37" stop-color="#9EBFDD"/><stop offset="0.81" stop-color="#2F5597"/><stop offset="1" stop-color="#1F4E79"/></linearGradient><linearGradient x1="3791.34" y1="1077" x2="3289.12" y2="1077" gradientUnits="userSpaceOnUse" spreadMethod="reflect" id="stroke36"><stop offset="0" stop-color="#FFFFFF"/><stop offset="0.37" stop-color="#9EBFDD"/><stop offset="0.81" stop-color="#2F5597"/><stop offset="1" stop-color="#1F4E79"/></linearGradient></defs><g transform="translate(-94 -743)"><path d="M0 0 135.558 0.000360892" stroke="url(#stroke0)" stroke-width="5.72917" stroke-miterlimit="8" fill="none" fill-rule="evenodd" transform="matrix(0.999973 -0.00730123 -0.00730123 -0.999973 94.163 1705.63)"/><path d="M0 0 135.558 0.000360892" stroke="url(#stroke1)" stroke-width="5.72917" stroke-miterlimit="8" fill="none" fill-rule="evenodd" transform="matrix(0.999973 -0.00730123 -0.00730123 -0.999973 126.794 1672.52)"/><path d="M0 0 135.558 0.000360892" stroke="url(#stroke2)" stroke-width="5.72917" stroke-miterlimit="8" fill="none" fill-rule="evenodd" transform="matrix(0.999973 -0.00730123 -0.00730123 -0.999973 159.425 1639.4)"/><path d="M0 0 135.558 0.000360892" stroke="url(#stroke3)" stroke-width="5.72917" stroke-miterlimit="8" fill="none" fill-rule="evenodd" transform="matrix(0.999973 -0.00730123 -0.00730123 -0.999973 192.056 1606.29)"/><path d="M0 0 135.558 0.000360892" stroke="url(#stroke4)" stroke-width="5.72917" stroke-miterlimit="8" fill="none" fill-rule="evenodd" transform="matrix(0.999973 -0.00730123 -0.00730123 -0.999973 224.687 1573.18)"/><path d="M0 0 135.558 0.000360892" stroke="url(#stroke5)" stroke-width="5.72917" stroke-miterlimit="8" fill="none" fill-rule="evenodd" transform="matrix(0.999973 -0.00730123 -0.00730123 -0.999973 257.318 1540.07)"/><path d="M0 0 135.558 0.000360892" stroke="url(#stroke6)" stroke-width="5.72917" stroke-miterlimit="8" fill="none" fill-rule="evenodd" transform="matrix(0.999973 -0.00730123 -0.00730123 -0.999973 289.949 1506.96)"/><path d="M0 0 135.558 0.000360892" stroke="url(#stroke7)" stroke-width="5.72917" stroke-miterlimit="8" fill="none" fill-rule="evenodd" transform="matrix(0.999973 -0.00730123 -0.00730123 -0.999973 322.58 1473.85)"/><path d="M0 0 135.558 0.000360892" stroke="url(#stroke8)" stroke-width="5.72917" stroke-miterlimit="8" fill="none" fill-rule="evenodd" transform="matrix(0.999973 -0.00730123 -0.00730123 -0.999973 355.211 1440.74)"/><path d="M0 0 135.558 0.000360892" stroke="url(#stroke9)" stroke-width="5.72917" stroke-miterlimit="8" fill="none" fill-rule="evenodd" transform="matrix(0.999973 -0.00730123 -0.00730123 -0.999973 387.842 1407.63)"/><path d="M0 0 135.558 0.000360892" stroke="url(#stroke10)" stroke-width="5.72917" stroke-miterlimit="8" fill="none" fill-rule="evenodd" transform="matrix(0.999973 -0.00730123 -0.00730123 -0.999973 420.473 1374.52)"/><path d="M0 0 135.558 0.000360892" stroke="url(#stroke11)" stroke-width="5.72917" stroke-miterlimit="8" fill="none" fill-rule="evenodd" transform="matrix(0.999973 -0.00730123 -0.00730123 -0.999973 453.104 1341.4)"/><path d="M0 0 135.558 0.000360892" stroke="url(#stroke12)" stroke-width="5.72917" stroke-miterlimit="8" fill="none" fill-rule="evenodd" transform="matrix(0.999973 -0.00730123 -0.00730123 -0.999973 485.735 1308.29)"/><path d="M0 0 135.558 0.000360892" stroke="url(#stroke13)" stroke-width="5.72917" stroke-miterlimit="8" fill="none" fill-rule="evenodd" transform="matrix(0.999973 -0.00730123 -0.00730123 -0.999973 518.366 1275.18)"/><path d="M0 0 135.558 0.000360892" stroke="url(#stroke14)" stroke-width="5.72917" stroke-miterlimit="8" fill="none" fill-rule="evenodd" transform="matrix(0.999973 -0.00730123 -0.00730123 -0.999973 550.997 1242.07)"/><path d="M0 0 135.558 0.000360892" stroke="url(#stroke15)" stroke-width="5.72917" stroke-miterlimit="8" fill="none" fill-rule="evenodd" transform="matrix(0.999973 -0.00730123 -0.00730123 -0.999973 583.628 1208.96)"/><path d="M0 0 135.558 0.000360892" stroke="url(#stroke16)" stroke-width="5.72917" stroke-miterlimit="8" fill="none" fill-rule="evenodd" transform="matrix(0.999973 -0.00730123 -0.00730123 -0.999973 616.259 1175.85)"/><path d="M0 0 135.558 0.000360892" stroke="url(#stroke17)" stroke-width="5.72917" stroke-miterlimit="8" fill="none" fill-rule="evenodd" transform="matrix(0.999973 -0.00730123 -0.00730123 -0.999973 648.89 1142.74)"/><path d="M0 0 135.558 0.000360892" stroke="url(#stroke18)" stroke-width="5.72917" stroke-miterlimit="8" fill="none" fill-rule="evenodd" transform="matrix(0.999973 -0.00730123 -0.00730123 -0.999973 681.521 1109.63)"/><path d="M0 0 135.558 0.000360892" stroke="url(#stroke19)" stroke-width="5.72917" stroke-miterlimit="8" fill="none" fill-rule="evenodd" transform="matrix(0.999973 -0.00730123 -0.00730123 -0.999973 714.152 1076.52)"/><path d="M0 0 135.558 0.000360892" stroke="url(#stroke20)" stroke-width="5.72917" stroke-miterlimit="8" fill="none" fill-rule="evenodd" transform="matrix(0.999973 -0.00730123 -0.00730123 -0.999973 746.783 1043.4)"/><path d="M0 0 135.558 0.000360892" stroke="url(#stroke21)" stroke-width="5.72917" stroke-miterlimit="8" fill="none" fill-rule="evenodd" transform="matrix(0.999973 -0.00730123 -0.00730123 -0.999973 779.415 1010.29)"/><path d="M0 0 135.558 0.000360892" stroke="url(#stroke22)" stroke-width="5.72917" stroke-miterlimit="8" fill="none" fill-rule="evenodd" transform="matrix(0.999973 -0.00730123 -0.00730123 -0.999973 812.045 977.183)"/><path d="M0 0 135.558 0.000360892" stroke="url(#stroke23)" stroke-width="5.72917" stroke-miterlimit="8" fill="none" fill-rule="evenodd" transform="matrix(0.999973 -0.00730123 -0.00730123 -0.999973 844.677 944.071)"/><path d="M0 0 135.558 0.000360892" stroke="url(#stroke24)" stroke-width="5.72917" stroke-miterlimit="8" fill="none" fill-rule="evenodd" transform="matrix(0.999973 -0.00730123 -0.00730123 -0.999973 877.307 910.961)"/><path d="M8.53693e-07-2.86458 1188.07-2.86423 1188.07 2.86494-8.53693e-07 2.86458ZM1183.48-13.7496 1210.98 0.000360892 1183.48 13.7504Z" fill="#7F7F7F" transform="matrix(0.999973 -0.00730123 -0.00730123 -0.999973 227.338 1704.67)"/><path d="M8.53693e-07-2.86458 1188.07-2.86423 1188.07 2.86494-8.53693e-07 2.86458ZM1183.48-13.7496 1210.98 0.000360892 1183.48 13.7504Z" fill="#7F7F7F" transform="matrix(0.999973 -0.00730123 -0.00730123 -0.999973 259.969 1671.55)"/><path d="M8.53693e-07-2.86458 1188.07-2.86423 1188.07 2.86494-8.53693e-07 2.86458ZM1183.48-13.7496 1210.98 0.000360892 1183.48 13.7504Z" fill="#7F7F7F" transform="matrix(0.999973 -0.00730123 -0.00730123 -0.999973 292.6 1638.44)"/><path d="M8.53693e-07-2.86458 1188.07-2.86423 1188.07 2.86494-8.53693e-07 2.86458ZM1183.48-13.7496 1210.98 0.000360892 1183.48 13.7504Z" fill="#7F7F7F" transform="matrix(0.999973 -0.00730123 -0.00730123 -0.999973 325.231 1605.33)"/><path d="M8.53693e-07-2.86458 1188.07-2.86423 1188.07 2.86494-8.53693e-07 2.86458ZM1183.48-13.7496 1210.98 0.000360892 1183.48 13.7504Z" fill="#7F7F7F" transform="matrix(0.999973 -0.00730123 -0.00730123 -0.999973 357.862 1572.22)"/><path d="M8.53693e-07-2.86458 1188.07-2.86423 1188.07 2.86494-8.53693e-07 2.86458ZM1183.48-13.7496 1210.98 0.000360892 1183.48 13.7504Z" fill="#7F7F7F" transform="matrix(0.999973 -0.00730123 -0.00730123 -0.999973 390.493 1539.11)"/><path d="M8.53693e-07-2.86458 1188.07-2.86423 1188.07 2.86494-8.53693e-07 2.86458ZM1183.48-13.7496 1210.98 0.000360892 1183.48 13.7504Z" fill="#7F7F7F" transform="matrix(0.999973 -0.00730123 -0.00730123 -0.999973 423.124 1506)"/><path d="M8.53693e-07-2.86458 1188.07-2.86423 1188.07 2.86494-8.53693e-07 2.86458ZM1183.48-13.7496 1210.98 0.000360892 1183.48 13.7504Z" fill="#7F7F7F" transform="matrix(0.999973 -0.00730123 -0.00730123 -0.999973 455.755 1472.89)"/><path d="M8.53693e-07-2.86458 1188.07-2.86423 1188.07 2.86494-8.53693e-07 2.86458ZM1183.48-13.7496 1210.98 0.000360892 1183.48 13.7504Z" fill="#7F7F7F" transform="matrix(0.999973 -0.00730123 -0.00730123 -0.999973 488.386 1439.78)"/><path d="M8.53693e-07-2.86458 1188.07-2.86423 1188.07 2.86494-8.53693e-07 2.86458ZM1183.48-13.7496 1210.98 0.000360892 1183.48 13.7504Z" fill="#7F7F7F" transform="matrix(0.999973 -0.00730123 -0.00730123 -0.999973 521.017 1406.67)"/><path d="M8.53693e-07-2.86458 1188.07-2.86423 1188.07 2.86494-8.53693e-07 2.86458ZM1183.48-13.7496 1210.98 0.000360892 1183.48 13.7504Z" fill="#7F7F7F" transform="matrix(0.999973 -0.00730123 -0.00730123 -0.999973 553.648 1373.55)"/><path d="M8.53693e-07-2.86458 1188.07-2.86423 1188.07 2.86494-8.53693e-07 2.86458ZM1183.48-13.7496 1210.98 0.000360892 1183.48 13.7504Z" fill="#7F7F7F" transform="matrix(0.999973 -0.00730123 -0.00730123 -0.999973 586.279 1340.44)"/><path d="M8.53693e-07-2.86458 1188.07-2.86423 1188.07 2.86494-8.53693e-07 2.86458ZM1183.48-13.7496 1210.98 0.000360892 1183.48 13.7504Z" fill="#7F7F7F" transform="matrix(0.999973 -0.00730123 -0.00730123 -0.999973 618.91 1307.33)"/><path d="M8.53693e-07-2.86458 1188.07-2.86423 1188.07 2.86494-8.53693e-07 2.86458ZM1183.48-13.7496 1210.98 0.000360892 1183.48 13.7504Z" fill="#7F7F7F" transform="matrix(0.999973 -0.00730123 -0.00730123 -0.999973 651.541 1274.22)"/><path d="M8.53693e-07-2.86458 1188.07-2.86423 1188.07 2.86494-8.53693e-07 2.86458ZM1183.48-13.7496 1210.98 0.000360892 1183.48 13.7504Z" fill="#7F7F7F" transform="matrix(0.999973 -0.00730123 -0.00730123 -0.999973 684.172 1241.11)"/><path d="M8.53693e-07-2.86458 1188.07-2.86423 1188.07 2.86494-8.53693e-07 2.86458ZM1183.48-13.7496 1210.98 0.000360892 1183.48 13.7504Z" fill="#7F7F7F" transform="matrix(0.999973 -0.00730123 -0.00730123 -0.999973 716.803 1208)"/><path d="M8.53693e-07-2.86458 1188.07-2.86423 1188.07 2.86494-8.53693e-07 2.86458ZM1183.48-13.7496 1210.98 0.000360892 1183.48 13.7504Z" fill="#7F7F7F" transform="matrix(0.999973 -0.00730123 -0.00730123 -0.999973 749.434 1174.89)"/><path d="M8.53693e-07-2.86458 1188.07-2.86423 1188.07 2.86494-8.53693e-07 2.86458ZM1183.48-13.7496 1210.98 0.000360892 1183.48 13.7504Z" fill="#7F7F7F" transform="matrix(0.999973 -0.00730123 -0.00730123 -0.999973 782.065 1141.78)"/><path d="M8.53693e-07-2.86458 1188.07-2.86423 1188.07 2.86494-8.53693e-07 2.86458ZM1183.48-13.7496 1210.98 0.000360892 1183.48 13.7504Z" fill="#7F7F7F" transform="matrix(0.999973 -0.00730123 -0.00730123 -0.999973 814.696 1108.67)"/><path d="M8.53693e-07-2.86458 1188.07-2.86423 1188.07 2.86494-8.53693e-07 2.86458ZM1183.48-13.7496 1210.98 0.000360892 1183.48 13.7504Z" fill="#7F7F7F" transform="matrix(0.999973 -0.00730123 -0.00730123 -0.999973 847.327 1075.56)"/><path d="M8.53693e-07-2.86458 1188.07-2.86423 1188.07 2.86494-8.53693e-07 2.86458ZM1183.48-13.7496 1210.98 0.000360892 1183.48 13.7504Z" fill="#7F7F7F" transform="matrix(0.999973 -0.00730123 -0.00730123 -0.999973 879.958 1042.44)"/><path d="M8.53693e-07-2.86458 1188.07-2.86423 1188.07 2.86494-8.53693e-07 2.86458ZM1183.48-13.7496 1210.98 0.000360892 1183.48 13.7504Z" fill="#7F7F7F" transform="matrix(0.999973 -0.00730123 -0.00730123 -0.999973 912.59 1009.33)"/><path d="M8.53693e-07-2.86458 1188.07-2.86423 1188.07 2.86494-8.53693e-07 2.86458ZM1183.48-13.7496 1210.98 0.000360892 1183.48 13.7504Z" fill="#7F7F7F" transform="matrix(0.999973 -0.00730123 -0.00730123 -0.999973 945.22 976.222)"/><path d="M8.53693e-07-2.86458 1188.07-2.86423 1188.07 2.86494-8.53693e-07 2.86458ZM1183.48-13.7496 1210.98 0.000360892 1183.48 13.7504Z" fill="#7F7F7F" transform="matrix(0.999973 -0.00730123 -0.00730123 -0.999973 977.852 943.111)"/><path d="M8.53693e-07-2.86458 1188.07-2.86423 1188.07 2.86494-8.53693e-07 2.86458ZM1183.48-13.7496 1210.98 0.000360892 1183.48 13.7504Z" fill="#7F7F7F" transform="matrix(0.999973 -0.00730123 -0.00730123 -0.999973 1010.48 910)"/><path d="M1987.76 905.374 1207.13 1697.49" stroke="#7F7F7F" stroke-width="5.72917" stroke-miterlimit="8" fill="none" fill-rule="evenodd"/><path d="M1941.8 905.181 1161.17 1697.29" stroke="#7F7F7F" stroke-width="5.72917" stroke-miterlimit="8" fill="none" fill-rule="evenodd"/><path d="M1895.84 904.987 1115.21 1697.1" stroke="#7F7F7F" stroke-width="5.72917" stroke-miterlimit="8" fill="none" fill-rule="evenodd"/><path d="M1849.88 904.793 1067.69 1698.49" stroke="#7F7F7F" stroke-width="5.72917" stroke-miterlimit="8" fill="none" fill-rule="evenodd"/><path d="M1803.92 904.599 1020.46 1699.58" stroke="#7F7F7F" stroke-width="5.72917" stroke-miterlimit="8" fill="none" fill-rule="evenodd"/><path d="M1757.87 904.488 974.414 1699.47" stroke="#7F7F7F" stroke-width="5.72917" stroke-miterlimit="8" fill="none" fill-rule="evenodd"/><path d="M1711.83 904.377 928.371 1699.36" stroke="#7F7F7F" stroke-width="5.72917" stroke-miterlimit="8" fill="none" fill-rule="evenodd"/><path d="M1665.79 904.266 882.328 1699.25" stroke="#7F7F7F" stroke-width="5.72917" stroke-miterlimit="8" fill="none" fill-rule="evenodd"/><path d="M1618.03 905.9 834.565 1700.89" stroke="#7F7F7F" stroke-width="5.72917" stroke-miterlimit="8" fill="none" fill-rule="evenodd"/><path d="M1571.98 905.79 788.522 1700.78" stroke="#7F7F7F" stroke-width="5.72917" stroke-miterlimit="8" fill="none" fill-rule="evenodd"/><path d="M1524.22 907.424 740.759 1702.41" stroke="#7F7F7F" stroke-width="5.72917" stroke-miterlimit="8" fill="none" fill-rule="evenodd"/><path d="M1478.18 907.314 694.716 1702.3" stroke="#7F7F7F" stroke-width="5.72917" stroke-miterlimit="8" fill="none" fill-rule="evenodd"/><path d="M1432.13 907.203 648.673 1702.19" stroke="#7F7F7F" stroke-width="5.72917" stroke-miterlimit="8" fill="none" fill-rule="evenodd"/><path d="M1386.09 907.092 602.63 1702.08" stroke="#7F7F7F" stroke-width="5.72917" stroke-miterlimit="8" fill="none" fill-rule="evenodd"/><path d="M1338.33 908.727 554.867 1703.71" stroke="#7F7F7F" stroke-width="5.72917" stroke-miterlimit="8" fill="none" fill-rule="evenodd"/><path d="M1292.28 908.616 508.824 1703.6" stroke="#7F7F7F" stroke-width="5.72917" stroke-miterlimit="8" fill="none" fill-rule="evenodd"/><path d="M1244.52 910.251 461.061 1705.24" stroke="#7F7F7F" stroke-width="5.72917" stroke-miterlimit="8" fill="none" fill-rule="evenodd"/><path d="M1198.48 910.14 415.018 1705.12" stroke="#7F7F7F" stroke-width="5.72917" stroke-miterlimit="8" fill="none" fill-rule="evenodd"/><path d="M1152.44 910.029 368.975 1705.01" stroke="#7F7F7F" stroke-width="5.72917" stroke-miterlimit="8" fill="none" fill-rule="evenodd"/><path d="M1106.39 909.918 322.932 1704.9" stroke="#7F7F7F" stroke-width="5.72917" stroke-miterlimit="8" fill="none" fill-rule="evenodd"/><path d="M1058.63 911.553 275.169 1706.54" stroke="#7F7F7F" stroke-width="5.72917" stroke-miterlimit="8" fill="none" fill-rule="evenodd"/><path d="M1012.59 911.442 229.126 1706.43" stroke="#7F7F7F" stroke-width="5.72917" stroke-miterlimit="8" fill="none" fill-rule="evenodd"/><path d="M2084.63 904.559 1304 1696.67" stroke="#7F7F7F" stroke-width="5.72917" stroke-miterlimit="8" fill="none" fill-rule="evenodd"/><path d="M2038.67 904.366 1258.04 1696.48" stroke="#7F7F7F" stroke-width="5.72917" stroke-miterlimit="8" fill="none" fill-rule="evenodd"/><path d="M2136.34 904.366 1355.71 1696.48" stroke="#7F7F7F" stroke-width="5.72917" stroke-miterlimit="8" fill="none" fill-rule="evenodd"/><path d="M1418.32 1246.4C1418.44 1248.21 1428.26 1258.58 1428.33 1260.38 1429.36 1286.93 1425.71 1312.88 1418.01 1337.29 1417.74 1338.14 1408.59 1344.44 1408.31 1345.29 1404.73 1356.19 1401.78 1361.27 1397.69 1368.34 1393.14 1376.23 1389.95 1382.79 1382.22 1393.21 1381.75 1393.85 1382.69 1405.84 1382.21 1406.47 1349.78 1449.26 1302.15 1480.8 1245.34 1492.09 1209.14 1499.29 1173.23 1497.46 1139.96 1488.16 1139.27 1487.97 1126.54 1474.83 1125.91 1474.51 1098 1460.25 1087.67 1454.78 1064.63 1436.59 1046.72 1422.44 1036.45 1411.72 1023.38 1392.61 1022.89 1391.88 1012.15 1395.89 1011.67 1395.16 995.604 1371.08 983.904 1343.51 977.909 1313.35 973.832 1292.85 972.651 1272.43 974.082 1252.55 974.201 1250.9 980.607 1249.56 980.762 1247.92 983.223 1221.74 989.166 1198.23 1000.02 1174.97 1012.74 1147.73 1029.92 1124.93 1052.2 1104.59 1053.62 1103.3 1050.67 1098.25 1052.12 1096.99 1080.97 1071.97 1116.53 1053.89 1156.66 1045.91 1210.01 1035.3 1262.7 1044.29 1307.3 1067.9 1309.62 1069.13 1303.81 1078.26 1306.09 1079.57 1338.72 1098.31 1366.09 1121.83 1386.17 1154.49 1399.93 1176.87 1417.69 1236.35 1418.32 1246.4Z" stroke="#000000" stroke-width="11.4583" stroke-miterlimit="8" fill="#2F5597" fill-rule="evenodd"/><path d="M1011.44 1394.55C1041.74 1440.22 1087.62 1473.4 1140 1488 1132.83 1472.7 1117.43 1450 1118.84 1418.74 1120.58 1380.46 1145.83 1368.1 1137.02 1336.65 1136.08 1333.3 1129.36 1310.49 1109.75 1300.16 1093.95 1291.84 1082.48 1291.04 1064.3 1291.04 1057.09 1291.04 1021.94 1297.42 1018.85 1281.92 1013.44 1254.74 1084.5 1212.51 1077.94 1190.71 1073.63 1176.4 1045.25 1174.58 1046.12 1167.9 1046.87 1162.24 1067.11 1165.23 1087.03 1154.22 1106.04 1143.71 1123.66 1121.05 1118.84 1108.61 1113.87 1095.77 1083.91 1091.12 1052.04 1095.75 1007.05 1134.86 978.358 1190.89 974 1251.78 983.585 1255.67 992.959 1261.7 1000.67 1272.8 1018.07 1297.84 1016.2 1333.04 1014.31 1368.58 1013.68 1380.37 1012.55 1388.43 1011.44 1394.55Z" stroke="#000000" stroke-width="10.3125" stroke-miterlimit="8" fill="#548235" fill-rule="evenodd"/><path d="M1424.28 1224.31C1410.4 1154.37 1365.86 1098.37 1307.45 1067.5 1268.06 1072.97 1226.65 1081.32 1197.12 1091.28 1156.03 1105.14 1161.29 1130.45 1162.22 1132.18 1172.46 1151.14 1212.45 1141.51 1216.7 1154.92 1219.77 1164.59 1199.5 1171.23 1189.46 1195.85 1181.96 1214.23 1180.59 1241.6 1194 1254.97 1208.93 1269.85 1230.53 1255.76 1253.02 1264.07 1297.34 1280.44 1283.19 1389.73 1301.55 1391.43 1318.46 1393 1344.2 1367.86 1360.57 1318.67 1374.19 1277.74 1358.24 1260.97 1371.07 1250.42 1384.92 1239.04 1409.59 1258.11 1428.5 1260.22 1428.04 1248.34 1426.66 1236.34 1424.28 1224.31Z" stroke="#000000" stroke-width="11.4583" stroke-miterlimit="8" fill="#548235" fill-rule="evenodd"/><path d="M1379.1 1358.87C1370.08 1375.2 1374.23 1394.06 1382.24 1406 1397.96 1385.3 1410.11 1361.96 1418 1337 1403.82 1337.34 1387.56 1343.55 1379.1 1358.87Z" stroke="#000000" stroke-width="10.3125" stroke-miterlimit="8" fill="#548235" fill-rule="evenodd"/><text font-family="Calibri,Calibri_MSFontService,sans-serif" font-weight="700" font-size="73" transform="matrix(1 0 0 1 1103.57 834)">Aether flowing relative to earth</text><path d="M2311.72 1702.45 3116.44 897.723" stroke="#A6A6A6" stroke-width="5.72917" stroke-miterlimit="8" stroke-dasharray="5.72917 5.72917" fill="none" fill-rule="evenodd"/><path d="M2358.21 1702.45 3162.93 897.723" stroke="#A6A6A6" stroke-width="5.72917" stroke-miterlimit="8" stroke-dasharray="5.72917 5.72917" fill="none" fill-rule="evenodd"/><path d="M2404.7 1702.45 3209.42 897.723" stroke="#A6A6A6" stroke-width="5.72917" stroke-miterlimit="8" stroke-dasharray="5.72917 5.72917" fill="none" fill-rule="evenodd"/><path d="M2451.18 1702.45 3255.91 897.723" stroke="#A6A6A6" stroke-width="5.72917" stroke-miterlimit="8" stroke-dasharray="5.72917 5.72917" fill="none" fill-rule="evenodd"/><path d="M2497.67 1702.45 3302.39 897.723" stroke="#A6A6A6" stroke-width="5.72917" stroke-miterlimit="8" stroke-dasharray="5.72917 5.72917" fill="none" fill-rule="evenodd"/><path d="M2544.16 1702.45 3348.88 897.723" stroke="#A6A6A6" stroke-width="5.72917" stroke-miterlimit="8" stroke-dasharray="5.72917 5.72917" fill="none" fill-rule="evenodd"/><path d="M2590.65 1702.45 3395.37 897.723" stroke="#A6A6A6" stroke-width="5.72917" stroke-miterlimit="8" stroke-dasharray="5.72917 5.72917" fill="none" fill-rule="evenodd"/><path d="M2637.13 1702.45 3441.86 897.723" stroke="#A6A6A6" stroke-width="5.72917" stroke-miterlimit="8" stroke-dasharray="5.72917 5.72917" fill="none" fill-rule="evenodd"/><path d="M2683.62 1702.45 3488.34 897.723" stroke="#A6A6A6" stroke-width="5.72917" stroke-miterlimit="8" stroke-dasharray="5.72917 5.72917" fill="none" fill-rule="evenodd"/><path d="M2730.11 1702.45 3534.83 897.723" stroke="#A6A6A6" stroke-width="5.72917" stroke-miterlimit="8" stroke-dasharray="5.72917 5.72917" fill="none" fill-rule="evenodd"/><path d="M2776.6 1702.45 3581.32 897.723" stroke="#A6A6A6" stroke-width="5.72917" stroke-miterlimit="8" stroke-dasharray="5.72917 5.72917" fill="none" fill-rule="evenodd"/><path d="M2823.09 1702.45 3627.81 897.723" stroke="#A6A6A6" stroke-width="5.72917" stroke-miterlimit="8" stroke-dasharray="5.72917 5.72917" fill="none" fill-rule="evenodd"/><path d="M2869.57 1702.45 3674.3 897.724" stroke="#A6A6A6" stroke-width="5.72917" stroke-miterlimit="8" stroke-dasharray="5.72917 5.72917" fill="none" fill-rule="evenodd"/><path d="M2916.06 1702.45 3720.78 897.724" stroke="#A6A6A6" stroke-width="5.72917" stroke-miterlimit="8" stroke-dasharray="5.72917 5.72917" fill="none" fill-rule="evenodd"/><path d="M2962.55 1702.45 3767.27 897.724" stroke="#A6A6A6" stroke-width="5.72917" stroke-miterlimit="8" stroke-dasharray="5.72917 5.72917" fill="none" fill-rule="evenodd"/><path d="M3009.04 1702.45 3813.76 897.724" stroke="#A6A6A6" stroke-width="5.72917" stroke-miterlimit="8" stroke-dasharray="5.72917 5.72917" fill="none" fill-rule="evenodd"/><path d="M3055.53 1702.45 3860.25 897.724" stroke="#A6A6A6" stroke-width="5.72917" stroke-miterlimit="8" stroke-dasharray="5.72917 5.72917" fill="none" fill-rule="evenodd"/><path d="M3102.01 1702.45 3906.74 897.724" stroke="#A6A6A6" stroke-width="5.72917" stroke-miterlimit="8" stroke-dasharray="5.72917 5.72917" fill="none" fill-rule="evenodd"/><path d="M3148.5 1702.45 3953.22 897.724" stroke="#A6A6A6" stroke-width="5.72917" stroke-miterlimit="8" stroke-dasharray="5.72917 5.72917" fill="none" fill-rule="evenodd"/><path d="M3194.99 1702.45 3999.71 897.724" stroke="#A6A6A6" stroke-width="5.72917" stroke-miterlimit="8" stroke-dasharray="5.72917 5.72917" fill="none" fill-rule="evenodd"/><path d="M3241.48 1702.45 4046.2 897.724" stroke="#A6A6A6" stroke-width="5.72917" stroke-miterlimit="8" stroke-dasharray="5.72917 5.72917" fill="none" fill-rule="evenodd"/><path d="M3287.97 1702.45 4092.69 897.724" stroke="#A6A6A6" stroke-width="5.72917" stroke-miterlimit="8" stroke-dasharray="5.72917 5.72917" fill="none" fill-rule="evenodd"/><path d="M3334.45 1702.45 4139.18 897.724" stroke="#A6A6A6" stroke-width="5.72917" stroke-miterlimit="8" stroke-dasharray="5.72917 5.72917" fill="none" fill-rule="evenodd"/><path d="M0 0 1112.12 0.000360892" stroke="#A6A6A6" stroke-width="5.72917" stroke-miterlimit="8" stroke-dasharray="5.72917 5.72917" fill="none" fill-rule="evenodd" transform="matrix(-1 0 0 1 4070.12 1010)"/><path d="M0 0 1112.12 0.000360892" stroke="#A6A6A6" stroke-width="5.72917" stroke-miterlimit="8" stroke-dasharray="5.72917 5.72917" fill="none" fill-rule="evenodd" transform="matrix(-1 0 0 1 4038.12 1042)"/><path d="M0 0 1112.12 0.000360892" stroke="#A6A6A6" stroke-width="5.72917" stroke-miterlimit="8" stroke-dasharray="5.72917 5.72917" fill="none" fill-rule="evenodd" transform="matrix(-1 0 0 1 4006.12 1075)"/><path d="M0 0 1114.35 0.000360892" stroke="#A6A6A6" stroke-width="5.72917" stroke-miterlimit="8" stroke-dasharray="5.72917 5.72917" fill="none" fill-rule="evenodd" transform="matrix(-1 0 0 1 3973.35 1108)"/><path d="M0 0 1116.16 0.000360892" stroke="#A6A6A6" stroke-width="5.72917" stroke-miterlimit="8" stroke-dasharray="5.72917 5.72917" fill="none" fill-rule="evenodd" transform="matrix(-1 0 0 1 3942.16 1141)"/><path d="M0 0 1116.16 0.000360892" stroke="#A6A6A6" stroke-width="5.72917" stroke-miterlimit="8" stroke-dasharray="5.72917 5.72917" fill="none" fill-rule="evenodd" transform="matrix(-1 0 0 1 3909.16 1174)"/><path d="M0 0 1116.16 0.000360892" stroke="#A6A6A6" stroke-width="5.72917" stroke-miterlimit="8" stroke-dasharray="5.72917 5.72917" fill="none" fill-rule="evenodd" transform="matrix(-1 0 0 1 3877.16 1207)"/><path d="M0 0 1116.16 0.000360892" stroke="#A6A6A6" stroke-width="5.72917" stroke-miterlimit="8" stroke-dasharray="5.72917 5.72917" fill="none" fill-rule="evenodd" transform="matrix(-1 0 0 1 3845.16 1240)"/><path d="M0 0 1116.16 0.000360892" stroke="#A6A6A6" stroke-width="5.72917" stroke-miterlimit="8" stroke-dasharray="5.72917 5.72917" fill="none" fill-rule="evenodd" transform="matrix(-1 0 0 1 3810.16 1273)"/><path d="M0 0 1116.16 0.000360892" stroke="#A6A6A6" stroke-width="5.72917" stroke-miterlimit="8" stroke-dasharray="5.72917 5.72917" fill="none" fill-rule="evenodd" transform="matrix(-1 0 0 1 3778.16 1305)"/><path d="M0 0 1116.16 0.000360892" stroke="#A6A6A6" stroke-width="5.72917" stroke-miterlimit="8" stroke-dasharray="5.72917 5.72917" fill="none" fill-rule="evenodd" transform="matrix(-1 0 0 1 3743.16 1338)"/><path d="M0 0 1116.16 0.000360892" stroke="#A6A6A6" stroke-width="5.72917" stroke-miterlimit="8" stroke-dasharray="5.72917 5.72917" fill="none" fill-rule="evenodd" transform="matrix(-1 0 0 1 3711.16 1371)"/><path d="M0 0 1116.16 0.000360892" stroke="#A6A6A6" stroke-width="5.72917" stroke-miterlimit="8" stroke-dasharray="5.72917 5.72917" fill="none" fill-rule="evenodd" transform="matrix(-1 0 0 1 3679.16 1404)"/><path d="M0 0 1116.16 0.000360892" stroke="#A6A6A6" stroke-width="5.72917" stroke-miterlimit="8" stroke-dasharray="5.72917 5.72917" fill="none" fill-rule="evenodd" transform="matrix(-1 0 0 1 3647.16 1437)"/><path d="M0 0 1116.16 0.000360892" stroke="#A6A6A6" stroke-width="5.72917" stroke-miterlimit="8" stroke-dasharray="5.72917 5.72917" fill="none" fill-rule="evenodd" transform="matrix(-1 0 0 1 3612.16 1470)"/><path d="M0 0 1116.16 0.000360892" stroke="#A6A6A6" stroke-width="5.72917" stroke-miterlimit="8" stroke-dasharray="5.72917 5.72917" fill="none" fill-rule="evenodd" transform="matrix(-1 0 0 1 3580.16 1503)"/><path d="M0 0 1116.16 0.000360892" stroke="#A6A6A6" stroke-width="5.72917" stroke-miterlimit="8" stroke-dasharray="5.72917 5.72917" fill="none" fill-rule="evenodd" transform="matrix(-1 0 0 1 3545.16 1536)"/><path d="M0 0 1116.16 0.000360892" stroke="#A6A6A6" stroke-width="5.72917" stroke-miterlimit="8" stroke-dasharray="5.72917 5.72917" fill="none" fill-rule="evenodd" transform="matrix(-1 0 0 1 3513.16 1568)"/><path d="M0 0 1116.16 0.000360892" stroke="#A6A6A6" stroke-width="5.72917" stroke-miterlimit="8" stroke-dasharray="5.72917 5.72917" fill="none" fill-rule="evenodd" transform="matrix(-1 0 0 1 3480.16 1601)"/><path d="M0 0 1116.16 0.000360892" stroke="#A6A6A6" stroke-width="5.72917" stroke-miterlimit="8" stroke-dasharray="5.72917 5.72917" fill="none" fill-rule="evenodd" transform="matrix(-1 0 0 1 3448.16 1634)"/><path d="M0 0 1116.16 0.000360892" stroke="#A6A6A6" stroke-width="5.72917" stroke-miterlimit="8" stroke-dasharray="5.72917 5.72917" fill="none" fill-rule="evenodd" transform="matrix(-1 0 0 1 3413.16 1667)"/><path d="M0 0 1112.12 0.000360892" stroke="#A6A6A6" stroke-width="5.72917" stroke-miterlimit="8" stroke-dasharray="5.72917 5.72917" fill="none" fill-rule="evenodd" transform="matrix(-1 0 0 1 4166.12 914)"/><path d="M0 0 1114.35 0.000360892" stroke="#A6A6A6" stroke-width="5.72917" stroke-miterlimit="8" stroke-dasharray="5.72917 5.72917" fill="none" fill-rule="evenodd" transform="matrix(-1 0 0 1 4134.35 946)"/><path d="M0 0 1116.16 0.000360892" stroke="#A6A6A6" stroke-width="5.72917" stroke-miterlimit="8" stroke-dasharray="5.72917 5.72917" fill="none" fill-rule="evenodd" transform="matrix(-1 0 0 1 4102.16 979)"/><path d="M0 0 495.337 0.000360892" stroke="url(#stroke25)" stroke-width="13.75" stroke-miterlimit="8" fill="none" fill-rule="evenodd" transform="matrix(-1 0 0 1 3937.34 1308)"/><path d="M0 0 495.337 0.000360892" stroke="url(#stroke26)" stroke-width="13.75" stroke-miterlimit="8" fill="none" fill-rule="evenodd" transform="matrix(-1 0 0 1 3932.34 1346)"/><path d="M0 0 495.337 0.000360892" stroke="url(#stroke27)" stroke-width="13.75" stroke-miterlimit="8" fill="none" fill-rule="evenodd" transform="matrix(-1 0 0 1 3917.34 1385)"/><path d="M0 0 495.337 0.000360892" stroke="url(#stroke28)" stroke-width="13.75" stroke-miterlimit="8" fill="none" fill-rule="evenodd" transform="matrix(-1 0 0 1 3894.34 1423)"/><path d="M0 0 495.337 0.000360892" stroke="url(#stroke29)" stroke-width="13.75" stroke-miterlimit="8" fill="none" fill-rule="evenodd" transform="matrix(-1 0 0 1 3858.34 1461)"/><path d="M0 0 495.337 0.000360892" stroke="url(#stroke30)" stroke-width="13.75" stroke-miterlimit="8" fill="none" fill-rule="evenodd" transform="matrix(-1 0 0 1 3798.34 1499)"/><path d="M3935.34 1268 3440 1268" stroke="url(#stroke31)" stroke-width="13.75" stroke-miterlimit="8" fill="none" fill-rule="evenodd"/><path d="M3928.34 1230 3433 1230" stroke="url(#stroke32)" stroke-width="13.75" stroke-miterlimit="8" fill="none" fill-rule="evenodd"/><path d="M3913.34 1191 3418 1191" stroke="url(#stroke33)" stroke-width="13.75" stroke-miterlimit="8" fill="none" fill-rule="evenodd"/><path d="M3888.34 1153 3393 1153" stroke="url(#stroke34)" stroke-width="13.75" stroke-miterlimit="8" fill="none" fill-rule="evenodd"/><path d="M3852.34 1115 3357 1115" stroke="url(#stroke35)" stroke-width="13.75" stroke-miterlimit="8" fill="none" fill-rule="evenodd"/><path d="M3791.34 1077 3296 1077" stroke="url(#stroke36)" stroke-width="13.75" stroke-miterlimit="8" fill="none" fill-rule="evenodd"/><path d="M3441.32 1263.4C3441.44 1265.21 3451.26 1275.58 3451.33 1277.38 3452.36 1303.93 3448.71 1329.88 3441.01 1354.29 3440.74 1355.14 3431.59 1361.44 3431.31 1362.29 3427.73 1373.19 3424.78 1378.27 3420.69 1385.34 3416.14 1393.23 3412.95 1399.79 3405.22 1410.21 3404.75 1410.85 3405.69 1422.84 3405.21 1423.47 3372.78 1466.26 3325.15 1497.8 3268.34 1509.09 3232.14 1516.29 3196.23 1514.46 3162.96 1505.16 3162.27 1504.97 3149.54 1491.83 3148.91 1491.51 3121 1477.25 3110.67 1471.78 3087.63 1453.59 3069.72 1439.44 3059.45 1428.72 3046.38 1409.61 3045.89 1408.88 3035.15 1412.89 3034.67 1412.16 3018.6 1388.08 3006.9 1360.51 3000.91 1330.35 2996.83 1309.85 2995.65 1289.43 2997.08 1269.55 2997.2 1267.9 3003.61 1266.56 3003.76 1264.92 3006.22 1238.74 3012.17 1215.23 3023.02 1191.97 3035.74 1164.73 3052.92 1141.93 3075.2 1121.59 3076.62 1120.3 3073.67 1115.25 3075.12 1113.99 3103.97 1088.97 3139.53 1070.89 3179.66 1062.91 3233.01 1052.3 3285.7 1061.29 3330.3 1084.9 3332.62 1086.13 3326.81 1095.26 3329.09 1096.57 3361.72 1115.31 3389.09 1138.83 3409.17 1171.49 3422.93 1193.87 3440.69 1253.35 3441.32 1263.4Z" stroke="#000000" stroke-width="11.4583" stroke-miterlimit="8" fill="#2F5597" fill-rule="evenodd"/><path d="M3034.44 1411.78C3064.74 1457.34 3110.62 1490.44 3163 1505 3155.83 1489.74 3140.43 1467.09 3141.84 1435.92 3143.58 1397.73 3168.83 1385.41 3160.02 1354.04 3159.08 1350.69 3152.36 1327.94 3132.75 1317.64 3116.95 1309.34 3105.48 1308.54 3087.3 1308.54 3080.09 1308.54 3044.94 1314.91 3041.85 1299.44 3036.44 1272.33 3107.5 1230.21 3100.94 1208.46 3096.63 1194.19 3068.25 1192.37 3069.12 1185.72 3069.87 1180.06 3090.11 1183.05 3110.03 1172.07 3129.04 1161.58 3146.66 1138.98 3141.84 1126.58 3136.87 1113.76 3106.91 1109.13 3075.04 1113.74 3030.05 1152.75 3001.36 1208.65 2997 1269.38 3006.59 1273.26 3015.96 1279.27 3023.67 1290.35 3041.07 1315.32 3039.2 1350.44 3037.31 1385.88 3036.68 1397.64 3035.55 1405.68 3034.44 1411.78Z" stroke="#000000" stroke-width="10.3125" stroke-miterlimit="8" fill="#548235" fill-rule="evenodd"/><path d="M3447.26 1242.31C3433.33 1172.37 3388.62 1116.37 3329.99 1085.5 3290.46 1090.97 3248.89 1099.32 3219.26 1109.28 3178.01 1123.14 3183.29 1148.46 3184.22 1150.18 3194.5 1169.14 3234.64 1159.51 3238.91 1172.92 3241.99 1182.59 3221.64 1189.23 3211.57 1213.85 3204.04 1232.23 3202.66 1259.6 3216.12 1272.97 3231.11 1287.85 3252.79 1273.76 3275.37 1282.07 3319.85 1298.44 3305.64 1407.73 3324.07 1409.43 3341.04 1411 3366.89 1385.86 3383.32 1336.67 3396.99 1295.74 3380.97 1278.97 3393.86 1268.42 3407.76 1257.04 3432.51 1276.11 3451.5 1278.22 3451.04 1266.34 3449.66 1254.34 3447.26 1242.31Z" stroke="#000000" stroke-width="11.4583" stroke-miterlimit="8" fill="#548235" fill-rule="evenodd"/><path d="M3402.1 1375.87C3393.08 1392.2 3397.23 1411.06 3405.24 1423 3420.96 1402.3 3433.11 1378.96 3441 1354 3426.82 1354.34 3410.56 1360.55 3402.1 1375.87Z" stroke="#000000" stroke-width="10.3125" stroke-miterlimit="8" fill="#548235" fill-rule="evenodd"/><path d="M9.60055e-06-13.1771 429.452-13.1768 429.452 13.1774-9.60055e-06 13.1771ZM416.275-39.5309 495.337 0.000360892 416.275 39.5316Z" transform="matrix(-1 0 0 1 2909.34 1286)"/><text font-family="Calibri,Calibri_MSFontService,sans-serif" font-weight="700" font-size="73" transform="matrix(1 0 0 1 3154.01 837)">Earth moving relative to aether</text></g></svg>