<svg width="4401" height="2470" xmlns="http://www.w3.org/2000/svg" xmlns:xlink="http://www.w3.org/1999/xlink" xml:space="preserve" overflow="hidden"><defs><clipPath id="clip0"><rect x="-1" y="5" width="4401" height="2470"/></clipPath><linearGradient x1="2200" y1="5.00016" x2="2200" y2="1204" gradientUnits="userSpaceOnUse" spreadMethod="reflect" id="fill1"><stop offset="0" stop-color="#D9D9D9"/><stop offset="0.22" stop-color="#A6A6A6"/><stop offset="0.92" stop-color="#BFBFBF"/><stop offset="1" stop-color="#0D0D0D"/></linearGradient><linearGradient x1="2199" y1="1276" x2="2199" y2="2475" gradientUnits="userSpaceOnUse" spreadMethod="reflect" id="fill2"><stop offset="0" stop-color="#D9D9D9"/><stop offset="0.22" stop-color="#A6A6A6"/><stop offset="0.92" stop-color="#BFBFBF"/><stop offset="1" stop-color="#0D0D0D"/></linearGradient><linearGradient x1="2659.5" y1="321.5" x2="2789.47" y2="321.5" gradientUnits="userSpaceOnUse" spreadMethod="reflect" id="stroke3"><stop offset="0" stop-color="#A6A6A6" stop-opacity="0"/><stop offset="0.09" stop-color="#A6A6A6"/><stop offset="0.81" stop-color="#262626"/><stop offset="1"/></linearGradient><linearGradient x1="2661.5" y1="331.5" x2="2791.47" y2="331.5" gradientUnits="userSpaceOnUse" spreadMethod="reflect" id="stroke4"><stop offset="0" stop-color="#A6A6A6" stop-opacity="0"/><stop offset="0.09" stop-color="#A6A6A6"/><stop offset="0.81" stop-color="#262626"/><stop offset="1"/></linearGradient><linearGradient x1="2664.5" y1="340.5" x2="2794.47" y2="340.5" gradientUnits="userSpaceOnUse" spreadMethod="reflect" id="stroke5"><stop offset="0" stop-color="#A6A6A6" stop-opacity="0"/><stop offset="0.09" stop-color="#A6A6A6"/><stop offset="0.81" stop-color="#262626"/><stop offset="1"/></linearGradient><linearGradient x1="2670.5" y1="350.5" x2="2800.47" y2="350.5" gradientUnits="userSpaceOnUse" spreadMethod="reflect" id="stroke6"><stop offset="0" stop-color="#A6A6A6" stop-opacity="0"/><stop offset="0.09" stop-color="#A6A6A6"/><stop offset="0.81" stop-color="#262626"/><stop offset="1"/></linearGradient><linearGradient x1="2679.5" y1="359.5" x2="2809.47" y2="359.5" gradientUnits="userSpaceOnUse" spreadMethod="reflect" id="stroke7"><stop offset="0" stop-color="#A6A6A6" stop-opacity="0"/><stop offset="0.09" stop-color="#A6A6A6"/><stop offset="0.81" stop-color="#262626"/><stop offset="1"/></linearGradient><linearGradient x1="2694.5" y1="369.5" x2="2824.47" y2="369.5" gradientUnits="userSpaceOnUse" spreadMethod="reflect" id="stroke8"><stop offset="0" stop-color="#A6A6A6" stop-opacity="0"/><stop offset="0.09" stop-color="#A6A6A6"/><stop offset="0.81" stop-color="#262626"/><stop offset="1"/></linearGradient><linearGradient x1="-1.66423e-05" y1="0.000180446" x2="129.967" y2="0.000180446" gradientUnits="userSpaceOnUse" spreadMethod="reflect" id="stroke9"><stop offset="0" stop-color="#A6A6A6" stop-opacity="0"/><stop offset="0.09" stop-color="#A6A6A6"/><stop offset="0.81" stop-color="#262626"/><stop offset="1"/></linearGradient><linearGradient x1="-1.66423e-05" y1="0.000180446" x2="129.967" y2="0.000180446" gradientUnits="userSpaceOnUse" spreadMethod="reflect" id="stroke10"><stop offset="0" stop-color="#A6A6A6" stop-opacity="0"/><stop offset="0.09" stop-color="#A6A6A6"/><stop offset="0.81" stop-color="#262626"/><stop offset="1"/></linearGradient><linearGradient x1="-1.66423e-05" y1="0.000180446" x2="129.967" y2="0.000180446" gradientUnits="userSpaceOnUse" spreadMethod="reflect" id="stroke11"><stop offset="0" stop-color="#A6A6A6" stop-opacity="0"/><stop offset="0.09" stop-color="#A6A6A6"/><stop offset="0.81" stop-color="#262626"/><stop offset="1"/></linearGradient><linearGradient x1="-1.66423e-05" y1="0.000180446" x2="129.967" y2="0.000180446" gradientUnits="userSpaceOnUse" spreadMethod="reflect" id="stroke12"><stop offset="0" stop-color="#A6A6A6" stop-opacity="0"/><stop offset="0.09" stop-color="#A6A6A6"/><stop offset="0.81" stop-color="#262626"/><stop offset="1"/></linearGradient><linearGradient x1="-1.66423e-05" y1="0.000180446" x2="129.967" y2="0.000180446" gradientUnits="userSpaceOnUse" spreadMethod="reflect" id="stroke13"><stop offset="0" stop-color="#A6A6A6" stop-opacity="0"/><stop offset="0.09" stop-color="#A6A6A6"/><stop offset="0.81" stop-color="#262626"/><stop offset="1"/></linearGradient><linearGradient x1="-1.66423e-05" y1="0.000180446" x2="129.967" y2="0.000180446" gradientUnits="userSpaceOnUse" spreadMethod="reflect" id="stroke14"><stop offset="0" stop-color="#A6A6A6" stop-opacity="0"/><stop offset="0.09" stop-color="#A6A6A6"/><stop offset="0.81" stop-color="#262626"/><stop offset="1"/></linearGradient><linearGradient x1="2526" y1="1583" x2="2777.87" y2="1583" gradientUnits="userSpaceOnUse" spreadMethod="reflect" id="stroke15"><stop offset="0" stop-color="#A6A6A6"/><stop offset="0.13" stop-color="#AFABAB"/><stop offset="0.81" stop-color="#262626"/><stop offset="1"/></linearGradient><linearGradient x1="2528" y1="1593" x2="2779.87" y2="1593" gradientUnits="userSpaceOnUse" spreadMethod="reflect" id="stroke16"><stop offset="0" stop-color="#A6A6A6"/><stop offset="0.13" stop-color="#AFABAB"/><stop offset="0.81" stop-color="#262626"/><stop offset="1"/></linearGradient><linearGradient x1="2536" y1="1602" x2="2787.87" y2="1602" gradientUnits="userSpaceOnUse" spreadMethod="reflect" id="stroke17"><stop offset="0" stop-color="#A6A6A6"/><stop offset="0.13" stop-color="#AFABAB"/><stop offset="0.81" stop-color="#262626"/><stop offset="1"/></linearGradient><linearGradient x1="2547" y1="1612" x2="2798.87" y2="1612" gradientUnits="userSpaceOnUse" spreadMethod="reflect" id="stroke18"><stop offset="0" stop-color="#A6A6A6"/><stop offset="0.13" stop-color="#AFABAB"/><stop offset="0.81" stop-color="#262626"/><stop offset="1"/></linearGradient><linearGradient x1="2565" y1="1622" x2="2816.87" y2="1622" gradientUnits="userSpaceOnUse" spreadMethod="reflect" id="stroke19"><stop offset="0" stop-color="#A6A6A6"/><stop offset="0.13" stop-color="#AFABAB"/><stop offset="0.81" stop-color="#262626"/><stop offset="1"/></linearGradient><linearGradient x1="2595" y1="1631" x2="2846.87" y2="1631" gradientUnits="userSpaceOnUse" spreadMethod="reflect" id="stroke20"><stop offset="0" stop-color="#A6A6A6"/><stop offset="0.13" stop-color="#AFABAB"/><stop offset="0.81" stop-color="#262626"/><stop offset="1"/></linearGradient><linearGradient x1="-7.54244e-06" y1="0.000180446" x2="251.874" y2="0.000180446" gradientUnits="userSpaceOnUse" spreadMethod="reflect" id="stroke21"><stop offset="0" stop-color="#A6A6A6"/><stop offset="0.13" stop-color="#AFABAB"/><stop offset="0.81" stop-color="#262626"/><stop offset="1"/></linearGradient><linearGradient x1="-7.54244e-06" y1="0.000180446" x2="251.874" y2="0.000180446" gradientUnits="userSpaceOnUse" spreadMethod="reflect" id="stroke22"><stop offset="0" stop-color="#A6A6A6"/><stop offset="0.13" stop-color="#AFABAB"/><stop offset="0.81" stop-color="#262626"/><stop offset="1"/></linearGradient><linearGradient x1="-7.54244e-06" y1="0.000180446" x2="251.874" y2="0.000180446" gradientUnits="userSpaceOnUse" spreadMethod="reflect" id="stroke23"><stop offset="0" stop-color="#A6A6A6"/><stop offset="0.13" stop-color="#AFABAB"/><stop offset="0.81" stop-color="#262626"/><stop offset="1"/></linearGradient><linearGradient x1="-7.54244e-06" y1="0.000180446" x2="251.874" y2="0.000180446" gradientUnits="userSpaceOnUse" spreadMethod="reflect" id="stroke24"><stop offset="0" stop-color="#A6A6A6"/><stop offset="0.13" stop-color="#AFABAB"/><stop offset="0.81" stop-color="#262626"/><stop offset="1"/></linearGradient><linearGradient x1="-7.54244e-06" y1="0.000180446" x2="251.874" y2="0.000180446" gradientUnits="userSpaceOnUse" spreadMethod="reflect" id="stroke25"><stop offset="0" stop-color="#A6A6A6"/><stop offset="0.13" stop-color="#AFABAB"/><stop offset="0.81" stop-color="#262626"/><stop offset="1"/></linearGradient><linearGradient x1="-7.54244e-06" y1="0.000180446" x2="251.874" y2="0.000180446" gradientUnits="userSpaceOnUse" spreadMethod="reflect" id="stroke26"><stop offset="0" stop-color="#A6A6A6"/><stop offset="0.13" stop-color="#AFABAB"/><stop offset="0.81" stop-color="#262626"/><stop offset="1"/></linearGradient><linearGradient x1="1031" y1="2069" x2="1518.2" y2="2069" gradientUnits="userSpaceOnUse" spreadMethod="reflect" id="stroke27"><stop offset="0" stop-color="#A6A6A6" stop-opacity="0"/><stop offset="0.28" stop-color="#767171"/><stop offset="0.81" stop-color="#262626"/><stop offset="1"/></linearGradient><linearGradient x1="1036" y1="2089" x2="1523.21" y2="2089" gradientUnits="userSpaceOnUse" spreadMethod="reflect" id="stroke28"><stop offset="0" stop-color="#A6A6A6" stop-opacity="0"/><stop offset="0.28" stop-color="#767171"/><stop offset="0.81" stop-color="#262626"/><stop offset="1"/></linearGradient><linearGradient x1="1051" y1="2109" x2="1538.2" y2="2109" gradientUnits="userSpaceOnUse" spreadMethod="reflect" id="stroke29"><stop offset="0" stop-color="#A6A6A6" stop-opacity="0"/><stop offset="0.28" stop-color="#767171"/><stop offset="0.81" stop-color="#262626"/><stop offset="1"/></linearGradient><linearGradient x1="1073" y1="2130" x2="1560.2" y2="2130" gradientUnits="userSpaceOnUse" spreadMethod="reflect" id="stroke30"><stop offset="0" stop-color="#A6A6A6" stop-opacity="0"/><stop offset="0.28" stop-color="#767171"/><stop offset="0.81" stop-color="#262626"/><stop offset="1"/></linearGradient><linearGradient x1="1108" y1="2150" x2="1595.2" y2="2150" gradientUnits="userSpaceOnUse" spreadMethod="reflect" id="stroke31"><stop offset="0" stop-color="#A6A6A6" stop-opacity="0"/><stop offset="0.28" stop-color="#767171"/><stop offset="0.81" stop-color="#262626"/><stop offset="1"/></linearGradient><linearGradient x1="1166" y1="2170" x2="1653.2" y2="2170" gradientUnits="userSpaceOnUse" spreadMethod="reflect" id="stroke32"><stop offset="0" stop-color="#A6A6A6" stop-opacity="0"/><stop offset="0.28" stop-color="#767171"/><stop offset="0.81" stop-color="#262626"/><stop offset="1"/></linearGradient><linearGradient x1="-3.8603e-06" y1="0.000180446" x2="487.205" y2="0.000180446" gradientUnits="userSpaceOnUse" spreadMethod="reflect" id="stroke33"><stop offset="0" stop-color="#A6A6A6" stop-opacity="0"/><stop offset="0.28" stop-color="#767171"/><stop offset="0.81" stop-color="#262626"/><stop offset="1"/></linearGradient><linearGradient x1="-3.8603e-06" y1="0.000180446" x2="487.205" y2="0.000180446" gradientUnits="userSpaceOnUse" spreadMethod="reflect" id="stroke34"><stop offset="0" stop-color="#A6A6A6" stop-opacity="0"/><stop offset="0.28" stop-color="#767171"/><stop offset="0.81" stop-color="#262626"/><stop offset="1"/></linearGradient><linearGradient x1="-3.8603e-06" y1="0.000180446" x2="487.205" y2="0.000180446" gradientUnits="userSpaceOnUse" spreadMethod="reflect" id="stroke35"><stop offset="0" stop-color="#A6A6A6" stop-opacity="0"/><stop offset="0.28" stop-color="#767171"/><stop offset="0.81" stop-color="#262626"/><stop offset="1"/></linearGradient><linearGradient x1="-3.8603e-06" y1="0.000180446" x2="487.205" y2="0.000180446" gradientUnits="userSpaceOnUse" spreadMethod="reflect" id="stroke36"><stop offset="0" stop-color="#A6A6A6" stop-opacity="0"/><stop offset="0.28" stop-color="#767171"/><stop offset="0.81" stop-color="#262626"/><stop offset="1"/></linearGradient><linearGradient x1="-3.8603e-06" y1="0.000180446" x2="487.205" y2="0.000180446" gradientUnits="userSpaceOnUse" spreadMethod="reflect" id="stroke37"><stop offset="0" stop-color="#A6A6A6" stop-opacity="0"/><stop offset="0.28" stop-color="#767171"/><stop offset="0.81" stop-color="#262626"/><stop offset="1"/></linearGradient><linearGradient x1="-3.8603e-06" y1="0.000180446" x2="487.205" y2="0.000180446" gradientUnits="userSpaceOnUse" spreadMethod="reflect" id="stroke38"><stop offset="0" stop-color="#A6A6A6" stop-opacity="0"/><stop offset="0.28" stop-color="#767171"/><stop offset="0.81" stop-color="#262626"/><stop offset="1"/></linearGradient><linearGradient x1="1016" y1="2292" x2="1503.2" y2="2292" gradientUnits="userSpaceOnUse" spreadMethod="reflect" id="stroke39"><stop offset="0" stop-color="#A6A6A6" stop-opacity="0"/><stop offset="0.55" stop-color="#767171"/><stop offset="0.81" stop-color="#262626"/><stop offset="1"/></linearGradient><linearGradient x1="1021" y1="2308" x2="1508.2" y2="2308" gradientUnits="userSpaceOnUse" spreadMethod="reflect" id="stroke40"><stop offset="0" stop-color="#A6A6A6" stop-opacity="0"/><stop offset="0.55" stop-color="#767171"/><stop offset="0.81" stop-color="#262626"/><stop offset="1"/></linearGradient><linearGradient x1="1036" y1="2324" x2="1523.2" y2="2324" gradientUnits="userSpaceOnUse" spreadMethod="reflect" id="stroke41"><stop offset="0" stop-color="#A6A6A6" stop-opacity="0"/><stop offset="0.55" stop-color="#767171"/><stop offset="0.81" stop-color="#262626"/><stop offset="1"/></linearGradient><linearGradient x1="1058" y1="2340" x2="1545.2" y2="2340" gradientUnits="userSpaceOnUse" spreadMethod="reflect" id="stroke42"><stop offset="0" stop-color="#A6A6A6" stop-opacity="0"/><stop offset="0.55" stop-color="#767171"/><stop offset="0.81" stop-color="#262626"/><stop offset="1"/></linearGradient><linearGradient x1="-3.8603e-06" y1="0.000180446" x2="487.205" y2="0.000180446" gradientUnits="userSpaceOnUse" spreadMethod="reflect" id="stroke43"><stop offset="0" stop-color="#A6A6A6" stop-opacity="0"/><stop offset="0.55" stop-color="#767171"/><stop offset="0.81" stop-color="#262626"/><stop offset="1"/></linearGradient><linearGradient x1="-3.8603e-06" y1="0.000180446" x2="487.205" y2="0.000180446" gradientUnits="userSpaceOnUse" spreadMethod="reflect" id="stroke44"><stop offset="0" stop-color="#A6A6A6" stop-opacity="0"/><stop offset="0.55" stop-color="#767171"/><stop offset="0.81" stop-color="#262626"/><stop offset="1"/></linearGradient><linearGradient x1="-3.8603e-06" y1="0.000180446" x2="487.205" y2="0.000180446" gradientUnits="userSpaceOnUse" spreadMethod="reflect" id="stroke45"><stop offset="0" stop-color="#A6A6A6" stop-opacity="0"/><stop offset="0.55" stop-color="#767171"/><stop offset="0.81" stop-color="#262626"/><stop offset="1"/></linearGradient><linearGradient x1="-3.8603e-06" y1="0.000180446" x2="487.205" y2="0.000180446" gradientUnits="userSpaceOnUse" spreadMethod="reflect" id="stroke46"><stop offset="0" stop-color="#A6A6A6" stop-opacity="0"/><stop offset="0.55" stop-color="#767171"/><stop offset="0.81" stop-color="#262626"/><stop offset="1"/></linearGradient></defs><g clip-path="url(#clip0)" transform="translate(1 -5)"><rect x="0" y="5.00016" width="4400" height="1199" fill="url(#fill1)"/><rect x="-1.00003" y="1276" width="4400" height="1199" fill="url(#fill2)"/><path d="M2209.67 493.861C2203.75 588.96 2121.81 661.374 2026.67 655.452 1931.48 649.527 1859.2 567.52 1865.12 472.415 1871.04 377.271 1952.93 304.854 2048.12 310.779 2143.27 316.702 2215.59 398.717 2209.67 493.861L2161.43 490.858C2165.69 422.366 2113.6 363.361 2045.11 359.098 1976.62 354.835 1917.61 406.925 1913.35 475.417 1909.09 543.871 1961.18 602.87 2029.67 607.133 2098.16 611.396 2157.17 559.3 2161.43 490.858L2209.67 493.861Z" fill-rule="evenodd"/><path d="M2487.25 248.967C2469.77 267.468 2447.98 266.111 2447.98 266.111L1874.3 242.964C1821.97 241.518 1809.88 282.417 1807.23 305.821 1802.71 298.114 1794.55 292.783 1785.04 292.191 1769.71 291.237 1756.56 302.843 1755.6 318.218 1754.65 333.503 1766.26 346.564 1781.59 347.519 1792.3 348.185 1801.93 342.638 1807.07 334.071 1808.63 348.806 1814.21 373.474 1833.56 387.855L1729.13 536.117 1675.36 538.118 1676.45 520.499 1606.02 521.158 1607.53 616.946 1775.04 606.9 1874.85 463.213 1926.15 395.7 1952.21 393.961 2003.85 452.451C1999.67 457.019 1996.43 462.335 1994.37 468.444L1895.65 462.299 1894.56 479.795 1992.04 485.862C1992.44 492.917 1994.33 499.572 1997.67 505.536L1925.33 569.35 1936.9 582.454 2008.96 518.793C2014.44 523.158 2020.97 526.128 2028.09 527.675L2022.09 624.099 2039.48 625.182 2045.54 527.924C2052.2 526.748 2058.39 524.037 2063.71 520.214L2129.18 594.41 2142.24 582.84 2075.67 507.635C2078.9 502.758 2081 497.309 2082.07 491.449L2183.95 497.79 2185.04 480.301 2081.93 473.883C2080.88 468.69 2079.02 463.751 2076.34 459.34L2154.2 390.606 2146.03 381.256 2449.05 361.38C2449.05 361.38 2470.71 359.456 2488.68 379.722L2487.25 248.967ZM2036.75 388.429 2033.68 437.763C2028.08 438.343 2022.77 439.784 2017.89 442.129L1974.19 392.538 2036.75 388.429ZM2064.58 446.45C2060.52 443.498 2055.93 441.225 2051.03 439.68L2054.29 387.217 2137.8 381.803 2064.58 446.45Z" fill-rule="evenodd"/><path d="M2659.5 321.5 2783.74 321.5" stroke="url(#stroke3)" stroke-width="11.4583" stroke-miterlimit="8" fill="none" fill-rule="evenodd"/><path d="M2661.5 331.5 2785.74 331.5" stroke="url(#stroke4)" stroke-width="11.4583" stroke-miterlimit="8" fill="none" fill-rule="evenodd"/><path d="M2664.5 340.5 2788.74 340.501" stroke="url(#stroke5)" stroke-width="11.4583" stroke-miterlimit="8" fill="none" fill-rule="evenodd"/><path d="M2670.5 350.5 2794.74 350.5" stroke="url(#stroke6)" stroke-width="11.4583" stroke-miterlimit="8" fill="none" fill-rule="evenodd"/><path d="M2679.5 359.5 2803.74 359.5" stroke="url(#stroke7)" stroke-width="11.4583" stroke-miterlimit="8" fill="none" fill-rule="evenodd"/><path d="M2694.5 369.5 2818.74 369.5" stroke="url(#stroke8)" stroke-width="11.4583" stroke-miterlimit="8" fill="none" fill-rule="evenodd"/><path d="M0 0 124.238 0.000360892" stroke="url(#stroke9)" stroke-width="11.4583" stroke-miterlimit="8" fill="none" fill-rule="evenodd" transform="matrix(1 -1.22465e-16 -1.22465e-16 -1 2660.5 311.5)"/><path d="M0 0 124.238 0.000360892" stroke="url(#stroke10)" stroke-width="11.4583" stroke-miterlimit="8" fill="none" fill-rule="evenodd" transform="matrix(1 -1.22465e-16 -1.22465e-16 -1 2662.5 301.5)"/><path d="M0 0 124.238 0.000360892" stroke="url(#stroke11)" stroke-width="11.4583" stroke-miterlimit="8" fill="none" fill-rule="evenodd" transform="matrix(1 -1.22465e-16 -1.22465e-16 -1 2665.5 292.5)"/><path d="M0 0 124.238 0.000360892" stroke="url(#stroke12)" stroke-width="11.4583" stroke-miterlimit="8" fill="none" fill-rule="evenodd" transform="matrix(1 -1.22465e-16 -1.22465e-16 -1 2672.5 282.5)"/><path d="M0 0 124.238 0.000360892" stroke="url(#stroke13)" stroke-width="11.4583" stroke-miterlimit="8" fill="none" fill-rule="evenodd" transform="matrix(1 -1.22465e-16 -1.22465e-16 -1 2681.5 273.5)"/><path d="M0 0 124.238 0.000360892" stroke="url(#stroke14)" stroke-width="11.4583" stroke-miterlimit="8" fill="none" fill-rule="evenodd" transform="matrix(1 -1.22465e-16 -1.22465e-16 -1 2696.5 263.5)"/><path d="M2759 317C2759 283.311 2786.31 256 2820 256 2853.69 256 2881 283.311 2881 317 2881 350.689 2853.69 378 2820 378 2786.31 378 2759 350.689 2759 317Z" fill="#3B3838" fill-rule="evenodd"/><path d="M1755 1092C1755 1135.08 1720.08 1170 1677 1170 1633.92 1170 1599 1135.08 1599 1092 1599 1048.92 1633.92 1014 1677 1014 1720.08 1014 1755 1048.92 1755 1092Z" fill-rule="evenodd"/><path d="M2559 1090C2559 1133.08 2524.08 1168 2481 1168 2437.92 1168 2403 1133.08 2403 1090 2403 1046.92 2437.92 1012 2481 1012 2524.08 1012 2559 1046.92 2559 1090Z" fill-rule="evenodd"/><path d="M1501 655 2294 655 2294 922 1501 922Z" stroke="#0D0D0D" stroke-width="10.3125" stroke-miterlimit="8" fill-rule="evenodd"/><path d="M2362.43 709.445 2433.57 709.445C2454.91 709.445 2473.89 723.678 2478.63 743.842L2502.34 825.683C2502.34 826.87 2503.53 826.87 2503.53 828.056L2362.43 828.056 2362.43 709.445ZM2433.57 662 2315 662 2315 828.056 2315 899.222 2315 1089 2362.43 1089C2362.43 1023.76 2415.79 970.389 2481 970.389 2546.21 970.389 2599.57 1023.76 2599.57 1089 2625.66 1089 2647 1067.65 2647 1041.56L2647 922.944C2647 907.525 2639.89 894.478 2628.03 884.989L2565.19 837.544C2556.89 831.614 2550.96 822.125 2548.59 812.636L2524.87 730.794C2513.01 690.467 2475.07 662 2433.57 662Z" fill-rule="evenodd"/><path d="M2124 1089 1790.25 1089C1790.25 1027.71 1740.19 977.571 1679 977.571 1617.81 977.571 1567.75 1027.71 1567.75 1089L1501 1089 1501 933 2124 933 2124 1089Z" fill-rule="evenodd"/><path d="M2298 1089 2073 1089C2073 1027.71 2039.25 977.571 1998 977.571 1956.75 977.571 1923 1027.71 1923 1089L1878 1089 1878 933 2298 933 2298 1089Z" fill-rule="evenodd"/><path d="M2526 1583 2772.72 1583" stroke="url(#stroke15)" stroke-width="10.3125" stroke-miterlimit="8" fill="none" fill-rule="evenodd"/><path d="M2528 1593 2774.72 1593" stroke="url(#stroke16)" stroke-width="10.3125" stroke-miterlimit="8" fill="none" fill-rule="evenodd"/><path d="M2536 1602 2782.72 1602" stroke="url(#stroke17)" stroke-width="10.3125" stroke-miterlimit="8" fill="none" fill-rule="evenodd"/><path d="M2547 1612 2793.72 1612" stroke="url(#stroke18)" stroke-width="10.3125" stroke-miterlimit="8" fill="none" fill-rule="evenodd"/><path d="M2565 1622 2811.72 1622" stroke="url(#stroke19)" stroke-width="10.3125" stroke-miterlimit="8" fill="none" fill-rule="evenodd"/><path d="M2595 1631 2841.72 1631" stroke="url(#stroke20)" stroke-width="10.3125" stroke-miterlimit="8" fill="none" fill-rule="evenodd"/><path d="M0 0 246.718 0.000360892" stroke="url(#stroke21)" stroke-width="10.3125" stroke-miterlimit="8" fill="none" fill-rule="evenodd" transform="matrix(1 -1.22465e-16 -1.22465e-16 -1 2526 1573)"/><path d="M0 0 246.718 0.000360892" stroke="url(#stroke22)" stroke-width="10.3125" stroke-miterlimit="8" fill="none" fill-rule="evenodd" transform="matrix(1 -1.22465e-16 -1.22465e-16 -1 2530 1564)"/><path d="M0 0 246.718 0.000360892" stroke="url(#stroke23)" stroke-width="10.3125" stroke-miterlimit="8" fill="none" fill-rule="evenodd" transform="matrix(1 -1.22465e-16 -1.22465e-16 -1 2537 1554)"/><path d="M0 0 246.718 0.000360892" stroke="url(#stroke24)" stroke-width="10.3125" stroke-miterlimit="8" fill="none" fill-rule="evenodd" transform="matrix(1 -1.22465e-16 -1.22465e-16 -1 2550 1544)"/><path d="M0 0 246.718 0.000360892" stroke="url(#stroke25)" stroke-width="10.3125" stroke-miterlimit="8" fill="none" fill-rule="evenodd" transform="matrix(1 -1.22465e-16 -1.22465e-16 -1 2568 1535)"/><path d="M0 0 246.718 0.000360892" stroke="url(#stroke26)" stroke-width="10.3125" stroke-miterlimit="8" fill="none" fill-rule="evenodd" transform="matrix(1 -1.22465e-16 -1.22465e-16 -1 2598 1525)"/><path d="M2770 1579C2770 1545.31 2797.31 1518 2831 1518 2864.69 1518 2892 1545.31 2892 1579 2892 1612.69 2864.69 1640 2831 1640 2797.31 1640 2770 1612.69 2770 1579Z" fill="#3B3838" fill-rule="evenodd"/><path d="M2209.67 1763.9C2203.75 1859 2121.81 1931.42 2026.67 1925.49 1931.48 1919.57 1859.2 1837.56 1865.12 1742.46 1871.04 1647.31 1952.93 1574.9 2048.12 1580.82 2143.27 1586.74 2215.59 1668.76 2209.67 1763.9L2161.43 1760.9C2165.69 1692.41 2113.6 1633.4 2045.11 1629.14 1976.62 1624.88 1917.61 1676.97 1913.35 1745.46 1909.09 1813.91 1961.18 1872.91 2029.67 1877.18 2098.16 1881.44 2157.17 1829.34 2161.43 1760.9L2209.67 1763.9Z" fill-rule="evenodd"/><path d="M2487.25 1519.01C2469.77 1537.51 2447.98 1536.15 2447.98 1536.15L1874.3 1513.01C1821.97 1511.56 1809.88 1552.46 1807.23 1575.86 1802.71 1568.16 1794.55 1562.83 1785.04 1562.23 1769.71 1561.28 1756.56 1572.89 1755.6 1588.26 1754.65 1603.55 1766.26 1616.61 1781.59 1617.56 1792.3 1618.23 1801.93 1612.68 1807.07 1604.11 1808.63 1618.85 1814.21 1643.52 1833.56 1657.9L1729.13 1806.16 1675.36 1808.16 1676.45 1790.54 1606.02 1791.2 1607.53 1886.99 1775.04 1876.94 1874.85 1733.26 1926.15 1665.74 1952.21 1664 2003.85 1722.49C1999.67 1727.06 1996.43 1732.38 1994.37 1738.49L1895.65 1732.34 1894.56 1749.84 1992.04 1755.91C1992.44 1762.96 1994.33 1769.61 1997.67 1775.58L1925.33 1839.39 1936.9 1852.5 2008.96 1788.84C2014.44 1793.2 2020.97 1796.17 2028.09 1797.72L2022.09 1894.14 2039.48 1895.22 2045.54 1797.97C2052.2 1796.79 2058.39 1794.08 2063.71 1790.26L2129.18 1864.45 2142.24 1852.88 2075.67 1777.68C2078.9 1772.8 2081 1767.35 2082.07 1761.49L2183.95 1767.83 2185.04 1750.34 2081.93 1743.93C2080.88 1738.73 2079.02 1733.79 2076.34 1729.38L2154.2 1660.65 2146.03 1651.3 2449.05 1631.42C2449.05 1631.42 2470.71 1629.5 2488.68 1649.77L2487.25 1519.01ZM2036.75 1658.47 2033.68 1707.81C2028.08 1708.39 2022.77 1709.83 2017.89 1712.17L1974.19 1662.58 2036.75 1658.47ZM2064.58 1716.49C2060.52 1713.54 2055.93 1711.27 2051.03 1709.72L2054.29 1657.26 2137.8 1651.85 2064.58 1716.49Z" fill-rule="evenodd"/><path d="M1031 2069 1513.05 2069" stroke="url(#stroke27)" stroke-width="10.3125" stroke-miterlimit="8" fill="none" fill-rule="evenodd"/><path d="M1036 2089 1518.05 2089" stroke="url(#stroke28)" stroke-width="10.3125" stroke-miterlimit="8" fill="none" fill-rule="evenodd"/><path d="M1051 2109 1533.05 2109" stroke="url(#stroke29)" stroke-width="10.3125" stroke-miterlimit="8" fill="none" fill-rule="evenodd"/><path d="M1073 2130 1555.05 2130" stroke="url(#stroke30)" stroke-width="10.3125" stroke-miterlimit="8" fill="none" fill-rule="evenodd"/><path d="M1108 2150 1590.05 2150" stroke="url(#stroke31)" stroke-width="10.3125" stroke-miterlimit="8" fill="none" fill-rule="evenodd"/><path d="M1166 2170 1648.05 2170" stroke="url(#stroke32)" stroke-width="10.3125" stroke-miterlimit="8" fill="none" fill-rule="evenodd"/><path d="M0 0 482.049 0.000360892" stroke="url(#stroke33)" stroke-width="10.3125" stroke-miterlimit="8" fill="none" fill-rule="evenodd" transform="matrix(1 -1.22465e-16 -1.22465e-16 -1 1033 2047)"/><path d="M0 0 482.049 0.000360892" stroke="url(#stroke34)" stroke-width="10.3125" stroke-miterlimit="8" fill="none" fill-rule="evenodd" transform="matrix(1 -1.22465e-16 -1.22465e-16 -1 1040 2027)"/><path d="M0 0 482.049 0.000360892" stroke="url(#stroke35)" stroke-width="10.3125" stroke-miterlimit="8" fill="none" fill-rule="evenodd" transform="matrix(1 -1.22465e-16 -1.22465e-16 -1 1054 2007)"/><path d="M0 0 482.049 0.000360892" stroke="url(#stroke36)" stroke-width="10.3125" stroke-miterlimit="8" fill="none" fill-rule="evenodd" transform="matrix(1 -1.22465e-16 -1.22465e-16 -1 1078 1986)"/><path d="M0 0 482.049 0.000360892" stroke="url(#stroke37)" stroke-width="10.3125" stroke-miterlimit="8" fill="none" fill-rule="evenodd" transform="matrix(1 -1.22465e-16 -1.22465e-16 -1 1114 1966)"/><path d="M0 0 482.049 0.000360892" stroke="url(#stroke38)" stroke-width="10.3125" stroke-miterlimit="8" fill="none" fill-rule="evenodd" transform="matrix(1 -1.22465e-16 -1.22465e-16 -1 1174 1946)"/><path d="M1509 2060C1509 1988.76 1562.05 1931 1627.5 1931 1692.95 1931 1746 1988.76 1746 2060 1746 2131.24 1692.95 2189 1627.5 2189 1562.05 2189 1509 2131.24 1509 2060Z" fill="#3B3838" fill-rule="evenodd"/><path d="M1016 2292 1498.05 2292" stroke="url(#stroke39)" stroke-width="10.3125" stroke-miterlimit="8" fill="none" fill-rule="evenodd"/><path d="M1021 2308 1503.05 2308" stroke="url(#stroke40)" stroke-width="10.3125" stroke-miterlimit="8" fill="none" fill-rule="evenodd"/><path d="M1036 2324 1518.05 2324" stroke="url(#stroke41)" stroke-width="10.3125" stroke-miterlimit="8" fill="none" fill-rule="evenodd"/><path d="M1058 2340 1540.05 2340" stroke="url(#stroke42)" stroke-width="10.3125" stroke-miterlimit="8" fill="none" fill-rule="evenodd"/><path d="M0 0 482.048 0.000360892" stroke="url(#stroke43)" stroke-width="10.3125" stroke-miterlimit="8" fill="none" fill-rule="evenodd" transform="matrix(1 -1.22465e-16 -1.22465e-16 -1 1018 2275)"/><path d="M0 0 482.048 0.000360892" stroke="url(#stroke44)" stroke-width="10.3125" stroke-miterlimit="8" fill="none" fill-rule="evenodd" transform="matrix(1 -1.22465e-16 -1.22465e-16 -1 1025 2259)"/><path d="M0 0 482.048 0.000360892" stroke="url(#stroke45)" stroke-width="10.3125" stroke-miterlimit="8" fill="none" fill-rule="evenodd" transform="matrix(1 -1.22465e-16 -1.22465e-16 -1 1039 2243)"/><path d="M0 0 482.048 0.000360892" stroke="url(#stroke46)" stroke-width="10.3125" stroke-miterlimit="8" fill="none" fill-rule="evenodd" transform="matrix(1 -1.22465e-16 -1.22465e-16 -1 1063 2227)"/><path d="M1755 2365C1755 2408.08 1720.3 2443 1677.5 2443 1634.7 2443 1600 2408.08 1600 2365 1600 2321.92 1634.7 2287 1677.5 2287 1720.3 2287 1755 2321.92 1755 2365Z" fill-rule="evenodd"/><path d="M2559 2363C2559 2406.08 2524.3 2441 2481.5 2441 2438.7 2441 2404 2406.08 2404 2363 2404 2319.92 2438.7 2285 2481.5 2285 2524.3 2285 2559 2319.92 2559 2363Z" fill-rule="evenodd"/><path d="M1501 1928 2294 1928 2294 2195 1501 2195Z" stroke="#0D0D0D" stroke-width="10.3125" stroke-miterlimit="8" fill-rule="evenodd"/><path d="M2362.43 1982.44 2433.57 1982.44C2454.91 1982.44 2473.89 1996.68 2478.63 2016.84L2502.34 2098.68C2502.34 2099.87 2503.53 2099.87 2503.53 2101.06L2362.43 2101.06 2362.43 1982.44ZM2433.57 1935 2315 1935 2315 2101.06 2315 2172.22 2315 2362 2362.43 2362C2362.43 2296.76 2415.79 2243.39 2481 2243.39 2546.21 2243.39 2599.57 2296.76 2599.57 2362 2625.66 2362 2647 2340.65 2647 2314.56L2647 2195.94C2647 2180.53 2639.89 2167.48 2628.03 2157.99L2565.19 2110.54C2556.89 2104.61 2550.96 2095.12 2548.59 2085.64L2524.87 2003.79C2513.01 1963.47 2475.07 1935 2433.57 1935Z" fill-rule="evenodd"/><path d="M2124 2362 1790.25 2362C1790.25 2300.71 1740.19 2250.57 1679 2250.57 1617.81 2250.57 1567.75 2300.71 1567.75 2362L1501 2362 1501 2206 2124 2206 2124 2362Z" fill-rule="evenodd"/><path d="M2298 2361 2073 2361C2073 2300.11 2039.25 2250.29 1998 2250.29 1956.75 2250.29 1923 2300.11 1923 2361L1878 2361 1878 2206 2298 2206 2298 2361Z" fill-rule="evenodd"/></g></svg>