<svg width="4268" height="2257" xmlns="http://www.w3.org/2000/svg" xmlns:xlink="http://www.w3.org/1999/xlink" xml:space="preserve" overflow="hidden"><defs><clipPath id="clip0"><rect x="107" y="254" width="4268" height="2257"/></clipPath><linearGradient x1="2777" y1="1146" x2="2777" y2="1524.86" gradientUnits="userSpaceOnUse" spreadMethod="reflect" id="stroke1"><stop offset="0" stop-color="#FFFFFF"/><stop offset="0.37" stop-color="#D0CECE"/><stop offset="0.81" stop-color="#262626"/><stop offset="1"/></linearGradient><linearGradient x1="2763" y1="1150" x2="2763" y2="1528.86" gradientUnits="userSpaceOnUse" spreadMethod="reflect" id="stroke2"><stop offset="0" stop-color="#FFFFFF"/><stop offset="0.37" stop-color="#D0CECE"/><stop offset="0.81" stop-color="#262626"/><stop offset="1"/></linearGradient><linearGradient x1="2748" y1="1161" x2="2748" y2="1539.86" gradientUnits="userSpaceOnUse" spreadMethod="reflect" id="stroke3"><stop offset="0" stop-color="#FFFFFF"/><stop offset="0.37" stop-color="#D0CECE"/><stop offset="0.81" stop-color="#262626"/><stop offset="1"/></linearGradient><linearGradient x1="2733" y1="1178" x2="2733" y2="1556.86" gradientUnits="userSpaceOnUse" spreadMethod="reflect" id="stroke4"><stop offset="0" stop-color="#FFFFFF"/><stop offset="0.37" stop-color="#D0CECE"/><stop offset="0.81" stop-color="#262626"/><stop offset="1"/></linearGradient><linearGradient x1="2719" y1="1205" x2="2719" y2="1583.86" gradientUnits="userSpaceOnUse" spreadMethod="reflect" id="stroke5"><stop offset="0" stop-color="#FFFFFF"/><stop offset="0.37" stop-color="#D0CECE"/><stop offset="0.81" stop-color="#262626"/><stop offset="1"/></linearGradient><linearGradient x1="2704" y1="1250" x2="2704" y2="1628.86" gradientUnits="userSpaceOnUse" spreadMethod="reflect" id="stroke6"><stop offset="0" stop-color="#FFFFFF"/><stop offset="0.37" stop-color="#D0CECE"/><stop offset="0.81" stop-color="#262626"/><stop offset="1"/></linearGradient><linearGradient x1="-4.9795e-06" y1="0.000180446" x2="378.859" y2="0.000180446" gradientUnits="userSpaceOnUse" spreadMethod="reflect" id="stroke7"><stop offset="0" stop-color="#FFFFFF"/><stop offset="0.37" stop-color="#D0CECE"/><stop offset="0.81" stop-color="#262626"/><stop offset="1"/></linearGradient><linearGradient x1="-4.9795e-06" y1="0.000180446" x2="378.859" y2="0.000180446" gradientUnits="userSpaceOnUse" spreadMethod="reflect" id="stroke8"><stop offset="0" stop-color="#FFFFFF"/><stop offset="0.37" stop-color="#D0CECE"/><stop offset="0.81" stop-color="#262626"/><stop offset="1"/></linearGradient><linearGradient x1="-4.9795e-06" y1="0.000180446" x2="378.859" y2="0.000180446" gradientUnits="userSpaceOnUse" spreadMethod="reflect" id="stroke9"><stop offset="0" stop-color="#FFFFFF"/><stop offset="0.37" stop-color="#D0CECE"/><stop offset="0.81" stop-color="#262626"/><stop offset="1"/></linearGradient><linearGradient x1="-4.9795e-06" y1="0.000180446" x2="378.859" y2="0.000180446" gradientUnits="userSpaceOnUse" spreadMethod="reflect" id="stroke10"><stop offset="0" stop-color="#FFFFFF"/><stop offset="0.37" stop-color="#D0CECE"/><stop offset="0.81" stop-color="#262626"/><stop offset="1"/></linearGradient><linearGradient x1="-4.9795e-06" y1="0.000180446" x2="378.859" y2="0.000180446" gradientUnits="userSpaceOnUse" spreadMethod="reflect" id="stroke11"><stop offset="0" stop-color="#FFFFFF"/><stop offset="0.37" stop-color="#D0CECE"/><stop offset="0.81" stop-color="#262626"/><stop offset="1"/></linearGradient><linearGradient x1="-4.9795e-06" y1="0.000180446" x2="378.859" y2="0.000180446" gradientUnits="userSpaceOnUse" spreadMethod="reflect" id="stroke12"><stop offset="0" stop-color="#FFFFFF"/><stop offset="0.37" stop-color="#D0CECE"/><stop offset="0.81" stop-color="#262626"/><stop offset="1"/></linearGradient><linearGradient x1="1512" y1="254" x2="1512" y2="402.924" gradientUnits="userSpaceOnUse" spreadMethod="reflect" id="stroke13"><stop offset="0" stop-color="#FFFFFF"/><stop offset="0.37" stop-color="#D0CECE"/><stop offset="0.81" stop-color="#262626"/><stop offset="1"/></linearGradient><linearGradient x1="1497" y1="255" x2="1497" y2="403.924" gradientUnits="userSpaceOnUse" spreadMethod="reflect" id="stroke14"><stop offset="0" stop-color="#FFFFFF"/><stop offset="0.37" stop-color="#D0CECE"/><stop offset="0.81" stop-color="#262626"/><stop offset="1"/></linearGradient><linearGradient x1="1483" y1="260" x2="1483" y2="408.924" gradientUnits="userSpaceOnUse" spreadMethod="reflect" id="stroke15"><stop offset="0" stop-color="#FFFFFF"/><stop offset="0.37" stop-color="#D0CECE"/><stop offset="0.81" stop-color="#262626"/><stop offset="1"/></linearGradient><linearGradient x1="1468" y1="266" x2="1468" y2="414.924" gradientUnits="userSpaceOnUse" spreadMethod="reflect" id="stroke16"><stop offset="0" stop-color="#FFFFFF"/><stop offset="0.37" stop-color="#D0CECE"/><stop offset="0.81" stop-color="#262626"/><stop offset="1"/></linearGradient><linearGradient x1="1454" y1="277" x2="1454" y2="425.924" gradientUnits="userSpaceOnUse" spreadMethod="reflect" id="stroke17"><stop offset="0" stop-color="#FFFFFF"/><stop offset="0.37" stop-color="#D0CECE"/><stop offset="0.81" stop-color="#262626"/><stop offset="1"/></linearGradient><linearGradient x1="1439" y1="294" x2="1439" y2="442.924" gradientUnits="userSpaceOnUse" spreadMethod="reflect" id="stroke18"><stop offset="0" stop-color="#FFFFFF"/><stop offset="0.37" stop-color="#D0CECE"/><stop offset="0.81" stop-color="#262626"/><stop offset="1"/></linearGradient><linearGradient x1="-1.29434e-05" y1="0.000180446" x2="148.925" y2="0.000180446" gradientUnits="userSpaceOnUse" spreadMethod="reflect" id="stroke19"><stop offset="0" stop-color="#FFFFFF"/><stop offset="0.37" stop-color="#D0CECE"/><stop offset="0.81" stop-color="#262626"/><stop offset="1"/></linearGradient><linearGradient x1="-1.29434e-05" y1="0.000180446" x2="148.925" y2="0.000180446" gradientUnits="userSpaceOnUse" spreadMethod="reflect" id="stroke20"><stop offset="0" stop-color="#FFFFFF"/><stop offset="0.37" stop-color="#D0CECE"/><stop offset="0.81" stop-color="#262626"/><stop offset="1"/></linearGradient><linearGradient x1="-1.29434e-05" y1="0.000180446" x2="148.925" y2="0.000180446" gradientUnits="userSpaceOnUse" spreadMethod="reflect" id="stroke21"><stop offset="0" stop-color="#FFFFFF"/><stop offset="0.37" stop-color="#D0CECE"/><stop offset="0.81" stop-color="#262626"/><stop offset="1"/></linearGradient><linearGradient x1="-1.29434e-05" y1="0.000180446" x2="148.925" y2="0.000180446" gradientUnits="userSpaceOnUse" spreadMethod="reflect" id="stroke22"><stop offset="0" stop-color="#FFFFFF"/><stop offset="0.37" stop-color="#D0CECE"/><stop offset="0.81" stop-color="#262626"/><stop offset="1"/></linearGradient><linearGradient x1="-1.29434e-05" y1="0.000180446" x2="148.925" y2="0.000180446" gradientUnits="userSpaceOnUse" spreadMethod="reflect" id="stroke23"><stop offset="0" stop-color="#FFFFFF"/><stop offset="0.37" stop-color="#D0CECE"/><stop offset="0.81" stop-color="#262626"/><stop offset="1"/></linearGradient><linearGradient x1="-1.29434e-05" y1="0.000180446" x2="148.925" y2="0.000180446" gradientUnits="userSpaceOnUse" spreadMethod="reflect" id="stroke24"><stop offset="0" stop-color="#FFFFFF"/><stop offset="0.37" stop-color="#D0CECE"/><stop offset="0.81" stop-color="#262626"/><stop offset="1"/></linearGradient><linearGradient x1="4044" y1="1476" x2="4044" y2="1854.86" gradientUnits="userSpaceOnUse" spreadMethod="reflect" id="stroke25"><stop offset="0" stop-color="#FFFFFF"/><stop offset="0.37" stop-color="#D0CECE"/><stop offset="0.81" stop-color="#262626"/><stop offset="1"/></linearGradient><linearGradient x1="4029" y1="1480" x2="4029" y2="1858.86" gradientUnits="userSpaceOnUse" spreadMethod="reflect" id="stroke26"><stop offset="0" stop-color="#FFFFFF"/><stop offset="0.37" stop-color="#D0CECE"/><stop offset="0.81" stop-color="#262626"/><stop offset="1"/></linearGradient><linearGradient x1="4014" y1="1491" x2="4014" y2="1869.86" gradientUnits="userSpaceOnUse" spreadMethod="reflect" id="stroke27"><stop offset="0" stop-color="#FFFFFF"/><stop offset="0.37" stop-color="#D0CECE"/><stop offset="0.81" stop-color="#262626"/><stop offset="1"/></linearGradient><linearGradient x1="4000" y1="1508" x2="4000" y2="1886.86" gradientUnits="userSpaceOnUse" spreadMethod="reflect" id="stroke28"><stop offset="0" stop-color="#FFFFFF"/><stop offset="0.37" stop-color="#D0CECE"/><stop offset="0.81" stop-color="#262626"/><stop offset="1"/></linearGradient><linearGradient x1="3985" y1="1535" x2="3985" y2="1913.86" gradientUnits="userSpaceOnUse" spreadMethod="reflect" id="stroke29"><stop offset="0" stop-color="#FFFFFF"/><stop offset="0.37" stop-color="#D0CECE"/><stop offset="0.81" stop-color="#262626"/><stop offset="1"/></linearGradient><linearGradient x1="3971" y1="1580" x2="3971" y2="1958.86" gradientUnits="userSpaceOnUse" spreadMethod="reflect" id="stroke30"><stop offset="0" stop-color="#FFFFFF"/><stop offset="0.37" stop-color="#D0CECE"/><stop offset="0.81" stop-color="#262626"/><stop offset="1"/></linearGradient><linearGradient x1="-4.9795e-06" y1="0.000180446" x2="378.859" y2="0.000180446" gradientUnits="userSpaceOnUse" spreadMethod="reflect" id="stroke31"><stop offset="0" stop-color="#FFFFFF"/><stop offset="0.37" stop-color="#D0CECE"/><stop offset="0.81" stop-color="#262626"/><stop offset="1"/></linearGradient><linearGradient x1="-4.9795e-06" y1="0.000180446" x2="378.859" y2="0.000180446" gradientUnits="userSpaceOnUse" spreadMethod="reflect" id="stroke32"><stop offset="0" stop-color="#FFFFFF"/><stop offset="0.37" stop-color="#D0CECE"/><stop offset="0.81" stop-color="#262626"/><stop offset="1"/></linearGradient><linearGradient x1="-4.9795e-06" y1="0.000180446" x2="378.859" y2="0.000180446" gradientUnits="userSpaceOnUse" spreadMethod="reflect" id="stroke33"><stop offset="0" stop-color="#FFFFFF"/><stop offset="0.37" stop-color="#D0CECE"/><stop offset="0.81" stop-color="#262626"/><stop offset="1"/></linearGradient><linearGradient x1="-4.9795e-06" y1="0.000180446" x2="378.859" y2="0.000180446" gradientUnits="userSpaceOnUse" spreadMethod="reflect" id="stroke34"><stop offset="0" stop-color="#FFFFFF"/><stop offset="0.37" stop-color="#D0CECE"/><stop offset="0.81" stop-color="#262626"/><stop offset="1"/></linearGradient><linearGradient x1="-4.9795e-06" y1="0.000180446" x2="378.859" y2="0.000180446" gradientUnits="userSpaceOnUse" spreadMethod="reflect" id="stroke35"><stop offset="0" stop-color="#FFFFFF"/><stop offset="0.37" stop-color="#D0CECE"/><stop offset="0.81" stop-color="#262626"/><stop offset="1"/></linearGradient><linearGradient x1="-4.9795e-06" y1="0.000180446" x2="378.859" y2="0.000180446" gradientUnits="userSpaceOnUse" spreadMethod="reflect" id="stroke36"><stop offset="0" stop-color="#FFFFFF"/><stop offset="0.37" stop-color="#D0CECE"/><stop offset="0.81" stop-color="#262626"/><stop offset="1"/></linearGradient></defs><g clip-path="url(#clip0)" transform="translate(-107 -254)"><path d="M2777 1146 2777 1519.7" stroke="url(#stroke1)" stroke-width="10.3125" stroke-miterlimit="8" fill="none" fill-rule="evenodd"/><path d="M2763 1150 2763 1523.7" stroke="url(#stroke2)" stroke-width="10.3125" stroke-miterlimit="8" fill="none" fill-rule="evenodd"/><path d="M2748 1161 2748 1534.7" stroke="url(#stroke3)" stroke-width="10.3125" stroke-miterlimit="8" fill="none" fill-rule="evenodd"/><path d="M2733 1178 2733 1551.7" stroke="url(#stroke4)" stroke-width="10.3125" stroke-miterlimit="8" fill="none" fill-rule="evenodd"/><path d="M2719 1205 2719 1578.7" stroke="url(#stroke5)" stroke-width="10.3125" stroke-miterlimit="8" fill="none" fill-rule="evenodd"/><path d="M2704 1250 2704 1623.7" stroke="url(#stroke6)" stroke-width="10.3125" stroke-miterlimit="8" fill="none" fill-rule="evenodd"/><path d="M0 0 373.702 0.000360892" stroke="url(#stroke7)" stroke-width="10.3125" stroke-miterlimit="8" fill="none" fill-rule="evenodd" transform="matrix(1.83697e-16 1 1 -1.83697e-16 2792 1147)"/><path d="M0 0 373.702 0.000360892" stroke="url(#stroke8)" stroke-width="10.3125" stroke-miterlimit="8" fill="none" fill-rule="evenodd" transform="matrix(1.83697e-16 1 1 -1.83697e-16 2807 1152)"/><path d="M0 0 373.702 0.000360892" stroke="url(#stroke9)" stroke-width="10.3125" stroke-miterlimit="8" fill="none" fill-rule="evenodd" transform="matrix(1.83697e-16 1 1 -1.83697e-16 2821 1164)"/><path d="M0 0 373.702 0.000360892" stroke="url(#stroke10)" stroke-width="10.3125" stroke-miterlimit="8" fill="none" fill-rule="evenodd" transform="matrix(1.83697e-16 1 1 -1.83697e-16 2836 1182)"/><path d="M0 0 373.702 0.000360892" stroke="url(#stroke11)" stroke-width="10.3125" stroke-miterlimit="8" fill="none" fill-rule="evenodd" transform="matrix(1.83697e-16 1 1 -1.83697e-16 2850 1210)"/><path d="M0 0 373.702 0.000360892" stroke="url(#stroke12)" stroke-width="10.3125" stroke-miterlimit="8" fill="none" fill-rule="evenodd" transform="matrix(1.83697e-16 1 1 -1.83697e-16 2865 1256)"/><path d="M2783 1516C2833.81 1516 2875 1557.19 2875 1608 2875 1658.81 2833.81 1700 2783 1700 2732.19 1700 2691 1658.81 2691 1608 2691 1557.19 2732.19 1516 2783 1516Z" fill="#3B3838" fill-rule="evenodd"/><path d="M1512 254 1512 397.768" stroke="url(#stroke13)" stroke-width="10.3125" stroke-miterlimit="8" fill="none" fill-rule="evenodd"/><path d="M1497 255 1497 398.768" stroke="url(#stroke14)" stroke-width="10.3125" stroke-miterlimit="8" fill="none" fill-rule="evenodd"/><path d="M1483 260 1483 403.768" stroke="url(#stroke15)" stroke-width="10.3125" stroke-miterlimit="8" fill="none" fill-rule="evenodd"/><path d="M1468 266 1468 409.768" stroke="url(#stroke16)" stroke-width="10.3125" stroke-miterlimit="8" fill="none" fill-rule="evenodd"/><path d="M1454 277 1454 420.768" stroke="url(#stroke17)" stroke-width="10.3125" stroke-miterlimit="8" fill="none" fill-rule="evenodd"/><path d="M1439 294 1439 437.768" stroke="url(#stroke18)" stroke-width="10.3125" stroke-miterlimit="8" fill="none" fill-rule="evenodd"/><path d="M0 0 143.768 0.000360892" stroke="url(#stroke19)" stroke-width="10.3125" stroke-miterlimit="8" fill="none" fill-rule="evenodd" transform="matrix(1.83697e-16 1 1 -1.83697e-16 1527 254)"/><path d="M0 0 143.768 0.000360892" stroke="url(#stroke20)" stroke-width="10.3125" stroke-miterlimit="8" fill="none" fill-rule="evenodd" transform="matrix(1.83697e-16 1 1 -1.83697e-16 1542 256)"/><path d="M0 0 143.768 0.000360892" stroke="url(#stroke21)" stroke-width="10.3125" stroke-miterlimit="8" fill="none" fill-rule="evenodd" transform="matrix(1.83697e-16 1 1 -1.83697e-16 1556 261)"/><path d="M0 0 143.768 0.000360892" stroke="url(#stroke22)" stroke-width="10.3125" stroke-miterlimit="8" fill="none" fill-rule="evenodd" transform="matrix(1.83697e-16 1 1 -1.83697e-16 1571 268)"/><path d="M0 0 143.768 0.000360892" stroke="url(#stroke23)" stroke-width="10.3125" stroke-miterlimit="8" fill="none" fill-rule="evenodd" transform="matrix(1.83697e-16 1 1 -1.83697e-16 1585 278)"/><path d="M0 0 143.768 0.000360892" stroke="url(#stroke24)" stroke-width="10.3125" stroke-miterlimit="8" fill="none" fill-rule="evenodd" transform="matrix(1.83697e-16 1 1 -1.83697e-16 1600 296)"/><path d="M1518 396C1568.81 396 1610 411.894 1610 431.5 1610 451.106 1568.81 467 1518 467 1467.19 467 1426 451.106 1426 431.5 1426 411.894 1467.19 396 1518 396Z" fill="#3B3838" fill-rule="evenodd"/><g><g><g><path d="M1558.5 2067.81C1558.5 2083 1546.19 2095.31 1531 2095.31 1515.81 2095.31 1503.5 2083 1503.5 2067.81 1503.5 2052.62 1515.81 2040.31 1531 2040.31 1546.19 2040.31 1558.5 2052.62 1558.5 2067.81Z"/><path d="M1605.94 2209.44 1586.69 2127.62C1586 2124.88 1584.63 2122.12 1582.56 2120.06 1574.31 2113.19 1564.69 2108.38 1553.69 2104.94 1546.13 2103.56 1538.56 2102.19 1531 2102.19 1523.44 2102.19 1515.88 2103.56 1508.31 2105.62 1497.31 2108.38 1487.69 2113.88 1479.44 2120.75 1477.38 2122.81 1476 2125.56 1475.31 2128.31L1456.06 2210.12C1456.06 2210.81 1455.38 2212.19 1455.38 2213.56 1455.38 2221.12 1461.56 2227.31 1469.13 2227.31 1475.31 2227.31 1480.81 2222.5 1482.19 2217L1496.63 2157.19 1496.63 2349.69 1524.13 2349.69 1524.13 2225.94 1537.88 2225.94 1537.88 2349.69 1565.38 2349.69 1565.38 2156.5 1579.81 2216.31C1581.19 2221.81 1586.69 2226.62 1592.88 2226.62 1600.44 2226.62 1606.63 2220.44 1606.63 2212.88 1606.63 2211.5 1605.94 2210.12 1605.94 2209.44Z"/></g></g></g><g><g><g><path d="M299.5 2067.81C299.5 2083 287.188 2095.31 272 2095.31 256.812 2095.31 244.5 2083 244.5 2067.81 244.5 2052.62 256.812 2040.31 272 2040.31 287.188 2040.31 299.5 2052.62 299.5 2067.81Z"/><path d="M346.937 2209.44 327.687 2127.62C327 2124.88 325.625 2122.12 323.562 2120.06 315.312 2113.19 305.687 2108.38 294.687 2104.94 287.125 2103.56 279.562 2102.19 272 2102.19 264.437 2102.19 256.875 2103.56 249.312 2105.62 238.312 2108.38 228.687 2113.88 220.437 2120.75 218.375 2122.81 217 2125.56 216.312 2128.31L197.062 2210.12C197.062 2210.81 196.375 2212.19 196.375 2213.56 196.375 2221.12 202.562 2227.31 210.125 2227.31 216.312 2227.31 221.812 2222.5 223.187 2217L237.625 2157.19 237.625 2349.69 265.125 2349.69 265.125 2225.94 278.875 2225.94 278.875 2349.69 306.375 2349.69 306.375 2156.5 320.812 2216.31C322.187 2221.81 327.687 2226.62 333.875 2226.62 341.437 2226.62 347.625 2220.44 347.625 2212.88 347.625 2211.5 346.937 2210.12 346.937 2209.44Z"/></g></g></g><path d="M211 438C211 387.19 252.19 346 303 346 353.81 346 395 387.19 395 438 395 488.81 353.81 530 303 530 252.19 530 211 488.81 211 438Z" fill="#3B3838" fill-rule="evenodd"/><path d="M1428 438C1428 387.19 1469.19 346 1520 346 1570.81 346 1612 387.19 1612 438 1612 488.81 1570.81 530 1520 530 1469.19 530 1428 488.81 1428 438Z" fill="#3B3838" fill-rule="evenodd"/><path d="M2813 2067.5C2813 2082.69 2800.69 2095 2785.5 2095 2770.31 2095 2758 2082.69 2758 2067.5 2758 2052.31 2770.31 2040 2785.5 2040 2800.69 2040 2813 2052.31 2813 2067.5Z" fill="#FF0000" fill-rule="evenodd"/><path d="M2860.31 2209.47 2841.1 2127.49C2840.41 2124.73 2839.04 2121.98 2836.98 2119.91 2828.74 2113.02 2819.13 2108.2 2808.15 2104.76 2800.6 2103.38 2793.05 2102 2785.5 2102 2777.95 2102 2770.4 2103.38 2762.85 2105.44 2751.87 2108.2 2742.26 2113.71 2734.02 2120.6 2731.96 2122.67 2730.59 2125.42 2729.9 2128.18L2710.69 2210.16C2710.69 2210.84 2710 2212.22 2710 2213.6 2710 2221.18 2716.18 2227.38 2723.73 2227.38 2729.9 2227.38 2735.4 2222.56 2736.77 2217.04L2751.18 2157.11 2751.18 2350 2778.64 2350 2778.64 2226 2792.36 2226 2792.36 2350 2819.82 2350 2819.82 2156.42 2834.23 2216.36C2835.6 2221.87 2841.1 2226.69 2847.27 2226.69 2854.82 2226.69 2861 2220.49 2861 2212.91 2861 2211.53 2860.31 2210.16 2860.31 2209.47Z" fill-rule="evenodd"/><path d="M1525.95 518.5 1525.95 533.396 1511.05 533.396 1511.05 518.5ZM1540.84 531.831 1518.5 576.519 1496.16 531.832Z" fill="#FF0000"/><path d="M2790.95 541.5 2790.95 556.396 2776.05 556.396 2776.05 541.5ZM2790.95 571.292 2790.95 586.187 2776.05 586.187 2776.05 571.292ZM2790.95 601.083 2790.95 615.979 2776.05 615.979 2776.05 601.083ZM2790.95 630.875 2790.95 645.771 2776.05 645.771 2776.05 630.875ZM2790.95 660.667 2790.95 675.562 2776.05 675.562 2776.05 660.667ZM2790.95 690.458 2790.95 705.354 2776.05 705.354 2776.05 690.458ZM2790.95 720.25 2790.95 735.146 2776.05 735.146 2776.05 720.25ZM2790.95 750.042 2790.95 764.937 2776.05 764.937 2776.05 750.042ZM2790.95 779.833 2790.95 794.729 2776.05 794.729 2776.05 779.833ZM2790.95 809.625 2790.95 824.521 2776.05 824.521 2776.05 809.625ZM2790.95 839.417 2790.95 854.312 2776.05 854.312 2776.05 839.417ZM2790.95 869.208 2790.95 884.104 2776.05 884.104 2776.05 869.208ZM2790.95 899 2790.95 913.896 2776.05 913.896 2776.05 899ZM2790.95 928.792 2790.95 943.687 2776.05 943.687 2776.05 928.792ZM2790.95 958.583 2790.95 973.479 2776.05 973.479 2776.05 958.583ZM2790.95 988.375 2790.95 1003.27 2776.05 1003.27 2776.05 988.375ZM2790.95 1018.17 2790.95 1033.06 2776.05 1033.06 2776.05 1018.17ZM2790.95 1047.96 2790.95 1062.85 2776.05 1062.85 2776.05 1047.96ZM2790.95 1077.75 2790.95 1092.65 2776.05 1092.65 2776.05 1077.75ZM2790.95 1107.54 2790.95 1122.44 2776.05 1122.44 2776.05 1107.54ZM2790.95 1137.33 2790.95 1152.23 2776.05 1152.23 2776.05 1137.33ZM2790.95 1167.12 2790.95 1182.02 2776.05 1182.02 2776.05 1167.12ZM2790.95 1196.92 2790.95 1211.81 2776.05 1211.81 2776.05 1196.92ZM2790.95 1226.71 2790.95 1241.6 2776.05 1241.6 2776.05 1226.71ZM2790.95 1256.5 2790.95 1271.4 2776.05 1271.4 2776.05 1256.5ZM2790.95 1286.29 2790.95 1301.19 2776.05 1301.19 2776.05 1286.29ZM2790.95 1316.08 2790.95 1330.98 2776.05 1330.98 2776.05 1316.08ZM2790.95 1345.87 2790.95 1360.77 2776.05 1360.77 2776.05 1345.87ZM2790.95 1375.67 2790.95 1390.56 2776.05 1390.56 2776.05 1375.67ZM2790.95 1405.46 2790.95 1420.35 2776.05 1420.35 2776.05 1405.46ZM2790.95 1435.25 2790.95 1450.15 2776.05 1450.15 2776.05 1435.25ZM2790.95 1465.04 2790.95 1479.94 2776.05 1479.94 2776.05 1465.04ZM2790.95 1494.83 2790.95 1509.73 2776.05 1509.73 2776.05 1494.83ZM2790.95 1524.62 2790.95 1539.52 2776.05 1539.52 2776.05 1524.62ZM2790.95 1554.42 2790.95 1569.31 2776.05 1569.31 2776.05 1554.42ZM2790.95 1584.21 2790.95 1599.1 2776.05 1599.1 2776.05 1584.21ZM2790.95 1614 2790.95 1628.9 2776.05 1628.9 2776.05 1614ZM2790.95 1643.79 2790.95 1658.69 2776.05 1658.69 2776.05 1643.79ZM2790.95 1673.58 2790.95 1688.48 2776.05 1688.48 2776.05 1673.58ZM2790.95 1703.37 2790.95 1718.27 2776.05 1718.27 2776.05 1703.37ZM2790.95 1733.17 2790.95 1748.06 2776.05 1748.06 2776.05 1733.17ZM2790.95 1762.96 2790.95 1777.85 2776.05 1777.85 2776.05 1762.96ZM2790.95 1792.75 2790.95 1807.65 2776.05 1807.65 2776.05 1792.75ZM2790.95 1822.54 2790.95 1837.44 2776.05 1837.44 2776.05 1822.54ZM2790.95 1852.33 2790.95 1867.23 2776.05 1867.23 2776.05 1852.33ZM2790.95 1882.12 2790.95 1897.02 2776.05 1897.02 2776.05 1882.12ZM2790.95 1911.92 2790.95 1926.81 2776.05 1926.81 2776.05 1911.92ZM2790.95 1941.71 2790.95 1956.6 2776.05 1956.6 2776.05 1941.71ZM2790.95 1971.5 2790.95 1986.4 2776.05 1986.4 2776.05 1971.5ZM2805.84 1986.36 2783.5 2031.04 2761.16 1986.36Z" fill="#FF0000"/><path d="M4044 1476 4044 1849.7" stroke="url(#stroke25)" stroke-width="10.3125" stroke-miterlimit="8" fill="none" fill-rule="evenodd"/><path d="M4029 1480 4029 1853.7" stroke="url(#stroke26)" stroke-width="10.3125" stroke-miterlimit="8" fill="none" fill-rule="evenodd"/><path d="M4014 1491 4014 1864.7" stroke="url(#stroke27)" stroke-width="10.3125" stroke-miterlimit="8" fill="none" fill-rule="evenodd"/><path d="M4000 1508 4000 1881.7" stroke="url(#stroke28)" stroke-width="10.3125" stroke-miterlimit="8" fill="none" fill-rule="evenodd"/><path d="M3985 1535 3985 1908.7" stroke="url(#stroke29)" stroke-width="10.3125" stroke-miterlimit="8" fill="none" fill-rule="evenodd"/><path d="M3971 1580 3971 1953.7" stroke="url(#stroke30)" stroke-width="10.3125" stroke-miterlimit="8" fill="none" fill-rule="evenodd"/><path d="M0 0 373.702 0.000360892" stroke="url(#stroke31)" stroke-width="10.3125" stroke-miterlimit="8" fill="none" fill-rule="evenodd" transform="matrix(1.83697e-16 1 1 -1.83697e-16 4059 1477)"/><path d="M0 0 373.702 0.000360892" stroke="url(#stroke32)" stroke-width="10.3125" stroke-miterlimit="8" fill="none" fill-rule="evenodd" transform="matrix(1.83697e-16 1 1 -1.83697e-16 4073 1482)"/><path d="M0 0 373.702 0.000360892" stroke="url(#stroke33)" stroke-width="10.3125" stroke-miterlimit="8" fill="none" fill-rule="evenodd" transform="matrix(1.83697e-16 1 1 -1.83697e-16 4088 1494)"/><path d="M0 0 373.702 0.000360892" stroke="url(#stroke34)" stroke-width="10.3125" stroke-miterlimit="8" fill="none" fill-rule="evenodd" transform="matrix(1.83697e-16 1 1 -1.83697e-16 4102 1512)"/><path d="M0 0 373.702 0.000360892" stroke="url(#stroke35)" stroke-width="10.3125" stroke-miterlimit="8" fill="none" fill-rule="evenodd" transform="matrix(1.83697e-16 1 1 -1.83697e-16 4117 1540)"/><path d="M0 0 373.702 0.000360892" stroke="url(#stroke36)" stroke-width="10.3125" stroke-miterlimit="8" fill="none" fill-rule="evenodd" transform="matrix(1.83697e-16 1 1 -1.83697e-16 4132 1586)"/><path d="M4050 1846C4100.81 1846 4142 1887.19 4142 1938 4142 1988.81 4100.81 2030 4050 2030 3999.19 2030 3958 1988.81 3958 1938 3958 1887.19 3999.19 1846 4050 1846Z" fill="#3B3838" fill-rule="evenodd"/><path d="M4075 2065.5C4075 2080.69 4062.69 2093 4047.5 2093 4032.31 2093 4020 2080.69 4020 2065.5 4020 2050.31 4032.31 2038 4047.5 2038 4062.69 2038 4075 2050.31 4075 2065.5Z" fill="#FF0000" fill-rule="evenodd"/><path d="M4122.31 2207.03 4103.1 2125.39C4102.41 2122.64 4101.04 2119.9 4098.98 2117.84 4090.74 2110.98 4081.13 2106.18 4070.15 2102.74 4062.6 2101.37 4055.05 2100 4047.5 2100 4039.95 2100 4032.4 2101.37 4024.85 2103.43 4013.87 2106.18 4004.26 2111.66 3996.02 2118.52 3993.96 2120.58 3992.59 2123.33 3991.9 2126.07L3972.69 2207.72C3972.69 2208.41 3972 2209.78 3972 2211.15 3972 2218.7 3978.18 2224.87 3985.73 2224.87 3991.9 2224.87 3997.4 2220.07 3998.77 2214.58L4013.18 2154.89 4013.18 2347 4040.64 2347 4040.64 2223.5 4054.36 2223.5 4054.36 2347 4081.82 2347 4081.82 2154.2 4096.23 2213.89C4097.6 2219.38 4103.1 2224.19 4109.27 2224.19 4116.82 2224.19 4123 2218.01 4123 2210.46 4123 2209.09 4122.31 2207.72 4122.31 2207.03Z" fill-rule="evenodd"/><path d="M443.875 540.453 443.875 554.203 430.125 554.203 430.125 540.453ZM443.875 567.953 443.875 581.703 430.125 581.703 430.125 567.953ZM443.875 595.453 443.875 609.203 430.125 609.203 430.125 595.453ZM443.875 622.953 443.875 636.703 430.125 636.703 430.125 622.953ZM443.875 650.453 443.875 664.203 430.125 664.203 430.125 650.453ZM443.875 677.953 443.875 691.703 430.125 691.703 430.125 677.953ZM443.875 705.453 443.875 719.203 430.125 719.203 430.125 705.453ZM443.875 732.953 443.875 746.703 430.125 746.703 430.125 732.953ZM443.875 760.453 443.875 774.203 430.125 774.203 430.125 760.453ZM443.875 787.953 443.875 801.703 430.125 801.703 430.125 787.953ZM443.875 815.453 443.875 829.203 430.125 829.203 430.125 815.453ZM443.875 842.953 443.875 856.703 430.125 856.703 430.125 842.953ZM443.875 870.453 443.875 884.203 430.125 884.203 430.125 870.453ZM443.875 897.953 443.875 911.703 430.125 911.703 430.125 897.953ZM443.875 925.453 443.875 939.203 430.125 939.203 430.125 925.453ZM443.875 952.953 443.875 966.703 430.125 966.703 430.125 952.953ZM443.875 980.453 443.875 994.203 430.125 994.203 430.125 980.453ZM443.875 1007.95 443.875 1021.7 430.125 1021.7 430.125 1007.95ZM443.875 1035.45 443.875 1049.2 430.125 1049.2 430.125 1035.45ZM443.875 1062.95 443.875 1076.7 430.125 1076.7 430.125 1062.95ZM443.875 1090.45 443.875 1104.2 430.125 1104.2 430.125 1090.45ZM443.875 1117.95 443.875 1131.7 430.125 1131.7 430.125 1117.95ZM443.875 1145.45 443.875 1159.2 430.125 1159.2 430.125 1145.45ZM443.875 1172.95 443.875 1186.7 430.125 1186.7 430.125 1172.95ZM443.875 1200.45 443.875 1214.2 430.125 1214.2 430.125 1200.45ZM443.875 1227.95 443.875 1241.7 430.125 1241.7 430.125 1227.95ZM443.875 1255.45 443.875 1269.2 430.125 1269.2 430.125 1255.45ZM443.875 1282.95 443.875 1296.7 430.125 1296.7 430.125 1282.95ZM443.875 1310.45 443.875 1324.2 430.125 1324.2 430.125 1310.45ZM443.875 1337.95 443.875 1351.7 430.125 1351.7 430.125 1337.95ZM443.875 1365.45 443.875 1379.2 430.125 1379.2 430.125 1365.45ZM443.875 1392.95 443.875 1406.7 430.125 1406.7 430.125 1392.95ZM443.875 1420.45 443.875 1434.2 430.125 1434.2 430.125 1420.45ZM443.875 1447.95 443.875 1461.7 430.125 1461.7 430.125 1447.95ZM443.875 1475.45 443.875 1489.2 430.125 1489.2 430.125 1475.45ZM443.875 1502.95 443.875 1516.7 430.125 1516.7 430.125 1502.95ZM443.875 1530.45 443.875 1544.2 430.125 1544.2 430.125 1530.45ZM443.875 1557.95 443.875 1571.7 430.125 1571.7 430.125 1557.95ZM443.875 1585.45 443.875 1599.2 430.125 1599.2 430.125 1585.45ZM443.875 1612.95 443.875 1626.7 430.125 1626.7 430.125 1612.95ZM443.875 1640.45 443.875 1654.2 430.125 1654.2 430.125 1640.45ZM443.875 1667.95 443.875 1681.7 430.125 1681.7 430.125 1667.95ZM443.875 1695.45 443.875 1709.2 430.125 1709.2 430.125 1695.45ZM443.875 1722.95 443.875 1736.7 430.125 1736.7 430.125 1722.95ZM443.875 1750.45 443.875 1764.2 430.125 1764.2 430.125 1750.45ZM443.875 1777.95 443.875 1791.7 430.125 1791.7 430.125 1777.95ZM443.875 1805.45 443.875 1819.2 430.125 1819.2 430.125 1805.45ZM443.875 1832.95 443.875 1846.7 430.125 1846.7 430.125 1832.95ZM443.875 1860.45 443.875 1874.2 430.125 1874.2 430.125 1860.45ZM443.875 1887.95 443.875 1901.7 430.125 1901.7 430.125 1887.95ZM443.875 1915.45 443.875 1929.2 430.125 1929.2 430.125 1915.45ZM443.875 1942.95 443.875 1956.7 430.125 1956.7 430.125 1942.95ZM443.875 1970.45 443.875 1984.2 430.125 1984.2 430.125 1970.45ZM443.875 1997.95 443.875 2011.7 430.125 2011.7 430.125 1997.95ZM443.875 2025.45 443.875 2027.32 430.125 2027.32 430.125 2025.45ZM407.763 563.423 437 530.01 466.236 563.423C468.737 566.28 468.447 570.624 465.59 573.124 462.732 575.624 458.389 575.335 455.888 572.477L431.826 544.977 442.174 544.977 418.111 572.477C415.611 575.335 411.268 575.624 408.41 573.124 405.553 570.624 405.263 566.28 407.763 563.423ZM466.237 2004.34 437 2037.75 407.764 2004.34C405.263 2001.48 405.553 1997.14 408.411 1994.64 411.268 1992.14 415.611 1992.43 418.112 1995.29L442.174 2022.79 431.826 2022.79 455.889 1995.29C458.389 1992.43 462.732 1992.14 465.59 1994.64 468.447 1997.14 468.737 2001.48 466.237 2004.34Z"/><path d="M7.44792-0.00115774 7.45023 14.8947-7.4456 14.897-7.44792 0.00115774ZM7.45255 29.7905 7.45486 44.6863-7.44097 44.6887-7.44329 29.7928ZM7.45718 59.5822 7.45949 74.478-7.43634 74.4803-7.43865 59.5845ZM7.46181 89.3738 7.46413 104.27-7.43171 104.272-7.43402 89.3762ZM7.46644 119.166 7.46876 134.061-7.42708 134.064-7.42939 119.168ZM7.47107 148.957 7.47339 163.853-7.42245 163.855-7.42476 148.959ZM7.4757 178.749 7.47802 193.645-7.41782 193.647-7.42013 178.751ZM7.48033 208.541 7.48265 223.436-7.41318 223.439-7.4155 208.543ZM7.48496 238.332 7.48728 253.228-7.40855 253.23-7.41087 238.334ZM7.4896 268.124 7.49191 283.02-7.40392 283.022-7.40624 268.126ZM7.49423 297.916 7.49654 312.811-7.39929 312.814-7.40161 297.918ZM7.49886 327.707 7.50117 342.603-7.39466 342.605-7.39698 327.709ZM7.50349 357.499 7.5058 372.395-7.39003 372.397-7.39235 357.501ZM7.50812 387.29 7.51043 402.186-7.3854 402.189-7.38771 387.293ZM7.51275 417.082 7.51507 431.978-7.38077 431.98-7.38308 417.085ZM7.51738 446.874 7.5197 461.77-7.37614 461.772-7.37845 446.876ZM7.52201 476.665 7.52433 491.561-7.37151 491.564-7.37382 476.668ZM7.52664 506.457 7.52896 521.353-7.36688 521.355-7.36919 506.46ZM7.53127 536.249 7.53359 551.145-7.36224 551.147-7.36456 536.251ZM7.5359 566.04 7.53822 580.936-7.35761 580.939-7.35993 566.043ZM7.54054 595.832 7.54285 610.728-7.35298 610.73-7.3553 595.835ZM7.54517 625.624 7.54748 640.52-7.34835 640.522-7.35067 625.626ZM7.5498 655.415 7.55211 670.311-7.34372 670.314-7.34604 655.418ZM7.55443 685.207 7.55674 700.103-7.33909 700.105-7.3414 685.21ZM7.55906 714.999 7.56138 729.895-7.33446 729.897-7.33677 715.001ZM7.56369 744.79 7.56601 759.686-7.32983 759.689-7.33214 744.793ZM7.56832 774.582 7.57064 789.478-7.3252 789.48-7.32751 774.585ZM7.57295 804.374 7.57527 819.27-7.32057 819.272-7.32288 804.376ZM7.57758 834.165 7.5799 849.061-7.31593 849.064-7.31825 834.168ZM7.58221 863.957 7.58453 878.853-7.3113 878.855-7.31362 863.959ZM7.58684 893.749 7.58916 908.645-7.30667 908.647-7.30899 893.751ZM7.59148 923.54 7.59379 938.436-7.30204 938.439-7.30436 923.543ZM7.59611 953.332 7.59842 968.228-7.29741 968.23-7.29973 953.334ZM7.60074 983.124 7.60305 998.02-7.29278 998.022-7.2951 983.126ZM7.60537 1012.92 7.60768 1027.81-7.28815 1027.81-7.29046 1012.92ZM7.61 1042.71 7.61232 1057.6-7.28352 1057.61-7.28583 1042.71ZM7.61463 1072.5 7.61695 1087.39-7.27889 1087.4-7.2812 1072.5ZM7.61926 1102.29 7.62158 1117.19-7.27426 1117.19-7.27657 1102.29ZM7.62389 1132.08 7.62438 1135.21-7.27145 1135.21-7.27194 1132.08ZM22.5191 1127.76 0.182251 1172.45-22.1684 1127.77Z" transform="matrix(-1 0 0 1 2783.68 528.5)"/><text font-family="Calibri,Calibri_MSFontService,sans-serif" font-weight="400" font-size="83" transform="matrix(1 0 0 1 3921.04 2439)">t</text><text font-family="Calibri,Calibri_MSFontService,sans-serif" font-weight="400" font-size="83" transform="matrix(1 0 0 1 3967.44 2439)">= 4/3 y</text><text font-family="Calibri,Calibri_MSFontService,sans-serif" font-weight="400" font-size="83" transform="matrix(1 0 0 1 1443.44 2439)">t</text><text font-family="Calibri,Calibri_MSFontService,sans-serif" font-weight="400" font-size="83" transform="matrix(1 0 0 1 1489.85 2439)">= 0 y</text><text font-family="Calibri,Calibri_MSFontService,sans-serif" font-weight="400" font-size="83" transform="matrix(1 0 0 1 2702.17 2435)">t</text><text font-family="Calibri,Calibri_MSFontService,sans-serif" font-weight="400" font-size="83" transform="matrix(1 0 0 1 2748.58 2435)">= 1 y</text><text font-family="Calibri,Calibri_MSFontService,sans-serif" font-weight="400" font-size="83" transform="matrix(1 0 0 1 2306.4 1659)">3/</text><text font-family="Calibri,Calibri_MSFontService,sans-serif" font-weight="400" font-size="83" transform="matrix(1 0 0 1 2380.31 1659)">4</text><text font-family="Calibri,Calibri_MSFontService,sans-serif" font-weight="400" font-size="83" transform="matrix(1 0 0 1 2441.04 1659)">c</text><path d="M2563.89 1610 2563.89 1657.11 2542.11 1657.11 2542.11 1610ZM2585.66 1646.23 2553 1711.54 2520.34 1646.23Z"/><path d="M2563.89 1559 2563.89 1606.11 2542.11 1606.11 2542.11 1559ZM2585.66 1595.23 2553 1660.54 2520.34 1595.23Z"/><text font-family="Calibri,Calibri_MSFontService,sans-serif" font-weight="400" font-size="83" transform="matrix(1 0 0 1 513.071 1307)">1 </text><text font-family="Calibri,Calibri_MSFontService,sans-serif" font-weight="400" font-size="83" transform="matrix(1 0 0 1 573.8 1307)">ly</text></g></svg>