<?xml version="1.0" encoding="utf-8" standalone="no"?>
<!DOCTYPE svg PUBLIC "-//W3C//DTD SVG 1.1//EN"
  "http://www.w3.org/Graphics/SVG/1.1/DTD/svg11.dtd">
<svg xmlns:xlink="http://www.w3.org/1999/xlink" width="654.040872pt" height="245.39799pt" viewBox="0 0 654.040872 245.39799" xmlns="http://www.w3.org/2000/svg" version="1.1">
 <metadata>
  <rdf:RDF xmlns:dc="http://purl.org/dc/elements/1.1/" xmlns:cc="http://creativecommons.org/ns#" xmlns:rdf="http://www.w3.org/1999/02/22-rdf-syntax-ns#">
   <cc:Work>
    <dc:type rdf:resource="http://purl.org/dc/dcmitype/StillImage"/>
    <dc:date>2024-01-29T21:51:09.690098</dc:date>
    <dc:format>image/svg+xml</dc:format>
    <dc:creator>
     <cc:Agent>
      <dc:title>Matplotlib v3.7.2, https://matplotlib.org/</dc:title>
     </cc:Agent>
    </dc:creator>
   </cc:Work>
  </rdf:RDF>
 </metadata>
 <defs>
  <style type="text/css">*{stroke-linejoin: round; stroke-linecap: butt}</style>
 </defs>
 <g id="figure_1">
  <g id="patch_1">
   <path d="M 0 245.39799 
L 654.040872 245.39799 
L 654.040872 0 
L 0 0 
L 0 245.39799 
z
" style="fill: none"/>
  </g>
  <g id="axes_1">
   <g id="patch_2">
    <path d="M 132 122.99799 
L 127.2 126.11799 
L 128.32 123.00039 
L 7.2 123.00039 
L 7.2 122.99559 
L 128.32 122.99559 
L 127.2 119.87799 
z
" clip-path="url(#p1e850ec33b)" style="stroke: #000000; stroke-linejoin: miter"/>
   </g>
   <g id="patch_3">
    <path d="M 69.6 7.79799 
L 72.72 12.59799 
L 69.6024 11.47799 
L 69.6024 238.19799 
L 69.5976 238.19799 
L 69.5976 11.47799 
L 66.48 12.59799 
z
" clip-path="url(#p1e850ec33b)" style="stroke: #000000; stroke-linejoin: miter"/>
   </g>
   <g id="line2d_1">
    <defs>
     <path id="m42f1e72180" d="M 0 0.5 
C 0.132602 0.5 0.25979 0.447317 0.353553 0.353553 
C 0.447317 0.25979 0.5 0.132602 0.5 0 
C 0.5 -0.132602 0.447317 -0.25979 0.353553 -0.353553 
C 0.25979 -0.447317 0.132602 -0.5 0 -0.5 
C -0.132602 -0.5 -0.25979 -0.447317 -0.353553 -0.353553 
C -0.447317 -0.25979 -0.5 -0.132602 -0.5 0 
C -0.5 0.132602 -0.447317 0.25979 -0.353553 0.353553 
C -0.25979 0.447317 -0.132602 0.5 0 0.5 
z
" style="stroke: #000000"/>
    </defs>
    <g clip-path="url(#p1e850ec33b)">
     <use xlink:href="#m42f1e72180" x="21.6" y="170.99799" style="stroke: #000000"/>
     <use xlink:href="#m42f1e72180" x="21.6" y="161.39799" style="stroke: #000000"/>
     <use xlink:href="#m42f1e72180" x="21.6" y="151.79799" style="stroke: #000000"/>
     <use xlink:href="#m42f1e72180" x="21.6" y="142.19799" style="stroke: #000000"/>
     <use xlink:href="#m42f1e72180" x="21.6" y="132.59799" style="stroke: #000000"/>
     <use xlink:href="#m42f1e72180" x="21.6" y="122.99799" style="stroke: #000000"/>
     <use xlink:href="#m42f1e72180" x="21.6" y="113.39799" style="stroke: #000000"/>
     <use xlink:href="#m42f1e72180" x="21.6" y="103.79799" style="stroke: #000000"/>
     <use xlink:href="#m42f1e72180" x="21.6" y="94.19799" style="stroke: #000000"/>
     <use xlink:href="#m42f1e72180" x="21.6" y="84.59799" style="stroke: #000000"/>
     <use xlink:href="#m42f1e72180" x="21.6" y="74.99799" style="stroke: #000000"/>
    </g>
   </g>
   <g id="line2d_2">
    <g clip-path="url(#p1e850ec33b)">
     <use xlink:href="#m42f1e72180" x="31.2" y="170.99799" style="stroke: #000000"/>
     <use xlink:href="#m42f1e72180" x="31.2" y="161.39799" style="stroke: #000000"/>
     <use xlink:href="#m42f1e72180" x="31.2" y="151.79799" style="stroke: #000000"/>
     <use xlink:href="#m42f1e72180" x="31.2" y="142.19799" style="stroke: #000000"/>
     <use xlink:href="#m42f1e72180" x="31.2" y="132.59799" style="stroke: #000000"/>
     <use xlink:href="#m42f1e72180" x="31.2" y="122.99799" style="stroke: #000000"/>
     <use xlink:href="#m42f1e72180" x="31.2" y="113.39799" style="stroke: #000000"/>
     <use xlink:href="#m42f1e72180" x="31.2" y="103.79799" style="stroke: #000000"/>
     <use xlink:href="#m42f1e72180" x="31.2" y="94.19799" style="stroke: #000000"/>
     <use xlink:href="#m42f1e72180" x="31.2" y="84.59799" style="stroke: #000000"/>
     <use xlink:href="#m42f1e72180" x="31.2" y="74.99799" style="stroke: #000000"/>
    </g>
   </g>
   <g id="line2d_3">
    <g clip-path="url(#p1e850ec33b)">
     <use xlink:href="#m42f1e72180" x="40.8" y="170.99799" style="stroke: #000000"/>
     <use xlink:href="#m42f1e72180" x="40.8" y="161.39799" style="stroke: #000000"/>
     <use xlink:href="#m42f1e72180" x="40.8" y="151.79799" style="stroke: #000000"/>
     <use xlink:href="#m42f1e72180" x="40.8" y="142.19799" style="stroke: #000000"/>
     <use xlink:href="#m42f1e72180" x="40.8" y="132.59799" style="stroke: #000000"/>
     <use xlink:href="#m42f1e72180" x="40.8" y="122.99799" style="stroke: #000000"/>
     <use xlink:href="#m42f1e72180" x="40.8" y="113.39799" style="stroke: #000000"/>
     <use xlink:href="#m42f1e72180" x="40.8" y="103.79799" style="stroke: #000000"/>
     <use xlink:href="#m42f1e72180" x="40.8" y="94.19799" style="stroke: #000000"/>
     <use xlink:href="#m42f1e72180" x="40.8" y="84.59799" style="stroke: #000000"/>
     <use xlink:href="#m42f1e72180" x="40.8" y="74.99799" style="stroke: #000000"/>
    </g>
   </g>
   <g id="line2d_4">
    <g clip-path="url(#p1e850ec33b)">
     <use xlink:href="#m42f1e72180" x="50.4" y="170.99799" style="stroke: #000000"/>
     <use xlink:href="#m42f1e72180" x="50.4" y="161.39799" style="stroke: #000000"/>
     <use xlink:href="#m42f1e72180" x="50.4" y="151.79799" style="stroke: #000000"/>
     <use xlink:href="#m42f1e72180" x="50.4" y="142.19799" style="stroke: #000000"/>
     <use xlink:href="#m42f1e72180" x="50.4" y="132.59799" style="stroke: #000000"/>
     <use xlink:href="#m42f1e72180" x="50.4" y="122.99799" style="stroke: #000000"/>
     <use xlink:href="#m42f1e72180" x="50.4" y="113.39799" style="stroke: #000000"/>
     <use xlink:href="#m42f1e72180" x="50.4" y="103.79799" style="stroke: #000000"/>
     <use xlink:href="#m42f1e72180" x="50.4" y="94.19799" style="stroke: #000000"/>
     <use xlink:href="#m42f1e72180" x="50.4" y="84.59799" style="stroke: #000000"/>
     <use xlink:href="#m42f1e72180" x="50.4" y="74.99799" style="stroke: #000000"/>
    </g>
   </g>
   <g id="line2d_5">
    <g clip-path="url(#p1e850ec33b)">
     <use xlink:href="#m42f1e72180" x="60" y="170.99799" style="stroke: #000000"/>
     <use xlink:href="#m42f1e72180" x="60" y="161.39799" style="stroke: #000000"/>
     <use xlink:href="#m42f1e72180" x="60" y="151.79799" style="stroke: #000000"/>
     <use xlink:href="#m42f1e72180" x="60" y="142.19799" style="stroke: #000000"/>
     <use xlink:href="#m42f1e72180" x="60" y="132.59799" style="stroke: #000000"/>
     <use xlink:href="#m42f1e72180" x="60" y="122.99799" style="stroke: #000000"/>
     <use xlink:href="#m42f1e72180" x="60" y="113.39799" style="stroke: #000000"/>
     <use xlink:href="#m42f1e72180" x="60" y="103.79799" style="stroke: #000000"/>
     <use xlink:href="#m42f1e72180" x="60" y="94.19799" style="stroke: #000000"/>
     <use xlink:href="#m42f1e72180" x="60" y="84.59799" style="stroke: #000000"/>
     <use xlink:href="#m42f1e72180" x="60" y="74.99799" style="stroke: #000000"/>
    </g>
   </g>
   <g id="line2d_6">
    <g clip-path="url(#p1e850ec33b)">
     <use xlink:href="#m42f1e72180" x="69.6" y="170.99799" style="stroke: #000000"/>
     <use xlink:href="#m42f1e72180" x="69.6" y="161.39799" style="stroke: #000000"/>
     <use xlink:href="#m42f1e72180" x="69.6" y="151.79799" style="stroke: #000000"/>
     <use xlink:href="#m42f1e72180" x="69.6" y="142.19799" style="stroke: #000000"/>
     <use xlink:href="#m42f1e72180" x="69.6" y="132.59799" style="stroke: #000000"/>
     <use xlink:href="#m42f1e72180" x="69.6" y="122.99799" style="stroke: #000000"/>
     <use xlink:href="#m42f1e72180" x="69.6" y="113.39799" style="stroke: #000000"/>
     <use xlink:href="#m42f1e72180" x="69.6" y="103.79799" style="stroke: #000000"/>
     <use xlink:href="#m42f1e72180" x="69.6" y="94.19799" style="stroke: #000000"/>
     <use xlink:href="#m42f1e72180" x="69.6" y="84.59799" style="stroke: #000000"/>
     <use xlink:href="#m42f1e72180" x="69.6" y="74.99799" style="stroke: #000000"/>
    </g>
   </g>
   <g id="line2d_7">
    <g clip-path="url(#p1e850ec33b)">
     <use xlink:href="#m42f1e72180" x="79.2" y="170.99799" style="stroke: #000000"/>
     <use xlink:href="#m42f1e72180" x="79.2" y="161.39799" style="stroke: #000000"/>
     <use xlink:href="#m42f1e72180" x="79.2" y="151.79799" style="stroke: #000000"/>
     <use xlink:href="#m42f1e72180" x="79.2" y="142.19799" style="stroke: #000000"/>
     <use xlink:href="#m42f1e72180" x="79.2" y="132.59799" style="stroke: #000000"/>
     <use xlink:href="#m42f1e72180" x="79.2" y="122.99799" style="stroke: #000000"/>
     <use xlink:href="#m42f1e72180" x="79.2" y="113.39799" style="stroke: #000000"/>
     <use xlink:href="#m42f1e72180" x="79.2" y="103.79799" style="stroke: #000000"/>
     <use xlink:href="#m42f1e72180" x="79.2" y="94.19799" style="stroke: #000000"/>
     <use xlink:href="#m42f1e72180" x="79.2" y="84.59799" style="stroke: #000000"/>
     <use xlink:href="#m42f1e72180" x="79.2" y="74.99799" style="stroke: #000000"/>
    </g>
   </g>
   <g id="line2d_8">
    <g clip-path="url(#p1e850ec33b)">
     <use xlink:href="#m42f1e72180" x="88.8" y="170.99799" style="stroke: #000000"/>
     <use xlink:href="#m42f1e72180" x="88.8" y="161.39799" style="stroke: #000000"/>
     <use xlink:href="#m42f1e72180" x="88.8" y="151.79799" style="stroke: #000000"/>
     <use xlink:href="#m42f1e72180" x="88.8" y="142.19799" style="stroke: #000000"/>
     <use xlink:href="#m42f1e72180" x="88.8" y="132.59799" style="stroke: #000000"/>
     <use xlink:href="#m42f1e72180" x="88.8" y="122.99799" style="stroke: #000000"/>
     <use xlink:href="#m42f1e72180" x="88.8" y="113.39799" style="stroke: #000000"/>
     <use xlink:href="#m42f1e72180" x="88.8" y="103.79799" style="stroke: #000000"/>
     <use xlink:href="#m42f1e72180" x="88.8" y="94.19799" style="stroke: #000000"/>
     <use xlink:href="#m42f1e72180" x="88.8" y="84.59799" style="stroke: #000000"/>
     <use xlink:href="#m42f1e72180" x="88.8" y="74.99799" style="stroke: #000000"/>
    </g>
   </g>
   <g id="line2d_9">
    <g clip-path="url(#p1e850ec33b)">
     <use xlink:href="#m42f1e72180" x="98.4" y="170.99799" style="stroke: #000000"/>
     <use xlink:href="#m42f1e72180" x="98.4" y="161.39799" style="stroke: #000000"/>
     <use xlink:href="#m42f1e72180" x="98.4" y="151.79799" style="stroke: #000000"/>
     <use xlink:href="#m42f1e72180" x="98.4" y="142.19799" style="stroke: #000000"/>
     <use xlink:href="#m42f1e72180" x="98.4" y="132.59799" style="stroke: #000000"/>
     <use xlink:href="#m42f1e72180" x="98.4" y="122.99799" style="stroke: #000000"/>
     <use xlink:href="#m42f1e72180" x="98.4" y="113.39799" style="stroke: #000000"/>
     <use xlink:href="#m42f1e72180" x="98.4" y="103.79799" style="stroke: #000000"/>
     <use xlink:href="#m42f1e72180" x="98.4" y="94.19799" style="stroke: #000000"/>
     <use xlink:href="#m42f1e72180" x="98.4" y="84.59799" style="stroke: #000000"/>
     <use xlink:href="#m42f1e72180" x="98.4" y="74.99799" style="stroke: #000000"/>
    </g>
   </g>
   <g id="line2d_10">
    <g clip-path="url(#p1e850ec33b)">
     <use xlink:href="#m42f1e72180" x="108" y="170.99799" style="stroke: #000000"/>
     <use xlink:href="#m42f1e72180" x="108" y="161.39799" style="stroke: #000000"/>
     <use xlink:href="#m42f1e72180" x="108" y="151.79799" style="stroke: #000000"/>
     <use xlink:href="#m42f1e72180" x="108" y="142.19799" style="stroke: #000000"/>
     <use xlink:href="#m42f1e72180" x="108" y="132.59799" style="stroke: #000000"/>
     <use xlink:href="#m42f1e72180" x="108" y="122.99799" style="stroke: #000000"/>
     <use xlink:href="#m42f1e72180" x="108" y="113.39799" style="stroke: #000000"/>
     <use xlink:href="#m42f1e72180" x="108" y="103.79799" style="stroke: #000000"/>
     <use xlink:href="#m42f1e72180" x="108" y="94.19799" style="stroke: #000000"/>
     <use xlink:href="#m42f1e72180" x="108" y="84.59799" style="stroke: #000000"/>
     <use xlink:href="#m42f1e72180" x="108" y="74.99799" style="stroke: #000000"/>
    </g>
   </g>
   <g id="line2d_11">
    <g clip-path="url(#p1e850ec33b)">
     <use xlink:href="#m42f1e72180" x="117.6" y="170.99799" style="stroke: #000000"/>
     <use xlink:href="#m42f1e72180" x="117.6" y="161.39799" style="stroke: #000000"/>
     <use xlink:href="#m42f1e72180" x="117.6" y="151.79799" style="stroke: #000000"/>
     <use xlink:href="#m42f1e72180" x="117.6" y="142.19799" style="stroke: #000000"/>
     <use xlink:href="#m42f1e72180" x="117.6" y="132.59799" style="stroke: #000000"/>
     <use xlink:href="#m42f1e72180" x="117.6" y="122.99799" style="stroke: #000000"/>
     <use xlink:href="#m42f1e72180" x="117.6" y="113.39799" style="stroke: #000000"/>
     <use xlink:href="#m42f1e72180" x="117.6" y="103.79799" style="stroke: #000000"/>
     <use xlink:href="#m42f1e72180" x="117.6" y="94.19799" style="stroke: #000000"/>
     <use xlink:href="#m42f1e72180" x="117.6" y="84.59799" style="stroke: #000000"/>
     <use xlink:href="#m42f1e72180" x="117.6" y="74.99799" style="stroke: #000000"/>
    </g>
   </g>
   <g id="text_1">
    <!-- y -->
    <g transform="translate(127.2 118.19799) scale(0.1 -0.1)">
     <defs>
      <path id="DejaVuSans-79" d="M 2059 -325 
Q 1816 -950 1584 -1140 
Q 1353 -1331 966 -1331 
L 506 -1331 
L 506 -850 
L 844 -850 
Q 1081 -850 1212 -737 
Q 1344 -625 1503 -206 
L 1606 56 
L 191 3500 
L 800 3500 
L 1894 763 
L 2988 3500 
L 3597 3500 
L 2059 -325 
z
" transform="scale(0.015625)"/>
     </defs>
     <use xlink:href="#DejaVuSans-79"/>
    </g>
   </g>
   <g id="text_2">
    <!-- z -->
    <g transform="translate(74.4 17.39799) scale(0.1 -0.1)">
     <defs>
      <path id="DejaVuSans-7a" d="M 353 3500 
L 3084 3500 
L 3084 2975 
L 922 459 
L 3084 459 
L 3084 0 
L 275 0 
L 275 525 
L 2438 3041 
L 353 3041 
L 353 3500 
z
" transform="scale(0.015625)"/>
     </defs>
     <use xlink:href="#DejaVuSans-7a"/>
    </g>
   </g>
   <g id="text_3">
    <!-- t = 0 -->
    <g transform="translate(141.6 172.91799) scale(0.1 -0.1)">
     <defs>
      <path id="DejaVuSans-74" d="M 1172 4494 
L 1172 3500 
L 2356 3500 
L 2356 3053 
L 1172 3053 
L 1172 1153 
Q 1172 725 1289 603 
Q 1406 481 1766 481 
L 2356 481 
L 2356 0 
L 1766 0 
Q 1100 0 847 248 
Q 594 497 594 1153 
L 594 3053 
L 172 3053 
L 172 3500 
L 594 3500 
L 594 4494 
L 1172 4494 
z
" transform="scale(0.015625)"/>
      <path id="DejaVuSans-20" transform="scale(0.015625)"/>
      <path id="DejaVuSans-3d" d="M 678 2906 
L 4684 2906 
L 4684 2381 
L 678 2381 
L 678 2906 
z
M 678 1631 
L 4684 1631 
L 4684 1100 
L 678 1100 
L 678 1631 
z
" transform="scale(0.015625)"/>
      <path id="DejaVuSans-30" d="M 2034 4250 
Q 1547 4250 1301 3770 
Q 1056 3291 1056 2328 
Q 1056 1369 1301 889 
Q 1547 409 2034 409 
Q 2525 409 2770 889 
Q 3016 1369 3016 2328 
Q 3016 3291 2770 3770 
Q 2525 4250 2034 4250 
z
M 2034 4750 
Q 2819 4750 3233 4129 
Q 3647 3509 3647 2328 
Q 3647 1150 3233 529 
Q 2819 -91 2034 -91 
Q 1250 -91 836 529 
Q 422 1150 422 2328 
Q 422 3509 836 4129 
Q 1250 4750 2034 4750 
z
" transform="scale(0.015625)"/>
     </defs>
     <use xlink:href="#DejaVuSans-74"/>
     <use xlink:href="#DejaVuSans-20" x="39.208984"/>
     <use xlink:href="#DejaVuSans-3d" x="70.996094"/>
     <use xlink:href="#DejaVuSans-20" x="154.785156"/>
     <use xlink:href="#DejaVuSans-30" x="186.572266"/>
    </g>
   </g>
   <g id="text_4">
    <!-- t = 0 -->
    <g transform="translate(141.6 163.31799) scale(0.1 -0.1)">
     <use xlink:href="#DejaVuSans-74"/>
     <use xlink:href="#DejaVuSans-20" x="39.208984"/>
     <use xlink:href="#DejaVuSans-3d" x="70.996094"/>
     <use xlink:href="#DejaVuSans-20" x="154.785156"/>
     <use xlink:href="#DejaVuSans-30" x="186.572266"/>
    </g>
   </g>
   <g id="text_5">
    <!-- t = 0 -->
    <g transform="translate(141.6 153.71799) scale(0.1 -0.1)">
     <use xlink:href="#DejaVuSans-74"/>
     <use xlink:href="#DejaVuSans-20" x="39.208984"/>
     <use xlink:href="#DejaVuSans-3d" x="70.996094"/>
     <use xlink:href="#DejaVuSans-20" x="154.785156"/>
     <use xlink:href="#DejaVuSans-30" x="186.572266"/>
    </g>
   </g>
   <g id="text_6">
    <!-- t = 0 -->
    <g transform="translate(141.6 144.11799) scale(0.1 -0.1)">
     <use xlink:href="#DejaVuSans-74"/>
     <use xlink:href="#DejaVuSans-20" x="39.208984"/>
     <use xlink:href="#DejaVuSans-3d" x="70.996094"/>
     <use xlink:href="#DejaVuSans-20" x="154.785156"/>
     <use xlink:href="#DejaVuSans-30" x="186.572266"/>
    </g>
   </g>
   <g id="text_7">
    <!-- t = 0 -->
    <g transform="translate(141.6 134.51799) scale(0.1 -0.1)">
     <use xlink:href="#DejaVuSans-74"/>
     <use xlink:href="#DejaVuSans-20" x="39.208984"/>
     <use xlink:href="#DejaVuSans-3d" x="70.996094"/>
     <use xlink:href="#DejaVuSans-20" x="154.785156"/>
     <use xlink:href="#DejaVuSans-30" x="186.572266"/>
    </g>
   </g>
   <g id="text_8">
    <!-- t = 0 -->
    <g transform="translate(141.6 124.91799) scale(0.1 -0.1)">
     <use xlink:href="#DejaVuSans-74"/>
     <use xlink:href="#DejaVuSans-20" x="39.208984"/>
     <use xlink:href="#DejaVuSans-3d" x="70.996094"/>
     <use xlink:href="#DejaVuSans-20" x="154.785156"/>
     <use xlink:href="#DejaVuSans-30" x="186.572266"/>
    </g>
   </g>
   <g id="text_9">
    <!-- t = 0 -->
    <g transform="translate(141.6 115.31799) scale(0.1 -0.1)">
     <use xlink:href="#DejaVuSans-74"/>
     <use xlink:href="#DejaVuSans-20" x="39.208984"/>
     <use xlink:href="#DejaVuSans-3d" x="70.996094"/>
     <use xlink:href="#DejaVuSans-20" x="154.785156"/>
     <use xlink:href="#DejaVuSans-30" x="186.572266"/>
    </g>
   </g>
   <g id="text_10">
    <!-- t = 0 -->
    <g transform="translate(141.6 105.71799) scale(0.1 -0.1)">
     <use xlink:href="#DejaVuSans-74"/>
     <use xlink:href="#DejaVuSans-20" x="39.208984"/>
     <use xlink:href="#DejaVuSans-3d" x="70.996094"/>
     <use xlink:href="#DejaVuSans-20" x="154.785156"/>
     <use xlink:href="#DejaVuSans-30" x="186.572266"/>
    </g>
   </g>
   <g id="text_11">
    <!-- t = 0 -->
    <g transform="translate(141.6 96.11799) scale(0.1 -0.1)">
     <use xlink:href="#DejaVuSans-74"/>
     <use xlink:href="#DejaVuSans-20" x="39.208984"/>
     <use xlink:href="#DejaVuSans-3d" x="70.996094"/>
     <use xlink:href="#DejaVuSans-20" x="154.785156"/>
     <use xlink:href="#DejaVuSans-30" x="186.572266"/>
    </g>
   </g>
   <g id="text_12">
    <!-- t = 0 -->
    <g transform="translate(141.6 86.51799) scale(0.1 -0.1)">
     <use xlink:href="#DejaVuSans-74"/>
     <use xlink:href="#DejaVuSans-20" x="39.208984"/>
     <use xlink:href="#DejaVuSans-3d" x="70.996094"/>
     <use xlink:href="#DejaVuSans-20" x="154.785156"/>
     <use xlink:href="#DejaVuSans-30" x="186.572266"/>
    </g>
   </g>
   <g id="text_13">
    <!-- t = 0 -->
    <g transform="translate(141.6 76.91799) scale(0.1 -0.1)">
     <use xlink:href="#DejaVuSans-74"/>
     <use xlink:href="#DejaVuSans-20" x="39.208984"/>
     <use xlink:href="#DejaVuSans-3d" x="70.996094"/>
     <use xlink:href="#DejaVuSans-20" x="154.785156"/>
     <use xlink:href="#DejaVuSans-30" x="186.572266"/>
    </g>
   </g>
  </g>
  <g id="axes_2">
   <g id="patch_4">
    <path d="M 370.736842 122.99799 
L 365.936842 126.11799 
L 367.056842 123.00039 
L 245.936842 123.00039 
L 245.936842 122.99559 
L 367.056842 122.99559 
L 365.936842 119.87799 
z
" clip-path="url(#p3a901c1148)" style="stroke: #000000; stroke-linejoin: miter"/>
   </g>
   <g id="patch_5">
    <path d="M 308.336842 7.79799 
L 311.456842 12.59799 
L 308.339242 11.47799 
L 308.339242 238.19799 
L 308.334442 238.19799 
L 308.334442 11.47799 
L 305.216842 12.59799 
z
" clip-path="url(#p3a901c1148)" style="stroke: #000000; stroke-linejoin: miter"/>
   </g>
   <g id="Quiver_1">
    <path d="M 260.024842 238.157542 
L 260.024842 230.885542 
L 258.776842 231.197542 
L 260.336842 228.077542 
L 261.896842 231.197542 
L 260.648842 230.885542 
L 260.648842 238.157542 
L 260.024842 238.157542 
" clip-path="url(#p3a901c1148)" style="fill: #800000"/>
    <path d="M 269.624842 238.157542 
L 269.624842 230.885542 
L 268.376842 231.197542 
L 269.936842 228.077542 
L 271.496842 231.197542 
L 270.248842 230.885542 
L 270.248842 238.157542 
L 269.624842 238.157542 
" clip-path="url(#p3a901c1148)" style="fill: #800000"/>
    <path d="M 279.224842 238.157542 
L 279.224842 230.885542 
L 277.976842 231.197542 
L 279.536842 228.077542 
L 281.096842 231.197542 
L 279.848842 230.885542 
L 279.848842 238.157542 
L 279.224842 238.157542 
" clip-path="url(#p3a901c1148)" style="fill: #800000"/>
    <path d="M 288.824842 238.157542 
L 288.824842 230.885542 
L 287.576842 231.197542 
L 289.136842 228.077542 
L 290.696842 231.197542 
L 289.448842 230.885542 
L 289.448842 238.157542 
L 288.824842 238.157542 
" clip-path="url(#p3a901c1148)" style="fill: #800000"/>
    <path d="M 298.424842 238.157542 
L 298.424842 230.885542 
L 297.176842 231.197542 
L 298.736842 228.077542 
L 300.296842 231.197542 
L 299.048842 230.885542 
L 299.048842 238.157542 
L 298.424842 238.157542 
" clip-path="url(#p3a901c1148)" style="fill: #800000"/>
    <path d="M 308.024842 238.157542 
L 308.024842 230.885542 
L 306.776842 231.197542 
L 308.336842 228.077542 
L 309.896842 231.197542 
L 308.648842 230.885542 
L 308.648842 238.157542 
L 308.024842 238.157542 
" clip-path="url(#p3a901c1148)" style="fill: #800000"/>
    <path d="M 317.624842 238.157542 
L 317.624842 230.885542 
L 316.376842 231.197542 
L 317.936842 228.077542 
L 319.496842 231.197542 
L 318.248842 230.885542 
L 318.248842 238.157542 
L 317.624842 238.157542 
" clip-path="url(#p3a901c1148)" style="fill: #800000"/>
    <path d="M 327.224842 238.157542 
L 327.224842 230.885542 
L 325.976842 231.197542 
L 327.536842 228.077542 
L 329.096842 231.197542 
L 327.848842 230.885542 
L 327.848842 238.157542 
L 327.224842 238.157542 
" clip-path="url(#p3a901c1148)" style="fill: #800000"/>
    <path d="M 336.824842 238.157542 
L 336.824842 230.885542 
L 335.576842 231.197542 
L 337.136842 228.077542 
L 338.696842 231.197542 
L 337.448842 230.885542 
L 337.448842 238.157542 
L 336.824842 238.157542 
" clip-path="url(#p3a901c1148)" style="fill: #800000"/>
    <path d="M 346.424842 238.157542 
L 346.424842 230.885542 
L 345.176842 231.197542 
L 346.736842 228.077542 
L 348.296842 231.197542 
L 347.048842 230.885542 
L 347.048842 238.157542 
L 346.424842 238.157542 
" clip-path="url(#p3a901c1148)" style="fill: #800000"/>
    <path d="M 356.024842 238.157542 
L 356.024842 230.885542 
L 354.776842 231.197542 
L 356.336842 228.077542 
L 357.896842 231.197542 
L 356.648842 230.885542 
L 356.648842 238.157542 
L 356.024842 238.157542 
" clip-path="url(#p3a901c1148)" style="fill: #800000"/>
    <path d="M 260.024842 216.133632 
L 260.024842 208.861632 
L 258.776842 209.173632 
L 260.336842 206.053632 
L 261.896842 209.173632 
L 260.648842 208.861632 
L 260.648842 216.133632 
L 260.024842 216.133632 
" clip-path="url(#p3a901c1148)" style="fill: #f10800"/>
    <path d="M 269.624842 216.133632 
L 269.624842 208.861632 
L 268.376842 209.173632 
L 269.936842 206.053632 
L 271.496842 209.173632 
L 270.248842 208.861632 
L 270.248842 216.133632 
L 269.624842 216.133632 
" clip-path="url(#p3a901c1148)" style="fill: #f10800"/>
    <path d="M 279.224842 216.133632 
L 279.224842 208.861632 
L 277.976842 209.173632 
L 279.536842 206.053632 
L 281.096842 209.173632 
L 279.848842 208.861632 
L 279.848842 216.133632 
L 279.224842 216.133632 
" clip-path="url(#p3a901c1148)" style="fill: #f10800"/>
    <path d="M 288.824842 216.133632 
L 288.824842 208.861632 
L 287.576842 209.173632 
L 289.136842 206.053632 
L 290.696842 209.173632 
L 289.448842 208.861632 
L 289.448842 216.133632 
L 288.824842 216.133632 
" clip-path="url(#p3a901c1148)" style="fill: #f10800"/>
    <path d="M 298.424842 216.133632 
L 298.424842 208.861632 
L 297.176842 209.173632 
L 298.736842 206.053632 
L 300.296842 209.173632 
L 299.048842 208.861632 
L 299.048842 216.133632 
L 298.424842 216.133632 
" clip-path="url(#p3a901c1148)" style="fill: #f10800"/>
    <path d="M 308.024842 216.133632 
L 308.024842 208.861632 
L 306.776842 209.173632 
L 308.336842 206.053632 
L 309.896842 209.173632 
L 308.648842 208.861632 
L 308.648842 216.133632 
L 308.024842 216.133632 
" clip-path="url(#p3a901c1148)" style="fill: #f10800"/>
    <path d="M 317.624842 216.133632 
L 317.624842 208.861632 
L 316.376842 209.173632 
L 317.936842 206.053632 
L 319.496842 209.173632 
L 318.248842 208.861632 
L 318.248842 216.133632 
L 317.624842 216.133632 
" clip-path="url(#p3a901c1148)" style="fill: #f10800"/>
    <path d="M 327.224842 216.133632 
L 327.224842 208.861632 
L 325.976842 209.173632 
L 327.536842 206.053632 
L 329.096842 209.173632 
L 327.848842 208.861632 
L 327.848842 216.133632 
L 327.224842 216.133632 
" clip-path="url(#p3a901c1148)" style="fill: #f10800"/>
    <path d="M 336.824842 216.133632 
L 336.824842 208.861632 
L 335.576842 209.173632 
L 337.136842 206.053632 
L 338.696842 209.173632 
L 337.448842 208.861632 
L 337.448842 216.133632 
L 336.824842 216.133632 
" clip-path="url(#p3a901c1148)" style="fill: #f10800"/>
    <path d="M 346.424842 216.133632 
L 346.424842 208.861632 
L 345.176842 209.173632 
L 346.736842 206.053632 
L 348.296842 209.173632 
L 347.048842 208.861632 
L 347.048842 216.133632 
L 346.424842 216.133632 
" clip-path="url(#p3a901c1148)" style="fill: #f10800"/>
    <path d="M 356.024842 216.133632 
L 356.024842 208.861632 
L 354.776842 209.173632 
L 356.336842 206.053632 
L 357.896842 209.173632 
L 356.648842 208.861632 
L 356.648842 216.133632 
L 356.024842 216.133632 
" clip-path="url(#p3a901c1148)" style="fill: #f10800"/>
    <path d="M 260.024842 194.109721 
L 260.024842 186.837721 
L 258.776842 187.149721 
L 260.336842 184.029721 
L 261.896842 187.149721 
L 260.648842 186.837721 
L 260.648842 194.109721 
L 260.024842 194.109721 
" clip-path="url(#p3a901c1148)" style="fill: #ff6800"/>
    <path d="M 269.624842 194.109721 
L 269.624842 186.837721 
L 268.376842 187.149721 
L 269.936842 184.029721 
L 271.496842 187.149721 
L 270.248842 186.837721 
L 270.248842 194.109721 
L 269.624842 194.109721 
" clip-path="url(#p3a901c1148)" style="fill: #ff6800"/>
    <path d="M 279.224842 194.109721 
L 279.224842 186.837721 
L 277.976842 187.149721 
L 279.536842 184.029721 
L 281.096842 187.149721 
L 279.848842 186.837721 
L 279.848842 194.109721 
L 279.224842 194.109721 
" clip-path="url(#p3a901c1148)" style="fill: #ff6800"/>
    <path d="M 288.824842 194.109721 
L 288.824842 186.837721 
L 287.576842 187.149721 
L 289.136842 184.029721 
L 290.696842 187.149721 
L 289.448842 186.837721 
L 289.448842 194.109721 
L 288.824842 194.109721 
" clip-path="url(#p3a901c1148)" style="fill: #ff6800"/>
    <path d="M 298.424842 194.109721 
L 298.424842 186.837721 
L 297.176842 187.149721 
L 298.736842 184.029721 
L 300.296842 187.149721 
L 299.048842 186.837721 
L 299.048842 194.109721 
L 298.424842 194.109721 
" clip-path="url(#p3a901c1148)" style="fill: #ff6800"/>
    <path d="M 308.024842 194.109721 
L 308.024842 186.837721 
L 306.776842 187.149721 
L 308.336842 184.029721 
L 309.896842 187.149721 
L 308.648842 186.837721 
L 308.648842 194.109721 
L 308.024842 194.109721 
" clip-path="url(#p3a901c1148)" style="fill: #ff6800"/>
    <path d="M 317.624842 194.109721 
L 317.624842 186.837721 
L 316.376842 187.149721 
L 317.936842 184.029721 
L 319.496842 187.149721 
L 318.248842 186.837721 
L 318.248842 194.109721 
L 317.624842 194.109721 
" clip-path="url(#p3a901c1148)" style="fill: #ff6800"/>
    <path d="M 327.224842 194.109721 
L 327.224842 186.837721 
L 325.976842 187.149721 
L 327.536842 184.029721 
L 329.096842 187.149721 
L 327.848842 186.837721 
L 327.848842 194.109721 
L 327.224842 194.109721 
" clip-path="url(#p3a901c1148)" style="fill: #ff6800"/>
    <path d="M 336.824842 194.109721 
L 336.824842 186.837721 
L 335.576842 187.149721 
L 337.136842 184.029721 
L 338.696842 187.149721 
L 337.448842 186.837721 
L 337.448842 194.109721 
L 336.824842 194.109721 
" clip-path="url(#p3a901c1148)" style="fill: #ff6800"/>
    <path d="M 346.424842 194.109721 
L 346.424842 186.837721 
L 345.176842 187.149721 
L 346.736842 184.029721 
L 348.296842 187.149721 
L 347.048842 186.837721 
L 347.048842 194.109721 
L 346.424842 194.109721 
" clip-path="url(#p3a901c1148)" style="fill: #ff6800"/>
    <path d="M 356.024842 194.109721 
L 356.024842 186.837721 
L 354.776842 187.149721 
L 356.336842 184.029721 
L 357.896842 187.149721 
L 356.648842 186.837721 
L 356.648842 194.109721 
L 356.024842 194.109721 
" clip-path="url(#p3a901c1148)" style="fill: #ff6800"/>
    <path d="M 260.024842 172.085811 
L 260.024842 164.813811 
L 258.776842 165.125811 
L 260.336842 162.005811 
L 261.896842 165.125811 
L 260.648842 164.813811 
L 260.648842 172.085811 
L 260.024842 172.085811 
" clip-path="url(#p3a901c1148)" style="fill: #ffc400"/>
    <path d="M 269.624842 172.085811 
L 269.624842 164.813811 
L 268.376842 165.125811 
L 269.936842 162.005811 
L 271.496842 165.125811 
L 270.248842 164.813811 
L 270.248842 172.085811 
L 269.624842 172.085811 
" clip-path="url(#p3a901c1148)" style="fill: #ffc400"/>
    <path d="M 279.224842 172.085811 
L 279.224842 164.813811 
L 277.976842 165.125811 
L 279.536842 162.005811 
L 281.096842 165.125811 
L 279.848842 164.813811 
L 279.848842 172.085811 
L 279.224842 172.085811 
" clip-path="url(#p3a901c1148)" style="fill: #ffc400"/>
    <path d="M 288.824842 172.085811 
L 288.824842 164.813811 
L 287.576842 165.125811 
L 289.136842 162.005811 
L 290.696842 165.125811 
L 289.448842 164.813811 
L 289.448842 172.085811 
L 288.824842 172.085811 
" clip-path="url(#p3a901c1148)" style="fill: #ffc400"/>
    <path d="M 298.424842 172.085811 
L 298.424842 164.813811 
L 297.176842 165.125811 
L 298.736842 162.005811 
L 300.296842 165.125811 
L 299.048842 164.813811 
L 299.048842 172.085811 
L 298.424842 172.085811 
" clip-path="url(#p3a901c1148)" style="fill: #ffc400"/>
    <path d="M 308.024842 172.085811 
L 308.024842 164.813811 
L 306.776842 165.125811 
L 308.336842 162.005811 
L 309.896842 165.125811 
L 308.648842 164.813811 
L 308.648842 172.085811 
L 308.024842 172.085811 
" clip-path="url(#p3a901c1148)" style="fill: #ffc400"/>
    <path d="M 317.624842 172.085811 
L 317.624842 164.813811 
L 316.376842 165.125811 
L 317.936842 162.005811 
L 319.496842 165.125811 
L 318.248842 164.813811 
L 318.248842 172.085811 
L 317.624842 172.085811 
" clip-path="url(#p3a901c1148)" style="fill: #ffc400"/>
    <path d="M 327.224842 172.085811 
L 327.224842 164.813811 
L 325.976842 165.125811 
L 327.536842 162.005811 
L 329.096842 165.125811 
L 327.848842 164.813811 
L 327.848842 172.085811 
L 327.224842 172.085811 
" clip-path="url(#p3a901c1148)" style="fill: #ffc400"/>
    <path d="M 336.824842 172.085811 
L 336.824842 164.813811 
L 335.576842 165.125811 
L 337.136842 162.005811 
L 338.696842 165.125811 
L 337.448842 164.813811 
L 337.448842 172.085811 
L 336.824842 172.085811 
" clip-path="url(#p3a901c1148)" style="fill: #ffc400"/>
    <path d="M 346.424842 172.085811 
L 346.424842 164.813811 
L 345.176842 165.125811 
L 346.736842 162.005811 
L 348.296842 165.125811 
L 347.048842 164.813811 
L 347.048842 172.085811 
L 346.424842 172.085811 
" clip-path="url(#p3a901c1148)" style="fill: #ffc400"/>
    <path d="M 356.024842 172.085811 
L 356.024842 164.813811 
L 354.776842 165.125811 
L 356.336842 162.005811 
L 357.896842 165.125811 
L 356.648842 164.813811 
L 356.648842 172.085811 
L 356.024842 172.085811 
" clip-path="url(#p3a901c1148)" style="fill: #ffc400"/>
    <path d="M 260.024842 150.0619 
L 260.024842 142.7899 
L 258.776842 143.1019 
L 260.336842 139.9819 
L 261.896842 143.1019 
L 260.648842 142.7899 
L 260.648842 150.0619 
L 260.024842 150.0619 
" clip-path="url(#p3a901c1148)" style="fill: #ceff29"/>
    <path d="M 269.624842 150.0619 
L 269.624842 142.7899 
L 268.376842 143.1019 
L 269.936842 139.9819 
L 271.496842 143.1019 
L 270.248842 142.7899 
L 270.248842 150.0619 
L 269.624842 150.0619 
" clip-path="url(#p3a901c1148)" style="fill: #ceff29"/>
    <path d="M 279.224842 150.0619 
L 279.224842 142.7899 
L 277.976842 143.1019 
L 279.536842 139.9819 
L 281.096842 143.1019 
L 279.848842 142.7899 
L 279.848842 150.0619 
L 279.224842 150.0619 
" clip-path="url(#p3a901c1148)" style="fill: #ceff29"/>
    <path d="M 288.824842 150.0619 
L 288.824842 142.7899 
L 287.576842 143.1019 
L 289.136842 139.9819 
L 290.696842 143.1019 
L 289.448842 142.7899 
L 289.448842 150.0619 
L 288.824842 150.0619 
" clip-path="url(#p3a901c1148)" style="fill: #ceff29"/>
    <path d="M 298.424842 150.0619 
L 298.424842 142.7899 
L 297.176842 143.1019 
L 298.736842 139.9819 
L 300.296842 143.1019 
L 299.048842 142.7899 
L 299.048842 150.0619 
L 298.424842 150.0619 
" clip-path="url(#p3a901c1148)" style="fill: #ceff29"/>
    <path d="M 308.024842 150.0619 
L 308.024842 142.7899 
L 306.776842 143.1019 
L 308.336842 139.9819 
L 309.896842 143.1019 
L 308.648842 142.7899 
L 308.648842 150.0619 
L 308.024842 150.0619 
" clip-path="url(#p3a901c1148)" style="fill: #ceff29"/>
    <path d="M 317.624842 150.0619 
L 317.624842 142.7899 
L 316.376842 143.1019 
L 317.936842 139.9819 
L 319.496842 143.1019 
L 318.248842 142.7899 
L 318.248842 150.0619 
L 317.624842 150.0619 
" clip-path="url(#p3a901c1148)" style="fill: #ceff29"/>
    <path d="M 327.224842 150.0619 
L 327.224842 142.7899 
L 325.976842 143.1019 
L 327.536842 139.9819 
L 329.096842 143.1019 
L 327.848842 142.7899 
L 327.848842 150.0619 
L 327.224842 150.0619 
" clip-path="url(#p3a901c1148)" style="fill: #ceff29"/>
    <path d="M 336.824842 150.0619 
L 336.824842 142.7899 
L 335.576842 143.1019 
L 337.136842 139.9819 
L 338.696842 143.1019 
L 337.448842 142.7899 
L 337.448842 150.0619 
L 336.824842 150.0619 
" clip-path="url(#p3a901c1148)" style="fill: #ceff29"/>
    <path d="M 346.424842 150.0619 
L 346.424842 142.7899 
L 345.176842 143.1019 
L 346.736842 139.9819 
L 348.296842 143.1019 
L 347.048842 142.7899 
L 347.048842 150.0619 
L 346.424842 150.0619 
" clip-path="url(#p3a901c1148)" style="fill: #ceff29"/>
    <path d="M 356.024842 150.0619 
L 356.024842 142.7899 
L 354.776842 143.1019 
L 356.336842 139.9819 
L 357.896842 143.1019 
L 356.648842 142.7899 
L 356.648842 150.0619 
L 356.024842 150.0619 
" clip-path="url(#p3a901c1148)" style="fill: #ceff29"/>
    <path d="M 260.024842 128.03799 
L 260.024842 120.76599 
L 258.776842 121.07799 
L 260.336842 117.95799 
L 261.896842 121.07799 
L 260.648842 120.76599 
L 260.648842 128.03799 
L 260.024842 128.03799 
" clip-path="url(#p3a901c1148)" style="fill: #7dff7a"/>
    <path d="M 269.624842 128.03799 
L 269.624842 120.76599 
L 268.376842 121.07799 
L 269.936842 117.95799 
L 271.496842 121.07799 
L 270.248842 120.76599 
L 270.248842 128.03799 
L 269.624842 128.03799 
" clip-path="url(#p3a901c1148)" style="fill: #7dff7a"/>
    <path d="M 279.224842 128.03799 
L 279.224842 120.76599 
L 277.976842 121.07799 
L 279.536842 117.95799 
L 281.096842 121.07799 
L 279.848842 120.76599 
L 279.848842 128.03799 
L 279.224842 128.03799 
" clip-path="url(#p3a901c1148)" style="fill: #7dff7a"/>
    <path d="M 288.824842 128.03799 
L 288.824842 120.76599 
L 287.576842 121.07799 
L 289.136842 117.95799 
L 290.696842 121.07799 
L 289.448842 120.76599 
L 289.448842 128.03799 
L 288.824842 128.03799 
" clip-path="url(#p3a901c1148)" style="fill: #7dff7a"/>
    <path d="M 298.424842 128.03799 
L 298.424842 120.76599 
L 297.176842 121.07799 
L 298.736842 117.95799 
L 300.296842 121.07799 
L 299.048842 120.76599 
L 299.048842 128.03799 
L 298.424842 128.03799 
" clip-path="url(#p3a901c1148)" style="fill: #7dff7a"/>
    <path d="M 308.024842 128.03799 
L 308.024842 120.76599 
L 306.776842 121.07799 
L 308.336842 117.95799 
L 309.896842 121.07799 
L 308.648842 120.76599 
L 308.648842 128.03799 
L 308.024842 128.03799 
" clip-path="url(#p3a901c1148)" style="fill: #7dff7a"/>
    <path d="M 317.624842 128.03799 
L 317.624842 120.76599 
L 316.376842 121.07799 
L 317.936842 117.95799 
L 319.496842 121.07799 
L 318.248842 120.76599 
L 318.248842 128.03799 
L 317.624842 128.03799 
" clip-path="url(#p3a901c1148)" style="fill: #7dff7a"/>
    <path d="M 327.224842 128.03799 
L 327.224842 120.76599 
L 325.976842 121.07799 
L 327.536842 117.95799 
L 329.096842 121.07799 
L 327.848842 120.76599 
L 327.848842 128.03799 
L 327.224842 128.03799 
" clip-path="url(#p3a901c1148)" style="fill: #7dff7a"/>
    <path d="M 336.824842 128.03799 
L 336.824842 120.76599 
L 335.576842 121.07799 
L 337.136842 117.95799 
L 338.696842 121.07799 
L 337.448842 120.76599 
L 337.448842 128.03799 
L 336.824842 128.03799 
" clip-path="url(#p3a901c1148)" style="fill: #7dff7a"/>
    <path d="M 346.424842 128.03799 
L 346.424842 120.76599 
L 345.176842 121.07799 
L 346.736842 117.95799 
L 348.296842 121.07799 
L 347.048842 120.76599 
L 347.048842 128.03799 
L 346.424842 128.03799 
" clip-path="url(#p3a901c1148)" style="fill: #7dff7a"/>
    <path d="M 356.024842 128.03799 
L 356.024842 120.76599 
L 354.776842 121.07799 
L 356.336842 117.95799 
L 357.896842 121.07799 
L 356.648842 120.76599 
L 356.648842 128.03799 
L 356.024842 128.03799 
" clip-path="url(#p3a901c1148)" style="fill: #7dff7a"/>
    <path d="M 260.024842 106.014079 
L 260.024842 98.742079 
L 258.776842 99.054079 
L 260.336842 95.934079 
L 261.896842 99.054079 
L 260.648842 98.742079 
L 260.648842 106.014079 
L 260.024842 106.014079 
" clip-path="url(#p3a901c1148)" style="fill: #29ffce"/>
    <path d="M 269.624842 106.014079 
L 269.624842 98.742079 
L 268.376842 99.054079 
L 269.936842 95.934079 
L 271.496842 99.054079 
L 270.248842 98.742079 
L 270.248842 106.014079 
L 269.624842 106.014079 
" clip-path="url(#p3a901c1148)" style="fill: #29ffce"/>
    <path d="M 279.224842 106.014079 
L 279.224842 98.742079 
L 277.976842 99.054079 
L 279.536842 95.934079 
L 281.096842 99.054079 
L 279.848842 98.742079 
L 279.848842 106.014079 
L 279.224842 106.014079 
" clip-path="url(#p3a901c1148)" style="fill: #29ffce"/>
    <path d="M 288.824842 106.014079 
L 288.824842 98.742079 
L 287.576842 99.054079 
L 289.136842 95.934079 
L 290.696842 99.054079 
L 289.448842 98.742079 
L 289.448842 106.014079 
L 288.824842 106.014079 
" clip-path="url(#p3a901c1148)" style="fill: #29ffce"/>
    <path d="M 298.424842 106.014079 
L 298.424842 98.742079 
L 297.176842 99.054079 
L 298.736842 95.934079 
L 300.296842 99.054079 
L 299.048842 98.742079 
L 299.048842 106.014079 
L 298.424842 106.014079 
" clip-path="url(#p3a901c1148)" style="fill: #29ffce"/>
    <path d="M 308.024842 106.014079 
L 308.024842 98.742079 
L 306.776842 99.054079 
L 308.336842 95.934079 
L 309.896842 99.054079 
L 308.648842 98.742079 
L 308.648842 106.014079 
L 308.024842 106.014079 
" clip-path="url(#p3a901c1148)" style="fill: #29ffce"/>
    <path d="M 317.624842 106.014079 
L 317.624842 98.742079 
L 316.376842 99.054079 
L 317.936842 95.934079 
L 319.496842 99.054079 
L 318.248842 98.742079 
L 318.248842 106.014079 
L 317.624842 106.014079 
" clip-path="url(#p3a901c1148)" style="fill: #29ffce"/>
    <path d="M 327.224842 106.014079 
L 327.224842 98.742079 
L 325.976842 99.054079 
L 327.536842 95.934079 
L 329.096842 99.054079 
L 327.848842 98.742079 
L 327.848842 106.014079 
L 327.224842 106.014079 
" clip-path="url(#p3a901c1148)" style="fill: #29ffce"/>
    <path d="M 336.824842 106.014079 
L 336.824842 98.742079 
L 335.576842 99.054079 
L 337.136842 95.934079 
L 338.696842 99.054079 
L 337.448842 98.742079 
L 337.448842 106.014079 
L 336.824842 106.014079 
" clip-path="url(#p3a901c1148)" style="fill: #29ffce"/>
    <path d="M 346.424842 106.014079 
L 346.424842 98.742079 
L 345.176842 99.054079 
L 346.736842 95.934079 
L 348.296842 99.054079 
L 347.048842 98.742079 
L 347.048842 106.014079 
L 346.424842 106.014079 
" clip-path="url(#p3a901c1148)" style="fill: #29ffce"/>
    <path d="M 356.024842 106.014079 
L 356.024842 98.742079 
L 354.776842 99.054079 
L 356.336842 95.934079 
L 357.896842 99.054079 
L 356.648842 98.742079 
L 356.648842 106.014079 
L 356.024842 106.014079 
" clip-path="url(#p3a901c1148)" style="fill: #29ffce"/>
    <path d="M 260.024842 83.990169 
L 260.024842 76.718169 
L 258.776842 77.030169 
L 260.336842 73.910169 
L 261.896842 77.030169 
L 260.648842 76.718169 
L 260.648842 83.990169 
L 260.024842 83.990169 
" clip-path="url(#p3a901c1148)" style="fill: #00b0ff"/>
    <path d="M 269.624842 83.990169 
L 269.624842 76.718169 
L 268.376842 77.030169 
L 269.936842 73.910169 
L 271.496842 77.030169 
L 270.248842 76.718169 
L 270.248842 83.990169 
L 269.624842 83.990169 
" clip-path="url(#p3a901c1148)" style="fill: #00b0ff"/>
    <path d="M 279.224842 83.990169 
L 279.224842 76.718169 
L 277.976842 77.030169 
L 279.536842 73.910169 
L 281.096842 77.030169 
L 279.848842 76.718169 
L 279.848842 83.990169 
L 279.224842 83.990169 
" clip-path="url(#p3a901c1148)" style="fill: #00b0ff"/>
    <path d="M 288.824842 83.990169 
L 288.824842 76.718169 
L 287.576842 77.030169 
L 289.136842 73.910169 
L 290.696842 77.030169 
L 289.448842 76.718169 
L 289.448842 83.990169 
L 288.824842 83.990169 
" clip-path="url(#p3a901c1148)" style="fill: #00b0ff"/>
    <path d="M 298.424842 83.990169 
L 298.424842 76.718169 
L 297.176842 77.030169 
L 298.736842 73.910169 
L 300.296842 77.030169 
L 299.048842 76.718169 
L 299.048842 83.990169 
L 298.424842 83.990169 
" clip-path="url(#p3a901c1148)" style="fill: #00b0ff"/>
    <path d="M 308.024842 83.990169 
L 308.024842 76.718169 
L 306.776842 77.030169 
L 308.336842 73.910169 
L 309.896842 77.030169 
L 308.648842 76.718169 
L 308.648842 83.990169 
L 308.024842 83.990169 
" clip-path="url(#p3a901c1148)" style="fill: #00b0ff"/>
    <path d="M 317.624842 83.990169 
L 317.624842 76.718169 
L 316.376842 77.030169 
L 317.936842 73.910169 
L 319.496842 77.030169 
L 318.248842 76.718169 
L 318.248842 83.990169 
L 317.624842 83.990169 
" clip-path="url(#p3a901c1148)" style="fill: #00b0ff"/>
    <path d="M 327.224842 83.990169 
L 327.224842 76.718169 
L 325.976842 77.030169 
L 327.536842 73.910169 
L 329.096842 77.030169 
L 327.848842 76.718169 
L 327.848842 83.990169 
L 327.224842 83.990169 
" clip-path="url(#p3a901c1148)" style="fill: #00b0ff"/>
    <path d="M 336.824842 83.990169 
L 336.824842 76.718169 
L 335.576842 77.030169 
L 337.136842 73.910169 
L 338.696842 77.030169 
L 337.448842 76.718169 
L 337.448842 83.990169 
L 336.824842 83.990169 
" clip-path="url(#p3a901c1148)" style="fill: #00b0ff"/>
    <path d="M 346.424842 83.990169 
L 346.424842 76.718169 
L 345.176842 77.030169 
L 346.736842 73.910169 
L 348.296842 77.030169 
L 347.048842 76.718169 
L 347.048842 83.990169 
L 346.424842 83.990169 
" clip-path="url(#p3a901c1148)" style="fill: #00b0ff"/>
    <path d="M 356.024842 83.990169 
L 356.024842 76.718169 
L 354.776842 77.030169 
L 356.336842 73.910169 
L 357.896842 77.030169 
L 356.648842 76.718169 
L 356.648842 83.990169 
L 356.024842 83.990169 
" clip-path="url(#p3a901c1148)" style="fill: #00b0ff"/>
    <path d="M 260.024842 61.966258 
L 260.024842 54.694258 
L 258.776842 55.006258 
L 260.336842 51.886258 
L 261.896842 55.006258 
L 260.648842 54.694258 
L 260.648842 61.966258 
L 260.024842 61.966258 
" clip-path="url(#p3a901c1148)" style="fill: #004cff"/>
    <path d="M 269.624842 61.966258 
L 269.624842 54.694258 
L 268.376842 55.006258 
L 269.936842 51.886258 
L 271.496842 55.006258 
L 270.248842 54.694258 
L 270.248842 61.966258 
L 269.624842 61.966258 
" clip-path="url(#p3a901c1148)" style="fill: #004cff"/>
    <path d="M 279.224842 61.966258 
L 279.224842 54.694258 
L 277.976842 55.006258 
L 279.536842 51.886258 
L 281.096842 55.006258 
L 279.848842 54.694258 
L 279.848842 61.966258 
L 279.224842 61.966258 
" clip-path="url(#p3a901c1148)" style="fill: #004cff"/>
    <path d="M 288.824842 61.966258 
L 288.824842 54.694258 
L 287.576842 55.006258 
L 289.136842 51.886258 
L 290.696842 55.006258 
L 289.448842 54.694258 
L 289.448842 61.966258 
L 288.824842 61.966258 
" clip-path="url(#p3a901c1148)" style="fill: #004cff"/>
    <path d="M 298.424842 61.966258 
L 298.424842 54.694258 
L 297.176842 55.006258 
L 298.736842 51.886258 
L 300.296842 55.006258 
L 299.048842 54.694258 
L 299.048842 61.966258 
L 298.424842 61.966258 
" clip-path="url(#p3a901c1148)" style="fill: #004cff"/>
    <path d="M 308.024842 61.966258 
L 308.024842 54.694258 
L 306.776842 55.006258 
L 308.336842 51.886258 
L 309.896842 55.006258 
L 308.648842 54.694258 
L 308.648842 61.966258 
L 308.024842 61.966258 
" clip-path="url(#p3a901c1148)" style="fill: #004cff"/>
    <path d="M 317.624842 61.966258 
L 317.624842 54.694258 
L 316.376842 55.006258 
L 317.936842 51.886258 
L 319.496842 55.006258 
L 318.248842 54.694258 
L 318.248842 61.966258 
L 317.624842 61.966258 
" clip-path="url(#p3a901c1148)" style="fill: #004cff"/>
    <path d="M 327.224842 61.966258 
L 327.224842 54.694258 
L 325.976842 55.006258 
L 327.536842 51.886258 
L 329.096842 55.006258 
L 327.848842 54.694258 
L 327.848842 61.966258 
L 327.224842 61.966258 
" clip-path="url(#p3a901c1148)" style="fill: #004cff"/>
    <path d="M 336.824842 61.966258 
L 336.824842 54.694258 
L 335.576842 55.006258 
L 337.136842 51.886258 
L 338.696842 55.006258 
L 337.448842 54.694258 
L 337.448842 61.966258 
L 336.824842 61.966258 
" clip-path="url(#p3a901c1148)" style="fill: #004cff"/>
    <path d="M 346.424842 61.966258 
L 346.424842 54.694258 
L 345.176842 55.006258 
L 346.736842 51.886258 
L 348.296842 55.006258 
L 347.048842 54.694258 
L 347.048842 61.966258 
L 346.424842 61.966258 
" clip-path="url(#p3a901c1148)" style="fill: #004cff"/>
    <path d="M 356.024842 61.966258 
L 356.024842 54.694258 
L 354.776842 55.006258 
L 356.336842 51.886258 
L 357.896842 55.006258 
L 356.648842 54.694258 
L 356.648842 61.966258 
L 356.024842 61.966258 
" clip-path="url(#p3a901c1148)" style="fill: #004cff"/>
    <path d="M 260.024842 39.942348 
L 260.024842 32.670348 
L 258.776842 32.982348 
L 260.336842 29.862348 
L 261.896842 32.982348 
L 260.648842 32.670348 
L 260.648842 39.942348 
L 260.024842 39.942348 
" clip-path="url(#p3a901c1148)" style="fill: #0000f1"/>
    <path d="M 269.624842 39.942348 
L 269.624842 32.670348 
L 268.376842 32.982348 
L 269.936842 29.862348 
L 271.496842 32.982348 
L 270.248842 32.670348 
L 270.248842 39.942348 
L 269.624842 39.942348 
" clip-path="url(#p3a901c1148)" style="fill: #0000f1"/>
    <path d="M 279.224842 39.942348 
L 279.224842 32.670348 
L 277.976842 32.982348 
L 279.536842 29.862348 
L 281.096842 32.982348 
L 279.848842 32.670348 
L 279.848842 39.942348 
L 279.224842 39.942348 
" clip-path="url(#p3a901c1148)" style="fill: #0000f1"/>
    <path d="M 288.824842 39.942348 
L 288.824842 32.670348 
L 287.576842 32.982348 
L 289.136842 29.862348 
L 290.696842 32.982348 
L 289.448842 32.670348 
L 289.448842 39.942348 
L 288.824842 39.942348 
" clip-path="url(#p3a901c1148)" style="fill: #0000f1"/>
    <path d="M 298.424842 39.942348 
L 298.424842 32.670348 
L 297.176842 32.982348 
L 298.736842 29.862348 
L 300.296842 32.982348 
L 299.048842 32.670348 
L 299.048842 39.942348 
L 298.424842 39.942348 
" clip-path="url(#p3a901c1148)" style="fill: #0000f1"/>
    <path d="M 308.024842 39.942348 
L 308.024842 32.670348 
L 306.776842 32.982348 
L 308.336842 29.862348 
L 309.896842 32.982348 
L 308.648842 32.670348 
L 308.648842 39.942348 
L 308.024842 39.942348 
" clip-path="url(#p3a901c1148)" style="fill: #0000f1"/>
    <path d="M 317.624842 39.942348 
L 317.624842 32.670348 
L 316.376842 32.982348 
L 317.936842 29.862348 
L 319.496842 32.982348 
L 318.248842 32.670348 
L 318.248842 39.942348 
L 317.624842 39.942348 
" clip-path="url(#p3a901c1148)" style="fill: #0000f1"/>
    <path d="M 327.224842 39.942348 
L 327.224842 32.670348 
L 325.976842 32.982348 
L 327.536842 29.862348 
L 329.096842 32.982348 
L 327.848842 32.670348 
L 327.848842 39.942348 
L 327.224842 39.942348 
" clip-path="url(#p3a901c1148)" style="fill: #0000f1"/>
    <path d="M 336.824842 39.942348 
L 336.824842 32.670348 
L 335.576842 32.982348 
L 337.136842 29.862348 
L 338.696842 32.982348 
L 337.448842 32.670348 
L 337.448842 39.942348 
L 336.824842 39.942348 
" clip-path="url(#p3a901c1148)" style="fill: #0000f1"/>
    <path d="M 346.424842 39.942348 
L 346.424842 32.670348 
L 345.176842 32.982348 
L 346.736842 29.862348 
L 348.296842 32.982348 
L 347.048842 32.670348 
L 347.048842 39.942348 
L 346.424842 39.942348 
" clip-path="url(#p3a901c1148)" style="fill: #0000f1"/>
    <path d="M 356.024842 39.942348 
L 356.024842 32.670348 
L 354.776842 32.982348 
L 356.336842 29.862348 
L 357.896842 32.982348 
L 356.648842 32.670348 
L 356.648842 39.942348 
L 356.024842 39.942348 
" clip-path="url(#p3a901c1148)" style="fill: #0000f1"/>
    <path d="M 260.024842 17.918438 
L 260.024842 10.646438 
L 258.776842 10.958438 
L 260.336842 7.838438 
L 261.896842 10.958438 
L 260.648842 10.646438 
L 260.648842 17.918438 
L 260.024842 17.918438 
" clip-path="url(#p3a901c1148)" style="fill: #000080"/>
    <path d="M 269.624842 17.918438 
L 269.624842 10.646438 
L 268.376842 10.958438 
L 269.936842 7.838438 
L 271.496842 10.958438 
L 270.248842 10.646438 
L 270.248842 17.918438 
L 269.624842 17.918438 
" clip-path="url(#p3a901c1148)" style="fill: #000080"/>
    <path d="M 279.224842 17.918438 
L 279.224842 10.646438 
L 277.976842 10.958438 
L 279.536842 7.838438 
L 281.096842 10.958438 
L 279.848842 10.646438 
L 279.848842 17.918438 
L 279.224842 17.918438 
" clip-path="url(#p3a901c1148)" style="fill: #000080"/>
    <path d="M 288.824842 17.918438 
L 288.824842 10.646438 
L 287.576842 10.958438 
L 289.136842 7.838438 
L 290.696842 10.958438 
L 289.448842 10.646438 
L 289.448842 17.918438 
L 288.824842 17.918438 
" clip-path="url(#p3a901c1148)" style="fill: #000080"/>
    <path d="M 298.424842 17.918438 
L 298.424842 10.646438 
L 297.176842 10.958438 
L 298.736842 7.838438 
L 300.296842 10.958438 
L 299.048842 10.646438 
L 299.048842 17.918438 
L 298.424842 17.918438 
" clip-path="url(#p3a901c1148)" style="fill: #000080"/>
    <path d="M 308.024842 17.918438 
L 308.024842 10.646438 
L 306.776842 10.958438 
L 308.336842 7.838438 
L 309.896842 10.958438 
L 308.648842 10.646438 
L 308.648842 17.918438 
L 308.024842 17.918438 
" clip-path="url(#p3a901c1148)" style="fill: #000080"/>
    <path d="M 317.624842 17.918438 
L 317.624842 10.646438 
L 316.376842 10.958438 
L 317.936842 7.838438 
L 319.496842 10.958438 
L 318.248842 10.646438 
L 318.248842 17.918438 
L 317.624842 17.918438 
" clip-path="url(#p3a901c1148)" style="fill: #000080"/>
    <path d="M 327.224842 17.918438 
L 327.224842 10.646438 
L 325.976842 10.958438 
L 327.536842 7.838438 
L 329.096842 10.958438 
L 327.848842 10.646438 
L 327.848842 17.918438 
L 327.224842 17.918438 
" clip-path="url(#p3a901c1148)" style="fill: #000080"/>
    <path d="M 336.824842 17.918438 
L 336.824842 10.646438 
L 335.576842 10.958438 
L 337.136842 7.838438 
L 338.696842 10.958438 
L 337.448842 10.646438 
L 337.448842 17.918438 
L 336.824842 17.918438 
" clip-path="url(#p3a901c1148)" style="fill: #000080"/>
    <path d="M 346.424842 17.918438 
L 346.424842 10.646438 
L 345.176842 10.958438 
L 346.736842 7.838438 
L 348.296842 10.958438 
L 347.048842 10.646438 
L 347.048842 17.918438 
L 346.424842 17.918438 
" clip-path="url(#p3a901c1148)" style="fill: #000080"/>
    <path d="M 356.024842 17.918438 
L 356.024842 10.646438 
L 354.776842 10.958438 
L 356.336842 7.838438 
L 357.896842 10.958438 
L 356.648842 10.646438 
L 356.648842 17.918438 
L 356.024842 17.918438 
" clip-path="url(#p3a901c1148)" style="fill: #000080"/>
   </g>
   <g id="text_14">
    <!-- y' -->
    <g transform="translate(365.936842 118.19799) scale(0.1 -0.1)">
     <defs>
      <path id="DejaVuSans-27" d="M 1147 4666 
L 1147 2931 
L 616 2931 
L 616 4666 
L 1147 4666 
z
" transform="scale(0.015625)"/>
     </defs>
     <use xlink:href="#DejaVuSans-79"/>
     <use xlink:href="#DejaVuSans-27" x="59.179688"/>
    </g>
   </g>
   <g id="text_15">
    <!-- z' -->
    <g transform="translate(313.136842 17.39799) scale(0.1 -0.1)">
     <use xlink:href="#DejaVuSans-7a"/>
     <use xlink:href="#DejaVuSans-27" x="52.490234"/>
    </g>
   </g>
   <g id="text_16">
    <!-- t' = -20.6 -->
    <g transform="translate(380.336842 235.037542) scale(0.1 -0.1)">
     <defs>
      <path id="DejaVuSans-2d" d="M 313 2009 
L 1997 2009 
L 1997 1497 
L 313 1497 
L 313 2009 
z
" transform="scale(0.015625)"/>
      <path id="DejaVuSans-32" d="M 1228 531 
L 3431 531 
L 3431 0 
L 469 0 
L 469 531 
Q 828 903 1448 1529 
Q 2069 2156 2228 2338 
Q 2531 2678 2651 2914 
Q 2772 3150 2772 3378 
Q 2772 3750 2511 3984 
Q 2250 4219 1831 4219 
Q 1534 4219 1204 4116 
Q 875 4013 500 3803 
L 500 4441 
Q 881 4594 1212 4672 
Q 1544 4750 1819 4750 
Q 2544 4750 2975 4387 
Q 3406 4025 3406 3419 
Q 3406 3131 3298 2873 
Q 3191 2616 2906 2266 
Q 2828 2175 2409 1742 
Q 1991 1309 1228 531 
z
" transform="scale(0.015625)"/>
      <path id="DejaVuSans-2e" d="M 684 794 
L 1344 794 
L 1344 0 
L 684 0 
L 684 794 
z
" transform="scale(0.015625)"/>
      <path id="DejaVuSans-36" d="M 2113 2584 
Q 1688 2584 1439 2293 
Q 1191 2003 1191 1497 
Q 1191 994 1439 701 
Q 1688 409 2113 409 
Q 2538 409 2786 701 
Q 3034 994 3034 1497 
Q 3034 2003 2786 2293 
Q 2538 2584 2113 2584 
z
M 3366 4563 
L 3366 3988 
Q 3128 4100 2886 4159 
Q 2644 4219 2406 4219 
Q 1781 4219 1451 3797 
Q 1122 3375 1075 2522 
Q 1259 2794 1537 2939 
Q 1816 3084 2150 3084 
Q 2853 3084 3261 2657 
Q 3669 2231 3669 1497 
Q 3669 778 3244 343 
Q 2819 -91 2113 -91 
Q 1303 -91 875 529 
Q 447 1150 447 2328 
Q 447 3434 972 4092 
Q 1497 4750 2381 4750 
Q 2619 4750 2861 4703 
Q 3103 4656 3366 4563 
z
" transform="scale(0.015625)"/>
     </defs>
     <use xlink:href="#DejaVuSans-74"/>
     <use xlink:href="#DejaVuSans-27" x="39.208984"/>
     <use xlink:href="#DejaVuSans-20" x="66.699219"/>
     <use xlink:href="#DejaVuSans-3d" x="98.486328"/>
     <use xlink:href="#DejaVuSans-20" x="182.275391"/>
     <use xlink:href="#DejaVuSans-2d" x="214.0625"/>
     <use xlink:href="#DejaVuSans-32" x="250.146484"/>
     <use xlink:href="#DejaVuSans-30" x="313.769531"/>
     <use xlink:href="#DejaVuSans-2e" x="377.392578"/>
     <use xlink:href="#DejaVuSans-36" x="409.179688"/>
    </g>
   </g>
   <g id="text_17">
    <!-- t' = -16.5 -->
    <g transform="translate(380.336842 213.013632) scale(0.1 -0.1)">
     <defs>
      <path id="DejaVuSans-31" d="M 794 531 
L 1825 531 
L 1825 4091 
L 703 3866 
L 703 4441 
L 1819 4666 
L 2450 4666 
L 2450 531 
L 3481 531 
L 3481 0 
L 794 0 
L 794 531 
z
" transform="scale(0.015625)"/>
      <path id="DejaVuSans-35" d="M 691 4666 
L 3169 4666 
L 3169 4134 
L 1269 4134 
L 1269 2991 
Q 1406 3038 1543 3061 
Q 1681 3084 1819 3084 
Q 2600 3084 3056 2656 
Q 3513 2228 3513 1497 
Q 3513 744 3044 326 
Q 2575 -91 1722 -91 
Q 1428 -91 1123 -41 
Q 819 9 494 109 
L 494 744 
Q 775 591 1075 516 
Q 1375 441 1709 441 
Q 2250 441 2565 725 
Q 2881 1009 2881 1497 
Q 2881 1984 2565 2268 
Q 2250 2553 1709 2553 
Q 1456 2553 1204 2497 
Q 953 2441 691 2322 
L 691 4666 
z
" transform="scale(0.015625)"/>
     </defs>
     <use xlink:href="#DejaVuSans-74"/>
     <use xlink:href="#DejaVuSans-27" x="39.208984"/>
     <use xlink:href="#DejaVuSans-20" x="66.699219"/>
     <use xlink:href="#DejaVuSans-3d" x="98.486328"/>
     <use xlink:href="#DejaVuSans-20" x="182.275391"/>
     <use xlink:href="#DejaVuSans-2d" x="214.0625"/>
     <use xlink:href="#DejaVuSans-31" x="250.146484"/>
     <use xlink:href="#DejaVuSans-36" x="313.769531"/>
     <use xlink:href="#DejaVuSans-2e" x="377.392578"/>
     <use xlink:href="#DejaVuSans-35" x="409.179688"/>
    </g>
   </g>
   <g id="text_18">
    <!-- t' = -12.4 -->
    <g transform="translate(380.336842 190.989721) scale(0.1 -0.1)">
     <defs>
      <path id="DejaVuSans-34" d="M 2419 4116 
L 825 1625 
L 2419 1625 
L 2419 4116 
z
M 2253 4666 
L 3047 4666 
L 3047 1625 
L 3713 1625 
L 3713 1100 
L 3047 1100 
L 3047 0 
L 2419 0 
L 2419 1100 
L 313 1100 
L 313 1709 
L 2253 4666 
z
" transform="scale(0.015625)"/>
     </defs>
     <use xlink:href="#DejaVuSans-74"/>
     <use xlink:href="#DejaVuSans-27" x="39.208984"/>
     <use xlink:href="#DejaVuSans-20" x="66.699219"/>
     <use xlink:href="#DejaVuSans-3d" x="98.486328"/>
     <use xlink:href="#DejaVuSans-20" x="182.275391"/>
     <use xlink:href="#DejaVuSans-2d" x="214.0625"/>
     <use xlink:href="#DejaVuSans-31" x="250.146484"/>
     <use xlink:href="#DejaVuSans-32" x="313.769531"/>
     <use xlink:href="#DejaVuSans-2e" x="377.392578"/>
     <use xlink:href="#DejaVuSans-34" x="409.179688"/>
    </g>
   </g>
   <g id="text_19">
    <!-- t' = -8.3 -->
    <g transform="translate(380.336842 168.965811) scale(0.1 -0.1)">
     <defs>
      <path id="DejaVuSans-38" d="M 2034 2216 
Q 1584 2216 1326 1975 
Q 1069 1734 1069 1313 
Q 1069 891 1326 650 
Q 1584 409 2034 409 
Q 2484 409 2743 651 
Q 3003 894 3003 1313 
Q 3003 1734 2745 1975 
Q 2488 2216 2034 2216 
z
M 1403 2484 
Q 997 2584 770 2862 
Q 544 3141 544 3541 
Q 544 4100 942 4425 
Q 1341 4750 2034 4750 
Q 2731 4750 3128 4425 
Q 3525 4100 3525 3541 
Q 3525 3141 3298 2862 
Q 3072 2584 2669 2484 
Q 3125 2378 3379 2068 
Q 3634 1759 3634 1313 
Q 3634 634 3220 271 
Q 2806 -91 2034 -91 
Q 1263 -91 848 271 
Q 434 634 434 1313 
Q 434 1759 690 2068 
Q 947 2378 1403 2484 
z
M 1172 3481 
Q 1172 3119 1398 2916 
Q 1625 2713 2034 2713 
Q 2441 2713 2670 2916 
Q 2900 3119 2900 3481 
Q 2900 3844 2670 4047 
Q 2441 4250 2034 4250 
Q 1625 4250 1398 4047 
Q 1172 3844 1172 3481 
z
" transform="scale(0.015625)"/>
      <path id="DejaVuSans-33" d="M 2597 2516 
Q 3050 2419 3304 2112 
Q 3559 1806 3559 1356 
Q 3559 666 3084 287 
Q 2609 -91 1734 -91 
Q 1441 -91 1130 -33 
Q 819 25 488 141 
L 488 750 
Q 750 597 1062 519 
Q 1375 441 1716 441 
Q 2309 441 2620 675 
Q 2931 909 2931 1356 
Q 2931 1769 2642 2001 
Q 2353 2234 1838 2234 
L 1294 2234 
L 1294 2753 
L 1863 2753 
Q 2328 2753 2575 2939 
Q 2822 3125 2822 3475 
Q 2822 3834 2567 4026 
Q 2313 4219 1838 4219 
Q 1578 4219 1281 4162 
Q 984 4106 628 3988 
L 628 4550 
Q 988 4650 1302 4700 
Q 1616 4750 1894 4750 
Q 2613 4750 3031 4423 
Q 3450 4097 3450 3541 
Q 3450 3153 3228 2886 
Q 3006 2619 2597 2516 
z
" transform="scale(0.015625)"/>
     </defs>
     <use xlink:href="#DejaVuSans-74"/>
     <use xlink:href="#DejaVuSans-27" x="39.208984"/>
     <use xlink:href="#DejaVuSans-20" x="66.699219"/>
     <use xlink:href="#DejaVuSans-3d" x="98.486328"/>
     <use xlink:href="#DejaVuSans-20" x="182.275391"/>
     <use xlink:href="#DejaVuSans-2d" x="214.0625"/>
     <use xlink:href="#DejaVuSans-38" x="250.146484"/>
     <use xlink:href="#DejaVuSans-2e" x="313.769531"/>
     <use xlink:href="#DejaVuSans-33" x="345.556641"/>
    </g>
   </g>
   <g id="text_20">
    <!-- t' = -4.1 -->
    <g transform="translate(380.336842 146.9419) scale(0.1 -0.1)">
     <use xlink:href="#DejaVuSans-74"/>
     <use xlink:href="#DejaVuSans-27" x="39.208984"/>
     <use xlink:href="#DejaVuSans-20" x="66.699219"/>
     <use xlink:href="#DejaVuSans-3d" x="98.486328"/>
     <use xlink:href="#DejaVuSans-20" x="182.275391"/>
     <use xlink:href="#DejaVuSans-2d" x="214.0625"/>
     <use xlink:href="#DejaVuSans-34" x="250.146484"/>
     <use xlink:href="#DejaVuSans-2e" x="313.769531"/>
     <use xlink:href="#DejaVuSans-31" x="345.556641"/>
    </g>
   </g>
   <g id="text_21">
    <!-- t' = 0.0 -->
    <g transform="translate(380.336842 124.91799) scale(0.1 -0.1)">
     <use xlink:href="#DejaVuSans-74"/>
     <use xlink:href="#DejaVuSans-27" x="39.208984"/>
     <use xlink:href="#DejaVuSans-20" x="66.699219"/>
     <use xlink:href="#DejaVuSans-3d" x="98.486328"/>
     <use xlink:href="#DejaVuSans-20" x="182.275391"/>
     <use xlink:href="#DejaVuSans-30" x="214.0625"/>
     <use xlink:href="#DejaVuSans-2e" x="277.685547"/>
     <use xlink:href="#DejaVuSans-30" x="309.472656"/>
    </g>
   </g>
   <g id="text_22">
    <!-- t' = 4.1 -->
    <g transform="translate(380.336842 102.894079) scale(0.1 -0.1)">
     <use xlink:href="#DejaVuSans-74"/>
     <use xlink:href="#DejaVuSans-27" x="39.208984"/>
     <use xlink:href="#DejaVuSans-20" x="66.699219"/>
     <use xlink:href="#DejaVuSans-3d" x="98.486328"/>
     <use xlink:href="#DejaVuSans-20" x="182.275391"/>
     <use xlink:href="#DejaVuSans-34" x="214.0625"/>
     <use xlink:href="#DejaVuSans-2e" x="277.685547"/>
     <use xlink:href="#DejaVuSans-31" x="309.472656"/>
    </g>
   </g>
   <g id="text_23">
    <!-- t' = 8.3 -->
    <g transform="translate(380.336842 80.870169) scale(0.1 -0.1)">
     <use xlink:href="#DejaVuSans-74"/>
     <use xlink:href="#DejaVuSans-27" x="39.208984"/>
     <use xlink:href="#DejaVuSans-20" x="66.699219"/>
     <use xlink:href="#DejaVuSans-3d" x="98.486328"/>
     <use xlink:href="#DejaVuSans-20" x="182.275391"/>
     <use xlink:href="#DejaVuSans-38" x="214.0625"/>
     <use xlink:href="#DejaVuSans-2e" x="277.685547"/>
     <use xlink:href="#DejaVuSans-33" x="309.472656"/>
    </g>
   </g>
   <g id="text_24">
    <!-- t' = 12.4 -->
    <g transform="translate(380.336842 58.846258) scale(0.1 -0.1)">
     <use xlink:href="#DejaVuSans-74"/>
     <use xlink:href="#DejaVuSans-27" x="39.208984"/>
     <use xlink:href="#DejaVuSans-20" x="66.699219"/>
     <use xlink:href="#DejaVuSans-3d" x="98.486328"/>
     <use xlink:href="#DejaVuSans-20" x="182.275391"/>
     <use xlink:href="#DejaVuSans-31" x="214.0625"/>
     <use xlink:href="#DejaVuSans-32" x="277.685547"/>
     <use xlink:href="#DejaVuSans-2e" x="341.308594"/>
     <use xlink:href="#DejaVuSans-34" x="373.095703"/>
    </g>
   </g>
   <g id="text_25">
    <!-- t' = 16.5 -->
    <g transform="translate(380.336842 36.822348) scale(0.1 -0.1)">
     <use xlink:href="#DejaVuSans-74"/>
     <use xlink:href="#DejaVuSans-27" x="39.208984"/>
     <use xlink:href="#DejaVuSans-20" x="66.699219"/>
     <use xlink:href="#DejaVuSans-3d" x="98.486328"/>
     <use xlink:href="#DejaVuSans-20" x="182.275391"/>
     <use xlink:href="#DejaVuSans-31" x="214.0625"/>
     <use xlink:href="#DejaVuSans-36" x="277.685547"/>
     <use xlink:href="#DejaVuSans-2e" x="341.308594"/>
     <use xlink:href="#DejaVuSans-35" x="373.095703"/>
    </g>
   </g>
   <g id="text_26">
    <!-- t' = 20.6 -->
    <g transform="translate(380.336842 14.798438) scale(0.1 -0.1)">
     <use xlink:href="#DejaVuSans-74"/>
     <use xlink:href="#DejaVuSans-27" x="39.208984"/>
     <use xlink:href="#DejaVuSans-20" x="66.699219"/>
     <use xlink:href="#DejaVuSans-3d" x="98.486328"/>
     <use xlink:href="#DejaVuSans-20" x="182.275391"/>
     <use xlink:href="#DejaVuSans-32" x="214.0625"/>
     <use xlink:href="#DejaVuSans-30" x="277.685547"/>
     <use xlink:href="#DejaVuSans-2e" x="341.308594"/>
     <use xlink:href="#DejaVuSans-36" x="373.095703"/>
    </g>
   </g>
  </g>
  <g id="axes_3">
   <g id="patch_6">
    <path d="M 609.473684 122.99799 
L 604.673684 126.11799 
L 605.793684 123.00039 
L 484.673684 123.00039 
L 484.673684 122.99559 
L 605.793684 122.99559 
L 604.673684 119.87799 
z
" clip-path="url(#p906fbf9215)" style="stroke: #000000; stroke-linejoin: miter"/>
   </g>
   <g id="patch_7">
    <path d="M 547.073684 7.79799 
L 550.193684 12.59799 
L 547.076084 11.47799 
L 547.076084 238.19799 
L 547.071284 238.19799 
L 547.071284 11.47799 
L 543.953684 12.59799 
z
" clip-path="url(#p906fbf9215)" style="stroke: #000000; stroke-linejoin: miter"/>
   </g>
   <g id="Quiver_2">
    <path d="M 498.761684 148.960705 
L 498.761684 141.688705 
L 497.513684 142.000705 
L 499.073684 138.880705 
L 500.633684 142.000705 
L 499.385684 141.688705 
L 499.385684 148.960705 
L 498.761684 148.960705 
" clip-path="url(#p906fbf9215)" style="fill: #ff0000"/>
    <path d="M 508.361684 148.960705 
L 508.361684 141.688705 
L 507.113684 142.000705 
L 508.673684 138.880705 
L 510.233684 142.000705 
L 508.985684 141.688705 
L 508.985684 148.960705 
L 508.361684 148.960705 
" clip-path="url(#p906fbf9215)" style="fill: #ff0000"/>
    <path d="M 517.961684 148.960705 
L 517.961684 141.688705 
L 516.713684 142.000705 
L 518.273684 138.880705 
L 519.833684 142.000705 
L 518.585684 141.688705 
L 518.585684 148.960705 
L 517.961684 148.960705 
" clip-path="url(#p906fbf9215)" style="fill: #ff0000"/>
    <path d="M 527.561684 148.960705 
L 527.561684 141.688705 
L 526.313684 142.000705 
L 527.873684 138.880705 
L 529.433684 142.000705 
L 528.185684 141.688705 
L 528.185684 148.960705 
L 527.561684 148.960705 
" clip-path="url(#p906fbf9215)" style="fill: #ff0000"/>
    <path d="M 537.161684 148.960705 
L 537.161684 141.688705 
L 535.913684 142.000705 
L 537.473684 138.880705 
L 539.033684 142.000705 
L 537.785684 141.688705 
L 537.785684 148.960705 
L 537.161684 148.960705 
" clip-path="url(#p906fbf9215)" style="fill: #ff0000"/>
    <path d="M 546.761684 148.960705 
L 546.761684 141.688705 
L 545.513684 142.000705 
L 547.073684 138.880705 
L 548.633684 142.000705 
L 547.385684 141.688705 
L 547.385684 148.960705 
L 546.761684 148.960705 
" clip-path="url(#p906fbf9215)" style="fill: #ff0000"/>
    <path d="M 556.361684 148.960705 
L 556.361684 141.688705 
L 555.113684 142.000705 
L 556.673684 138.880705 
L 558.233684 142.000705 
L 556.985684 141.688705 
L 556.985684 148.960705 
L 556.361684 148.960705 
" clip-path="url(#p906fbf9215)" style="fill: #ff0000"/>
    <path d="M 565.961684 148.960705 
L 565.961684 141.688705 
L 564.713684 142.000705 
L 566.273684 138.880705 
L 567.833684 142.000705 
L 566.585684 141.688705 
L 566.585684 148.960705 
L 565.961684 148.960705 
" clip-path="url(#p906fbf9215)" style="fill: #ff0000"/>
    <path d="M 575.561684 148.960705 
L 575.561684 141.688705 
L 574.313684 142.000705 
L 575.873684 138.880705 
L 577.433684 142.000705 
L 576.185684 141.688705 
L 576.185684 148.960705 
L 575.561684 148.960705 
" clip-path="url(#p906fbf9215)" style="fill: #ff0000"/>
    <path d="M 585.161684 148.960705 
L 585.161684 141.688705 
L 583.913684 142.000705 
L 585.473684 138.880705 
L 587.033684 142.000705 
L 585.785684 141.688705 
L 585.785684 148.960705 
L 585.161684 148.960705 
" clip-path="url(#p906fbf9215)" style="fill: #ff0000"/>
    <path d="M 594.761684 148.960705 
L 594.761684 141.688705 
L 593.513684 142.000705 
L 595.073684 138.880705 
L 596.633684 142.000705 
L 595.385684 141.688705 
L 595.385684 148.960705 
L 594.761684 148.960705 
" clip-path="url(#p906fbf9215)" style="fill: #ff0000"/>
    <path d="M 498.761684 144.776162 
L 498.761684 137.504162 
L 497.513684 137.816162 
L 499.073684 134.696162 
L 500.633684 137.816162 
L 499.385684 137.504162 
L 499.385684 144.776162 
L 498.761684 144.776162 
" clip-path="url(#p906fbf9215)" style="fill: #ff0000"/>
    <path d="M 508.361684 144.776162 
L 508.361684 137.504162 
L 507.113684 137.816162 
L 508.673684 134.696162 
L 510.233684 137.816162 
L 508.985684 137.504162 
L 508.985684 144.776162 
L 508.361684 144.776162 
" clip-path="url(#p906fbf9215)" style="fill: #ff0000"/>
    <path d="M 517.961684 144.776162 
L 517.961684 137.504162 
L 516.713684 137.816162 
L 518.273684 134.696162 
L 519.833684 137.816162 
L 518.585684 137.504162 
L 518.585684 144.776162 
L 517.961684 144.776162 
" clip-path="url(#p906fbf9215)" style="fill: #ff0000"/>
    <path d="M 527.561684 144.776162 
L 527.561684 137.504162 
L 526.313684 137.816162 
L 527.873684 134.696162 
L 529.433684 137.816162 
L 528.185684 137.504162 
L 528.185684 144.776162 
L 527.561684 144.776162 
" clip-path="url(#p906fbf9215)" style="fill: #ff0000"/>
    <path d="M 537.161684 144.776162 
L 537.161684 137.504162 
L 535.913684 137.816162 
L 537.473684 134.696162 
L 539.033684 137.816162 
L 537.785684 137.504162 
L 537.785684 144.776162 
L 537.161684 144.776162 
" clip-path="url(#p906fbf9215)" style="fill: #ff0000"/>
    <path d="M 546.761684 144.776162 
L 546.761684 137.504162 
L 545.513684 137.816162 
L 547.073684 134.696162 
L 548.633684 137.816162 
L 547.385684 137.504162 
L 547.385684 144.776162 
L 546.761684 144.776162 
" clip-path="url(#p906fbf9215)" style="fill: #ff0000"/>
    <path d="M 556.361684 144.776162 
L 556.361684 137.504162 
L 555.113684 137.816162 
L 556.673684 134.696162 
L 558.233684 137.816162 
L 556.985684 137.504162 
L 556.985684 144.776162 
L 556.361684 144.776162 
" clip-path="url(#p906fbf9215)" style="fill: #ff0000"/>
    <path d="M 565.961684 144.776162 
L 565.961684 137.504162 
L 564.713684 137.816162 
L 566.273684 134.696162 
L 567.833684 137.816162 
L 566.585684 137.504162 
L 566.585684 144.776162 
L 565.961684 144.776162 
" clip-path="url(#p906fbf9215)" style="fill: #ff0000"/>
    <path d="M 575.561684 144.776162 
L 575.561684 137.504162 
L 574.313684 137.816162 
L 575.873684 134.696162 
L 577.433684 137.816162 
L 576.185684 137.504162 
L 576.185684 144.776162 
L 575.561684 144.776162 
" clip-path="url(#p906fbf9215)" style="fill: #ff0000"/>
    <path d="M 585.161684 144.776162 
L 585.161684 137.504162 
L 583.913684 137.816162 
L 585.473684 134.696162 
L 587.033684 137.816162 
L 585.785684 137.504162 
L 585.785684 144.776162 
L 585.161684 144.776162 
" clip-path="url(#p906fbf9215)" style="fill: #ff0000"/>
    <path d="M 594.761684 144.776162 
L 594.761684 137.504162 
L 593.513684 137.816162 
L 595.073684 134.696162 
L 596.633684 137.816162 
L 595.385684 137.504162 
L 595.385684 144.776162 
L 594.761684 144.776162 
" clip-path="url(#p906fbf9215)" style="fill: #ff0000"/>
    <path d="M 498.761684 140.591619 
L 498.761684 133.319619 
L 497.513684 133.631619 
L 499.073684 130.511619 
L 500.633684 133.631619 
L 499.385684 133.319619 
L 499.385684 140.591619 
L 498.761684 140.591619 
" clip-path="url(#p906fbf9215)" style="fill: #ff0000"/>
    <path d="M 508.361684 140.591619 
L 508.361684 133.319619 
L 507.113684 133.631619 
L 508.673684 130.511619 
L 510.233684 133.631619 
L 508.985684 133.319619 
L 508.985684 140.591619 
L 508.361684 140.591619 
" clip-path="url(#p906fbf9215)" style="fill: #ff0000"/>
    <path d="M 517.961684 140.591619 
L 517.961684 133.319619 
L 516.713684 133.631619 
L 518.273684 130.511619 
L 519.833684 133.631619 
L 518.585684 133.319619 
L 518.585684 140.591619 
L 517.961684 140.591619 
" clip-path="url(#p906fbf9215)" style="fill: #ff0000"/>
    <path d="M 527.561684 140.591619 
L 527.561684 133.319619 
L 526.313684 133.631619 
L 527.873684 130.511619 
L 529.433684 133.631619 
L 528.185684 133.319619 
L 528.185684 140.591619 
L 527.561684 140.591619 
" clip-path="url(#p906fbf9215)" style="fill: #ff0000"/>
    <path d="M 537.161684 140.591619 
L 537.161684 133.319619 
L 535.913684 133.631619 
L 537.473684 130.511619 
L 539.033684 133.631619 
L 537.785684 133.319619 
L 537.785684 140.591619 
L 537.161684 140.591619 
" clip-path="url(#p906fbf9215)" style="fill: #ff0000"/>
    <path d="M 546.761684 140.591619 
L 546.761684 133.319619 
L 545.513684 133.631619 
L 547.073684 130.511619 
L 548.633684 133.631619 
L 547.385684 133.319619 
L 547.385684 140.591619 
L 546.761684 140.591619 
" clip-path="url(#p906fbf9215)" style="fill: #ff0000"/>
    <path d="M 556.361684 140.591619 
L 556.361684 133.319619 
L 555.113684 133.631619 
L 556.673684 130.511619 
L 558.233684 133.631619 
L 556.985684 133.319619 
L 556.985684 140.591619 
L 556.361684 140.591619 
" clip-path="url(#p906fbf9215)" style="fill: #ff0000"/>
    <path d="M 565.961684 140.591619 
L 565.961684 133.319619 
L 564.713684 133.631619 
L 566.273684 130.511619 
L 567.833684 133.631619 
L 566.585684 133.319619 
L 566.585684 140.591619 
L 565.961684 140.591619 
" clip-path="url(#p906fbf9215)" style="fill: #ff0000"/>
    <path d="M 575.561684 140.591619 
L 575.561684 133.319619 
L 574.313684 133.631619 
L 575.873684 130.511619 
L 577.433684 133.631619 
L 576.185684 133.319619 
L 576.185684 140.591619 
L 575.561684 140.591619 
" clip-path="url(#p906fbf9215)" style="fill: #ff0000"/>
    <path d="M 585.161684 140.591619 
L 585.161684 133.319619 
L 583.913684 133.631619 
L 585.473684 130.511619 
L 587.033684 133.631619 
L 585.785684 133.319619 
L 585.785684 140.591619 
L 585.161684 140.591619 
" clip-path="url(#p906fbf9215)" style="fill: #ff0000"/>
    <path d="M 594.761684 140.591619 
L 594.761684 133.319619 
L 593.513684 133.631619 
L 595.073684 130.511619 
L 596.633684 133.631619 
L 595.385684 133.319619 
L 595.385684 140.591619 
L 594.761684 140.591619 
" clip-path="url(#p906fbf9215)" style="fill: #ff0000"/>
    <path d="M 498.761684 136.407076 
L 498.761684 129.135076 
L 497.513684 129.447076 
L 499.073684 126.327076 
L 500.633684 129.447076 
L 499.385684 129.135076 
L 499.385684 136.407076 
L 498.761684 136.407076 
" clip-path="url(#p906fbf9215)" style="fill: #ff0000"/>
    <path d="M 508.361684 136.407076 
L 508.361684 129.135076 
L 507.113684 129.447076 
L 508.673684 126.327076 
L 510.233684 129.447076 
L 508.985684 129.135076 
L 508.985684 136.407076 
L 508.361684 136.407076 
" clip-path="url(#p906fbf9215)" style="fill: #ff0000"/>
    <path d="M 517.961684 136.407076 
L 517.961684 129.135076 
L 516.713684 129.447076 
L 518.273684 126.327076 
L 519.833684 129.447076 
L 518.585684 129.135076 
L 518.585684 136.407076 
L 517.961684 136.407076 
" clip-path="url(#p906fbf9215)" style="fill: #ff0000"/>
    <path d="M 527.561684 136.407076 
L 527.561684 129.135076 
L 526.313684 129.447076 
L 527.873684 126.327076 
L 529.433684 129.447076 
L 528.185684 129.135076 
L 528.185684 136.407076 
L 527.561684 136.407076 
" clip-path="url(#p906fbf9215)" style="fill: #ff0000"/>
    <path d="M 537.161684 136.407076 
L 537.161684 129.135076 
L 535.913684 129.447076 
L 537.473684 126.327076 
L 539.033684 129.447076 
L 537.785684 129.135076 
L 537.785684 136.407076 
L 537.161684 136.407076 
" clip-path="url(#p906fbf9215)" style="fill: #ff0000"/>
    <path d="M 546.761684 136.407076 
L 546.761684 129.135076 
L 545.513684 129.447076 
L 547.073684 126.327076 
L 548.633684 129.447076 
L 547.385684 129.135076 
L 547.385684 136.407076 
L 546.761684 136.407076 
" clip-path="url(#p906fbf9215)" style="fill: #ff0000"/>
    <path d="M 556.361684 136.407076 
L 556.361684 129.135076 
L 555.113684 129.447076 
L 556.673684 126.327076 
L 558.233684 129.447076 
L 556.985684 129.135076 
L 556.985684 136.407076 
L 556.361684 136.407076 
" clip-path="url(#p906fbf9215)" style="fill: #ff0000"/>
    <path d="M 565.961684 136.407076 
L 565.961684 129.135076 
L 564.713684 129.447076 
L 566.273684 126.327076 
L 567.833684 129.447076 
L 566.585684 129.135076 
L 566.585684 136.407076 
L 565.961684 136.407076 
" clip-path="url(#p906fbf9215)" style="fill: #ff0000"/>
    <path d="M 575.561684 136.407076 
L 575.561684 129.135076 
L 574.313684 129.447076 
L 575.873684 126.327076 
L 577.433684 129.447076 
L 576.185684 129.135076 
L 576.185684 136.407076 
L 575.561684 136.407076 
" clip-path="url(#p906fbf9215)" style="fill: #ff0000"/>
    <path d="M 585.161684 136.407076 
L 585.161684 129.135076 
L 583.913684 129.447076 
L 585.473684 126.327076 
L 587.033684 129.447076 
L 585.785684 129.135076 
L 585.785684 136.407076 
L 585.161684 136.407076 
" clip-path="url(#p906fbf9215)" style="fill: #ff0000"/>
    <path d="M 594.761684 136.407076 
L 594.761684 129.135076 
L 593.513684 129.447076 
L 595.073684 126.327076 
L 596.633684 129.447076 
L 595.385684 129.135076 
L 595.385684 136.407076 
L 594.761684 136.407076 
" clip-path="url(#p906fbf9215)" style="fill: #ff0000"/>
    <path d="M 498.761684 132.222533 
L 498.761684 124.950533 
L 497.513684 125.262533 
L 499.073684 122.142533 
L 500.633684 125.262533 
L 499.385684 124.950533 
L 499.385684 132.222533 
L 498.761684 132.222533 
" clip-path="url(#p906fbf9215)" style="fill: #ff0000"/>
    <path d="M 508.361684 132.222533 
L 508.361684 124.950533 
L 507.113684 125.262533 
L 508.673684 122.142533 
L 510.233684 125.262533 
L 508.985684 124.950533 
L 508.985684 132.222533 
L 508.361684 132.222533 
" clip-path="url(#p906fbf9215)" style="fill: #ff0000"/>
    <path d="M 517.961684 132.222533 
L 517.961684 124.950533 
L 516.713684 125.262533 
L 518.273684 122.142533 
L 519.833684 125.262533 
L 518.585684 124.950533 
L 518.585684 132.222533 
L 517.961684 132.222533 
" clip-path="url(#p906fbf9215)" style="fill: #ff0000"/>
    <path d="M 527.561684 132.222533 
L 527.561684 124.950533 
L 526.313684 125.262533 
L 527.873684 122.142533 
L 529.433684 125.262533 
L 528.185684 124.950533 
L 528.185684 132.222533 
L 527.561684 132.222533 
" clip-path="url(#p906fbf9215)" style="fill: #ff0000"/>
    <path d="M 537.161684 132.222533 
L 537.161684 124.950533 
L 535.913684 125.262533 
L 537.473684 122.142533 
L 539.033684 125.262533 
L 537.785684 124.950533 
L 537.785684 132.222533 
L 537.161684 132.222533 
" clip-path="url(#p906fbf9215)" style="fill: #ff0000"/>
    <path d="M 546.761684 132.222533 
L 546.761684 124.950533 
L 545.513684 125.262533 
L 547.073684 122.142533 
L 548.633684 125.262533 
L 547.385684 124.950533 
L 547.385684 132.222533 
L 546.761684 132.222533 
" clip-path="url(#p906fbf9215)" style="fill: #ff0000"/>
    <path d="M 556.361684 132.222533 
L 556.361684 124.950533 
L 555.113684 125.262533 
L 556.673684 122.142533 
L 558.233684 125.262533 
L 556.985684 124.950533 
L 556.985684 132.222533 
L 556.361684 132.222533 
" clip-path="url(#p906fbf9215)" style="fill: #ff0000"/>
    <path d="M 565.961684 132.222533 
L 565.961684 124.950533 
L 564.713684 125.262533 
L 566.273684 122.142533 
L 567.833684 125.262533 
L 566.585684 124.950533 
L 566.585684 132.222533 
L 565.961684 132.222533 
" clip-path="url(#p906fbf9215)" style="fill: #ff0000"/>
    <path d="M 575.561684 132.222533 
L 575.561684 124.950533 
L 574.313684 125.262533 
L 575.873684 122.142533 
L 577.433684 125.262533 
L 576.185684 124.950533 
L 576.185684 132.222533 
L 575.561684 132.222533 
" clip-path="url(#p906fbf9215)" style="fill: #ff0000"/>
    <path d="M 585.161684 132.222533 
L 585.161684 124.950533 
L 583.913684 125.262533 
L 585.473684 122.142533 
L 587.033684 125.262533 
L 585.785684 124.950533 
L 585.785684 132.222533 
L 585.161684 132.222533 
" clip-path="url(#p906fbf9215)" style="fill: #ff0000"/>
    <path d="M 594.761684 132.222533 
L 594.761684 124.950533 
L 593.513684 125.262533 
L 595.073684 122.142533 
L 596.633684 125.262533 
L 595.385684 124.950533 
L 595.385684 132.222533 
L 594.761684 132.222533 
" clip-path="url(#p906fbf9215)" style="fill: #ff0000"/>
    <path d="M 498.761684 128.03799 
L 498.761684 120.76599 
L 497.513684 121.07799 
L 499.073684 117.95799 
L 500.633684 121.07799 
L 499.385684 120.76599 
L 499.385684 128.03799 
L 498.761684 128.03799 
" clip-path="url(#p906fbf9215)" style="fill: #ff0000"/>
    <path d="M 508.361684 128.03799 
L 508.361684 120.76599 
L 507.113684 121.07799 
L 508.673684 117.95799 
L 510.233684 121.07799 
L 508.985684 120.76599 
L 508.985684 128.03799 
L 508.361684 128.03799 
" clip-path="url(#p906fbf9215)" style="fill: #ff0000"/>
    <path d="M 517.961684 128.03799 
L 517.961684 120.76599 
L 516.713684 121.07799 
L 518.273684 117.95799 
L 519.833684 121.07799 
L 518.585684 120.76599 
L 518.585684 128.03799 
L 517.961684 128.03799 
" clip-path="url(#p906fbf9215)" style="fill: #ff0000"/>
    <path d="M 527.561684 128.03799 
L 527.561684 120.76599 
L 526.313684 121.07799 
L 527.873684 117.95799 
L 529.433684 121.07799 
L 528.185684 120.76599 
L 528.185684 128.03799 
L 527.561684 128.03799 
" clip-path="url(#p906fbf9215)" style="fill: #ff0000"/>
    <path d="M 537.161684 128.03799 
L 537.161684 120.76599 
L 535.913684 121.07799 
L 537.473684 117.95799 
L 539.033684 121.07799 
L 537.785684 120.76599 
L 537.785684 128.03799 
L 537.161684 128.03799 
" clip-path="url(#p906fbf9215)" style="fill: #ff0000"/>
    <path d="M 546.761684 128.03799 
L 546.761684 120.76599 
L 545.513684 121.07799 
L 547.073684 117.95799 
L 548.633684 121.07799 
L 547.385684 120.76599 
L 547.385684 128.03799 
L 546.761684 128.03799 
" clip-path="url(#p906fbf9215)" style="fill: #ff0000"/>
    <path d="M 556.361684 128.03799 
L 556.361684 120.76599 
L 555.113684 121.07799 
L 556.673684 117.95799 
L 558.233684 121.07799 
L 556.985684 120.76599 
L 556.985684 128.03799 
L 556.361684 128.03799 
" clip-path="url(#p906fbf9215)" style="fill: #ff0000"/>
    <path d="M 565.961684 128.03799 
L 565.961684 120.76599 
L 564.713684 121.07799 
L 566.273684 117.95799 
L 567.833684 121.07799 
L 566.585684 120.76599 
L 566.585684 128.03799 
L 565.961684 128.03799 
" clip-path="url(#p906fbf9215)" style="fill: #ff0000"/>
    <path d="M 575.561684 128.03799 
L 575.561684 120.76599 
L 574.313684 121.07799 
L 575.873684 117.95799 
L 577.433684 121.07799 
L 576.185684 120.76599 
L 576.185684 128.03799 
L 575.561684 128.03799 
" clip-path="url(#p906fbf9215)" style="fill: #ff0000"/>
    <path d="M 585.161684 128.03799 
L 585.161684 120.76599 
L 583.913684 121.07799 
L 585.473684 117.95799 
L 587.033684 121.07799 
L 585.785684 120.76599 
L 585.785684 128.03799 
L 585.161684 128.03799 
" clip-path="url(#p906fbf9215)" style="fill: #ff0000"/>
    <path d="M 594.761684 128.03799 
L 594.761684 120.76599 
L 593.513684 121.07799 
L 595.073684 117.95799 
L 596.633684 121.07799 
L 595.385684 120.76599 
L 595.385684 128.03799 
L 594.761684 128.03799 
" clip-path="url(#p906fbf9215)" style="fill: #ff0000"/>
    <path d="M 498.761684 123.853447 
L 498.761684 116.581447 
L 497.513684 116.893447 
L 499.073684 113.773447 
L 500.633684 116.893447 
L 499.385684 116.581447 
L 499.385684 123.853447 
L 498.761684 123.853447 
" clip-path="url(#p906fbf9215)" style="fill: #ff0000"/>
    <path d="M 508.361684 123.853447 
L 508.361684 116.581447 
L 507.113684 116.893447 
L 508.673684 113.773447 
L 510.233684 116.893447 
L 508.985684 116.581447 
L 508.985684 123.853447 
L 508.361684 123.853447 
" clip-path="url(#p906fbf9215)" style="fill: #ff0000"/>
    <path d="M 517.961684 123.853447 
L 517.961684 116.581447 
L 516.713684 116.893447 
L 518.273684 113.773447 
L 519.833684 116.893447 
L 518.585684 116.581447 
L 518.585684 123.853447 
L 517.961684 123.853447 
" clip-path="url(#p906fbf9215)" style="fill: #ff0000"/>
    <path d="M 527.561684 123.853447 
L 527.561684 116.581447 
L 526.313684 116.893447 
L 527.873684 113.773447 
L 529.433684 116.893447 
L 528.185684 116.581447 
L 528.185684 123.853447 
L 527.561684 123.853447 
" clip-path="url(#p906fbf9215)" style="fill: #ff0000"/>
    <path d="M 537.161684 123.853447 
L 537.161684 116.581447 
L 535.913684 116.893447 
L 537.473684 113.773447 
L 539.033684 116.893447 
L 537.785684 116.581447 
L 537.785684 123.853447 
L 537.161684 123.853447 
" clip-path="url(#p906fbf9215)" style="fill: #ff0000"/>
    <path d="M 546.761684 123.853447 
L 546.761684 116.581447 
L 545.513684 116.893447 
L 547.073684 113.773447 
L 548.633684 116.893447 
L 547.385684 116.581447 
L 547.385684 123.853447 
L 546.761684 123.853447 
" clip-path="url(#p906fbf9215)" style="fill: #ff0000"/>
    <path d="M 556.361684 123.853447 
L 556.361684 116.581447 
L 555.113684 116.893447 
L 556.673684 113.773447 
L 558.233684 116.893447 
L 556.985684 116.581447 
L 556.985684 123.853447 
L 556.361684 123.853447 
" clip-path="url(#p906fbf9215)" style="fill: #ff0000"/>
    <path d="M 565.961684 123.853447 
L 565.961684 116.581447 
L 564.713684 116.893447 
L 566.273684 113.773447 
L 567.833684 116.893447 
L 566.585684 116.581447 
L 566.585684 123.853447 
L 565.961684 123.853447 
" clip-path="url(#p906fbf9215)" style="fill: #ff0000"/>
    <path d="M 575.561684 123.853447 
L 575.561684 116.581447 
L 574.313684 116.893447 
L 575.873684 113.773447 
L 577.433684 116.893447 
L 576.185684 116.581447 
L 576.185684 123.853447 
L 575.561684 123.853447 
" clip-path="url(#p906fbf9215)" style="fill: #ff0000"/>
    <path d="M 585.161684 123.853447 
L 585.161684 116.581447 
L 583.913684 116.893447 
L 585.473684 113.773447 
L 587.033684 116.893447 
L 585.785684 116.581447 
L 585.785684 123.853447 
L 585.161684 123.853447 
" clip-path="url(#p906fbf9215)" style="fill: #ff0000"/>
    <path d="M 594.761684 123.853447 
L 594.761684 116.581447 
L 593.513684 116.893447 
L 595.073684 113.773447 
L 596.633684 116.893447 
L 595.385684 116.581447 
L 595.385684 123.853447 
L 594.761684 123.853447 
" clip-path="url(#p906fbf9215)" style="fill: #ff0000"/>
    <path d="M 498.761684 119.668904 
L 498.761684 112.396904 
L 497.513684 112.708904 
L 499.073684 109.588904 
L 500.633684 112.708904 
L 499.385684 112.396904 
L 499.385684 119.668904 
L 498.761684 119.668904 
" clip-path="url(#p906fbf9215)" style="fill: #ff0000"/>
    <path d="M 508.361684 119.668904 
L 508.361684 112.396904 
L 507.113684 112.708904 
L 508.673684 109.588904 
L 510.233684 112.708904 
L 508.985684 112.396904 
L 508.985684 119.668904 
L 508.361684 119.668904 
" clip-path="url(#p906fbf9215)" style="fill: #ff0000"/>
    <path d="M 517.961684 119.668904 
L 517.961684 112.396904 
L 516.713684 112.708904 
L 518.273684 109.588904 
L 519.833684 112.708904 
L 518.585684 112.396904 
L 518.585684 119.668904 
L 517.961684 119.668904 
" clip-path="url(#p906fbf9215)" style="fill: #ff0000"/>
    <path d="M 527.561684 119.668904 
L 527.561684 112.396904 
L 526.313684 112.708904 
L 527.873684 109.588904 
L 529.433684 112.708904 
L 528.185684 112.396904 
L 528.185684 119.668904 
L 527.561684 119.668904 
" clip-path="url(#p906fbf9215)" style="fill: #ff0000"/>
    <path d="M 537.161684 119.668904 
L 537.161684 112.396904 
L 535.913684 112.708904 
L 537.473684 109.588904 
L 539.033684 112.708904 
L 537.785684 112.396904 
L 537.785684 119.668904 
L 537.161684 119.668904 
" clip-path="url(#p906fbf9215)" style="fill: #ff0000"/>
    <path d="M 546.761684 119.668904 
L 546.761684 112.396904 
L 545.513684 112.708904 
L 547.073684 109.588904 
L 548.633684 112.708904 
L 547.385684 112.396904 
L 547.385684 119.668904 
L 546.761684 119.668904 
" clip-path="url(#p906fbf9215)" style="fill: #ff0000"/>
    <path d="M 556.361684 119.668904 
L 556.361684 112.396904 
L 555.113684 112.708904 
L 556.673684 109.588904 
L 558.233684 112.708904 
L 556.985684 112.396904 
L 556.985684 119.668904 
L 556.361684 119.668904 
" clip-path="url(#p906fbf9215)" style="fill: #ff0000"/>
    <path d="M 565.961684 119.668904 
L 565.961684 112.396904 
L 564.713684 112.708904 
L 566.273684 109.588904 
L 567.833684 112.708904 
L 566.585684 112.396904 
L 566.585684 119.668904 
L 565.961684 119.668904 
" clip-path="url(#p906fbf9215)" style="fill: #ff0000"/>
    <path d="M 575.561684 119.668904 
L 575.561684 112.396904 
L 574.313684 112.708904 
L 575.873684 109.588904 
L 577.433684 112.708904 
L 576.185684 112.396904 
L 576.185684 119.668904 
L 575.561684 119.668904 
" clip-path="url(#p906fbf9215)" style="fill: #ff0000"/>
    <path d="M 585.161684 119.668904 
L 585.161684 112.396904 
L 583.913684 112.708904 
L 585.473684 109.588904 
L 587.033684 112.708904 
L 585.785684 112.396904 
L 585.785684 119.668904 
L 585.161684 119.668904 
" clip-path="url(#p906fbf9215)" style="fill: #ff0000"/>
    <path d="M 594.761684 119.668904 
L 594.761684 112.396904 
L 593.513684 112.708904 
L 595.073684 109.588904 
L 596.633684 112.708904 
L 595.385684 112.396904 
L 595.385684 119.668904 
L 594.761684 119.668904 
" clip-path="url(#p906fbf9215)" style="fill: #ff0000"/>
    <path d="M 498.761684 115.484361 
L 498.761684 108.212361 
L 497.513684 108.524361 
L 499.073684 105.404361 
L 500.633684 108.524361 
L 499.385684 108.212361 
L 499.385684 115.484361 
L 498.761684 115.484361 
" clip-path="url(#p906fbf9215)" style="fill: #ff0000"/>
    <path d="M 508.361684 115.484361 
L 508.361684 108.212361 
L 507.113684 108.524361 
L 508.673684 105.404361 
L 510.233684 108.524361 
L 508.985684 108.212361 
L 508.985684 115.484361 
L 508.361684 115.484361 
" clip-path="url(#p906fbf9215)" style="fill: #ff0000"/>
    <path d="M 517.961684 115.484361 
L 517.961684 108.212361 
L 516.713684 108.524361 
L 518.273684 105.404361 
L 519.833684 108.524361 
L 518.585684 108.212361 
L 518.585684 115.484361 
L 517.961684 115.484361 
" clip-path="url(#p906fbf9215)" style="fill: #ff0000"/>
    <path d="M 527.561684 115.484361 
L 527.561684 108.212361 
L 526.313684 108.524361 
L 527.873684 105.404361 
L 529.433684 108.524361 
L 528.185684 108.212361 
L 528.185684 115.484361 
L 527.561684 115.484361 
" clip-path="url(#p906fbf9215)" style="fill: #ff0000"/>
    <path d="M 537.161684 115.484361 
L 537.161684 108.212361 
L 535.913684 108.524361 
L 537.473684 105.404361 
L 539.033684 108.524361 
L 537.785684 108.212361 
L 537.785684 115.484361 
L 537.161684 115.484361 
" clip-path="url(#p906fbf9215)" style="fill: #ff0000"/>
    <path d="M 546.761684 115.484361 
L 546.761684 108.212361 
L 545.513684 108.524361 
L 547.073684 105.404361 
L 548.633684 108.524361 
L 547.385684 108.212361 
L 547.385684 115.484361 
L 546.761684 115.484361 
" clip-path="url(#p906fbf9215)" style="fill: #ff0000"/>
    <path d="M 556.361684 115.484361 
L 556.361684 108.212361 
L 555.113684 108.524361 
L 556.673684 105.404361 
L 558.233684 108.524361 
L 556.985684 108.212361 
L 556.985684 115.484361 
L 556.361684 115.484361 
" clip-path="url(#p906fbf9215)" style="fill: #ff0000"/>
    <path d="M 565.961684 115.484361 
L 565.961684 108.212361 
L 564.713684 108.524361 
L 566.273684 105.404361 
L 567.833684 108.524361 
L 566.585684 108.212361 
L 566.585684 115.484361 
L 565.961684 115.484361 
" clip-path="url(#p906fbf9215)" style="fill: #ff0000"/>
    <path d="M 575.561684 115.484361 
L 575.561684 108.212361 
L 574.313684 108.524361 
L 575.873684 105.404361 
L 577.433684 108.524361 
L 576.185684 108.212361 
L 576.185684 115.484361 
L 575.561684 115.484361 
" clip-path="url(#p906fbf9215)" style="fill: #ff0000"/>
    <path d="M 585.161684 115.484361 
L 585.161684 108.212361 
L 583.913684 108.524361 
L 585.473684 105.404361 
L 587.033684 108.524361 
L 585.785684 108.212361 
L 585.785684 115.484361 
L 585.161684 115.484361 
" clip-path="url(#p906fbf9215)" style="fill: #ff0000"/>
    <path d="M 594.761684 115.484361 
L 594.761684 108.212361 
L 593.513684 108.524361 
L 595.073684 105.404361 
L 596.633684 108.524361 
L 595.385684 108.212361 
L 595.385684 115.484361 
L 594.761684 115.484361 
" clip-path="url(#p906fbf9215)" style="fill: #ff0000"/>
    <path d="M 498.761684 111.299818 
L 498.761684 104.027818 
L 497.513684 104.339818 
L 499.073684 101.219818 
L 500.633684 104.339818 
L 499.385684 104.027818 
L 499.385684 111.299818 
L 498.761684 111.299818 
" clip-path="url(#p906fbf9215)" style="fill: #ff0000"/>
    <path d="M 508.361684 111.299818 
L 508.361684 104.027818 
L 507.113684 104.339818 
L 508.673684 101.219818 
L 510.233684 104.339818 
L 508.985684 104.027818 
L 508.985684 111.299818 
L 508.361684 111.299818 
" clip-path="url(#p906fbf9215)" style="fill: #ff0000"/>
    <path d="M 517.961684 111.299818 
L 517.961684 104.027818 
L 516.713684 104.339818 
L 518.273684 101.219818 
L 519.833684 104.339818 
L 518.585684 104.027818 
L 518.585684 111.299818 
L 517.961684 111.299818 
" clip-path="url(#p906fbf9215)" style="fill: #ff0000"/>
    <path d="M 527.561684 111.299818 
L 527.561684 104.027818 
L 526.313684 104.339818 
L 527.873684 101.219818 
L 529.433684 104.339818 
L 528.185684 104.027818 
L 528.185684 111.299818 
L 527.561684 111.299818 
" clip-path="url(#p906fbf9215)" style="fill: #ff0000"/>
    <path d="M 537.161684 111.299818 
L 537.161684 104.027818 
L 535.913684 104.339818 
L 537.473684 101.219818 
L 539.033684 104.339818 
L 537.785684 104.027818 
L 537.785684 111.299818 
L 537.161684 111.299818 
" clip-path="url(#p906fbf9215)" style="fill: #ff0000"/>
    <path d="M 546.761684 111.299818 
L 546.761684 104.027818 
L 545.513684 104.339818 
L 547.073684 101.219818 
L 548.633684 104.339818 
L 547.385684 104.027818 
L 547.385684 111.299818 
L 546.761684 111.299818 
" clip-path="url(#p906fbf9215)" style="fill: #ff0000"/>
    <path d="M 556.361684 111.299818 
L 556.361684 104.027818 
L 555.113684 104.339818 
L 556.673684 101.219818 
L 558.233684 104.339818 
L 556.985684 104.027818 
L 556.985684 111.299818 
L 556.361684 111.299818 
" clip-path="url(#p906fbf9215)" style="fill: #ff0000"/>
    <path d="M 565.961684 111.299818 
L 565.961684 104.027818 
L 564.713684 104.339818 
L 566.273684 101.219818 
L 567.833684 104.339818 
L 566.585684 104.027818 
L 566.585684 111.299818 
L 565.961684 111.299818 
" clip-path="url(#p906fbf9215)" style="fill: #ff0000"/>
    <path d="M 575.561684 111.299818 
L 575.561684 104.027818 
L 574.313684 104.339818 
L 575.873684 101.219818 
L 577.433684 104.339818 
L 576.185684 104.027818 
L 576.185684 111.299818 
L 575.561684 111.299818 
" clip-path="url(#p906fbf9215)" style="fill: #ff0000"/>
    <path d="M 585.161684 111.299818 
L 585.161684 104.027818 
L 583.913684 104.339818 
L 585.473684 101.219818 
L 587.033684 104.339818 
L 585.785684 104.027818 
L 585.785684 111.299818 
L 585.161684 111.299818 
" clip-path="url(#p906fbf9215)" style="fill: #ff0000"/>
    <path d="M 594.761684 111.299818 
L 594.761684 104.027818 
L 593.513684 104.339818 
L 595.073684 101.219818 
L 596.633684 104.339818 
L 595.385684 104.027818 
L 595.385684 111.299818 
L 594.761684 111.299818 
" clip-path="url(#p906fbf9215)" style="fill: #ff0000"/>
    <path d="M 498.761684 107.115275 
L 498.761684 99.843275 
L 497.513684 100.155275 
L 499.073684 97.035275 
L 500.633684 100.155275 
L 499.385684 99.843275 
L 499.385684 107.115275 
L 498.761684 107.115275 
" clip-path="url(#p906fbf9215)" style="fill: #ff0000"/>
    <path d="M 508.361684 107.115275 
L 508.361684 99.843275 
L 507.113684 100.155275 
L 508.673684 97.035275 
L 510.233684 100.155275 
L 508.985684 99.843275 
L 508.985684 107.115275 
L 508.361684 107.115275 
" clip-path="url(#p906fbf9215)" style="fill: #ff0000"/>
    <path d="M 517.961684 107.115275 
L 517.961684 99.843275 
L 516.713684 100.155275 
L 518.273684 97.035275 
L 519.833684 100.155275 
L 518.585684 99.843275 
L 518.585684 107.115275 
L 517.961684 107.115275 
" clip-path="url(#p906fbf9215)" style="fill: #ff0000"/>
    <path d="M 527.561684 107.115275 
L 527.561684 99.843275 
L 526.313684 100.155275 
L 527.873684 97.035275 
L 529.433684 100.155275 
L 528.185684 99.843275 
L 528.185684 107.115275 
L 527.561684 107.115275 
" clip-path="url(#p906fbf9215)" style="fill: #ff0000"/>
    <path d="M 537.161684 107.115275 
L 537.161684 99.843275 
L 535.913684 100.155275 
L 537.473684 97.035275 
L 539.033684 100.155275 
L 537.785684 99.843275 
L 537.785684 107.115275 
L 537.161684 107.115275 
" clip-path="url(#p906fbf9215)" style="fill: #ff0000"/>
    <path d="M 546.761684 107.115275 
L 546.761684 99.843275 
L 545.513684 100.155275 
L 547.073684 97.035275 
L 548.633684 100.155275 
L 547.385684 99.843275 
L 547.385684 107.115275 
L 546.761684 107.115275 
" clip-path="url(#p906fbf9215)" style="fill: #ff0000"/>
    <path d="M 556.361684 107.115275 
L 556.361684 99.843275 
L 555.113684 100.155275 
L 556.673684 97.035275 
L 558.233684 100.155275 
L 556.985684 99.843275 
L 556.985684 107.115275 
L 556.361684 107.115275 
" clip-path="url(#p906fbf9215)" style="fill: #ff0000"/>
    <path d="M 565.961684 107.115275 
L 565.961684 99.843275 
L 564.713684 100.155275 
L 566.273684 97.035275 
L 567.833684 100.155275 
L 566.585684 99.843275 
L 566.585684 107.115275 
L 565.961684 107.115275 
" clip-path="url(#p906fbf9215)" style="fill: #ff0000"/>
    <path d="M 575.561684 107.115275 
L 575.561684 99.843275 
L 574.313684 100.155275 
L 575.873684 97.035275 
L 577.433684 100.155275 
L 576.185684 99.843275 
L 576.185684 107.115275 
L 575.561684 107.115275 
" clip-path="url(#p906fbf9215)" style="fill: #ff0000"/>
    <path d="M 585.161684 107.115275 
L 585.161684 99.843275 
L 583.913684 100.155275 
L 585.473684 97.035275 
L 587.033684 100.155275 
L 585.785684 99.843275 
L 585.785684 107.115275 
L 585.161684 107.115275 
" clip-path="url(#p906fbf9215)" style="fill: #ff0000"/>
    <path d="M 594.761684 107.115275 
L 594.761684 99.843275 
L 593.513684 100.155275 
L 595.073684 97.035275 
L 596.633684 100.155275 
L 595.385684 99.843275 
L 595.385684 107.115275 
L 594.761684 107.115275 
" clip-path="url(#p906fbf9215)" style="fill: #ff0000"/>
   </g>
   <g id="text_27">
    <!-- y' -->
    <g transform="translate(604.673684 118.19799) scale(0.1 -0.1)">
     <use xlink:href="#DejaVuSans-79"/>
     <use xlink:href="#DejaVuSans-27" x="59.179688"/>
    </g>
   </g>
   <g id="text_28">
    <!-- z' -->
    <g transform="translate(551.873684 17.39799) scale(0.1 -0.1)">
     <use xlink:href="#DejaVuSans-7a"/>
     <use xlink:href="#DejaVuSans-27" x="52.490234"/>
    </g>
   </g>
   <g id="text_29">
    <!-- t' = 0 -->
    <g transform="translate(619.073684 124.91799) scale(0.1 -0.1)">
     <use xlink:href="#DejaVuSans-74"/>
     <use xlink:href="#DejaVuSans-27" x="39.208984"/>
     <use xlink:href="#DejaVuSans-20" x="66.699219"/>
     <use xlink:href="#DejaVuSans-3d" x="98.486328"/>
     <use xlink:href="#DejaVuSans-20" x="182.275391"/>
     <use xlink:href="#DejaVuSans-30" x="214.0625"/>
    </g>
   </g>
  </g>
 </g>
 <defs>
  <clipPath id="p1e850ec33b">
   <rect x="7.2" y="7.79799" width="124.8" height="230.4"/>
  </clipPath>
  <clipPath id="p3a901c1148">
   <rect x="245.936842" y="7.79799" width="124.8" height="230.4"/>
  </clipPath>
  <clipPath id="p906fbf9215">
   <rect x="484.673684" y="7.79799" width="124.8" height="230.4"/>
  </clipPath>
 </defs>
</svg>
