<?xml version="1.0" encoding="utf-8" standalone="no"?>
<!DOCTYPE svg PUBLIC "-//W3C//DTD SVG 1.1//EN"
  "http://www.w3.org/Graphics/SVG/1.1/DTD/svg11.dtd">
<svg xmlns:xlink="http://www.w3.org/1999/xlink" width="469.630767pt" height="215.883401pt" viewBox="0 0 469.630767 215.883401" xmlns="http://www.w3.org/2000/svg" version="1.1">
 <metadata>
  <rdf:RDF xmlns:dc="http://purl.org/dc/elements/1.1/" xmlns:cc="http://creativecommons.org/ns#" xmlns:rdf="http://www.w3.org/1999/02/22-rdf-syntax-ns#">
   <cc:Work>
    <dc:type rdf:resource="http://purl.org/dc/dcmitype/StillImage"/>
    <dc:date>2024-06-06T15:57:18.775618</dc:date>
    <dc:format>image/svg+xml</dc:format>
    <dc:creator>
     <cc:Agent>
      <dc:title>Matplotlib v3.9.0, https://matplotlib.org/</dc:title>
     </cc:Agent>
    </dc:creator>
   </cc:Work>
  </rdf:RDF>
 </metadata>
 <defs>
  <style type="text/css">*{stroke-linejoin: round; stroke-linecap: butt}</style>
 </defs>
 <g id="figure_1">
  <g id="patch_1">
   <path d="M 0 215.883401 
L 469.630767 215.883401 
L 469.630767 -0 
L 0 -0 
L 0 215.883401 
z
" style="fill: none"/>
  </g>
  <g id="axes_1">
   <g id="patch_2">
    <path d="M 116.336842 107.9417 
L 112.139271 110.670121 
L 113.118704 107.943799 
L 7.2 107.943799 
L 7.2 107.939602 
L 113.118704 107.939602 
L 112.139271 105.213279 
z
" clip-path="url(#pd2aad7b598)" style="stroke: #000000; stroke-linejoin: miter"/>
   </g>
   <g id="patch_3">
    <path d="M 61.768421 7.2 
L 64.496842 11.397571 
L 61.77052 10.418138 
L 61.77052 208.683401 
L 61.766322 208.683401 
L 61.766322 10.418138 
L 59.04 11.397571 
z
" clip-path="url(#pd2aad7b598)" style="stroke: #000000; stroke-linejoin: miter"/>
   </g>
   <g id="patch_4">
    <path d="M 11.397571 91.151417 
L 14.125992 95.348988 
L 11.39967 94.369555 
L 11.39967 107.9417 
L 11.395472 107.9417 
L 11.395472 94.369555 
L 8.66915 95.348988 
z
" clip-path="url(#pd2aad7b598)" style="fill: #808080; stroke: #808080; stroke-linejoin: miter"/>
   </g>
   <g id="patch_5">
    <path d="M 11.397571 95.348988 
L 14.125992 99.546559 
L 11.39967 98.567126 
L 11.39967 107.9417 
L 11.395472 107.9417 
L 11.395472 98.567126 
L 8.66915 99.546559 
z
" clip-path="url(#pd2aad7b598)" style="fill: #808080; stroke: #808080; stroke-linejoin: miter"/>
   </g>
   <g id="line2d_1">
    <defs>
     <path id="m4fda342219" d="M 0 0.5 
C 0.132602 0.5 0.25979 0.447317 0.353553 0.353553 
C 0.447317 0.25979 0.5 0.132602 0.5 0 
C 0.5 -0.132602 0.447317 -0.25979 0.353553 -0.353553 
C 0.25979 -0.447317 0.132602 -0.5 0 -0.5 
C -0.132602 -0.5 -0.25979 -0.447317 -0.353553 -0.353553 
C -0.447317 -0.25979 -0.5 -0.132602 -0.5 0 
C -0.5 0.132602 -0.447317 0.25979 -0.353553 0.353553 
C -0.25979 0.447317 -0.132602 0.5 0 0.5 
z
" style="stroke: #000000"/>
    </defs>
    <g clip-path="url(#pd2aad7b598)">
     <use xlink:href="#m4fda342219" x="19.792713" y="149.917409" style="stroke: #000000"/>
     <use xlink:href="#m4fda342219" x="19.792713" y="141.522267" style="stroke: #000000"/>
     <use xlink:href="#m4fda342219" x="19.792713" y="133.127126" style="stroke: #000000"/>
     <use xlink:href="#m4fda342219" x="19.792713" y="124.731984" style="stroke: #000000"/>
     <use xlink:href="#m4fda342219" x="19.792713" y="116.336842" style="stroke: #000000"/>
     <use xlink:href="#m4fda342219" x="19.792713" y="107.9417" style="stroke: #000000"/>
     <use xlink:href="#m4fda342219" x="19.792713" y="99.546559" style="stroke: #000000"/>
     <use xlink:href="#m4fda342219" x="19.792713" y="91.151417" style="stroke: #000000"/>
     <use xlink:href="#m4fda342219" x="19.792713" y="82.756275" style="stroke: #000000"/>
     <use xlink:href="#m4fda342219" x="19.792713" y="74.361134" style="stroke: #000000"/>
     <use xlink:href="#m4fda342219" x="19.792713" y="65.965992" style="stroke: #000000"/>
    </g>
   </g>
   <g id="line2d_2">
    <g clip-path="url(#pd2aad7b598)">
     <use xlink:href="#m4fda342219" x="28.187854" y="149.917409" style="stroke: #000000"/>
     <use xlink:href="#m4fda342219" x="28.187854" y="141.522267" style="stroke: #000000"/>
     <use xlink:href="#m4fda342219" x="28.187854" y="133.127126" style="stroke: #000000"/>
     <use xlink:href="#m4fda342219" x="28.187854" y="124.731984" style="stroke: #000000"/>
     <use xlink:href="#m4fda342219" x="28.187854" y="116.336842" style="stroke: #000000"/>
     <use xlink:href="#m4fda342219" x="28.187854" y="107.9417" style="stroke: #000000"/>
     <use xlink:href="#m4fda342219" x="28.187854" y="99.546559" style="stroke: #000000"/>
     <use xlink:href="#m4fda342219" x="28.187854" y="91.151417" style="stroke: #000000"/>
     <use xlink:href="#m4fda342219" x="28.187854" y="82.756275" style="stroke: #000000"/>
     <use xlink:href="#m4fda342219" x="28.187854" y="74.361134" style="stroke: #000000"/>
     <use xlink:href="#m4fda342219" x="28.187854" y="65.965992" style="stroke: #000000"/>
    </g>
   </g>
   <g id="line2d_3">
    <g clip-path="url(#pd2aad7b598)">
     <use xlink:href="#m4fda342219" x="36.582996" y="149.917409" style="stroke: #000000"/>
     <use xlink:href="#m4fda342219" x="36.582996" y="141.522267" style="stroke: #000000"/>
     <use xlink:href="#m4fda342219" x="36.582996" y="133.127126" style="stroke: #000000"/>
     <use xlink:href="#m4fda342219" x="36.582996" y="124.731984" style="stroke: #000000"/>
     <use xlink:href="#m4fda342219" x="36.582996" y="116.336842" style="stroke: #000000"/>
     <use xlink:href="#m4fda342219" x="36.582996" y="107.9417" style="stroke: #000000"/>
     <use xlink:href="#m4fda342219" x="36.582996" y="99.546559" style="stroke: #000000"/>
     <use xlink:href="#m4fda342219" x="36.582996" y="91.151417" style="stroke: #000000"/>
     <use xlink:href="#m4fda342219" x="36.582996" y="82.756275" style="stroke: #000000"/>
     <use xlink:href="#m4fda342219" x="36.582996" y="74.361134" style="stroke: #000000"/>
     <use xlink:href="#m4fda342219" x="36.582996" y="65.965992" style="stroke: #000000"/>
    </g>
   </g>
   <g id="line2d_4">
    <g clip-path="url(#pd2aad7b598)">
     <use xlink:href="#m4fda342219" x="44.978138" y="149.917409" style="stroke: #000000"/>
     <use xlink:href="#m4fda342219" x="44.978138" y="141.522267" style="stroke: #000000"/>
     <use xlink:href="#m4fda342219" x="44.978138" y="133.127126" style="stroke: #000000"/>
     <use xlink:href="#m4fda342219" x="44.978138" y="124.731984" style="stroke: #000000"/>
     <use xlink:href="#m4fda342219" x="44.978138" y="116.336842" style="stroke: #000000"/>
     <use xlink:href="#m4fda342219" x="44.978138" y="107.9417" style="stroke: #000000"/>
     <use xlink:href="#m4fda342219" x="44.978138" y="99.546559" style="stroke: #000000"/>
     <use xlink:href="#m4fda342219" x="44.978138" y="91.151417" style="stroke: #000000"/>
     <use xlink:href="#m4fda342219" x="44.978138" y="82.756275" style="stroke: #000000"/>
     <use xlink:href="#m4fda342219" x="44.978138" y="74.361134" style="stroke: #000000"/>
     <use xlink:href="#m4fda342219" x="44.978138" y="65.965992" style="stroke: #000000"/>
    </g>
   </g>
   <g id="line2d_5">
    <g clip-path="url(#pd2aad7b598)">
     <use xlink:href="#m4fda342219" x="53.373279" y="149.917409" style="stroke: #000000"/>
     <use xlink:href="#m4fda342219" x="53.373279" y="141.522267" style="stroke: #000000"/>
     <use xlink:href="#m4fda342219" x="53.373279" y="133.127126" style="stroke: #000000"/>
     <use xlink:href="#m4fda342219" x="53.373279" y="124.731984" style="stroke: #000000"/>
     <use xlink:href="#m4fda342219" x="53.373279" y="116.336842" style="stroke: #000000"/>
     <use xlink:href="#m4fda342219" x="53.373279" y="107.9417" style="stroke: #000000"/>
     <use xlink:href="#m4fda342219" x="53.373279" y="99.546559" style="stroke: #000000"/>
     <use xlink:href="#m4fda342219" x="53.373279" y="91.151417" style="stroke: #000000"/>
     <use xlink:href="#m4fda342219" x="53.373279" y="82.756275" style="stroke: #000000"/>
     <use xlink:href="#m4fda342219" x="53.373279" y="74.361134" style="stroke: #000000"/>
     <use xlink:href="#m4fda342219" x="53.373279" y="65.965992" style="stroke: #000000"/>
    </g>
   </g>
   <g id="line2d_6">
    <g clip-path="url(#pd2aad7b598)">
     <use xlink:href="#m4fda342219" x="61.768421" y="149.917409" style="stroke: #000000"/>
     <use xlink:href="#m4fda342219" x="61.768421" y="141.522267" style="stroke: #000000"/>
     <use xlink:href="#m4fda342219" x="61.768421" y="133.127126" style="stroke: #000000"/>
     <use xlink:href="#m4fda342219" x="61.768421" y="124.731984" style="stroke: #000000"/>
     <use xlink:href="#m4fda342219" x="61.768421" y="116.336842" style="stroke: #000000"/>
     <use xlink:href="#m4fda342219" x="61.768421" y="107.9417" style="stroke: #000000"/>
     <use xlink:href="#m4fda342219" x="61.768421" y="99.546559" style="stroke: #000000"/>
     <use xlink:href="#m4fda342219" x="61.768421" y="91.151417" style="stroke: #000000"/>
     <use xlink:href="#m4fda342219" x="61.768421" y="82.756275" style="stroke: #000000"/>
     <use xlink:href="#m4fda342219" x="61.768421" y="74.361134" style="stroke: #000000"/>
     <use xlink:href="#m4fda342219" x="61.768421" y="65.965992" style="stroke: #000000"/>
    </g>
   </g>
   <g id="line2d_7">
    <g clip-path="url(#pd2aad7b598)">
     <use xlink:href="#m4fda342219" x="70.163563" y="149.917409" style="stroke: #000000"/>
     <use xlink:href="#m4fda342219" x="70.163563" y="141.522267" style="stroke: #000000"/>
     <use xlink:href="#m4fda342219" x="70.163563" y="133.127126" style="stroke: #000000"/>
     <use xlink:href="#m4fda342219" x="70.163563" y="124.731984" style="stroke: #000000"/>
     <use xlink:href="#m4fda342219" x="70.163563" y="116.336842" style="stroke: #000000"/>
     <use xlink:href="#m4fda342219" x="70.163563" y="107.9417" style="stroke: #000000"/>
     <use xlink:href="#m4fda342219" x="70.163563" y="99.546559" style="stroke: #000000"/>
     <use xlink:href="#m4fda342219" x="70.163563" y="91.151417" style="stroke: #000000"/>
     <use xlink:href="#m4fda342219" x="70.163563" y="82.756275" style="stroke: #000000"/>
     <use xlink:href="#m4fda342219" x="70.163563" y="74.361134" style="stroke: #000000"/>
     <use xlink:href="#m4fda342219" x="70.163563" y="65.965992" style="stroke: #000000"/>
    </g>
   </g>
   <g id="line2d_8">
    <g clip-path="url(#pd2aad7b598)">
     <use xlink:href="#m4fda342219" x="78.558704" y="149.917409" style="stroke: #000000"/>
     <use xlink:href="#m4fda342219" x="78.558704" y="141.522267" style="stroke: #000000"/>
     <use xlink:href="#m4fda342219" x="78.558704" y="133.127126" style="stroke: #000000"/>
     <use xlink:href="#m4fda342219" x="78.558704" y="124.731984" style="stroke: #000000"/>
     <use xlink:href="#m4fda342219" x="78.558704" y="116.336842" style="stroke: #000000"/>
     <use xlink:href="#m4fda342219" x="78.558704" y="107.9417" style="stroke: #000000"/>
     <use xlink:href="#m4fda342219" x="78.558704" y="99.546559" style="stroke: #000000"/>
     <use xlink:href="#m4fda342219" x="78.558704" y="91.151417" style="stroke: #000000"/>
     <use xlink:href="#m4fda342219" x="78.558704" y="82.756275" style="stroke: #000000"/>
     <use xlink:href="#m4fda342219" x="78.558704" y="74.361134" style="stroke: #000000"/>
     <use xlink:href="#m4fda342219" x="78.558704" y="65.965992" style="stroke: #000000"/>
    </g>
   </g>
   <g id="line2d_9">
    <g clip-path="url(#pd2aad7b598)">
     <use xlink:href="#m4fda342219" x="86.953846" y="149.917409" style="stroke: #000000"/>
     <use xlink:href="#m4fda342219" x="86.953846" y="141.522267" style="stroke: #000000"/>
     <use xlink:href="#m4fda342219" x="86.953846" y="133.127126" style="stroke: #000000"/>
     <use xlink:href="#m4fda342219" x="86.953846" y="124.731984" style="stroke: #000000"/>
     <use xlink:href="#m4fda342219" x="86.953846" y="116.336842" style="stroke: #000000"/>
     <use xlink:href="#m4fda342219" x="86.953846" y="107.9417" style="stroke: #000000"/>
     <use xlink:href="#m4fda342219" x="86.953846" y="99.546559" style="stroke: #000000"/>
     <use xlink:href="#m4fda342219" x="86.953846" y="91.151417" style="stroke: #000000"/>
     <use xlink:href="#m4fda342219" x="86.953846" y="82.756275" style="stroke: #000000"/>
     <use xlink:href="#m4fda342219" x="86.953846" y="74.361134" style="stroke: #000000"/>
     <use xlink:href="#m4fda342219" x="86.953846" y="65.965992" style="stroke: #000000"/>
    </g>
   </g>
   <g id="line2d_10">
    <g clip-path="url(#pd2aad7b598)">
     <use xlink:href="#m4fda342219" x="95.348988" y="149.917409" style="stroke: #000000"/>
     <use xlink:href="#m4fda342219" x="95.348988" y="141.522267" style="stroke: #000000"/>
     <use xlink:href="#m4fda342219" x="95.348988" y="133.127126" style="stroke: #000000"/>
     <use xlink:href="#m4fda342219" x="95.348988" y="124.731984" style="stroke: #000000"/>
     <use xlink:href="#m4fda342219" x="95.348988" y="116.336842" style="stroke: #000000"/>
     <use xlink:href="#m4fda342219" x="95.348988" y="107.9417" style="stroke: #000000"/>
     <use xlink:href="#m4fda342219" x="95.348988" y="99.546559" style="stroke: #000000"/>
     <use xlink:href="#m4fda342219" x="95.348988" y="91.151417" style="stroke: #000000"/>
     <use xlink:href="#m4fda342219" x="95.348988" y="82.756275" style="stroke: #000000"/>
     <use xlink:href="#m4fda342219" x="95.348988" y="74.361134" style="stroke: #000000"/>
     <use xlink:href="#m4fda342219" x="95.348988" y="65.965992" style="stroke: #000000"/>
    </g>
   </g>
   <g id="line2d_11">
    <g clip-path="url(#pd2aad7b598)">
     <use xlink:href="#m4fda342219" x="103.74413" y="149.917409" style="stroke: #000000"/>
     <use xlink:href="#m4fda342219" x="103.74413" y="141.522267" style="stroke: #000000"/>
     <use xlink:href="#m4fda342219" x="103.74413" y="133.127126" style="stroke: #000000"/>
     <use xlink:href="#m4fda342219" x="103.74413" y="124.731984" style="stroke: #000000"/>
     <use xlink:href="#m4fda342219" x="103.74413" y="116.336842" style="stroke: #000000"/>
     <use xlink:href="#m4fda342219" x="103.74413" y="107.9417" style="stroke: #000000"/>
     <use xlink:href="#m4fda342219" x="103.74413" y="99.546559" style="stroke: #000000"/>
     <use xlink:href="#m4fda342219" x="103.74413" y="91.151417" style="stroke: #000000"/>
     <use xlink:href="#m4fda342219" x="103.74413" y="82.756275" style="stroke: #000000"/>
     <use xlink:href="#m4fda342219" x="103.74413" y="74.361134" style="stroke: #000000"/>
     <use xlink:href="#m4fda342219" x="103.74413" y="65.965992" style="stroke: #000000"/>
    </g>
   </g>
   <g id="text_1">
    <!-- y -->
    <g transform="translate(112.139271 103.74413) scale(0.1 -0.1)">
     <defs>
      <path id="DejaVuSans-79" d="M 2059 -325 
Q 1816 -950 1584 -1140 
Q 1353 -1331 966 -1331 
L 506 -1331 
L 506 -850 
L 844 -850 
Q 1081 -850 1212 -737 
Q 1344 -625 1503 -206 
L 1606 56 
L 191 3500 
L 800 3500 
L 1894 763 
L 2988 3500 
L 3597 3500 
L 2059 -325 
z
" transform="scale(0.015625)"/>
     </defs>
     <use xlink:href="#DejaVuSans-79"/>
    </g>
   </g>
   <g id="text_2">
    <!-- z -->
    <g transform="translate(65.965992 15.595142) scale(0.1 -0.1)">
     <defs>
      <path id="DejaVuSans-7a" d="M 353 3500 
L 3084 3500 
L 3084 2975 
L 922 459 
L 3084 459 
L 3084 0 
L 275 0 
L 275 525 
L 2438 3041 
L 353 3041 
L 353 3500 
z
" transform="scale(0.015625)"/>
     </defs>
     <use xlink:href="#DejaVuSans-7a"/>
    </g>
   </g>
   <g id="text_3">
    <!-- v -->
    <g style="fill: #808080" transform="translate(7.2 86.953846) scale(0.1 -0.1)">
     <defs>
      <path id="DejaVuSans-76" d="M 191 3500 
L 800 3500 
L 1894 563 
L 2988 3500 
L 3597 3500 
L 2284 0 
L 1503 0 
L 191 3500 
z
" transform="scale(0.015625)"/>
     </defs>
     <use xlink:href="#DejaVuSans-76"/>
    </g>
   </g>
   <g id="text_4">
    <!-- t' = 0 -->
    <g transform="translate(124.731984 86.953846) scale(0.1 -0.1)">
     <defs>
      <path id="DejaVuSans-74" d="M 1172 4494 
L 1172 3500 
L 2356 3500 
L 2356 3053 
L 1172 3053 
L 1172 1153 
Q 1172 725 1289 603 
Q 1406 481 1766 481 
L 2356 481 
L 2356 0 
L 1766 0 
Q 1100 0 847 248 
Q 594 497 594 1153 
L 594 3053 
L 172 3053 
L 172 3500 
L 594 3500 
L 594 4494 
L 1172 4494 
z
" transform="scale(0.015625)"/>
      <path id="DejaVuSans-27" d="M 1147 4666 
L 1147 2931 
L 616 2931 
L 616 4666 
L 1147 4666 
z
" transform="scale(0.015625)"/>
      <path id="DejaVuSans-20" transform="scale(0.015625)"/>
      <path id="DejaVuSans-3d" d="M 678 2906 
L 4684 2906 
L 4684 2381 
L 678 2381 
L 678 2906 
z
M 678 1631 
L 4684 1631 
L 4684 1100 
L 678 1100 
L 678 1631 
z
" transform="scale(0.015625)"/>
      <path id="DejaVuSans-30" d="M 2034 4250 
Q 1547 4250 1301 3770 
Q 1056 3291 1056 2328 
Q 1056 1369 1301 889 
Q 1547 409 2034 409 
Q 2525 409 2770 889 
Q 3016 1369 3016 2328 
Q 3016 3291 2770 3770 
Q 2525 4250 2034 4250 
z
M 2034 4750 
Q 2819 4750 3233 4129 
Q 3647 3509 3647 2328 
Q 3647 1150 3233 529 
Q 2819 -91 2034 -91 
Q 1250 -91 836 529 
Q 422 1150 422 2328 
Q 422 3509 836 4129 
Q 1250 4750 2034 4750 
z
" transform="scale(0.015625)"/>
     </defs>
     <use xlink:href="#DejaVuSans-74"/>
     <use xlink:href="#DejaVuSans-27" x="39.208984"/>
     <use xlink:href="#DejaVuSans-20" x="66.699219"/>
     <use xlink:href="#DejaVuSans-3d" x="98.486328"/>
     <use xlink:href="#DejaVuSans-20" x="182.275391"/>
     <use xlink:href="#DejaVuSans-30" x="214.0625"/>
    </g>
   </g>
  </g>
  <g id="axes_2">
   <g id="patch_6">
    <path d="M 269.128421 107.9417 
L 264.93085 110.670121 
L 265.910283 107.943799 
L 159.991579 107.943799 
L 159.991579 107.939602 
L 265.910283 107.939602 
L 264.93085 105.213279 
z
" clip-path="url(#p1b008ed132)" style="fill: #808080; stroke: #808080; stroke-linejoin: miter"/>
   </g>
   <g id="patch_7">
    <path d="M 214.56 7.2 
L 217.288421 11.397571 
L 214.562099 10.418138 
L 214.562099 208.683401 
L 214.557901 208.683401 
L 214.557901 10.418138 
L 211.831579 11.397571 
z
" clip-path="url(#p1b008ed132)" style="fill: #808080; stroke: #808080; stroke-linejoin: miter"/>
   </g>
   <g id="line2d_12">
    <g clip-path="url(#p1b008ed132)">
     <use xlink:href="#m4fda342219" x="203.378821" y="49.641205" style="stroke: #000000"/>
     <use xlink:href="#m4fda342219" x="202.847966" y="55.477575" style="stroke: #000000"/>
     <use xlink:href="#m4fda342219" x="202.054013" y="60.614082" style="stroke: #000000"/>
     <use xlink:href="#m4fda342219" x="200.846822" y="64.862049" style="stroke: #000000"/>
     <use xlink:href="#m4fda342219" x="199.008157" y="68.059252" style="stroke: #000000"/>
     <use xlink:href="#m4fda342219" x="196.263213" y="70.163185" style="stroke: #000000"/>
     <use xlink:href="#m4fda342219" x="192.341604" y="71.351985" style="stroke: #000000"/>
     <use xlink:href="#m4fda342219" x="187.077092" y="72.044832" style="stroke: #000000"/>
     <use xlink:href="#m4fda342219" x="180.485092" y="72.796567" style="stroke: #000000"/>
     <use xlink:href="#m4fda342219" x="172.765411" y="74.135972" style="stroke: #000000"/>
     <use xlink:href="#m4fda342219" x="164.239965" y="76.448963" style="stroke: #000000"/>
    </g>
   </g>
   <g id="line2d_13">
    <g clip-path="url(#p1b008ed132)">
     <use xlink:href="#m4fda342219" x="205.963787" y="54.877948" style="stroke: #000000"/>
     <use xlink:href="#m4fda342219" x="205.615051" y="61.301226" style="stroke: #000000"/>
     <use xlink:href="#m4fda342219" x="205.055142" y="67.055881" style="stroke: #000000"/>
     <use xlink:href="#m4fda342219" x="204.123239" y="71.87689" style="stroke: #000000"/>
     <use xlink:href="#m4fda342219" x="202.545162" y="75.479386" style="stroke: #000000"/>
     <use xlink:href="#m4fda342219" x="199.92257" y="77.718813" style="stroke: #000000"/>
     <use xlink:href="#m4fda342219" x="195.835369" y="78.829142" style="stroke: #000000"/>
     <use xlink:href="#m4fda342219" x="190.062713" y="79.490589" style="stroke: #000000"/>
     <use xlink:href="#m4fda342219" x="182.739874" y="80.565738" style="stroke: #000000"/>
     <use xlink:href="#m4fda342219" x="174.304097" y="82.74738" style="stroke: #000000"/>
     <use xlink:href="#m4fda342219" x="165.312794" y="86.39465" style="stroke: #000000"/>
    </g>
   </g>
   <g id="line2d_14">
    <g clip-path="url(#p1b008ed132)">
     <use xlink:href="#m4fda342219" x="208.36378" y="59.383373" style="stroke: #000000"/>
     <use xlink:href="#m4fda342219" x="208.177373" y="66.453688" style="stroke: #000000"/>
     <use xlink:href="#m4fda342219" x="207.85128" y="72.961247" style="stroke: #000000"/>
     <use xlink:href="#m4fda342219" x="207.237493" y="78.571249" style="stroke: #000000"/>
     <use xlink:href="#m4fda342219" x="206.014096" y="82.806639" style="stroke: #000000"/>
     <use xlink:href="#m4fda342219" x="203.581928" y="85.27444" style="stroke: #000000"/>
     <use xlink:href="#m4fda342219" x="199.214627" y="86.277961" style="stroke: #000000"/>
     <use xlink:href="#m4fda342219" x="192.637911" y="87.069531" style="stroke: #000000"/>
     <use xlink:href="#m4fda342219" x="184.368228" y="89.045798" style="stroke: #000000"/>
     <use xlink:href="#m4fda342219" x="175.353607" y="92.949412" style="stroke: #000000"/>
     <use xlink:href="#m4fda342219" x="166.466034" y="98.824278" style="stroke: #000000"/>
    </g>
   </g>
   <g id="line2d_15">
    <g clip-path="url(#p1b008ed132)">
     <use xlink:href="#m4fda342219" x="210.572949" y="62.908235" style="stroke: #000000"/>
     <use xlink:href="#m4fda342219" x="210.505255" y="70.616685" style="stroke: #000000"/>
     <use xlink:href="#m4fda342219" x="210.375091" y="77.962881" style="stroke: #000000"/>
     <use xlink:href="#m4fda342219" x="210.08751" y="84.621268" style="stroke: #000000"/>
     <use xlink:href="#m4fda342219" x="209.341603" y="89.909103" style="stroke: #000000"/>
     <use xlink:href="#m4fda342219" x="207.241285" y="92.830068" style="stroke: #000000"/>
     <use xlink:href="#m4fda342219" x="202.311448" y="93.715936" style="stroke: #000000"/>
     <use xlink:href="#m4fda342219" x="194.43236" y="95.344216" style="stroke: #000000"/>
     <use xlink:href="#m4fda342219" x="185.420943" y="99.751251" style="stroke: #000000"/>
     <use xlink:href="#m4fda342219" x="177.032849" y="106.866941" style="stroke: #000000"/>
     <use xlink:href="#m4fda342219" x="170.036511" y="115.77137" style="stroke: #000000"/>
    </g>
   </g>
   <g id="line2d_16">
    <g clip-path="url(#p1b008ed132)">
     <use xlink:href="#m4fda342219" x="212.616133" y="65.17847" style="stroke: #000000"/>
     <use xlink:href="#m4fda342219" x="212.606381" y="73.382422" style="stroke: #000000"/>
     <use xlink:href="#m4fda342219" x="212.586025" y="81.467023" style="stroke: #000000"/>
     <use xlink:href="#m4fda342219" x="212.532618" y="89.278995" style="stroke: #000000"/>
     <use xlink:href="#m4fda342219" x="212.32374" y="96.281288" style="stroke: #000000"/>
     <use xlink:href="#m4fda342219" x="210.900643" y="100.385695" style="stroke: #000000"/>
     <use xlink:href="#m4fda342219" x="204.496491" y="101.642633" style="stroke: #000000"/>
     <use xlink:href="#m4fda342219" x="195.79729" y="107.403377" style="stroke: #000000"/>
     <use xlink:href="#m4fda342219" x="189.529944" y="116.779376" style="stroke: #000000"/>
     <use xlink:href="#m4fda342219" x="185.719442" y="127.073903" style="stroke: #000000"/>
     <use xlink:href="#m4fda342219" x="183.412833" y="137.298706" style="stroke: #000000"/>
    </g>
   </g>
   <g id="line2d_17">
    <g clip-path="url(#p1b008ed132)">
     <use xlink:href="#m4fda342219" x="214.56" y="65.965594" style="stroke: #000000"/>
     <use xlink:href="#m4fda342219" x="214.56" y="74.360736" style="stroke: #000000"/>
     <use xlink:href="#m4fda342219" x="214.56" y="82.755878" style="stroke: #000000"/>
     <use xlink:href="#m4fda342219" x="214.56" y="91.151019" style="stroke: #000000"/>
     <use xlink:href="#m4fda342219" x="214.56" y="99.546161" style="stroke: #000000"/>
     <use xlink:href="#m4fda342219" x="214.56" y="107.941323" style="stroke: #000000"/>
     <use xlink:href="#m4fda342219" x="214.56" y="116.32929" style="stroke: #000000"/>
     <use xlink:href="#m4fda342219" x="214.56" y="124.72443" style="stroke: #000000"/>
     <use xlink:href="#m4fda342219" x="214.56" y="133.119571" style="stroke: #000000"/>
     <use xlink:href="#m4fda342219" x="214.56" y="141.514712" style="stroke: #000000"/>
     <use xlink:href="#m4fda342219" x="214.56" y="149.909854" style="stroke: #000000"/>
    </g>
   </g>
   <g id="line2d_18">
    <g clip-path="url(#p1b008ed132)">
     <use xlink:href="#m4fda342219" x="216.503867" y="65.17847" style="stroke: #000000"/>
     <use xlink:href="#m4fda342219" x="216.513619" y="73.382422" style="stroke: #000000"/>
     <use xlink:href="#m4fda342219" x="216.533975" y="81.467023" style="stroke: #000000"/>
     <use xlink:href="#m4fda342219" x="216.587382" y="89.278995" style="stroke: #000000"/>
     <use xlink:href="#m4fda342219" x="216.79626" y="96.281288" style="stroke: #000000"/>
     <use xlink:href="#m4fda342219" x="218.219357" y="100.385695" style="stroke: #000000"/>
     <use xlink:href="#m4fda342219" x="224.623509" y="101.642633" style="stroke: #000000"/>
     <use xlink:href="#m4fda342219" x="233.32271" y="107.403377" style="stroke: #000000"/>
     <use xlink:href="#m4fda342219" x="239.590056" y="116.779376" style="stroke: #000000"/>
     <use xlink:href="#m4fda342219" x="243.400558" y="127.073903" style="stroke: #000000"/>
     <use xlink:href="#m4fda342219" x="245.707167" y="137.298706" style="stroke: #000000"/>
    </g>
   </g>
   <g id="line2d_19">
    <g clip-path="url(#p1b008ed132)">
     <use xlink:href="#m4fda342219" x="218.547051" y="62.908235" style="stroke: #000000"/>
     <use xlink:href="#m4fda342219" x="218.614745" y="70.616685" style="stroke: #000000"/>
     <use xlink:href="#m4fda342219" x="218.744909" y="77.962881" style="stroke: #000000"/>
     <use xlink:href="#m4fda342219" x="219.03249" y="84.621268" style="stroke: #000000"/>
     <use xlink:href="#m4fda342219" x="219.778397" y="89.909103" style="stroke: #000000"/>
     <use xlink:href="#m4fda342219" x="221.878715" y="92.830068" style="stroke: #000000"/>
     <use xlink:href="#m4fda342219" x="226.808552" y="93.715936" style="stroke: #000000"/>
     <use xlink:href="#m4fda342219" x="234.68764" y="95.344216" style="stroke: #000000"/>
     <use xlink:href="#m4fda342219" x="243.699057" y="99.751251" style="stroke: #000000"/>
     <use xlink:href="#m4fda342219" x="252.087151" y="106.866941" style="stroke: #000000"/>
     <use xlink:href="#m4fda342219" x="259.083489" y="115.77137" style="stroke: #000000"/>
    </g>
   </g>
   <g id="line2d_20">
    <g clip-path="url(#p1b008ed132)">
     <use xlink:href="#m4fda342219" x="220.75622" y="59.383373" style="stroke: #000000"/>
     <use xlink:href="#m4fda342219" x="220.942627" y="66.453688" style="stroke: #000000"/>
     <use xlink:href="#m4fda342219" x="221.26872" y="72.961247" style="stroke: #000000"/>
     <use xlink:href="#m4fda342219" x="221.882507" y="78.571249" style="stroke: #000000"/>
     <use xlink:href="#m4fda342219" x="223.105904" y="82.806639" style="stroke: #000000"/>
     <use xlink:href="#m4fda342219" x="225.538072" y="85.27444" style="stroke: #000000"/>
     <use xlink:href="#m4fda342219" x="229.905373" y="86.277961" style="stroke: #000000"/>
     <use xlink:href="#m4fda342219" x="236.482089" y="87.069531" style="stroke: #000000"/>
     <use xlink:href="#m4fda342219" x="244.751772" y="89.045798" style="stroke: #000000"/>
     <use xlink:href="#m4fda342219" x="253.766393" y="92.949412" style="stroke: #000000"/>
     <use xlink:href="#m4fda342219" x="262.653966" y="98.824278" style="stroke: #000000"/>
    </g>
   </g>
   <g id="line2d_21">
    <g clip-path="url(#p1b008ed132)">
     <use xlink:href="#m4fda342219" x="223.156213" y="54.877948" style="stroke: #000000"/>
     <use xlink:href="#m4fda342219" x="223.504949" y="61.301226" style="stroke: #000000"/>
     <use xlink:href="#m4fda342219" x="224.064858" y="67.055881" style="stroke: #000000"/>
     <use xlink:href="#m4fda342219" x="224.996761" y="71.87689" style="stroke: #000000"/>
     <use xlink:href="#m4fda342219" x="226.574838" y="75.479386" style="stroke: #000000"/>
     <use xlink:href="#m4fda342219" x="229.19743" y="77.718813" style="stroke: #000000"/>
     <use xlink:href="#m4fda342219" x="233.284631" y="78.829142" style="stroke: #000000"/>
     <use xlink:href="#m4fda342219" x="239.057287" y="79.490589" style="stroke: #000000"/>
     <use xlink:href="#m4fda342219" x="246.380126" y="80.565738" style="stroke: #000000"/>
     <use xlink:href="#m4fda342219" x="254.815903" y="82.74738" style="stroke: #000000"/>
     <use xlink:href="#m4fda342219" x="263.807206" y="86.39465" style="stroke: #000000"/>
    </g>
   </g>
   <g id="line2d_22">
    <g clip-path="url(#p1b008ed132)">
     <use xlink:href="#m4fda342219" x="225.741179" y="49.641205" style="stroke: #000000"/>
     <use xlink:href="#m4fda342219" x="226.272034" y="55.477575" style="stroke: #000000"/>
     <use xlink:href="#m4fda342219" x="227.065987" y="60.614082" style="stroke: #000000"/>
     <use xlink:href="#m4fda342219" x="228.273178" y="64.862049" style="stroke: #000000"/>
     <use xlink:href="#m4fda342219" x="230.111843" y="68.059252" style="stroke: #000000"/>
     <use xlink:href="#m4fda342219" x="232.856787" y="70.163185" style="stroke: #000000"/>
     <use xlink:href="#m4fda342219" x="236.778396" y="71.351985" style="stroke: #000000"/>
     <use xlink:href="#m4fda342219" x="242.042908" y="72.044832" style="stroke: #000000"/>
     <use xlink:href="#m4fda342219" x="248.634908" y="72.796567" style="stroke: #000000"/>
     <use xlink:href="#m4fda342219" x="256.354589" y="74.135972" style="stroke: #000000"/>
     <use xlink:href="#m4fda342219" x="264.880035" y="76.448963" style="stroke: #000000"/>
    </g>
   </g>
   <g id="text_5">
    <!-- y' -->
    <g style="fill: #808080" transform="translate(264.93085 103.74413) scale(0.1 -0.1)">
     <use xlink:href="#DejaVuSans-79"/>
     <use xlink:href="#DejaVuSans-27" x="59.179688"/>
    </g>
   </g>
   <g id="text_6">
    <!-- z' -->
    <g style="fill: #808080" transform="translate(218.757571 15.595142) scale(0.1 -0.1)">
     <use xlink:href="#DejaVuSans-7a"/>
     <use xlink:href="#DejaVuSans-27" x="52.490234"/>
    </g>
   </g>
   <g id="text_7">
    <!-- rotated -->
    <g transform="translate(277.523563 86.953846) scale(0.1 -0.1)">
     <defs>
      <path id="DejaVuSans-72" d="M 2631 2963 
Q 2534 3019 2420 3045 
Q 2306 3072 2169 3072 
Q 1681 3072 1420 2755 
Q 1159 2438 1159 1844 
L 1159 0 
L 581 0 
L 581 3500 
L 1159 3500 
L 1159 2956 
Q 1341 3275 1631 3429 
Q 1922 3584 2338 3584 
Q 2397 3584 2469 3576 
Q 2541 3569 2628 3553 
L 2631 2963 
z
" transform="scale(0.015625)"/>
      <path id="DejaVuSans-6f" d="M 1959 3097 
Q 1497 3097 1228 2736 
Q 959 2375 959 1747 
Q 959 1119 1226 758 
Q 1494 397 1959 397 
Q 2419 397 2687 759 
Q 2956 1122 2956 1747 
Q 2956 2369 2687 2733 
Q 2419 3097 1959 3097 
z
M 1959 3584 
Q 2709 3584 3137 3096 
Q 3566 2609 3566 1747 
Q 3566 888 3137 398 
Q 2709 -91 1959 -91 
Q 1206 -91 779 398 
Q 353 888 353 1747 
Q 353 2609 779 3096 
Q 1206 3584 1959 3584 
z
" transform="scale(0.015625)"/>
      <path id="DejaVuSans-61" d="M 2194 1759 
Q 1497 1759 1228 1600 
Q 959 1441 959 1056 
Q 959 750 1161 570 
Q 1363 391 1709 391 
Q 2188 391 2477 730 
Q 2766 1069 2766 1631 
L 2766 1759 
L 2194 1759 
z
M 3341 1997 
L 3341 0 
L 2766 0 
L 2766 531 
Q 2569 213 2275 61 
Q 1981 -91 1556 -91 
Q 1019 -91 701 211 
Q 384 513 384 1019 
Q 384 1609 779 1909 
Q 1175 2209 1959 2209 
L 2766 2209 
L 2766 2266 
Q 2766 2663 2505 2880 
Q 2244 3097 1772 3097 
Q 1472 3097 1187 3025 
Q 903 2953 641 2809 
L 641 3341 
Q 956 3463 1253 3523 
Q 1550 3584 1831 3584 
Q 2591 3584 2966 3190 
Q 3341 2797 3341 1997 
z
" transform="scale(0.015625)"/>
      <path id="DejaVuSans-65" d="M 3597 1894 
L 3597 1613 
L 953 1613 
Q 991 1019 1311 708 
Q 1631 397 2203 397 
Q 2534 397 2845 478 
Q 3156 559 3463 722 
L 3463 178 
Q 3153 47 2828 -22 
Q 2503 -91 2169 -91 
Q 1331 -91 842 396 
Q 353 884 353 1716 
Q 353 2575 817 3079 
Q 1281 3584 2069 3584 
Q 2775 3584 3186 3129 
Q 3597 2675 3597 1894 
z
M 3022 2063 
Q 3016 2534 2758 2815 
Q 2500 3097 2075 3097 
Q 1594 3097 1305 2825 
Q 1016 2553 972 2059 
L 3022 2063 
z
" transform="scale(0.015625)"/>
      <path id="DejaVuSans-64" d="M 2906 2969 
L 2906 4863 
L 3481 4863 
L 3481 0 
L 2906 0 
L 2906 525 
Q 2725 213 2448 61 
Q 2172 -91 1784 -91 
Q 1150 -91 751 415 
Q 353 922 353 1747 
Q 353 2572 751 3078 
Q 1150 3584 1784 3584 
Q 2172 3584 2448 3432 
Q 2725 3281 2906 2969 
z
M 947 1747 
Q 947 1113 1208 752 
Q 1469 391 1925 391 
Q 2381 391 2643 752 
Q 2906 1113 2906 1747 
Q 2906 2381 2643 2742 
Q 2381 3103 1925 3103 
Q 1469 3103 1208 2742 
Q 947 2381 947 1747 
z
" transform="scale(0.015625)"/>
     </defs>
     <use xlink:href="#DejaVuSans-72"/>
     <use xlink:href="#DejaVuSans-6f" x="38.863281"/>
     <use xlink:href="#DejaVuSans-74" x="100.044922"/>
     <use xlink:href="#DejaVuSans-61" x="139.253906"/>
     <use xlink:href="#DejaVuSans-74" x="200.533203"/>
     <use xlink:href="#DejaVuSans-65" x="239.742188"/>
     <use xlink:href="#DejaVuSans-64" x="301.265625"/>
    </g>
   </g>
  </g>
  <g id="axes_3">
   <g id="patch_8">
    <path d="M 421.92 107.9417 
L 417.722429 110.670121 
L 418.701862 107.943799 
L 312.783158 107.943799 
L 312.783158 107.939602 
L 418.701862 107.939602 
L 417.722429 105.213279 
z
" clip-path="url(#pc1ae6a73c9)" style="fill: #808080; stroke: #808080; stroke-linejoin: miter"/>
   </g>
   <g id="patch_9">
    <path d="M 367.351579 7.2 
L 370.08 11.397571 
L 367.353678 10.418138 
L 367.353678 208.683401 
L 367.34948 208.683401 
L 367.34948 10.418138 
L 364.623158 11.397571 
z
" clip-path="url(#pc1ae6a73c9)" style="fill: #808080; stroke: #808080; stroke-linejoin: miter"/>
   </g>
   <g id="Quiver_1">
    <path d="M 325.648713 -115.96651 
L 325.648713 -108.342088 
L 326.740081 -108.614931 
L 325.37587 -105.88651 
L 324.01166 -108.614931 
L 325.103028 -108.342088 
L 325.103028 -115.96651 
L 325.648713 -115.96651 
" clip-path="url(#pc1ae6a73c9)"/>
    <path d="M 334.043854 -104.38851 
L 334.043854 -96.764089 
L 335.135223 -97.036931 
L 333.771012 -94.30851 
L 332.406802 -97.036931 
L 333.49817 -96.764089 
L 333.49817 -104.38851 
L 334.043854 -104.38851 
" clip-path="url(#pc1ae6a73c9)"/>
    <path d="M 342.438996 -94.47059 
L 342.438996 -86.846169 
L 343.530364 -87.119011 
L 342.166154 -84.39059 
L 340.801943 -87.119011 
L 341.893312 -86.846169 
L 341.893312 -94.47059 
L 342.438996 -94.47059 
" clip-path="url(#pc1ae6a73c9)"/>
    <path d="M 350.834138 -86.743407 
L 350.834138 -79.118986 
L 351.925506 -79.391828 
L 350.561296 -76.663407 
L 349.197085 -79.391828 
L 350.288453 -79.118986 
L 350.288453 -86.743407 
L 350.834138 -86.743407 
" clip-path="url(#pc1ae6a73c9)"/>
    <path d="M 359.229279 -81.783422 
L 359.229279 -74.159001 
L 360.320648 -74.431843 
L 358.956437 -71.703422 
L 357.592227 -74.431843 
L 358.683595 -74.159001 
L 358.683595 -81.783422 
L 359.229279 -81.783422 
" clip-path="url(#pc1ae6a73c9)"/>
    <path d="M 367.624421 -80.067038 
L 367.624421 -72.442617 
L 368.715789 -72.715459 
L 367.351579 -69.987038 
L 365.987368 -72.715459 
L 367.078737 -72.442617 
L 367.078737 -80.067038 
L 367.624421 -80.067038 
" clip-path="url(#pc1ae6a73c9)"/>
    <path d="M 376.019563 -81.783422 
L 376.019563 -74.159001 
L 377.110931 -74.431843 
L 375.746721 -71.703422 
L 374.38251 -74.431843 
L 375.473879 -74.159001 
L 375.473879 -81.783422 
L 376.019563 -81.783422 
" clip-path="url(#pc1ae6a73c9)"/>
    <path d="M 384.414704 -86.743407 
L 384.414704 -79.118986 
L 385.506073 -79.391828 
L 384.141862 -76.663407 
L 382.777652 -79.391828 
L 383.86902 -79.118986 
L 383.86902 -86.743407 
L 384.414704 -86.743407 
" clip-path="url(#pc1ae6a73c9)"/>
    <path d="M 392.809846 -94.47059 
L 392.809846 -86.846169 
L 393.901215 -87.119011 
L 392.537004 -84.39059 
L 391.172794 -87.119011 
L 392.264162 -86.846169 
L 392.264162 -94.47059 
L 392.809846 -94.47059 
" clip-path="url(#pc1ae6a73c9)"/>
    <path d="M 401.204988 -104.38851 
L 401.204988 -96.764089 
L 402.296356 -97.036931 
L 400.932146 -94.30851 
L 399.567935 -97.036931 
L 400.659304 -96.764089 
L 400.659304 -104.38851 
L 401.204988 -104.38851 
" clip-path="url(#pc1ae6a73c9)"/>
    <path d="M 409.60013 -115.96651 
L 409.60013 -108.342088 
L 410.691498 -108.614931 
L 409.327287 -105.88651 
L 407.963077 -108.614931 
L 409.054445 -108.342088 
L 409.054445 -115.96651 
L 409.60013 -115.96651 
" clip-path="url(#pc1ae6a73c9)"/>
    <path d="M 325.648713 -85.128734 
L 325.648713 -77.504313 
L 326.740081 -77.777155 
L 325.37587 -75.048734 
L 324.01166 -77.777155 
L 325.103028 -77.504313 
L 325.103028 -85.128734 
L 325.648713 -85.128734 
" clip-path="url(#pc1ae6a73c9)"/>
    <path d="M 334.043854 -72.193041 
L 334.043854 -64.56862 
L 335.135223 -64.841462 
L 333.771012 -62.113041 
L 332.406802 -64.841462 
L 333.49817 -64.56862 
L 333.49817 -72.193041 
L 334.043854 -72.193041 
" clip-path="url(#pc1ae6a73c9)"/>
    <path d="M 342.438996 -60.807262 
L 342.438996 -53.182841 
L 343.530364 -53.455683 
L 342.166154 -50.727262 
L 340.801943 -53.455683 
L 341.893312 -53.182841 
L 341.893312 -60.807262 
L 342.438996 -60.807262 
" clip-path="url(#pc1ae6a73c9)"/>
    <path d="M 350.834138 -51.657373 
L 350.834138 -44.032952 
L 351.925506 -44.305794 
L 350.561296 -41.577373 
L 349.197085 -44.305794 
L 350.288453 -44.032952 
L 350.288453 -51.657373 
L 350.834138 -51.657373 
" clip-path="url(#pc1ae6a73c9)"/>
    <path d="M 359.229279 -45.607352 
L 359.229279 -37.98293 
L 360.320648 -38.255773 
L 358.956437 -35.527352 
L 357.592227 -38.255773 
L 358.683595 -37.98293 
L 358.683595 -45.607352 
L 359.229279 -45.607352 
" clip-path="url(#pc1ae6a73c9)"/>
    <path d="M 367.624421 -43.473463 
L 367.624421 -35.849042 
L 368.715789 -36.121884 
L 367.351579 -33.393463 
L 365.987368 -36.121884 
L 367.078737 -35.849042 
L 367.078737 -43.473463 
L 367.624421 -43.473463 
" clip-path="url(#pc1ae6a73c9)"/>
    <path d="M 376.019563 -45.607352 
L 376.019563 -37.98293 
L 377.110931 -38.255773 
L 375.746721 -35.527352 
L 374.38251 -38.255773 
L 375.473879 -37.98293 
L 375.473879 -45.607352 
L 376.019563 -45.607352 
" clip-path="url(#pc1ae6a73c9)"/>
    <path d="M 384.414704 -51.657373 
L 384.414704 -44.032952 
L 385.506073 -44.305794 
L 384.141862 -41.577373 
L 382.777652 -44.305794 
L 383.86902 -44.032952 
L 383.86902 -51.657373 
L 384.414704 -51.657373 
" clip-path="url(#pc1ae6a73c9)"/>
    <path d="M 392.809846 -60.807262 
L 392.809846 -53.182841 
L 393.901215 -53.455683 
L 392.537004 -50.727262 
L 391.172794 -53.455683 
L 392.264162 -53.182841 
L 392.264162 -60.807262 
L 392.809846 -60.807262 
" clip-path="url(#pc1ae6a73c9)"/>
    <path d="M 401.204988 -72.193041 
L 401.204988 -64.56862 
L 402.296356 -64.841462 
L 400.932146 -62.113041 
L 399.567935 -64.841462 
L 400.659304 -64.56862 
L 400.659304 -72.193041 
L 401.204988 -72.193041 
" clip-path="url(#pc1ae6a73c9)"/>
    <path d="M 409.60013 -85.128734 
L 409.60013 -77.504313 
L 410.691498 -77.777155 
L 409.327287 -75.048734 
L 407.963077 -77.777155 
L 409.054445 -77.504313 
L 409.054445 -85.128734 
L 409.60013 -85.128734 
" clip-path="url(#pc1ae6a73c9)"/>
    <path d="M 325.648713 -55.951038 
L 325.648713 -48.326617 
L 326.740081 -48.599459 
L 325.37587 -45.871038 
L 324.01166 -48.599459 
L 325.103028 -48.326617 
L 325.103028 -55.951038 
L 325.648713 -55.951038 
" clip-path="url(#pc1ae6a73c9)"/>
    <path d="M 334.043854 -41.547486 
L 334.043854 -33.923065 
L 335.135223 -34.195907 
L 333.771012 -31.467486 
L 332.406802 -34.195907 
L 333.49817 -33.923065 
L 333.49817 -41.547486 
L 334.043854 -41.547486 
" clip-path="url(#pc1ae6a73c9)"/>
    <path d="M 342.438996 -28.419572 
L 342.438996 -20.795151 
L 343.530364 -21.067993 
L 342.166154 -18.339572 
L 340.801943 -21.067993 
L 341.893312 -20.795151 
L 341.893312 -28.419572 
L 342.438996 -28.419572 
" clip-path="url(#pc1ae6a73c9)"/>
    <path d="M 350.834138 -17.376393 
L 350.834138 -9.751972 
L 351.925506 -10.024814 
L 350.561296 -7.296393 
L 349.197085 -10.024814 
L 350.288453 -9.751972 
L 350.288453 -17.376393 
L 350.834138 -17.376393 
" clip-path="url(#pc1ae6a73c9)"/>
    <path d="M 359.229279 -9.692777 
L 359.229279 -2.068356 
L 360.320648 -2.341198 
L 358.956437 0.387223 
L 357.592227 -2.341198 
L 358.683595 -2.068356 
L 358.683595 -9.692777 
L 359.229279 -9.692777 
" clip-path="url(#pc1ae6a73c9)"/>
    <path d="M 367.624421 -6.879889 
L 367.624421 0.744532 
L 368.715789 0.47169 
L 367.351579 3.200111 
L 365.987368 0.47169 
L 367.078737 0.744532 
L 367.078737 -6.879889 
L 367.624421 -6.879889 
" clip-path="url(#pc1ae6a73c9)"/>
    <path d="M 376.019563 -9.692777 
L 376.019563 -2.068356 
L 377.110931 -2.341198 
L 375.746721 0.387223 
L 374.38251 -2.341198 
L 375.473879 -2.068356 
L 375.473879 -9.692777 
L 376.019563 -9.692777 
" clip-path="url(#pc1ae6a73c9)"/>
    <path d="M 384.414704 -17.376393 
L 384.414704 -9.751972 
L 385.506073 -10.024814 
L 384.141862 -7.296393 
L 382.777652 -10.024814 
L 383.86902 -9.751972 
L 383.86902 -17.376393 
L 384.414704 -17.376393 
" clip-path="url(#pc1ae6a73c9)"/>
    <path d="M 392.809846 -28.419572 
L 392.809846 -20.795151 
L 393.901215 -21.067993 
L 392.537004 -18.339572 
L 391.172794 -21.067993 
L 392.264162 -20.795151 
L 392.264162 -28.419572 
L 392.809846 -28.419572 
" clip-path="url(#pc1ae6a73c9)"/>
    <path d="M 401.204988 -41.547486 
L 401.204988 -33.923065 
L 402.296356 -34.195907 
L 400.932146 -31.467486 
L 399.567935 -34.195907 
L 400.659304 -33.923065 
L 400.659304 -41.547486 
L 401.204988 -41.547486 
" clip-path="url(#pc1ae6a73c9)"/>
    <path d="M 409.60013 -55.951038 
L 409.60013 -48.326617 
L 410.691498 -48.599459 
L 409.327287 -45.871038 
L 407.963077 -48.599459 
L 409.054445 -48.326617 
L 409.054445 -55.951038 
L 409.60013 -55.951038 
" clip-path="url(#pc1ae6a73c9)"/>
    <path d="M 325.648713 -28.964079 
L 325.648713 -21.339658 
L 326.740081 -21.6125 
L 325.37587 -18.884079 
L 324.01166 -21.6125 
L 325.103028 -21.339658 
L 325.103028 -28.964079 
L 325.648713 -28.964079 
" clip-path="url(#pc1ae6a73c9)"/>
    <path d="M 334.043854 -13.137821 
L 334.043854 -5.5134 
L 335.135223 -5.786242 
L 333.771012 -3.057821 
L 332.406802 -5.786242 
L 333.49817 -5.5134 
L 333.49817 -13.137821 
L 334.043854 -13.137821 
" clip-path="url(#pc1ae6a73c9)"/>
    <path d="M 342.438996 1.883383 
L 342.438996 9.507804 
L 343.530364 9.234962 
L 342.166154 11.963383 
L 340.801943 9.234962 
L 341.893312 9.507804 
L 341.893312 1.883383 
L 342.438996 1.883383 
" clip-path="url(#pc1ae6a73c9)"/>
    <path d="M 350.834138 15.353896 
L 350.834138 22.978317 
L 351.925506 22.705475 
L 350.561296 25.433896 
L 349.197085 22.705475 
L 350.288453 22.978317 
L 350.288453 15.353896 
L 350.834138 15.353896 
" clip-path="url(#pc1ae6a73c9)"/>
    <path d="M 359.229279 25.62173 
L 359.229279 33.246151 
L 360.320648 32.973309 
L 358.956437 35.70173 
L 357.592227 32.973309 
L 358.683595 33.246151 
L 358.683595 25.62173 
L 359.229279 25.62173 
" clip-path="url(#pc1ae6a73c9)"/>
    <path d="M 367.624421 29.713685 
L 367.624421 37.338106 
L 368.715789 37.065264 
L 367.351579 39.793685 
L 365.987368 37.065264 
L 367.078737 37.338106 
L 367.078737 29.713685 
L 367.624421 29.713685 
" clip-path="url(#pc1ae6a73c9)"/>
    <path d="M 376.019563 25.62173 
L 376.019563 33.246151 
L 377.110931 32.973309 
L 375.746721 35.70173 
L 374.38251 32.973309 
L 375.473879 33.246151 
L 375.473879 25.62173 
L 376.019563 25.62173 
" clip-path="url(#pc1ae6a73c9)"/>
    <path d="M 384.414704 15.353896 
L 384.414704 22.978317 
L 385.506073 22.705475 
L 384.141862 25.433896 
L 382.777652 22.705475 
L 383.86902 22.978317 
L 383.86902 15.353896 
L 384.414704 15.353896 
" clip-path="url(#pc1ae6a73c9)"/>
    <path d="M 392.809846 1.883383 
L 392.809846 9.507804 
L 393.901215 9.234962 
L 392.537004 11.963383 
L 391.172794 9.234962 
L 392.264162 9.507804 
L 392.264162 1.883383 
L 392.809846 1.883383 
" clip-path="url(#pc1ae6a73c9)"/>
    <path d="M 401.204988 -13.137821 
L 401.204988 -5.5134 
L 402.296356 -5.786242 
L 400.932146 -3.057821 
L 399.567935 -5.786242 
L 400.659304 -5.5134 
L 400.659304 -13.137821 
L 401.204988 -13.137821 
" clip-path="url(#pc1ae6a73c9)"/>
    <path d="M 409.60013 -28.964079 
L 409.60013 -21.339658 
L 410.691498 -21.6125 
L 409.327287 -18.884079 
L 407.963077 -21.6125 
L 409.054445 -21.339658 
L 409.054445 -28.964079 
L 409.60013 -28.964079 
" clip-path="url(#pc1ae6a73c9)"/>
    <path d="M 325.648713 -4.744318 
L 325.648713 2.880103 
L 326.740081 2.607261 
L 325.37587 5.335682 
L 324.01166 2.607261 
L 325.103028 2.880103 
L 325.103028 -4.744318 
L 325.648713 -4.744318 
" clip-path="url(#pc1ae6a73c9)"/>
    <path d="M 334.043854 12.171976 
L 334.043854 19.796397 
L 335.135223 19.523555 
L 333.771012 22.251976 
L 332.406802 19.523555 
L 333.49817 19.796397 
L 333.49817 12.171976 
L 334.043854 12.171976 
" clip-path="url(#pc1ae6a73c9)"/>
    <path d="M 342.438996 28.826774 
L 342.438996 36.451196 
L 343.530364 36.178353 
L 342.166154 38.906774 
L 340.801943 36.178353 
L 341.893312 36.451196 
L 341.893312 28.826774 
L 342.438996 28.826774 
" clip-path="url(#pc1ae6a73c9)"/>
    <path d="M 350.834138 44.881506 
L 350.834138 52.505927 
L 351.925506 52.233085 
L 350.561296 54.961506 
L 349.197085 52.233085 
L 350.288453 52.505927 
L 350.288453 44.881506 
L 350.834138 44.881506 
" clip-path="url(#pc1ae6a73c9)"/>
    <path d="M 359.229279 59.127365 
L 359.229279 66.751786 
L 360.320648 66.478944 
L 358.956437 69.207365 
L 357.592227 66.478944 
L 358.683595 66.751786 
L 358.683595 59.127365 
L 359.229279 59.127365 
" clip-path="url(#pc1ae6a73c9)"/>
    <path d="M 367.624421 66.307259 
L 367.624421 73.93168 
L 368.715789 73.658838 
L 367.351579 76.387259 
L 365.987368 73.658838 
L 367.078737 73.93168 
L 367.078737 66.307259 
L 367.624421 66.307259 
" clip-path="url(#pc1ae6a73c9)"/>
    <path d="M 376.019563 59.127365 
L 376.019563 66.751786 
L 377.110931 66.478944 
L 375.746721 69.207365 
L 374.38251 66.478944 
L 375.473879 66.751786 
L 375.473879 59.127365 
L 376.019563 59.127365 
" clip-path="url(#pc1ae6a73c9)"/>
    <path d="M 384.414704 44.881506 
L 384.414704 52.505927 
L 385.506073 52.233085 
L 384.141862 54.961506 
L 382.777652 52.233085 
L 383.86902 52.505927 
L 383.86902 44.881506 
L 384.414704 44.881506 
" clip-path="url(#pc1ae6a73c9)"/>
    <path d="M 392.809846 28.826774 
L 392.809846 36.451196 
L 393.901215 36.178353 
L 392.537004 38.906774 
L 391.172794 36.178353 
L 392.264162 36.451196 
L 392.264162 28.826774 
L 392.809846 28.826774 
" clip-path="url(#pc1ae6a73c9)"/>
    <path d="M 401.204988 12.171976 
L 401.204988 19.796397 
L 402.296356 19.523555 
L 400.932146 22.251976 
L 399.567935 19.523555 
L 400.659304 19.796397 
L 400.659304 12.171976 
L 401.204988 12.171976 
" clip-path="url(#pc1ae6a73c9)"/>
    <path d="M 409.60013 -4.744318 
L 409.60013 2.880103 
L 410.691498 2.607261 
L 409.327287 5.335682 
L 407.963077 2.607261 
L 409.054445 2.880103 
L 409.054445 -4.744318 
L 409.60013 -4.744318 
" clip-path="url(#pc1ae6a73c9)"/>
    <path d="M 325.648713 16.231842 
L 325.648713 23.856263 
L 326.740081 23.583421 
L 325.37587 26.311842 
L 324.01166 23.583421 
L 325.103028 23.856263 
L 325.103028 16.231842 
L 325.648713 16.231842 
" clip-path="url(#pc1ae6a73c9)"/>
    <path d="M 334.043854 33.56564 
L 334.043854 41.190061 
L 335.135223 40.917219 
L 333.771012 43.64564 
L 332.406802 40.917219 
L 333.49817 41.190061 
L 333.49817 33.56564 
L 334.043854 33.56564 
" clip-path="url(#pc1ae6a73c9)"/>
    <path d="M 342.438996 50.899439 
L 342.438996 58.52386 
L 343.530364 58.251018 
L 342.166154 60.979439 
L 340.801943 58.251018 
L 341.893312 58.52386 
L 341.893312 50.899439 
L 342.438996 50.899439 
" clip-path="url(#pc1ae6a73c9)"/>
    <path d="M 350.834138 68.233237 
L 350.834138 75.857658 
L 351.925506 75.584816 
L 350.561296 78.313237 
L 349.197085 75.584816 
L 350.288453 75.857658 
L 350.288453 68.233237 
L 350.834138 68.233237 
" clip-path="url(#pc1ae6a73c9)"/>
    <path d="M 359.229279 85.567035 
L 359.229279 93.191456 
L 360.320648 92.918614 
L 358.956437 95.647035 
L 357.592227 92.918614 
L 358.683595 93.191456 
L 358.683595 85.567035 
L 359.229279 85.567035 
" clip-path="url(#pc1ae6a73c9)"/>
    <path d="M 367.624421 102.900834 
L 367.624421 110.525255 
L 368.715789 110.252413 
L 367.351579 112.980834 
L 365.987368 110.252413 
L 367.078737 110.525255 
L 367.078737 102.900834 
L 367.624421 102.900834 
" clip-path="url(#pc1ae6a73c9)"/>
    <path d="M 376.019563 85.567035 
L 376.019563 93.191456 
L 377.110931 92.918614 
L 375.746721 95.647035 
L 374.38251 92.918614 
L 375.473879 93.191456 
L 375.473879 85.567035 
L 376.019563 85.567035 
" clip-path="url(#pc1ae6a73c9)"/>
    <path d="M 384.414704 68.233237 
L 384.414704 75.857658 
L 385.506073 75.584816 
L 384.141862 78.313237 
L 382.777652 75.584816 
L 383.86902 75.857658 
L 383.86902 68.233237 
L 384.414704 68.233237 
" clip-path="url(#pc1ae6a73c9)"/>
    <path d="M 392.809846 50.899439 
L 392.809846 58.52386 
L 393.901215 58.251018 
L 392.537004 60.979439 
L 391.172794 58.251018 
L 392.264162 58.52386 
L 392.264162 50.899439 
L 392.809846 50.899439 
" clip-path="url(#pc1ae6a73c9)"/>
    <path d="M 401.204988 33.56564 
L 401.204988 41.190061 
L 402.296356 40.917219 
L 400.932146 43.64564 
L 399.567935 40.917219 
L 400.659304 41.190061 
L 400.659304 33.56564 
L 401.204988 33.56564 
" clip-path="url(#pc1ae6a73c9)"/>
    <path d="M 409.60013 16.231842 
L 409.60013 23.856263 
L 410.691498 23.583421 
L 409.327287 26.311842 
L 407.963077 23.583421 
L 409.054445 23.856263 
L 409.054445 16.231842 
L 409.60013 16.231842 
" clip-path="url(#pc1ae6a73c9)"/>
    <path d="M 325.648713 33.775234 
L 325.648713 41.399655 
L 326.740081 41.126813 
L 325.37587 43.855234 
L 324.01166 41.126813 
L 325.103028 41.399655 
L 325.103028 33.775234 
L 325.648713 33.775234 
" clip-path="url(#pc1ae6a73c9)"/>
    <path d="M 334.043854 50.691528 
L 334.043854 58.315949 
L 335.135223 58.043107 
L 333.771012 60.771528 
L 332.406802 58.043107 
L 333.49817 58.315949 
L 333.49817 50.691528 
L 334.043854 50.691528 
" clip-path="url(#pc1ae6a73c9)"/>
    <path d="M 342.438996 67.346326 
L 342.438996 74.970747 
L 343.530364 74.697905 
L 342.166154 77.426326 
L 340.801943 74.697905 
L 341.893312 74.970747 
L 341.893312 67.346326 
L 342.438996 67.346326 
" clip-path="url(#pc1ae6a73c9)"/>
    <path d="M 350.834138 83.401058 
L 350.834138 91.025479 
L 351.925506 90.752637 
L 350.561296 93.481058 
L 349.197085 90.752637 
L 350.288453 91.025479 
L 350.288453 83.401058 
L 350.834138 83.401058 
" clip-path="url(#pc1ae6a73c9)"/>
    <path d="M 359.229279 97.646917 
L 359.229279 105.271338 
L 360.320648 104.998496 
L 358.956437 107.726917 
L 357.592227 104.998496 
L 358.683595 105.271338 
L 358.683595 97.646917 
L 359.229279 97.646917 
" clip-path="url(#pc1ae6a73c9)"/>
    <path d="M 367.624421 104.826811 
L 367.624421 112.451232 
L 368.715789 112.17839 
L 367.351579 114.906811 
L 365.987368 112.17839 
L 367.078737 112.451232 
L 367.078737 104.826811 
L 367.624421 104.826811 
" clip-path="url(#pc1ae6a73c9)"/>
    <path d="M 376.019563 97.646917 
L 376.019563 105.271338 
L 377.110931 104.998496 
L 375.746721 107.726917 
L 374.38251 104.998496 
L 375.473879 105.271338 
L 375.473879 97.646917 
L 376.019563 97.646917 
" clip-path="url(#pc1ae6a73c9)"/>
    <path d="M 384.414704 83.401058 
L 384.414704 91.025479 
L 385.506073 90.752637 
L 384.141862 93.481058 
L 382.777652 90.752637 
L 383.86902 91.025479 
L 383.86902 83.401058 
L 384.414704 83.401058 
" clip-path="url(#pc1ae6a73c9)"/>
    <path d="M 392.809846 67.346326 
L 392.809846 74.970747 
L 393.901215 74.697905 
L 392.537004 77.426326 
L 391.172794 74.697905 
L 392.264162 74.970747 
L 392.264162 67.346326 
L 392.809846 67.346326 
" clip-path="url(#pc1ae6a73c9)"/>
    <path d="M 401.204988 50.691528 
L 401.204988 58.315949 
L 402.296356 58.043107 
L 400.932146 60.771528 
L 399.567935 58.043107 
L 400.659304 58.315949 
L 400.659304 50.691528 
L 401.204988 50.691528 
" clip-path="url(#pc1ae6a73c9)"/>
    <path d="M 409.60013 33.775234 
L 409.60013 41.399655 
L 410.691498 41.126813 
L 409.327287 43.855234 
L 407.963077 41.126813 
L 409.054445 41.399655 
L 409.054445 33.775234 
L 409.60013 33.775234 
" clip-path="url(#pc1ae6a73c9)"/>
    <path d="M 325.648713 48.075025 
L 325.648713 55.699446 
L 326.740081 55.426604 
L 325.37587 58.155025 
L 324.01166 55.426604 
L 325.103028 55.699446 
L 325.103028 48.075025 
L 325.648713 48.075025 
" clip-path="url(#pc1ae6a73c9)"/>
    <path d="M 334.043854 63.901283 
L 334.043854 71.525704 
L 335.135223 71.252862 
L 333.771012 73.981283 
L 332.406802 71.252862 
L 333.49817 71.525704 
L 333.49817 63.901283 
L 334.043854 63.901283 
" clip-path="url(#pc1ae6a73c9)"/>
    <path d="M 342.438996 78.922487 
L 342.438996 86.546908 
L 343.530364 86.274066 
L 342.166154 89.002487 
L 340.801943 86.274066 
L 341.893312 86.546908 
L 341.893312 78.922487 
L 342.438996 78.922487 
" clip-path="url(#pc1ae6a73c9)"/>
    <path d="M 350.834138 92.393 
L 350.834138 100.017421 
L 351.925506 99.744579 
L 350.561296 102.473 
L 349.197085 99.744579 
L 350.288453 100.017421 
L 350.288453 92.393 
L 350.834138 92.393 
" clip-path="url(#pc1ae6a73c9)"/>
    <path d="M 359.229279 102.660834 
L 359.229279 110.285255 
L 360.320648 110.012413 
L 358.956437 112.740834 
L 357.592227 110.012413 
L 358.683595 110.285255 
L 358.683595 102.660834 
L 359.229279 102.660834 
" clip-path="url(#pc1ae6a73c9)"/>
    <path d="M 367.624421 106.752789 
L 367.624421 114.37721 
L 368.715789 114.104368 
L 367.351579 116.832789 
L 365.987368 114.104368 
L 367.078737 114.37721 
L 367.078737 106.752789 
L 367.624421 106.752789 
" clip-path="url(#pc1ae6a73c9)"/>
    <path d="M 376.019563 102.660834 
L 376.019563 110.285255 
L 377.110931 110.012413 
L 375.746721 112.740834 
L 374.38251 110.012413 
L 375.473879 110.285255 
L 375.473879 102.660834 
L 376.019563 102.660834 
" clip-path="url(#pc1ae6a73c9)"/>
    <path d="M 384.414704 92.393 
L 384.414704 100.017421 
L 385.506073 99.744579 
L 384.141862 102.473 
L 382.777652 99.744579 
L 383.86902 100.017421 
L 383.86902 92.393 
L 384.414704 92.393 
" clip-path="url(#pc1ae6a73c9)"/>
    <path d="M 392.809846 78.922487 
L 392.809846 86.546908 
L 393.901215 86.274066 
L 392.537004 89.002487 
L 391.172794 86.274066 
L 392.264162 86.546908 
L 392.264162 78.922487 
L 392.809846 78.922487 
" clip-path="url(#pc1ae6a73c9)"/>
    <path d="M 401.204988 63.901283 
L 401.204988 71.525704 
L 402.296356 71.252862 
L 400.932146 73.981283 
L 399.567935 71.252862 
L 400.659304 71.525704 
L 400.659304 63.901283 
L 401.204988 63.901283 
" clip-path="url(#pc1ae6a73c9)"/>
    <path d="M 409.60013 48.075025 
L 409.60013 55.699446 
L 410.691498 55.426604 
L 409.327287 58.155025 
L 407.963077 55.426604 
L 409.054445 55.699446 
L 409.054445 48.075025 
L 409.60013 48.075025 
" clip-path="url(#pc1ae6a73c9)"/>
    <path d="M 325.648713 59.607617 
L 325.648713 67.232038 
L 326.740081 66.959196 
L 325.37587 69.687617 
L 324.01166 66.959196 
L 325.103028 67.232038 
L 325.103028 59.607617 
L 325.648713 59.607617 
" clip-path="url(#pc1ae6a73c9)"/>
    <path d="M 334.043854 74.01117 
L 334.043854 81.635591 
L 335.135223 81.362749 
L 333.771012 84.09117 
L 332.406802 81.362749 
L 333.49817 81.635591 
L 333.49817 74.01117 
L 334.043854 74.01117 
" clip-path="url(#pc1ae6a73c9)"/>
    <path d="M 342.438996 87.139083 
L 342.438996 94.763504 
L 343.530364 94.490662 
L 342.166154 97.219083 
L 340.801943 94.490662 
L 341.893312 94.763504 
L 341.893312 87.139083 
L 342.438996 87.139083 
" clip-path="url(#pc1ae6a73c9)"/>
    <path d="M 350.834138 98.182263 
L 350.834138 105.806684 
L 351.925506 105.533842 
L 350.561296 108.262263 
L 349.197085 105.533842 
L 350.288453 105.806684 
L 350.288453 98.182263 
L 350.834138 98.182263 
" clip-path="url(#pc1ae6a73c9)"/>
    <path d="M 359.229279 105.865878 
L 359.229279 113.490299 
L 360.320648 113.217457 
L 358.956437 115.945878 
L 357.592227 113.217457 
L 358.683595 113.490299 
L 358.683595 105.865878 
L 359.229279 105.865878 
" clip-path="url(#pc1ae6a73c9)"/>
    <path d="M 367.624421 108.678766 
L 367.624421 116.303188 
L 368.715789 116.030345 
L 367.351579 118.758766 
L 365.987368 116.030345 
L 367.078737 116.303188 
L 367.078737 108.678766 
L 367.624421 108.678766 
" clip-path="url(#pc1ae6a73c9)"/>
    <path d="M 376.019563 105.865878 
L 376.019563 113.490299 
L 377.110931 113.217457 
L 375.746721 115.945878 
L 374.38251 113.217457 
L 375.473879 113.490299 
L 375.473879 105.865878 
L 376.019563 105.865878 
" clip-path="url(#pc1ae6a73c9)"/>
    <path d="M 384.414704 98.182263 
L 384.414704 105.806684 
L 385.506073 105.533842 
L 384.141862 108.262263 
L 382.777652 105.533842 
L 383.86902 105.806684 
L 383.86902 98.182263 
L 384.414704 98.182263 
" clip-path="url(#pc1ae6a73c9)"/>
    <path d="M 392.809846 87.139083 
L 392.809846 94.763504 
L 393.901215 94.490662 
L 392.537004 97.219083 
L 391.172794 94.490662 
L 392.264162 94.763504 
L 392.264162 87.139083 
L 392.809846 87.139083 
" clip-path="url(#pc1ae6a73c9)"/>
    <path d="M 401.204988 74.01117 
L 401.204988 81.635591 
L 402.296356 81.362749 
L 400.932146 84.09117 
L 399.567935 81.362749 
L 400.659304 81.635591 
L 400.659304 74.01117 
L 401.204988 74.01117 
" clip-path="url(#pc1ae6a73c9)"/>
    <path d="M 409.60013 59.607617 
L 409.60013 67.232038 
L 410.691498 66.959196 
L 409.327287 69.687617 
L 407.963077 66.959196 
L 409.054445 67.232038 
L 409.054445 59.607617 
L 409.60013 59.607617 
" clip-path="url(#pc1ae6a73c9)"/>
    <path d="M 325.648713 68.949473 
L 325.648713 76.573894 
L 326.740081 76.301052 
L 325.37587 79.029473 
L 324.01166 76.301052 
L 325.103028 76.573894 
L 325.103028 68.949473 
L 325.648713 68.949473 
" clip-path="url(#pc1ae6a73c9)"/>
    <path d="M 334.043854 81.885167 
L 334.043854 89.509588 
L 335.135223 89.236746 
L 333.771012 91.965167 
L 332.406802 89.236746 
L 333.49817 89.509588 
L 333.49817 81.885167 
L 334.043854 81.885167 
" clip-path="url(#pc1ae6a73c9)"/>
    <path d="M 342.438996 93.270946 
L 342.438996 100.895367 
L 343.530364 100.622525 
L 342.166154 103.350946 
L 340.801943 100.622525 
L 341.893312 100.895367 
L 341.893312 93.270946 
L 342.438996 93.270946 
" clip-path="url(#pc1ae6a73c9)"/>
    <path d="M 350.834138 102.420835 
L 350.834138 110.045256 
L 351.925506 109.772414 
L 350.561296 112.500835 
L 349.197085 109.772414 
L 350.288453 110.045256 
L 350.288453 102.420835 
L 350.834138 102.420835 
" clip-path="url(#pc1ae6a73c9)"/>
    <path d="M 359.229279 108.470856 
L 359.229279 116.095277 
L 360.320648 115.822435 
L 358.956437 118.550856 
L 357.592227 115.822435 
L 358.683595 116.095277 
L 358.683595 108.470856 
L 359.229279 108.470856 
" clip-path="url(#pc1ae6a73c9)"/>
    <path d="M 367.624421 110.604744 
L 367.624421 118.229165 
L 368.715789 117.956323 
L 367.351579 120.684744 
L 365.987368 117.956323 
L 367.078737 118.229165 
L 367.078737 110.604744 
L 367.624421 110.604744 
" clip-path="url(#pc1ae6a73c9)"/>
    <path d="M 376.019563 108.470856 
L 376.019563 116.095277 
L 377.110931 115.822435 
L 375.746721 118.550856 
L 374.38251 115.822435 
L 375.473879 116.095277 
L 375.473879 108.470856 
L 376.019563 108.470856 
" clip-path="url(#pc1ae6a73c9)"/>
    <path d="M 384.414704 102.420835 
L 384.414704 110.045256 
L 385.506073 109.772414 
L 384.141862 112.500835 
L 382.777652 109.772414 
L 383.86902 110.045256 
L 383.86902 102.420835 
L 384.414704 102.420835 
" clip-path="url(#pc1ae6a73c9)"/>
    <path d="M 392.809846 93.270946 
L 392.809846 100.895367 
L 393.901215 100.622525 
L 392.537004 103.350946 
L 391.172794 100.622525 
L 392.264162 100.895367 
L 392.264162 93.270946 
L 392.809846 93.270946 
" clip-path="url(#pc1ae6a73c9)"/>
    <path d="M 401.204988 81.885167 
L 401.204988 89.509588 
L 402.296356 89.236746 
L 400.932146 91.965167 
L 399.567935 89.236746 
L 400.659304 89.509588 
L 400.659304 81.885167 
L 401.204988 81.885167 
" clip-path="url(#pc1ae6a73c9)"/>
    <path d="M 409.60013 68.949473 
L 409.60013 76.573894 
L 410.691498 76.301052 
L 409.327287 79.029473 
L 407.963077 76.301052 
L 409.054445 76.573894 
L 409.054445 68.949473 
L 409.60013 68.949473 
" clip-path="url(#pc1ae6a73c9)"/>
    <path d="M 325.648713 76.63125 
L 325.648713 84.255671 
L 326.740081 83.982829 
L 325.37587 86.71125 
L 324.01166 83.982829 
L 325.103028 84.255671 
L 325.103028 76.63125 
L 325.648713 76.63125 
" clip-path="url(#pc1ae6a73c9)"/>
    <path d="M 334.043854 88.209249 
L 334.043854 95.83367 
L 335.135223 95.560828 
L 333.771012 98.289249 
L 332.406802 95.560828 
L 333.49817 95.83367 
L 333.49817 88.209249 
L 334.043854 88.209249 
" clip-path="url(#pc1ae6a73c9)"/>
    <path d="M 342.438996 98.127169 
L 342.438996 105.75159 
L 343.530364 105.478748 
L 342.166154 108.207169 
L 340.801943 105.478748 
L 341.893312 105.75159 
L 341.893312 98.127169 
L 342.438996 98.127169 
" clip-path="url(#pc1ae6a73c9)"/>
    <path d="M 350.834138 105.854353 
L 350.834138 113.478774 
L 351.925506 113.205932 
L 350.561296 115.934353 
L 349.197085 113.205932 
L 350.288453 113.478774 
L 350.288453 105.854353 
L 350.834138 105.854353 
" clip-path="url(#pc1ae6a73c9)"/>
    <path d="M 359.229279 110.814337 
L 359.229279 118.438758 
L 360.320648 118.165916 
L 358.956437 120.894337 
L 357.592227 118.165916 
L 358.683595 118.438758 
L 358.683595 110.814337 
L 359.229279 110.814337 
" clip-path="url(#pc1ae6a73c9)"/>
    <path d="M 367.624421 112.530722 
L 367.624421 120.155143 
L 368.715789 119.882301 
L 367.351579 122.610722 
L 365.987368 119.882301 
L 367.078737 120.155143 
L 367.078737 112.530722 
L 367.624421 112.530722 
" clip-path="url(#pc1ae6a73c9)"/>
    <path d="M 376.019563 110.814337 
L 376.019563 118.438758 
L 377.110931 118.165916 
L 375.746721 120.894337 
L 374.38251 118.165916 
L 375.473879 118.438758 
L 375.473879 110.814337 
L 376.019563 110.814337 
" clip-path="url(#pc1ae6a73c9)"/>
    <path d="M 384.414704 105.854353 
L 384.414704 113.478774 
L 385.506073 113.205932 
L 384.141862 115.934353 
L 382.777652 113.205932 
L 383.86902 113.478774 
L 383.86902 105.854353 
L 384.414704 105.854353 
" clip-path="url(#pc1ae6a73c9)"/>
    <path d="M 392.809846 98.127169 
L 392.809846 105.75159 
L 393.901215 105.478748 
L 392.537004 108.207169 
L 391.172794 105.478748 
L 392.264162 105.75159 
L 392.264162 98.127169 
L 392.809846 98.127169 
" clip-path="url(#pc1ae6a73c9)"/>
    <path d="M 401.204988 88.209249 
L 401.204988 95.83367 
L 402.296356 95.560828 
L 400.932146 98.289249 
L 399.567935 95.560828 
L 400.659304 95.83367 
L 400.659304 88.209249 
L 401.204988 88.209249 
" clip-path="url(#pc1ae6a73c9)"/>
    <path d="M 409.60013 76.63125 
L 409.60013 84.255671 
L 410.691498 83.982829 
L 409.327287 86.71125 
L 407.963077 83.982829 
L 409.054445 84.255671 
L 409.054445 76.63125 
L 409.60013 76.63125 
" clip-path="url(#pc1ae6a73c9)"/>
   </g>
   <g id="text_8">
    <!-- y' -->
    <g style="fill: #808080" transform="translate(417.722429 103.74413) scale(0.1 -0.1)">
     <use xlink:href="#DejaVuSans-79"/>
     <use xlink:href="#DejaVuSans-27" x="59.179688"/>
    </g>
   </g>
   <g id="text_9">
    <!-- z' -->
    <g style="fill: #808080" transform="translate(371.54915 15.595142) scale(0.1 -0.1)">
     <use xlink:href="#DejaVuSans-7a"/>
     <use xlink:href="#DejaVuSans-27" x="52.490234"/>
    </g>
   </g>
   <g id="text_10">
    <!-- scaled -->
    <g transform="translate(430.315142 86.953846) scale(0.1 -0.1)">
     <defs>
      <path id="DejaVuSans-73" d="M 2834 3397 
L 2834 2853 
Q 2591 2978 2328 3040 
Q 2066 3103 1784 3103 
Q 1356 3103 1142 2972 
Q 928 2841 928 2578 
Q 928 2378 1081 2264 
Q 1234 2150 1697 2047 
L 1894 2003 
Q 2506 1872 2764 1633 
Q 3022 1394 3022 966 
Q 3022 478 2636 193 
Q 2250 -91 1575 -91 
Q 1294 -91 989 -36 
Q 684 19 347 128 
L 347 722 
Q 666 556 975 473 
Q 1284 391 1588 391 
Q 1994 391 2212 530 
Q 2431 669 2431 922 
Q 2431 1156 2273 1281 
Q 2116 1406 1581 1522 
L 1381 1569 
Q 847 1681 609 1914 
Q 372 2147 372 2553 
Q 372 3047 722 3315 
Q 1072 3584 1716 3584 
Q 2034 3584 2315 3537 
Q 2597 3491 2834 3397 
z
" transform="scale(0.015625)"/>
      <path id="DejaVuSans-63" d="M 3122 3366 
L 3122 2828 
Q 2878 2963 2633 3030 
Q 2388 3097 2138 3097 
Q 1578 3097 1268 2742 
Q 959 2388 959 1747 
Q 959 1106 1268 751 
Q 1578 397 2138 397 
Q 2388 397 2633 464 
Q 2878 531 3122 666 
L 3122 134 
Q 2881 22 2623 -34 
Q 2366 -91 2075 -91 
Q 1284 -91 818 406 
Q 353 903 353 1747 
Q 353 2603 823 3093 
Q 1294 3584 2113 3584 
Q 2378 3584 2631 3529 
Q 2884 3475 3122 3366 
z
" transform="scale(0.015625)"/>
      <path id="DejaVuSans-6c" d="M 603 4863 
L 1178 4863 
L 1178 0 
L 603 0 
L 603 4863 
z
" transform="scale(0.015625)"/>
     </defs>
     <use xlink:href="#DejaVuSans-73"/>
     <use xlink:href="#DejaVuSans-63" x="52.099609"/>
     <use xlink:href="#DejaVuSans-61" x="107.080078"/>
     <use xlink:href="#DejaVuSans-6c" x="168.359375"/>
     <use xlink:href="#DejaVuSans-65" x="196.142578"/>
     <use xlink:href="#DejaVuSans-64" x="257.666016"/>
    </g>
   </g>
  </g>
 </g>
 <defs>
  <clipPath id="pd2aad7b598">
   <rect x="7.2" y="7.2" width="109.136842" height="201.483401"/>
  </clipPath>
  <clipPath id="p1b008ed132">
   <rect x="159.991579" y="7.2" width="109.136842" height="201.483401"/>
  </clipPath>
  <clipPath id="pc1ae6a73c9">
   <rect x="312.783158" y="7.2" width="109.136842" height="201.483401"/>
  </clipPath>
 </defs>
</svg>
