<?xml version="1.0" encoding="utf-8" standalone="no"?>
<!DOCTYPE svg PUBLIC "-//W3C//DTD SVG 1.1//EN"
  "http://www.w3.org/Graphics/SVG/1.1/DTD/svg11.dtd">
<svg xmlns:xlink="http://www.w3.org/1999/xlink" width="196.258967pt" height="280.512pt" viewBox="0 0 196.258967 280.512" xmlns="http://www.w3.org/2000/svg" version="1.1">
 <metadata>
  <rdf:RDF xmlns:dc="http://purl.org/dc/elements/1.1/" xmlns:cc="http://creativecommons.org/ns#" xmlns:rdf="http://www.w3.org/1999/02/22-rdf-syntax-ns#">
   <cc:Work>
    <dc:type rdf:resource="http://purl.org/dc/dcmitype/StillImage"/>
    <dc:date>2024-07-10T12:40:31.439113</dc:date>
    <dc:format>image/svg+xml</dc:format>
    <dc:creator>
     <cc:Agent>
      <dc:title>Matplotlib v3.9.0, https://matplotlib.org/</dc:title>
     </cc:Agent>
    </dc:creator>
   </cc:Work>
  </rdf:RDF>
 </metadata>
 <defs>
  <style type="text/css">*{stroke-linejoin: round; stroke-linecap: butt}</style>
 </defs>
 <g id="figure_1">
  <g id="axes_1">
   <g id="patch_1">
    <path d="M 181.680548 106.209871 
L 177.991338 108.607857 
L 180.573785 106.211716 
L 7.2 106.211716 
L 7.2 106.208027 
L 180.573785 106.208027 
L 177.991338 103.811885 
z
" clip-path="url(#p10d0d5a00d)" style="fill: #1f77b4; stroke: #808080; stroke-linejoin: miter"/>
   </g>
   <g id="patch_2">
    <path d="M 98.129484 14.578419 
L 100.52747 18.267629 
L 98.131328 15.685182 
L 98.131328 205.219742 
L 98.127639 205.219742 
L 98.127639 15.685182 
L 95.731497 18.267629 
z
" clip-path="url(#p10d0d5a00d)" style="fill: #1f77b4; stroke: #808080; stroke-linejoin: miter"/>
   </g>
   <g id="PathCollection_1">
    <defs>
     <path id="mebb7426736" d="M 0 2.236068 
C 0.593012 2.236068 1.161816 2.000462 1.581139 1.581139 
C 2.000462 1.161816 2.236068 0.593012 2.236068 0 
C 2.236068 -0.593012 2.000462 -1.161816 1.581139 -1.581139 
C 1.161816 -2.000462 0.593012 -2.236068 0 -2.236068 
C -0.593012 -2.236068 -1.161816 -2.000462 -1.581139 -1.581139 
C -2.000462 -1.161816 -2.236068 -0.593012 -2.236068 0 
C -2.236068 0.593012 -2.000462 1.161816 -1.581139 1.581139 
C -1.161816 2.000462 -0.593012 2.236068 0 2.236068 
z
" style="stroke: #808080; stroke-opacity: 0.4"/>
    </defs>
    <g clip-path="url(#p10d0d5a00d)">
     <use xlink:href="#mebb7426736" x="98.129484" y="182.382516" style="fill: #808080; fill-opacity: 0.4; stroke: #808080; stroke-opacity: 0.4"/>
    </g>
   </g>
   <g id="PathCollection_2">
    <defs>
     <path id="mf4847da770" d="M 0 2.236068 
C 0.593012 2.236068 1.161816 2.000462 1.581139 1.581139 
C 2.000462 1.161816 2.236068 0.593012 2.236068 0 
C 2.236068 -0.593012 2.000462 -1.161816 1.581139 -1.581139 
C 1.161816 -2.000462 0.593012 -2.236068 0 -2.236068 
C -0.593012 -2.236068 -1.161816 -2.000462 -1.581139 -1.581139 
C -2.000462 -1.161816 -2.236068 -0.593012 -2.236068 0 
C -2.236068 0.593012 -2.000462 1.161816 -1.581139 1.581139 
C -1.161816 2.000462 -0.593012 2.236068 0 2.236068 
z
" style="stroke: #000000"/>
    </defs>
    <g clip-path="url(#p10d0d5a00d)">
     <use xlink:href="#mf4847da770" x="98.129484" y="106.209871" style="stroke: #000000"/>
    </g>
   </g>
   <g id="Quiver_1">
    <path d="M 101.071616 26.985699 
L 101.202483 20.998956 
L 99.374392 21.413751 
L 101.746446 16.918042 
L 103.91978 21.51311 
L 102.111561 21.018828 
L 101.980694 27.005571 
L 101.071616 26.985699 
" clip-path="url(#p10d0d5a00d)" style="fill: #0ca7ef"/>
    <path d="M 107.737401 30.001047 
L 108.132012 24.02589 
L 106.287415 24.359707 
L 108.855316 19.972918 
L 110.824006 24.659312 
L 109.03933 24.085811 
L 108.64472 30.060968 
L 107.737401 30.001047 
" clip-path="url(#p10d0d5a00d)" style="fill: #0ca7ef"/>
    <path d="M 114.023304 35.940574 
L 114.687797 29.989384 
L 112.829988 30.239419 
L 115.593697 25.973279 
L 117.348383 30.74393 
L 115.591476 30.090286 
L 114.926983 36.041476 
L 114.023304 35.940574 
" clip-path="url(#p10d0d5a00d)" style="fill: #0ca7ef"/>
    <path d="M 119.69036 44.586368 
L 120.635343 38.673228 
L 118.767794 38.83519 
L 121.730017 34.70442 
L 123.257299 39.552661 
L 121.533244 38.816722 
L 120.588261 44.729862 
L 119.69036 44.586368 
" clip-path="url(#p10d0d5a00d)" style="fill: #09a9ee"/>
    <path d="M 124.521273 55.621221 
L 125.762419 49.763083 
L 123.889088 49.830926 
L 127.055291 45.854345 
L 128.336833 50.773256 
L 126.651968 49.951549 
L 125.410822 55.809687 
L 124.521273 55.621221 
" clip-path="url(#p10d0d5a00d)" style="fill: #09a9ee"/>
    <path d="M 128.327897 68.639579 
L 129.886852 62.857895 
L 128.01261 62.823415 
L 131.391085 59.025528 
L 132.402309 64.00704 
L 130.764792 63.09462 
L 129.205837 68.876304 
L 128.327897 68.639579 
" clip-path="url(#p10d0d5a00d)" style="fill: #09a9ee"/>
    <path d="M 130.957609 83.161344 
L 132.86328 77.484493 
L 130.994551 77.336757 
L 134.596469 73.750085 
L 135.304656 78.783623 
L 133.725301 77.773866 
L 131.81963 83.450717 
L 130.957609 83.161344 
" clip-path="url(#p10d0d5a00d)" style="fill: #08acee"/>
    <path d="M 132.298364 98.647794 
L 134.588634 93.114903 
L 132.734426 92.839436 
L 136.573698 89.508067 
L 136.93523 94.578306 
L 135.428795 93.462677 
L 133.138525 98.995568 
L 132.298364 98.647794 
" clip-path="url(#p10d0d5a00d)" style="fill: #08acee"/>
    <path d="M 132.282331 114.518616 
L 135.006206 109.185819 
L 133.179843 108.763475 
L 137.272366 105.74863 
L 137.228729 110.831556 
L 135.815983 109.599435 
L 133.092108 114.932232 
L 132.282331 114.518616 
" clip-path="url(#p10d0d5a00d)" style="fill: #06aeed"/>
    <path d="M 130.88835 130.168601 
L 134.108142 125.119724 
L 132.330354 124.525215 
L 136.691617 121.914196 
L 136.163674 126.969818 
L 134.874806 125.608645 
L 131.655014 130.657521 
L 130.88835 130.168601 
" clip-path="url(#p10d0d5a00d)" style="fill: #01b3ec"/>
    <path d="M 128.144225 144.981803 
L 131.936282 140.34731 
L 130.240892 139.547545 
L 134.879333 137.468387 
L 133.759595 142.426634 
L 132.640023 140.923128 
L 128.847966 145.557621 
L 128.144225 144.981803 
" clip-path="url(#p10d0d5a00d)" style="fill: #02b7eb"/>
    <path d="M 124.132365 158.339791 
L 128.580945 154.331255 
L 127.02581 153.28458 
L 131.925085 151.929906 
L 130.06926 156.66213 
L 129.189635 155.006765 
L 124.741055 159.015301 
L 124.132365 158.339791 
" clip-path="url(#p10d0d5a00d)" style="fill: #0ac0e8"/>
    <path d="M 119.00968 169.619898 
L 124.176146 166.592383 
L 122.864439 165.253205 
L 127.936347 164.915887 
L 125.163057 169.175804 
L 124.63587 167.376903 
L 119.469404 170.404418 
L 119.00968 169.619898 
" clip-path="url(#p10d0d5a00d)" style="fill: #18cde4"/>
    <path d="M 113.074545 178.188376 
L 118.884903 176.739941 
L 118.003871 175.085325 
L 122.965196 176.191346 
L 119.103584 179.496794 
L 119.104845 177.622235 
L 113.294488 179.07067 
L 113.074545 178.188376 
" clip-path="url(#p10d0d5a00d)" style="fill: #37e6d8"/>
    <path d="M 106.954845 183.466329 
L 112.853272 184.499182 
L 112.719112 182.62943 
L 116.805354 185.652782 
L 111.934927 187.107764 
L 112.696435 185.394849 
L 106.798008 184.361996 
L 106.954845 183.466329 
" clip-path="url(#p10d0d5a00d)" style="fill: #88ffaf"/>
    <path d="M 101.855716 185.442498 
L 106.104494 189.662227 
L 107.063427 188.051507 
L 108.687381 192.868228 
L 103.859631 191.277358 
L 105.463735 190.307397 
L 101.214957 186.087669 
L 101.855716 185.442498 
" clip-path="url(#p10d0d5a00d)" style="fill: #ff0000"/>
    <path d="M 98.584131 185.806144 
L 98.584131 191.794317 
L 100.402721 191.33967 
L 98.129484 195.886144 
L 95.856246 191.33967 
L 97.674836 191.794317 
L 97.674836 185.806144 
L 98.584131 185.806144 
" clip-path="url(#p10d0d5a00d)" style="fill: #ff0000"/>
    <path d="M 95.04401 186.087669 
L 90.795233 190.307397 
L 92.399336 191.277358 
L 87.571587 192.868228 
L 89.19554 188.051507 
L 90.154473 189.662227 
L 94.403251 185.442498 
L 95.04401 186.087669 
" clip-path="url(#p10d0d5a00d)" style="fill: #ff0000"/>
    <path d="M 89.460959 184.361996 
L 83.562533 185.394849 
L 84.32404 187.107764 
L 79.453613 185.652782 
L 83.539855 182.62943 
L 83.405695 184.499182 
L 89.304122 183.466329 
L 89.460959 184.361996 
" clip-path="url(#p10d0d5a00d)" style="fill: #88ffaf"/>
    <path d="M 82.964479 179.07067 
L 77.154122 177.622235 
L 77.155383 179.496794 
L 73.293771 176.191346 
L 78.255096 175.085325 
L 77.374064 176.739941 
L 83.184422 178.188376 
L 82.964479 179.07067 
" clip-path="url(#p10d0d5a00d)" style="fill: #37e6d8"/>
    <path d="M 76.789563 170.404418 
L 71.623097 167.376903 
L 71.09591 169.175804 
L 68.32262 164.915887 
L 73.394528 165.253205 
L 72.082821 166.592383 
L 77.249287 169.619898 
L 76.789563 170.404418 
" clip-path="url(#p10d0d5a00d)" style="fill: #18cde4"/>
    <path d="M 71.517912 159.015301 
L 67.069332 155.006765 
L 66.189707 156.66213 
L 64.333882 151.929906 
L 69.233157 153.28458 
L 67.678022 154.331255 
L 72.126602 158.339791 
L 71.517912 159.015301 
" clip-path="url(#p10d0d5a00d)" style="fill: #0ac0e8"/>
    <path d="M 67.411001 145.557621 
L 63.618945 140.923128 
L 62.499372 142.426634 
L 61.379634 137.468387 
L 66.018075 139.547545 
L 64.322685 140.34731 
L 68.114742 144.981803 
L 67.411001 145.557621 
" clip-path="url(#p10d0d5a00d)" style="fill: #02b7eb"/>
    <path d="M 64.603953 130.657521 
L 61.384161 125.608645 
L 60.095293 126.969818 
L 59.567351 121.914196 
L 63.928613 124.525215 
L 62.150825 125.119724 
L 65.370618 130.168601 
L 64.603953 130.657521 
" clip-path="url(#p10d0d5a00d)" style="fill: #01b3ec"/>
    <path d="M 63.166859 114.932232 
L 60.442985 109.599435 
L 59.030238 110.831556 
L 58.986601 105.74863 
L 63.079124 108.763475 
L 61.252762 109.185819 
L 63.976636 114.518616 
L 63.166859 114.932232 
" clip-path="url(#p10d0d5a00d)" style="fill: #06aeed"/>
    <path d="M 63.120443 98.995568 
L 60.830172 93.462677 
L 59.323737 94.578306 
L 59.685269 89.508067 
L 63.524542 92.839436 
L 61.670333 93.114903 
L 63.960603 98.647794 
L 63.120443 98.995568 
" clip-path="url(#p10d0d5a00d)" style="fill: #08acee"/>
    <path d="M 64.439337 83.450717 
L 62.533666 77.773866 
L 60.954311 78.783623 
L 61.662498 73.750085 
L 65.264416 77.336757 
L 63.395688 77.484493 
L 65.301358 83.161344 
L 64.439337 83.450717 
" clip-path="url(#p10d0d5a00d)" style="fill: #08acee"/>
    <path d="M 67.053131 68.876304 
L 65.494175 63.09462 
L 63.856658 64.00704 
L 64.867882 59.025528 
L 68.246357 62.823415 
L 66.372115 62.857895 
L 67.93107 68.639579 
L 67.053131 68.876304 
" clip-path="url(#p10d0d5a00d)" style="fill: #09a9ee"/>
    <path d="M 70.848145 55.809687 
L 69.606999 49.951549 
L 67.922134 50.773256 
L 69.203676 45.854345 
L 72.369879 49.830926 
L 70.496548 49.763083 
L 71.737694 55.621221 
L 70.848145 55.809687 
" clip-path="url(#p10d0d5a00d)" style="fill: #09a9ee"/>
    <path d="M 75.670706 44.729862 
L 74.725723 38.816722 
L 73.001668 39.552661 
L 74.52895 34.70442 
L 77.491174 38.83519 
L 75.623624 38.673228 
L 76.568607 44.586368 
L 75.670706 44.729862 
" clip-path="url(#p10d0d5a00d)" style="fill: #09a9ee"/>
    <path d="M 81.331984 36.041476 
L 80.667491 30.090286 
L 78.910584 30.74393 
L 80.66527 25.973279 
L 83.428979 30.239419 
L 81.57117 29.989384 
L 82.235663 35.940574 
L 81.331984 36.041476 
" clip-path="url(#p10d0d5a00d)" style="fill: #0ca7ef"/>
    <path d="M 87.614247 30.060968 
L 87.219637 24.085811 
L 85.434961 24.659312 
L 87.403652 19.972918 
L 89.971552 24.359707 
L 88.126955 24.02589 
L 88.521566 30.001047 
L 87.614247 30.060968 
" clip-path="url(#p10d0d5a00d)" style="fill: #0ca7ef"/>
    <path d="M 94.278273 27.005571 
L 94.147406 21.018828 
L 92.339187 21.51311 
L 94.512522 16.918042 
L 96.884575 21.413751 
L 95.056484 20.998956 
L 95.187351 26.985699 
L 94.278273 27.005571 
" clip-path="url(#p10d0d5a00d)" style="fill: #0ca7ef"/>
   </g>
   <g id="PathCollection_3">
    <g clip-path="url(#p10d0d5a00d)">
     <use xlink:href="#mebb7426736" x="98.129484" y="182.382516" style="fill: #808080; fill-opacity: 0.4; stroke: #808080; stroke-opacity: 0.4"/>
    </g>
   </g>
   <g id="PathCollection_4">
    <g clip-path="url(#p10d0d5a00d)">
     <use xlink:href="#mf4847da770" x="98.129484" y="106.209871" style="stroke: #000000"/>
    </g>
   </g>
   <g id="Quiver_2">
    <path d="M 101.071616 26.985699 
L 101.202483 20.998956 
L 99.374392 21.413751 
L 101.746446 16.918042 
L 103.91978 21.51311 
L 102.111561 21.018828 
L 101.980694 27.005571 
L 101.071616 26.985699 
" clip-path="url(#p10d0d5a00d)" style="fill: #0ca7ef"/>
    <path d="M 107.737401 30.001047 
L 108.132012 24.02589 
L 106.287415 24.359707 
L 108.855316 19.972918 
L 110.824006 24.659312 
L 109.03933 24.085811 
L 108.64472 30.060968 
L 107.737401 30.001047 
" clip-path="url(#p10d0d5a00d)" style="fill: #0ca7ef"/>
    <path d="M 114.023304 35.940574 
L 114.687797 29.989384 
L 112.829988 30.239419 
L 115.593697 25.973279 
L 117.348383 30.74393 
L 115.591476 30.090286 
L 114.926983 36.041476 
L 114.023304 35.940574 
" clip-path="url(#p10d0d5a00d)" style="fill: #0ca7ef"/>
    <path d="M 119.69036 44.586368 
L 120.635343 38.673228 
L 118.767794 38.83519 
L 121.730017 34.70442 
L 123.257299 39.552661 
L 121.533244 38.816722 
L 120.588261 44.729862 
L 119.69036 44.586368 
" clip-path="url(#p10d0d5a00d)" style="fill: #09a9ee"/>
    <path d="M 124.521273 55.621221 
L 125.762419 49.763083 
L 123.889088 49.830926 
L 127.055291 45.854345 
L 128.336833 50.773256 
L 126.651968 49.951549 
L 125.410822 55.809687 
L 124.521273 55.621221 
" clip-path="url(#p10d0d5a00d)" style="fill: #09a9ee"/>
    <path d="M 128.327897 68.639579 
L 129.886852 62.857895 
L 128.01261 62.823415 
L 131.391085 59.025528 
L 132.402309 64.00704 
L 130.764792 63.09462 
L 129.205837 68.876304 
L 128.327897 68.639579 
" clip-path="url(#p10d0d5a00d)" style="fill: #09a9ee"/>
    <path d="M 130.957609 83.161344 
L 132.86328 77.484493 
L 130.994551 77.336757 
L 134.596469 73.750085 
L 135.304656 78.783623 
L 133.725301 77.773866 
L 131.81963 83.450717 
L 130.957609 83.161344 
" clip-path="url(#p10d0d5a00d)" style="fill: #08acee"/>
    <path d="M 132.298364 98.647794 
L 134.588634 93.114903 
L 132.734426 92.839436 
L 136.573698 89.508067 
L 136.93523 94.578306 
L 135.428795 93.462677 
L 133.138525 98.995568 
L 132.298364 98.647794 
" clip-path="url(#p10d0d5a00d)" style="fill: #08acee"/>
    <path d="M 132.282331 114.518616 
L 135.006206 109.185819 
L 133.179843 108.763475 
L 137.272366 105.74863 
L 137.228729 110.831556 
L 135.815983 109.599435 
L 133.092108 114.932232 
L 132.282331 114.518616 
" clip-path="url(#p10d0d5a00d)" style="fill: #06aeed"/>
    <path d="M 130.88835 130.168601 
L 134.108142 125.119724 
L 132.330354 124.525215 
L 136.691617 121.914196 
L 136.163674 126.969818 
L 134.874806 125.608645 
L 131.655014 130.657521 
L 130.88835 130.168601 
" clip-path="url(#p10d0d5a00d)" style="fill: #01b3ec"/>
    <path d="M 128.144225 144.981803 
L 131.936282 140.34731 
L 130.240892 139.547545 
L 134.879333 137.468387 
L 133.759595 142.426634 
L 132.640023 140.923128 
L 128.847966 145.557621 
L 128.144225 144.981803 
" clip-path="url(#p10d0d5a00d)" style="fill: #02b7eb"/>
    <path d="M 124.132365 158.339791 
L 128.580945 154.331255 
L 127.02581 153.28458 
L 131.925085 151.929906 
L 130.06926 156.66213 
L 129.189635 155.006765 
L 124.741055 159.015301 
L 124.132365 158.339791 
" clip-path="url(#p10d0d5a00d)" style="fill: #0ac0e8"/>
    <path d="M 119.00968 169.619898 
L 124.176146 166.592383 
L 122.864439 165.253205 
L 127.936347 164.915887 
L 125.163057 169.175804 
L 124.63587 167.376903 
L 119.469404 170.404418 
L 119.00968 169.619898 
" clip-path="url(#p10d0d5a00d)" style="fill: #18cde4"/>
    <path d="M 113.074545 178.188376 
L 118.884903 176.739941 
L 118.003871 175.085325 
L 122.965196 176.191346 
L 119.103584 179.496794 
L 119.104845 177.622235 
L 113.294488 179.07067 
L 113.074545 178.188376 
" clip-path="url(#p10d0d5a00d)" style="fill: #37e6d8"/>
    <path d="M 106.954845 183.466329 
L 112.853272 184.499182 
L 112.719112 182.62943 
L 116.805354 185.652782 
L 111.934927 187.107764 
L 112.696435 185.394849 
L 106.798008 184.361996 
L 106.954845 183.466329 
" clip-path="url(#p10d0d5a00d)" style="fill: #88ffaf"/>
    <path d="M 101.855716 185.442498 
L 106.104494 189.662227 
L 107.063427 188.051507 
L 108.687381 192.868228 
L 103.859631 191.277358 
L 105.463735 190.307397 
L 101.214957 186.087669 
L 101.855716 185.442498 
" clip-path="url(#p10d0d5a00d)" style="fill: #ff0000"/>
    <path d="M 98.584131 185.806144 
L 98.584131 191.794317 
L 100.402721 191.33967 
L 98.129484 195.886144 
L 95.856246 191.33967 
L 97.674836 191.794317 
L 97.674836 185.806144 
L 98.584131 185.806144 
" clip-path="url(#p10d0d5a00d)" style="fill: #ff0000"/>
    <path d="M 95.04401 186.087669 
L 90.795233 190.307397 
L 92.399336 191.277358 
L 87.571587 192.868228 
L 89.19554 188.051507 
L 90.154473 189.662227 
L 94.403251 185.442498 
L 95.04401 186.087669 
" clip-path="url(#p10d0d5a00d)" style="fill: #ff0000"/>
    <path d="M 89.460959 184.361996 
L 83.562533 185.394849 
L 84.32404 187.107764 
L 79.453613 185.652782 
L 83.539855 182.62943 
L 83.405695 184.499182 
L 89.304122 183.466329 
L 89.460959 184.361996 
" clip-path="url(#p10d0d5a00d)" style="fill: #88ffaf"/>
    <path d="M 82.964479 179.07067 
L 77.154122 177.622235 
L 77.155383 179.496794 
L 73.293771 176.191346 
L 78.255096 175.085325 
L 77.374064 176.739941 
L 83.184422 178.188376 
L 82.964479 179.07067 
" clip-path="url(#p10d0d5a00d)" style="fill: #37e6d8"/>
    <path d="M 76.789563 170.404418 
L 71.623097 167.376903 
L 71.09591 169.175804 
L 68.32262 164.915887 
L 73.394528 165.253205 
L 72.082821 166.592383 
L 77.249287 169.619898 
L 76.789563 170.404418 
" clip-path="url(#p10d0d5a00d)" style="fill: #18cde4"/>
    <path d="M 71.517912 159.015301 
L 67.069332 155.006765 
L 66.189707 156.66213 
L 64.333882 151.929906 
L 69.233157 153.28458 
L 67.678022 154.331255 
L 72.126602 158.339791 
L 71.517912 159.015301 
" clip-path="url(#p10d0d5a00d)" style="fill: #0ac0e8"/>
    <path d="M 67.411001 145.557621 
L 63.618945 140.923128 
L 62.499372 142.426634 
L 61.379634 137.468387 
L 66.018075 139.547545 
L 64.322685 140.34731 
L 68.114742 144.981803 
L 67.411001 145.557621 
" clip-path="url(#p10d0d5a00d)" style="fill: #02b7eb"/>
    <path d="M 64.603953 130.657521 
L 61.384161 125.608645 
L 60.095293 126.969818 
L 59.567351 121.914196 
L 63.928613 124.525215 
L 62.150825 125.119724 
L 65.370618 130.168601 
L 64.603953 130.657521 
" clip-path="url(#p10d0d5a00d)" style="fill: #01b3ec"/>
    <path d="M 63.166859 114.932232 
L 60.442985 109.599435 
L 59.030238 110.831556 
L 58.986601 105.74863 
L 63.079124 108.763475 
L 61.252762 109.185819 
L 63.976636 114.518616 
L 63.166859 114.932232 
" clip-path="url(#p10d0d5a00d)" style="fill: #06aeed"/>
    <path d="M 63.120443 98.995568 
L 60.830172 93.462677 
L 59.323737 94.578306 
L 59.685269 89.508067 
L 63.524542 92.839436 
L 61.670333 93.114903 
L 63.960603 98.647794 
L 63.120443 98.995568 
" clip-path="url(#p10d0d5a00d)" style="fill: #08acee"/>
    <path d="M 64.439337 83.450717 
L 62.533666 77.773866 
L 60.954311 78.783623 
L 61.662498 73.750085 
L 65.264416 77.336757 
L 63.395688 77.484493 
L 65.301358 83.161344 
L 64.439337 83.450717 
" clip-path="url(#p10d0d5a00d)" style="fill: #08acee"/>
    <path d="M 67.053131 68.876304 
L 65.494175 63.09462 
L 63.856658 64.00704 
L 64.867882 59.025528 
L 68.246357 62.823415 
L 66.372115 62.857895 
L 67.93107 68.639579 
L 67.053131 68.876304 
" clip-path="url(#p10d0d5a00d)" style="fill: #09a9ee"/>
    <path d="M 70.848145 55.809687 
L 69.606999 49.951549 
L 67.922134 50.773256 
L 69.203676 45.854345 
L 72.369879 49.830926 
L 70.496548 49.763083 
L 71.737694 55.621221 
L 70.848145 55.809687 
" clip-path="url(#p10d0d5a00d)" style="fill: #09a9ee"/>
    <path d="M 75.670706 44.729862 
L 74.725723 38.816722 
L 73.001668 39.552661 
L 74.52895 34.70442 
L 77.491174 38.83519 
L 75.623624 38.673228 
L 76.568607 44.586368 
L 75.670706 44.729862 
" clip-path="url(#p10d0d5a00d)" style="fill: #09a9ee"/>
    <path d="M 81.331984 36.041476 
L 80.667491 30.090286 
L 78.910584 30.74393 
L 80.66527 25.973279 
L 83.428979 30.239419 
L 81.57117 29.989384 
L 82.235663 35.940574 
L 81.331984 36.041476 
" clip-path="url(#p10d0d5a00d)" style="fill: #0ca7ef"/>
    <path d="M 87.614247 30.060968 
L 87.219637 24.085811 
L 85.434961 24.659312 
L 87.403652 19.972918 
L 89.971552 24.359707 
L 88.126955 24.02589 
L 88.521566 30.001047 
L 87.614247 30.060968 
" clip-path="url(#p10d0d5a00d)" style="fill: #0ca7ef"/>
    <path d="M 94.278273 27.005571 
L 94.147406 21.018828 
L 92.339187 21.51311 
L 94.512522 16.918042 
L 96.884575 21.413751 
L 95.056484 20.998956 
L 95.187351 26.985699 
L 94.278273 27.005571 
" clip-path="url(#p10d0d5a00d)" style="fill: #0ca7ef"/>
   </g>
   <g id="text_1">
    <!-- y' -->
    <g style="fill: #808080" transform="translate(166.92371 98.831452) scale(0.1 -0.1)">
     <defs>
      <path id="DejaVuSans-79" d="M 2059 -325 
Q 1816 -950 1584 -1140 
Q 1353 -1331 966 -1331 
L 506 -1331 
L 506 -850 
L 844 -850 
Q 1081 -850 1212 -737 
Q 1344 -625 1503 -206 
L 1606 56 
L 191 3500 
L 800 3500 
L 1894 763 
L 2988 3500 
L 3597 3500 
L 2059 -325 
z
" transform="scale(0.015625)"/>
      <path id="DejaVuSans-27" d="M 1147 4666 
L 1147 2931 
L 616 2931 
L 616 4666 
L 1147 4666 
z
" transform="scale(0.015625)"/>
     </defs>
     <use xlink:href="#DejaVuSans-79"/>
     <use xlink:href="#DejaVuSans-27" x="59.179688"/>
    </g>
   </g>
   <g id="text_2">
    <!-- z' -->
    <g style="fill: #808080" transform="translate(87.061855 29.335258) scale(0.1 -0.1)">
     <defs>
      <path id="DejaVuSans-7a" d="M 353 3500 
L 3084 3500 
L 3084 2975 
L 922 459 
L 3084 459 
L 3084 0 
L 275 0 
L 275 525 
L 2438 3041 
L 353 3041 
L 353 3500 
z
" transform="scale(0.015625)"/>
     </defs>
     <use xlink:href="#DejaVuSans-7a"/>
     <use xlink:href="#DejaVuSans-27" x="52.490234"/>
    </g>
   </g>
   <g id="text_3">
    <!-- t' = $- \gamma \frac{vz}{c^2}$ -->
    <g style="fill: #808080" transform="translate(128.439311 30.435302) scale(0.1 -0.1)">
     <defs>
      <path id="DejaVuSans-74" d="M 1172 4494 
L 1172 3500 
L 2356 3500 
L 2356 3053 
L 1172 3053 
L 1172 1153 
Q 1172 725 1289 603 
Q 1406 481 1766 481 
L 2356 481 
L 2356 0 
L 1766 0 
Q 1100 0 847 248 
Q 594 497 594 1153 
L 594 3053 
L 172 3053 
L 172 3500 
L 594 3500 
L 594 4494 
L 1172 4494 
z
" transform="scale(0.015625)"/>
      <path id="DejaVuSans-20" transform="scale(0.015625)"/>
      <path id="DejaVuSans-3d" d="M 678 2906 
L 4684 2906 
L 4684 2381 
L 678 2381 
L 678 2906 
z
M 678 1631 
L 4684 1631 
L 4684 1100 
L 678 1100 
L 678 1631 
z
" transform="scale(0.015625)"/>
      <path id="DejaVuSans-2212" d="M 678 2272 
L 4684 2272 
L 4684 1741 
L 678 1741 
L 678 2272 
z
" transform="scale(0.015625)"/>
      <path id="DejaVuSans-Oblique-3b3" d="M 1491 2950 
L 1838 788 
L 3456 3500 
L 4066 3500 
L 1972 0 
L 1713 -1331 
L 1138 -1331 
L 1397 0 
L 988 2613 
Q 925 3006 628 3006 
L 475 3006 
L 569 3500 
L 788 3500 
Q 1403 3500 1491 2950 
z
" transform="scale(0.015625)"/>
      <path id="DejaVuSans-Oblique-76" d="M 459 3500 
L 1069 3500 
L 1581 525 
L 3256 3500 
L 3866 3500 
L 1875 0 
L 1100 0 
L 459 3500 
z
" transform="scale(0.015625)"/>
      <path id="DejaVuSans-Oblique-7a" d="M 744 3500 
L 3475 3500 
L 3372 2975 
L 738 459 
L 2913 459 
L 2822 0 
L -19 0 
L 84 525 
L 2719 3041 
L 653 3041 
L 744 3500 
z
" transform="scale(0.015625)"/>
      <path id="DejaVuSans-Oblique-63" d="M 3431 3366 
L 3316 2797 
Q 3109 2947 2876 3022 
Q 2644 3097 2394 3097 
Q 2119 3097 1870 3000 
Q 1622 2903 1453 2725 
Q 1184 2453 1037 2087 
Q 891 1722 891 1331 
Q 891 859 1127 628 
Q 1363 397 1844 397 
Q 2081 397 2348 469 
Q 2616 541 2906 684 
L 2797 116 
Q 2547 13 2283 -39 
Q 2019 -91 1741 -91 
Q 1044 -91 669 257 
Q 294 606 294 1253 
Q 294 1797 489 2255 
Q 684 2713 1069 3078 
Q 1331 3328 1684 3456 
Q 2038 3584 2456 3584 
Q 2700 3584 2940 3529 
Q 3181 3475 3431 3366 
z
" transform="scale(0.015625)"/>
      <path id="DejaVuSans-32" d="M 1228 531 
L 3431 531 
L 3431 0 
L 469 0 
L 469 531 
Q 828 903 1448 1529 
Q 2069 2156 2228 2338 
Q 2531 2678 2651 2914 
Q 2772 3150 2772 3378 
Q 2772 3750 2511 3984 
Q 2250 4219 1831 4219 
Q 1534 4219 1204 4116 
Q 875 4013 500 3803 
L 500 4441 
Q 881 4594 1212 4672 
Q 1544 4750 1819 4750 
Q 2544 4750 2975 4387 
Q 3406 4025 3406 3419 
Q 3406 3131 3298 2873 
Q 3191 2616 2906 2266 
Q 2828 2175 2409 1742 
Q 1991 1309 1228 531 
z
" transform="scale(0.015625)"/>
     </defs>
     <use xlink:href="#DejaVuSans-74" transform="translate(0 0.921875)"/>
     <use xlink:href="#DejaVuSans-27" transform="translate(39.208984 0.921875)"/>
     <use xlink:href="#DejaVuSans-20" transform="translate(66.699219 0.921875)"/>
     <use xlink:href="#DejaVuSans-3d" transform="translate(98.486328 0.921875)"/>
     <use xlink:href="#DejaVuSans-20" transform="translate(182.275391 0.921875)"/>
     <use xlink:href="#DejaVuSans-2212" transform="translate(214.0625 0.921875)"/>
     <use xlink:href="#DejaVuSans-Oblique-3b3" transform="translate(297.851562 0.921875)"/>
     <use xlink:href="#DejaVuSans-Oblique-76" transform="translate(357.03125 44.71875) scale(0.7)"/>
     <use xlink:href="#DejaVuSans-Oblique-7a" transform="translate(398.457031 44.71875) scale(0.7)"/>
     <use xlink:href="#DejaVuSans-Oblique-63" transform="translate(359.03125 -49.695312) scale(0.7)"/>
     <use xlink:href="#DejaVuSans-32" transform="translate(400.772505 -22.898438) scale(0.49)"/>
     <path d="M 357.03125 19.71875 
L 357.03125 25.96875 
L 435.200195 25.96875 
L 435.200195 19.71875 
L 357.03125 19.71875 
z
"/>
    </g>
   </g>
  </g>
 </g>
 <defs>
  <clipPath id="p10d0d5a00d">
   <rect x="7.2" y="7.2" width="181.858967" height="266.112"/>
  </clipPath>
 </defs>
</svg>
