<?xml version="1.0" encoding="utf-8" standalone="no"?>
<!DOCTYPE svg PUBLIC "-//W3C//DTD SVG 1.1//EN"
  "http://www.w3.org/Graphics/SVG/1.1/DTD/svg11.dtd">
<svg xmlns:xlink="http://www.w3.org/1999/xlink" width="186.704104pt" height="280.512pt" viewBox="0 0 186.704104 280.512" xmlns="http://www.w3.org/2000/svg" version="1.1">
 <metadata>
  <rdf:RDF xmlns:dc="http://purl.org/dc/elements/1.1/" xmlns:cc="http://creativecommons.org/ns#" xmlns:rdf="http://www.w3.org/1999/02/22-rdf-syntax-ns#">
   <cc:Work>
    <dc:type rdf:resource="http://purl.org/dc/dcmitype/StillImage"/>
    <dc:date>2024-02-25T23:24:30.002378</dc:date>
    <dc:format>image/svg+xml</dc:format>
    <dc:creator>
     <cc:Agent>
      <dc:title>Matplotlib v3.8.2, https://matplotlib.org/</dc:title>
     </cc:Agent>
    </dc:creator>
   </cc:Work>
  </rdf:RDF>
 </metadata>
 <defs>
  <style type="text/css">*{stroke-linejoin: round; stroke-linecap: butt}</style>
 </defs>
 <g id="figure_1">
  <g id="axes_1">
   <g id="patch_1">
    <path d="M 172.513346 101.007896 
L 169.017968 103.279892 
L 171.464733 101.009644 
L 7.2 101.009644 
L 7.2 101.006149 
L 171.464733 101.006149 
L 169.017968 98.7359 
z
" clip-path="url(#pdc6026d519)" style="fill: #1f77b4; stroke: #000000; stroke-linejoin: miter"/>
   </g>
   <g id="patch_2">
    <path d="M 93.352052 14.190757 
L 95.624048 17.686136 
L 93.3538 15.239371 
L 93.3538 194.815793 
L 93.350304 194.815793 
L 93.350304 15.239371 
L 91.080056 17.686136 
z
" clip-path="url(#pdc6026d519)" style="fill: #1f77b4; stroke: #000000; stroke-linejoin: miter"/>
   </g>
   <g id="PathCollection_1">
    <defs>
     <path id="mb99e7dc6dc" d="M 0 2.236068 
C 0.593012 2.236068 1.161816 2.000462 1.581139 1.581139 
C 2.000462 1.161816 2.236068 0.593012 2.236068 0 
C 2.236068 -0.593012 2.000462 -1.161816 1.581139 -1.581139 
C 1.161816 -2.000462 0.593012 -2.236068 0 -2.236068 
C -0.593012 -2.236068 -1.161816 -2.000462 -1.581139 -1.581139 
C -2.000462 -1.161816 -2.236068 -0.593012 -2.236068 0 
C -2.236068 0.593012 -2.000462 1.161816 -1.581139 1.581139 
C -1.161816 2.000462 -0.593012 2.236068 0 2.236068 
z
" style="stroke: #808080; stroke-opacity: 0.7"/>
    </defs>
    <g clip-path="url(#pdc6026d519)">
     <use xlink:href="#mb99e7dc6dc" x="93.352052" y="173.178434" style="fill: #808080; fill-opacity: 0.7; stroke: #808080; stroke-opacity: 0.7"/>
    </g>
   </g>
   <g id="PathCollection_2">
    <defs>
     <path id="m04231952a5" d="M 0 2.236068 
C 0.593012 2.236068 1.161816 2.000462 1.581139 1.581139 
C 2.000462 1.161816 2.236068 0.593012 2.236068 0 
C 2.236068 -0.593012 2.000462 -1.161816 1.581139 -1.581139 
C 1.161816 -2.000462 0.593012 -2.236068 0 -2.236068 
C -0.593012 -2.236068 -1.161816 -2.000462 -1.581139 -1.581139 
C -2.000462 -1.161816 -2.236068 -0.593012 -2.236068 0 
C -2.236068 0.593012 -2.000462 1.161816 -1.581139 1.581139 
C -1.161816 2.000462 -0.593012 2.236068 0 2.236068 
z
" style="stroke: #000000"/>
    </defs>
    <g clip-path="url(#pdc6026d519)">
     <use xlink:href="#m04231952a5" x="93.352052" y="101.007896" style="stroke: #000000"/>
    </g>
   </g>
   <g id="Quiver_1">
    <path d="M 94.563728 98.037482 
L 94.699294 91.835806 
L 92.96725 92.228807 
L 95.214676 87.969303 
L 97.273824 92.322947 
L 95.560608 91.854634 
L 95.425043 98.05631 
L 94.563728 98.037482 
" clip-path="url(#pdc6026d519)" style="fill: #0ca7ef"/>
    <path d="M 97.874452 98.16391 
L 98.283229 91.974236 
L 96.535547 92.290515 
L 98.968531 88.134207 
L 100.833787 92.574378 
L 99.142877 92.031009 
L 98.7341 98.220683 
L 97.874452 98.16391 
" clip-path="url(#pdc6026d519)" style="fill: #0ca7ef"/>
    <path d="M 101.263109 98.445268 
L 101.951458 92.280421 
L 100.191258 92.51732 
L 102.809762 88.475323 
L 104.472257 92.995324 
L 102.807658 92.376022 
L 102.119308 98.540869 
L 101.263109 98.445268 
" clip-path="url(#pdc6026d519)" style="fill: #0ca7ef"/>
    <path d="M 104.785894 98.90261 
L 105.764803 92.777179 
L 103.995375 92.930631 
L 106.801963 89.016892 
L 108.249002 93.610406 
L 106.615529 92.913134 
L 105.636619 99.038565 
L 104.785894 98.90261 
" clip-path="url(#pdc6026d519)" style="fill: #09a9ee"/>
    <path d="M 108.506592 99.571568 
L 109.792297 93.503114 
L 108.01739 93.567392 
L 111.017241 89.799741 
L 112.231451 94.460213 
L 110.635109 93.681678 
L 109.349404 99.750132 
L 108.506592 99.571568 
" clip-path="url(#pdc6026d519)" style="fill: #09a9ee"/>
    <path d="M 112.500496 100.508166 
L 114.115421 94.51891 
L 112.339651 94.486241 
L 115.540621 90.887895 
L 116.498716 95.607679 
L 114.947234 94.743197 
L 113.332309 100.732453 
L 112.500496 100.508166 
" clip-path="url(#pdc6026d519)" style="fill: #09a9ee"/>
    <path d="M 116.85919 101.798848 
L 118.833277 95.918189 
L 117.062731 95.778216 
L 120.475405 92.379987 
L 121.146384 97.149063 
L 119.650008 96.192359 
L 117.67592 102.073017 
L 116.85919 101.798848 
" clip-path="url(#pdc6026d519)" style="fill: #08acee"/>
    <path d="M 121.696141 103.577835 
L 124.068636 97.846305 
L 122.311848 97.58531 
L 125.949405 94.428971 
L 126.291942 99.23282 
L 124.864655 98.175807 
L 122.49216 103.907337 
L 121.696141 103.577835 
" clip-path="url(#pdc6026d519)" style="fill: #08acee"/>
    <path d="M 127.152107 106.057743 
L 129.973773 100.533491 
L 128.243368 100.133337 
L 132.12087 97.276892 
L 132.079524 102.09276 
L 130.741004 100.925375 
L 127.919339 106.449628 
L 127.152107 106.057743 
" clip-path="url(#pdc6026d519)" style="fill: #06aeed"/>
    <path d="M 133.396134 109.585177 
L 136.731522 104.355038 
L 135.047139 103.791765 
L 139.179261 101.317929 
L 138.679057 106.107928 
L 137.457906 104.818271 
L 134.122518 110.04841 
L 133.396134 109.585177 
" clip-path="url(#pdc6026d519)" style="fill: #01b3ec"/>
    <path d="M 140.607656 114.74438 
L 144.535853 109.943502 
L 142.929539 109.185756 
L 147.324277 107.215836 
L 146.263369 111.913578 
L 145.20262 110.489066 
L 141.274422 115.289944 
L 140.607656 114.74438 
" clip-path="url(#pdc6026d519)" style="fill: #02b7eb"/>
    <path d="M 148.891822 122.552702 
L 153.500112 118.400254 
L 152.026684 117.408571 
L 156.668551 116.125071 
L 154.910231 120.608665 
L 154.076822 119.040272 
L 149.468531 123.19272 
L 148.891822 122.552702 
" clip-path="url(#pdc6026d519)" style="fill: #0ac0e8"/>
    <path d="M 157.97161 134.812518 
L 163.32356 131.67631 
L 162.08077 130.407493 
L 166.8862 130.087897 
L 164.258618 134.123998 
L 163.759129 132.419611 
L 158.40718 135.555819 
L 157.97161 134.812518 
" clip-path="url(#pdc6026d519)" style="fill: #18cde4"/>
    <path d="M 166.16582 154.583112 
L 172.184778 153.082676 
L 171.350035 151.514993 
L 176.050693 152.562904 
L 172.391969 155.694683 
L 172.393165 153.918614 
L 166.374206 155.41905 
L 166.16582 154.583112 
" clip-path="url(#pdc6026d519)" style="fill: #37e6d8"/>
    <path d="M 167.449545 185.71607 
L 173.559734 186.786003 
L 173.432623 185.014488 
L 177.304174 187.878994 
L 172.689639 189.257531 
L 173.411137 187.634612 
L 167.300948 186.564678 
L 167.449545 185.71607 
" clip-path="url(#pdc6026d519)" style="fill: #88ffaf"/>
    <path d="M 146.976276 225.828917 
L 151.377591 230.20014 
L 152.286142 228.674047 
L 153.824773 233.237699 
L 149.250673 231.730412 
L 150.770497 230.811413 
L 146.369182 226.44019 
L 146.976276 225.828917 
" clip-path="url(#pdc6026d519)" style="fill: #ff0000"/>
    <path d="M 93.782812 248.327919 
L 93.782812 254.531077 
L 95.505853 254.100317 
L 93.352052 258.407919 
L 91.198251 254.100317 
L 92.921292 254.531077 
L 92.921292 248.327919 
L 93.782812 248.327919 
" clip-path="url(#pdc6026d519)" style="fill: #ff0000"/>
    <path d="M 40.334922 226.44019 
L 35.933607 230.811413 
L 37.453431 231.730412 
L 32.879331 233.237699 
L 34.417962 228.674047 
L 35.326513 230.20014 
L 39.727828 225.828917 
L 40.334922 226.44019 
" clip-path="url(#pdc6026d519)" style="fill: #ff0000"/>
    <path d="M 19.403156 186.564678 
L 13.292967 187.634612 
L 14.014465 189.257531 
L 9.39993 187.878994 
L 13.271481 185.014488 
L 13.14437 186.786003 
L 19.254559 185.71607 
L 19.403156 186.564678 
" clip-path="url(#pdc6026d519)" style="fill: #88ffaf"/>
    <path d="M 20.329897 155.41905 
L 14.310939 153.918614 
L 14.312135 155.694683 
L 10.653411 152.562904 
L 15.354069 151.514993 
L 14.519326 153.082676 
L 20.538284 154.583112 
L 20.329897 155.41905 
" clip-path="url(#pdc6026d519)" style="fill: #37e6d8"/>
    <path d="M 28.296924 135.555819 
L 22.944974 132.419611 
L 22.445486 134.123998 
L 19.817904 130.087897 
L 24.623334 130.407493 
L 23.380544 131.67631 
L 28.732494 134.812518 
L 28.296924 135.555819 
" clip-path="url(#pdc6026d519)" style="fill: #18cde4"/>
    <path d="M 37.235572 123.19272 
L 32.627282 119.040272 
L 31.793873 120.608665 
L 30.035553 116.125071 
L 34.677419 117.408571 
L 33.203991 118.400254 
L 37.812282 122.552702 
L 37.235572 123.19272 
" clip-path="url(#pdc6026d519)" style="fill: #0ac0e8"/>
    <path d="M 45.429681 115.289944 
L 41.501484 110.489066 
L 40.440734 111.913578 
L 39.379827 107.215836 
L 43.774565 109.185756 
L 42.16825 109.943502 
L 46.096447 114.74438 
L 45.429681 115.289944 
" clip-path="url(#pdc6026d519)" style="fill: #02b7eb"/>
    <path d="M 52.581586 110.04841 
L 49.246198 104.818271 
L 48.025047 106.107928 
L 47.524843 101.317929 
L 51.656965 103.791765 
L 49.972582 104.355038 
L 53.30797 109.585177 
L 52.581586 110.04841 
" clip-path="url(#pdc6026d519)" style="fill: #01b3ec"/>
    <path d="M 58.784765 106.449628 
L 55.9631 100.925375 
L 54.624579 102.09276 
L 54.583234 97.276892 
L 58.460736 100.133337 
L 56.730331 100.533491 
L 59.551996 106.057743 
L 58.784765 106.449628 
" clip-path="url(#pdc6026d519)" style="fill: #06aeed"/>
    <path d="M 64.211943 103.907337 
L 61.839449 98.175807 
L 60.412162 99.23282 
L 60.754699 94.428971 
L 64.392256 97.58531 
L 62.635467 97.846305 
L 65.007962 103.577835 
L 64.211943 103.907337 
" clip-path="url(#pdc6026d519)" style="fill: #08acee"/>
    <path d="M 69.028183 102.073017 
L 67.054096 96.192359 
L 65.55772 97.149063 
L 66.228699 92.379987 
L 69.641372 95.778216 
L 67.870827 95.918189 
L 69.844914 101.798848 
L 69.028183 102.073017 
" clip-path="url(#pdc6026d519)" style="fill: #08acee"/>
    <path d="M 73.371795 100.732453 
L 71.75687 94.743197 
L 70.205388 95.607679 
L 71.163483 90.887895 
L 74.364452 94.486241 
L 72.588683 94.51891 
L 74.203607 100.508166 
L 73.371795 100.732453 
" clip-path="url(#pdc6026d519)" style="fill: #09a9ee"/>
    <path d="M 77.354699 99.750132 
L 76.068995 93.681678 
L 74.472652 94.460213 
L 75.686863 89.799741 
L 78.686713 93.567392 
L 76.911807 93.503114 
L 78.197512 99.571568 
L 77.354699 99.750132 
" clip-path="url(#pdc6026d519)" style="fill: #09a9ee"/>
    <path d="M 81.067484 99.038565 
L 80.088575 92.913134 
L 78.455102 93.610406 
L 79.90214 89.016892 
L 82.708729 92.930631 
L 80.939301 92.777179 
L 81.91821 98.90261 
L 81.067484 99.038565 
" clip-path="url(#pdc6026d519)" style="fill: #09a9ee"/>
    <path d="M 84.584795 98.540869 
L 83.896446 92.376022 
L 82.231847 92.995324 
L 83.894342 88.475323 
L 86.512846 92.51732 
L 84.752646 92.280421 
L 85.440995 98.445268 
L 84.584795 98.540869 
" clip-path="url(#pdc6026d519)" style="fill: #0ca7ef"/>
    <path d="M 87.970004 98.220683 
L 87.561226 92.031009 
L 85.870317 92.574378 
L 87.735573 88.134207 
L 90.168556 92.290515 
L 88.420874 91.974236 
L 88.829652 98.16391 
L 87.970004 98.220683 
" clip-path="url(#pdc6026d519)" style="fill: #0ca7ef"/>
    <path d="M 91.279061 98.05631 
L 91.143495 91.854634 
L 89.43028 92.322947 
L 91.489427 87.969303 
L 93.736854 92.228807 
L 92.00481 91.835806 
L 92.140375 98.037482 
L 91.279061 98.05631 
" clip-path="url(#pdc6026d519)" style="fill: #0ca7ef"/>
   </g>
   <g id="PathCollection_3">
    <g clip-path="url(#pdc6026d519)">
     <use xlink:href="#mb99e7dc6dc" x="93.352052" y="173.178434" style="fill: #808080; fill-opacity: 0.7; stroke: #808080; stroke-opacity: 0.7"/>
    </g>
   </g>
   <g id="PathCollection_4">
    <g clip-path="url(#pdc6026d519)">
     <use xlink:href="#m04231952a5" x="93.352052" y="101.007896" style="stroke: #000000"/>
    </g>
   </g>
   <g id="Quiver_2">
    <path d="M 94.563728 98.037482 
L 94.699294 91.835806 
L 92.96725 92.228807 
L 95.214676 87.969303 
L 97.273824 92.322947 
L 95.560608 91.854634 
L 95.425043 98.05631 
L 94.563728 98.037482 
" clip-path="url(#pdc6026d519)" style="fill: #0ca7ef"/>
    <path d="M 97.874452 98.16391 
L 98.283229 91.974236 
L 96.535547 92.290515 
L 98.968531 88.134207 
L 100.833787 92.574378 
L 99.142877 92.031009 
L 98.7341 98.220683 
L 97.874452 98.16391 
" clip-path="url(#pdc6026d519)" style="fill: #0ca7ef"/>
    <path d="M 101.263109 98.445268 
L 101.951458 92.280421 
L 100.191258 92.51732 
L 102.809762 88.475323 
L 104.472257 92.995324 
L 102.807658 92.376022 
L 102.119308 98.540869 
L 101.263109 98.445268 
" clip-path="url(#pdc6026d519)" style="fill: #0ca7ef"/>
    <path d="M 104.785894 98.90261 
L 105.764803 92.777179 
L 103.995375 92.930631 
L 106.801963 89.016892 
L 108.249002 93.610406 
L 106.615529 92.913134 
L 105.636619 99.038565 
L 104.785894 98.90261 
" clip-path="url(#pdc6026d519)" style="fill: #09a9ee"/>
    <path d="M 108.506592 99.571568 
L 109.792297 93.503114 
L 108.01739 93.567392 
L 111.017241 89.799741 
L 112.231451 94.460213 
L 110.635109 93.681678 
L 109.349404 99.750132 
L 108.506592 99.571568 
" clip-path="url(#pdc6026d519)" style="fill: #09a9ee"/>
    <path d="M 112.500496 100.508166 
L 114.115421 94.51891 
L 112.339651 94.486241 
L 115.540621 90.887895 
L 116.498716 95.607679 
L 114.947234 94.743197 
L 113.332309 100.732453 
L 112.500496 100.508166 
" clip-path="url(#pdc6026d519)" style="fill: #09a9ee"/>
    <path d="M 116.85919 101.798848 
L 118.833277 95.918189 
L 117.062731 95.778216 
L 120.475405 92.379987 
L 121.146384 97.149063 
L 119.650008 96.192359 
L 117.67592 102.073017 
L 116.85919 101.798848 
" clip-path="url(#pdc6026d519)" style="fill: #08acee"/>
    <path d="M 121.696141 103.577835 
L 124.068636 97.846305 
L 122.311848 97.58531 
L 125.949405 94.428971 
L 126.291942 99.23282 
L 124.864655 98.175807 
L 122.49216 103.907337 
L 121.696141 103.577835 
" clip-path="url(#pdc6026d519)" style="fill: #08acee"/>
    <path d="M 127.152107 106.057743 
L 129.973773 100.533491 
L 128.243368 100.133337 
L 132.12087 97.276892 
L 132.079524 102.09276 
L 130.741004 100.925375 
L 127.919339 106.449628 
L 127.152107 106.057743 
" clip-path="url(#pdc6026d519)" style="fill: #06aeed"/>
    <path d="M 133.396134 109.585177 
L 136.731522 104.355038 
L 135.047139 103.791765 
L 139.179261 101.317929 
L 138.679057 106.107928 
L 137.457906 104.818271 
L 134.122518 110.04841 
L 133.396134 109.585177 
" clip-path="url(#pdc6026d519)" style="fill: #01b3ec"/>
    <path d="M 140.607656 114.74438 
L 144.535853 109.943502 
L 142.929539 109.185756 
L 147.324277 107.215836 
L 146.263369 111.913578 
L 145.20262 110.489066 
L 141.274422 115.289944 
L 140.607656 114.74438 
" clip-path="url(#pdc6026d519)" style="fill: #02b7eb"/>
    <path d="M 148.891822 122.552702 
L 153.500112 118.400254 
L 152.026684 117.408571 
L 156.668551 116.125071 
L 154.910231 120.608665 
L 154.076822 119.040272 
L 149.468531 123.19272 
L 148.891822 122.552702 
" clip-path="url(#pdc6026d519)" style="fill: #0ac0e8"/>
    <path d="M 157.97161 134.812518 
L 163.32356 131.67631 
L 162.08077 130.407493 
L 166.8862 130.087897 
L 164.258618 134.123998 
L 163.759129 132.419611 
L 158.40718 135.555819 
L 157.97161 134.812518 
" clip-path="url(#pdc6026d519)" style="fill: #18cde4"/>
    <path d="M 166.16582 154.583112 
L 172.184778 153.082676 
L 171.350035 151.514993 
L 176.050693 152.562904 
L 172.391969 155.694683 
L 172.393165 153.918614 
L 166.374206 155.41905 
L 166.16582 154.583112 
" clip-path="url(#pdc6026d519)" style="fill: #37e6d8"/>
    <path d="M 167.449545 185.71607 
L 173.559734 186.786003 
L 173.432623 185.014488 
L 177.304174 187.878994 
L 172.689639 189.257531 
L 173.411137 187.634612 
L 167.300948 186.564678 
L 167.449545 185.71607 
" clip-path="url(#pdc6026d519)" style="fill: #88ffaf"/>
    <path d="M 146.976276 225.828917 
L 151.377591 230.20014 
L 152.286142 228.674047 
L 153.824773 233.237699 
L 149.250673 231.730412 
L 150.770497 230.811413 
L 146.369182 226.44019 
L 146.976276 225.828917 
" clip-path="url(#pdc6026d519)" style="fill: #ff0000"/>
    <path d="M 93.782812 248.327919 
L 93.782812 254.531077 
L 95.505853 254.100317 
L 93.352052 258.407919 
L 91.198251 254.100317 
L 92.921292 254.531077 
L 92.921292 248.327919 
L 93.782812 248.327919 
" clip-path="url(#pdc6026d519)" style="fill: #ff0000"/>
    <path d="M 40.334922 226.44019 
L 35.933607 230.811413 
L 37.453431 231.730412 
L 32.879331 233.237699 
L 34.417962 228.674047 
L 35.326513 230.20014 
L 39.727828 225.828917 
L 40.334922 226.44019 
" clip-path="url(#pdc6026d519)" style="fill: #ff0000"/>
    <path d="M 19.403156 186.564678 
L 13.292967 187.634612 
L 14.014465 189.257531 
L 9.39993 187.878994 
L 13.271481 185.014488 
L 13.14437 186.786003 
L 19.254559 185.71607 
L 19.403156 186.564678 
" clip-path="url(#pdc6026d519)" style="fill: #88ffaf"/>
    <path d="M 20.329897 155.41905 
L 14.310939 153.918614 
L 14.312135 155.694683 
L 10.653411 152.562904 
L 15.354069 151.514993 
L 14.519326 153.082676 
L 20.538284 154.583112 
L 20.329897 155.41905 
" clip-path="url(#pdc6026d519)" style="fill: #37e6d8"/>
    <path d="M 28.296924 135.555819 
L 22.944974 132.419611 
L 22.445486 134.123998 
L 19.817904 130.087897 
L 24.623334 130.407493 
L 23.380544 131.67631 
L 28.732494 134.812518 
L 28.296924 135.555819 
" clip-path="url(#pdc6026d519)" style="fill: #18cde4"/>
    <path d="M 37.235572 123.19272 
L 32.627282 119.040272 
L 31.793873 120.608665 
L 30.035553 116.125071 
L 34.677419 117.408571 
L 33.203991 118.400254 
L 37.812282 122.552702 
L 37.235572 123.19272 
" clip-path="url(#pdc6026d519)" style="fill: #0ac0e8"/>
    <path d="M 45.429681 115.289944 
L 41.501484 110.489066 
L 40.440734 111.913578 
L 39.379827 107.215836 
L 43.774565 109.185756 
L 42.16825 109.943502 
L 46.096447 114.74438 
L 45.429681 115.289944 
" clip-path="url(#pdc6026d519)" style="fill: #02b7eb"/>
    <path d="M 52.581586 110.04841 
L 49.246198 104.818271 
L 48.025047 106.107928 
L 47.524843 101.317929 
L 51.656965 103.791765 
L 49.972582 104.355038 
L 53.30797 109.585177 
L 52.581586 110.04841 
" clip-path="url(#pdc6026d519)" style="fill: #01b3ec"/>
    <path d="M 58.784765 106.449628 
L 55.9631 100.925375 
L 54.624579 102.09276 
L 54.583234 97.276892 
L 58.460736 100.133337 
L 56.730331 100.533491 
L 59.551996 106.057743 
L 58.784765 106.449628 
" clip-path="url(#pdc6026d519)" style="fill: #06aeed"/>
    <path d="M 64.211943 103.907337 
L 61.839449 98.175807 
L 60.412162 99.23282 
L 60.754699 94.428971 
L 64.392256 97.58531 
L 62.635467 97.846305 
L 65.007962 103.577835 
L 64.211943 103.907337 
" clip-path="url(#pdc6026d519)" style="fill: #08acee"/>
    <path d="M 69.028183 102.073017 
L 67.054096 96.192359 
L 65.55772 97.149063 
L 66.228699 92.379987 
L 69.641372 95.778216 
L 67.870827 95.918189 
L 69.844914 101.798848 
L 69.028183 102.073017 
" clip-path="url(#pdc6026d519)" style="fill: #08acee"/>
    <path d="M 73.371795 100.732453 
L 71.75687 94.743197 
L 70.205388 95.607679 
L 71.163483 90.887895 
L 74.364452 94.486241 
L 72.588683 94.51891 
L 74.203607 100.508166 
L 73.371795 100.732453 
" clip-path="url(#pdc6026d519)" style="fill: #09a9ee"/>
    <path d="M 77.354699 99.750132 
L 76.068995 93.681678 
L 74.472652 94.460213 
L 75.686863 89.799741 
L 78.686713 93.567392 
L 76.911807 93.503114 
L 78.197512 99.571568 
L 77.354699 99.750132 
" clip-path="url(#pdc6026d519)" style="fill: #09a9ee"/>
    <path d="M 81.067484 99.038565 
L 80.088575 92.913134 
L 78.455102 93.610406 
L 79.90214 89.016892 
L 82.708729 92.930631 
L 80.939301 92.777179 
L 81.91821 98.90261 
L 81.067484 99.038565 
" clip-path="url(#pdc6026d519)" style="fill: #09a9ee"/>
    <path d="M 84.584795 98.540869 
L 83.896446 92.376022 
L 82.231847 92.995324 
L 83.894342 88.475323 
L 86.512846 92.51732 
L 84.752646 92.280421 
L 85.440995 98.445268 
L 84.584795 98.540869 
" clip-path="url(#pdc6026d519)" style="fill: #0ca7ef"/>
    <path d="M 87.970004 98.220683 
L 87.561226 92.031009 
L 85.870317 92.574378 
L 87.735573 88.134207 
L 90.168556 92.290515 
L 88.420874 91.974236 
L 88.829652 98.16391 
L 87.970004 98.220683 
" clip-path="url(#pdc6026d519)" style="fill: #0ca7ef"/>
    <path d="M 91.279061 98.05631 
L 91.143495 91.854634 
L 89.43028 92.322947 
L 91.489427 87.969303 
L 93.736854 92.228807 
L 92.00481 91.835806 
L 92.140375 98.037482 
L 91.279061 98.05631 
" clip-path="url(#pdc6026d519)" style="fill: #0ca7ef"/>
   </g>
   <g id="text_1">
    <!-- y' -->
    <g transform="translate(158.531832 94.017139) scale(0.1 -0.1)">
     <defs>
      <path id="DejaVuSans-79" d="M 2059 -325 
Q 1816 -950 1584 -1140 
Q 1353 -1331 966 -1331 
L 506 -1331 
L 506 -850 
L 844 -850 
Q 1081 -850 1212 -737 
Q 1344 -625 1503 -206 
L 1606 56 
L 191 3500 
L 800 3500 
L 1894 763 
L 2988 3500 
L 3597 3500 
L 2059 -325 
z
" transform="scale(0.015625)"/>
      <path id="DejaVuSans-27" d="M 1147 4666 
L 1147 2931 
L 616 2931 
L 616 4666 
L 1147 4666 
z
" transform="scale(0.015625)"/>
     </defs>
     <use xlink:href="#DejaVuSans-79"/>
     <use xlink:href="#DejaVuSans-27" x="59.179688"/>
    </g>
   </g>
   <g id="text_2">
    <!-- z' -->
    <g transform="translate(100.342809 31.667651) scale(0.1 -0.1)">
     <defs>
      <path id="DejaVuSans-7a" d="M 353 3500 
L 3084 3500 
L 3084 2975 
L 922 459 
L 3084 459 
L 3084 0 
L 275 0 
L 275 525 
L 2438 3041 
L 353 3041 
L 353 3500 
z
" transform="scale(0.015625)"/>
     </defs>
     <use xlink:href="#DejaVuSans-7a"/>
     <use xlink:href="#DejaVuSans-27" x="52.490234"/>
    </g>
   </g>
   <g id="text_3">
    <!-- t'= $\gamma$t -->
    <g transform="translate(122.069402 57.93187) scale(0.1 -0.1)">
     <defs>
      <path id="DejaVuSans-74" d="M 1172 4494 
L 1172 3500 
L 2356 3500 
L 2356 3053 
L 1172 3053 
L 1172 1153 
Q 1172 725 1289 603 
Q 1406 481 1766 481 
L 2356 481 
L 2356 0 
L 1766 0 
Q 1100 0 847 248 
Q 594 497 594 1153 
L 594 3053 
L 172 3053 
L 172 3500 
L 594 3500 
L 594 4494 
L 1172 4494 
z
" transform="scale(0.015625)"/>
      <path id="DejaVuSans-3d" d="M 678 2906 
L 4684 2906 
L 4684 2381 
L 678 2381 
L 678 2906 
z
M 678 1631 
L 4684 1631 
L 4684 1100 
L 678 1100 
L 678 1631 
z
" transform="scale(0.015625)"/>
      <path id="DejaVuSans-20" transform="scale(0.015625)"/>
      <path id="DejaVuSans-Oblique-3b3" d="M 1491 2950 
L 1838 788 
L 3456 3500 
L 4066 3500 
L 1972 0 
L 1713 -1331 
L 1138 -1331 
L 1397 0 
L 988 2613 
Q 925 3006 628 3006 
L 475 3006 
L 569 3500 
L 788 3500 
Q 1403 3500 1491 2950 
z
" transform="scale(0.015625)"/>
     </defs>
     <use xlink:href="#DejaVuSans-74" transform="translate(0 0.09375)"/>
     <use xlink:href="#DejaVuSans-27" transform="translate(39.208984 0.09375)"/>
     <use xlink:href="#DejaVuSans-3d" transform="translate(66.699219 0.09375)"/>
     <use xlink:href="#DejaVuSans-20" transform="translate(150.488281 0.09375)"/>
     <use xlink:href="#DejaVuSans-Oblique-3b3" transform="translate(182.275391 0.09375)"/>
     <use xlink:href="#DejaVuSans-74" transform="translate(241.455078 0.09375)"/>
    </g>
   </g>
  </g>
 </g>
 <defs>
  <clipPath id="pdc6026d519">
   <rect x="7.2" y="7.2" width="172.304104" height="266.112"/>
  </clipPath>
 </defs>
</svg>
