<?xml version="1.0" encoding="utf-8" standalone="no"?>
<!DOCTYPE svg PUBLIC "-//W3C//DTD SVG 1.1//EN"
  "http://www.w3.org/Graphics/SVG/1.1/DTD/svg11.dtd">
<svg shape-rendering="crispEdges" xmlns:xlink="http://www.w3.org/1999/xlink" width="397.043725pt" height="315.589344pt" viewBox="0 0 397.043725 315.589344" xmlns="http://www.w3.org/2000/svg" version="1.1">
 <metadata>
  <rdf:RDF xmlns:dc="http://purl.org/dc/elements/1.1/" xmlns:cc="http://creativecommons.org/ns#" xmlns:rdf="http://www.w3.org/1999/02/22-rdf-syntax-ns#">
   <cc:Work>
    <dc:type rdf:resource="http://purl.org/dc/dcmitype/StillImage"/>
    <dc:date>2025-01-29T00:07:43.367743</dc:date>
    <dc:format>image/svg+xml</dc:format>
    <dc:creator>
     <cc:Agent>
      <dc:title>Matplotlib v3.9.0, https://matplotlib.org/</dc:title>
     </cc:Agent>
    </dc:creator>
   </cc:Work>
  </rdf:RDF>
 </metadata>
 <defs>
  <style type="text/css">*{stroke-linejoin: round; stroke-linecap: butt}</style>
 </defs>
 <g id="figure_1">
  <g id="patch_1">
   <path d="M 0 315.589344 
L 397.043725 315.589344 
L 397.043725 0 
L 0 0 
L 0 315.589344 
z
" style="fill: none"/>
  </g>
  <g id="axes_1">
   <g id="patch_2">
    <path d="M 49.904688 277.111219 
L 316.016687 277.111219 
L 316.016687 10.999219 
L 49.904688 10.999219 
L 49.904688 277.111219 
z
" style="fill: none"/>
   </g>
   <g id="QuadContourSet_1">
    <path d="M 52.592688 277.111219 
L 55.280687 277.111219 
L 57.968687 277.111219 
L 60.656687 277.111219 
L 63.344687 277.111219 
L 66.032688 277.111219 
L 68.720687 277.111219 
L 71.408687 277.111219 
L 74.096687 277.111219 
L 76.784688 277.111219 
L 79.472687 277.111219 
L 82.160687 277.111219 
L 84.848687 277.111219 
L 87.536687 277.111219 
L 90.224687 277.111219 
L 92.912687 277.111219 
L 95.600687 277.111219 
L 98.288687 277.111219 
L 100.976687 277.111219 
L 103.664687 277.111219 
L 106.352687 277.111219 
L 109.040687 277.111219 
L 111.728687 277.111219 
L 114.416687 277.111219 
L 117.104687 277.111219 
L 119.792687 277.111219 
L 122.480687 277.111219 
L 125.168687 277.111219 
L 127.856687 277.111219 
L 130.544687 277.111219 
L 133.232687 277.111219 
L 135.920687 277.111219 
L 138.608687 277.111219 
L 141.296687 277.111219 
L 143.984687 277.111219 
L 146.672687 277.111219 
L 149.360687 277.111219 
L 152.048687 277.111219 
L 154.736687 277.111219 
L 157.424687 277.111219 
L 160.112687 277.111219 
L 162.800687 277.111219 
L 165.488687 277.111219 
L 168.176687 277.111219 
L 170.864687 277.111219 
L 173.552687 277.111219 
L 176.240687 277.111219 
L 178.928687 277.111219 
L 181.616687 277.111219 
L 184.304687 277.111219 
L 186.992687 277.111219 
L 189.680687 277.111219 
L 192.368687 277.111219 
L 195.056687 277.111219 
L 197.744687 277.111219 
L 200.432687 277.111219 
L 203.120687 277.111219 
L 205.808687 277.111219 
L 208.496687 277.111219 
L 211.184687 277.111219 
L 213.872687 277.111219 
L 216.560687 277.111219 
L 219.248687 277.111219 
L 221.936687 277.111219 
L 224.624687 277.111219 
L 227.312687 277.111219 
L 230.000687 277.111219 
L 232.688687 277.111219 
L 235.376687 277.111219 
L 238.064687 277.111219 
L 240.752687 277.111219 
L 243.440687 277.111219 
L 246.128687 277.111219 
L 248.816687 277.111219 
L 251.504687 277.111219 
L 254.192687 277.111219 
L 256.880687 277.111219 
L 259.568687 277.111219 
L 262.256687 277.111219 
L 264.944687 277.111219 
L 267.632687 277.111219 
L 270.320687 277.111219 
L 273.008687 277.111219 
L 275.696687 277.111219 
L 278.384687 277.111219 
L 281.072687 277.111219 
L 283.760687 277.111219 
L 286.448688 277.111219 
L 289.136687 277.111219 
L 291.824687 277.111219 
L 294.512687 277.111219 
L 297.200687 277.111219 
L 299.888687 277.111219 
L 302.576687 277.111219 
L 305.264687 277.111219 
L 307.952687 277.111219 
L 310.640687 277.111219 
L 313.328688 277.111219 
L 316.016687 277.111219 
L 316.016687 274.423219 
L 316.016687 271.735219 
L 316.016687 269.047219 
L 316.016687 266.359219 
L 316.016687 263.671219 
L 316.016687 260.983219 
L 316.016687 258.295219 
L 316.016687 255.607219 
L 316.016687 252.919219 
L 316.016687 250.231219 
L 316.016687 247.543219 
L 316.016687 244.855219 
L 316.016687 242.167219 
L 316.016687 239.479219 
L 316.016687 236.791219 
L 316.016687 234.103219 
L 316.016687 231.415219 
L 316.016687 228.727219 
L 316.016687 226.039219 
L 316.016687 223.351219 
L 316.016687 220.663219 
L 316.016687 217.975219 
L 316.016687 215.287219 
L 316.016687 212.599219 
L 316.016687 209.911219 
L 316.016687 207.223219 
L 316.016687 204.535219 
L 316.016687 201.847219 
L 316.016687 199.159219 
L 316.016687 196.471219 
L 316.016687 193.783219 
L 316.016687 191.095219 
L 316.016687 188.407219 
L 316.016687 185.719219 
L 316.016687 183.031219 
L 316.016687 180.343219 
L 316.016687 177.655219 
L 316.016687 174.967219 
L 316.016687 172.279219 
L 316.016687 169.591219 
L 316.016687 166.903219 
L 316.016687 164.215219 
L 316.016687 161.527219 
L 316.016687 158.839219 
L 316.016687 156.151219 
L 316.016687 153.463219 
L 316.016687 150.775219 
L 316.016687 148.087219 
L 316.016687 145.399219 
L 316.016687 142.711219 
L 316.016687 140.023219 
L 316.016687 137.335219 
L 316.016687 134.647219 
L 316.016687 131.959219 
L 316.016687 129.271219 
L 316.016687 126.583219 
L 316.016687 123.895219 
L 316.016687 121.207219 
L 316.016687 118.519219 
L 316.016687 115.831219 
L 316.016687 113.143219 
L 316.016687 110.455219 
L 316.016687 107.767219 
L 316.016687 105.079219 
L 316.016687 102.391219 
L 316.016687 99.703219 
L 316.016687 97.015219 
L 316.016687 94.327219 
L 316.016687 91.639219 
L 316.016687 88.951219 
L 316.016687 86.263219 
L 316.016687 83.575219 
L 316.016687 80.887219 
L 316.016687 78.199219 
L 316.016687 75.511219 
L 316.016687 72.823219 
L 316.016687 70.135219 
L 316.016687 67.447219 
L 316.016687 64.759219 
L 316.016687 62.071219 
L 316.016687 59.383219 
L 316.016687 56.695219 
L 316.016687 54.007219 
L 316.016687 51.319219 
L 316.016687 48.631219 
L 316.016687 45.943219 
L 316.016687 43.255219 
L 316.016687 40.567219 
L 316.016687 37.879219 
L 316.016687 35.191219 
L 316.016687 32.503219 
L 316.016687 29.815219 
L 316.016687 27.127219 
L 316.016687 24.439219 
L 316.016687 21.751219 
L 316.016687 19.063219 
L 316.016687 16.375219 
L 316.016687 13.687219 
L 316.016687 10.999219 
L 313.328688 10.999219 
L 310.640687 10.999219 
L 307.952687 10.999219 
L 305.264687 10.999219 
L 302.576687 10.999219 
L 299.888687 10.999219 
L 297.200687 10.999219 
L 294.512687 10.999219 
L 291.824687 10.999219 
L 289.136687 10.999219 
L 286.448688 10.999219 
L 283.760687 10.999219 
L 281.072687 10.999219 
L 278.384687 10.999219 
L 275.696687 10.999219 
L 273.008687 10.999219 
L 270.320687 10.999219 
L 267.632687 10.999219 
L 264.944687 10.999219 
L 262.256687 10.999219 
L 259.568687 10.999219 
L 256.880687 10.999219 
L 254.192687 10.999219 
L 251.504687 10.999219 
L 248.816687 10.999219 
L 246.128687 10.999219 
L 243.440687 10.999219 
L 240.752687 10.999219 
L 238.064687 10.999219 
L 235.376687 10.999219 
L 232.688687 10.999219 
L 230.000687 10.999219 
L 227.312687 10.999219 
L 224.624687 10.999219 
L 221.936687 10.999219 
L 219.248687 10.999219 
L 216.560687 10.999219 
L 213.872687 10.999219 
L 211.184687 10.999219 
L 208.496687 10.999219 
L 205.808687 10.999219 
L 203.120687 10.999219 
L 200.432687 10.999219 
L 197.744687 10.999219 
L 195.056687 10.999219 
L 192.368687 10.999219 
L 189.680687 10.999219 
L 186.992687 10.999219 
L 184.304687 10.999219 
L 181.616687 10.999219 
L 178.928687 10.999219 
L 176.240687 10.999219 
L 173.552687 10.999219 
L 170.864687 10.999219 
L 168.176687 10.999219 
L 165.488687 10.999219 
L 162.800687 10.999219 
L 160.112687 10.999219 
L 157.424687 10.999219 
L 154.736687 10.999219 
L 152.048687 10.999219 
L 149.360687 10.999219 
L 146.672687 10.999219 
L 143.984687 10.999219 
L 141.296687 10.999219 
L 138.608687 10.999219 
L 135.920687 10.999219 
L 133.232687 10.999219 
L 130.544687 10.999219 
L 127.856687 10.999219 
L 125.168687 10.999219 
L 122.480687 10.999219 
L 119.792687 10.999219 
L 117.104687 10.999219 
L 114.416687 10.999219 
L 111.728687 10.999219 
L 109.040687 10.999219 
L 106.352687 10.999219 
L 103.664687 10.999219 
L 100.976687 10.999219 
L 98.288687 10.999219 
L 95.600687 10.999219 
L 92.912687 10.999219 
L 90.224687 10.999219 
L 87.536687 10.999219 
L 84.848687 10.999219 
L 82.160687 10.999219 
L 79.472687 10.999219 
L 76.784688 10.999219 
L 74.096687 10.999219 
L 71.408687 10.999219 
L 68.720687 10.999219 
L 66.032688 10.999219 
L 63.344687 10.999219 
L 60.656687 10.999219 
L 57.968687 10.999219 
L 55.280687 10.999219 
L 52.592688 10.999219 
L 49.904687 10.999219 
L 49.904687 13.687219 
L 49.904687 16.375219 
L 49.904687 19.063219 
L 49.904687 21.751219 
L 49.904687 24.439219 
L 49.904687 27.127219 
L 49.904687 29.815219 
L 49.904687 32.503219 
L 49.904687 35.191219 
L 49.904687 37.879219 
L 49.904687 40.567219 
L 49.904687 43.255219 
L 49.904687 45.943219 
L 49.904687 48.631219 
L 49.904687 51.319219 
L 49.904687 54.007219 
L 49.904687 56.695219 
L 49.904687 59.383219 
L 49.904687 62.071219 
L 49.904687 64.759219 
L 49.904687 67.447219 
L 49.904687 70.135219 
L 49.904687 72.823219 
L 49.904687 75.511219 
L 49.904687 78.199219 
L 49.904687 80.887219 
L 49.904687 83.575219 
L 49.904687 86.263219 
L 49.904687 88.951219 
L 49.904687 91.639219 
L 49.904687 94.327219 
L 49.904687 97.015219 
L 49.904687 99.703219 
L 49.904687 102.391219 
L 49.904687 105.079219 
L 49.904687 107.767219 
L 49.904687 110.455219 
L 49.904687 113.143219 
L 49.904687 115.831219 
L 49.904687 118.519219 
L 49.904687 121.207219 
L 49.904687 123.895219 
L 49.904687 126.583219 
L 49.904687 129.271219 
L 49.904687 131.959219 
L 49.904687 134.647219 
L 49.904687 137.335219 
L 49.904687 140.023219 
L 49.904687 142.711219 
L 49.904687 145.399219 
L 49.904687 148.087219 
L 49.904687 150.775219 
L 49.904687 153.463219 
L 49.904687 156.151219 
L 49.904687 158.839219 
L 49.904687 161.527219 
L 49.904687 164.215219 
L 49.904687 166.903219 
L 49.904687 169.591219 
L 49.904687 172.279219 
L 49.904687 174.967219 
L 49.904687 177.655219 
L 49.904687 180.343219 
L 49.904687 183.031219 
L 49.904687 185.719219 
L 49.904687 188.407219 
L 49.904687 191.095219 
L 49.904687 193.783219 
L 49.904687 196.471219 
L 49.904687 199.159219 
L 49.904687 201.847219 
L 49.904687 204.535219 
L 49.904687 207.223219 
L 49.904687 209.911219 
L 49.904687 212.599219 
L 49.904687 215.287219 
L 49.904687 217.975219 
L 49.904687 220.663219 
L 49.904687 223.351219 
L 49.904687 226.039219 
L 49.904687 228.727219 
L 49.904687 231.415219 
L 49.904687 234.103219 
L 49.904687 236.791219 
L 49.904687 239.479219 
L 49.904687 242.167219 
L 49.904687 244.855219 
L 49.904687 247.543219 
L 49.904687 250.231219 
L 49.904687 252.919219 
L 49.904687 255.607219 
L 49.904687 258.295219 
L 49.904687 260.983219 
L 49.904687 263.671219 
L 49.904687 266.359219 
L 49.904687 269.047219 
L 49.904687 271.735219 
L 49.904687 274.423219 
L 49.904687 277.111219 
z
M 181.616687 164.215219 
L 178.928687 161.527219 
L 176.240687 161.527219 
L 173.552687 161.527219 
L 170.864687 158.839219 
L 168.176687 156.151219 
L 165.488687 153.463219 
L 165.488687 150.775219 
L 165.488687 148.087219 
L 162.800687 145.399219 
L 162.800687 142.711219 
L 165.488687 140.023219 
L 165.488687 137.335219 
L 165.488687 134.647219 
L 168.176687 131.959219 
L 170.864687 129.271219 
L 173.552687 126.583219 
L 176.240687 126.583219 
L 178.928687 126.583219 
L 181.616687 123.895219 
L 184.304687 123.895219 
L 186.992687 126.583219 
L 189.680687 126.583219 
L 192.368687 126.583219 
L 195.056687 129.271219 
L 197.744687 131.959219 
L 200.432687 134.647219 
L 200.432687 137.335219 
L 200.432687 140.023219 
L 203.120687 142.711219 
L 203.120687 145.399219 
L 200.432687 148.087219 
L 200.432687 150.775219 
L 200.432687 153.463219 
L 197.744687 156.151219 
L 195.056687 158.839219 
L 192.368687 161.527219 
L 189.680687 161.527219 
L 186.992687 161.527219 
L 184.304687 164.215219 
z
" clip-path="url(#pf6f1e3a9a4)" style="fill: #0070dd"/>
    <path clip-path="url(#pf6f1e3a9a4)" style="fill: #ffcd00"/>
   </g>
   <g id="patch_3">
    <path d="M 182.960687 164.013619 
C 188.253717 164.013619 193.33067 161.910676 197.073407 158.167939 
C 200.816145 154.425202 202.919087 149.348248 202.919087 144.055219 
C 202.919087 138.762189 200.816145 133.685236 197.073407 129.942499 
C 193.33067 126.199762 188.253717 124.096819 182.960687 124.096819 
C 177.667658 124.096819 172.590705 126.199762 168.847968 129.942499 
C 165.10523 133.685236 163.002287 138.762189 163.002287 144.055219 
C 163.002287 149.348248 165.10523 154.425202 168.847968 158.167939 
C 172.590705 161.910676 177.667658 164.013619 182.960687 164.013619 
z
" clip-path="url(#pf6f1e3a9a4)" style="stroke: #000000; stroke-linejoin: miter"/>
   </g>
   <g id="matplotlib.axis_1">
    <g id="xtick_1">
     <g id="line2d_1">
      <defs>
       <path id="maa354b0c29" d="M 0 0 
L 0 3.5 
" style="stroke: #000000; stroke-width: 0.8"/>
      </defs>
      <g>
       <use xlink:href="#maa354b0c29" x="49.904687" y="277.111219" style="stroke: #000000; stroke-width: 0.8"/>
      </g>
     </g>
     <g id="text_1">
      <!-- −10 -->
      <g transform="translate(39.352344 291.709656) scale(0.1 -0.1)">
       <defs>
        <path id="DejaVuSans-2212" d="M 678 2272 
L 4684 2272 
L 4684 1741 
L 678 1741 
L 678 2272 
z
" transform="scale(0.015625)"/>
        <path id="DejaVuSans-31" d="M 794 531 
L 1825 531 
L 1825 4091 
L 703 3866 
L 703 4441 
L 1819 4666 
L 2450 4666 
L 2450 531 
L 3481 531 
L 3481 0 
L 794 0 
L 794 531 
z
" transform="scale(0.015625)"/>
        <path id="DejaVuSans-30" d="M 2034 4250 
Q 1547 4250 1301 3770 
Q 1056 3291 1056 2328 
Q 1056 1369 1301 889 
Q 1547 409 2034 409 
Q 2525 409 2770 889 
Q 3016 1369 3016 2328 
Q 3016 3291 2770 3770 
Q 2525 4250 2034 4250 
z
M 2034 4750 
Q 2819 4750 3233 4129 
Q 3647 3509 3647 2328 
Q 3647 1150 3233 529 
Q 2819 -91 2034 -91 
Q 1250 -91 836 529 
Q 422 1150 422 2328 
Q 422 3509 836 4129 
Q 1250 4750 2034 4750 
z
" transform="scale(0.015625)"/>
       </defs>
       <use xlink:href="#DejaVuSans-2212"/>
       <use xlink:href="#DejaVuSans-31" x="83.789062"/>
       <use xlink:href="#DejaVuSans-30" x="147.412109"/>
      </g>
     </g>
    </g>
    <g id="xtick_2">
     <g id="line2d_2">
      <g>
       <use xlink:href="#maa354b0c29" x="116.432687" y="277.111219" style="stroke: #000000; stroke-width: 0.8"/>
      </g>
     </g>
     <g id="text_2">
      <!-- −5 -->
      <g transform="translate(109.061594 291.709656) scale(0.1 -0.1)">
       <defs>
        <path id="DejaVuSans-35" d="M 691 4666 
L 3169 4666 
L 3169 4134 
L 1269 4134 
L 1269 2991 
Q 1406 3038 1543 3061 
Q 1681 3084 1819 3084 
Q 2600 3084 3056 2656 
Q 3513 2228 3513 1497 
Q 3513 744 3044 326 
Q 2575 -91 1722 -91 
Q 1428 -91 1123 -41 
Q 819 9 494 109 
L 494 744 
Q 775 591 1075 516 
Q 1375 441 1709 441 
Q 2250 441 2565 725 
Q 2881 1009 2881 1497 
Q 2881 1984 2565 2268 
Q 2250 2553 1709 2553 
Q 1456 2553 1204 2497 
Q 953 2441 691 2322 
L 691 4666 
z
" transform="scale(0.015625)"/>
       </defs>
       <use xlink:href="#DejaVuSans-2212"/>
       <use xlink:href="#DejaVuSans-35" x="83.789062"/>
      </g>
     </g>
    </g>
    <g id="xtick_3">
     <g id="line2d_3">
      <g>
       <use xlink:href="#maa354b0c29" x="182.960687" y="277.111219" style="stroke: #000000; stroke-width: 0.8"/>
      </g>
     </g>
     <g id="text_3">
      <!-- 0 -->
      <g transform="translate(179.779437 291.709656) scale(0.1 -0.1)">
       <use xlink:href="#DejaVuSans-30"/>
      </g>
     </g>
    </g>
    <g id="xtick_4">
     <g id="line2d_4">
      <g>
       <use xlink:href="#maa354b0c29" x="249.488687" y="277.111219" style="stroke: #000000; stroke-width: 0.8"/>
      </g>
     </g>
     <g id="text_4">
      <!-- 5 -->
      <g transform="translate(246.307437 291.709656) scale(0.1 -0.1)">
       <use xlink:href="#DejaVuSans-35"/>
      </g>
     </g>
    </g>
    <g id="xtick_5">
     <g id="line2d_5">
      <g>
       <use xlink:href="#maa354b0c29" x="316.016687" y="277.111219" style="stroke: #000000; stroke-width: 0.8"/>
      </g>
     </g>
     <g id="text_5">
      <!-- 10 -->
      <g transform="translate(309.654187 291.709656) scale(0.1 -0.1)">
       <use xlink:href="#DejaVuSans-31"/>
       <use xlink:href="#DejaVuSans-30" x="63.623047"/>
      </g>
     </g>
    </g>
    <g id="text_6">
     <!-- $l_x'$ -->
     <g transform="translate(179.360687 305.589344) scale(0.1 -0.1)">
      <defs>
       <path id="DejaVuSans-Oblique-6c" d="M 1172 4863 
L 1747 4863 
L 800 0 
L 225 0 
L 1172 4863 
z
" transform="scale(0.015625)"/>
       <path id="Cmsy10-30" d="M 225 347 
Q 184 359 184 409 
L 966 3316 
Q 1003 3434 1093 3506 
Q 1184 3578 1300 3578 
Q 1450 3578 1564 3479 
Q 1678 3381 1678 3231 
Q 1678 3166 1644 3084 
L 488 319 
Q 466 275 428 275 
Q 394 275 320 306 
Q 247 338 225 347 
z
" transform="scale(0.015625)"/>
       <path id="DejaVuSans-Oblique-78" d="M 3841 3500 
L 2234 1784 
L 3219 0 
L 2559 0 
L 1819 1388 
L 531 0 
L -166 0 
L 1556 1844 
L 641 3500 
L 1300 3500 
L 1972 2234 
L 3144 3500 
L 3841 3500 
z
" transform="scale(0.015625)"/>
      </defs>
      <use xlink:href="#DejaVuSans-Oblique-6c" transform="translate(0 0.584375)"/>
      <use xlink:href="#Cmsy10-30" transform="translate(35.230911 38.865625) scale(0.7)"/>
      <use xlink:href="#DejaVuSans-Oblique-78" transform="translate(27.783203 -26.759375) scale(0.7)"/>
     </g>
    </g>
   </g>
   <g id="matplotlib.axis_2">
    <g id="ytick_1">
     <g id="line2d_6">
      <defs>
       <path id="m111b91053c" d="M 0 0 
L -3.5 0 
" style="stroke: #000000; stroke-width: 0.8"/>
      </defs>
      <g>
       <use xlink:href="#m111b91053c" x="49.904688" y="277.111219" style="stroke: #000000; stroke-width: 0.8"/>
      </g>
     </g>
     <g id="text_7">
      <!-- −10 -->
      <g transform="translate(21.8 280.910437) scale(0.1 -0.1)">
       <use xlink:href="#DejaVuSans-2212"/>
       <use xlink:href="#DejaVuSans-31" x="83.789062"/>
       <use xlink:href="#DejaVuSans-30" x="147.412109"/>
      </g>
     </g>
    </g>
    <g id="ytick_2">
     <g id="line2d_7">
      <g>
       <use xlink:href="#m111b91053c" x="49.904688" y="210.583219" style="stroke: #000000; stroke-width: 0.8"/>
      </g>
     </g>
     <g id="text_8">
      <!-- −5 -->
      <g transform="translate(28.1625 214.382437) scale(0.1 -0.1)">
       <use xlink:href="#DejaVuSans-2212"/>
       <use xlink:href="#DejaVuSans-35" x="83.789062"/>
      </g>
     </g>
    </g>
    <g id="ytick_3">
     <g id="line2d_8">
      <g>
       <use xlink:href="#m111b91053c" x="49.904688" y="144.055219" style="stroke: #000000; stroke-width: 0.8"/>
      </g>
     </g>
     <g id="text_9">
      <!-- 0 -->
      <g transform="translate(36.542187 147.854437) scale(0.1 -0.1)">
       <use xlink:href="#DejaVuSans-30"/>
      </g>
     </g>
    </g>
    <g id="ytick_4">
     <g id="line2d_9">
      <g>
       <use xlink:href="#m111b91053c" x="49.904688" y="77.527219" style="stroke: #000000; stroke-width: 0.8"/>
      </g>
     </g>
     <g id="text_10">
      <!-- 5 -->
      <g transform="translate(36.542187 81.326437) scale(0.1 -0.1)">
       <use xlink:href="#DejaVuSans-35"/>
      </g>
     </g>
    </g>
    <g id="ytick_5">
     <g id="line2d_10">
      <g>
       <use xlink:href="#m111b91053c" x="49.904688" y="10.999219" style="stroke: #000000; stroke-width: 0.8"/>
      </g>
     </g>
     <g id="text_11">
      <!-- 10 -->
      <g transform="translate(30.179688 14.798437) scale(0.1 -0.1)">
       <use xlink:href="#DejaVuSans-31"/>
       <use xlink:href="#DejaVuSans-30" x="63.623047"/>
      </g>
     </g>
    </g>
    <g id="text_12">
     <!-- $l_z'$ -->
     <g transform="translate(15 147.455219) rotate(-90) scale(0.1 -0.1)">
      <defs>
       <path id="DejaVuSans-Oblique-7a" d="M 744 3500 
L 3475 3500 
L 3372 2975 
L 738 459 
L 2913 459 
L 2822 0 
L -19 0 
L 84 525 
L 2719 3041 
L 653 3041 
L 744 3500 
z
" transform="scale(0.015625)"/>
      </defs>
      <use xlink:href="#DejaVuSans-Oblique-6c" transform="translate(0 0.584375)"/>
      <use xlink:href="#Cmsy10-30" transform="translate(35.230911 38.865625) scale(0.7)"/>
      <use xlink:href="#DejaVuSans-Oblique-7a" transform="translate(27.783203 -26.759375) scale(0.7)"/>
     </g>
    </g>
   </g>
   <g id="patch_4">
    <path d="M 49.904688 277.111219 
L 49.904688 10.999219 
" style="fill: none; stroke: #000000; stroke-width: 0.8; stroke-linejoin: miter; stroke-linecap: square"/>
   </g>
   <g id="patch_5">
    <path d="M 316.016687 277.111219 
L 316.016687 10.999219 
" style="fill: none; stroke: #000000; stroke-width: 0.8; stroke-linejoin: miter; stroke-linecap: square"/>
   </g>
   <g id="patch_6">
    <path d="M 49.904687 277.111219 
L 316.016687 277.111219 
" style="fill: none; stroke: #000000; stroke-width: 0.8; stroke-linejoin: miter; stroke-linecap: square"/>
   </g>
   <g id="patch_7">
    <path d="M 49.904687 10.999219 
L 316.016687 10.999219 
" style="fill: none; stroke: #000000; stroke-width: 0.8; stroke-linejoin: miter; stroke-linecap: square"/>
   </g>
  </g>
  <g id="axes_2">
   <g id="patch_8">
    <path d="M 343.664688 277.111219 
L 356.970288 277.111219 
L 356.970288 10.999219 
L 343.664688 10.999219 
L 343.664688 277.111219 
z
" style="fill: none"/>
   </g>
   <g id="QuadMesh_1">
    <path d="M 343.664688 277.111219 
L 356.970288 277.111219 
L 356.970288 144.055219 
L 343.664688 144.055219 
L 343.664688 277.111219 
" clip-path="url(#p5a39d32cd0)" style="fill: #0070dd"/>
    <path d="M 343.664688 144.055219 
L 356.970288 144.055219 
L 356.970288 10.999219 
L 343.664688 10.999219 
L 343.664688 144.055219 
" clip-path="url(#p5a39d32cd0)" style="fill: #ffcd00"/>
   </g>
   <g id="matplotlib.axis_3"/>
   <g id="matplotlib.axis_4">
    <g id="ytick_6">
     <g id="line2d_11">
      <defs>
       <path id="mfe0d812e55" d="M 0 0 
L 3.5 0 
" style="stroke: #000000; stroke-width: 0.8"/>
      </defs>
      <g>
       <use xlink:href="#mfe0d812e55" x="356.970288" y="277.111219" style="stroke: #000000; stroke-width: 0.8"/>
      </g>
     </g>
     <g id="text_13">
      <!-- -0.00 -->
      <g transform="translate(363.970288 280.910437) scale(0.1 -0.1)">
       <defs>
        <path id="DejaVuSans-2d" d="M 313 2009 
L 1997 2009 
L 1997 1497 
L 313 1497 
L 313 2009 
z
" transform="scale(0.015625)"/>
        <path id="DejaVuSans-2e" d="M 684 794 
L 1344 794 
L 1344 0 
L 684 0 
L 684 794 
z
" transform="scale(0.015625)"/>
       </defs>
       <use xlink:href="#DejaVuSans-2d"/>
       <use xlink:href="#DejaVuSans-30" x="36.083984"/>
       <use xlink:href="#DejaVuSans-2e" x="99.707031"/>
       <use xlink:href="#DejaVuSans-30" x="131.494141"/>
       <use xlink:href="#DejaVuSans-30" x="195.117188"/>
      </g>
     </g>
    </g>
    <g id="ytick_7">
     <g id="line2d_12">
      <g>
       <use xlink:href="#mfe0d812e55" x="356.970288" y="144.055219" style="stroke: #000000; stroke-width: 0.8"/>
      </g>
     </g>
     <g id="text_14">
      <!-- 0.00 -->
      <g transform="translate(363.970288 147.854437) scale(0.1 -0.1)">
       <use xlink:href="#DejaVuSans-30"/>
       <use xlink:href="#DejaVuSans-2e" x="63.623047"/>
       <use xlink:href="#DejaVuSans-30" x="95.410156"/>
       <use xlink:href="#DejaVuSans-30" x="159.033203"/>
      </g>
     </g>
    </g>
    <g id="ytick_8">
     <g id="line2d_13">
      <g>
       <use xlink:href="#mfe0d812e55" x="356.970288" y="10.999219" style="stroke: #000000; stroke-width: 0.8"/>
      </g>
     </g>
     <g id="text_15">
      <!-- 0.00 -->
      <g transform="translate(363.970288 14.798437) scale(0.1 -0.1)">
       <use xlink:href="#DejaVuSans-30"/>
       <use xlink:href="#DejaVuSans-2e" x="63.623047"/>
       <use xlink:href="#DejaVuSans-30" x="95.410156"/>
       <use xlink:href="#DejaVuSans-30" x="159.033203"/>
      </g>
     </g>
    </g>
   </g>
   <g id="LineCollection_1"/>
   <g id="patch_9">
    <path d="M 343.664688 277.111219 
L 350.317488 277.111219 
L 356.970288 277.111219 
L 356.970288 10.999219 
L 350.317488 10.999219 
L 343.664688 10.999219 
L 343.664688 277.111219 
z
" style="fill: none; stroke: #000000; stroke-width: 0.8; stroke-linejoin: miter; stroke-linecap: square"/>
   </g>
  </g>
 </g>
 <defs>
  <clipPath id="pf6f1e3a9a4">
   <rect x="49.904688" y="10.999219" width="266.112" height="266.112"/>
  </clipPath>
  <clipPath id="p5a39d32cd0">
   <rect x="343.664688" y="10.999219" width="13.3056" height="266.112"/>
  </clipPath>
 </defs>
</svg>
