<svg width="4405" height="2478" xmlns="http://www.w3.org/2000/svg" xmlns:xlink="http://www.w3.org/1999/xlink" xml:space="preserve" overflow="hidden"><defs><clipPath id="clip0"><rect x="-1" y="-3" width="4405" height="2478"/></clipPath><linearGradient x1="2199" y1="0" x2="2199" y2="2475" gradientUnits="userSpaceOnUse" spreadMethod="reflect" id="fill1"><stop offset="0" stop-color="#D9D9D9"/><stop offset="0.22" stop-color="#A6A6A6"/><stop offset="0.92" stop-color="#BFBFBF"/><stop offset="1" stop-color="#0D0D0D"/></linearGradient><linearGradient x1="1090" y1="1131" x2="1577.2" y2="1131" gradientUnits="userSpaceOnUse" spreadMethod="reflect" id="stroke2"><stop offset="0" stop-color="#A6A6A6" stop-opacity="0"/><stop offset="0.28" stop-color="#767171"/><stop offset="0.81" stop-color="#262626"/><stop offset="1"/></linearGradient><linearGradient x1="1095" y1="1151" x2="1582.2" y2="1151" gradientUnits="userSpaceOnUse" spreadMethod="reflect" id="stroke3"><stop offset="0" stop-color="#A6A6A6" stop-opacity="0"/><stop offset="0.28" stop-color="#767171"/><stop offset="0.81" stop-color="#262626"/><stop offset="1"/></linearGradient><linearGradient x1="1109" y1="1171" x2="1596.2" y2="1171" gradientUnits="userSpaceOnUse" spreadMethod="reflect" id="stroke4"><stop offset="0" stop-color="#A6A6A6" stop-opacity="0"/><stop offset="0.28" stop-color="#767171"/><stop offset="0.81" stop-color="#262626"/><stop offset="1"/></linearGradient><linearGradient x1="1131" y1="1192" x2="1618.2" y2="1192" gradientUnits="userSpaceOnUse" spreadMethod="reflect" id="stroke5"><stop offset="0" stop-color="#A6A6A6" stop-opacity="0"/><stop offset="0.28" stop-color="#767171"/><stop offset="0.81" stop-color="#262626"/><stop offset="1"/></linearGradient><linearGradient x1="1167" y1="1212" x2="1654.2" y2="1212" gradientUnits="userSpaceOnUse" spreadMethod="reflect" id="stroke6"><stop offset="0" stop-color="#A6A6A6" stop-opacity="0"/><stop offset="0.28" stop-color="#767171"/><stop offset="0.81" stop-color="#262626"/><stop offset="1"/></linearGradient><linearGradient x1="1225" y1="1232" x2="1712.21" y2="1232" gradientUnits="userSpaceOnUse" spreadMethod="reflect" id="stroke7"><stop offset="0" stop-color="#A6A6A6" stop-opacity="0"/><stop offset="0.28" stop-color="#767171"/><stop offset="0.81" stop-color="#262626"/><stop offset="1"/></linearGradient><linearGradient x1="-3.8603e-06" y1="0.000180446" x2="487.205" y2="0.000180446" gradientUnits="userSpaceOnUse" spreadMethod="reflect" id="stroke8"><stop offset="0" stop-color="#A6A6A6" stop-opacity="0"/><stop offset="0.28" stop-color="#767171"/><stop offset="0.81" stop-color="#262626"/><stop offset="1"/></linearGradient><linearGradient x1="-3.8603e-06" y1="0.000180446" x2="487.205" y2="0.000180446" gradientUnits="userSpaceOnUse" spreadMethod="reflect" id="stroke9"><stop offset="0" stop-color="#A6A6A6" stop-opacity="0"/><stop offset="0.28" stop-color="#767171"/><stop offset="0.81" stop-color="#262626"/><stop offset="1"/></linearGradient><linearGradient x1="-3.8603e-06" y1="0.000180446" x2="487.205" y2="0.000180446" gradientUnits="userSpaceOnUse" spreadMethod="reflect" id="stroke10"><stop offset="0" stop-color="#A6A6A6" stop-opacity="0"/><stop offset="0.28" stop-color="#767171"/><stop offset="0.81" stop-color="#262626"/><stop offset="1"/></linearGradient><linearGradient x1="-3.8603e-06" y1="0.000180446" x2="487.205" y2="0.000180446" gradientUnits="userSpaceOnUse" spreadMethod="reflect" id="stroke11"><stop offset="0" stop-color="#A6A6A6" stop-opacity="0"/><stop offset="0.28" stop-color="#767171"/><stop offset="0.81" stop-color="#262626"/><stop offset="1"/></linearGradient><linearGradient x1="-3.8603e-06" y1="0.000180446" x2="487.205" y2="0.000180446" gradientUnits="userSpaceOnUse" spreadMethod="reflect" id="stroke12"><stop offset="0" stop-color="#A6A6A6" stop-opacity="0"/><stop offset="0.28" stop-color="#767171"/><stop offset="0.81" stop-color="#262626"/><stop offset="1"/></linearGradient><linearGradient x1="-3.8603e-06" y1="0.000180446" x2="487.205" y2="0.000180446" gradientUnits="userSpaceOnUse" spreadMethod="reflect" id="stroke13"><stop offset="0" stop-color="#A6A6A6" stop-opacity="0"/><stop offset="0.28" stop-color="#767171"/><stop offset="0.81" stop-color="#262626"/><stop offset="1"/></linearGradient><linearGradient x1="1075" y1="1353" x2="1562.2" y2="1353" gradientUnits="userSpaceOnUse" spreadMethod="reflect" id="stroke14"><stop offset="0" stop-color="#A6A6A6" stop-opacity="0"/><stop offset="0.55" stop-color="#767171"/><stop offset="0.81" stop-color="#262626"/><stop offset="1"/></linearGradient><linearGradient x1="1080" y1="1369" x2="1567.2" y2="1369" gradientUnits="userSpaceOnUse" spreadMethod="reflect" id="stroke15"><stop offset="0" stop-color="#A6A6A6" stop-opacity="0"/><stop offset="0.55" stop-color="#767171"/><stop offset="0.81" stop-color="#262626"/><stop offset="1"/></linearGradient><linearGradient x1="1094" y1="1385" x2="1581.2" y2="1385" gradientUnits="userSpaceOnUse" spreadMethod="reflect" id="stroke16"><stop offset="0" stop-color="#A6A6A6" stop-opacity="0"/><stop offset="0.55" stop-color="#767171"/><stop offset="0.81" stop-color="#262626"/><stop offset="1"/></linearGradient><linearGradient x1="1116" y1="1401" x2="1603.2" y2="1401" gradientUnits="userSpaceOnUse" spreadMethod="reflect" id="stroke17"><stop offset="0" stop-color="#A6A6A6" stop-opacity="0"/><stop offset="0.55" stop-color="#767171"/><stop offset="0.81" stop-color="#262626"/><stop offset="1"/></linearGradient><linearGradient x1="-3.8603e-06" y1="0.000180446" x2="487.205" y2="0.000180446" gradientUnits="userSpaceOnUse" spreadMethod="reflect" id="stroke18"><stop offset="0" stop-color="#A6A6A6" stop-opacity="0"/><stop offset="0.55" stop-color="#767171"/><stop offset="0.81" stop-color="#262626"/><stop offset="1"/></linearGradient><linearGradient x1="-3.8603e-06" y1="0.000180446" x2="487.205" y2="0.000180446" gradientUnits="userSpaceOnUse" spreadMethod="reflect" id="stroke19"><stop offset="0" stop-color="#A6A6A6" stop-opacity="0"/><stop offset="0.55" stop-color="#767171"/><stop offset="0.81" stop-color="#262626"/><stop offset="1"/></linearGradient><linearGradient x1="-3.8603e-06" y1="0.000180446" x2="487.205" y2="0.000180446" gradientUnits="userSpaceOnUse" spreadMethod="reflect" id="stroke20"><stop offset="0" stop-color="#A6A6A6" stop-opacity="0"/><stop offset="0.55" stop-color="#767171"/><stop offset="0.81" stop-color="#262626"/><stop offset="1"/></linearGradient><linearGradient x1="-3.8603e-06" y1="0.000180446" x2="487.205" y2="0.000180446" gradientUnits="userSpaceOnUse" spreadMethod="reflect" id="stroke21"><stop offset="0" stop-color="#A6A6A6" stop-opacity="0"/><stop offset="0.55" stop-color="#767171"/><stop offset="0.81" stop-color="#262626"/><stop offset="1"/></linearGradient><linearGradient x1="-7.62632e-06" y1="0.000180446" x2="138.422" y2="0.000180446" gradientUnits="userSpaceOnUse" spreadMethod="reflect" id="stroke22"><stop offset="0" stop-color="#AFABAB" stop-opacity="0"/><stop offset="0.48" stop-color="#595959"/><stop offset="0.64" stop-color="#3E3E3F"/><stop offset="1"/></linearGradient><linearGradient x1="-7.62632e-06" y1="0.000180446" x2="138.422" y2="0.000180446" gradientUnits="userSpaceOnUse" spreadMethod="reflect" id="stroke23"><stop offset="0" stop-color="#AFABAB" stop-opacity="0"/><stop offset="0.48" stop-color="#595959"/><stop offset="0.64" stop-color="#3E3E3F"/><stop offset="1"/></linearGradient><linearGradient x1="-7.62632e-06" y1="0.000180446" x2="138.422" y2="0.000180446" gradientUnits="userSpaceOnUse" spreadMethod="reflect" id="stroke24"><stop offset="0" stop-color="#AFABAB" stop-opacity="0"/><stop offset="0.48" stop-color="#595959"/><stop offset="0.64" stop-color="#3E3E3F"/><stop offset="1"/></linearGradient><linearGradient x1="-7.62632e-06" y1="0.000180446" x2="138.422" y2="0.000180446" gradientUnits="userSpaceOnUse" spreadMethod="reflect" id="stroke25"><stop offset="0" stop-color="#AFABAB" stop-opacity="0"/><stop offset="0.48" stop-color="#595959"/><stop offset="0.64" stop-color="#3E3E3F"/><stop offset="1"/></linearGradient><linearGradient x1="-7.62632e-06" y1="0.000180446" x2="138.422" y2="0.000180446" gradientUnits="userSpaceOnUse" spreadMethod="reflect" id="stroke26"><stop offset="0" stop-color="#AFABAB" stop-opacity="0"/><stop offset="0.48" stop-color="#595959"/><stop offset="0.64" stop-color="#3E3E3F"/><stop offset="1"/></linearGradient><linearGradient x1="-7.62632e-06" y1="0.000180446" x2="138.422" y2="0.000180446" gradientUnits="userSpaceOnUse" spreadMethod="reflect" id="stroke27"><stop offset="0" stop-color="#AFABAB" stop-opacity="0"/><stop offset="0.48" stop-color="#595959"/><stop offset="0.64" stop-color="#3E3E3F"/><stop offset="1"/></linearGradient><linearGradient x1="-7.62632e-06" y1="0.000180446" x2="138.422" y2="0.000180446" gradientUnits="userSpaceOnUse" spreadMethod="reflect" id="stroke28"><stop offset="0" stop-color="#AFABAB" stop-opacity="0"/><stop offset="0.48" stop-color="#595959"/><stop offset="0.64" stop-color="#3E3E3F"/><stop offset="1"/></linearGradient><linearGradient x1="-7.62632e-06" y1="0.000180446" x2="138.422" y2="0.000180446" gradientUnits="userSpaceOnUse" spreadMethod="reflect" id="stroke29"><stop offset="0" stop-color="#AFABAB" stop-opacity="0"/><stop offset="0.48" stop-color="#595959"/><stop offset="0.64" stop-color="#3E3E3F"/><stop offset="1"/></linearGradient><linearGradient x1="-7.62632e-06" y1="0.000180446" x2="138.422" y2="0.000180446" gradientUnits="userSpaceOnUse" spreadMethod="reflect" id="stroke30"><stop offset="0" stop-color="#AFABAB" stop-opacity="0"/><stop offset="0.48" stop-color="#595959"/><stop offset="0.64" stop-color="#3E3E3F"/><stop offset="1"/></linearGradient><linearGradient x1="-7.62632e-06" y1="0.000180446" x2="138.422" y2="0.000180446" gradientUnits="userSpaceOnUse" spreadMethod="reflect" id="stroke31"><stop offset="0" stop-color="#AFABAB" stop-opacity="0"/><stop offset="0.48" stop-color="#595959"/><stop offset="0.64" stop-color="#3E3E3F"/><stop offset="1"/></linearGradient><linearGradient x1="-7.62632e-06" y1="0.000180446" x2="138.422" y2="0.000180446" gradientUnits="userSpaceOnUse" spreadMethod="reflect" id="stroke32"><stop offset="0" stop-color="#AFABAB" stop-opacity="0"/><stop offset="0.48" stop-color="#595959"/><stop offset="0.64" stop-color="#3E3E3F"/><stop offset="1"/></linearGradient><linearGradient x1="-7.62632e-06" y1="0.000180446" x2="138.422" y2="0.000180446" gradientUnits="userSpaceOnUse" spreadMethod="reflect" id="stroke33"><stop offset="0" stop-color="#AFABAB" stop-opacity="0"/><stop offset="0.48" stop-color="#595959"/><stop offset="0.64" stop-color="#3E3E3F"/><stop offset="1"/></linearGradient><linearGradient x1="-7.62632e-06" y1="0.000180446" x2="138.422" y2="0.000180446" gradientUnits="userSpaceOnUse" spreadMethod="reflect" id="stroke34"><stop offset="0" stop-color="#AFABAB" stop-opacity="0"/><stop offset="0.48" stop-color="#595959"/><stop offset="0.64" stop-color="#3E3E3F"/><stop offset="1"/></linearGradient><linearGradient x1="-7.62632e-06" y1="0.000180446" x2="138.422" y2="0.000180446" gradientUnits="userSpaceOnUse" spreadMethod="reflect" id="stroke35"><stop offset="0" stop-color="#AFABAB" stop-opacity="0"/><stop offset="0.48" stop-color="#595959"/><stop offset="0.64" stop-color="#3E3E3F"/><stop offset="1"/></linearGradient><linearGradient x1="-7.62632e-06" y1="0.000180446" x2="138.422" y2="0.000180446" gradientUnits="userSpaceOnUse" spreadMethod="reflect" id="stroke36"><stop offset="0" stop-color="#AFABAB" stop-opacity="0"/><stop offset="0.48" stop-color="#595959"/><stop offset="0.64" stop-color="#3E3E3F"/><stop offset="1"/></linearGradient><linearGradient x1="-7.62632e-06" y1="0.000180446" x2="138.422" y2="0.000180446" gradientUnits="userSpaceOnUse" spreadMethod="reflect" id="stroke37"><stop offset="0" stop-color="#AFABAB" stop-opacity="0"/><stop offset="0.48" stop-color="#595959"/><stop offset="0.64" stop-color="#3E3E3F"/><stop offset="1"/></linearGradient><linearGradient x1="-7.62632e-06" y1="0.000180446" x2="138.422" y2="0.000180446" gradientUnits="userSpaceOnUse" spreadMethod="reflect" id="stroke38"><stop offset="0" stop-color="#AFABAB" stop-opacity="0"/><stop offset="0.48" stop-color="#595959"/><stop offset="0.64" stop-color="#3E3E3F"/><stop offset="1"/></linearGradient><linearGradient x1="-7.62632e-06" y1="0.000180446" x2="138.422" y2="0.000180446" gradientUnits="userSpaceOnUse" spreadMethod="reflect" id="stroke39"><stop offset="0" stop-color="#AFABAB" stop-opacity="0"/><stop offset="0.48" stop-color="#595959"/><stop offset="0.64" stop-color="#3E3E3F"/><stop offset="1"/></linearGradient><linearGradient x1="-7.62632e-06" y1="0.000180446" x2="138.422" y2="0.000180446" gradientUnits="userSpaceOnUse" spreadMethod="reflect" id="stroke40"><stop offset="0" stop-color="#AFABAB" stop-opacity="0"/><stop offset="0.48" stop-color="#595959"/><stop offset="0.64" stop-color="#3E3E3F"/><stop offset="1"/></linearGradient><linearGradient x1="-7.62632e-06" y1="0.000180446" x2="138.422" y2="0.000180446" gradientUnits="userSpaceOnUse" spreadMethod="reflect" id="stroke41"><stop offset="0" stop-color="#AFABAB" stop-opacity="0"/><stop offset="0.48" stop-color="#595959"/><stop offset="0.64" stop-color="#3E3E3F"/><stop offset="1"/></linearGradient><linearGradient x1="-7.62632e-06" y1="0.000180446" x2="138.422" y2="0.000180446" gradientUnits="userSpaceOnUse" spreadMethod="reflect" id="stroke42"><stop offset="0" stop-color="#AFABAB" stop-opacity="0"/><stop offset="0.48" stop-color="#595959"/><stop offset="0.64" stop-color="#3E3E3F"/><stop offset="1"/></linearGradient><linearGradient x1="-7.62632e-06" y1="0.000180446" x2="138.422" y2="0.000180446" gradientUnits="userSpaceOnUse" spreadMethod="reflect" id="stroke43"><stop offset="0" stop-color="#AFABAB" stop-opacity="0"/><stop offset="0.48" stop-color="#595959"/><stop offset="0.64" stop-color="#3E3E3F"/><stop offset="1"/></linearGradient><linearGradient x1="-7.62632e-06" y1="0.000180446" x2="138.422" y2="0.000180446" gradientUnits="userSpaceOnUse" spreadMethod="reflect" id="stroke44"><stop offset="0" stop-color="#AFABAB" stop-opacity="0"/><stop offset="0.48" stop-color="#595959"/><stop offset="0.64" stop-color="#3E3E3F"/><stop offset="1"/></linearGradient><linearGradient x1="-7.62632e-06" y1="0.000180446" x2="138.422" y2="0.000180446" gradientUnits="userSpaceOnUse" spreadMethod="reflect" id="stroke45"><stop offset="0" stop-color="#AFABAB" stop-opacity="0"/><stop offset="0.48" stop-color="#595959"/><stop offset="0.64" stop-color="#3E3E3F"/><stop offset="1"/></linearGradient><linearGradient x1="-7.62632e-06" y1="0.000180446" x2="138.422" y2="0.000180446" gradientUnits="userSpaceOnUse" spreadMethod="reflect" id="stroke46"><stop offset="0" stop-color="#AFABAB" stop-opacity="0"/><stop offset="0.48" stop-color="#595959"/><stop offset="0.64" stop-color="#3E3E3F"/><stop offset="1"/></linearGradient><linearGradient x1="-7.62632e-06" y1="0.000180446" x2="138.422" y2="0.000180446" gradientUnits="userSpaceOnUse" spreadMethod="reflect" id="stroke47"><stop offset="0" stop-color="#AFABAB" stop-opacity="0"/><stop offset="0.48" stop-color="#595959"/><stop offset="0.64" stop-color="#3E3E3F"/><stop offset="1"/></linearGradient><linearGradient x1="-7.62632e-06" y1="0.000180446" x2="138.422" y2="0.000180446" gradientUnits="userSpaceOnUse" spreadMethod="reflect" id="stroke48"><stop offset="0" stop-color="#AFABAB" stop-opacity="0"/><stop offset="0.48" stop-color="#595959"/><stop offset="0.64" stop-color="#3E3E3F"/><stop offset="1"/></linearGradient></defs><g clip-path="url(#clip0)" transform="translate(1 3)"><rect x="-1.00003" y="0" width="4400" height="2475" fill="url(#fill1)"/><path d="M0 0 4393.52 0.000360892" stroke="#7F7F7F" stroke-width="5.72917" stroke-miterlimit="8" stroke-dasharray="5.72917 5.72917" fill="none" fill-rule="evenodd" transform="matrix(0.999973 -0.00730123 -0.00730123 -0.999973 5.72059 2402.71)"/><path d="M0 0 4393.4 32.0783" stroke="#7F7F7F" stroke-width="5.72917" stroke-miterlimit="8" stroke-dasharray="5.72917 5.72917" fill="none" fill-rule="evenodd" transform="matrix(1 0 0 -1 5.99984 2307.08)"/><path d="M0 0 4393.4 32.0783" stroke="#7F7F7F" stroke-width="5.72917" stroke-miterlimit="8" stroke-dasharray="5.72917 5.72917" fill="none" fill-rule="evenodd" transform="matrix(1 0 0 -1 5.99984 2212.08)"/><path d="M0 0 4393.4 32.0783" stroke="#7F7F7F" stroke-width="5.72917" stroke-miterlimit="8" stroke-dasharray="5.72917 5.72917" fill="none" fill-rule="evenodd" transform="matrix(1 0 0 -1 5.99984 2117.08)"/><path d="M0 0 4393.4 32.0783" stroke="#7F7F7F" stroke-width="5.72917" stroke-miterlimit="8" stroke-dasharray="5.72917 5.72917" fill="none" fill-rule="evenodd" transform="matrix(1 0 0 -1 5.99984 2022.08)"/><path d="M0 0 4393.4 32.0783" stroke="#7F7F7F" stroke-width="5.72917" stroke-miterlimit="8" stroke-dasharray="5.72917 5.72917" fill="none" fill-rule="evenodd" transform="matrix(1 0 0 -1 5.99984 1926.08)"/><path d="M0 0 4393.4 32.0783" stroke="#7F7F7F" stroke-width="5.72917" stroke-miterlimit="8" stroke-dasharray="5.72917 5.72917" fill="none" fill-rule="evenodd" transform="matrix(1 0 0 -1 5.99984 1831.08)"/><path d="M0 0 4393.4 32.0783" stroke="#7F7F7F" stroke-width="5.72917" stroke-miterlimit="8" stroke-dasharray="5.72917 5.72917" fill="none" fill-rule="evenodd" transform="matrix(1 0 0 -1 5.99984 1736.08)"/><path d="M0 0 4393.4 32.0783" stroke="#7F7F7F" stroke-width="5.72917" stroke-miterlimit="8" stroke-dasharray="5.72917 5.72917" fill="none" fill-rule="evenodd" transform="matrix(1 0 0 -1 5.99984 1641.08)"/><path d="M0 0 4393.4 32.0783" stroke="#7F7F7F" stroke-width="5.72917" stroke-miterlimit="8" stroke-dasharray="5.72917 5.72917" fill="none" fill-rule="evenodd" transform="matrix(1 0 0 -1 5.99984 1545.08)"/><path d="M0 0 4393.4 32.0783" stroke="#7F7F7F" stroke-width="5.72917" stroke-miterlimit="8" stroke-dasharray="5.72917 5.72917" fill="none" fill-rule="evenodd" transform="matrix(1 0 0 -1 5.99984 1450.08)"/><path d="M0 0 4393.4 32.0783" stroke="#7F7F7F" stroke-width="5.72917" stroke-miterlimit="8" stroke-dasharray="5.72917 5.72917" fill="none" fill-rule="evenodd" transform="matrix(1 0 0 -1 5.99984 1355.08)"/><path d="M0 0 4393.4 32.0783" stroke="#7F7F7F" stroke-width="5.72917" stroke-miterlimit="8" stroke-dasharray="5.72917 5.72917" fill="none" fill-rule="evenodd" transform="matrix(1 0 0 -1 5.99984 1260.08)"/><path d="M0 0 4393.4 32.0783" stroke="#7F7F7F" stroke-width="5.72917" stroke-miterlimit="8" stroke-dasharray="5.72917 5.72917" fill="none" fill-rule="evenodd" transform="matrix(1 0 0 -1 5.99984 1165.08)"/><path d="M0 0 4393.4 32.0783" stroke="#7F7F7F" stroke-width="5.72917" stroke-miterlimit="8" stroke-dasharray="5.72917 5.72917" fill="none" fill-rule="evenodd" transform="matrix(1 0 0 -1 5.99984 1069.08)"/><path d="M0 0 4393.4 32.0783" stroke="#7F7F7F" stroke-width="5.72917" stroke-miterlimit="8" stroke-dasharray="5.72917 5.72917" fill="none" fill-rule="evenodd" transform="matrix(1 0 0 -1 5.99984 974.078)"/><path d="M0 0 4393.4 32.0783" stroke="#7F7F7F" stroke-width="5.72917" stroke-miterlimit="8" stroke-dasharray="5.72917 5.72917" fill="none" fill-rule="evenodd" transform="matrix(1 0 0 -1 5.99984 879.078)"/><path d="M0 0 4394.28 20.2194" stroke="#7F7F7F" stroke-width="5.72917" stroke-miterlimit="8" stroke-dasharray="5.72917 5.72917" fill="none" fill-rule="evenodd" transform="matrix(1 0 0 -1 5.99984 783.219)"/><path d="M0 0 4393.4 12.0119" stroke="#7F7F7F" stroke-width="5.72917" stroke-miterlimit="8" stroke-dasharray="5.72917 5.72917" fill="none" fill-rule="evenodd" transform="matrix(1 0 0 -1 5.99984 688.012)"/><path d="M0 0 4394.28 21.8318" stroke="#7F7F7F" stroke-width="5.72917" stroke-miterlimit="8" stroke-dasharray="5.72917 5.72917" fill="none" fill-rule="evenodd" transform="matrix(1 0 0 -1 5.99984 592.832)"/><path d="M5.99984 498 4400.28 498" stroke="#7F7F7F" stroke-width="5.72917" stroke-miterlimit="8" stroke-dasharray="5.72917 5.72917" fill="none" fill-rule="evenodd"/><path d="M5.99984 403 4400.28 403" stroke="#7F7F7F" stroke-width="5.72917" stroke-miterlimit="8" stroke-dasharray="5.72917 5.72917" fill="none" fill-rule="evenodd"/><path d="M5.99984 307 4400.28 307" stroke="#7F7F7F" stroke-width="5.72917" stroke-miterlimit="8" stroke-dasharray="5.72917 5.72917" fill="none" fill-rule="evenodd"/><path d="M5.99984 212 4399.4 212" stroke="#7F7F7F" stroke-width="5.72917" stroke-miterlimit="8" stroke-dasharray="5.72917 5.72917" fill="none" fill-rule="evenodd"/><path d="M0 0 4394.28 3.64285" stroke="#7F7F7F" stroke-width="5.72917" stroke-miterlimit="8" stroke-dasharray="5.72917 5.72917" fill="none" fill-rule="evenodd" transform="matrix(1 0 0 -1 5.99984 116.643)"/><path d="M2270 2456.62 2270 9" stroke="#7F7F7F" stroke-width="5.72917" stroke-miterlimit="8" stroke-dasharray="5.72917 5.72917" fill="none" fill-rule="evenodd"/><path d="M2104 2456.62 2104 9" stroke="#7F7F7F" stroke-width="5.72917" stroke-miterlimit="8" stroke-dasharray="5.72917 5.72917" fill="none" fill-rule="evenodd"/><path d="M1937 2455.62 1937 8" stroke="#7F7F7F" stroke-width="5.72917" stroke-miterlimit="8" stroke-dasharray="5.72917 5.72917" fill="none" fill-rule="evenodd"/><path d="M1767 2459.53 1767 6.99976" stroke="#7F7F7F" stroke-width="5.72917" stroke-miterlimit="8" stroke-dasharray="5.72917 5.72917" fill="none" fill-rule="evenodd"/><path d="M1598 2462.5 1598 5.99951" stroke="#7F7F7F" stroke-width="5.72917" stroke-miterlimit="8" stroke-dasharray="5.72917 5.72917" fill="none" fill-rule="evenodd"/><path d="M1431 2462.5 1431 5.99951" stroke="#7F7F7F" stroke-width="5.72917" stroke-miterlimit="8" stroke-dasharray="5.72917 5.72917" fill="none" fill-rule="evenodd"/><path d="M1264 2462.5 1264 5.99951" stroke="#7F7F7F" stroke-width="5.72917" stroke-miterlimit="8" stroke-dasharray="5.72917 5.72917" fill="none" fill-rule="evenodd"/><path d="M1097 2461.5 1097 4.99976" stroke="#7F7F7F" stroke-width="5.72917" stroke-miterlimit="8" stroke-dasharray="5.72917 5.72917" fill="none" fill-rule="evenodd"/><path d="M924 2465.5 924.001 8.99951" stroke="#7F7F7F" stroke-width="5.72917" stroke-miterlimit="8" stroke-dasharray="5.72917 5.72917" fill="none" fill-rule="evenodd"/><path d="M757 2465.5 757 8.99951" stroke="#7F7F7F" stroke-width="5.72917" stroke-miterlimit="8" stroke-dasharray="5.72917 5.72917" fill="none" fill-rule="evenodd"/><path d="M584 2468.5 584.001 11.9995" stroke="#7F7F7F" stroke-width="5.72917" stroke-miterlimit="8" stroke-dasharray="5.72917 5.72917" fill="none" fill-rule="evenodd"/><path d="M417 2468.5 417.001 11.9995" stroke="#7F7F7F" stroke-width="5.72917" stroke-miterlimit="8" stroke-dasharray="5.72917 5.72917" fill="none" fill-rule="evenodd"/><path d="M249 2468.5 249 11.9995" stroke="#7F7F7F" stroke-width="5.72917" stroke-miterlimit="8" stroke-dasharray="5.72917 5.72917" fill="none" fill-rule="evenodd"/><path d="M82.0003 2468.5 82.0007 11.9995" stroke="#7F7F7F" stroke-width="5.72917" stroke-miterlimit="8" stroke-dasharray="5.72917 5.72917" fill="none" fill-rule="evenodd"/><path d="M2622 2454.62 2622 7" stroke="#7F7F7F" stroke-width="5.72917" stroke-miterlimit="8" stroke-dasharray="5.72917 5.72917" fill="none" fill-rule="evenodd"/><path d="M2455 2454.62 2455 7" stroke="#7F7F7F" stroke-width="5.72917" stroke-miterlimit="8" stroke-dasharray="5.72917 5.72917" fill="none" fill-rule="evenodd"/><path d="M2810 2454.62 2810 7" stroke="#7F7F7F" stroke-width="5.72917" stroke-miterlimit="8" stroke-dasharray="5.72917 5.72917" fill="none" fill-rule="evenodd"/><path d="M3809 2450.62 3809 3.00024" stroke="#7F7F7F" stroke-width="5.72917" stroke-miterlimit="8" stroke-dasharray="5.72917 5.72917" fill="none" fill-rule="evenodd"/><path d="M3642 2450.62 3642 3.00024" stroke="#7F7F7F" stroke-width="5.72917" stroke-miterlimit="8" stroke-dasharray="5.72917 5.72917" fill="none" fill-rule="evenodd"/><path d="M3476 2449.62 3476 2.00024" stroke="#7F7F7F" stroke-width="5.72917" stroke-miterlimit="8" stroke-dasharray="5.72917 5.72917" fill="none" fill-rule="evenodd"/><path d="M3306 2453.53 3306 1" stroke="#7F7F7F" stroke-width="5.72917" stroke-miterlimit="8" stroke-dasharray="5.72917 5.72917" fill="none" fill-rule="evenodd"/><path d="M3137 2456.5 3137-0.000488281" stroke="#7F7F7F" stroke-width="5.72917" stroke-miterlimit="8" stroke-dasharray="5.72917 5.72917" fill="none" fill-rule="evenodd"/><path d="M2970 2456.5 2970-0.000488281" stroke="#7F7F7F" stroke-width="5.72917" stroke-miterlimit="8" stroke-dasharray="5.72917 5.72917" fill="none" fill-rule="evenodd"/><path d="M4161 2448.62 4161 1.00024" stroke="#7F7F7F" stroke-width="5.72917" stroke-miterlimit="8" stroke-dasharray="5.72917 5.72917" fill="none" fill-rule="evenodd"/><path d="M3994 2448.62 3994 1.00024" stroke="#7F7F7F" stroke-width="5.72917" stroke-miterlimit="8" stroke-dasharray="5.72917 5.72917" fill="none" fill-rule="evenodd"/><path d="M4312 2448.62 4312 1.00024" stroke="#7F7F7F" stroke-width="5.72917" stroke-miterlimit="8" stroke-dasharray="5.72917 5.72917" fill="none" fill-rule="evenodd"/><path d="M1090 1131 1572.05 1131" stroke="url(#stroke2)" stroke-width="10.3125" stroke-miterlimit="8" fill="none" fill-rule="evenodd"/><path d="M1095 1151 1577.05 1151" stroke="url(#stroke3)" stroke-width="10.3125" stroke-miterlimit="8" fill="none" fill-rule="evenodd"/><path d="M1109 1171 1591.05 1171" stroke="url(#stroke4)" stroke-width="10.3125" stroke-miterlimit="8" fill="none" fill-rule="evenodd"/><path d="M1131 1192 1613.05 1192" stroke="url(#stroke5)" stroke-width="10.3125" stroke-miterlimit="8" fill="none" fill-rule="evenodd"/><path d="M1167 1212 1649.05 1212" stroke="url(#stroke6)" stroke-width="10.3125" stroke-miterlimit="8" fill="none" fill-rule="evenodd"/><path d="M1225 1232 1707.05 1232" stroke="url(#stroke7)" stroke-width="10.3125" stroke-miterlimit="8" fill="none" fill-rule="evenodd"/><path d="M0 0 482.049 0.000360892" stroke="url(#stroke8)" stroke-width="10.3125" stroke-miterlimit="8" fill="none" fill-rule="evenodd" transform="matrix(1 -1.22465e-16 -1.22465e-16 -1 1091 1109)"/><path d="M0 0 482.049 0.000360892" stroke="url(#stroke9)" stroke-width="10.3125" stroke-miterlimit="8" fill="none" fill-rule="evenodd" transform="matrix(1 -1.22465e-16 -1.22465e-16 -1 1098 1089)"/><path d="M0 0 482.049 0.000360892" stroke="url(#stroke10)" stroke-width="10.3125" stroke-miterlimit="8" fill="none" fill-rule="evenodd" transform="matrix(1 -1.22465e-16 -1.22465e-16 -1 1113 1068)"/><path d="M0 0 482.049 0.000360892" stroke="url(#stroke11)" stroke-width="10.3125" stroke-miterlimit="8" fill="none" fill-rule="evenodd" transform="matrix(1 -1.22465e-16 -1.22465e-16 -1 1137 1048)"/><path d="M0 0 482.049 0.000360892" stroke="url(#stroke12)" stroke-width="10.3125" stroke-miterlimit="8" fill="none" fill-rule="evenodd" transform="matrix(1 -1.22465e-16 -1.22465e-16 -1 1172 1028)"/><path d="M0 0 482.049 0.000360892" stroke="url(#stroke13)" stroke-width="10.3125" stroke-miterlimit="8" fill="none" fill-rule="evenodd" transform="matrix(1 -1.22465e-16 -1.22465e-16 -1 1232 1007)"/><path d="M1567 1122C1567 1050.76 1620.28 993 1686 993 1751.72 993 1805 1050.76 1805 1122 1805 1193.24 1751.72 1251 1686 1251 1620.28 1251 1567 1193.24 1567 1122Z" fill="#3B3838" fill-rule="evenodd"/><path d="M1075 1353 1557.05 1353" stroke="url(#stroke14)" stroke-width="10.3125" stroke-miterlimit="8" fill="none" fill-rule="evenodd"/><path d="M1080 1369 1562.05 1369" stroke="url(#stroke15)" stroke-width="10.3125" stroke-miterlimit="8" fill="none" fill-rule="evenodd"/><path d="M1094 1385 1576.05 1385" stroke="url(#stroke16)" stroke-width="10.3125" stroke-miterlimit="8" fill="none" fill-rule="evenodd"/><path d="M1116 1401 1598.05 1401" stroke="url(#stroke17)" stroke-width="10.3125" stroke-miterlimit="8" fill="none" fill-rule="evenodd"/><path d="M0 0 482.048 0.000360892" stroke="url(#stroke18)" stroke-width="10.3125" stroke-miterlimit="8" fill="none" fill-rule="evenodd" transform="matrix(1 -1.22465e-16 -1.22465e-16 -1 1076 1337)"/><path d="M0 0 482.048 0.000360892" stroke="url(#stroke19)" stroke-width="10.3125" stroke-miterlimit="8" fill="none" fill-rule="evenodd" transform="matrix(1 -1.22465e-16 -1.22465e-16 -1 1083 1321)"/><path d="M0 0 482.048 0.000360892" stroke="url(#stroke20)" stroke-width="10.3125" stroke-miterlimit="8" fill="none" fill-rule="evenodd" transform="matrix(1 -1.22465e-16 -1.22465e-16 -1 1098 1305)"/><path d="M0 0 482.048 0.000360892" stroke="url(#stroke21)" stroke-width="10.3125" stroke-miterlimit="8" fill="none" fill-rule="evenodd" transform="matrix(1 -1.22465e-16 -1.22465e-16 -1 1122 1289)"/><path d="M1814 1427C1814 1470.08 1779.08 1505 1736 1505 1692.92 1505 1658 1470.08 1658 1427 1658 1383.92 1692.92 1349 1736 1349 1779.08 1349 1814 1383.92 1814 1427Z" fill-rule="evenodd"/><path d="M2618 1425C2618 1468.08 2583.08 1503 2540 1503 2496.92 1503 2462 1468.08 2462 1425 2462 1381.92 2496.92 1347 2540 1347 2583.08 1347 2618 1381.92 2618 1425Z" fill-rule="evenodd"/><path d="M1560 990 2353 990 2353 1257 1560 1257Z" stroke="#0D0D0D" stroke-width="10.3125" stroke-miterlimit="8" fill-rule="evenodd"/><path d="M2421.43 1044.33 2492.57 1044.33C2513.91 1044.33 2532.89 1058.53 2537.63 1078.65L2561.34 1160.3C2561.34 1161.48 2562.53 1161.48 2562.53 1162.67L2421.43 1162.67 2421.43 1044.33ZM2492.57 997 2374 997 2374 1162.67 2374 1233.67 2374 1423 2421.43 1423C2421.43 1357.92 2474.79 1304.67 2540 1304.67 2605.21 1304.67 2658.57 1357.92 2658.57 1423 2684.66 1423 2706 1401.7 2706 1375.67L2706 1257.33C2706 1241.95 2698.89 1228.93 2687.03 1219.47L2624.19 1172.13C2615.89 1166.22 2609.96 1156.75 2607.59 1147.28L2583.87 1065.63C2572.01 1025.4 2534.07 997 2492.57 997Z" fill-rule="evenodd"/><path d="M2182 1423 1848.79 1423C1848.79 1362.11 1798.8 1312.29 1737.71 1312.29 1676.62 1312.29 1626.64 1362.11 1626.64 1423L1560 1423 1560 1268 2182 1268 2182 1423Z" fill-rule="evenodd"/><path d="M2357 1423 2131.46 1423C2131.46 1362.11 2097.63 1312.29 2056.29 1312.29 2014.94 1312.29 1981.11 1362.11 1981.11 1423L1936 1423 1936 1268 2357 1268 2357 1423Z" fill-rule="evenodd"/><path d="M7.35558e-07-2.86458 1382.56-2.86423 1382.56 2.86494-7.35558e-07 2.86458ZM1377.97-13.7496 1405.47 0.000360892 1377.97 13.7504Z" transform="matrix(0.999973 -0.00730123 -0.00730123 -0.999973 1492.05 1862.58)"/><path d="M7.35558e-07-2.86458 1382.56-2.86423 1382.56 2.86494-7.35558e-07 2.86458ZM1377.97-13.7496 1405.47 0.000360892 1377.97 13.7504Z" transform="matrix(0.999973 -0.00730123 -0.00730123 -0.999973 1492.05 1809.4)"/><path d="M7.35558e-07-2.86458 1382.56-2.86423 1382.56 2.86494-7.35558e-07 2.86458ZM1377.97-13.7496 1405.47 0.000360892 1377.97 13.7504Z" transform="matrix(0.999973 -0.00730123 -0.00730123 -0.999973 1492.05 1756.22)"/><path d="M7.35558e-07-2.86458 1382.56-2.86423 1382.56 2.86494-7.35558e-07 2.86458ZM1377.97-13.7496 1405.47 0.000360892 1377.97 13.7504Z" transform="matrix(0.999973 -0.00730123 -0.00730123 -0.999973 1492.05 1703.04)"/><path d="M7.35558e-07-2.86458 1382.56-2.86423 1382.56 2.86494-7.35558e-07 2.86458ZM1377.97-13.7496 1405.47 0.000360892 1377.97 13.7504Z" transform="matrix(0.999973 -0.00730123 -0.00730123 -0.999973 1492.05 1649.86)"/><path d="M7.35558e-07-2.86458 1382.56-2.86423 1382.56 2.86494-7.35558e-07 2.86458ZM1377.97-13.7496 1405.47 0.000360892 1377.97 13.7504Z" transform="matrix(0.999973 -0.00730123 -0.00730123 -0.999973 1492.05 1596.68)"/><path d="M7.35558e-07-2.86458 1382.56-2.86423 1382.56 2.86494-7.35558e-07 2.86458ZM1377.97-13.7496 1405.47 0.000360892 1377.97 13.7504Z" transform="matrix(0.999973 -0.00730123 -0.00730123 -0.999973 1492.05 1543.5)"/><path d="M7.35558e-07-2.86458 1382.56-2.86423 1382.56 2.86494-7.35558e-07 2.86458ZM1377.97-13.7496 1405.47 0.000360892 1377.97 13.7504Z" transform="matrix(0.999973 -0.00730123 -0.00730123 -0.999973 1492.05 1490.32)"/><path d="M7.35558e-07-2.86458 1382.56-2.86423 1382.56 2.86494-7.35558e-07 2.86458ZM1377.97-13.7496 1405.47 0.000360892 1377.97 13.7504Z" transform="matrix(0.999973 -0.00730123 -0.00730123 -0.999973 1492.05 1437.14)"/><path d="M7.35558e-07-2.86458 1382.56-2.86423 1382.56 2.86494-7.35558e-07 2.86458ZM1377.97-13.7496 1405.47 0.000360892 1377.97 13.7504Z" transform="matrix(0.999973 -0.00730123 -0.00730123 -0.999973 1492.05 1383.96)"/><path d="M7.35558e-07-2.86458 1382.56-2.86423 1382.56 2.86494-7.35558e-07 2.86458ZM1377.97-13.7496 1405.47 0.000360892 1377.97 13.7504Z" transform="matrix(0.999973 -0.00730123 -0.00730123 -0.999973 1492.05 1330.78)"/><path d="M7.35558e-07-2.86458 1382.56-2.86423 1382.56 2.86494-7.35558e-07 2.86458ZM1377.97-13.7496 1405.47 0.000360892 1377.97 13.7504Z" transform="matrix(0.999973 -0.00730123 -0.00730123 -0.999973 1492.05 1277.6)"/><path d="M7.35558e-07-2.86458 1382.56-2.86423 1382.56 2.86494-7.35558e-07 2.86458ZM1377.97-13.7496 1405.47 0.000360892 1377.97 13.7504Z" transform="matrix(0.999973 -0.00730123 -0.00730123 -0.999973 1492.05 1224.42)"/><path d="M7.35558e-07-2.86458 1382.56-2.86423 1382.56 2.86494-7.35558e-07 2.86458ZM1377.97-13.7496 1405.47 0.000360892 1377.97 13.7504Z" transform="matrix(0.999973 -0.00730123 -0.00730123 -0.999973 1492.05 1171.24)"/><path d="M7.35558e-07-2.86458 1382.56-2.86423 1382.56 2.86494-7.35558e-07 2.86458ZM1377.97-13.7496 1405.47 0.000360892 1377.97 13.7504Z" transform="matrix(0.999973 -0.00730123 -0.00730123 -0.999973 1492.05 1118.06)"/><path d="M7.35558e-07-2.86458 1382.56-2.86423 1382.56 2.86494-7.35558e-07 2.86458ZM1377.97-13.7496 1405.47 0.000360892 1377.97 13.7504Z" transform="matrix(0.999973 -0.00730123 -0.00730123 -0.999973 1492.05 1064.88)"/><path d="M7.35558e-07-2.86458 1382.56-2.86423 1382.56 2.86494-7.35558e-07 2.86458ZM1377.97-13.7496 1405.47 0.000360892 1377.97 13.7504Z" transform="matrix(0.999973 -0.00730123 -0.00730123 -0.999973 1492.05 1011.7)"/><path d="M7.35558e-07-2.86458 1382.56-2.86423 1382.56 2.86494-7.35558e-07 2.86458ZM1377.97-13.7496 1405.47 0.000360892 1377.97 13.7504Z" transform="matrix(0.999973 -0.00730123 -0.00730123 -0.999973 1492.05 958.517)"/><path d="M7.35558e-07-2.86458 1382.56-2.86423 1382.56 2.86494-7.35558e-07 2.86458ZM1377.97-13.7496 1405.47 0.000360892 1377.97 13.7504Z" transform="matrix(0.999973 -0.00730123 -0.00730123 -0.999973 1492.05 905.336)"/><path d="M7.35558e-07-2.86458 1382.56-2.86423 1382.56 2.86494-7.35558e-07 2.86458ZM1377.97-13.7496 1405.47 0.000360892 1377.97 13.7504Z" transform="matrix(0.999973 -0.00730123 -0.00730123 -0.999973 1492.05 852.156)"/><path d="M7.35558e-07-2.86458 1382.56-2.86423 1382.56 2.86494-7.35558e-07 2.86458ZM1377.97-13.7496 1405.47 0.000360892 1377.97 13.7504Z" transform="matrix(0.999973 -0.00730123 -0.00730123 -0.999973 1492.05 798.976)"/><path d="M7.35558e-07-2.86458 1382.56-2.86423 1382.56 2.86494-7.35558e-07 2.86458ZM1377.97-13.7496 1405.47 0.000360892 1377.97 13.7504Z" transform="matrix(0.999973 -0.00730123 -0.00730123 -0.999973 1492.05 745.795)"/><path d="M7.35558e-07-2.86458 1382.56-2.86423 1382.56 2.86494-7.35558e-07 2.86458ZM1377.97-13.7496 1405.47 0.000360892 1377.97 13.7504Z" transform="matrix(0.999973 -0.00730123 -0.00730123 -0.999973 1492.05 692.615)"/><path d="M7.35558e-07-2.86458 1382.56-2.86423 1382.56 2.86494-7.35558e-07 2.86458ZM1377.97-13.7496 1405.47 0.000360892 1377.97 13.7504Z" transform="matrix(0.999973 -0.00730123 -0.00730123 -0.999973 1492.05 639.434)"/><path d="M7.35558e-07-2.86458 1382.56-2.86423 1382.56 2.86494-7.35558e-07 2.86458ZM1377.97-13.7496 1405.47 0.000360892 1377.97 13.7504Z" transform="matrix(0.999973 -0.00730123 -0.00730123 -0.999973 1492.05 586.254)"/><path d="M2149 1887.87 2149 550" stroke="#000000" stroke-width="5.72917" stroke-miterlimit="8" fill="none" fill-rule="evenodd"/><path d="M2099 1887.87 2099 550" stroke="#000000" stroke-width="5.72917" stroke-miterlimit="8" fill="none" fill-rule="evenodd"/><path d="M2049 1886.87 2049 549" stroke="#000000" stroke-width="5.72917" stroke-miterlimit="8" fill="none" fill-rule="evenodd"/><path d="M1998 1889.55 1998 549" stroke="#000000" stroke-width="5.72917" stroke-miterlimit="8" fill="none" fill-rule="evenodd"/><path d="M1947 1890.72 1947 548" stroke="#000000" stroke-width="5.72917" stroke-miterlimit="8" fill="none" fill-rule="evenodd"/><path d="M1897 1890.72 1897 548" stroke="#000000" stroke-width="5.72917" stroke-miterlimit="8" fill="none" fill-rule="evenodd"/><path d="M1847 1890.72 1847 548" stroke="#000000" stroke-width="5.72917" stroke-miterlimit="8" fill="none" fill-rule="evenodd"/><path d="M1797 1890.72 1797 548" stroke="#000000" stroke-width="5.72917" stroke-miterlimit="8" fill="none" fill-rule="evenodd"/><path d="M1745 1892.72 1745 550" stroke="#000000" stroke-width="5.72917" stroke-miterlimit="8" fill="none" fill-rule="evenodd"/><path d="M1694 1892.72 1694 550" stroke="#000000" stroke-width="5.72917" stroke-miterlimit="8" fill="none" fill-rule="evenodd"/><path d="M1642 1894.72 1642 552" stroke="#000000" stroke-width="5.72917" stroke-miterlimit="8" fill="none" fill-rule="evenodd"/><path d="M1592 1894.72 1592 552" stroke="#000000" stroke-width="5.72917" stroke-miterlimit="8" fill="none" fill-rule="evenodd"/><path d="M1542 1893.72 1542 551" stroke="#000000" stroke-width="5.72917" stroke-miterlimit="8" fill="none" fill-rule="evenodd"/><path d="M2255 1886.87 2255 549" stroke="#000000" stroke-width="5.72917" stroke-miterlimit="8" fill="none" fill-rule="evenodd"/><path d="M2205 1886.87 2205 549" stroke="#000000" stroke-width="5.72917" stroke-miterlimit="8" fill="none" fill-rule="evenodd"/><path d="M2312 1886.87 2312 549" stroke="#000000" stroke-width="5.72917" stroke-miterlimit="8" fill="none" fill-rule="evenodd"/><path d="M2612 1884.87 2612 547" stroke="#000000" stroke-width="5.72917" stroke-miterlimit="8" fill="none" fill-rule="evenodd"/><path d="M2562 1884.87 2562 547" stroke="#000000" stroke-width="5.72917" stroke-miterlimit="8" fill="none" fill-rule="evenodd"/><path d="M2512 1883.87 2512 546" stroke="#000000" stroke-width="5.72917" stroke-miterlimit="8" fill="none" fill-rule="evenodd"/><path d="M2461 1886.55 2461 546" stroke="#000000" stroke-width="5.72917" stroke-miterlimit="8" fill="none" fill-rule="evenodd"/><path d="M2410 1887.72 2410 545" stroke="#000000" stroke-width="5.72917" stroke-miterlimit="8" fill="none" fill-rule="evenodd"/><path d="M2360 1887.72 2360 545" stroke="#000000" stroke-width="5.72917" stroke-miterlimit="8" fill="none" fill-rule="evenodd"/><path d="M2718 1883.87 2718 546" stroke="#000000" stroke-width="5.72917" stroke-miterlimit="8" fill="none" fill-rule="evenodd"/><path d="M2668 1883.87 2668 546" stroke="#000000" stroke-width="5.72917" stroke-miterlimit="8" fill="none" fill-rule="evenodd"/><path d="M2774 1883.87 2774 546" stroke="#000000" stroke-width="5.72917" stroke-miterlimit="8" fill="none" fill-rule="evenodd"/><path d="M0 0 135.558 0.000360892" stroke="url(#stroke22)" stroke-width="5.72917" stroke-miterlimit="8" fill="none" fill-rule="evenodd" transform="matrix(0.999973 -0.00730123 -0.00730123 -0.999973 1358.1 587.236)"/><path d="M0 0 135.558 0.000360892" stroke="url(#stroke23)" stroke-width="5.72917" stroke-miterlimit="8" fill="none" fill-rule="evenodd" transform="matrix(0.999973 -0.00730123 -0.00730123 -0.999973 1357.13 640.523)"/><path d="M0 0 135.558 0.000360892" stroke="url(#stroke24)" stroke-width="5.72917" stroke-miterlimit="8" fill="none" fill-rule="evenodd" transform="matrix(0.999973 -0.00730123 -0.00730123 -0.999973 1357.54 693.005)"/><path d="M0 0 135.558 0.000360892" stroke="url(#stroke25)" stroke-width="5.72917" stroke-miterlimit="8" fill="none" fill-rule="evenodd" transform="matrix(0.999973 -0.00730123 -0.00730123 -0.999973 1356.57 746.292)"/><path d="M0 0 135.558 0.000360892" stroke="url(#stroke26)" stroke-width="5.72917" stroke-miterlimit="8" fill="none" fill-rule="evenodd" transform="matrix(0.999973 -0.00730123 -0.00730123 -0.999973 1357.69 800.136)"/><path d="M0 0 135.558 0.000360892" stroke="url(#stroke27)" stroke-width="5.72917" stroke-miterlimit="8" fill="none" fill-rule="evenodd" transform="matrix(0.999973 -0.00730123 -0.00730123 -0.999973 1356.72 853.423)"/><path d="M0 0 135.558 0.000360892" stroke="url(#stroke28)" stroke-width="5.72917" stroke-miterlimit="8" fill="none" fill-rule="evenodd" transform="matrix(0.999973 -0.00730123 -0.00730123 -0.999973 1357.13 905.905)"/><path d="M0 0 135.558 0.000360892" stroke="url(#stroke29)" stroke-width="5.72917" stroke-miterlimit="8" fill="none" fill-rule="evenodd" transform="matrix(0.999973 -0.00730123 -0.00730123 -0.999973 1356.16 959.193)"/><path d="M0 0 135.558 0.000360892" stroke="url(#stroke30)" stroke-width="5.72917" stroke-miterlimit="8" fill="none" fill-rule="evenodd" transform="matrix(0.999973 -0.00730123 -0.00730123 -0.999973 1358.14 1013.61)"/><path d="M0 0 135.558 0.000360892" stroke="url(#stroke31)" stroke-width="5.72917" stroke-miterlimit="8" fill="none" fill-rule="evenodd" transform="matrix(0.999973 -0.00730123 -0.00730123 -0.999973 1357.17 1066.89)"/><path d="M0 0 135.558 0.000360892" stroke="url(#stroke32)" stroke-width="5.72917" stroke-miterlimit="8" fill="none" fill-rule="evenodd" transform="matrix(0.999973 -0.00730123 -0.00730123 -0.999973 1357.58 1119.38)"/><path d="M0 0 135.558 0.000360892" stroke="url(#stroke33)" stroke-width="5.72917" stroke-miterlimit="8" fill="none" fill-rule="evenodd" transform="matrix(0.999973 -0.00730123 -0.00730123 -0.999973 1356.61 1172.66)"/><path d="M0 0 135.558 0.000360892" stroke="url(#stroke34)" stroke-width="5.72917" stroke-miterlimit="8" fill="none" fill-rule="evenodd" transform="matrix(0.999973 -0.00730123 -0.00730123 -0.999973 1357.73 1226.51)"/><path d="M0 0 135.558 0.000360892" stroke="url(#stroke35)" stroke-width="5.72917" stroke-miterlimit="8" fill="none" fill-rule="evenodd" transform="matrix(0.999973 -0.00730123 -0.00730123 -0.999973 1356.76 1279.79)"/><path d="M0 0 135.558 0.000360892" stroke="url(#stroke36)" stroke-width="5.72917" stroke-miterlimit="8" fill="none" fill-rule="evenodd" transform="matrix(0.999973 -0.00730123 -0.00730123 -0.999973 1357.17 1332.28)"/><path d="M0 0 135.558 0.000360892" stroke="url(#stroke37)" stroke-width="5.72917" stroke-miterlimit="8" fill="none" fill-rule="evenodd" transform="matrix(0.999973 -0.00730123 -0.00730123 -0.999973 1356.2 1385.56)"/><path d="M0 0 135.558 0.000360892" stroke="url(#stroke38)" stroke-width="5.72917" stroke-miterlimit="8" fill="none" fill-rule="evenodd" transform="matrix(0.999973 -0.00730123 -0.00730123 -0.999973 1360.08 1331.9)"/><path d="M0 0 135.558 0.000360892" stroke="url(#stroke39)" stroke-width="5.72917" stroke-miterlimit="8" fill="none" fill-rule="evenodd" transform="matrix(0.999973 -0.00730123 -0.00730123 -0.999973 1359.11 1385.19)"/><path d="M0 0 135.558 0.000360892" stroke="url(#stroke40)" stroke-width="5.72917" stroke-miterlimit="8" fill="none" fill-rule="evenodd" transform="matrix(0.999973 -0.00730123 -0.00730123 -0.999973 1359.51 1437.67)"/><path d="M0 0 135.558 0.000360892" stroke="url(#stroke41)" stroke-width="5.72917" stroke-miterlimit="8" fill="none" fill-rule="evenodd" transform="matrix(0.999973 -0.00730123 -0.00730123 -0.999973 1358.54 1490.96)"/><path d="M0 0 135.558 0.000360892" stroke="url(#stroke42)" stroke-width="5.72917" stroke-miterlimit="8" fill="none" fill-rule="evenodd" transform="matrix(0.999973 -0.00730123 -0.00730123 -0.999973 1359.67 1544.8)"/><path d="M0 0 135.558 0.000360892" stroke="url(#stroke43)" stroke-width="5.72917" stroke-miterlimit="8" fill="none" fill-rule="evenodd" transform="matrix(0.999973 -0.00730123 -0.00730123 -0.999973 1358.7 1598.09)"/><path d="M0 0 135.558 0.000360892" stroke="url(#stroke44)" stroke-width="5.72917" stroke-miterlimit="8" fill="none" fill-rule="evenodd" transform="matrix(0.999973 -0.00730123 -0.00730123 -0.999973 1359.1 1650.57)"/><path d="M0 0 135.558 0.000360892" stroke="url(#stroke45)" stroke-width="5.72917" stroke-miterlimit="8" fill="none" fill-rule="evenodd" transform="matrix(0.999973 -0.00730123 -0.00730123 -0.999973 1358.13 1703.86)"/><path d="M0 0 135.558 0.000360892" stroke="url(#stroke46)" stroke-width="5.72917" stroke-miterlimit="8" fill="none" fill-rule="evenodd" transform="matrix(0.999973 -0.00730123 -0.00730123 -0.999973 1360.12 1758.27)"/><path d="M0 0 135.558 0.000360892" stroke="url(#stroke47)" stroke-width="5.72917" stroke-miterlimit="8" fill="none" fill-rule="evenodd" transform="matrix(0.999973 -0.00730123 -0.00730123 -0.999973 1359.15 1811.56)"/><path d="M0 0 135.558 0.000360892" stroke="url(#stroke48)" stroke-width="5.72917" stroke-miterlimit="8" fill="none" fill-rule="evenodd" transform="matrix(0.999973 -0.00730123 -0.00730123 -0.999973 1359.55 1864.04)"/></g></svg>