<?xml version="1.0" encoding="utf-8" standalone="no"?>
<!DOCTYPE svg PUBLIC "-//W3C//DTD SVG 1.1//EN"
  "http://www.w3.org/Graphics/SVG/1.1/DTD/svg11.dtd">
<svg xmlns:xlink="http://www.w3.org/1999/xlink" width="196.258967pt" height="280.512pt" viewBox="0 0 196.258967 280.512" xmlns="http://www.w3.org/2000/svg" version="1.1">
 <metadata>
  <rdf:RDF xmlns:dc="http://purl.org/dc/elements/1.1/" xmlns:cc="http://creativecommons.org/ns#" xmlns:rdf="http://www.w3.org/1999/02/22-rdf-syntax-ns#">
   <cc:Work>
    <dc:type rdf:resource="http://purl.org/dc/dcmitype/StillImage"/>
    <dc:date>2024-07-10T12:40:31.085728</dc:date>
    <dc:format>image/svg+xml</dc:format>
    <dc:creator>
     <cc:Agent>
      <dc:title>Matplotlib v3.9.0, https://matplotlib.org/</dc:title>
     </cc:Agent>
    </dc:creator>
   </cc:Work>
  </rdf:RDF>
 </metadata>
 <defs>
  <style type="text/css">*{stroke-linejoin: round; stroke-linecap: butt}</style>
 </defs>
 <g id="figure_1">
  <g id="axes_1">
   <g id="patch_1">
    <path d="M 181.680548 106.209871 
L 177.991338 108.607857 
L 180.573785 106.211716 
L 7.2 106.211716 
L 7.2 106.208027 
L 180.573785 106.208027 
L 177.991338 103.811885 
z
" clip-path="url(#p0b8faebb63)" style="fill: #1f77b4; stroke: #000000; stroke-linejoin: miter"/>
   </g>
   <g id="patch_2">
    <path d="M 98.129484 14.578419 
L 100.52747 18.267629 
L 98.131328 15.685182 
L 98.131328 205.219742 
L 98.127639 205.219742 
L 98.127639 15.685182 
L 95.731497 18.267629 
z
" clip-path="url(#p0b8faebb63)" style="fill: #1f77b4; stroke: #000000; stroke-linejoin: miter"/>
   </g>
   <g id="PathCollection_1">
    <defs>
     <path id="m22c20d7f73" d="M 0 1.581139 
C 0.419323 1.581139 0.821528 1.41454 1.118034 1.118034 
C 1.41454 0.821528 1.581139 0.419323 1.581139 0 
C 1.581139 -0.419323 1.41454 -0.821528 1.118034 -1.118034 
C 0.821528 -1.41454 0.419323 -1.581139 0 -1.581139 
C -0.419323 -1.581139 -0.821528 -1.41454 -1.118034 -1.118034 
C -1.41454 -0.821528 -1.581139 -0.419323 -1.581139 0 
C -1.581139 0.419323 -1.41454 0.821528 -1.118034 1.118034 
C -0.821528 1.41454 -0.419323 1.581139 0 1.581139 
z
" style="stroke: #000000"/>
    </defs>
    <g clip-path="url(#p0b8faebb63)">
     <use xlink:href="#m22c20d7f73" x="98.129484" y="106.209871" style="stroke: #000000"/>
    </g>
   </g>
   <g id="Quiver_1">
    <path d="M 100.704629 74.458787 
L 101.273841 68.497729 
L 98.515092 68.691016 
L 102.115383 64.467647 
L 104.851334 69.296053 
L 102.179019 68.584163 
L 101.609807 74.545221 
L 100.704629 74.458787 
" clip-path="url(#p0b8faebb63)" style="fill: #ff0000"/>
    <path d="M 106.667025 75.51992 
L 108.354088 69.77431 
L 105.608613 69.442007 
L 109.94312 65.97632 
L 111.715847 71.235253 
L 109.22655 70.030488 
L 107.539487 75.776098 
L 106.667025 75.51992 
" clip-path="url(#p0b8faebb63)" style="fill: #ff0000"/>
    <path d="M 112.320852 77.690268 
L 115.064792 72.367767 
L 112.43182 71.521885 
L 117.343882 68.939138 
L 118.089314 74.438526 
L 115.873005 72.78443 
L 113.129065 78.106931 
L 112.320852 77.690268 
" clip-path="url(#p0b8faebb63)" style="fill: #ff0000"/>
    <path d="M 117.461766 80.891388 
L 121.163409 76.184366 
L 118.738102 74.855477 
L 124.050185 73.249017 
L 123.741381 78.790098 
L 121.878163 76.746455 
L 118.17652 81.453477 
L 117.461766 80.891388 
" clip-path="url(#p0b8faebb63)" style="fill: #ff0000"/>
    <path d="M 121.903961 85.007585 
L 126.42952 81.086165 
L 124.299536 79.322298 
L 129.819647 78.750188 
L 128.467766 84.132693 
L 127.024982 81.773364 
L 122.499422 85.694784 
L 121.903961 85.007585 
" clip-path="url(#p0b8faebb63)" style="fill: #ff0000"/>
    <path d="M 125.486884 89.890087 
L 130.672794 86.896 
L 128.915116 84.760907 
L 134.443744 85.243823 
L 132.097648 90.273214 
L 131.127442 87.683473 
L 125.941531 90.677559 
L 125.486884 89.890087 
" clip-path="url(#p0b8faebb63)" style="fill: #ff0000"/>
    <path d="M 128.08104 95.362429 
L 133.739868 93.403889 
L 132.418022 90.974737 
L 137.755348 92.495226 
L 134.499831 96.989727 
L 134.037269 94.263174 
L 128.378441 96.221713 
L 128.08104 95.362429 
" clip-path="url(#p0b8faebb63)" style="fill: #ff0000"/>
    <path d="M 129.592668 101.226826 
L 135.51989 100.37462 
L 134.681652 97.739204 
L 139.634771 100.242312 
L 135.587495 104.039481 
L 135.649296 101.274659 
L 129.722074 102.126865 
L 129.592668 101.226826 
" clip-path="url(#p0b8faebb63)" style="fill: #ff0000"/>
    <path d="M 129.967135 107.271323 
L 135.948525 107.556251 
L 135.624191 104.809824 
L 140.014085 108.205081 
L 135.321329 111.167678 
L 135.905259 108.464516 
L 129.923869 108.179587 
L 129.967135 107.271323 
" clip-path="url(#p0b8faebb63)" style="fill: #ff0000"/>
    <path d="M 129.190906 113.277456 
L 135.010282 114.689221 
L 135.211574 111.931044 
L 138.879579 116.095738 
L 133.710953 118.116687 
L 134.795908 115.572884 
L 128.976532 114.161119 
L 129.190906 113.277456 
" clip-path="url(#p0b8faebb63)" style="fill: #ff0000"/>
    <path d="M 127.292036 119.028148 
L 132.73907 121.515725 
L 133.458713 118.845487 
L 136.27226 123.629093 
L 130.81457 124.635353 
L 132.361336 122.342849 
L 126.914302 119.855272 
L 127.292036 119.028148 
" clip-path="url(#p0b8faebb63)" style="fill: #ff0000"/>
    <path d="M 124.339156 124.315555 
L 129.216978 127.789036 
L 130.428962 125.303245 
L 132.28636 130.532873 
L 126.736862 130.488073 
L 128.689535 128.529726 
L 123.811714 125.056244 
L 124.339156 124.315555 
" clip-path="url(#p0b8faebb63)" style="fill: #ff0000"/>
    <path d="M 120.43899 128.948575 
L 124.571303 133.282419 
L 126.231823 131.07092 
L 127.065943 136.557556 
L 121.62521 135.463317 
L 123.913215 133.909905 
L 119.780903 129.57606 
L 120.43899 128.948575 
" clip-path="url(#p0b8faebb63)" style="fill: #ff0000"/>
    <path d="M 115.7325 132.759758 
L 118.969951 137.79733 
L 121.018993 135.940051 
L 120.799686 141.485395 
L 115.66436 139.381264 
L 118.205004 138.288932 
L 114.967553 133.25136 
L 115.7325 132.759758 
" clip-path="url(#p0b8faebb63)" style="fill: #ff0000"/>
    <path d="M 110.389792 135.61136 
L 112.615371 141.170588 
L 114.978876 139.734656 
L 113.714069 145.138284 
L 109.069755 142.100311 
L 111.771211 141.508539 
L 109.545632 135.949311 
L 110.389792 135.61136 
" clip-path="url(#p0b8faebb63)" style="fill: #ff0000"/>
    <path d="M 104.603964 137.400316 
L 105.737233 143.280275 
L 108.329778 142.317588 
L 106.065185 147.384199 
L 102.07974 143.522184 
L 104.84437 143.45236 
L 103.711101 137.572401 
L 104.603964 137.400316 
" clip-path="url(#p0b8faebb63)" style="fill: #ff0000"/>
    <path d="M 98.584131 138.061967 
L 98.584131 144.05014 
L 101.312015 143.595493 
L 98.129484 148.141967 
L 94.946952 143.595493 
L 97.674836 144.05014 
L 97.674836 138.061967 
L 98.584131 138.061967 
" clip-path="url(#p0b8faebb63)" style="fill: #ff0000"/>
    <path d="M 92.547866 137.572401 
L 91.414597 143.45236 
L 94.179228 143.522184 
L 90.193782 147.384199 
L 87.929189 142.317588 
L 90.521734 143.280275 
L 91.655003 137.400316 
L 92.547866 137.572401 
" clip-path="url(#p0b8faebb63)" style="fill: #ff0000"/>
    <path d="M 86.713335 135.949311 
L 84.487756 141.508539 
L 87.189212 142.100311 
L 82.544898 145.138284 
L 81.280091 139.734656 
L 83.643596 141.170588 
L 85.869175 135.61136 
L 86.713335 135.949311 
" clip-path="url(#p0b8faebb63)" style="fill: #ff0000"/>
    <path d="M 81.291414 133.25136 
L 78.053963 138.288932 
L 80.594607 139.381264 
L 75.459281 141.485395 
L 75.239974 135.940051 
L 77.289016 137.79733 
L 80.526467 132.759758 
L 81.291414 133.25136 
" clip-path="url(#p0b8faebb63)" style="fill: #ff0000"/>
    <path d="M 76.478065 129.57606 
L 72.345752 133.909905 
L 74.633757 135.463317 
L 69.193024 136.557556 
L 70.027144 131.07092 
L 71.687664 133.282419 
L 75.819977 128.948575 
L 76.478065 129.57606 
" clip-path="url(#p0b8faebb63)" style="fill: #ff0000"/>
    <path d="M 72.447254 125.056244 
L 67.569432 128.529726 
L 69.522105 130.488073 
L 63.972607 130.532873 
L 65.830006 125.303245 
L 67.041989 127.789036 
L 71.919811 124.315555 
L 72.447254 125.056244 
" clip-path="url(#p0b8faebb63)" style="fill: #ff0000"/>
    <path d="M 69.344665 119.855272 
L 63.897631 122.342849 
L 65.444397 124.635353 
L 59.986708 123.629093 
L 62.800254 118.845487 
L 63.519897 121.515725 
L 68.966931 119.028148 
L 69.344665 119.855272 
" clip-path="url(#p0b8faebb63)" style="fill: #ff0000"/>
    <path d="M 67.282436 114.161119 
L 61.463059 115.572884 
L 62.548014 118.116687 
L 57.379388 116.095738 
L 61.047394 111.931044 
L 61.248685 114.689221 
L 67.068061 113.277456 
L 67.282436 114.161119 
" clip-path="url(#p0b8faebb63)" style="fill: #ff0000"/>
    <path d="M 66.335098 108.179587 
L 60.353708 108.464516 
L 60.937638 111.167678 
L 56.244883 108.205081 
L 60.634776 104.809824 
L 60.310442 107.556251 
L 66.291832 107.271323 
L 66.335098 108.179587 
" clip-path="url(#p0b8faebb63)" style="fill: #ff0000"/>
    <path d="M 66.536893 102.126865 
L 60.609671 101.274659 
L 60.671472 104.039481 
L 56.624196 100.242312 
L 61.577315 97.739204 
L 60.739077 100.37462 
L 66.666299 101.226826 
L 66.536893 102.126865 
" clip-path="url(#p0b8faebb63)" style="fill: #ff0000"/>
    <path d="M 67.880526 96.221713 
L 62.221698 94.263174 
L 61.759136 96.989727 
L 58.503619 92.495226 
L 63.840945 90.974737 
L 62.519099 93.403889 
L 68.177928 95.362429 
L 67.880526 96.221713 
" clip-path="url(#p0b8faebb63)" style="fill: #ff0000"/>
    <path d="M 70.317436 90.677559 
L 65.131526 87.683473 
L 64.161319 90.273214 
L 61.815223 85.243823 
L 67.343851 84.760907 
L 65.586173 86.896 
L 70.772083 89.890087 
L 70.317436 90.677559 
" clip-path="url(#p0b8faebb63)" style="fill: #ff0000"/>
    <path d="M 73.759545 85.694784 
L 69.233986 81.773364 
L 67.791201 84.132693 
L 66.43932 78.750188 
L 71.959431 79.322298 
L 69.829447 81.086165 
L 74.355006 85.007585 
L 73.759545 85.694784 
" clip-path="url(#p0b8faebb63)" style="fill: #ff0000"/>
    <path d="M 78.082447 81.453477 
L 74.380804 76.746455 
L 72.517586 78.790098 
L 72.208782 73.249017 
L 77.520865 74.855477 
L 75.095558 76.184366 
L 78.797201 80.891388 
L 78.082447 81.453477 
" clip-path="url(#p0b8faebb63)" style="fill: #ff0000"/>
    <path d="M 83.129902 78.106931 
L 80.385962 72.78443 
L 78.169653 74.438526 
L 78.915085 68.939138 
L 83.827147 71.521885 
L 81.194175 72.367767 
L 83.938115 77.690268 
L 83.129902 78.106931 
" clip-path="url(#p0b8faebb63)" style="fill: #ff0000"/>
    <path d="M 88.71948 75.776098 
L 87.032417 70.030488 
L 84.54312 71.235253 
L 86.315847 65.97632 
L 90.650354 69.442007 
L 87.904879 69.77431 
L 89.591942 75.51992 
L 88.71948 75.776098 
" clip-path="url(#p0b8faebb63)" style="fill: #ff0000"/>
    <path d="M 94.649161 74.545221 
L 94.079949 68.584163 
L 91.407633 69.296053 
L 94.143584 64.467647 
L 97.743875 68.691016 
L 94.985126 68.497729 
L 95.554338 74.458787 
L 94.649161 74.545221 
" clip-path="url(#p0b8faebb63)" style="fill: #ff0000"/>
   </g>
   <g id="PathCollection_2">
    <g clip-path="url(#p0b8faebb63)">
     <use xlink:href="#m22c20d7f73" x="98.129484" y="106.209871" style="stroke: #000000"/>
    </g>
   </g>
   <g id="Quiver_2">
    <path d="M 100.704629 74.458787 
L 101.273841 68.497729 
L 98.515092 68.691016 
L 102.115383 64.467647 
L 104.851334 69.296053 
L 102.179019 68.584163 
L 101.609807 74.545221 
L 100.704629 74.458787 
" clip-path="url(#p0b8faebb63)" style="fill: #ff0000"/>
    <path d="M 106.667025 75.51992 
L 108.354088 69.77431 
L 105.608613 69.442007 
L 109.94312 65.97632 
L 111.715847 71.235253 
L 109.22655 70.030488 
L 107.539487 75.776098 
L 106.667025 75.51992 
" clip-path="url(#p0b8faebb63)" style="fill: #ff0000"/>
    <path d="M 112.320852 77.690268 
L 115.064792 72.367767 
L 112.43182 71.521885 
L 117.343882 68.939138 
L 118.089314 74.438526 
L 115.873005 72.78443 
L 113.129065 78.106931 
L 112.320852 77.690268 
" clip-path="url(#p0b8faebb63)" style="fill: #ff0000"/>
    <path d="M 117.461766 80.891388 
L 121.163409 76.184366 
L 118.738102 74.855477 
L 124.050185 73.249017 
L 123.741381 78.790098 
L 121.878163 76.746455 
L 118.17652 81.453477 
L 117.461766 80.891388 
" clip-path="url(#p0b8faebb63)" style="fill: #ff0000"/>
    <path d="M 121.903961 85.007585 
L 126.42952 81.086165 
L 124.299536 79.322298 
L 129.819647 78.750188 
L 128.467766 84.132693 
L 127.024982 81.773364 
L 122.499422 85.694784 
L 121.903961 85.007585 
" clip-path="url(#p0b8faebb63)" style="fill: #ff0000"/>
    <path d="M 125.486884 89.890087 
L 130.672794 86.896 
L 128.915116 84.760907 
L 134.443744 85.243823 
L 132.097648 90.273214 
L 131.127442 87.683473 
L 125.941531 90.677559 
L 125.486884 89.890087 
" clip-path="url(#p0b8faebb63)" style="fill: #ff0000"/>
    <path d="M 128.08104 95.362429 
L 133.739868 93.403889 
L 132.418022 90.974737 
L 137.755348 92.495226 
L 134.499831 96.989727 
L 134.037269 94.263174 
L 128.378441 96.221713 
L 128.08104 95.362429 
" clip-path="url(#p0b8faebb63)" style="fill: #ff0000"/>
    <path d="M 129.592668 101.226826 
L 135.51989 100.37462 
L 134.681652 97.739204 
L 139.634771 100.242312 
L 135.587495 104.039481 
L 135.649296 101.274659 
L 129.722074 102.126865 
L 129.592668 101.226826 
" clip-path="url(#p0b8faebb63)" style="fill: #ff0000"/>
    <path d="M 129.967135 107.271323 
L 135.948525 107.556251 
L 135.624191 104.809824 
L 140.014085 108.205081 
L 135.321329 111.167678 
L 135.905259 108.464516 
L 129.923869 108.179587 
L 129.967135 107.271323 
" clip-path="url(#p0b8faebb63)" style="fill: #ff0000"/>
    <path d="M 129.190906 113.277456 
L 135.010282 114.689221 
L 135.211574 111.931044 
L 138.879579 116.095738 
L 133.710953 118.116687 
L 134.795908 115.572884 
L 128.976532 114.161119 
L 129.190906 113.277456 
" clip-path="url(#p0b8faebb63)" style="fill: #ff0000"/>
    <path d="M 127.292036 119.028148 
L 132.73907 121.515725 
L 133.458713 118.845487 
L 136.27226 123.629093 
L 130.81457 124.635353 
L 132.361336 122.342849 
L 126.914302 119.855272 
L 127.292036 119.028148 
" clip-path="url(#p0b8faebb63)" style="fill: #ff0000"/>
    <path d="M 124.339156 124.315555 
L 129.216978 127.789036 
L 130.428962 125.303245 
L 132.28636 130.532873 
L 126.736862 130.488073 
L 128.689535 128.529726 
L 123.811714 125.056244 
L 124.339156 124.315555 
" clip-path="url(#p0b8faebb63)" style="fill: #ff0000"/>
    <path d="M 120.43899 128.948575 
L 124.571303 133.282419 
L 126.231823 131.07092 
L 127.065943 136.557556 
L 121.62521 135.463317 
L 123.913215 133.909905 
L 119.780903 129.57606 
L 120.43899 128.948575 
" clip-path="url(#p0b8faebb63)" style="fill: #ff0000"/>
    <path d="M 115.7325 132.759758 
L 118.969951 137.79733 
L 121.018993 135.940051 
L 120.799686 141.485395 
L 115.66436 139.381264 
L 118.205004 138.288932 
L 114.967553 133.25136 
L 115.7325 132.759758 
" clip-path="url(#p0b8faebb63)" style="fill: #ff0000"/>
    <path d="M 110.389792 135.61136 
L 112.615371 141.170588 
L 114.978876 139.734656 
L 113.714069 145.138284 
L 109.069755 142.100311 
L 111.771211 141.508539 
L 109.545632 135.949311 
L 110.389792 135.61136 
" clip-path="url(#p0b8faebb63)" style="fill: #ff0000"/>
    <path d="M 104.603964 137.400316 
L 105.737233 143.280275 
L 108.329778 142.317588 
L 106.065185 147.384199 
L 102.07974 143.522184 
L 104.84437 143.45236 
L 103.711101 137.572401 
L 104.603964 137.400316 
" clip-path="url(#p0b8faebb63)" style="fill: #ff0000"/>
    <path d="M 98.584131 138.061967 
L 98.584131 144.05014 
L 101.312015 143.595493 
L 98.129484 148.141967 
L 94.946952 143.595493 
L 97.674836 144.05014 
L 97.674836 138.061967 
L 98.584131 138.061967 
" clip-path="url(#p0b8faebb63)" style="fill: #ff0000"/>
    <path d="M 92.547866 137.572401 
L 91.414597 143.45236 
L 94.179228 143.522184 
L 90.193782 147.384199 
L 87.929189 142.317588 
L 90.521734 143.280275 
L 91.655003 137.400316 
L 92.547866 137.572401 
" clip-path="url(#p0b8faebb63)" style="fill: #ff0000"/>
    <path d="M 86.713335 135.949311 
L 84.487756 141.508539 
L 87.189212 142.100311 
L 82.544898 145.138284 
L 81.280091 139.734656 
L 83.643596 141.170588 
L 85.869175 135.61136 
L 86.713335 135.949311 
" clip-path="url(#p0b8faebb63)" style="fill: #ff0000"/>
    <path d="M 81.291414 133.25136 
L 78.053963 138.288932 
L 80.594607 139.381264 
L 75.459281 141.485395 
L 75.239974 135.940051 
L 77.289016 137.79733 
L 80.526467 132.759758 
L 81.291414 133.25136 
" clip-path="url(#p0b8faebb63)" style="fill: #ff0000"/>
    <path d="M 76.478065 129.57606 
L 72.345752 133.909905 
L 74.633757 135.463317 
L 69.193024 136.557556 
L 70.027144 131.07092 
L 71.687664 133.282419 
L 75.819977 128.948575 
L 76.478065 129.57606 
" clip-path="url(#p0b8faebb63)" style="fill: #ff0000"/>
    <path d="M 72.447254 125.056244 
L 67.569432 128.529726 
L 69.522105 130.488073 
L 63.972607 130.532873 
L 65.830006 125.303245 
L 67.041989 127.789036 
L 71.919811 124.315555 
L 72.447254 125.056244 
" clip-path="url(#p0b8faebb63)" style="fill: #ff0000"/>
    <path d="M 69.344665 119.855272 
L 63.897631 122.342849 
L 65.444397 124.635353 
L 59.986708 123.629093 
L 62.800254 118.845487 
L 63.519897 121.515725 
L 68.966931 119.028148 
L 69.344665 119.855272 
" clip-path="url(#p0b8faebb63)" style="fill: #ff0000"/>
    <path d="M 67.282436 114.161119 
L 61.463059 115.572884 
L 62.548014 118.116687 
L 57.379388 116.095738 
L 61.047394 111.931044 
L 61.248685 114.689221 
L 67.068061 113.277456 
L 67.282436 114.161119 
" clip-path="url(#p0b8faebb63)" style="fill: #ff0000"/>
    <path d="M 66.335098 108.179587 
L 60.353708 108.464516 
L 60.937638 111.167678 
L 56.244883 108.205081 
L 60.634776 104.809824 
L 60.310442 107.556251 
L 66.291832 107.271323 
L 66.335098 108.179587 
" clip-path="url(#p0b8faebb63)" style="fill: #ff0000"/>
    <path d="M 66.536893 102.126865 
L 60.609671 101.274659 
L 60.671472 104.039481 
L 56.624196 100.242312 
L 61.577315 97.739204 
L 60.739077 100.37462 
L 66.666299 101.226826 
L 66.536893 102.126865 
" clip-path="url(#p0b8faebb63)" style="fill: #ff0000"/>
    <path d="M 67.880526 96.221713 
L 62.221698 94.263174 
L 61.759136 96.989727 
L 58.503619 92.495226 
L 63.840945 90.974737 
L 62.519099 93.403889 
L 68.177928 95.362429 
L 67.880526 96.221713 
" clip-path="url(#p0b8faebb63)" style="fill: #ff0000"/>
    <path d="M 70.317436 90.677559 
L 65.131526 87.683473 
L 64.161319 90.273214 
L 61.815223 85.243823 
L 67.343851 84.760907 
L 65.586173 86.896 
L 70.772083 89.890087 
L 70.317436 90.677559 
" clip-path="url(#p0b8faebb63)" style="fill: #ff0000"/>
    <path d="M 73.759545 85.694784 
L 69.233986 81.773364 
L 67.791201 84.132693 
L 66.43932 78.750188 
L 71.959431 79.322298 
L 69.829447 81.086165 
L 74.355006 85.007585 
L 73.759545 85.694784 
" clip-path="url(#p0b8faebb63)" style="fill: #ff0000"/>
    <path d="M 78.082447 81.453477 
L 74.380804 76.746455 
L 72.517586 78.790098 
L 72.208782 73.249017 
L 77.520865 74.855477 
L 75.095558 76.184366 
L 78.797201 80.891388 
L 78.082447 81.453477 
" clip-path="url(#p0b8faebb63)" style="fill: #ff0000"/>
    <path d="M 83.129902 78.106931 
L 80.385962 72.78443 
L 78.169653 74.438526 
L 78.915085 68.939138 
L 83.827147 71.521885 
L 81.194175 72.367767 
L 83.938115 77.690268 
L 83.129902 78.106931 
" clip-path="url(#p0b8faebb63)" style="fill: #ff0000"/>
    <path d="M 88.71948 75.776098 
L 87.032417 70.030488 
L 84.54312 71.235253 
L 86.315847 65.97632 
L 90.650354 69.442007 
L 87.904879 69.77431 
L 89.591942 75.51992 
L 88.71948 75.776098 
" clip-path="url(#p0b8faebb63)" style="fill: #ff0000"/>
    <path d="M 94.649161 74.545221 
L 94.079949 68.584163 
L 91.407633 69.296053 
L 94.143584 64.467647 
L 97.743875 68.691016 
L 94.985126 68.497729 
L 95.554338 74.458787 
L 94.649161 74.545221 
" clip-path="url(#p0b8faebb63)" style="fill: #ff0000"/>
   </g>
   <g id="text_1">
    <!-- y -->
    <g transform="translate(166.92371 98.831452) scale(0.1 -0.1)">
     <defs>
      <path id="DejaVuSans-79" d="M 2059 -325 
Q 1816 -950 1584 -1140 
Q 1353 -1331 966 -1331 
L 506 -1331 
L 506 -850 
L 844 -850 
Q 1081 -850 1212 -737 
Q 1344 -625 1503 -206 
L 1606 56 
L 191 3500 
L 800 3500 
L 1894 763 
L 2988 3500 
L 3597 3500 
L 2059 -325 
z
" transform="scale(0.015625)"/>
     </defs>
     <use xlink:href="#DejaVuSans-79"/>
    </g>
   </g>
   <g id="text_2">
    <!-- z -->
    <g transform="translate(87.061855 29.335258) scale(0.1 -0.1)">
     <defs>
      <path id="DejaVuSans-7a" d="M 353 3500 
L 3084 3500 
L 3084 2975 
L 922 459 
L 3084 459 
L 3084 0 
L 275 0 
L 275 525 
L 2438 3041 
L 353 3041 
L 353 3500 
z
" transform="scale(0.015625)"/>
     </defs>
     <use xlink:href="#DejaVuSans-7a"/>
    </g>
   </g>
   <g id="text_3">
    <!-- t = 0 -->
    <g transform="translate(128.439311 30.435302) scale(0.1 -0.1)">
     <defs>
      <path id="DejaVuSans-74" d="M 1172 4494 
L 1172 3500 
L 2356 3500 
L 2356 3053 
L 1172 3053 
L 1172 1153 
Q 1172 725 1289 603 
Q 1406 481 1766 481 
L 2356 481 
L 2356 0 
L 1766 0 
Q 1100 0 847 248 
Q 594 497 594 1153 
L 594 3053 
L 172 3053 
L 172 3500 
L 594 3500 
L 594 4494 
L 1172 4494 
z
" transform="scale(0.015625)"/>
      <path id="DejaVuSans-20" transform="scale(0.015625)"/>
      <path id="DejaVuSans-3d" d="M 678 2906 
L 4684 2906 
L 4684 2381 
L 678 2381 
L 678 2906 
z
M 678 1631 
L 4684 1631 
L 4684 1100 
L 678 1100 
L 678 1631 
z
" transform="scale(0.015625)"/>
      <path id="DejaVuSans-30" d="M 2034 4250 
Q 1547 4250 1301 3770 
Q 1056 3291 1056 2328 
Q 1056 1369 1301 889 
Q 1547 409 2034 409 
Q 2525 409 2770 889 
Q 3016 1369 3016 2328 
Q 3016 3291 2770 3770 
Q 2525 4250 2034 4250 
z
M 2034 4750 
Q 2819 4750 3233 4129 
Q 3647 3509 3647 2328 
Q 3647 1150 3233 529 
Q 2819 -91 2034 -91 
Q 1250 -91 836 529 
Q 422 1150 422 2328 
Q 422 3509 836 4129 
Q 1250 4750 2034 4750 
z
" transform="scale(0.015625)"/>
     </defs>
     <use xlink:href="#DejaVuSans-74"/>
     <use xlink:href="#DejaVuSans-20" x="39.208984"/>
     <use xlink:href="#DejaVuSans-3d" x="70.996094"/>
     <use xlink:href="#DejaVuSans-20" x="154.785156"/>
     <use xlink:href="#DejaVuSans-30" x="186.572266"/>
    </g>
   </g>
  </g>
 </g>
 <defs>
  <clipPath id="p0b8faebb63">
   <rect x="7.2" y="7.2" width="181.858967" height="266.112"/>
  </clipPath>
 </defs>
</svg>
