<?xml version="1.0" encoding="utf-8" standalone="no"?>
<!DOCTYPE svg PUBLIC "-//W3C//DTD SVG 1.1//EN"
  "http://www.w3.org/Graphics/SVG/1.1/DTD/svg11.dtd">
<svg xmlns:xlink="http://www.w3.org/1999/xlink" width="367.210369pt" height="231.84pt" viewBox="0 0 367.210369 231.84" xmlns="http://www.w3.org/2000/svg" version="1.1">
 <metadata>
  <rdf:RDF xmlns:dc="http://purl.org/dc/elements/1.1/" xmlns:cc="http://creativecommons.org/ns#" xmlns:rdf="http://www.w3.org/1999/02/22-rdf-syntax-ns#">
   <cc:Work>
    <dc:type rdf:resource="http://purl.org/dc/dcmitype/StillImage"/>
    <dc:date>2023-11-13T14:35:11.736127</dc:date>
    <dc:format>image/svg+xml</dc:format>
    <dc:creator>
     <cc:Agent>
      <dc:title>Matplotlib v3.7.2, https://matplotlib.org/</dc:title>
     </cc:Agent>
    </dc:creator>
   </cc:Work>
  </rdf:RDF>
 </metadata>
 <defs>
  <style type="text/css">*{stroke-linejoin: round; stroke-linecap: butt}</style>
 </defs>
 <g id="figure_1">
  <g id="axes_1">
   <g id="patch_1">
    <path d="M 174.6 16.589455 
L 178.059273 26.967273 
L 174.604942 26.967273 
L 174.604942 115.92 
L 174.595058 115.92 
L 174.595058 26.967273 
L 171.140727 26.967273 
z
" clip-path="url(#p759a0d52b4)" style="fill: #3079f7; stroke: #3079f7; stroke-width: 1.5; stroke-linejoin: miter"/>
   </g>
   <g id="patch_2">
    <path d="M 176.008425 16.59944 
L 179.320201 27.025265 
L 175.866218 26.976285 
L 174.604941 115.92007 
L 174.595059 115.91993 
L 175.856335 26.976145 
L 172.402351 26.927165 
z
" clip-path="url(#p759a0d52b4)" style="fill: #3079f7; stroke: #3079f7; stroke-width: 1.5; stroke-linejoin: miter"/>
   </g>
   <g id="patch_3">
    <path d="M 177.421956 16.629548 
L 180.585001 27.101455 
L 177.132064 27.003318 
L 174.60494 115.92014 
L 174.59506 115.91986 
L 177.122185 27.003037 
L 173.669248 26.9049 
z
" clip-path="url(#p759a0d52b4)" style="fill: #2e7bf7; stroke: #2e7bf7; stroke-width: 1.5; stroke-linejoin: miter"/>
   </g>
   <g id="patch_4">
    <path d="M 178.845767 16.680236 
L 181.858291 27.196432 
L 178.407117 27.048781 
L 174.604937 115.920211 
L 174.595063 115.919789 
L 178.397242 27.048358 
L 174.946069 26.900707 
z
" clip-path="url(#p759a0d52b4)" style="fill: #2e7bf7; stroke: #2e7bf7; stroke-width: 1.5; stroke-linejoin: miter"/>
   </g>
   <g id="patch_5">
    <path d="M 180.28518 16.752284 
L 183.144808 27.311081 
L 179.69614 27.113373 
L 174.604934 115.920283 
L 174.595066 115.919717 
L 179.686273 27.112807 
L 176.237604 26.915098 
z
" clip-path="url(#p759a0d52b4)" style="fill: #2e7bf7; stroke: #2e7bf7; stroke-width: 1.5; stroke-linejoin: miter"/>
   </g>
   <g id="patch_6">
    <path d="M 181.745734 16.846816 
L 184.449475 27.446602 
L 181.004094 27.198101 
L 174.604929 115.920356 
L 174.595071 115.919644 
L 180.994236 27.19739 
L 177.548855 26.948889 
z
" clip-path="url(#p759a0d52b4)" style="fill: #2e7bf7; stroke: #2e7bf7; stroke-width: 1.5; stroke-linejoin: miter"/>
   </g>
   <g id="patch_7">
    <path d="M 183.233273 16.965344 
L 185.777471 27.604552 
L 182.336212 27.30432 
L 174.604923 115.92043 
L 174.595077 115.91957 
L 182.326366 27.303461 
L 178.885107 27.003229 
z
" clip-path="url(#p759a0d52b4)" style="fill: #2e7bf7; stroke: #2e7bf7; stroke-width: 1.5; stroke-linejoin: miter"/>
   </g>
   <g id="patch_8">
    <path d="M 184.754034 17.109814 
L 187.134316 27.786889 
L 183.698081 27.433771 
L 174.604916 115.920505 
L 174.595084 115.919495 
L 183.688249 27.432761 
L 180.252014 27.079643 
z
" clip-path="url(#p759a0d52b4)" style="fill: #2e7bf7; stroke: #2e7bf7; stroke-width: 1.5; stroke-linejoin: miter"/>
   </g>
   <g id="patch_9">
    <path d="M 186.314756 17.282676 
L 188.525957 27.996044 
L 185.095733 27.588651 
L 174.604907 115.920583 
L 174.595093 115.919417 
L 185.085919 27.587485 
L 181.655695 27.180091 
z
" clip-path="url(#p759a0d52b4)" style="fill: #2e7bf7; stroke: #2e7bf7; stroke-width: 1.5; stroke-linejoin: miter"/>
   </g>
   <g id="patch_10">
    <path d="M 187.922791 17.486975 
L 189.958874 28.235 
L 186.535755 27.771685 
L 174.604897 115.920663 
L 174.595103 115.919337 
L 186.525961 27.770359 
L 183.102842 27.307044 
z
" clip-path="url(#p759a0d52b4)" style="fill: #2e7bf7; stroke: #2e7bf7; stroke-width: 1.5; stroke-linejoin: miter"/>
   </g>
   <g id="patch_11">
    <path d="M 189.586249 17.726469 
L 191.440197 28.507404 
L 188.025407 27.98624 
L 174.604885 115.920746 
L 174.595115 115.919254 
L 188.015636 27.984749 
L 184.600846 27.463585 
z
" clip-path="url(#p759a0d52b4)" style="fill: #2e7bf7; stroke: #2e7bf7; stroke-width: 1.5; stroke-linejoin: miter"/>
   </g>
   <g id="patch_12">
    <path d="M 191.314155 18.005781 
L 192.977848 28.81771 
L 189.572771 28.236456 
L 174.604871 115.920832 
L 174.595129 115.919168 
L 189.563028 28.234793 
L 186.157952 27.65354 
z
" clip-path="url(#p759a0d52b4)" style="fill: #2e7bf7; stroke: #2e7bf7; stroke-width: 1.5; stroke-linejoin: miter"/>
   </g>
   <g id="patch_13">
    <path d="M 193.11664 18.330598 
L 194.580702 29.171364 
L 191.186921 28.527427 
L 174.604855 115.920921 
L 174.595145 115.919079 
L 191.177211 28.525585 
L 187.78343 27.881648 
z
" clip-path="url(#p759a0d52b4)" style="fill: #2e7bf7; stroke: #2e7bf7; stroke-width: 1.5; stroke-linejoin: miter"/>
   </g>
   <g id="patch_14">
    <path d="M 195.005178 18.707933 
L 196.258788 29.575046 
L 192.87813 28.865433 
L 174.604836 115.921015 
L 174.595164 115.918985 
L 192.868457 28.863402 
L 189.487799 28.153789 
z
" clip-path="url(#p759a0d52b4)" style="fill: #2e7bf7; stroke: #2e7bf7; stroke-width: 1.5; stroke-linejoin: miter"/>
   </g>
   <g id="patch_15">
    <path d="M 196.992852 19.146463 
L 198.023523 30.036982 
L 194.658115 29.258245 
L 174.604815 115.921114 
L 174.595185 115.918886 
L 194.648486 29.256017 
L 191.283078 28.477281 
z
" clip-path="url(#p759a0d52b4)" style="fill: #2e7bf7; stroke: #2e7bf7; stroke-width: 1.5; stroke-linejoin: miter"/>
   </g>
   <g id="patch_16">
    <path d="M 199.0947 19.656991 
L 199.887995 30.567369 
L 196.540341 29.715539 
L 174.604789 115.921219 
L 174.595211 115.918781 
L 196.530763 29.713102 
L 193.183109 28.861271 
z
" clip-path="url(#p759a0d52b4)" style="fill: #2e7bf7; stroke: #2e7bf7; stroke-width: 1.5; stroke-linejoin: miter"/>
   </g>
   <g id="patch_17">
    <path d="M 201.328111 20.25305 
L 201.867307 31.178934 
L 198.540381 30.249434 
L 174.60476 115.92133 
L 174.59524 115.91867 
L 198.530862 30.246775 
L 195.203937 29.317275 
z
" clip-path="url(#p759a0d52b4)" style="fill: #2e7bf7; stroke: #2e7bf7; stroke-width: 1.5; stroke-linejoin: miter"/>
   </g>
   <g id="patch_18">
    <path d="M 203.713325 20.951734 
L 203.978986 31.887688 
L 200.676359 30.87524 
L 174.604725 115.921448 
L 174.595275 115.918552 
L 200.666909 30.872343 
L 197.364281 29.859895 
z
" clip-path="url(#p759a0d52b4)" style="fill: #2e7bf7; stroke: #2e7bf7; stroke-width: 1.5; stroke-linejoin: miter"/>
   </g>
   <g id="patch_19">
    <path d="M 206.274023 21.774827 
L 206.243485 32.713966 
L 202.969481 31.612466 
L 174.604684 115.921576 
L 174.595316 115.918424 
L 202.960113 31.609314 
L 199.686109 30.507815 
z
" clip-path="url(#p759a0d52b4)" style="fill: #2c7ef7; stroke: #2c7ef7; stroke-width: 1.5; stroke-linejoin: miter"/>
   </g>
   <g id="patch_20">
    <path d="M 209.038046 22.750379 
L 208.684755 33.683854 
L 205.444677 32.486232 
L 174.604635 115.921713 
L 174.595365 115.918287 
L 205.435406 32.482805 
L 202.195328 31.285184 
z
" clip-path="url(#p759a0d52b4)" style="fill: #2c7ef7; stroke: #2c7ef7; stroke-width: 1.5; stroke-linejoin: miter"/>
   </g>
   <g id="patch_21">
    <path d="M 212.038225 23.91491 
L 211.330926 34.831201 
L 208.131346 33.529245 
L 174.604577 115.921863 
L 174.595423 115.918137 
L 208.122192 33.52552 
L 204.922612 32.223563 
z
" clip-path="url(#p759a0d52b4)" style="fill: #2c7ef7; stroke: #2c7ef7; stroke-width: 1.5; stroke-linejoin: miter"/>
   </g>
   <g id="patch_22">
    <path d="M 215.313328 25.316566 
L 214.21504 36.200474 
L 211.064204 34.784622 
L 174.604508 115.922026 
L 174.595492 115.917974 
L 211.055189 34.780571 
L 207.904353 33.36472 
z
" clip-path="url(#p759a0d52b4)" style="fill: #2c7ef7; stroke: #2c7ef7; stroke-width: 1.5; stroke-linejoin: miter"/>
   </g>
   <g id="patch_23">
    <path d="M 218.909038 27.019683 
L 217.375766 37.850876 
L 214.284158 36.30998 
L 174.604423 115.922204 
L 174.595577 115.917796 
L 214.275313 36.305571 
L 211.183705 34.764675 
z
" clip-path="url(#p759a0d52b4)" style="fill: #2981f6; stroke: #2981f6; stroke-width: 1.5; stroke-linejoin: miter"/>
   </g>
   <g id="patch_24">
    <path d="M 222.878774 29.111491 
L 220.857905 39.862387 
L 217.839042 38.183438 
L 174.604319 115.922402 
L 174.595681 115.917598 
L 217.830404 38.178635 
L 214.811541 36.499686 
z
" clip-path="url(#p759a0d52b4)" style="fill: #2981f6; stroke: #2981f6; stroke-width: 1.5; stroke-linejoin: miter"/>
   </g>
   <g id="patch_25">
    <path d="M 227.283889 31.712132 
L 224.712215 42.344731 
L 221.783792 40.51259 
L 174.604189 115.922621 
L 174.595811 115.917379 
L 221.775413 40.507348 
L 218.84699 38.675206 
z
" clip-path="url(#p759a0d52b4)" style="fill: #2884f6; stroke: #2884f6; stroke-width: 1.5; stroke-linejoin: miter"/>
   </g>
   <g id="patch_26">
    <path d="M 232.192198 34.989808 
L 228.993567 45.450899 
L 226.179129 43.448066 
L 174.604026 115.922865 
L 174.595974 115.917135 
L 226.171076 43.442336 
L 223.356638 41.439503 
z
" clip-path="url(#p759a0d52b4)" style="fill: #2686f5; stroke: #2686f5; stroke-width: 1.5; stroke-linejoin: miter"/>
   </g>
   <g id="patch_27">
    <path d="M 237.672477 39.18396 
L 233.755215 49.397712 
L 231.086633 47.204296 
L 174.603818 115.923138 
L 174.596182 115.916862 
L 231.078998 47.19802 
L 228.410416 45.004604 
z
" clip-path="url(#p759a0d52b4)" style="fill: #2489f5; stroke: #2489f5; stroke-width: 1.5; stroke-linejoin: miter"/>
   </g>
   <g id="patch_28">
    <path d="M 243.779769 44.640853 
L 239.03439 54.497174 
L 236.555578 52.09137 
L 174.603546 115.923442 
L 174.596454 115.916558 
L 236.548486 52.084486 
L 234.069674 49.678682 
z
" clip-path="url(#p759a0d52b4)" style="fill: #218cf4; stroke: #218cf4; stroke-width: 1.5; stroke-linejoin: miter"/>
   </g>
   <g id="patch_29">
    <path d="M 250.519964 51.867551 
L 244.81871 61.203576 
L 242.591215 58.563375 
L 174.603187 115.923777 
L 174.596813 115.916223 
L 242.584841 58.555821 
L 240.357346 55.915619 
z
" clip-path="url(#p759a0d52b4)" style="fill: #1e91f3; stroke: #1e91f3; stroke-width: 1.5; stroke-linejoin: miter"/>
   </g>
   <g id="patch_30">
    <path d="M 257.768263 61.609805 
L 250.970442 70.180412 
L 249.081744 67.288143 
L 174.602702 115.924138 
L 174.597298 115.915862 
L 249.07634 67.279867 
L 247.187642 64.387598 
z
" clip-path="url(#p759a0d52b4)" style="fill: #1898f2; stroke: #1898f2; stroke-width: 1.5; stroke-linejoin: miter"/>
   </g>
   <g id="patch_31">
    <path d="M 265.086734 74.947957 
L 257.059783 82.379897 
L 255.634934 79.23312 
L 174.602038 115.924502 
L 174.597962 115.915498 
L 255.630857 79.224116 
L 254.206009 76.077339 
z
" clip-path="url(#p759a0d52b4)" style="fill: #0ea5ef; stroke: #0ea5ef; stroke-width: 1.5; stroke-linejoin: miter"/>
   </g>
   <g id="patch_32">
    <path d="M 271.332593 93.350933 
L 262.01219 99.077692 
L 261.227325 95.713708 
L 174.601123 115.924813 
L 174.598877 115.915187 
L 261.22508 95.704083 
L 260.440215 92.340098 
z
" clip-path="url(#p759a0d52b4)" style="fill: #02b7eb; stroke: #02b7eb; stroke-width: 1.5; stroke-linejoin: miter"/>
   </g>
   <g id="patch_33">
    <path d="M 273.898596 118.439131 
L 263.436385 121.634099 
L 263.523991 118.180879 
L 174.599875 115.92494 
L 174.600125 115.91506 
L 263.524241 118.170998 
L 263.611847 114.717779 
z
" clip-path="url(#p759a0d52b4)" style="fill: #22d6e0; stroke: #22d6e0; stroke-width: 1.5; stroke-linejoin: miter"/>
   </g>
   <g id="patch_34">
    <path d="M 267.636648 150.715681 
L 256.704611 150.320393 
L 257.91467 147.08494 
L 174.598269 115.924629 
L 174.601731 115.915371 
L 257.918132 147.075682 
L 259.128191 143.840229 
z
" clip-path="url(#p759a0d52b4)" style="fill: #6efebe; stroke: #6efebe; stroke-width: 1.5; stroke-linejoin: miter"/>
   </g>
   <g id="patch_35">
    <path d="M 244.943558 186.050886 
L 235.151862 181.173554 
L 237.590742 178.727278 
L 174.596511 115.9235 
L 174.603489 115.9165 
L 237.59772 178.720279 
L 240.0366 176.274003 
z
" clip-path="url(#p759a0d52b4)" style="fill: #ff2914; stroke: #ff2914; stroke-width: 1.5; stroke-linejoin: miter"/>
   </g>
   <g id="patch_36">
    <path d="M 201.537833 211.528108 
L 195.393797 202.477335 
L 198.718676 201.540542 
L 174.595243 115.92134 
L 174.604757 115.91866 
L 198.728189 201.537861 
L 202.053068 200.601068 
z
" clip-path="url(#p759a0d52b4)" style="fill: #ff0000; stroke: #ff0000; stroke-width: 1.5; stroke-linejoin: miter"/>
   </g>
   <g id="patch_37">
    <path d="M 147.662167 211.528108 
L 147.146932 200.601068 
L 150.471811 201.537861 
L 174.595243 115.91866 
L 174.604757 115.92134 
L 150.481324 201.540542 
L 153.806203 202.477335 
z
" clip-path="url(#p759a0d52b4)" style="fill: #ff0000; stroke: #ff0000; stroke-width: 1.5; stroke-linejoin: miter"/>
   </g>
   <g id="patch_38">
    <path d="M 104.256442 186.050886 
L 109.1634 176.274003 
L 111.60228 178.720279 
L 174.596511 115.9165 
L 174.603489 115.9235 
L 111.609258 178.727278 
L 114.048138 181.173554 
z
" clip-path="url(#p759a0d52b4)" style="fill: #ff2914; stroke: #ff2914; stroke-width: 1.5; stroke-linejoin: miter"/>
   </g>
   <g id="patch_39">
    <path d="M 81.563352 150.715681 
L 90.071809 143.840229 
L 91.281868 147.075682 
L 174.598269 115.915371 
L 174.601731 115.924629 
L 91.28533 147.08494 
L 92.495389 150.320393 
z
" clip-path="url(#p759a0d52b4)" style="fill: #6efebe; stroke: #6efebe; stroke-width: 1.5; stroke-linejoin: miter"/>
   </g>
   <g id="patch_40">
    <path d="M 75.301404 118.439131 
L 85.588153 114.717779 
L 85.675759 118.170998 
L 174.599875 115.91506 
L 174.600125 115.92494 
L 85.676009 118.180879 
L 85.763615 121.634099 
z
" clip-path="url(#p759a0d52b4)" style="fill: #22d6e0; stroke: #22d6e0; stroke-width: 1.5; stroke-linejoin: miter"/>
   </g>
   <g id="patch_41">
    <path d="M 77.867407 93.350933 
L 88.759785 92.340098 
L 87.97492 95.704083 
L 174.601123 115.915187 
L 174.598877 115.924813 
L 87.972675 95.713708 
L 87.18781 99.077692 
z
" clip-path="url(#p759a0d52b4)" style="fill: #02b7eb; stroke: #02b7eb; stroke-width: 1.5; stroke-linejoin: miter"/>
   </g>
   <g id="patch_42">
    <path d="M 84.113266 74.947957 
L 94.993991 76.077339 
L 93.569143 79.224116 
L 174.602038 115.915498 
L 174.597962 115.924502 
L 93.565066 79.23312 
L 92.140217 82.379897 
z
" clip-path="url(#p759a0d52b4)" style="fill: #0ea5ef; stroke: #0ea5ef; stroke-width: 1.5; stroke-linejoin: miter"/>
   </g>
   <g id="patch_43">
    <path d="M 91.431737 61.609805 
L 102.012358 64.387598 
L 100.12366 67.279867 
L 174.602702 115.915862 
L 174.597298 115.924138 
L 100.118256 67.288143 
L 98.229558 70.180412 
z
" clip-path="url(#p759a0d52b4)" style="fill: #1898f2; stroke: #1898f2; stroke-width: 1.5; stroke-linejoin: miter"/>
   </g>
   <g id="patch_44">
    <path d="M 98.680036 51.867551 
L 108.842654 55.915619 
L 106.615159 58.555821 
L 174.603187 115.916223 
L 174.596813 115.923777 
L 106.608785 58.563375 
L 104.38129 61.203576 
z
" clip-path="url(#p759a0d52b4)" style="fill: #1e91f3; stroke: #1e91f3; stroke-width: 1.5; stroke-linejoin: miter"/>
   </g>
   <g id="patch_45">
    <path d="M 105.420231 44.640853 
L 115.130326 49.678682 
L 112.651514 52.084486 
L 174.603546 115.916558 
L 174.596454 115.923442 
L 112.644422 52.09137 
L 110.16561 54.497174 
z
" clip-path="url(#p759a0d52b4)" style="fill: #218cf4; stroke: #218cf4; stroke-width: 1.5; stroke-linejoin: miter"/>
   </g>
   <g id="patch_46">
    <path d="M 111.527523 39.18396 
L 120.789584 45.004604 
L 118.121002 47.19802 
L 174.603818 115.916862 
L 174.596182 115.923138 
L 118.113367 47.204296 
L 115.444785 49.397712 
z
" clip-path="url(#p759a0d52b4)" style="fill: #2489f5; stroke: #2489f5; stroke-width: 1.5; stroke-linejoin: miter"/>
   </g>
   <g id="patch_47">
    <path d="M 117.007802 34.989808 
L 125.843362 41.439503 
L 123.028924 43.442336 
L 174.604026 115.917135 
L 174.595974 115.922865 
L 123.020871 43.448066 
L 120.206433 45.450899 
z
" clip-path="url(#p759a0d52b4)" style="fill: #2686f5; stroke: #2686f5; stroke-width: 1.5; stroke-linejoin: miter"/>
   </g>
   <g id="patch_48">
    <path d="M 121.916111 31.712132 
L 130.35301 38.675206 
L 127.424587 40.507348 
L 174.604189 115.917379 
L 174.595811 115.922621 
L 127.416208 40.51259 
L 124.487785 42.344731 
z
" clip-path="url(#p759a0d52b4)" style="fill: #2884f6; stroke: #2884f6; stroke-width: 1.5; stroke-linejoin: miter"/>
   </g>
   <g id="patch_49">
    <path d="M 126.321226 29.111491 
L 134.388459 36.499686 
L 131.369596 38.178635 
L 174.604319 115.917598 
L 174.595681 115.922402 
L 131.360958 38.183438 
L 128.342095 39.862387 
z
" clip-path="url(#p759a0d52b4)" style="fill: #2981f6; stroke: #2981f6; stroke-width: 1.5; stroke-linejoin: miter"/>
   </g>
   <g id="patch_50">
    <path d="M 130.290962 27.019683 
L 138.016295 34.764675 
L 134.924687 36.305571 
L 174.604423 115.917796 
L 174.595577 115.922204 
L 134.915842 36.30998 
L 131.824234 37.850876 
z
" clip-path="url(#p759a0d52b4)" style="fill: #2981f6; stroke: #2981f6; stroke-width: 1.5; stroke-linejoin: miter"/>
   </g>
   <g id="patch_51">
    <path d="M 133.886672 25.316566 
L 141.295647 33.36472 
L 138.144811 34.780571 
L 174.604508 115.917974 
L 174.595492 115.922026 
L 138.135796 34.784622 
L 134.98496 36.200474 
z
" clip-path="url(#p759a0d52b4)" style="fill: #2c7ef7; stroke: #2c7ef7; stroke-width: 1.5; stroke-linejoin: miter"/>
   </g>
   <g id="patch_52">
    <path d="M 137.161775 23.91491 
L 144.277388 32.223563 
L 141.077808 33.52552 
L 174.604577 115.918137 
L 174.595423 115.921863 
L 141.068654 33.529245 
L 137.869074 34.831201 
z
" clip-path="url(#p759a0d52b4)" style="fill: #2c7ef7; stroke: #2c7ef7; stroke-width: 1.5; stroke-linejoin: miter"/>
   </g>
   <g id="patch_53">
    <path d="M 140.161954 22.750379 
L 147.004672 31.285184 
L 143.764594 32.482805 
L 174.604635 115.918287 
L 174.595365 115.921713 
L 143.755323 32.486232 
L 140.515245 33.683854 
z
" clip-path="url(#p759a0d52b4)" style="fill: #2c7ef7; stroke: #2c7ef7; stroke-width: 1.5; stroke-linejoin: miter"/>
   </g>
   <g id="patch_54">
    <path d="M 142.925977 21.774827 
L 149.513891 30.507815 
L 146.239887 31.609314 
L 174.604684 115.918424 
L 174.595316 115.921576 
L 146.230519 31.612466 
L 142.956515 32.713966 
z
" clip-path="url(#p759a0d52b4)" style="fill: #2c7ef7; stroke: #2c7ef7; stroke-width: 1.5; stroke-linejoin: miter"/>
   </g>
   <g id="patch_55">
    <path d="M 145.486675 20.951734 
L 151.835719 29.859895 
L 148.533091 30.872343 
L 174.604725 115.918552 
L 174.595275 115.921448 
L 148.523641 30.87524 
L 145.221014 31.887688 
z
" clip-path="url(#p759a0d52b4)" style="fill: #2e7bf7; stroke: #2e7bf7; stroke-width: 1.5; stroke-linejoin: miter"/>
   </g>
   <g id="patch_56">
    <path d="M 147.871889 20.25305 
L 153.996063 29.317275 
L 150.669138 30.246775 
L 174.60476 115.91867 
L 174.59524 115.92133 
L 150.659619 30.249434 
L 147.332693 31.178934 
z
" clip-path="url(#p759a0d52b4)" style="fill: #2e7bf7; stroke: #2e7bf7; stroke-width: 1.5; stroke-linejoin: miter"/>
   </g>
   <g id="patch_57">
    <path d="M 150.1053 19.656991 
L 156.016891 28.861271 
L 152.669237 29.713102 
L 174.604789 115.918781 
L 174.595211 115.921219 
L 152.659659 29.715539 
L 149.312005 30.567369 
z
" clip-path="url(#p759a0d52b4)" style="fill: #2e7bf7; stroke: #2e7bf7; stroke-width: 1.5; stroke-linejoin: miter"/>
   </g>
   <g id="patch_58">
    <path d="M 152.207148 19.146463 
L 157.916922 28.477281 
L 154.551514 29.256017 
L 174.604815 115.918886 
L 174.595185 115.921114 
L 154.541885 29.258245 
L 151.176477 30.036982 
z
" clip-path="url(#p759a0d52b4)" style="fill: #2e7bf7; stroke: #2e7bf7; stroke-width: 1.5; stroke-linejoin: miter"/>
   </g>
   <g id="patch_59">
    <path d="M 154.194822 18.707933 
L 159.712201 28.153789 
L 156.331543 28.863402 
L 174.604836 115.918985 
L 174.595164 115.921015 
L 156.32187 28.865433 
L 152.941212 29.575046 
z
" clip-path="url(#p759a0d52b4)" style="fill: #2e7bf7; stroke: #2e7bf7; stroke-width: 1.5; stroke-linejoin: miter"/>
   </g>
   <g id="patch_60">
    <path d="M 156.08336 18.330598 
L 161.41657 27.881648 
L 158.022789 28.525585 
L 174.604855 115.919079 
L 174.595145 115.920921 
L 158.013079 28.527427 
L 154.619298 29.171364 
z
" clip-path="url(#p759a0d52b4)" style="fill: #2e7bf7; stroke: #2e7bf7; stroke-width: 1.5; stroke-linejoin: miter"/>
   </g>
   <g id="patch_61">
    <path d="M 157.885845 18.005781 
L 163.042048 27.65354 
L 159.636972 28.234793 
L 174.604871 115.919168 
L 174.595129 115.920832 
L 159.627229 28.236456 
L 156.222152 28.81771 
z
" clip-path="url(#p759a0d52b4)" style="fill: #2e7bf7; stroke: #2e7bf7; stroke-width: 1.5; stroke-linejoin: miter"/>
   </g>
   <g id="patch_62">
    <path d="M 159.613751 17.726469 
L 164.599154 27.463585 
L 161.184364 27.984749 
L 174.604885 115.919254 
L 174.595115 115.920746 
L 161.174593 27.98624 
L 157.759803 28.507404 
z
" clip-path="url(#p759a0d52b4)" style="fill: #2e7bf7; stroke: #2e7bf7; stroke-width: 1.5; stroke-linejoin: miter"/>
   </g>
   <g id="patch_63">
    <path d="M 161.277209 17.486975 
L 166.097158 27.307044 
L 162.674039 27.770359 
L 174.604897 115.919337 
L 174.595103 115.920663 
L 162.664245 27.771685 
L 159.241126 28.235 
z
" clip-path="url(#p759a0d52b4)" style="fill: #2e7bf7; stroke: #2e7bf7; stroke-width: 1.5; stroke-linejoin: miter"/>
   </g>
   <g id="patch_64">
    <path d="M 162.885244 17.282676 
L 167.544305 27.180091 
L 164.114081 27.587485 
L 174.604907 115.919417 
L 174.595093 115.920583 
L 164.104267 27.588651 
L 160.674043 27.996044 
z
" clip-path="url(#p759a0d52b4)" style="fill: #2e7bf7; stroke: #2e7bf7; stroke-width: 1.5; stroke-linejoin: miter"/>
   </g>
   <g id="patch_65">
    <path d="M 164.445966 17.109814 
L 168.947986 27.079643 
L 165.511751 27.432761 
L 174.604916 115.919495 
L 174.595084 115.920505 
L 165.501919 27.433771 
L 162.065684 27.786889 
z
" clip-path="url(#p759a0d52b4)" style="fill: #2e7bf7; stroke: #2e7bf7; stroke-width: 1.5; stroke-linejoin: miter"/>
   </g>
   <g id="patch_66">
    <path d="M 165.966727 16.965344 
L 170.314893 27.003229 
L 166.873634 27.303461 
L 174.604923 115.91957 
L 174.595077 115.92043 
L 166.863788 27.30432 
L 163.422529 27.604552 
z
" clip-path="url(#p759a0d52b4)" style="fill: #2e7bf7; stroke: #2e7bf7; stroke-width: 1.5; stroke-linejoin: miter"/>
   </g>
   <g id="patch_67">
    <path d="M 167.454266 16.846816 
L 171.651145 26.948889 
L 168.205764 27.19739 
L 174.604929 115.919644 
L 174.595071 115.920356 
L 168.195906 27.198101 
L 164.750525 27.446602 
z
" clip-path="url(#p759a0d52b4)" style="fill: #2e7bf7; stroke: #2e7bf7; stroke-width: 1.5; stroke-linejoin: miter"/>
   </g>
   <g id="patch_68">
    <path d="M 168.91482 16.752284 
L 172.962396 26.915098 
L 169.513727 27.112807 
L 174.604934 115.919717 
L 174.595066 115.920283 
L 169.50386 27.113373 
L 166.055192 27.311081 
z
" clip-path="url(#p759a0d52b4)" style="fill: #2e7bf7; stroke: #2e7bf7; stroke-width: 1.5; stroke-linejoin: miter"/>
   </g>
   <g id="patch_69">
    <path d="M 170.354233 16.680236 
L 174.253931 26.900707 
L 170.802758 27.048358 
L 174.604937 115.919789 
L 174.595063 115.920211 
L 170.792883 27.048781 
L 167.341709 27.196432 
z
" clip-path="url(#p759a0d52b4)" style="fill: #2e7bf7; stroke: #2e7bf7; stroke-width: 1.5; stroke-linejoin: miter"/>
   </g>
   <g id="patch_70">
    <path d="M 171.778044 16.629548 
L 175.530752 26.9049 
L 172.077815 27.003037 
L 174.60494 115.91986 
L 174.59506 115.92014 
L 172.067936 27.003318 
L 168.614999 27.101455 
z
" clip-path="url(#p759a0d52b4)" style="fill: #2e7bf7; stroke: #2e7bf7; stroke-width: 1.5; stroke-linejoin: miter"/>
   </g>
   <g id="patch_71">
    <path d="M 173.191575 16.59944 
L 176.797649 26.927165 
L 173.343665 26.976145 
L 174.604941 115.91993 
L 174.595059 115.92007 
L 173.333782 26.976285 
L 169.879799 27.025265 
z
" clip-path="url(#p759a0d52b4)" style="fill: #3079f7; stroke: #3079f7; stroke-width: 1.5; stroke-linejoin: miter"/>
   </g>
   <g id="PathCollection_1">
    <defs>
     <path id="m81c1e3155a" d="M 0 2.738613 
C 0.726289 2.738613 1.422928 2.450055 1.936492 1.936492 
C 2.450055 1.422928 2.738613 0.726289 2.738613 0 
C 2.738613 -0.726289 2.450055 -1.422928 1.936492 -1.936492 
C 1.422928 -2.450055 0.726289 -2.738613 0 -2.738613 
C -0.726289 -2.738613 -1.422928 -2.450055 -1.936492 -1.936492 
C -2.450055 -1.422928 -2.738613 -0.726289 -2.738613 0 
C -2.738613 0.726289 -2.450055 1.422928 -1.936492 1.936492 
C -1.422928 2.450055 -0.726289 2.738613 0 2.738613 
z
" style="stroke: #000000"/>
    </defs>
    <g clip-path="url(#p759a0d52b4)">
     <use xlink:href="#m81c1e3155a" x="174.6" y="115.92" style="stroke: #000000"/>
    </g>
   </g>
   <g id="Quiver_1">
    <path d="M 172.926 115.92 
L 172.926 46.480909 
L 166.23 44.806909 
L 174.6 31.414909 
L 182.97 44.806909 
L 176.274 46.480909 
L 176.274 115.92 
L 172.926 115.92 
" clip-path="url(#p759a0d52b4)"/>
   </g>
   <g id="text_1">
    <!-- Source velocity = 0.95 c -->
    <g transform="translate(224.018182 214.756364) scale(0.1 -0.1)">
     <defs>
      <path id="DejaVuSans-Bold-53" d="M 3834 4519 
L 3834 3531 
Q 3450 3703 3084 3790 
Q 2719 3878 2394 3878 
Q 1963 3878 1756 3759 
Q 1550 3641 1550 3391 
Q 1550 3203 1689 3098 
Q 1828 2994 2194 2919 
L 2706 2816 
Q 3484 2659 3812 2340 
Q 4141 2022 4141 1434 
Q 4141 663 3683 286 
Q 3225 -91 2284 -91 
Q 1841 -91 1394 -6 
Q 947 78 500 244 
L 500 1259 
Q 947 1022 1364 901 
Q 1781 781 2169 781 
Q 2563 781 2772 912 
Q 2981 1044 2981 1288 
Q 2981 1506 2839 1625 
Q 2697 1744 2272 1838 
L 1806 1941 
Q 1106 2091 782 2419 
Q 459 2747 459 3303 
Q 459 4000 909 4375 
Q 1359 4750 2203 4750 
Q 2588 4750 2994 4692 
Q 3400 4634 3834 4519 
z
" transform="scale(0.015625)"/>
      <path id="DejaVuSans-Bold-6f" d="M 2203 2784 
Q 1831 2784 1636 2517 
Q 1441 2250 1441 1747 
Q 1441 1244 1636 976 
Q 1831 709 2203 709 
Q 2569 709 2762 976 
Q 2956 1244 2956 1747 
Q 2956 2250 2762 2517 
Q 2569 2784 2203 2784 
z
M 2203 3584 
Q 3106 3584 3614 3096 
Q 4122 2609 4122 1747 
Q 4122 884 3614 396 
Q 3106 -91 2203 -91 
Q 1297 -91 786 396 
Q 275 884 275 1747 
Q 275 2609 786 3096 
Q 1297 3584 2203 3584 
z
" transform="scale(0.015625)"/>
      <path id="DejaVuSans-Bold-75" d="M 500 1363 
L 500 3500 
L 1625 3500 
L 1625 3150 
Q 1625 2866 1622 2436 
Q 1619 2006 1619 1863 
Q 1619 1441 1641 1255 
Q 1663 1069 1716 984 
Q 1784 875 1895 815 
Q 2006 756 2150 756 
Q 2500 756 2700 1025 
Q 2900 1294 2900 1772 
L 2900 3500 
L 4019 3500 
L 4019 0 
L 2900 0 
L 2900 506 
Q 2647 200 2364 54 
Q 2081 -91 1741 -91 
Q 1134 -91 817 281 
Q 500 653 500 1363 
z
" transform="scale(0.015625)"/>
      <path id="DejaVuSans-Bold-72" d="M 3138 2547 
Q 2991 2616 2845 2648 
Q 2700 2681 2553 2681 
Q 2122 2681 1889 2404 
Q 1656 2128 1656 1613 
L 1656 0 
L 538 0 
L 538 3500 
L 1656 3500 
L 1656 2925 
Q 1872 3269 2151 3426 
Q 2431 3584 2822 3584 
Q 2878 3584 2943 3579 
Q 3009 3575 3134 3559 
L 3138 2547 
z
" transform="scale(0.015625)"/>
      <path id="DejaVuSans-Bold-63" d="M 3366 3391 
L 3366 2478 
Q 3138 2634 2908 2709 
Q 2678 2784 2431 2784 
Q 1963 2784 1702 2511 
Q 1441 2238 1441 1747 
Q 1441 1256 1702 982 
Q 1963 709 2431 709 
Q 2694 709 2930 787 
Q 3166 866 3366 1019 
L 3366 103 
Q 3103 6 2833 -42 
Q 2563 -91 2291 -91 
Q 1344 -91 809 395 
Q 275 881 275 1747 
Q 275 2613 809 3098 
Q 1344 3584 2291 3584 
Q 2566 3584 2833 3536 
Q 3100 3488 3366 3391 
z
" transform="scale(0.015625)"/>
      <path id="DejaVuSans-Bold-65" d="M 4031 1759 
L 4031 1441 
L 1416 1441 
Q 1456 1047 1700 850 
Q 1944 653 2381 653 
Q 2734 653 3104 758 
Q 3475 863 3866 1075 
L 3866 213 
Q 3469 63 3072 -14 
Q 2675 -91 2278 -91 
Q 1328 -91 801 392 
Q 275 875 275 1747 
Q 275 2603 792 3093 
Q 1309 3584 2216 3584 
Q 3041 3584 3536 3087 
Q 4031 2591 4031 1759 
z
M 2881 2131 
Q 2881 2450 2695 2645 
Q 2509 2841 2209 2841 
Q 1884 2841 1681 2658 
Q 1478 2475 1428 2131 
L 2881 2131 
z
" transform="scale(0.015625)"/>
      <path id="DejaVuSans-Bold-20" transform="scale(0.015625)"/>
      <path id="DejaVuSans-Bold-76" d="M 97 3500 
L 1216 3500 
L 2088 1081 
L 2956 3500 
L 4078 3500 
L 2700 0 
L 1472 0 
L 97 3500 
z
" transform="scale(0.015625)"/>
      <path id="DejaVuSans-Bold-6c" d="M 538 4863 
L 1656 4863 
L 1656 0 
L 538 0 
L 538 4863 
z
" transform="scale(0.015625)"/>
      <path id="DejaVuSans-Bold-69" d="M 538 3500 
L 1656 3500 
L 1656 0 
L 538 0 
L 538 3500 
z
M 538 4863 
L 1656 4863 
L 1656 3950 
L 538 3950 
L 538 4863 
z
" transform="scale(0.015625)"/>
      <path id="DejaVuSans-Bold-74" d="M 1759 4494 
L 1759 3500 
L 2913 3500 
L 2913 2700 
L 1759 2700 
L 1759 1216 
Q 1759 972 1856 886 
Q 1953 800 2241 800 
L 2816 800 
L 2816 0 
L 1856 0 
Q 1194 0 917 276 
Q 641 553 641 1216 
L 641 2700 
L 84 2700 
L 84 3500 
L 641 3500 
L 641 4494 
L 1759 4494 
z
" transform="scale(0.015625)"/>
      <path id="DejaVuSans-Bold-79" d="M 78 3500 
L 1197 3500 
L 2138 1125 
L 2938 3500 
L 4056 3500 
L 2584 -331 
Q 2363 -916 2067 -1148 
Q 1772 -1381 1288 -1381 
L 641 -1381 
L 641 -647 
L 991 -647 
Q 1275 -647 1404 -556 
Q 1534 -466 1606 -231 
L 1638 -134 
L 78 3500 
z
" transform="scale(0.015625)"/>
      <path id="DejaVuSans-Bold-3d" d="M 678 3084 
L 4684 3084 
L 4684 2350 
L 678 2350 
L 678 3084 
z
M 678 1663 
L 4684 1663 
L 4684 922 
L 678 922 
L 678 1663 
z
" transform="scale(0.015625)"/>
      <path id="DejaVuSans-Bold-30" d="M 2944 2338 
Q 2944 3213 2780 3570 
Q 2616 3928 2228 3928 
Q 1841 3928 1675 3570 
Q 1509 3213 1509 2338 
Q 1509 1453 1675 1090 
Q 1841 728 2228 728 
Q 2613 728 2778 1090 
Q 2944 1453 2944 2338 
z
M 4147 2328 
Q 4147 1169 3647 539 
Q 3147 -91 2228 -91 
Q 1306 -91 806 539 
Q 306 1169 306 2328 
Q 306 3491 806 4120 
Q 1306 4750 2228 4750 
Q 3147 4750 3647 4120 
Q 4147 3491 4147 2328 
z
" transform="scale(0.015625)"/>
      <path id="DejaVuSans-Bold-2e" d="M 653 1209 
L 1778 1209 
L 1778 0 
L 653 0 
L 653 1209 
z
" transform="scale(0.015625)"/>
      <path id="DejaVuSans-Bold-39" d="M 641 103 
L 641 966 
Q 928 831 1190 764 
Q 1453 697 1709 697 
Q 2247 697 2547 995 
Q 2847 1294 2900 1881 
Q 2688 1725 2447 1647 
Q 2206 1569 1925 1569 
Q 1209 1569 770 1986 
Q 331 2403 331 3084 
Q 331 3838 820 4291 
Q 1309 4744 2131 4744 
Q 3044 4744 3544 4128 
Q 4044 3513 4044 2388 
Q 4044 1231 3459 570 
Q 2875 -91 1856 -91 
Q 1528 -91 1228 -42 
Q 928 6 641 103 
z
M 2125 2350 
Q 2441 2350 2600 2554 
Q 2759 2759 2759 3169 
Q 2759 3575 2600 3781 
Q 2441 3988 2125 3988 
Q 1809 3988 1650 3781 
Q 1491 3575 1491 3169 
Q 1491 2759 1650 2554 
Q 1809 2350 2125 2350 
z
" transform="scale(0.015625)"/>
      <path id="DejaVuSans-Bold-35" d="M 678 4666 
L 3669 4666 
L 3669 3781 
L 1638 3781 
L 1638 3059 
Q 1775 3097 1914 3117 
Q 2053 3138 2203 3138 
Q 3056 3138 3531 2711 
Q 4006 2284 4006 1522 
Q 4006 766 3489 337 
Q 2972 -91 2053 -91 
Q 1656 -91 1267 -14 
Q 878 63 494 219 
L 494 1166 
Q 875 947 1217 837 
Q 1559 728 1863 728 
Q 2300 728 2551 942 
Q 2803 1156 2803 1522 
Q 2803 1891 2551 2103 
Q 2300 2316 1863 2316 
Q 1603 2316 1309 2248 
Q 1016 2181 678 2041 
L 678 4666 
z
" transform="scale(0.015625)"/>
     </defs>
     <use xlink:href="#DejaVuSans-Bold-53"/>
     <use xlink:href="#DejaVuSans-Bold-6f" x="72.021484"/>
     <use xlink:href="#DejaVuSans-Bold-75" x="140.722656"/>
     <use xlink:href="#DejaVuSans-Bold-72" x="211.914062"/>
     <use xlink:href="#DejaVuSans-Bold-63" x="261.230469"/>
     <use xlink:href="#DejaVuSans-Bold-65" x="320.507812"/>
     <use xlink:href="#DejaVuSans-Bold-20" x="388.330078"/>
     <use xlink:href="#DejaVuSans-Bold-76" x="423.144531"/>
     <use xlink:href="#DejaVuSans-Bold-65" x="488.330078"/>
     <use xlink:href="#DejaVuSans-Bold-6c" x="556.152344"/>
     <use xlink:href="#DejaVuSans-Bold-6f" x="590.429688"/>
     <use xlink:href="#DejaVuSans-Bold-63" x="659.130859"/>
     <use xlink:href="#DejaVuSans-Bold-69" x="718.408203"/>
     <use xlink:href="#DejaVuSans-Bold-74" x="752.685547"/>
     <use xlink:href="#DejaVuSans-Bold-79" x="800.488281"/>
     <use xlink:href="#DejaVuSans-Bold-20" x="865.673828"/>
     <use xlink:href="#DejaVuSans-Bold-3d" x="900.488281"/>
     <use xlink:href="#DejaVuSans-Bold-20" x="984.277344"/>
     <use xlink:href="#DejaVuSans-Bold-30" x="1019.091797"/>
     <use xlink:href="#DejaVuSans-Bold-2e" x="1088.671875"/>
     <use xlink:href="#DejaVuSans-Bold-39" x="1126.660156"/>
     <use xlink:href="#DejaVuSans-Bold-35" x="1196.240234"/>
     <use xlink:href="#DejaVuSans-Bold-20" x="1265.820312"/>
     <use xlink:href="#DejaVuSans-Bold-63" x="1300.634766"/>
    </g>
   </g>
  </g>
 </g>
 <defs>
  <clipPath id="p759a0d52b4">
   <rect x="7.2" y="7.2" width="334.8" height="217.44"/>
  </clipPath>
 </defs>
</svg>
