<svg width="4419" height="1649" xmlns="http://www.w3.org/2000/svg" xmlns:xlink="http://www.w3.org/1999/xlink" xml:space="preserve" overflow="hidden"><g transform="translate(18 0)"><rect x="-15.0001" y="0" width="4413" height="1640" fill="#BFBFBF"/><path d="M0 0 4410.27 0.000360892" stroke="#7F7F7F" stroke-width="11.4583" stroke-miterlimit="8" fill="none" fill-rule="evenodd" transform="matrix(-1 0 0 1 4397.77 1557.5)"/><path d="M0 0 4410.27 0.000360892" stroke="#7F7F7F" stroke-width="11.4583" stroke-miterlimit="8" fill="none" fill-rule="evenodd" transform="matrix(-1 0 0 1 4397.77 1604.5)"/><path d="M0 0 4410.27 0.000360892" stroke="#7F7F7F" stroke-width="11.4583" stroke-miterlimit="8" fill="none" fill-rule="evenodd" transform="matrix(-1 0 0 1 4397.77 1418.5)"/><path d="M0 0 4405.47 0.000360892" stroke="#7F7F7F" stroke-width="11.4583" stroke-miterlimit="8" fill="none" fill-rule="evenodd" transform="matrix(-1 0 0 1 4392.97 1466.5)"/><path d="M0 0 4412.62 0.000360892" stroke="#7F7F7F" stroke-width="11.4583" stroke-miterlimit="8" fill="none" fill-rule="evenodd" transform="matrix(-1 0 0 1 4400.12 1513.5)"/><path d="M4397.77 426.423-12.5 424.5" stroke="#7F7F7F" stroke-width="11.4583" stroke-miterlimit="8" fill="none" fill-rule="evenodd"/><path d="M0 0 4410.27 0.000360892" stroke="#7F7F7F" stroke-width="11.4583" stroke-miterlimit="8" fill="none" fill-rule="evenodd" transform="matrix(-1 0 0 1 4397.77 471.5)"/><path d="M0 0 4410.27 0.000360892" stroke="#7F7F7F" stroke-width="11.4583" stroke-miterlimit="8" fill="none" fill-rule="evenodd" transform="matrix(-1 0 0 1 4397.77 518.5)"/><path d="M0 0 4405.47 0.000360892" stroke="#7F7F7F" stroke-width="11.4583" stroke-miterlimit="8" fill="none" fill-rule="evenodd" transform="matrix(-1 0 0 1 4392.97 566.5)"/><path d="M0 0 4412.62 0.000360892" stroke="#7F7F7F" stroke-width="11.4583" stroke-miterlimit="8" fill="none" fill-rule="evenodd" transform="matrix(-1 0 0 1 4400.12 613.5)"/><path d="M0 0 4412.62 0.000360892" stroke="#7F7F7F" stroke-width="11.4583" stroke-miterlimit="8" fill="none" fill-rule="evenodd" transform="matrix(-1 0 0 1 4400.12 660.5)"/><path d="M0 0 4412.62 0.000360892" stroke="#7F7F7F" stroke-width="11.4583" stroke-miterlimit="8" fill="none" fill-rule="evenodd" transform="matrix(-1 0 0 1 4400.12 707.5)"/><path d="M0 0 4412.62 0.000360892" stroke="#7F7F7F" stroke-width="11.4583" stroke-miterlimit="8" fill="none" fill-rule="evenodd" transform="matrix(-1 0 0 1 4400.12 755.5)"/><path d="M0 0 4412.62 0.000360892" stroke="#7F7F7F" stroke-width="11.4583" stroke-miterlimit="8" fill="none" fill-rule="evenodd" transform="matrix(-1 0 0 1 4400.12 802.5)"/><path d="M0 0 4412.62 0.000360892" stroke="#7F7F7F" stroke-width="11.4583" stroke-miterlimit="8" fill="none" fill-rule="evenodd" transform="matrix(-1 0 0 1 4400.12 849.5)"/><path d="M0 0 4412.62 0.000360892" stroke="#7F7F7F" stroke-width="11.4583" stroke-miterlimit="8" fill="none" fill-rule="evenodd" transform="matrix(-1 0 0 1 4400.12 896.5)"/><path d="M0 0 4412.62 0.000360892" stroke="#7F7F7F" stroke-width="11.4583" stroke-miterlimit="8" fill="none" fill-rule="evenodd" transform="matrix(-1 0 0 1 4400.12 944.5)"/><path d="M0 0 4412.62 0.000360892" stroke="#7F7F7F" stroke-width="11.4583" stroke-miterlimit="8" fill="none" fill-rule="evenodd" transform="matrix(-1 0 0 1 4400.12 991.5)"/><path d="M0 0 4412.62 0.000360892" stroke="#7F7F7F" stroke-width="11.4583" stroke-miterlimit="8" fill="none" fill-rule="evenodd" transform="matrix(-1 0 0 1 4400.12 1038.5)"/><path d="M0 0 4412.62 0.000360892" stroke="#7F7F7F" stroke-width="11.4583" stroke-miterlimit="8" fill="none" fill-rule="evenodd" transform="matrix(-1 0 0 1 4400.12 1085.5)"/><path d="M0 0 4412.62 0.000360892" stroke="#7F7F7F" stroke-width="11.4583" stroke-miterlimit="8" fill="none" fill-rule="evenodd" transform="matrix(-1 0 0 1 4400.12 1133.5)"/><path d="M0 0 4412.62 0.000360892" stroke="#7F7F7F" stroke-width="11.4583" stroke-miterlimit="8" fill="none" fill-rule="evenodd" transform="matrix(-1 0 0 1 4400.12 1180.5)"/><path d="M0 0 4412.62 0.000360892" stroke="#7F7F7F" stroke-width="11.4583" stroke-miterlimit="8" fill="none" fill-rule="evenodd" transform="matrix(-1 0 0 1 4400.12 1227.5)"/><path d="M0 0 4412.62 0.000360892" stroke="#7F7F7F" stroke-width="11.4583" stroke-miterlimit="8" fill="none" fill-rule="evenodd" transform="matrix(-1 0 0 1 4400.12 1274.5)"/><path d="M0 0 4412.62 0.000360892" stroke="#7F7F7F" stroke-width="11.4583" stroke-miterlimit="8" fill="none" fill-rule="evenodd" transform="matrix(-1 0 0 1 4400.12 1322.5)"/><path d="M0 0 4412.62 0.000360892" stroke="#7F7F7F" stroke-width="11.4583" stroke-miterlimit="8" fill="none" fill-rule="evenodd" transform="matrix(-1 0 0 1 4400.12 1369.5)"/><path d="M0 0 4410.27 0.000360892" stroke="#7F7F7F" stroke-width="11.4583" stroke-miterlimit="8" fill="none" fill-rule="evenodd" transform="matrix(-1 0 0 1 4397.77 286.5)"/><path d="M0 0 4405.47 0.000360892" stroke="#7F7F7F" stroke-width="11.4583" stroke-miterlimit="8" fill="none" fill-rule="evenodd" transform="matrix(-1 0 0 1 4392.97 333.5)"/><path d="M0 0 4412.62 0.000360892" stroke="#7F7F7F" stroke-width="11.4583" stroke-miterlimit="8" fill="none" fill-rule="evenodd" transform="matrix(-1 0 0 1 4400.12 380.5)"/><path d="M0 0 4412.62 0.000360892" stroke="#7F7F7F" stroke-width="11.4583" stroke-miterlimit="8" fill="none" fill-rule="evenodd" transform="matrix(-1 0 0 1 4400.12 47.4999)"/><path d="M0 0 4412.62 0.000360892" stroke="#7F7F7F" stroke-width="11.4583" stroke-miterlimit="8" fill="none" fill-rule="evenodd" transform="matrix(-1 0 0 1 4400.12 95.5001)"/><path d="M0 0 4412.62 0.000360892" stroke="#7F7F7F" stroke-width="11.4583" stroke-miterlimit="8" fill="none" fill-rule="evenodd" transform="matrix(-1 0 0 1 4400.12 142.5)"/><path d="M0 0 4412.62 0.000360892" stroke="#7F7F7F" stroke-width="11.4583" stroke-miterlimit="8" fill="none" fill-rule="evenodd" transform="matrix(-1 0 0 1 4400.12 189.5)"/><path d="M0 0 4412.62 0.000360892" stroke="#7F7F7F" stroke-width="11.4583" stroke-miterlimit="8" fill="none" fill-rule="evenodd" transform="matrix(-1 0 0 1 4400.12 236.5)"/><path d="M0 0 1634.31 0.000360892" stroke="#7F7F7F" stroke-width="6.875" stroke-miterlimit="8" fill="none" fill-rule="evenodd" transform="matrix(1.83697e-16 1 1 -1.83697e-16 1541.5 3.49993)"/><path d="M0 0 1634.31 0.000360892" stroke="#7F7F7F" stroke-width="6.875" stroke-miterlimit="8" fill="none" fill-rule="evenodd" transform="matrix(1.83697e-16 1 1 -1.83697e-16 1587.5 3.49993)"/><path d="M0 0 1634.31 0.000360892" stroke="#7F7F7F" stroke-width="6.875" stroke-miterlimit="8" fill="none" fill-rule="evenodd" transform="matrix(1.83697e-16 1 1 -1.83697e-16 1634.5 3.49993)"/><path d="M0 0 1637.59 0.000360892" stroke="#7F7F7F" stroke-width="6.875" stroke-miterlimit="8" fill="none" fill-rule="evenodd" transform="matrix(1.83697e-16 1 1 -1.83697e-16 1681.5 1.49987)"/><path d="M0 0 1640.24 0.000360892" stroke="#7F7F7F" stroke-width="6.875" stroke-miterlimit="8" fill="none" fill-rule="evenodd" transform="matrix(1.83697e-16 1 1 -1.83697e-16 1728.5 0.499656)"/><path d="M0 0 1640.24 0.000360892" stroke="#7F7F7F" stroke-width="6.875" stroke-miterlimit="8" fill="none" fill-rule="evenodd" transform="matrix(1.83697e-16 1 1 -1.83697e-16 1775.5 0.499656)"/><path d="M0 0 1640.24 0.000360892" stroke="#7F7F7F" stroke-width="6.875" stroke-miterlimit="8" fill="none" fill-rule="evenodd" transform="matrix(1.83697e-16 1 1 -1.83697e-16 1821.5 0.499656)"/><path d="M0 0 1640.24 0.000360892" stroke="#7F7F7F" stroke-width="6.875" stroke-miterlimit="8" fill="none" fill-rule="evenodd" transform="matrix(1.83697e-16 1 1 -1.83697e-16 1868.5 0.499656)"/><path d="M0 0 1640.24 0.000360892" stroke="#7F7F7F" stroke-width="6.875" stroke-miterlimit="8" fill="none" fill-rule="evenodd" transform="matrix(1.83697e-16 1 1 -1.83697e-16 1915.5 0.499656)"/><path d="M0 0 1640.24 0.000360892" stroke="#7F7F7F" stroke-width="6.875" stroke-miterlimit="8" fill="none" fill-rule="evenodd" transform="matrix(1.83697e-16 1 1 -1.83697e-16 1962.5 0.499656)"/><path d="M0 0 1640.24 0.000360892" stroke="#7F7F7F" stroke-width="6.875" stroke-miterlimit="8" fill="none" fill-rule="evenodd" transform="matrix(1.83697e-16 1 1 -1.83697e-16 2009.5 0.499656)"/><path d="M0 0 1640.24 0.000360892" stroke="#7F7F7F" stroke-width="6.875" stroke-miterlimit="8" fill="none" fill-rule="evenodd" transform="matrix(1.83697e-16 1 1 -1.83697e-16 2056.5 0.499656)"/><path d="M0 0 1640.24 0.000360892" stroke="#7F7F7F" stroke-width="6.875" stroke-miterlimit="8" fill="none" fill-rule="evenodd" transform="matrix(1.83697e-16 1 1 -1.83697e-16 2102.5 0.499656)"/><path d="M0 0 1640.24 0.000360892" stroke="#7F7F7F" stroke-width="6.875" stroke-miterlimit="8" fill="none" fill-rule="evenodd" transform="matrix(1.83697e-16 1 1 -1.83697e-16 2149.5 0.499656)"/><path d="M0 0 1640.24 0.000360892" stroke="#7F7F7F" stroke-width="6.875" stroke-miterlimit="8" fill="none" fill-rule="evenodd" transform="matrix(1.83697e-16 1 1 -1.83697e-16 2196.5 0.499656)"/><path d="M0 0 1640.24 0.000360892" stroke="#7F7F7F" stroke-width="6.875" stroke-miterlimit="8" fill="none" fill-rule="evenodd" transform="matrix(1.83697e-16 1 1 -1.83697e-16 2243.5 0.499656)"/><path d="M0 0 1640.24 0.000360892" stroke="#7F7F7F" stroke-width="6.875" stroke-miterlimit="8" fill="none" fill-rule="evenodd" transform="matrix(1.83697e-16 1 1 -1.83697e-16 2290.5 0.499656)"/><path d="M0 0 1640.24 0.000360892" stroke="#7F7F7F" stroke-width="6.875" stroke-miterlimit="8" fill="none" fill-rule="evenodd" transform="matrix(1.83697e-16 1 1 -1.83697e-16 2336.5 0.499836)"/><path d="M0 0 1640.24 0.000360892" stroke="#7F7F7F" stroke-width="6.875" stroke-miterlimit="8" fill="none" fill-rule="evenodd" transform="matrix(1.83697e-16 1 1 -1.83697e-16 2383.5 0.499656)"/><path d="M0 0 1640.24 0.000360892" stroke="#7F7F7F" stroke-width="6.875" stroke-miterlimit="8" fill="none" fill-rule="evenodd" transform="matrix(1.83697e-16 1 1 -1.83697e-16 2430.5 0.499836)"/><path d="M0 0 1640.24 0.000360892" stroke="#7F7F7F" stroke-width="6.875" stroke-miterlimit="8" fill="none" fill-rule="evenodd" transform="matrix(1.83697e-16 1 1 -1.83697e-16 2477.5 0.499836)"/><path d="M0 0 1634.31 0.000360892" stroke="#7F7F7F" stroke-width="6.875" stroke-miterlimit="8" fill="none" fill-rule="evenodd" transform="matrix(1.83697e-16 1 1 -1.83697e-16 1400.5 3.49993)"/><path d="M0 0 1637.59 0.000360892" stroke="#7F7F7F" stroke-width="6.875" stroke-miterlimit="8" fill="none" fill-rule="evenodd" transform="matrix(1.83697e-16 1 1 -1.83697e-16 1447.5 1.49987)"/><path d="M0 0 1640.24 0.000360892" stroke="#7F7F7F" stroke-width="6.875" stroke-miterlimit="8" fill="none" fill-rule="evenodd" transform="matrix(1.83697e-16 1 1 -1.83697e-16 1494.5 0.499656)"/><path d="M0 0 1634.31 0.000360892" stroke="#7F7F7F" stroke-width="6.875" stroke-miterlimit="8" fill="none" fill-rule="evenodd" transform="matrix(1.83697e-16 1 1 -1.83697e-16 417.5 5.5)"/><path d="M0 0 1634.31 0.000360892" stroke="#7F7F7F" stroke-width="6.875" stroke-miterlimit="8" fill="none" fill-rule="evenodd" transform="matrix(1.83697e-16 1 1 -1.83697e-16 464.5 5.5)"/><path d="M0 0 1634.31 0.000360892" stroke="#7F7F7F" stroke-width="6.875" stroke-miterlimit="8" fill="none" fill-rule="evenodd" transform="matrix(1.83697e-16 1 1 -1.83697e-16 511.5 5.5)"/><path d="M0 0 1637.59 0.000360892" stroke="#7F7F7F" stroke-width="6.875" stroke-miterlimit="8" fill="none" fill-rule="evenodd" transform="matrix(1.83697e-16 1 1 -1.83697e-16 558.5 3.49993)"/><path d="M0 0 1640.24 0.000360892" stroke="#7F7F7F" stroke-width="6.875" stroke-miterlimit="8" fill="none" fill-rule="evenodd" transform="matrix(1.83697e-16 1 1 -1.83697e-16 604.5 2.49972)"/><path d="M0 0 1640.24 0.000360892" stroke="#7F7F7F" stroke-width="6.875" stroke-miterlimit="8" fill="none" fill-rule="evenodd" transform="matrix(1.83697e-16 1 1 -1.83697e-16 651.5 2.49972)"/><path d="M0 0 1640.24 0.000360892" stroke="#7F7F7F" stroke-width="6.875" stroke-miterlimit="8" fill="none" fill-rule="evenodd" transform="matrix(1.83697e-16 1 1 -1.83697e-16 698.5 2.49972)"/><path d="M0 0 1640.24 0.000360892" stroke="#7F7F7F" stroke-width="6.875" stroke-miterlimit="8" fill="none" fill-rule="evenodd" transform="matrix(1.83697e-16 1 1 -1.83697e-16 745.5 2.49972)"/><path d="M0 0 1640.24 0.000360892" stroke="#7F7F7F" stroke-width="6.875" stroke-miterlimit="8" fill="none" fill-rule="evenodd" transform="matrix(1.83697e-16 1 1 -1.83697e-16 792.5 2.49972)"/><path d="M0 0 1640.24 0.000360892" stroke="#7F7F7F" stroke-width="6.875" stroke-miterlimit="8" fill="none" fill-rule="evenodd" transform="matrix(1.83697e-16 1 1 -1.83697e-16 838.5 2.49972)"/><path d="M0 0 1640.24 0.000360892" stroke="#7F7F7F" stroke-width="6.875" stroke-miterlimit="8" fill="none" fill-rule="evenodd" transform="matrix(1.83697e-16 1 1 -1.83697e-16 885.5 2.49972)"/><path d="M0 0 1640.24 0.000360892" stroke="#7F7F7F" stroke-width="6.875" stroke-miterlimit="8" fill="none" fill-rule="evenodd" transform="matrix(1.83697e-16 1 1 -1.83697e-16 932.5 2.49972)"/><path d="M0 0 1640.24 0.000360892" stroke="#7F7F7F" stroke-width="6.875" stroke-miterlimit="8" fill="none" fill-rule="evenodd" transform="matrix(1.83697e-16 1 1 -1.83697e-16 979.5 2.49972)"/><path d="M0 0 1640.24 0.000360892" stroke="#7F7F7F" stroke-width="6.875" stroke-miterlimit="8" fill="none" fill-rule="evenodd" transform="matrix(1.83697e-16 1 1 -1.83697e-16 1026.5 2.49972)"/><path d="M0 0 1640.24 0.000360892" stroke="#7F7F7F" stroke-width="6.875" stroke-miterlimit="8" fill="none" fill-rule="evenodd" transform="matrix(1.83697e-16 1 1 -1.83697e-16 1073.5 2.49972)"/><path d="M0 0 1640.24 0.000360892" stroke="#7F7F7F" stroke-width="6.875" stroke-miterlimit="8" fill="none" fill-rule="evenodd" transform="matrix(1.83697e-16 1 1 -1.83697e-16 1119.5 2.49972)"/><path d="M0 0 1640.24 0.000360892" stroke="#7F7F7F" stroke-width="6.875" stroke-miterlimit="8" fill="none" fill-rule="evenodd" transform="matrix(1.83697e-16 1 1 -1.83697e-16 1166.5 2.49972)"/><path d="M0 0 1640.24 0.000360892" stroke="#7F7F7F" stroke-width="6.875" stroke-miterlimit="8" fill="none" fill-rule="evenodd" transform="matrix(1.83697e-16 1 1 -1.83697e-16 1213.5 2.4999)"/><path d="M0 0 1640.24 0.000360892" stroke="#7F7F7F" stroke-width="6.875" stroke-miterlimit="8" fill="none" fill-rule="evenodd" transform="matrix(1.83697e-16 1 1 -1.83697e-16 1260.5 2.49972)"/><path d="M0 0 1640.24 0.000360892" stroke="#7F7F7F" stroke-width="6.875" stroke-miterlimit="8" fill="none" fill-rule="evenodd" transform="matrix(1.83697e-16 1 1 -1.83697e-16 1307.5 2.4999)"/><path d="M0 0 1640.24 0.000360892" stroke="#7F7F7F" stroke-width="6.875" stroke-miterlimit="8" fill="none" fill-rule="evenodd" transform="matrix(1.83697e-16 1 1 -1.83697e-16 1353.5 2.4999)"/><path d="M0 0 1634.31 0.000360892" stroke="#7F7F7F" stroke-width="6.875" stroke-miterlimit="8" fill="none" fill-rule="evenodd" transform="matrix(1.83697e-16 1 1 -1.83697e-16 277.5 5.5)"/><path d="M0 0 1637.59 0.000360892" stroke="#7F7F7F" stroke-width="6.875" stroke-miterlimit="8" fill="none" fill-rule="evenodd" transform="matrix(1.83697e-16 1 1 -1.83697e-16 324.5 3.49993)"/><path d="M0 0 1640.24 0.000360892" stroke="#7F7F7F" stroke-width="6.875" stroke-miterlimit="8" fill="none" fill-rule="evenodd" transform="matrix(1.83697e-16 1 1 -1.83697e-16 370.5 2.49972)"/><path d="M0 0 1634.31 0.000360892" stroke="#7F7F7F" stroke-width="6.875" stroke-miterlimit="8" fill="none" fill-rule="evenodd" transform="matrix(1.83697e-16 1 1 -1.83697e-16 4068.5 3.49993)"/><path d="M0 0 1634.31 0.000360892" stroke="#7F7F7F" stroke-width="6.875" stroke-miterlimit="8" fill="none" fill-rule="evenodd" transform="matrix(1.83697e-16 1 1 -1.83697e-16 4115.5 3.49993)"/><path d="M0 0 1634.31 0.000360892" stroke="#7F7F7F" stroke-width="6.875" stroke-miterlimit="8" fill="none" fill-rule="evenodd" transform="matrix(1.83697e-16 1 1 -1.83697e-16 4162.5 3.49993)"/><path d="M0 0 1637.59 0.000360892" stroke="#7F7F7F" stroke-width="6.875" stroke-miterlimit="8" fill="none" fill-rule="evenodd" transform="matrix(1.83697e-16 1 1 -1.83697e-16 4209.5 2.4999)"/><path d="M0 0 1640.24 0.000360892" stroke="#7F7F7F" stroke-width="6.875" stroke-miterlimit="8" fill="none" fill-rule="evenodd" transform="matrix(1.83697e-16 1 1 -1.83697e-16 4256.5 0.499656)"/><path d="M0 0 1640.24 0.000360892" stroke="#7F7F7F" stroke-width="6.875" stroke-miterlimit="8" fill="none" fill-rule="evenodd" transform="matrix(1.83697e-16 1 1 -1.83697e-16 4302.5 0.499656)"/><path d="M0 0 1640.24 0.000360892" stroke="#7F7F7F" stroke-width="6.875" stroke-miterlimit="8" fill="none" fill-rule="evenodd" transform="matrix(1.83697e-16 1 1 -1.83697e-16 4349.5 0.499656)"/><path d="M0 0 1634.31 0.000360892" stroke="#7F7F7F" stroke-width="6.875" stroke-miterlimit="8" fill="none" fill-rule="evenodd" transform="matrix(1.83697e-16 1 1 -1.83697e-16 3928.5 3.49993)"/><path d="M0 0 1637.59 0.000360892" stroke="#7F7F7F" stroke-width="6.875" stroke-miterlimit="8" fill="none" fill-rule="evenodd" transform="matrix(1.83697e-16 1 1 -1.83697e-16 3975.5 2.4999)"/><path d="M0 0 1640.24 0.000360892" stroke="#7F7F7F" stroke-width="6.875" stroke-miterlimit="8" fill="none" fill-rule="evenodd" transform="matrix(1.83697e-16 1 1 -1.83697e-16 4021.5 0.499656)"/><path d="M0 0 1634.31 0.000360892" stroke="#7F7F7F" stroke-width="6.875" stroke-miterlimit="8" fill="none" fill-rule="evenodd" transform="matrix(1.83697e-16 1 1 -1.83697e-16 2945.5 5.5)"/><path d="M0 0 1634.31 0.000360892" stroke="#7F7F7F" stroke-width="6.875" stroke-miterlimit="8" fill="none" fill-rule="evenodd" transform="matrix(1.83697e-16 1 1 -1.83697e-16 2992.5 5.5)"/><path d="M0 0 1634.31 0.000360892" stroke="#7F7F7F" stroke-width="6.875" stroke-miterlimit="8" fill="none" fill-rule="evenodd" transform="matrix(1.83697e-16 1 1 -1.83697e-16 3038.5 5.5)"/><path d="M0 0 1637.59 0.000360892" stroke="#7F7F7F" stroke-width="6.875" stroke-miterlimit="8" fill="none" fill-rule="evenodd" transform="matrix(1.83697e-16 1 1 -1.83697e-16 3085.5 3.49993)"/><path d="M0 0 1640.24 0.000360892" stroke="#7F7F7F" stroke-width="6.875" stroke-miterlimit="8" fill="none" fill-rule="evenodd" transform="matrix(1.83697e-16 1 1 -1.83697e-16 3132.5 2.49972)"/><path d="M0 0 1640.24 0.000360892" stroke="#7F7F7F" stroke-width="6.875" stroke-miterlimit="8" fill="none" fill-rule="evenodd" transform="matrix(1.83697e-16 1 1 -1.83697e-16 3179.5 2.49972)"/><path d="M0 0 1640.24 0.000360892" stroke="#7F7F7F" stroke-width="6.875" stroke-miterlimit="8" fill="none" fill-rule="evenodd" transform="matrix(1.83697e-16 1 1 -1.83697e-16 3226.5 2.49972)"/><path d="M0 0 1640.24 0.000360892" stroke="#7F7F7F" stroke-width="6.875" stroke-miterlimit="8" fill="none" fill-rule="evenodd" transform="matrix(1.83697e-16 1 1 -1.83697e-16 3273.5 2.49972)"/><path d="M0 0 1640.24 0.000360892" stroke="#7F7F7F" stroke-width="6.875" stroke-miterlimit="8" fill="none" fill-rule="evenodd" transform="matrix(1.83697e-16 1 1 -1.83697e-16 3319.5 2.49972)"/><path d="M0 0 1640.24 0.000360892" stroke="#7F7F7F" stroke-width="6.875" stroke-miterlimit="8" fill="none" fill-rule="evenodd" transform="matrix(1.83697e-16 1 1 -1.83697e-16 3366.5 2.49972)"/><path d="M0 0 1640.24 0.000360892" stroke="#7F7F7F" stroke-width="6.875" stroke-miterlimit="8" fill="none" fill-rule="evenodd" transform="matrix(1.83697e-16 1 1 -1.83697e-16 3413.5 2.49972)"/><path d="M0 0 1640.24 0.000360892" stroke="#7F7F7F" stroke-width="6.875" stroke-miterlimit="8" fill="none" fill-rule="evenodd" transform="matrix(1.83697e-16 1 1 -1.83697e-16 3460.5 2.49972)"/><path d="M0 0 1640.24 0.000360892" stroke="#7F7F7F" stroke-width="6.875" stroke-miterlimit="8" fill="none" fill-rule="evenodd" transform="matrix(1.83697e-16 1 1 -1.83697e-16 3507.5 2.49972)"/><path d="M0 0 1640.24 0.000360892" stroke="#7F7F7F" stroke-width="6.875" stroke-miterlimit="8" fill="none" fill-rule="evenodd" transform="matrix(1.83697e-16 1 1 -1.83697e-16 3553.5 2.49972)"/><path d="M0 0 1640.24 0.000360892" stroke="#7F7F7F" stroke-width="6.875" stroke-miterlimit="8" fill="none" fill-rule="evenodd" transform="matrix(1.83697e-16 1 1 -1.83697e-16 3600.5 2.49972)"/><path d="M0 0 1640.24 0.000360892" stroke="#7F7F7F" stroke-width="6.875" stroke-miterlimit="8" fill="none" fill-rule="evenodd" transform="matrix(1.83697e-16 1 1 -1.83697e-16 3647.5 2.49972)"/><path d="M0 0 1640.24 0.000360892" stroke="#7F7F7F" stroke-width="6.875" stroke-miterlimit="8" fill="none" fill-rule="evenodd" transform="matrix(1.83697e-16 1 1 -1.83697e-16 3694.5 2.49972)"/><path d="M0 0 1640.24 0.000360892" stroke="#7F7F7F" stroke-width="6.875" stroke-miterlimit="8" fill="none" fill-rule="evenodd" transform="matrix(1.83697e-16 1 1 -1.83697e-16 3741.5 2.4999)"/><path d="M0 0 1640.24 0.000360892" stroke="#7F7F7F" stroke-width="6.875" stroke-miterlimit="8" fill="none" fill-rule="evenodd" transform="matrix(1.83697e-16 1 1 -1.83697e-16 3787.5 2.49972)"/><path d="M0 0 1640.24 0.000360892" stroke="#7F7F7F" stroke-width="6.875" stroke-miterlimit="8" fill="none" fill-rule="evenodd" transform="matrix(1.83697e-16 1 1 -1.83697e-16 3834.5 2.4999)"/><path d="M0 0 1640.24 0.000360892" stroke="#7F7F7F" stroke-width="6.875" stroke-miterlimit="8" fill="none" fill-rule="evenodd" transform="matrix(1.83697e-16 1 1 -1.83697e-16 3881.5 2.4999)"/><path d="M0 0 1634.31 0.000360892" stroke="#7F7F7F" stroke-width="6.875" stroke-miterlimit="8" fill="none" fill-rule="evenodd" transform="matrix(1.83697e-16 1 1 -1.83697e-16 2804.5 5.5)"/><path d="M0 0 1637.59 0.000360892" stroke="#7F7F7F" stroke-width="6.875" stroke-miterlimit="8" fill="none" fill-rule="evenodd" transform="matrix(1.83697e-16 1 1 -1.83697e-16 2851.5 3.49993)"/><path d="M0 0 1640.24 0.000360892" stroke="#7F7F7F" stroke-width="6.875" stroke-miterlimit="8" fill="none" fill-rule="evenodd" transform="matrix(1.83697e-16 1 1 -1.83697e-16 2898.5 2.49972)"/><path d="M0 0 1640.24 0.000360892" stroke="#7F7F7F" stroke-width="6.875" stroke-miterlimit="8" fill="none" fill-rule="evenodd" transform="matrix(1.83697e-16 1 1 -1.83697e-16 2524.5 2.49972)"/><path d="M0 0 1640.24 0.000360892" stroke="#7F7F7F" stroke-width="6.875" stroke-miterlimit="8" fill="none" fill-rule="evenodd" transform="matrix(1.83697e-16 1 1 -1.83697e-16 2570.5 2.49972)"/><path d="M0 0 1640.24 0.000360892" stroke="#7F7F7F" stroke-width="6.875" stroke-miterlimit="8" fill="none" fill-rule="evenodd" transform="matrix(1.83697e-16 1 1 -1.83697e-16 2617.5 2.4999)"/><path d="M0 0 1640.24 0.000360892" stroke="#7F7F7F" stroke-width="6.875" stroke-miterlimit="8" fill="none" fill-rule="evenodd" transform="matrix(1.83697e-16 1 1 -1.83697e-16 2664.5 2.49972)"/><path d="M0 0 1640.24 0.000360892" stroke="#7F7F7F" stroke-width="6.875" stroke-miterlimit="8" fill="none" fill-rule="evenodd" transform="matrix(1.83697e-16 1 1 -1.83697e-16 2711.5 2.4999)"/><path d="M0 0 1640.24 0.000360892" stroke="#7F7F7F" stroke-width="6.875" stroke-miterlimit="8" fill="none" fill-rule="evenodd" transform="matrix(1.83697e-16 1 1 -1.83697e-16 2758.5 2.4999)"/><path d="M0 0 1634.31 0.000360892" stroke="#7F7F7F" stroke-width="6.875" stroke-miterlimit="8" fill="none" fill-rule="evenodd" transform="matrix(1.83697e-16 1 1 -1.83697e-16 46.4999 7.50007)"/><path d="M0 0 1634.31 0.000360892" stroke="#7F7F7F" stroke-width="6.875" stroke-miterlimit="8" fill="none" fill-rule="evenodd" transform="matrix(1.83697e-16 1 1 -1.83697e-16 93.5 7.50007)"/><path d="M0 0 1634.31 0.000360892" stroke="#7F7F7F" stroke-width="6.875" stroke-miterlimit="8" fill="none" fill-rule="evenodd" transform="matrix(1.83697e-16 1 1 -1.83697e-16 140.5 7.50007)"/><path d="M0 0 1637.59 0.000360892" stroke="#7F7F7F" stroke-width="6.875" stroke-miterlimit="8" fill="none" fill-rule="evenodd" transform="matrix(1.83697e-16 1 1 -1.83697e-16 186.5 6.50003)"/><path d="M0 0 1640.24 0.000360892" stroke="#7F7F7F" stroke-width="6.875" stroke-miterlimit="8" fill="none" fill-rule="evenodd" transform="matrix(1.83697e-16 1 1 -1.83697e-16 233.5 4.49979)"/><path d="M665.094 225.5 665.094 1163.57 647.906 1163.57 647.906 225.5ZM682.281 1154.97 656.5 1206.54 630.719 1154.97Z" fill="#C55A11"/><path d="M594.907 1206.54 594.907 268.468 612.094 268.468 612.094 1206.54ZM577.719 277.062 603.501 225.5 629.282 277.062Z" fill="#C55A11"/><path d="M1735.82 1289.09 802.468 1289.09 802.468 1271.91 1735.82 1271.91ZM811.062 1306.28 759.5 1280.5 811.062 1254.72Z"/><path d="M764.5 1334.91 1697.85 1334.91 1697.85 1352.09 764.5 1352.09ZM1689.26 1317.72 1740.82 1343.5 1689.26 1369.28Z"/><path d="M773.328 1465.14 711.532 1454.1 692.65 1439.27C690.59 1437.89 687.844 1438.92 687.157 1441.34L683.037 1457.89C668.275 1445.48 645.96 1437.2 620.898 1436.16 585.88 1435.13 554.639 1460.65 551.549 1495.84 550.52 1506.53 552.236 1516.54 555.669 1525.51 536.444 1513.09 524.6 1486.64 520.308 1472.73 516.017 1458.81 532.21 1442.26 529.921 1442.03 529.978 1425.7 510.867 1439.55 510.009 1465.83 509.323 1512.05 548.116 1550 594.12 1550L630.168 1550C636.004 1550 636.976 1541.43 640.467 1539.65 643.957 1537.87 649.564 1538.21 651.109 1539.31 652.654 1540.4 650.766 1544.14 649.736 1546.21 658.662 1548.28 669.305 1549.66 682.007 1549.66L712.905 1549.66C718.742 1549.66 723.204 1545.17 723.204 1539.31 723.204 1533.44 718.742 1528.96 712.905 1528.96L702.606 1528.96 779.851 1486.87C782.94 1485.15 784.657 1482.04 785 1478.94 785 1472.38 779.851 1466.52 773.328 1465.14Z" fill-rule="evenodd"/><path d="M413.377 1188.21 402.434 1250.24 387.73 1269.19C386.362 1271.25 387.388 1274.01 389.782 1274.7L406.196 1278.83C393.885 1293.65 385.678 1316.05 384.652 1341.2 383.626 1376.34 408.931 1407.7 443.812 1410.8 454.413 1411.83 464.33 1410.11 473.221 1406.66 460.91 1425.96 434.693 1437.85 420.9 1442.15 407.107 1446.46 390.693 1430.21 390.465 1432.51 374.279 1432.45 388.015 1451.63 414.061 1452.49 459.884 1453.18 497.5 1414.24 497.5 1368.07L497.5 1331.9C497.5 1326.04 489.008 1325.06 487.241 1321.56 485.474 1318.06 485.817 1312.43 486.899 1310.88 487.982 1309.33 491.687 1311.22 493.739 1312.26 495.79 1303.3 497.158 1292.62 497.158 1279.87L497.158 1248.86C497.158 1243 492.713 1238.52 486.899 1238.52 481.086 1238.52 476.64 1243 476.64 1248.86L476.64 1259.19 434.921 1181.67C433.211 1178.57 430.133 1176.84 427.056 1176.5 420.558 1176.5 414.745 1181.67 413.377 1188.21Z" stroke="#0D0D0D" stroke-width="6.875" stroke-miterlimit="8" fill="#C55A11" fill-rule="evenodd"/><path d="M559.589 1281.03C565.191 1268.49 589.125 1245.89 614.596 1246 636.831 1246.09 678.497 1252.19 700.167 1268.49 721.837 1284.78 734.942 1303.6 732.766 1322.91 731.033 1338.24 722.118 1350.16 695.166 1356.87 669.143 1362.63 642.39 1362.36 616.456 1356.1 596.145 1351.8 582.691 1347.38 572.368 1338.29 558.664 1326.22 551.072 1300.11 559.589 1281.03Z" fill-rule="evenodd"/><path d="M1878.4 1225.57C1890.08 1231.14 1911.1 1254.94 1911 1280.26 1910.92 1302.37 1905.24 1343.81 1890.08 1365.35 1874.92 1386.9 1857.4 1399.93 1839.44 1397.77 1825.18 1396.04 1814.08 1387.18 1807.84 1360.38 1802.49 1334.5 1802.73 1307.9 1808.56 1282.11 1812.56 1261.92 1816.67 1248.54 1825.13 1238.28 1836.36 1224.65 1860.66 1217.1 1878.4 1225.57Z" stroke="#0D0D0D" stroke-width="10.3125" stroke-miterlimit="8" fill="#939393" fill-rule="evenodd"/><path d="M654.099 40.569C665.883 46.1392 687.101 69.9385 687 95.2646 686.915 117.375 681.183 158.805 665.883 180.353 650.585 201.9 632.903 214.931 614.772 212.767 600.375 211.044 589.177 202.179 582.874 175.38 577.473 149.504 577.721 122.902 583.605 97.1146 587.636 76.9183 591.789 63.5404 600.327 53.2757 611.664 39.6486 636.188 32.1004 654.099 40.569Z" stroke="#0D0D0D" stroke-width="10.3125" stroke-miterlimit="8" fill="#939393" fill-rule="evenodd"/></g></svg>